<?xml version="1.0" encoding="UTF-8"?>
<svg xmlns="http://www.w3.org/2000/svg" width="120" height="380" xmlns:xlink="http://www.w3.org/1999/xlink" viewBox="0 0 120 380">
  <defs>
    <linearGradient id="uuid-33098e9d-31fc-4b7a-9d80-3242fbf36d3f" x1="60" y1="0" x2="60" y2="380" gradientUnits="userSpaceOnUse">
      <stop offset="0" stop-color="#2a2a2b"/>
      <stop offset="1" stop-color="#171717"/>
    </linearGradient>
  </defs>
  <g id="uuid-87891d52-01f0-4f24-9daa-846b59983233" data-name="FND BG">
    <rect width="120" height="380" fill="url(#uuid-33098e9d-31fc-4b7a-9d80-3242fbf36d3f)"/>
  </g>
  <g id="uuid-7a3ccee4-46be-4b98-8bd3-ad3729df4487" data-name="FND GRAPH">
    <g>
      <circle cx="60.50165" cy="355.83101" r="1.18571" fill="#ededed"/>
      <path d="m51.85927,359.75298c-.34551,0-.66126-.1952-.8158-.50419l-2.96428-5.92856c-.22526-.45057-.04266-.99844.40794-1.2237.45008-.22535.99831-.04271,1.22366.4079l2.14848,4.29696,2.14848-4.29696c.22526-.45057.77314-.63325,1.22366-.4079.45061.22526.63321.77314.40794,1.2237l-2.96428,5.92856c-.15454.30899-.47029.50419-.8158.50419Z" fill="#ededed"/>
      <path d="m68.14073,359.75298c-.34551,0-.66126-.1952-.8158-.50419l-2.96428-5.92856c-.22526-.45057-.04266-.99844.40794-1.2237.45016-.22535.9984-.04271,1.22366.4079l2.14848,4.29696,2.14848-4.29696c.22526-.45057.77305-.63325,1.22366-.4079.45061.22526.63321.77314.40794,1.2237l-2.96428,5.92856c-.15454.30899-.47029.50419-.8158.50419Z" fill="#ededed"/>
      <path d="m60.44242,359.75298c-2.13744,0-3.87637-1.73893-3.87637-3.87637s1.73893-3.87637,3.87637-3.87637c.84653,0,1.65102.26819,2.32653.77554.40278.30253.48401.87428.18153,1.27705-.30248.40273-.87432.48401-1.2771.18148-.357-.26815-.78267-.4099-1.23096-.4099-1.13156,0-2.05219.92059-2.05219,2.05219s.92064,2.05219,2.05219,2.05219c.44829,0,.87396-.14176,1.23096-.4099.40269-.30271.97444-.22125,1.2771.18148.30248.40278.22125.97453-.18153,1.27705-.67551.50735-1.48.77554-2.32653.77554Z" fill="#ededed"/>
    </g>
    <line x1="26.06954" y1="334" x2="43.16953" y2="334" fill="none" stroke="#ededed" stroke-linecap="round" stroke-linejoin="round" stroke-width=".8"/>
    <line x1="77.14067" y1="334" x2="84.64297" y2="334" fill="none" stroke="#ededed" stroke-linecap="round" stroke-linejoin="round" stroke-width=".8"/>
    <rect x="84.21482" y="40.00547" width="28.55155" height="39.15691" rx="2.83465" ry="2.83465" fill="#ededed"/>
    <rect x="84.17799" y="319.49694" width="28.7163" height="28.7163" rx="2.83465" ry="2.83465" fill="#ededed"/>
    <line x1="30.85019" y1="64.8652" x2="43.16953" y2="64.8652" fill="none" stroke="#ededed" stroke-linecap="round" stroke-linejoin="round" stroke-width=".8"/>
    <line x1="77.14067" y1="64.8652" x2="84.64297" y2="64.8652" fill="none" stroke="#ededed" stroke-linecap="round" stroke-linejoin="round" stroke-width=".8"/>
    <g>
      <line x1="60.09361" y1="52.34175" x2="60.09361" y2="48.61849" fill="none" stroke="#ededed" stroke-linecap="round" stroke-linejoin="round" stroke-width=".8"/>
      <path d="m68.72922,79.17037c4.83522-2.92859,8.06662-8.2395,8.06662-14.30514,0-9.23-7.48239-16.71239-16.71239-16.71239s-16.71239,7.48239-16.71239,16.71239c0,6.09737,3.2653,11.4321,8.14264,14.35091" fill="none" stroke="#ededed" stroke-linecap="round" stroke-linejoin="round" stroke-width=".8"/>
      <circle cx="60.09359" cy="64.8652" r="20.69419" fill="none" isolation="isolate" opacity=".69"/>
    </g>
    <g>
      <line x1="60.09361" y1="321.47655" x2="60.09361" y2="317.75329" fill="none" stroke="#ededed" stroke-linecap="round" stroke-linejoin="round" stroke-width=".8"/>
      <path d="m68.72922,348.30517c4.83522-2.92859,8.06662-8.2395,8.06662-14.30514,0-9.23-7.48239-16.71239-16.71239-16.71239s-16.71239,7.48239-16.71239,16.71239c0,6.09737,3.2653,11.4321,8.14264,14.35091" fill="none" stroke="#ededed" stroke-linecap="round" stroke-linejoin="round" stroke-width=".8"/>
      <circle cx="60.09359" cy="334" r="20.69419" fill="none" isolation="isolate" opacity=".69"/>
    </g>
    <line x1="26.06954" y1="295.54873" x2="43.16953" y2="295.54873" fill="none" stroke="#ededed" stroke-linecap="round" stroke-linejoin="round" stroke-width=".8"/>
    <line x1="77.14067" y1="295.54873" x2="84.64297" y2="295.54873" fill="none" stroke="#ededed" stroke-linecap="round" stroke-linejoin="round" stroke-width=".8"/>
    <rect x="84.17799" y="281.04567" width="28.7163" height="28.7163" rx="2.83465" ry="2.83465" fill="#ededed"/>
    <g>
      <line x1="60.09361" y1="283.02529" x2="60.09361" y2="279.30202" fill="none" stroke="#ededed" stroke-linecap="round" stroke-linejoin="round" stroke-width=".8"/>
      <path d="m68.72922,309.85391c4.83522-2.92859,8.06662-8.2395,8.06662-14.30514,0-9.23-7.48239-16.71239-16.71239-16.71239s-16.71239,7.48239-16.71239,16.71239c0,6.09737,3.2653,11.4321,8.14264,14.35091" fill="none" stroke="#ededed" stroke-linecap="round" stroke-linejoin="round" stroke-width=".8"/>
      <circle cx="60.09359" cy="295.54873" r="20.69419" fill="none" isolation="isolate" opacity=".69"/>
    </g>
    <line x1="26.06954" y1="257.09747" x2="43.16953" y2="257.09747" fill="none" stroke="#ededed" stroke-linecap="round" stroke-linejoin="round" stroke-width=".8"/>
    <line x1="77.14067" y1="257.09747" x2="84.64297" y2="257.09747" fill="none" stroke="#ededed" stroke-linecap="round" stroke-linejoin="round" stroke-width=".8"/>
    <rect x="84.17799" y="242.59441" width="28.7163" height="28.7163" rx="2.83465" ry="2.83465" fill="#ededed"/>
    <g>
      <line x1="60.09361" y1="244.57402" x2="60.09361" y2="240.85076" fill="none" stroke="#ededed" stroke-linecap="round" stroke-linejoin="round" stroke-width=".8"/>
      <path d="m68.72922,271.40264c4.83522-2.92859,8.06662-8.2395,8.06662-14.30514,0-9.23-7.48239-16.71239-16.71239-16.71239s-16.71239,7.48239-16.71239,16.71239c0,6.09737,3.2653,11.4321,8.14264,14.35091" fill="none" stroke="#ededed" stroke-linecap="round" stroke-linejoin="round" stroke-width=".8"/>
      <circle cx="60.09359" cy="257.09747" r="20.69419" fill="none" isolation="isolate" opacity=".69"/>
    </g>
    <line x1="26.06954" y1="218.6462" x2="43.16953" y2="218.6462" fill="none" stroke="#ededed" stroke-linecap="round" stroke-linejoin="round" stroke-width=".8"/>
    <line x1="77.14067" y1="218.6462" x2="84.64297" y2="218.6462" fill="none" stroke="#ededed" stroke-linecap="round" stroke-linejoin="round" stroke-width=".8"/>
    <rect x="84.17799" y="204.14314" width="28.7163" height="28.7163" rx="2.83465" ry="2.83465" fill="#ededed"/>
    <g>
      <line x1="60.09361" y1="206.12276" x2="60.09361" y2="202.39949" fill="none" stroke="#ededed" stroke-linecap="round" stroke-linejoin="round" stroke-width=".8"/>
      <path d="m68.72922,232.95138c4.83522-2.92859,8.06662-8.2395,8.06662-14.30514,0-9.23-7.48239-16.71239-16.71239-16.71239s-16.71239,7.48239-16.71239,16.71239c0,6.09737,3.2653,11.4321,8.14264,14.35091" fill="none" stroke="#ededed" stroke-linecap="round" stroke-linejoin="round" stroke-width=".8"/>
      <circle cx="60.09359" cy="218.6462" r="20.69419" fill="none" isolation="isolate" opacity=".69"/>
    </g>
    <line x1="26.06954" y1="180.19494" x2="43.16953" y2="180.19494" fill="none" stroke="#ededed" stroke-linecap="round" stroke-linejoin="round" stroke-width=".8"/>
    <line x1="77.14067" y1="180.19494" x2="84.64297" y2="180.19494" fill="none" stroke="#ededed" stroke-linecap="round" stroke-linejoin="round" stroke-width=".8"/>
    <rect x="84.17799" y="165.69187" width="28.7163" height="28.7163" rx="2.83465" ry="2.83465" fill="#ededed"/>
    <g>
      <line x1="60.09361" y1="167.67149" x2="60.09361" y2="163.94822" fill="none" stroke="#ededed" stroke-linecap="round" stroke-linejoin="round" stroke-width=".8"/>
      <path d="m68.72922,194.50011c4.83522-2.92859,8.06662-8.2395,8.06662-14.30514,0-9.23-7.48239-16.71239-16.71239-16.71239s-16.71239,7.48239-16.71239,16.71239c0,6.09737,3.2653,11.4321,8.14264,14.35091" fill="none" stroke="#ededed" stroke-linecap="round" stroke-linejoin="round" stroke-width=".8"/>
      <circle cx="60.09359" cy="180.19494" r="20.69419" fill="none" isolation="isolate" opacity=".69"/>
    </g>
    <line x1="26.06954" y1="141.74367" x2="43.16953" y2="141.74367" fill="none" stroke="#ededed" stroke-linecap="round" stroke-linejoin="round" stroke-width=".8"/>
    <line x1="77.14067" y1="141.74367" x2="84.64297" y2="141.74367" fill="none" stroke="#ededed" stroke-linecap="round" stroke-linejoin="round" stroke-width=".8"/>
    <rect x="84.17799" y="127.24061" width="28.7163" height="28.7163" rx="2.83465" ry="2.83465" fill="#ededed"/>
    <g>
      <line x1="60.09361" y1="129.22023" x2="60.09361" y2="125.49696" fill="none" stroke="#ededed" stroke-linecap="round" stroke-linejoin="round" stroke-width=".8"/>
      <path d="m68.72922,156.04885c4.83522-2.92859,8.06662-8.2395,8.06662-14.30514,0-9.23-7.48239-16.71239-16.71239-16.71239s-16.71239,7.48239-16.71239,16.71239c0,6.09737,3.2653,11.4321,8.14264,14.35091" fill="none" stroke="#ededed" stroke-linecap="round" stroke-linejoin="round" stroke-width=".8"/>
      <circle cx="60.09359" cy="141.74367" r="20.69419" fill="none" isolation="isolate" opacity=".69"/>
    </g>
    <line x1="26.06954" y1="103.2924" x2="43.16953" y2="103.2924" fill="none" stroke="#ededed" stroke-linecap="round" stroke-linejoin="round" stroke-width=".8"/>
    <line x1="77.14067" y1="103.2924" x2="84.64297" y2="103.2924" fill="none" stroke="#ededed" stroke-linecap="round" stroke-linejoin="round" stroke-width=".8"/>
    <rect x="84.17799" y="88.78934" width="28.7163" height="28.7163" rx="2.83465" ry="2.83465" fill="#ededed"/>
    <g>
      <line x1="60.09361" y1="90.76896" x2="60.09361" y2="87.04569" fill="none" stroke="#ededed" stroke-linecap="round" stroke-linejoin="round" stroke-width=".8"/>
      <path d="m68.72922,117.59758c4.83522-2.92859,8.06662-8.2395,8.06662-14.30514,0-9.23-7.48239-16.71239-16.71239-16.71239s-16.71239,7.48239-16.71239,16.71239c0,6.09737,3.2653,11.4321,8.14264,14.35091" fill="none" stroke="#ededed" stroke-linecap="round" stroke-linejoin="round" stroke-width=".8"/>
      <circle cx="60.09359" cy="103.2924" r="20.69419" fill="none" isolation="isolate" opacity=".69"/>
    </g>
    <path d="m21.96774,49.59667l1.65796-2.87167c.14313-.24791-.03578-.55779-.32204-.55779h-3.31592c-.28626,0-.46517.30989-.32204.55779l1.65796,2.87167c.14313.24791.50096.24791.64409,0Z" fill="#ededed"/>
    <line x1="60.09359" y1="36.44366" x2="60.09359" y2="44.53142" fill="none" stroke="#ededed" stroke-linecap="round" stroke-linejoin="round" stroke-width=".8"/>
    <path d="m21.96771,316.39613l1.65796-2.87167c.14313-.24791-.03578-.55779-.32204-.55779h-3.31592c-.28626,0-.46517.30989-.32204.55779l1.65796,2.87167c.14313.24791.50096.24791.64409,0Z" fill="#ededed"/>
    <path d="m21.96771,277.94487l1.65796-2.87167c.14313-.24791-.03578-.55779-.32204-.55779h-3.31592c-.28626,0-.46517.30989-.32204.55779l1.65796,2.87167c.14313.24791.50096.24791.64409,0Z" fill="#ededed"/>
    <path d="m21.96771,239.4936l1.65796-2.87167c.14313-.24791-.03578-.55779-.32204-.55779h-3.31592c-.28626,0-.46517.30989-.32204.55779l1.65796,2.87167c.14313.24791.50096.24791.64409,0Z" fill="#ededed"/>
    <path d="m21.96771,201.04234l1.65796-2.87167c.14313-.24791-.03578-.55779-.32204-.55779h-3.31592c-.28626,0-.46517.30989-.32204.55779l1.65796,2.87167c.14313.24791.50096.24791.64409,0Z" fill="#ededed"/>
    <path d="m21.96771,162.59107l1.65796-2.87167c.14313-.24791-.03578-.55779-.32204-.55779h-3.31592c-.28626,0-.46517.30989-.32204.55779l1.65796,2.87167c.14313.24791.50096.24791.64409,0Z" fill="#ededed"/>
    <path d="m21.96771,124.1398l1.65796-2.87167c.14313-.24791-.03578-.55779-.32204-.55779h-3.31592c-.28626,0-.46517.30989-.32204.55779l1.65796,2.87167c.14313.24791.50096.24791.64409,0Z" fill="#ededed"/>
    <path d="m21.96771,85.68854l1.65796-2.87167c.14313-.24791-.03578-.55779-.32204-.55779h-3.31592c-.28626,0-.46517.30989-.32204.55779l1.65796,2.87167c.14313.24791.50096.24791.64409,0Z" fill="#ededed"/>
  </g>
  <g id="uuid-86d65800-ac52-4178-bf75-1b356ffb82cf" data-name="FND TXT">
    <g>
      <path d="m39.36719,25.88428v-.0249c0-1.06348.48828-1.68945,1.41406-2.11475-.67578-.4126-1.11328-.97607-1.11328-1.91455v-.0249c0-1.33838,1.22559-2.40234,3.07812-2.40234,1.85156,0,3.07812,1.05127,3.07812,2.40234v.0249c0,.93848-.43848,1.50195-1.11426,1.91455.8877.46289,1.41406,1.02588,1.41406,2.06445v.0249c0,1.62695-1.43848,2.57764-3.37793,2.57764s-3.37891-1.00098-3.37891-2.52734Zm4.89258-.1499v-.02539c0-.67578-.63867-1.07617-1.51367-1.07617-.87695,0-1.51465.40039-1.51465,1.07617v.02539c0,.60059.56348,1.08838,1.51465,1.08838.9502,0,1.51367-.47559,1.51367-1.08838Zm-.26367-3.69141v-.0249c0-.53809-.46289-1.02588-1.25-1.02588-.78906,0-1.25195.47559-1.25195,1.01318v.0249c0,.61328.48828,1.07617,1.25195,1.07617.7627,0,1.25-.4502,1.25-1.06348Z" fill="#ebebeb"/>
      <path d="m49.96484,27.66113l-2.83984-6.79395c-.0625-.15039-.1123-.30078-.1123-.46338,0-.5376.4248-.95068.96387-.95068.5,0,.8252.2876.97559.67578l2.18945,5.66797,2.21484-5.73047c.125-.31299.46289-.61328.92578-.61328.52539,0,.95117.40039.95117.92578,0,.15039-.0498.3125-.10059.42529l-2.86523,6.85693c-.2002.47559-.5625.76318-1.08789.76318h-.125c-.52637,0-.88867-.2876-1.08984-.76318Z" fill="#ebebeb"/>
      <path d="m56.62891,27.32324v-6.83203c0-.5376.42578-.96289.96387-.96289h4.85449c.47559,0,.86328.3877.86328.86328s-.3877.85059-.86328.85059h-3.9043v1.77686h3.3418c.47461,0,.86328.3877.86328.86328s-.38867.85107-.86328.85107h-3.3418v1.83887h3.9668c.47559,0,.86328.38818.86328.86328,0,.47559-.3877.85107-.86328.85107h-4.91699c-.53809,0-.96387-.42529-.96387-.96338Z" fill="#ebebeb"/>
      <path d="m65.1377,20.49121c0-.5376.42578-.96289.96387-.96289h3.04004c1.11426,0,1.97754.3125,2.55273.88818.4873.48779.75098,1.17627.75098,2.00195v.0249c0,1.37646-.68848,2.22754-1.75195,2.66504l1.33887,1.62695c.1875.2373.3125.4375.3125.73828,0,.5376-.4502.88818-.91309.88818-.4375,0-.72559-.21289-.95117-.50049l-1.87695-2.37744h-1.53906v1.91455c0,.53809-.4248.96338-.96289.96338s-.96387-.42529-.96387-.96338v-6.90723Zm3.87891,3.29102c.93848,0,1.47656-.50049,1.47656-1.23877v-.0249c0-.82617-.5752-1.25098-1.51465-1.25098h-1.91406v2.51465h1.95215Z" fill="#ebebeb"/>
      <path d="m76.17383,21.30469h-1.85156c-.4873,0-.8877-.40039-.8877-.88818s.40039-.88818.8877-.88818h5.63086c.48828,0,.88867.40039.88867.88818s-.40039.88818-.88867.88818h-1.85156v6.09375c0,.53809-.42578.96338-.96387.96338s-.96387-.42529-.96387-.96338v-6.09375Z" fill="#ebebeb"/>
    </g>
    <g>
      <path d="m16.45898,38.72461l-.4873.14893c-.04785.01367-.1084.02051-.14941.02051-.19629,0-.36621-.1626-.36621-.35205,0-.17676.1084-.31201.27832-.35938l.71777-.23047c.16309-.04736.28516-.07422.40625-.07422h.01367c.2373,0,.41406.18262.41406.41309v4.01074c0,.23047-.18359.41309-.41406.41309-.22363,0-.41309-.18262-.41309-.41309v-3.57715Z" fill="#ebebeb"/>
      <path d="m18.53027,40.32324v-.01318c0-1.35498.82617-2.45264,2.07324-2.45264,1.23926,0,2.05957,1.08398,2.05957,2.43896v.01367c0,1.35498-.82715,2.45264-2.07324,2.45264-1.24707,0-2.05957-1.08398-2.05957-2.43945Zm3.27246,0v-.01318c0-.93506-.48145-1.70068-1.21289-1.70068-.73242,0-1.19922.74512-1.19922,1.68701v.01367c0,.93506.47363,1.70068,1.21289,1.70068.73828,0,1.19922-.75879,1.19922-1.6875Z" fill="#ebebeb"/>
      <path d="m25.05176,42.41016l-1.65918-3.90234c-.02734-.06104-.04785-.12207-.04785-.19629,0-.22363.18359-.40674.41992-.40674.2168,0,.35938.12207.42676.29834l1.36914,3.4209,1.38867-3.44824c.05371-.14209.20312-.271.39941-.271.23047,0,.41309.17627.41309.3999,0,.06055-.01953.12891-.04004.17578l-1.66699,3.92969c-.08789.20996-.24414.33887-.48047.33887h-.04785c-.23047,0-.38574-.12891-.47461-.33887Z" fill="#ebebeb"/>
    </g>
    <path d="m53.20703,40.46777c0-.26367.2168-.47949.47266-.47949h1.50293c.25586,0,.47168.21582.47168.47949,0,.25586-.21582.47168-.47168.47168h-1.50293c-.25586,0-.47266-.21582-.47266-.47168Z" fill="#ebebeb"/>
    <path d="m66.0918,40.92871h-1.13477c-.24023,0-.43945-.19141-.43945-.43945,0-.23975.19922-.43945.43945-.43945h1.13477v-1.11182c0-.25586.2002-.45557.45605-.45557.24805,0,.45605.19971.45605.45557v1.11182h1.13477c.24023,0,.44043.19971.44043.43945,0,.24805-.2002.43945-.44043.43945h-1.13477v1.11182c0,.25586-.20801.45557-.45605.45557-.25586,0-.45605-.19971-.45605-.45557v-1.11182Z" fill="#ebebeb"/>
    <g>
      <path d="m91.00391,47.52734v-.01367c0-1.34814,1.06445-2.45215,2.52734-2.45215,1.46387,0,2.51367,1.09082,2.51367,2.43848v.01367c0,1.34863-1.06348,2.45264-2.52734,2.45264-1.46289,0-2.51367-1.09082-2.51367-2.43896Zm3.9502,0v-.01367c0-.81299-.5957-1.49023-1.43652-1.49023-.83984,0-1.42285.66406-1.42285,1.47656v.01367c0,.81299.59668,1.49072,1.43652,1.49072s1.42285-.66406,1.42285-1.47705Z" fill="#1f1f1f"/>
      <path d="m97.12305,47.85254v-2.229c0-.2915.23047-.52148.52148-.52148.29199,0,.52246.22998.52246.52148v2.20166c0,.77246.38574,1.17236,1.02246,1.17236s1.02344-.38623,1.02344-1.13818v-2.23584c0-.2915.23047-.52148.52148-.52148s.52148.22998.52148.52148v2.19482c0,1.43652-.80566,2.14111-2.08008,2.14111-1.27344,0-2.05273-.71143-2.05273-2.10693Z" fill="#1f1f1f"/>
      <path d="m103.6084,46.10449h-1.00293c-.26367,0-.48047-.2168-.48047-.48096s.2168-.48096.48047-.48096h3.04883c.26465,0,.48145.2168.48145.48096s-.2168.48096-.48145.48096h-1.00293v3.2998c0,.29102-.23047.52148-.52148.52148s-.52148-.23047-.52148-.52148v-3.2998Z" fill="#1f1f1f"/>
    </g>
  </g>
</svg>