<?xml version="1.0" encoding="UTF-8" standalone="no"?>
<svg
   xmlns:dc="http://purl.org/dc/elements/1.1/"
   xmlns:cc="http://creativecommons.org/ns#"
   xmlns:rdf="http://www.w3.org/1999/02/22-rdf-syntax-ns#"
   xmlns:svg="http://www.w3.org/2000/svg"
   xmlns="http://www.w3.org/2000/svg"
   xmlns:sodipodi="http://sodipodi.sourceforge.net/DTD/sodipodi-0.dtd"
   xmlns:inkscape="http://www.inkscape.org/namespaces/inkscape"
   width="120"
   height="380"
   viewBox="0 0 120 380"
   version="1.1"
   id="svg214"
   sodipodi:docname="8VERT.svg"
   inkscape:version="0.92.3 (2405546, 2018-03-11)">
  <metadata
     id="metadata218">
    <rdf:RDF>
      <cc:Work
         rdf:about="">
        <dc:format>image/svg+xml</dc:format>
        <dc:type
           rdf:resource="http://purl.org/dc/dcmitype/StillImage" />
      </cc:Work>
    </rdf:RDF>
  </metadata>
  <sodipodi:namedview
     pagecolor="#ffffff"
     bordercolor="#666666"
     borderopacity="1"
     objecttolerance="10"
     gridtolerance="10"
     guidetolerance="10"
     inkscape:pageopacity="0"
     inkscape:pageshadow="2"
     inkscape:window-width="867"
     inkscape:window-height="480"
     id="namedview216"
     showgrid="false"
     inkscape:zoom="0.62105263"
     inkscape:cx="60"
     inkscape:cy="190"
     inkscape:window-x="0"
     inkscape:window-y="0"
     inkscape:window-maximized="0"
     inkscape:current-layer="svg214" />
  <defs
     id="defs10">
    <linearGradient
       id="a6287d73-2e3d-4133-aa81-491f0595359d"
       x1="60"
       x2="60"
       y2="380"
       gradientUnits="userSpaceOnUse">
      <stop
         offset="0"
         stop-color="#ebebeb"
         id="stop2" />
      <stop
         offset="1"
         stop-color="#e1e1e1"
         id="stop4" />
    </linearGradient>
  </defs>
  <g
     id="ac161694-2666-4a45-9d4c-73056424c028"
     data-name="FND BG">
    <rect
       width="120"
       height="380"
       fill="url(#a6287d73-2e3d-4133-aa81-491f0595359d)"
       id="rect12" />
  </g>
  <g
     id="b25b4576-f16e-45a7-b274-7378c421459d"
     data-name="FND GRAPH">
    <g
       id="g23">
      <circle
         cx="60.50165"
         cy="355.83101"
         r="1.18571"
         fill="#1f1f1f"
         id="circle15" />
      <path
         d="M51.85927,359.753a.91214.91214,0,0,1-.8158-.50418l-2.96428-5.92857a.91209.91209,0,0,1,1.6316-.8158l2.14848,4.297,2.14848-4.297a.91209.91209,0,0,1,1.6316.8158l-2.96428,5.92857A.91211.91211,0,0,1,51.85927,359.753Z"
         fill="#1f1f1f"
         id="path17" />
      <path
         d="M68.14073,359.753a.91211.91211,0,0,1-.8158-.50418l-2.96428-5.92857a.91209.91209,0,0,1,1.6316-.8158l2.14848,4.297,2.14848-4.297a.91209.91209,0,0,1,1.6316.8158l-2.96428,5.92857A.91214.91214,0,0,1,68.14073,359.753Z"
         fill="#1f1f1f"
         id="path19" />
      <path
         d="M60.44242,359.753a3.87637,3.87637,0,1,1,2.32653-6.97719.91209.91209,0,1,1-1.09557,1.45854,2.034,2.034,0,0,0-1.231-.40991,2.0522,2.0522,0,1,0,0,4.10439,2.034,2.034,0,0,0,1.231-.40991.91209.91209,0,1,1,1.09557,1.45854A3.8448,3.8448,0,0,1,60.44242,359.753Z"
         fill="#1f1f1f"
         id="path21" />
    </g>
    <line
       x1="26.06954"
       y1="334"
       x2="43.16953"
       y2="334"
       fill="none"
       stroke="#1f1f1f"
       stroke-linecap="round"
       stroke-linejoin="round"
       stroke-width="0.8"
       id="line25" />
    <line
       x1="77.14067"
       y1="334"
       x2="84.64297"
       y2="334"
       fill="none"
       stroke="#1f1f1f"
       stroke-linecap="round"
       stroke-linejoin="round"
       stroke-width="0.8"
       id="line27" />
    <rect
       x="84.21482"
       y="40.00547"
       width="28.55155"
       height="39.15691"
       rx="2.83465"
       fill="#1f1f1f"
       id="rect29" />
    <rect
       x="84.17799"
       y="319.49694"
       width="28.7163"
       height="28.7163"
       rx="2.83465"
       fill="#1f1f1f"
       id="rect31" />
    <line
       x1="30.85019"
       y1="64.8652"
       x2="43.16953"
       y2="64.8652"
       fill="none"
       stroke="#1f1f1f"
       stroke-linecap="round"
       stroke-linejoin="round"
       stroke-width="0.8"
       id="line33" />
    <line
       x1="77.14067"
       y1="64.8652"
       x2="84.64297"
       y2="64.8652"
       fill="none"
       stroke="#1f1f1f"
       stroke-linecap="round"
       stroke-linejoin="round"
       stroke-width="0.8"
       id="line35" />
    <g
       id="g43">
      <line
         x1="60.09361"
         y1="52.34175"
         x2="60.09361"
         y2="48.61849"
         fill="none"
         stroke="#1f1f1f"
         stroke-linecap="round"
         stroke-linejoin="round"
         stroke-width="0.8"
         id="line37" />
      <path
         d="M68.72922,79.17037a16.7123,16.7123,0,1,0-17.21552.04578"
         fill="none"
         stroke="#1f1f1f"
         stroke-linecap="round"
         stroke-linejoin="round"
         stroke-width="0.8"
         id="path39" />
      <circle
         cx="60.09359"
         cy="64.8652"
         r="20.69419"
         fill="none"
         opacity="0.69"
         style="isolation: isolate"
         id="circle41" />
    </g>
    <g
       id="g51">
      <line
         x1="60.09361"
         y1="321.47655"
         x2="60.09361"
         y2="317.75329"
         fill="none"
         stroke="#1f1f1f"
         stroke-linecap="round"
         stroke-linejoin="round"
         stroke-width="0.8"
         id="line45" />
      <path
         d="M68.72922,348.30517a16.7123,16.7123,0,1,0-17.21552.04578"
         fill="none"
         stroke="#1f1f1f"
         stroke-linecap="round"
         stroke-linejoin="round"
         stroke-width="0.8"
         id="path47" />
      <circle
         cx="60.09359"
         cy="334"
         r="20.69419"
         fill="none"
         opacity="0.69"
         style="isolation: isolate"
         id="circle49" />
    </g>
    <line
       x1="26.06954"
       y1="295.54873"
       x2="43.16953"
       y2="295.54873"
       fill="none"
       stroke="#1f1f1f"
       stroke-linecap="round"
       stroke-linejoin="round"
       stroke-width="0.8"
       id="line53" />
    <line
       x1="77.14067"
       y1="295.54873"
       x2="84.64297"
       y2="295.54873"
       fill="none"
       stroke="#1f1f1f"
       stroke-linecap="round"
       stroke-linejoin="round"
       stroke-width="0.8"
       id="line55" />
    <rect
       x="84.17799"
       y="281.04567"
       width="28.7163"
       height="28.7163"
       rx="2.83465"
       fill="#1f1f1f"
       id="rect57" />
    <g
       id="g65">
      <line
         x1="60.09361"
         y1="283.02529"
         x2="60.09361"
         y2="279.30202"
         fill="none"
         stroke="#1f1f1f"
         stroke-linecap="round"
         stroke-linejoin="round"
         stroke-width="0.8"
         id="line59" />
      <path
         d="M68.72922,309.85391a16.71231,16.71231,0,1,0-17.21552.04577"
         fill="none"
         stroke="#1f1f1f"
         stroke-linecap="round"
         stroke-linejoin="round"
         stroke-width="0.8"
         id="path61" />
      <circle
         cx="60.09359"
         cy="295.54873"
         r="20.69419"
         fill="none"
         opacity="0.69"
         style="isolation: isolate"
         id="circle63" />
    </g>
    <line
       x1="26.06954"
       y1="257.09747"
       x2="43.16953"
       y2="257.09747"
       fill="none"
       stroke="#1f1f1f"
       stroke-linecap="round"
       stroke-linejoin="round"
       stroke-width="0.8"
       id="line67" />
    <line
       x1="77.14067"
       y1="257.09747"
       x2="84.64297"
       y2="257.09747"
       fill="none"
       stroke="#1f1f1f"
       stroke-linecap="round"
       stroke-linejoin="round"
       stroke-width="0.8"
       id="line69" />
    <rect
       x="84.17799"
       y="242.59441"
       width="28.7163"
       height="28.7163"
       rx="2.83465"
       fill="#1f1f1f"
       id="rect71" />
    <g
       id="g79">
      <line
         x1="60.09361"
         y1="244.57402"
         x2="60.09361"
         y2="240.85076"
         fill="none"
         stroke="#1f1f1f"
         stroke-linecap="round"
         stroke-linejoin="round"
         stroke-width="0.8"
         id="line73" />
      <path
         d="M68.72922,271.40264a16.71231,16.71231,0,1,0-17.21552.04577"
         fill="none"
         stroke="#1f1f1f"
         stroke-linecap="round"
         stroke-linejoin="round"
         stroke-width="0.8"
         id="path75" />
      <circle
         cx="60.09359"
         cy="257.09747"
         r="20.69419"
         fill="none"
         opacity="0.69"
         style="isolation: isolate"
         id="circle77" />
    </g>
    <line
       x1="26.06954"
       y1="218.6462"
       x2="43.16953"
       y2="218.6462"
       fill="none"
       stroke="#1f1f1f"
       stroke-linecap="round"
       stroke-linejoin="round"
       stroke-width="0.8"
       id="line81" />
    <line
       x1="77.14067"
       y1="218.6462"
       x2="84.64297"
       y2="218.6462"
       fill="none"
       stroke="#1f1f1f"
       stroke-linecap="round"
       stroke-linejoin="round"
       stroke-width="0.8"
       id="line83" />
    <rect
       x="84.17799"
       y="204.14314"
       width="28.7163"
       height="28.7163"
       rx="2.83465"
       fill="#1f1f1f"
       id="rect85" />
    <g
       id="g93">
      <line
         x1="60.09361"
         y1="206.12276"
         x2="60.09361"
         y2="202.39949"
         fill="none"
         stroke="#1f1f1f"
         stroke-linecap="round"
         stroke-linejoin="round"
         stroke-width="0.8"
         id="line87" />
      <path
         d="M68.72922,232.95138a16.71231,16.71231,0,1,0-17.21552.04577"
         fill="none"
         stroke="#1f1f1f"
         stroke-linecap="round"
         stroke-linejoin="round"
         stroke-width="0.8"
         id="path89" />
      <circle
         cx="60.09359"
         cy="218.6462"
         r="20.69419"
         fill="none"
         opacity="0.69"
         style="isolation: isolate"
         id="circle91" />
    </g>
    <line
       x1="26.06954"
       y1="180.19494"
       x2="43.16953"
       y2="180.19494"
       fill="none"
       stroke="#1f1f1f"
       stroke-linecap="round"
       stroke-linejoin="round"
       stroke-width="0.8"
       id="line95" />
    <line
       x1="77.14067"
       y1="180.19494"
       x2="84.64297"
       y2="180.19494"
       fill="none"
       stroke="#1f1f1f"
       stroke-linecap="round"
       stroke-linejoin="round"
       stroke-width="0.8"
       id="line97" />
    <rect
       x="84.17799"
       y="165.69187"
       width="28.7163"
       height="28.7163"
       rx="2.83465"
       fill="#1f1f1f"
       id="rect99" />
    <g
       id="g107">
      <line
         x1="60.09361"
         y1="167.67149"
         x2="60.09361"
         y2="163.94822"
         fill="none"
         stroke="#1f1f1f"
         stroke-linecap="round"
         stroke-linejoin="round"
         stroke-width="0.8"
         id="line101" />
      <path
         d="M68.72922,194.50011a16.71231,16.71231,0,1,0-17.21552.04577"
         fill="none"
         stroke="#1f1f1f"
         stroke-linecap="round"
         stroke-linejoin="round"
         stroke-width="0.8"
         id="path103" />
      <circle
         cx="60.09359"
         cy="180.19494"
         r="20.69419"
         fill="none"
         opacity="0.69"
         style="isolation: isolate"
         id="circle105" />
    </g>
    <line
       x1="26.06954"
       y1="141.74367"
       x2="43.16953"
       y2="141.74367"
       fill="none"
       stroke="#1f1f1f"
       stroke-linecap="round"
       stroke-linejoin="round"
       stroke-width="0.8"
       id="line109" />
    <line
       x1="77.14067"
       y1="141.74367"
       x2="84.64297"
       y2="141.74367"
       fill="none"
       stroke="#1f1f1f"
       stroke-linecap="round"
       stroke-linejoin="round"
       stroke-width="0.8"
       id="line111" />
    <rect
       x="84.17799"
       y="127.24061"
       width="28.7163"
       height="28.7163"
       rx="2.83465"
       fill="#1f1f1f"
       id="rect113" />
    <g
       id="g121">
      <line
         x1="60.09361"
         y1="129.22023"
         x2="60.09361"
         y2="125.49696"
         fill="none"
         stroke="#1f1f1f"
         stroke-linecap="round"
         stroke-linejoin="round"
         stroke-width="0.8"
         id="line115" />
      <path
         d="M68.72922,156.04885a16.71231,16.71231,0,1,0-17.21552.04577"
         fill="none"
         stroke="#1f1f1f"
         stroke-linecap="round"
         stroke-linejoin="round"
         stroke-width="0.8"
         id="path117" />
      <circle
         cx="60.09359"
         cy="141.74367"
         r="20.69419"
         fill="none"
         opacity="0.69"
         style="isolation: isolate"
         id="circle119" />
    </g>
    <line
       x1="26.06954"
       y1="103.2924"
       x2="43.16953"
       y2="103.2924"
       fill="none"
       stroke="#1f1f1f"
       stroke-linecap="round"
       stroke-linejoin="round"
       stroke-width="0.8"
       id="line123" />
    <line
       x1="77.14067"
       y1="103.2924"
       x2="84.64297"
       y2="103.2924"
       fill="none"
       stroke="#1f1f1f"
       stroke-linecap="round"
       stroke-linejoin="round"
       stroke-width="0.8"
       id="line125" />
    <rect
       x="84.17799"
       y="88.78934"
       width="28.7163"
       height="28.7163"
       rx="2.83465"
       fill="#1f1f1f"
       id="rect127" />
    <g
       id="g135">
      <line
         x1="60.09361"
         y1="90.76896"
         x2="60.09361"
         y2="87.04569"
         fill="none"
         stroke="#1f1f1f"
         stroke-linecap="round"
         stroke-linejoin="round"
         stroke-width="0.8"
         id="line129" />
      <path
         d="M68.72922,117.59758a16.71231,16.71231,0,1,0-17.21552.04577"
         fill="none"
         stroke="#1f1f1f"
         stroke-linecap="round"
         stroke-linejoin="round"
         stroke-width="0.8"
         id="path131" />
      <circle
         cx="60.09359"
         cy="103.2924"
         r="20.69419"
         fill="none"
         opacity="0.69"
         style="isolation: isolate"
         id="circle133" />
    </g>
    <g
       id="use137"
       transform="translate(19.61532,46.16721)">
      <path
         id="path4877"
         d="M 2.35242,3.42947 4.01038,0.55779 A 0.37186,0.37186 0 0 0 3.68834,0 H 0.37242 a 0.37186,0.37186 0 0 0 -0.322,0.55779 l 1.658,2.87168 a 0.37187,0.37187 0 0 0 0.644,0 z"
         inkscape:connector-curvature="0"
         style="fill:#1f1f1f" />
    </g>
    <line
       x1="60.09359"
       y1="36.44366"
       x2="60.09359"
       y2="44.53142"
       fill="none"
       stroke="#1f1f1f"
       stroke-linecap="round"
       stroke-linejoin="round"
       stroke-width="0.8"
       id="line139" />
    <g
       id="use141"
       transform="translate(19.61529,312.96667)">
      <path
         id="path4881"
         d="M 2.35242,3.42947 4.01038,0.55779 A 0.37186,0.37186 0 0 0 3.68834,0 H 0.37242 a 0.37186,0.37186 0 0 0 -0.322,0.55779 l 1.658,2.87168 a 0.37187,0.37187 0 0 0 0.644,0 z"
         inkscape:connector-curvature="0"
         style="fill:#1f1f1f" />
    </g>
    <g
       id="use143"
       transform="translate(19.61529,274.5154)">
      <path
         id="path4885"
         d="M 2.35242,3.42947 4.01038,0.55779 A 0.37186,0.37186 0 0 0 3.68834,0 H 0.37242 a 0.37186,0.37186 0 0 0 -0.322,0.55779 l 1.658,2.87168 a 0.37187,0.37187 0 0 0 0.644,0 z"
         inkscape:connector-curvature="0"
         style="fill:#1f1f1f" />
    </g>
    <g
       id="use145"
       transform="translate(19.61529,236.06414)">
      <path
         id="path4889"
         d="M 2.35242,3.42947 4.01038,0.55779 A 0.37186,0.37186 0 0 0 3.68834,0 H 0.37242 a 0.37186,0.37186 0 0 0 -0.322,0.55779 l 1.658,2.87168 a 0.37187,0.37187 0 0 0 0.644,0 z"
         inkscape:connector-curvature="0"
         style="fill:#1f1f1f" />
    </g>
    <g
       id="use147"
       transform="translate(19.61529,197.61287)">
      <path
         id="path4893"
         d="M 2.35242,3.42947 4.01038,0.55779 A 0.37186,0.37186 0 0 0 3.68834,0 H 0.37242 a 0.37186,0.37186 0 0 0 -0.322,0.55779 l 1.658,2.87168 a 0.37187,0.37187 0 0 0 0.644,0 z"
         inkscape:connector-curvature="0"
         style="fill:#1f1f1f" />
    </g>
    <g
       id="use149"
       transform="translate(19.61529,159.16161)">
      <path
         id="path4897"
         d="M 2.35242,3.42947 4.01038,0.55779 A 0.37186,0.37186 0 0 0 3.68834,0 H 0.37242 a 0.37186,0.37186 0 0 0 -0.322,0.55779 l 1.658,2.87168 a 0.37187,0.37187 0 0 0 0.644,0 z"
         inkscape:connector-curvature="0"
         style="fill:#1f1f1f" />
    </g>
    <g
       id="use151"
       transform="translate(19.61529,120.71034)">
      <path
         id="path4901"
         d="M 2.35242,3.42947 4.01038,0.55779 A 0.37186,0.37186 0 0 0 3.68834,0 H 0.37242 a 0.37186,0.37186 0 0 0 -0.322,0.55779 l 1.658,2.87168 a 0.37187,0.37187 0 0 0 0.644,0 z"
         inkscape:connector-curvature="0"
         style="fill:#1f1f1f" />
    </g>
    <g
       id="use153"
       transform="translate(19.61529,82.25907)">
      <path
         id="path4905"
         d="M 2.35242,3.42947 4.01038,0.55779 A 0.37186,0.37186 0 0 0 3.68834,0 H 0.37242 a 0.37186,0.37186 0 0 0 -0.322,0.55779 l 1.658,2.87168 a 0.37187,0.37187 0 0 0 0.644,0 z"
         inkscape:connector-curvature="0"
         style="fill:#1f1f1f" />
    </g>
  </g>
  <g
     id="b3915b2d-451c-4e50-9ccb-9dec02eb9456"
     data-name="FND TXT">
    <g
       id="g166">
      <path
         d="M39.36719,25.88428v-.0249a2.12948,2.12948,0,0,1,1.41406-2.11475A2.08343,2.08343,0,0,1,39.668,21.83008v-.0249c0-1.33838,1.22558-2.40235,3.07812-2.40235,1.85157,0,3.07813,1.05127,3.07813,2.40235v.0249A2.08421,2.08421,0,0,1,44.71,23.74463,2.17155,2.17155,0,0,1,46.124,25.80908v.0249c0,1.627-1.43847,2.57764-3.37793,2.57764S39.36719,27.41064,39.36719,25.88428Zm4.89258-.1499V25.709c0-.67578-.63868-1.07617-1.51368-1.07617-.877,0-1.51464.40039-1.51464,1.07617v.0254c0,.60058.56347,1.08837,1.51464,1.08837C43.69629,26.82275,44.25977,26.34717,44.25977,25.73438ZM43.99609,22.043v-.0249a1.11383,1.11383,0,0,0-1.25-1.02588c-.78906,0-1.252.47558-1.252,1.01318v.0249a1.26633,1.26633,0,0,0,2.502.0127Z"
         fill="#1f1f1f"
         id="path156" />
      <path
         d="M49.96484,27.66113,47.125,20.86719a1.203,1.203,0,0,1-.1123-.46338.94525.94525,0,0,1,.96386-.95069,1.0019,1.0019,0,0,1,.97559.67579l2.18945,5.668,2.21485-5.73047a.99829.99829,0,0,1,.92578-.61329.92975.92975,0,0,1,.95117.92579,1.10523,1.10523,0,0,1-.10059.42529l-2.86523,6.85693a1.1298,1.1298,0,0,1-1.08789.76319h-.125A1.13227,1.13227,0,0,1,49.96484,27.66113Z"
         fill="#1f1f1f"
         id="path158" />
      <path
         d="M56.62891,27.32324v-6.832a.95607.95607,0,0,1,.96386-.96289h4.8545a.86482.86482,0,0,1,.86328.86328.854.854,0,0,1-.86328.85059H58.543V23.019h3.3418a.86544.86544,0,0,1,.86328.86328.85507.85507,0,0,1-.86328.85108H58.543v1.83887h3.9668a.86513.86513,0,0,1,.86328.86328.85445.85445,0,0,1-.86328.85107h-4.917A.95618.95618,0,0,1,56.62891,27.32324Z"
         fill="#1f1f1f"
         id="path160" />
      <path
         d="M65.1377,20.49121a.95607.95607,0,0,1,.96386-.96289h3.04a3.48871,3.48871,0,0,1,2.55274.88818,2.75211,2.75211,0,0,1,.751,2.002v.0249a2.67321,2.67321,0,0,1-1.752,2.665l1.33887,1.627a1.12207,1.12207,0,0,1,.3125.73828.89624.89624,0,0,1-.91309.88819,1.15512,1.15512,0,0,1-.95117-.50049l-1.87695-2.37744H67.06445v1.91455a.96338.96338,0,1,1-1.92675,0Zm3.8789,3.291c.93848,0,1.47656-.50049,1.47656-1.23877v-.02491c0-.82617-.57519-1.251-1.51464-1.251H67.06445v2.51465Z"
         fill="#1f1f1f"
         id="path162" />
      <path
         d="M76.17383,21.30469H74.32227a.88819.88819,0,0,1,0-1.77637h5.63085a.88819.88819,0,1,1,0,1.77637H78.10156v6.09375a.96387.96387,0,0,1-1.92773,0Z"
         fill="#1f1f1f"
         id="path164" />
    </g>
    <g
       id="g174">
      <path
         d="M16.459,38.72461l-.4873.14893a.60231.60231,0,0,1-.14941.0205.36659.36659,0,0,1-.36622-.352.3625.3625,0,0,1,.27833-.35937l.71777-.23047a1.45155,1.45155,0,0,1,.40625-.07422h.01367a.40675.40675,0,0,1,.41406.41309v4.01074a.41358.41358,0,0,1-.82715,0Z"
         fill="#1f1f1f"
         id="path168" />
      <path
         d="M18.53027,40.32324v-.01318a2.22045,2.22045,0,0,1,2.07325-2.45264,2.20281,2.20281,0,0,1,2.05957,2.439v.01367a2.22105,2.22105,0,0,1-2.07325,2.45264A2.1982,2.1982,0,0,1,18.53027,40.32324Zm3.27246,0v-.01318c0-.93506-.48144-1.70068-1.21289-1.70068-.73242,0-1.19922.74511-1.19922,1.687v.01367c0,.93506.47364,1.70068,1.2129,1.70068C21.3418,42.01074,21.80273,41.252,21.80273,40.32324Z"
         fill="#1f1f1f"
         id="path170" />
      <path
         d="M25.05176,42.41016l-1.65918-3.90235a.46352.46352,0,0,1-.04785-.19629.41133.41133,0,0,1,.41992-.40673.43566.43566,0,0,1,.42676.29833l1.36914,3.4209,1.38867-3.44824a.42883.42883,0,0,1,.39941-.271.40342.40342,0,0,1,.41309.3999.4741.4741,0,0,1-.04.17578l-1.667,3.92969a.49633.49633,0,0,1-.48047.33886h-.04785A.49522.49522,0,0,1,25.05176,42.41016Z"
         fill="#1f1f1f"
         id="path172" />
    </g>
    <path
       d="M53.207,40.46777a.48023.48023,0,0,1,.47266-.47949h1.50293a.4756.4756,0,0,1,0,.95117H53.67969A.47861.47861,0,0,1,53.207,40.46777Z"
       fill="#1f1f1f"
       id="path176" />
    <path
       d="M66.0918,40.92871H64.957a.43762.43762,0,0,1-.43945-.43945.443.443,0,0,1,.43945-.43946H66.0918V38.938a.45063.45063,0,0,1,.456-.45557.45553.45553,0,0,1,.45606.45557V40.0498h1.13476a.44382.44382,0,0,1,.44043.43946.43844.43844,0,0,1-.44043.43945H67.00391v1.11182a.45552.45552,0,0,1-.45606.45556.45063.45063,0,0,1-.456-.45556Z"
       fill="#1f1f1f"
       id="path178" />
    <g
       id="g186">
      <path
         d="M91.00391,47.52734v-.01367a2.52167,2.52167,0,0,1,5.041-.01367v.01367a2.52166,2.52166,0,0,1-5.041.01367Zm3.95019,0v-.01367a1.44035,1.44035,0,0,0-1.43652-1.49023A1.41852,1.41852,0,0,0,92.09473,47.5v.01367a1.44137,1.44137,0,0,0,1.43652,1.49072A1.41866,1.41866,0,0,0,94.9541,47.52734Z"
         fill="#f0f0f0"
         id="path180" />
      <path
         d="M97.12305,47.85254v-2.229a.522.522,0,0,1,1.04394,0V47.8252c0,.77246.38574,1.17236,1.02246,1.17236s1.02344-.38623,1.02344-1.13818V45.62354a.52149.52149,0,1,1,1.043,0v2.19482a1.90889,1.90889,0,0,1-2.08008,2.14111A1.88221,1.88221,0,0,1,97.12305,47.85254Z"
         fill="#f0f0f0"
         id="path182" />
      <path
         d="M103.6084,46.10449h-1.00293a.481.481,0,0,1,0-.96191h3.04883a.481.481,0,1,1,0,.96191h-1.00293V49.4043a.52149.52149,0,0,1-1.043,0Z"
         fill="#f0f0f0"
         id="path184" />
    </g>
  </g>
  <g
     id="b0fe4617-c40c-4654-852b-870e05c106b0"
     data-name="components"
     inkscape:groupmode="layer"
     style="display:none">
    <circle
       id="b28b29b9-2163-47d8-9c26-57ecb02e4b7d"
       data-name="Out1#PJ301MPort"
       cx="98.536102"
       cy="64.865196"
       r="5"
       style="fill:#0000ff" />
    <circle
       id="b6041dbf-bba7-4553-b222-2a3cc5a293bc"
       data-name="Out8#PJ301MPort"
       cx="98.536102"
       cy="334"
       r="5"
       style="fill:#0000ff" />
    <circle
       id="bc0f64eb-61b0-4169-a4a3-714902c51c23"
       data-name="In1#PJ301MPort"
       cx="21.645691"
       cy="64.865196"
       r="5"
       style="fill:#00ff00" />
    <circle
       id="e671c58f-29a0-4642-a55c-3e465cc7d3e9"
       data-name="In8#PJ301MPort"
       cx="21.645691"
       cy="334"
       r="5"
       style="fill:#00ff00" />
    <circle
       id="f6cff63f-a24f-4756-904f-9bbc71fd2d51"
       data-name="Out7#PJ301MPort"
       cx="98.536102"
       cy="295.54874"
       r="5"
       style="fill:#0000ff" />
    <circle
       id="b24ce0c2-3772-4416-9cc9-49f0c2a1423d"
       data-name="In7#PJ301MPort"
       cx="21.645691"
       cy="295.54874"
       r="5"
       style="fill:#00ff00" />
    <circle
       id="b5ba0b2f-a811-46e8-b2a7-322005fe6a93"
       data-name="Out6#PJ301MPort"
       cx="98.536102"
       cy="257.09747"
       r="5"
       style="fill:#0000ff" />
    <circle
       id="a572312a-02c5-4500-b58c-04f4835a8cda"
       data-name="In6#PJ301MPort"
       cx="21.645691"
       cy="257.09747"
       r="5"
       style="fill:#00ff00" />
    <circle
       id="eaf325fd-e693-451c-b989-cb0fe3c56a6c"
       data-name="Out5#PJ301MPort"
       cx="98.536102"
       cy="218.64619"
       r="5"
       style="fill:#0000ff" />
    <circle
       id="aeab0bbb-1caa-4a6b-88b0-6575c2ca069e"
       data-name="In5#PJ301MPort"
       cx="21.645691"
       cy="218.64619"
       r="5"
       style="fill:#00ff00" />
    <circle
       id="fe93ace2-fb89-44a9-bf09-f457beaab2d7"
       data-name="Out4#PJ301MPort"
       cx="98.536102"
       cy="180.19495"
       r="5"
       style="fill:#0000ff" />
    <circle
       id="ae7263f9-8451-4667-896e-6b1c29482453"
       data-name="In4#PJ301MPort"
       cx="21.645691"
       cy="180.19495"
       r="5"
       style="fill:#00ff00" />
    <circle
       id="a8708828-11f1-4ead-951d-6af0c31fbb34"
       data-name="Out3#PJ301MPort"
       cx="98.536102"
       cy="141.74367"
       r="5"
       style="fill:#0000ff" />
    <circle
       id="aca34fbd-187b-4a95-b827-5c89d19b0e1d"
       data-name="In3#PJ301MPort"
       cx="21.645691"
       cy="141.74367"
       r="5"
       style="fill:#00ff00" />
    <circle
       id="fa0c6785-3cb2-4dfc-aca8-cd811771ad10"
       data-name="Out2#PJ301MPort"
       cx="98.536102"
       cy="103.2924"
       r="5"
       style="fill:#0000ff" />
    <circle
       id="f73fc078-808c-4deb-8594-05567c8860d6"
       data-name="In2#PJ301MPort"
       cx="21.645691"
       cy="103.2924"
       r="5"
       style="fill:#00ff00" />
    <circle
       id="b986b2e6-06eb-4c5f-936b-23792ff112b9"
       data-name="CV1#RoundBlackKnob"
       cx="60.09201"
       cy="64.865196"
       r="5"
       style="fill:#ff0000" />
    <circle
       id="adf135b3-392d-499a-b399-1f924b873db5"
       data-name="CV8#RoundBlackKnob"
       cx="60.09201"
       cy="334"
       r="5"
       style="fill:#ff0000" />
    <circle
       id="bec187f1-b9d4-456b-a59d-25bc4dd7ef7c"
       data-name="CV7#RoundBlackKnob"
       cx="60.09201"
       cy="295.54874"
       r="5"
       style="fill:#ff0000" />
    <circle
       id="f0cbe43e-20f7-4fb0-a0c3-5259b799b033"
       data-name="CV6#RoundBlackKnob"
       cx="60.09201"
       cy="257.09747"
       r="5"
       style="fill:#ff0000" />
    <circle
       id="ae9bddea-d824-44ed-8826-940b12a775a7"
       data-name="CV5#RoundBlackKnob"
       cx="60.09201"
       cy="218.64619"
       r="5"
       style="fill:#ff0000" />
    <circle
       id="ec4f3148-facb-41a4-bf69-80559a1edbd2"
       data-name="CV4#RoundBlackKnob"
       cx="60.09201"
       cy="180.19495"
       r="5"
       style="fill:#ff0000" />
    <circle
       id="be923ec7-0103-4449-8dd4-8fa2695b1d53"
       data-name="CV3#RoundBlackKnob"
       cx="60.09201"
       cy="141.74367"
       r="5"
       style="fill:#ff0000" />
    <circle
       id="bf093ceb-38c9-414d-89ba-6145f5b63ebf"
       data-name="CV2#RoundBlackKnob"
       cx="60.09201"
       cy="103.2924"
       r="5"
       style="fill:#ff0000" />
  </g>
</svg>
