<?xml version="1.0" encoding="UTF-8" standalone="no"?>
<svg
   width="135"
   height="380"
   viewBox="0 0 135 380"
   version="1.1"
   id="svg238"
   sodipodi:docname="ADSR.svg"
   inkscape:version="1.2.1 (9c6d41e410, 2022-07-14)"
   xmlns:inkscape="http://www.inkscape.org/namespaces/inkscape"
   xmlns:sodipodi="http://sodipodi.sourceforge.net/DTD/sodipodi-0.dtd"
   xmlns="http://www.w3.org/2000/svg"
   xmlns:svg="http://www.w3.org/2000/svg">
  <sodipodi:namedview
     id="namedview240"
     pagecolor="#ffffff"
     bordercolor="#000000"
     borderopacity="0.25"
     inkscape:showpageshadow="2"
     inkscape:pageopacity="0.0"
     inkscape:pagecheckerboard="0"
     inkscape:deskcolor="#d1d1d1"
     showgrid="false"
     inkscape:zoom="2.1815789"
     inkscape:cx="67.61158"
     inkscape:cy="190.22919"
     inkscape:window-width="1920"
     inkscape:window-height="1009"
     inkscape:window-x="-8"
     inkscape:window-y="-8"
     inkscape:window-maximized="1"
     inkscape:current-layer="svg238" />
  <defs
     id="defs7">
    <linearGradient
       id="uuid-da3713b9-f930-45a4-9680-fb930ffd0bf0"
       x1="67.5"
       y1="0"
       x2="67.5"
       y2="380"
       gradientUnits="userSpaceOnUse">
      <stop
         offset="0"
         stop-color="#ebebeb"
         id="stop2" />
      <stop
         offset="1"
         stop-color="#e1e1e1"
         id="stop4" />
    </linearGradient>
  </defs>
  <g
     id="uuid-101c44e1-1348-43bc-95cd-8179146e7f3a"
     data-name="FND BG">
    <rect
       width="135"
       height="380"
       fill="url(#uuid-da3713b9-f930-45a4-9680-fb930ffd0bf0)"
       id="rect9" />
  </g>
  <g
     id="uuid-e95e243c-eac0-4890-b816-96703c0e9e2f"
     data-name="FND GRAPH">
    <g
       id="g20">
      <path
         d="m59.35927,359.75298c-.34551,0-.66126-.1952-.8158-.50419l-2.96428-5.92856c-.22526-.45057-.04266-.99844.40794-1.2237.45008-.22535.99831-.04271,1.22366.4079l2.14848,4.29696,2.14848-4.29696c.22526-.45057.77314-.63325,1.22366-.4079.45061.22526.63321.77314.40794,1.2237l-2.96428,5.92856c-.15454.30899-.47029.50419-.8158.50419Z"
         fill="#1f1f1f"
         id="path12" />
      <path
         d="m75.64073,359.75298c-.34551,0-.66126-.1952-.8158-.50419l-2.96428-5.92856c-.22526-.45057-.04266-.99844.40794-1.2237.45016-.22535.9984-.04271,1.22366.4079l2.14848,4.29696,2.14848-4.29696c.22526-.45057.77305-.63325,1.22366-.4079.45061.22526.63321.77314.40794,1.2237l-2.96428,5.92856c-.15454.30899-.47029.50419-.8158.50419Z"
         fill="#1f1f1f"
         id="path14" />
      <path
         d="m67.94242,359.75298c-2.13744,0-3.87637-1.73893-3.87637-3.87637s1.73893-3.87637,3.87637-3.87637c.84653,0,1.65102.26819,2.32653.77554.40278.30253.48401.87428.18153,1.27705-.30248.40273-.87432.48401-1.2771.18148-.357-.26815-.78267-.4099-1.23096-.4099-1.13156,0-2.05219.92059-2.05219,2.05219s.92064,2.05219,2.05219,2.05219c.44829,0,.87396-.14176,1.23096-.4099.40269-.30271.97444-.22125,1.2771.18148.30248.40278.22125.97453-.18153,1.27705-.67551.50735-1.48.77554-2.32653.77554Z"
         fill="#1f1f1f"
         id="path16" />
      <circle
         cx="68.00165"
         cy="355.83101"
         r="1.18571"
         fill="#1f1f1f"
         id="circle18" />
    </g>
    <rect
       x="101.1655"
       y="309.0301"
       width="28.68719"
       height="39.15691"
       rx="2.83465"
       ry="2.83465"
       fill="#1f1f1f"
       id="rect22" />
    <line
       x1="62.07745"
       y1="334"
       x2="72.91993"
       y2="334"
       fill="none"
       stroke="#1f1f1f"
       stroke-linecap="round"
       stroke-linejoin="round"
       stroke-width=".8"
       id="line24" />
    <path
       d="m36.59302,333.67796l-2.87167-1.65796c-.24791-.14313-.55779.03578-.55779.32204v3.31592c0,.28626.30989.46517.55779.32204l2.87167-1.65796c.24791-.14313.24791-.50096,0-.64409Z"
       fill="#1f1f1f"
       id="path26" />
    <line
       x1="42.99904"
       y1="163.8566"
       x2="28.00003"
       y2="163.8566"
       fill="none"
       stroke="#1f1f1f"
       stroke-linecap="round"
       stroke-linejoin="round"
       stroke-width=".5"
       id="line28" />
    <line
       x1="42.99904"
       y1="142.25529"
       x2="28.00003"
       y2="142.25529"
       fill="none"
       stroke="#1f1f1f"
       stroke-linecap="round"
       stroke-linejoin="round"
       stroke-width=".5"
       id="line30" />
    <line
       x1="42.99904"
       y1="153.05595"
       x2="28.00003"
       y2="153.05595"
       fill="none"
       stroke="#1f1f1f"
       stroke-linecap="round"
       stroke-linejoin="round"
       stroke-width=".5"
       id="line32" />
    <line
       x1="42.99904"
       y1="131.45464"
       x2="28.00003"
       y2="131.45464"
       fill="none"
       stroke="#1f1f1f"
       stroke-linecap="round"
       stroke-linejoin="round"
       id="line34" />
    <line
       x1="42.99904"
       y1="174.65724"
       x2="28.00003"
       y2="174.65724"
       fill="none"
       stroke="#1f1f1f"
       stroke-linecap="round"
       stroke-linejoin="round"
       stroke-width=".5"
       id="line36" />
    <line
       x1="42.99904"
       y1="185.45789"
       x2="28.00003"
       y2="185.45789"
       fill="none"
       stroke="#1f1f1f"
       stroke-linecap="round"
       stroke-linejoin="round"
       stroke-width=".5"
       id="line38" />
    <line
       x1="74.97395"
       y1="163.8566"
       x2="59.97495"
       y2="163.8566"
       fill="none"
       stroke="#1f1f1f"
       stroke-linecap="round"
       stroke-linejoin="round"
       stroke-width=".5"
       id="line40" />
    <line
       x1="74.97395"
       y1="142.25529"
       x2="59.97495"
       y2="142.25529"
       fill="none"
       stroke="#1f1f1f"
       stroke-linecap="round"
       stroke-linejoin="round"
       stroke-width=".5"
       id="line42" />
    <line
       x1="74.97395"
       y1="153.05595"
       x2="59.97495"
       y2="153.05595"
       fill="none"
       stroke="#1f1f1f"
       stroke-linecap="round"
       stroke-linejoin="round"
       stroke-width=".5"
       id="line44" />
    <line
       x1="74.97395"
       y1="131.45464"
       x2="59.97495"
       y2="131.45464"
       fill="none"
       stroke="#1f1f1f"
       stroke-linecap="round"
       stroke-linejoin="round"
       id="line46" />
    <line
       x1="74.97395"
       y1="174.65724"
       x2="59.97495"
       y2="174.65724"
       fill="none"
       stroke="#1f1f1f"
       stroke-linecap="round"
       stroke-linejoin="round"
       stroke-width=".5"
       id="line48" />
    <line
       x1="74.97395"
       y1="185.45789"
       x2="59.97495"
       y2="185.45789"
       fill="none"
       stroke="#1f1f1f"
       stroke-linecap="round"
       stroke-linejoin="round"
       stroke-width=".5"
       id="line50" />
    <line
       x1="106.94887"
       y1="163.8566"
       x2="92.00005"
       y2="163.8566"
       fill="none"
       stroke="#1f1f1f"
       stroke-linecap="round"
       stroke-linejoin="round"
       stroke-width=".5"
       id="line52" />
    <line
       x1="106.94887"
       y1="142.25529"
       x2="92.00005"
       y2="142.25529"
       fill="none"
       stroke="#1f1f1f"
       stroke-linecap="round"
       stroke-linejoin="round"
       stroke-width=".5"
       id="line54" />
    <line
       x1="106.94887"
       y1="153.05595"
       x2="92.00005"
       y2="153.05595"
       fill="none"
       stroke="#1f1f1f"
       stroke-linecap="round"
       stroke-linejoin="round"
       stroke-width=".5"
       id="line56" />
    <line
       x1="106.94887"
       y1="131.45464"
       x2="92.00005"
       y2="131.45464"
       fill="none"
       stroke="#1f1f1f"
       stroke-linecap="round"
       stroke-linejoin="round"
       id="line58" />
    <line
       x1="106.94887"
       y1="174.65724"
       x2="92.00005"
       y2="174.65724"
       fill="none"
       stroke="#1f1f1f"
       stroke-linecap="round"
       stroke-linejoin="round"
       stroke-width=".5"
       id="line60" />
    <line
       x1="106.94887"
       y1="185.45789"
       x2="92.00005"
       y2="185.45789"
       fill="none"
       stroke="#1f1f1f"
       stroke-linecap="round"
       stroke-linejoin="round"
       stroke-width=".5"
       id="line62" />
    <line
       x1="43.00003"
       y1="196.25854"
       x2="28.00103"
       y2="196.25854"
       fill="none"
       stroke="#1f1f1f"
       stroke-linecap="round"
       stroke-linejoin="round"
       id="line64" />
    <line
       x1="74.97495"
       y1="196.25854"
       x2="59.97594"
       y2="196.25854"
       fill="none"
       stroke="#1f1f1f"
       stroke-linecap="round"
       stroke-linejoin="round"
       id="line66" />
    <line
       x1="106.94986"
       y1="196.25854"
       x2="92.00104"
       y2="196.25854"
       fill="none"
       stroke="#1f1f1f"
       stroke-linecap="round"
       stroke-linejoin="round"
       id="line68" />
    <g
       id="g76">
      <line
         x1="19.50003"
         y1="250.87459"
         x2="19.50003"
         y2="260.07654"
         fill="none"
         stroke="#1f1f1f"
         stroke-linecap="round"
         stroke-linejoin="round"
         stroke-width=".8"
         id="line70" />
      <line
         x1="19.50003"
         y1="226.54018"
         x2="19.50003"
         y2="238.01957"
         fill="none"
         stroke="#1f1f1f"
         stroke-linecap="round"
         stroke-linejoin="round"
         id="line72" />
      <path
         d="m11.34657,246.15346c-2.1616-2.1616-3.37728-5.09649-3.37728-8.15346,0-6.32558,5.20516-11.53074,11.53074-11.53074s11.53074,5.20516,11.53074,11.53074c0,3.05697-1.21567,5.99186-3.37728,8.15346"
         fill="none"
         stroke="#1f1f1f"
         stroke-linecap="round"
         stroke-linejoin="round"
         id="path74" />
    </g>
    <g
       id="g84">
      <line
         x1="51.49849"
         y1="250.87459"
         x2="51.49849"
         y2="260.07654"
         fill="none"
         stroke="#1f1f1f"
         stroke-linecap="round"
         stroke-linejoin="round"
         stroke-width=".8"
         id="line78" />
      <line
         x1="51.49849"
         y1="226.54018"
         x2="51.49849"
         y2="238.01957"
         fill="none"
         stroke="#1f1f1f"
         stroke-linecap="round"
         stroke-linejoin="round"
         id="line80" />
      <path
         d="m43.34502,246.15346c-2.1616-2.1616-3.37728-5.09649-3.37728-8.15346,0-6.32558,5.20516-11.53074,11.53074-11.53074s11.53074,5.20516,11.53074,11.53074c0,3.05697-1.21567,5.99186-3.37728,8.15346"
         fill="none"
         stroke="#1f1f1f"
         stroke-linecap="round"
         stroke-linejoin="round"
         id="path82" />
    </g>
    <g
       id="g92">
      <line
         x1="83.5"
         y1="250.87459"
         x2="83.5"
         y2="260.07654"
         fill="none"
         stroke="#1f1f1f"
         stroke-linecap="round"
         stroke-linejoin="round"
         stroke-width=".8"
         id="line86" />
      <line
         x1="83.5"
         y1="226.54018"
         x2="83.5"
         y2="238.01957"
         fill="none"
         stroke="#1f1f1f"
         stroke-linecap="round"
         stroke-linejoin="round"
         id="line88" />
      <path
         d="m75.34654,246.15346c-2.1616-2.1616-3.37728-5.09649-3.37728-8.15346,0-6.32558,5.20516-11.53074,11.53074-11.53074s11.53074,5.20516,11.53074,11.53074c0,3.05697-1.21567,5.99186-3.37728,8.15346"
         fill="none"
         stroke="#1f1f1f"
         stroke-linecap="round"
         stroke-linejoin="round"
         id="path90" />
    </g>
    <g
       id="g100">
      <line
         x1="115.5091"
         y1="250.87459"
         x2="115.5091"
         y2="260.07654"
         fill="none"
         stroke="#1f1f1f"
         stroke-linecap="round"
         stroke-linejoin="round"
         stroke-width=".8"
         id="line94" />
      <line
         x1="115.5091"
         y1="226.54018"
         x2="115.5091"
         y2="238.01957"
         fill="none"
         stroke="#1f1f1f"
         stroke-linecap="round"
         stroke-linejoin="round"
         id="line96" />
      <path
         d="m107.35564,246.15346c-2.1616-2.1616-3.37728-5.09649-3.37728-8.15346,0-6.32558,5.20516-11.53074,11.53074-11.53074s11.53074,5.20516,11.53074,11.53074c0,3.05697-1.21567,5.99186-3.37728,8.15346"
         fill="none"
         stroke="#1f1f1f"
         stroke-linecap="round"
         stroke-linejoin="round"
         id="path98" />
    </g>
  </g>
  <g
     id="uuid-c34d80c4-b9e1-499f-884c-b81c134f831b"
     data-name="FND TXT">
    <g
       id="g115">
      <path
         d="m38.89746,27.04785l3.05371-6.89404c.21191-.47559.60059-.76318,1.12598-.76318h.1123c.52539,0,.90137.2876,1.11328.76318l3.05371,6.89404c.0625.1377.09961.2627.09961.3877,0,.51318-.40039.92627-.91309.92627-.4502,0-.75098-.26318-.92578-.66357l-.58887-1.37598h-3.85352l-.61328,1.43896c-.16211.37549-.4873.60059-.8877.60059-.50098,0-.88867-.40039-.88867-.90088,0-.1377.0498-.27539.1123-.41309Zm5.41797-2.42725l-1.21387-2.89014-1.21289,2.89014h2.42676Z"
         fill="#1f1f1f"
         id="path103" />
      <path
         d="m48.87793,20.49121c0-.5376.4248-.96289.96289-.96289h2.45215c2.75293,0,4.65527,1.88916,4.65527,4.354v.0249c0,2.46484-1.90234,4.37939-4.65527,4.37939h-2.45215c-.53809,0-.96289-.42529-.96289-.96338v-6.83203Zm3.41504,6.05615c1.57715,0,2.64062-1.06348,2.64062-2.61475v-.02539c0-1.55127-1.06348-2.63965-2.64062-2.63965h-1.48828v5.27979h1.48828Z"
         fill="#1f1f1f"
         id="path105" />
      <path
         d="m58.48438,27.36084c-.21289-.15039-.3623-.42529-.3623-.72607,0-.5.40039-.88818.90039-.88818.25,0,.42578.0874.55078.17529.66309.48779,1.38867.78809,2.23926.78809.78809,0,1.26367-.3125,1.26367-.82568v-.0249c0-.48828-.2998-.73828-1.76367-1.11377-1.76465-.45068-2.90332-.93848-2.90332-2.67725v-.02539c0-1.58887,1.27637-2.64014,3.06543-2.64014,1.06348,0,1.99023.27539,2.77832.77588.21289.125.4248.3877.4248.76318,0,.50049-.40039.88818-.90039.88818-.1875,0-.33789-.0498-.48828-.1377-.6377-.375-1.23828-.58789-1.83887-.58789-.73828,0-1.12598.33789-1.12598.76367v.02441c0,.57617.375.76367,1.88867,1.15137,1.77734.46289,2.77832,1.10107,2.77832,2.62793v.02441c0,1.73926-1.32617,2.71533-3.21582,2.71533-1.15137,0-2.31445-.3501-3.29102-1.05078Z"
         fill="#1f1f1f"
         id="path107" />
      <path
         d="m66.7998,20.49121c0-.5376.4248-.96289.96289-.96289h3.04102c1.11328,0,1.97656.3125,2.55176.88818.48828.48779.75098,1.17627.75098,2.00195v.0249c0,1.37646-.68848,2.22754-1.75195,2.66504l1.33887,1.62695c.1875.2373.31348.4375.31348.73828,0,.5376-.45117.88818-.91406.88818-.4375,0-.72559-.21289-.95117-.50049l-1.87598-2.37744h-1.53906v1.91455c0,.53809-.42578.96338-.96387.96338s-.96289-.42529-.96289-.96338v-6.90723Zm3.87793,3.29102c.93848,0,1.47656-.50049,1.47656-1.23877v-.0249c0-.82617-.5752-1.25098-1.51367-1.25098h-1.91406v2.51465h1.95117Z"
         fill="#1f1f1f"
         id="path109" />
      <path
         d="m79.60645,27.32324v-6.83203c0-.5376.4248-.96289.96289-.96289h4.85449c.47559,0,.86328.3877.86328.86328s-.3877.85059-.86328.85059h-3.90332v1.77686h3.34082c.47559,0,.86328.3877.86328.86328s-.3877.85107-.86328.85107h-3.34082v1.83887h3.96582c.47559,0,.86328.38818.86328.86328,0,.47559-.3877.85107-.86328.85107h-4.91699c-.53809,0-.96289-.42529-.96289-.96338Z"
         fill="#1f1f1f"
         id="path111" />
      <path
         d="m87.51367,23.93262v-.02539c0-2.48975,1.93945-4.5293,4.59277-4.5293,1.32617,0,2.20215.30029,2.99023.85059.1875.1377.40039.40039.40039.77588,0,.52588-.42578.95117-.95117.95117-.27539,0-.4502-.1001-.58789-.2002-.52539-.37549-1.08887-.60059-1.91504-.60059-1.40137,0-2.51465,1.23877-2.51465,2.72754v.0249c0,1.60156,1.10156,2.77783,2.65234,2.77783.70117,0,1.32715-.17529,1.81445-.52539v-1.25146h-1.30078c-.46289,0-.83887-.36279-.83887-.82568s.37598-.83838.83887-.83838h2.20215c.53809,0,.96289.42578.96289.96338v2.12744c0,.5625-.21289.95068-.67578,1.22607-.71289.43799-1.75098.87549-3.06543.87549-2.72754,0-4.60449-1.91406-4.60449-4.50391Z"
         fill="#1f1f1f"
         id="path113" />
    </g>
    <g
       id="g125">
      <path
         d="m42.2124,316.55176v-.01367c0-1.32764,1.01611-2.45215,2.44531-2.45215.71143,0,1.18604.16895,1.61963.48047.08105.06152.16943.17676.16943.33887,0,.22363-.18311.41357-.41357.41357-.1084,0-.18945-.04736-.25732-.09521-.30469-.22363-.63672-.37207-1.15186-.37207-.87402,0-1.5376.76514-1.5376,1.67285v.01367c0,.97559.64355,1.69385,1.6123,1.69385.44727,0,.85352-.14209,1.14502-.35889v-.8877h-.93506c-.20312,0-.37256-.15576-.37256-.35938,0-.20312.16943-.36523.37256-.36523h1.32129c.23682,0,.41992.18262.41992.41992v1.2666c0,.2373-.09473.40674-.2915.52832-.40625.27148-.97559.51514-1.68701.51514-1.4834,0-2.45898-1.05713-2.45898-2.43896Z"
         fill="#1f1f1f"
         id="path117" />
      <path
         d="m47.60547,318.36719l1.76123-3.9292c.09473-.20996.26416-.33887.50146-.33887h.04053c.2373,0,.3999.12891.49463.33887l1.76172,3.9292c.03369.06152.04736.12207.04736.17627,0,.22363-.16943.3999-.39307.3999-.19629,0-.33203-.11523-.40674-.2915l-.38574-.88721h-2.30371l-.39941.91455c-.06787.16943-.21045.26416-.38623.26416-.2168,0-.38623-.16943-.38623-.38623,0-.06104.02002-.12207.0542-.18994Zm3.10303-1.34131l-.8335-1.91748-.8335,1.91748h1.66699Z"
         fill="#1f1f1f"
         id="path119" />
      <path
         d="m53.87549,314.93945h-1.15137c-.2168,0-.38623-.17627-.38623-.38623s.16943-.38623.38623-.38623h3.1499c.21045,0,.37939.17627.37939.38623s-.16895.38623-.37939.38623h-1.1582v3.59082c0,.22998-.18994.41309-.42041.41309-.22998,0-.41992-.18311-.41992-.41309v-3.59082Z"
         fill="#1f1f1f"
         id="path121" />
      <path
         d="m57.25439,318.48926v-3.90234c0-.2373.18262-.41992.41992-.41992h2.75732c.20312,0,.37256.16943.37256.37256,0,.20996-.16943.37256-.37256.37256h-2.34424v1.2334h2.03955c.20312,0,.37256.16895.37256.37891,0,.20361-.16943.36621-.37256.36621h-2.03955v1.27344h2.37793c.20361,0,.37305.16943.37305.37305,0,.20996-.16943.37207-.37305.37207h-2.79102c-.2373,0-.41992-.18262-.41992-.41992Z"
         fill="#1f1f1f"
         id="path123" />
    </g>
    <g
       id="g135">
      <path
         d="m10.22363,314.58691c0-.2373.18262-.41992.41992-.41992h1.44971c1.11133,0,1.80225.62988,1.80225,1.58545v.01318c0,1.06396-.85352,1.61914-1.89697,1.61914h-.94189v1.14551c0,.22998-.18262.41309-.41309.41309-.2373,0-.41992-.18311-.41992-.41309v-3.94336Zm1.80225,2.0459c.62988,0,1.02295-.35205,1.02295-.84668v-.01367c0-.55566-.3999-.84668-1.02295-.84668h-.96924v1.70703h.96924Z"
         fill="#1f1f1f"
         id="path127" />
      <path
         d="m14.85986,316.89746v-2.35107c0-.23047.18311-.41357.41992-.41357.23047,0,.41357.18311.41357.41357v2.31689c0,.88086.45361,1.34863,1.19922,1.34863.73828,0,1.19238-.44043,1.19238-1.31445v-2.35107c0-.23047.18262-.41357.41992-.41357.23047,0,.41309.18311.41309.41357v2.31006c0,1.41602-.79932,2.12744-2.03906,2.12744-1.23291,0-2.01904-.71143-2.01904-2.08643Z"
         fill="#1f1f1f"
         id="path129" />
      <path
         d="m20.15674,318.38086c-.09473-.06738-.1626-.18262-.1626-.31836,0-.2168.17627-.38623.39307-.38623.11523,0,.18945.03369.24365.07471.39307.31152.81299.48779,1.32812.48779.51465,0,.83984-.24365.83984-.59619v-.01367c0-.33887-.18945-.52148-1.07031-.72461-1.00928-.24414-1.57861-.54199-1.57861-1.41602v-.01367c0-.81299.67773-1.37549,1.61914-1.37549.59619,0,1.07715.15576,1.50391.44043.09521.0542.18311.16943.18311.33203,0,.2168-.17627.38623-.39307.38623-.08105,0-.14893-.02051-.2168-.06104-.36572-.23682-.71777-.35889-1.09082-.35889-.4873,0-.77197.25049-.77197.56201v.01367c0,.36572.2168.52832,1.13135.74512,1.00244.24414,1.51758.60303,1.51758,1.38916v.01367c0,.88721-.69775,1.41553-1.69385,1.41553-.64355,0-1.25342-.20312-1.78174-.59619Z"
         fill="#1f1f1f"
         id="path131" />
      <path
         d="m24.84277,314.54639c0-.23047.18262-.41357.41992-.41357.23047,0,.41309.18311.41309.41357v1.59229h2.26318v-1.59229c0-.23047.18262-.41357.41309-.41357.2373,0,.41992.18311.41992.41357v3.98389c0,.22998-.18262.41309-.41992.41309-.23047,0-.41309-.18311-.41309-.41309v-1.61914h-2.26318v1.61914c0,.22998-.18262.41309-.41309.41309-.2373,0-.41992-.18311-.41992-.41309v-3.98389Z"
         fill="#1f1f1f"
         id="path133" />
    </g>
    <g
       id="g145">
      <path
         d="m74.42139,314.58691c0-.2373.18262-.41992.41992-.41992h1.69385c.59619,0,1.06348.17627,1.36865.47412.25049.25732.39258.60986.39258,1.02295v.01367c0,.75879-.44043,1.21973-1.07715,1.41602l.90771,1.14502c.08154.10156.13574.18994.13574.31836,0,.23047-.19678.38623-.3999.38623-.18945,0-.31152-.08789-.40625-.2168l-1.15186-1.47021h-1.05029v1.27393c0,.22998-.18262.41309-.41309.41309-.2373,0-.41992-.18311-.41992-.41309v-3.94336Zm2.05273,1.93066c.59619,0,.97559-.31152.97559-.79248v-.01318c0-.5083-.36572-.78613-.98242-.78613h-1.21289v1.5918h1.21973Z"
         fill="#1f1f1f"
         id="path137" />
      <path
         d="m79.5542,318.48926v-3.90234c0-.2373.18262-.41992.41992-.41992h2.75732c.20312,0,.37256.16943.37256.37256,0,.20996-.16943.37256-.37256.37256h-2.34424v1.2334h2.03955c.20312,0,.37256.16895.37256.37891,0,.20361-.16943.36621-.37256.36621h-2.03955v1.27344h2.37793c.20361,0,.37305.16943.37305.37305,0,.20996-.16943.37207-.37305.37207h-2.79102c-.2373,0-.41992-.18262-.41992-.41992Z"
         fill="#1f1f1f"
         id="path139" />
      <path
         d="m85.51758,314.93945h-1.15186c-.2168,0-.38574-.17627-.38574-.38623s.16895-.38623.38574-.38623h3.15039c.20996,0,.37939.17627.37939.38623s-.16943.38623-.37939.38623h-1.1582v3.59082c0,.22998-.18994.41309-.41992.41309-.23047,0-.42041-.18311-.42041-.41309v-3.59082Z"
         fill="#1f1f1f"
         id="path141" />
      <path
         d="m88.89648,314.58691c0-.2373.18262-.41992.41992-.41992h1.69385c.59619,0,1.06348.17627,1.36816.47412.25098.25732.39307.60986.39307,1.02295v.01367c0,.75879-.44043,1.21973-1.07715,1.41602l.90771,1.14502c.08154.10156.13574.18994.13574.31836,0,.23047-.19629.38623-.3999.38623-.18945,0-.31152-.08789-.40625-.2168l-1.15186-1.47021h-1.05029v1.27393c0,.22998-.18262.41309-.41309.41309-.2373,0-.41992-.18311-.41992-.41309v-3.94336Zm2.05273,1.93066c.59619,0,.97559-.31152.97559-.79248v-.01318c0-.5083-.36572-.78613-.98242-.78613h-1.21289v1.5918h1.21973Z"
         fill="#1f1f1f"
         id="path143" />
    </g>
    <g
       id="g153">
      <path
         d="m108.48926,318.3877v-3.69922c0-.29102.23047-.52148.52246-.52148h2.62793c.25781,0,.46777.20996.46777.46777,0,.25684-.20996.46045-.46777.46045h-2.11328v.96191h1.80859c.25781,0,.46777.20996.46777.46729,0,.25781-.20996.46094-.46777.46094h-1.80859v.99609h2.14746c.25781,0,.46777.20996.46777.46729s-.20996.46045-.46777.46045h-2.66211c-.29199,0-.52246-.22998-.52246-.52148Z"
         fill="#f0f0f0"
         id="path147" />
      <path
         d="m113.26172,314.66162c0-.2915.23047-.52197.52246-.52197h.1084c.25,0,.39941.12207.54199.30518l2.01172,2.64209v-2.4458c0-.28467.23047-.51465.51465-.51465.28516,0,.51562.22998.51562.51465v3.77393c0,.29102-.23047.52148-.52246.52148h-.0332c-.25098,0-.40039-.12207-.54199-.30469l-2.08691-2.7373v2.54053c0,.28467-.23047.51514-.51465.51514-.28516,0-.51562-.23047-.51562-.51514v-3.77344Z"
         fill="#f0f0f0"
         id="path149" />
      <path
         d="m120.01074,318.5708l-1.53809-3.6792c-.03418-.08105-.06055-.16211-.06055-.25049,0-.2915.22949-.51465.52148-.51465.27051,0,.44727.15576.52832.36572l1.18555,3.06934,1.19922-3.10352c.06738-.16895.25098-.33154.50098-.33154.28516,0,.51465.2168.51465.50146,0,.08105-.02637.16895-.05371.22998l-1.55176,3.71289c-.1084.25732-.30469.41309-.58887.41309h-.06836c-.28418,0-.48047-.15576-.58887-.41309Z"
         fill="#f0f0f0"
         id="path151" />
    </g>
    <g
       id="g161">
      <path
         d="m12.86816,270.42285l1.76074-3.92969c.09521-.20996.26465-.33887.50195-.33887h.04004c.2373,0,.40039.12891.49512.33887l1.76123,3.92969c.03369.06055.04736.12158.04736.17578,0,.22363-.16895.3999-.39258.3999-.19678,0-.33203-.11523-.40674-.2915l-.38623-.8877h-2.30371l-.39941.91504c-.06738.16895-.20996.26416-.38623.26416-.2168,0-.38623-.16943-.38623-.38623,0-.06104.02051-.12207.05469-.18945Zm3.10254-1.3418l-.83301-1.91699-.83398,1.91699h1.66699Z"
         fill="#1f1f1f"
         id="path155" />
      <path
         d="m19.13867,266.99463h-1.15234c-.2168,0-.38574-.17627-.38574-.38623s.16895-.38623.38574-.38623h3.15039c.20996,0,.37988.17627.37988.38623s-.16992.38623-.37988.38623h-1.1582v3.59033c0,.23047-.18945.41357-.41992.41357s-.41992-.18311-.41992-.41357v-3.59033Z"
         fill="#1f1f1f"
         id="path157" />
      <path
         d="m23.85254,266.99463h-1.15186c-.2168,0-.38623-.17627-.38623-.38623s.16943-.38623.38623-.38623h3.15039c.20996,0,.37939.17627.37939.38623s-.16943.38623-.37939.38623h-1.15869v3.59033c0,.23047-.18945.41357-.41992.41357s-.41992-.18311-.41992-.41357v-3.59033Z"
         fill="#1f1f1f"
         id="path159" />
    </g>
    <g
       id="g169">
      <path
         d="m44.55176,266.64209c0-.23682.18262-.41992.41992-.41992h1.34814c1.49072,0,2.52002,1.02295,2.52002,2.35791v.01318c0,1.33447-1.0293,2.37158-2.52002,2.37158h-1.34814c-.2373,0-.41992-.18311-.41992-.42041v-3.90234Zm1.76807,3.56396c.99561,0,1.646-.6709,1.646-1.59912v-.01367c0-.92822-.65039-1.6123-1.646-1.6123h-.93506v3.2251h.93506Z"
         fill="#1f1f1f"
         id="path163" />
      <path
         d="m50.04395,270.54443v-3.90234c0-.23682.18262-.41992.41992-.41992h2.75684c.20361,0,.37305.16943.37305.37256,0,.20996-.16943.37256-.37305.37256h-2.34375v1.23291h2.03906c.20312,0,.37305.16992.37305.37988,0,.20312-.16992.36572-.37305.36572h-2.03906v1.27344h2.37793c.20312,0,.37256.16943.37256.37256,0,.20996-.16943.37305-.37256.37305h-2.79102c-.2373,0-.41992-.18311-.41992-.42041Z"
         fill="#1f1f1f"
         id="path165" />
      <path
         d="m54.4541,268.60693v-.01367c0-1.34814,1.00977-2.45264,2.4458-2.45264.73193,0,1.2124.2168,1.62598.53516.08838.06836.1626.18311.1626.33203,0,.23047-.18262.40674-.41309.40674-.11523,0-.19629-.04053-.25098-.08154-.3252-.26367-.67773-.42676-1.13135-.42676-.90088,0-1.56494.74512-1.56494,1.67383v.01318c0,.92822.65723,1.68018,1.56494,1.68018.50146,0,.84033-.1626,1.18604-.4541.06055-.05371.14844-.09473.25-.09473.20996,0,.39355.17627.39355.38623,0,.12891-.06152.23047-.13574.29834-.44727.39258-.95508.63672-1.7207.63672-1.38232,0-2.41211-1.07715-2.41211-2.43896Z"
         fill="#1f1f1f"
         id="path167" />
    </g>
    <g
       id="g177">
      <path
         d="m76.87402,270.43604c-.09473-.06787-.16309-.18311-.16309-.31836,0-.2168.17676-.38623.39355-.38623.11475,0,.18945.03418.24316.07471.39355.31152.81348.48779,1.32812.48779s.83984-.24414.83984-.59619v-.01367c0-.33838-.18945-.52148-1.07031-.7251-1.00928-.24365-1.57812-.54199-1.57812-1.41602v-.01318c0-.81299.67725-1.37549,1.61914-1.37549.5957,0,1.07715.15625,1.50391.44043.09473.0542.18262.16943.18262.33203,0,.2168-.17578.38623-.39258.38623-.08105,0-.14941-.02051-.2168-.06104-.36621-.2373-.71826-.35938-1.09082-.35938-.48779,0-.77246.25098-.77246.5625v.01367c0,.36572.2168.52832,1.13184.74512,1.00244.24414,1.51758.60303,1.51758,1.38867v.01367c0,.8877-.69824,1.41602-1.69434,1.41602-.64355,0-1.25293-.20312-1.78125-.59619Z"
         fill="#1f1f1f"
         id="path171" />
      <path
         d="m81.46484,268.95215v-2.35059c0-.23047.18359-.41309.42041-.41309.22998,0,.41357.18262.41357.41309v2.31689c0,.88086.45361,1.34814,1.19873,1.34814.73877,0,1.19238-.44043,1.19238-1.31445v-2.35059c0-.23047.18311-.41309.42041-.41309.22998,0,.41309.18262.41309.41309v2.31055c0,1.41553-.7998,2.12695-2.03906,2.12695-1.2334,0-2.01953-.71143-2.01953-2.08691Z"
         fill="#1f1f1f"
         id="path173" />
      <path
         d="m86.76172,270.43604c-.09473-.06787-.1626-.18311-.1626-.31836,0-.2168.17627-.38623.39307-.38623.11523,0,.18945.03418.24414.07471.39258.31152.8125.48779,1.32715.48779.51562,0,.84082-.24414.84082-.59619v-.01367c0-.33838-.19043-.52148-1.0708-.7251-1.00928-.24365-1.57861-.54199-1.57861-1.41602v-.01318c0-.81299.67773-1.37549,1.61914-1.37549.59668,0,1.07715.15625,1.50391.44043.09473.0542.18311.16943.18311.33203,0,.2168-.17627.38623-.39307.38623-.08105,0-.14893-.02051-.2168-.06104-.36572-.2373-.71777-.35938-1.09082-.35938-.4873,0-.77246.25098-.77246.5625v.01367c0,.36572.2168.52832,1.13184.74512,1.00293.24414,1.51758.60303,1.51758,1.38867v.01367c0,.8877-.69824,1.41602-1.69385,1.41602-.64355,0-1.25342-.20312-1.78174-.59619Z"
         fill="#1f1f1f"
         id="path175" />
    </g>
    <g
       id="g185">
      <path
         d="m109.09082,266.64209c0-.23682.18311-.41992.41992-.41992h1.69385c.59619,0,1.06396.17627,1.36865.47412.25098.25781.39307.60986.39307,1.02344v.01318c0,.75879-.44043,1.21924-1.07764,1.41602l.9082,1.14502c.08105.10156.13574.18945.13574.31836,0,.23047-.19678.38623-.3999.38623-.18994,0-.31201-.08838-.40674-.2168l-1.15137-1.47021h-1.05029v1.27344c0,.23047-.18311.41357-.41357.41357-.23682,0-.41992-.18311-.41992-.41357v-3.94287Zm2.05273,1.93115c.59668,0,.97559-.31152.97559-.79297v-.01367c0-.50781-.36572-.78564-.98242-.78564h-1.2124v1.59229h1.21924Z"
         fill="#1f1f1f"
         id="path179" />
      <path
         d="m114.22363,270.54443v-3.90234c0-.23682.18262-.41992.41992-.41992h2.75732c.20361,0,.37256.16943.37256.37256,0,.20996-.16895.37256-.37256.37256h-2.34424v1.23291h2.03955c.20312,0,.37256.16992.37256.37988,0,.20312-.16943.36572-.37256.36572h-2.03955v1.27344h2.37793c.20361,0,.37305.16943.37305.37256,0,.20996-.16943.37305-.37305.37305h-2.79102c-.2373,0-.41992-.18311-.41992-.42041Z"
         fill="#1f1f1f"
         id="path181" />
      <path
         d="m118.94922,266.60156c0-.23047.18262-.41309.41992-.41309.23047,0,.41309.18262.41309.41309v3.60449h2.14795c.20996,0,.37939.16895.37939.37891s-.16943.37988-.37939.37988h-2.56104c-.2373,0-.41992-.18311-.41992-.42041v-3.94287Z"
         fill="#1f1f1f"
         id="path183" />
    </g>
    <g
       id="g193">
      <path
         d="m11.41211,114.94141l2.16992-4.84082c.1167-.25879.32568-.41748.61768-.41748h.05029c.29199,0,.49219.15869.60889.41748l2.17041,4.84082c.0415.0752.05811.15039.05811.2168,0,.27539-.2085.49268-.48389.49268-.24219,0-.40918-.14209-.50098-.35889l-.47559-1.09375h-2.83789l-.49219,1.12695c-.0835.20898-.25879.32568-.47607.32568-.26709,0-.47559-.2085-.47559-.47607,0-.07471.0249-.1499.06689-.2334Zm3.82275-1.65234l-1.02686-2.3623-1.02637,2.3623h2.05322Z"
         fill="#1f1f1f"
         id="path187" />
      <path
         d="m19.04346,110.71777h-1.41895c-.26709,0-.47607-.2168-.47607-.47559s.20898-.47559.47607-.47559h3.88086c.25879,0,.46729.2168.46729.47559s-.2085.47559-.46729.47559h-1.42725v4.42383c0,.28418-.2334.50928-.51758.50928-.28369,0-.51709-.2251-.51709-.50928v-4.42383Z"
         fill="#1f1f1f"
         id="path189" />
      <path
         d="m24.78418,110.71777h-1.41895c-.26709,0-.47607-.2168-.47607-.47559s.20898-.47559.47607-.47559h3.88086c.25879,0,.46729.2168.46729.47559s-.2085.47559-.46729.47559h-1.42725v4.42383c0,.28418-.2334.50928-.51758.50928-.28369,0-.51709-.2251-.51709-.50928v-4.42383Z"
         fill="#1f1f1f"
         id="path191" />
    </g>
    <g
       id="g201">
      <path
         d="m43.0166,110.28418c0-.29199.22559-.51758.51758-.51758h1.66113c1.83691,0,3.10547,1.26025,3.10547,2.9043v.0166c0,1.64453-1.26855,2.92188-3.10547,2.92188h-1.66113c-.29199,0-.51758-.22559-.51758-.51758v-4.80762Zm2.17871,4.39014c1.22754,0,2.02832-.82666,2.02832-1.96973v-.01709c0-1.14307-.80078-1.98633-2.02832-1.98633h-1.15137v3.97314h1.15137Z"
         fill="#1f1f1f"
         id="path195" />
      <path
         d="m49.70996,115.0918v-4.80762c0-.29199.22559-.51758.51758-.51758h3.39746c.25,0,.45898.2085.45898.45898,0,.25879-.20898.45898-.45898.45898h-2.8877v1.51904h2.51172c.25098,0,.45898.2085.45898.46729,0,.25098-.20801.45117-.45898.45117h-2.51172v1.56885h2.92969c.25,0,.45898.2085.45898.45947,0,.2583-.20898.45898-.45898.45898h-3.43945c-.29199,0-.51758-.22559-.51758-.51758Z"
         fill="#1f1f1f"
         id="path197" />
      <path
         d="m55.06738,112.70459v-.01709c0-1.66064,1.24414-3.021,3.0127-3.021.90234,0,1.49414.26709,2.00391.65918.1084.0835.2002.2251.2002.40918,0,.28369-.22559.50049-.50977.50049-.1416,0-.24121-.0498-.30859-.1001-.40039-.32568-.83398-.52588-1.39355-.52588-1.11035,0-1.92773.91797-1.92773,2.06152v.0166c0,1.14355.80957,2.07031,1.92773,2.07031.61719,0,1.03516-.2002,1.46094-.55957.0752-.06641.18359-.11621.30859-.11621.25879,0,.48438.2168.48438.47559,0,.1582-.0752.28369-.16699.36719-.55078.48389-1.17676.78418-2.12012.78418-1.70312,0-2.97168-1.32715-2.97168-3.00439Z"
         fill="#1f1f1f"
         id="path199" />
    </g>
    <g
       id="g209">
      <path
         d="m75.41211,114.95801c-.11719-.0835-.2002-.22559-.2002-.39209,0-.26709.2168-.47607.48389-.47607.14209,0,.23389.04199.30029.0918.48438.38428,1.00195.60107,1.63623.60107s1.03467-.30029,1.03467-.73438v-.0166c0-.41748-.2334-.64307-1.31836-.89307-1.24365-.30078-1.94482-.66797-1.94482-1.74463v-.0166c0-1.00146.83447-1.69434,1.99463-1.69434.73438,0,1.32715.19189,1.85303.54248.1167.06689.2251.20898.2251.40918,0,.2666-.2168.47559-.48389.47559-.1001,0-.18359-.02539-.26709-.0752-.45068-.29199-.88477-.44238-1.34375-.44238-.60107,0-.95166.30859-.95166.69287v.0166c0,.45068.26709.65088,1.39404.91846,1.23535.30029,1.86963.74268,1.86963,1.71094v.0166c0,1.09326-.85986,1.74414-2.08691,1.74414-.79248,0-1.54395-.25-2.19482-.73438Z"
         fill="#1f1f1f"
         id="path203" />
      <path
         d="m80.99609,113.12988v-2.896c0-.28369.22559-.50928.51758-.50928.28369,0,.50928.22559.50928.50928v2.85449c0,1.08545.55908,1.66113,1.47754,1.66113.90967,0,1.46875-.54248,1.46875-1.61963v-2.896c0-.28369.22559-.50928.51758-.50928.28369,0,.50928.22559.50928.50928v2.84619c0,1.74414-.98535,2.62109-2.5127,2.62109-1.51904,0-2.4873-.87695-2.4873-2.57129Z"
         fill="#1f1f1f"
         id="path205" />
      <path
         d="m87.44873,114.95801c-.11719-.0835-.20068-.22559-.20068-.39209,0-.26709.21729-.47607.48438-.47607.14209,0,.23389.04199.30029.0918.48438.38428,1.00195.60107,1.63623.60107s1.03467-.30029,1.03467-.73438v-.0166c0-.41748-.2334-.64307-1.31885-.89307-1.24316-.30078-1.94434-.66797-1.94434-1.74463v-.0166c0-1.00146.83447-1.69434,1.99463-1.69434.73438,0,1.32715.19189,1.85303.54248.1167.06689.2251.20898.2251.40918,0,.2666-.2168.47559-.48389.47559-.1001,0-.18359-.02539-.26709-.0752-.45068-.29199-.88477-.44238-1.34375-.44238-.60107,0-.95166.30859-.95166.69287v.0166c0,.45068.26709.65088,1.39404.91846,1.23535.30029,1.86963.74268,1.86963,1.71094v.0166c0,1.09326-.85986,1.74414-2.08691,1.74414-.79297,0-1.54395-.25-2.19482-.73438Z"
         fill="#1f1f1f"
         id="path207" />
    </g>
    <g
       id="g217">
      <path
         d="m107.63232,110.28418c0-.29199.22559-.51758.51758-.51758h2.08691c.73438,0,1.31006.2168,1.68604.58398.30859.31738.48389.75146.48389,1.26074v.0166c0,.93457-.54248,1.50195-1.32715,1.74414l1.11865,1.41064c.1001.12549.16699.23389.16699.39209,0,.28418-.24219.47607-.49268.47607-.23389,0-.38379-.1084-.50098-.26709l-1.41846-1.81152h-1.29395v1.56934c0,.28418-.22559.50928-.50928.50928-.29199,0-.51758-.2251-.51758-.50928v-4.85742Zm2.5293,2.37891c.73438,0,1.20166-.38428,1.20166-.97656v-.01709c0-.62598-.45068-.96826-1.20996-.96826h-1.49414v1.96191h1.50244Z"
         fill="#1f1f1f"
         id="path211" />
      <path
         d="m113.88428,115.0918v-4.80762c0-.29199.22559-.51758.51758-.51758h3.39697c.25049,0,.45947.2085.45947.45898,0,.25879-.20898.45898-.45947.45898h-2.8877v1.51904h2.51221c.25049,0,.45898.2085.45898.46729,0,.25098-.2085.45117-.45898.45117h-2.51221v1.56885h2.92969c.25049,0,.45898.2085.45898.45947,0,.2583-.2085.45898-.45898.45898h-3.43896c-.29199,0-.51758-.22559-.51758-.51758Z"
         fill="#1f1f1f"
         id="path213" />
      <path
         d="m119.63379,110.23389c0-.28369.22559-.50928.51758-.50928.28369,0,.50928.22559.50928.50928v4.44043h2.646c.25879,0,.46729.2085.46729.46729s-.2085.46777-.46729.46777h-3.15527c-.29199,0-.51758-.22559-.51758-.51758v-4.85791Z"
         fill="#1f1f1f"
         id="path215" />
    </g>
  </g>
  <g
     id="uuid-6bed3dd9-aa10-4504-83d6-85f937941ebb"
     data-name="components"
     inkscape:groupmode="layer"
     style="display:none">
    <rect
       id="uuid-6a3daf31-b574-4b16-be9b-a3a613f996e0"
       data-name="Screen"
       y="38.5"
       width="135"
       height="62.654339"
       fill="#ffff00"
       x="0" />
    <circle
       id="uuid-a1580504-a051-451d-ada7-7fbea2162ee8"
       data-name="Gate#PJ301MPort"
       cx="51.500031"
       cy="334"
       r="5"
       fill="#00ff00" />
    <circle
       id="uuid-857bce32-fa87-4a08-9310-8794ae9e0927"
       data-name="Push#LEDLightBezel"
       cx="19.500031"
       cy="334"
       r="5"
       fill="#ff0000" />
    <circle
       id="uuid-07ae76c4-2a82-402d-8626-97911269cf11"
       data-name="Retr#PJ301MPort"
       cx="83.5"
       cy="334"
       r="5"
       fill="#00ff00" />
    <circle
       id="uuid-13f49b34-932c-4db6-b507-23bb2cc909b8"
       data-name="Env#PJ301MPort"
       cx="115.5091"
       cy="334"
       r="5"
       fill="#0000ff" />
    <circle
       id="uuid-d755ce13-96d0-4a64-9373-6069b9112608"
       data-name="AttCv#Trimpot"
       cx="19.500031"
       cy="238"
       r="5"
       fill="#ff0000" />
    <circle
       id="uuid-a9550da8-ede9-40c4-b7a9-c0a1efc4bd00"
       data-name="Att#PJ301MPort"
       cx="19.500031"
       cy="286.06897"
       r="5"
       fill="#00ff00" />
    <circle
       id="uuid-07965e9d-7add-40d1-91d7-54097403976a"
       data-name="DecCv#Trimpot"
       cx="51.500031"
       cy="238.08218"
       r="5"
       fill="#ff0000" />
    <circle
       id="uuid-b65e57b3-e124-41ad-8598-e1fde8244ad8"
       data-name="Dec#PJ301MPort"
       cx="51.500031"
       cy="286"
       r="5"
       fill="#00ff00" />
    <circle
       id="uuid-0ab5cdc1-04e6-4b2c-9d28-dbda6411deee"
       data-name="SusCv#Trimpot"
       cx="83.5"
       cy="238"
       r="5"
       fill="#ff0000" />
    <circle
       id="uuid-c43f3a38-adf2-482d-9feb-4ce73529784e"
       data-name="Sus#PJ301MPort"
       cx="83.5"
       cy="286.08084"
       r="5"
       fill="#00ff00" />
    <circle
       id="uuid-24157097-2805-4d64-bd62-4ac464dc4ded"
       data-name="RelCv#Trimpot"
       cx="115.5091"
       cy="238"
       r="5"
       fill="#ff0000" />
    <circle
       id="uuid-bf27ae42-9a1d-4ad2-83e0-9fe114da6899"
       data-name="Rel#PJ301MPort"
       cx="115.5091"
       cy="286.09271"
       r="5"
       fill="#00ff00" />
    <circle
       id="uuid-0757a174-6aa1-4da7-927c-b78e5cec0957"
       data-name="Att#LEDSlider"
       cx="19.500031"
       cy="163.74339"
       r="5"
       fill="#ff0000" />
    <circle
       id="uuid-ed03b9ca-c214-4960-ad92-0632c2085d5d"
       data-name="Dec#LEDSlider"
       cx="51.500031"
       cy="163.74339"
       r="5"
       fill="#ff0000" />
    <circle
       id="uuid-125adafe-a7ea-4066-b931-425bb2e5d755"
       data-name="Sus#LEDSlider"
       cx="83.500031"
       cy="163.74339"
       r="5"
       fill="#ff0000" />
    <circle
       id="uuid-68953297-5d1a-4065-8f1c-6c8ba38ac432"
       data-name="Rel#LEDSlider"
       cx="115.50003"
       cy="163.74339"
       r="5"
       fill="#ff0000" />
  </g>
</svg>
