<?xml version="1.0" encoding="UTF-8" standalone="no"?>
<svg
   xmlns:dc="http://purl.org/dc/elements/1.1/"
   xmlns:cc="http://creativecommons.org/ns#"
   xmlns:rdf="http://www.w3.org/1999/02/22-rdf-syntax-ns#"
   xmlns:svg="http://www.w3.org/2000/svg"
   xmlns="http://www.w3.org/2000/svg"
   xmlns:sodipodi="http://sodipodi.sourceforge.net/DTD/sodipodi-0.dtd"
   xmlns:inkscape="http://www.inkscape.org/namespaces/inkscape"
   width="135"
   height="380"
   viewBox="0 0 135 380"
   version="1.1"
   id="svg234"
   sodipodi:docname="ADSR.svg"
   inkscape:version="0.92.3 (2405546, 2018-03-11)">
  <metadata
     id="metadata238">
    <rdf:RDF>
      <cc:Work
         rdf:about="">
        <dc:format>image/svg+xml</dc:format>
        <dc:type
           rdf:resource="http://purl.org/dc/dcmitype/StillImage" />
      </cc:Work>
    </rdf:RDF>
  </metadata>
  <sodipodi:namedview
     pagecolor="#ffffff"
     bordercolor="#666666"
     borderopacity="1"
     objecttolerance="10"
     gridtolerance="10"
     guidetolerance="10"
     inkscape:pageopacity="0"
     inkscape:pageshadow="2"
     inkscape:window-width="1920"
     inkscape:window-height="1017"
     id="namedview236"
     showgrid="false"
     inkscape:zoom="0.62105263"
     inkscape:cx="67.5"
     inkscape:cy="190"
     inkscape:window-x="-8"
     inkscape:window-y="-8"
     inkscape:window-maximized="1"
     inkscape:current-layer="svg234" />
  <defs
     id="defs7">
    <linearGradient
       id="f579ce23-d3b6-4c4c-8ef7-aa63d04ab5fb"
       x1="67.5"
       x2="67.5"
       y2="380"
       gradientUnits="userSpaceOnUse">
      <stop
         offset="0"
         stop-color="#ebebeb"
         id="stop2" />
      <stop
         offset="1"
         stop-color="#e1e1e1"
         id="stop4" />
    </linearGradient>
  </defs>
  <g
     id="a6c7a665-b5d0-4aca-83fe-612eebe5ef47"
     data-name="FND BG">
    <rect
       width="135"
       height="380"
       fill="url(#f579ce23-d3b6-4c4c-8ef7-aa63d04ab5fb)"
       id="rect9" />
  </g>
  <g
     id="e954ae65-383f-4867-81e5-54f3ca7f0da7"
     data-name="FND GRAPH">
    <g
       id="g20">
      <path
         d="M59.35927,359.753a.91214.91214,0,0,1-.8158-.50418l-2.96428-5.92857a.91209.91209,0,0,1,1.6316-.8158l2.14848,4.297,2.14848-4.297a.91209.91209,0,0,1,1.6316.8158l-2.96428,5.92857A.91211.91211,0,0,1,59.35927,359.753Z"
         fill="#1f1f1f"
         id="path12" />
      <path
         d="M75.64073,359.753a.91211.91211,0,0,1-.8158-.50418l-2.96428-5.92857a.91209.91209,0,0,1,1.6316-.8158l2.14848,4.297,2.14848-4.297a.91209.91209,0,0,1,1.6316.8158l-2.96428,5.92857A.91214.91214,0,0,1,75.64073,359.753Z"
         fill="#1f1f1f"
         id="path14" />
      <path
         d="M67.94242,359.753a3.87637,3.87637,0,1,1,2.32653-6.97719.91209.91209,0,1,1-1.09557,1.45854,2.034,2.034,0,0,0-1.231-.40991,2.0522,2.0522,0,1,0,0,4.10439,2.034,2.034,0,0,0,1.231-.40991.91209.91209,0,1,1,1.09557,1.45854A3.8448,3.8448,0,0,1,67.94242,359.753Z"
         fill="#1f1f1f"
         id="path16" />
      <circle
         cx="68.00165"
         cy="355.83101"
         r="1.18571"
         fill="#1f1f1f"
         id="circle18" />
    </g>
    <rect
       x="101.1655"
       y="309.0301"
       width="28.68719"
       height="39.15691"
       rx="2.83465"
       fill="#1f1f1f"
       id="rect22" />
    <line
       x1="62.07745"
       y1="334"
       x2="72.91993"
       y2="334"
       fill="none"
       stroke="#1f1f1f"
       stroke-linecap="round"
       stroke-linejoin="round"
       stroke-width="0.8"
       id="line24" />
    <path
       d="M36.593,333.678l-2.87167-1.658a.37187.37187,0,0,0-.5578.322V335.658a.37187.37187,0,0,0,.5578.322l2.87167-1.658A.37186.37186,0,0,0,36.593,333.678Z"
       fill="#1f1f1f"
       id="path26" />
    <line
       x1="42.99904"
       y1="163.8566"
       x2="28.00003"
       y2="163.8566"
       fill="none"
       stroke="#1f1f1f"
       stroke-linecap="round"
       stroke-linejoin="round"
       stroke-width="0.5"
       id="line28" />
    <line
       x1="42.99904"
       y1="142.25529"
       x2="28.00003"
       y2="142.25529"
       fill="none"
       stroke="#1f1f1f"
       stroke-linecap="round"
       stroke-linejoin="round"
       stroke-width="0.5"
       id="line30" />
    <line
       x1="42.99904"
       y1="153.05595"
       x2="28.00003"
       y2="153.05595"
       fill="none"
       stroke="#1f1f1f"
       stroke-linecap="round"
       stroke-linejoin="round"
       stroke-width="0.5"
       id="line32" />
    <line
       x1="42.99904"
       y1="131.45464"
       x2="28.00003"
       y2="131.45464"
       fill="none"
       stroke="#1f1f1f"
       stroke-linecap="round"
       stroke-linejoin="round"
       id="line34" />
    <line
       x1="42.99904"
       y1="174.65724"
       x2="28.00003"
       y2="174.65724"
       fill="none"
       stroke="#1f1f1f"
       stroke-linecap="round"
       stroke-linejoin="round"
       stroke-width="0.5"
       id="line36" />
    <line
       x1="42.99904"
       y1="185.45789"
       x2="28.00003"
       y2="185.45789"
       fill="none"
       stroke="#1f1f1f"
       stroke-linecap="round"
       stroke-linejoin="round"
       stroke-width="0.5"
       id="line38" />
    <line
       x1="74.97395"
       y1="163.8566"
       x2="59.97495"
       y2="163.8566"
       fill="none"
       stroke="#1f1f1f"
       stroke-linecap="round"
       stroke-linejoin="round"
       stroke-width="0.5"
       id="line40" />
    <line
       x1="74.97395"
       y1="142.25529"
       x2="59.97495"
       y2="142.25529"
       fill="none"
       stroke="#1f1f1f"
       stroke-linecap="round"
       stroke-linejoin="round"
       stroke-width="0.5"
       id="line42" />
    <line
       x1="74.97395"
       y1="153.05595"
       x2="59.97495"
       y2="153.05595"
       fill="none"
       stroke="#1f1f1f"
       stroke-linecap="round"
       stroke-linejoin="round"
       stroke-width="0.5"
       id="line44" />
    <line
       x1="74.97395"
       y1="131.45464"
       x2="59.97495"
       y2="131.45464"
       fill="none"
       stroke="#1f1f1f"
       stroke-linecap="round"
       stroke-linejoin="round"
       id="line46" />
    <line
       x1="74.97395"
       y1="174.65724"
       x2="59.97495"
       y2="174.65724"
       fill="none"
       stroke="#1f1f1f"
       stroke-linecap="round"
       stroke-linejoin="round"
       stroke-width="0.5"
       id="line48" />
    <line
       x1="74.97395"
       y1="185.45789"
       x2="59.97495"
       y2="185.45789"
       fill="none"
       stroke="#1f1f1f"
       stroke-linecap="round"
       stroke-linejoin="round"
       stroke-width="0.5"
       id="line50" />
    <line
       x1="106.94887"
       y1="163.8566"
       x2="92.00005"
       y2="163.8566"
       fill="none"
       stroke="#1f1f1f"
       stroke-linecap="round"
       stroke-linejoin="round"
       stroke-width="0.5"
       id="line52" />
    <line
       x1="106.94887"
       y1="142.25529"
       x2="92.00005"
       y2="142.25529"
       fill="none"
       stroke="#1f1f1f"
       stroke-linecap="round"
       stroke-linejoin="round"
       stroke-width="0.5"
       id="line54" />
    <line
       x1="106.94887"
       y1="153.05595"
       x2="92.00005"
       y2="153.05595"
       fill="none"
       stroke="#1f1f1f"
       stroke-linecap="round"
       stroke-linejoin="round"
       stroke-width="0.5"
       id="line56" />
    <line
       x1="106.94887"
       y1="131.45464"
       x2="92.00005"
       y2="131.45464"
       fill="none"
       stroke="#1f1f1f"
       stroke-linecap="round"
       stroke-linejoin="round"
       id="line58" />
    <line
       x1="106.94887"
       y1="174.65724"
       x2="92.00005"
       y2="174.65724"
       fill="none"
       stroke="#1f1f1f"
       stroke-linecap="round"
       stroke-linejoin="round"
       stroke-width="0.5"
       id="line60" />
    <line
       x1="106.94887"
       y1="185.45789"
       x2="92.00005"
       y2="185.45789"
       fill="none"
       stroke="#1f1f1f"
       stroke-linecap="round"
       stroke-linejoin="round"
       stroke-width="0.5"
       id="line62" />
    <line
       x1="43.00003"
       y1="196.25854"
       x2="28.00103"
       y2="196.25854"
       fill="none"
       stroke="#1f1f1f"
       stroke-linecap="round"
       stroke-linejoin="round"
       id="line64" />
    <line
       x1="74.97495"
       y1="196.25854"
       x2="59.97594"
       y2="196.25854"
       fill="none"
       stroke="#1f1f1f"
       stroke-linecap="round"
       stroke-linejoin="round"
       id="line66" />
    <line
       x1="106.94986"
       y1="196.25854"
       x2="92.00104"
       y2="196.25854"
       fill="none"
       stroke="#1f1f1f"
       stroke-linecap="round"
       stroke-linejoin="round"
       id="line68" />
    <g
       id="g76">
      <line
         x1="19.50003"
         y1="250.87459"
         x2="19.50003"
         y2="260.07654"
         fill="none"
         stroke="#1f1f1f"
         stroke-linecap="round"
         stroke-linejoin="round"
         stroke-width="0.8"
         id="line70" />
      <line
         x1="19.50003"
         y1="226.54018"
         x2="19.50003"
         y2="238.01957"
         fill="none"
         stroke="#1f1f1f"
         stroke-linecap="round"
         stroke-linejoin="round"
         id="line72" />
      <path
         d="M11.34657,246.15346a11.53074,11.53074,0,1,1,16.30693,0"
         fill="none"
         stroke="#1f1f1f"
         stroke-linecap="round"
         stroke-linejoin="round"
         id="path74" />
    </g>
    <g
       id="g84">
      <line
         x1="51.49849"
         y1="250.87459"
         x2="51.49849"
         y2="260.07654"
         fill="none"
         stroke="#1f1f1f"
         stroke-linecap="round"
         stroke-linejoin="round"
         stroke-width="0.8"
         id="line78" />
      <line
         x1="51.49849"
         y1="226.54018"
         x2="51.49849"
         y2="238.01957"
         fill="none"
         stroke="#1f1f1f"
         stroke-linecap="round"
         stroke-linejoin="round"
         id="line80" />
      <path
         d="M43.345,246.15346a11.53075,11.53075,0,1,1,16.30693,0"
         fill="none"
         stroke="#1f1f1f"
         stroke-linecap="round"
         stroke-linejoin="round"
         id="path82" />
    </g>
    <g
       id="g92">
      <line
         x1="83.5"
         y1="250.87459"
         x2="83.5"
         y2="260.07654"
         fill="none"
         stroke="#1f1f1f"
         stroke-linecap="round"
         stroke-linejoin="round"
         stroke-width="0.8"
         id="line86" />
      <line
         x1="83.5"
         y1="226.54018"
         x2="83.5"
         y2="238.01957"
         fill="none"
         stroke="#1f1f1f"
         stroke-linecap="round"
         stroke-linejoin="round"
         id="line88" />
      <path
         d="M75.34654,246.15346a11.53074,11.53074,0,1,1,16.30692,0"
         fill="none"
         stroke="#1f1f1f"
         stroke-linecap="round"
         stroke-linejoin="round"
         id="path90" />
    </g>
    <g
       id="g100">
      <line
         x1="115.5091"
         y1="250.87459"
         x2="115.5091"
         y2="260.07654"
         fill="none"
         stroke="#1f1f1f"
         stroke-linecap="round"
         stroke-linejoin="round"
         stroke-width="0.8"
         id="line94" />
      <line
         x1="115.5091"
         y1="226.54018"
         x2="115.5091"
         y2="238.01957"
         fill="none"
         stroke="#1f1f1f"
         stroke-linecap="round"
         stroke-linejoin="round"
         id="line96" />
      <path
         d="M107.35564,246.15346a11.53074,11.53074,0,1,1,16.30692,0"
         fill="none"
         stroke="#1f1f1f"
         stroke-linecap="round"
         stroke-linejoin="round"
         id="path98" />
    </g>
  </g>
  <g
     id="b1357945-cdcd-449c-ad17-fe9ff6fef06b"
     data-name="FND TXT">
    <g
       id="g111">
      <path
         d="M49.83105,27.04785l3.05274-6.894a1.19059,1.19059,0,0,1,1.126-.76319h.11328a1.174,1.174,0,0,1,1.11328.76319l3.05273,6.894a.94139.94139,0,0,1,.10059.3877.91359.91359,0,0,1-.91406.92627.98212.98212,0,0,1-.92579-.66358l-.58789-1.376H52.1084l-.61328,1.439a.94692.94692,0,0,1-.88867.60059.88635.88635,0,0,1-.8877-.90088A1.02332,1.02332,0,0,1,49.83105,27.04785Zm5.418-2.42724-1.21386-2.89014-1.21387,2.89014Z"
         fill="#1f1f1f"
         id="path103" />
      <path
         d="M59.81055,20.49121a.95607.95607,0,0,1,.96386-.96289h2.45215a4.36506,4.36506,0,0,1,4.6543,4.354v.02491a4.38462,4.38462,0,0,1-4.6543,4.37939H60.77441a.95618.95618,0,0,1-.96386-.96338Zm3.416,6.05615a2.49548,2.49548,0,0,0,2.63965-2.61474v-.02539a2.51515,2.51515,0,0,0-2.63965-2.63965H61.7373v5.27978Z"
         fill="#1f1f1f"
         id="path105" />
      <path
         d="M69.418,27.36084a.9.9,0,0,1-.36328-.72607.88687.88687,0,0,1,.90136-.88819.92233.92233,0,0,1,.54981.1753,3.69668,3.69668,0,0,0,2.24023.78808c.78809,0,1.26368-.3125,1.26368-.82568v-.0249c0-.48829-.30079-.73829-1.76465-1.11377-1.76367-.45069-2.90235-.93848-2.90235-2.67725V22.043c0-1.58887,1.27637-2.64014,3.06543-2.64014a5.083,5.083,0,0,1,2.77735.77588.87743.87743,0,0,1,.42578.76318.88657.88657,0,0,1-.90137.88819.91783.91783,0,0,1-.4873-.1377,3.65106,3.65106,0,0,0-1.83985-.58789c-.73828,0-1.126.33789-1.126.76367v.02442c0,.57617.375.76367,1.88964,1.15137,1.77637.46289,2.77735,1.10107,2.77735,2.62793v.02441c0,1.73926-1.32617,2.71533-3.21582,2.71533A5.65207,5.65207,0,0,1,69.418,27.36084Z"
         fill="#1f1f1f"
         id="path107" />
      <path
         d="M77.73242,20.49121a.95607.95607,0,0,1,.96387-.96289h3.04a3.49183,3.49183,0,0,1,2.55273.88818,2.75207,2.75207,0,0,1,.751,2.002v.0249a2.67322,2.67322,0,0,1-1.752,2.665l1.33886,1.627a1.12207,1.12207,0,0,1,.3125.73828.89624.89624,0,0,1-.91308.88819,1.15375,1.15375,0,0,1-.95117-.50049l-1.877-2.37744H79.65918v1.91455a.96338.96338,0,1,1-1.92676,0Zm3.87891,3.291c.93847,0,1.47656-.50049,1.47656-1.23877v-.02491c0-.82617-.57617-1.251-1.51465-1.251H79.65918v2.51465Z"
         fill="#1f1f1f"
         id="path109" />
    </g>
    <g
       id="g121">
      <path
         d="M42.2124,316.55176v-.01367a2.41578,2.41578,0,0,1,2.44531-2.45215,2.5749,2.5749,0,0,1,1.61963.48047.42514.42514,0,0,1,.16944.33886.41532.41532,0,0,1-.41358.41358.4354.4354,0,0,1-.25732-.09522,1.80109,1.80109,0,0,0-1.15186-.37207,1.60342,1.60342,0,0,0-1.53759,1.67285v.01368a1.58393,1.58393,0,0,0,1.6123,1.69384,1.93623,1.93623,0,0,0,1.145-.35888v-.8877h-.93506a.36451.36451,0,0,1-.37256-.35937.36973.36973,0,0,1,.37256-.36524H46.23a.41351.41351,0,0,1,.41992.41992v1.26661a.57461.57461,0,0,1-.2915.52832,3.01583,3.01583,0,0,1-1.687.51513A2.35324,2.35324,0,0,1,42.2124,316.55176Z"
         fill="#1f1f1f"
         id="path113" />
      <path
         d="M47.60547,318.36719l1.76123-3.9292a.52869.52869,0,0,1,.50146-.33887h.04053a.51974.51974,0,0,1,.49463.33887l1.76172,3.9292a.36673.36673,0,0,1,.04736.17627.3907.3907,0,0,1-.39306.3999.43.43,0,0,1-.40674-.2915l-.38574-.88721H48.72314l-.39941.91455a.40114.40114,0,0,1-.38623.26416.38185.38185,0,0,1-.38623-.38623A.42391.42391,0,0,1,47.60547,318.36719Zm3.103-1.34131-.8335-1.91748-.8335,1.91748Z"
         fill="#1f1f1f"
         id="path115" />
      <path
         d="M53.87549,314.93945H52.72412a.38623.38623,0,0,1,0-.77246H55.874a.38629.38629,0,0,1,0,.77246h-1.1582v3.59082a.42023.42023,0,0,1-.84033,0Z"
         fill="#1f1f1f"
         id="path117" />
      <path
         d="M57.25439,318.48926v-3.90235a.41322.41322,0,0,1,.41993-.41992h2.75732a.376.376,0,0,1,.37256.37256.37155.37155,0,0,1-.37256.37256H58.0874v1.2334H60.127a.377.377,0,0,1,.37256.3789.37022.37022,0,0,1-.37256.36621H58.0874v1.27344h2.37793a.37619.37619,0,0,1,.373.373.37124.37124,0,0,1-.373.37207h-2.791A.41322.41322,0,0,1,57.25439,318.48926Z"
         fill="#1f1f1f"
         id="path119" />
    </g>
    <g
       id="g131">
      <path
         d="M10.22363,314.58691a.41321.41321,0,0,1,.41992-.41992h1.44971a1.59182,1.59182,0,0,1,1.80225,1.58545v.01318c0,1.064-.85352,1.61915-1.897,1.61915h-.9419v1.1455a.41652.41652,0,0,1-.833,0Zm1.80225,2.0459c.62988,0,1.02295-.35205,1.02295-.84668v-.01367c0-.55566-.3999-.84668-1.02295-.84668h-.96924v1.707Z"
         fill="#1f1f1f"
         id="path123" />
      <path
         d="M14.85986,316.89746v-2.35107a.41676.41676,0,0,1,.8335,0v2.31689c0,.88086.45361,1.34863,1.19922,1.34863.73828,0,1.19238-.44043,1.19238-1.31445v-2.35107a.41652.41652,0,0,1,.833,0v2.31006a1.89375,1.89375,0,0,1-2.03906,2.12744A1.86964,1.86964,0,0,1,14.85986,316.89746Z"
         fill="#1f1f1f"
         id="path125" />
      <path
         d="M20.15674,318.38086a.38853.38853,0,0,1,.23047-.70459.38314.38314,0,0,1,.24365.07471,2.05754,2.05754,0,0,0,1.32812.48779c.51465,0,.83985-.24365.83985-.59619v-.01367c0-.33887-.18945-.52149-1.07031-.72461-1.00928-.24414-1.57862-.542-1.57862-1.416v-.01367a1.45075,1.45075,0,0,1,1.61914-1.37549,2.6079,2.6079,0,0,1,1.50391.44043.37569.37569,0,0,1,.1831.332.38764.38764,0,0,1-.39306.38623.4051.4051,0,0,1-.2168-.061,1.97335,1.97335,0,0,0-1.09082-.35889c-.4873,0-.772.25049-.772.562v.01367c0,.36573.2168.52832,1.13135.74512,1.00244.24414,1.51757.603,1.51757,1.38916v.01367c0,.88721-.69775,1.41553-1.69384,1.41553A2.95134,2.95134,0,0,1,20.15674,318.38086Z"
         fill="#1f1f1f"
         id="path127" />
      <path
         d="M24.84277,314.54639a.41652.41652,0,0,1,.833,0v1.59228H27.939v-1.59228a.41652.41652,0,0,1,.833,0v3.98388a.41652.41652,0,0,1-.833,0v-1.61914H25.67578v1.61914a.41652.41652,0,0,1-.833,0Z"
         fill="#1f1f1f"
         id="path129" />
    </g>
    <g
       id="g141">
      <path
         d="M74.42139,314.58691a.41321.41321,0,0,1,.41992-.41992h1.69385a1.91259,1.91259,0,0,1,1.36865.47412,1.434,1.434,0,0,1,.39258,1.02295v.01367a1.40346,1.40346,0,0,1-1.07715,1.416l.90771,1.145a.48264.48264,0,0,1,.13575.31836.39319.39319,0,0,1-.39991.38623.47557.47557,0,0,1-.40625-.2168l-1.15185-1.47021h-1.0503v1.27392a.41651.41651,0,0,1-.833,0Zm2.05273,1.93067c.59619,0,.97559-.31153.97559-.79248v-.01319c0-.5083-.36573-.78613-.98242-.78613h-1.2129v1.5918Z"
         fill="#1f1f1f"
         id="path133" />
      <path
         d="M79.5542,318.48926v-3.90235a.41321.41321,0,0,1,.41992-.41992h2.75733a.376.376,0,0,1,.37255.37256.37155.37155,0,0,1-.37255.37256H80.38721v1.2334h2.03955a.377.377,0,0,1,.37256.3789.37023.37023,0,0,1-.37256.36621H80.38721v1.27344h2.37793a.37618.37618,0,0,1,.373.373.37123.37123,0,0,1-.373.37207h-2.791A.41321.41321,0,0,1,79.5542,318.48926Z"
         fill="#1f1f1f"
         id="path135" />
      <path
         d="M85.51758,314.93945H84.36572a.38623.38623,0,0,1,0-.77246h3.15039a.38629.38629,0,0,1,0,.77246h-1.1582v3.59082a.42023.42023,0,0,1-.84033,0Z"
         fill="#1f1f1f"
         id="path137" />
      <path
         d="M88.89648,314.58691a.41322.41322,0,0,1,.41993-.41992h1.69384a1.9105,1.9105,0,0,1,1.36817.47412,1.4323,1.4323,0,0,1,.39306,1.02295v.01367a1.40346,1.40346,0,0,1-1.07714,1.416l.90771,1.145a.48268.48268,0,0,1,.13574.31836.39289.39289,0,0,1-.3999.38623.47557.47557,0,0,1-.40625-.2168l-1.15185-1.47021h-1.0503v1.27392a.41652.41652,0,0,1-.833,0Zm2.05274,1.93067c.59619,0,.97558-.31153.97558-.79248v-.01319c0-.5083-.36572-.78613-.98242-.78613H89.72949v1.5918Z"
         fill="#1f1f1f"
         id="path139" />
    </g>
    <g
       id="g149">
      <path
         d="M108.48926,318.3877v-3.69922a.5179.5179,0,0,1,.52246-.52149h2.62793a.46846.46846,0,0,1,.46777.46778.46286.46286,0,0,1-.46777.46044h-2.11328v.96192H111.335a.46835.46835,0,0,1,.46777.46728.46265.46265,0,0,1-.46777.46094h-1.80859v.9961h2.14746a.46835.46835,0,0,1,.46777.46728.46256.46256,0,0,1-.46777.46045h-2.66211A.51759.51759,0,0,1,108.48926,318.3877Z"
         fill="#f0f0f0"
         id="path143" />
      <path
         d="M113.26172,314.66162a.518.518,0,0,1,.52246-.522h.1084a.64737.64737,0,0,1,.542.30517l2.01172,2.64209v-2.4458a.51514.51514,0,0,1,1.03027,0V318.415a.5179.5179,0,0,1-.52246.52148h-.0332a.64547.64547,0,0,1-.542-.30468l-2.08692-2.73731v2.54053a.51514.51514,0,1,1-1.03027,0Z"
         fill="#f0f0f0"
         id="path145" />
      <path
         d="M120.01074,318.5708l-1.53808-3.6792a.64.64,0,0,1-.06055-.25049.51106.51106,0,0,1,.52148-.51465.54258.54258,0,0,1,.52832.36573l1.18555,3.06933,1.19922-3.10351a.54084.54084,0,0,1,.501-.33155.50272.50272,0,0,1,.51464.50147.601.601,0,0,1-.05371.23l-1.55175,3.71289a.61191.61191,0,0,1-.58887.41309h-.06836A.61191.61191,0,0,1,120.01074,318.5708Z"
         fill="#f0f0f0"
         id="path147" />
    </g>
    <g
       id="g157">
      <path
         d="M12.86816,270.42285l1.76075-3.92969a.52977.52977,0,0,1,.502-.33886h.04a.52038.52038,0,0,1,.49512.33886l1.76123,3.92969a.36225.36225,0,0,1,.04736.17578.3903.3903,0,0,1-.39258.39991.42955.42955,0,0,1-.40674-.29151l-.38623-.88769H13.98535l-.39941.915a.40092.40092,0,0,1-.38623.26416.38186.38186,0,0,1-.38623-.38624A.42142.42142,0,0,1,12.86816,270.42285Zm3.10254-1.3418-.833-1.917-.834,1.917Z"
         fill="#1f1f1f"
         id="path151" />
      <path
         d="M19.13867,266.99463H17.98633a.38623.38623,0,0,1,0-.77246h3.15039a.38628.38628,0,0,1,0,.77246h-1.1582V270.585a.42.42,0,0,1-.83985,0Z"
         fill="#1f1f1f"
         id="path153" />
      <path
         d="M23.85254,266.99463H22.70068a.38623.38623,0,1,1,0-.77246h3.15039a.38629.38629,0,0,1,0,.77246H24.69238V270.585a.42.42,0,0,1-.83984,0Z"
         fill="#1f1f1f"
         id="path155" />
    </g>
    <g
       id="g165">
      <path
         d="M44.55176,266.64209a.41351.41351,0,0,1,.41992-.41992h1.34814a2.36345,2.36345,0,0,1,2.52,2.35791v.01318a2.37426,2.37426,0,0,1-2.52,2.37158H44.97168a.41362.41362,0,0,1-.41992-.42041Zm1.76806,3.564a1.54575,1.54575,0,0,0,1.646-1.59912v-.01367a1.556,1.556,0,0,0-1.646-1.6123h-.935v3.22509Z"
         fill="#1f1f1f"
         id="path159" />
      <path
         d="M50.044,270.54443v-3.90234a.4135.4135,0,0,1,.41992-.41992H53.2207a.37608.37608,0,0,1,.373.37256.37165.37165,0,0,1-.373.37256H50.877v1.23291H52.916a.37828.37828,0,0,1,.373.37988.37056.37056,0,0,1-.373.36572H50.877v1.27344h2.37793a.376.376,0,0,1,.37256.37256.372.372,0,0,1-.37256.373h-2.791A.41361.41361,0,0,1,50.044,270.54443Z"
         fill="#1f1f1f"
         id="path161" />
      <path
         d="M54.4541,268.60693v-.01367a2.40018,2.40018,0,0,1,2.4458-2.45264,2.48743,2.48743,0,0,1,1.626.53516.41674.41674,0,0,1,.1626.332.4166.4166,0,0,1-.66407.3252,1.72317,1.72317,0,0,0-1.13134-.42676,1.59626,1.59626,0,0,0-1.565,1.67383v.01318a1.59787,1.59787,0,0,0,1.565,1.68018,1.70007,1.70007,0,0,0,1.186-.4541.379.379,0,0,1,.25-.09473.397.397,0,0,1,.39356.38623.402.402,0,0,1-.13575.29834,2.42435,2.42435,0,0,1-1.7207.63672A2.38516,2.38516,0,0,1,54.4541,268.60693Z"
         fill="#1f1f1f"
         id="path163" />
    </g>
    <g
       id="g173">
      <path
         d="M76.874,270.436a.38831.38831,0,0,1,.23047-.70459.38453.38453,0,0,1,.24317.0747,2.05941,2.05941,0,0,0,1.32812.4878c.51465,0,.83984-.24415.83984-.5962v-.01367c0-.33838-.18945-.52148-1.07031-.7251-1.00927-.24365-1.57812-.542-1.57812-1.416v-.01318a1.45048,1.45048,0,0,1,1.61914-1.37549,2.6126,2.6126,0,0,1,1.5039.44043.37635.37635,0,0,1,.18262.332.38724.38724,0,0,1-.39258.38623.40379.40379,0,0,1-.21679-.061,1.97274,1.97274,0,0,0-1.09082-.35937c-.4878,0-.77246.251-.77246.5625v.01367c0,.36572.21679.52832,1.13183.74512,1.00244.24414,1.51758.603,1.51758,1.38867v.01367c0,.8877-.69824,1.416-1.69434,1.416A2.95,2.95,0,0,1,76.874,270.436Z"
         fill="#1f1f1f"
         id="path167" />
      <path
         d="M81.46484,268.95215v-2.35059a.417.417,0,0,1,.834,0v2.3169c0,.88086.45361,1.34814,1.19873,1.34814.73877,0,1.19238-.44043,1.19238-1.31445v-2.35059a.41677.41677,0,0,1,.8335,0v2.31055a1.89381,1.89381,0,0,1-2.03906,2.127A1.86991,1.86991,0,0,1,81.46484,268.95215Z"
         fill="#1f1f1f"
         id="path169" />
      <path
         d="M86.76172,270.436a.39441.39441,0,0,1,.47461-.62989,2.0549,2.0549,0,0,0,1.32715.4878c.51562,0,.84082-.24415.84082-.5962v-.01367c0-.33838-.19043-.52148-1.0708-.7251-1.00928-.24365-1.57862-.542-1.57862-1.416v-.01318A1.45075,1.45075,0,0,1,88.374,266.1543a2.61043,2.61043,0,0,1,1.50391.44043.37668.37668,0,0,1,.18311.332.38766.38766,0,0,1-.39307.38623.405.405,0,0,1-.2168-.061,1.97027,1.97027,0,0,0-1.09082-.35937c-.4873,0-.77246.251-.77246.5625v.01367c0,.36572.2168.52832,1.13184.74512,1.00293.24414,1.51757.603,1.51757,1.38867v.01367c0,.8877-.69824,1.416-1.69384,1.416A2.9514,2.9514,0,0,1,86.76172,270.436Z"
         fill="#1f1f1f"
         id="path171" />
    </g>
    <g
       id="g181">
      <path
         d="M109.09082,266.64209a.4138.4138,0,0,1,.41992-.41992h1.69385a1.91176,1.91176,0,0,1,1.36865.47412,1.43342,1.43342,0,0,1,.39307,1.02344v.01318a1.40375,1.40375,0,0,1-1.07764,1.416l.90821,1.145a.48406.48406,0,0,1,.13574.31835.3932.3932,0,0,1-.39991.38624.47691.47691,0,0,1-.40673-.2168l-1.15137-1.47022h-1.05029V270.585a.41676.41676,0,0,1-.8335,0Zm2.05273,1.93115c.59668,0,.97559-.31152.97559-.793v-.01367c0-.50781-.36572-.78564-.98242-.78564h-1.2124v1.59228Z"
         fill="#1f1f1f"
         id="path175" />
      <path
         d="M114.22363,270.54443v-3.90234a.41351.41351,0,0,1,.41992-.41992h2.75733a.37566.37566,0,0,1,.37256.37256.37125.37125,0,0,1-.37256.37256h-2.34424v1.23291h2.03955a.37787.37787,0,0,1,.37256.37988.37013.37013,0,0,1-.37256.36572h-2.03955v1.27344h2.37793a.37609.37609,0,0,1,.37305.37256.37207.37207,0,0,1-.37305.373h-2.791A.41362.41362,0,0,1,114.22363,270.54443Z"
         fill="#1f1f1f"
         id="path177" />
      <path
         d="M118.94922,266.60156a.41652.41652,0,0,1,.833,0v3.60449h2.14795a.3794.3794,0,0,1,0,.75879h-2.561a.41362.41362,0,0,1-.41992-.42041Z"
         fill="#1f1f1f"
         id="path179" />
    </g>
    <g
       id="g189">
      <path
         d="M11.41211,114.94141l2.16992-4.84082a.65134.65134,0,0,1,.61768-.41748H14.25a.63986.63986,0,0,1,.60889.41748l2.17041,4.84082a.44941.44941,0,0,1,.0581.21679.48118.48118,0,0,1-.48388.49268.5293.5293,0,0,1-.501-.35889l-.47559-1.09375H12.78906l-.49218,1.127a.49363.49363,0,0,1-.47608.32568.47014.47014,0,0,1-.47559-.47608A.523.523,0,0,1,11.41211,114.94141Zm3.82275-1.65235-1.02685-2.3623-1.02637,2.3623Z"
         fill="#1f1f1f"
         id="path183" />
      <path
         d="M19.04346,110.71777H17.62451a.47559.47559,0,1,1,0-.95117h3.88086a.47566.47566,0,0,1,0,.95117H20.07812v4.42383a.51739.51739,0,0,1-1.03466,0Z"
         fill="#1f1f1f"
         id="path185" />
      <path
         d="M24.78418,110.71777H23.36523a.47559.47559,0,1,1,0-.95117h3.88086a.47566.47566,0,0,1,0,.95117H25.81885v4.42383a.5174.5174,0,0,1-1.03467,0Z"
         fill="#1f1f1f"
         id="path187" />
    </g>
    <g
       id="g197">
      <path
         d="M43.0166,110.28418a.50992.50992,0,0,1,.51758-.51758h1.66113a2.91214,2.91214,0,0,1,3.10547,2.9043v.0166a2.92539,2.92539,0,0,1-3.10547,2.92188H43.53418a.50992.50992,0,0,1-.51758-.51758Zm2.17871,4.39014a1.90419,1.90419,0,0,0,2.02832-1.96973v-.01709a1.91708,1.91708,0,0,0-2.02832-1.98633H44.044v3.97315Z"
         fill="#1f1f1f"
         id="path191" />
      <path
         d="M49.71,115.0918v-4.80762a.50992.50992,0,0,1,.51758-.51758H53.625a.46321.46321,0,0,1,.459.459.45781.45781,0,0,1-.459.459H50.7373v1.519H53.249a.46436.46436,0,0,1,.459.46729.45557.45557,0,0,1-.459.45117H50.7373v1.56885H53.667a.46331.46331,0,0,1,.459.45947.45814.45814,0,0,1-.459.459H50.22754A.50992.50992,0,0,1,49.71,115.0918Z"
         fill="#1f1f1f"
         id="path193" />
      <path
         d="M55.06738,112.70459v-.01709a2.95658,2.95658,0,0,1,3.0127-3.021,3.06648,3.06648,0,0,1,2.0039.65918.513.513,0,0,1,.2002.40918.51381.51381,0,0,1-.81836.40039,2.11614,2.11614,0,0,0-1.39355-.52587,1.96588,1.96588,0,0,0-1.92774,2.06152v.0166a1.96874,1.96874,0,0,0,1.92774,2.07031,2.09369,2.09369,0,0,0,1.46093-.55957.46859.46859,0,0,1,.3086-.11621.48832.48832,0,0,1,.48437.47559.49382.49382,0,0,1-.167.36718,2.9856,2.9856,0,0,1-2.12012.78418A2.93838,2.93838,0,0,1,55.06738,112.70459Z"
         fill="#1f1f1f"
         id="path195" />
    </g>
    <g
       id="g205">
      <path
         d="M75.41211,114.958a.4788.4788,0,0,1,.28369-.86817.47578.47578,0,0,1,.30029.0918,2.53329,2.53329,0,0,0,1.63623.60107c.63428,0,1.03467-.30029,1.03467-.73437v-.0166c0-.41748-.2334-.64307-1.31836-.89307-1.24365-.30078-1.94482-.668-1.94482-1.74463v-.0166a1.78689,1.78689,0,0,1,1.99463-1.69433,3.215,3.215,0,0,1,1.853.54248.46427.46427,0,0,1,.2251.40918.47736.47736,0,0,1-.48388.47558.49922.49922,0,0,1-.26709-.07519,2.43106,2.43106,0,0,0-1.34375-.44239c-.60108,0-.95166.3086-.95166.69287v.01661c0,.45068.26709.65087,1.394.91845,1.23535.3003,1.86963.74268,1.86963,1.71094v.0166c0,1.09326-.85987,1.74414-2.08692,1.74414A3.6352,3.6352,0,0,1,75.41211,114.958Z"
         fill="#1f1f1f"
         id="path199" />
      <path
         d="M80.99609,113.12988v-2.896a.51345.51345,0,0,1,1.02686,0v2.85449c0,1.08545.55908,1.66113,1.47754,1.66113.90967,0,1.46875-.54248,1.46875-1.61963v-2.896a.51344.51344,0,0,1,1.02685,0v2.84619a2.33375,2.33375,0,0,1-2.51269,2.62109A2.3037,2.3037,0,0,1,80.99609,113.12988Z"
         fill="#1f1f1f"
         id="path201" />
      <path
         d="M87.44873,114.958a.47857.47857,0,0,1,.28369-.86817.47578.47578,0,0,1,.30029.0918,2.5333,2.5333,0,0,0,1.63624.60107c.63427,0,1.03466-.30029,1.03466-.73437v-.0166c0-.41748-.2334-.64307-1.31884-.89307-1.24317-.30078-1.94434-.668-1.94434-1.74463v-.0166a1.78689,1.78689,0,0,1,1.99463-1.69433,3.215,3.215,0,0,1,1.853.54248.46426.46426,0,0,1,.22509.40918.47736.47736,0,0,1-.48388.47558.49922.49922,0,0,1-.26709-.07519,2.43106,2.43106,0,0,0-1.34375-.44239c-.60108,0-.95166.3086-.95166.69287v.01661c0,.45068.26709.65087,1.394.91845,1.23535.3003,1.86963.74268,1.86963,1.71094v.0166c0,1.09326-.85986,1.74414-2.08692,1.74414A3.63417,3.63417,0,0,1,87.44873,114.958Z"
         fill="#1f1f1f"
         id="path203" />
    </g>
    <g
       id="g213">
      <path
         d="M107.63232,110.28418a.50992.50992,0,0,1,.51758-.51758h2.08692a2.355,2.355,0,0,1,1.686.584,1.768,1.768,0,0,1,.48389,1.26074v.0166a1.729,1.729,0,0,1-1.32715,1.74414l1.11865,1.41064a.59659.59659,0,0,1,.167.39209.4843.4843,0,0,1-.49267.47608.587.587,0,0,1-.501-.26709l-1.41846-1.81152h-1.29394v1.56933a.51345.51345,0,0,1-1.02686,0Zm2.5293,2.37891c.73438,0,1.20166-.38428,1.20166-.97657v-.01709c0-.626-.45068-.96826-1.21-.96826h-1.49414v1.96192Z"
         fill="#1f1f1f"
         id="path207" />
      <path
         d="M113.88428,115.0918v-4.80762a.50991.50991,0,0,1,.51758-.51758h3.397a.46331.46331,0,0,1,.45947.459.45791.45791,0,0,1-.45947.459h-2.8877v1.519h2.51221a.46467.46467,0,0,1,.459.46729.45588.45588,0,0,1-.459.45117h-2.51221v1.56885h2.92969a.463.463,0,0,1,.459.45947.45782.45782,0,0,1-.459.459h-3.439A.50991.50991,0,0,1,113.88428,115.0918Z"
         fill="#1f1f1f"
         id="path209" />
      <path
         d="M119.63379,110.23389a.51344.51344,0,0,1,1.02685,0v4.44043h2.646a.46753.46753,0,0,1,0,.93506h-3.15527a.50992.50992,0,0,1-.51758-.51758Z"
         fill="#1f1f1f"
         id="path211" />
    </g>
  </g>
  <g
     id="a880682b-bf4b-4195-9628-f8dfcc5b9c54"
     data-name="components"
     style="display:none"
     inkscape:groupmode="layer">
    <rect
       id="ab5ee119-db88-4c0a-b544-98ddc49f703d"
       data-name="Screen"
       y="38.5"
       width="135"
       height="62.654339"
       x="0"
       style="fill:#ffff00" />
    <circle
       id="a34a1070-e33c-4a7d-8dd8-80f7c67238fa"
       data-name="Gate#PJ301MPort"
       cx="51.500031"
       cy="334"
       r="5"
       style="fill:#00ff00" />
    <circle
       id="e83a2553-394f-46c4-9dd4-69738d244869"
       data-name="Push#LEDLightBezel"
       cx="19.500031"
       cy="334"
       r="5"
       style="fill:#ff0000" />
    <circle
       id="bd9d2beb-2c1f-450c-8925-25eba9ed4dd8"
       data-name="Retr#PJ301MPort"
       cx="83.5"
       cy="334"
       r="5"
       style="fill:#00ff00" />
    <circle
       id="b0fa041b-766d-483b-b0b4-46f0a3f397ff"
       data-name="Env#PJ301MPort"
       cx="115.5091"
       cy="334"
       r="5"
       style="fill:#0000ff" />
    <circle
       id="fd381afe-4898-4e53-9d2a-61ff80d03859"
       data-name="AttCv#Trimpot"
       cx="19.500031"
       cy="238"
       r="5"
       style="fill:#ff0000" />
    <circle
       id="a59e13db-6d78-4194-9b2c-dad609d67b41"
       data-name="Att#PJ301MPort"
       cx="19.500031"
       cy="286.06897"
       r="5"
       style="fill:#00ff00" />
    <circle
       id="b48371bf-e56b-460e-b438-9049a8146ac4"
       data-name="DecCv#Trimpot"
       cx="51.500031"
       cy="238.08218"
       r="5"
       style="fill:#ff0000" />
    <circle
       id="b9290d31-0c66-4f70-bbfd-31c2f29746b6"
       data-name="Dec#PJ301MPort"
       cx="51.500031"
       cy="286"
       r="5"
       style="fill:#00ff00" />
    <circle
       id="aa240608-90f6-41f4-ac39-937ee32e1f97"
       data-name="SusCv#Trimpot"
       cx="83.5"
       cy="238"
       r="5"
       style="fill:#ff0000" />
    <circle
       id="be6d7bb0-e9e0-4688-9197-8579c00475b6"
       data-name="Sus#PJ301MPort"
       cx="83.5"
       cy="286.08084"
       r="5"
       style="fill:#00ff00" />
    <circle
       id="a33e1a5d-e8e8-4217-b080-7016d4bc587c"
       data-name="RelCv#Trimpot"
       cx="115.5091"
       cy="238"
       r="5"
       style="fill:#ff0000" />
    <circle
       id="a531fdcc-d68c-48e2-86f9-4653d46e4ffd"
       data-name="Rel#PJ301MPort"
       cx="115.5091"
       cy="286.09271"
       r="5"
       style="fill:#00ff00" />
    <circle
       id="b5946785-bde9-4a5c-ac97-d646335e921a"
       data-name="Att#LEDSlider"
       cx="19.500031"
       cy="163.74339"
       r="5"
       style="fill:#ff0000" />
    <circle
       id="b18e375d-9120-4c5a-a462-a8053e84cfc7"
       data-name="Dec#LEDSlider"
       cx="51.500031"
       cy="163.74339"
       r="5"
       style="fill:#ff0000" />
    <circle
       id="ab6655bd-993d-477d-a340-d9bc0aaa3841"
       data-name="Sus#LEDSlider"
       cx="83.500031"
       cy="163.74339"
       r="5"
       style="fill:#ff0000" />
    <circle
       id="b9b88a15-28d1-4553-a102-cc073da811f2"
       data-name="Rel#LEDSlider"
       cx="115.50003"
       cy="163.74339"
       r="5"
       style="fill:#ff0000" />
  </g>
</svg>
