<?xml version="1.0" encoding="UTF-8" standalone="no"?>
<!-- Created with Inkscape (http://www.inkscape.org/) -->

<svg
   xmlns:dc="http://purl.org/dc/elements/1.1/"
   xmlns:cc="http://creativecommons.org/ns#"
   xmlns:rdf="http://www.w3.org/1999/02/22-rdf-syntax-ns#"
   xmlns:svg="http://www.w3.org/2000/svg"
   xmlns="http://www.w3.org/2000/svg"
   xmlns:sodipodi="http://sodipodi.sourceforge.net/DTD/sodipodi-0.dtd"
   xmlns:inkscape="http://www.inkscape.org/namespaces/inkscape"
   width="31.797726mm"
   height="100.54166mm"
   viewBox="0 0 31.797726 100.54167"
   version="1.1"
   id="svg4541"
   sodipodi:docname="ADSR.svg"
   inkscape:version="0.92.2 5c3e80d, 2017-08-06">
  <defs
     id="defs4535" />
  <sodipodi:namedview
     id="base"
     pagecolor="#ffffff"
     bordercolor="#666666"
     borderopacity="1.0"
     inkscape:pageopacity="0.0"
     inkscape:pageshadow="2"
     inkscape:zoom="5.6"
     inkscape:cx="113.19786"
     inkscape:cy="145.73278"
     inkscape:document-units="mm"
     inkscape:current-layer="g13271"
     showgrid="false"
     fit-margin-top="0"
     fit-margin-left="0"
     fit-margin-right="0"
     fit-margin-bottom="0"
     inkscape:window-width="1600"
     inkscape:window-height="882"
     inkscape:window-x="0"
     inkscape:window-y="18"
     inkscape:window-maximized="0" />
  <metadata
     id="metadata4538">
    <rdf:RDF>
      <cc:Work
         rdf:about="">
        <dc:format>image/svg+xml</dc:format>
        <dc:type
           rdf:resource="http://purl.org/dc/dcmitype/StillImage" />
        <dc:title></dc:title>
      </cc:Work>
    </rdf:RDF>
  </metadata>
  <g
     inkscape:label="Layer 1"
     inkscape:groupmode="layer"
     id="layer1"
     transform="translate(19.015702,-100.67392)">
    <g
       transform="matrix(0.27602379,0,0,0.27602379,354.09618,57.736346)"
       id="g13122"
       style="stroke-width:0.9585526">
      <g
         transform="translate(-167.07644,-20.557569)"
         id="g13178"
         style="stroke-width:0.91882312">
        <g
           transform="translate(-99.2314,6.0949065)"
           id="g13224"
           style="stroke-width:0.88074034">
          <g
             transform="translate(-315.65411,137.78158)"
             id="g13271"
             style="stroke-width:0.84423596">
            <g
               transform="translate(-236.97535,32.238585)"
               id="g13319"
               style="stroke-width:0.80924457">
              <path
                 style="fill:#e6e6e6;fill-opacity:1;fill-rule:nonzero;stroke:none;stroke-width:0.80924457"
                 d="m -532.5352,0.265625 h 114.67187 V 363.98828 H -532.5352 Z m 0,0"
                 id="path25065"
                 inkscape:connector-curvature="0" />
              <path
                 style="fill:#000000;fill-opacity:1;fill-rule:nonzero;stroke:none;stroke-width:0.80924457"
                 d="m -483.00395,352.50781 c -0.33203,0 -0.63281,-0.1875 -0.78125,-0.48437 l -2.83984,-5.6836 c -0.21875,-0.42968 -0.043,-0.95703 0.39062,-1.17187 0.42969,-0.21484 0.95703,-0.0391 1.17188,0.39062 l 2.05859,4.1211 2.05859,-4.1211 c 0.21485,-0.42968 0.74219,-0.60546 1.17188,-0.39062 0.43359,0.21484 0.60937,0.74219 0.39453,1.17187 l -2.84375,5.6836 c -0.14844,0.29687 -0.44922,0.48437 -0.78125,0.48437"
                 id="path25395"
                 inkscape:connector-curvature="0" />
              <path
                 style="fill:#000000;fill-opacity:1;fill-rule:nonzero;stroke:none;stroke-width:0.80924457"
                 d="m -467.39848,352.50781 c -0.32813,0 -0.63281,-0.1875 -0.78125,-0.48437 l -2.83985,-5.6836 c -0.21484,-0.42968 -0.043,-0.95703 0.39063,-1.17187 0.42969,-0.21484 0.95703,-0.0391 1.17187,0.39062 l 2.0586,4.1211 2.0625,-4.1211 c 0.21484,-0.42968 0.73828,-0.60546 1.17187,-0.39062 0.42969,0.21484 0.60547,0.74219 0.39063,1.17187 l -2.83985,5.6836 c -0.14843,0.29687 -0.45312,0.48437 -0.78515,0.48437"
                 id="path25397"
                 inkscape:connector-curvature="0" />
              <path
                 style="fill:#000000;fill-opacity:1;fill-rule:nonzero;stroke:none;stroke-width:0.80924457"
                 d="m -474.77739,352.50781 c -2.04687,0 -3.71484,-1.66797 -3.71484,-3.71484 0,-2.05078 1.66797,-3.71875 3.71484,-3.71875 0.8125,0 1.58594,0.25781 2.23047,0.74609 0.38672,0.28907 0.46484,0.83594 0.17578,1.22266 -0.28906,0.38672 -0.83984,0.46484 -1.22656,0.17578 -0.33984,-0.25781 -0.75,-0.39453 -1.17969,-0.39453 -1.08203,0 -1.96484,0.88281 -1.96484,1.96875 0,1.08203 0.88281,1.96484 1.96484,1.96484 0.42969,0 0.83985,-0.13672 1.17969,-0.39062 0.38672,-0.29297 0.9375,-0.21485 1.22656,0.17187 0.28906,0.38672 0.21094,0.9336 -0.17578,1.22657 -0.64453,0.48437 -1.41797,0.74218 -2.23047,0.74218"
                 id="path25399"
                 inkscape:connector-curvature="0" />
              <path
                 style="fill:#000000;fill-opacity:1;fill-rule:nonzero;stroke:none;stroke-width:0.80924457"
                 d="m -473.58208,348.74609 c 0,0.62891 -0.50781,1.13672 -1.13671,1.13672 -0.62891,0 -1.13672,-0.50781 -1.13672,-1.13672 0,-0.625 0.50781,-1.13671 1.13672,-1.13671 0.6289,0 1.13671,0.51171 1.13671,1.13671"
                 id="path25401"
                 inkscape:connector-curvature="0" />
              <path
                 inkscape:connector-curvature="0"
                 id="path11618"
                 d="m -519.20848,301.98428 c 0.67188,0 1.21875,-0.23437 1.60938,-0.5 0.1875,-0.10937 0.28125,-0.28125 0.28125,-0.5 v -1.21875 c 0,-0.21875 -0.17188,-0.40625 -0.40625,-0.40625 h -1.26563 c -0.1875,0 -0.35937,0.15625 -0.35937,0.35938 0,0.1875 0.17187,0.34375 0.35937,0.34375 h 0.90625 v 0.84375 c -0.28125,0.21875 -0.67187,0.34375 -1.10937,0.34375 -0.92188,0 -1.54688,-0.6875 -1.54688,-1.625 0,-0.875 0.64063,-1.60938 1.48438,-1.60938 0.48437,0 0.8125,0.14063 1.09375,0.35938 0.0781,0.0469 0.15625,0.0937 0.25,0.0937 0.21875,0 0.40625,-0.1875 0.40625,-0.40625 0,-0.15625 -0.0937,-0.26563 -0.17188,-0.32813 -0.40625,-0.29687 -0.875,-0.45312 -1.54687,-0.45312 -1.375,0 -2.34375,1.07812 -2.34375,2.34375 v 0.0156 c 0,1.32813 0.92187,2.34375 2.35937,2.34375 z m 0,0"
                 style="fill:#000000;fill-opacity:1;stroke:none;stroke-width:0.80924457" />
              <path
                 inkscape:connector-curvature="0"
                 id="path11614"
                 d="m -516.45586,301.56241 c 0,0.21875 0.17188,0.375 0.375,0.375 0.17188,0 0.3125,-0.0937 0.375,-0.25 l 0.375,-0.875 h 2.21875 l 0.375,0.84375 c 0.0625,0.17187 0.1875,0.28125 0.39063,0.28125 0.20312,0 0.375,-0.17188 0.375,-0.375 0,-0.0625 -0.0156,-0.125 -0.0469,-0.17188 l -1.6875,-3.78125 c -0.0937,-0.1875 -0.25,-0.3125 -0.48437,-0.3125 h -0.0312 c -0.23438,0 -0.39063,0.125 -0.48438,0.3125 l -1.6875,3.78125 c -0.0312,0.0625 -0.0625,0.125 -0.0625,0.17188 z m 1.4375,-1.46875 0.79688,-1.82813 0.79687,1.82813 z m 0,0"
                 style="fill:#000000;fill-opacity:1;stroke:none;stroke-width:0.80924457" />
              <path
                 inkscape:connector-curvature="0"
                 id="path11610"
                 d="m -510.37084,301.54678 c 0,0.21875 0.1875,0.39063 0.40625,0.39063 0.21875,0 0.40625,-0.17188 0.40625,-0.39063 v -3.45312 h 1.10938 c 0.20312,0 0.35937,-0.17188 0.35937,-0.35938 0,-0.20312 -0.15625,-0.375 -0.35937,-0.375 h -3.03125 c -0.20313,0 -0.35938,0.17188 -0.35938,0.375 0,0.1875 0.15625,0.35938 0.35938,0.35938 h 1.10937 z m 0,0"
                 style="fill:#000000;fill-opacity:1;stroke:none;stroke-width:0.80924457" />
              <path
                 inkscape:connector-curvature="0"
                 id="path11606"
                 d="m -506.72417,301.90616 h 2.6875 c 0.1875,0 0.35938,-0.15625 0.35938,-0.35938 0,-0.1875 -0.17188,-0.35937 -0.35938,-0.35937 h -2.28125 v -1.21875 h 1.95313 c 0.1875,0 0.35937,-0.15625 0.35937,-0.34375 0,-0.20313 -0.17187,-0.375 -0.35937,-0.375 h -1.95313 v -1.17188 h 2.25 c 0.1875,0 0.34375,-0.15625 0.34375,-0.35937 0,-0.20313 -0.15625,-0.35938 -0.34375,-0.35938 h -2.65625 c -0.21875,0 -0.40625,0.17188 -0.40625,0.40625 v 3.73438 c 0,0.23437 0.1875,0.40625 0.40625,0.40625 z m 0,0"
                 style="fill:#000000;fill-opacity:1;stroke:none;stroke-width:0.80924457" />
              <path
                 inkscape:connector-curvature="0"
                 id="path11602"
                 d="m -481.79491,301.55329 c 0,0.21875 0.1875,0.39062 0.40625,0.39062 0.21875,0 0.40625,-0.17187 0.40625,-0.39062 v -3.45313 h 1.10938 c 0.20312,0 0.35937,-0.17187 0.35937,-0.35937 0,-0.20313 -0.15625,-0.375 -0.35937,-0.375 h -3.03125 c -0.20313,0 -0.35938,0.17187 -0.35938,0.375 0,0.1875 0.15625,0.35937 0.35938,0.35937 h 1.10937 z m 0,0"
                 style="fill:#000000;fill-opacity:1;stroke:none;stroke-width:0.80924457" />
              <path
                 inkscape:connector-curvature="0"
                 id="path11598"
                 d="m -478.55187,301.55329 c 0,0.21875 0.1875,0.39062 0.40625,0.39062 0.21875,0 0.40625,-0.17187 0.40625,-0.39062 v -1.23438 h 1 l 1.10938,1.42188 c 0.0937,0.125 0.20312,0.20312 0.39062,0.20312 0.1875,0 0.375,-0.14062 0.375,-0.375 0,-0.125 -0.0469,-0.20312 -0.125,-0.29687 l -0.875,-1.09375 c 0.60938,-0.20313 1.03125,-0.64063 1.03125,-1.35938 v -0.0156 c 0,-0.40625 -0.125,-0.73438 -0.375,-0.98438 -0.28125,-0.28125 -0.73437,-0.45312 -1.3125,-0.45312 h -1.625 c -0.21875,0 -0.40625,0.17187 -0.40625,0.40625 z m 0.8125,-1.9375 v -1.53125 h 1.15625 c 0.59375,0 0.9375,0.26562 0.9375,0.76562 0,0.46875 -0.35937,0.76563 -0.9375,0.76563 z m 0,0"
                 style="fill:#000000;fill-opacity:1;stroke:none;stroke-width:0.80924457" />
              <path
                 inkscape:connector-curvature="0"
                 id="path11594"
                 d="m -473.59685,301.55329 c 0,0.21875 0.1875,0.39062 0.40625,0.39062 0.21875,0 0.40625,-0.17187 0.40625,-0.39062 v -3.82813 c 0,-0.21875 -0.1875,-0.39062 -0.40625,-0.39062 -0.21875,0 -0.40625,0.17187 -0.40625,0.39062 z m 0,0"
                 style="fill:#000000;fill-opacity:1;stroke:none;stroke-width:0.80924457" />
              <path
                 inkscape:connector-curvature="0"
                 id="path11590"
                 d="m -469.2404,301.99079 c 0.67187,0 1.21875,-0.23438 1.60937,-0.5 0.1875,-0.10938 0.28125,-0.28125 0.28125,-0.5 v -1.21875 c 0,-0.21875 -0.17187,-0.40625 -0.40625,-0.40625 h -1.26562 c -0.1875,0 -0.35938,0.15625 -0.35938,0.35937 0,0.1875 0.17188,0.34375 0.35938,0.34375 h 0.90625 v 0.84375 c -0.28125,0.21875 -0.67188,0.34375 -1.10938,0.34375 -0.92187,0 -1.54687,-0.6875 -1.54687,-1.625 0,-0.875 0.64062,-1.60937 1.48437,-1.60937 0.48438,0 0.8125,0.14062 1.09375,0.35937 0.0781,0.0469 0.15625,0.0937 0.25,0.0937 0.21875,0 0.40625,-0.1875 0.40625,-0.40625 0,-0.15625 -0.0937,-0.26562 -0.17187,-0.32812 -0.40625,-0.29688 -0.875,-0.45313 -1.54688,-0.45313 -1.375,0 -2.34375,1.07813 -2.34375,2.34375 v 0.0156 c 0,1.32812 0.92188,2.34375 2.35938,2.34375 z m 0,0"
                 style="fill:#000000;fill-opacity:1;stroke:none;stroke-width:0.80924457" />
              <path
                 style="fill:#212121;fill-opacity:1;fill-rule:nonzero;stroke:none;stroke-width:0.80924457"
                 d="m -424.01958,295.99219 c 0,-1.5586 -1.27734,-2.83594 -2.83593,-2.83594 h -21.77344 c -1.55859,0 -2.83594,1.27734 -2.83594,2.83594 v 34.5039 c 0,1.5586 1.27735,2.83594 2.83594,2.83594 h 21.77344 c 1.55859,0 2.83593,-1.27734 2.83593,-2.83594 z m 0,0"
                 id="path25467"
                 inkscape:connector-curvature="0" />
              <path
                 inkscape:connector-curvature="0"
                 id="path11586"
                 d="m -442.51762,301.98629 c 1.40625,0 2.4375,-1.0625 2.4375,-2.35937 0,-1.29688 -1.01563,-2.34375 -2.42188,-2.34375 -1.40625,0 -2.42187,1.0625 -2.42187,2.34375 v 0.0156 c 0,1.29688 1.01562,2.34375 2.40625,2.34375 z m 0.0156,-0.92187 c -0.79687,0 -1.375,-0.65625 -1.375,-1.4375 0,-0.78125 0.5625,-1.42188 1.35938,-1.42188 0.8125,0 1.39062,0.64063 1.39062,1.42188 v 0.0156 c 0,0.78125 -0.5625,1.42188 -1.375,1.42188 z m 0,0"
                 style="fill:#e6e6e6;fill-opacity:1;stroke:none;stroke-width:0.80924457" />
              <path
                 inkscape:connector-curvature="0"
                 id="path11582"
                 d="m -437.08476,301.98629 c 1.23437,0 2,-0.6875 2,-2.0625 v -2.10937 c 0,-0.28125 -0.21875,-0.5 -0.5,-0.5 -0.28125,0 -0.5,0.21875 -0.5,0.5 v 2.15625 c 0,0.71875 -0.375,1.09375 -0.98438,1.09375 -0.60937,0 -0.98437,-0.39063 -0.98437,-1.125 v -2.125 c 0,-0.28125 -0.21875,-0.5 -0.5,-0.5 -0.26563,0 -0.5,0.21875 -0.5,0.5 v 2.14062 c 0,1.34375 0.75,2.03125 1.96875,2.03125 z m 0,0"
                 style="fill:#e6e6e6;fill-opacity:1;stroke:none;stroke-width:0.80924457" />
              <path
                 inkscape:connector-curvature="0"
                 id="path11578"
                 d="m -432.81687,301.43942 c 0,0.28125 0.21875,0.5 0.5,0.5 0.28125,0 0.5,-0.21875 0.5,-0.5 v -3.15625 h 0.95312 c 0.26563,0 0.46875,-0.20313 0.46875,-0.46875 0,-0.25 -0.20312,-0.45313 -0.46875,-0.45313 h -2.92187 c -0.25,0 -0.45313,0.20313 -0.45313,0.45313 0,0.26562 0.20313,0.46875 0.45313,0.46875 h 0.96875 z m 0,0"
                 style="fill:#e6e6e6;fill-opacity:1;stroke:none;stroke-width:0.80924457" />
              <path
                 inkscape:connector-curvature="0"
                 id="path11574"
                 d="m -492.25187,26.316895 c 0,0.484375 0.35938,0.875 0.84375,0.875 0.39063,0 0.70313,-0.21875 0.85938,-0.578125 l 0.57812,-1.390625 h 3.70313 l 0.5625,1.328125 c 0.17187,0.375 0.45312,0.640625 0.89062,0.640625 0.48438,0 0.875,-0.40625 0.875,-0.890625 0,-0.125 -0.0312,-0.25 -0.0937,-0.375 l -2.9375,-6.609375 c -0.20312,-0.453125 -0.5625,-0.734375 -1.0625,-0.734375 h -0.10937 c -0.5,0 -0.875,0.28125 -1.07813,0.734375 l -2.92187,6.609375 c -0.0625,0.125 -0.10938,0.265625 -0.10938,0.390625 z m 2.96875,-2.71875 1.17188,-2.765625 1.15625,2.765625 z m 0,0"
                 style="fill:#000000;fill-opacity:1;stroke:none;stroke-width:0.80924457" />
              <path
                 inkscape:connector-curvature="0"
                 id="path11570"
                 d="m -482.57177,26.191895 c 0,0.515625 0.40625,0.921875 0.92188,0.921875 h 2.34375 c 2.64062,0 4.46875,-1.84375 4.46875,-4.203125 v -0.01563 c 0,-2.375 -1.82813,-4.1875 -4.46875,-4.1875 h -2.34375 c -0.51563,0 -0.92188,0.421875 -0.92188,0.9375 z m 1.84375,-0.75 v -5.0625 h 1.42188 c 1.51562,0 2.53125,1.046875 2.53125,2.53125 v 0.03125 c 0,1.484375 -1.01563,2.5 -2.53125,2.5 z m 0,0"
                 style="fill:#000000;fill-opacity:1;stroke:none;stroke-width:0.80924457" />
              <path
                 inkscape:connector-curvature="0"
                 id="path11566"
                 d="m -470.20341,27.23877 c 1.8125,0 3.07812,-0.9375 3.07812,-2.609375 v -0.03125 c 0,-1.453125 -0.95312,-2.0625 -2.65625,-2.515625 -1.45312,-0.375 -1.8125,-0.546875 -1.8125,-1.09375 v -0.03125 c 0,-0.40625 0.35938,-0.734375 1.07813,-0.734375 0.57812,0 1.15625,0.203125 1.76562,0.5625 0.14063,0.09375 0.28125,0.140625 0.46875,0.140625 0.46875,0 0.85938,-0.375 0.85938,-0.859375 0,-0.359375 -0.20313,-0.609375 -0.40625,-0.734375 -0.76563,-0.46875 -1.64063,-0.734375 -2.67188,-0.734375 -1.71875,0 -2.9375,1 -2.9375,2.53125 v 0.01563 c 0,1.671875 1.09375,2.140625 2.78125,2.578125 1.40625,0.359375 1.70313,0.59375 1.70313,1.0625 v 0.03125 c 0,0.484375 -0.46875,0.78125 -1.21875,0.78125 -0.8125,0 -1.51563,-0.28125 -2.14063,-0.75 -0.125,-0.09375 -0.29687,-0.171875 -0.53125,-0.171875 -0.48437,0 -0.875,0.375 -0.875,0.859375 0,0.28125 0.15625,0.546875 0.35938,0.6875 0.9375,0.671875 2.04687,1.015625 3.15625,1.015625 z m 0,0"
                 style="fill:#000000;fill-opacity:1;stroke:none;stroke-width:0.80924457" />
              <path
                 inkscape:connector-curvature="0"
                 id="path11562"
                 d="m -465.38175,26.254395 c 0,0.515625 0.40625,0.9375 0.92187,0.9375 0.51563,0 0.92188,-0.421875 0.92188,-0.9375 V 24.42627 h 1.46875 l 1.79687,2.28125 c 0.21875,0.28125 0.5,0.484375 0.92188,0.484375 0.4375,0 0.875,-0.34375 0.875,-0.859375 0,-0.28125 -0.125,-0.484375 -0.29688,-0.703125 l -1.28125,-1.5625 c 1.01563,-0.421875 1.67188,-1.234375 1.67188,-2.5625 v -0.01563 c 0,-0.796875 -0.25,-1.453125 -0.71875,-1.921875 -0.54688,-0.546875 -1.375,-0.859375 -2.45313,-0.859375 h -2.90625 c -0.51562,0 -0.92187,0.421875 -0.92187,0.9375 z m 1.84375,-3.453125 v -2.421875 h 1.82812 c 0.90625,0 1.45313,0.40625 1.45313,1.203125 v 0.01563 c 0,0.71875 -0.51563,1.203125 -1.40625,1.203125 z m 0,0"
                 style="fill:#000000;fill-opacity:1;stroke:none;stroke-width:0.80924457" />
              <path
                 inkscape:connector-curvature="0"
                 id="path11558"
                 d="m -514.84429,55.097595 c 0.73438,0 1.21875,-0.234375 1.64063,-0.609375 0.0781,-0.0625 0.14062,-0.171875 0.14062,-0.28125 0,-0.203125 -0.1875,-0.375 -0.39062,-0.375 -0.0937,0 -0.17188,0.03125 -0.23438,0.09375 -0.32812,0.28125 -0.65625,0.4375 -1.14062,0.4375 -0.85938,0 -1.5,-0.734375 -1.5,-1.625 0,-0.890625 0.64062,-1.609375 1.5,-1.609375 0.4375,0 0.78125,0.15625 1.09375,0.40625 0.0469,0.04687 0.125,0.07813 0.23437,0.07813 0.21875,0 0.40625,-0.171875 0.40625,-0.390625 0,-0.140625 -0.0781,-0.25 -0.15625,-0.3125 -0.40625,-0.3125 -0.85937,-0.515625 -1.5625,-0.515625 -1.375,0 -2.34375,1.0625 -2.34375,2.34375 v 0.01563 c 0,1.3125 0.98438,2.34375 2.3125,2.34375 z m 0,0"
                 style="fill:#000000;fill-opacity:1;stroke:none;stroke-width:0.80924457" />
              <path
                 inkscape:connector-curvature="0"
                 id="path11554"
                 d="m -510.17002,55.08197 h 0.0469 c 0.21875,0 0.375,-0.125 0.45313,-0.328125 l 1.60937,-3.765625 c 0.0156,-0.04687 0.0312,-0.109375 0.0312,-0.171875 0,-0.203125 -0.17187,-0.375 -0.39062,-0.375 -0.1875,0 -0.32813,0.125 -0.39063,0.25 l -1.32812,3.3125 -1.3125,-3.28125 c -0.0625,-0.171875 -0.20313,-0.28125 -0.40625,-0.28125 -0.23438,0 -0.40625,0.171875 -0.40625,0.390625 0,0.0625 0.0156,0.125 0.0469,0.1875 l 1.59375,3.734375 c 0.0781,0.203125 0.23438,0.328125 0.45313,0.328125 z m 0,0"
                 style="fill:#000000;fill-opacity:1;stroke:none;stroke-width:0.80924457" />
              <path
                 style="fill:none;stroke:#000000;stroke-width:0.47927633;stroke-linecap:round;stroke-linejoin:round;stroke-miterlimit:10;stroke-opacity:1"
                 d="m -510.87504,135.97266 h 54.40234"
                 id="path25833"
                 inkscape:connector-curvature="0" />
              <path
                 style="fill:none;stroke:#000000;stroke-width:0.47927633;stroke-linecap:round;stroke-linejoin:round;stroke-miterlimit:10;stroke-opacity:1"
                 d="m -510.87504,199.75 h 54.40234"
                 id="path25835"
                 inkscape:connector-curvature="0" />
              <path
                 style="fill:none;stroke:#000000;stroke-width:0.47927633;stroke-linecap:round;stroke-linejoin:round;stroke-miterlimit:10;stroke-opacity:1"
                 d="m -510.87504,263.53125 h 54.40234"
                 id="path25837"
                 inkscape:connector-curvature="0" />
              <path
                 style="fill:none;stroke:#000000;stroke-width:0.47927633;stroke-linecap:round;stroke-linejoin:round;stroke-miterlimit:10;stroke-opacity:1"
                 d="m -510.87504,72.191409 h 54.40234"
                 id="path25839"
                 inkscape:connector-curvature="0" />
              <path
                 inkscape:connector-curvature="0"
                 id="path11550"
                 d="m -464.29472,45.179291 c 0,0.265625 0.1875,0.46875 0.45313,0.46875 0.20312,0 0.375,-0.125 0.45312,-0.3125 l 0.46875,-1.09375 h 2.71875 l 0.45313,1.0625 c 0.0937,0.203125 0.25,0.34375 0.48437,0.34375 0.26563,0 0.46875,-0.21875 0.46875,-0.484375 0,-0.0625 -0.0156,-0.125 -0.0625,-0.203125 l -2.07812,-4.640625 c -0.10938,-0.25 -0.29688,-0.40625 -0.57813,-0.40625 h -0.0469 c -0.28125,0 -0.48438,0.15625 -0.59375,0.40625 l -2.07813,4.640625 c -0.0469,0.07813 -0.0625,0.15625 -0.0625,0.21875 z m 1.75,-1.796875 0.98438,-2.265625 0.98437,2.265625 z m 0,0"
                 style="fill:#000000;fill-opacity:1;stroke:none;stroke-width:0.80924457" />
              <path
                 inkscape:connector-curvature="0"
                 id="path11546"
                 d="m -456.90477,45.148041 c 0,0.28125 0.21875,0.5 0.5,0.5 0.26563,0 0.5,-0.21875 0.5,-0.5 v -4.234375 h 1.35938 c 0.25,0 0.45312,-0.203125 0.45312,-0.453125 0,-0.25 -0.20312,-0.453125 -0.45312,-0.453125 h -3.71875 c -0.25,0 -0.45313,0.203125 -0.45313,0.453125 0,0.25 0.20313,0.453125 0.45313,0.453125 h 1.35937 z m 0,0"
                 style="fill:#000000;fill-opacity:1;stroke:none;stroke-width:0.80924457" />
              <path
                 inkscape:connector-curvature="0"
                 id="path11542"
                 d="m -451.38957,45.148041 c 0,0.28125 0.21875,0.5 0.5,0.5 0.26563,0 0.5,-0.21875 0.5,-0.5 v -4.234375 h 1.35938 c 0.25,0 0.45312,-0.203125 0.45312,-0.453125 0,-0.25 -0.20312,-0.453125 -0.45312,-0.453125 h -3.71875 c -0.25,0 -0.45313,0.203125 -0.45313,0.453125 0,0.25 0.20313,0.453125 0.45313,0.453125 h 1.35937 z m 0,0"
                 style="fill:#000000;fill-opacity:1;stroke:none;stroke-width:0.80924457" />
              <path
                 inkscape:connector-curvature="0"
                 id="path11538"
                 d="m -464.61577,109.52516 c 0,0.28125 0.21875,0.5 0.5,0.5 h 1.59375 c 1.75,0 2.96875,-1.21875 2.96875,-2.79687 v -0.0156 c 0,-1.57812 -1.21875,-2.78125 -2.96875,-2.78125 h -1.59375 c -0.28125,0 -0.5,0.20313 -0.5,0.48438 z m 0.98438,-0.39062 v -3.8125 h 1.10937 c 1.17188,0 1.9375,0.8125 1.9375,1.90625 v 0.0156 c 0,1.09375 -0.76562,1.89063 -1.9375,1.89063 z m 0,0"
                 style="fill:#000000;fill-opacity:1;stroke:none;stroke-width:0.80924457" />
              <path
                 inkscape:connector-curvature="0"
                 id="path11534"
                 d="m -457.68614,110.02516 h 3.29687 c 0.23438,0 0.4375,-0.1875 0.4375,-0.4375 0,-0.25 -0.20312,-0.4375 -0.4375,-0.4375 h -2.8125 v -1.51562 h 2.40625 c 0.25,0 0.4375,-0.1875 0.4375,-0.42188 0,-0.25 -0.1875,-0.45312 -0.4375,-0.45312 h -2.40625 v -1.45313 h 2.76563 c 0.25,0 0.4375,-0.1875 0.4375,-0.4375 0,-0.25 -0.1875,-0.4375 -0.4375,-0.4375 h -3.25 c -0.28125,0 -0.5,0.20313 -0.5,0.48438 v 4.60937 c 0,0.28125 0.21875,0.5 0.5,0.5 z m 0,0"
                 style="fill:#000000;fill-opacity:1;stroke:none;stroke-width:0.80924457" />
              <path
                 inkscape:connector-curvature="0"
                 id="path11530"
                 d="m -450.19243,110.11891 c 0.90625,0 1.51563,-0.28125 2.04688,-0.75 0.0781,-0.0781 0.15625,-0.20312 0.15625,-0.35937 0,-0.23438 -0.21875,-0.45313 -0.46875,-0.45313 -0.125,0 -0.21875,0.0469 -0.29688,0.10938 -0.40625,0.34375 -0.8125,0.54687 -1.39062,0.54687 -1.07813,0 -1.85938,-0.89062 -1.85938,-1.98437 v -0.0156 c 0,-1.09375 0.78125,-1.98437 1.85938,-1.98437 0.53125,0 0.9375,0.20312 1.32812,0.51562 0.0625,0.0469 0.15625,0.0937 0.29688,0.0937 0.26562,0 0.48437,-0.21875 0.48437,-0.48437 0,-0.17188 -0.0781,-0.3125 -0.1875,-0.39063 -0.48437,-0.375 -1.0625,-0.64062 -1.92187,-0.64062 -1.70313,0 -2.89063,1.3125 -2.89063,2.90625 v 0.0156 c 0,1.60938 1.21875,2.875 2.84375,2.875 z m 0,0"
                 style="fill:#000000;fill-opacity:1;stroke:none;stroke-width:0.80924457" />
              <path
                 inkscape:connector-curvature="0"
                 id="path11526"
                 d="m -462.127,173.87928 c 1.17188,0 2,-0.625 2,-1.67187 v -0.0156 c 0,-0.92187 -0.60937,-1.34375 -1.79687,-1.64062 -1.07813,-0.25 -1.34375,-0.45313 -1.34375,-0.875 v -0.0156 c 0,-0.375 0.34375,-0.67187 0.92187,-0.67187 0.4375,0 0.84375,0.15625 1.28125,0.42187 0.0781,0.0469 0.15625,0.0781 0.26563,0.0781 0.25,0 0.45312,-0.20313 0.45312,-0.45313 0,-0.1875 -0.0937,-0.32812 -0.21875,-0.39062 -0.5,-0.34375 -1.0625,-0.53125 -1.76562,-0.53125 -1.10938,0 -1.92188,0.67187 -1.92188,1.625 v 0.0156 c 0,1.03125 0.67188,1.39063 1.875,1.67188 1.03125,0.25 1.26563,0.46875 1.26563,0.85937 v 0.0156 c 0,0.42187 -0.39063,0.70312 -1,0.70312 -0.60938,0 -1.10938,-0.20312 -1.5625,-0.57812 -0.0625,-0.0469 -0.15625,-0.0781 -0.29688,-0.0781 -0.25,0 -0.45312,0.20313 -0.45312,0.45313 0,0.15625 0.0781,0.29687 0.1875,0.375 0.625,0.46875 1.34375,0.70312 2.10937,0.70312 z m 0,0"
                 style="fill:#000000;fill-opacity:1;stroke:none;stroke-width:0.80924457" />
              <path
                 inkscape:connector-curvature="0"
                 id="path11522"
                 d="m -456.48687,173.89491 c 1.46875,0 2.40625,-0.84375 2.40625,-2.51563 v -2.73437 c 0,-0.26563 -0.21875,-0.48438 -0.48437,-0.48438 -0.28125,0 -0.5,0.21875 -0.5,0.48438 v 2.78125 c 0,1.03125 -0.53125,1.54687 -1.40625,1.54687 -0.875,0 -1.42188,-0.54687 -1.42188,-1.59375 v -2.73437 c 0,-0.26563 -0.20312,-0.48438 -0.48437,-0.48438 -0.28125,0 -0.5,0.21875 -0.5,0.48438 v 2.78125 c 0,1.625 0.9375,2.46875 2.39062,2.46875 z m 0,0"
                 style="fill:#000000;fill-opacity:1;stroke:none;stroke-width:0.80924457" />
              <path
                 inkscape:connector-curvature="0"
                 id="path11518"
                 d="m -450.5598,173.87928 c 1.17188,0 2,-0.625 2,-1.67187 v -0.0156 c 0,-0.92187 -0.60937,-1.34375 -1.79687,-1.64062 -1.07813,-0.25 -1.34375,-0.45313 -1.34375,-0.875 v -0.0156 c 0,-0.375 0.34375,-0.67187 0.92187,-0.67187 0.4375,0 0.84375,0.15625 1.28125,0.42187 0.0781,0.0469 0.15625,0.0781 0.26563,0.0781 0.25,0 0.45312,-0.20313 0.45312,-0.45313 0,-0.1875 -0.0937,-0.32812 -0.21875,-0.39062 -0.5,-0.34375 -1.0625,-0.53125 -1.76562,-0.53125 -1.10938,0 -1.92188,0.67187 -1.92188,1.625 v 0.0156 c 0,1.03125 0.67188,1.39063 1.875,1.67188 1.03125,0.25 1.26563,0.46875 1.26563,0.85937 v 0.0156 c 0,0.42187 -0.39063,0.70312 -1,0.70312 -0.60938,0 -1.10938,-0.20312 -1.5625,-0.57812 -0.0625,-0.0469 -0.15625,-0.0781 -0.29688,-0.0781 -0.25,0 -0.45312,0.20313 -0.45312,0.45313 0,0.15625 0.0781,0.29687 0.1875,0.375 0.625,0.46875 1.34375,0.70312 2.10937,0.70312 z m 0,0"
                 style="fill:#000000;fill-opacity:1;stroke:none;stroke-width:0.80924457" />
              <path
                 inkscape:connector-curvature="0"
                 id="path11514"
                 d="m -463.99174,237.12405 c 0,0.28125 0.21875,0.5 0.5,0.5 0.26563,0 0.48438,-0.21875 0.48438,-0.5 v -1.5 h 1.23437 l 1.35938,1.73438 c 0.125,0.15625 0.26562,0.26562 0.48437,0.26562 0.25,0 0.46875,-0.1875 0.46875,-0.46875 0,-0.14062 -0.0625,-0.25 -0.15625,-0.375 l -1.0625,-1.34375 c 0.75,-0.23437 1.26563,-0.78125 1.26563,-1.67187 v -0.0156 c 0,-0.48437 -0.17188,-0.90625 -0.46875,-1.21875 -0.35938,-0.34375 -0.90625,-0.54687 -1.60938,-0.54687 h -2 c -0.28125,0 -0.5,0.20312 -0.5,0.48437 z m 0.98438,-2.375 v -1.875 h 1.4375 c 0.71875,0 1.15625,0.32813 1.15625,0.92188 v 0.0156 c 0,0.57813 -0.45313,0.9375 -1.15625,0.9375 z m 0,0"
                 style="fill:#000000;fill-opacity:1;stroke:none;stroke-width:0.80924457" />
              <path
                 inkscape:connector-curvature="0"
                 id="path11510"
                 d="m -457.48613,237.57718 h 3.29688 c 0.23437,0 0.4375,-0.1875 0.4375,-0.4375 0,-0.25 -0.20313,-0.4375 -0.4375,-0.4375 h -2.8125 v -1.51563 h 2.40625 c 0.25,0 0.4375,-0.1875 0.4375,-0.42187 0,-0.25 -0.1875,-0.45313 -0.4375,-0.45313 h -2.40625 v -1.45312 h 2.76562 c 0.25,0 0.4375,-0.1875 0.4375,-0.4375 0,-0.25 -0.1875,-0.4375 -0.4375,-0.4375 h -3.25 c -0.28125,0 -0.5,0.20312 -0.5,0.48437 v 4.60938 c 0,0.28125 0.21875,0.5 0.5,0.5 z m 0,0"
                 style="fill:#000000;fill-opacity:1;stroke:none;stroke-width:0.80924457" />
              <path
                 inkscape:connector-curvature="0"
                 id="path11506"
                 d="m -452.45817,237.07718 c 0,0.28125 0.21875,0.5 0.5,0.5 h 3.01563 c 0.25,0 0.45312,-0.20313 0.45312,-0.45313 0,-0.25 -0.20312,-0.4375 -0.45312,-0.4375 h -2.53125 v -4.26562 c 0,-0.26563 -0.21875,-0.48438 -0.48438,-0.48438 -0.28125,0 -0.5,0.21875 -0.5,0.48438 z m 0,0"
                 style="fill:#000000;fill-opacity:1;stroke:none;stroke-width:0.80924457" />
              <path
                 inkscape:connector-curvature="0"
                 id="path11502"
                 d="m -514.84429,118.8769 c 0.73438,0 1.21875,-0.23438 1.64063,-0.60938 0.0781,-0.0625 0.14062,-0.17187 0.14062,-0.28125 0,-0.20312 -0.1875,-0.375 -0.39062,-0.375 -0.0937,0 -0.17188,0.0312 -0.23438,0.0937 -0.32812,0.28125 -0.65625,0.4375 -1.14062,0.4375 -0.85938,0 -1.5,-0.73437 -1.5,-1.625 0,-0.89062 0.64062,-1.60937 1.5,-1.60937 0.4375,0 0.78125,0.15625 1.09375,0.40625 0.0469,0.0469 0.125,0.0781 0.23437,0.0781 0.21875,0 0.40625,-0.17187 0.40625,-0.39062 0,-0.14063 -0.0781,-0.25 -0.15625,-0.3125 -0.40625,-0.3125 -0.85937,-0.51563 -1.5625,-0.51563 -1.375,0 -2.34375,1.0625 -2.34375,2.34375 v 0.0156 c 0,1.3125 0.98438,2.34375 2.3125,2.34375 z m 0,0"
                 style="fill:#000000;fill-opacity:1;stroke:none;stroke-width:0.80924457" />
              <path
                 inkscape:connector-curvature="0"
                 id="path11498"
                 d="m -510.17002,118.86127 h 0.0469 c 0.21875,0 0.375,-0.125 0.45313,-0.32812 l 1.60937,-3.76563 c 0.0156,-0.0469 0.0312,-0.10937 0.0312,-0.17187 0,-0.20313 -0.17187,-0.375 -0.39062,-0.375 -0.1875,0 -0.32813,0.125 -0.39063,0.25 l -1.32812,3.3125 -1.3125,-3.28125 c -0.0625,-0.17188 -0.20313,-0.28125 -0.40625,-0.28125 -0.23438,0 -0.40625,0.17187 -0.40625,0.39062 0,0.0625 0.0156,0.125 0.0469,0.1875 l 1.59375,3.73438 c 0.0781,0.20312 0.23438,0.32812 0.45313,0.32812 z m 0,0"
                 style="fill:#000000;fill-opacity:1;stroke:none;stroke-width:0.80924457" />
              <path
                 inkscape:connector-curvature="0"
                 id="path11494"
                 d="m -514.84429,182.65489 c 0.73438,0 1.21875,-0.23437 1.64063,-0.60937 0.0781,-0.0625 0.14062,-0.17188 0.14062,-0.28125 0,-0.20313 -0.1875,-0.375 -0.39062,-0.375 -0.0937,0 -0.17188,0.0312 -0.23438,0.0937 -0.32812,0.28125 -0.65625,0.4375 -1.14062,0.4375 -0.85938,0 -1.5,-0.73438 -1.5,-1.625 0,-0.89063 0.64062,-1.60938 1.5,-1.60938 0.4375,0 0.78125,0.15625 1.09375,0.40625 0.0469,0.0469 0.125,0.0781 0.23437,0.0781 0.21875,0 0.40625,-0.17188 0.40625,-0.39063 0,-0.14062 -0.0781,-0.25 -0.15625,-0.3125 -0.40625,-0.3125 -0.85937,-0.51562 -1.5625,-0.51562 -1.375,0 -2.34375,1.0625 -2.34375,2.34375 v 0.0156 c 0,1.3125 0.98438,2.34375 2.3125,2.34375 z m 0,0"
                 style="fill:#000000;fill-opacity:1;stroke:none;stroke-width:0.80924457" />
              <path
                 inkscape:connector-curvature="0"
                 id="path11490"
                 d="m -510.17002,182.63927 h 0.0469 c 0.21875,0 0.375,-0.125 0.45313,-0.32813 l 1.60937,-3.76562 c 0.0156,-0.0469 0.0312,-0.10938 0.0312,-0.17188 0,-0.20312 -0.17187,-0.375 -0.39062,-0.375 -0.1875,0 -0.32813,0.125 -0.39063,0.25 l -1.32812,3.3125 -1.3125,-3.28125 c -0.0625,-0.17187 -0.20313,-0.28125 -0.40625,-0.28125 -0.23438,0 -0.40625,0.17188 -0.40625,0.39063 0,0.0625 0.0156,0.125 0.0469,0.1875 l 1.59375,3.73437 c 0.0781,0.20313 0.23438,0.32813 0.45313,0.32813 z m 0,0"
                 style="fill:#000000;fill-opacity:1;stroke:none;stroke-width:0.80924457" />
              <path
                 inkscape:connector-curvature="0"
                 id="path11486"
                 d="m -514.84429,246.43289 c 0.73438,0 1.21875,-0.23437 1.64063,-0.60937 0.0781,-0.0625 0.14062,-0.17188 0.14062,-0.28125 0,-0.20313 -0.1875,-0.375 -0.39062,-0.375 -0.0937,0 -0.17188,0.0312 -0.23438,0.0937 -0.32812,0.28125 -0.65625,0.4375 -1.14062,0.4375 -0.85938,0 -1.5,-0.73438 -1.5,-1.625 0,-0.89063 0.64062,-1.60938 1.5,-1.60938 0.4375,0 0.78125,0.15625 1.09375,0.40625 0.0469,0.0469 0.125,0.0781 0.23437,0.0781 0.21875,0 0.40625,-0.17188 0.40625,-0.39063 0,-0.14062 -0.0781,-0.25 -0.15625,-0.3125 -0.40625,-0.3125 -0.85937,-0.51562 -1.5625,-0.51562 -1.375,0 -2.34375,1.0625 -2.34375,2.34375 v 0.0156 c 0,1.3125 0.98438,2.34375 2.3125,2.34375 z m 0,0"
                 style="fill:#000000;fill-opacity:1;stroke:none;stroke-width:0.80924457" />
              <path
                 inkscape:connector-curvature="0"
                 id="path11482"
                 d="m -510.17002,246.41727 h 0.0469 c 0.21875,0 0.375,-0.125 0.45313,-0.32813 l 1.60937,-3.76562 c 0.0156,-0.0469 0.0312,-0.10938 0.0312,-0.17188 0,-0.20312 -0.17187,-0.375 -0.39062,-0.375 -0.1875,0 -0.32813,0.125 -0.39063,0.25 l -1.32812,3.3125 -1.3125,-3.28125 c -0.0625,-0.17187 -0.20313,-0.28125 -0.40625,-0.28125 -0.23438,0 -0.40625,0.17188 -0.40625,0.39063 0,0.0625 0.0156,0.125 0.0469,0.1875 l 1.59375,3.73437 c 0.0781,0.20313 0.23438,0.32813 0.45313,0.32813 z m 0,0"
                 style="fill:#000000;fill-opacity:1;stroke:none;stroke-width:0.80924457" />
            </g>
          </g>
        </g>
      </g>
    </g>
  </g>
</svg>
