<?xml version="1.0" encoding="UTF-8" standalone="no"?>
<svg
   xmlns:dc="http://purl.org/dc/elements/1.1/"
   xmlns:cc="http://creativecommons.org/ns#"
   xmlns:rdf="http://www.w3.org/1999/02/22-rdf-syntax-ns#"
   xmlns:svg="http://www.w3.org/2000/svg"
   xmlns="http://www.w3.org/2000/svg"
   xmlns:sodipodi="http://sodipodi.sourceforge.net/DTD/sodipodi-0.dtd"
   xmlns:inkscape="http://www.inkscape.org/namespaces/inkscape"
   width="75"
   height="380"
   viewBox="0 0 75 380"
   version="1.1"
   id="svg208"
   sodipodi:docname="COMPARE.svg"
   inkscape:version="0.92.3 (2405546, 2018-03-11)">
  <metadata
     id="metadata212">
    <rdf:RDF>
      <cc:Work
         rdf:about="">
        <dc:format>image/svg+xml</dc:format>
        <dc:type
           rdf:resource="http://purl.org/dc/dcmitype/StillImage" />
      </cc:Work>
    </rdf:RDF>
  </metadata>
  <sodipodi:namedview
     pagecolor="#ffffff"
     bordercolor="#666666"
     borderopacity="1"
     objecttolerance="10"
     gridtolerance="10"
     guidetolerance="10"
     inkscape:pageopacity="0"
     inkscape:pageshadow="2"
     inkscape:window-width="1920"
     inkscape:window-height="1017"
     id="namedview210"
     showgrid="false"
     inkscape:zoom="1.7566021"
     inkscape:cx="-69.046764"
     inkscape:cy="171.2647"
     inkscape:window-x="-8"
     inkscape:window-y="-8"
     inkscape:window-maximized="1"
     inkscape:current-layer="svg208" />
  <defs
     id="defs9">
    <style
       id="style2">
      .uuid-178fee04-66e3-402f-80f4-0493ef387430 {
        fill: #f0f0f0;
      }

      .uuid-a01b56f5-19ad-4419-9263-e2d8207a4173 {
        fill: blue;
      }

      .uuid-caa11d7b-45dc-472d-a21c-bfb45f09d39f {
        fill: lime;
      }

      .uuid-c66d0e1a-0300-47a3-9fe5-7579d5efc1b8 {
        isolation: isolate;
        opacity: .69;
      }

      .uuid-c66d0e1a-0300-47a3-9fe5-7579d5efc1b8, .uuid-89ffc17d-dc13-46b4-af84-0bc0d5772298, .uuid-f8e02bd3-ee8a-44eb-b2d4-43473dffabb0 {
        fill: none;
      }

      .uuid-e03bfb13-a98f-40ee-8a96-0d89c31eb30e {
        fill: #f0f;
      }

      .uuid-f8e02bd3-ee8a-44eb-b2d4-43473dffabb0 {
        stroke: #1f1f1f;
        stroke-linecap: round;
        stroke-miterlimit: 10;
        stroke-width: .8px;
      }

      .uuid-26fe0ef1-1280-43b0-a2a0-ad72b6a9fcb5 {
        fill: url(#uuid-ceb1f0ca-0ca2-46a9-982b-2ba7e59fdccb);
      }

      .uuid-328bb177-dd26-46ae-8d7a-80e84573d743 {
        fill: #1f1f1f;
      }

      .uuid-c1500944-1ed5-404f-b173-c3791985f437 {
        fill: red;
      }
    </style>
    <linearGradient
       id="uuid-ceb1f0ca-0ca2-46a9-982b-2ba7e59fdccb"
       x1="37.5"
       y1="0"
       x2="37.5"
       y2="380"
       gradientTransform="matrix(1, 0, 0, 1, 0, 0)"
       gradientUnits="userSpaceOnUse">
      <stop
         offset="0"
         stop-color="#ebebeb"
         id="stop4" />
      <stop
         offset="1"
         stop-color="#e1e1e1"
         id="stop6" />
    </linearGradient>
  </defs>
  <g
     id="uuid-c64f22f2-9902-4383-a90c-2ce3d9bf4a00"
     data-name="FND BG"
     style="display:inline">
    <rect
       width="75"
       height="380"
       style="fill:url(#uuid-ceb1f0ca-0ca2-46a9-982b-2ba7e59fdccb)"
       id="rect11"
       x="0"
       y="0" />
  </g>
  <g
     id="uuid-0cf2d9fd-764c-4eb5-8d95-894a7f181361"
     data-name="FND GRAPH"
     style="display:inline">
    <g
       id="g18">
      <rect
         x="7.2241602"
         y="174.74294"
         width="28.55155"
         height="39.15691"
         rx="2.83465"
         ry="2.83465"
         style="fill:#1f1f1f"
         id="rect14" />
      <rect
         x="18.07571"
         y="196.25383"
         width="6.86765"
         height="6.6499901"
         style="fill:#1f1f1f"
         id="rect16" />
    </g>
    <g
       id="g24">
      <rect
         x="39.224289"
         y="174.74294"
         width="28.55155"
         height="39.15691"
         rx="2.83465"
         ry="2.83465"
         style="fill:#1f1f1f"
         id="rect20" />
      <rect
         x="50.07584"
         y="196.25383"
         width="6.86765"
         height="6.6499901"
         style="fill:#1f1f1f"
         id="rect22" />
    </g>
    <g
       id="g30">
      <rect
         x="7.2241602"
         y="219.63045"
         width="28.55155"
         height="39.15691"
         rx="2.83465"
         ry="2.83465"
         style="fill:#1f1f1f"
         id="rect26" />
      <rect
         x="18.07571"
         y="241.14133"
         width="6.86765"
         height="6.6499901"
         style="fill:#1f1f1f"
         id="rect28" />
    </g>
    <g
       id="g36">
      <rect
         x="39.224289"
         y="219.63045"
         width="28.55155"
         height="39.15691"
         rx="2.83465"
         ry="2.83465"
         style="fill:#1f1f1f"
         id="rect32" />
      <rect
         x="50.07584"
         y="241.14133"
         width="6.86765"
         height="6.6499901"
         style="fill:#1f1f1f"
         id="rect34" />
    </g>
    <g
       id="g42">
      <rect
         x="7.2241602"
         y="264.48514"
         width="28.55155"
         height="39.15691"
         rx="2.83465"
         ry="2.83465"
         style="fill:#1f1f1f"
         id="rect38" />
      <rect
         x="18.07571"
         y="285.99603"
         width="6.86765"
         height="6.6499901"
         style="fill:#1f1f1f"
         id="rect40" />
    </g>
    <g
       id="g48">
      <rect
         x="39.224289"
         y="264.48514"
         width="28.55155"
         height="39.15691"
         rx="2.83465"
         ry="2.83465"
         style="fill:#1f1f1f"
         id="rect44" />
      <rect
         x="50.07584"
         y="285.99603"
         width="6.86765"
         height="6.6499901"
         style="fill:#1f1f1f"
         id="rect46" />
    </g>
    <g
       id="g54">
      <rect
         x="7.2241602"
         y="309.05634"
         width="28.55155"
         height="39.15691"
         rx="2.83465"
         ry="2.83465"
         style="fill:#1f1f1f"
         id="rect50" />
      <rect
         x="18.07571"
         y="330.56723"
         width="6.86765"
         height="6.6499901"
         style="fill:#1f1f1f"
         id="rect52" />
    </g>
    <g
       id="g60">
      <rect
         x="39.224289"
         y="309.05634"
         width="28.55155"
         height="39.15691"
         rx="2.83465"
         ry="2.83465"
         style="fill:#1f1f1f"
         id="rect56" />
      <rect
         x="50.07584"
         y="330.56723"
         width="6.86765"
         height="6.6499901"
         style="fill:#1f1f1f"
         id="rect58" />
    </g>
    <g
       id="g74">
      <circle
         cx="37.5"
         cy="78.999901"
         r="26.48818"
         style="opacity:0.68999999;isolation:isolate;fill:none"
         id="circle62" />
      <g
         id="g68">
        <path
           d="m 48.29822,97.10256 c 6.2955,-3.78272 10.15833,-10.61025 10.15833,-17.95479 0,-11.491 -9.45566,-20.94666 -20.94666,-20.94666 -11.491,0 -20.94666,9.45566 -20.94666,20.94666 0,7.39639 3.91756,14.2646 10.28394,18.02967"
           style="fill:none;stroke:#1f1f1f;stroke-width:0.80000001px;stroke-linecap:round;stroke-miterlimit:10"
           id="path64"
           inkscape:connector-curvature="0" />
        <g
           id="g66" />
      </g>
      <line
         x1="48.298222"
         y1="97.102562"
         x2="37.5"
         y2="78.999901"
         style="fill:none"
         id="line70" />
      <line
         x1="37.509899"
         y1="58.201111"
         x2="37.509899"
         y2="71.622688"
         style="fill:none;stroke:#1f1f1f;stroke-width:0.80000001px;stroke-linecap:round;stroke-miterlimit:10"
         id="line72" />
    </g>
    <g
       id="g84">
      <circle
         cx="38.001652"
         cy="356.26779"
         r="1.18571"
         style="fill:#1f1f1f"
         id="circle76" />
      <path
         d="m 29.35927,360.18977 c -0.34551,0 -0.66126,-0.1952 -0.8158,-0.50419 l -2.96428,-5.92856 c -0.22526,-0.45057 -0.04266,-0.99844 0.40794,-1.2237 0.45008,-0.22535 0.99831,-0.0427 1.22366,0.4079 l 2.14848,4.29696 2.14848,-4.29696 c 0.22526,-0.45057 0.77314,-0.63325 1.22366,-0.4079 0.45061,0.22526 0.63321,0.77314 0.40794,1.2237 l -2.96428,5.92856 c -0.15454,0.30899 -0.47029,0.50419 -0.8158,0.50419 z"
         style="fill:#1f1f1f"
         id="path78"
         inkscape:connector-curvature="0" />
      <path
         d="m 45.64073,360.18977 c -0.34551,0 -0.66126,-0.1952 -0.8158,-0.50419 l -2.96428,-5.92856 c -0.22526,-0.45057 -0.04266,-0.99844 0.40794,-1.2237 0.45016,-0.22535 0.9984,-0.0427 1.22366,0.4079 l 2.14848,4.29696 2.14848,-4.29696 c 0.22526,-0.45057 0.77305,-0.63325 1.22366,-0.4079 0.45061,0.22526 0.63321,0.77314 0.40794,1.2237 l -2.96428,5.92856 c -0.15454,0.30899 -0.47029,0.50419 -0.8158,0.50419 z"
         style="fill:#1f1f1f"
         id="path80"
         inkscape:connector-curvature="0" />
      <path
         d="m 37.94242,360.18977 c -2.13744,0 -3.87637,-1.73893 -3.87637,-3.87637 0,-2.13744 1.73893,-3.87637 3.87637,-3.87637 0.84653,0 1.65102,0.26819 2.32653,0.77554 0.40278,0.30253 0.48401,0.87428 0.18153,1.27705 -0.30248,0.40273 -0.87432,0.48401 -1.2771,0.18148 -0.357,-0.26815 -0.78267,-0.4099 -1.23096,-0.4099 -1.13156,0 -2.05219,0.92059 -2.05219,2.05219 0,1.1316 0.92064,2.05219 2.05219,2.05219 0.44829,0 0.87396,-0.14176 1.23096,-0.4099 0.40269,-0.30271 0.97444,-0.22125 1.2771,0.18148 0.30248,0.40278 0.22125,0.97453 -0.18153,1.27705 -0.67551,0.50735 -1.48,0.77554 -2.32653,0.77554 z"
         style="fill:#1f1f1f"
         id="path82"
         inkscape:connector-curvature="0" />
    </g>
  </g>
  <g
     id="uuid-30565932-5eae-46d1-839e-14a2da3e712f"
     data-name="FND TXT"
     style="display:inline">
    <g
       id="g93">
      <path
         d="m 13.93555,180.37451 c 0,-0.2915 0.23047,-0.52197 0.52148,-0.52197 h 0.11523 c 0.22461,0 0.37988,0.11523 0.47461,0.27148 l 1.25977,2.05273 1.26758,-2.05957 c 0.10742,-0.17627 0.25781,-0.26465 0.4668,-0.26465 h 0.11523 c 0.29102,0 0.52148,0.23047 0.52148,0.52197 v 3.76709 c 0,0.29102 -0.23047,0.52148 -0.52148,0.52148 -0.28418,0 -0.51465,-0.2373 -0.51465,-0.52148 v -2.36475 l -0.91504,1.40918 c -0.10742,0.1626 -0.24414,0.26416 -0.43359,0.26416 -0.18945,0 -0.32422,-0.10156 -0.43359,-0.26416 l -0.90039,-1.38916 v 2.35791 c 0,0.28467 -0.23047,0.5083 -0.51562,0.5083 -0.28418,0 -0.50781,-0.22363 -0.50781,-0.5083 v -3.78027 z"
         style="fill:#f0f0f0"
         id="path87"
         inkscape:connector-curvature="0" />
      <path
         d="m 19.68164,183.95166 1.65234,-3.73291 c 0.11523,-0.25781 0.32617,-0.41309 0.61035,-0.41309 h 0.06152 c 0.2832,0 0.48633,0.15527 0.60156,0.41309 l 1.6543,3.73291 c 0.0332,0.0747 0.05371,0.14209 0.05371,0.20996 0,0.27783 -0.2168,0.50146 -0.49512,0.50146 -0.24414,0 -0.40625,-0.14258 -0.50098,-0.35938 l -0.31836,-0.74512 h -2.08691 l -0.33203,0.7793 c -0.08789,0.20312 -0.26367,0.3252 -0.48047,0.3252 -0.27148,0 -0.48047,-0.2168 -0.48047,-0.48779 0,-0.0747 0.02637,-0.14893 0.06055,-0.22363 z m 2.93359,-1.31445 -0.6582,-1.56494 -0.65625,1.56494 z"
         style="fill:#f0f0f0"
         id="path89"
         inkscape:connector-curvature="0" />
      <path
         d="m 25.27734,183.78223 1.28027,-1.57178 -1.20605,-1.47021 c -0.08203,-0.10156 -0.15625,-0.2373 -0.15625,-0.38623 0,-0.2915 0.2168,-0.51465 0.51562,-0.51465 0.22266,0 0.35156,0.0879 0.48047,0.25732 l 1.03711,1.38184 1.0293,-1.35449 c 0.14258,-0.18311 0.27734,-0.28467 0.50781,-0.28467 0.23047,0 0.47461,0.18311 0.47461,0.48096 0,0.14893 -0.05469,0.271 -0.15625,0.39941 l -1.20508,1.47705 1.27344,1.56494 c 0.08105,0.10156 0.15625,0.2373 0.15625,0.38623 0,0.2915 -0.2168,0.51514 -0.51562,0.51514 -0.22266,0 -0.35156,-0.0879 -0.48047,-0.25781 l -1.11133,-1.45605 -1.09766,1.4292 c -0.14258,0.18311 -0.27734,0.28467 -0.50781,0.28467 -0.23047,0 -0.47461,-0.18311 -0.47461,-0.48145 0,-0.14844 0.05469,-0.27051 0.15625,-0.39941 z"
         style="fill:#f0f0f0"
         id="path91"
         inkscape:connector-curvature="0" />
    </g>
    <g
       id="g101">
      <path
         d="m 47.08008,180.37451 c 0,-0.2915 0.22949,-0.52197 0.52148,-0.52197 h 0.11523 c 0.22266,0 0.37891,0.11523 0.47363,0.27148 l 1.26074,2.05273 1.26562,-2.05957 c 0.10938,-0.17627 0.25781,-0.26465 0.46875,-0.26465 h 0.11523 c 0.29102,0 0.52148,0.23047 0.52148,0.52197 v 3.76709 c 0,0.29102 -0.23047,0.52148 -0.52148,0.52148 -0.28516,0 -0.51562,-0.2373 -0.51562,-0.52148 v -2.36475 l -0.91406,1.40918 c -0.10938,0.1626 -0.24414,0.26416 -0.43359,0.26416 -0.18945,0 -0.32617,-0.10156 -0.43359,-0.26416 l -0.90137,-1.38916 v 2.35791 c 0,0.28467 -0.23047,0.5083 -0.51465,0.5083 -0.28516,0 -0.50781,-0.22363 -0.50781,-0.5083 v -3.78027 z"
         style="fill:#f0f0f0"
         id="path95"
         inkscape:connector-curvature="0" />
      <path
         d="m 53.24414,180.36084 c 0,-0.2915 0.23047,-0.52148 0.52148,-0.52148 0.29101,0 0.52148,0.22998 0.52148,0.52148 v 3.78076 c 0,0.29102 -0.23047,0.52148 -0.52148,0.52148 -0.29101,0 -0.52148,-0.23047 -0.52148,-0.52148 z"
         style="fill:#f0f0f0"
         id="path97"
         inkscape:connector-curvature="0" />
      <path
         d="m 55.69336,180.37451 c 0,-0.2915 0.23047,-0.52197 0.52148,-0.52197 h 0.1084 c 0.25098,0 0.39941,0.12207 0.54199,0.30518 l 2.01172,2.64209 v -2.4458 c 0,-0.28467 0.23047,-0.51465 0.51562,-0.51465 0.28418,0 0.51465,0.22998 0.51465,0.51465 v 3.77393 c 0,0.29102 -0.23047,0.52148 -0.52246,0.52148 h -0.0332 c -0.25,0 -0.40039,-0.12207 -0.54199,-0.30469 l -2.08691,-2.7373 v 2.54053 c 0,0.28467 -0.23047,0.51514 -0.51465,0.51514 -0.28418,0 -0.51465,-0.23047 -0.51465,-0.51514 v -3.77344 z"
         style="fill:#f0f0f0"
         id="path99"
         inkscape:connector-curvature="0" />
    </g>
    <g
       id="g111">
      <path
         d="m 13.57812,227.15234 v -0.0137 c 0,-1.34814 1.0166,-2.45215 2.47266,-2.45215 0.71191,0 1.19336,0.18945 1.58594,0.48047 0.10742,0.0815 0.20312,0.23047 0.20312,0.41357 0,0.28467 -0.23047,0.5083 -0.51562,0.5083 -0.1416,0 -0.23633,-0.0547 -0.31055,-0.10156 -0.29199,-0.2168 -0.59668,-0.33887 -0.96875,-0.33887 -0.7998,0 -1.37598,0.66406 -1.37598,1.47656 v 0.0137 c 0,0.81299 0.5625,1.49072 1.37598,1.49072 0.43945,0 0.73047,-0.13574 1.0293,-0.37256 0.08105,-0.0679 0.18945,-0.11523 0.31152,-0.11523 0.26465,0 0.4873,0.2168 0.4873,0.48096 0,0.1626 -0.08008,0.2915 -0.17578,0.37256 -0.42676,0.37256 -0.92773,0.59619 -1.6875,0.59619 -1.39453,0 -2.43164,-1.07715 -2.43164,-2.43896 z"
         style="fill:#f0f0f0"
         id="path103"
         inkscape:connector-curvature="0" />
      <path
         d="m 18.99609,225.24854 c 0,-0.2915 0.23047,-0.52148 0.52148,-0.52148 0.29101,0 0.52148,0.22998 0.52148,0.52148 v 3.31299 h 1.93164 c 0.26367,0 0.47461,0.20996 0.47461,0.47412 0,0.26416 -0.21094,0.47412 -0.47461,0.47412 h -2.45312 c -0.29102,0 -0.52148,-0.22998 -0.52148,-0.52148 z"
         style="fill:#f0f0f0"
         id="path105"
         inkscape:connector-curvature="0" />
      <path
         d="m 23.37109,225.24854 c 0,-0.2915 0.23047,-0.52148 0.52148,-0.52148 0.29101,0 0.52148,0.22998 0.52148,0.52148 v 3.78076 c 0,0.29102 -0.23047,0.52148 -0.52148,0.52148 -0.29101,0 -0.52148,-0.23047 -0.52148,-0.52148 z"
         style="fill:#f0f0f0"
         id="path107"
         inkscape:connector-curvature="0" />
      <path
         d="m 25.82031,225.28906 c 0,-0.29102 0.23047,-0.52148 0.52148,-0.52148 h 1.41602 c 1.13086,0 1.81543,0.6709 1.81543,1.63965 v 0.0137 c 0,1.09717 -0.85352,1.6665 -1.91699,1.6665 h -0.79297 v 0.94189 c 0,0.29102 -0.23047,0.52148 -0.52148,0.52148 -0.29101,0 -0.52148,-0.23047 -0.52148,-0.52148 v -3.74023 z m 1.86914,1.87012 c 0.52148,0 0.82715,-0.31152 0.82715,-0.71826 v -0.0132 c 0,-0.46777 -0.3252,-0.71875 -0.84668,-0.71875 h -0.80664 v 1.4502 h 0.82617 z"
         style="fill:#f0f0f0"
         id="path109"
         inkscape:connector-curvature="0" />
    </g>
    <g
       id="g119">
      <path
         d="m 47.70898,225.24805 c 0,-0.29102 0.23047,-0.52148 0.52246,-0.52148 0.29199,0 0.52148,0.23047 0.52148,0.52148 v 3.31299 h 1.93066 c 0.26465,0 0.47461,0.20996 0.47461,0.47412 0,0.26465 -0.20996,0.47461 -0.47461,0.47461 h -2.45215 c -0.29199,0 -0.52246,-0.23047 -0.52246,-0.52197 v -3.73975 z"
         style="fill:#f0f0f0"
         id="path113"
         inkscape:connector-curvature="0" />
      <path
         d="m 52.08496,225.24805 c 0,-0.29102 0.22949,-0.52148 0.52148,-0.52148 0.29199,0 0.52148,0.23047 0.52148,0.52148 v 3.78027 c 0,0.2915 -0.22949,0.52197 -0.52148,0.52197 -0.29199,0 -0.52148,-0.23047 -0.52148,-0.52197 z"
         style="fill:#f0f0f0"
         id="path115"
         inkscape:connector-curvature="0" />
      <path
         d="m 54.5332,225.26172 c 0,-0.2915 0.23047,-0.52148 0.52246,-0.52148 h 0.11523 c 0.22363,0 0.37988,0.11523 0.47363,0.27051 l 1.26074,2.05273 1.2666,-2.05957 c 0.1084,-0.17578 0.25781,-0.26367 0.46777,-0.26367 h 0.11523 c 0.29102,0 0.52148,0.22998 0.52148,0.52148 v 3.7666 c 0,0.2915 -0.23047,0.52197 -0.52148,0.52197 -0.28418,0 -0.51465,-0.2373 -0.51465,-0.52197 v -2.36426 l -0.91504,1.40918 c -0.1084,0.1626 -0.24316,0.26416 -0.43359,0.26416 -0.19043,0 -0.3252,-0.10156 -0.43359,-0.26416 l -0.90137,-1.38867 v 2.35742 c 0,0.28467 -0.23047,0.5083 -0.51465,0.5083 -0.28418,0 -0.50879,-0.22363 -0.50879,-0.5083 v -3.78027 z"
         style="fill:#f0f0f0"
         id="path117"
         inkscape:connector-curvature="0" />
    </g>
    <g
       id="g129">
      <path
         d="m 13.57422,272.00635 v -0.0137 c 0,-1.34814 1.01562,-2.45264 2.47266,-2.45264 0.71094,0 1.19238,0.18994 1.58594,0.48145 0.10742,0.0811 0.20312,0.23047 0.20312,0.41309 0,0.28467 -0.23047,0.50781 -0.51562,0.50781 -0.14258,0 -0.23633,-0.0537 -0.31152,-0.10156 -0.29199,-0.2168 -0.59668,-0.33838 -0.96875,-0.33838 -0.7998,0 -1.37598,0.66357 -1.37598,1.47705 v 0.0132 c 0,0.81299 0.5625,1.49072 1.37598,1.49072 0.44043,0 0.73145,-0.13574 1.03027,-0.37305 0.08008,-0.0674 0.18945,-0.11475 0.31055,-0.11475 0.26465,0 0.48828,0.2168 0.48828,0.48096 0,0.1626 -0.08105,0.29102 -0.17578,0.37256 -0.42773,0.37256 -0.92773,0.59619 -1.6875,0.59619 -1.39551,0 -2.43164,-1.07715 -2.43164,-2.43896 z"
         style="fill:#f0f0f0"
         id="path121"
         inkscape:connector-curvature="0" />
      <path
         d="m 18.99219,270.10254 c 0,-0.29102 0.23047,-0.52148 0.52148,-0.52148 0.29101,0 0.52148,0.23047 0.52148,0.52148 v 3.31299 h 1.93164 c 0.26367,0 0.47363,0.20996 0.47363,0.47412 0,0.26465 -0.20996,0.47461 -0.47363,0.47461 h -2.45312 c -0.29102,0 -0.52148,-0.23047 -0.52148,-0.52197 z"
         style="fill:#f0f0f0"
         id="path123"
         inkscape:connector-curvature="0" />
      <path
         d="m 23.36719,270.10254 c 0,-0.29102 0.22949,-0.52148 0.52148,-0.52148 0.29102,0 0.52148,0.23047 0.52148,0.52148 v 3.78027 c 0,0.2915 -0.23047,0.52197 -0.52148,0.52197 -0.29199,0 -0.52148,-0.23047 -0.52148,-0.52197 z"
         style="fill:#f0f0f0"
         id="path125"
         inkscape:connector-curvature="0" />
      <path
         d="m 25.81641,270.14355 c 0,-0.2915 0.22949,-0.52197 0.52148,-0.52197 h 1.41602 c 1.13086,0 1.81445,0.67041 1.81445,1.63965 v 0.0132 c 0,1.09766 -0.85352,1.66699 -1.91602,1.66699 h -0.79297 v 0.94141 c 0,0.2915 -0.23047,0.52197 -0.52148,0.52197 -0.29199,0 -0.52148,-0.23047 -0.52148,-0.52197 z m 1.86914,1.86963 c 0.52148,0 0.82617,-0.31201 0.82617,-0.71826 v -0.0137 c 0,-0.46729 -0.32422,-0.71777 -0.84668,-0.71777 h -0.80566 v 1.44971 h 0.82617 z"
         style="fill:#f0f0f0"
         id="path127"
         inkscape:connector-curvature="0" />
    </g>
    <g
       id="g137">
      <path
         d="m 47.70898,270.10254 c 0,-0.29102 0.23047,-0.52148 0.52246,-0.52148 0.29199,0 0.52148,0.23047 0.52148,0.52148 v 3.31299 h 1.93066 c 0.26465,0 0.47461,0.20996 0.47461,0.47412 0,0.26465 -0.20996,0.47461 -0.47461,0.47461 h -2.45215 c -0.29199,0 -0.52246,-0.23047 -0.52246,-0.52197 v -3.73975 z"
         style="fill:#f0f0f0"
         id="path131"
         inkscape:connector-curvature="0" />
      <path
         d="m 52.08496,270.10254 c 0,-0.29102 0.22949,-0.52148 0.52148,-0.52148 0.29199,0 0.52148,0.23047 0.52148,0.52148 v 3.78027 c 0,0.2915 -0.22949,0.52197 -0.52148,0.52197 -0.29199,0 -0.52148,-0.23047 -0.52148,-0.52197 z"
         style="fill:#f0f0f0"
         id="path133"
         inkscape:connector-curvature="0" />
      <path
         d="m 54.5332,270.11621 c 0,-0.2915 0.23047,-0.52148 0.52246,-0.52148 h 0.11523 c 0.22363,0 0.37988,0.11523 0.47363,0.27051 l 1.26074,2.05273 1.2666,-2.05957 c 0.1084,-0.17578 0.25781,-0.26367 0.46777,-0.26367 h 0.11523 c 0.29102,0 0.52148,0.22998 0.52148,0.52148 v 3.7666 c 0,0.2915 -0.23047,0.52197 -0.52148,0.52197 -0.28418,0 -0.51465,-0.2373 -0.51465,-0.52197 v -2.36426 l -0.91504,1.40918 c -0.1084,0.1626 -0.24316,0.26416 -0.43359,0.26416 -0.19043,0 -0.3252,-0.10156 -0.43359,-0.26416 l -0.90137,-1.38867 v 2.35742 c 0,0.28467 -0.23047,0.5083 -0.51465,0.5083 -0.28418,0 -0.50879,-0.22363 -0.50879,-0.5083 v -3.78027 z"
         style="fill:#f0f0f0"
         id="path135"
         inkscape:connector-curvature="0" />
    </g>
    <g
       id="g145">
      <path
         d="m 14.49512,318.23877 1.65332,-3.73291 c 0.11523,-0.25781 0.3252,-0.41309 0.60938,-0.41309 h 0.06055 c 0.28516,0 0.48828,0.15527 0.60352,0.41309 l 1.65332,3.73291 c 0.03418,0.0747 0.05371,0.14209 0.05371,0.20996 0,0.27783 -0.2168,0.50146 -0.49414,0.50146 -0.24414,0 -0.40625,-0.14258 -0.50195,-0.35938 l -0.31836,-0.74512 h -2.08594 l -0.33203,0.7793 c -0.08789,0.20312 -0.26367,0.3252 -0.48047,0.3252 -0.27148,0 -0.48242,-0.2168 -0.48242,-0.48779 0,-0.0747 0.02734,-0.14893 0.06152,-0.22363 z m 2.93359,-1.31445 -0.65723,-1.56494 -0.65625,1.56494 z"
         style="fill:#f0f0f0"
         id="path139"
         inkscape:connector-curvature="0" />
      <path
         d="m 20.67578,314.83105 2.2832,1.08398 c 0.25781,0.12207 0.41309,0.31152 0.41309,0.57568 v 0.0679 c 0,0.26416 -0.15527,0.4541 -0.41309,0.57568 l -2.2832,1.08398 c -0.08203,0.0405 -0.15625,0.0679 -0.25098,0.0679 -0.2168,0.007 -0.41309,-0.18262 -0.41309,-0.42676 0,-0.19629 0.1084,-0.33203 0.28516,-0.41309 l 2.04492,-0.91504 -2.04492,-0.91455 c -0.17676,-0.0811 -0.28516,-0.23682 -0.28516,-0.42676 0,-0.25049 0.19629,-0.42676 0.44727,-0.41992 0.07422,0 0.14844,0.0269 0.2168,0.061 z"
         style="fill:#f0f0f0"
         id="path141"
         inkscape:connector-curvature="0" />
      <path
         d="m 24.47461,314.68848 c 0,-0.29102 0.22949,-0.52148 0.52148,-0.52148 h 1.67969 c 0.54199,0 0.96875,0.14893 1.24023,0.41992 0.2168,0.2168 0.32422,0.48145 0.32422,0.80664 v 0.0132 c 0,0.53516 -0.28418,0.8335 -0.62305,1.02295 0.54883,0.20996 0.8877,0.52832 0.8877,1.16553 v 0.0132 c 0,0.86719 -0.7041,1.30078 -1.77441,1.30078 h -1.73438 c -0.29199,0 -0.52148,-0.22998 -0.52148,-0.52148 z m 1.97754,1.39551 c 0.45996,0 0.75195,-0.14844 0.75195,-0.50098 v -0.0137 c 0,-0.31152 -0.24316,-0.48779 -0.68457,-0.48779 h -1.0293 v 1.00244 h 0.96191 z m 0.27832,1.91113 c 0.45996,0 0.73828,-0.16309 0.73828,-0.51514 v -0.0137 c 0,-0.31836 -0.2373,-0.51514 -0.77344,-0.51514 h -1.20508 v 1.04395 h 1.24023 z"
         style="fill:#f0f0f0"
         id="path143"
         inkscape:connector-curvature="0" />
    </g>
    <g
       id="g153">
      <path
         d="m 46.58398,318.23877 1.6543,-3.73291 c 0.11523,-0.25781 0.32422,-0.41309 0.60938,-0.41309 h 0.06055 c 0.28516,0 0.48828,0.15527 0.60352,0.41309 l 1.65234,3.73291 c 0.03418,0.0747 0.05469,0.14209 0.05469,0.20996 0,0.27783 -0.2168,0.50146 -0.49414,0.50146 -0.24414,0 -0.40625,-0.14258 -0.50195,-0.35938 l -0.31836,-0.74512 h -2.08594 l -0.33203,0.7793 c -0.08887,0.20312 -0.26465,0.3252 -0.48145,0.3252 -0.27051,0 -0.48145,-0.2168 -0.48145,-0.48779 0,-0.0747 0.02734,-0.14893 0.06055,-0.22363 z m 2.93359,-1.31445 -0.65625,-1.56494 -0.6582,1.56494 z"
         style="fill:#f0f0f0"
         id="path147"
         inkscape:connector-curvature="0" />
      <path
         d="m 54.46289,318.21826 -2.2832,-1.08398 C 51.92188,317.0127 51.7666,316.82276 51.7666,316.5586 v -0.0679 c 0,-0.26416 0.15527,-0.45361 0.41309,-0.57568 l 2.2832,-1.08398 c 0.08203,-0.041 0.15625,-0.0679 0.25098,-0.0679 0.2168,-0.007 0.41309,0.18311 0.41309,0.42676 0,0.19678 -0.1084,0.33203 -0.28516,0.41357 l -2.04492,0.91406 2.04492,0.91504 c 0.17676,0.0811 0.28516,0.2373 0.28516,0.42676 0,0.25049 -0.19629,0.42676 -0.44727,0.41992 -0.07422,0 -0.14844,-0.0273 -0.2168,-0.061 z"
         style="fill:#f0f0f0"
         id="path149"
         inkscape:connector-curvature="0" />
      <path
         d="m 56.38477,314.68848 c 0,-0.29102 0.23047,-0.52148 0.52148,-0.52148 h 1.68066 c 0.54199,0 0.96875,0.14893 1.23926,0.41992 0.2168,0.2168 0.32617,0.48145 0.32617,0.80664 v 0.0132 c 0,0.53516 -0.28516,0.8335 -0.62305,1.02295 0.54785,0.20996 0.88672,0.52832 0.88672,1.16553 v 0.0132 c 0,0.86719 -0.70508,1.30078 -1.77539,1.30078 h -1.73438 c -0.29102,0 -0.52148,-0.22998 -0.52148,-0.52148 v -3.69922 z m 1.97852,1.39551 c 0.46094,0 0.75195,-0.14844 0.75195,-0.50098 v -0.0137 c 0,-0.31152 -0.24414,-0.48779 -0.68359,-0.48779 h -1.03027 v 1.00244 z m 0.27734,1.91113 c 0.46094,0 0.73828,-0.16309 0.73828,-0.51514 v -0.0137 c 0,-0.31836 -0.23633,-0.51514 -0.77148,-0.51514 h -1.20605 v 1.04395 h 1.23926 z"
         style="fill:#f0f0f0"
         id="path151"
         inkscape:connector-curvature="0" />
    </g>
    <path
       d="m 19.26953,139.13867 1.76172,-3.9292 c 0.09375,-0.20996 0.26367,-0.33887 0.50098,-0.33887 h 0.04004 c 0.2373,0 0.40039,0.12891 0.49512,0.33887 l 1.76074,3.9292 c 0.03418,0.0615 0.04785,0.12207 0.04785,0.17627 0,0.22363 -0.16895,0.3999 -0.39258,0.3999 -0.19629,0 -0.33203,-0.11523 -0.40723,-0.2915 l -0.38574,-0.88721 h -2.30371 l -0.39941,0.91455 c -0.06738,0.16943 -0.20996,0.26416 -0.38574,0.26416 -0.2168,0 -0.38672,-0.16943 -0.38672,-0.38623 0,-0.061 0.02051,-0.12207 0.05469,-0.18994 z m 3.10254,-1.34131 -0.83301,-1.91748 -0.83398,1.91748 z"
       style="fill:#1f1f1f"
       id="path155"
       inkscape:connector-curvature="0" />
    <path
       d="m 51.71289,135.3584 c 0,-0.2373 0.18359,-0.41992 0.41992,-0.41992 h 1.70703 c 0.54297,0 0.96875,0.14893 1.24023,0.41992 0.20996,0.20996 0.31836,0.46777 0.31836,0.78613 v 0.0137 c 0,0.56885 -0.3252,0.87402 -0.67773,1.05664 0.55566,0.18945 0.94238,0.50781 0.94238,1.15186 v 0.0132 c 0,0.84717 -0.69824,1.30078 -1.75488,1.30078 h -1.77539 c -0.23633,0 -0.41992,-0.18262 -0.41992,-0.41992 z m 1.95801,1.57861 c 0.53516,0 0.89453,-0.20996 0.89453,-0.64355 v -0.0137 c 0,-0.37256 -0.29785,-0.60303 -0.83301,-0.60303 H 52.5332 v 1.26025 z m 0.24414,2.00537 c 0.56934,0 0.91504,-0.22363 0.91504,-0.65039 v -0.0137 c 0,-0.39941 -0.31934,-0.63672 -0.97656,-0.63672 h -1.32031 v 1.30078 h 1.38184 z"
       style="fill:#1f1f1f"
       id="path157"
       inkscape:connector-curvature="0" />
    <g
       id="g173">
      <path
         d="m 16.10156,45.78613 c 0,-0.29199 0.22559,-0.51758 0.51758,-0.51758 h 2.10352 c 0.66797,0 1.19336,0.18359 1.52734,0.51758 0.25879,0.25879 0.39258,0.57568 0.39258,0.96777 v 0.01709 c 0,0.70068 -0.40039,1.07666 -0.83496,1.30225 0.68457,0.2334 1.16016,0.62598 1.16016,1.41895 v 0.0166 c 0,1.04297 -0.85938,1.60254 -2.16113,1.60254 h -2.1875 c -0.29199,0 -0.51758,-0.22559 -0.51758,-0.51758 v -4.80762 z m 2.41211,1.94434 c 0.66016,0 1.10254,-0.25879 1.10254,-0.79297 v -0.0166 c 0,-0.45898 -0.36719,-0.74268 -1.02637,-0.74268 H 17.1123 v 1.55225 z m 0.30078,2.4707 c 0.70117,0 1.12695,-0.27539 1.12695,-0.80078 V 49.3833 c 0,-0.49268 -0.39258,-0.78467 -1.20215,-0.78467 H 17.1123 v 1.60254 z"
         style="fill:#1f1f1f"
         id="path159"
         inkscape:connector-curvature="0" />
      <path
         d="m 24.37305,48.20654 v -0.01709 c 0,-1.64404 1.26855,-3.021 3.0625,-3.021 1.79492,0 3.04688,1.36035 3.04688,3.00439 v 0.0166 c 0,1.64453 -1.26855,3.02148 -3.06348,3.02148 -1.79395,0 -3.0459,-1.36035 -3.0459,-3.00439 z m 5.03223,0 v -0.01709 c 0,-1.13477 -0.82617,-2.07812 -1.98633,-2.07812 -1.16016,0 -1.96973,0.92676 -1.96973,2.06152 v 0.0166 c 0,1.13574 0.82617,2.07031 1.98633,2.07031 1.16016,0 1.96973,-0.91797 1.96973,-2.05322 z"
         style="fill:#1f1f1f"
         id="path161"
         inkscape:connector-curvature="0" />
      <path
         d="m 31.90918,45.78613 c 0,-0.29199 0.22559,-0.51758 0.5166,-0.51758 h 3.40625 c 0.25879,0 0.4668,0.2085 0.4668,0.46729 0,0.25879 -0.20801,0.46729 -0.4668,0.46729 h -2.89648 v 1.59473 h 2.52051 c 0.25879,0 0.46777,0.20801 0.46777,0.4668 0,0.25879 -0.20898,0.46777 -0.46777,0.46777 h -2.52051 v 1.91113 c 0,0.28418 -0.22559,0.50928 -0.50977,0.50928 -0.29102,0 -0.5166,-0.2251 -0.5166,-0.50928 v -4.85742 z"
         style="fill:#1f1f1f"
         id="path163"
         inkscape:connector-curvature="0" />
      <path
         d="m 37.48047,45.78613 c 0,-0.29199 0.22559,-0.51758 0.51758,-0.51758 h 3.40527 c 0.25879,0 0.46777,0.2085 0.46777,0.46729 0,0.25879 -0.20898,0.46729 -0.46777,0.46729 h -2.89551 v 1.59473 h 2.52051 c 0.25879,0 0.4668,0.20801 0.4668,0.4668 0,0.25879 -0.20801,0.46777 -0.4668,0.46777 h -2.52051 v 1.91113 c 0,0.28418 -0.22559,0.50928 -0.50977,0.50928 -0.29199,0 -0.51758,-0.2251 -0.51758,-0.50928 v -4.85742 z"
         style="fill:#1f1f1f"
         id="path165"
         inkscape:connector-curvature="0" />
      <path
         d="m 42.86328,50.45996 c -0.11719,-0.0835 -0.20117,-0.22559 -0.20117,-0.39209 0,-0.26709 0.2168,-0.47607 0.48438,-0.47607 0.1416,0 0.2334,0.04199 0.30078,0.0918 0.48438,0.38428 1.00098,0.60107 1.63574,0.60107 0.63379,0 1.03516,-0.30029 1.03516,-0.73438 v -0.0166 c 0,-0.41748 -0.23438,-0.64307 -1.31934,-0.89307 -1.24316,-0.30078 -1.94434,-0.66797 -1.94434,-1.74463 v -0.0166 c 0,-1.00146 0.83496,-1.69434 1.99512,-1.69434 0.73438,0 1.32617,0.19189 1.85254,0.54248 0.11621,0.06689 0.22559,0.20898 0.22559,0.40918 0,0.2666 -0.2168,0.47559 -0.48438,0.47559 -0.09961,0 -0.18359,-0.02539 -0.26758,-0.0752 -0.4502,-0.29199 -0.88477,-0.44238 -1.34375,-0.44238 -0.60059,0 -0.95117,0.30859 -0.95117,0.69287 v 0.0166 c 0,0.45068 0.26758,0.65088 1.39453,0.91846 1.23438,0.30029 1.86914,0.74268 1.86914,1.71094 v 0.0166 c 0,1.09326 -0.85938,1.74414 -2.08691,1.74414 -0.79297,0 -1.54395,-0.25 -2.19434,-0.73438 z"
         style="fill:#1f1f1f"
         id="path167"
         inkscape:connector-curvature="0" />
      <path
         d="m 48.56543,50.59375 v -4.80762 c 0,-0.29199 0.22559,-0.51758 0.51758,-0.51758 h 3.39746 c 0.25,0 0.45898,0.2085 0.45898,0.45898 0,0.25879 -0.20898,0.45898 -0.45898,0.45898 H 49.5918 v 1.51904 h 2.5127 c 0.25,0 0.45898,0.2085 0.45898,0.46729 0,0.25098 -0.20898,0.45117 -0.45898,0.45117 h -2.5127 v 1.56885 h 2.92969 c 0.25,0 0.45898,0.2085 0.45898,0.45947 0,0.2583 -0.20898,0.45898 -0.45898,0.45898 h -3.43848 c -0.29199,0 -0.51758,-0.22559 -0.51758,-0.51758 z"
         style="fill:#1f1f1f"
         id="path169"
         inkscape:connector-curvature="0" />
      <path
         d="m 55.84375,46.21973 h -1.41992 c -0.2666,0 -0.47461,-0.2168 -0.47461,-0.47559 0,-0.25879 0.20801,-0.47559 0.47461,-0.47559 h 3.88184 c 0.25879,0 0.46777,0.2168 0.46777,0.47559 0,0.25879 -0.20898,0.47559 -0.46777,0.47559 h -1.42773 v 4.42383 c 0,0.28418 -0.2334,0.50928 -0.5166,0.50928 -0.28418,0 -0.51758,-0.2251 -0.51758,-0.50928 v -4.42383 z"
         style="fill:#1f1f1f"
         id="path171"
         inkscape:connector-curvature="0" />
    </g>
    <g
       id="g189">
      <path
         d="m 5.26953,23.93262 v -0.02539 c 0,-2.48975 1.87695,-4.5293 4.56641,-4.5293 1.31445,0 2.20215,0.35059 2.92773,0.88867 0.20117,0.1499 0.375,0.4248 0.375,0.7627 0,0.52588 -0.4248,0.93848 -0.9502,0.93848 -0.2627,0 -0.43848,-0.09961 -0.5752,-0.1875 -0.53906,-0.40039 -1.10156,-0.62549 -1.78906,-0.62549 -1.47656,0 -2.54102,1.22607 -2.54102,2.72754 v 0.0249 c 0,1.50146 1.03906,2.75293 2.54102,2.75293 0.8125,0 1.35059,-0.25049 1.90137,-0.68848 0.14941,-0.125 0.35059,-0.2124 0.5752,-0.2124 0.48828,0 0.90039,0.40039 0.90039,0.88818 0,0.30029 -0.14941,0.53809 -0.32422,0.68848 -0.78906,0.68799 -1.71484,1.10059 -3.11523,1.10059 -2.57812,0 -4.49219,-1.98926 -4.49219,-4.50391 z"
         style="fill:#1f1f1f"
         id="path175"
         inkscape:connector-curvature="0" />
      <path
         d="m 14.34863,23.93262 v -0.02539 c 0,-2.48975 1.96387,-4.5293 4.66699,-4.5293 2.70312,0 4.64258,2.01465 4.64258,4.50439 v 0.0249 c 0,2.49023 -1.96484,4.5293 -4.66797,4.5293 -2.70215,0 -4.6416,-2.01416 -4.6416,-4.50391 z m 7.29395,0 v -0.02539 c 0,-1.50146 -1.09961,-2.75244 -2.65234,-2.75244 -1.55078,0 -2.62695,1.22607 -2.62695,2.72754 v 0.0249 c 0,1.50146 1.10156,2.75293 2.65234,2.75293 1.55176,0 2.62695,-1.22656 2.62695,-2.72754 z"
         style="fill:#1f1f1f"
         id="path177"
         inkscape:connector-curvature="0" />
      <path
         d="m 25.4668,20.44141 c 0,-0.53809 0.42578,-0.96338 0.96484,-0.96338 h 0.21191 c 0.41309,0 0.7002,0.2124 0.87598,0.50049 l 2.32715,3.79102 2.33984,-3.80371 c 0.2002,-0.3252 0.47559,-0.48779 0.86328,-0.48779 h 0.21289 c 0.53809,0 0.96387,0.42529 0.96387,0.96338 v 6.95703 c 0,0.53809 -0.42578,0.96338 -0.96387,0.96338 -0.52539,0 -0.95117,-0.43799 -0.95117,-0.96338 v -4.36719 l -1.68848,2.60254 c -0.20117,0.30078 -0.45117,0.48828 -0.80078,0.48828 -0.35156,0 -0.60156,-0.1875 -0.80078,-0.48828 l -1.66406,-2.56445 v 4.354 c 0,0.52539 -0.42578,0.93848 -0.95117,0.93848 -0.52539,0 -0.93945,-0.41309 -0.93945,-0.93848 v -6.98193 z"
         style="fill:#1f1f1f"
         id="path179"
         inkscape:connector-curvature="0" />
      <path
         d="m 36.50391,20.49121 c 0,-0.5376 0.4248,-0.96289 0.96289,-0.96289 h 2.61523 c 2.08984,0 3.35352,1.23828 3.35352,3.02783 v 0.0249 c 0,2.02686 -1.57715,3.07812 -3.54102,3.07812 h -1.46484 v 1.73926 c 0,0.53809 -0.42578,0.96338 -0.96289,0.96338 -0.53809,0 -0.96289,-0.42529 -0.96289,-0.96338 V 20.4912 Z m 3.45312,3.45361 c 0.96289,0 1.52539,-0.57568 1.52539,-1.32617 v -0.0249 c 0,-0.86328 -0.59961,-1.32617 -1.56348,-1.32617 h -1.48926 v 2.67725 h 1.52734 z"
         style="fill:#1f1f1f"
         id="path181"
         inkscape:connector-curvature="0" />
      <path
         d="m 43.85547,27.04785 3.05273,-6.89404 c 0.21289,-0.47559 0.60156,-0.76318 1.12695,-0.76318 h 0.11133 c 0.52637,0 0.90234,0.2876 1.11426,0.76318 l 3.05371,6.89404 c 0.0625,0.1377 0.09961,0.2627 0.09961,0.3877 0,0.51318 -0.40039,0.92627 -0.91406,0.92627 -0.44922,0 -0.75,-0.26318 -0.92578,-0.66357 l -0.58789,-1.37598 h -3.85352 l -0.61328,1.43896 c -0.16211,0.37549 -0.48828,0.60059 -0.88867,0.60059 -0.5,0 -0.88867,-0.40039 -0.88867,-0.90088 0,-0.1377 0.05078,-0.27539 0.11328,-0.41309 z M 49.27344,24.6206 48.05957,21.73046 46.8457,24.6206 h 2.42773 z"
         style="fill:#1f1f1f"
         id="path183"
         inkscape:connector-curvature="0" />
      <path
         d="m 53.83594,20.49121 c 0,-0.5376 0.4248,-0.96289 0.96289,-0.96289 h 3.04102 c 1.11328,0 1.97656,0.3125 2.55176,0.88818 0.4873,0.48779 0.75098,1.17627 0.75098,2.00195 v 0.0249 c 0,1.37646 -0.68848,2.22754 -1.75195,2.66504 l 1.33887,1.62695 c 0.1875,0.2373 0.31348,0.4375 0.31348,0.73828 0,0.5376 -0.45117,0.88818 -0.91406,0.88818 -0.4375,0 -0.72559,-0.21289 -0.95117,-0.50049 l -1.87695,-2.37744 h -1.53906 v 1.91455 c 0,0.53809 -0.42578,0.96338 -0.96289,0.96338 -0.53809,0 -0.96289,-0.42529 -0.96289,-0.96338 v -6.90723 z m 3.87793,3.29102 c 0.93848,0 1.47656,-0.50049 1.47656,-1.23877 v -0.0249 c 0,-0.82617 -0.5752,-1.25098 -1.51465,-1.25098 h -1.91406 v 2.51465 z"
         style="fill:#1f1f1f"
         id="path185"
         inkscape:connector-curvature="0" />
      <path
         d="m 63.05273,27.32324 v -6.83203 c 0,-0.5376 0.42578,-0.96289 0.96289,-0.96289 h 4.85547 c 0.47461,0 0.86328,0.3877 0.86328,0.86328 0,0.47558 -0.38867,0.85059 -0.86328,0.85059 h -3.9043 v 1.77686 h 3.34082 c 0.47559,0 0.86328,0.3877 0.86328,0.86328 0,0.47558 -0.3877,0.85107 -0.86328,0.85107 h -3.34082 v 1.83887 h 3.9668 c 0.47461,0 0.86328,0.38818 0.86328,0.86328 0,0.47559 -0.38867,0.85107 -0.86328,0.85107 h -4.91797 c -0.53711,0 -0.96289,-0.42529 -0.96289,-0.96338 z"
         style="fill:#1f1f1f"
         id="path187"
         inkscape:connector-curvature="0" />
    </g>
  </g>
  <g
     id="uuid-ef489e74-cdae-4216-a1a6-bec845a6effa"
     data-name="components"
     style="display:none"
     inkscape:groupmode="layer">
    <circle
       id="uuid-981841a2-ad68-40d8-a495-5fdd5d88aea2"
       data-name="Bknob#RoundLargeBlackKnob"
       cx="37.33955"
       cy="78.999962"
       r="5"
       style="fill:#ff0000" />
    <circle
       id="uuid-b82648ea-8a15-4535-8a3f-52e6648097b9"
       data-name="Clip#TinyLight"
       cx="32.5597"
       cy="278.24713"
       r="1.5"
       style="fill:#ff00ff" />
    <circle
       id="uuid-6bbe5da3-35c6-423e-9344-e1f31f07819e"
       data-name="Lim#TinyLight"
       cx="64.559898"
       cy="278.2471"
       r="1.5"
       style="fill:#ff00ff" />
    <circle
       id="uuid-97c91f19-76d1-4aa4-a1dc-7980909503b1"
       data-name="AhtB#TinyLight"
       cx="32.559719"
       cy="323.01172"
       r="1.5"
       style="fill:#ff00ff" />
    <circle
       id="uuid-ef15dd2c-7557-4d12-b87c-c134361f587b"
       data-name="AltB#TinyLight"
       cx="64.559853"
       cy="323.01172"
       r="1.5"
       style="fill:#ff00ff" />
    <circle
       id="uuid-d2822757-0981-4064-8cdd-2086d71b3762"
       data-name="A#PJ301MPort"
       cx="21.551001"
       cy="154.45821"
       r="5"
       style="fill:#00ff00" />
    <circle
       id="uuid-a43dc027-f33a-4903-b3a3-72985a7298fe"
       data-name="B#PJ301MPort"
       cx="53.551128"
       cy="154.45821"
       r="5"
       style="fill:#00ff00" />
    <circle
       id="uuid-4de03138-9751-4407-88c8-f841967b4948"
       data-name="Max#PJ301MPort"
       cx="21.545441"
       cy="199.39957"
       r="5"
       style="fill:#0000ff" />
    <circle
       id="uuid-5b0b8408-13f8-4d97-ae01-ef7f26cbf4dd"
       data-name="Min#PJ301MPort"
       cx="53.54557"
       cy="199.39957"
       r="5"
       style="fill:#0000ff" />
    <circle
       id="uuid-4a65039c-220c-4c0a-b1b0-ebcb164e5c97"
       data-name="ClipCV#PJ301MPort"
       cx="21.545441"
       cy="244.28706"
       r="5"
       style="fill:#0000ff" />
    <circle
       id="uuid-c76c2ebb-06a4-438b-a398-3304bd12c1dc"
       data-name="LimCV#PJ301MPort"
       cx="53.54557"
       cy="244.28706"
       r="5"
       style="fill:#0000ff" />
    <circle
       id="uuid-81e755ca-eddd-4cc4-bf87-f3eff7a7cf03"
       data-name="ClipGate#PJ301MPort"
       cx="21.545441"
       cy="289.2471"
       r="5"
       style="fill:#0000ff" />
    <circle
       id="uuid-ba08c6c7-32e4-4d52-b9bc-a4caa1a81b8c"
       data-name="LimGate#PJ301MPort"
       cx="53.54557"
       cy="289.2471"
       r="5"
       style="fill:#0000ff" />
    <circle
       id="uuid-30744413-ecf6-4065-ac6f-ee8a7e81f645"
       data-name="AhtB#PJ301MPort"
       cx="21.545441"
       cy="334"
       r="5"
       style="fill:#0000ff" />
    <circle
       id="uuid-dc8780c4-a0f9-4b90-beeb-66035a9048e6"
       data-name="AltB#PJ301MPort"
       cx="53.54557"
       cy="334"
       r="5"
       style="fill:#0000ff" />
  </g>
</svg>
