<?xml version="1.0" encoding="UTF-8"?>
<svg xmlns="http://www.w3.org/2000/svg" width="75" height="380" xmlns:xlink="http://www.w3.org/1999/xlink" viewBox="0 0 75 380">
  <defs>
    <linearGradient id="uuid-71a778a9-6389-4421-bc00-6e545aa3f7fa" x1="37.5" y1="0" x2="37.5" y2="380" gradientUnits="userSpaceOnUse">
      <stop offset="0" stop-color="#2a2a2b"/>
      <stop offset="1" stop-color="#171717"/>
    </linearGradient>
  </defs>
  <g id="uuid-55579c79-e9ef-477a-81c0-4f70b37adb03" data-name="FND BG">
    <rect width="75" height="380" fill="url(#uuid-71a778a9-6389-4421-bc00-6e545aa3f7fa)"/>
  </g>
  <g id="uuid-88ac57a7-9e41-43c3-878f-7f3ead70b91a" data-name="FND GRAPH">
    <g>
      <rect x="7.22416" y="174.74294" width="28.55155" height="39.15691" rx="2.83465" ry="2.83465" fill="#ededed"/>
      <rect x="18.07571" y="196.25383" width="6.86765" height="6.64999" fill="#ededed"/>
    </g>
    <g>
      <rect x="39.22429" y="174.74294" width="28.55155" height="39.15691" rx="2.83465" ry="2.83465" fill="#ededed"/>
      <rect x="50.07584" y="196.25383" width="6.86765" height="6.64999" fill="#ededed"/>
    </g>
    <g>
      <rect x="7.22416" y="219.63044" width="28.55155" height="39.15691" rx="2.83465" ry="2.83465" fill="#ededed"/>
      <rect x="18.07571" y="241.14133" width="6.86765" height="6.64999" fill="#ededed"/>
    </g>
    <g>
      <rect x="39.22429" y="219.63044" width="28.55155" height="39.15691" rx="2.83465" ry="2.83465" fill="#ededed"/>
      <rect x="50.07584" y="241.14133" width="6.86765" height="6.64999" fill="#ededed"/>
    </g>
    <g>
      <rect x="7.22416" y="264.48514" width="28.55155" height="39.15691" rx="2.83465" ry="2.83465" fill="#ededed"/>
      <rect x="18.07571" y="285.99603" width="6.86765" height="6.64999" fill="#ededed"/>
    </g>
    <g>
      <rect x="39.22429" y="264.48514" width="28.55155" height="39.15691" rx="2.83465" ry="2.83465" fill="#ededed"/>
      <rect x="50.07584" y="285.99603" width="6.86765" height="6.64999" fill="#ededed"/>
    </g>
    <g>
      <rect x="7.22416" y="309.05634" width="28.55155" height="39.15691" rx="2.83465" ry="2.83465" fill="#ededed"/>
      <rect x="18.07571" y="330.56723" width="6.86765" height="6.64999" fill="#ededed"/>
    </g>
    <g>
      <rect x="39.22429" y="309.05634" width="28.55155" height="39.15691" rx="2.83465" ry="2.83465" fill="#ededed"/>
      <rect x="50.07584" y="330.56723" width="6.86765" height="6.64999" fill="#ededed"/>
    </g>
    <g>
      <circle cx="37.5" cy="78.9999" r="26.48818" fill="none" isolation="isolate" opacity=".69"/>
      <path d="m48.29822,97.10256c6.2955-3.78272,10.15833-10.61025,10.15833-17.95479,0-11.491-9.45566-20.94666-20.94666-20.94666s-20.94666,9.45566-20.94666,20.94666c0,7.39639,3.91756,14.2646,10.28394,18.02967" fill="none" stroke="#ededed" stroke-linecap="round" stroke-miterlimit="10" stroke-width=".8"/>
      <line x1="48.29822" y1="97.10256" x2="37.5" y2="78.9999" fill="none"/>
      <line x1="37.5099" y1="58.20111" x2="37.5099" y2="71.62269" fill="none" stroke="#ededed" stroke-linecap="round" stroke-miterlimit="10" stroke-width=".8"/>
    </g>
    <g>
      <circle cx="38.00165" cy="356.2678" r="1.18571" fill="#ededed"/>
      <path d="m29.35927,360.18977c-.34551,0-.66126-.1952-.8158-.50419l-2.96428-5.92856c-.22526-.45057-.04266-.99844.40794-1.2237.45008-.22535.99831-.04271,1.22366.4079l2.14848,4.29696,2.14848-4.29696c.22526-.45057.77314-.63325,1.22366-.4079.45061.22526.63321.77314.40794,1.2237l-2.96428,5.92856c-.15454.30899-.47029.50419-.8158.50419Z" fill="#ededed"/>
      <path d="m45.64073,360.18977c-.34551,0-.66126-.1952-.8158-.50419l-2.96428-5.92856c-.22526-.45057-.04266-.99844.40794-1.2237.45016-.22535.9984-.04271,1.22366.4079l2.14848,4.29696,2.14848-4.29696c.22526-.45057.77305-.63325,1.22366-.4079.45061.22526.63321.77314.40794,1.2237l-2.96428,5.92856c-.15454.30899-.47029.50419-.8158.50419Z" fill="#ededed"/>
      <path d="m37.94242,360.18977c-2.13744,0-3.87637-1.73893-3.87637-3.87637s1.73893-3.87637,3.87637-3.87637c.84653,0,1.65102.26819,2.32653.77554.40278.30253.48401.87428.18153,1.27705-.30248.40273-.87432.48401-1.2771.18148-.357-.26815-.78267-.4099-1.23096-.4099-1.13156,0-2.05219.92059-2.05219,2.05219s.92064,2.05219,2.05219,2.05219c.44829,0,.87396-.14176,1.23096-.4099.40269-.30271.97444-.22125,1.2771.18148.30248.40278.22125.97453-.18153,1.27705-.67551.50735-1.48.77554-2.32653.77554Z" fill="#ededed"/>
    </g>
  </g>
  <g id="uuid-dc4597e7-5150-4bf0-be15-6c1e925533d1" data-name="FND TXT">
    <g>
      <path d="m13.93555,180.37451c0-.2915.23047-.52197.52148-.52197h.11523c.22461,0,.37988.11523.47461.27148l1.25977,2.05273,1.26758-2.05957c.10742-.17627.25781-.26465.4668-.26465h.11523c.29102,0,.52148.23047.52148.52197v3.76709c0,.29102-.23047.52148-.52148.52148-.28418,0-.51465-.2373-.51465-.52148v-2.36475l-.91504,1.40918c-.10742.1626-.24414.26416-.43359.26416s-.32422-.10156-.43359-.26416l-.90039-1.38916v2.35791c0,.28467-.23047.5083-.51562.5083-.28418,0-.50781-.22363-.50781-.5083v-3.78027Z" fill="#1f1f1f"/>
      <path d="m19.68164,183.95166l1.65234-3.73291c.11523-.25781.32617-.41309.61035-.41309h.06152c.2832,0,.48633.15527.60156.41309l1.6543,3.73291c.0332.07471.05371.14209.05371.20996,0,.27783-.2168.50146-.49512.50146-.24414,0-.40625-.14258-.50098-.35938l-.31836-.74512h-2.08691l-.33203.7793c-.08789.20312-.26367.3252-.48047.3252-.27148,0-.48047-.2168-.48047-.48779,0-.07471.02637-.14893.06055-.22363Zm2.93359-1.31445l-.6582-1.56494-.65625,1.56494h1.31445Z" fill="#1f1f1f"/>
      <path d="m25.27734,183.78223l1.28027-1.57178-1.20605-1.47021c-.08203-.10156-.15625-.2373-.15625-.38623,0-.2915.2168-.51465.51562-.51465.22266,0,.35156.08789.48047.25732l1.03711,1.38184,1.0293-1.35449c.14258-.18311.27734-.28467.50781-.28467s.47461.18311.47461.48096c0,.14893-.05469.271-.15625.39941l-1.20508,1.47705,1.27344,1.56494c.08105.10156.15625.2373.15625.38623,0,.2915-.2168.51514-.51562.51514-.22266,0-.35156-.08789-.48047-.25781l-1.11133-1.45605-1.09766,1.4292c-.14258.18311-.27734.28467-.50781.28467s-.47461-.18311-.47461-.48145c0-.14844.05469-.27051.15625-.39941Z" fill="#1f1f1f"/>
    </g>
    <g>
      <path d="m47.08008,180.37451c0-.2915.22949-.52197.52148-.52197h.11523c.22266,0,.37891.11523.47363.27148l1.26074,2.05273,1.26562-2.05957c.10938-.17627.25781-.26465.46875-.26465h.11523c.29102,0,.52148.23047.52148.52197v3.76709c0,.29102-.23047.52148-.52148.52148-.28516,0-.51562-.2373-.51562-.52148v-2.36475l-.91406,1.40918c-.10938.1626-.24414.26416-.43359.26416s-.32617-.10156-.43359-.26416l-.90137-1.38916v2.35791c0,.28467-.23047.5083-.51465.5083-.28516,0-.50781-.22363-.50781-.5083v-3.78027Z" fill="#1f1f1f"/>
      <path d="m53.24414,180.36084c0-.2915.23047-.52148.52148-.52148s.52148.22998.52148.52148v3.78076c0,.29102-.23047.52148-.52148.52148s-.52148-.23047-.52148-.52148v-3.78076Z" fill="#1f1f1f"/>
      <path d="m55.69336,180.37451c0-.2915.23047-.52197.52148-.52197h.1084c.25098,0,.39941.12207.54199.30518l2.01172,2.64209v-2.4458c0-.28467.23047-.51465.51562-.51465.28418,0,.51465.22998.51465.51465v3.77393c0,.29102-.23047.52148-.52246.52148h-.0332c-.25,0-.40039-.12207-.54199-.30469l-2.08691-2.7373v2.54053c0,.28467-.23047.51514-.51465.51514s-.51465-.23047-.51465-.51514v-3.77344Z" fill="#1f1f1f"/>
    </g>
    <g>
      <path d="m13.57812,227.15234v-.01367c0-1.34814,1.0166-2.45215,2.47266-2.45215.71191,0,1.19336.18945,1.58594.48047.10742.08154.20312.23047.20312.41357,0,.28467-.23047.5083-.51562.5083-.1416,0-.23633-.05469-.31055-.10156-.29199-.2168-.59668-.33887-.96875-.33887-.7998,0-1.37598.66406-1.37598,1.47656v.01367c0,.81299.5625,1.49072,1.37598,1.49072.43945,0,.73047-.13574,1.0293-.37256.08105-.06787.18945-.11523.31152-.11523.26465,0,.4873.2168.4873.48096,0,.1626-.08008.2915-.17578.37256-.42676.37256-.92773.59619-1.6875.59619-1.39453,0-2.43164-1.07715-2.43164-2.43896Z" fill="#1f1f1f"/>
      <path d="m18.99609,225.24854c0-.2915.23047-.52148.52148-.52148s.52148.22998.52148.52148v3.31299h1.93164c.26367,0,.47461.20996.47461.47412s-.21094.47412-.47461.47412h-2.45312c-.29102,0-.52148-.22998-.52148-.52148v-3.73975Z" fill="#1f1f1f"/>
      <path d="m23.37109,225.24854c0-.2915.23047-.52148.52148-.52148s.52148.22998.52148.52148v3.78076c0,.29102-.23047.52148-.52148.52148s-.52148-.23047-.52148-.52148v-3.78076Z" fill="#1f1f1f"/>
      <path d="m25.82031,225.28906c0-.29102.23047-.52148.52148-.52148h1.41602c1.13086,0,1.81543.6709,1.81543,1.63965v.01367c0,1.09717-.85352,1.6665-1.91699,1.6665h-.79297v.94189c0,.29102-.23047.52148-.52148.52148s-.52148-.23047-.52148-.52148v-3.74023Zm1.86914,1.87012c.52148,0,.82715-.31152.82715-.71826v-.01318c0-.46777-.3252-.71875-.84668-.71875h-.80664v1.4502h.82617Z" fill="#1f1f1f"/>
    </g>
    <g>
      <path d="m47.70898,225.24805c0-.29102.23047-.52148.52246-.52148s.52148.23047.52148.52148v3.31299h1.93066c.26465,0,.47461.20996.47461.47412,0,.26465-.20996.47461-.47461.47461h-2.45215c-.29199,0-.52246-.23047-.52246-.52197v-3.73975Z" fill="#1f1f1f"/>
      <path d="m52.08496,225.24805c0-.29102.22949-.52148.52148-.52148s.52148.23047.52148.52148v3.78027c0,.2915-.22949.52197-.52148.52197s-.52148-.23047-.52148-.52197v-3.78027Z" fill="#1f1f1f"/>
      <path d="m54.5332,225.26172c0-.2915.23047-.52148.52246-.52148h.11523c.22363,0,.37988.11523.47363.27051l1.26074,2.05273,1.2666-2.05957c.1084-.17578.25781-.26367.46777-.26367h.11523c.29102,0,.52148.22998.52148.52148v3.7666c0,.2915-.23047.52197-.52148.52197-.28418,0-.51465-.2373-.51465-.52197v-2.36426l-.91504,1.40918c-.1084.1626-.24316.26416-.43359.26416s-.3252-.10156-.43359-.26416l-.90137-1.38867v2.35742c0,.28467-.23047.5083-.51465.5083s-.50879-.22363-.50879-.5083v-3.78027Z" fill="#1f1f1f"/>
    </g>
    <g>
      <path d="m13.57422,272.00635v-.01367c0-1.34814,1.01562-2.45264,2.47266-2.45264.71094,0,1.19238.18994,1.58594.48145.10742.08105.20312.23047.20312.41309,0,.28467-.23047.50781-.51562.50781-.14258,0-.23633-.05371-.31152-.10156-.29199-.2168-.59668-.33838-.96875-.33838-.7998,0-1.37598.66357-1.37598,1.47705v.01318c0,.81299.5625,1.49072,1.37598,1.49072.44043,0,.73145-.13574,1.03027-.37305.08008-.06738.18945-.11475.31055-.11475.26465,0,.48828.2168.48828.48096,0,.1626-.08105.29102-.17578.37256-.42773.37256-.92773.59619-1.6875.59619-1.39551,0-2.43164-1.07715-2.43164-2.43896Z" fill="#1f1f1f"/>
      <path d="m18.99219,270.10254c0-.29102.23047-.52148.52148-.52148s.52148.23047.52148.52148v3.31299h1.93164c.26367,0,.47363.20996.47363.47412,0,.26465-.20996.47461-.47363.47461h-2.45312c-.29102,0-.52148-.23047-.52148-.52197v-3.73975Z" fill="#1f1f1f"/>
      <path d="m23.36719,270.10254c0-.29102.22949-.52148.52148-.52148.29102,0,.52148.23047.52148.52148v3.78027c0,.2915-.23047.52197-.52148.52197-.29199,0-.52148-.23047-.52148-.52197v-3.78027Z" fill="#1f1f1f"/>
      <path d="m25.81641,270.14355c0-.2915.22949-.52197.52148-.52197h1.41602c1.13086,0,1.81445.67041,1.81445,1.63965v.01318c0,1.09766-.85352,1.66699-1.91602,1.66699h-.79297v.94141c0,.2915-.23047.52197-.52148.52197-.29199,0-.52148-.23047-.52148-.52197v-3.73926Zm1.86914,1.86963c.52148,0,.82617-.31201.82617-.71826v-.01367c0-.46729-.32422-.71777-.84668-.71777h-.80566v1.44971h.82617Z" fill="#1f1f1f"/>
    </g>
    <g>
      <path d="m47.70898,270.10254c0-.29102.23047-.52148.52246-.52148s.52148.23047.52148.52148v3.31299h1.93066c.26465,0,.47461.20996.47461.47412,0,.26465-.20996.47461-.47461.47461h-2.45215c-.29199,0-.52246-.23047-.52246-.52197v-3.73975Z" fill="#1f1f1f"/>
      <path d="m52.08496,270.10254c0-.29102.22949-.52148.52148-.52148s.52148.23047.52148.52148v3.78027c0,.2915-.22949.52197-.52148.52197s-.52148-.23047-.52148-.52197v-3.78027Z" fill="#1f1f1f"/>
      <path d="m54.5332,270.11621c0-.2915.23047-.52148.52246-.52148h.11523c.22363,0,.37988.11523.47363.27051l1.26074,2.05273,1.2666-2.05957c.1084-.17578.25781-.26367.46777-.26367h.11523c.29102,0,.52148.22998.52148.52148v3.7666c0,.2915-.23047.52197-.52148.52197-.28418,0-.51465-.2373-.51465-.52197v-2.36426l-.91504,1.40918c-.1084.1626-.24316.26416-.43359.26416s-.3252-.10156-.43359-.26416l-.90137-1.38867v2.35742c0,.28467-.23047.5083-.51465.5083s-.50879-.22363-.50879-.5083v-3.78027Z" fill="#1f1f1f"/>
    </g>
    <g>
      <path d="m14.49512,318.23877l1.65332-3.73291c.11523-.25781.3252-.41309.60938-.41309h.06055c.28516,0,.48828.15527.60352.41309l1.65332,3.73291c.03418.07471.05371.14209.05371.20996,0,.27783-.2168.50146-.49414.50146-.24414,0-.40625-.14258-.50195-.35938l-.31836-.74512h-2.08594l-.33203.7793c-.08789.20312-.26367.3252-.48047.3252-.27148,0-.48242-.2168-.48242-.48779,0-.07471.02734-.14893.06152-.22363Zm2.93359-1.31445l-.65723-1.56494-.65625,1.56494h1.31348Z" fill="#1f1f1f"/>
      <path d="m20.67578,314.83105l2.2832,1.08398c.25781.12207.41309.31152.41309.57568v.06787c0,.26416-.15527.4541-.41309.57568l-2.2832,1.08398c-.08203.04053-.15625.06787-.25098.06787-.2168.00684-.41309-.18262-.41309-.42676,0-.19629.1084-.33203.28516-.41309l2.04492-.91504-2.04492-.91455c-.17676-.08105-.28516-.23682-.28516-.42676,0-.25049.19629-.42676.44727-.41992.07422,0,.14844.02686.2168.06104Z" fill="#1f1f1f"/>
      <path d="m24.47461,314.68848c0-.29102.22949-.52148.52148-.52148h1.67969c.54199,0,.96875.14893,1.24023.41992.2168.2168.32422.48145.32422.80664v.01318c0,.53516-.28418.8335-.62305,1.02295.54883.20996.8877.52832.8877,1.16553v.01318c0,.86719-.7041,1.30078-1.77441,1.30078h-1.73438c-.29199,0-.52148-.22998-.52148-.52148v-3.69922Zm1.97754,1.39551c.45996,0,.75195-.14844.75195-.50098v-.01367c0-.31152-.24316-.48779-.68457-.48779h-1.0293v1.00244h.96191Zm.27832,1.91113c.45996,0,.73828-.16309.73828-.51514v-.01367c0-.31836-.2373-.51514-.77344-.51514h-1.20508v1.04395h1.24023Z" fill="#1f1f1f"/>
    </g>
    <g>
      <path d="m46.58398,318.23877l1.6543-3.73291c.11523-.25781.32422-.41309.60938-.41309h.06055c.28516,0,.48828.15527.60352.41309l1.65234,3.73291c.03418.07471.05469.14209.05469.20996,0,.27783-.2168.50146-.49414.50146-.24414,0-.40625-.14258-.50195-.35938l-.31836-.74512h-2.08594l-.33203.7793c-.08887.20312-.26465.3252-.48145.3252-.27051,0-.48145-.2168-.48145-.48779,0-.07471.02734-.14893.06055-.22363Zm2.93359-1.31445l-.65625-1.56494-.6582,1.56494h1.31445Z" fill="#1f1f1f"/>
      <path d="m54.46289,318.21826l-2.2832-1.08398c-.25781-.12158-.41309-.31152-.41309-.57568v-.06787c0-.26416.15527-.45361.41309-.57568l2.2832-1.08398c.08203-.04102.15625-.06787.25098-.06787.2168-.00684.41309.18311.41309.42676,0,.19678-.1084.33203-.28516.41357l-2.04492.91406,2.04492.91504c.17676.08105.28516.2373.28516.42676,0,.25049-.19629.42676-.44727.41992-.07422,0-.14844-.02734-.2168-.06104Z" fill="#1f1f1f"/>
      <path d="m56.38477,314.68848c0-.29102.23047-.52148.52148-.52148h1.68066c.54199,0,.96875.14893,1.23926.41992.2168.2168.32617.48145.32617.80664v.01318c0,.53516-.28516.8335-.62305,1.02295.54785.20996.88672.52832.88672,1.16553v.01318c0,.86719-.70508,1.30078-1.77539,1.30078h-1.73438c-.29102,0-.52148-.22998-.52148-.52148v-3.69922Zm1.97852,1.39551c.46094,0,.75195-.14844.75195-.50098v-.01367c0-.31152-.24414-.48779-.68359-.48779h-1.03027v1.00244h.96191Zm.27734,1.91113c.46094,0,.73828-.16309.73828-.51514v-.01367c0-.31836-.23633-.51514-.77148-.51514h-1.20605v1.04395h1.23926Z" fill="#1f1f1f"/>
    </g>
    <path d="m19.26953,139.13867l1.76172-3.9292c.09375-.20996.26367-.33887.50098-.33887h.04004c.2373,0,.40039.12891.49512.33887l1.76074,3.9292c.03418.06152.04785.12207.04785.17627,0,.22363-.16895.3999-.39258.3999-.19629,0-.33203-.11523-.40723-.2915l-.38574-.88721h-2.30371l-.39941.91455c-.06738.16943-.20996.26416-.38574.26416-.2168,0-.38672-.16943-.38672-.38623,0-.06104.02051-.12207.05469-.18994Zm3.10254-1.34131l-.83301-1.91748-.83398,1.91748h1.66699Z" fill="#ebebeb"/>
    <path d="m51.71289,135.3584c0-.2373.18359-.41992.41992-.41992h1.70703c.54297,0,.96875.14893,1.24023.41992.20996.20996.31836.46777.31836.78613v.01367c0,.56885-.3252.87402-.67773,1.05664.55566.18945.94238.50781.94238,1.15186v.01318c0,.84717-.69824,1.30078-1.75488,1.30078h-1.77539c-.23633,0-.41992-.18262-.41992-.41992v-3.90234Zm1.95801,1.57861c.53516,0,.89453-.20996.89453-.64355v-.01367c0-.37256-.29785-.60303-.83301-.60303h-1.19922v1.26025h1.1377Zm.24414,2.00537c.56934,0,.91504-.22363.91504-.65039v-.01367c0-.39941-.31934-.63672-.97656-.63672h-1.32031v1.30078h1.38184Z" fill="#ebebeb"/>
    <g>
      <path d="m16.10156,45.78613c0-.29199.22559-.51758.51758-.51758h2.10352c.66797,0,1.19336.18359,1.52734.51758.25879.25879.39258.57568.39258.96777v.01709c0,.70068-.40039,1.07666-.83496,1.30225.68457.2334,1.16016.62598,1.16016,1.41895v.0166c0,1.04297-.85938,1.60254-2.16113,1.60254h-2.1875c-.29199,0-.51758-.22559-.51758-.51758v-4.80762Zm2.41211,1.94434c.66016,0,1.10254-.25879,1.10254-.79297v-.0166c0-.45898-.36719-.74268-1.02637-.74268h-1.47754v1.55225h1.40137Zm.30078,2.4707c.70117,0,1.12695-.27539,1.12695-.80078v-.01709c0-.49268-.39258-.78467-1.20215-.78467h-1.62695v1.60254h1.70215Z" fill="#ebebeb"/>
      <path d="m24.37305,48.20654v-.01709c0-1.64404,1.26855-3.021,3.0625-3.021,1.79492,0,3.04688,1.36035,3.04688,3.00439v.0166c0,1.64453-1.26855,3.02148-3.06348,3.02148-1.79395,0-3.0459-1.36035-3.0459-3.00439Zm5.03223,0v-.01709c0-1.13477-.82617-2.07812-1.98633-2.07812s-1.96973.92676-1.96973,2.06152v.0166c0,1.13574.82617,2.07031,1.98633,2.07031s1.96973-.91797,1.96973-2.05322Z" fill="#ebebeb"/>
      <path d="m31.90918,45.78613c0-.29199.22559-.51758.5166-.51758h3.40625c.25879,0,.4668.2085.4668.46729s-.20801.46729-.4668.46729h-2.89648v1.59473h2.52051c.25879,0,.46777.20801.46777.4668s-.20898.46777-.46777.46777h-2.52051v1.91113c0,.28418-.22559.50928-.50977.50928-.29102,0-.5166-.2251-.5166-.50928v-4.85742Z" fill="#ebebeb"/>
      <path d="m37.48047,45.78613c0-.29199.22559-.51758.51758-.51758h3.40527c.25879,0,.46777.2085.46777.46729s-.20898.46729-.46777.46729h-2.89551v1.59473h2.52051c.25879,0,.4668.20801.4668.4668s-.20801.46777-.4668.46777h-2.52051v1.91113c0,.28418-.22559.50928-.50977.50928-.29199,0-.51758-.2251-.51758-.50928v-4.85742Z" fill="#ebebeb"/>
      <path d="m42.86328,50.45996c-.11719-.0835-.20117-.22559-.20117-.39209,0-.26709.2168-.47607.48438-.47607.1416,0,.2334.04199.30078.0918.48438.38428,1.00098.60107,1.63574.60107.63379,0,1.03516-.30029,1.03516-.73438v-.0166c0-.41748-.23438-.64307-1.31934-.89307-1.24316-.30078-1.94434-.66797-1.94434-1.74463v-.0166c0-1.00146.83496-1.69434,1.99512-1.69434.73438,0,1.32617.19189,1.85254.54248.11621.06689.22559.20898.22559.40918,0,.2666-.2168.47559-.48438.47559-.09961,0-.18359-.02539-.26758-.0752-.4502-.29199-.88477-.44238-1.34375-.44238-.60059,0-.95117.30859-.95117.69287v.0166c0,.45068.26758.65088,1.39453.91846,1.23438.30029,1.86914.74268,1.86914,1.71094v.0166c0,1.09326-.85938,1.74414-2.08691,1.74414-.79297,0-1.54395-.25-2.19434-.73438Z" fill="#ebebeb"/>
      <path d="m48.56543,50.59375v-4.80762c0-.29199.22559-.51758.51758-.51758h3.39746c.25,0,.45898.2085.45898.45898,0,.25879-.20898.45898-.45898.45898h-2.88867v1.51904h2.5127c.25,0,.45898.2085.45898.46729,0,.25098-.20898.45117-.45898.45117h-2.5127v1.56885h2.92969c.25,0,.45898.2085.45898.45947,0,.2583-.20898.45898-.45898.45898h-3.43848c-.29199,0-.51758-.22559-.51758-.51758Z" fill="#ebebeb"/>
      <path d="m55.84375,46.21973h-1.41992c-.2666,0-.47461-.2168-.47461-.47559s.20801-.47559.47461-.47559h3.88184c.25879,0,.46777.2168.46777.47559s-.20898.47559-.46777.47559h-1.42773v4.42383c0,.28418-.2334.50928-.5166.50928-.28418,0-.51758-.2251-.51758-.50928v-4.42383Z" fill="#ebebeb"/>
    </g>
    <g>
      <path d="m5.26953,23.93262v-.02539c0-2.48975,1.87695-4.5293,4.56641-4.5293,1.31445,0,2.20215.35059,2.92773.88867.20117.1499.375.4248.375.7627,0,.52588-.4248.93848-.9502.93848-.2627,0-.43848-.09961-.5752-.1875-.53906-.40039-1.10156-.62549-1.78906-.62549-1.47656,0-2.54102,1.22607-2.54102,2.72754v.0249c0,1.50146,1.03906,2.75293,2.54102,2.75293.8125,0,1.35059-.25049,1.90137-.68848.14941-.125.35059-.2124.5752-.2124.48828,0,.90039.40039.90039.88818,0,.30029-.14941.53809-.32422.68848-.78906.68799-1.71484,1.10059-3.11523,1.10059-2.57812,0-4.49219-1.98926-4.49219-4.50391Z" fill="#ebebeb"/>
      <path d="m14.34863,23.93262v-.02539c0-2.48975,1.96387-4.5293,4.66699-4.5293s4.64258,2.01465,4.64258,4.50439v.0249c0,2.49023-1.96484,4.5293-4.66797,4.5293-2.70215,0-4.6416-2.01416-4.6416-4.50391Zm7.29395,0v-.02539c0-1.50146-1.09961-2.75244-2.65234-2.75244-1.55078,0-2.62695,1.22607-2.62695,2.72754v.0249c0,1.50146,1.10156,2.75293,2.65234,2.75293,1.55176,0,2.62695-1.22656,2.62695-2.72754Z" fill="#ebebeb"/>
      <path d="m25.4668,20.44141c0-.53809.42578-.96338.96484-.96338h.21191c.41309,0,.7002.2124.87598.50049l2.32715,3.79102,2.33984-3.80371c.2002-.3252.47559-.48779.86328-.48779h.21289c.53809,0,.96387.42529.96387.96338v6.95703c0,.53809-.42578.96338-.96387.96338-.52539,0-.95117-.43799-.95117-.96338v-4.36719l-1.68848,2.60254c-.20117.30078-.45117.48828-.80078.48828-.35156,0-.60156-.1875-.80078-.48828l-1.66406-2.56445v4.354c0,.52539-.42578.93848-.95117.93848s-.93945-.41309-.93945-.93848v-6.98193Z" fill="#ebebeb"/>
      <path d="m36.50391,20.49121c0-.5376.4248-.96289.96289-.96289h2.61523c2.08984,0,3.35352,1.23828,3.35352,3.02783v.0249c0,2.02686-1.57715,3.07812-3.54102,3.07812h-1.46484v1.73926c0,.53809-.42578.96338-.96289.96338-.53809,0-.96289-.42529-.96289-.96338v-6.90723Zm3.45312,3.45361c.96289,0,1.52539-.57568,1.52539-1.32617v-.0249c0-.86328-.59961-1.32617-1.56348-1.32617h-1.48926v2.67725h1.52734Z" fill="#ebebeb"/>
      <path d="m43.85547,27.04785l3.05273-6.89404c.21289-.47559.60156-.76318,1.12695-.76318h.11133c.52637,0,.90234.2876,1.11426.76318l3.05371,6.89404c.0625.1377.09961.2627.09961.3877,0,.51318-.40039.92627-.91406.92627-.44922,0-.75-.26318-.92578-.66357l-.58789-1.37598h-3.85352l-.61328,1.43896c-.16211.37549-.48828.60059-.88867.60059-.5,0-.88867-.40039-.88867-.90088,0-.1377.05078-.27539.11328-.41309Zm5.41797-2.42725l-1.21387-2.89014-1.21387,2.89014h2.42773Z" fill="#ebebeb"/>
      <path d="m53.83594,20.49121c0-.5376.4248-.96289.96289-.96289h3.04102c1.11328,0,1.97656.3125,2.55176.88818.4873.48779.75098,1.17627.75098,2.00195v.0249c0,1.37646-.68848,2.22754-1.75195,2.66504l1.33887,1.62695c.1875.2373.31348.4375.31348.73828,0,.5376-.45117.88818-.91406.88818-.4375,0-.72559-.21289-.95117-.50049l-1.87695-2.37744h-1.53906v1.91455c0,.53809-.42578.96338-.96289.96338-.53809,0-.96289-.42529-.96289-.96338v-6.90723Zm3.87793,3.29102c.93848,0,1.47656-.50049,1.47656-1.23877v-.0249c0-.82617-.5752-1.25098-1.51465-1.25098h-1.91406v2.51465h1.95215Z" fill="#ebebeb"/>
      <path d="m63.05273,27.32324v-6.83203c0-.5376.42578-.96289.96289-.96289h4.85547c.47461,0,.86328.3877.86328.86328s-.38867.85059-.86328.85059h-3.9043v1.77686h3.34082c.47559,0,.86328.3877.86328.86328s-.3877.85107-.86328.85107h-3.34082v1.83887h3.9668c.47461,0,.86328.38818.86328.86328,0,.47559-.38867.85107-.86328.85107h-4.91797c-.53711,0-.96289-.42529-.96289-.96338Z" fill="#ebebeb"/>
    </g>
  </g>
</svg>