<?xml version="1.0" encoding="UTF-8"?>
<svg xmlns="http://www.w3.org/2000/svg" width="45" height="380" xmlns:xlink="http://www.w3.org/1999/xlink" viewBox="0 0 45 380">
  <defs>
    <linearGradient id="uuid-c338646c-2e10-4460-a326-ee7c559ace15" x1="22.5" y1="0" x2="22.5" y2="380" gradientUnits="userSpaceOnUse">
      <stop offset="0" stop-color="#2a2a2b"/>
      <stop offset="1" stop-color="#171717"/>
    </linearGradient>
  </defs>
  <g id="uuid-f74d66fe-028b-4a6a-978c-0f3873add569" data-name="FND BG">
    <rect width="45" height="380" fill="url(#uuid-c338646c-2e10-4460-a326-ee7c559ace15)"/>
  </g>
  <g id="uuid-e97ef412-cb09-470f-a3e2-86366a1f19f3" data-name="FND GRAPH">
    <path d="m22.82204,210.73147l1.65796-2.87167c.14313-.24791-.03578-.55779-.32204-.55779h-3.31592c-.28626,0-.46517.30989-.32204.55779l1.65796,2.87167c.14313.24791.50096.24791.64409,0Z" fill="#ededed"/>
    <g>
      <line x1="22.50002" y1="60.47645" x2="22.50002" y2="56.75319" fill="none" stroke="#ededed" stroke-linecap="round" stroke-linejoin="round" stroke-width=".8"/>
      <path d="m31.13564,87.30507c4.83522-2.92859,8.06662-8.2395,8.06662-14.30514,0-9.23-7.48239-16.71239-16.71239-16.71239s-16.71239,7.48239-16.71239,16.71239c0,6.09737,3.2653,11.4321,8.14264,14.35091" fill="none" stroke="#ededed" stroke-linecap="round" stroke-linejoin="round" stroke-width=".8"/>
      <circle cx="22.5" cy="72.9999" r="20.69419" fill="none" isolation="isolate" opacity=".69"/>
    </g>
    <g>
      <line x1="22.50002" y1="109.47655" x2="22.50002" y2="105.75329" fill="none" stroke="#ededed" stroke-linecap="round" stroke-linejoin="round" stroke-width=".8"/>
      <path d="m31.13564,136.30517c4.83522-2.92859,8.06662-8.2395,8.06662-14.30514,0-9.23-7.48239-16.71239-16.71239-16.71239s-16.71239,7.48239-16.71239,16.71239c0,6.09737,3.2653,11.4321,8.14264,14.35091" fill="none" stroke="#ededed" stroke-linecap="round" stroke-linejoin="round" stroke-width=".8"/>
      <circle cx="22.5" cy="122" r="20.69419" fill="none" isolation="isolate" opacity=".69"/>
    </g>
    <g>
      <line x1="22.50002" y1="158.47655" x2="22.50002" y2="154.75329" fill="none" stroke="#ededed" stroke-linecap="round" stroke-linejoin="round" stroke-width=".8"/>
      <path d="m31.13564,185.30517c4.83522-2.92859,8.06662-8.2395,8.06662-14.30514,0-9.23-7.48239-16.71239-16.71239-16.71239s-16.71239,7.48239-16.71239,16.71239c0,6.09737,3.2653,11.4321,8.14264,14.35091" fill="none" stroke="#ededed" stroke-linecap="round" stroke-linejoin="round" stroke-width=".8"/>
      <circle cx="22.5" cy="171" r="20.69419" fill="none" isolation="isolate" opacity=".69"/>
    </g>
    <line x1="22.5" y1="43.95696" x2="22.5" y2="52.04472" fill="none" stroke="#ededed" stroke-linecap="round" stroke-linejoin="round" stroke-width=".8"/>
    <line x1="22.5" y1="141.3302" x2="22.5" y2="148.9148" fill="none" stroke="#ededed" stroke-linecap="round" stroke-linejoin="round" stroke-width=".666"/>
    <line x1="22.5" y1="92.33016" x2="22.5" y2="99.91476" fill="none" stroke="#ededed" stroke-linecap="round" stroke-linejoin="round" stroke-width=".666"/>
    <g>
      <circle cx="23.00165" cy="355.84251" r="1.18571" fill="#ededed"/>
      <path d="m14.35927,359.76448c-.34551,0-.66126-.1952-.8158-.50419l-2.96428-5.92856c-.22526-.45057-.04266-.99844.40794-1.2237.45008-.22535.99831-.04271,1.22366.4079l2.14848,4.29696,2.14848-4.29696c.22526-.45057.77314-.63325,1.22366-.4079.45061.22526.63321.77314.40794,1.2237l-2.96428,5.92856c-.15454.30899-.47029.50419-.8158.50419Z" fill="#ededed"/>
      <path d="m30.64073,359.76448c-.34551,0-.66126-.1952-.8158-.50419l-2.96428-5.92856c-.22526-.45057-.04266-.99844.40794-1.2237.45016-.22535.9984-.04271,1.22366.4079l2.14848,4.29696,2.14848-4.29696c.22526-.45057.77305-.63325,1.22366-.4079.45061.22526.63321.77314.40794,1.2237l-2.96428,5.92856c-.15454.30899-.47029.50419-.8158.50419Z" fill="#ededed"/>
      <path d="m22.94242,359.76448c-2.13744,0-3.87637-1.73893-3.87637-3.87637s1.73893-3.87637,3.87637-3.87637c.84653,0,1.65102.26819,2.32653.77554.40278.30253.48401.87428.18153,1.27705-.30248.40273-.87432.48401-1.2771.18148-.357-.26815-.78267-.4099-1.23096-.4099-1.13156,0-2.05219.92059-2.05219,2.05219s.92064,2.05219,2.05219,2.05219c.44829,0,.87396-.14176,1.23096-.4099.40269-.30271.97444-.22125,1.2771.18148.30248.40278.22125.97453-.18153,1.27705-.67551.50735-1.48.77554-2.32653.77554Z" fill="#ededed"/>
    </g>
    <line x1="22.5" y1="226.01171" x2="22.5" y2="312.92473" fill="none" stroke="#ededed" stroke-linecap="round" stroke-linejoin="round" stroke-width=".666"/>
    <rect x="8.22422" y="309.05634" width="28.55155" height="39.15691" rx="2.83465" ry="2.83465" fill="#ededed"/>
  </g>
  <g id="uuid-8cbf3599-0e7f-4b08-bd5e-990af6aae634" data-name="FND TXT">
    <g>
      <path d="m17.31445,199.85938l-.48828.14893c-.04688.01367-.1084.02051-.14941.02051-.19629,0-.36621-.1626-.36621-.35205,0-.17676.10938-.31201.27832-.35938l.71777-.23047c.16309-.04736.28516-.07422.40625-.07422h.01367c.23828,0,.41406.18262.41406.41309v4.01074c0,.23047-.18359.41309-.41406.41309-.22266,0-.41211-.18262-.41211-.41309v-3.57715Z" fill="#ebebeb"/>
      <path d="m19.38477,201.45801v-.01318c0-1.35498.82617-2.45264,2.07324-2.45264,1.23926,0,2.05957,1.08398,2.05957,2.43896v.01367c0,1.35498-.82617,2.45264-2.07324,2.45264s-2.05957-1.08398-2.05957-2.43945Zm3.27246,0v-.01318c0-.93506-.48145-1.70068-1.21289-1.70068s-1.19922.74512-1.19922,1.68701v.01367c0,.93506.47363,1.70068,1.21289,1.70068.73828,0,1.19922-.75879,1.19922-1.6875Z" fill="#ebebeb"/>
      <path d="m25.90625,203.54492l-1.65918-3.90234c-.02734-.06104-.04785-.12207-.04785-.19629,0-.22363.18359-.40674.41992-.40674.2168,0,.35938.12207.42773.29834l1.36816,3.4209,1.38867-3.44824c.05371-.14209.2041-.271.39941-.271.23047,0,.41406.17627.41406.3999,0,.06055-.02051.12891-.04102.17578l-1.66602,3.92969c-.08887.20996-.24414.33887-.48145.33887h-.04785c-.23047,0-.38574-.12891-.47461-.33887Z" fill="#ebebeb"/>
    </g>
    <path d="m15.20703,47.98096c0-.26367.21484-.47949.4707-.47949h1.50391c.25586,0,.47168.21582.47168.47949,0,.25586-.21582.47217-.47168.47217h-1.50391c-.25586,0-.4707-.21631-.4707-.47217Z" fill="#ebebeb"/>
    <path d="m28.0918,48.44141h-1.13477c-.24023,0-.43945-.19141-.43945-.43945,0-.23975.19922-.43945.43945-.43945h1.13477v-1.11182c0-.25586.2002-.45557.45605-.45557.24707,0,.45605.19971.45605.45557v1.11182h1.13477c.24023,0,.43945.19971.43945.43945,0,.24805-.19922.43945-.43945.43945h-1.13477v1.11182c0,.25586-.20898.45557-.45605.45557-.25586,0-.45605-.19971-.45605-.45557v-1.11182Z" fill="#ebebeb"/>
    <g>
      <path d="m3.24023,23.93164v-.0249c0-2.48975,1.87695-4.5293,4.56641-4.5293,1.31445,0,2.20312.3501,2.92871.88818.2002.15039.375.42578.375.76367,0,.52539-.4248.93848-.9502.93848-.26367,0-.43848-.10059-.57617-.18799-.53809-.40039-1.10156-.62549-1.78906-.62549-1.47656,0-2.54004,1.22607-2.54004,2.72754v.0249c0,1.50146,1.03809,2.75293,2.54004,2.75293.8125,0,1.35156-.25049,1.90234-.68799.14941-.12549.34961-.21289.57422-.21289.48828,0,.90137.40039.90137.88818,0,.30029-.14941.53809-.3252.68799-.78809.68848-1.71387,1.10156-3.11523,1.10156-2.57812,0-4.49219-1.98975-4.49219-4.50488Z" fill="#ebebeb"/>
      <path d="m14.65234,27.66064l-2.84082-6.79443c-.0625-.1499-.1123-.2998-.1123-.46289,0-.53809.42578-.95068.96289-.95068.50098,0,.82617.2876.97656.67529l2.18945,5.66797,2.21484-5.73047c.125-.3125.46289-.61279.92578-.61279.52539,0,.95117.40039.95117.92578,0,.1499-.05078.31299-.10059.42529l-2.86523,6.85693c-.2002.4751-.56348.76318-1.08887.76318h-.125c-.52539,0-.88867-.28809-1.08789-.76318Z" fill="#ebebeb"/>
      <path d="m20.68945,20.44092c0-.53809.42578-.96338.96387-.96338h.21191c.41406,0,.70117.21289.87695.50049l2.32617,3.7915,2.33984-3.80371c.20117-.32568.47656-.48828.86328-.48828h.21289c.53906,0,.96387.42529.96387.96338v6.95654c0,.53809-.4248.96387-.96387.96387-.52539,0-.95117-.43799-.95117-.96387v-4.36621l-1.68848,2.60254c-.2002.2998-.4502.48779-.80078.48779s-.60059-.18799-.80078-.48779l-1.66406-2.56543v4.35449c0,.52539-.4248.93848-.95117.93848-.52539,0-.93848-.41309-.93848-.93848v-6.98193Z" fill="#ebebeb"/>
      <path d="m31.14258,20.41602c0-.53809.42578-.96338.96387-.96338s.96387.42529.96387.96338v6.98145c0,.53809-.42578.96387-.96387.96387s-.96387-.42578-.96387-.96387v-6.98145Z" fill="#ebebeb"/>
      <path d="m34.39844,26.73438l2.36426-2.90234-2.22754-2.71533c-.14941-.18799-.28711-.43799-.28711-.71338,0-.53809.40039-.95068.95117-.95068.41211,0,.65039.1626.8877.4751l1.91504,2.55273,1.90137-2.50244c.2627-.33789.5127-.52539.93848-.52539s.87598.3374.87598.88818c0,.27539-.10059.50049-.28809.73828l-2.22656,2.72754,2.35156,2.89062c.15039.1875.28809.4375.28809.71289,0,.53809-.40039.95117-.95117.95117-.41309,0-.65039-.16309-.8877-.47559l-2.05273-2.69043-2.02734,2.64062c-.26172.33789-.51172.52539-.9375.52539s-.87598-.33789-.87598-.88867c0-.27539.10059-.5.28809-.73828Z" fill="#ebebeb"/>
    </g>
    <g>
      <path d="m16.38672,314.66113c0-.2915.23047-.52148.52246-.52148h.11523c.22363,0,.37988.11523.47363.27051l1.26074,2.05273,1.2666-2.05957c.1084-.17578.25781-.26367.46777-.26367h.11523c.29102,0,.52148.22998.52148.52148v3.7666c0,.2915-.23047.52197-.52148.52197-.28418,0-.51465-.2373-.51465-.52197v-2.36426l-.91504,1.40918c-.1084.1626-.24316.26416-.43359.26416s-.3252-.10156-.43359-.26416l-.90137-1.38867v2.35742c0,.28467-.23047.5083-.51465.5083s-.50879-.22363-.50879-.5083v-3.78027Z" fill="#1f1f1f"/>
      <path d="m22.55273,314.64746c0-.29102.22949-.52148.52148-.52148.29102,0,.52148.23047.52148.52148v3.78027c0,.2915-.23047.52197-.52148.52197-.29199,0-.52148-.23047-.52148-.52197v-3.78027Z" fill="#1f1f1f"/>
      <path d="m24.8252,318.06885l1.28027-1.57178-1.20508-1.47021c-.08203-.10156-.15625-.23682-.15625-.38623,0-.29102.2168-.51465.51465-.51465.22363,0,.35254.08789.48145.25732l1.03613,1.38232,1.03027-1.35547c.14258-.18262.27734-.28418.50781-.28418s.47461.18262.47461.48096c0,.14893-.05469.271-.15625.3999l-1.20605,1.47656,1.27441,1.56543c.08008.10156.15527.23682.15527.38574,0,.2915-.2168.51514-.51465.51514-.22363,0-.35254-.08838-.48145-.25732l-1.11035-1.45703-1.09766,1.42969c-.14258.18262-.27832.28467-.50781.28467-.23047,0-.47461-.18311-.47461-.48096,0-.14941.05371-.27148.15527-.3999Z" fill="#1f1f1f"/>
    </g>
  </g>
</svg>