<?xml version="1.0" encoding="UTF-8" standalone="no"?>
<svg
   xmlns:dc="http://purl.org/dc/elements/1.1/"
   xmlns:cc="http://creativecommons.org/ns#"
   xmlns:rdf="http://www.w3.org/1999/02/22-rdf-syntax-ns#"
   xmlns:svg="http://www.w3.org/2000/svg"
   xmlns="http://www.w3.org/2000/svg"
   xmlns:sodipodi="http://sodipodi.sourceforge.net/DTD/sodipodi-0.dtd"
   xmlns:inkscape="http://www.inkscape.org/namespaces/inkscape"
   width="134.99999"
   height="380"
   viewBox="0 0 134.99999 380"
   version="1.1"
   id="svg232"
   sodipodi:docname="DELAY.svg"
   inkscape:version="0.92.3 (2405546, 2018-03-11)">
  <metadata
     id="metadata236">
    <rdf:RDF>
      <cc:Work
         rdf:about="">
        <dc:format>image/svg+xml</dc:format>
        <dc:type
           rdf:resource="http://purl.org/dc/dcmitype/StillImage" />
      </cc:Work>
    </rdf:RDF>
  </metadata>
  <sodipodi:namedview
     pagecolor="#ffffff"
     bordercolor="#666666"
     borderopacity="1"
     objecttolerance="10"
     gridtolerance="10"
     guidetolerance="10"
     inkscape:pageopacity="0"
     inkscape:pageshadow="2"
     inkscape:window-width="1920"
     inkscape:window-height="1017"
     id="namedview234"
     showgrid="false"
     inkscape:zoom="0.62105263"
     inkscape:cx="67.499992"
     inkscape:cy="190"
     inkscape:window-x="-8"
     inkscape:window-y="-8"
     inkscape:window-maximized="1"
     inkscape:current-layer="svg232" />
  <defs
     id="defs7">
    <linearGradient
       id="b4cd9c1b-4507-462d-8544-10081f6efec0"
       x1="67.49999"
       x2="67.49999"
       y2="380"
       gradientUnits="userSpaceOnUse">
      <stop
         offset="0"
         stop-color="#ebebeb"
         id="stop2" />
      <stop
         offset="1"
         stop-color="#e1e1e1"
         id="stop4" />
    </linearGradient>
  </defs>
  <g
     id="e0550b12-6d7b-4874-8e2e-f5d6c960d134"
     data-name="FND BG">
    <rect
       width="134.99999"
       height="380"
       fill="url(#b4cd9c1b-4507-462d-8544-10081f6efec0)"
       id="rect9" />
  </g>
  <g
     id="ae4c5001-d221-412c-abb3-d19d79fe7eca"
     data-name="FND GRAPH">
    <rect
       x="69.16269"
       y="309.0301"
       width="60.65033"
       height="39.15691"
       rx="2.83465"
       fill="#1f1f1f"
       id="rect12" />
    <g
       id="g22">
      <path
         d="M59.35927,359.753a.91214.91214,0,0,1-.8158-.50418l-2.96428-5.92857a.91209.91209,0,0,1,1.6316-.8158l2.14848,4.297,2.14848-4.297a.91209.91209,0,0,1,1.6316.8158l-2.96428,5.92857A.91211.91211,0,0,1,59.35927,359.753Z"
         fill="#1f1f1f"
         id="path14" />
      <path
         d="M75.64073,359.753a.91211.91211,0,0,1-.8158-.50418l-2.96428-5.92857a.91209.91209,0,0,1,1.6316-.8158l2.14848,4.297,2.14848-4.297a.91209.91209,0,0,1,1.6316.8158l-2.96428,5.92857A.91214.91214,0,0,1,75.64073,359.753Z"
         fill="#1f1f1f"
         id="path16" />
      <path
         d="M67.94242,359.753a3.87637,3.87637,0,1,1,2.32653-6.97719.91209.91209,0,1,1-1.09557,1.45854,2.034,2.034,0,0,0-1.231-.40991,2.0522,2.0522,0,1,0,0,4.10439,2.034,2.034,0,0,0,1.231-.40991.91209.91209,0,1,1,1.09557,1.45854A3.8448,3.8448,0,0,1,67.94242,359.753Z"
         fill="#1f1f1f"
         id="path18" />
      <circle
         cx="68.00165"
         cy="355.83101"
         r="1.18571"
         fill="#1f1f1f"
         id="circle20" />
    </g>
    <line
       x1="14.99723"
       y1="202"
       x2="119.99723"
       y2="202"
       fill="none"
       stroke="#1f1f1f"
       stroke-linecap="round"
       stroke-linejoin="round"
       stroke-width="0.8"
       id="line24" />
    <g
       id="g34">
      <circle
         cx="97.14341"
         cy="166.5"
         r="26.48818"
         fill="none"
         opacity="0.69"
         style="isolation: isolate"
         id="circle26" />
      <path
         d="M107.94163,184.60266a20.94666,20.94666,0,1,0-21.45105.07488"
         fill="none"
         stroke="#1f1f1f"
         stroke-linecap="round"
         stroke-miterlimit="10"
         stroke-width="0.8"
         id="path28" />
      <line
         x1="107.94163"
         y1="184.60266"
         x2="97.14341"
         y2="166.5"
         fill="none"
         id="line30" />
      <line
         x1="97.1533"
         y1="145.70121"
         x2="97.1533"
         y2="159.12279"
         fill="none"
         stroke="#1f1f1f"
         stroke-linecap="round"
         stroke-miterlimit="10"
         stroke-width="0.8"
         id="line32" />
    </g>
    <g
       id="g44">
      <circle
         cx="37.14341"
         cy="166.5"
         r="26.48818"
         fill="none"
         opacity="0.69"
         style="isolation: isolate"
         id="circle36" />
      <path
         d="M47.94163,184.60266a20.94666,20.94666,0,1,0-21.451.07488"
         fill="none"
         stroke="#1f1f1f"
         stroke-linecap="round"
         stroke-miterlimit="10"
         stroke-width="0.8"
         id="path38" />
      <line
         x1="47.94163"
         y1="184.60266"
         x2="37.14341"
         y2="166.5"
         fill="none"
         id="line40" />
      <line
         x1="37.15331"
         y1="145.70121"
         x2="37.15331"
         y2="159.12279"
         fill="none"
         stroke="#1f1f1f"
         stroke-linecap="round"
         stroke-miterlimit="10"
         stroke-width="0.8"
         id="line42" />
    </g>
    <g
       id="g52">
      <circle
         cx="37.14341"
         cy="78.97799"
         r="26.48818"
         fill="none"
         opacity="0.69"
         style="isolation: isolate"
         id="circle46" />
      <path
         d="M47.94163,97.08065a20.94666,20.94666,0,1,0-21.451.07488"
         fill="none"
         stroke="#1f1f1f"
         stroke-linecap="round"
         stroke-miterlimit="10"
         stroke-width="0.8"
         id="path48" />
      <line
         x1="47.94163"
         y1="97.08065"
         x2="37.14341"
         y2="78.97799"
         fill="none"
         id="line50" />
    </g>
    <g
       id="g60">
      <circle
         cx="97.14341"
         cy="78.97799"
         r="26.48818"
         fill="none"
         opacity="0.69"
         style="isolation: isolate"
         id="circle54" />
      <path
         d="M107.94163,97.08065a20.94666,20.94666,0,1,0-21.45105.07488"
         fill="none"
         stroke="#1f1f1f"
         stroke-linecap="round"
         stroke-miterlimit="10"
         stroke-width="0.8"
         id="path56" />
      <line
         x1="107.94163"
         y1="97.08065"
         x2="97.14341"
         y2="78.97799"
         fill="none"
         id="line58" />
    </g>
    <g
       id="g68">
      <line
         x1="19.50278"
         y1="250.87459"
         x2="19.50278"
         y2="260.07654"
         fill="none"
         stroke="#1f1f1f"
         stroke-linecap="round"
         stroke-linejoin="round"
         stroke-width="0.8"
         id="line62" />
      <line
         x1="19.50278"
         y1="226.54018"
         x2="19.50278"
         y2="238.01957"
         fill="none"
         stroke="#1f1f1f"
         stroke-linecap="round"
         stroke-linejoin="round"
         id="line64" />
      <path
         d="M11.34932,246.15346a11.53074,11.53074,0,1,1,16.30693,0"
         fill="none"
         stroke="#1f1f1f"
         stroke-linecap="round"
         stroke-linejoin="round"
         id="path66" />
    </g>
    <g
       id="g76">
      <line
         x1="51.50579"
         y1="250.87459"
         x2="51.50579"
         y2="260.07654"
         fill="none"
         stroke="#1f1f1f"
         stroke-linecap="round"
         stroke-linejoin="round"
         stroke-width="0.8"
         id="line70" />
      <line
         x1="51.50579"
         y1="226.54018"
         x2="51.50579"
         y2="238.01957"
         fill="none"
         stroke="#1f1f1f"
         stroke-linecap="round"
         stroke-linejoin="round"
         id="line72" />
      <path
         d="M43.35233,246.15346a11.53074,11.53074,0,1,1,16.30693,0"
         fill="none"
         stroke="#1f1f1f"
         stroke-linecap="round"
         stroke-linejoin="round"
         id="path74" />
    </g>
    <g
       id="g84">
      <line
         x1="83.50881"
         y1="250.87459"
         x2="83.50881"
         y2="260.07654"
         fill="none"
         stroke="#1f1f1f"
         stroke-linecap="round"
         stroke-linejoin="round"
         stroke-width="0.8"
         id="line78" />
      <line
         x1="83.50881"
         y1="226.54018"
         x2="83.50881"
         y2="238.01957"
         fill="none"
         stroke="#1f1f1f"
         stroke-linecap="round"
         stroke-linejoin="round"
         id="line80" />
      <path
         d="M75.35534,246.15346a11.53074,11.53074,0,1,1,16.30693,0"
         fill="none"
         stroke="#1f1f1f"
         stroke-linecap="round"
         stroke-linejoin="round"
         id="path82" />
    </g>
    <g
       id="g92">
      <line
         x1="115.51182"
         y1="250.87459"
         x2="115.51182"
         y2="260.07654"
         fill="none"
         stroke="#1f1f1f"
         stroke-linecap="round"
         stroke-linejoin="round"
         stroke-width="0.8"
         id="line86" />
      <line
         x1="115.51182"
         y1="226.54018"
         x2="115.51182"
         y2="238.01957"
         fill="none"
         stroke="#1f1f1f"
         stroke-linecap="round"
         stroke-linejoin="round"
         id="line88" />
      <path
         d="M107.35835,246.15346a11.53075,11.53075,0,1,1,16.30693,0"
         fill="none"
         stroke="#1f1f1f"
         stroke-linecap="round"
         stroke-linejoin="round"
         id="path90" />
    </g>
  </g>
  <g
     id="bc3493b7-77d8-4b6a-8124-9b52f940f53d"
     data-name="FND TXT">
    <g
       id="g101">
      <path
         d="M89.84668,132.6084a.51474.51474,0,0,1,.51758-.51758h.1084a.54189.54189,0,0,1,.47656.27539l1.76953,2.77051,1.77734-2.7793a.51651.51651,0,0,1,.4668-.2666h.10938a.51535.51535,0,0,1,.51757.51758V137.499a.5084.5084,0,0,1-.51757.50928.51743.51743,0,0,1-.50977-.50928v-3.50537l-1.42773,2.145a.47917.47917,0,0,1-.85938,0l-1.418-2.12842v3.49756a.49985.49985,0,0,1-.50976.50049.49245.49245,0,0,1-.501-.50049Z"
         fill="#1f1f1f"
         id="path95" />
      <path
         d="M97.35449,132.59131a.5132.5132,0,0,1,1.02637,0V137.499a.5132.5132,0,0,1-1.02637,0Z"
         fill="#1f1f1f"
         id="path97" />
      <path
         d="M99.83984,137.14844l1.73536-2.15332-1.63575-2.02832a.65307.65307,0,0,1-.1582-.38379.49384.49384,0,0,1,.50879-.501.5293.5293,0,0,1,.46777.25049l1.47657,1.94482,1.46093-1.91113a.57781.57781,0,0,1,.501-.28418.47163.47163,0,0,1,.46777.46777.60078.60078,0,0,1-.15918.39209l-1.63574,2.03663,1.71875,2.145a.63313.63313,0,0,1,.15918.38427.49431.49431,0,0,1-.50879.50049.52826.52826,0,0,1-.46777-.25049l-1.56934-2.04492-1.54394,2.01172a.58678.58678,0,0,1-.501.28369.46787.46787,0,0,1-.4668-.47607A.63536.63536,0,0,1,99.83984,137.14844Z"
         fill="#1f1f1f"
         id="path99" />
    </g>
    <g
       id="g111">
      <path
         d="M28.624,46.20605H27.20508a.47583.47583,0,0,1,0-.95166h3.88183a.47592.47592,0,0,1,0,.95166H29.65918v4.42383a.51766.51766,0,0,1-1.03516,0Z"
         fill="#1f1f1f"
         id="path103" />
      <path
         d="M32.74707,45.72217a.5132.5132,0,0,1,1.02637,0v4.90771a.5132.5132,0,0,1-1.02637,0Z"
         fill="#1f1f1f"
         id="path105" />
      <path
         d="M35.52539,45.73877a.515.515,0,0,1,.51758-.51758h.1084a.53911.53911,0,0,1,.47558.27539l1.76953,2.771,1.77832-2.7793a.516.516,0,0,1,.4668-.26709H40.751a.51421.51421,0,0,1,.5166.51758v4.89111a.50686.50686,0,0,1-.5166.50879.517.517,0,0,1-.50977-.50879V47.124l-1.42676,2.145a.47995.47995,0,0,1-.86035,0l-1.41894-2.12793v3.49707a.49813.49813,0,0,1-.50879.50049.49157.49157,0,0,1-.501-.50049Z"
         fill="#1f1f1f"
         id="path107" />
      <path
         d="M43.00586,50.57959V45.772a.50992.50992,0,0,1,.51758-.51758H46.9209a.46363.46363,0,0,1,.459.45948.45812.45812,0,0,1-.459.459H44.03223v1.519h2.51269a.46436.46436,0,0,1,.459.46729.45547.45547,0,0,1-.459.45068H44.03223V50.1792h2.92968a.46341.46341,0,0,1,.46.459.458.458,0,0,1-.46.459H43.52344A.50992.50992,0,0,1,43.00586,50.57959Z"
         fill="#1f1f1f"
         id="path109" />
    </g>
    <g
       id="g121">
      <path
         d="M85.65039,45.772a.50992.50992,0,0,1,.51758-.51758h3.40527a.46753.46753,0,1,1,0,.93506H86.67676v1.59424h2.52148a.46729.46729,0,0,1,0,.93457H86.67676v1.91162a.5132.5132,0,0,1-1.02637,0Z"
         fill="#1f1f1f"
         id="path113" />
      <path
         d="M91.22461,45.772a.50992.50992,0,0,1,.51758-.51758h1.66113a2.91223,2.91223,0,0,1,3.10449,2.90479v.0166a2.92473,2.92473,0,0,1-3.10449,2.92139H91.74219a.50992.50992,0,0,1-.51758-.51758Zm2.17871,4.39063a1.90484,1.90484,0,0,0,2.02832-1.97022v-.0166a1.91736,1.91736,0,0,0-2.02832-1.98633H92.251V50.1626Z"
         fill="#1f1f1f"
         id="path115" />
      <path
         d="M97.9209,45.772a.50991.50991,0,0,1,.51758-.51758H100.542a2.10848,2.10848,0,0,1,1.52735.51758,1.30912,1.30912,0,0,1,.39257.96826v.01661a1.39263,1.39263,0,0,1-.835,1.30224,1.43228,1.43228,0,0,1,1.16016,1.41895v.0166c0,1.04346-.85938,1.60254-2.16211,1.60254H98.43848a.50991.50991,0,0,1-.51758-.51758ZM100.333,47.7168c.65918,0,1.10156-.25879,1.10156-.793v-.0166c0-.459-.36719-.74268-1.02637-.74268H98.93066V47.7168Zm.30078,2.4707c.70117,0,1.12695-.27539,1.12695-.80127v-.0166c0-.49268-.39258-.78467-1.20215-.78467H98.93066V50.1875Z"
         fill="#1f1f1f"
         id="path117" />
      <path
         d="M104.18359,45.72217a.5132.5132,0,0,1,1.02637,0v2.47021l2.77149-2.78759a.5411.5411,0,0,1,.42578-.1919.46953.46953,0,0,1,.47558.47559.499.499,0,0,1-.18359.38427l-1.81934,1.75245,1.96973,2.4458a.55767.55767,0,0,1,.1416.36718.50088.50088,0,0,1-.51758.50049.51929.51929,0,0,1-.43359-.2417l-1.87793-2.39551-.95215.918v1.21045a.5132.5132,0,0,1-1.02637,0Z"
         fill="#1f1f1f"
         id="path119" />
    </g>
    <g
       id="g133">
      <path
         d="M46.68164,20.49121a.95607.95607,0,0,1,.96387-.96289h2.45215a4.36505,4.36505,0,0,1,4.65429,4.354v.02491a4.38461,4.38461,0,0,1-4.65429,4.37939H47.64551a.95618.95618,0,0,1-.96387-.96338Zm3.416,6.05615a2.49573,2.49573,0,0,0,2.64062-2.61474v-.02539a2.5154,2.5154,0,0,0-2.64062-2.63965H48.60938v5.27978Z"
         fill="#1f1f1f"
         id="path123" />
      <path
         d="M56.53418,27.32324v-6.832a.95607.95607,0,0,1,.96387-.96289h4.85449a.86482.86482,0,0,1,.86328.86328.854.854,0,0,1-.86328.85059H58.44922V23.019h3.33984a.86419.86419,0,0,1,.86328.86328.85384.85384,0,0,1-.86328.85108H58.44922v1.83887H62.415a.86513.86513,0,0,1,.86328.86328.85445.85445,0,0,1-.86328.85107h-4.917A.95618.95618,0,0,1,56.53418,27.32324Z"
         fill="#1f1f1f"
         id="path125" />
      <path
         d="M65.043,20.4165a.96387.96387,0,0,1,1.92773,0v6.11866h3.56543a.87573.87573,0,1,1,0,1.75146H66.00684a.95618.95618,0,0,1-.96387-.96338Z"
         fill="#1f1f1f"
         id="path127" />
      <path
         d="M72.57031,27.04785l3.05274-6.894a1.19058,1.19058,0,0,1,1.126-.76319h.11231a1.17307,1.17307,0,0,1,1.11328.76319l3.05371,6.894a.94139.94139,0,0,1,.10059.3877.91359.91359,0,0,1-.91407.92627.98119.98119,0,0,1-.92578-.66358l-.58789-1.376H74.84766l-.61328,1.439a.94693.94693,0,0,1-.88868.60059.88716.88716,0,0,1-.88867-.90088A1.02513,1.02513,0,0,1,72.57031,27.04785Zm5.418-2.42724-1.21484-2.89014-1.21289,2.89014Z"
         fill="#1f1f1f"
         id="path129" />
      <path
         d="M84.09668,24.9082l-2.82715-3.84082a1.13673,1.13673,0,0,1-.23828-.68847.94063.94063,0,0,1,.96289-.92579,1.10733,1.10733,0,0,1,.95117.5879l2.127,3.06543,2.165-3.09034a1.10423,1.10423,0,0,1,.92579-.57568.89316.89316,0,0,1,.93847.93848,1.1987,1.1987,0,0,1-.25.67578l-2.82812,3.8164v2.52735a.96338.96338,0,1,1-1.92676,0Z"
         fill="#1f1f1f"
         id="path131" />
    </g>
    <g
       id="g143">
      <path
         d="M12.502,266.99463H11.35059a.38623.38623,0,1,1,0-.77246H14.501a.3863.3863,0,0,1,0,.77246H13.3418V270.585a.42.42,0,0,1-.83985,0Z"
         fill="#1f1f1f"
         id="path135" />
      <path
         d="M15.90625,266.60156a.417.417,0,0,1,.834,0v3.9834a.417.417,0,0,1-.834,0Z"
         fill="#1f1f1f"
         id="path137" />
      <path
         d="M18.21582,266.61523a.41742.41742,0,0,1,.41992-.41992h.08887a.43783.43783,0,0,1,.38574.22364l1.43653,2.249,1.44238-2.25586a.41957.41957,0,0,1,.37988-.2168H22.457a.41741.41741,0,0,1,.41992.41992V270.585a.41211.41211,0,0,1-.41992.41358.41943.41943,0,0,1-.41308-.41358v-2.84521L20.88477,269.481a.38872.38872,0,0,1-.69727,0l-1.15234-1.72754v2.83838a.4046.4046,0,0,1-.41211.40674.39991.39991,0,0,1-.40723-.40674Z"
         fill="#1f1f1f"
         id="path139" />
      <path
         d="M24.34375,270.54443v-3.90234a.4141.4141,0,0,1,.41992-.41992h2.75781a.3764.3764,0,0,1,.373.37256.372.372,0,0,1-.373.37256H25.17773v1.23291H27.2168a.37747.37747,0,0,1,.37207.37988.36972.36972,0,0,1-.37207.36572H25.17773v1.27344h2.377a.3764.3764,0,0,1,.373.37256.37237.37237,0,0,1-.373.373h-2.791A.41421.41421,0,0,1,24.34375,270.54443Z"
         fill="#1f1f1f"
         id="path141" />
    </g>
    <g
       id="g153">
      <path
         d="M42.08789,266.64209a.41432.41432,0,0,1,.4209-.41992h2.76367a.3794.3794,0,1,1,0,.75879H42.92188v1.29394h2.04589a.3794.3794,0,1,1,0,.75879H42.92188V270.585a.417.417,0,0,1-.834,0Z"
         fill="#1f1f1f"
         id="path145" />
      <path
         d="M46.6709,266.64209a.41351.41351,0,0,1,.41992-.41992h1.34863a2.36331,2.36331,0,0,1,2.51953,2.35791v.01318a2.37412,2.37412,0,0,1-2.51953,2.37158H47.09082a.41362.41362,0,0,1-.41992-.42041Zm1.76855,3.564a1.54588,1.54588,0,0,0,1.64649-1.59912v-.01367a1.55613,1.55613,0,0,0-1.64649-1.6123h-.93554v3.22509Z"
         fill="#1f1f1f"
         id="path147" />
      <path
         d="M52.16309,266.64209a.4135.4135,0,0,1,.41992-.41992H54.29a1.714,1.714,0,0,1,1.24023.41992,1.06286,1.06286,0,0,1,.31836.78613v.01319a1.12945,1.12945,0,0,1-.67773,1.05713,1.16374,1.16374,0,0,1,.94238,1.15185v.01367c0,.84668-.69824,1.30078-1.75586,1.30078H52.583a.41361.41361,0,0,1-.41992-.42041Zm1.958,1.57861c.53516,0,.89453-.21.89453-.64355v-.01367c0-.37256-.29882-.60254-.834-.60254H52.98242v1.25976Zm.24414,2.00537c.56836,0,.91407-.22363.91407-.65039v-.01318c0-.3999-.31836-.63721-.97559-.63721H52.98242v1.30078Z"
         fill="#1f1f1f"
         id="path149" />
      <path
         d="M57.30078,266.60156a.417.417,0,0,1,.834,0v2.00537l2.249-2.26269a.43647.43647,0,0,1,.3457-.15576.38087.38087,0,0,1,.38574.38574.40584.40584,0,0,1-.14843.312l-1.47657,1.42236,1.59864,1.98536a.45222.45222,0,0,1,.11425.29785.4065.4065,0,0,1-.41992.40674.42107.42107,0,0,1-.35156-.19678l-1.52441-1.94434-.77246.74512v.98242a.417.417,0,0,1-.834,0Z"
         fill="#1f1f1f"
         id="path151" />
    </g>
    <g
       id="g163">
      <path
         d="M75.05469,266.99463H73.90234a.38623.38623,0,1,1,0-.77246h3.15039a.3863.3863,0,0,1,0,.77246h-1.1582V270.585a.42.42,0,0,1-.83984,0Z"
         fill="#1f1f1f"
         id="path155" />
      <path
         d="M78.00879,268.60693v-.01367a2.48022,2.48022,0,0,1,4.96-.01318v.01318a2.48023,2.48023,0,0,1-4.96.01367Zm4.085,0v-.01367a1.62424,1.62424,0,0,0-1.61133-1.687,1.60262,1.60262,0,0,0-1.59961,1.67383v.01318a1.61938,1.61938,0,0,0,1.61328,1.68018A1.59572,1.59572,0,0,0,82.09375,268.60693Z"
         fill="#1f1f1f"
         id="path157" />
      <path
         d="M84.18555,266.61523a.418.418,0,0,1,.41992-.41992h.08789a.52523.52523,0,0,1,.43359.24365l2.3711,3.06885v-2.91308a.41017.41017,0,0,1,.82031,0v3.98339a.40484.40484,0,0,1-.40625.41358h-.03418a.52486.52486,0,0,1-.43359-.25049L85.00586,267.584v3.00782a.41017.41017,0,0,1-.82031,0Z"
         fill="#1f1f1f"
         id="path159" />
      <path
         d="M89.78125,270.54443v-3.90234a.4141.4141,0,0,1,.41992-.41992H92.959a.3764.3764,0,0,1,.37305.37256.372.372,0,0,1-.37305.37256H90.61523v1.23291H92.6543a.37747.37747,0,0,1,.37207.37988.36972.36972,0,0,1-.37207.36572H90.61523v1.27344h2.377a.3764.3764,0,0,1,.373.37256.37237.37237,0,0,1-.373.373h-2.791A.41421.41421,0,0,1,89.78125,270.54443Z"
         fill="#1f1f1f"
         id="path161" />
    </g>
    <g
       id="g171">
      <path
         d="M109.50977,266.61523a.41825.41825,0,0,1,.42089-.41992h.08789a.43786.43786,0,0,1,.38575.22364l1.43652,2.249,1.44336-2.25586a.41807.41807,0,0,1,.37891-.2168h.08886a.418.418,0,0,1,.41993.41992V270.585a.41272.41272,0,0,1-.41993.41358.41962.41962,0,0,1-.41406-.41358v-2.84521l-1.1582,1.74121a.38871.38871,0,0,1-.69727,0l-1.15234-1.72754v2.83838a.40483.40483,0,0,1-.41309.40674.3999.3999,0,0,1-.40722-.40674Z"
         fill="#1f1f1f"
         id="path165" />
      <path
         d="M115.66406,266.60156a.417.417,0,0,1,.834,0v3.9834a.417.417,0,0,1-.834,0Z"
         fill="#1f1f1f"
         id="path167" />
      <path
         d="M117.73926,270.30078l1.40918-1.748-1.32813-1.64648a.53467.53467,0,0,1-.1289-.31152.40114.40114,0,0,1,.41406-.40625.42727.42727,0,0,1,.37891.20312l1.19921,1.57861,1.18555-1.55126a.46768.46768,0,0,1,.40625-.23047.38244.38244,0,0,1,.37988.3789.49226.49226,0,0,1-.1289.31885l-1.32813,1.65283,1.39551,1.74121a.51124.51124,0,0,1,.12891.31153.40072.40072,0,0,1-.41309.40674.42928.42928,0,0,1-.37988-.20362l-1.27344-1.65967-1.25293,1.63282a.47741.47741,0,0,1-.40723.23047.37966.37966,0,0,1-.3789-.38624A.517.517,0,0,1,117.73926,270.30078Z"
         fill="#1f1f1f"
         id="path169" />
    </g>
    <g
       id="g179">
      <path
         d="M44.70508,316.55176v-.01319a2.40028,2.40028,0,0,1,2.44629-2.45263,2.48934,2.48934,0,0,1,1.626.53515.41706.41706,0,0,1,.16211.332.40442.40442,0,0,1-.41308.40626.40991.40991,0,0,1-.251-.08106,1.72034,1.72034,0,0,0-1.13086-.42676,1.5962,1.5962,0,0,0-1.56543,1.67334v.01367a1.598,1.598,0,0,0,1.56543,1.68018,1.69973,1.69973,0,0,0,1.18555-.4541.37655.37655,0,0,1,.25-.09473.39668.39668,0,0,1,.39355.38623.40175.40175,0,0,1-.13574.29785,2.42251,2.42251,0,0,1-1.7207.63721A2.38557,2.38557,0,0,1,44.70508,316.55176Z"
         fill="#1f1f1f"
         id="path173" />
      <path
         d="M50.12207,314.54688a.41652.41652,0,0,1,.833,0v3.604h2.14844a.3794.3794,0,0,1,0,.75879H50.542a.41351.41351,0,0,1-.41992-.41992Z"
         fill="#1f1f1f"
         id="path175" />
      <path
         d="M54.47559,314.54688a.41651.41651,0,0,1,.833,0v2.00488l2.25-2.2627a.438.438,0,0,1,.34571-.15576.38189.38189,0,0,1,.38574.38623.40506.40506,0,0,1-.14942.31152l-1.47656,1.42286,1.59864,1.98535a.44715.44715,0,0,1,.11523.29785.40611.40611,0,0,1-.41992.40625.42233.42233,0,0,1-.35254-.19629l-1.52442-1.94434-.77246.74512v.98242a.41651.41651,0,0,1-.833,0Z"
         fill="#1f1f1f"
         id="path177" />
    </g>
    <g
       id="g185">
      <path
         d="M16.30273,314.54688a.417.417,0,0,1,.834,0v3.98339a.417.417,0,0,1-.834,0Z"
         fill="#1f1f1f"
         id="path181" />
      <path
         d="M18.6123,314.56006a.41772.41772,0,0,1,.41993-.41992h.08789a.52255.52255,0,0,1,.43359.24365l2.37207,3.06933V314.54a.40968.40968,0,0,1,.81934,0v3.9834a.40441.40441,0,0,1-.40625.41308h-.03418a.5249.5249,0,0,1-.4336-.25048l-2.43847-3.15674v3.00781a.41018.41018,0,0,1-.82032,0Z"
         fill="#1f1f1f"
         id="path183" />
    </g>
    <g
       id="g193">
      <path
         d="M75.37793,314.83105a.66794.66794,0,0,1-.041-.19628.51816.51816,0,0,1,.53516-.50831.52559.52559,0,0,1,.50781.37256l.94239,2.90674.94824-2.87939a.549.549,0,0,1,.52832-.41309h.08105a.54251.54251,0,0,1,.5293.41309l.94824,2.87939.94141-2.90674a.52191.52191,0,0,1,.501-.37256.50356.50356,0,0,1,.51563.50147.71222.71222,0,0,1-.041.20312l-1.32812,3.72657a.57827.57827,0,0,1-.542.42676h-.1084a.5633.5633,0,0,1-.53516-.42676l-.93457-2.7168-.93457,2.7168a.56436.56436,0,0,1-.53613.42676h-.1084a.58.58,0,0,1-.542-.42676Z"
         fill="#f0f0f0"
         id="path187" />
      <path
         d="M83.27539,318.3877V314.689a.518.518,0,0,1,.52246-.522h2.62793a.46846.46846,0,0,1,.46777.46778.463.463,0,0,1-.46777.46093H84.3125v.96192h1.80859a.46835.46835,0,0,1,.46778.46728.46256.46256,0,0,1-.46778.46045H84.3125v.9961H86.46a.46845.46845,0,0,1,.46777.46777.46256.46256,0,0,1-.46777.46045H83.79785A.518.518,0,0,1,83.27539,318.3877Z"
         fill="#f0f0f0"
         id="path189" />
      <path
         d="M89.168,315.12939H88.165a.4812.4812,0,1,1,0-.9624h3.04883a.4812.4812,0,0,1,0,.9624H90.21094v3.29932a.52149.52149,0,1,1-1.043,0Z"
         fill="#f0f0f0"
         id="path191" />
    </g>
    <g
       id="g201">
      <path
         d="M109.38965,314.66211a.51779.51779,0,0,1,.52148-.522h.11524a.53624.53624,0,0,1,.47461.271l1.25976,2.05274,1.2666-2.05957a.512.512,0,0,1,.46778-.26416h.11523a.51779.51779,0,0,1,.52149.522v3.7666a.51808.51808,0,1,1-1.03614,0v-2.36426l-.915,1.40918a.48834.48834,0,0,1-.86718,0l-.90039-1.38916v2.35791a.50916.50916,0,0,1-.51563.50782.50313.50313,0,0,1-.50781-.50782Z"
         fill="#f0f0f0"
         id="path195" />
      <path
         d="M115.55469,314.64844a.52149.52149,0,1,1,1.043,0v3.78027a.52149.52149,0,1,1-1.043,0Z"
         fill="#f0f0f0"
         id="path197" />
      <path
         d="M117.82715,318.06934l1.28125-1.57129-1.20606-1.47071a.6327.6327,0,0,1-.15625-.38574.50225.50225,0,0,1,.51465-.51514.54926.54926,0,0,1,.48145.25733l1.03613,1.38232,1.03027-1.355a.59633.59633,0,0,1,.50782-.28467.47684.47684,0,0,1,.47461.481.61962.61962,0,0,1-.15625.3999l-1.20606,1.47706,1.27441,1.56494a.63775.63775,0,0,1,.15528.38623.50213.50213,0,0,1-.51465.51465.54823.54823,0,0,1-.48145-.25733l-1.11035-1.45654L118.6543,318.666a.59745.59745,0,0,1-.50879.28418.47632.47632,0,0,1-.47363-.481A.6204.6204,0,0,1,117.82715,318.06934Z"
         fill="#f0f0f0"
         id="path199" />
    </g>
    <g
       id="g211">
      <path
         d="M26.85938,133.0752h-1.418a.47559.47559,0,1,1,0-.95118h3.88086a.47567.47567,0,0,1,0,.95118H27.89453V137.499a.51764.51764,0,0,1-1.03515,0Z"
         fill="#1f1f1f"
         id="path203" />
      <path
         d="M30.419,135.062v-.01709a3.05549,3.05549,0,0,1,6.11035-.0166v.0166a3.05548,3.05548,0,0,1-6.11035.01709Zm5.0332,0v-.01709a2.00179,2.00179,0,0,0-1.98633-2.07812,1.97418,1.97418,0,0,0-1.96973,2.06152v.0166a1.99454,1.99454,0,0,0,1.98633,2.07031A1.96686,1.96686,0,0,0,35.45215,135.062Z"
         fill="#1f1f1f"
         id="path205" />
      <path
         d="M37.95508,132.6084a.51473.51473,0,0,1,.51758-.51758H38.582a.64472.64472,0,0,1,.5332.30029l2.92188,3.78077V132.583a.5049.5049,0,0,1,1.00977,0v4.90771a.499.499,0,0,1-.501.50928h-.042a.64505.64505,0,0,1-.53321-.30859l-3.00488-3.88965v3.70605a.50539.50539,0,0,1-1.01074,0Z"
         fill="#1f1f1f"
         id="path207" />
      <path
         d="M44.77734,137.44922V132.6416a.50992.50992,0,0,1,.51758-.51758h3.39649a.46257.46257,0,0,1,.459.459.4572.4572,0,0,1-.459.459h-2.8877v1.519h2.5127a.465.465,0,0,1,.459.46728.45619.45619,0,0,1-.459.45117h-2.5127v1.56885H48.7334a.46266.46266,0,0,1,.459.45947.45751.45751,0,0,1-.459.459H45.29492A.50992.50992,0,0,1,44.77734,137.44922Z"
         fill="#1f1f1f"
         id="path209" />
    </g>
  </g>
  <g
     id="b01d0a7e-58da-4174-a7ca-f9fd6b71e57a"
     data-name="components"
     inkscape:groupmode="layer"
     style="display:none">
    <circle
       id="bba5fcb5-0656-4d87-9a14-62bb1e60628b"
       data-name="Period#SmallLight"
       cx="67.138443"
       cy="48.5079"
       r="3"
       style="fill:#ff00ff" />
    <circle
       id="a07eb455-7c9b-4843-a84b-81758fe3bcb8"
       data-name="Tone#PJ301MPort"
       cx="83.497223"
       cy="285.884"
       r="5"
       style="fill:#00ff00" />
    <circle
       id="b7aad80c-43e6-4680-913c-f8cec603809f"
       data-name="Clk#PJ301MPort"
       cx="51.502731"
       cy="334"
       r="5"
       style="fill:#00ff00" />
    <circle
       id="a99a58e3-b5fb-47e4-b223-cc28dfb63878"
       data-name="In#PJ301MPort"
       cx="19.502781"
       cy="334"
       r="5"
       style="fill:#00ff00" />
    <circle
       id="bbe3a0ed-9b3a-441a-a661-84085e06ed49"
       data-name="Wet#PJ301MPort"
       cx="83.497223"
       cy="334"
       r="5"
       style="fill:#0000ff" />
    <circle
       id="a7ae4426-df0f-413c-8e3b-d037fa8a5644"
       data-name="Time#PJ301MPort"
       cx="19.502781"
       cy="286"
       r="5"
       style="fill:#00ff00" />
    <circle
       id="a00b6eaf-d649-44aa-8dd5-a2bc7d5323e8"
       data-name="Fdbck#PJ301MPort"
       cx="51.502731"
       cy="286"
       r="5"
       style="fill:#00ff00" />
    <circle
       id="b533782a-efe1-466a-99a1-399f9805b0d7"
       data-name="Mix#PJ301MPort"
       cx="115.49722"
       cy="285.884"
       r="5"
       style="fill:#00ff00" />
    <circle
       id="f592e13e-6a52-4bea-91df-7c9d62997e75"
       data-name="Mix#PJ301MPort"
       cx="115.49722"
       cy="334"
       r="5"
       style="fill:#0000ff" />
    <circle
       id="a6702351-c771-4531-850c-ac5ab32a8e19"
       data-name="Tone#RoundLargeBlackKnob"
       cx="37.14341"
       cy="166.5"
       r="5"
       style="fill:#ff0000" />
    <circle
       id="ece54f55-35c7-4a9a-abe4-24052957496c"
       data-name="Mix#RoundLargeBlackKnob"
       cx="97.14341"
       cy="166.5"
       r="5"
       style="fill:#ff0000" />
    <circle
       id="a460104b-e938-4d45-8e42-3ea69db3c1a8"
       data-name="Time#RoundLargeBlackKnob"
       cx="37.14341"
       cy="78.977989"
       r="5"
       style="fill:#ff0000" />
    <circle
       id="a9434cee-4a25-4820-accd-b49315b6505e"
       data-name="Fdbk#RoundLargeBlackKnob"
       cx="97.14341"
       cy="78.977989"
       r="5"
       style="fill:#ff0000" />
    <circle
       id="b8ce3742-0bbd-418b-9e21-404f6f96584f"
       data-name="ToneCv#Trimpot"
       cx="83.497223"
       cy="237.8764"
       r="5"
       style="fill:#ff0000" />
    <circle
       id="bba8a517-fb18-490e-8333-68c3d43c69e3"
       data-name="FdbkCv#Trimpot"
       cx="51.502731"
       cy="237.8764"
       r="5"
       style="fill:#ff0000" />
    <circle
       id="a0c8c458-b3f9-4916-b6f0-61b42740c3b2"
       data-name="TimeCv#Trimpot"
       cx="19.502781"
       cy="237.87637"
       r="5"
       style="fill:#ff0000" />
    <circle
       id="faa359ae-ca6e-41fa-9665-9643a578f42a"
       data-name="MixCv#Trimpot"
       cx="115.49722"
       cy="237.87637"
       r="5"
       style="fill:#ff0000" />
  </g>
</svg>
