<?xml version="1.0" encoding="UTF-8"?>
<svg xmlns="http://www.w3.org/2000/svg" width="134.99999" height="380" xmlns:xlink="http://www.w3.org/1999/xlink" viewBox="0 0 134.99999 380">
  <defs>
    <linearGradient id="uuid-94026cbd-4cc4-46b8-9383-7f2a183877e7" x1="67.49999" y1="0" x2="67.49999" y2="380" gradientUnits="userSpaceOnUse">
      <stop offset="0" stop-color="#2a2a2b"/>
      <stop offset="1" stop-color="#171717"/>
    </linearGradient>
  </defs>
  <g id="uuid-824b9654-a635-488e-8d31-0fa06374374c" data-name="FND BG">
    <rect width="134.99999" height="380" fill="url(#uuid-94026cbd-4cc4-46b8-9383-7f2a183877e7)"/>
  </g>
  <g id="uuid-b772d496-652f-4cd1-8e04-c3f4a2708a41" data-name="FND GRAPH">
    <rect x="69.16269" y="309.0301" width="60.65033" height="39.15691" rx="2.83465" ry="2.83465" fill="#ededed"/>
    <g>
      <path d="m59.35927,359.75298c-.34551,0-.66126-.1952-.8158-.50419l-2.96428-5.92856c-.22526-.45057-.04266-.99844.40794-1.2237.45008-.22535.99831-.04271,1.22366.4079l2.14848,4.29696,2.14848-4.29696c.22526-.45057.77314-.63325,1.22366-.4079.45061.22526.63321.77314.40794,1.2237l-2.96428,5.92856c-.15454.30899-.47029.50419-.8158.50419Z" fill="#ededed"/>
      <path d="m75.64073,359.75298c-.34551,0-.66126-.1952-.8158-.50419l-2.96428-5.92856c-.22526-.45057-.04266-.99844.40794-1.2237.45016-.22535.9984-.04271,1.22366.4079l2.14848,4.29696,2.14848-4.29696c.22526-.45057.77305-.63325,1.22366-.4079.45061.22526.63321.77314.40794,1.2237l-2.96428,5.92856c-.15454.30899-.47029.50419-.8158.50419Z" fill="#ededed"/>
      <path d="m67.94242,359.75298c-2.13744,0-3.87637-1.73893-3.87637-3.87637s1.73893-3.87637,3.87637-3.87637c.84653,0,1.65102.26819,2.32653.77554.40278.30253.48401.87428.18153,1.27705-.30248.40273-.87432.48401-1.2771.18148-.357-.26815-.78267-.4099-1.23096-.4099-1.13156,0-2.05219.92059-2.05219,2.05219s.92064,2.05219,2.05219,2.05219c.44829,0,.87396-.14176,1.23096-.4099.40269-.30271.97444-.22125,1.2771.18148.30248.40278.22125.97453-.18153,1.27705-.67551.50735-1.48.77554-2.32653.77554Z" fill="#ededed"/>
      <circle cx="68.00165" cy="355.83101" r="1.18571" fill="#ededed"/>
    </g>
    <line x1="14.99723" y1="202" x2="119.99723" y2="202" fill="none" stroke="#ededed" stroke-linecap="round" stroke-linejoin="round" stroke-width=".8"/>
    <g>
      <circle cx="97.14341" cy="166.5" r="26.48818" fill="none" isolation="isolate" opacity=".69"/>
      <path d="m107.94163,184.60266c6.2955-3.78272,10.15833-10.61025,10.15833-17.95479,0-11.491-9.45566-20.94666-20.94666-20.94666s-20.94666,9.45566-20.94666,20.94666c0,7.39639,3.91756,14.2646,10.28394,18.02967" fill="none" stroke="#ededed" stroke-linecap="round" stroke-miterlimit="10" stroke-width=".8"/>
      <line x1="107.94163" y1="184.60266" x2="97.14341" y2="166.5" fill="none"/>
      <line x1="97.1533" y1="145.70121" x2="97.1533" y2="159.12279" fill="none" stroke="#ededed" stroke-linecap="round" stroke-miterlimit="10" stroke-width=".8"/>
    </g>
    <g>
      <circle cx="37.14341" cy="166.5" r="26.48818" fill="none" isolation="isolate" opacity=".69"/>
      <path d="m47.94163,184.60266c6.2955-3.78272,10.15833-10.61025,10.15833-17.95479,0-11.491-9.45566-20.94666-20.94666-20.94666s-20.94666,9.45566-20.94666,20.94666c0,7.39639,3.91756,14.2646,10.28394,18.02967" fill="none" stroke="#ededed" stroke-linecap="round" stroke-miterlimit="10" stroke-width=".8"/>
      <line x1="47.94163" y1="184.60266" x2="37.14341" y2="166.5" fill="none"/>
      <line x1="37.15331" y1="145.70121" x2="37.15331" y2="159.12279" fill="none" stroke="#ededed" stroke-linecap="round" stroke-miterlimit="10" stroke-width=".8"/>
    </g>
    <g>
      <circle cx="37.14341" cy="78.97799" r="26.48818" fill="none" isolation="isolate" opacity=".69"/>
      <path d="m47.94163,97.08065c6.2955-3.78272,10.15833-10.61025,10.15833-17.95479,0-11.491-9.45566-20.94666-20.94666-20.94666s-20.94666,9.45566-20.94666,20.94666c0,7.39639,3.91756,14.2646,10.28394,18.02967" fill="none" stroke="#ededed" stroke-linecap="round" stroke-miterlimit="10" stroke-width=".8"/>
      <line x1="47.94163" y1="97.08065" x2="37.14341" y2="78.97799" fill="none"/>
    </g>
    <g>
      <circle cx="97.14341" cy="78.97799" r="26.48818" fill="none" isolation="isolate" opacity=".69"/>
      <path d="m107.94163,97.08065c6.2955-3.78272,10.15833-10.61025,10.15833-17.95479,0-11.491-9.45566-20.94666-20.94666-20.94666s-20.94666,9.45566-20.94666,20.94666c0,7.39639,3.91756,14.2646,10.28394,18.02967" fill="none" stroke="#ededed" stroke-linecap="round" stroke-miterlimit="10" stroke-width=".8"/>
      <line x1="107.94163" y1="97.08065" x2="97.14341" y2="78.97799" fill="none"/>
    </g>
    <g>
      <line x1="19.50278" y1="250.87459" x2="19.50278" y2="260.07654" fill="none" stroke="#ededed" stroke-linecap="round" stroke-linejoin="round" stroke-width=".8"/>
      <line x1="19.50278" y1="226.54018" x2="19.50278" y2="238.01957" fill="none" stroke="#ededed" stroke-linecap="round" stroke-linejoin="round"/>
      <path d="m11.34932,246.15346c-2.1616-2.1616-3.37728-5.09649-3.37728-8.15346,0-6.32558,5.20516-11.53074,11.53074-11.53074s11.53074,5.20516,11.53074,11.53074c0,3.05697-1.21567,5.99186-3.37728,8.15346" fill="none" stroke="#ededed" stroke-linecap="round" stroke-linejoin="round"/>
    </g>
    <g>
      <line x1="51.50579" y1="250.87459" x2="51.50579" y2="260.07654" fill="none" stroke="#ededed" stroke-linecap="round" stroke-linejoin="round" stroke-width=".8"/>
      <line x1="51.50579" y1="226.54018" x2="51.50579" y2="238.01957" fill="none" stroke="#ededed" stroke-linecap="round" stroke-linejoin="round"/>
      <path d="m43.35233,246.15346c-2.1616-2.1616-3.37728-5.09649-3.37728-8.15346,0-6.32558,5.20516-11.53074,11.53074-11.53074s11.53074,5.20516,11.53074,11.53074c0,3.05697-1.21567,5.99186-3.37728,8.15346" fill="none" stroke="#ededed" stroke-linecap="round" stroke-linejoin="round"/>
    </g>
    <g>
      <line x1="83.50881" y1="250.87459" x2="83.50881" y2="260.07654" fill="none" stroke="#ededed" stroke-linecap="round" stroke-linejoin="round" stroke-width=".8"/>
      <line x1="83.50881" y1="226.54018" x2="83.50881" y2="238.01957" fill="none" stroke="#ededed" stroke-linecap="round" stroke-linejoin="round"/>
      <path d="m75.35534,246.15346c-2.1616-2.1616-3.37728-5.09649-3.37728-8.15346,0-6.32558,5.20516-11.53074,11.53074-11.53074s11.53074,5.20516,11.53074,11.53074c0,3.05697-1.21567,5.99186-3.37728,8.15346" fill="none" stroke="#ededed" stroke-linecap="round" stroke-linejoin="round"/>
    </g>
    <g>
      <line x1="115.51182" y1="250.87459" x2="115.51182" y2="260.07654" fill="none" stroke="#ededed" stroke-linecap="round" stroke-linejoin="round" stroke-width=".8"/>
      <line x1="115.51182" y1="226.54018" x2="115.51182" y2="238.01957" fill="none" stroke="#ededed" stroke-linecap="round" stroke-linejoin="round"/>
      <path d="m107.35835,246.15346c-2.1616-2.1616-3.37728-5.09649-3.37728-8.15346,0-6.32558,5.20516-11.53074,11.53074-11.53074s11.53074,5.20516,11.53074,11.53074c0,3.05697-1.21567,5.99186-3.37728,8.15346" fill="none" stroke="#ededed" stroke-linecap="round" stroke-linejoin="round"/>
    </g>
  </g>
  <g id="uuid-cc0b5fa0-5398-4289-809c-249f1dd9077e" data-name="FND TXT">
    <g>
      <path d="m89.84668,132.6084c0-.28418.22559-.51758.51758-.51758h.1084c.22559,0,.37598.1167.47656.27539l1.76953,2.77051,1.77734-2.7793c.1084-.1748.25879-.2666.4668-.2666h.10938c.29102,0,.51758.2334.51758.51758v4.89062c0,.28418-.22656.50928-.51758.50928-.27539,0-.50977-.23389-.50977-.50928v-3.50537l-1.42773,2.14502c-.10742.16699-.24121.26709-.43359.26709-.18359,0-.31641-.1001-.42578-.26709l-1.41797-2.12842v3.49756c0,.2832-.22656.50049-.50977.50049s-.50098-.21729-.50098-.50049v-4.89941Z" fill="#ebebeb"/>
      <path d="m97.35449,132.59131c0-.28369.22559-.50928.51758-.50928.28418,0,.50879.22559.50879.50928v4.90771c0,.28418-.22461.50928-.50879.50928-.29199,0-.51758-.2251-.51758-.50928v-4.90771Z" fill="#ebebeb"/>
      <path d="m99.83984,137.14844l1.73535-2.15332-1.63574-2.02832c-.08398-.1084-.1582-.24219-.1582-.38379,0-.28369.2168-.50098.50879-.50098.2168,0,.34277.08398.46777.25049l1.47656,1.94482,1.46094-1.91113c.13379-.18359.27539-.28418.50098-.28418s.46777.18359.46777.46777c0,.15039-.05859.2666-.15918.39209l-1.63574,2.03662,1.71875,2.14502c.08398.1084.15918.23389.15918.38428,0,.2832-.21777.50049-.50879.50049-.2168,0-.34277-.0835-.46777-.25049l-1.56934-2.04492-1.54395,2.01172c-.1416.18359-.27539.28369-.50098.28369-.2334,0-.4668-.18359-.4668-.47607,0-.1416.05859-.25879.15039-.38379Z" fill="#ebebeb"/>
    </g>
    <g>
      <path d="m28.62402,46.20605h-1.41895c-.2666,0-.47559-.2168-.47559-.47559s.20898-.47607.47559-.47607h3.88184c.25879,0,.4668.21729.4668.47607s-.20801.47559-.4668.47559h-1.42773v4.42383c0,.28369-.2334.50879-.51758.50879-.2832,0-.51758-.2251-.51758-.50879v-4.42383Z" fill="#ebebeb"/>
      <path d="m32.74707,45.72217c0-.28418.22559-.50928.51758-.50928.28418,0,.50879.2251.50879.50928v4.90771c0,.28369-.22461.50879-.50879.50879-.29199,0-.51758-.2251-.51758-.50879v-4.90771Z" fill="#ebebeb"/>
      <path d="m35.52539,45.73877c0-.28369.22559-.51758.51758-.51758h.1084c.22559,0,.37598.1167.47559.27539l1.76953,2.771,1.77832-2.7793c.1084-.17529.25879-.26709.4668-.26709h.10938c.29199,0,.5166.23389.5166.51758v4.89111c0,.28369-.22461.50879-.5166.50879-.27539,0-.50977-.2334-.50977-.50879v-3.50586l-1.42676,2.14502c-.1084.16699-.24219.26709-.43457.26709-.18359,0-.31738-.1001-.42578-.26709l-1.41895-2.12793v3.49707c0,.28369-.22461.50049-.50879.50049s-.50098-.2168-.50098-.50049v-4.89941Z" fill="#ebebeb"/>
      <path d="m43.00586,50.57959v-4.80762c0-.29199.22559-.51758.51758-.51758h3.39746c.25,0,.45898.20898.45898.45947,0,.2583-.20898.45898-.45898.45898h-2.88867v1.51904h2.5127c.25098,0,.45898.2085.45898.46729,0,.25049-.20801.45068-.45898.45068h-2.5127v1.56934h2.92969c.25098,0,.45996.2085.45996.45898,0,.25879-.20898.45898-.45996.45898h-3.43848c-.29199,0-.51758-.22559-.51758-.51758Z" fill="#ebebeb"/>
    </g>
    <g>
      <path d="m85.65039,45.77197c0-.29199.22559-.51758.51758-.51758h3.40527c.25879,0,.46777.20898.46777.46777s-.20898.46729-.46777.46729h-2.89648v1.59424h2.52148c.25879,0,.4668.2085.4668.46729s-.20801.46729-.4668.46729h-2.52148v1.91162c0,.28369-.22461.50879-.50879.50879-.29199,0-.51758-.2251-.51758-.50879v-4.85791Z" fill="#ebebeb"/>
      <path d="m91.22461,45.77197c0-.29199.22559-.51758.51758-.51758h1.66113c1.83594,0,3.10449,1.26074,3.10449,2.90479v.0166c0,1.64453-1.26855,2.92139-3.10449,2.92139h-1.66113c-.29199,0-.51758-.22559-.51758-.51758v-4.80762Zm2.17871,4.39062c1.22656,0,2.02832-.82666,2.02832-1.97021v-.0166c0-1.14355-.80176-1.98633-2.02832-1.98633h-1.15234v3.97314h1.15234Z" fill="#ebebeb"/>
      <path d="m97.9209,45.77197c0-.29199.22559-.51758.51758-.51758h2.10352c.66797,0,1.19336.18359,1.52734.51758.25879.25879.39258.57617.39258.96826v.0166c0,.70117-.40137,1.07666-.83496,1.30225.68457.2334,1.16016.62598,1.16016,1.41895v.0166c0,1.04346-.85938,1.60254-2.16211,1.60254h-2.18652c-.29199,0-.51758-.22559-.51758-.51758v-4.80762Zm2.41211,1.94482c.65918,0,1.10156-.25879,1.10156-.79297v-.0166c0-.45898-.36719-.74268-1.02637-.74268h-1.47754v1.55225h1.40234Zm.30078,2.4707c.70117,0,1.12695-.27539,1.12695-.80127v-.0166c0-.49268-.39258-.78467-1.20215-.78467h-1.62793v1.60254h1.70312Z" fill="#ebebeb"/>
      <path d="m104.18359,45.72217c0-.28418.22559-.50928.51758-.50928.28418,0,.50879.2251.50879.50928v2.47021l2.77148-2.7876c.11719-.125.24219-.19189.42578-.19189.28418,0,.47559.2251.47559.47559,0,.15869-.06641.27539-.18359.38428l-1.81934,1.75244,1.96973,2.4458c.08301.1084.1416.2085.1416.36719,0,.28369-.22559.50049-.51758.50049-.2002,0-.3252-.1001-.43359-.2417l-1.87793-2.39551-.95215.91797v1.21045c0,.28369-.22461.50879-.50879.50879-.29199,0-.51758-.2251-.51758-.50879v-4.90771Z" fill="#ebebeb"/>
    </g>
    <g>
      <path d="m46.68164,20.49121c0-.5376.42578-.96289.96387-.96289h2.45215c2.75293,0,4.6543,1.88916,4.6543,4.354v.0249c0,2.46484-1.90137,4.37939-4.6543,4.37939h-2.45215c-.53809,0-.96387-.42529-.96387-.96338v-6.83203Zm3.41602,6.05615c1.57715,0,2.64062-1.06348,2.64062-2.61475v-.02539c0-1.55127-1.06348-2.63965-2.64062-2.63965h-1.48828v5.27979h1.48828Z" fill="#ebebeb"/>
      <path d="m56.53418,27.32324v-6.83203c0-.5376.42578-.96289.96387-.96289h4.85449c.47559,0,.86328.3877.86328.86328s-.3877.85059-.86328.85059h-3.90332v1.77686h3.33984c.47656,0,.86328.3877.86328.86328s-.38672.85107-.86328.85107h-3.33984v1.83887h3.96582c.47559,0,.86328.38818.86328.86328,0,.47559-.3877.85107-.86328.85107h-4.91699c-.53809,0-.96387-.42529-.96387-.96338Z" fill="#ebebeb"/>
      <path d="m65.04297,20.4165c0-.53809.42578-.96338.96387-.96338s.96387.42529.96387.96338v6.11865h3.56543c.4873,0,.87598.3877.87598.87549s-.38867.87598-.87598.87598h-4.5293c-.53809,0-.96387-.42529-.96387-.96338v-6.90674Z" fill="#ebebeb"/>
      <path d="m72.57031,27.04785l3.05273-6.89404c.21289-.47559.60059-.76318,1.12598-.76318h.1123c.52539,0,.90137.2876,1.11328.76318l3.05371,6.89404c.0625.1377.10059.2627.10059.3877,0,.51318-.40039.92627-.91406.92627-.4502,0-.75098-.26318-.92578-.66357l-.58789-1.37598h-3.85352l-.61328,1.43896c-.16309.37549-.48828.60059-.88867.60059-.5,0-.88867-.40039-.88867-.90088,0-.1377.05078-.27539.11328-.41309Zm5.41797-2.42725l-1.21484-2.89014-1.21289,2.89014h2.42773Z" fill="#ebebeb"/>
      <path d="m84.09668,24.9082l-2.82715-3.84082c-.13867-.18799-.23828-.41309-.23828-.68848,0-.5127.42578-.92578.96289-.92578.43848,0,.71387.2373.95117.58789l2.12695,3.06543,2.16504-3.09033c.2373-.3501.52539-.57568.92578-.57568.58789,0,.93848.41309.93848.93848,0,.2627-.125.50049-.25.67578l-2.82812,3.81641v2.52734c0,.53809-.42578.96338-.96289.96338-.53906,0-.96387-.42529-.96387-.96338v-2.49023Z" fill="#ebebeb"/>
    </g>
    <g>
      <path d="m12.50195,266.99463h-1.15137c-.2168,0-.38672-.17627-.38672-.38623s.16992-.38623.38672-.38623h3.15039c.20996,0,.37891.17627.37891.38623s-.16895.38623-.37891.38623h-1.15918v3.59033c0,.23047-.18945.41357-.41992.41357s-.41992-.18311-.41992-.41357v-3.59033Z" fill="#ebebeb"/>
      <path d="m15.90625,266.60156c0-.23047.18359-.41309.41992-.41309.23047,0,.41406.18262.41406.41309v3.9834c0,.23047-.18359.41357-.41406.41357-.23633,0-.41992-.18311-.41992-.41357v-3.9834Z" fill="#ebebeb"/>
      <path d="m18.21582,266.61523c0-.23047.18262-.41992.41992-.41992h.08887c.18262,0,.30469.09473.38574.22363l1.43652,2.24902,1.44238-2.25586c.08887-.14258.20996-.2168.37988-.2168h.08789c.2373,0,.41992.18945.41992.41992v3.96973c0,.23047-.18262.41357-.41992.41357-.22363,0-.41309-.18994-.41309-.41357v-2.84521l-1.15918,1.74121c-.08789.13525-.19629.2168-.35156.2168-.14941,0-.25781-.08154-.3457-.2168l-1.15234-1.72754v2.83838c0,.23047-.18262.40674-.41211.40674-.23047,0-.40723-.17627-.40723-.40674v-3.97656Z" fill="#ebebeb"/>
      <path d="m24.34375,270.54443v-3.90234c0-.23682.18359-.41992.41992-.41992h2.75781c.20312,0,.37305.16943.37305.37256,0,.20996-.16992.37256-.37305.37256h-2.34375v1.23291h2.03906c.20312,0,.37207.16992.37207.37988,0,.20312-.16895.36572-.37207.36572h-2.03906v1.27344h2.37695c.20312,0,.37305.16943.37305.37256,0,.20996-.16992.37305-.37305.37305h-2.79102c-.23633,0-.41992-.18311-.41992-.42041Z" fill="#ebebeb"/>
    </g>
    <g>
      <path d="m42.08789,266.64209c0-.23682.18359-.41992.4209-.41992h2.76367c.20996,0,.37988.16943.37988.37939s-.16992.37939-.37988.37939h-2.35059v1.29395h2.0459c.20996,0,.37988.16943.37988.37939s-.16992.37939-.37988.37939h-2.0459v1.55127c0,.23047-.18359.41357-.41309.41357-.2373,0-.4209-.18311-.4209-.41357v-3.94287Z" fill="#ebebeb"/>
      <path d="m46.6709,266.64209c0-.23682.18262-.41992.41992-.41992h1.34863c1.49023,0,2.51953,1.02295,2.51953,2.35791v.01318c0,1.33447-1.0293,2.37158-2.51953,2.37158h-1.34863c-.2373,0-.41992-.18311-.41992-.42041v-3.90234Zm1.76855,3.56396c.99609,0,1.64648-.6709,1.64648-1.59912v-.01367c0-.92822-.65039-1.6123-1.64648-1.6123h-.93555v3.2251h.93555Z" fill="#ebebeb"/>
      <path d="m52.16309,266.64209c0-.23682.18262-.41992.41992-.41992h1.70703c.54199,0,.96875.14893,1.24023.41992.20996.21045.31836.46729.31836.78613v.01318c0,.56934-.3252.87402-.67773,1.05713.55566.18994.94238.5083.94238,1.15186v.01367c0,.84668-.69824,1.30078-1.75586,1.30078h-1.77441c-.2373,0-.41992-.18311-.41992-.42041v-3.90234Zm1.95801,1.57861c.53516,0,.89453-.20996.89453-.64355v-.01367c0-.37256-.29883-.60254-.83398-.60254h-1.19922v1.25977h1.13867Zm.24414,2.00537c.56836,0,.91406-.22363.91406-.65039v-.01318c0-.3999-.31836-.63721-.97559-.63721h-1.32129v1.30078h1.38281Z" fill="#ebebeb"/>
      <path d="m57.30078,266.60156c0-.23047.18359-.41309.4209-.41309.22949,0,.41309.18262.41309.41309v2.00537l2.24902-2.2627c.09473-.10205.19629-.15576.3457-.15576.23047,0,.38574.18262.38574.38574,0,.12891-.05371.22363-.14844.31201l-1.47656,1.42236,1.59863,1.98535c.06738.08789.11426.16943.11426.29785,0,.23047-.18262.40674-.41992.40674-.16211,0-.26367-.08154-.35156-.19678l-1.52441-1.94434-.77246.74512v.98242c0,.23047-.18359.41357-.41309.41357-.2373,0-.4209-.18311-.4209-.41357v-3.9834Z" fill="#ebebeb"/>
    </g>
    <g>
      <path d="m75.05469,266.99463h-1.15234c-.2168,0-.38672-.17627-.38672-.38623s.16992-.38623.38672-.38623h3.15039c.20996,0,.37891.17627.37891.38623s-.16895.38623-.37891.38623h-1.1582v3.59033c0,.23047-.18945.41357-.41992.41357s-.41992-.18311-.41992-.41357v-3.59033Z" fill="#ebebeb"/>
      <path d="m78.00879,268.60693v-.01367c0-1.33447,1.03027-2.45264,2.4873-2.45264,1.45605,0,2.47266,1.10449,2.47266,2.43945v.01318c0,1.33447-1.03027,2.45264-2.48633,2.45264-1.45703,0-2.47363-1.10449-2.47363-2.43896Zm4.08496,0v-.01367c0-.92139-.66992-1.68701-1.61133-1.68701-.94238,0-1.59961.75195-1.59961,1.67383v.01318c0,.92139.6709,1.68018,1.61328,1.68018.94141,0,1.59766-.74512,1.59766-1.6665Z" fill="#ebebeb"/>
      <path d="m84.18555,266.61523c0-.23047.18359-.41992.41992-.41992h.08789c.20312,0,.31836.10156.43359.24365l2.37109,3.06885v-2.91309c0-.22363.18359-.40625.40723-.40625.23047,0,.41309.18262.41309.40625v3.9834c0,.23047-.17578.41357-.40625.41357h-.03418c-.19629,0-.31836-.10156-.43359-.25049l-2.43848-3.15723v3.00781c0,.22363-.18359.40674-.40723.40674-.22949,0-.41309-.18311-.41309-.40674v-3.97656Z" fill="#ebebeb"/>
      <path d="m89.78125,270.54443v-3.90234c0-.23682.18359-.41992.41992-.41992h2.75781c.20312,0,.37305.16943.37305.37256,0,.20996-.16992.37256-.37305.37256h-2.34375v1.23291h2.03906c.20312,0,.37207.16992.37207.37988,0,.20312-.16895.36572-.37207.36572h-2.03906v1.27344h2.37695c.20312,0,.37305.16943.37305.37256,0,.20996-.16992.37305-.37305.37305h-2.79102c-.23633,0-.41992-.18311-.41992-.42041Z" fill="#ebebeb"/>
    </g>
    <g>
      <path d="m109.50977,266.61523c0-.23047.18359-.41992.4209-.41992h.08789c.18262,0,.30469.09473.38574.22363l1.43652,2.24902,1.44336-2.25586c.08789-.14258.20996-.2168.37891-.2168h.08887c.23633,0,.41992.18945.41992.41992v3.96973c0,.23047-.18359.41357-.41992.41357-.22461,0-.41406-.18994-.41406-.41357v-2.84521l-1.1582,1.74121c-.08789.13525-.19629.2168-.35254.2168-.14941,0-.25684-.08154-.34473-.2168l-1.15234-1.72754v2.83838c0,.23047-.18262.40674-.41309.40674s-.40723-.17627-.40723-.40674v-3.97656Z" fill="#ebebeb"/>
      <path d="m115.66406,266.60156c0-.23047.18359-.41309.41992-.41309.23047,0,.41406.18262.41406.41309v3.9834c0,.23047-.18359.41357-.41406.41357-.23633,0-.41992-.18311-.41992-.41357v-3.9834Z" fill="#ebebeb"/>
      <path d="m117.73926,270.30078l1.40918-1.74805-1.32812-1.64648c-.06738-.08789-.12891-.19629-.12891-.31152,0-.23047.17676-.40625.41406-.40625.17578,0,.27734.06738.37891.20312l1.19922,1.57861,1.18555-1.55127c.1084-.14941.22363-.23047.40625-.23047.18359,0,.37988.14893.37988.37891,0,.12207-.04785.2168-.12891.31885l-1.32812,1.65283,1.39551,1.74121c.06836.08789.12891.18945.12891.31152,0,.23047-.17578.40674-.41309.40674-.17578,0-.27832-.06787-.37988-.20361l-1.27344-1.65967-1.25293,1.63281c-.11523.14893-.22363.23047-.40723.23047-.18945,0-.37891-.14893-.37891-.38623,0-.11523.04785-.20996.12207-.31152Z" fill="#ebebeb"/>
    </g>
    <g>
      <path d="m44.70508,316.55176v-.01318c0-1.34814,1.00977-2.45264,2.44629-2.45264.73145,0,1.21191.2168,1.62598.53516.08789.06787.16211.18311.16211.33203,0,.23047-.18262.40625-.41309.40625-.11523,0-.19629-.04053-.25098-.08105-.3252-.26416-.67773-.42676-1.13086-.42676-.90137,0-1.56543.74512-1.56543,1.67334v.01367c0,.92822.65723,1.68018,1.56543,1.68018.50098,0,.83984-.1626,1.18555-.4541.06055-.0542.14844-.09473.25-.09473.20996,0,.39355.17578.39355.38623,0,.12842-.06152.22998-.13574.29785-.44727.39307-.95508.63721-1.7207.63721-1.38184,0-2.41211-1.07715-2.41211-2.43945Z" fill="#ebebeb"/>
      <path d="m50.12207,314.54688c0-.23047.18262-.41357.41992-.41357.23047,0,.41309.18311.41309.41357v3.604h2.14844c.20996,0,.37891.16943.37891.37939s-.16895.37939-.37891.37939h-2.56152c-.2373,0-.41992-.18311-.41992-.41992v-3.94287Z" fill="#ebebeb"/>
      <path d="m54.47559,314.54688c0-.23047.18262-.41357.41992-.41357.23047,0,.41309.18311.41309.41357v2.00488l2.25-2.2627c.09473-.10156.19629-.15576.3457-.15576.22949,0,.38574.18311.38574.38623,0,.12891-.05469.22363-.14941.31152l-1.47656,1.42285,1.59863,1.98535c.06836.08789.11523.16895.11523.29785,0,.23047-.18262.40625-.41992.40625-.16211,0-.26465-.08105-.35254-.19629l-1.52441-1.94434-.77246.74512v.98242c0,.23047-.18262.41309-.41309.41309-.2373,0-.41992-.18262-.41992-.41309v-3.9834Z" fill="#ebebeb"/>
    </g>
    <g>
      <path d="m16.30273,314.54688c0-.23047.18359-.41357.41992-.41357.23047,0,.41406.18311.41406.41357v3.9834c0,.23047-.18359.41309-.41406.41309-.23633,0-.41992-.18262-.41992-.41309v-3.9834Z" fill="#ebebeb"/>
      <path d="m18.6123,314.56006c0-.22998.18262-.41992.41992-.41992h.08789c.2041,0,.31934.10156.43359.24365l2.37207,3.06934v-2.91309c0-.22363.18262-.40674.40625-.40674.23047,0,.41309.18311.41309.40674v3.9834c0,.23047-.17578.41309-.40625.41309h-.03418c-.19629,0-.31836-.10156-.43359-.25049l-2.43848-3.15674v3.00781c0,.22363-.18359.40625-.40723.40625-.23047,0-.41309-.18262-.41309-.40625v-3.97705Z" fill="#ebebeb"/>
    </g>
    <g>
      <path d="m75.37793,314.83105c-.02051-.06055-.04102-.13525-.04102-.19629,0-.2915.24414-.5083.53516-.5083.24414,0,.44043.15576.50781.37256l.94238,2.90674.94824-2.87939c.08105-.24414.26465-.41309.52832-.41309h.08105c.26465,0,.44727.16211.5293.41309l.94824,2.87939.94141-2.90674c.06738-.20312.24414-.37256.50098-.37256.28516,0,.51562.2168.51562.50146,0,.06104-.02051.14258-.04102.20312l-1.32812,3.72656c-.09473.26367-.29102.42676-.54199.42676h-.1084c-.25,0-.44043-.15625-.53516-.42676l-.93457-2.7168-.93457,2.7168c-.0957.27051-.28516.42676-.53613.42676h-.1084c-.25,0-.44629-.16309-.54199-.42676l-1.32715-3.72656Z" fill="#1f1f1f"/>
      <path d="m83.27539,318.3877v-3.69873c0-.2915.23047-.52197.52246-.52197h2.62793c.25781,0,.46777.20996.46777.46777,0,.25732-.20996.46094-.46777.46094h-2.11328v.96191h1.80859c.25781,0,.46777.20996.46777.46729s-.20996.46045-.46777.46045h-1.80859v.99609h2.14746c.25781,0,.46777.20996.46777.46777,0,.25732-.20996.46045-.46777.46045h-2.66211c-.29199,0-.52246-.23047-.52246-.52197Z" fill="#1f1f1f"/>
      <path d="m89.16797,315.12939h-1.00293c-.26465,0-.48145-.2168-.48145-.48096,0-.26465.2168-.48145.48145-.48145h3.04883c.26367,0,.48047.2168.48047.48145,0,.26416-.2168.48096-.48047.48096h-1.00293v3.29932c0,.29102-.23047.52148-.52148.52148s-.52148-.23047-.52148-.52148v-3.29932Z" fill="#1f1f1f"/>
    </g>
    <g>
      <path d="m109.38965,314.66211c0-.2915.23047-.52197.52148-.52197h.11523c.22363,0,.37988.11523.47461.271l1.25977,2.05273,1.2666-2.05957c.1084-.17578.25781-.26416.46777-.26416h.11523c.29102,0,.52148.23047.52148.52197v3.7666c0,.29102-.23047.52148-.52148.52148-.28418,0-.51465-.2373-.51465-.52148v-2.36426l-.91504,1.40918c-.1084.16211-.24414.26367-.43359.26367s-.3252-.10156-.43359-.26367l-.90039-1.38916v2.35791c0,.28418-.23047.50781-.51562.50781-.28418,0-.50781-.22363-.50781-.50781v-3.78027Z" fill="#1f1f1f"/>
      <path d="m115.55469,314.64844c0-.2915.22949-.52197.52148-.52197.29102,0,.52148.23047.52148.52197v3.78027c0,.29102-.23047.52148-.52148.52148-.29199,0-.52148-.23047-.52148-.52148v-3.78027Z" fill="#1f1f1f"/>
      <path d="m117.82715,318.06934l1.28125-1.57129-1.20605-1.4707c-.08203-.10156-.15625-.23682-.15625-.38574,0-.2915.2168-.51514.51465-.51514.22363,0,.35254.08838.48145.25732l1.03613,1.38232,1.03027-1.35498c.14258-.18262.27734-.28467.50781-.28467s.47461.18311.47461.48096c0,.14941-.05469.27148-.15625.3999l-1.20605,1.47705,1.27441,1.56494c.08105.10156.15527.23682.15527.38623,0,.29102-.2168.51465-.51465.51465-.22363,0-.35254-.08789-.48145-.25732l-1.11035-1.45654-1.09766,1.42969c-.14258.18262-.27832.28418-.50879.28418-.22949,0-.47363-.18262-.47363-.48096,0-.14893.05371-.271.15527-.3999Z" fill="#1f1f1f"/>
    </g>
    <g>
      <path d="m26.85938,133.0752h-1.41797c-.26758,0-.47656-.2168-.47656-.47559s.20898-.47559.47656-.47559h3.88086c.25879,0,.4668.2168.4668.47559s-.20801.47559-.4668.47559h-1.42773v4.42383c0,.28418-.2334.50928-.51758.50928-.2832,0-.51758-.2251-.51758-.50928v-4.42383Z" fill="#ebebeb"/>
      <path d="m30.41895,135.06201v-.01709c0-1.64404,1.26855-3.021,3.06348-3.021s3.04688,1.36035,3.04688,3.00439v.0166c0,1.64453-1.26953,3.02148-3.06348,3.02148-1.79492,0-3.04688-1.36035-3.04688-3.00439Zm5.0332,0v-.01709c0-1.13477-.82617-2.07812-1.98633-2.07812s-1.96973.92676-1.96973,2.06152v.0166c0,1.13574.82617,2.07031,1.98633,2.07031s1.96973-.91797,1.96973-2.05322Z" fill="#ebebeb"/>
      <path d="m37.95508,132.6084c0-.28418.22559-.51758.51758-.51758h.10938c.25,0,.3916.125.5332.30029l2.92188,3.78076v-3.58887c0-.27539.22559-.50098.50098-.50098.2832,0,.50879.22559.50879.50098v4.90771c0,.28369-.2168.50928-.50098.50928h-.04199c-.24121,0-.3916-.125-.5332-.30859l-3.00488-3.88965v3.70605c0,.27539-.22559.50049-.50098.50049-.28418,0-.50977-.2251-.50977-.50049v-4.89941Z" fill="#ebebeb"/>
      <path d="m44.77734,137.44922v-4.80762c0-.29199.22559-.51758.51758-.51758h3.39648c.25098,0,.45898.2085.45898.45898,0,.25879-.20801.45898-.45898.45898h-2.8877v1.51904h2.5127c.25,0,.45898.2085.45898.46729,0,.25098-.20898.45117-.45898.45117h-2.5127v1.56885h2.92969c.25098,0,.45898.2085.45898.45947,0,.2583-.20801.45898-.45898.45898h-3.43848c-.29199,0-.51758-.22559-.51758-.51758Z" fill="#ebebeb"/>
    </g>
  </g>
</svg>