<?xml version="1.0" encoding="UTF-8"?>
<svg xmlns="http://www.w3.org/2000/svg" width="45" height="380" xmlns:xlink="http://www.w3.org/1999/xlink" viewBox="0 0 45 380">
  <defs>
    <linearGradient id="uuid-175fdb2c-2d3e-46ac-a016-ff65b1fa9485" x1="22.5" y1="0" x2="22.5" y2="380" gradientUnits="userSpaceOnUse">
      <stop offset="0" stop-color="#2a2a2b"/>
      <stop offset="1" stop-color="#171717"/>
    </linearGradient>
  </defs>
  <g id="uuid-2178044d-a091-444b-9705-27ef5f67bd6e" data-name="FND BG">
    <rect width="45" height="380" fill="url(#uuid-175fdb2c-2d3e-46ac-a016-ff65b1fa9485)"/>
  </g>
  <g id="uuid-2562adc0-b318-412d-93ca-606adcd5a760" data-name="FND GRAPH">
    <rect x="8.22422" y="264.4852" width="28.55155" height="39.15691" rx="2.83465" ry="2.83465" fill="#ededed"/>
    <rect x="8.22422" y="308.77924" width="28.55155" height="39.15691" rx="2.83465" ry="2.83465" fill="#ededed"/>
    <g>
      <line x1="22.50002" y1="60.47646" x2="22.50002" y2="56.7532" fill="none" stroke="#ededed" stroke-linecap="round" stroke-linejoin="round" stroke-width=".8"/>
      <path d="m31.13564,87.30508c4.83522-2.92859,8.06662-8.2395,8.06662-14.30514,0-9.23-7.48239-16.71239-16.71239-16.71239s-16.71239,7.48239-16.71239,16.71239c0,6.09737,3.2653,11.4321,8.14264,14.35091" fill="none" stroke="#ededed" stroke-linecap="round" stroke-linejoin="round" stroke-width=".8"/>
      <circle cx="22.5" cy="72.99991" r="20.69419" fill="none" isolation="isolate" opacity=".69"/>
    </g>
    <g>
      <circle cx="23.00165" cy="355.84251" r="1.18571" fill="#ededed"/>
      <path d="m14.35927,359.76448c-.34551,0-.66126-.1952-.8158-.50419l-2.96428-5.92856c-.22526-.45057-.04266-.99844.40794-1.2237.45008-.22535.99831-.04271,1.22366.4079l2.14848,4.29696,2.14848-4.29696c.22526-.45057.77314-.63325,1.22366-.4079.45061.22526.63321.77314.40794,1.2237l-2.96428,5.92856c-.15454.30899-.47029.50419-.8158.50419Z" fill="#ededed"/>
      <path d="m30.64073,359.76448c-.34551,0-.66126-.1952-.8158-.50419l-2.96428-5.92856c-.22526-.45057-.04266-.99844.40794-1.2237.45016-.22535.9984-.04271,1.22366.4079l2.14848,4.29696,2.14848-4.29696c.22526-.45057.77305-.63325,1.22366-.4079.45061.22526.63321.77314.40794,1.2237l-2.96428,5.92856c-.15454.30899-.47029.50419-.8158.50419Z" fill="#ededed"/>
      <path d="m22.94242,359.76448c-2.13744,0-3.87637-1.73893-3.87637-3.87637s1.73893-3.87637,3.87637-3.87637c.84653,0,1.65102.26819,2.32653.77554.40278.30253.48401.87428.18153,1.27705-.30248.40273-.87432.48401-1.2771.18148-.357-.26815-.78267-.4099-1.23096-.4099-1.13156,0-2.05219.92059-2.05219,2.05219s.92064,2.05219,2.05219,2.05219c.44829,0,.87396-.14176,1.23096-.4099.40269-.30271.97444-.22125,1.2771.18148.30248.40278.22125.97453-.18153,1.27705-.67551.50735-1.48.77554-2.32653.77554Z" fill="#ededed"/>
    </g>
    <g>
      <line x1="22.5" y1="122.33279" x2="22.5" y2="131.53474" fill="none" stroke="#ededed" stroke-linecap="round" stroke-linejoin="round" stroke-width=".8"/>
      <line x1="22.5" y1="97.99838" x2="22.5" y2="109.47777" fill="none" stroke="#ededed" stroke-linecap="round" stroke-linejoin="round"/>
      <path d="m28.44034,119.34459c3.46647-2.08287,5.59345-5.84229,5.59345-9.88639,0-6.32725-5.20654-11.5338-11.5338-11.5338s-11.5338,5.20654-11.5338,11.5338c0,4.07265,2.15712,7.85448,5.66262,9.92762" fill="none" stroke="#ededed" stroke-linecap="round" stroke-linejoin="round"/>
    </g>
  </g>
  <g id="uuid-01d6179d-6777-4bb5-a0aa-efdb6ea69db7" data-name="FND TXT">
    <g>
      <path d="m9.72461,140.75928l1.40918-1.74805-1.32812-1.646c-.06738-.08838-.12793-.19678-.12793-.31201,0-.22998.17578-.40674.41211-.40674.17676,0,.27832.06836.37988.20361l1.19922,1.57861,1.18555-1.55176c.1084-.14893.22363-.23047.40723-.23047.18262,0,.37891.14941.37891.37988,0,.12207-.04785.2168-.12891.31836l-1.32812,1.65283,1.39648,1.74121c.06738.08838.12793.18994.12793.31201,0,.22998-.17578.40625-.41309.40625-.17578,0-.27734-.06787-.37891-.20312l-1.27441-1.66016-1.25293,1.63281c-.11523.14941-.22363.23047-.40625.23047-.18945,0-.37988-.14941-.37988-.38623,0-.11523.04785-.20996.12207-.31152Z" fill="#ebebeb"/>
      <path d="m16.72266,137.10059c0-.2373.18262-.41992.41992-.41992h2.76367c.20996,0,.37988.16943.37988.37939s-.16992.37939-.37988.37939h-2.35059v1.29395h2.0459c.20996,0,.37891.16943.37891.37939s-.16895.37939-.37891.37939h-2.0459v1.55176c0,.22998-.18262.41309-.41309.41309-.2373,0-.41992-.18311-.41992-.41309v-3.94336Z" fill="#ebebeb"/>
      <path d="m20.69727,140.88086l1.76172-3.9292c.09375-.20996.26367-.33887.50098-.33887h.04004c.2373,0,.40039.12891.49512.33887l1.76074,3.9292c.03418.06152.04785.12207.04785.17627,0,.22363-.16895.3999-.39258.3999-.19629,0-.33203-.11523-.40723-.2915l-.38574-.88721h-2.30371l-.39941.91455c-.06738.16943-.20996.26416-.38574.26416-.2168,0-.38672-.16943-.38672-.38623,0-.06104.02051-.12207.05469-.18994Zm3.10254-1.34131l-.83301-1.91748-.83398,1.91748h1.66699Z" fill="#ebebeb"/>
      <path d="m26.33789,137.10059c0-.2373.18262-.41992.41992-.41992h1.34766c1.49023,0,2.52051,1.02295,2.52051,2.35742v.01367c0,1.33496-1.03027,2.37109-2.52051,2.37109h-1.34766c-.2373,0-.41992-.18262-.41992-.41992v-3.90234Zm1.76758,3.56348c.99609,0,1.64648-.67041,1.64648-1.59863v-.01367c0-.92773-.65039-1.6123-1.64648-1.6123h-.93457v3.22461h.93457Z" fill="#ebebeb"/>
      <path d="m31.83008,141.00293v-3.90234c0-.2373.18262-.41992.41992-.41992h2.75684c.20312,0,.37207.16943.37207.37256,0,.20996-.16895.37256-.37207.37256h-2.34375v1.2334h2.03906c.20312,0,.37207.16895.37207.37891,0,.20361-.16895.36621-.37207.36621h-2.03906v1.27344h2.37793c.20312,0,.37207.16943.37207.37305,0,.20996-.16895.37207-.37207.37207h-2.79102c-.2373,0-.41992-.18262-.41992-.41992Z" fill="#ebebeb"/>
    </g>
    <g>
      <path d="m16.94336,180.26025c0-.23047.18262-.41357.41992-.41357.23047,0,.41309.18311.41309.41357v3.98389c0,.22998-.18262.41309-.41309.41309-.2373,0-.41992-.18311-.41992-.41309v-3.98389Z" fill="#ebebeb"/>
      <path d="m19.25195,180.27393c0-.23047.18359-.42041.41992-.42041h.08887c.20312,0,.31836.10156.43359.24414l2.37109,3.06934v-2.91357c0-.22363.18262-.40674.40625-.40674.23047,0,.41309.18311.41309.40674v3.98389c0,.23047-.17578.41309-.40625.41309h-.03418c-.19629,0-.31836-.10156-.43359-.25098l-2.43848-3.15674v3.0083c0,.22314-.18359.40625-.40625.40625-.23047,0-.41406-.18311-.41406-.40625v-3.97705Z" fill="#ebebeb"/>
      <path d="m27.24023,180.66699l-.48828.14893c-.04785.01318-.1084.02002-.14941.02002-.19629,0-.36621-.16211-.36621-.35205,0-.17627.10938-.31201.27832-.35889l.71777-.23047c.16309-.04785.28516-.07471.40723-.07471h.0127c.23828,0,.41406.18311.41406.41357v4.01074c0,.22998-.18359.41309-.41406.41309-.22266,0-.41211-.18311-.41211-.41309v-3.57715Z" fill="#ebebeb"/>
    </g>
    <g>
      <path d="m16.20508,225.14697c0-.23047.18262-.41357.41992-.41357.23047,0,.41309.18311.41309.41357v3.98389c0,.22998-.18262.41309-.41309.41309-.2373,0-.41992-.18311-.41992-.41309v-3.98389Z" fill="#ebebeb"/>
      <path d="m18.51367,225.16064c0-.23047.18359-.42041.4209-.42041h.08789c.20312,0,.31836.10156.43359.24414l2.37109,3.06934v-2.91357c0-.22363.18262-.40674.40625-.40674.23047,0,.41309.18311.41309.40674v3.98389c0,.23047-.17578.41309-.40625.41309h-.0332c-.19727,0-.31836-.10156-.43359-.25098l-2.43945-3.15674v3.0083c0,.22314-.18262.40625-.40625.40625-.23047,0-.41406-.18311-.41406-.40625v-3.97705Z" fill="#ebebeb"/>
      <path d="m25.80371,228.7041l1.45605-1.24023c.65039-.54883.88867-.85352.88867-1.28027,0-.46777-.33203-.73828-.76562-.73828-.37988,0-.64453.17578-.93555.52832-.06055.06738-.15625.12891-.29102.12891-.20996,0-.37988-.16992-.37988-.37988,0-.08789.03418-.18262.09473-.25732.38672-.48096.82715-.76562,1.57227-.76562.92773,0,1.56445.56934,1.56445,1.41602v.01367c0,.74512-.39258,1.15186-1.23242,1.83594l-.97559.81299h1.92383c.20312,0,.36621.1626.36621.36572,0,.20361-.16309.36572-.36621.36572h-2.68945c-.25781,0-.44727-.14893-.44727-.39258,0-.1626.0752-.29834.2168-.41309Z" fill="#ebebeb"/>
    </g>
    <g>
      <path d="m12.56543,272.00684v-.01367c0-1.34814,1.06348-2.45215,2.52734-2.45215s2.5127,1.09082,2.5127,2.43848v.01367c0,1.34863-1.0625,2.45264-2.52637,2.45264s-2.51367-1.09082-2.51367-2.43896Zm3.9502,0v-.01367c0-.81299-.59668-1.49023-1.43652-1.49023s-1.42285.66406-1.42285,1.47656v.01367c0,.81299.5957,1.49072,1.43652,1.49072.83984,0,1.42285-.66406,1.42285-1.47705Z" fill="#1f1f1f"/>
      <path d="m18.68457,272.33203v-2.229c0-.2915.23047-.52148.52148-.52148.29199,0,.52246.22998.52246.52148v2.20166c0,.77246.38574,1.17236,1.02246,1.17236s1.02246-.38623,1.02246-1.13818v-2.23584c0-.2915.23047-.52148.52148-.52148.29199,0,.52246.22998.52246.52148v2.19482c0,1.43652-.80664,2.14111-2.08008,2.14111s-2.05273-.71143-2.05273-2.10693Z" fill="#1f1f1f"/>
      <path d="m25.16992,270.58398h-1.00293c-.26465,0-.48145-.2168-.48145-.48096s.2168-.48096.48145-.48096h3.04785c.26465,0,.48145.2168.48145.48096s-.2168.48096-.48145.48096h-1.00195v3.2998c0,.29102-.23047.52148-.52148.52148s-.52148-.23047-.52148-.52148v-3.2998Z" fill="#1f1f1f"/>
      <path d="m31.13086,270.61133l-.36621.09473c-.05469.01367-.12891.02734-.18262.02734-.24414,0-.45508-.20361-.45508-.44727,0-.20996.13672-.38623.3457-.44727l.6709-.19629c.19629-.05469.3457-.08838.48828-.08838h.0127c.28516,0,.51562.23047.51562.51514v3.8208c0,.28467-.23047.51514-.51562.51514-.28418,0-.51367-.23047-.51367-.51514v-3.27881Z" fill="#1f1f1f"/>
    </g>
    <g>
      <path d="m11.88379,316.55176v-.01367c0-1.34814,1.06348-2.45215,2.52734-2.45215s2.5127,1.09082,2.5127,2.43848v.01367c0,1.34863-1.0625,2.45264-2.52637,2.45264s-2.51367-1.09082-2.51367-2.43896Zm3.9502,0v-.01367c0-.81299-.59668-1.49023-1.43652-1.49023s-1.42285.66406-1.42285,1.47656v.01367c0,.81299.5957,1.49072,1.43652,1.49072.83984,0,1.42285-.66406,1.42285-1.47705Z" fill="#1f1f1f"/>
      <path d="m18.00293,316.87695v-2.229c0-.2915.23047-.52148.52148-.52148.29199,0,.52246.22998.52246.52148v2.20166c0,.77246.38574,1.17236,1.02246,1.17236s1.02246-.38623,1.02246-1.13818v-2.23584c0-.2915.23047-.52148.52148-.52148.29199,0,.52246.22998.52246.52148v2.19482c0,1.43652-.80664,2.14111-2.08008,2.14111s-2.05273-.71143-2.05273-2.10693Z" fill="#1f1f1f"/>
      <path d="m24.48828,315.12891h-1.00293c-.26465,0-.48145-.2168-.48145-.48096s.2168-.48096.48145-.48096h3.04785c.26465,0,.48145.2168.48145.48096s-.2168.48096-.48145.48096h-1.00195v3.2998c0,.29102-.23047.52148-.52148.52148s-.52148-.23047-.52148-.52148v-3.2998Z" fill="#1f1f1f"/>
      <path d="m29.80469,317.89307l1.34863-1.104c.58887-.48145.81934-.74512.81934-1.13867,0-.39941-.26367-.61621-.63672-.61621-.29785,0-.50781.12891-.77148.41309-.06836.07471-.19043.14941-.35352.14941-.26367,0-.47363-.20996-.47363-.47461,0-.11523.04785-.23682.12207-.3252.37891-.44043.82617-.69775,1.54492-.69775.98242,0,1.63281.57568,1.63281,1.46338v.01367c0,.79297-.40723,1.18555-1.24707,1.83594l-.77246.59619h1.65332c.25098,0,.4541.20361.4541.4541s-.20312.44678-.4541.44678h-2.5752c-.32422,0-.56152-.18262-.56152-.49414,0-.20312.09473-.37988.27051-.52197Z" fill="#1f1f1f"/>
    </g>
    <g>
      <path d="m5.9082,20.49121c0-.5376.42578-.96289.96484-.96289h4.9043c.48828,0,.875.3877.875.87549s-.38672.87598-.875.87598h-3.94141v1.86426h3.37891c.4873,0,.875.38818.875.87598s-.3877.87549-.875.87549h-3.37891v2.50293c0,.53809-.42578.96338-.96289.96338-.53906,0-.96484-.42529-.96484-.96338v-6.90723Z" fill="#ebebeb"/>
      <path d="m12.97461,27.04785l3.05273-6.89404c.21289-.47559.60156-.76318,1.12695-.76318h.11133c.52637,0,.90234.2876,1.11426.76318l3.05371,6.89404c.0625.1377.09961.2627.09961.3877,0,.51318-.40039.92627-.91406.92627-.44922,0-.75-.26318-.92578-.66357l-.58789-1.37598h-3.85352l-.61328,1.43896c-.16211.37549-.48828.60059-.88867.60059-.5,0-.88867-.40039-.88867-.90088,0-.1377.05078-.27539.11328-.41309Zm5.41797-2.42725l-1.21387-2.89014-1.21387,2.89014h2.42773Z" fill="#ebebeb"/>
      <path d="m22.95508,20.49121c0-.5376.4248-.96289.96289-.96289h2.45215c2.75293,0,4.65527,1.88916,4.65527,4.354v.0249c0,2.46484-1.90234,4.37939-4.65527,4.37939h-2.45215c-.53809,0-.96289-.42529-.96289-.96338v-6.83203Zm3.41504,6.05615c1.57715,0,2.63965-1.06348,2.63965-2.61475v-.02539c0-1.55127-1.0625-2.63965-2.63965-2.63965h-1.48926v5.27979h1.48926Z" fill="#ebebeb"/>
      <path d="m32.80664,27.32324v-6.83203c0-.5376.42578-.96289.96289-.96289h4.85547c.47461,0,.86328.3877.86328.86328s-.38867.85059-.86328.85059h-3.9043v1.77686h3.34082c.47559,0,.86328.3877.86328.86328s-.3877.85107-.86328.85107h-3.34082v1.83887h3.9668c.47461,0,.86328.38818.86328.86328,0,.47559-.38867.85107-.86328.85107h-4.91797c-.53711,0-.96289-.42529-.96289-.96338Z" fill="#ebebeb"/>
    </g>
    <g>
      <path d="m6.87695,50.2793l1.73535-2.15332-1.63574-2.02832c-.08398-.1084-.1582-.24219-.1582-.38379,0-.28369.2168-.50098.50879-.50098.2168,0,.34277.08398.46777.25049l1.47656,1.94482,1.46094-1.91113c.13379-.18359.27539-.28418.50098-.28418s.46777.18359.46777.46777c0,.15039-.05859.2666-.15918.39209l-1.63574,2.03662,1.71875,2.14502c.08398.1084.15918.23389.15918.38428,0,.2832-.21777.50049-.50879.50049-.2168,0-.34277-.0835-.46777-.25049l-1.56934-2.04492-1.54395,2.01172c-.1416.18359-.27539.28369-.50098.28369-.2334,0-.4668-.18359-.4668-.47607,0-.1416.05859-.25879.15039-.38379Z" fill="#ebebeb"/>
      <path d="m15.49316,45.77246c0-.29199.22559-.51758.51758-.51758h3.40527c.25879,0,.46777.2085.46777.46729s-.20898.46729-.46777.46729h-2.89648v1.59473h2.52148c.25781,0,.4668.20801.4668.4668s-.20898.46777-.4668.46777h-2.52148v1.91113c0,.28418-.22461.50928-.50879.50928-.29199,0-.51758-.2251-.51758-.50928v-4.85742Z" fill="#ebebeb"/>
      <path d="m20.30762,50.42969l2.16992-4.84082c.11621-.25879.3252-.41748.61816-.41748h.0498c.29199,0,.49219.15869.6084.41748l2.1709,4.84082c.04199.0752.05762.15039.05762.2168,0,.27539-.20801.49268-.4834.49268-.24219,0-.40918-.14209-.50098-.35889l-.47559-1.09375h-2.83789l-.49219,1.12695c-.08301.20898-.25879.32568-.47559.32568-.26758,0-.47656-.2085-.47656-.47607,0-.07471.02539-.1499.06738-.2334Zm3.82324-1.65234l-1.02734-2.3623-1.02637,2.3623h2.05371Z" fill="#ebebeb"/>
      <path d="m27.18457,45.77246c0-.29199.22559-.51758.51758-.51758h1.66113c1.83594,0,3.10547,1.26025,3.10547,2.9043v.0166c0,1.64453-1.26953,2.92188-3.10547,2.92188h-1.66113c-.29199,0-.51758-.22559-.51758-.51758v-4.80762Zm2.17871,4.39014c1.22656,0,2.02832-.82666,2.02832-1.96973v-.01709c0-1.14307-.80176-1.98633-2.02832-1.98633h-1.15234v3.97314h1.15234Z" fill="#ebebeb"/>
      <path d="m33.88184,50.58008v-4.80762c0-.29199.22559-.51758.51758-.51758h3.39746c.25,0,.45898.2085.45898.45898,0,.25879-.20898.45898-.45898.45898h-2.88867v1.51904h2.5127c.25098,0,.45898.2085.45898.46729,0,.25098-.20801.45117-.45898.45117h-2.5127v1.56885h2.92969c.25098,0,.45898.2085.45898.45947,0,.2583-.20801.45898-.45898.45898h-3.43848c-.29199,0-.51758-.22559-.51758-.51758Z" fill="#ebebeb"/>
    </g>
  </g>
</svg>