<?xml version="1.0" encoding="UTF-8" standalone="no"?>
<svg
   xmlns:dc="http://purl.org/dc/elements/1.1/"
   xmlns:cc="http://creativecommons.org/ns#"
   xmlns:rdf="http://www.w3.org/1999/02/22-rdf-syntax-ns#"
   xmlns:svg="http://www.w3.org/2000/svg"
   xmlns="http://www.w3.org/2000/svg"
   xmlns:sodipodi="http://sodipodi.sourceforge.net/DTD/sodipodi-0.dtd"
   xmlns:inkscape="http://www.inkscape.org/namespaces/inkscape"
   width="75"
   height="380"
   viewBox="0 0 75 380"
   version="1.1"
   id="svg218"
   sodipodi:docname="GATES.svg"
   inkscape:version="0.92.3 (2405546, 2018-03-11)">
  <metadata
     id="metadata222">
    <rdf:RDF>
      <cc:Work
         rdf:about="">
        <dc:format>image/svg+xml</dc:format>
        <dc:type
           rdf:resource="http://purl.org/dc/dcmitype/StillImage" />
      </cc:Work>
    </rdf:RDF>
  </metadata>
  <sodipodi:namedview
     pagecolor="#ffffff"
     bordercolor="#666666"
     borderopacity="1"
     objecttolerance="10"
     gridtolerance="10"
     guidetolerance="10"
     inkscape:pageopacity="0"
     inkscape:pageshadow="2"
     inkscape:window-width="1920"
     inkscape:window-height="1017"
     id="namedview220"
     showgrid="false"
     inkscape:zoom="0.87830105"
     inkscape:cx="118.0084"
     inkscape:cy="166.41961"
     inkscape:window-x="-8"
     inkscape:window-y="-8"
     inkscape:window-maximized="1"
     inkscape:current-layer="svg218" />
  <defs
     id="defs7">
    <linearGradient
       id="uuid-36f9bb83-821f-401b-9807-ad07f292f6cd"
       x1="37.5"
       y1="0"
       x2="37.5"
       y2="380"
       gradientTransform="matrix(1, 0, 0, 1, 0, 0)"
       gradientUnits="userSpaceOnUse">
      <stop
         offset="0"
         stop-color="#ebebeb"
         id="stop2" />
      <stop
         offset="1"
         stop-color="#e1e1e1"
         id="stop4" />
    </linearGradient>
  </defs>
  <g
     id="uuid-55b9f62d-8abb-4bf1-bc48-2f45be84b86a"
     data-name="FND BG">
    <rect
       width="75"
       height="380"
       style="fill: url(#uuid-36f9bb83-821f-401b-9807-ad07f292f6cd);"
       id="rect9" />
  </g>
  <g
     id="uuid-b1f83514-e265-4f90-8e39-2c3ee87055c4"
     data-name="FND GRAPH">
    <g
       id="g16">
      <rect
         x="7.22416"
         y="219.63044"
         width="28.55155"
         height="39.15691"
         rx="2.83465"
         ry="2.83465"
         style="fill: #1f1f1f;"
         id="rect12" />
      <rect
         x="18.07571"
         y="241.14133"
         width="6.86765"
         height="6.64999"
         style="fill: #1f1f1f;"
         id="rect14" />
    </g>
    <g
       id="g22">
      <rect
         x="39.22429"
         y="219.63044"
         width="28.55155"
         height="39.15691"
         rx="2.83465"
         ry="2.83465"
         style="fill: #1f1f1f;"
         id="rect18" />
      <rect
         x="50.07584"
         y="241.14133"
         width="6.86765"
         height="6.64999"
         style="fill: #1f1f1f;"
         id="rect20" />
    </g>
    <g
       id="g28">
      <rect
         x="7.22416"
         y="264.48514"
         width="28.55155"
         height="39.15691"
         rx="2.83465"
         ry="2.83465"
         style="fill: #1f1f1f;"
         id="rect24" />
      <rect
         x="18.07571"
         y="285.99603"
         width="6.86765"
         height="6.64999"
         style="fill: #1f1f1f;"
         id="rect26" />
    </g>
    <g
       id="g34">
      <rect
         x="39.22429"
         y="264.48514"
         width="28.55155"
         height="39.15691"
         rx="2.83465"
         ry="2.83465"
         style="fill: #1f1f1f;"
         id="rect30" />
      <rect
         x="50.07584"
         y="285.99603"
         width="6.86765"
         height="6.64999"
         style="fill: #1f1f1f;"
         id="rect32" />
    </g>
    <g
       id="g40">
      <rect
         x="7.22416"
         y="309.05634"
         width="28.55155"
         height="39.15691"
         rx="2.83465"
         ry="2.83465"
         style="fill: #1f1f1f;"
         id="rect36" />
      <rect
         x="18.07571"
         y="330.56723"
         width="6.86765"
         height="6.64999"
         style="fill: #1f1f1f;"
         id="rect38" />
    </g>
    <g
       id="g46">
      <rect
         x="39.22429"
         y="309.05634"
         width="28.55155"
         height="39.15691"
         rx="2.83465"
         ry="2.83465"
         style="fill: #1f1f1f;"
         id="rect42" />
      <rect
         x="50.07584"
         y="330.56723"
         width="6.86765"
         height="6.64999"
         style="fill: #1f1f1f;"
         id="rect44" />
    </g>
    <g
       id="g54">
      <circle
         cx="37.5"
         cy="78.9999"
         r="26.48818"
         style="fill: none; isolation: isolate; opacity: .69;"
         id="circle48" />
      <path
         d="M48.29822,97.10256c6.2955-3.78272,10.15833-10.61025,10.15833-17.95479,0-11.491-9.45566-20.94666-20.94666-20.94666s-20.94666,9.45566-20.94666,20.94666c0,7.39639,3.91756,14.2646,10.28394,18.02967"
         style="fill: none; stroke: #1f1f1f; stroke-linecap: round; stroke-miterlimit: 10; stroke-width: .8px;"
         id="path50" />
      <line
         x1="48.29822"
         y1="97.10256"
         x2="37.5"
         y2="78.9999"
         style="fill: none;"
         id="line52" />
    </g>
    <path
       d="M53.85161,174.55701l1.65796-2.87167c.14313-.24791-.03578-.55779-.32204-.55779h-3.31592c-.28626,0-.46517,.30988-.32204,.55779l1.65796,2.87167c.14313,.24791,.50096,.24791,.64409,0Z"
       style="fill: #1f1f1f;"
       id="path56" />
    <g
       id="g66">
      <circle
         cx="38.00165"
         cy="356.2678"
         r="1.18571"
         style="fill: #1f1f1f;"
         id="circle58" />
      <path
         d="M29.35927,360.18977c-.34551,0-.66126-.1952-.8158-.50419l-2.96428-5.92856c-.22526-.45057-.04266-.99844,.40794-1.2237,.45008-.22535,.99831-.04271,1.22366,.4079l2.14848,4.29696,2.14848-4.29696c.22526-.45057,.77314-.63325,1.22366-.4079,.45061,.22526,.63321,.77314,.40794,1.2237l-2.96428,5.92856c-.15454,.30899-.47029,.50419-.8158,.50419Z"
         style="fill: #1f1f1f;"
         id="path60" />
      <path
         d="M45.64073,360.18977c-.34551,0-.66126-.1952-.8158-.50419l-2.96428-5.92856c-.22526-.45057-.04266-.99844,.40794-1.2237,.45016-.22535,.9984-.04271,1.22366,.4079l2.14848,4.29696,2.14848-4.29696c.22526-.45057,.77305-.63325,1.22366-.4079,.45061,.22526,.63321,.77314,.40794,1.2237l-2.96428,5.92856c-.15454,.30899-.47029,.50419-.8158,.50419Z"
         style="fill: #1f1f1f;"
         id="path62" />
      <path
         d="M37.94242,360.18977c-2.13744,0-3.87637-1.73893-3.87637-3.87637s1.73893-3.87637,3.87637-3.87637c.84653,0,1.65102,.26819,2.32653,.77554,.40278,.30253,.48401,.87428,.18153,1.27705-.30248,.40273-.87432,.48401-1.2771,.18148-.357-.26815-.78267-.4099-1.23096-.4099-1.13156,0-2.05219,.92059-2.05219,2.05219s.92064,2.05219,2.05219,2.05219c.44829,0,.87396-.14176,1.23096-.4099,.40269-.30271,.97444-.22125,1.2771,.18148,.30248,.40278,.22125,.97453-.18153,1.27705-.67551,.50735-1.48,.77554-2.32653,.77554Z"
         style="fill: #1f1f1f;"
         id="path64" />
    </g>
  </g>
  <g
     id="uuid-ab1984e3-5ebc-4e38-9f97-ca69ec3599c4"
     data-name="FND TXT">
    <g
       id="g77">
      <path
         d="M44.43164,270.14355c0-.2915,.23047-.52197,.52148-.52197h2.65625c.26367,0,.47461,.20996,.47461,.47412,0,.26465-.21094,.47461-.47461,.47461h-2.13477v1.00928h1.83008c.26367,0,.47461,.20996,.47461,.47412s-.21094,.47461-.47461,.47461h-1.83008v1.35449c0,.2915-.23047,.52197-.52148,.52197s-.52148-.23047-.52148-.52197v-3.73926Z"
         style="fill: #f0f0f0;"
         id="path69" />
      <path
         d="M49.00977,270.10254c0-.29102,.23047-.52148,.52246-.52148s.52148,.23047,.52148,.52148v3.31299h1.93066c.26465,0,.47461,.20996,.47461,.47412,0,.26465-.20996,.47461-.47461,.47461h-2.45215c-.29199,0-.52246-.23047-.52246-.52197v-3.73975Z"
         style="fill: #f0f0f0;"
         id="path71" />
      <path
         d="M52.98242,272.00635v-.01367c0-1.34814,1.06348-2.45264,2.52734-2.45264,1.46289,0,2.5127,1.09082,2.5127,2.43945v.01318c0,1.34814-1.06348,2.45264-2.52637,2.45264-1.46387,0-2.51367-1.09082-2.51367-2.43896Zm3.94922,0v-.01367c0-.81299-.5957-1.49023-1.43555-1.49023s-1.42383,.66357-1.42383,1.47705v.01318c0,.81299,.59668,1.49072,1.4375,1.49072,.83984,0,1.42188-.66406,1.42188-1.47705Z"
         style="fill: #f0f0f0;"
         id="path73" />
      <path
         d="M59.16992,270.14355c0-.2915,.22949-.52197,.52148-.52197h1.41602c1.13086,0,1.81445,.67041,1.81445,1.63965v.01318c0,1.09766-.85352,1.66699-1.91602,1.66699h-.79297v.94141c0,.2915-.23047,.52197-.52148,.52197-.29199,0-.52148-.23047-.52148-.52197v-3.73926Zm1.86914,1.86963c.52148,0,.82617-.31201,.82617-.71826v-.01367c0-.46729-.32422-.71777-.84668-.71777h-.80566v1.44971h.82617Z"
         style="fill: #f0f0f0;"
         id="path75" />
    </g>
    <g
       id="g87">
      <path
         d="M14.15039,270.14355c0-.2915,.23047-.52197,.52148-.52197h2.65625c.26367,0,.47461,.20996,.47461,.47412,0,.26465-.21094,.47461-.47461,.47461h-2.13477v1.00928h1.83008c.26367,0,.47461,.20996,.47461,.47412s-.21094,.47461-.47461,.47461h-1.83008v1.35449c0,.2915-.22949,.52197-.52148,.52197-.29102,0-.52148-.23047-.52148-.52197v-3.73926Z"
         style="fill: #f0f0f0;"
         id="path79" />
      <path
         d="M18.72949,270.10254c0-.29102,.22949-.52148,.52148-.52148,.29102,0,.52148,.23047,.52148,.52148v3.31299h1.93066c.26465,0,.47461,.20996,.47461,.47412,0,.26465-.20996,.47461-.47461,.47461h-2.45215c-.29199,0-.52148-.23047-.52148-.52197v-3.73975Z"
         style="fill: #f0f0f0;"
         id="path81" />
      <path
         d="M23.10352,270.10254c0-.29102,.23047-.52148,.52148-.52148,.29199,0,.52148,.23047,.52148,.52148v3.78027c0,.2915-.22949,.52197-.52148,.52197-.29102,0-.52148-.23047-.52148-.52197v-3.78027Z"
         style="fill: #f0f0f0;"
         id="path83" />
      <path
         d="M25.55273,270.14355c0-.2915,.23047-.52197,.52148-.52197h1.41602c1.13184,0,1.81641,.67041,1.81641,1.63965v.01318c0,1.09766-.85352,1.66699-1.91797,1.66699h-.79297v.94141c0,.2915-.22949,.52197-.52148,.52197-.29102,0-.52148-.23047-.52148-.52197v-3.73926Zm1.87012,1.86963c.52148,0,.82715-.31201,.82715-.71826v-.01367c0-.46729-.32617-.71777-.84766-.71777h-.80664v1.44971h.82715Z"
         style="fill: #f0f0f0;"
         id="path85" />
    </g>
    <g
       id="g97">
      <path
         d="M12.15039,316.55176v-.01367c0-1.34814,1.05078-2.45215,2.48633-2.45215,.71875,0,1.19238,.16211,1.61914,.46045,.10156,.07471,.2168,.2168,.2168,.41992,0,.28467-.23047,.51514-.51465,.51514-.14941,0-.24316-.0542-.31836-.1084-.28418-.20312-.58887-.3252-1.03613-.3252-.75977,0-1.3623,.6709-1.3623,1.47656v.01367c0,.86719,.59668,1.50391,1.43652,1.50391,.37891,0,.71777-.09473,.98242-.28418v-.67773h-.70508c-.25,0-.45312-.19629-.45312-.44727,0-.25049,.20312-.45361,.45312-.45361h1.19336c.29102,0,.52148,.22998,.52148,.52148v1.15186c0,.30469-.11523,.51465-.36621,.66406-.38574,.2373-.94824,.47412-1.66016,.47412-1.47656,0-2.49316-1.03662-2.49316-2.43896Z"
         style="fill: #f0f0f0;"
         id="path89" />
      <path
         d="M17.55859,318.23877l1.65332-3.73291c.11523-.25781,.3252-.41309,.61035-.41309h.06055c.28418,0,.4873,.15527,.60254,.41309l1.65332,3.73291c.0332,.07471,.05469,.14209,.05469,.20996,0,.27783-.2168,.50146-.49512,.50146-.24414,0-.40625-.14258-.50098-.35938l-.31836-.74512h-2.08691l-.33203,.7793c-.08887,.20312-.26465,.3252-.48145,.3252-.27051,0-.48047-.2168-.48047-.48779,0-.07471,.02734-.14893,.06055-.22363Zm2.93359-1.31445l-.65723-1.56494-.65723,1.56494h1.31445Z"
         style="fill: #f0f0f0;"
         id="path91" />
      <path
         d="M23.79102,315.12891h-1.00195c-.26465,0-.48145-.2168-.48145-.48096s.2168-.48096,.48145-.48096h3.04785c.26465,0,.48145,.2168,.48145,.48096s-.2168,.48096-.48145,.48096h-1.00293v3.2998c0,.29102-.23047,.52148-.52148,.52148s-.52148-.23047-.52148-.52148v-3.2998Z"
         style="fill: #f0f0f0;"
         id="path93" />
      <path
         d="M27.22656,318.3877v-3.69922c0-.29102,.23047-.52148,.52148-.52148h2.62891c.25781,0,.46777,.20996,.46777,.46777,0,.25684-.20996,.46045-.46777,.46045h-2.11328v.96191h1.80859c.25781,0,.4668,.20996,.4668,.46729,0,.25781-.20898,.46094-.4668,.46094h-1.80859v.99609h2.14746c.25684,0,.46777,.20996,.46777,.46729s-.21094,.46045-.46777,.46045h-2.66309c-.29102,0-.52148-.22998-.52148-.52148Z"
         style="fill: #f0f0f0;"
         id="path95" />
    </g>
    <g
       id="g105">
      <path
         d="M47.0918,314.68848c0-.29102,.23047-.52148,.52148-.52148h1.32812c1.49023,0,2.52051,1.02295,2.52051,2.35742v.01367c0,1.33496-1.03027,2.37109-2.52051,2.37109h-1.32812c-.29102,0-.52148-.22998-.52148-.52148v-3.69922Zm1.84961,3.2793c.85352,0,1.42969-.57617,1.42969-1.41602v-.01367c0-.83984-.57617-1.42969-1.42969-1.42969h-.80664v2.85938h.80664Z"
         style="fill: #f0f0f0;"
         id="path99" />
      <path
         d="M52.5957,314.64795c0-.2915,.22949-.52148,.52148-.52148,.29102,0,.52148,.22998,.52148,.52148v3.31299h1.93066c.26465,0,.47363,.20996,.47363,.47412s-.20898,.47412-.47363,.47412h-2.45215c-.29199,0-.52148-.22998-.52148-.52148v-3.73975Z"
         style="fill: #f0f0f0;"
         id="path101" />
      <path
         d="M57.61426,317.08008l-1.53125-2.08008c-.0752-.10156-.12891-.22314-.12891-.37207,0-.27832,.23047-.50146,.52246-.50146,.23633,0,.38477,.12842,.51367,.31836l1.15234,1.65967,1.17188-1.67334c.12891-.18994,.28516-.31152,.50195-.31152,.31836,0,.50781,.22363,.50781,.5083,0,.14209-.06836,.27051-.13574,.36572l-1.53125,2.06592v1.36914c0,.29102-.22949,.52148-.52148,.52148s-.52148-.23047-.52148-.52148v-1.34863Z"
         style="fill: #f0f0f0;"
         id="path103" />
    </g>
    <g
       id="g119">
      <path
         d="M7.28223,135.2583c0-.23047,.18262-.41357,.41992-.41357,.23047,0,.41309,.18311,.41309,.41357v3.604h2.14844c.20996,0,.37891,.16992,.37891,.37988s-.16895,.37891-.37891,.37891h-2.56152c-.2373,0-.41992-.18262-.41992-.41992v-3.94287Z"
         style="fill: #1f1f1f;"
         id="path107" />
      <path
         d="M11.63574,139.20117v-3.90234c0-.2373,.18262-.41992,.41992-.41992h2.75684c.2041,0,.37305,.16943,.37305,.37256,0,.20996-.16895,.37256-.37305,.37256h-2.34375v1.2334h2.03906c.20312,0,.37305,.16895,.37305,.37891,0,.20361-.16992,.36621-.37305,.36621h-2.03906v1.27344h2.37793c.2041,0,.37305,.16943,.37305,.37305,0,.20996-.16895,.37207-.37305,.37207h-2.79102c-.2373,0-.41992-.18262-.41992-.41992Z"
         style="fill: #1f1f1f;"
         id="path109" />
      <path
         d="M16.36133,135.27197c0-.23047,.18262-.42041,.41992-.42041h.08789c.20312,0,.31836,.10156,.43359,.24414l2.37109,3.06934v-2.91357c0-.22363,.18359-.40674,.40625-.40674,.23047,0,.41406,.18311,.41406,.40674v3.98389c0,.23047-.17578,.41309-.40625,.41309h-.03418c-.19629,0-.31836-.10156-.43359-.25098l-2.43945-3.15674v3.0083c0,.22314-.18262,.40625-.40625,.40625-.23047,0-.41309-.18311-.41309-.40625v-3.97705Z"
         style="fill: #1f1f1f;"
         id="path111" />
      <path
         d="M21.70801,137.26367v-.01367c0-1.32764,1.0166-2.45215,2.44629-2.45215,.71094,0,1.18555,.16895,1.61914,.48047,.08105,.06152,.16895,.17676,.16895,.33887,0,.22363-.18262,.41357-.41309,.41357-.1084,0-.18945-.04736-.25781-.09521-.30469-.22363-.63672-.37207-1.15137-.37207-.87402,0-1.53809,.76514-1.53809,1.67285v.01367c0,.97559,.64355,1.69385,1.6123,1.69385,.44727,0,.85352-.14209,1.14551-.35889v-.8877h-.93555c-.20312,0-.37305-.15576-.37305-.35938,0-.20312,.16992-.36523,.37305-.36523h1.32129c.2373,0,.41992,.18262,.41992,.41992v1.2666c0,.2373-.09473,.40674-.29102,.52832-.40723,.27148-.97559,.51514-1.68652,.51514-1.48438,0-2.45996-1.05713-2.45996-2.43896Z"
         style="fill: #1f1f1f;"
         id="path113" />
      <path
         d="M28.50586,135.65137h-1.15137c-.2168,0-.38574-.17627-.38574-.38623s.16895-.38623,.38574-.38623h3.15039c.20996,0,.37988,.17627,.37988,.38623s-.16992,.38623-.37988,.38623h-1.15918v3.59082c0,.22998-.18945,.41309-.41992,.41309s-.41992-.18311-.41992-.41309v-3.59082Z"
         style="fill: #1f1f1f;"
         id="path115" />
      <path
         d="M31.88477,135.2583c0-.23047,.18359-.41357,.41992-.41357,.23047,0,.41406,.18311,.41406,.41357v1.59229h2.26172v-1.59229c0-.23047,.18359-.41357,.41406-.41357,.23633,0,.41992,.18311,.41992,.41357v3.98389c0,.22998-.18359,.41309-.41992,.41309-.23047,0-.41406-.18311-.41406-.41309v-1.61914h-2.26172v1.61914c0,.22998-.18359,.41309-.41406,.41309-.23633,0-.41992-.18311-.41992-.41309v-3.98389Z"
         style="fill: #1f1f1f;"
         id="path117" />
    </g>
    <g
       id="g133">
      <path
         d="M19.81641,45.73535c0-.28369,.22461-.50879,.51758-.50879,.2832,0,.50879,.2251,.50879,.50879v4.44043h2.64551c.25879,0,.46777,.20898,.46777,.46729,0,.25879-.20898,.46729-.46777,.46729h-3.1543c-.29297,0-.51758-.2251-.51758-.51758v-4.85742Z"
         style="fill: #1f1f1f;"
         id="path121" />
      <path
         d="M25.10645,50.59277v-4.80762c0-.29199,.22559-.51709,.51758-.51709h3.39746c.25,0,.45898,.2085,.45898,.45898,0,.25879-.20898,.45898-.45898,.45898h-2.88867v1.51904h2.5127c.25,0,.45898,.20898,.45898,.46777,0,.25-.20898,.4502-.45898,.4502h-2.5127v1.56934h2.92969c.25,0,.45898,.20898,.45898,.45898,0,.25879-.20898,.45898-.45898,.45898h-3.43848c-.29199,0-.51758-.2251-.51758-.51758Z"
         style="fill: #1f1f1f;"
         id="path123" />
      <path
         d="M30.85547,45.75195c0-.28369,.22559-.51758,.51758-.51758h.10938c.25,0,.3916,.12549,.5332,.30078l2.92188,3.78125v-3.58936c0-.27539,.22559-.50049,.50098-.50049,.2832,0,.50879,.2251,.50879,.50049v4.90771c0,.28418-.2168,.50928-.50098,.50928h-.04199c-.24121,0-.3916-.12549-.5332-.30908l-3.00488-3.88965v3.70605c0,.27539-.22559,.50098-.50098,.50098-.28418,0-.50977-.22559-.50977-.50098v-4.89941Z"
         style="fill: #1f1f1f;"
         id="path125" />
      <path
         d="M37.37012,48.20605v-.0166c0-1.63574,1.25195-3.02148,3.0127-3.02148,.87695,0,1.46094,.2085,1.99512,.59277,.10059,.07471,.20801,.2168,.20801,.41699,0,.27539-.22461,.50928-.50879,.50928-.13379,0-.2334-.05859-.31738-.1167-.375-.27539-.78418-.45898-1.41797-.45898-1.07715,0-1.89551,.94287-1.89551,2.06152v.0166c0,1.20166,.79297,2.08643,1.9873,2.08643,.55078,0,1.05078-.17529,1.41016-.44238v-1.09326h-1.15234c-.25,0-.45898-.19238-.45898-.44238,0-.25049,.20898-.45068,.45898-.45068h1.62793c.29199,0,.51758,.2251,.51758,.51709v1.56104c0,.29248-.11719,.50098-.3584,.65088-.50098,.33398-1.20215,.63477-2.0791,.63477-1.82715,0-3.0293-1.30225-3.0293-3.00488Z"
         style="fill: #1f1f1f;"
         id="path127" />
      <path
         d="M45.66895,46.21973h-1.41895c-.2666,0-.47559-.21729-.47559-.47607,0-.2583,.20898-.47559,.47559-.47559h3.88086c.25977,0,.46777,.21729,.46777,.47559,0,.25879-.20801,.47607-.46777,.47607h-1.42676v4.42334c0,.28369-.2334,.50928-.51758,.50928s-.51758-.22559-.51758-.50928v-4.42334Z"
         style="fill: #1f1f1f;"
         id="path129" />
      <path
         d="M49.75879,45.73535c0-.28369,.22559-.50879,.5166-.50879,.28418,0,.50977,.2251,.50977,.50879v1.96143h2.78809v-1.96143c0-.28369,.22559-.50879,.50879-.50879,.29199,0,.51758,.2251,.51758,.50879v4.90771c0,.28369-.22559,.50928-.51758,.50928-.2832,0-.50879-.22559-.50879-.50928v-1.99463h-2.78809v1.99463c0,.28369-.22559,.50928-.50977,.50928-.29102,0-.5166-.22559-.5166-.50928v-4.90771Z"
         style="fill: #1f1f1f;"
         id="path131" />
    </g>
    <g
       id="g145">
      <path
         d="M16.72461,23.93164v-.0249c0-2.48975,1.93945-4.5293,4.5918-4.5293,1.32617,0,2.20215,.30029,2.99023,.85107,.1875,.1377,.40039,.40039,.40039,.77539,0,.52539-.42578,.95117-.95117,.95117-.27539,0-.4502-.1001-.58789-.2002-.52539-.37549-1.08789-.60059-1.91406-.60059-1.40234,0-2.51562,1.23828-2.51562,2.72754v.0249c0,1.60156,1.10156,2.77783,2.65234,2.77783,.70117,0,1.32715-.17529,1.81445-.52539v-1.25146h-1.30078c-.46289,0-.83789-.36279-.83789-.82568s.375-.83838,.83789-.83838h2.20215c.53809,0,.96387,.42529,.96387,.96338v2.12695c0,.56348-.21289,.95117-.67578,1.22656-.71289,.4375-1.75195,.87598-3.06641,.87598-2.72656,0-4.60352-1.91455-4.60352-4.50488Z"
         style="fill: #1f1f1f;"
         id="path135" />
      <path
         d="M26.39062,27.04736l3.05371-6.89404c.21191-.47559,.60059-.76367,1.12598-.76367h.1123c.52637,0,.90137,.28809,1.11426,.76367l3.05273,6.89404c.0625,.1377,.09961,.2627,.09961,.38818,0,.5127-.40039,.92578-.91309,.92578-.4502,0-.75098-.2627-.92578-.66309l-.58887-1.37646h-3.85352l-.61328,1.43896c-.16211,.375-.4873,.60059-.8877,.60059-.50098,0-.88867-.40039-.88867-.90088,0-.1377,.0498-.27539,.1123-.41309Zm5.41797-2.42725l-1.21289-2.89062-1.21387,2.89062h2.42676Z"
         style="fill: #1f1f1f;"
         id="path137" />
      <path
         d="M37.49805,21.3042h-1.85156c-.48828,0-.88867-.40039-.88867-.88818,0-.48828,.40039-.88867,.88867-.88867h5.62988c.48828,0,.88867,.40039,.88867,.88867,0,.48779-.40039,.88818-.88867,.88818h-1.85156v6.09326c0,.53809-.42578,.96387-.96387,.96387-.53711,0-.96289-.42578-.96289-.96387v-6.09326Z"
         style="fill: #1f1f1f;"
         id="path139" />
      <path
         d="M43.52246,27.32275v-6.83154c0-.53809,.42578-.96387,.96387-.96387h4.85449c.47559,0,.86328,.38818,.86328,.86328,0,.47559-.3877,.85107-.86328,.85107h-3.90332v1.77686h3.33984c.47656,0,.86328,.3877,.86328,.86328s-.38672,.85059-.86328,.85059h-3.33984v1.83984h3.96582c.47559,0,.86328,.3877,.86328,.86328,0,.4751-.3877,.85059-.86328,.85059h-4.91699c-.53809,0-.96387-.42529-.96387-.96338Z"
         style="fill: #1f1f1f;"
         id="path141" />
      <path
         d="M51.79883,27.36035c-.21289-.15039-.3623-.42578-.3623-.72559,0-.50098,.40039-.88867,.90137-.88867,.25,0,.4248,.08789,.5498,.17529,.66309,.48779,1.38867,.78809,2.23926,.78809,.78906,0,1.26367-.31299,1.26367-.82568v-.0249c0-.48779-.2998-.73828-1.76367-1.11377-1.76367-.4502-2.90234-.93848-2.90234-2.67773v-.0249c0-1.58887,1.27539-2.64014,3.06445-2.64014,1.06445,0,1.99023,.27539,2.77832,.77588,.21289,.125,.4248,.38818,.4248,.76318,0,.50049-.40039,.88867-.90039,.88867-.1875,0-.33789-.05029-.48828-.1377-.6377-.37549-1.23828-.58838-1.83887-.58838-.73828,0-1.12598,.33789-1.12598,.76318v.02539c0,.5752,.375,.76318,1.88867,1.15088,1.77734,.46289,2.77832,1.10107,2.77832,2.62744v.02539c0,1.73926-1.32617,2.71484-3.21582,2.71484-1.15039,0-2.31445-.3501-3.29102-1.05078Z"
         style="fill: #1f1f1f;"
         id="path143" />
    </g>
    <g
       id="g157">
      <path
         d="M42.38281,180.2998c0-.2373,.18359-.41992,.4209-.41992h1.69336c.59668,0,1.06348,.17627,1.36816,.47412,.25098,.25732,.39355,.60986,.39355,1.02295v.01367c0,.75879-.44043,1.21973-1.07715,1.41602l.9082,1.14502c.08105,.10156,.13477,.18994,.13477,.31836,0,.23047-.19629,.38623-.39941,.38623-.19043,0-.31152-.08789-.40723-.2168l-1.15137-1.47021h-1.0498v1.27393c0,.22998-.18359,.41309-.41309,.41309-.2373,0-.4209-.18311-.4209-.41309v-3.94336Zm2.05371,1.93066c.5957,0,.97559-.31152,.97559-.79248v-.01318c0-.5083-.36621-.78613-.98242-.78613h-1.21289v1.5918h1.21973Z"
         style="fill: #1f1f1f;"
         id="path147" />
      <path
         d="M47.51562,184.20215v-3.90234c0-.2373,.18359-.41992,.41992-.41992h2.75781c.20312,0,.37305,.16943,.37305,.37256,0,.20996-.16992,.37256-.37305,.37256h-2.34375v1.2334h2.03906c.20312,0,.37305,.16895,.37305,.37891,0,.20361-.16992,.36621-.37305,.36621h-2.03906v1.27344h2.37793c.20312,0,.37207,.16943,.37207,.37305,0,.20996-.16895,.37207-.37207,.37207h-2.79199c-.23633,0-.41992-.18262-.41992-.41992Z"
         style="fill: #1f1f1f;"
         id="path149" />
      <path
         d="M52.13086,184.09375c-.0957-.06738-.16309-.18262-.16309-.31836,0-.2168,.17676-.38623,.39355-.38623,.11426,0,.18945,.03369,.24316,.07471,.39355,.31152,.81348,.48779,1.32812,.48779s.83984-.24365,.83984-.59619v-.01367c0-.33887-.18945-.52148-1.07031-.72461-1.00977-.24414-1.5791-.54199-1.5791-1.41602v-.01367c0-.81299,.67773-1.37549,1.61914-1.37549,.59668,0,1.07812,.15576,1.50488,.44043,.09473,.0542,.18262,.16943,.18262,.33203,0,.2168-.17578,.38623-.39258,.38623-.08203,0-.14941-.02051-.2168-.06104-.36621-.23682-.71875-.35889-1.09082-.35889-.48828,0-.77246,.25049-.77246,.56201v.01367c0,.36572,.2168,.52832,1.13086,.74512,1.00293,.24414,1.51758,.60303,1.51758,1.38916v.01367c0,.88721-.69727,1.41553-1.69336,1.41553-.64355,0-1.25391-.20312-1.78125-.59619Z"
         style="fill: #1f1f1f;"
         id="path151" />
      <path
         d="M56.81641,184.20215v-3.90234c0-.2373,.18359-.41992,.41992-.41992h2.75781c.20312,0,.37305,.16943,.37305,.37256,0,.20996-.16992,.37256-.37305,.37256h-2.34375v1.2334h2.03906c.20312,0,.37305,.16895,.37305,.37891,0,.20361-.16992,.36621-.37305,.36621h-2.03906v1.27344h2.37793c.20312,0,.37207,.16943,.37207,.37305,0,.20996-.16895,.37207-.37207,.37207h-2.79199c-.23633,0-.41992-.18262-.41992-.41992Z"
         style="fill: #1f1f1f;"
         id="path153" />
      <path
         d="M62.78027,180.65234h-1.15137c-.2168,0-.38672-.17627-.38672-.38623s.16992-.38623,.38672-.38623h3.15039c.20898,0,.37891,.17627,.37891,.38623s-.16992,.38623-.37891,.38623h-1.15918v3.59082c0,.22998-.18945,.41309-.41992,.41309s-.41992-.18311-.41992-.41309v-3.59082Z"
         style="fill: #1f1f1f;"
         id="path155" />
    </g>
    <g
       id="g167">
      <path
         d="M12.21191,182.26465v-.01367c0-1.32764,1.0166-2.45215,2.44629-2.45215,.71094,0,1.18555,.16895,1.61914,.48047,.08105,.06152,.16895,.17676,.16895,.33887,0,.22363-.18262,.41357-.41309,.41357-.1084,0-.18945-.04736-.25781-.09521-.30469-.22363-.63672-.37207-1.15137-.37207-.87402,0-1.53809,.76514-1.53809,1.67285v.01367c0,.97559,.64355,1.69385,1.6123,1.69385,.44727,0,.85352-.14209,1.14551-.35889v-.8877h-.93555c-.20312,0-.37305-.15576-.37305-.35938,0-.20312,.16992-.36523,.37305-.36523h1.32129c.2373,0,.41992,.18262,.41992,.41992v1.2666c0,.2373-.09473,.40674-.29102,.52832-.40723,.27148-.97559,.51514-1.68652,.51514-1.48438,0-2.45996-1.05713-2.45996-2.43896Z"
         style="fill: #1f1f1f;"
         id="path159" />
      <path
         d="M17.60547,184.08008l1.76074-3.9292c.09473-.20996,.26465-.33887,.50098-.33887h.04102c.2373,0,.40039,.12891,.49414,.33887l1.76172,3.9292c.03418,.06152,.04785,.12207,.04785,.17627,0,.22363-.16895,.3999-.39355,.3999-.19629,0-.33203-.11523-.40625-.2915l-.38574-.88721h-2.30371l-.39941,.91455c-.06738,.16943-.20996,.26416-.38672,.26416-.2168,0-.38574-.16943-.38574-.38623,0-.06104,.02051-.12207,.05469-.18994Zm3.10254-1.34131l-.83301-1.91748-.83398,1.91748h1.66699Z"
         style="fill: #1f1f1f;"
         id="path161" />
      <path
         d="M23.875,180.65234h-1.15137c-.2168,0-.38574-.17627-.38574-.38623s.16895-.38623,.38574-.38623h3.15039c.20996,0,.37988,.17627,.37988,.38623s-.16992,.38623-.37988,.38623h-1.15918v3.59082c0,.22998-.18945,.41309-.41992,.41309s-.41992-.18311-.41992-.41309v-3.59082Z"
         style="fill: #1f1f1f;"
         id="path163" />
      <path
         d="M27.25391,184.20215v-3.90234c0-.2373,.18262-.41992,.41992-.41992h2.75781c.20312,0,.37207,.16943,.37207,.37256,0,.20996-.16895,.37256-.37207,.37256h-2.34473v1.2334h2.04004c.20312,0,.37207,.16895,.37207,.37891,0,.20361-.16895,.36621-.37207,.36621h-2.04004v1.27344h2.37793c.20312,0,.37305,.16943,.37305,.37305,0,.20996-.16992,.37207-.37305,.37207h-2.79102c-.2373,0-.41992-.18262-.41992-.41992Z"
         style="fill: #1f1f1f;"
         id="path165" />
    </g>
    <g
       id="g177">
      <path
         d="M44.30469,135.41846c0-.23682,.18359-.41992,.41992-.41992h1.4502c1.11133,0,1.80176,.63037,1.80176,1.58545v.01367c0,1.06348-.85352,1.61914-1.89648,1.61914h-.94141v1.14453c0,.23047-.18359,.41357-.41406,.41357-.23633,0-.41992-.18311-.41992-.41357v-3.94287Zm1.80273,2.04639c.62988,0,1.02246-.35254,1.02246-.84717v-.01318c0-.55566-.39941-.84717-1.02246-.84717h-.96875v1.70752h.96875Z"
         style="fill: #1f1f1f;"
         id="path169" />
      <path
         d="M48.94141,137.72852v-2.35059c0-.23047,.18359-.41309,.41992-.41309,.23047,0,.41406,.18262,.41406,.41309v2.31689c0,.88086,.45312,1.34814,1.19824,1.34814,.73926,0,1.19238-.44043,1.19238-1.31445v-2.35059c0-.23047,.18359-.41309,.41992-.41309,.23047,0,.41406,.18262,.41406,.41309v2.31055c0,1.41553-.7998,2.12695-2.03906,2.12695-1.2334,0-2.01953-.71143-2.01953-2.08691Z"
         style="fill: #1f1f1f;"
         id="path171" />
      <path
         d="M54.23828,139.2124c-.0957-.06787-.16309-.18311-.16309-.31836,0-.2168,.17676-.38623,.39355-.38623,.11426,0,.18945,.03418,.24316,.07471,.39355,.31152,.81348,.48779,1.32812,.48779s.83984-.24414,.83984-.59619v-.01367c0-.33838-.18945-.52148-1.07031-.7251-1.00977-.24365-1.5791-.54199-1.5791-1.41602v-.01318c0-.81299,.67773-1.37549,1.61914-1.37549,.59668,0,1.07812,.15625,1.50488,.44043,.09473,.0542,.18262,.16943,.18262,.33203,0,.2168-.17578,.38623-.39258,.38623-.08203,0-.14941-.02051-.2168-.06104-.36621-.2373-.71875-.35938-1.09082-.35938-.48828,0-.77246,.25098-.77246,.5625v.01367c0,.36572,.2168,.52832,1.13086,.74512,1.00293,.24414,1.51758,.60303,1.51758,1.38867v.01367c0,.8877-.69727,1.41602-1.69336,1.41602-.64355,0-1.25391-.20312-1.78125-.59619Z"
         style="fill: #1f1f1f;"
         id="path173" />
      <path
         d="M58.92383,135.37793c0-.23047,.18359-.41309,.41992-.41309,.23047,0,.41406,.18262,.41406,.41309v1.5918h2.2627v-1.5918c0-.23047,.18262-.41309,.41309-.41309,.2373,0,.41992,.18262,.41992,.41309v3.9834c0,.23047-.18262,.41357-.41992,.41357-.23047,0-.41309-.18311-.41309-.41357v-1.61914h-2.2627v1.61914c0,.23047-.18359,.41357-.41406,.41357-.23633,0-.41992-.18311-.41992-.41357v-3.9834Z"
         style="fill: #1f1f1f;"
         id="path175" />
    </g>
    <g
       id="g187">
      <g
         id="g183">
        <path
           d="M15.90332,225.72949h-1.00293c-.26367,0-.48047-.2168-.48047-.48096s.2168-.48096,.48047-.48096h3.04883c.26367,0,.48047,.2168,.48047,.48096s-.2168,.48096-.48047,.48096h-1.00195v3.2998c0,.29102-.23047,.52148-.52148,.52148-.29199,0-.52246-.23047-.52246-.52148v-3.2998Z"
           style="fill: #f0f0f0;"
           id="path179" />
        <path
           d="M19.33984,225.28906c0-.29102,.22949-.52148,.52148-.52148h1.64648c.60156,0,1.07031,.16943,1.38086,.48096,.26465,.26416,.40625,.63721,.40625,1.08398v.01367c0,.74512-.37207,1.20557-.94727,1.44287l.72461,.88086c.10156,.12891,.16992,.2373,.16992,.39941,0,.2915-.24414,.48145-.49512,.48145-.2373,0-.39355-.11523-.51465-.271l-1.0166-1.2876h-.83301v1.03711c0,.29102-.23047,.52148-.52148,.52148-.29199,0-.52148-.23047-.52148-.52148v-3.74023Zm2.09961,1.78223c.50781,0,.79883-.27148,.79883-.6709v-.01367c0-.44727-.31055-.67773-.81934-.67773h-1.03613v1.3623h1.05664Z"
           style="fill: #f0f0f0;"
           id="path181" />
      </g>
      <polyline
         points="29.07812 225.27004 27.79044 225.27004 27.79044 229.15129 26.50277 229.15129"
         style="fill: none; stroke: #f0f0f0; stroke-linecap: round; stroke-linejoin: round;"
         id="polyline185" />
    </g>
    <g
       id="g197">
      <g
         id="g193">
        <path
           d="M47.89062,225.72949h-1.00195c-.26367,0-.48047-.2168-.48047-.48096s.2168-.48096,.48047-.48096h3.04883c.26367,0,.48047,.2168,.48047,.48096s-.2168,.48096-.48047,.48096h-1.00293v3.2998c0,.29102-.23047,.52148-.52246,.52148-.29102,0-.52148-.23047-.52148-.52148v-3.2998Z"
           style="fill: #f0f0f0;"
           id="path189" />
        <path
           d="M51.32617,225.28906c0-.29102,.23047-.52148,.52246-.52148h1.64551c.60352,0,1.07129,.16943,1.38281,.48096,.26367,.26416,.40625,.63721,.40625,1.08398v.01367c0,.74512-.37305,1.20557-.94824,1.44287l.72559,.88086c.10156,.12891,.16797,.2373,.16797,.39941,0,.2915-.24316,.48145-.49414,.48145-.23633,0-.39258-.11523-.51465-.271l-1.0166-1.2876h-.83301v1.03711c0,.29102-.22949,.52148-.52148,.52148s-.52246-.23047-.52246-.52148v-3.74023Zm2.10156,1.78223c.50781,0,.79883-.27148,.79883-.6709v-.01367c0-.44727-.31152-.67773-.82031-.67773h-1.03613v1.3623h1.05762Z"
           style="fill: #f0f0f0;"
           id="path191" />
      </g>
      <polyline
         points="58.48999 225.27004 59.77767 225.27004 59.77767 229.15129 61.06534 229.15129"
         style="fill: none; stroke: #f0f0f0; stroke-linecap: round; stroke-linejoin: round;"
         id="polyline195" />
    </g>
  </g>
  <g
     id="uuid-a23f09b5-477f-41c2-af64-c19c1e8e2550"
     data-name="components"
     style="display:none"
     inkscape:groupmode="layer">
    <circle
       id="uuid-b91c5256-1733-4bb6-98de-ebbd36077a5c"
       data-name="TrRise#TinyLight"
       cx="32.5597"
       cy="233.28703"
       r="1.5"
       style="fill:#ff00ff" />
    <circle
       id="uuid-f1d7c40d-ea8a-40ea-973d-0ca2ff9e9327"
       data-name="TrFall#TinyLight"
       cx="64.559898"
       cy="233.287"
       r="1.5"
       style="fill:#ff00ff" />
    <circle
       id="uuid-178e8fed-acc5-4038-a523-f7c5eaec47da"
       data-name="Flip#TinyLight"
       cx="32.5597"
       cy="278.24713"
       r="1.5"
       style="fill:#ff00ff" />
    <circle
       id="uuid-056826d9-4649-4b4e-89cb-362d0951892d"
       data-name="Flop#TinyLight"
       cx="64.559898"
       cy="278.2471"
       r="1.5"
       style="fill:#ff00ff" />
    <circle
       id="uuid-1bf221d9-8667-450a-9f92-099ad7e27d79"
       data-name="Gate#TinyLight"
       cx="32.559719"
       cy="323.01172"
       r="1.5"
       style="fill:#ff00ff" />
    <circle
       id="uuid-9bd79e03-0112-41e9-ad71-f5138b24ac56"
       data-name="End#TinyLight"
       cx="64.559853"
       cy="323.01172"
       r="1.5"
       style="fill:#ff00ff" />
    <circle
       id="uuid-ac50e4a2-817d-48f3-890a-2aac6421d385"
       data-name="In#PJ301MPort"
       cx="21.545441"
       cy="199.39957"
       r="5"
       style="fill:#00ff00" />
    <circle
       id="uuid-78ab49bb-0d46-4ced-8a7d-2e99c57af42a"
       data-name="TrRise#PJ301MPort"
       cx="21.545441"
       cy="244.28706"
       r="5"
       style="fill:#0000ff" />
    <circle
       id="uuid-cdf8b3c3-1158-49a5-979d-1555aacf7113"
       data-name="TrFall#PJ301MPort"
       cx="53.54557"
       cy="244.28706"
       r="5"
       style="fill:#0000ff" />
    <circle
       id="uuid-dd68fdc1-8426-4794-8dd9-b3df1fadcc46"
       data-name="Flip#PJ301MPort"
       cx="21.545441"
       cy="289.2471"
       r="5"
       style="fill:#0000ff" />
    <circle
       id="uuid-12a5c647-2aa4-4120-8205-0c839830d531"
       data-name="Flop#PJ301MPort"
       cx="53.54557"
       cy="289.2471"
       r="5"
       style="fill:#0000ff" />
    <circle
       id="uuid-b7048583-e02d-4f08-ac6d-9d53a58a765f"
       data-name="Gate#PJ301MPort"
       cx="21.545441"
       cy="334"
       r="5"
       style="fill:#0000ff" />
    <circle
       id="uuid-a03766bf-7ef7-4399-8667-ee785113ef62"
       data-name="End#PJ301MPort"
       cx="53.54557"
       cy="334"
       r="5"
       style="fill:#0000ff" />
    <circle
       id="uuid-3518d1ae-b20a-4210-b75f-d57be9a528c2"
       data-name="Length#PJ301MPort"
       cx="21.551001"
       cy="154.45821"
       r="5"
       style="fill:#00ff00" />
    <circle
       id="uuid-3416282b-7119-4cbc-bcf3-01599412f34a"
       data-name="Length#RoundLargeBlackKnob"
       cx="37.33955"
       cy="78.999962"
       r="5"
       style="fill:#ff0000" />
    <circle
       id="uuid-8a97e52c-77be-4e5d-8502-afd22596f5ef"
       data-name="Reset#PJ301MPort"
       cx="53.539169"
       cy="199.3996"
       r="5"
       style="fill:#00ff00" />
    <circle
       id="uuid-36ebbee2-fee5-4d28-b083-cce34d679860"
       data-name="Push#LEDLightBezel"
       cx="53.580639"
       cy="154.45821"
       r="5"
       style="fill:#ff0000" />
  </g>
</svg>
