<?xml version="1.0" encoding="UTF-8" standalone="no"?>
<svg
   xmlns:dc="http://purl.org/dc/elements/1.1/"
   xmlns:cc="http://creativecommons.org/ns#"
   xmlns:rdf="http://www.w3.org/1999/02/22-rdf-syntax-ns#"
   xmlns:svg="http://www.w3.org/2000/svg"
   xmlns="http://www.w3.org/2000/svg"
   xmlns:sodipodi="http://sodipodi.sourceforge.net/DTD/sodipodi-0.dtd"
   xmlns:inkscape="http://www.inkscape.org/namespaces/inkscape"
   width="75"
   height="380"
   viewBox="0 0 75 380"
   version="1.1"
   id="svg224"
   sodipodi:docname="GATES.svg"
   inkscape:version="0.92.3 (2405546, 2018-03-11)">
  <metadata
     id="metadata228">
    <rdf:RDF>
      <cc:Work
         rdf:about="">
        <dc:format>image/svg+xml</dc:format>
        <dc:type
           rdf:resource="http://purl.org/dc/dcmitype/StillImage" />
      </cc:Work>
    </rdf:RDF>
  </metadata>
  <sodipodi:namedview
     pagecolor="#ffffff"
     bordercolor="#666666"
     borderopacity="1"
     objecttolerance="10"
     gridtolerance="10"
     guidetolerance="10"
     inkscape:pageopacity="0"
     inkscape:pageshadow="2"
     inkscape:window-width="1920"
     inkscape:window-height="1017"
     id="namedview226"
     showgrid="false"
     inkscape:zoom="0.62105263"
     inkscape:cx="37.5"
     inkscape:cy="190"
     inkscape:window-x="-8"
     inkscape:window-y="-8"
     inkscape:window-maximized="1"
     inkscape:current-layer="svg224" />
  <defs
     id="defs9">
    <style
       id="style2">
      .uuid-bb7c32c4-4b1e-4b6a-844b-0c8ec144ca83 {
        fill: #f0f0f0;
      }

      .uuid-d96ef60a-5985-4e14-949c-e11597a05a2a {
        stroke: #f0f0f0;
        stroke-linejoin: round;
      }

      .uuid-d96ef60a-5985-4e14-949c-e11597a05a2a, .uuid-0aa0b935-4866-42d2-89e0-91d8a534137b, .uuid-15803e3d-1f63-4961-bbe6-c023b2f3b8a5, .uuid-b3a73993-7e21-411e-b3b2-f8c281165e07 {
        fill: none;
      }

      .uuid-d96ef60a-5985-4e14-949c-e11597a05a2a, .uuid-b3a73993-7e21-411e-b3b2-f8c281165e07 {
        stroke-linecap: round;
      }

      .uuid-82d7905b-3985-4abb-8947-d7b485ce84ff {
        fill: blue;
      }

      .uuid-c345a922-7cb0-47fe-921b-c1decf6480ac {
        fill: url(#uuid-ec0dca01-7fcb-4ef4-8052-9e1baef6e2ca);
      }

      .uuid-800db68f-5307-4670-a574-e9e9d2bc9e8c {
        fill: lime;
      }

      .uuid-0aa0b935-4866-42d2-89e0-91d8a534137b {
        isolation: isolate;
        opacity: .69;
      }

      .uuid-9e11751d-837c-4d17-ab47-32f3f71abac9 {
        fill: #f0f;
      }

      .uuid-b3a73993-7e21-411e-b3b2-f8c281165e07 {
        stroke: #1f1f1f;
        stroke-miterlimit: 10;
        stroke-width: .8px;
      }

      .uuid-1412a00e-ee33-490c-85e4-e97bd73f9eb8 {
        fill: #1f1f1f;
      }

      .uuid-bc4d3398-b917-47f4-a0a9-42edd493eb0b {
        fill: red;
      }
    </style>
    <linearGradient
       id="uuid-ec0dca01-7fcb-4ef4-8052-9e1baef6e2ca"
       x1="37.5"
       y1="0"
       x2="37.5"
       y2="380"
       gradientTransform="matrix(1, 0, 0, 1, 0, 0)"
       gradientUnits="userSpaceOnUse">
      <stop
         offset="0"
         stop-color="#ebebeb"
         id="stop4" />
      <stop
         offset="1"
         stop-color="#e1e1e1"
         id="stop6" />
    </linearGradient>
  </defs>
  <g
     id="uuid-dcebe214-9d18-4975-bd44-d294a5ddbc24"
     data-name="FND BG">
    <rect
       width="75"
       height="380"
       style="fill: url(#uuid-ec0dca01-7fcb-4ef4-8052-9e1baef6e2ca);"
       id="rect11" />
  </g>
  <g
     id="uuid-a9181b64-0edd-4cc9-ab3e-56aeddd0dfde"
     data-name="FND GRAPH"
     style="display:inline">
    <g
       id="g18">
      <rect
         x="7.2241602"
         y="219.63045"
         width="28.55155"
         height="39.15691"
         rx="2.83465"
         ry="2.83465"
         style="fill:#1f1f1f"
         id="rect14" />
      <rect
         x="18.07571"
         y="241.14133"
         width="6.86765"
         height="6.6499901"
         style="fill:#1f1f1f"
         id="rect16" />
    </g>
    <g
       id="g24">
      <rect
         x="39.224289"
         y="219.63045"
         width="28.55155"
         height="39.15691"
         rx="2.83465"
         ry="2.83465"
         style="fill:#1f1f1f"
         id="rect20" />
      <rect
         x="50.07584"
         y="241.14133"
         width="6.86765"
         height="6.6499901"
         style="fill:#1f1f1f"
         id="rect22" />
    </g>
    <g
       id="g30">
      <rect
         x="7.2241602"
         y="264.48514"
         width="28.55155"
         height="39.15691"
         rx="2.83465"
         ry="2.83465"
         style="fill:#1f1f1f"
         id="rect26" />
      <rect
         x="18.07571"
         y="285.99603"
         width="6.86765"
         height="6.6499901"
         style="fill:#1f1f1f"
         id="rect28" />
    </g>
    <g
       id="g36">
      <rect
         x="39.224289"
         y="264.48514"
         width="28.55155"
         height="39.15691"
         rx="2.83465"
         ry="2.83465"
         style="fill:#1f1f1f"
         id="rect32" />
      <rect
         x="50.07584"
         y="285.99603"
         width="6.86765"
         height="6.6499901"
         style="fill:#1f1f1f"
         id="rect34" />
    </g>
    <g
       id="g42">
      <rect
         x="7.2241602"
         y="309.05634"
         width="28.55155"
         height="39.15691"
         rx="2.83465"
         ry="2.83465"
         style="fill:#1f1f1f"
         id="rect38" />
      <rect
         x="18.07571"
         y="330.56723"
         width="6.86765"
         height="6.6499901"
         style="fill:#1f1f1f"
         id="rect40" />
    </g>
    <g
       id="g48">
      <rect
         x="39.224289"
         y="309.05634"
         width="28.55155"
         height="39.15691"
         rx="2.83465"
         ry="2.83465"
         style="fill:#1f1f1f"
         id="rect44" />
      <rect
         x="50.07584"
         y="330.56723"
         width="6.86765"
         height="6.6499901"
         style="fill:#1f1f1f"
         id="rect46" />
    </g>
    <g
       id="g60">
      <circle
         cx="37.5"
         cy="78.999901"
         r="26.48818"
         style="opacity:0.68999999;isolation:isolate;fill:none"
         id="circle50" />
      <g
         id="g56">
        <path
           d="m 48.29822,97.10256 c 6.2955,-3.78272 10.15833,-10.61025 10.15833,-17.95479 0,-11.491 -9.45566,-20.94666 -20.94666,-20.94666 -11.491,0 -20.94666,9.45566 -20.94666,20.94666 0,7.39639 3.91756,14.2646 10.28394,18.02967"
           style="fill:none;stroke:#1f1f1f;stroke-width:0.80000001px;stroke-linecap:round;stroke-miterlimit:10"
           id="path52"
           inkscape:connector-curvature="0" />
        <g
           id="g54" />
      </g>
      <line
         x1="48.298222"
         y1="97.102562"
         x2="37.5"
         y2="78.999901"
         style="fill:none"
         id="line58" />
    </g>
    <path
       d="m 53.85161,174.55701 1.65796,-2.87167 c 0.14313,-0.24791 -0.03578,-0.55779 -0.32204,-0.55779 h -3.31592 c -0.28626,0 -0.46517,0.30988 -0.32204,0.55779 l 1.65796,2.87167 c 0.14313,0.24791 0.50096,0.24791 0.64409,0 z"
       style="fill:#1f1f1f"
       id="path62"
       inkscape:connector-curvature="0" />
    <g
       id="g72">
      <circle
         cx="38.001652"
         cy="356.26779"
         r="1.18571"
         style="fill:#1f1f1f"
         id="circle64" />
      <path
         d="m 29.35927,360.18977 c -0.34551,0 -0.66126,-0.1952 -0.8158,-0.50419 l -2.96428,-5.92856 c -0.22526,-0.45057 -0.04266,-0.99844 0.40794,-1.2237 0.45008,-0.22535 0.99831,-0.0427 1.22366,0.4079 l 2.14848,4.29696 2.14848,-4.29696 c 0.22526,-0.45057 0.77314,-0.63325 1.22366,-0.4079 0.45061,0.22526 0.63321,0.77314 0.40794,1.2237 l -2.96428,5.92856 c -0.15454,0.30899 -0.47029,0.50419 -0.8158,0.50419 z"
         style="fill:#1f1f1f"
         id="path66"
         inkscape:connector-curvature="0" />
      <path
         d="m 45.64073,360.18977 c -0.34551,0 -0.66126,-0.1952 -0.8158,-0.50419 l -2.96428,-5.92856 c -0.22526,-0.45057 -0.04266,-0.99844 0.40794,-1.2237 0.45016,-0.22535 0.9984,-0.0427 1.22366,0.4079 l 2.14848,4.29696 2.14848,-4.29696 c 0.22526,-0.45057 0.77305,-0.63325 1.22366,-0.4079 0.45061,0.22526 0.63321,0.77314 0.40794,1.2237 l -2.96428,5.92856 c -0.15454,0.30899 -0.47029,0.50419 -0.8158,0.50419 z"
         style="fill:#1f1f1f"
         id="path68"
         inkscape:connector-curvature="0" />
      <path
         d="m 37.94242,360.18977 c -2.13744,0 -3.87637,-1.73893 -3.87637,-3.87637 0,-2.13744 1.73893,-3.87637 3.87637,-3.87637 0.84653,0 1.65102,0.26819 2.32653,0.77554 0.40278,0.30253 0.48401,0.87428 0.18153,1.27705 -0.30248,0.40273 -0.87432,0.48401 -1.2771,0.18148 -0.357,-0.26815 -0.78267,-0.4099 -1.23096,-0.4099 -1.13156,0 -2.05219,0.92059 -2.05219,2.05219 0,1.1316 0.92064,2.05219 2.05219,2.05219 0.44829,0 0.87396,-0.14176 1.23096,-0.4099 0.40269,-0.30271 0.97444,-0.22125 1.2771,0.18148 0.30248,0.40278 0.22125,0.97453 -0.18153,1.27705 -0.67551,0.50735 -1.48,0.77554 -2.32653,0.77554 z"
         style="fill:#1f1f1f"
         id="path70"
         inkscape:connector-curvature="0" />
    </g>
  </g>
  <g
     id="uuid-ebaaab32-e0ef-4e2d-8129-ea661dfd51b3"
     data-name="FND TXT"
     style="display:inline">
    <g
       id="g83">
      <path
         d="m 44.43164,270.14355 c 0,-0.2915 0.23047,-0.52197 0.52148,-0.52197 h 2.65625 c 0.26367,0 0.47461,0.20996 0.47461,0.47412 0,0.26465 -0.21094,0.47461 -0.47461,0.47461 H 45.4746 v 1.00928 h 1.83008 c 0.26367,0 0.47461,0.20996 0.47461,0.47412 0,0.26416 -0.21094,0.47461 -0.47461,0.47461 H 45.4746 v 1.35449 c 0,0.2915 -0.23047,0.52197 -0.52148,0.52197 -0.29101,0 -0.52148,-0.23047 -0.52148,-0.52197 z"
         style="fill:#f0f0f0"
         id="path75"
         inkscape:connector-curvature="0" />
      <path
         d="m 49.00977,270.10254 c 0,-0.29102 0.23047,-0.52148 0.52246,-0.52148 0.29199,0 0.52148,0.23047 0.52148,0.52148 v 3.31299 h 1.93066 c 0.26465,0 0.47461,0.20996 0.47461,0.47412 0,0.26465 -0.20996,0.47461 -0.47461,0.47461 h -2.45215 c -0.29199,0 -0.52246,-0.23047 -0.52246,-0.52197 v -3.73975 z"
         style="fill:#f0f0f0"
         id="path77"
         inkscape:connector-curvature="0" />
      <path
         d="m 52.98242,272.00635 v -0.0137 c 0,-1.34814 1.06348,-2.45264 2.52734,-2.45264 1.46289,0 2.5127,1.09082 2.5127,2.43945 v 0.0132 c 0,1.34814 -1.06348,2.45264 -2.52637,2.45264 -1.46387,0 -2.51367,-1.09082 -2.51367,-2.43896 z m 3.94922,0 v -0.0137 c 0,-0.81299 -0.5957,-1.49023 -1.43555,-1.49023 -0.83985,0 -1.42383,0.66357 -1.42383,1.47705 v 0.0132 c 0,0.81299 0.59668,1.49072 1.4375,1.49072 0.83984,0 1.42188,-0.66406 1.42188,-1.47705 z"
         style="fill:#f0f0f0"
         id="path79"
         inkscape:connector-curvature="0" />
      <path
         d="m 59.16992,270.14355 c 0,-0.2915 0.22949,-0.52197 0.52148,-0.52197 h 1.41602 c 1.13086,0 1.81445,0.67041 1.81445,1.63965 v 0.0132 c 0,1.09766 -0.85352,1.66699 -1.91602,1.66699 h -0.79297 v 0.94141 c 0,0.2915 -0.23047,0.52197 -0.52148,0.52197 -0.29199,0 -0.52148,-0.23047 -0.52148,-0.52197 z m 1.86914,1.86963 c 0.52148,0 0.82617,-0.31201 0.82617,-0.71826 v -0.0137 c 0,-0.46729 -0.32422,-0.71777 -0.84668,-0.71777 h -0.80566 v 1.44971 h 0.82617 z"
         style="fill:#f0f0f0"
         id="path81"
         inkscape:connector-curvature="0" />
    </g>
    <g
       id="g93">
      <path
         d="m 14.15039,270.14355 c 0,-0.2915 0.23047,-0.52197 0.52148,-0.52197 h 2.65625 c 0.26367,0 0.47461,0.20996 0.47461,0.47412 0,0.26465 -0.21094,0.47461 -0.47461,0.47461 h -2.13477 v 1.00928 h 1.83008 c 0.26367,0 0.47461,0.20996 0.47461,0.47412 0,0.26416 -0.21094,0.47461 -0.47461,0.47461 h -1.83008 v 1.35449 c 0,0.2915 -0.22949,0.52197 -0.52148,0.52197 -0.29102,0 -0.52148,-0.23047 -0.52148,-0.52197 z"
         style="fill:#f0f0f0"
         id="path85"
         inkscape:connector-curvature="0" />
      <path
         d="m 18.72949,270.10254 c 0,-0.29102 0.22949,-0.52148 0.52148,-0.52148 0.29102,0 0.52148,0.23047 0.52148,0.52148 v 3.31299 h 1.93066 c 0.26465,0 0.47461,0.20996 0.47461,0.47412 0,0.26465 -0.20996,0.47461 -0.47461,0.47461 h -2.45215 c -0.29199,0 -0.52148,-0.23047 -0.52148,-0.52197 v -3.73975 z"
         style="fill:#f0f0f0"
         id="path87"
         inkscape:connector-curvature="0" />
      <path
         d="m 23.10352,270.10254 c 0,-0.29102 0.23047,-0.52148 0.52148,-0.52148 0.29199,0 0.52148,0.23047 0.52148,0.52148 v 3.78027 c 0,0.2915 -0.22949,0.52197 -0.52148,0.52197 -0.29102,0 -0.52148,-0.23047 -0.52148,-0.52197 z"
         style="fill:#f0f0f0"
         id="path89"
         inkscape:connector-curvature="0" />
      <path
         d="m 25.55273,270.14355 c 0,-0.2915 0.23047,-0.52197 0.52148,-0.52197 h 1.41602 c 1.13184,0 1.81641,0.67041 1.81641,1.63965 v 0.0132 c 0,1.09766 -0.85352,1.66699 -1.91797,1.66699 H 26.5957 v 0.94141 c 0,0.2915 -0.22949,0.52197 -0.52148,0.52197 -0.29102,0 -0.52148,-0.23047 -0.52148,-0.52197 v -3.73926 z m 1.87012,1.86963 c 0.52148,0 0.82715,-0.31201 0.82715,-0.71826 v -0.0137 c 0,-0.46729 -0.32617,-0.71777 -0.84766,-0.71777 H 26.5957 v 1.44971 h 0.82715 z"
         style="fill:#f0f0f0"
         id="path91"
         inkscape:connector-curvature="0" />
    </g>
    <g
       id="g103">
      <path
         d="m 12.15039,316.55176 v -0.0137 c 0,-1.34814 1.05078,-2.45215 2.48633,-2.45215 0.71875,0 1.19238,0.16211 1.61914,0.46045 0.10156,0.0747 0.2168,0.2168 0.2168,0.41992 0,0.28467 -0.23047,0.51514 -0.51465,0.51514 -0.14941,0 -0.24316,-0.0542 -0.31836,-0.1084 -0.28418,-0.20312 -0.58887,-0.3252 -1.03613,-0.3252 -0.75977,0 -1.3623,0.6709 -1.3623,1.47656 v 0.0137 c 0,0.86719 0.59668,1.50391 1.43652,1.50391 0.37891,0 0.71777,-0.0947 0.98242,-0.28418 v -0.67773 h -0.70508 c -0.25,0 -0.45312,-0.19629 -0.45312,-0.44727 0,-0.25049 0.20312,-0.45361 0.45312,-0.45361 h 1.19336 c 0.29102,0 0.52148,0.22998 0.52148,0.52148 v 1.15186 c 0,0.30469 -0.11523,0.51465 -0.36621,0.66406 -0.38574,0.2373 -0.94824,0.47412 -1.66016,0.47412 -1.47656,0 -2.49316,-1.03662 -2.49316,-2.43896 z"
         style="fill:#f0f0f0"
         id="path95"
         inkscape:connector-curvature="0" />
      <path
         d="m 17.55859,318.23877 1.65332,-3.73291 c 0.11523,-0.25781 0.3252,-0.41309 0.61035,-0.41309 h 0.06055 c 0.28418,0 0.4873,0.15527 0.60254,0.41309 l 1.65332,3.73291 c 0.0332,0.0747 0.05469,0.14209 0.05469,0.20996 0,0.27783 -0.2168,0.50146 -0.49512,0.50146 -0.24414,0 -0.40625,-0.14258 -0.50098,-0.35938 l -0.31836,-0.74512 h -2.08691 l -0.33203,0.7793 c -0.08887,0.20312 -0.26465,0.3252 -0.48145,0.3252 -0.27051,0 -0.48047,-0.2168 -0.48047,-0.48779 0,-0.0747 0.02734,-0.14893 0.06055,-0.22363 z m 2.93359,-1.31445 -0.65723,-1.56494 -0.65723,1.56494 h 1.31445 z"
         style="fill:#f0f0f0"
         id="path97"
         inkscape:connector-curvature="0" />
      <path
         d="m 23.79102,315.12891 h -1.00195 c -0.26465,0 -0.48145,-0.2168 -0.48145,-0.48096 0,-0.26416 0.2168,-0.48096 0.48145,-0.48096 h 3.04785 c 0.26465,0 0.48145,0.2168 0.48145,0.48096 0,0.26416 -0.2168,0.48096 -0.48145,0.48096 h -1.00293 v 3.2998 c 0,0.29102 -0.23047,0.52148 -0.52148,0.52148 -0.29101,0 -0.52148,-0.23047 -0.52148,-0.52148 v -3.2998 z"
         style="fill:#f0f0f0"
         id="path99"
         inkscape:connector-curvature="0" />
      <path
         d="m 27.22656,318.3877 v -3.69922 c 0,-0.29102 0.23047,-0.52148 0.52148,-0.52148 h 2.62891 c 0.25781,0 0.46777,0.20996 0.46777,0.46777 0,0.25684 -0.20996,0.46045 -0.46777,0.46045 h -2.11328 v 0.96191 h 1.80859 c 0.25781,0 0.4668,0.20996 0.4668,0.46729 0,0.25781 -0.20898,0.46094 -0.4668,0.46094 h -1.80859 v 0.99609 h 2.14746 c 0.25684,0 0.46777,0.20996 0.46777,0.46729 0,0.25733 -0.21094,0.46045 -0.46777,0.46045 h -2.66309 c -0.29102,0 -0.52148,-0.22998 -0.52148,-0.52148 z"
         style="fill:#f0f0f0"
         id="path101"
         inkscape:connector-curvature="0" />
    </g>
    <g
       id="g111">
      <path
         d="m 46.09961,318.3877 v -3.69922 c 0,-0.29102 0.23047,-0.52148 0.52148,-0.52148 H 49.25 c 0.25781,0 0.4668,0.20996 0.4668,0.46777 0,0.25684 -0.20898,0.46045 -0.4668,0.46045 h -2.11426 v 0.96191 h 1.80957 c 0.25684,0 0.4668,0.20996 0.4668,0.46729 0,0.25781 -0.20996,0.46094 -0.4668,0.46094 h -1.80957 v 0.99609 h 2.14746 c 0.25781,0 0.46777,0.20996 0.46777,0.46729 0,0.25733 -0.20996,0.46045 -0.46777,0.46045 h -2.66211 c -0.29102,0 -0.52148,-0.22998 -0.52148,-0.52148 z"
         style="fill:#f0f0f0"
         id="path105"
         inkscape:connector-curvature="0" />
      <path
         d="m 50.55664,316.55176 v -0.0137 c 0,-1.34814 1.06348,-2.45215 2.52734,-2.45215 1.46289,0 2.5127,1.09082 2.5127,2.43848 v 0.0137 c 0,1.34863 -1.06348,2.45264 -2.52637,2.45264 -1.46387,0 -2.51367,-1.09082 -2.51367,-2.43896 z m 3.94922,0 v -0.0137 c 0,-0.81299 -0.5957,-1.49023 -1.43555,-1.49023 -0.83985,0 -1.42383,0.66406 -1.42383,1.47656 v 0.0137 c 0,0.81299 0.59668,1.49072 1.4375,1.49072 0.83984,0 1.42188,-0.66406 1.42188,-1.47705 z"
         style="fill:#f0f0f0"
         id="path107"
         inkscape:connector-curvature="0" />
      <path
         d="m 56.50586,316.55176 v -0.0137 c 0,-1.34814 1.0498,-2.45215 2.48633,-2.45215 0.71777,0 1.19141,0.16211 1.61914,0.46045 0.10156,0.0747 0.2168,0.2168 0.2168,0.41992 0,0.28467 -0.23047,0.51514 -0.51562,0.51514 -0.14844,0 -0.24316,-0.0542 -0.31836,-0.1084 -0.28418,-0.20312 -0.58887,-0.3252 -1.03613,-0.3252 -0.75879,0 -1.3623,0.6709 -1.3623,1.47656 v 0.0137 c 0,0.86719 0.59668,1.50391 1.4375,1.50391 0.37891,0 0.7168,-0.0947 0.98242,-0.28418 v -0.67773 h -0.70508 c -0.25098,0 -0.4541,-0.19629 -0.4541,-0.44727 0,-0.25049 0.20312,-0.45361 0.4541,-0.45361 h 1.19238 c 0.29102,0 0.52148,0.22998 0.52148,0.52148 v 1.15186 c 0,0.30469 -0.11523,0.51465 -0.36621,0.66406 -0.38574,0.2373 -0.94824,0.47412 -1.66016,0.47412 -1.47656,0 -2.49219,-1.03662 -2.49219,-2.43896 z"
         style="fill:#f0f0f0"
         id="path109"
         inkscape:connector-curvature="0" />
    </g>
    <g
       id="g125">
      <path
         d="m 7.28223,135.2583 c 0,-0.23047 0.18262,-0.41357 0.41992,-0.41357 0.23047,0 0.41309,0.18311 0.41309,0.41357 v 3.604 h 2.14844 c 0.20996,0 0.37891,0.16992 0.37891,0.37988 0,0.20996 -0.16895,0.37891 -0.37891,0.37891 H 7.70216 c -0.2373,0 -0.41992,-0.18262 -0.41992,-0.41992 v -3.94287 z"
         style="fill:#1f1f1f"
         id="path113"
         inkscape:connector-curvature="0" />
      <path
         d="m 11.63574,139.20117 v -3.90234 c 0,-0.2373 0.18262,-0.41992 0.41992,-0.41992 h 2.75684 c 0.2041,0 0.37305,0.16943 0.37305,0.37256 0,0.20996 -0.16895,0.37256 -0.37305,0.37256 h -2.34375 v 1.2334 h 2.03906 c 0.20312,0 0.37305,0.16895 0.37305,0.37891 0,0.20361 -0.16992,0.36621 -0.37305,0.36621 h -2.03906 v 1.27344 h 2.37793 c 0.2041,0 0.37305,0.16943 0.37305,0.37305 0,0.20996 -0.16895,0.37207 -0.37305,0.37207 h -2.79102 c -0.2373,0 -0.41992,-0.18262 -0.41992,-0.41992 z"
         style="fill:#1f1f1f"
         id="path115"
         inkscape:connector-curvature="0" />
      <path
         d="m 16.36133,135.27197 c 0,-0.23047 0.18262,-0.42041 0.41992,-0.42041 h 0.08789 c 0.20312,0 0.31836,0.10156 0.43359,0.24414 l 2.37109,3.06934 v -2.91357 c 0,-0.22363 0.18359,-0.40674 0.40625,-0.40674 0.23047,0 0.41406,0.18311 0.41406,0.40674 v 3.98389 c 0,0.23047 -0.17578,0.41309 -0.40625,0.41309 H 20.0537 c -0.19629,0 -0.31836,-0.10156 -0.43359,-0.25098 l -2.43945,-3.15674 v 3.0083 c 0,0.22314 -0.18262,0.40625 -0.40625,0.40625 -0.23047,0 -0.41309,-0.18311 -0.41309,-0.40625 v -3.97705 z"
         style="fill:#1f1f1f"
         id="path117"
         inkscape:connector-curvature="0" />
      <path
         d="M 21.70801,137.26367 V 137.25 c 0,-1.32764 1.0166,-2.45215 2.44629,-2.45215 0.71094,0 1.18555,0.16895 1.61914,0.48047 0.08105,0.0615 0.16895,0.17676 0.16895,0.33887 0,0.22363 -0.18262,0.41357 -0.41309,0.41357 -0.1084,0 -0.18945,-0.0474 -0.25781,-0.0952 -0.30469,-0.22363 -0.63672,-0.37207 -1.15137,-0.37207 -0.87402,0 -1.53809,0.76514 -1.53809,1.67285 v 0.0137 c 0,0.97559 0.64355,1.69385 1.6123,1.69385 0.44727,0 0.85352,-0.14209 1.14551,-0.35889 v -0.8877 h -0.93555 c -0.20312,0 -0.37305,-0.15576 -0.37305,-0.35938 0,-0.20312 0.16992,-0.36523 0.37305,-0.36523 h 1.32129 c 0.2373,0 0.41992,0.18262 0.41992,0.41992 v 1.2666 c 0,0.2373 -0.09473,0.40674 -0.29102,0.52832 -0.40723,0.27148 -0.97559,0.51514 -1.68652,0.51514 -1.48438,0 -2.45996,-1.05713 -2.45996,-2.43896 z"
         style="fill:#1f1f1f"
         id="path119"
         inkscape:connector-curvature="0" />
      <path
         d="m 28.50586,135.65137 h -1.15137 c -0.2168,0 -0.38574,-0.17627 -0.38574,-0.38623 0,-0.20996 0.16895,-0.38623 0.38574,-0.38623 h 3.15039 c 0.20996,0 0.37988,0.17627 0.37988,0.38623 0,0.20996 -0.16992,0.38623 -0.37988,0.38623 H 29.3457 v 3.59082 c 0,0.22998 -0.18945,0.41309 -0.41992,0.41309 -0.23047,0 -0.41992,-0.18311 -0.41992,-0.41309 z"
         style="fill:#1f1f1f"
         id="path121"
         inkscape:connector-curvature="0" />
      <path
         d="m 31.88477,135.2583 c 0,-0.23047 0.18359,-0.41357 0.41992,-0.41357 0.23047,0 0.41406,0.18311 0.41406,0.41357 v 1.59229 h 2.26172 v -1.59229 c 0,-0.23047 0.18359,-0.41357 0.41406,-0.41357 0.23633,0 0.41992,0.18311 0.41992,0.41357 v 3.98389 c 0,0.22998 -0.18359,0.41309 -0.41992,0.41309 -0.23047,0 -0.41406,-0.18311 -0.41406,-0.41309 v -1.61914 h -2.26172 v 1.61914 c 0,0.22998 -0.18359,0.41309 -0.41406,0.41309 -0.23633,0 -0.41992,-0.18311 -0.41992,-0.41309 z"
         style="fill:#1f1f1f"
         id="path123"
         inkscape:connector-curvature="0" />
    </g>
    <g
       id="g139">
      <path
         d="m 19.81641,45.73535 c 0,-0.28369 0.22461,-0.50879 0.51758,-0.50879 0.2832,0 0.50879,0.2251 0.50879,0.50879 v 4.44043 h 2.64551 c 0.25879,0 0.46777,0.20898 0.46777,0.46729 0,0.25879 -0.20898,0.46729 -0.46777,0.46729 h -3.1543 c -0.29297,0 -0.51758,-0.2251 -0.51758,-0.51758 v -4.85742 z"
         style="fill:#1f1f1f"
         id="path127"
         inkscape:connector-curvature="0" />
      <path
         d="m 25.10645,50.59277 v -4.80762 c 0,-0.29199 0.22559,-0.51709 0.51758,-0.51709 h 3.39746 c 0.25,0 0.45898,0.2085 0.45898,0.45898 0,0.25879 -0.20898,0.45898 -0.45898,0.45898 h -2.88867 v 1.51904 h 2.5127 c 0.25,0 0.45898,0.20898 0.45898,0.46777 0,0.25 -0.20898,0.4502 -0.45898,0.4502 h -2.5127 v 1.56934 h 2.92969 c 0.25,0 0.45898,0.20898 0.45898,0.45898 0,0.25879 -0.20898,0.45898 -0.45898,0.45898 h -3.43848 c -0.29199,0 -0.51758,-0.2251 -0.51758,-0.51758 z"
         style="fill:#1f1f1f"
         id="path129"
         inkscape:connector-curvature="0" />
      <path
         d="m 30.85547,45.75195 c 0,-0.28369 0.22559,-0.51758 0.51758,-0.51758 h 0.10938 c 0.25,0 0.3916,0.12549 0.5332,0.30078 l 2.92188,3.78125 v -3.58936 c 0,-0.27539 0.22559,-0.50049 0.50098,-0.50049 0.2832,0 0.50879,0.2251 0.50879,0.50049 v 4.90771 c 0,0.28418 -0.2168,0.50928 -0.50098,0.50928 h -0.04199 c -0.24121,0 -0.3916,-0.12549 -0.5332,-0.30908 L 31.86623,46.9453 v 3.70605 c 0,0.27539 -0.22559,0.50098 -0.50098,0.50098 -0.28418,0 -0.50977,-0.22559 -0.50977,-0.50098 v -4.89941 z"
         style="fill:#1f1f1f"
         id="path131"
         inkscape:connector-curvature="0" />
      <path
         d="m 37.37012,48.20605 v -0.0166 c 0,-1.63574 1.25195,-3.02148 3.0127,-3.02148 0.87695,0 1.46094,0.2085 1.99512,0.59277 0.10059,0.07471 0.20801,0.2168 0.20801,0.41699 0,0.27539 -0.22461,0.50928 -0.50879,0.50928 -0.13379,0 -0.2334,-0.05859 -0.31738,-0.1167 -0.375,-0.27539 -0.78418,-0.45898 -1.41797,-0.45898 -1.07715,0 -1.89551,0.94287 -1.89551,2.06152 v 0.0166 c 0,1.20166 0.79297,2.08643 1.9873,2.08643 0.55078,0 1.05078,-0.17529 1.41016,-0.44238 v -1.09326 h -1.15234 c -0.25,0 -0.45898,-0.19238 -0.45898,-0.44238 0,-0.25049 0.20898,-0.45068 0.45898,-0.45068 h 1.62793 c 0.29199,0 0.51758,0.2251 0.51758,0.51709 v 1.56104 c 0,0.29248 -0.11719,0.50098 -0.3584,0.65088 -0.50098,0.33398 -1.20215,0.63477 -2.0791,0.63477 -1.82715,0 -3.0293,-1.30225 -3.0293,-3.00488 z"
         style="fill:#1f1f1f"
         id="path133"
         inkscape:connector-curvature="0" />
      <path
         d="M 45.66895,46.21973 H 44.25 c -0.2666,0 -0.47559,-0.21729 -0.47559,-0.47607 0,-0.2583 0.20898,-0.47559 0.47559,-0.47559 h 3.88086 c 0.25977,0 0.46777,0.21729 0.46777,0.47559 0,0.25879 -0.20801,0.47607 -0.46777,0.47607 H 46.7041 v 4.42334 c 0,0.28369 -0.2334,0.50928 -0.51758,0.50928 -0.28418,0 -0.51758,-0.22559 -0.51758,-0.50928 v -4.42334 z"
         style="fill:#1f1f1f"
         id="path135"
         inkscape:connector-curvature="0" />
      <path
         d="m 49.75879,45.73535 c 0,-0.28369 0.22559,-0.50879 0.5166,-0.50879 0.28418,0 0.50977,0.2251 0.50977,0.50879 v 1.96143 h 2.78809 v -1.96143 c 0,-0.28369 0.22559,-0.50879 0.50879,-0.50879 0.29199,0 0.51758,0.2251 0.51758,0.50879 v 4.90771 c 0,0.28369 -0.22559,0.50928 -0.51758,0.50928 -0.2832,0 -0.50879,-0.22559 -0.50879,-0.50928 v -1.99463 h -2.78809 v 1.99463 c 0,0.28369 -0.22559,0.50928 -0.50977,0.50928 -0.29102,0 -0.5166,-0.22559 -0.5166,-0.50928 z"
         style="fill:#1f1f1f"
         id="path137"
         inkscape:connector-curvature="0" />
    </g>
    <g
       id="g151">
      <path
         d="m 16.72461,23.93164 v -0.0249 c 0,-2.48975 1.93945,-4.5293 4.5918,-4.5293 1.32617,0 2.20215,0.30029 2.99023,0.85107 0.1875,0.1377 0.40039,0.40039 0.40039,0.77539 0,0.52539 -0.42578,0.95117 -0.95117,0.95117 -0.27539,0 -0.4502,-0.1001 -0.58789,-0.2002 -0.52539,-0.37549 -1.08789,-0.60059 -1.91406,-0.60059 -1.40234,0 -2.51562,1.23828 -2.51562,2.72754 v 0.0249 c 0,1.60156 1.10156,2.77783 2.65234,2.77783 0.70117,0 1.32715,-0.17529 1.81445,-0.52539 V 24.9077 H 21.9043 c -0.46289,0 -0.83789,-0.36279 -0.83789,-0.82568 0,-0.46289 0.375,-0.83838 0.83789,-0.83838 h 2.20215 c 0.53809,0 0.96387,0.42529 0.96387,0.96338 v 2.12695 c 0,0.56348 -0.21289,0.95117 -0.67578,1.22656 -0.71289,0.4375 -1.75195,0.87598 -3.06641,0.87598 -2.72656,0 -4.60352,-1.91455 -4.60352,-4.50488 z"
         style="fill:#1f1f1f"
         id="path141"
         inkscape:connector-curvature="0" />
      <path
         d="m 26.39062,27.04736 3.05371,-6.89404 c 0.21191,-0.47559 0.60059,-0.76367 1.12598,-0.76367 h 0.1123 c 0.52637,0 0.90137,0.28809 1.11426,0.76367 l 3.05273,6.89404 c 0.0625,0.1377 0.09961,0.2627 0.09961,0.38818 0,0.5127 -0.40039,0.92578 -0.91309,0.92578 -0.4502,0 -0.75098,-0.2627 -0.92578,-0.66309 l -0.58887,-1.37646 h -3.85352 l -0.61328,1.43896 c -0.16211,0.375 -0.4873,0.60059 -0.8877,0.60059 -0.50098,0 -0.88867,-0.40039 -0.88867,-0.90088 0,-0.1377 0.0498,-0.27539 0.1123,-0.41309 z m 5.41797,-2.42725 -1.21289,-2.89062 -1.21387,2.89062 z"
         style="fill:#1f1f1f"
         id="path143"
         inkscape:connector-curvature="0" />
      <path
         d="m 37.49805,21.3042 h -1.85156 c -0.48828,0 -0.88867,-0.40039 -0.88867,-0.88818 0,-0.48828 0.40039,-0.88867 0.88867,-0.88867 h 5.62988 c 0.48828,0 0.88867,0.40039 0.88867,0.88867 0,0.48779 -0.40039,0.88818 -0.88867,0.88818 h -1.85156 v 6.09326 c 0,0.53809 -0.42578,0.96387 -0.96387,0.96387 -0.53711,0 -0.96289,-0.42578 -0.96289,-0.96387 z"
         style="fill:#1f1f1f"
         id="path145"
         inkscape:connector-curvature="0" />
      <path
         d="m 43.52246,27.32275 v -6.83154 c 0,-0.53809 0.42578,-0.96387 0.96387,-0.96387 h 4.85449 c 0.47559,0 0.86328,0.38818 0.86328,0.86328 0,0.47559 -0.3877,0.85107 -0.86328,0.85107 H 45.4375 v 1.77686 h 3.33984 c 0.47656,0 0.86328,0.3877 0.86328,0.86328 0,0.47558 -0.38672,0.85059 -0.86328,0.85059 H 45.4375 v 1.83984 h 3.96582 c 0.47559,0 0.86328,0.3877 0.86328,0.86328 0,0.4751 -0.3877,0.85059 -0.86328,0.85059 h -4.91699 c -0.53809,0 -0.96387,-0.42529 -0.96387,-0.96338 z"
         style="fill:#1f1f1f"
         id="path147"
         inkscape:connector-curvature="0" />
      <path
         d="m 51.79883,27.36035 c -0.21289,-0.15039 -0.3623,-0.42578 -0.3623,-0.72559 0,-0.50098 0.40039,-0.88867 0.90137,-0.88867 0.25,0 0.4248,0.08789 0.5498,0.17529 0.66309,0.48779 1.38867,0.78809 2.23926,0.78809 0.78906,0 1.26367,-0.31299 1.26367,-0.82568 v -0.0249 c 0,-0.48779 -0.2998,-0.73828 -1.76367,-1.11377 -1.76367,-0.4502 -2.90234,-0.93848 -2.90234,-2.67773 v -0.0249 c 0,-1.58887 1.27539,-2.64014 3.06445,-2.64014 1.06445,0 1.99023,0.27539 2.77832,0.77588 0.21289,0.125 0.4248,0.38818 0.4248,0.76318 0,0.50049 -0.40039,0.88867 -0.90039,0.88867 -0.1875,0 -0.33789,-0.05029 -0.48828,-0.1377 -0.6377,-0.37549 -1.23828,-0.58838 -1.83887,-0.58838 -0.73828,0 -1.12598,0.33789 -1.12598,0.76318 v 0.02539 c 0,0.5752 0.375,0.76318 1.88867,1.15088 1.77734,0.46289 2.77832,1.10107 2.77832,2.62744 v 0.02539 c 0,1.73926 -1.32617,2.71484 -3.21582,2.71484 -1.15039,0 -2.31445,-0.3501 -3.29102,-1.05078 z"
         style="fill:#1f1f1f"
         id="path149"
         inkscape:connector-curvature="0" />
    </g>
    <g
       id="g163">
      <path
         d="m 42.38281,180.2998 c 0,-0.2373 0.18359,-0.41992 0.4209,-0.41992 h 1.69336 c 0.59668,0 1.06348,0.17627 1.36816,0.47412 0.25098,0.25732 0.39355,0.60986 0.39355,1.02295 v 0.0137 c 0,0.75879 -0.44043,1.21973 -1.07715,1.41602 l 0.9082,1.14502 c 0.08105,0.10156 0.13477,0.18994 0.13477,0.31836 0,0.23047 -0.19629,0.38623 -0.39941,0.38623 -0.19043,0 -0.31152,-0.0879 -0.40723,-0.2168 l -1.15137,-1.47021 h -1.0498 v 1.27393 c 0,0.22998 -0.18359,0.41309 -0.41309,0.41309 -0.2373,0 -0.4209,-0.18311 -0.4209,-0.41309 v -3.94336 z m 2.05371,1.93066 c 0.5957,0 0.97559,-0.31152 0.97559,-0.79248 v -0.0132 c 0,-0.5083 -0.36621,-0.78613 -0.98242,-0.78613 H 43.2168 v 1.5918 h 1.21973 z"
         style="fill:#1f1f1f"
         id="path153"
         inkscape:connector-curvature="0" />
      <path
         d="m 47.51562,184.20215 v -3.90234 c 0,-0.2373 0.18359,-0.41992 0.41992,-0.41992 h 2.75781 c 0.20312,0 0.37305,0.16943 0.37305,0.37256 0,0.20996 -0.16992,0.37256 -0.37305,0.37256 H 48.3496 v 1.2334 h 2.03906 c 0.20312,0 0.37305,0.16895 0.37305,0.37891 0,0.20361 -0.16992,0.36621 -0.37305,0.36621 H 48.3496 v 1.27344 h 2.37793 c 0.20312,0 0.37207,0.16943 0.37207,0.37305 0,0.20996 -0.16895,0.37207 -0.37207,0.37207 h -2.79199 c -0.23633,0 -0.41992,-0.18262 -0.41992,-0.41992 z"
         style="fill:#1f1f1f"
         id="path155"
         inkscape:connector-curvature="0" />
      <path
         d="m 52.13086,184.09375 c -0.0957,-0.0674 -0.16309,-0.18262 -0.16309,-0.31836 0,-0.2168 0.17676,-0.38623 0.39355,-0.38623 0.11426,0 0.18945,0.0337 0.24316,0.0747 0.39355,0.31152 0.81348,0.48779 1.32812,0.48779 0.51464,0 0.83984,-0.24365 0.83984,-0.59619 v -0.0137 c 0,-0.33887 -0.18945,-0.52148 -1.07031,-0.72461 -1.00977,-0.24414 -1.5791,-0.54199 -1.5791,-1.41602 v -0.0137 c 0,-0.81299 0.67773,-1.37549 1.61914,-1.37549 0.59668,0 1.07812,0.15576 1.50488,0.44043 0.09473,0.0542 0.18262,0.16943 0.18262,0.33203 0,0.2168 -0.17578,0.38623 -0.39258,0.38623 -0.08203,0 -0.14941,-0.0205 -0.2168,-0.061 -0.36621,-0.23682 -0.71875,-0.35889 -1.09082,-0.35889 -0.48828,0 -0.77246,0.25049 -0.77246,0.56201 v 0.0137 c 0,0.36572 0.2168,0.52832 1.13086,0.74512 1.00293,0.24414 1.51758,0.60303 1.51758,1.38916 v 0.0137 c 0,0.88721 -0.69727,1.41553 -1.69336,1.41553 -0.64355,0 -1.25391,-0.20312 -1.78125,-0.59619 z"
         style="fill:#1f1f1f"
         id="path157"
         inkscape:connector-curvature="0" />
      <path
         d="m 56.81641,184.20215 v -3.90234 c 0,-0.2373 0.18359,-0.41992 0.41992,-0.41992 h 2.75781 c 0.20312,0 0.37305,0.16943 0.37305,0.37256 0,0.20996 -0.16992,0.37256 -0.37305,0.37256 h -2.34375 v 1.2334 h 2.03906 c 0.20312,0 0.37305,0.16895 0.37305,0.37891 0,0.20361 -0.16992,0.36621 -0.37305,0.36621 h -2.03906 v 1.27344 h 2.37793 c 0.20312,0 0.37207,0.16943 0.37207,0.37305 0,0.20996 -0.16895,0.37207 -0.37207,0.37207 h -2.79199 c -0.23633,0 -0.41992,-0.18262 -0.41992,-0.41992 z"
         style="fill:#1f1f1f"
         id="path159"
         inkscape:connector-curvature="0" />
      <path
         d="M 62.78027,180.65234 H 61.6289 c -0.2168,0 -0.38672,-0.17627 -0.38672,-0.38623 0,-0.20996 0.16992,-0.38623 0.38672,-0.38623 h 3.15039 c 0.20898,0 0.37891,0.17627 0.37891,0.38623 0,0.20996 -0.16992,0.38623 -0.37891,0.38623 h -1.15918 v 3.59082 c 0,0.22998 -0.18945,0.41309 -0.41992,0.41309 -0.23047,0 -0.41992,-0.18311 -0.41992,-0.41309 z"
         style="fill:#1f1f1f"
         id="path161"
         inkscape:connector-curvature="0" />
    </g>
    <g
       id="g173">
      <path
         d="m 12.21191,182.26465 v -0.0137 c 0,-1.32764 1.0166,-2.45215 2.44629,-2.45215 0.71094,0 1.18555,0.16895 1.61914,0.48047 0.08105,0.0615 0.16895,0.17676 0.16895,0.33887 0,0.22363 -0.18262,0.41357 -0.41309,0.41357 -0.1084,0 -0.18945,-0.0474 -0.25781,-0.0952 -0.30469,-0.22363 -0.63672,-0.37207 -1.15137,-0.37207 -0.87402,0 -1.53809,0.76514 -1.53809,1.67285 v 0.0137 c 0,0.97559 0.64355,1.69385 1.6123,1.69385 0.44727,0 0.85352,-0.14209 1.14551,-0.35889 v -0.8877 h -0.93555 c -0.20312,0 -0.37305,-0.15576 -0.37305,-0.35938 0,-0.20312 0.16992,-0.36523 0.37305,-0.36523 h 1.32129 c 0.2373,0 0.41992,0.18262 0.41992,0.41992 v 1.2666 c 0,0.2373 -0.09473,0.40674 -0.29102,0.52832 -0.40723,0.27148 -0.97559,0.51514 -1.68652,0.51514 -1.48438,0 -2.45996,-1.05713 -2.45996,-2.43896 z"
         style="fill:#1f1f1f"
         id="path165"
         inkscape:connector-curvature="0" />
      <path
         d="m 17.60547,184.08008 1.76074,-3.9292 c 0.09473,-0.20996 0.26465,-0.33887 0.50098,-0.33887 h 0.04102 c 0.2373,0 0.40039,0.12891 0.49414,0.33887 l 1.76172,3.9292 c 0.03418,0.0615 0.04785,0.12207 0.04785,0.17627 0,0.22363 -0.16895,0.3999 -0.39355,0.3999 -0.19629,0 -0.33203,-0.11523 -0.40625,-0.2915 l -0.38574,-0.88721 h -2.30371 l -0.39941,0.91455 c -0.06738,0.16943 -0.20996,0.26416 -0.38672,0.26416 -0.2168,0 -0.38574,-0.16943 -0.38574,-0.38623 0,-0.061 0.02051,-0.12207 0.05469,-0.18994 z m 3.10254,-1.34131 -0.83301,-1.91748 -0.83398,1.91748 z"
         style="fill:#1f1f1f"
         id="path167"
         inkscape:connector-curvature="0" />
      <path
         d="m 23.875,180.65234 h -1.15137 c -0.2168,0 -0.38574,-0.17627 -0.38574,-0.38623 0,-0.20996 0.16895,-0.38623 0.38574,-0.38623 h 3.15039 c 0.20996,0 0.37988,0.17627 0.37988,0.38623 0,0.20996 -0.16992,0.38623 -0.37988,0.38623 h -1.15918 v 3.59082 c 0,0.22998 -0.18945,0.41309 -0.41992,0.41309 -0.23047,0 -0.41992,-0.18311 -0.41992,-0.41309 z"
         style="fill:#1f1f1f"
         id="path169"
         inkscape:connector-curvature="0" />
      <path
         d="m 27.25391,184.20215 v -3.90234 c 0,-0.2373 0.18262,-0.41992 0.41992,-0.41992 h 2.75781 c 0.20312,0 0.37207,0.16943 0.37207,0.37256 0,0.20996 -0.16895,0.37256 -0.37207,0.37256 h -2.34473 v 1.2334 h 2.04004 c 0.20312,0 0.37207,0.16895 0.37207,0.37891 0,0.20361 -0.16895,0.36621 -0.37207,0.36621 h -2.04004 v 1.27344 h 2.37793 c 0.20312,0 0.37305,0.16943 0.37305,0.37305 0,0.20996 -0.16992,0.37207 -0.37305,0.37207 h -2.79102 c -0.2373,0 -0.41992,-0.18262 -0.41992,-0.41992 z"
         style="fill:#1f1f1f"
         id="path171"
         inkscape:connector-curvature="0" />
    </g>
    <g
       id="g183">
      <path
         d="m 44.30469,135.41846 c 0,-0.23682 0.18359,-0.41992 0.41992,-0.41992 h 1.4502 c 1.11133,0 1.80176,0.63037 1.80176,1.58545 v 0.0137 c 0,1.06348 -0.85352,1.61914 -1.89648,1.61914 h -0.94141 v 1.14453 c 0,0.23047 -0.18359,0.41357 -0.41406,0.41357 -0.23633,0 -0.41992,-0.18311 -0.41992,-0.41357 v -3.94287 z m 1.80273,2.04639 c 0.62988,0 1.02246,-0.35254 1.02246,-0.84717 v -0.0132 c 0,-0.55566 -0.39941,-0.84717 -1.02246,-0.84717 h -0.96875 v 1.70752 z"
         style="fill:#1f1f1f"
         id="path175"
         inkscape:connector-curvature="0" />
      <path
         d="m 48.94141,137.72852 v -2.35059 c 0,-0.23047 0.18359,-0.41309 0.41992,-0.41309 0.23047,0 0.41406,0.18262 0.41406,0.41309 v 2.31689 c 0,0.88086 0.45312,1.34814 1.19824,1.34814 0.73926,0 1.19238,-0.44043 1.19238,-1.31445 v -2.35059 c 0,-0.23047 0.18359,-0.41309 0.41992,-0.41309 0.23047,0 0.41406,0.18262 0.41406,0.41309 v 2.31055 c 0,1.41553 -0.7998,2.12695 -2.03906,2.12695 -1.2334,0 -2.01953,-0.71143 -2.01953,-2.08691 z"
         style="fill:#1f1f1f"
         id="path177"
         inkscape:connector-curvature="0" />
      <path
         d="m 54.23828,139.2124 c -0.0957,-0.0679 -0.16309,-0.18311 -0.16309,-0.31836 0,-0.2168 0.17676,-0.38623 0.39355,-0.38623 0.11426,0 0.18945,0.0342 0.24316,0.0747 0.39355,0.31152 0.81348,0.48779 1.32812,0.48779 0.51464,0 0.83984,-0.24414 0.83984,-0.59619 v -0.0137 c 0,-0.33838 -0.18945,-0.52148 -1.07031,-0.7251 -1.00977,-0.24365 -1.5791,-0.54199 -1.5791,-1.41602 v -0.0132 c 0,-0.81299 0.67773,-1.37549 1.61914,-1.37549 0.59668,0 1.07812,0.15625 1.50488,0.44043 0.09473,0.0542 0.18262,0.16943 0.18262,0.33203 0,0.2168 -0.17578,0.38623 -0.39258,0.38623 -0.08203,0 -0.14941,-0.0205 -0.2168,-0.061 -0.36621,-0.2373 -0.71875,-0.35938 -1.09082,-0.35938 -0.48828,0 -0.77246,0.25098 -0.77246,0.5625 v 0.0137 c 0,0.36572 0.2168,0.52832 1.13086,0.74512 1.00293,0.24414 1.51758,0.60303 1.51758,1.38867 v 0.0137 c 0,0.8877 -0.69727,1.41602 -1.69336,1.41602 -0.64355,0 -1.25391,-0.20312 -1.78125,-0.59619 z"
         style="fill:#1f1f1f"
         id="path179"
         inkscape:connector-curvature="0" />
      <path
         d="m 58.92383,135.37793 c 0,-0.23047 0.18359,-0.41309 0.41992,-0.41309 0.23047,0 0.41406,0.18262 0.41406,0.41309 v 1.5918 h 2.2627 v -1.5918 c 0,-0.23047 0.18262,-0.41309 0.41309,-0.41309 0.2373,0 0.41992,0.18262 0.41992,0.41309 v 3.9834 c 0,0.23047 -0.18262,0.41357 -0.41992,0.41357 -0.23047,0 -0.41309,-0.18311 -0.41309,-0.41357 v -1.61914 h -2.2627 v 1.61914 c 0,0.23047 -0.18359,0.41357 -0.41406,0.41357 -0.23633,0 -0.41992,-0.18311 -0.41992,-0.41357 z"
         style="fill:#1f1f1f"
         id="path181"
         inkscape:connector-curvature="0" />
    </g>
    <g
       id="g193">
      <g
         id="g189">
        <path
           d="m 15.90332,225.72949 h -1.00293 c -0.26367,0 -0.48047,-0.2168 -0.48047,-0.48096 0,-0.26416 0.2168,-0.48096 0.48047,-0.48096 h 3.04883 c 0.26367,0 0.48047,0.2168 0.48047,0.48096 0,0.26416 -0.2168,0.48096 -0.48047,0.48096 h -1.00195 v 3.2998 c 0,0.29102 -0.23047,0.52148 -0.52148,0.52148 -0.29199,0 -0.52246,-0.23047 -0.52246,-0.52148 v -3.2998 z"
           style="fill:#f0f0f0"
           id="path185"
           inkscape:connector-curvature="0" />
        <path
           d="m 19.33984,225.28906 c 0,-0.29102 0.22949,-0.52148 0.52148,-0.52148 h 1.64648 c 0.60156,0 1.07031,0.16943 1.38086,0.48096 0.26465,0.26416 0.40625,0.63721 0.40625,1.08398 v 0.0137 c 0,0.74512 -0.37207,1.20557 -0.94727,1.44287 l 0.72461,0.88086 c 0.10156,0.12891 0.16992,0.2373 0.16992,0.39941 0,0.2915 -0.24414,0.48145 -0.49512,0.48145 -0.2373,0 -0.39355,-0.11523 -0.51465,-0.271 l -1.0166,-1.2876 h -0.83301 v 1.03711 c 0,0.29102 -0.23047,0.52148 -0.52148,0.52148 -0.29199,0 -0.52148,-0.23047 -0.52148,-0.52148 v -3.74023 z m 2.09961,1.78223 c 0.50781,0 0.79883,-0.27148 0.79883,-0.6709 v -0.0137 c 0,-0.44727 -0.31055,-0.67773 -0.81934,-0.67773 h -1.03613 v 1.3623 z"
           style="fill:#f0f0f0"
           id="path187"
           inkscape:connector-curvature="0" />
      </g>
      <polyline
         points="29.07812 225.27004 27.79044 225.27004 27.79044 229.15129 26.50277 229.15129"
         style="fill:none;stroke:#f0f0f0;stroke-linecap:round;stroke-linejoin:round"
         id="polyline191" />
    </g>
    <g
       id="g203">
      <g
         id="g199">
        <path
           d="m 47.89062,225.72949 h -1.00195 c -0.26367,0 -0.48047,-0.2168 -0.48047,-0.48096 0,-0.26416 0.2168,-0.48096 0.48047,-0.48096 h 3.04883 c 0.26367,0 0.48047,0.2168 0.48047,0.48096 0,0.26416 -0.2168,0.48096 -0.48047,0.48096 h -1.00293 v 3.2998 c 0,0.29102 -0.23047,0.52148 -0.52246,0.52148 -0.29102,0 -0.52148,-0.23047 -0.52148,-0.52148 v -3.2998 z"
           style="fill:#f0f0f0"
           id="path195"
           inkscape:connector-curvature="0" />
        <path
           d="m 51.32617,225.28906 c 0,-0.29102 0.23047,-0.52148 0.52246,-0.52148 h 1.64551 c 0.60352,0 1.07129,0.16943 1.38281,0.48096 0.26367,0.26416 0.40625,0.63721 0.40625,1.08398 v 0.0137 c 0,0.74512 -0.37305,1.20557 -0.94824,1.44287 l 0.72559,0.88086 c 0.10156,0.12891 0.16797,0.2373 0.16797,0.39941 0,0.2915 -0.24316,0.48145 -0.49414,0.48145 -0.23633,0 -0.39258,-0.11523 -0.51465,-0.271 l -1.0166,-1.2876 h -0.83301 v 1.03711 c 0,0.29102 -0.22949,0.52148 -0.52148,0.52148 -0.29199,0 -0.52246,-0.23047 -0.52246,-0.52148 v -3.74023 z m 2.10156,1.78223 c 0.50781,0 0.79883,-0.27148 0.79883,-0.6709 v -0.0137 c 0,-0.44727 -0.31152,-0.67773 -0.82031,-0.67773 h -1.03613 v 1.3623 h 1.05762 z"
           style="fill:#f0f0f0"
           id="path197"
           inkscape:connector-curvature="0" />
      </g>
      <polyline
         points="58.48999 225.27004 59.77767 225.27004 59.77767 229.15129 61.06534 229.15129"
         style="fill:none;stroke:#f0f0f0;stroke-linecap:round;stroke-linejoin:round"
         id="polyline201" />
    </g>
  </g>
  <g
     id="uuid-86e88eac-a80f-48a4-9225-58f7edc764bb"
     data-name="components"
     style="display:none"
     inkscape:groupmode="layer">
    <circle
       id="uuid-48c5bee7-8065-439e-8d5e-5a1454add457"
       data-name="TrRise#TinyLight"
       cx="32.5597"
       cy="233.28703"
       r="1.5"
       style="fill:#ff00ff" />
    <circle
       id="uuid-c9c7bf54-6d2b-4714-9738-ef93bf806097"
       data-name="TrFall#TinyLight"
       cx="64.559898"
       cy="233.287"
       r="1.5"
       style="fill:#ff00ff" />
    <circle
       id="uuid-1150b366-9377-4280-9ea8-bcd573add5b8"
       data-name="Flip#TinyLight"
       cx="32.5597"
       cy="278.24713"
       r="1.5"
       style="fill:#ff00ff" />
    <circle
       id="uuid-c0d4d019-f92a-4114-86c2-729dccf38f54"
       data-name="Flop#TinyLight"
       cx="64.559898"
       cy="278.2471"
       r="1.5"
       style="fill:#ff00ff" />
    <circle
       id="uuid-0f1fbba8-648a-4207-9694-8df7c9061ccc"
       data-name="Gate#TinyLight"
       cx="32.559719"
       cy="323.01172"
       r="1.5"
       style="fill:#ff00ff" />
    <circle
       id="uuid-0af54d73-5ce5-4737-bc01-d1bb0c876b8e"
       data-name="End#TinyLight"
       cx="64.559853"
       cy="323.01172"
       r="1.5"
       style="fill:#ff00ff" />
    <circle
       id="uuid-72cf48ad-db97-49d3-aa16-ee58b8162cae"
       data-name="In#PJ301MPort"
       cx="21.545441"
       cy="199.39957"
       r="5"
       style="fill:#00ff00" />
    <circle
       id="uuid-9010608a-c50c-4333-847c-69dec723828d"
       data-name="TrRise#PJ301MPort"
       cx="21.545441"
       cy="244.28706"
       r="5"
       style="fill:#0000ff" />
    <circle
       id="uuid-75ae0eb6-2891-442f-aaca-3285cd8e1fad"
       data-name="TrFall#PJ301MPort"
       cx="53.54557"
       cy="244.28706"
       r="5"
       style="fill:#0000ff" />
    <circle
       id="uuid-b621cdc3-87df-4410-9157-470e433f2f81"
       data-name="Flip#PJ301MPort"
       cx="21.545441"
       cy="289.2471"
       r="5"
       style="fill:#0000ff" />
    <circle
       id="uuid-7cd0fe04-e9a9-444e-ad4e-3836127217a0"
       data-name="Flop#PJ301MPort"
       cx="53.54557"
       cy="289.2471"
       r="5"
       style="fill:#0000ff" />
    <circle
       id="uuid-1ed418d1-14d6-4674-97ad-ddfe7360903b"
       data-name="Gate#PJ301MPort"
       cx="21.545441"
       cy="334"
       r="5"
       style="fill:#0000ff" />
    <circle
       id="uuid-d369f769-a626-4458-acf4-4149db7268a6"
       data-name="End#PJ301MPort"
       cx="53.54557"
       cy="334"
       r="5"
       style="fill:#0000ff" />
    <circle
       id="uuid-46455a07-057a-409a-a508-d77c8da78117"
       data-name="Length#PJ301MPort"
       cx="21.551001"
       cy="154.45821"
       r="5"
       style="fill:#00ff00" />
    <circle
       id="uuid-2ebf8eef-394b-4666-93d1-3942169bbfa1"
       data-name="Length#RoundLargeBlackKnob"
       cx="37.33955"
       cy="78.999962"
       r="5"
       style="fill:#ff0000" />
    <circle
       id="uuid-52190e20-037d-4208-85bb-f85033c5b3e9"
       data-name="Reset#PJ301MPort"
       cx="53.539169"
       cy="199.3996"
       r="5"
       style="fill:#00ff00" />
    <circle
       id="uuid-87b90c32-daa6-494d-98c4-902848792629"
       data-name="Push#LEDLightBezel"
       cx="53.580639"
       cy="154.45821"
       r="5"
       style="fill:#ff0000" />
  </g>
</svg>
