<?xml version="1.0" encoding="UTF-8"?>
<svg xmlns="http://www.w3.org/2000/svg" width="135" height="380" xmlns:xlink="http://www.w3.org/1999/xlink" viewBox="0 0 135 380">
  <defs>
    <linearGradient id="uuid-e2f955cd-31ae-42d6-9340-cf211e42b527" x1="67.5" y1="0" x2="67.5" y2="380" gradientUnits="userSpaceOnUse">
      <stop offset="0" stop-color="#2a2a2b"/>
      <stop offset="1" stop-color="#171717"/>
    </linearGradient>
  </defs>
  <g id="uuid-4532ee45-0274-4bfd-b0c0-d3295eb1c900" data-name="FND BG">
    <rect width="135" height="380" fill="url(#uuid-e2f955cd-31ae-42d6-9340-cf211e42b527)"/>
  </g>
  <g id="uuid-35c57a18-c202-41d8-b70c-ea470e62c8ef" data-name="FND GRAPH">
    <rect x="5.18979" y="309.0301" width="124.62598" height="39.15691" rx="2.83465" ry="2.83465" fill="#ededed"/>
    <g>
      <path d="m59.35927,359.75298c-.34551,0-.66126-.1952-.8158-.50419l-2.96428-5.92856c-.22526-.45057-.04266-.99844.40794-1.2237.45008-.22535.99831-.04271,1.22366.4079l2.14848,4.29696,2.14848-4.29696c.22526-.45057.77314-.63325,1.22366-.4079.45061.22526.63321.77314.40794,1.2237l-2.96428,5.92856c-.15454.30899-.47029.50419-.8158.50419Z" fill="#ededed"/>
      <path d="m75.64073,359.75298c-.34551,0-.66126-.1952-.8158-.50419l-2.96428-5.92856c-.22526-.45057-.04266-.99844.40794-1.2237.45016-.22535.9984-.04271,1.22366.4079l2.14848,4.29696,2.14848-4.29696c.22526-.45057.77305-.63325,1.22366-.4079.45061.22526.63321.77314.40794,1.2237l-2.96428,5.92856c-.15454.30899-.47029.50419-.8158.50419Z" fill="#ededed"/>
      <path d="m67.94242,359.75298c-2.13744,0-3.87637-1.73893-3.87637-3.87637s1.73893-3.87637,3.87637-3.87637c.84653,0,1.65102.26819,2.32653.77554.40278.30253.48401.87428.18153,1.27705-.30248.40273-.87432.48401-1.2771.18148-.357-.26815-.78267-.4099-1.23096-.4099-1.13156,0-2.05219.92059-2.05219,2.05219s.92064,2.05219,2.05219,2.05219c.44829,0,.87396-.14176,1.23096-.4099.40269-.30271.97444-.22125,1.2771.18148.30248.40278.22125.97453-.18153,1.27705-.67551.50735-1.48.77554-2.32653.77554Z" fill="#ededed"/>
      <circle cx="68.00165" cy="355.83101" r="1.18571" fill="#ededed"/>
    </g>
    <line x1="115.49998" y1="289.73853" x2="115.49998" y2="309.87506" fill="none" stroke="#ededed" stroke-linecap="round" stroke-linejoin="round" stroke-width=".8"/>
    <line x1="14.99448" y1="202" x2="119.99448" y2="202" fill="none" stroke="#ededed" stroke-linecap="round" stroke-linejoin="round" stroke-width=".8"/>
    <g>
      <circle cx="67.50196" cy="166.5" r="26.48818" fill="none" isolation="isolate" opacity=".69"/>
      <path d="m78.30018,184.60266c6.2955-3.78272,10.15833-10.61025,10.15833-17.95479,0-11.491-9.45566-20.94666-20.94666-20.94666s-20.94666,9.45566-20.94666,20.94666c0,7.39639,3.91756,14.2646,10.28394,18.02967" fill="none" stroke="#ededed" stroke-linecap="round" stroke-miterlimit="10" stroke-width=".8"/>
      <line x1="78.30018" y1="184.60266" x2="67.50196" y2="166.5" fill="none"/>
      <line x1="67.51185" y1="145.70121" x2="67.51185" y2="159.12279" fill="none" stroke="#ededed" stroke-linecap="round" stroke-miterlimit="10" stroke-width=".8"/>
    </g>
    <g>
      <circle cx="67.62377" cy="88" r="38.44564" fill="none" isolation="isolate" opacity=".69"/>
      <path d="m83.2966,114.27467c9.13745-5.49034,14.74407-15.4,14.74407-26.06006,0-16.67834-13.7242-30.40253-30.40253-30.40253s-30.40253,13.7242-30.40253,30.40253c0,10.73531,5.68605,20.70402,14.92638,26.16874" fill="none" stroke="#ededed" stroke-linecap="round" stroke-miterlimit="10" stroke-width=".8"/>
      <line x1="83.2966" y1="114.27467" x2="67.62377" y2="88" fill="none"/>
    </g>
    <g>
      <line x1="19.50002" y1="250.87459" x2="19.50002" y2="260.07654" fill="none" stroke="#ededed" stroke-linecap="round" stroke-linejoin="round" stroke-width=".8"/>
      <line x1="19.50002" y1="226.54018" x2="19.50002" y2="238.01957" fill="none" stroke="#ededed" stroke-linecap="round" stroke-linejoin="round"/>
      <path d="m11.34656,246.15346c-2.1616-2.1616-3.37728-5.09649-3.37728-8.15346,0-6.32558,5.20516-11.53074,11.53074-11.53074s11.53074,5.20516,11.53074,11.53074c0,3.05697-1.21567,5.99186-3.37728,8.15346" fill="none" stroke="#ededed" stroke-linecap="round" stroke-linejoin="round"/>
    </g>
    <g>
      <line x1="115.49998" y1="250.87459" x2="115.49998" y2="260.07654" fill="none" stroke="#ededed" stroke-linecap="round" stroke-linejoin="round" stroke-width=".8"/>
      <line x1="115.49998" y1="226.54018" x2="115.49998" y2="238.01957" fill="none" stroke="#ededed" stroke-linecap="round" stroke-linejoin="round"/>
      <path d="m107.34651,246.15346c-2.1616-2.1616-3.37728-5.09649-3.37728-8.15346,0-6.32558,5.20516-11.53074,11.53074-11.53074s11.53074,5.20516,11.53074,11.53074c0,3.05697-1.21567,5.99186-3.37728,8.15346" fill="none" stroke="#ededed" stroke-linecap="round" stroke-linejoin="round"/>
    </g>
  </g>
  <g id="uuid-d83156ca-d579-4919-b55f-e84d151dc90e" data-name="FND TXT">
    <g>
      <path d="m74.19092,219.69727v-.01318c0-1.33447,1.02979-2.45264,2.48633-2.45264s2.47314,1.10449,2.47314,2.43896v.01367c0,1.33447-1.03027,2.45264-2.48633,2.45264-1.45703,0-2.47314-1.10449-2.47314-2.43945Zm4.08545,0v-.01318c0-.92139-.6709-1.68701-1.6123-1.68701-.94189,0-1.59912.75195-1.59912,1.67334v.01367c0,.92139.67041,1.68018,1.6123,1.68018s1.59912-.74512,1.59912-1.66699Z" fill="#ebebeb"/>
      <path d="m80.36768,217.73291c0-.2373.18311-.42041.41992-.42041h2.76416c.20996,0,.37939.16992.37939.37988s-.16943.37891-.37939.37891h-2.35059v1.29395h2.0459c.20996,0,.37891.16992.37891.37988s-.16895.37891-.37891.37891h-2.0459v1.55176c0,.23047-.18311.41309-.41357.41309-.23682,0-.41992-.18262-.41992-.41309v-3.94287Z" fill="#ebebeb"/>
      <path d="m84.79785,221.52686c-.09521-.06787-.16309-.18311-.16309-.31885,0-.2168.17627-.38574.39307-.38574.11523,0,.18994.03369.24414.07422.39307.31152.81299.48828,1.32764.48828.51514,0,.84033-.24414.84033-.59668v-.01367c0-.33838-.18994-.52148-1.0708-.72461-1.00928-.24414-1.57812-.54199-1.57812-1.41602v-.01367c0-.8125.67725-1.375,1.61914-1.375.59619,0,1.07715.15576,1.50391.44043.09473.05371.18262.16895.18262.33203,0,.2168-.17578.38574-.39258.38574-.08105,0-.14941-.02002-.2168-.06055-.36621-.2373-.71826-.35938-1.09082-.35938-.48779,0-.77246.25098-.77246.5625v.01367c0,.36572.2168.52832,1.13184.74512,1.00244.24365,1.51758.60254,1.51758,1.38867v.01367c0,.8877-.69824,1.41602-1.69434,1.41602-.64355,0-1.25293-.20312-1.78125-.59619Z" fill="#ebebeb"/>
      <path d="m90.59033,218.08496h-1.15186c-.2168,0-.38623-.17578-.38623-.38574,0-.21045.16943-.38672.38623-.38672h3.15039c.20996,0,.37939.17627.37939.38672,0,.20996-.16943.38574-.37939.38574h-1.15869v3.59082c0,.23047-.18945.41309-.41992.41309s-.41992-.18262-.41992-.41309v-3.59082Z" fill="#ebebeb"/>
    </g>
    <g>
      <path d="m45.75,217.69238c0-.22998.18262-.41309.41992-.41309.23047,0,.41309.18311.41309.41309v3.98389c0,.23047-.18262.41357-.41309.41357-.2373,0-.41992-.18311-.41992-.41357v-3.98389Z" fill="#ebebeb"/>
      <path d="m48.05957,217.70605c0-.23047.18262-.41992.41992-.41992h.08789c.20312,0,.31836.10156.43359.24414l2.37109,3.06885v-2.91357c0-.22314.18311-.40625.40674-.40625.23047,0,.41357.18311.41357.40625v3.98389c0,.23047-.17627.41357-.40674.41357h-.03369c-.19678,0-.31836-.10156-.43359-.25098l-2.43945-3.15723v3.0083c0,.22363-.18262.40674-.40625.40674-.23047,0-.41309-.18311-.41309-.40674v-3.97705Z" fill="#ebebeb"/>
      <path d="m54.92334,221.78467l-1.65967-3.90234c-.02734-.06104-.04785-.12207-.04785-.19678,0-.22314.18311-.40625.41992-.40625.2168,0,.35938.12207.42725.29785l1.36865,3.42188,1.38867-3.44873c.0542-.14209.20312-.271.39941-.271.23047,0,.41357.17627.41357.3999,0,.06104-.02051.12842-.04053.17627l-1.66699,3.9292c-.08789.20996-.24365.33887-.48096.33887h-.04736c-.23047,0-.38623-.12891-.47412-.33887Z" fill="#ebebeb"/>
    </g>
    <g>
      <path d="m56.1084,45.78613c0-.29248.22559-.51758.51758-.51758h3.40527c.25879,0,.46777.2085.46777.46729s-.20898.46729-.46777.46729h-2.896v1.59424h2.521c.2583,0,.4668.2085.4668.46729s-.2085.46777-.4668.46777h-2.521v1.91113c0,.28369-.2251.50928-.50928.50928-.29199,0-.51758-.22559-.51758-.50928v-4.85742Z" fill="#ebebeb"/>
      <path d="m61.68066,45.78613c0-.29248.2251-.51758.51709-.51758h2.08643c.73486,0,1.31055.2168,1.68652.58398.30859.31738.48389.75098.48389,1.26025v.01709c0,.93457-.54248,1.50195-1.32715,1.74414l1.11865,1.41064c.1001.12549.16699.23389.16699.39209,0,.28418-.24219.47607-.49268.47607-.23389,0-.38379-.10889-.50049-.26709l-1.41895-1.81152h-1.29395v1.56934c0,.28369-.22559.50928-.50928.50928-.29199,0-.51709-.22559-.51709-.50928v-4.85742Zm2.52881,2.37842c.73438,0,1.20166-.38379,1.20166-.97656v-.0166c0-.62598-.4502-.96826-1.20996-.96826h-1.49414v1.96143h1.50244Z" fill="#ebebeb"/>
      <path d="m67.93213,50.59375v-4.80762c0-.29248.2251-.51758.51758-.51758h3.39697c.25,0,.45898.2085.45898.45898,0,.25879-.20898.45898-.45898.45898h-2.8877v1.51904h2.51172c.25098,0,.45947.2085.45947.46729,0,.25049-.2085.45068-.45947.45068h-2.51172v1.56934h2.92969c.25,0,.45898.2085.45898.45898,0,.25879-.20898.45898-.45898.45898h-3.43896c-.29248,0-.51758-.2251-.51758-.51709Z" fill="#ebebeb"/>
      <path d="m73.28906,48.20605v-.0166c0-1.64404,1.26904-3.02148,3.06348-3.02148s3.04639,1.36084,3.04639,3.00488v.0166c0,.65967-.21729,1.28564-.59229,1.79492l.375.30859c.11719.1001.19238.22559.19238.40039,0,.26758-.2168.49268-.48438.49268-.1499,0-.2666-.05811-.3584-.1499l-.41797-.37598c-.49219.35059-1.10156.55078-1.77734.55078-1.79492,0-3.04688-1.36035-3.04688-3.00488Zm3.15527.76807c0-.26709.2168-.49219.48438-.49219.1499,0,.2417.0498.3584.1499l.75146.68457c.18359-.31738.28369-.69287.28369-1.11035v-.0166c0-1.13477-.82617-2.07812-1.98633-2.07812s-1.96973.92676-1.96973,2.06152v.0166c0,1.13525.82617,2.07031,1.98633,2.07031.38379,0,.72607-.10059,1.00977-.26709l-.72607-.61768c-.1167-.10059-.19189-.22559-.19189-.40088Z" fill="#ebebeb"/>
    </g>
    <g>
      <path d="m37.40332,133.29443c0-.29199.22559-.51758.51758-.51758h1.78613c1.36914,0,2.22021.77637,2.22021,1.95312v.01709c0,1.31006-1.05176,1.99463-2.33691,1.99463h-1.16016v1.41064c0,.28369-.22559.50879-.50928.50879-.29199,0-.51758-.2251-.51758-.50879v-4.85791Zm2.22021,2.521c.77637,0,1.26074-.43408,1.26074-1.04346v-.0166c0-.68457-.49268-1.04346-1.26074-1.04346h-1.19336v2.10352h1.19336Z" fill="#ebebeb"/>
      <path d="m43.04541,136.14062v-2.896c0-.28418.22559-.50928.51758-.50928.28369,0,.50928.2251.50928.50928v2.85449c0,1.08496.55908,1.66064,1.47754,1.66064.90967,0,1.46875-.54248,1.46875-1.61914v-2.896c0-.28418.22559-.50928.51758-.50928.28369,0,.50928.2251.50928.50928v2.84619c0,1.74414-.98535,2.62061-2.5127,2.62061-1.51904,0-2.4873-.87646-2.4873-2.5708Z" fill="#ebebeb"/>
      <path d="m49.70654,133.24463c0-.28418.22559-.50928.51758-.50928.28369,0,.50928.2251.50928.50928v4.43994h2.646c.25879,0,.46729.20898.46729.46777s-.2085.46729-.46729.46729h-3.15527c-.29199,0-.51758-.22559-.51758-.51758v-4.85742Z" fill="#ebebeb"/>
      <path d="m54.97412,137.96875c-.11719-.0835-.2002-.22559-.2002-.39258,0-.26709.2168-.47559.48389-.47559.14209,0,.23389.0415.30029.0918.48438.38379,1.00195.60107,1.63623.60107s1.03467-.30078,1.03467-.73486v-.0166c0-.41699-.2334-.64258-1.31836-.89307-1.24365-.30029-1.94482-.66748-1.94482-1.74414v-.01709c0-1.00146.83447-1.69434,1.99463-1.69434.73438,0,1.32715.19238,1.85303.54297.1167.06641.2251.2085.2251.40869,0,.26709-.2168.47559-.48389.47559-.1001,0-.18359-.0249-.26709-.07471-.45068-.29248-.88477-.44238-1.34375-.44238-.60107,0-.95166.30859-.95166.69238v.01709c0,.45068.26709.65088,1.39404.91797,1.23535.30029,1.86963.74268,1.86963,1.71094v.0166c0,1.09375-.85986,1.74463-2.08691,1.74463-.79248,0-1.54395-.25049-2.19482-.73438Z" fill="#ebebeb"/>
      <path d="m60.6792,138.10205v-4.80762c0-.29199.22559-.51758.51758-.51758h3.39697c.25049,0,.45947.20898.45947.45947,0,.2583-.20898.45898-.45947.45898h-2.8877v1.51904h2.51221c.25049,0,.45898.2085.45898.46729,0,.25049-.2085.45068-.45898.45068h-2.51221v1.56934h2.92969c.25049,0,.45898.2085.45898.45898,0,.25879-.2085.45898-.45898.45898h-3.43896c-.29199,0-.51758-.22559-.51758-.51758Z" fill="#ebebeb"/>
      <path d="m68.41992,133.43652c-.0249-.05859-.0415-.13379-.0415-.2002,0-.28418.24219-.50098.52588-.50098.25049,0,.44238.15869.50928.37549l1.34375,4.01465,1.31836-3.99805c.0835-.2417.25879-.40869.51758-.40869h.0752c.25879,0,.44238.16699.51758.40869l1.31885,3.99805,1.34375-4.02295c.0752-.2085.25049-.36719.50049-.36719.27588,0,.50928.2168.50928.49219,0,.06689-.0249.15039-.0498.20898l-1.72803,4.84082c-.0918.25879-.28369.42578-.53418.42578h-.1001c-.25049,0-.43408-.15869-.52588-.42578l-1.30176-3.81445-1.30225,3.81445c-.0918.26709-.28369.42578-.53418.42578h-.1001c-.25049,0-.43408-.15869-.53418-.42578l-1.72803-4.84082Z" fill="#ebebeb"/>
      <path d="m78.0918,133.24463c0-.28418.22559-.50928.51758-.50928.28369,0,.50928.2251.50928.50928v4.90771c0,.28369-.22559.50879-.50928.50879-.29199,0-.51758-.2251-.51758-.50879v-4.90771Z" fill="#ebebeb"/>
      <path d="m80.86963,133.29443c0-.29199.22559-.51758.51758-.51758h1.66113c1.83643,0,3.10498,1.26074,3.10498,2.90479v.0166c0,1.64453-1.26855,2.92139-3.10498,2.92139h-1.66113c-.29199,0-.51758-.22559-.51758-.51758v-4.80762Zm2.17871,4.39014c1.22705,0,2.02832-.82617,2.02832-1.96973v-.0166c0-1.14355-.80127-1.98633-2.02832-1.98633h-1.15186v3.97266h1.15186Z" fill="#ebebeb"/>
      <path d="m88.66602,133.72852h-1.41895c-.26709,0-.47607-.2168-.47607-.47559s.20898-.47607.47607-.47607h3.88086c.25879,0,.46729.21729.46729.47607s-.2085.47559-.46729.47559h-1.42725v4.42383c0,.28369-.2334.50879-.51758.50879-.28369,0-.51709-.2251-.51709-.50879v-4.42383Z" fill="#ebebeb"/>
      <path d="m92.75732,133.24463c0-.28418.22559-.50928.51758-.50928.28369,0,.50928.2251.50928.50928v1.96143h2.7876v-1.96143c0-.28418.22559-.50928.50928-.50928.29199,0,.51758.2251.51758.50928v4.90771c0,.28369-.22559.50879-.51758.50879-.28369,0-.50928-.2251-.50928-.50879v-1.99512h-2.7876v1.99512c0,.28369-.22559.50879-.50928.50879-.29199,0-.51758-.2251-.51758-.50879v-4.90771Z" fill="#ebebeb"/>
    </g>
    <g>
      <path d="m55.35059,20.4165c0-.53809.42578-.96338.96338-.96338.53857,0,.96338.42529.96338.96338v6.11865h3.56641c.4873,0,.87598.3877.87598.87549s-.38867.87598-.87598.87598h-4.52979c-.5376,0-.96338-.42529-.96338-.96338v-6.90674Z" fill="#ebebeb"/>
      <path d="m63.06445,20.49121c0-.5376.42578-.96289.96387-.96289h4.9043c.48828,0,.87598.3877.87598.87549s-.3877.87598-.87598.87598h-3.94141v1.86426h3.37891c.4873,0,.875.38818.875.87598s-.3877.87549-.875.87549h-3.37891v2.50293c0,.53809-.4248.96338-.96289.96338s-.96387-.42529-.96387-.96338v-6.90723Z" fill="#ebebeb"/>
      <path d="m70.72266,23.93262v-.02539c0-2.48975,1.96387-4.5293,4.66699-4.5293,2.70215,0,4.6416,2.01465,4.6416,4.50439v.0249c0,2.49023-1.96387,4.5293-4.66699,4.5293-2.70215,0-4.6416-2.01416-4.6416-4.50391Zm7.29492,0v-.02539c0-1.50146-1.10156-2.75244-2.65332-2.75244-1.55078,0-2.62695,1.22607-2.62695,2.72754v.0249c0,1.50146,1.10059,2.75293,2.65234,2.75293s2.62793-1.22656,2.62793-2.72754Z" fill="#ebebeb"/>
    </g>
    <g>
      <path d="m14.87598,266.64209c0-.23682.18262-.41992.41992-.41992h2.76367c.20996,0,.37988.16943.37988.37939s-.16992.37939-.37988.37939h-2.35059v1.29395h2.0459c.20996,0,.37939.16943.37939.37939s-.16943.37939-.37939.37939h-2.0459v1.55127c0,.23047-.18262.41357-.41309.41357-.2373,0-.41992-.18311-.41992-.41357v-3.94287Z" fill="#ebebeb"/>
      <path d="m19.45801,266.61523c0-.23047.18311-.41992.41992-.41992h.08838c.18311,0,.30518.09473.38623.22363l1.43652,2.24902,1.44238-2.25586c.08838-.14258.20996-.2168.37988-.2168h.08789c.2373,0,.41992.18945.41992.41992v3.96973c0,.23047-.18262.41357-.41992.41357-.22363,0-.41309-.18994-.41309-.41357v-2.84521l-1.15869,1.74121c-.08838.13525-.19678.2168-.35205.2168-.14941,0-.25781-.08154-.3457-.2168l-1.15186-1.72754v2.83838c0,.23047-.18311.40674-.41357.40674-.22998,0-.40625-.17627-.40625-.40674v-3.97656Z" fill="#ebebeb"/>
    </g>
    <g>
      <path d="m44.70215,268.60693v-.01367c0-1.34814,1.00977-2.45264,2.44629-2.45264.73145,0,1.2124.2168,1.62598.53516.08789.06836.16211.18311.16211.33203,0,.23047-.18262.40674-.41309.40674-.11523,0-.19629-.04053-.25049-.08154-.3252-.26367-.67773-.42676-1.13135-.42676-.90137,0-1.56543.74512-1.56543,1.67383v.01318c0,.92822.65723,1.68018,1.56543,1.68018.50098,0,.83984-.1626,1.18555-.4541.06055-.05371.14893-.09473.25049-.09473.20996,0,.39307.17627.39307.38623,0,.12891-.06104.23047-.13574.29834-.44727.39258-.95508.63672-1.7207.63672-1.38184,0-2.41211-1.07715-2.41211-2.43896Z" fill="#ebebeb"/>
      <path d="m50.11963,266.60156c0-.23047.18311-.41309.41992-.41309.23047,0,.41357.18262.41357.41309v3.60449h2.14746c.20996,0,.37939.16895.37939.37891s-.16943.37988-.37939.37988h-2.56104c-.23682,0-.41992-.18311-.41992-.42041v-3.94287Z" fill="#ebebeb"/>
      <path d="m54.47266,266.60156c0-.23047.18311-.41309.41992-.41309.23047,0,.41357.18262.41357.41309v2.00537l2.24951-2.2627c.09473-.10205.19629-.15576.34521-.15576.23047,0,.38623.18262.38623.38574,0,.12891-.0542.22363-.14941.31201l-1.47656,1.42236,1.59863,1.98535c.06787.08789.11523.16943.11523.29785,0,.23047-.18262.40674-.41992.40674-.1626,0-.26416-.08154-.35254-.19678l-1.52441-1.94434-.77197.74512v.98242c0,.23047-.18311.41357-.41357.41357-.23682,0-.41992-.18311-.41992-.41357v-3.9834Z" fill="#ebebeb"/>
    </g>
    <g>
      <path d="m72.29736,266.64209c0-.23682.18311-.41992.41992-.41992h1.69385c.59619,0,1.06348.17627,1.36816.47412.25098.25781.39307.60986.39307,1.02344v.01318c0,.75879-.43994,1.21924-1.07715,1.41602l.90771,1.14502c.08154.10156.13574.18945.13574.31836,0,.23047-.19629.38623-.3999.38623-.18945,0-.31152-.08838-.40625-.2168l-1.15186-1.47021h-1.0498v1.27344c0,.23047-.18311.41357-.41357.41357-.23682,0-.41992-.18311-.41992-.41357v-3.94287Zm2.05273,1.93115c.59619,0,.97559-.31152.97559-.79297v-.01367c0-.50781-.36572-.78564-.98242-.78564h-1.2124v1.59229h1.21924Z" fill="#ebebeb"/>
      <path d="m77.42969,270.54443v-3.90234c0-.23682.18311-.41992.41992-.41992h2.75781c.20312,0,.37256.16943.37256.37256,0,.20996-.16943.37256-.37256.37256h-2.34424v1.23291h2.03906c.20361,0,.37256.16992.37256.37988,0,.20312-.16895.36572-.37256.36572h-2.03906v1.27344h2.37793c.20312,0,.37256.16943.37256.37256,0,.20996-.16943.37305-.37256.37305h-2.7915c-.23682,0-.41992-.18311-.41992-.42041Z" fill="#ebebeb"/>
      <path d="m82.04395,270.43604c-.09473-.06787-.16211-.18311-.16211-.31836,0-.2168.17578-.38623.39258-.38623.11523,0,.18994.03418.24414.07471.39258.31152.81299.48779,1.32764.48779.51514,0,.84033-.24414.84033-.59619v-.01367c0-.33838-.18994-.52148-1.07031-.7251-1.00977-.24365-1.5791-.54199-1.5791-1.41602v-.01318c0-.81299.67773-1.37549,1.61963-1.37549.59619,0,1.07715.15625,1.50391.44043.09473.0542.18311.16943.18311.33203,0,.2168-.17627.38623-.39307.38623-.08154,0-.14893-.02051-.2168-.06104-.36572-.2373-.71826-.35938-1.09082-.35938-.48779,0-.77246.25098-.77246.5625v.01367c0,.36572.2168.52832,1.13135.74512,1.00293.24414,1.51758.60303,1.51758,1.38867v.01367c0,.8877-.69775,1.41602-1.69336,1.41602-.64355,0-1.25342-.20312-1.78223-.59619Z" fill="#ebebeb"/>
      <path d="m86.73047,270.54443v-3.90234c0-.23682.18311-.41992.41992-.41992h2.75781c.20312,0,.37256.16943.37256.37256,0,.20996-.16943.37256-.37256.37256h-2.34424v1.23291h2.03906c.20361,0,.37256.16992.37256.37988,0,.20312-.16895.36572-.37256.36572h-2.03906v1.27344h2.37793c.20312,0,.37256.16943.37256.37256,0,.20996-.16943.37305-.37256.37305h-2.7915c-.23682,0-.41992-.18311-.41992-.42041Z" fill="#ebebeb"/>
      <path d="m92.69385,266.99463h-1.15186c-.2168,0-.38574-.17627-.38574-.38623s.16895-.38623.38574-.38623h3.15039c.20996,0,.37988.17627.37988.38623s-.16992.38623-.37988.38623h-1.1582v3.59033c0,.23047-.18994.41357-.41992.41357-.23047,0-.42041-.18311-.42041-.41357v-3.59033Z" fill="#ebebeb"/>
    </g>
    <g>
      <path d="m107.01514,266.64209c0-.23682.18311-.41992.41992-.41992h1.44971c1.11133,0,1.80225.63037,1.80225,1.58545v.01367c0,1.06348-.85352,1.61914-1.89697,1.61914h-.94141v1.14453c0,.23047-.18311.41357-.41357.41357-.23682,0-.41992-.18311-.41992-.41357v-3.94287Zm1.80225,2.04639c.62988,0,1.02246-.35254,1.02246-.84717v-.01318c0-.55566-.39941-.84717-1.02246-.84717h-.96875v1.70752h.96875Z" fill="#ebebeb"/>
      <path d="m111.43457,266.75732c-.02051-.04736-.03369-.1084-.03369-.1626,0-.23047.19629-.40625.42676-.40625.20312,0,.35889.12842.41309.30469l1.09082,3.25879,1.0708-3.24512c.06738-.19629.20996-.33203.41992-.33203h.06055c.20996,0,.35938.13574.42041.33203l1.07031,3.24512,1.09082-3.26562c.06104-.16943.20312-.29785.40674-.29785.22314,0,.41309.17578.41309.39941,0,.0542-.02051.12207-.04102.16943l-1.40234,3.9292c-.07422.21045-.23047.3457-.43359.3457h-.08105c-.20312,0-.35254-.12891-.42676-.3457l-1.05713-3.0957-1.05664,3.0957c-.07471.2168-.23047.3457-.43359.3457h-.08154c-.20312,0-.35205-.12891-.43359-.3457l-1.40234-3.9292Z" fill="#ebebeb"/>
      <path d="m119.31934,266.61523c0-.23047.18262-.41992.41992-.41992h.08789c.18311,0,.30518.09473.38623.22363l1.43652,2.24902,1.44287-2.25586c.08789-.14258.20996-.2168.37939-.2168h.08838c.23682,0,.41992.18945.41992.41992v3.96973c0,.23047-.18311.41357-.41992.41357-.22363,0-.41357-.18994-.41357-.41357v-2.84521l-1.15869,1.74121c-.08789.13525-.19629.2168-.35205.2168-.14893,0-.25732-.08154-.34521-.2168l-1.15234-1.72754v2.83838c0,.23047-.18262.40674-.41309.40674s-.40625-.17627-.40625-.40674v-3.97656Z" fill="#ebebeb"/>
    </g>
    <g>
      <path d="m47.19873,315.12891h-1.00244c-.26465,0-.48145-.2168-.48145-.48096s.2168-.48096.48145-.48096h3.04834c.26416,0,.48096.2168.48096.48096s-.2168.48096-.48096.48096h-1.00244v3.2998c0,.29102-.23047.52148-.52148.52148-.2915,0-.52197-.23047-.52197-.52148v-3.2998Z" fill="#1f1f1f"/>
      <path d="m50.63477,314.68848c0-.29102.22998-.52148.52148-.52148h1.64648c.60254,0,1.07031.16943,1.38184.48096.26416.26416.40625.63721.40625,1.08398v.01367c0,.74512-.37256,1.20557-.94824,1.44287l.7251.88086c.10156.12891.16943.2373.16943.39941,0,.2915-.24414.48145-.49463.48145-.2373,0-.39307-.11523-.51514-.271l-1.01611-1.2876h-.8335v1.03711c0,.29102-.23047.52148-.52148.52148-.2915,0-.52148-.23047-.52148-.52148v-3.74023Zm2.1001,1.78223c.50781,0,.79932-.27148.79932-.6709v-.01367c0-.44727-.31152-.67773-.81982-.67773h-1.03662v1.3623h1.05713Z" fill="#1f1f1f"/>
      <path d="m55.81396,314.64795c0-.2915.22998-.52148.52148-.52148s.52148.22998.52148.52148v3.78076c0,.29102-.22998.52148-.52148.52148s-.52148-.23047-.52148-.52148v-3.78076Z" fill="#1f1f1f"/>
    </g>
    <g>
      <path d="m13.77246,318.4082c-.11523-.08154-.19629-.23047-.19629-.39307,0-.271.2168-.48096.48779-.48096.13525,0,.23047.04736.29785.09473.35938.26416.75244.42676,1.21289.42676.42676,0,.68408-.16895.68408-.44727v-.01318c0-.26416-.1626-.3999-.95508-.60303-.95508-.24414-1.57178-.5083-1.57178-1.4502v-.01318c0-.86035.69092-1.42969,1.65967-1.42969.57617,0,1.07715.14893,1.50439.42041.11475.06738.22998.20996.22998.41309,0,.271-.2168.48096-.48779.48096-.10156,0-.18262-.02686-.26416-.07471-.34521-.20312-.67041-.31836-.99561-.31836-.3999,0-.60986.18311-.60986.41309v.01367c0,.31152.20312.41357,1.02295.62354.96191.25049,1.50391.59619,1.50391,1.42236v.01367c0,.94189-.71826,1.47021-1.74121,1.47021-.62305,0-1.25342-.18945-1.78174-.56885Z" fill="#1f1f1f"/>
      <path d="m18.46533,314.64795c0-.2915.22998-.52148.52148-.52148s.52148.22998.52148.52148v3.78076c0,.29102-.22998.52148-.52148.52148s-.52148-.23047-.52148-.52148v-3.78076Z" fill="#1f1f1f"/>
      <path d="m20.91406,314.66162c0-.2915.23047-.52197.52197-.52197h.1084c.25049,0,.3999.12207.54199.30518l2.01221,2.64209v-2.4458c0-.28467.23047-.51465.51465-.51465.28467,0,.51514.22998.51514.51465v3.77393c0,.29102-.23047.52148-.52197.52148h-.03369c-.25049,0-.3999-.12207-.54199-.30469l-2.08643-2.7373v2.54053c0,.28467-.23047.51514-.51514.51514s-.51514-.23047-.51514-.51514v-3.77344Z" fill="#1f1f1f"/>
    </g>
    <g>
      <path d="m75.46289,318.4082c-.11523-.08154-.19629-.23047-.19629-.39307,0-.271.2168-.48096.48779-.48096.13525,0,.23047.04736.29785.09473.35938.26416.75244.42676,1.21289.42676.42676,0,.68408-.16895.68408-.44727v-.01318c0-.26416-.1626-.3999-.95508-.60303-.95508-.24414-1.57178-.5083-1.57178-1.4502v-.01318c0-.86035.69092-1.42969,1.65967-1.42969.57617,0,1.07715.14893,1.50439.42041.11475.06738.22998.20996.22998.41309,0,.271-.2168.48096-.48779.48096-.10156,0-.18262-.02686-.26416-.07471-.34521-.20312-.67041-.31836-.99561-.31836-.3999,0-.60986.18311-.60986.41309v.01367c0,.31152.20312.41357,1.02295.62354.96191.25049,1.50391.59619,1.50391,1.42236v.01367c0,.94189-.71826,1.47021-1.74121,1.47021-.62305,0-1.25342-.18945-1.78174-.56885Z" fill="#1f1f1f"/>
      <path d="m79.77832,318.23877l1.65332-3.73291c.11523-.25781.3252-.41309.60986-.41309h.06104c.28418,0,.4873.15527.60254.41309l1.65332,3.73291c.03369.07471.0542.14209.0542.20996,0,.27783-.2168.50146-.49463.50146-.24414,0-.40625-.14258-.50146-.35938l-.31836-.74512h-2.08643l-.33203.7793c-.08838.20312-.26416.3252-.48096.3252-.271,0-.48096-.2168-.48096-.48779,0-.07471.02686-.14893.06055-.22363Zm2.93359-1.31445l-.65723-1.56494-.65723,1.56494h1.31445Z" fill="#1f1f1f"/>
      <path d="m84.8374,314.83105c-.02051-.06104-.04053-.13574-.04053-.19629,0-.2915.24365-.5083.53516-.5083.24365,0,.44043.15576.50781.37256l.94189,2.90625.94873-2.87891c.08105-.24414.26416-.41357.52832-.41357h.08105c.26465,0,.44727.1626.52881.41357l.94824,2.87891.94189-2.90625c.06738-.20312.24365-.37256.50098-.37256.28467,0,.51514.2168.51514.50146,0,.06055-.02051.14209-.04053.20312l-1.32812,3.72607c-.09473.26416-.29102.42676-.54199.42676h-.1084c-.25049,0-.44043-.15576-.53516-.42676l-.93506-2.7168-.93457,2.7168c-.09521.271-.28467.42676-.53564.42676h-.1084c-.25049,0-.44678-.1626-.54199-.42676l-1.32764-3.72607Z" fill="#1f1f1f"/>
    </g>
    <g>
      <path d="m108.25879,318.4082c-.11523-.08154-.19629-.23047-.19629-.39307,0-.271.2168-.48096.48779-.48096.13525,0,.23047.04736.29785.09473.35938.26416.75244.42676,1.21289.42676.42676,0,.68408-.16895.68408-.44727v-.01318c0-.26416-.1626-.3999-.95508-.60303-.95508-.24414-1.57178-.5083-1.57178-1.4502v-.01318c0-.86035.69092-1.42969,1.65967-1.42969.57617,0,1.07715.14893,1.50439.42041.11475.06738.22998.20996.22998.41309,0,.271-.2168.48096-.48779.48096-.10156,0-.18262-.02686-.26416-.07471-.34521-.20312-.67041-.31836-.99561-.31836-.3999,0-.60986.18311-.60986.41309v.01367c0,.31152.20312.41357,1.02295.62354.96191.25049,1.50391.59619,1.50391,1.42236v.01367c0,.94189-.71826,1.47021-1.74121,1.47021-.62305,0-1.25342-.18945-1.78174-.56885Z" fill="#1f1f1f"/>
      <path d="m112.63818,316.55176v-.01367c0-1.34814,1.06396-2.45215,2.52734-2.45215s2.51318,1.09082,2.51318,2.43848v.01367c0,.50146-.15576.96875-.41992,1.36182l.20312.16943c.1084.09473.18994.22363.18994.39307,0,.271-.2168.49463-.48779.49463-.14258,0-.26416-.06104-.3457-.14258l-.25732-.23047c-.3999.25781-.88086.40674-1.40918.40674-1.46338,0-2.51367-1.09082-2.51367-2.43896Zm2.46631.53516c0-.271.2168-.49463.48779-.49463.14209,0,.23682.04736.34521.14209l.52197.46777c.08105-.18945.12842-.41309.12842-.65039v-.01367c0-.81299-.5957-1.49023-1.43604-1.49023s-1.42285.66406-1.42285,1.47656v.01367c0,.81299.59619,1.49072,1.43652,1.49072.22998,0,.44043-.04053.62305-.12891l-.49463-.41992c-.1084-.09521-.18945-.22363-.18945-.39307Z" fill="#1f1f1f"/>
      <path d="m118.88281,314.68848c0-.29102.22998-.52148.52148-.52148h1.64648c.60254,0,1.07031.16943,1.38184.48096.26416.26416.40625.63721.40625,1.08398v.01367c0,.74512-.37256,1.20557-.94824,1.44287l.7251.88086c.10156.12891.16943.2373.16943.39941,0,.2915-.24414.48145-.49463.48145-.2373,0-.39307-.11523-.51514-.271l-1.01611-1.2876h-.8335v1.03711c0,.29102-.23047.52148-.52148.52148-.2915,0-.52148-.23047-.52148-.52148v-3.74023Zm2.1001,1.78223c.50781,0,.79932-.27148.79932-.6709v-.01367c0-.44727-.31152-.67773-.81982-.67773h-1.03662v1.3623h1.05713Z" fill="#1f1f1f"/>
    </g>
  </g>
</svg>