<?xml version="1.0" encoding="UTF-8" standalone="no"?>
<svg
   xmlns:dc="http://purl.org/dc/elements/1.1/"
   xmlns:cc="http://creativecommons.org/ns#"
   xmlns:rdf="http://www.w3.org/1999/02/22-rdf-syntax-ns#"
   xmlns:svg="http://www.w3.org/2000/svg"
   xmlns="http://www.w3.org/2000/svg"
   xmlns:sodipodi="http://sodipodi.sourceforge.net/DTD/sodipodi-0.dtd"
   xmlns:inkscape="http://www.inkscape.org/namespaces/inkscape"
   width="135"
   height="380"
   viewBox="0 0 135 380"
   version="1.1"
   id="svg204"
   sodipodi:docname="LFO.svg"
   inkscape:version="0.92.3 (2405546, 2018-03-11)">
  <metadata
     id="metadata208">
    <rdf:RDF>
      <cc:Work
         rdf:about="">
        <dc:format>image/svg+xml</dc:format>
        <dc:type
           rdf:resource="http://purl.org/dc/dcmitype/StillImage" />
      </cc:Work>
    </rdf:RDF>
  </metadata>
  <sodipodi:namedview
     pagecolor="#ffffff"
     bordercolor="#666666"
     borderopacity="1"
     objecttolerance="10"
     gridtolerance="10"
     guidetolerance="10"
     inkscape:pageopacity="0"
     inkscape:pageshadow="2"
     inkscape:window-width="1920"
     inkscape:window-height="1017"
     id="namedview206"
     showgrid="false"
     inkscape:zoom="0.62105263"
     inkscape:cx="67.5"
     inkscape:cy="190"
     inkscape:window-x="1912"
     inkscape:window-y="-8"
     inkscape:window-maximized="1"
     inkscape:current-layer="svg204" />
  <defs
     id="defs7">
    <linearGradient
       id="b0467f8b-e5da-4ce7-9c63-3a6c324d24c4"
       x1="67.5"
       x2="67.5"
       y2="380"
       gradientUnits="userSpaceOnUse">
      <stop
         offset="0"
         stop-color="#ebebeb"
         id="stop2" />
      <stop
         offset="1"
         stop-color="#e1e1e1"
         id="stop4" />
    </linearGradient>
  </defs>
  <g
     id="ecc665be-7919-4da6-9a23-ce536b642c4a"
     data-name="FND BG">
    <rect
       width="135"
       height="380"
       fill="url(#b0467f8b-e5da-4ce7-9c63-3a6c324d24c4)"
       id="rect9" />
  </g>
  <g
     id="a8b57077-cd14-425a-93c0-b8d72d4e688d"
     data-name="FND GRAPH">
    <rect
       x="5.18979"
       y="309.0301"
       width="124.62598"
       height="39.15691"
       rx="2.83465"
       fill="#1f1f1f"
       id="rect12" />
    <g
       id="g22">
      <path
         d="M59.35927,359.753a.91214.91214,0,0,1-.8158-.50418l-2.96428-5.92857a.91209.91209,0,0,1,1.6316-.8158l2.14848,4.297,2.14848-4.297a.91209.91209,0,0,1,1.6316.8158l-2.96428,5.92857A.91211.91211,0,0,1,59.35927,359.753Z"
         fill="#1f1f1f"
         id="path14" />
      <path
         d="M75.64073,359.753a.91211.91211,0,0,1-.8158-.50418l-2.96428-5.92857a.91209.91209,0,0,1,1.6316-.8158l2.14848,4.297,2.14848-4.297a.91209.91209,0,0,1,1.6316.8158l-2.96428,5.92857A.91214.91214,0,0,1,75.64073,359.753Z"
         fill="#1f1f1f"
         id="path16" />
      <path
         d="M67.94242,359.753a3.87637,3.87637,0,1,1,2.32653-6.97719.91209.91209,0,1,1-1.09557,1.45854,2.034,2.034,0,0,0-1.231-.40991,2.0522,2.0522,0,1,0,0,4.10439,2.034,2.034,0,0,0,1.231-.40991.91209.91209,0,1,1,1.09557,1.45854A3.8448,3.8448,0,0,1,67.94242,359.753Z"
         fill="#1f1f1f"
         id="path18" />
      <circle
         cx="68.00165"
         cy="355.83101"
         r="1.18571"
         fill="#1f1f1f"
         id="circle20" />
    </g>
    <line
       x1="115.49998"
       y1="289.73853"
       x2="115.49998"
       y2="309.87506"
       fill="none"
       stroke="#1f1f1f"
       stroke-linecap="round"
       stroke-linejoin="round"
       stroke-width="0.8"
       id="line24" />
    <line
       x1="14.99448"
       y1="202"
       x2="119.99448"
       y2="202"
       fill="none"
       stroke="#1f1f1f"
       stroke-linecap="round"
       stroke-linejoin="round"
       stroke-width="0.8"
       id="line26" />
    <g
       id="g36">
      <circle
         cx="67.50196"
         cy="166.5"
         r="26.48818"
         fill="none"
         opacity="0.69"
         style="isolation: isolate"
         id="circle28" />
      <path
         d="M78.30018,184.60266a20.94666,20.94666,0,1,0-21.451.07488"
         fill="none"
         stroke="#1f1f1f"
         stroke-linecap="round"
         stroke-miterlimit="10"
         stroke-width="0.8"
         id="path30" />
      <line
         x1="78.30018"
         y1="184.60266"
         x2="67.50196"
         y2="166.5"
         fill="none"
         id="line32" />
      <line
         x1="67.51185"
         y1="145.70121"
         x2="67.51185"
         y2="159.12279"
         fill="none"
         stroke="#1f1f1f"
         stroke-linecap="round"
         stroke-miterlimit="10"
         stroke-width="0.8"
         id="line34" />
    </g>
    <g
       id="g44">
      <circle
         cx="67.62377"
         cy="88"
         r="38.44564"
         fill="none"
         opacity="0.69"
         style="isolation: isolate"
         id="circle38" />
      <path
         d="M83.2966,114.27467a30.40252,30.40252,0,1,0-31.13461.10869"
         fill="none"
         stroke="#1f1f1f"
         stroke-linecap="round"
         stroke-miterlimit="10"
         stroke-width="0.8"
         id="path40" />
      <line
         x1="83.2966"
         y1="114.27467"
         x2="67.62377"
         y2="88"
         fill="none"
         id="line42" />
    </g>
    <g
       id="g52">
      <line
         x1="19.50002"
         y1="250.87459"
         x2="19.50002"
         y2="260.07654"
         fill="none"
         stroke="#1f1f1f"
         stroke-linecap="round"
         stroke-linejoin="round"
         stroke-width="0.8"
         id="line46" />
      <line
         x1="19.50002"
         y1="226.54018"
         x2="19.50002"
         y2="238.01957"
         fill="none"
         stroke="#1f1f1f"
         stroke-linecap="round"
         stroke-linejoin="round"
         id="line48" />
      <path
         d="M25.44037,247.88639a11.53379,11.53379,0,1,0-11.81153.04123"
         fill="none"
         stroke="#1f1f1f"
         stroke-linecap="round"
         stroke-linejoin="round"
         id="path50" />
    </g>
    <g
       id="g60">
      <line
         x1="115.49998"
         y1="250.87459"
         x2="115.49998"
         y2="260.07654"
         fill="none"
         stroke="#1f1f1f"
         stroke-linecap="round"
         stroke-linejoin="round"
         stroke-width="0.8"
         id="line54" />
      <line
         x1="115.49998"
         y1="226.54018"
         x2="115.49998"
         y2="238.01957"
         fill="none"
         stroke="#1f1f1f"
         stroke-linecap="round"
         stroke-linejoin="round"
         id="line56" />
      <path
         d="M121.44032,247.88639a11.5338,11.5338,0,1,0-11.81152.04123"
         fill="none"
         stroke="#1f1f1f"
         stroke-linecap="round"
         stroke-linejoin="round"
         id="path58" />
    </g>
  </g>
  <g
     id="a78f4ae6-191c-43ae-be47-9e0a48d5b434"
     data-name="FND TXT"
     style="display:inline">
    <g
       id="g71">
      <path
         d="m 74.19092,219.69727 v -0.0132 a 2.48,2.48 0 0 1 4.95947,-0.0137 v 0.0137 a 2.48,2.48 0 0 1 -4.95947,0.0132 z m 4.08545,0 v -0.0132 a 1.625,1.625 0 0 0 -1.61231,-1.687 1.60239,1.60239 0 0 0 -1.59912,1.67334 v 0.0137 a 1.61889,1.61889 0 0 0 1.61231,1.68018 1.59673,1.59673 0 0 0 1.59912,-1.667 z"
         id="path63"
         inkscape:connector-curvature="0"
         style="fill:#1f1f1f" />
      <path
         d="m 80.36768,217.73291 a 0.41392,0.41392 0 0 1 0.41992,-0.42041 h 2.76416 a 0.3794,0.3794 0 0 1 0,0.75879 h -2.35059 v 1.29394 h 2.0459 a 0.3794,0.3794 0 0 1 0,0.75879 h -2.0459 v 1.55176 a 0.41676,0.41676 0 0 1 -0.83349,0 z"
         id="path65"
         inkscape:connector-curvature="0"
         style="fill:#1f1f1f" />
      <path
         d="m 84.79785,221.52686 a 0.39447,0.39447 0 0 1 0.47412,-0.63038 2.05764,2.05764 0 0 0 1.32764,0.48829 c 0.51514,0 0.84033,-0.24415 0.84033,-0.59668 v -0.0137 c 0,-0.33837 -0.18994,-0.52148 -1.0708,-0.72461 -1.00928,-0.24414 -1.57812,-0.542 -1.57812,-1.416 v -0.0137 a 1.45042,1.45042 0 0 1 1.61914,-1.375 2.60787,2.60787 0 0 1 1.5039,0.44043 0.37512,0.37512 0 0 1 0.18262,0.332 0.38682,0.38682 0 0 1 -0.39258,0.38574 0.40343,0.40343 0 0 1 -0.2168,-0.0606 1.97271,1.97271 0 0 0 -1.09082,-0.35937 c -0.48779,0 -0.77246,0.251 -0.77246,0.5625 v 0.0137 c 0,0.36572 0.2168,0.52832 1.13184,0.74512 1.00244,0.24365 1.51758,0.60254 1.51758,1.38867 v 0.0137 c 0,0.8877 -0.69824,1.416 -1.69434,1.416 a 2.95,2.95 0 0 1 -1.78125,-0.59615 z"
         id="path67"
         inkscape:connector-curvature="0"
         style="fill:#1f1f1f" />
      <path
         d="m 90.59033,218.085 h -1.15185 a 0.38623,0.38623 0 1 1 0,-0.77246 h 3.15039 a 0.38629,0.38629 0 0 1 0,0.77246 h -1.15869 v 3.59082 a 0.42,0.42 0 0 1 -0.83985,0 z"
         id="path69"
         inkscape:connector-curvature="0"
         style="fill:#1f1f1f" />
    </g>
    <g
       id="g79">
      <path
         d="m 45.75,217.69238 a 0.41652,0.41652 0 0 1 0.833,0 v 3.98389 a 0.41652,0.41652 0 0 1 -0.833,0 z"
         id="path73"
         inkscape:connector-curvature="0"
         style="fill:#1f1f1f" />
      <path
         d="m 48.05957,217.70605 a 0.41742,0.41742 0 0 1 0.41992,-0.41992 h 0.08789 a 0.52453,0.52453 0 0 1 0.4336,0.24414 l 2.37109,3.06885 v -2.91357 a 0.41017,0.41017 0 0 1 0.82031,0 v 3.98388 a 0.40524,0.40524 0 0 1 -0.40674,0.41358 H 51.752 a 0.52355,0.52355 0 0 1 -0.43359,-0.251 l -2.43945,-3.15723 v 3.00831 a 0.40968,0.40968 0 0 1 -0.81934,0 z"
         id="path75"
         inkscape:connector-curvature="0"
         style="fill:#1f1f1f" />
      <path
         d="m 54.92334,221.78467 -1.65967,-3.90235 a 0.46407,0.46407 0 0 1 -0.04785,-0.19677 0.41094,0.41094 0 0 1 0.41992,-0.40625 0.43691,0.43691 0 0 1 0.42725,0.29785 l 1.36865,3.42187 1.38867,-3.44873 a 0.42937,0.42937 0 0 1 0.39942,-0.271 0.40385,0.40385 0 0 1 0.41357,0.3999 0.48906,0.48906 0 0 1 -0.04053,0.17627 l -1.667,3.9292 a 0.49607,0.49607 0 0 1 -0.481,0.33887 h -0.04736 a 0.49374,0.49374 0 0 1 -0.47407,-0.33886 z"
         id="path77"
         inkscape:connector-curvature="0"
         style="fill:#1f1f1f" />
    </g>
    <g
       id="g89">
      <path
         d="m 56.1084,45.78613 a 0.50962,0.50962 0 0 1 0.51758,-0.51758 h 3.40527 a 0.46729,0.46729 0 1 1 0,0.93457 h -2.896 v 1.59424 h 2.521 a 0.46753,0.46753 0 0 1 0,0.93506 h -2.521 v 1.91113 a 0.51344,0.51344 0 0 1 -1.02685,0 z"
         id="path81"
         inkscape:connector-curvature="0"
         style="fill:#1f1f1f" />
      <path
         d="m 61.68066,45.78613 a 0.50921,0.50921 0 0 1 0.51709,-0.51758 h 2.08643 a 2.35549,2.35549 0 0 1 1.68652,0.584 1.76679,1.76679 0 0 1 0.48389,1.26025 v 0.01709 A 1.72894,1.72894 0 0 1 65.12744,48.874 l 1.11865,1.41065 a 0.59658,0.59658 0 0 1 0.167,0.39209 0.4843,0.4843 0 0 1 -0.49268,0.47607 0.58664,0.58664 0 0 1 -0.50049,-0.26709 L 64.001,49.07422 h -1.294 v 1.56933 a 0.5132,0.5132 0 0 1 -1.02637,0 z m 2.52881,2.37842 c 0.73438,0 1.20166,-0.38379 1.20166,-0.97656 v -0.0166 c 0,-0.626 -0.45019,-0.96827 -1.21,-0.96827 H 62.707 v 1.96143 z"
         id="path83"
         inkscape:connector-curvature="0"
         style="fill:#1f1f1f" />
      <path
         d="m 67.93213,50.59375 v -4.80762 a 0.50933,0.50933 0 0 1 0.51758,-0.51758 h 3.397 a 0.46321,0.46321 0 0 1 0.459,0.459 0.45781,0.45781 0 0 1 -0.459,0.459 H 68.959 v 1.51905 h 2.5117 a 0.46476,0.46476 0 0 1 0.45948,0.46728 0.45591,0.45591 0 0 1 -0.45948,0.45069 H 68.959 v 1.56933 h 2.92969 a 0.46321,0.46321 0 0 1 0.459,0.459 0.45782,0.45782 0 0 1 -0.459,0.459 h -3.439 a 0.50921,0.50921 0 0 1 -0.51756,-0.51715 z"
         id="path85"
         inkscape:connector-curvature="0"
         style="fill:#1f1f1f" />
      <path
         d="m 73.28906,48.20605 v -0.0166 a 3.05524,3.05524 0 0 1 6.10987,-0.0166 v 0.0166 a 3.02856,3.02856 0 0 1 -0.59229,1.79493 l 0.375,0.30859 a 0.50221,0.50221 0 0 1 0.19238,0.40039 0.49,0.49 0 0 1 -0.84277,0.34277 l -0.418,-0.376 a 3.03584,3.03584 0 0 1 -1.77734,0.55078 2.96579,2.96579 0 0 1 -3.04685,-3.00486 z m 3.15528,0.76807 a 0.49133,0.49133 0 0 1 0.48437,-0.49219 0.498,0.498 0 0 1 0.3584,0.14991 l 0.75146,0.68457 a 2.19582,2.19582 0 0 0 0.2837,-1.11036 v -0.0166 a 2.0018,2.0018 0 0 0 -1.98633,-2.07812 1.97419,1.97419 0 0 0 -1.96973,2.06152 v 0.0166 a 1.999,1.999 0 0 0 2.99609,1.80323 L 76.63623,49.375 a 0.50423,0.50423 0 0 1 -0.19189,-0.40088 z"
         id="path87"
         inkscape:connector-curvature="0"
         style="fill:#1f1f1f" />
    </g>
    <g
       id="g111">
      <path
         d="m 37.40332,133.29443 a 0.50991,0.50991 0 0 1 0.51758,-0.51757 h 1.7861 a 1.96115,1.96115 0 0 1 2.22025,1.95314 v 0.0171 c 0,1.31006 -1.05176,1.99463 -2.33692,1.99463 h -1.16015 v 1.41064 a 0.51345,0.51345 0 0 1 -1.02686,0 z m 2.22022,2.521 c 0.77636,0 1.26074,-0.43408 1.26074,-1.04346 v -0.0166 c 0,-0.68457 -0.49268,-1.04346 -1.26074,-1.04346 h -1.19336 v 2.10352 z"
         id="path91"
         inkscape:connector-curvature="0"
         style="fill:#1f1f1f" />
      <path
         d="m 43.04541,136.14062 v -2.896 a 0.51345,0.51345 0 0 1 1.02686,0 v 2.85449 c 0,1.085 0.55908,1.66065 1.47753,1.66065 0.90967,0 1.46875,-0.54248 1.46875,-1.61915 v -2.896 a 0.51345,0.51345 0 0 1 1.02686,0 v 2.84619 a 2.33338,2.33338 0 0 1 -2.5127,2.62061 2.30333,2.30333 0 0 1 -2.4873,-2.57079 z"
         id="path93"
         inkscape:connector-curvature="0"
         style="fill:#1f1f1f" />
      <path
         d="m 49.70654,133.24463 a 0.51345,0.51345 0 0 1 1.02686,0 v 4.43994 h 2.646 a 0.46753,0.46753 0 0 1 0,0.93506 h -3.15528 a 0.50992,0.50992 0 0 1 -0.51758,-0.51758 z"
         id="path95"
         inkscape:connector-curvature="0"
         style="fill:#1f1f1f" />
      <path
         d="m 54.97412,137.96875 a 0.47879,0.47879 0 0 1 0.28369,-0.86816 0.47289,0.47289 0 0 1 0.3003,0.0918 2.53592,2.53592 0 0 0 1.63623,0.60108 c 0.63427,0 1.03466,-0.30078 1.03466,-0.73487 v -0.0166 c 0,-0.417 -0.23339,-0.64258 -1.31836,-0.89306 -1.24365,-0.3003 -1.94482,-0.66748 -1.94482,-1.74414 v -0.0171 a 1.78689,1.78689 0 0 1 1.99463,-1.69434 3.2153,3.2153 0 0 1 1.853,0.543 0.46278,0.46278 0 0 1 0.22509,0.40869 0.47706,0.47706 0 0 1 -0.48388,0.47559 0.4988,0.4988 0 0 1 -0.26709,-0.0747 2.42724,2.42724 0 0 0 -1.34375,-0.44238 c -0.60108,0 -0.95166,0.30859 -0.95166,0.69238 v 0.0171 c 0,0.45068 0.26709,0.65088 1.394,0.918 1.23535,0.30029 1.86963,0.74267 1.86963,1.71093 v 0.0166 c 0,1.09375 -0.85986,1.74462 -2.08691,1.74462 a 3.63833,3.63833 0 0 1 -2.19476,-0.73443 z"
         id="path97"
         inkscape:connector-curvature="0"
         style="fill:#1f1f1f" />
      <path
         d="m 60.6792,138.10205 v -4.80762 a 0.50991,0.50991 0 0 1 0.51758,-0.51757 h 3.397 a 0.46372,0.46372 0 0 1 0.45947,0.45947 0.45823,0.45823 0 0 1 -0.45947,0.459 h -2.8877 v 1.519 h 2.51221 a 0.46467,0.46467 0 0 1 0.459,0.46728 0.45579,0.45579 0 0 1 -0.459,0.45068 h -2.51224 v 1.56934 h 2.92969 a 0.46289,0.46289 0 0 1 0.459,0.459 0.45752,0.45752 0 0 1 -0.459,0.459 h -3.439 a 0.50992,0.50992 0 0 1 -0.51754,-0.51758 z"
         id="path99"
         inkscape:connector-curvature="0"
         style="fill:#1f1f1f" />
      <path
         d="m 68.41992,133.43652 a 0.54138,0.54138 0 0 1 -0.0415,-0.20019 0.51328,0.51328 0 0 1 0.52588,-0.501 0.52375,0.52375 0 0 1 0.50927,0.37549 l 1.34375,4.01465 1.31836,-3.99805 a 0.54182,0.54182 0 0 1 0.51758,-0.40869 h 0.0752 a 0.53461,0.53461 0 0 1 0.51758,0.40869 l 1.31884,3.99805 1.34375,-4.023 a 0.52379,0.52379 0 0 1 0.50049,-0.36719 0.50207,0.50207 0 0 1 0.50928,0.49219 0.59306,0.59306 0 0 1 -0.04981,0.209 l -1.728,4.84082 a 0.57208,0.57208 0 0 1 -0.53418,0.42578 h -0.1001 a 0.55308,0.55308 0 0 1 -0.52588,-0.42578 l -1.30176,-3.81445 -1.30224,3.81445 a 0.56224,0.56224 0 0 1 -0.53418,0.42578 h -0.1001 a 0.56959,0.56959 0 0 1 -0.53418,-0.42578 z"
         id="path101"
         inkscape:connector-curvature="0"
         style="fill:#1f1f1f" />
      <path
         d="m 78.0918,133.24463 a 0.51344,0.51344 0 0 1 1.02685,0 v 4.90771 a 0.51345,0.51345 0 0 1 -1.02685,0 z"
         id="path103"
         inkscape:connector-curvature="0"
         style="fill:#1f1f1f" />
      <path
         d="m 80.86963,133.29443 a 0.50991,0.50991 0 0 1 0.51758,-0.51757 h 1.66113 a 2.91237,2.91237 0 0 1 3.105,2.90478 v 0.0166 a 2.92487,2.92487 0 0 1 -3.105,2.92139 h -1.66113 a 0.50991,0.50991 0 0 1 -0.51758,-0.51758 z m 2.17871,4.39014 a 1.90419,1.90419 0 0 0 2.02832,-1.96973 v -0.0166 a 1.91709,1.91709 0 0 0 -2.02832,-1.98633 h -1.15186 v 3.97266 z"
         id="path105"
         inkscape:connector-curvature="0"
         style="fill:#1f1f1f" />
      <path
         d="m 88.666,133.72852 h -1.419 a 0.47583,0.47583 0 1 1 0,-0.95166 h 3.88086 a 0.47591,0.47591 0 0 1 0,0.95166 h -1.42718 v 4.42382 a 0.5174,0.5174 0 0 1 -1.03466,0 z"
         id="path107"
         inkscape:connector-curvature="0"
         style="fill:#1f1f1f" />
      <path
         d="m 92.75732,133.24463 a 0.51345,0.51345 0 0 1 1.02686,0 v 1.96142 h 2.7876 v -1.96142 a 0.51344,0.51344 0 0 1 1.02685,0 v 4.90771 a 0.51345,0.51345 0 0 1 -1.02685,0 v -1.99511 h -2.7876 v 1.99511 a 0.51345,0.51345 0 0 1 -1.02686,0 z"
         id="path109"
         inkscape:connector-curvature="0"
         style="fill:#1f1f1f" />
    </g>
    <g
       id="g119">
      <path
         d="m 55.35059,20.4165 a 0.96338,0.96338 0 1 1 1.92675,0 v 6.11866 h 3.56641 a 0.87573,0.87573 0 1 1 0,1.75146 H 56.314 a 0.95607,0.95607 0 0 1 -0.96337,-0.96338 z"
         id="path113"
         inkscape:connector-curvature="0"
         style="fill:#1f1f1f" />
      <path
         d="m 63.06445,20.49121 a 0.95607,0.95607 0 0 1 0.96387,-0.96289 h 4.9043 a 0.87574,0.87574 0 1 1 0,1.75147 H 64.99121 V 23.144 h 3.37891 a 0.87574,0.87574 0 0 1 0,1.75147 h -3.37891 v 2.50293 a 0.96338,0.96338 0 1 1 -1.92676,0 z"
         id="path115"
         inkscape:connector-curvature="0"
         style="fill:#1f1f1f" />
      <path
         d="m 70.72266,23.93262 v -0.02539 a 4.6564,4.6564 0 0 1 9.30859,-0.02491 v 0.02491 a 4.65641,4.65641 0 0 1 -9.30859,0.02539 z m 7.29492,0 v -0.02539 a 2.6612,2.6612 0 0 0 -2.65332,-2.75244 2.61924,2.61924 0 0 0 -2.627,2.72753 v 0.02491 a 2.66083,2.66083 0 0 0 2.65235,2.75293 2.61973,2.61973 0 0 0 2.62797,-2.72754 z"
         id="path117"
         inkscape:connector-curvature="0"
         style="fill:#1f1f1f" />
    </g>
    <g
       id="g125">
      <path
         d="m 14.876,266.64209 a 0.4135,0.4135 0 0 1 0.41992,-0.41992 h 2.76367 a 0.3794,0.3794 0 1 1 0,0.75879 H 15.709 v 1.29394 h 2.0459 a 0.3794,0.3794 0 1 1 0,0.75879 H 15.709 v 1.55131 a 0.41651,0.41651 0 0 1 -0.833,0 z"
         id="path121"
         inkscape:connector-curvature="0"
         style="fill:#1f1f1f" />
      <path
         d="m 19.458,266.61523 a 0.41772,0.41772 0 0 1 0.41992,-0.41992 h 0.08838 a 0.43806,0.43806 0 0 1 0.38623,0.22364 l 1.43652,2.249 1.44239,-2.25586 a 0.419,0.419 0 0 1 0.37988,-0.2168 h 0.08789 a 0.41742,0.41742 0 0 1 0.41992,0.41992 v 3.96979 a 0.41212,0.41212 0 0 1 -0.41992,0.41358 0.41944,0.41944 0 0 1 -0.41309,-0.41358 v -2.84521 l -1.15868,1.74121 a 0.3891,0.3891 0 0 1 -0.69775,0 l -1.15186,-1.72754 v 2.83838 a 0.40524,0.40524 0 0 1 -0.41357,0.40674 0.39939,0.39939 0 0 1 -0.40625,-0.40674 z"
         id="path123"
         inkscape:connector-curvature="0"
         style="fill:#1f1f1f" />
    </g>
    <g
       id="g133">
      <path
         d="m 44.70215,268.60693 v -0.0137 a 2.40028,2.40028 0 0 1 2.44629,-2.45264 2.48837,2.48837 0 0 1 1.626,0.53516 0.41781,0.41781 0 0 1 0.16211,0.332 0.41622,0.41622 0 0 1 -0.66357,0.3252 1.72322,1.72322 0 0 0 -1.13135,-0.42676 1.59634,1.59634 0 0 0 -1.56543,1.67383 v 0.0132 a 1.598,1.598 0 0 0 1.56543,1.68018 1.69973,1.69973 0 0 0 1.18555,-0.4541 0.3803,0.3803 0 0 1 0.25049,-0.0947 0.38922,0.38922 0 0 1 0.25732,0.68457 2.42437,2.42437 0 0 1 -1.7207,0.63672 2.38545,2.38545 0 0 1 -2.41214,-2.43894 z"
         id="path127"
         inkscape:connector-curvature="0"
         style="fill:#1f1f1f" />
      <path
         d="m 50.11963,266.60156 a 0.41676,0.41676 0 0 1 0.83349,0 v 3.60449 h 2.14747 a 0.3794,0.3794 0 0 1 0,0.75879 h -2.561 a 0.41391,0.41391 0 0 1 -0.41992,-0.42041 z"
         id="path129"
         inkscape:connector-curvature="0"
         style="fill:#1f1f1f" />
      <path
         d="m 54.47266,266.60156 a 0.41676,0.41676 0 0 1 0.83349,0 v 2.00537 l 2.24951,-2.26269 a 0.43618,0.43618 0 0 1 0.34522,-0.15576 0.38128,0.38128 0 0 1 0.38623,0.38574 0.40525,0.40525 0 0 1 -0.14941,0.312 l -1.47657,1.42236 1.59864,1.98536 a 0.45051,0.45051 0 0 1 0.11523,0.29785 0.40651,0.40651 0 0 1 -0.41992,0.40674 0.42277,0.42277 0 0 1 -0.35254,-0.19678 l -1.52442,-1.94434 -0.772,0.74512 v 0.98242 a 0.41676,0.41676 0 0 1 -0.83349,0 z"
         id="path131"
         inkscape:connector-curvature="0"
         style="fill:#1f1f1f" />
    </g>
    <g
       id="g145">
      <path
         d="m 72.29736,266.64209 a 0.41381,0.41381 0 0 1 0.41993,-0.41992 h 1.69384 a 1.91051,1.91051 0 0 1 1.36817,0.47412 1.43345,1.43345 0 0 1 0.39306,1.02344 v 0.0132 a 1.40335,1.40335 0 0 1 -1.07715,1.416 l 0.90772,1.145 a 0.48168,0.48168 0 0 1 0.13574,0.31835 0.39289,0.39289 0 0 1 -0.3999,0.38624 0.4767,0.4767 0 0 1 -0.40625,-0.2168 l -1.15186,-1.47022 h -1.0498 v 1.27352 a 0.41676,0.41676 0 0 1 -0.8335,0 z m 2.05274,1.93115 c 0.59619,0 0.97558,-0.31152 0.97558,-0.793 v -0.0137 c 0,-0.50781 -0.36572,-0.78564 -0.98242,-0.78564 h -1.2124 v 1.59228 z"
         id="path135"
         inkscape:connector-curvature="0"
         style="fill:#1f1f1f" />
      <path
         d="m 77.42969,270.54443 v -3.90234 a 0.4138,0.4138 0 0 1 0.41992,-0.41992 h 2.75781 a 0.376,0.376 0 0 1 0.37256,0.37256 0.37155,0.37155 0 0 1 -0.37256,0.37256 h -2.34424 v 1.23291 h 2.03907 a 0.37755,0.37755 0 0 1 0.37255,0.37988 0.36982,0.36982 0 0 1 -0.37255,0.36572 h -2.03907 v 1.27344 h 2.37793 a 0.376,0.376 0 0 1 0.37256,0.37256 0.372,0.372 0 0 1 -0.37256,0.373 h -2.7915 a 0.41391,0.41391 0 0 1 -0.41992,-0.42037 z"
         id="path137"
         inkscape:connector-curvature="0"
         style="fill:#1f1f1f" />
      <path
         d="m 82.044,270.436 a 0.39113,0.39113 0 0 1 -0.16211,-0.31836 0.40311,0.40311 0 0 1 0.63671,-0.31153 2.0562,2.0562 0 0 0 1.32764,0.4878 c 0.51514,0 0.84033,-0.24415 0.84033,-0.5962 v -0.0137 c 0,-0.33838 -0.18994,-0.52148 -1.07031,-0.7251 -1.00976,-0.24365 -1.5791,-0.542 -1.5791,-1.416 v -0.0132 a 1.45092,1.45092 0 0 1 1.61963,-1.37549 2.61149,2.61149 0 0 1 1.5039,0.44043 0.37668,0.37668 0 0 1 0.18311,0.332 0.38766,0.38766 0 0 1 -0.39307,0.38623 0.40379,0.40379 0 0 1 -0.21679,-0.061 1.97154,1.97154 0 0 0 -1.09082,-0.35937 c -0.4878,0 -0.77246,0.251 -0.77246,0.5625 v 0.0137 c 0,0.36572 0.21679,0.52832 1.13134,0.74512 1.00293,0.24414 1.51758,0.603 1.51758,1.38867 v 0.0137 c 0,0.8877 -0.69775,1.416 -1.69336,1.416 A 2.95385,2.95385 0 0 1 82.044,270.436 Z"
         id="path139"
         inkscape:connector-curvature="0"
         style="fill:#1f1f1f" />
      <path
         d="m 86.73047,270.54443 v -3.90234 a 0.4138,0.4138 0 0 1 0.41992,-0.41992 h 2.75781 a 0.376,0.376 0 0 1 0.37256,0.37256 0.37155,0.37155 0 0 1 -0.37256,0.37256 H 87.564 v 1.23291 h 2.039 a 0.37756,0.37756 0 0 1 0.37256,0.37988 0.36983,0.36983 0 0 1 -0.37256,0.36572 h -2.039 v 1.27344 h 2.37793 a 0.376,0.376 0 0 1 0.37256,0.37256 0.372,0.372 0 0 1 -0.37256,0.373 h -2.7915 a 0.41391,0.41391 0 0 1 -0.41996,-0.42037 z"
         id="path141"
         inkscape:connector-curvature="0"
         style="fill:#1f1f1f" />
      <path
         d="M 92.69385,266.99463 H 91.542 a 0.38623,0.38623 0 0 1 0,-0.77246 h 3.15039 a 0.38628,0.38628 0 0 1 0,0.77246 h -1.1582 v 3.59037 a 0.42022,0.42022 0 0 1 -0.84033,0 z"
         id="path143"
         inkscape:connector-curvature="0"
         style="fill:#1f1f1f" />
    </g>
    <g
       id="g153">
      <path
         d="m 107.01514,266.64209 a 0.4138,0.4138 0 0 1 0.41992,-0.41992 h 1.44971 a 1.59207,1.59207 0 0 1 1.80224,1.58545 v 0.0137 c 0,1.06348 -0.85351,1.61914 -1.897,1.61914 h -0.94141 v 1.14457 a 0.41676,0.41676 0 0 1 -0.83349,0 z m 1.80224,2.04639 c 0.62989,0 1.02246,-0.35254 1.02246,-0.84717 v -0.0132 c 0,-0.55566 -0.39941,-0.84716 -1.02246,-0.84716 h -0.96875 v 1.70752 z"
         id="path147"
         inkscape:connector-curvature="0"
         style="fill:#1f1f1f" />
      <path
         d="m 111.43457,266.75732 a 0.432,0.432 0 0 1 -0.0337,-0.16259 0.41622,0.41622 0 0 1 0.42676,-0.40625 0.42443,0.42443 0 0 1 0.41308,0.30468 l 1.09082,3.25879 1.0708,-3.24511 a 0.43948,0.43948 0 0 1 0.41993,-0.332 h 0.0605 a 0.43451,0.43451 0 0 1 0.42041,0.332 l 1.07032,3.24511 1.09082,-3.26562 a 0.4247,0.4247 0 0 1 0.40673,-0.29785 0.40763,0.40763 0 0 1 0.41309,0.39941 0.47421,0.47421 0 0 1 -0.041,0.16943 l -1.40234,3.9292 a 0.4639,0.4639 0 0 1 -0.43359,0.34571 h -0.0811 a 0.44885,0.44885 0 0 1 -0.42676,-0.34571 l -1.05712,-3.0957 -1.05665,3.0957 a 0.45679,0.45679 0 0 1 -0.43359,0.34571 h -0.0815 a 0.46288,0.46288 0 0 1 -0.4336,-0.34571 z"
         id="path149"
         inkscape:connector-curvature="0"
         style="fill:#1f1f1f" />
      <path
         d="m 119.31934,266.61523 a 0.41741,0.41741 0 0 1 0.41992,-0.41992 h 0.0879 a 0.43806,0.43806 0 0 1 0.38623,0.22364 l 1.43652,2.249 1.44287,-2.25586 a 0.4183,0.4183 0 0 1 0.3794,-0.2168 h 0.0884 a 0.41773,0.41773 0 0 1 0.41992,0.41992 v 3.96979 a 0.41242,0.41242 0 0 1 -0.41992,0.41358 0.41986,0.41986 0 0 1 -0.41358,-0.41358 v -2.84521 l -1.15869,1.74121 a 0.38871,0.38871 0 0 1 -0.69726,0 l -1.15235,-1.72754 v 2.83838 a 0.40483,0.40483 0 0 1 -0.41308,0.40674 0.39909,0.39909 0 0 1 -0.40625,-0.40674 z"
         id="path151"
         inkscape:connector-curvature="0"
         style="fill:#1f1f1f" />
    </g>
    <g
       id="g161">
      <path
         d="m 47.19873,315.12891 h -1.00244 a 0.481,0.481 0 1 1 0,-0.96192 h 3.04834 a 0.481,0.481 0 0 1 0,0.96192 h -1.00244 v 3.2998 a 0.52173,0.52173 0 0 1 -1.04346,0 z"
         id="path155"
         inkscape:connector-curvature="0"
         style="fill:#f0f0f0" />
      <path
         d="m 50.63477,314.68848 a 0.51738,0.51738 0 0 1 0.52148,-0.52149 h 1.64648 a 1.89026,1.89026 0 0 1 1.38184,0.481 1.48923,1.48923 0 0 1 0.40625,1.084 v 0.0137 a 1.44769,1.44769 0 0 1 -0.94824,1.44287 l 0.7251,0.88086 a 0.60918,0.60918 0 0 1 0.16943,0.39941 0.48575,0.48575 0 0 1 -0.49463,0.48145 0.62491,0.62491 0 0 1 -0.51514,-0.271 l -1.01611,-1.2876 h -0.8335 v 1.03711 a 0.5215,0.5215 0 1 1 -1.043,0 z m 2.10009,1.78222 c 0.50782,0 0.79932,-0.27148 0.79932,-0.6709 v -0.0137 c 0,-0.44726 -0.31152,-0.67773 -0.81982,-0.67773 h -1.03663 v 1.3623 z"
         id="path157"
         inkscape:connector-curvature="0"
         style="fill:#f0f0f0" />
      <path
         d="m 55.814,314.648 a 0.5215,0.5215 0 1 1 1.043,0 v 3.78076 a 0.5215,0.5215 0 1 1 -1.043,0 z"
         id="path159"
         inkscape:connector-curvature="0"
         style="fill:#f0f0f0" />
    </g>
    <g
       id="g169">
      <path
         d="m 13.77246,318.4082 a 0.48748,0.48748 0 0 1 -0.19629,-0.39306 0.48,0.48 0 0 1 0.48779,-0.481 0.501,0.501 0 0 1 0.29786,0.0947 2.00206,2.00206 0 0 0 1.21289,0.42675 c 0.42675,0 0.68408,-0.16894 0.68408,-0.44726 v -0.0132 c 0,-0.26416 -0.1626,-0.3999 -0.95508,-0.603 -0.95508,-0.24414 -1.57178,-0.5083 -1.57178,-1.4502 v -0.0132 a 1.48345,1.48345 0 0 1 1.65967,-1.42969 2.75078,2.75078 0 0 1 1.5044,0.42041 0.48277,0.48277 0 0 1 -0.25782,0.894 0.49739,0.49739 0 0 1 -0.26416,-0.0747 1.97239,1.97239 0 0 0 -0.9956,-0.31836 c -0.3999,0 -0.60987,0.1831 -0.60987,0.41308 v 0.0137 c 0,0.31152 0.20313,0.41357 1.02295,0.62353 0.96192,0.25049 1.50391,0.59619 1.50391,1.42236 v 0.0137 c 0,0.94189 -0.71826,1.47021 -1.74121,1.47021 a 3.061,3.061 0 0 1 -1.78174,-0.56879 z"
         id="path163"
         inkscape:connector-curvature="0"
         style="fill:#f0f0f0" />
      <path
         d="m 18.46533,314.648 a 0.5215,0.5215 0 1 1 1.043,0 v 3.78076 a 0.5215,0.5215 0 1 1 -1.043,0 z"
         id="path165"
         inkscape:connector-curvature="0"
         style="fill:#f0f0f0" />
      <path
         d="m 20.91406,314.66162 a 0.5179,0.5179 0 0 1 0.522,-0.522 h 0.10839 a 0.6461,0.6461 0 0 1 0.542,0.30517 l 2.0122,2.64209 v -2.4458 a 0.5149,0.5149 0 0 1 1.02979,0 v 3.77392 a 0.51779,0.51779 0 0 1 -0.522,0.52148 h -0.0337 a 0.64677,0.64677 0 0 1 -0.542,-0.30468 l -2.08642,-2.73731 v 2.54053 a 0.51514,0.51514 0 1 1 -1.03028,0 z"
         id="path167"
         inkscape:connector-curvature="0"
         style="fill:#f0f0f0" />
    </g>
    <g
       id="g177">
      <path
         d="m 75.46289,318.4082 a 0.48748,0.48748 0 0 1 -0.19629,-0.39306 0.48,0.48 0 0 1 0.48779,-0.481 0.501,0.501 0 0 1 0.29786,0.0947 2.00206,2.00206 0 0 0 1.21289,0.42675 c 0.42675,0 0.68408,-0.16894 0.68408,-0.44726 v -0.0132 c 0,-0.26416 -0.1626,-0.3999 -0.95508,-0.603 -0.95508,-0.24414 -1.57178,-0.5083 -1.57178,-1.4502 v -0.0132 a 1.48345,1.48345 0 0 1 1.65967,-1.42969 2.75078,2.75078 0 0 1 1.5044,0.42041 0.48277,0.48277 0 0 1 -0.25782,0.894 0.49739,0.49739 0 0 1 -0.26416,-0.0747 1.97239,1.97239 0 0 0 -0.9956,-0.31836 c -0.3999,0 -0.60987,0.1831 -0.60987,0.41308 v 0.0137 c 0,0.31152 0.20313,0.41357 1.023,0.62353 0.96192,0.25049 1.50391,0.59619 1.50391,1.42236 v 0.0137 c 0,0.94189 -0.71826,1.47021 -1.74121,1.47021 a 3.061,3.061 0 0 1 -1.78179,-0.56879 z"
         id="path171"
         inkscape:connector-curvature="0"
         style="fill:#f0f0f0" />
      <path
         d="m 79.77832,318.23877 1.65332,-3.73291 a 0.64414,0.64414 0 0 1 0.60986,-0.41309 h 0.061 a 0.635,0.635 0 0 1 0.60254,0.41309 l 1.65332,3.73291 a 0.51151,0.51151 0 0 1 0.0542,0.21 0.49458,0.49458 0 0 1 -0.49463,0.50147 0.53177,0.53177 0 0 1 -0.50147,-0.35938 l -0.31836,-0.74512 h -2.08638 l -0.332,0.7793 a 0.51278,0.51278 0 0 1 -0.481,0.3252 0.48,0.48 0 0 1 -0.481,-0.4878 0.55591,0.55591 0 0 1 0.0606,-0.22367 z m 2.93359,-1.31445 -0.65722,-1.56494 -0.65723,1.56494 z"
         id="path173"
         inkscape:connector-curvature="0"
         style="fill:#f0f0f0" />
      <path
         d="m 84.8374,314.83105 a 0.67343,0.67343 0 0 1 -0.04052,-0.19628 0.51786,0.51786 0 0 1 0.53515,-0.50831 0.526,0.526 0 0 1 0.50781,0.37256 l 0.9419,2.90625 0.94873,-2.8789 a 0.549,0.549 0 0 1 0.52832,-0.41358 h 0.081 a 0.542,0.542 0 0 1 0.52881,0.41358 l 0.94824,2.8789 0.9419,-2.90625 a 0.52145,0.52145 0 0 1 0.501,-0.37256 0.50344,0.50344 0 0 1 0.51513,0.50147 0.7357,0.7357 0 0 1 -0.04052,0.20312 l -1.32813,3.72608 a 0.57767,0.57767 0 0 1 -0.542,0.42676 h -0.1084 a 0.5623,0.5623 0 0 1 -0.53516,-0.42676 l -0.93506,-2.7168 -0.93457,2.7168 a 0.56283,0.56283 0 0 1 -0.53564,0.42676 H 86.707 a 0.57855,0.57855 0 0 1 -0.542,-0.42676 z"
         id="path175"
         inkscape:connector-curvature="0"
         style="fill:#f0f0f0" />
    </g>
    <g
       id="g185">
      <path
         d="m 108.25879,318.4082 a 0.48745,0.48745 0 0 1 -0.19629,-0.39306 0.48,0.48 0 0 1 0.48779,-0.481 0.501,0.501 0 0 1 0.29785,0.0947 2.00211,2.00211 0 0 0 1.2129,0.42675 c 0.42675,0 0.68408,-0.16894 0.68408,-0.44726 v -0.0132 c 0,-0.26416 -0.1626,-0.3999 -0.95508,-0.603 -0.95508,-0.24414 -1.57178,-0.5083 -1.57178,-1.4502 v -0.0132 a 1.48345,1.48345 0 0 1 1.65967,-1.42969 2.75073,2.75073 0 0 1 1.50439,0.42041 0.48277,0.48277 0 0 1 -0.25781,0.894 0.49736,0.49736 0 0 1 -0.26416,-0.0747 1.97239,1.97239 0 0 0 -0.9956,-0.31836 c -0.39991,0 -0.60987,0.1831 -0.60987,0.41308 v 0.0137 c 0,0.31152 0.20313,0.41357 1.02295,0.62353 0.96192,0.25049 1.50391,0.59619 1.50391,1.42236 v 0.0137 c 0,0.94189 -0.71826,1.47021 -1.74121,1.47021 a 3.061,3.061 0 0 1 -1.78174,-0.56879 z"
         id="path179"
         inkscape:connector-curvature="0"
         style="fill:#f0f0f0" />
      <path
         d="m 112.63818,316.55176 v -0.0137 a 2.52142,2.52142 0 0 1 5.04053,-0.0137 v 0.0137 a 2.43341,2.43341 0 0 1 -0.41992,1.36181 l 0.20312,0.16944 a 0.51212,0.51212 0 0 1 0.18995,0.39306 0.48858,0.48858 0 0 1 -0.8335,0.35205 l -0.25732,-0.23047 a 2.5824,2.5824 0 0 1 -1.40918,0.40674 2.43,2.43 0 0 1 -2.51368,-2.43896 z m 2.46631,0.53515 a 0.49161,0.49161 0 0 1 0.4878,-0.49462 0.48136,0.48136 0 0 1 0.34521,0.14209 l 0.522,0.46777 a 1.66452,1.66452 0 0 0 0.12842,-0.65039 v -0.0137 a 1.44026,1.44026 0 0 0 -1.436,-1.49024 1.41823,1.41823 0 0 0 -1.42286,1.47656 v 0.0137 a 1.44108,1.44108 0 0 0 1.43653,1.49072 1.41991,1.41991 0 0 0 0.623,-0.12891 L 115.294,317.48 a 0.5125,0.5125 0 0 1 -0.18951,-0.39309 z"
         id="path181"
         inkscape:connector-curvature="0"
         style="fill:#f0f0f0" />
      <path
         d="m 118.88281,314.68848 a 0.51738,0.51738 0 0 1 0.52149,-0.52149 h 1.64648 a 1.89027,1.89027 0 0 1 1.38184,0.481 1.48923,1.48923 0 0 1 0.40625,1.084 v 0.0137 a 1.44768,1.44768 0 0 1 -0.94825,1.44287 l 0.7251,0.88086 a 0.60914,0.60914 0 0 1 0.16944,0.39941 0.48575,0.48575 0 0 1 -0.49463,0.48145 0.6249,0.6249 0 0 1 -0.51514,-0.271 l -1.01611,-1.2876 h -0.8335 v 1.03711 a 0.5215,0.5215 0 1 1 -1.043,0 z m 2.1001,1.78222 c 0.50781,0 0.79932,-0.27148 0.79932,-0.6709 v -0.0137 c 0,-0.44726 -0.31153,-0.67773 -0.81983,-0.67773 h -1.03662 v 1.3623 z"
         id="path183"
         inkscape:connector-curvature="0"
         style="fill:#f0f0f0" />
    </g>
  </g>
  <g
     id="ae0ee103-b1f0-4949-9eac-01638be84b5c"
     data-name="components"
     style="display:none"
     inkscape:groupmode="layer">
    <circle
       id="f43e7936-fd67-493a-8b40-0effab15447a"
       data-name="Freq#SmallLight"
       cx="91.787582"
       cy="48.5079"
       r="3"
       style="fill:#ff00ff" />
    <circle
       id="f115b0dd-8835-49ac-9020-c228b52cba23"
       data-name="Pw#RoundLargeBlackKnob"
       cx="67.501961"
       cy="166.5"
       r="5"
       style="fill:#ff0000" />
    <circle
       id="a04b75b6-695a-4aad-b41f-ae73bc4d0d21"
       data-name="Ofst#LEDButton"
       cx="83.499977"
       cy="238"
       r="5"
       style="fill:#ff0000" />
    <circle
       id="f7af0de1-5d70-4603-9843-af89eb86a272"
       data-name="Inv#LEDButton"
       cx="51.499981"
       cy="238"
       r="5"
       style="fill:#ff0000" />
    <circle
       id="f2bc4c4b-3a85-4929-8a17-145d704df128"
       data-name="Reset#PJ301MPort"
       cx="83.499977"
       cy="285.884"
       r="5"
       style="fill:#00ff00" />
    <circle
       id="b90b4f23-3d0d-4cd2-9c1e-4ad5b3f04467"
       data-name="Tri#PJ301MPort"
       cx="51.499981"
       cy="334"
       r="5"
       style="fill:#0000ff" />
    <circle
       id="f0f65b9e-5a96-4267-b7e8-ed62c7c0891c"
       data-name="Sin#PJ301MPort"
       cx="19.500019"
       cy="334"
       r="5"
       style="fill:#0000ff" />
    <circle
       id="efbd12f5-8003-4c0a-990f-4be4c148d2b0"
       data-name="Saw#PJ301MPort"
       cx="83.499977"
       cy="334"
       r="5"
       style="fill:#0000ff" />
    <circle
       id="edd18437-f83d-434e-ae8c-ceae78eb2a2a"
       data-name="Fm#PJ301MPort"
       cx="19.500019"
       cy="286"
       r="5"
       style="fill:#00ff00" />
    <circle
       id="e292f96c-5cc8-4dd5-bb9e-051a2bf0faf5"
       data-name="Clk#PJ301MPort"
       cx="51.499981"
       cy="286"
       r="5"
       style="fill:#00ff00" />
    <circle
       id="addb25a6-0c33-4ca4-807e-e92d338f3950"
       data-name="Pwm#PJ301MPort"
       cx="115.49998"
       cy="285.884"
       r="5"
       style="fill:#00ff00" />
    <circle
       id="aafe22f9-7f91-4d7e-b2a4-2729eb49d1f8"
       data-name="Sqr#PJ301MPort"
       cx="115.49998"
       cy="334"
       r="5"
       style="fill:#0000ff" />
    <circle
       id="f28159a6-9949-4d78-800a-9b00c13be14e"
       data-name="FmCv#Trimpot"
       cx="19.500019"
       cy="238"
       r="5"
       style="fill:#ff0000" />
    <circle
       id="e288f336-825a-417a-95b5-0d51a68db598"
       data-name="PwmCv#Trimpot"
       cx="115.49998"
       cy="238"
       r="5"
       style="fill:#ff0000" />
    <circle
       id="baf16a2c-aa24-4899-9bfb-01167c9fe394"
       data-name="Freq#RoundHugeBlackKnob"
       cx="67.623772"
       cy="88"
       r="5"
       style="fill:#ff0000" />
  </g>
</svg>
