<?xml version="1.0" encoding="UTF-8" standalone="no"?>
<svg
   xmlns:dc="http://purl.org/dc/elements/1.1/"
   xmlns:cc="http://creativecommons.org/ns#"
   xmlns:rdf="http://www.w3.org/1999/02/22-rdf-syntax-ns#"
   xmlns:svg="http://www.w3.org/2000/svg"
   xmlns="http://www.w3.org/2000/svg"
   xmlns:sodipodi="http://sodipodi.sourceforge.net/DTD/sodipodi-0.dtd"
   xmlns:inkscape="http://www.inkscape.org/namespaces/inkscape"
   width="135"
   height="380"
   viewBox="0 0 135 380"
   version="1.1"
   id="svg204"
   sodipodi:docname="LFO.svg"
   inkscape:version="0.92.3 (2405546, 2018-03-11)">
  <metadata
     id="metadata208">
    <rdf:RDF>
      <cc:Work
         rdf:about="">
        <dc:format>image/svg+xml</dc:format>
        <dc:type
           rdf:resource="http://purl.org/dc/dcmitype/StillImage" />
      </cc:Work>
    </rdf:RDF>
  </metadata>
  <sodipodi:namedview
     pagecolor="#ffffff"
     bordercolor="#666666"
     borderopacity="1"
     objecttolerance="10"
     gridtolerance="10"
     guidetolerance="10"
     inkscape:pageopacity="0"
     inkscape:pageshadow="2"
     inkscape:window-width="893"
     inkscape:window-height="793"
     id="namedview206"
     showgrid="false"
     inkscape:zoom="0.62105263"
     inkscape:cx="67.5"
     inkscape:cy="190"
     inkscape:window-x="0"
     inkscape:window-y="0"
     inkscape:window-maximized="0"
     inkscape:current-layer="svg204" />
  <defs
     id="defs7">
    <linearGradient
       id="baa64315-4931-498e-af67-d6da8ab80390"
       x1="67.5"
       x2="67.5"
       y2="380"
       gradientUnits="userSpaceOnUse">
      <stop
         offset="0"
         stop-color="#ebebeb"
         id="stop2" />
      <stop
         offset="1"
         stop-color="#e1e1e1"
         id="stop4" />
    </linearGradient>
  </defs>
  <g
     id="e9b38bee-4663-48ee-9fc0-f9212f6e8629"
     data-name="FND BG">
    <rect
       width="135"
       height="380"
       fill="url(#baa64315-4931-498e-af67-d6da8ab80390)"
       id="rect9" />
  </g>
  <g
     id="f1f1ce8a-1ec9-4912-89c6-d8358427d7f0"
     data-name="FND GRAPH">
    <rect
       x="5.18979"
       y="309.0301"
       width="124.62598"
       height="39.15691"
       rx="2.83465"
       fill="#1f1f1f"
       id="rect12" />
    <g
       id="g22">
      <path
         d="M59.35927,359.753a.91214.91214,0,0,1-.8158-.50418l-2.96428-5.92857a.91209.91209,0,0,1,1.6316-.8158l2.14848,4.297,2.14848-4.297a.91209.91209,0,0,1,1.6316.8158l-2.96428,5.92857A.91211.91211,0,0,1,59.35927,359.753Z"
         fill="#1f1f1f"
         id="path14" />
      <path
         d="M75.64073,359.753a.91211.91211,0,0,1-.8158-.50418l-2.96428-5.92857a.91209.91209,0,0,1,1.6316-.8158l2.14848,4.297,2.14848-4.297a.91209.91209,0,0,1,1.6316.8158l-2.96428,5.92857A.91214.91214,0,0,1,75.64073,359.753Z"
         fill="#1f1f1f"
         id="path16" />
      <path
         d="M67.94242,359.753a3.87637,3.87637,0,1,1,2.32653-6.97719.91209.91209,0,1,1-1.09557,1.45854,2.034,2.034,0,0,0-1.231-.40991,2.0522,2.0522,0,1,0,0,4.10439,2.034,2.034,0,0,0,1.231-.40991.91209.91209,0,1,1,1.09557,1.45854A3.8448,3.8448,0,0,1,67.94242,359.753Z"
         fill="#1f1f1f"
         id="path18" />
      <circle
         cx="68.00165"
         cy="355.83101"
         r="1.18571"
         fill="#1f1f1f"
         id="circle20" />
    </g>
    <line
       x1="115.49998"
       y1="289.73853"
       x2="115.49998"
       y2="309.87506"
       fill="none"
       stroke="#1f1f1f"
       stroke-linecap="round"
       stroke-linejoin="round"
       stroke-width="0.8"
       id="line24" />
    <line
       x1="14.99448"
       y1="202"
       x2="119.99448"
       y2="202"
       fill="none"
       stroke="#1f1f1f"
       stroke-linecap="round"
       stroke-linejoin="round"
       stroke-width="0.8"
       id="line26" />
    <g
       id="g36">
      <circle
         cx="67.50196"
         cy="166.5"
         r="26.48818"
         fill="none"
         opacity="0.69"
         style="isolation: isolate"
         id="circle28" />
      <path
         d="M78.30018,184.60266a20.94666,20.94666,0,1,0-21.451.07488"
         fill="none"
         stroke="#1f1f1f"
         stroke-linecap="round"
         stroke-miterlimit="10"
         stroke-width="0.8"
         id="path30" />
      <line
         x1="78.30018"
         y1="184.60266"
         x2="67.50196"
         y2="166.5"
         fill="none"
         id="line32" />
      <line
         x1="67.51185"
         y1="145.70121"
         x2="67.51185"
         y2="159.12279"
         fill="none"
         stroke="#1f1f1f"
         stroke-linecap="round"
         stroke-miterlimit="10"
         stroke-width="0.8"
         id="line34" />
    </g>
    <g
       id="g44">
      <circle
         cx="67.62377"
         cy="88"
         r="38.44564"
         fill="none"
         opacity="0.69"
         style="isolation: isolate"
         id="circle38" />
      <path
         d="M83.2966,114.27467a30.40252,30.40252,0,1,0-31.13461.10869"
         fill="none"
         stroke="#1f1f1f"
         stroke-linecap="round"
         stroke-miterlimit="10"
         stroke-width="0.8"
         id="path40" />
      <line
         x1="83.2966"
         y1="114.27467"
         x2="67.62377"
         y2="88"
         fill="none"
         id="line42" />
    </g>
    <g
       id="g52">
      <line
         x1="19.50002"
         y1="250.87459"
         x2="19.50002"
         y2="260.07654"
         fill="none"
         stroke="#1f1f1f"
         stroke-linecap="round"
         stroke-linejoin="round"
         stroke-width="0.8"
         id="line46" />
      <line
         x1="19.50002"
         y1="226.54018"
         x2="19.50002"
         y2="238.01957"
         fill="none"
         stroke="#1f1f1f"
         stroke-linecap="round"
         stroke-linejoin="round"
         id="line48" />
      <path
         d="M11.34656,246.15346a11.53074,11.53074,0,1,1,16.30693,0"
         fill="none"
         stroke="#1f1f1f"
         stroke-linecap="round"
         stroke-linejoin="round"
         id="path50" />
    </g>
    <g
       id="g60">
      <line
         x1="115.49998"
         y1="250.87459"
         x2="115.49998"
         y2="260.07654"
         fill="none"
         stroke="#1f1f1f"
         stroke-linecap="round"
         stroke-linejoin="round"
         stroke-width="0.8"
         id="line54" />
      <line
         x1="115.49998"
         y1="226.54018"
         x2="115.49998"
         y2="238.01957"
         fill="none"
         stroke="#1f1f1f"
         stroke-linecap="round"
         stroke-linejoin="round"
         id="line56" />
      <path
         d="M107.34651,246.15346a11.53074,11.53074,0,1,1,16.30693,0"
         fill="none"
         stroke="#1f1f1f"
         stroke-linecap="round"
         stroke-linejoin="round"
         id="path58" />
    </g>
  </g>
  <g
     id="b0fb59b7-79e5-4953-8b1a-b1abfd5461a5"
     data-name="FND TXT">
    <g
       id="g71">
      <path
         d="M74.19092,219.69727v-.01319a2.48,2.48,0,0,1,4.95947-.01367v.01367a2.48,2.48,0,0,1-4.95947.01319Zm4.08545,0v-.01319a1.625,1.625,0,0,0-1.61231-1.687,1.60239,1.60239,0,0,0-1.59912,1.67334v.01367a1.61889,1.61889,0,0,0,1.61231,1.68018A1.59673,1.59673,0,0,0,78.27637,219.69727Z"
         fill="#1f1f1f"
         id="path63" />
      <path
         d="M80.36768,217.73291a.41392.41392,0,0,1,.41992-.42041h2.76416a.3794.3794,0,0,1,0,.75879H81.20117v1.29394h2.0459a.3794.3794,0,0,1,0,.75879h-2.0459v1.55176a.41676.41676,0,0,1-.83349,0Z"
         fill="#1f1f1f"
         id="path65" />
      <path
         d="M84.79785,221.52686a.39447.39447,0,0,1,.47412-.63038,2.05764,2.05764,0,0,0,1.32764.48829c.51514,0,.84033-.24415.84033-.59668v-.01368c0-.33837-.18994-.52148-1.0708-.72461-1.00928-.24414-1.57812-.542-1.57812-1.416v-.01367a1.45042,1.45042,0,0,1,1.61914-1.375,2.60787,2.60787,0,0,1,1.5039.44043.37512.37512,0,0,1,.18262.332.38682.38682,0,0,1-.39258.38574.40343.40343,0,0,1-.2168-.06055,1.97271,1.97271,0,0,0-1.09082-.35937c-.48779,0-.77246.251-.77246.5625v.01367c0,.36572.2168.52832,1.13184.74512,1.00244.24365,1.51758.60254,1.51758,1.38867v.01367c0,.8877-.69824,1.416-1.69434,1.416A2.95,2.95,0,0,1,84.79785,221.52686Z"
         fill="#1f1f1f"
         id="path67" />
      <path
         d="M90.59033,218.085H89.43848a.38623.38623,0,1,1,0-.77246h3.15039a.38629.38629,0,0,1,0,.77246H91.43018v3.59082a.42.42,0,0,1-.83985,0Z"
         fill="#1f1f1f"
         id="path69" />
    </g>
    <g
       id="g79">
      <path
         d="M45.75,217.69238a.41652.41652,0,0,1,.833,0v3.98389a.41652.41652,0,0,1-.833,0Z"
         fill="#1f1f1f"
         id="path73" />
      <path
         d="M48.05957,217.70605a.41742.41742,0,0,1,.41992-.41992h.08789a.52453.52453,0,0,1,.4336.24414l2.37109,3.06885v-2.91357a.41017.41017,0,0,1,.82031,0v3.98388a.40524.40524,0,0,1-.40674.41358H51.752a.52355.52355,0,0,1-.43359-.251l-2.43945-3.15723v3.00831a.40968.40968,0,0,1-.81934,0Z"
         fill="#1f1f1f"
         id="path75" />
      <path
         d="M54.92334,221.78467l-1.65967-3.90235a.46407.46407,0,0,1-.04785-.19677.41094.41094,0,0,1,.41992-.40625.43691.43691,0,0,1,.42725.29785l1.36865,3.42187,1.38867-3.44873a.42937.42937,0,0,1,.39942-.271.40385.40385,0,0,1,.41357.3999.48906.48906,0,0,1-.04053.17627l-1.667,3.9292a.49607.49607,0,0,1-.481.33887h-.04736A.49374.49374,0,0,1,54.92334,221.78467Z"
         fill="#1f1f1f"
         id="path77" />
    </g>
    <g
       id="g89">
      <path
         d="M56.1084,45.78613a.50962.50962,0,0,1,.51758-.51758h3.40527a.46729.46729,0,1,1,0,.93457h-2.896v1.59424h2.521a.46753.46753,0,0,1,0,.93506h-2.521v1.91113a.51344.51344,0,0,1-1.02685,0Z"
         fill="#1f1f1f"
         id="path81" />
      <path
         d="M61.68066,45.78613a.50921.50921,0,0,1,.51709-.51758h2.08643a2.35549,2.35549,0,0,1,1.68652.584,1.76679,1.76679,0,0,1,.48389,1.26025v.01709A1.72894,1.72894,0,0,1,65.12744,48.874l1.11865,1.41065a.59658.59658,0,0,1,.167.39209.4843.4843,0,0,1-.49268.47607.58664.58664,0,0,1-.50049-.26709L64.001,49.07422H62.707v1.56933a.5132.5132,0,0,1-1.02637,0Zm2.52881,2.37842c.73438,0,1.20166-.38379,1.20166-.97656v-.0166c0-.626-.45019-.96827-1.21-.96827H62.707v1.96143Z"
         fill="#1f1f1f"
         id="path83" />
      <path
         d="M67.93213,50.59375V45.78613a.50933.50933,0,0,1,.51758-.51758h3.397a.46321.46321,0,0,1,.459.459.45781.45781,0,0,1-.459.459H68.959v1.51905H71.4707a.46476.46476,0,0,1,.45948.46728.45591.45591,0,0,1-.45948.45069H68.959v1.56933h2.92969a.46321.46321,0,0,1,.459.459.45782.45782,0,0,1-.459.459h-3.439A.50921.50921,0,0,1,67.93213,50.59375Z"
         fill="#1f1f1f"
         id="path85" />
      <path
         d="M73.28906,48.20605v-.0166a3.05524,3.05524,0,0,1,6.10987-.0166v.0166a3.02856,3.02856,0,0,1-.59229,1.79493l.375.30859a.50221.50221,0,0,1,.19238.40039.49.49,0,0,1-.84277.34277l-.418-.376a3.03584,3.03584,0,0,1-1.77734.55078A2.96579,2.96579,0,0,1,73.28906,48.20605Zm3.15528.76807a.49133.49133,0,0,1,.48437-.49219.498.498,0,0,1,.3584.14991l.75146.68457a2.19582,2.19582,0,0,0,.2837-1.11036v-.0166a2.0018,2.0018,0,0,0-1.98633-2.07812,1.97419,1.97419,0,0,0-1.96973,2.06152v.0166a1.999,1.999,0,0,0,2.99609,1.80323l-.72607-.61768A.50423.50423,0,0,1,76.44434,48.97412Z"
         fill="#1f1f1f"
         id="path87" />
    </g>
    <g
       id="g111">
      <path
         d="M37.40332,133.29443a.50991.50991,0,0,1,.51758-.51757H39.707A1.96115,1.96115,0,0,1,41.92725,134.73v.01709c0,1.31006-1.05176,1.99463-2.33692,1.99463H38.43018v1.41064a.51345.51345,0,0,1-1.02686,0Zm2.22022,2.521c.77636,0,1.26074-.43408,1.26074-1.04346v-.0166c0-.68457-.49268-1.04346-1.26074-1.04346H38.43018v2.10352Z"
         fill="#1f1f1f"
         id="path91" />
      <path
         d="M43.04541,136.14062v-2.896a.51345.51345,0,0,1,1.02686,0v2.85449c0,1.085.55908,1.66065,1.47753,1.66065.90967,0,1.46875-.54248,1.46875-1.61915v-2.896a.51345.51345,0,0,1,1.02686,0v2.84619a2.33338,2.33338,0,0,1-2.5127,2.62061A2.30333,2.30333,0,0,1,43.04541,136.14062Z"
         fill="#1f1f1f"
         id="path93" />
      <path
         d="M49.70654,133.24463a.51345.51345,0,0,1,1.02686,0v4.43994h2.646a.46753.46753,0,0,1,0,.93506H50.22412a.50992.50992,0,0,1-.51758-.51758Z"
         fill="#1f1f1f"
         id="path95" />
      <path
         d="M54.97412,137.96875a.47879.47879,0,0,1,.28369-.86816.47289.47289,0,0,1,.3003.09179,2.53592,2.53592,0,0,0,1.63623.60108c.63427,0,1.03466-.30078,1.03466-.73487v-.0166c0-.417-.23339-.64258-1.31836-.89306-1.24365-.3003-1.94482-.66748-1.94482-1.74414v-.01709a1.78689,1.78689,0,0,1,1.99463-1.69434,3.2153,3.2153,0,0,1,1.853.543.46278.46278,0,0,1,.22509.40869.47706.47706,0,0,1-.48388.47559.4988.4988,0,0,1-.26709-.07471,2.42724,2.42724,0,0,0-1.34375-.44238c-.60108,0-.95166.30859-.95166.69238v.01709c0,.45068.26709.65088,1.394.918,1.23535.30029,1.86963.74267,1.86963,1.71093v.01661c0,1.09375-.85986,1.74462-2.08691,1.74462A3.63833,3.63833,0,0,1,54.97412,137.96875Z"
         fill="#1f1f1f"
         id="path97" />
      <path
         d="M60.6792,138.10205v-4.80762a.50991.50991,0,0,1,.51758-.51757h3.397a.46372.46372,0,0,1,.45947.45947.45823.45823,0,0,1-.45947.459h-2.8877v1.519h2.51221a.46467.46467,0,0,1,.459.46728.45579.45579,0,0,1-.459.45068H61.70605v1.56934h2.92969a.46289.46289,0,0,1,.459.459.45752.45752,0,0,1-.459.459h-3.439A.50992.50992,0,0,1,60.6792,138.10205Z"
         fill="#1f1f1f"
         id="path99" />
      <path
         d="M68.41992,133.43652a.54138.54138,0,0,1-.0415-.20019.51328.51328,0,0,1,.52588-.501.52375.52375,0,0,1,.50927.37549l1.34375,4.01465,1.31836-3.99805a.54182.54182,0,0,1,.51758-.40869h.0752a.53461.53461,0,0,1,.51758.40869l1.31884,3.99805,1.34375-4.023a.52379.52379,0,0,1,.50049-.36719.50207.50207,0,0,1,.50928.49219.59306.59306,0,0,1-.04981.209l-1.728,4.84082a.57208.57208,0,0,1-.53418.42578h-.1001a.55308.55308,0,0,1-.52588-.42578l-1.30176-3.81445-1.30224,3.81445a.56224.56224,0,0,1-.53418.42578h-.1001a.56959.56959,0,0,1-.53418-.42578Z"
         fill="#1f1f1f"
         id="path101" />
      <path
         d="M78.0918,133.24463a.51344.51344,0,0,1,1.02685,0v4.90771a.51345.51345,0,0,1-1.02685,0Z"
         fill="#1f1f1f"
         id="path103" />
      <path
         d="M80.86963,133.29443a.50991.50991,0,0,1,.51758-.51757h1.66113a2.91237,2.91237,0,0,1,3.105,2.90478v.0166a2.92487,2.92487,0,0,1-3.105,2.92139H81.38721a.50991.50991,0,0,1-.51758-.51758Zm2.17871,4.39014a1.90419,1.90419,0,0,0,2.02832-1.96973v-.0166a1.91709,1.91709,0,0,0-2.02832-1.98633H81.89648v3.97266Z"
         fill="#1f1f1f"
         id="path105" />
      <path
         d="M88.666,133.72852h-1.419a.47583.47583,0,1,1,0-.95166h3.88086a.47591.47591,0,0,1,0,.95166H89.70068v4.42382a.5174.5174,0,0,1-1.03466,0Z"
         fill="#1f1f1f"
         id="path107" />
      <path
         d="M92.75732,133.24463a.51345.51345,0,0,1,1.02686,0v1.96142h2.7876v-1.96142a.51344.51344,0,0,1,1.02685,0v4.90771a.51345.51345,0,0,1-1.02685,0v-1.99511h-2.7876v1.99511a.51345.51345,0,0,1-1.02686,0Z"
         fill="#1f1f1f"
         id="path109" />
    </g>
    <g
       id="g119">
      <path
         d="M55.35059,20.4165a.96338.96338,0,1,1,1.92675,0v6.11866h3.56641a.87573.87573,0,1,1,0,1.75146H56.314a.95607.95607,0,0,1-.96337-.96338Z"
         fill="#1f1f1f"
         id="path113" />
      <path
         d="M63.06445,20.49121a.95607.95607,0,0,1,.96387-.96289h4.9043a.87574.87574,0,1,1,0,1.75147H64.99121V23.144h3.37891a.87574.87574,0,0,1,0,1.75147H64.99121v2.50293a.96338.96338,0,1,1-1.92676,0Z"
         fill="#1f1f1f"
         id="path115" />
      <path
         d="M70.72266,23.93262v-.02539a4.6564,4.6564,0,0,1,9.30859-.02491v.02491a4.65641,4.65641,0,0,1-9.30859.02539Zm7.29492,0v-.02539a2.6612,2.6612,0,0,0-2.65332-2.75244,2.61924,2.61924,0,0,0-2.627,2.72753v.02491a2.66083,2.66083,0,0,0,2.65235,2.75293A2.61973,2.61973,0,0,0,78.01758,23.93262Z"
         fill="#1f1f1f"
         id="path117" />
    </g>
    <g
       id="g125">
      <path
         d="M14.876,266.64209a.4135.4135,0,0,1,.41992-.41992h2.76367a.3794.3794,0,1,1,0,.75879H15.709v1.29394h2.0459a.3794.3794,0,1,1,0,.75879H15.709V270.585a.41651.41651,0,0,1-.833,0Z"
         fill="#1f1f1f"
         id="path121" />
      <path
         d="M19.458,266.61523a.41772.41772,0,0,1,.41992-.41992h.08838a.43806.43806,0,0,1,.38623.22364l1.43652,2.249,1.44239-2.25586a.419.419,0,0,1,.37988-.2168h.08789a.41742.41742,0,0,1,.41992.41992V270.585a.41212.41212,0,0,1-.41992.41358.41944.41944,0,0,1-.41309-.41358v-2.84521L22.12744,269.481a.3891.3891,0,0,1-.69775,0l-1.15186-1.72754v2.83838a.40524.40524,0,0,1-.41357.40674.39939.39939,0,0,1-.40625-.40674Z"
         fill="#1f1f1f"
         id="path123" />
    </g>
    <g
       id="g133">
      <path
         d="M44.70215,268.60693v-.01367a2.40028,2.40028,0,0,1,2.44629-2.45264,2.48837,2.48837,0,0,1,1.626.53516.41781.41781,0,0,1,.16211.332.41622.41622,0,0,1-.66357.3252,1.72322,1.72322,0,0,0-1.13135-.42676,1.59634,1.59634,0,0,0-1.56543,1.67383v.01318a1.598,1.598,0,0,0,1.56543,1.68018,1.69973,1.69973,0,0,0,1.18555-.4541.3803.3803,0,0,1,.25049-.09473.38922.38922,0,0,1,.25732.68457,2.42437,2.42437,0,0,1-1.7207.63672A2.38545,2.38545,0,0,1,44.70215,268.60693Z"
         fill="#1f1f1f"
         id="path127" />
      <path
         d="M50.11963,266.60156a.41676.41676,0,0,1,.83349,0v3.60449h2.14747a.3794.3794,0,0,1,0,.75879h-2.561a.41391.41391,0,0,1-.41992-.42041Z"
         fill="#1f1f1f"
         id="path129" />
      <path
         d="M54.47266,266.60156a.41676.41676,0,0,1,.83349,0v2.00537l2.24951-2.26269a.43618.43618,0,0,1,.34522-.15576.38128.38128,0,0,1,.38623.38574.40525.40525,0,0,1-.14941.312l-1.47657,1.42236,1.59864,1.98536a.45051.45051,0,0,1,.11523.29785.40651.40651,0,0,1-.41992.40674.42277.42277,0,0,1-.35254-.19678l-1.52442-1.94434-.772.74512v.98242a.41676.41676,0,0,1-.83349,0Z"
         fill="#1f1f1f"
         id="path131" />
    </g>
    <g
       id="g145">
      <path
         d="M72.29736,266.64209a.41381.41381,0,0,1,.41993-.41992h1.69384a1.91051,1.91051,0,0,1,1.36817.47412,1.43345,1.43345,0,0,1,.39306,1.02344v.01318a1.40335,1.40335,0,0,1-1.07715,1.416l.90772,1.145a.48168.48168,0,0,1,.13574.31835.39289.39289,0,0,1-.3999.38624.4767.4767,0,0,1-.40625-.2168l-1.15186-1.47022h-1.0498V270.585a.41676.41676,0,0,1-.8335,0Zm2.05274,1.93115c.59619,0,.97558-.31152.97558-.793v-.01367c0-.50781-.36572-.78564-.98242-.78564h-1.2124v1.59228Z"
         fill="#1f1f1f"
         id="path135" />
      <path
         d="M77.42969,270.54443v-3.90234a.4138.4138,0,0,1,.41992-.41992h2.75781a.376.376,0,0,1,.37256.37256.37155.37155,0,0,1-.37256.37256H78.26318v1.23291h2.03907a.37755.37755,0,0,1,.37255.37988.36982.36982,0,0,1-.37255.36572H78.26318v1.27344h2.37793a.376.376,0,0,1,.37256.37256.372.372,0,0,1-.37256.373h-2.7915A.41391.41391,0,0,1,77.42969,270.54443Z"
         fill="#1f1f1f"
         id="path137" />
      <path
         d="M82.044,270.436a.39113.39113,0,0,1-.16211-.31836.40311.40311,0,0,1,.63671-.31153,2.0562,2.0562,0,0,0,1.32764.4878c.51514,0,.84033-.24415.84033-.5962v-.01367c0-.33838-.18994-.52148-1.07031-.7251-1.00976-.24365-1.5791-.542-1.5791-1.416v-.01318a1.45092,1.45092,0,0,1,1.61963-1.37549,2.61149,2.61149,0,0,1,1.5039.44043.37668.37668,0,0,1,.18311.332.38766.38766,0,0,1-.39307.38623.40379.40379,0,0,1-.21679-.061,1.97154,1.97154,0,0,0-1.09082-.35937c-.4878,0-.77246.251-.77246.5625v.01367c0,.36572.21679.52832,1.13134.74512,1.00293.24414,1.51758.603,1.51758,1.38867v.01367c0,.8877-.69775,1.416-1.69336,1.416A2.95385,2.95385,0,0,1,82.044,270.436Z"
         fill="#1f1f1f"
         id="path139" />
      <path
         d="M86.73047,270.54443v-3.90234a.4138.4138,0,0,1,.41992-.41992H89.9082a.376.376,0,0,1,.37256.37256.37155.37155,0,0,1-.37256.37256H87.564v1.23291H89.603a.37756.37756,0,0,1,.37256.37988.36983.36983,0,0,1-.37256.36572H87.564v1.27344h2.37793a.376.376,0,0,1,.37256.37256.372.372,0,0,1-.37256.373h-2.7915A.41391.41391,0,0,1,86.73047,270.54443Z"
         fill="#1f1f1f"
         id="path141" />
      <path
         d="M92.69385,266.99463H91.542a.38623.38623,0,0,1,0-.77246h3.15039a.38628.38628,0,0,1,0,.77246h-1.1582V270.585a.42022.42022,0,0,1-.84033,0Z"
         fill="#1f1f1f"
         id="path143" />
    </g>
    <g
       id="g153">
      <path
         d="M107.01514,266.64209a.4138.4138,0,0,1,.41992-.41992h1.44971a1.59207,1.59207,0,0,1,1.80224,1.58545v.01367c0,1.06348-.85351,1.61914-1.897,1.61914h-.94141V270.585a.41676.41676,0,0,1-.83349,0Zm1.80224,2.04639c.62989,0,1.02246-.35254,1.02246-.84717v-.01319c0-.55566-.39941-.84716-1.02246-.84716h-.96875v1.70752Z"
         fill="#1f1f1f"
         id="path147" />
      <path
         d="M111.43457,266.75732a.432.432,0,0,1-.03369-.16259.41622.41622,0,0,1,.42676-.40625.42443.42443,0,0,1,.41308.30468l1.09082,3.25879,1.0708-3.24511a.43948.43948,0,0,1,.41993-.332h.06054a.43451.43451,0,0,1,.42041.332l1.07032,3.24511,1.09082-3.26562a.4247.4247,0,0,1,.40673-.29785.40763.40763,0,0,1,.41309.39941.47421.47421,0,0,1-.041.16943l-1.40234,3.9292a.4639.4639,0,0,1-.43359.34571h-.08106a.44885.44885,0,0,1-.42676-.34571l-1.05712-3.0957-1.05665,3.0957a.45679.45679,0,0,1-.43359.34571h-.08154a.46288.46288,0,0,1-.4336-.34571Z"
         fill="#1f1f1f"
         id="path149" />
      <path
         d="M119.31934,266.61523a.41741.41741,0,0,1,.41992-.41992h.08789a.43806.43806,0,0,1,.38623.22364l1.43652,2.249,1.44287-2.25586a.4183.4183,0,0,1,.3794-.2168h.08838a.41773.41773,0,0,1,.41992.41992V270.585a.41242.41242,0,0,1-.41992.41358.41986.41986,0,0,1-.41358-.41358v-2.84521l-1.15869,1.74121a.38871.38871,0,0,1-.69726,0l-1.15235-1.72754v2.83838a.40483.40483,0,0,1-.41308.40674.39909.39909,0,0,1-.40625-.40674Z"
         fill="#1f1f1f"
         id="path151" />
    </g>
    <g
       id="g161">
      <path
         d="M47.19873,315.12891H46.19629a.481.481,0,1,1,0-.96192h3.04834a.481.481,0,0,1,0,.96192H48.24219v3.2998a.52173.52173,0,0,1-1.04346,0Z"
         fill="#f0f0f0"
         id="path155" />
      <path
         d="M50.63477,314.68848a.51738.51738,0,0,1,.52148-.52149h1.64648a1.89026,1.89026,0,0,1,1.38184.481,1.48923,1.48923,0,0,1,.40625,1.084v.01368a1.44769,1.44769,0,0,1-.94824,1.44287l.7251.88086a.60918.60918,0,0,1,.16943.39941.48575.48575,0,0,1-.49463.48145.62491.62491,0,0,1-.51514-.271l-1.01611-1.2876h-.8335v1.03711a.52148.52148,0,1,1-1.043,0Zm2.10009,1.78222c.50782,0,.79932-.27148.79932-.6709v-.01367c0-.44726-.31152-.67773-.81982-.67773H51.67773v1.3623Z"
         fill="#f0f0f0"
         id="path157" />
      <path
         d="M55.814,314.648a.52149.52149,0,1,1,1.043,0v3.78076a.52149.52149,0,1,1-1.043,0Z"
         fill="#f0f0f0"
         id="path159" />
    </g>
    <g
       id="g169">
      <path
         d="M13.77246,318.4082a.48748.48748,0,0,1-.19629-.39306.48.48,0,0,1,.48779-.481.501.501,0,0,1,.29786.09473,2.00206,2.00206,0,0,0,1.21289.42675c.42675,0,.68408-.16894.68408-.44726v-.01319c0-.26416-.1626-.3999-.95508-.603-.95508-.24414-1.57178-.5083-1.57178-1.4502v-.01318a1.48345,1.48345,0,0,1,1.65967-1.42969,2.75078,2.75078,0,0,1,1.5044.42041.48277.48277,0,0,1-.25782.894.49739.49739,0,0,1-.26416-.0747,1.97239,1.97239,0,0,0-.9956-.31836c-.3999,0-.60987.1831-.60987.41308v.01368c0,.31152.20313.41357,1.02295.62353.96192.25049,1.50391.59619,1.50391,1.42236v.01368c0,.94189-.71826,1.47021-1.74121,1.47021A3.061,3.061,0,0,1,13.77246,318.4082Z"
         fill="#f0f0f0"
         id="path163" />
      <path
         d="M18.46533,314.648a.52149.52149,0,1,1,1.043,0v3.78076a.52149.52149,0,1,1-1.043,0Z"
         fill="#f0f0f0"
         id="path165" />
      <path
         d="M20.91406,314.66162a.5179.5179,0,0,1,.522-.522h.10839a.6461.6461,0,0,1,.542.30517l2.0122,2.64209v-2.4458a.5149.5149,0,0,1,1.02979,0V318.415a.51779.51779,0,0,1-.522.52148h-.0337a.64677.64677,0,0,1-.542-.30468l-2.08642-2.73731v2.54053a.51514.51514,0,1,1-1.03028,0Z"
         fill="#f0f0f0"
         id="path167" />
    </g>
    <g
       id="g177">
      <path
         d="M75.46289,318.4082a.48748.48748,0,0,1-.19629-.39306.48.48,0,0,1,.48779-.481.501.501,0,0,1,.29786.09473,2.00206,2.00206,0,0,0,1.21289.42675c.42675,0,.68408-.16894.68408-.44726v-.01319c0-.26416-.1626-.3999-.95508-.603-.95508-.24414-1.57178-.5083-1.57178-1.4502v-.01318a1.48345,1.48345,0,0,1,1.65967-1.42969,2.75078,2.75078,0,0,1,1.5044.42041.48277.48277,0,0,1-.25782.894.49739.49739,0,0,1-.26416-.0747,1.97239,1.97239,0,0,0-.9956-.31836c-.3999,0-.60987.1831-.60987.41308v.01368c0,.31152.20313.41357,1.023.62353.96192.25049,1.50391.59619,1.50391,1.42236v.01368c0,.94189-.71826,1.47021-1.74121,1.47021A3.061,3.061,0,0,1,75.46289,318.4082Z"
         fill="#f0f0f0"
         id="path171" />
      <path
         d="M79.77832,318.23877l1.65332-3.73291a.64414.64414,0,0,1,.60986-.41309h.061a.635.635,0,0,1,.60254.41309l1.65332,3.73291a.51151.51151,0,0,1,.0542.21.49458.49458,0,0,1-.49463.50147.53177.53177,0,0,1-.50147-.35938l-.31836-.74512H81.01172l-.332.7793a.51278.51278,0,0,1-.481.3252.48.48,0,0,1-.481-.4878A.55591.55591,0,0,1,79.77832,318.23877Zm2.93359-1.31445-.65722-1.56494-.65723,1.56494Z"
         fill="#f0f0f0"
         id="path173" />
      <path
         d="M84.8374,314.83105a.67343.67343,0,0,1-.04052-.19628.51786.51786,0,0,1,.53515-.50831.526.526,0,0,1,.50781.37256l.9419,2.90625.94873-2.8789a.549.549,0,0,1,.52832-.41358h.081a.542.542,0,0,1,.52881.41358l.94824,2.8789.9419-2.90625a.52145.52145,0,0,1,.501-.37256.50344.50344,0,0,1,.51513.50147.7357.7357,0,0,1-.04052.20312l-1.32813,3.72608a.57767.57767,0,0,1-.542.42676h-.1084a.5623.5623,0,0,1-.53516-.42676l-.93506-2.7168-.93457,2.7168a.56283.56283,0,0,1-.53564.42676H86.707a.57855.57855,0,0,1-.542-.42676Z"
         fill="#f0f0f0"
         id="path175" />
    </g>
    <g
       id="g185">
      <path
         d="M108.25879,318.4082a.48745.48745,0,0,1-.19629-.39306.48.48,0,0,1,.48779-.481.501.501,0,0,1,.29785.09473,2.00211,2.00211,0,0,0,1.2129.42675c.42675,0,.68408-.16894.68408-.44726v-.01319c0-.26416-.1626-.3999-.95508-.603-.95508-.24414-1.57178-.5083-1.57178-1.4502v-.01318a1.48345,1.48345,0,0,1,1.65967-1.42969,2.75073,2.75073,0,0,1,1.50439.42041.48277.48277,0,0,1-.25781.894.49736.49736,0,0,1-.26416-.0747,1.97239,1.97239,0,0,0-.9956-.31836c-.39991,0-.60987.1831-.60987.41308v.01368c0,.31152.20313.41357,1.02295.62353.96192.25049,1.50391.59619,1.50391,1.42236v.01368c0,.94189-.71826,1.47021-1.74121,1.47021A3.061,3.061,0,0,1,108.25879,318.4082Z"
         fill="#f0f0f0"
         id="path179" />
      <path
         d="M112.63818,316.55176v-.01367a2.52142,2.52142,0,0,1,5.04053-.01368v.01368a2.43341,2.43341,0,0,1-.41992,1.36181l.20312.16944a.51212.51212,0,0,1,.18995.39306.48858.48858,0,0,1-.8335.35205l-.25732-.23047a2.5824,2.5824,0,0,1-1.40918.40674A2.43,2.43,0,0,1,112.63818,316.55176Zm2.46631.53515a.49161.49161,0,0,1,.4878-.49462.48136.48136,0,0,1,.34521.14209l.522.46777a1.66452,1.66452,0,0,0,.12842-.65039v-.01367a1.44026,1.44026,0,0,0-1.436-1.49024,1.41823,1.41823,0,0,0-1.42286,1.47656v.01368a1.44108,1.44108,0,0,0,1.43653,1.49072,1.41991,1.41991,0,0,0,.623-.12891L115.294,317.48A.5125.5125,0,0,1,115.10449,317.08691Z"
         fill="#f0f0f0"
         id="path181" />
      <path
         d="M118.88281,314.68848a.51738.51738,0,0,1,.52149-.52149h1.64648a1.89027,1.89027,0,0,1,1.38184.481,1.48923,1.48923,0,0,1,.40625,1.084v.01368a1.44768,1.44768,0,0,1-.94825,1.44287l.7251.88086a.60914.60914,0,0,1,.16944.39941.48575.48575,0,0,1-.49463.48145.6249.6249,0,0,1-.51514-.271l-1.01611-1.2876h-.8335v1.03711a.52149.52149,0,1,1-1.043,0Zm2.1001,1.78222c.50781,0,.79932-.27148.79932-.6709v-.01367c0-.44726-.31153-.67773-.81983-.67773h-1.03662v1.3623Z"
         fill="#f0f0f0"
         id="path183" />
    </g>
  </g>
  <g
     id="ec3f25a4-ddff-4123-a9d7-7c4339c5cec6"
     data-name="components"
     inkscape:groupmode="layer"
     style="display:none">
    <circle
       id="a57e1f70-e716-43c3-a43c-7dd3efff91cf"
       data-name="Freq#SmallLight"
       cx="91.787582"
       cy="48.5079"
       r="3"
       style="fill:#ff00ff" />
    <circle
       id="b8830ef1-f3c0-4a70-96d5-ff33c3ba7965"
       data-name="Pw#RoundLargeBlackKnob"
       cx="67.501961"
       cy="166.5"
       r="5"
       style="fill:#ff0000" />
    <circle
       id="bb3cd6a1-b89a-40d9-9ea3-01573426dbd2"
       data-name="Ofst#LEDButton"
       cx="83.499977"
       cy="238"
       r="5"
       style="fill:#ff0000" />
    <circle
       id="ea5a6784-ea9c-4c63-9d23-a3a9d78cd923"
       data-name="Inv#LEDButton"
       cx="51.499981"
       cy="238"
       r="5"
       style="fill:#ff0000" />
    <circle
       id="b3086801-8900-443a-b66d-ffbb39eb6508"
       data-name="Reset#PJ301MPort"
       cx="83.499977"
       cy="285.884"
       r="5"
       style="fill:#00ff00" />
    <circle
       id="be69581b-c5fc-4363-b8cc-969036d7a213"
       data-name="Tri#PJ301MPort"
       cx="51.499981"
       cy="334"
       r="5"
       style="fill:#0000ff" />
    <circle
       id="b28b5538-bf97-48ce-ba9a-0a534f05cb82"
       data-name="Sin#PJ301MPort"
       cx="19.500019"
       cy="334"
       r="5"
       style="fill:#0000ff" />
    <circle
       id="b23bc78e-eced-4a67-8a2d-26ce1cb7ee4a"
       data-name="Saw#PJ301MPort"
       cx="83.499977"
       cy="334"
       r="5"
       style="fill:#0000ff" />
    <circle
       id="b1e0a6a2-832b-48c8-9144-0c923e86766d"
       data-name="Fm#PJ301MPort"
       cx="19.500019"
       cy="286"
       r="5"
       style="fill:#00ff00" />
    <circle
       id="ade1ac62-03b6-424b-abef-cff227fd0a73"
       data-name="Clk#PJ301MPort"
       cx="51.499981"
       cy="286"
       r="5"
       style="fill:#00ff00" />
    <circle
       id="bc60f034-fd64-4256-acc2-419e297b3dd2"
       data-name="Pwm#PJ301MPort"
       cx="115.49998"
       cy="285.884"
       r="5"
       style="fill:#00ff00" />
    <circle
       id="a26cfeab-ec79-4ada-958c-4a0a1a22c71d"
       data-name="Sqr#PJ301MPort"
       cx="115.49998"
       cy="334"
       r="5"
       style="fill:#0000ff" />
    <circle
       id="b98b48d5-18d0-4b62-893c-87dc84a12c0b"
       data-name="FmCv#Trimpot"
       cx="19.500019"
       cy="238"
       r="5"
       style="fill:#ff0000" />
    <circle
       id="bf10568d-78c7-413e-ae29-dea3bc8423cb"
       data-name="PwmCv#Trimpot"
       cx="115.49998"
       cy="238"
       r="5"
       style="fill:#ff0000" />
    <circle
       id="a3478832-0171-4de7-885a-3ad5b13dda02"
       data-name="Freq#RoundHugeBlackKnob"
       cx="67.623772"
       cy="88"
       r="5"
       style="fill:#ff0000" />
  </g>
</svg>
