<?xml version="1.0" encoding="UTF-8"?>
<svg xmlns="http://www.w3.org/2000/svg" width="75" height="380" xmlns:xlink="http://www.w3.org/1999/xlink" viewBox="0 0 75 380">
  <defs>
    <linearGradient id="uuid-880da544-9e1a-476f-b23d-3dac1f44eb84" x1="37.5" y1="0" x2="37.5" y2="380" gradientUnits="userSpaceOnUse">
      <stop offset="0" stop-color="#2a2a2b"/>
      <stop offset="1" stop-color="#171717"/>
    </linearGradient>
  </defs>
  <g id="uuid-8a8f932b-cdb2-4d25-ba64-d677c109a1f6" data-name="FND BG">
    <rect width="75" height="380" fill="url(#uuid-880da544-9e1a-476f-b23d-3dac1f44eb84)"/>
  </g>
  <g id="uuid-6cad63ea-9e2f-4b57-a7dc-a396b7e3eec4" data-name="FND GRAPH">
    <g>
      <rect x="7.22416" y="174.74294" width="28.55155" height="39.15691" rx="2.83465" ry="2.83465" fill="#ededed"/>
      <rect x="18.07571" y="196.25383" width="6.86765" height="6.64999" fill="#ededed"/>
    </g>
    <g>
      <rect x="39.22429" y="174.74294" width="28.55155" height="39.15691" rx="2.83465" ry="2.83465" fill="#ededed"/>
      <rect x="50.07584" y="196.25383" width="6.86765" height="6.64999" fill="#ededed"/>
    </g>
    <g>
      <rect x="7.22416" y="219.63044" width="28.55155" height="39.15691" rx="2.83465" ry="2.83465" fill="#ededed"/>
      <rect x="18.07571" y="241.14133" width="6.86765" height="6.64999" fill="#ededed"/>
    </g>
    <g>
      <rect x="39.22429" y="219.63044" width="28.55155" height="39.15691" rx="2.83465" ry="2.83465" fill="#ededed"/>
      <rect x="50.07584" y="241.14133" width="6.86765" height="6.64999" fill="#ededed"/>
    </g>
    <g>
      <rect x="7.22416" y="264.48514" width="28.55155" height="39.15691" rx="2.83465" ry="2.83465" fill="#ededed"/>
      <rect x="18.07571" y="285.99603" width="6.86765" height="6.64999" fill="#ededed"/>
    </g>
    <g>
      <rect x="39.22429" y="264.59049" width="28.55155" height="39.15691" rx="2.83465" ry="2.83465" fill="#ededed"/>
      <rect x="50.07584" y="286.10137" width="6.86765" height="6.64999" fill="#ededed"/>
    </g>
    <g>
      <rect x="7.22416" y="309.05634" width="28.55155" height="39.15691" rx="2.83465" ry="2.83465" fill="#ededed"/>
      <rect x="18.07571" y="330.56723" width="6.86765" height="6.64999" fill="#ededed"/>
    </g>
    <g>
      <rect x="39.22429" y="309.05634" width="28.55155" height="39.15691" rx="2.83465" ry="2.83465" fill="#ededed"/>
      <rect x="50.07584" y="330.56723" width="6.86765" height="6.64999" fill="#ededed"/>
    </g>
    <g>
      <circle cx="38.00165" cy="356.2678" r="1.18571" fill="#ededed"/>
      <path d="m29.35927,360.18977c-.34551,0-.66126-.1952-.8158-.50419l-2.96428-5.92856c-.22526-.45057-.04266-.99844.40794-1.2237.45008-.22535.99831-.04271,1.22366.4079l2.14848,4.29696,2.14848-4.29696c.22526-.45057.77314-.63325,1.22366-.4079.45061.22526.63321.77314.40794,1.2237l-2.96428,5.92856c-.15454.30899-.47029.50419-.8158.50419Z" fill="#ededed"/>
      <path d="m45.64073,360.18977c-.34551,0-.66126-.1952-.8158-.50419l-2.96428-5.92856c-.22526-.45057-.04266-.99844.40794-1.2237.45016-.22535.9984-.04271,1.22366.4079l2.14848,4.29696,2.14848-4.29696c.22526-.45057.77305-.63325,1.22366-.4079.45061.22526.63321.77314.40794,1.2237l-2.96428,5.92856c-.15454.30899-.47029.50419-.8158.50419Z" fill="#ededed"/>
      <path d="m37.94242,360.18977c-2.13744,0-3.87637-1.73893-3.87637-3.87637s1.73893-3.87637,3.87637-3.87637c.84653,0,1.65102.26819,2.32653.77554.40278.30253.48401.87428.18153,1.27705-.30248.40273-.87432.48401-1.2771.18148-.357-.26815-.78267-.4099-1.23096-.4099-1.13156,0-2.05219.92059-2.05219,2.05219s.92064,2.05219,2.05219,2.05219c.44829,0,.87396-.14176,1.23096-.4099.40269-.30271.97444-.22125,1.2771.18148.30248.40278.22125.97453-.18153,1.27705-.67551.50735-1.48.77554-2.32653.77554Z" fill="#ededed"/>
    </g>
  </g>
  <g id="uuid-68456295-2fbd-4f32-a10f-e8a829ee832d" data-name="FND TXT">
    <g>
      <path d="m10.59766,180.37402c0-.2915.22949-.52148.52148-.52148h.10742c.25098,0,.40039.12158.54297.30469l2.01172,2.64209v-2.4458c0-.28418.23047-.51465.51465-.51465s.51465.23047.51465.51465v3.77344c0,.2915-.23047.52197-.52148.52197h-.0332c-.25098,0-.40039-.12207-.54297-.30518l-2.08594-2.73682v2.54053c0,.28467-.23047.51514-.51562.51514-.28418,0-.51367-.23047-.51367-.51514v-3.77344Z" fill="#1f1f1f"/>
      <path d="m15.9541,182.26416v-.01367c0-1.34814,1.06348-2.45264,2.52734-2.45264s2.5127,1.09082,2.5127,2.43945v.01318c0,1.34814-1.0625,2.45264-2.52637,2.45264s-2.51367-1.09082-2.51367-2.43896Zm3.9502,0v-.01367c0-.81299-.5957-1.49023-1.43652-1.49023s-1.42285.66357-1.42285,1.47705v.01318c0,.81299.5957,1.49072,1.43652,1.49072.83984,0,1.42285-.66406,1.42285-1.47705Z" fill="#1f1f1f"/>
      <path d="m23.01367,180.84131h-1.00195c-.26562,0-.48242-.2168-.48242-.48096s.2168-.48096.48242-.48096h3.04785c.26465,0,.48145.2168.48145.48096s-.2168.48096-.48145.48096h-1.00293v3.29932c0,.2915-.23047.52197-.52148.52197s-.52148-.23047-.52148-.52197v-3.29932Z" fill="#1f1f1f"/>
      <path d="m28.07324,183.95117l1.65332-3.73291c.11523-.25732.3252-.41357.60938-.41357h.06055c.28516,0,.48828.15625.60352.41357l1.65332,3.73291c.03418.07422.05371.14209.05371.20996,0,.27783-.2168.50146-.49414.50146-.24414,0-.40625-.14209-.50195-.35889l-.31836-.74561h-2.08594l-.33203.7793c-.08789.20312-.26367.3252-.48047.3252-.27148,0-.48242-.2168-.48242-.48779,0-.07471.02734-.14941.06152-.22363Zm2.93359-1.31445l-.65723-1.56494-.65625,1.56494h1.31348Z" fill="#1f1f1f"/>
    </g>
    <g>
      <path d="m42.74609,180.37402c0-.2915.23047-.52148.52148-.52148h.10938c.25,0,.39844.12158.54102.30469l2.0127,2.64209v-2.4458c0-.28418.22949-.51465.51465-.51465s.51562.23047.51562.51465v3.77344c0,.2915-.23047.52197-.52246.52197h-.03418c-.25,0-.39941-.12207-.54102-.30518l-2.08789-2.73682v2.54053c0,.28467-.22949.51514-.51367.51514-.28516,0-.51562-.23047-.51562-.51514v-3.77344Z" fill="#1f1f1f"/>
      <path d="m48.10352,182.26416v-.01367c0-1.34814,1.06445-2.45264,2.52734-2.45264s2.51367,1.09082,2.51367,2.43945v.01318c0,1.34814-1.06445,2.45264-2.52734,2.45264s-2.51367-1.09082-2.51367-2.43896Zm3.94922,0v-.01367c0-.81299-.5957-1.49023-1.43555-1.49023s-1.42285.66357-1.42285,1.47705v.01318c0,.81299.59668,1.49072,1.43652,1.49072s1.42188-.66406,1.42188-1.47705Z" fill="#1f1f1f"/>
      <path d="m55.16309,180.84131h-1.00293c-.26367,0-.48047-.2168-.48047-.48096s.2168-.48096.48047-.48096h3.04883c.26367,0,.48047.2168.48047.48096s-.2168.48096-.48047.48096h-1.00195v3.29932c0,.2915-.23047.52197-.52148.52197-.29199,0-.52246-.23047-.52246-.52197v-3.29932Z" fill="#1f1f1f"/>
      <path d="m60.48633,180.40137c0-.2915.23047-.52197.52246-.52197h1.68066c.54102,0,.96875.14893,1.23926.41992.2168.2168.3252.48096.3252.80615v.01367c0,.53516-.28516.8335-.62305,1.02295.54883.21045.88672.52881.88672,1.16553v.01367c0,.86719-.7041,1.30078-1.77441,1.30078h-1.73438c-.29199,0-.52246-.23047-.52246-.52197v-3.69873Zm1.97852,1.39551c.46094,0,.75195-.14941.75195-.50146v-.01367c0-.31152-.24316-.48779-.68359-.48779h-1.0293v1.00293h.96094Zm.27832,1.91016c.45996,0,.73828-.16211.73828-.51465v-.01367c0-.31836-.2373-.51465-.77246-.51465h-1.20508v1.04297h1.23926Z" fill="#1f1f1f"/>
    </g>
    <g>
      <path d="m16.41406,227.15137v-.01367c0-1.34814,1.06445-2.45215,2.52734-2.45215,1.46387,0,2.51367,1.09082,2.51367,2.43848v.01367c0,1.34863-1.06348,2.45264-2.52734,2.45264-1.46289,0-2.51367-1.09082-2.51367-2.43896Zm3.95117,0v-.01367c0-.81299-.59766-1.49023-1.4375-1.49023s-1.42188.66406-1.42188,1.47656v.01367c0,.81299.5957,1.49072,1.43555,1.49072s1.42383-.66406,1.42383-1.47705Z" fill="#1f1f1f"/>
      <path d="m22.60156,225.28809c0-.29102.23047-.52148.52148-.52148h1.64648c.60352,0,1.07031.16943,1.38281.48096.26367.26416.40625.63721.40625,1.08398v.01367c0,.74512-.37305,1.20557-.94922,1.44287l.72559.88086c.10156.12891.16895.2373.16895.39941,0,.2915-.24414.48145-.49414.48145-.2373,0-.39258-.11523-.51562-.271l-1.01562-1.2876h-.83398v1.03711c0,.29102-.23047.52148-.52148.52148s-.52148-.23047-.52148-.52148v-3.74023Zm2.10059,1.78223c.50781,0,.7998-.27148.7998-.6709v-.01367c0-.44727-.3125-.67773-.82031-.67773h-1.03711v1.3623h1.05762Z" fill="#1f1f1f"/>
    </g>
    <g>
      <path d="m45.84375,225.26123c0-.2915.22949-.52197.52148-.52197h.10742c.25098,0,.40039.12207.54297.30518l2.01172,2.64209v-2.4458c0-.28467.23047-.51465.51465-.51465s.51465.22998.51465.51465v3.77393c0,.29102-.23047.52148-.52148.52148h-.0332c-.25098,0-.40039-.12207-.54297-.30469l-2.08594-2.7373v2.54053c0,.28467-.23047.51514-.51562.51514-.28418,0-.51367-.23047-.51367-.51514v-3.77344Z" fill="#1f1f1f"/>
      <path d="m51.2002,227.15137v-.01367c0-1.34814,1.06348-2.45215,2.52734-2.45215s2.5127,1.09082,2.5127,2.43848v.01367c0,1.34863-1.0625,2.45264-2.52637,2.45264s-2.51367-1.09082-2.51367-2.43896Zm3.9502,0v-.01367c0-.81299-.5957-1.49023-1.43652-1.49023s-1.42285.66406-1.42285,1.47656v.01367c0,.81299.5957,1.49072,1.43652,1.49072.83984,0,1.42285-.66406,1.42285-1.47705Z" fill="#1f1f1f"/>
      <path d="m57.38477,225.28809c0-.29102.22949-.52148.52148-.52148h1.64648c.60156,0,1.07031.16943,1.38086.48096.26465.26416.40625.63721.40625,1.08398v.01367c0,.74512-.37207,1.20557-.94727,1.44287l.72461.88086c.10156.12891.16992.2373.16992.39941,0,.2915-.24414.48145-.49512.48145-.2373,0-.39355-.11523-.51465-.271l-1.0166-1.2876h-.83301v1.03711c0,.29102-.23047.52148-.52148.52148-.29199,0-.52148-.23047-.52148-.52148v-3.74023Zm2.09961,1.78223c.50781,0,.79883-.27148.79883-.6709v-.01367c0-.44727-.31055-.67773-.81934-.67773h-1.03613v1.3623h1.05664Z" fill="#1f1f1f"/>
    </g>
    <g>
      <path d="m13.68945,273.69287l1.65234-3.73291c.11523-.25781.32617-.41309.61035-.41309h.06152c.2832,0,.48633.15527.60156.41309l1.6543,3.73291c.0332.07471.05371.14209.05371.20996,0,.27783-.2168.50146-.49512.50146-.24414,0-.40625-.14258-.50098-.35938l-.31836-.74512h-2.08691l-.33203.7793c-.08789.20312-.26367.3252-.48047.3252-.27148,0-.48047-.2168-.48047-.48779,0-.07471.02637-.14893.06055-.22363Zm2.93359-1.31445l-.6582-1.56494-.65625,1.56494h1.31445Z" fill="#1f1f1f"/>
      <path d="m19.26758,270.11572c0-.2915.23047-.52197.52246-.52197h.1084c.25,0,.40039.12207.54199.30518l2.0127,2.64209v-2.4458c0-.28467.23047-.51465.51367-.51465.28516,0,.51562.22998.51562.51465v3.77393c0,.29102-.23047.52148-.52148.52148h-.03418c-.25098,0-.39941-.12207-.54199-.30469l-2.08594-2.7373v2.54053c0,.28467-.23047.51514-.51562.51514s-.51562-.23047-.51562-.51514v-3.77344Z" fill="#1f1f1f"/>
      <path d="m24.87305,270.14258c0-.29102.23047-.52148.52148-.52148h1.32812c1.49023,0,2.52051,1.02295,2.52051,2.35742v.01367c0,1.33496-1.03027,2.37109-2.52051,2.37109h-1.32812c-.29102,0-.52148-.22998-.52148-.52148v-3.69922Zm1.84961,3.2793c.85352,0,1.42969-.57617,1.42969-1.41602v-.01367c0-.83984-.57617-1.42969-1.42969-1.42969h-.80664v2.85938h.80664Z" fill="#1f1f1f"/>
    </g>
    <g>
      <path d="m43.21484,270.11572c0-.2915.23047-.52197.52148-.52197h.1084c.25098,0,.39941.12207.54199.30518l2.01172,2.64209v-2.4458c0-.28467.23047-.51465.51562-.51465.28418,0,.51465.22998.51465.51465v3.77393c0,.29102-.23047.52148-.52246.52148h-.0332c-.25,0-.40039-.12207-.54199-.30469l-2.08691-2.7373v2.54053c0,.28467-.23047.51514-.51465.51514s-.51465-.23047-.51465-.51514v-3.77344Z" fill="#1f1f1f"/>
      <path d="m48.42773,273.69287l1.65332-3.73291c.11523-.25781.3252-.41309.61035-.41309h.06055c.28418,0,.48828.15527.60254.41309l1.65332,3.73291c.0332.07471.05469.14209.05469.20996,0,.27783-.2168.50146-.49512.50146-.24316,0-.40723-.14258-.50098-.35938l-.31836-.74512h-2.08691l-.33203.7793c-.08887.20312-.26465.3252-.48145.3252-.27051,0-.48047-.2168-.48047-.48779,0-.07471.02734-.14893.06055-.22363Zm2.93359-1.31445l-.65723-1.56494-.65723,1.56494h1.31445Z" fill="#1f1f1f"/>
      <path d="m54.00781,270.11572c0-.2915.22949-.52197.52148-.52197h.10742c.25098,0,.40039.12207.54297.30518l2.01172,2.64209v-2.4458c0-.28467.23047-.51465.51465-.51465s.51465.22998.51465.51465v3.77393c0,.29102-.23047.52148-.52148.52148h-.0332c-.25098,0-.40039-.12207-.54297-.30469l-2.08594-2.7373v2.54053c0,.28467-.23047.51514-.51562.51514-.28418,0-.51367-.23047-.51367-.51514v-3.77344Z" fill="#1f1f1f"/>
      <path d="m59.61328,270.14258c0-.29102.22949-.52148.52148-.52148h1.32715c1.49121,0,2.52051,1.02295,2.52051,2.35742v.01367c0,1.33496-1.0293,2.37109-2.52051,2.37109h-1.32715c-.29199,0-.52148-.22998-.52148-.52148v-3.69922Zm1.84863,3.2793c.85449,0,1.42969-.57617,1.42969-1.41602v-.01367c0-.83984-.5752-1.42969-1.42969-1.42969h-.80566v2.85938h.80566Z" fill="#1f1f1f"/>
    </g>
    <g>
      <path d="m14.0957,318.30469l1.28125-1.57178-1.20703-1.47021c-.08008-.10156-.15527-.2373-.15527-.38623,0-.2915.2168-.51465.51465-.51465.22363,0,.35254.08789.48047.25732l1.03711,1.38184,1.0293-1.35449c.14258-.18311.27832-.28467.50879-.28467s.47363.18311.47363.48096c0,.14893-.05371.271-.15527.39941l-1.20605,1.47705,1.27344,1.56494c.08203.10156.15625.2373.15625.38623,0,.2915-.2168.51514-.51562.51514-.22266,0-.35156-.08789-.48047-.25781l-1.11133-1.45605-1.09766,1.4292c-.1416.18311-.27734.28467-.50781.28467s-.47461-.18311-.47461-.48145c0-.14844.05469-.27051.15625-.39941Z" fill="#1f1f1f"/>
      <path d="m18.8418,316.78711v-.01367c0-1.34814,1.06445-2.45215,2.52734-2.45215s2.51367,1.09082,2.51367,2.43848v.01367c0,1.34863-1.06445,2.45264-2.52734,2.45264s-2.51367-1.09082-2.51367-2.43896Zm3.94922,0v-.01367c0-.81299-.5957-1.49023-1.43555-1.49023s-1.42285.66406-1.42285,1.47656v.01367c0,.81299.59668,1.49072,1.43652,1.49072s1.42188-.66406,1.42188-1.47705Z" fill="#1f1f1f"/>
      <path d="m25.0293,314.92383c0-.29102.23047-.52148.52148-.52148h1.64648c.60254,0,1.07031.16943,1.38184.48096.26465.26416.40723.63721.40723,1.08398v.01367c0,.74512-.37305,1.20557-.94922,1.44287l.72461.88086c.10156.12891.16992.2373.16992.39941,0,.2915-.24414.48145-.49414.48145-.23828,0-.39355-.11523-.51562-.271l-1.01562-1.2876h-.83398v1.03711c0,.29102-.23047.52148-.52148.52148s-.52148-.23047-.52148-.52148v-3.74023Zm2.09961,1.78223c.50781,0,.7998-.27148.7998-.6709v-.01367c0-.44727-.31152-.67773-.81934-.67773h-1.03711v1.3623h1.05664Z" fill="#1f1f1f"/>
    </g>
    <g>
      <path d="m43.24609,318.06885l1.28125-1.57178-1.20703-1.47021c-.08008-.10156-.15527-.23682-.15527-.38623,0-.29102.2168-.51465.51465-.51465.22363,0,.35254.08789.48047.25732l1.03711,1.38232,1.0293-1.35547c.14258-.18262.27832-.28418.50879-.28418s.47363.18262.47363.48096c0,.14893-.05371.271-.15527.3999l-1.20605,1.47656,1.27344,1.56543c.08203.10156.15625.23682.15625.38574,0,.2915-.2168.51514-.51562.51514-.22266,0-.35156-.08838-.48047-.25732l-1.11133-1.45703-1.09766,1.42969c-.1416.18262-.27734.28467-.50781.28467s-.47461-.18311-.47461-.48096c0-.14941.05469-.27148.15625-.3999Z" fill="#1f1f1f"/>
      <path d="m48.33789,314.66113c0-.2915.22949-.52148.52148-.52148h.10742c.25098,0,.40039.12158.54297.30469l2.01172,2.64209v-2.4458c0-.28418.23047-.51465.51465-.51465s.51465.23047.51465.51465v3.77344c0,.2915-.23047.52197-.52148.52197h-.0332c-.25098,0-.40039-.12207-.54297-.30518l-2.08594-2.73682v2.54053c0,.28467-.23047.51514-.51562.51514-.28418,0-.51367-.23047-.51367-.51514v-3.77344Z" fill="#1f1f1f"/>
      <path d="m53.69434,316.55127v-.01367c0-1.34814,1.06348-2.45264,2.52734-2.45264s2.5127,1.09082,2.5127,2.43945v.01318c0,1.34814-1.0625,2.45264-2.52637,2.45264s-2.51367-1.09082-2.51367-2.43896Zm3.9502,0v-.01367c0-.81299-.5957-1.49023-1.43652-1.49023s-1.42285.66357-1.42285,1.47705v.01318c0,.81299.5957,1.49072,1.43652,1.49072.83984,0,1.42285-.66406,1.42285-1.47705Z" fill="#1f1f1f"/>
      <path d="m59.87891,314.68848c0-.2915.22949-.52197.52148-.52197h1.64648c.60156,0,1.07031.16943,1.38086.48096.26465.26416.40625.63672.40625,1.08398v.01367c0,.74512-.37207,1.20605-.94727,1.44287l.72461.88086c.10156.12842.16992.23682.16992.3999,0,.29102-.24414.48096-.49512.48096-.2373,0-.39355-.11523-.51465-.271l-1.0166-1.28711h-.83301v1.03613c0,.2915-.23047.52197-.52148.52197-.29199,0-.52148-.23047-.52148-.52197v-3.73926Zm2.09961,1.78125c.50781,0,.79883-.27051.79883-.67041v-.01367c0-.44678-.31055-.67725-.81934-.67725h-1.03613v1.36133h1.05664Z" fill="#1f1f1f"/>
    </g>
    <path d="m19.26758,139.13867l1.76172-3.92969c.0957-.20996.26465-.33887.50195-.33887h.04102c.23633,0,.39941.12891.49414.33887l1.76172,3.92969c.0332.06055.04688.12158.04688.17578,0,.22363-.16895.3999-.39258.3999-.19727,0-.33203-.11523-.40625-.2915l-.38672-.8877h-2.30371l-.39941.91504c-.06836.16895-.20996.26416-.38672.26416-.2168,0-.38574-.16943-.38574-.38623,0-.06104.02051-.12207.05371-.18945Zm3.10352-1.3418l-.83301-1.91699-.83301,1.91699h1.66602Z" fill="#ebebeb"/>
    <path d="m51.71191,135.35791c0-.23682.18262-.41992.41992-.41992h1.70801c.54102,0,.96875.14893,1.23926.41992.20996.21045.31836.46729.31836.78613v.01318c0,.56934-.3252.87402-.67676,1.05713.55469.18994.94141.5083.94141,1.15186v.01367c0,.84668-.69824,1.30078-1.75488,1.30078h-1.77539c-.2373,0-.41992-.18311-.41992-.42041v-3.90234Zm1.95801,1.57861c.53516,0,.89453-.20996.89453-.64355v-.01367c0-.37256-.29883-.60254-.83398-.60254h-1.19922v1.25977h1.13867Zm.24414,2.00537c.56836,0,.91406-.22363.91406-.65039v-.01318c0-.3999-.31836-.63721-.97461-.63721h-1.32227v1.30078h1.38281Z" fill="#ebebeb"/>
    <path d="m35.23828,45.78516c0-.29199.22461-.51709.51758-.51709h2.10352c.66699,0,1.19336.18359,1.52734.51709.25781.25879.3916.57617.3916.96875v.0166c0,.70117-.40039,1.07666-.83496,1.30176.68555.23389,1.16016.62598,1.16016,1.41895v.0166c0,1.04346-.85938,1.60254-2.16113,1.60254h-2.18652c-.29297,0-.51758-.2251-.51758-.51758v-4.80762Zm2.41211,1.94531c.65918,0,1.10156-.25879,1.10156-.79297v-.0166c0-.45898-.36719-.74316-1.02637-.74316h-1.47754v1.55273h1.40234Zm.30078,2.4707c.70117,0,1.12598-.27588,1.12598-.80176v-.0166c0-.49219-.3916-.78418-1.20215-.78418h-1.62695v1.60254h1.70312Z" fill="#ebebeb"/>
    <g>
      <path d="m17.82617,20.41602c0-.53809.42578-.96338.96387-.96338s.96387.42529.96387.96338v6.11816h3.56543c.4873,0,.87598.38818.87598.87598,0,.48828-.38867.87598-.87598.87598h-4.5293c-.53809,0-.96387-.42529-.96387-.96338v-6.90674Z" fill="#ebebeb"/>
      <path d="m24.81445,23.93164v-.0249c0-2.48975,1.96484-4.5293,4.66699-4.5293s4.6416,2.01416,4.6416,4.50439v.0249c0,2.48975-1.96387,4.52979-4.66602,4.52979-2.70312,0-4.64258-2.01465-4.64258-4.50488Zm7.29492,0v-.0249c0-1.50146-1.10156-2.75244-2.65234-2.75244-1.55273,0-2.62793,1.22607-2.62793,2.72754v.0249c0,1.50146,1.10059,2.75293,2.65234,2.75293s2.62793-1.22607,2.62793-2.72803Z" fill="#ebebeb"/>
      <path d="m35.48926,23.93164v-.0249c0-2.48975,1.93945-4.5293,4.59277-4.5293,1.32617,0,2.20117.30029,2.99023.85107.1875.1377.40039.40039.40039.77539,0,.52539-.42578.95117-.95117.95117-.27539,0-.45117-.1001-.58789-.2002-.52539-.37549-1.08887-.60059-1.91504-.60059-1.40137,0-2.51465,1.23828-2.51465,2.72754v.0249c0,1.60156,1.10156,2.77783,2.65234,2.77783.70117,0,1.32617-.17529,1.81445-.52539v-1.25146h-1.30078c-.46289,0-.83887-.36279-.83887-.82568s.37598-.83838.83887-.83838h2.20117c.53906,0,.96387.42529.96387.96338v2.12695c0,.56348-.21289.95117-.67578,1.22656-.71289.4375-1.75098.87598-3.06543.87598-2.72754,0-4.60449-1.91455-4.60449-4.50488Z" fill="#ebebeb"/>
      <path d="m45.89258,20.41602c0-.53809.4248-.96338.96289-.96338s.96289.42529.96289.96338v6.98145c0,.53809-.4248.96387-.96289.96387s-.96289-.42578-.96289-.96387v-6.98145Z" fill="#ebebeb"/>
      <path d="m49.64453,23.93164v-.0249c0-2.48975,1.87695-4.5293,4.56641-4.5293,1.31445,0,2.20215.3501,2.92773.88818.20117.15039.375.42578.375.76367,0,.52539-.4248.93848-.9502.93848-.2627,0-.43848-.10059-.5752-.18799-.53906-.40039-1.10156-.62549-1.78906-.62549-1.47656,0-2.54102,1.22607-2.54102,2.72754v.0249c0,1.50146,1.03906,2.75293,2.54102,2.75293.8125,0,1.35059-.25049,1.90137-.68799.14941-.12549.35059-.21289.5752-.21289.48828,0,.90039.40039.90039.88818,0,.30029-.14941.53809-.32422.68799-.78906.68848-1.71484,1.10156-3.11523,1.10156-2.57812,0-4.49219-1.98975-4.49219-4.50488Z" fill="#ebebeb"/>
    </g>
  </g>
</svg>