<?xml version="1.0" encoding="UTF-8"?>
<svg xmlns="http://www.w3.org/2000/svg" width="75" height="380" xmlns:xlink="http://www.w3.org/1999/xlink" viewBox="0 0 75 380">
  <defs>
    <linearGradient id="uuid-66580dc4-8c2b-48c4-a15a-94504328cb45" x1="37.5" y1="0" x2="37.5" y2="380" gradientUnits="userSpaceOnUse">
      <stop offset="0" stop-color="#2a2a2b"/>
      <stop offset="1" stop-color="#171717"/>
    </linearGradient>
  </defs>
  <g id="uuid-1946fdd5-7b75-46c4-ba6a-cf6b8b6626e0" data-name="FND BG">
    <rect width="75" height="380" fill="url(#uuid-66580dc4-8c2b-48c4-a15a-94504328cb45)"/>
  </g>
  <g id="uuid-b32d0757-53d4-4776-9429-61bf0bc05320" data-name="FND GRAPH">
    <rect x="7.22423" y="40" width="28.55155" height="39.15691" rx="2.83465" ry="2.83465" fill="#ededed"/>
    <g>
      <circle cx="37.99958" cy="356.2678" r="1.18571" fill="#ededed"/>
      <path d="m29.3572,360.18977c-.34551,0-.66126-.1952-.8158-.50419l-2.96428-5.92856c-.22526-.45057-.04266-.99844.40794-1.2237.45008-.22535.99831-.04271,1.22366.4079l2.14848,4.29696,2.14848-4.29696c.22526-.45057.77314-.63325,1.22366-.4079.45061.22526.63321.77314.40794,1.2237l-2.96428,5.92856c-.15454.30899-.47029.50419-.8158.50419Z" fill="#ededed"/>
      <path d="m45.63866,360.18977c-.34551,0-.66126-.1952-.8158-.50419l-2.96428-5.92856c-.22526-.45057-.04266-.99844.40794-1.2237.45016-.22535.9984-.04271,1.22366.4079l2.14848,4.29696,2.14848-4.29696c.22526-.45057.77305-.63325,1.22366-.4079.45061.22526.63321.77314.40794,1.2237l-2.96428,5.92856c-.15454.30899-.47029.50419-.8158.50419Z" fill="#ededed"/>
      <path d="m37.94034,360.18977c-2.13744,0-3.87637-1.73893-3.87637-3.87637s1.73893-3.87637,3.87637-3.87637c.84653,0,1.65102.26819,2.32653.77554.40278.30253.48401.87428.18153,1.27705-.30248.40273-.87432.48401-1.2771.18148-.357-.26815-.78267-.4099-1.23096-.4099-1.13156,0-2.05219.92059-2.05219,2.05219s.92064,2.05219,2.05219,2.05219c.44829,0,.87396-.14176,1.23096-.4099.40269-.30271.97444-.22125,1.2771.18148.30248.40278.22125.97453-.18153,1.27705-.67551.50735-1.48.77554-2.32653.77554Z" fill="#ededed"/>
    </g>
    <g>
      <circle cx="38.00165" cy="356.26785" r="1.18571" fill="#ededed"/>
      <path d="m29.35927,360.18982c-.34551,0-.66126-.1952-.8158-.50419l-2.96428-5.92856c-.22526-.45057-.04266-.99844.40794-1.2237.45008-.22535.99831-.04271,1.22366.4079l2.14848,4.29696,2.14848-4.29696c.22526-.45057.77314-.63325,1.22366-.4079.45061.22526.63321.77314.40794,1.2237l-2.96428,5.92856c-.15454.30899-.47029.50419-.8158.50419Z" fill="#ededed"/>
      <path d="m45.64073,360.18982c-.34551,0-.66126-.1952-.8158-.50419l-2.96428-5.92856c-.22526-.45057-.04266-.99844.40794-1.2237.45016-.22535.9984-.04271,1.22366.4079l2.14848,4.29696,2.14848-4.29696c.22526-.45057.77305-.63325,1.22366-.4079.45061.22526.63321.77314.40794,1.2237l-2.96428,5.92856c-.15454.30899-.47029.50419-.8158.50419Z" fill="#ededed"/>
      <path d="m37.94242,360.18982c-2.13744,0-3.87637-1.73893-3.87637-3.87637s1.73893-3.87637,3.87637-3.87637c.84653,0,1.65102.26819,2.32653.77554.40278.30253.48401.87428.18153,1.27705-.30248.40273-.87432.48401-1.2771.18148-.357-.26815-.78267-.4099-1.23096-.4099-1.13156,0-2.05219.92059-2.05219,2.05219s.92064,2.05219,2.05219,2.05219c.44829,0,.87396-.14176,1.23096-.4099.40269-.30271.97444-.22125,1.2771.18148.30248.40278.22125.97453-.18153,1.27705-.67551.50735-1.48.77554-2.32653.77554Z" fill="#ededed"/>
    </g>
    <line x1="21.50001" y1="126.0243" x2="21.50001" y2="333.86598" fill="none" stroke="#ededed" stroke-linecap="round" stroke-linejoin="round" stroke-width=".8"/>
    <line x1="53.50001" y1="129.93474" x2="53.50001" y2="337.77642" fill="none" stroke="#ededed" stroke-linecap="round" stroke-linejoin="round" stroke-width=".8"/>
  </g>
  <g id="uuid-24209ce3-a80c-45d5-9272-d8daffe5d7cd" data-name="FND TXT">
    <g>
      <path d="m18.19531,89.23877c0-.28369.22461-.51758.51758-.51758h.10742c.22656,0,.37695.1167.47656.27539l1.76953,2.771,1.77734-2.7793c.10938-.17529.25977-.26709.46777-.26709h.1084c.29199,0,.51758.23389.51758.51758v4.89111c0,.28369-.22559.50879-.51758.50879-.27539,0-.50977-.2334-.50977-.50879v-3.50586l-1.42676,2.14551c-.1084.16699-.24121.2666-.43457.2666-.18359,0-.31641-.09961-.4248-.2666l-1.41895-2.12891v3.49756c0,.28369-.22559.50049-.50977.50049-.2832,0-.5-.2168-.5-.50049v-4.89941Z" fill="#ebebeb"/>
      <path d="m25.36426,91.69238v-.0166c0-1.64453,1.26855-3.02148,3.06348-3.02148,1.79395,0,3.0459,1.36035,3.0459,3.00488v.0166c0,1.64453-1.26855,3.02148-3.06348,3.02148-1.79395,0-3.0459-1.36035-3.0459-3.00488Zm5.03223,0v-.0166c0-1.13477-.82617-2.07812-1.98633-2.07812s-1.96875.92627-1.96875,2.06152v.0166c0,1.13525.82617,2.07031,1.98633,2.07031s1.96875-.91846,1.96875-2.05371Z" fill="#ebebeb"/>
      <path d="m32.90039,89.23877c0-.28369.22461-.51758.51758-.51758h.10742c.25098,0,.39258.12549.53516.30029l2.9209,3.78125v-3.58887c0-.27539.22559-.50098.50098-.50098.2832,0,.50977.22559.50977.50098v4.90723c0,.28418-.21777.50977-.50195.50977h-.04102c-.24219,0-.39258-.12549-.53418-.30908l-3.00488-3.88965v3.70605c0,.27539-.22559.50049-.50098.50049-.28418,0-.50879-.2251-.50879-.50049v-4.89941Z" fill="#ebebeb"/>
      <path d="m39.41797,91.69238v-.0166c0-1.64453,1.26953-3.02148,3.06348-3.02148s3.0459,1.36035,3.0459,3.00488v.0166c0,1.64453-1.26758,3.02148-3.0625,3.02148s-3.04688-1.36035-3.04688-3.00488Zm5.0332,0v-.0166c0-1.13477-.82617-2.07812-1.98633-2.07812s-1.96973.92627-1.96973,2.06152v.0166c0,1.13525.82617,2.07031,1.98633,2.07031s1.96973-.91846,1.96973-2.05371Z" fill="#ebebeb"/>
      <path d="m49.33203,89.22168c0-.2832.22656-.50879.51758-.50879.28418,0,.50977.22559.50977.50879v4.9082c0,.28369-.22559.50879-.50977.50879-.29102,0-.51758-.2251-.51758-.50879v-4.9082Z" fill="#ebebeb"/>
      <path d="m52.10938,89.23877c0-.28369.22656-.51758.51758-.51758h.10938c.25,0,.39258.12549.5332.30029l2.92188,3.78125v-3.58887c0-.27539.22559-.50098.50098-.50098.28418,0,.50879.22559.50879.50098v4.90723c0,.28418-.2168.50977-.5.50977h-.04199c-.24219,0-.39258-.12549-.53418-.30908l-3.00488-3.88965v3.70605c0,.27539-.22559.50049-.50098.50049-.2832,0-.50977-.2251-.50977-.50049v-4.89941Z" fill="#ebebeb"/>
    </g>
    <g>
      <path d="m12.47949,45.6582c0-.29102.22949-.52148.52148-.52148h1.41602c1.13086,0,1.81543.6709,1.81543,1.63965v.01367c0,1.09717-.85352,1.6665-1.91699,1.6665h-.79297v.94189c0,.29102-.23047.52148-.52148.52148-.29199,0-.52148-.23047-.52148-.52148v-3.74023Zm1.86914,1.87012c.52148,0,.82715-.31152.82715-.71826v-.01318c0-.46777-.3252-.71875-.84766-.71875h-.80566v1.4502h.82617Z" fill="#1f1f1f"/>
      <path d="m17.01855,47.52148v-.01367c0-1.34814,1.06348-2.45215,2.52734-2.45215,1.46289,0,2.5127,1.09082,2.5127,2.43848v.01367c0,1.34863-1.06348,2.45264-2.52637,2.45264-1.46387,0-2.51367-1.09082-2.51367-2.43896Zm3.9502,0v-.01367c0-.81299-.59668-1.49023-1.43652-1.49023s-1.42285.66406-1.42285,1.47656v.01367c0,.81299.5957,1.49072,1.43652,1.49072.83984,0,1.42285-.66406,1.42285-1.47705Z" fill="#1f1f1f"/>
      <path d="m23.20605,45.61768c0-.2915.22949-.52148.52148-.52148.29102,0,.52148.22998.52148.52148v3.31299h1.93066c.26465,0,.47461.20996.47461.47412s-.20996.47412-.47461.47412h-2.45215c-.29199,0-.52148-.22998-.52148-.52148v-3.73975Z" fill="#1f1f1f"/>
      <path d="m28.22559,48.0498l-1.53125-2.08008c-.0752-.10156-.12891-.22314-.12891-.37207,0-.27832.23047-.50146.52148-.50146.2373,0,.38672.12842.51465.31836l1.15234,1.65967,1.17188-1.67334c.12891-.18994.28418-.31152.50098-.31152.31836,0,.50879.22363.50879.5083,0,.14209-.06836.27051-.13574.36572l-1.53125,2.06592v1.36914c0,.29102-.23047.52148-.52148.52148-.29199,0-.52148-.23047-.52148-.52148v-1.34863Z" fill="#1f1f1f"/>
    </g>
    <g>
      <path d="m17.59668,105.10938l-.4873.14941c-.04785.01367-.10938.02051-.15039.02051-.19531,0-.36523-.16309-.36523-.35254,0-.17627.1084-.31152.27734-.35938l.71875-.22998c.16211-.04736.28516-.07471.40625-.07471h.01367c.2373,0,.41406.18311.41406.41309v4.01074c0,.23047-.18359.41357-.41406.41357-.22363,0-.41309-.18311-.41309-.41357v-3.57715Z" fill="#ebebeb"/>
      <path d="m19.65723,106.99316c0-.22363.18262-.40674.39941-.40674h1.27344c.2168,0,.40039.18311.40039.40674,0,.2168-.18359.39941-.40039.39941h-1.27344c-.2168,0-.39941-.18262-.39941-.39941Z" fill="#ebebeb"/>
      <path d="m22.66211,107.77246v-.01367c0-.56934.31836-.92822.85352-1.15186-.39844-.20996-.69043-.52881-.69043-1.05713v-.01367c0-.72461.69824-1.28027,1.64648-1.28027s1.64551.54883,1.64551,1.28027v.01367c0,.52832-.29102.84717-.69043,1.05713.52148.23682.85352.57568.85352,1.13818v.01367c0,.84668-.77246,1.375-1.80859,1.375s-1.80957-.54199-1.80957-1.36133Zm2.80469-.04785v-.01367c0-.43359-.43359-.71777-.99512-.71777-.5625,0-.98926.28418-.98926.71777v.01367c0,.38623.36523.71143.98926.71143.62305,0,.99512-.31836.99512-.71143Zm-.14844-2.09326v-.01367c0-.36572-.33887-.66357-.84668-.66357-.50879,0-.84668.29785-.84668.65674v.01367c0,.41357.35938.70459.84668.70459s.84668-.29102.84668-.69775Z" fill="#ebebeb"/>
    </g>
    <g>
      <path d="m46.81641,108.75439c-.11523-.07471-.18945-.18945-.18945-.34521,0-.2168.17578-.37988.39258-.37988.08887,0,.16406.02734.23047.06836.27832.19629.54297.29102.86719.29102.69824,0,1.11914-.61621,1.14551-1.49023-.2373.28418-.60254.50098-1.11035.50098-1.00977,0-1.68066-.58936-1.68066-1.50391v-.01367c0-.92773.71777-1.63965,1.76855-1.63965.5957,0,.98242.16992,1.32031.50146.3457.35254.56934.87402.56934,1.80908v.01367c0,1.52441-.75195,2.58105-2.03223,2.58105-.53516,0-.92773-.15576-1.28125-.39307Zm2.41992-2.90625v-.01367c0-.49463-.38672-.87402-.99023-.87402-.58887,0-.94141.39307-.94141.88086v.01367c0,.49463.37891.84668.96875.84668.60352,0,.96289-.39307.96289-.85352Z" fill="#ebebeb"/>
      <path d="m51.20508,106.99316c0-.22363.18164-.40674.39844-.40674h1.27441c.2168,0,.39941.18311.39941.40674,0,.2168-.18262.39941-.39941.39941h-1.27441c-.2168,0-.39844-.18262-.39844-.39941Z" fill="#ebebeb"/>
      <path d="m54.77344,105.10938l-.48828.14941c-.04688.01367-.1084.02051-.14844.02051-.19727,0-.36719-.16309-.36719-.35254,0-.17627.10938-.31152.27832-.35938l.71777-.22998c.16309-.04736.28516-.07471.40625-.07471h.01367c.23828,0,.41406.18311.41406.41309v4.01074c0,.23047-.18359.41357-.41406.41357-.22266,0-.41211-.18311-.41211-.41357v-3.57715Z" fill="#ebebeb"/>
      <path d="m57.44141,108.646c-.35938-.35889-.57617-.85352-.57617-1.80908v-.01318c0-1.44971.69141-2.58154,2.0332-2.58154.4873,0,.87305.12891,1.18555.33887.12891.08154.20996.18994.20996.35938,0,.2168-.18262.38574-.39941.38574-.0752,0-.14941-.02686-.21094-.06055-.25684-.16943-.49414-.26465-.8125-.26465-.70508,0-1.09766.63721-1.13867,1.50439.25098-.24414.57617-.47412,1.13867-.47412.91406,0,1.65234.54199,1.65234,1.49023v.01367c0,.94141-.76562,1.6123-1.76074,1.6123-.58301,0-1.00293-.18262-1.32129-.50146Zm2.25-1.07715v-.01318c0-.47461-.37988-.82715-.96875-.82715-.58984,0-.96289.37988-.96289.8335v.01367c0,.48096.39258.84717.98242.84717s.94922-.36621.94922-.854Z" fill="#ebebeb"/>
    </g>
    <g>
      <path d="m43.29199,47.42285v-.01318c0-1.34814,1.00879-2.45264,2.44531-2.45264.73145,0,1.21289.2168,1.62598.53516.08789.06787.16309.18311.16309.33203,0,.23047-.18359.40625-.41406.40625-.11523,0-.19629-.04053-.25-.08105-.3252-.26416-.67773-.42676-1.13184-.42676-.90137,0-1.56445.74512-1.56445,1.67334v.01367c0,.92822.65625,1.68018,1.56445,1.68018.50098,0,.83984-.1626,1.18555-.4541.06152-.0542.14941-.09473.25098-.09473.20996,0,.39258.17578.39258.38623,0,.12842-.06055.22998-.13574.29785-.44629.39307-.95508.63721-1.7207.63721-1.38184,0-2.41113-1.07715-2.41113-2.43945Z" fill="#ebebeb"/>
      <path d="m48.70898,45.41797c0-.23047.18262-.41357.41992-.41357.23047,0,.41309.18311.41309.41357v1.5918h2.2627v-1.5918c0-.23047.18262-.41357.41309-.41357.2373,0,.41992.18311.41992.41357v3.9834c0,.23047-.18262.41309-.41992.41309-.23047,0-.41309-.18262-.41309-.41309v-1.61914h-2.2627v1.61914c0,.23047-.18262.41309-.41309.41309-.2373,0-.41992-.18262-.41992-.41309v-3.9834Z" fill="#ebebeb"/>
      <path d="m53.71973,49.23877l1.76074-3.9292c.0957-.20996.26465-.33887.50195-.33887h.04004c.2373,0,.40039.12891.49512.33887l1.76172,3.9292c.0332.06104.04688.12207.04688.17627,0,.22363-.16895.39941-.39258.39941-.19629,0-.33203-.11523-.40625-.29102l-.38672-.8877h-2.30371l-.39941.91455c-.06738.16943-.20996.26416-.38574.26416-.2168,0-.38672-.16895-.38672-.38574,0-.06152.02051-.12207.05469-.18994Zm3.10254-1.34131l-.83301-1.91748-.83398,1.91748h1.66699Z" fill="#ebebeb"/>
      <path d="m59.36035,45.43115c0-.22998.18262-.41992.41992-.41992h.08789c.20312,0,.31836.10156.43359.24365l2.37109,3.06934v-2.91309c0-.22363.18262-.40674.40625-.40674.23047,0,.41406.18311.41406.40674v3.9834c0,.23047-.17676.41309-.40723.41309h-.0332c-.19727,0-.31836-.10156-.43359-.25049l-2.43945-3.15674v3.00781c0,.22363-.18262.40625-.40625.40625-.23047,0-.41309-.18262-.41309-.40625v-3.97705Z" fill="#ebebeb"/>
    </g>
    <g>
      <path d="m15.06738,20.44092c0-.53809.42578-.96338.96387-.96338h.21289c.41211,0,.7002.21289.875.50049l2.32812,3.7915,2.33984-3.80371c.2002-.32568.47461-.48828.86328-.48828h.21191c.53809,0,.96387.42529.96387.96338v6.95654c0,.53809-.42578.96387-.96387.96387-.52539,0-.9502-.43799-.9502-.96387v-4.36621l-1.68945,2.60254c-.2002.2998-.4502.48779-.80078.48779s-.60059-.18799-.80078-.48779l-1.66406-2.56543v4.35449c0,.52539-.42578.93848-.95117.93848s-.93848-.41309-.93848-.93848v-6.98193Z" fill="#ebebeb"/>
      <path d="m26.10059,27.32275v-6.83154c0-.53809.42578-.96387.96387-.96387h4.85449c.47559,0,.86328.38818.86328.86328,0,.47559-.3877.85107-.86328.85107h-3.90332v1.77686h3.33984c.47559,0,.86426.3877.86426.86328s-.38867.85059-.86426.85059h-3.33984v1.83984h3.96582c.47559,0,.86328.3877.86328.86328,0,.4751-.3877.85059-.86328.85059h-4.91699c-.53809,0-.96387-.42529-.96387-.96338Z" fill="#ebebeb"/>
      <path d="m34.60938,20.49121c0-.53809.42578-.96387.96387-.96387h3.04004c1.11426,0,1.97754.31299,2.55273.88867.48828.48779.75098,1.17578.75098,2.00195v.0249c0,1.37646-.68848,2.22705-1.75195,2.66504l1.33887,1.62646c.1875.23828.3125.43848.3125.73828,0,.53809-.4502.88867-.91309.88867-.43848,0-.72559-.21289-.95117-.50049l-1.87695-2.37744h-1.53906v1.91406c0,.53809-.4248.96387-.96289.96387s-.96387-.42578-.96387-.96387v-6.90625Zm3.87891,3.29053c.93848,0,1.47656-.50049,1.47656-1.23877v-.0249c0-.82568-.5752-1.25146-1.51367-1.25146h-1.91504v2.51514h1.95215Z" fill="#ebebeb"/>
      <path d="m43.28711,23.93164v-.0249c0-2.48975,1.93945-4.5293,4.5918-4.5293,1.32617,0,2.20215.30029,2.99023.85107.18848.1377.40039.40039.40039.77539,0,.52539-.4248.95117-.9502.95117-.27539,0-.45117-.1001-.58887-.2002-.52539-.37549-1.08789-.60059-1.91406-.60059-1.40137,0-2.51465,1.23828-2.51465,2.72754v.0249c0,1.60156,1.10059,2.77783,2.65234,2.77783.70117,0,1.32617-.17529,1.81445-.52539v-1.25146h-1.30176c-.46289,0-.83789-.36279-.83789-.82568s.375-.83838.83789-.83838h2.20215c.53809,0,.96387.42529.96387.96338v2.12695c0,.56348-.21289.95117-.67578,1.22656-.71289.4375-1.75195.87598-3.06543.87598-2.72754,0-4.60449-1.91455-4.60449-4.50488Z" fill="#ebebeb"/>
      <path d="m53.64648,27.32275v-6.83154c0-.53809.42578-.96387.96387-.96387h4.85449c.47559,0,.86328.38818.86328.86328,0,.47559-.3877.85107-.86328.85107h-3.90332v1.77686h3.34082c.47461,0,.86328.3877.86328.86328s-.38867.85059-.86328.85059h-3.34082v1.83984h3.96582c.47559,0,.86328.3877.86328.86328,0,.4751-.3877.85059-.86328.85059h-4.91699c-.53809,0-.96387-.42529-.96387-.96338Z" fill="#ebebeb"/>
    </g>
  </g>
</svg>