<?xml version="1.0" encoding="UTF-8" standalone="no"?>
<!-- Created with Inkscape (http://www.inkscape.org/) -->

<svg
   xmlns:dc="http://purl.org/dc/elements/1.1/"
   xmlns:cc="http://creativecommons.org/ns#"
   xmlns:rdf="http://www.w3.org/1999/02/22-rdf-syntax-ns#"
   xmlns:svg="http://www.w3.org/2000/svg"
   xmlns="http://www.w3.org/2000/svg"
   xmlns:sodipodi="http://sodipodi.sourceforge.net/DTD/sodipodi-0.dtd"
   xmlns:inkscape="http://www.inkscape.org/namespaces/inkscape"
   width="25.400002mm"
   height="128.49931mm"
   viewBox="0 0 25.400002 128.49931"
   version="1.1"
   id="svg55291"
   inkscape:version="0.92.4 5da689c313, 2019-01-14"
   sodipodi:docname="Merge.svg">
  <defs
     id="defs55285" />
  <sodipodi:namedview
     id="base"
     pagecolor="#ffffff"
     bordercolor="#666666"
     borderopacity="1.0"
     inkscape:pageopacity="0.0"
     inkscape:pageshadow="2"
     inkscape:zoom="1.4"
     inkscape:cx="7.6814361"
     inkscape:cy="247.89732"
     inkscape:document-units="mm"
     inkscape:current-layer="layer2"
     showgrid="false"
     fit-margin-top="0"
     fit-margin-left="0"
     fit-margin-right="0"
     fit-margin-bottom="0"
     inkscape:snap-bbox="true"
     inkscape:snap-bbox-midpoints="true"
     inkscape:snap-nodes="false"
     inkscape:window-width="1600"
     inkscape:window-height="882"
     inkscape:window-x="0"
     inkscape:window-y="18"
     inkscape:window-maximized="0"
     inkscape:snap-page="true"
     inkscape:bbox-nodes="true" />
  <metadata
     id="metadata55288">
    <rdf:RDF>
      <cc:Work
         rdf:about="">
        <dc:format>image/svg+xml</dc:format>
        <dc:type
           rdf:resource="http://purl.org/dc/dcmitype/StillImage" />
        <dc:title />
      </cc:Work>
    </rdf:RDF>
  </metadata>
  <g
     inkscape:label="Layer 1"
     inkscape:groupmode="layer"
     id="layer1"
     transform="translate(-32.735819,-42.454441)">
    <path
       inkscape:connector-curvature="0"
       style="fill:#e6e6e6;fill-opacity:1;fill-rule:nonzero;stroke:none;stroke-width:0.35277778"
       d="m 32.829521,42.548148 h 25.2126 V 170.86142 h -25.2126 z m 0,0"
       id="path29733" />
    <path
       inkscape:connector-curvature="0"
       style="fill:#ababab;fill-opacity:1;fill-rule:nonzero;stroke:none;stroke-width:0.35277778"
       d="m 58.135821,42.454441 h -25.4 V 170.95375 h 25.4 z M 57.948391,170.76773 H 32.923211 V 42.641854 h 25.02518 z m 0,0"
       id="path29735" />
    <path
       inkscape:connector-curvature="0"
       style="fill:#000000;fill-opacity:1;fill-rule:nonzero;stroke:none;stroke-width:0.35277778"
       d="m 46.006331,164.23444 c 0,0.22186 -0.17914,0.40101 -0.401,0.40101 -0.22049,0 -0.40104,-0.17914 -0.40104,-0.40101 0,-0.22049 0.18055,-0.40101 0.40104,-0.40101 0.22186,0 0.401,0.18052 0.401,0.40101"
       id="path29989" />
    <path
       inkscape:connector-curvature="0"
       style="fill:#000000;fill-opacity:1;fill-rule:nonzero;stroke:none;stroke-width:0.35277778"
       d="m 42.683871,165.56149 c -0.11712,0 -0.22461,-0.0662 -0.277,-0.17088 l -1.00182,-2.00504 c -0.0758,-0.15159 -0.0152,-0.33763 0.1378,-0.41342 0.15159,-0.0758 0.33764,-0.0152 0.41342,0.13781 l 0.7276,1.45383 0.72623,-1.45383 c 0.0758,-0.15296 0.26045,-0.2136 0.41342,-0.13781 0.15159,0.0758 0.21357,0.26183 0.13779,0.41342 l -1.00181,2.00504 c -0.0524,0.10473 -0.15988,0.17088 -0.27563,0.17088"
       id="path29991" />
    <path
       inkscape:connector-curvature="0"
       style="fill:#000000;fill-opacity:1;fill-rule:nonzero;stroke:none;stroke-width:0.35277778"
       d="m 48.189141,165.56149 c -0.11715,0 -0.22461,-0.0662 -0.27562,-0.17088 l -1.0032,-2.00504 c -0.0758,-0.15159 -0.0138,-0.33763 0.1378,-0.41342 0.15296,-0.0758 0.33761,-0.0152 0.4148,0.13781 l 0.72622,1.45383 0.72623,-1.45383 c 0.0758,-0.15296 0.26184,-0.2136 0.41339,-0.13781 0.15296,0.0758 0.21498,0.26183 0.13783,0.41342 l -1.00185,2.00504 c -0.0524,0.10473 -0.15847,0.17088 -0.2756,0.17088"
       id="path29993" />
    <path
       inkscape:connector-curvature="0"
       style="fill:#000000;fill-opacity:1;fill-rule:nonzero;stroke:none;stroke-width:0.35277778"
       d="m 45.586031,165.56149 c -0.72347,0 -1.31191,-0.58842 -1.31191,-1.3119 0,-0.72209 0.58844,-1.31051 1.31191,-1.31051 0.28526,0 0.5581,0.091 0.78684,0.26321 0.13504,0.10197 0.16263,0.29489 0.0606,0.43132 -0.10199,0.13643 -0.29489,0.16399 -0.43131,0.062 -0.12128,-0.091 -0.26458,-0.13918 -0.41617,-0.13918 -0.38312,0 -0.69455,0.31144 -0.69455,0.69315 0,0.3831 0.31143,0.69453 0.69455,0.69453 0.15159,0 0.29489,-0.0482 0.41617,-0.13918 0.13642,-0.10197 0.32932,-0.0744 0.43131,0.062 0.10198,0.13642 0.0744,0.32935 -0.0606,0.4327 -0.22874,0.17088 -0.50158,0.26183 -0.78684,0.26183"
       id="path29995" />
    <path
       inkscape:connector-curvature="0"
       style="fill:none;stroke:#000000;stroke-width:0.23495002;stroke-linecap:round;stroke-linejoin:round;stroke-miterlimit:10;stroke-opacity:1"
       d="M 39.506071,79.191559 V 156.50503"
       id="path43197" />
    <path
       inkscape:connector-curvature="0"
       style="fill:none;stroke:#000000;stroke-width:0.23495002;stroke-linecap:round;stroke-linejoin:round;stroke-miterlimit:10;stroke-opacity:1"
       d="M 51.011321,79.191559 V 156.50503"
       id="path43199" />
    <path
       inkscape:connector-curvature="0"
       style="fill:#000000;fill-opacity:1;stroke:none;stroke-width:0.35277778"
       d="m 49.048161,73.463396 c 0.46856,0 0.73865,-0.38585 0.73865,-0.937064 v -0.0055 c 0,-0.341751 -0.0772,-0.534677 -0.20394,-0.661455 -0.12679,-0.121269 -0.26459,-0.181907 -0.48508,-0.181907 -0.38036,0 -0.64494,0.259072 -0.64494,0.595316 v 0.0055 c 0,0.336243 0.24807,0.551217 0.61736,0.551217 0.18193,0 0.31422,-0.08268 0.40241,-0.181901 -0.0109,0.31419 -0.16538,0.540189 -0.41892,0.540189 -0.11578,0 -0.21499,-0.03305 -0.31422,-0.10473 -0.0275,-0.01654 -0.0496,-0.02755 -0.0827,-0.02755 -0.0827,0 -0.14334,0.06064 -0.14334,0.143317 0,0.05512 0.0275,0.09371 0.0662,0.121266 0.1323,0.0882 0.27563,0.143317 0.46853,0.143317 z m 0.0661,-0.887455 c -0.21495,0 -0.35278,-0.132292 -0.35278,-0.308679 v -0.0055 c 0,-0.181901 0.12679,-0.319707 0.34177,-0.319707 0.22049,0 0.35828,0.137806 0.35828,0.314196 v 0.0055 c 0,0.170879 -0.13229,0.314195 -0.34727,0.314195 z m 0,0"
       id="path52141" />
    <path
       inkscape:connector-curvature="0"
       style="fill:#000000;fill-opacity:1;stroke:none;stroke-width:0.35277778"
       d="m 50.320271,72.823988 h 0.46853 c 0.0772,0 0.14333,-0.06615 0.14333,-0.143317 0,-0.08268 -0.0661,-0.148825 -0.14333,-0.148825 h -0.46853 c -0.0772,0 -0.14329,0.06615 -0.14329,0.148825 0,0.07717 0.0662,0.143317 0.14329,0.143317 z m 0,0"
       id="path52133" />
    <path
       inkscape:connector-curvature="0"
       style="fill:#000000;fill-opacity:1;stroke:none;stroke-width:0.35277778"
       d="m 51.474041,73.298031 c 0,0.08269 0.0662,0.148831 0.14883,0.148831 0.0827,0 0.1488,-0.06615 0.1488,-0.148831 v -1.460717 c 0,-0.0882 -0.0606,-0.154342 -0.1488,-0.154342 h -0.006 c -0.0441,0 -0.0882,0.01101 -0.1488,0.02755 l -0.25908,0.08819 c -0.0606,0.01654 -0.10474,0.06615 -0.10474,0.12678 0,0.07166 0.0661,0.132292 0.13779,0.132292 0.0109,0 0.0332,-0.0055 0.0496,-0.01101 l 0.1819,-0.05512 z m 0,0"
       id="path52137" />
    <path
       inkscape:connector-curvature="0"
       style="fill:#000000;fill-opacity:1;stroke:none;stroke-width:0.35277778"
       d="m 52.923921,73.463396 c 0.36378,0 0.63941,-0.242533 0.63941,-0.584287 v -0.0055 c 0,-0.347268 -0.26459,-0.545705 -0.60085,-0.545705 -0.20395,0 -0.3252,0.0882 -0.41339,0.176389 0.0166,-0.319706 0.15984,-0.551214 0.41339,-0.551214 0.11578,0 0.20397,0.03305 0.29767,0.09922 0.0219,0.01101 0.0496,0.02204 0.0771,0.02204 0.0772,0 0.14333,-0.06063 0.14333,-0.143314 0,-0.06063 -0.0275,-0.09922 -0.0772,-0.132294 -0.11024,-0.07165 -0.25354,-0.121267 -0.42993,-0.121267 -0.49057,0 -0.73864,0.413417 -0.73864,0.942581 v 0.0055 c 0,0.347265 0.0772,0.523655 0.20947,0.655947 0.11575,0.115752 0.26459,0.181898 0.47957,0.181898 z m -0.006,-0.264583 c -0.21495,0 -0.35828,-0.132292 -0.35828,-0.308679 0,-0.165365 0.13229,-0.308682 0.34727,-0.308682 0.21499,0 0.35278,0.132292 0.35278,0.303171 v 0.0055 c 0,0.17639 -0.12679,0.308681 -0.34177,0.308681 z m 0,0"
       id="path52129" />
    <path
       inkscape:connector-curvature="0"
       style="fill:#000000;fill-opacity:1;stroke:none;stroke-width:0.35277778"
       d="m 38.089331,73.298031 c 0,0.08269 0.0661,0.148831 0.14883,0.148831 0.0827,0 0.14881,-0.06615 0.14881,-0.148831 v -1.460717 c 0,-0.0882 -0.0606,-0.154342 -0.14881,-0.154342 h -0.006 c -0.0441,0 -0.0882,0.01101 -0.1488,0.02755 l -0.25908,0.08819 c -0.0606,0.01654 -0.10474,0.06615 -0.10474,0.12678 0,0.07166 0.0661,0.132292 0.1378,0.132292 0.0109,0 0.0332,-0.0055 0.0496,-0.01101 l 0.18189,-0.05512 z m 0,0"
       id="path51929" />
    <path
       inkscape:connector-curvature="0"
       style="fill:#000000;fill-opacity:1;stroke:none;stroke-width:0.35277778"
       d="m 38.980371,72.823988 h 0.46853 c 0.0772,0 0.14333,-0.06615 0.14333,-0.143317 0,-0.08268 -0.0661,-0.148825 -0.14333,-0.148825 h -0.46853 c -0.0772,0 -0.14329,0.06615 -0.14329,0.148825 0,0.07717 0.0662,0.143317 0.14329,0.143317 z m 0,0"
       id="path51933" />
    <path
       inkscape:connector-curvature="0"
       style="fill:#000000;fill-opacity:1;stroke:none;stroke-width:0.35277778"
       d="m 40.586151,73.457887 c 0.38036,0 0.66146,-0.187415 0.66146,-0.496093 v -0.0055 c 0,-0.209462 -0.12125,-0.330729 -0.31419,-0.418925 0.14884,-0.07717 0.25358,-0.192924 0.25358,-0.38585 0,-0.270097 -0.25358,-0.468532 -0.60085,-0.468532 -0.34724,0 -0.60082,0.203949 -0.60082,0.468532 0,0.192926 0.11025,0.308682 0.25358,0.38585 -0.19293,0.08269 -0.30868,0.214977 -0.30868,0.424439 0,0.303165 0.28109,0.496094 0.65592,0.496094 z m 0,-1.019751 c -0.17639,0 -0.30868,-0.104728 -0.30868,-0.25907 0,-0.132292 0.12679,-0.242533 0.30868,-0.242533 0.18743,0 0.30868,0.110241 0.30868,0.242533 v 0.0055 c 0,0.148831 -0.13229,0.253561 -0.30868,0.253561 z m 0,0.766191 c -0.22599,0 -0.35828,-0.115756 -0.35828,-0.259072 v -0.0055 c 0,-0.154339 0.15434,-0.259072 0.35828,-0.259072 0.20397,0 0.36382,0.104733 0.36382,0.259072 v 0.0055 c 0,0.143316 -0.1378,0.259072 -0.36382,0.259072 z m 0,0"
       id="path51925" />
    <path
       inkscape:connector-curvature="0"
       style="fill:#000000;fill-opacity:1;stroke:none;stroke-width:0.35277778"
       d="m 37.849541,51.727433 c 0,0.176389 0.1378,0.319705 0.31419,0.319705 0.17639,0 0.31972,-0.143316 0.31972,-0.319705 v -1.471745 l 0.56776,0.865408 c 0.0661,0.104731 0.1488,0.165365 0.27009,0.165365 0.11574,0 0.20394,-0.06063 0.27009,-0.165365 l 0.57326,-0.881945 v 1.477258 c 0,0.181901 0.14333,0.330729 0.31972,0.330729 0.18189,0 0.32519,-0.148828 0.32519,-0.330729 v -2.35369 c 0,-0.181901 -0.1433,-0.325217 -0.32519,-0.325217 h -0.0717 c -0.13229,0 -0.22599,0.05512 -0.29213,0.165365 l -0.79375,1.289844 -0.78825,-1.284332 c -0.0551,-0.09922 -0.15434,-0.170877 -0.29214,-0.170877 h -0.0716 c -0.18189,0 -0.32522,0.143316 -0.32522,0.325217 z m 0,0"
       id="path51921" />
    <path
       inkscape:connector-curvature="0"
       style="fill:#000000;fill-opacity:1;stroke:none;stroke-width:0.35277778"
       d="m 41.906841,52.019577 h 1.65915 c 0.16538,0 0.29214,-0.12678 0.29214,-0.286632 0,-0.159852 -0.12676,-0.292144 -0.29214,-0.292144 h -1.33946 v -0.622873 h 1.13002 c 0.15984,0 0.29213,-0.12678 0.29213,-0.286632 0,-0.165365 -0.13229,-0.292145 -0.29213,-0.292145 h -1.13002 v -0.600824 h 1.32292 c 0.15987,0 0.29217,-0.12678 0.29217,-0.292144 0,-0.159853 -0.1323,-0.292144 -0.29217,-0.292144 h -1.64261 c -0.18189,0 -0.32522,0.148828 -0.32522,0.330729 v 2.309592 c 0,0.181901 0.14333,0.325217 0.32522,0.325217 z m 0,0"
       id="path51917" />
    <path
       inkscape:connector-curvature="0"
       style="fill:#000000;fill-opacity:1;stroke:none;stroke-width:0.35277778"
       d="m 44.460321,51.716409 c 0,0.181901 0.14333,0.330729 0.32522,0.330729 0.1819,0 0.32523,-0.148828 0.32523,-0.330729 v -0.644922 h 0.51812 l 0.63391,0.804774 c 0.0772,0.09922 0.17639,0.170877 0.32523,0.170877 0.15434,0 0.30868,-0.121268 0.30868,-0.303169 0,-0.09922 -0.0441,-0.170876 -0.10474,-0.248047 l -0.45202,-0.551215 c 0.35832,-0.148828 0.58981,-0.43546 0.58981,-0.903993 v -0.0055 c 0,-0.28112 -0.0882,-0.51263 -0.25354,-0.677995 -0.19293,-0.192929 -0.48507,-0.303172 -0.86543,-0.303172 h -1.02525 c -0.18189,0 -0.32522,0.148828 -0.32522,0.330729 z m 0.65045,-1.218186 v -0.854384 h 0.64491 c 0.31969,0 0.51263,0.143316 0.51263,0.424436 v 0.0055 c 0,0.253559 -0.1819,0.424436 -0.49608,0.424436 z m 0,0"
       id="path51913" />
    <path
       inkscape:connector-curvature="0"
       style="fill:#000000;fill-opacity:1;stroke:none;stroke-width:0.35277778"
       d="m 48.949141,52.069186 c 0.44647,0 0.79925,-0.148828 1.03628,-0.297656 0.15984,-0.08819 0.23149,-0.220486 0.23149,-0.413411 v -0.71658 c 0,-0.181901 -0.1433,-0.33073 -0.32522,-0.33073 h -0.74412 c -0.15988,0 -0.28663,0.132292 -0.28663,0.286633 0,0.15434 0.12675,0.281119 0.28663,0.281119 h 0.44097 v 0.418924 c -0.16538,0.121267 -0.38036,0.181901 -0.61736,0.181901 -0.52366,0 -0.89849,-0.396875 -0.89849,-0.942578 v -0.0055 c 0,-0.507118 0.38033,-0.926042 0.85439,-0.926042 0.2756,0 0.46853,0.07717 0.64492,0.20395 0.0496,0.03307 0.10474,0.06615 0.19844,0.06615 0.18189,0 0.32522,-0.143316 0.32522,-0.319705 0,-0.12678 -0.0717,-0.214974 -0.13783,-0.264583 -0.26458,-0.181902 -0.56222,-0.286632 -1.00869,-0.286632 -0.8985,0 -1.55445,0.689019 -1.55445,1.532378 v 0.01103 c 0,0.876433 0.6339,1.521354 1.55445,1.521354 z m 0,0"
       id="path51909" />
    <path
       inkscape:connector-curvature="0"
       style="fill:#000000;fill-opacity:1;stroke:none;stroke-width:0.35277778"
       d="m 51.225641,52.019577 h 1.65915 c 0.16539,0 0.29214,-0.12678 0.29214,-0.286632 0,-0.159852 -0.12675,-0.292144 -0.29214,-0.292144 h -1.33946 v -0.622873 h 1.13002 c 0.15984,0 0.29213,-0.12678 0.29213,-0.286632 0,-0.165365 -0.13229,-0.292145 -0.29213,-0.292145 h -1.13002 v -0.600824 h 1.32292 c 0.15988,0 0.29217,-0.12678 0.29217,-0.292144 0,-0.159853 -0.13229,-0.292144 -0.29217,-0.292144 h -1.64261 c -0.18189,0 -0.32522,0.148828 -0.32522,0.330729 v 2.309592 c 0,0.181901 0.14333,0.325217 0.32522,0.325217 z m 0,0"
       id="path51905" />
    <path
       inkscape:connector-curvature="0"
       style="fill:#000000;fill-opacity:1;fill-rule:nonzero;stroke:none;stroke-width:0.35277778"
       d="m 56.325081,55.57061 c 0,-0.549836 -0.44926,-1.000457 -0.9991,-1.000457 h -20.13451 c -0.54984,0 -1.00044,0.450621 -1.00044,1.000457 v 11.999955 c 0,0.54984 0.4506,1.000457 1.00044,1.000457 h 20.13451 c 0.54984,0 0.9991,-0.450617 0.9991,-1.000457 z m 0,0"
       id="path43521" />
    <path
       inkscape:connector-curvature="0"
       style="fill:#ffffff;fill-opacity:1;stroke:none;stroke-width:0.35277778"
       d="m 36.451871,57.569107 c 0,0.09922 0.0772,0.176389 0.17639,0.176389 0.0992,0 0.17639,-0.07717 0.17639,-0.176389 v -0.314195 h 0.27009 c 0.35828,0 0.64491,-0.192924 0.64491,-0.56775 v -0.0055 c 0,-0.325216 -0.23149,-0.551216 -0.61185,-0.551216 h -0.47954 c -0.0992,0 -0.17639,0.07717 -0.17639,0.176389 z m 0.35278,-0.628386 v -0.490583 h 0.27559 c 0.17639,0 0.28664,0.08268 0.28664,0.242534 v 0.0055 c 0,0.137802 -0.10475,0.242535 -0.28113,0.242535 z m 0,0"
       id="path51901" />
    <path
       inkscape:connector-curvature="0"
       style="fill:#ffffff;fill-opacity:1;stroke:none;stroke-width:0.35277778"
       d="m 38.838281,57.76203 c 0.49607,0 0.85989,-0.374826 0.85989,-0.832333 0,-0.457511 -0.35828,-0.826823 -0.85439,-0.826823 -0.49608,0 -0.85439,0.374826 -0.85439,0.826823 v 0.0055 c 0,0.45751 0.35831,0.826823 0.84889,0.826823 z m 0.006,-0.325215 c -0.28113,0 -0.48507,-0.231511 -0.48507,-0.507118 0,-0.275608 0.19843,-0.501608 0.47956,-0.501608 0.28663,0 0.49057,0.226 0.49057,0.501608 v 0.0055 c 0,0.275608 -0.19843,0.501608 -0.48506,0.501608 z m 0,0"
       id="path51897" />
    <path
       inkscape:connector-curvature="0"
       style="fill:#ffffff;fill-opacity:1;stroke:none;stroke-width:0.35277778"
       d="m 40.085421,57.558082 c 0,0.09922 0.0772,0.176389 0.17638,0.176389 h 0.83231 c 0.0882,0 0.15988,-0.07166 0.15988,-0.159854 0,-0.0882 -0.0717,-0.159851 -0.15988,-0.159851 h -0.65592 v -1.124479 c 0,-0.09922 -0.0772,-0.176389 -0.17639,-0.176389 -0.0992,0 -0.17638,0.07717 -0.17638,0.176389 z m 0,0"
       id="path51889" />
    <path
       inkscape:connector-curvature="0"
       style="fill:#ffffff;fill-opacity:1;stroke:none;stroke-width:0.35277778"
       d="m 41.786261,57.569107 c 0,0.09922 0.0772,0.176389 0.17639,0.176389 0.0992,0 0.17639,-0.07717 0.17639,-0.176389 v -0.463021 l 0.51813,-0.694532 c 0.0219,-0.03305 0.0441,-0.07717 0.0441,-0.126781 0,-0.0937 -0.0606,-0.170875 -0.17089,-0.170875 -0.0717,0 -0.12675,0.03858 -0.17085,0.104729 l -0.39137,0.567754 -0.39137,-0.56224 c -0.0441,-0.06615 -0.0937,-0.110243 -0.17638,-0.110243 -0.0992,0 -0.17639,0.07717 -0.17639,0.170875 0,0.04961 0.0166,0.09371 0.0441,0.126781 l 0.51816,0.705556 z m 0,0"
       id="path51893" />
    <path
       inkscape:connector-curvature="0"
       style="fill:#ffffff;fill-opacity:1;stroke:none;stroke-width:0.35277778"
       d="m 48.371531,57.76203 c 0.25908,0 0.42997,-0.08268 0.5788,-0.214972 0.0275,-0.02205 0.0496,-0.06064 0.0496,-0.09922 0,-0.07166 -0.0662,-0.132292 -0.13779,-0.132292 -0.0332,0 -0.0606,0.01101 -0.0827,0.03306 -0.11575,0.09922 -0.23153,0.15434 -0.40238,0.15434 -0.30318,0 -0.52917,-0.259073 -0.52917,-0.573264 0,-0.314194 0.22599,-0.567753 0.52917,-0.567753 0.15434,0 0.27559,0.05512 0.38583,0.143316 0.0166,0.01654 0.0441,0.02755 0.0827,0.02755 0.0772,0 0.1433,-0.06064 0.1433,-0.137805 0,-0.04961 -0.0275,-0.0882 -0.0551,-0.110243 -0.14333,-0.110243 -0.30318,-0.181899 -0.55121,-0.181899 -0.48507,0 -0.82685,0.374826 -0.82685,0.826822 v 0.0055 c 0,0.463021 0.34728,0.826823 0.8158,0.826823 z m 0,0"
       id="path51873" />
    <path
       inkscape:connector-curvature="0"
       style="fill:#ffffff;fill-opacity:1;stroke:none;stroke-width:0.35277778"
       d="m 49.386121,57.60769 c 0,0.07717 0.0661,0.137806 0.14333,0.137806 0.0771,0 0.1433,-0.06064 0.1433,-0.137806 v -0.551216 h 0.7662 v 0.551216 c 0,0.07717 0.0606,0.137806 0.1378,0.137806 0.0772,0 0.14333,-0.06064 0.14333,-0.137806 v -1.350476 c 0,-0.07717 -0.0662,-0.137806 -0.14333,-0.137806 -0.0772,0 -0.1378,0.06064 -0.1378,0.137806 v 0.540191 h -0.7662 v -0.540191 c 0,-0.07717 -0.0662,-0.137806 -0.1433,-0.137806 -0.0772,0 -0.14333,0.06064 -0.14333,0.137806 z m 0,0"
       id="path51861" />
    <path
       inkscape:connector-curvature="0"
       style="fill:#ffffff;fill-opacity:1;stroke:none;stroke-width:0.35277778"
       d="m 51.064571,57.613204 c 0,0.07717 0.0606,0.132292 0.13229,0.132292 0.0606,0 0.11024,-0.03306 0.13229,-0.0882 l 0.13229,-0.308681 h 0.78274 l 0.1323,0.297657 c 0.0219,0.06063 0.0662,0.09922 0.13779,0.09922 0.0716,0 0.13229,-0.06064 0.13229,-0.132292 0,-0.02205 -0.006,-0.0441 -0.0166,-0.06064 l -0.59531,-1.333941 c -0.0332,-0.06615 -0.0882,-0.110243 -0.17088,-0.110243 h -0.0109 c -0.0827,0 -0.1378,0.0441 -0.17089,0.110243 l -0.59531,1.333941 c -0.0109,0.02205 -0.0219,0.0441 -0.0219,0.06064 z m 0.50712,-0.518143 0.28112,-0.644923 0.28113,0.644923 z m 0,0"
       id="path51865" />
    <path
       inkscape:connector-curvature="0"
       style="fill:#ffffff;fill-opacity:1;stroke:none;stroke-width:0.35277778"
       d="m 52.993131,57.60769 c 0,0.07717 0.0661,0.137806 0.14334,0.137806 0.0771,0 0.13779,-0.06064 0.13779,-0.137806 v -1.019747 l 0.8268,1.069358 c 0.0386,0.04961 0.0772,0.0882 0.14334,0.0882 h 0.0109 c 0.0772,0 0.13783,-0.06615 0.13783,-0.143317 v -1.344965 c 0,-0.07717 -0.0606,-0.137806 -0.13783,-0.137806 -0.0772,0 -0.13779,0.06064 -0.13779,0.137806 v 0.986674 l -0.80476,-1.041795 c -0.0386,-0.04961 -0.0772,-0.08268 -0.14333,-0.08268 h -0.0332 c -0.0772,0 -0.14334,0.06615 -0.14334,0.143316 z m 0,0"
       id="path51869" />
  </g>
  <g
     inkscape:groupmode="layer"
     id="layer2"
     inkscape:label="widgets"
     style="display:none">
    <circle
       style="opacity:1;vector-effect:none;fill:#00ff00;fill-opacity:1;fill-rule:evenodd;stroke:none;stroke-width:0.69999999;stroke-linecap:butt;stroke-linejoin:miter;stroke-miterlimit:4;stroke-dasharray:none;stroke-dashoffset:0;stroke-opacity:1;paint-order:normal"
       id="path55819"
       cx="6.7709875"
       cy="37.020309"
       r="2" />
    <circle
       r="2"
       cy="37.020309"
       cx="18.27486"
       id="circle60329"
       style="opacity:1;vector-effect:none;fill:#00ff00;fill-opacity:1;fill-rule:evenodd;stroke:none;stroke-width:0.69999999;stroke-linecap:butt;stroke-linejoin:miter;stroke-miterlimit:4;stroke-dasharray:none;stroke-dashoffset:0;stroke-opacity:1;paint-order:normal" />
    <circle
       r="2"
       cy="48.019806"
       cx="6.7709875"
       id="circle60331"
       style="opacity:1;vector-effect:none;fill:#00ff00;fill-opacity:1;fill-rule:evenodd;stroke:none;stroke-width:0.69999999;stroke-linecap:butt;stroke-linejoin:miter;stroke-miterlimit:4;stroke-dasharray:none;stroke-dashoffset:0;stroke-opacity:1;paint-order:normal" />
    <circle
       style="opacity:1;vector-effect:none;fill:#00ff00;fill-opacity:1;fill-rule:evenodd;stroke:none;stroke-width:0.69999999;stroke-linecap:butt;stroke-linejoin:miter;stroke-miterlimit:4;stroke-dasharray:none;stroke-dashoffset:0;stroke-opacity:1;paint-order:normal"
       id="circle60333"
       cx="18.27486"
       cy="48.019806"
       r="2" />
    <circle
       style="opacity:1;vector-effect:none;fill:#00ff00;fill-opacity:1;fill-rule:evenodd;stroke:none;stroke-width:0.69999999;stroke-linecap:butt;stroke-linejoin:miter;stroke-miterlimit:4;stroke-dasharray:none;stroke-dashoffset:0;stroke-opacity:1;paint-order:normal"
       id="circle60335"
       cx="6.7702994"
       cy="59.019997"
       r="2" />
    <circle
       r="2"
       cy="59.019997"
       cx="18.274172"
       id="circle60337"
       style="opacity:1;vector-effect:none;fill:#00ff00;fill-opacity:1;fill-rule:evenodd;stroke:none;stroke-width:0.69999999;stroke-linecap:butt;stroke-linejoin:miter;stroke-miterlimit:4;stroke-dasharray:none;stroke-dashoffset:0;stroke-opacity:1;paint-order:normal" />
    <circle
       r="2"
       cy="70.020195"
       cx="6.7702994"
       id="circle60339"
       style="opacity:1;vector-effect:none;fill:#00ff00;fill-opacity:1;fill-rule:evenodd;stroke:none;stroke-width:0.69999999;stroke-linecap:butt;stroke-linejoin:miter;stroke-miterlimit:4;stroke-dasharray:none;stroke-dashoffset:0;stroke-opacity:1;paint-order:normal" />
    <circle
       style="opacity:1;vector-effect:none;fill:#00ff00;fill-opacity:1;fill-rule:evenodd;stroke:none;stroke-width:0.69999999;stroke-linecap:butt;stroke-linejoin:miter;stroke-miterlimit:4;stroke-dasharray:none;stroke-dashoffset:0;stroke-opacity:1;paint-order:normal"
       id="circle60341"
       cx="18.274172"
       cy="70.020195"
       r="2" />
    <circle
       style="opacity:1;vector-effect:none;fill:#00ff00;fill-opacity:1;fill-rule:evenodd;stroke:none;stroke-width:0.69999999;stroke-linecap:butt;stroke-linejoin:miter;stroke-miterlimit:4;stroke-dasharray:none;stroke-dashoffset:0;stroke-opacity:1;paint-order:normal"
       id="circle60343"
       cx="6.7702994"
       cy="81.020378"
       r="2" />
    <circle
       r="2"
       cy="81.020378"
       cx="18.274172"
       id="circle60345"
       style="opacity:1;vector-effect:none;fill:#00ff00;fill-opacity:1;fill-rule:evenodd;stroke:none;stroke-width:0.69999999;stroke-linecap:butt;stroke-linejoin:miter;stroke-miterlimit:4;stroke-dasharray:none;stroke-dashoffset:0;stroke-opacity:1;paint-order:normal" />
    <circle
       r="2"
       cy="92.019882"
       cx="6.7702994"
       id="circle60347"
       style="opacity:1;vector-effect:none;fill:#00ff00;fill-opacity:1;fill-rule:evenodd;stroke:none;stroke-width:0.69999999;stroke-linecap:butt;stroke-linejoin:miter;stroke-miterlimit:4;stroke-dasharray:none;stroke-dashoffset:0;stroke-opacity:1;paint-order:normal" />
    <circle
       style="opacity:1;vector-effect:none;fill:#00ff00;fill-opacity:1;fill-rule:evenodd;stroke:none;stroke-width:0.69999999;stroke-linecap:butt;stroke-linejoin:miter;stroke-miterlimit:4;stroke-dasharray:none;stroke-dashoffset:0;stroke-opacity:1;paint-order:normal"
       id="circle60349"
       cx="18.274172"
       cy="92.019882"
       r="2" />
    <circle
       style="opacity:1;vector-effect:none;fill:#00ff00;fill-opacity:1;fill-rule:evenodd;stroke:none;stroke-width:0.69999999;stroke-linecap:butt;stroke-linejoin:miter;stroke-miterlimit:4;stroke-dasharray:none;stroke-dashoffset:0;stroke-opacity:1;paint-order:normal"
       id="circle60351"
       cx="6.7709875"
       cy="103.02007"
       r="2" />
    <circle
       r="2"
       cy="103.02007"
       cx="18.27486"
       id="circle60353"
       style="opacity:1;vector-effect:none;fill:#00ff00;fill-opacity:1;fill-rule:evenodd;stroke:none;stroke-width:0.69999999;stroke-linecap:butt;stroke-linejoin:miter;stroke-miterlimit:4;stroke-dasharray:none;stroke-dashoffset:0;stroke-opacity:1;paint-order:normal" />
    <circle
       r="2"
       cy="114.02026"
       cx="6.7709875"
       id="circle60355"
       style="opacity:1;vector-effect:none;fill:#00ff00;fill-opacity:1;fill-rule:evenodd;stroke:none;stroke-width:0.69999999;stroke-linecap:butt;stroke-linejoin:miter;stroke-miterlimit:4;stroke-dasharray:none;stroke-dashoffset:0;stroke-opacity:1;paint-order:normal" />
    <circle
       style="opacity:1;vector-effect:none;fill:#00ff00;fill-opacity:1;fill-rule:evenodd;stroke:none;stroke-width:0.69999999;stroke-linecap:butt;stroke-linejoin:miter;stroke-miterlimit:4;stroke-dasharray:none;stroke-dashoffset:0;stroke-opacity:1;paint-order:normal"
       id="circle60357"
       cx="18.27486"
       cy="114.02026"
       r="2" />
    <circle
       r="2"
       cy="21.347191"
       cx="6.7702994"
       id="circle60359"
       style="opacity:1;vector-effect:none;fill:#0000ff;fill-opacity:1;fill-rule:evenodd;stroke:none;stroke-width:0.69999999;stroke-linecap:butt;stroke-linejoin:miter;stroke-miterlimit:4;stroke-dasharray:none;stroke-dashoffset:0;stroke-opacity:1;paint-order:normal" />
    <circle
       style="opacity:1;vector-effect:none;fill:#ff00ff;fill-opacity:1;fill-rule:evenodd;stroke:none;stroke-width:0.175;stroke-linecap:butt;stroke-linejoin:miter;stroke-miterlimit:4;stroke-dasharray:none;stroke-dashoffset:0;stroke-opacity:1;paint-order:normal"
       id="circle60361"
       cx="15.275506"
       cy="17.775314"
       r="0.5" />
    <circle
       r="0.5"
       cy="17.775314"
       cx="17.27504"
       id="circle60363"
       style="opacity:1;vector-effect:none;fill:#ff00ff;fill-opacity:1;fill-rule:evenodd;stroke:none;stroke-width:0.175;stroke-linecap:butt;stroke-linejoin:miter;stroke-miterlimit:4;stroke-dasharray:none;stroke-dashoffset:0;stroke-opacity:1;paint-order:normal" />
    <circle
       style="opacity:1;vector-effect:none;fill:#ff00ff;fill-opacity:1;fill-rule:evenodd;stroke:none;stroke-width:0.175;stroke-linecap:butt;stroke-linejoin:miter;stroke-miterlimit:4;stroke-dasharray:none;stroke-dashoffset:0;stroke-opacity:1;paint-order:normal"
       id="circle60365"
       cx="19.27527"
       cy="17.775314"
       r="0.5" />
    <circle
       r="0.5"
       cy="17.775314"
       cx="21.275494"
       id="circle60367"
       style="opacity:1;vector-effect:none;fill:#ff00ff;fill-opacity:1;fill-rule:evenodd;stroke:none;stroke-width:0.175;stroke-linecap:butt;stroke-linejoin:miter;stroke-miterlimit:4;stroke-dasharray:none;stroke-dashoffset:0;stroke-opacity:1;paint-order:normal" />
    <circle
       r="0.5"
       cy="19.774849"
       cx="15.275506"
       id="circle60369"
       style="opacity:1;vector-effect:none;fill:#ff00ff;fill-opacity:1;fill-rule:evenodd;stroke:none;stroke-width:0.175;stroke-linecap:butt;stroke-linejoin:miter;stroke-miterlimit:4;stroke-dasharray:none;stroke-dashoffset:0;stroke-opacity:1;paint-order:normal" />
    <circle
       style="opacity:1;vector-effect:none;fill:#ff00ff;fill-opacity:1;fill-rule:evenodd;stroke:none;stroke-width:0.175;stroke-linecap:butt;stroke-linejoin:miter;stroke-miterlimit:4;stroke-dasharray:none;stroke-dashoffset:0;stroke-opacity:1;paint-order:normal"
       id="circle60371"
       cx="17.27504"
       cy="19.774849"
       r="0.5" />
    <circle
       r="0.5"
       cy="19.774849"
       cx="19.27527"
       id="circle60373"
       style="opacity:1;vector-effect:none;fill:#ff00ff;fill-opacity:1;fill-rule:evenodd;stroke:none;stroke-width:0.175;stroke-linecap:butt;stroke-linejoin:miter;stroke-miterlimit:4;stroke-dasharray:none;stroke-dashoffset:0;stroke-opacity:1;paint-order:normal" />
    <circle
       style="opacity:1;vector-effect:none;fill:#ff00ff;fill-opacity:1;fill-rule:evenodd;stroke:none;stroke-width:0.175;stroke-linecap:butt;stroke-linejoin:miter;stroke-miterlimit:4;stroke-dasharray:none;stroke-dashoffset:0;stroke-opacity:1;paint-order:normal"
       id="circle60375"
       cx="21.275494"
       cy="19.774849"
       r="0.5" />
    <circle
       style="opacity:1;vector-effect:none;fill:#ff00ff;fill-opacity:1;fill-rule:evenodd;stroke:none;stroke-width:0.175;stroke-linecap:butt;stroke-linejoin:miter;stroke-miterlimit:4;stroke-dasharray:none;stroke-dashoffset:0;stroke-opacity:1;paint-order:normal"
       id="circle60377"
       cx="15.275561"
       cy="21.775072"
       r="0.5" />
    <circle
       r="0.5"
       cy="21.775072"
       cx="17.275095"
       id="circle60379"
       style="opacity:1;vector-effect:none;fill:#ff00ff;fill-opacity:1;fill-rule:evenodd;stroke:none;stroke-width:0.175;stroke-linecap:butt;stroke-linejoin:miter;stroke-miterlimit:4;stroke-dasharray:none;stroke-dashoffset:0;stroke-opacity:1;paint-order:normal" />
    <circle
       style="opacity:1;vector-effect:none;fill:#ff00ff;fill-opacity:1;fill-rule:evenodd;stroke:none;stroke-width:0.175;stroke-linecap:butt;stroke-linejoin:miter;stroke-miterlimit:4;stroke-dasharray:none;stroke-dashoffset:0;stroke-opacity:1;paint-order:normal"
       id="circle60381"
       cx="19.275326"
       cy="21.775072"
       r="0.5" />
    <circle
       r="0.5"
       cy="21.775072"
       cx="21.275549"
       id="circle60383"
       style="opacity:1;vector-effect:none;fill:#ff00ff;fill-opacity:1;fill-rule:evenodd;stroke:none;stroke-width:0.175;stroke-linecap:butt;stroke-linejoin:miter;stroke-miterlimit:4;stroke-dasharray:none;stroke-dashoffset:0;stroke-opacity:1;paint-order:normal" />
    <circle
       r="0.5"
       cy="23.775293"
       cx="15.275561"
       id="circle60385"
       style="opacity:1;vector-effect:none;fill:#ff00ff;fill-opacity:1;fill-rule:evenodd;stroke:none;stroke-width:0.175;stroke-linecap:butt;stroke-linejoin:miter;stroke-miterlimit:4;stroke-dasharray:none;stroke-dashoffset:0;stroke-opacity:1;paint-order:normal" />
    <circle
       style="opacity:1;vector-effect:none;fill:#ff00ff;fill-opacity:1;fill-rule:evenodd;stroke:none;stroke-width:0.175;stroke-linecap:butt;stroke-linejoin:miter;stroke-miterlimit:4;stroke-dasharray:none;stroke-dashoffset:0;stroke-opacity:1;paint-order:normal"
       id="circle60387"
       cx="17.275095"
       cy="23.775293"
       r="0.5" />
    <circle
       r="0.5"
       cy="23.775293"
       cx="19.275326"
       id="circle60389"
       style="opacity:1;vector-effect:none;fill:#ff00ff;fill-opacity:1;fill-rule:evenodd;stroke:none;stroke-width:0.175;stroke-linecap:butt;stroke-linejoin:miter;stroke-miterlimit:4;stroke-dasharray:none;stroke-dashoffset:0;stroke-opacity:1;paint-order:normal" />
    <circle
       style="opacity:1;vector-effect:none;fill:#ff00ff;fill-opacity:1;fill-rule:evenodd;stroke:none;stroke-width:0.175;stroke-linecap:butt;stroke-linejoin:miter;stroke-miterlimit:4;stroke-dasharray:none;stroke-dashoffset:0;stroke-opacity:1;paint-order:normal"
       id="circle60391"
       cx="21.275549"
       cy="23.775293"
       r="0.5" />
  </g>
</svg>
