<?xml version="1.0" encoding="UTF-8" standalone="no"?>
<svg
   xmlns:dc="http://purl.org/dc/elements/1.1/"
   xmlns:cc="http://creativecommons.org/ns#"
   xmlns:rdf="http://www.w3.org/1999/02/22-rdf-syntax-ns#"
   xmlns:svg="http://www.w3.org/2000/svg"
   xmlns="http://www.w3.org/2000/svg"
   xmlns:sodipodi="http://sodipodi.sourceforge.net/DTD/sodipodi-0.dtd"
   xmlns:inkscape="http://www.inkscape.org/namespaces/inkscape"
   width="75"
   height="380"
   viewBox="0 0 75 380"
   version="1.1"
   id="svg132"
   sodipodi:docname="MERGE.svg"
   inkscape:version="0.92.3 (2405546, 2018-03-11)">
  <metadata
     id="metadata136">
    <rdf:RDF>
      <cc:Work
         rdf:about="">
        <dc:format>image/svg+xml</dc:format>
        <dc:type
           rdf:resource="http://purl.org/dc/dcmitype/StillImage" />
      </cc:Work>
    </rdf:RDF>
  </metadata>
  <sodipodi:namedview
     pagecolor="#ffffff"
     bordercolor="#666666"
     borderopacity="1"
     objecttolerance="10"
     gridtolerance="10"
     guidetolerance="10"
     inkscape:pageopacity="0"
     inkscape:pageshadow="2"
     inkscape:window-width="716"
     inkscape:window-height="480"
     id="namedview134"
     showgrid="false"
     inkscape:zoom="0.62105263"
     inkscape:cx="37.5"
     inkscape:cy="190"
     inkscape:window-x="0"
     inkscape:window-y="0"
     inkscape:window-maximized="0"
     inkscape:current-layer="svg132" />
  <defs
     id="defs7">
    <linearGradient
       id="f70f6fb2-de46-4cef-bd00-17d002639a4b"
       x1="37.5"
       x2="37.5"
       y2="380"
       gradientUnits="userSpaceOnUse">
      <stop
         offset="0"
         stop-color="#ebebeb"
         id="stop2" />
      <stop
         offset="1"
         stop-color="#e1e1e1"
         id="stop4" />
    </linearGradient>
  </defs>
  <g
     id="f39dfd3f-f470-46a6-8d6e-edc86f15578f"
     data-name="FND BG">
    <rect
       width="75"
       height="380"
       fill="url(#f70f6fb2-de46-4cef-bd00-17d002639a4b)"
       id="rect9" />
  </g>
  <g
     id="e9d47279-8934-4a3b-af96-dc823b81022b"
     data-name="FND GRAPH">
    <rect
       x="7.22423"
       y="40"
       width="28.55155"
       height="39.15691"
       rx="2.83465"
       fill="#1f1f1f"
       id="rect12" />
    <g
       id="g22">
      <circle
         cx="37.99958"
         cy="356.2678"
         r="1.18571"
         fill="#1f1f1f"
         id="circle14" />
      <path
         d="M29.3572,360.18977a.91213.91213,0,0,1-.8158-.50419L25.57712,353.757a.91209.91209,0,0,1,1.6316-.8158l2.14848,4.297,2.14848-4.297a.91209.91209,0,0,1,1.6316.8158L30.173,359.68558A.91212.91212,0,0,1,29.3572,360.18977Z"
         fill="#1f1f1f"
         id="path16" />
      <path
         d="M45.63866,360.18977a.91213.91213,0,0,1-.81581-.50419L41.85857,353.757a.9121.9121,0,0,1,1.63161-.8158l2.14848,4.297,2.14848-4.297a.91209.91209,0,0,1,1.6316.8158l-2.96428,5.92856A.91213.91213,0,0,1,45.63866,360.18977Z"
         fill="#1f1f1f"
         id="path18" />
      <path
         d="M37.94034,360.18977a3.87637,3.87637,0,1,1,2.32654-6.9772.91209.91209,0,1,1-1.09558,1.45854,2.03393,2.03393,0,0,0-1.231-.4099,2.05219,2.05219,0,1,0,0,4.10438,2.03393,2.03393,0,0,0,1.231-.4099.91209.91209,0,1,1,1.09558,1.45854A3.8449,3.8449,0,0,1,37.94034,360.18977Z"
         fill="#1f1f1f"
         id="path20" />
    </g>
    <g
       id="g32">
      <circle
         cx="38.00165"
         cy="356.26785"
         r="1.18571"
         fill="#1f1f1f"
         id="circle24" />
      <path
         d="M29.35927,360.18982a.91213.91213,0,0,1-.8158-.50419l-2.96428-5.92856a.91209.91209,0,0,1,1.6316-.8158l2.14848,4.297,2.14848-4.297a.91209.91209,0,0,1,1.6316.8158l-2.96428,5.92856A.91211.91211,0,0,1,29.35927,360.18982Z"
         fill="#1f1f1f"
         id="path26" />
      <path
         d="M45.64073,360.18982a.91211.91211,0,0,1-.8158-.50419l-2.96428-5.92856a.91209.91209,0,0,1,1.6316-.8158l2.14848,4.297,2.14848-4.297a.91209.91209,0,0,1,1.6316.8158l-2.96428,5.92856A.91213.91213,0,0,1,45.64073,360.18982Z"
         fill="#1f1f1f"
         id="path28" />
      <path
         d="M37.94242,360.18982a3.87637,3.87637,0,1,1,2.32653-6.9772.91209.91209,0,1,1-1.09557,1.45854,2.034,2.034,0,0,0-1.231-.4099,2.05219,2.05219,0,1,0,0,4.10438,2.034,2.034,0,0,0,1.231-.4099.91209.91209,0,1,1,1.09557,1.45854A3.84487,3.84487,0,0,1,37.94242,360.18982Z"
         fill="#1f1f1f"
         id="path30" />
    </g>
    <line
       x1="21.50001"
       y1="126.0243"
       x2="21.50001"
       y2="333.86598"
       fill="none"
       stroke="#1f1f1f"
       stroke-linecap="round"
       stroke-linejoin="round"
       stroke-width="0.8"
       id="line34" />
    <line
       x1="53.50001"
       y1="129.93474"
       x2="53.50001"
       y2="337.77642"
       fill="none"
       stroke="#1f1f1f"
       stroke-linecap="round"
       stroke-linejoin="round"
       stroke-width="0.8"
       id="line36" />
  </g>
  <g
     id="fce6fea8-341f-4162-88dc-70aea572a25b"
     data-name="FND TXT">
    <g
       id="g51">
      <path
         d="M18.19531,89.23877a.51443.51443,0,0,1,.51758-.51758h.10742a.53954.53954,0,0,1,.47657.27539l1.76953,2.771,1.77734-2.7793a.51857.51857,0,0,1,.46777-.26709h.1084a.515.515,0,0,1,.51758.51758v4.89111a.5077.5077,0,0,1-.51758.50879.517.517,0,0,1-.50976-.50879V90.624L21.4834,92.76953a.47955.47955,0,0,1-.85938,0l-1.41894-2.12891v3.49756a.499.499,0,0,1-.50977.50049.49134.49134,0,0,1-.5-.50049Z"
         fill="#1f1f1f"
         id="path39" />
      <path
         d="M25.36426,91.69238v-.0166a3.055,3.055,0,0,1,6.10937-.0166v.0166a3.055,3.055,0,0,1-6.10937.0166Zm5.03222,0v-.0166a2.00179,2.00179,0,0,0-1.98632-2.07812,1.97311,1.97311,0,0,0-1.96875,2.06152v.0166a1.99482,1.99482,0,0,0,1.98632,2.07031A1.96648,1.96648,0,0,0,30.39648,91.69238Z"
         fill="#1f1f1f"
         id="path41" />
      <path
         d="M32.90039,89.23877a.51443.51443,0,0,1,.51758-.51758h.10742a.64932.64932,0,0,1,.53516.30029l2.9209,3.78125V89.21387a.50539.50539,0,0,1,1.01074,0v4.90722a.49988.49988,0,0,1-.502.50977h-.041a.64586.64586,0,0,1-.53418-.30908l-3.00488-3.88965v3.70605a.5049.5049,0,0,1-1.00977,0Z"
         fill="#1f1f1f"
         id="path43" />
      <path
         d="M39.418,91.69238v-.0166a3.055,3.055,0,0,1,6.10937-.0166v.0166a3.055,3.055,0,0,1-6.10937.0166Zm5.0332,0v-.0166a2.00179,2.00179,0,0,0-1.98633-2.07812,1.9739,1.9739,0,0,0-1.96972,2.06152v.0166a1.99482,1.99482,0,0,0,1.98633,2.07031A1.96727,1.96727,0,0,0,44.45117,91.69238Z"
         fill="#1f1f1f"
         id="path45" />
      <path
         d="M49.332,89.22168a.5137.5137,0,0,1,1.02735,0v4.9082a.5137.5137,0,0,1-1.02735,0Z"
         fill="#1f1f1f"
         id="path47" />
      <path
         d="M52.10938,89.23877a.51566.51566,0,0,1,.51757-.51758h.10938a.64455.64455,0,0,1,.5332.30029l2.92188,3.78125V89.21387a.5049.5049,0,0,1,1.00976,0v4.90722a.49885.49885,0,0,1-.5.50977h-.042a.64586.64586,0,0,1-.53418-.30908l-3.00488-3.88965v3.70605a.50539.50539,0,0,1-1.01074,0Z"
         fill="#1f1f1f"
         id="path49" />
    </g>
    <g
       id="g61">
      <path
         d="M12.47949,45.6582a.51707.51707,0,0,1,.52149-.52148h1.416a1.62453,1.62453,0,0,1,1.81543,1.63965V46.79a1.69511,1.69511,0,0,1-1.917,1.6665h-.793v.9419a.52149.52149,0,0,1-1.043,0Zm1.86914,1.87012a.73492.73492,0,0,0,.82715-.71826v-.01318c0-.46778-.32519-.71876-.84766-.71876h-.80566v1.4502Z"
         fill="#f0f0f0"
         id="path53" />
      <path
         d="M17.01855,47.52148v-.01367a2.52117,2.52117,0,0,1,5.04-.01367v.01367a2.52116,2.52116,0,0,1-5.04.01367Zm3.9502,0v-.01367a1.441,1.441,0,0,0-1.43652-1.49023,1.41852,1.41852,0,0,0-1.42285,1.47656v.01367a1.44078,1.44078,0,0,0,1.43652,1.49073A1.41866,1.41866,0,0,0,20.96875,47.52148Z"
         fill="#f0f0f0"
         id="path55" />
      <path
         d="M23.20605,45.61768a.52149.52149,0,1,1,1.043,0v3.313h1.93067a.47413.47413,0,1,1,0,.94825H23.72754a.51678.51678,0,0,1-.52149-.52149Z"
         fill="#f0f0f0"
         id="path57" />
      <path
         d="M28.22559,48.0498l-1.53125-2.08007a.61251.61251,0,0,1-.12891-.37207.509.509,0,0,1,.52148-.50147.59826.59826,0,0,1,.51465.31836l1.15235,1.65967,1.17187-1.67334a.59694.59694,0,0,1,.501-.31152.48413.48413,0,0,1,.50879.5083.65212.65212,0,0,1-.13575.36572L29.26855,48.0293v1.36914a.52148.52148,0,1,1-1.043,0Z"
         fill="#f0f0f0"
         id="path59" />
    </g>
    <g
       id="g69">
      <path
         d="M17.59668,105.10938l-.4873.14941a.60983.60983,0,0,1-.1504.02051.36086.36086,0,0,1-.08789-.71192l.71875-.23a1.4483,1.4483,0,0,1,.40625-.0747h.01368a.407.407,0,0,1,.41406.41308v4.01074a.41358.41358,0,1,1-.82715,0Z"
         fill="#1f1f1f"
         id="path63" />
      <path
         d="M19.65723,106.99316a.40623.40623,0,0,1,.39941-.40673h1.27344a.40308.40308,0,0,1,0,.80615H20.05664A.40437.40437,0,0,1,19.65723,106.99316Z"
         fill="#1f1f1f"
         id="path65" />
      <path
         d="M22.66211,107.77246v-.01367a1.19636,1.19636,0,0,1,.85351-1.15186,1.1412,1.1412,0,0,1-.69042-1.05713v-.01367c0-.72461.69824-1.28027,1.64648-1.28027s1.64551.54883,1.64551,1.28027v.01367a1.13969,1.13969,0,0,1-.69043,1.05713,1.21548,1.21548,0,0,1,.85351,1.13819v.01367c0,.84668-.77246,1.375-1.80859,1.375S22.66211,108.5918,22.66211,107.77246Zm2.80469-.04785v-.01367c0-.4336-.4336-.71778-.99512-.71778-.5625,0-.98926.28418-.98926.71778v.01367c0,.38623.36524.71143.98926.71143C25.09473,108.436,25.4668,108.11768,25.4668,107.72461Zm-.14844-2.09326v-.01367c0-.36573-.33887-.66358-.84668-.66358-.50879,0-.84668.29785-.84668.65674v.01367a.86179.86179,0,0,0,1.69336.00684Z"
         fill="#1f1f1f"
         id="path67" />
    </g>
    <g
       id="g79">
      <path
         d="M46.81641,108.75439a.39511.39511,0,0,1-.18946-.34521.382.382,0,0,1,.39258-.37988.42958.42958,0,0,1,.23047.06836,1.427,1.427,0,0,0,.86719.291c.69824,0,1.11914-.61621,1.14551-1.49023a1.39755,1.39755,0,0,1-1.11036.501,1.50354,1.50354,0,0,1-1.68066-1.5039v-.01367a1.64976,1.64976,0,0,1,1.76855-1.63965,1.72493,1.72493,0,0,1,1.32032.50146,2.40072,2.40072,0,0,1,.56933,1.80908v.01368c0,1.52441-.752,2.581-2.03222,2.581A2.1827,2.1827,0,0,1,46.81641,108.75439Zm2.41992-2.90625v-.01367a.89681.89681,0,0,0-.99024-.874.87111.87111,0,0,0-.9414.88086v.01367a.86574.86574,0,0,0,.96875.84668A.87689.87689,0,0,0,49.23633,105.84814Z"
         fill="#1f1f1f"
         id="path71" />
      <path
         d="M51.20508,106.99316a.40541.40541,0,0,1,.39844-.40673h1.27441a.40309.40309,0,0,1,0,.80615H51.60352A.40353.40353,0,0,1,51.20508,106.99316Z"
         fill="#1f1f1f"
         id="path73" />
      <path
         d="M54.77344,105.10938l-.48828.14941a.59507.59507,0,0,1-.14844.02051.36075.36075,0,0,1-.08887-.71192l.71777-.23a1.45436,1.45436,0,0,1,.40626-.0747h.01367a.40645.40645,0,0,1,.41406.41308v4.01074a.41309.41309,0,1,1-.82617,0Z"
         fill="#1f1f1f"
         id="path75" />
      <path
         d="M57.44141,108.646a2.32422,2.32422,0,0,1-.57618-1.80909v-.01318c0-1.44971.69141-2.58154,2.03321-2.58154a2.06594,2.06594,0,0,1,1.18554.33886.4001.4001,0,0,1,.21.35938.39273.39273,0,0,1-.39942.38574.45067.45067,0,0,1-.21094-.06055,1.38478,1.38478,0,0,0-.8125-.26464c-.70507,0-1.09765.6372-1.13867,1.50439a1.64332,1.64332,0,0,1,2.791,1.01611v.01368a1.6458,1.6458,0,0,1-1.76074,1.6123A1.764,1.764,0,0,1,57.44141,108.646Zm2.25-1.07715v-.01319a.8637.8637,0,0,0-.96875-.82714.87434.87434,0,0,0-.96289.83349v.01367a.886.886,0,0,0,.98242.84717A.85764.85764,0,0,0,59.69141,107.56885Z"
         fill="#1f1f1f"
         id="path77" />
    </g>
    <g
       id="g89">
      <path
         d="M43.292,47.42285v-.01318A2.39947,2.39947,0,0,1,45.7373,44.957a2.48741,2.48741,0,0,1,1.626.53516.41774.41774,0,0,1,.16309.332.41711.41711,0,0,1-.66407.32519,1.721,1.721,0,0,0-1.13183-.42675A1.59541,1.59541,0,0,0,44.166,47.396v.01367a1.59717,1.59717,0,0,0,1.56445,1.68017,1.69971,1.69971,0,0,0,1.18555-.4541.38114.38114,0,0,1,.251-.09472.38888.38888,0,0,1,.25684.68408,2.42086,2.42086,0,0,1-1.72071.6372A2.38475,2.38475,0,0,1,43.292,47.42285Z"
         fill="#1f1f1f"
         id="path81" />
      <path
         d="M48.709,45.418a.41652.41652,0,0,1,.833,0v1.5918h2.2627V45.418a.41652.41652,0,0,1,.833,0v3.9834a.41652.41652,0,0,1-.833,0V47.78223H49.542v1.61914a.41652.41652,0,0,1-.833,0Z"
         fill="#1f1f1f"
         id="path83" />
      <path
         d="M53.71973,49.23877l1.76074-3.9292a.53026.53026,0,0,1,.502-.33887h.04a.52038.52038,0,0,1,.49512.33887l1.76172,3.9292a.36994.36994,0,0,1,.04687.17627.38988.38988,0,0,1-.39258.39941.42912.42912,0,0,1-.40625-.291l-.38672-.8877H54.83691l-.39941.91455a.40006.40006,0,0,1-.38574.26416.38185.38185,0,0,1-.38672-.38574A.4233.4233,0,0,1,53.71973,49.23877Zm3.10254-1.34131-.833-1.91748-.834,1.91748Z"
         fill="#1f1f1f"
         id="path85" />
      <path
         d="M59.36035,45.43115a.41772.41772,0,0,1,.41992-.41992h.08789a.52522.52522,0,0,1,.4336.24365l2.37109,3.06934V45.41113a.41017.41017,0,0,1,.82031,0v3.9834a.40523.40523,0,0,1-.40722.41309h-.03321a.52358.52358,0,0,1-.43359-.25049l-2.43945-3.15674V49.4082a.40968.40968,0,0,1-.81934,0Z"
         fill="#1f1f1f"
         id="path87" />
    </g>
    <g
       id="g101">
      <path
         d="M15.06738,20.44092a.95618.95618,0,0,1,.96387-.96338h.21289a.98886.98886,0,0,1,.875.50049l2.32813,3.7915,2.33984-3.80371a.942.942,0,0,1,.86328-.48828h.21191a.95618.95618,0,0,1,.96387.96338v6.95654a.95705.95705,0,1,1-1.91406,0V23.03125l-1.68945,2.60254a.9012.9012,0,0,1-1.60157,0L16.957,23.06836v4.35449a.94033.94033,0,0,1-.95117.93848.92956.92956,0,0,1-.93848-.93848Z"
         fill="#1f1f1f"
         id="path91" />
      <path
         d="M26.10059,27.32275V20.49121a.95659.95659,0,0,1,.96386-.96387H31.919a.86513.86513,0,0,1,.86328.86328.85446.85446,0,0,1-.86328.85108H28.01562v1.77685h3.33985a.86566.86566,0,0,1,.86426.86329.85488.85488,0,0,1-.86426.85058H28.01562v1.83985h3.96583a.86481.86481,0,0,1,.86328.86328.85435.85435,0,0,1-.86328.85058h-4.917A.95618.95618,0,0,1,26.10059,27.32275Z"
         fill="#1f1f1f"
         id="path93" />
      <path
         d="M34.60938,20.49121a.95659.95659,0,0,1,.96386-.96387h3.04A3.48885,3.48885,0,0,1,41.166,20.416a2.74728,2.74728,0,0,1,.751,2.002v.0249a2.67363,2.67363,0,0,1-1.752,2.665l1.33887,1.62647a1.12605,1.12605,0,0,1,.3125.73828.89634.89634,0,0,1-.91309.88867,1.15375,1.15375,0,0,1-.95117-.50049l-1.877-2.37744H36.53613v1.91406a.96338.96338,0,1,1-1.92675,0Zm3.8789,3.29053c.93848,0,1.47656-.50049,1.47656-1.23877v-.0249c0-.82569-.57519-1.25147-1.51367-1.25147h-1.915v2.51514Z"
         fill="#1f1f1f"
         id="path95" />
      <path
         d="M43.28711,23.93164v-.0249a4.49543,4.49543,0,0,1,4.5918-4.5293,4.85044,4.85044,0,0,1,2.99023.85108.961.961,0,0,1,.40039.77539.95425.95425,0,0,1-1.53906.751,3.06419,3.06419,0,0,0-1.91406-.60058,2.63018,2.63018,0,0,0-2.51465,2.72754v.0249a2.624,2.624,0,0,0,2.65234,2.77783,3.07638,3.07638,0,0,0,1.81445-.52539V24.90771H48.4668a.82738.82738,0,0,1-.83789-.82568.83813.83813,0,0,1,.83789-.83838H50.669a.95618.95618,0,0,1,.96386.96338v2.127a1.30254,1.30254,0,0,1-.67578,1.22657,5.83023,5.83023,0,0,1-3.06543.876A4.38379,4.38379,0,0,1,43.28711,23.93164Z"
         fill="#1f1f1f"
         id="path97" />
      <path
         d="M53.64648,27.32275V20.49121a.9566.9566,0,0,1,.96387-.96387h4.85449a.86513.86513,0,0,1,.86328.86328.85445.85445,0,0,1-.86328.85108H55.56152v1.77685h3.34082a.86544.86544,0,0,1,.86328.86329.85465.85465,0,0,1-.86328.85058H55.56152v1.83985h3.96582a.8648.8648,0,0,1,.86328.86328.85435.85435,0,0,1-.86328.85058h-4.917A.95618.95618,0,0,1,53.64648,27.32275Z"
         fill="#1f1f1f"
         id="path99" />
    </g>
  </g>
  <g
     id="a1ba9572-c3ea-40b4-9150-debccd5536ff"
     data-name="components"
     inkscape:groupmode="layer"
     style="display:none">
    <circle
       id="e4b4ebf8-3bf6-4926-afd7-6b1a2a11dbd0"
       data-name="08#PJ301MPort"
       cx="21.50001"
       cy="334"
       r="5"
       style="fill:#00ff00" />
    <circle
       id="a29e2a6c-3e56-47ea-afa5-b0b2b2957b62"
       data-name="16#PJ301MPort"
       cx="53.500011"
       cy="334"
       r="5"
       style="fill:#00ff00" />
    <circle
       id="b3e76666-dc19-4501-a4f3-9225bc1480fb"
       data-name="Poly#PJ301MPort"
       cx="21.50001"
       cy="64.862877"
       r="5"
       style="fill:#0000ff" />
    <circle
       id="be0d66bc-b854-4639-a99f-8e191df6e7cd"
       data-name="07#PJ301MPort"
       cx="21.50001"
       cy="304"
       r="5"
       style="fill:#00ff00" />
    <circle
       id="ab1ab1d1-626c-471b-a396-96e1e18dcf8d"
       data-name="15#PJ301MPort"
       cx="53.500011"
       cy="304"
       r="5"
       style="fill:#00ff00" />
    <circle
       id="ad679732-598a-46c6-a9bb-d41dea63e6fa"
       data-name="06#PJ301MPort"
       cx="21.50001"
       cy="274"
       r="5"
       style="fill:#00ff00" />
    <circle
       id="a10eb093-a0a6-4d4e-a37e-724e7271b68d"
       data-name="14#PJ301MPort"
       cx="53.500011"
       cy="274"
       r="5"
       style="fill:#00ff00" />
    <circle
       id="b0bff14f-428f-4945-89ab-b595f667c087"
       data-name="05#PJ301MPort"
       cx="21.50001"
       cy="244"
       r="5"
       style="fill:#00ff00" />
    <circle
       id="f3f00b88-61bc-4c47-aee6-b8de1795f4de"
       data-name="13#PJ301MPort"
       cx="53.500011"
       cy="244"
       r="5"
       style="fill:#00ff00" />
    <circle
       id="e81fee87-72aa-4e30-9f6c-e713b333270a"
       data-name="04#PJ301MPort"
       cx="21.50001"
       cy="214"
       r="5"
       style="fill:#00ff00" />
    <circle
       id="abe8d9c4-eb1a-4b8c-baf7-7a8bd8c44961"
       data-name="12#PJ301MPort"
       cx="53.500011"
       cy="214"
       r="5"
       style="fill:#00ff00" />
    <circle
       id="a9ceb744-7c90-43ff-8698-2cbd23b0715b"
       data-name="03#PJ301MPort"
       cx="21.50001"
       cy="184"
       r="5"
       style="fill:#00ff00" />
    <circle
       id="a1ae0bda-08de-46d4-98c6-84eca2b57230"
       data-name="11#PJ301MPort"
       cx="53.500011"
       cy="184"
       r="5"
       style="fill:#00ff00" />
    <circle
       id="b16790cc-b76b-485a-9396-6946b8d84dc5"
       data-name="02#PJ301MPort"
       cx="21.50001"
       cy="154"
       r="5"
       style="fill:#00ff00" />
    <circle
       id="e04c626b-5d7e-417e-857d-594792dd4d6a"
       data-name="10#PJ301MPort"
       cx="53.500011"
       cy="154"
       r="5"
       style="fill:#00ff00" />
    <circle
       id="b2732450-96ef-44df-8a01-b899c0f56f26"
       data-name="01#PJ301MPort"
       cx="21.50001"
       cy="124"
       r="5"
       style="fill:#00ff00" />
    <circle
       id="ab2ee882-f264-4888-a069-0eccb87fe455"
       data-name="09#PJ301MPort"
       cx="53.500011"
       cy="124"
       r="5"
       style="fill:#00ff00" />
    <rect
       id="aac24c6d-2573-4410-a233-9e57c7465b7a"
       data-name="Chan"
       x="41.39806"
       y="54.953018"
       width="24.20389"
       height="24.20389"
       style="fill:#ffff00" />
  </g>
</svg>
