<?xml version="1.0" encoding="UTF-8" standalone="no"?>
<!-- Created with Inkscape (http://www.inkscape.org/) -->

<svg
   xmlns:dc="http://purl.org/dc/elements/1.1/"
   xmlns:cc="http://creativecommons.org/ns#"
   xmlns:rdf="http://www.w3.org/1999/02/22-rdf-syntax-ns#"
   xmlns:svg="http://www.w3.org/2000/svg"
   xmlns="http://www.w3.org/2000/svg"
   xmlns:sodipodi="http://sodipodi.sourceforge.net/DTD/sodipodi-0.dtd"
   xmlns:inkscape="http://www.inkscape.org/namespaces/inkscape"
   width="25.4mm"
   height="128.5mm"
   viewBox="0 0 25.399999 128.5"
   version="1.1"
   id="svg4352"
   inkscape:version="0.92.4 5da689c313, 2019-01-14"
   sodipodi:docname="MidSide.svg">
  <defs
     id="defs4346" />
  <sodipodi:namedview
     id="base"
     pagecolor="#ffffff"
     bordercolor="#666666"
     borderopacity="1.0"
     inkscape:pageopacity="0.0"
     inkscape:pageshadow="2"
     inkscape:zoom="1.4"
     inkscape:cx="137.33297"
     inkscape:cy="239.51981"
     inkscape:document-units="mm"
     inkscape:current-layer="layer1"
     showgrid="false"
     inkscape:snap-bbox="true"
     inkscape:snap-nodes="false"
     inkscape:snap-bbox-midpoints="true"
     inkscape:snap-others="false"
     inkscape:snap-page="true"
     inkscape:window-width="1600"
     inkscape:window-height="882"
     inkscape:window-x="0"
     inkscape:window-y="18"
     inkscape:window-maximized="0"
     inkscape:bbox-nodes="false" />
  <metadata
     id="metadata4349">
    <rdf:RDF>
      <cc:Work
         rdf:about="">
        <dc:format>image/svg+xml</dc:format>
        <dc:type
           rdf:resource="http://purl.org/dc/dcmitype/StillImage" />
        <dc:title></dc:title>
      </cc:Work>
    </rdf:RDF>
  </metadata>
  <g
     inkscape:label="Layer 1"
     inkscape:groupmode="layer"
     id="layer1"
     transform="translate(0,-168.5)">
    <path
       inkscape:connector-curvature="0"
       id="path36087"
       d="M 0.092322,168.59371 H 25.306303 V 296.90698 H 0.092322 Z m 0,0"
       style="fill:#e6e6e6;fill-opacity:1;fill-rule:nonzero;stroke:none;stroke-width:0.35277778" />
    <path
       inkscape:connector-curvature="0"
       id="path36089"
       d="M 25.400001,168.5 H 0 V 296.99931 H 25.400001 Z M 25.21257,296.81328 H 0.186019 V 168.68741 H 25.21257 Z m 0,0"
       style="fill:#ababab;fill-opacity:1;fill-rule:nonzero;stroke:none;stroke-width:0.35277778" />
    <path
       inkscape:connector-curvature="0"
       id="path43937"
       d="M 6.688984,194.68548 H 18.688968"
       style="fill:none;stroke:#000000;stroke-width:0.23495002;stroke-linecap:round;stroke-linejoin:round;stroke-miterlimit:10;stroke-opacity:1" />
    <path
       inkscape:connector-curvature="0"
       style="fill:#000000;fill-opacity:1;stroke:none;stroke-width:0.35277778"
       d="m 4.754915,183.67074 h 1.262274 c 0.0937,0 0.170886,-0.0772 0.170886,-0.17639 0,-0.0937 -0.07719,-0.17087 -0.170886,-0.17087 H 4.942311 v -0.60083 h 0.920538 c 0.0937,0 0.170886,-0.0717 0.170886,-0.17088 0,-0.0992 -0.07719,-0.17638 -0.170886,-0.17638 H 4.942311 v -0.57878 h 1.058333 c 0.09373,0 0.170886,-0.0772 0.170886,-0.17639 0,-0.0937 -0.07715,-0.17088 -0.170886,-0.17088 H 4.754915 c -0.104739,0 -0.187431,0.0827 -0.187431,0.19844 v 1.82452 c 0,0.11025 0.08269,0.19844 0.187431,0.19844 z m 0,0"
       id="path68315" />
    <path
       inkscape:connector-curvature="0"
       style="fill:#000000;fill-opacity:1;stroke:none;stroke-width:0.35277778"
       d="m 6.670428,183.49435 c 0,0.10473 0.08266,0.19293 0.187396,0.19293 0.09924,0 0.181892,-0.0882 0.181892,-0.19293 v -1.4056 l 1.10243,1.47726 c 0.04964,0.0717 0.10474,0.11575 0.192935,0.11575 h 0.01658 c 0.104739,0 0.181892,-0.0827 0.181892,-0.19292 v -1.86862 c 0,-0.10473 -0.07715,-0.18741 -0.181892,-0.18741 -0.10474,0 -0.187431,0.0827 -0.187431,0.18741 v 1.36701 l -1.06934,-1.43867 c -0.0496,-0.0661 -0.10474,-0.11575 -0.192934,-0.11575 h -0.0441 c -0.10474,0 -0.187396,0.0937 -0.187396,0.19843 z m 0,0"
       id="path68311" />
    <path
       inkscape:connector-curvature="0"
       style="fill:#000000;fill-opacity:1;stroke:none;stroke-width:0.35277778"
       d="m 10.141303,183.70933 c 0.347275,0 0.578803,-0.11576 0.77724,-0.29766 0.03316,-0.0331 0.06061,-0.0827 0.06061,-0.14332 0,-0.0937 -0.08266,-0.17638 -0.176389,-0.17638 -0.0441,0 -0.08266,0.0165 -0.110243,0.0441 -0.159844,0.13229 -0.308681,0.20946 -0.53467,0.20946 -0.413421,0 -0.71106,-0.35277 -0.71106,-0.78824 v -0.005 c 0,-0.43546 0.303178,-0.78272 0.71106,-0.78272 0.203941,0 0.363819,0.0772 0.507118,0.19843 0.02752,0.0221 0.06064,0.0386 0.115746,0.0386 0.10474,0 0.187431,-0.0827 0.187431,-0.18742 0,-0.0717 -0.03316,-0.12677 -0.07719,-0.15985 -0.187395,-0.14883 -0.402378,-0.24805 -0.733107,-0.24805 -0.650417,0 -1.102431,0.51815 -1.102431,1.14653 v 0.011 c 0,0.6339 0.463021,1.14102 1.085885,1.14102 z m 0,0"
       id="path68319" />
    <path
       inkscape:connector-curvature="0"
       style="fill:#000000;fill-opacity:1;stroke:none;stroke-width:0.35277778"
       d="m 12.434218,183.70933 c 0.661458,0 1.124479,-0.52366 1.124479,-1.15205 v -0.005 c 0,-0.62287 -0.457517,-1.14102 -1.118976,-1.14102 -0.655955,0 -1.118976,0.52366 -1.118976,1.14653 v 0.011 c 0,0.62287 0.457518,1.14102 1.113473,1.14102 z m 0.0056,-0.36381 c -0.424426,0 -0.727604,-0.35277 -0.727604,-0.78824 v -0.005 c 0,-0.42995 0.297639,-0.78272 0.722101,-0.78272 0.424427,0 0.727604,0.35828 0.727604,0.78823 v 0.011 c 0,0.42995 -0.29217,0.77721 -0.722101,0.77721 z m 0,0"
       id="path68323" />
    <path
       inkscape:connector-curvature="0"
       style="fill:#000000;fill-opacity:1;stroke:none;stroke-width:0.35277778"
       d="m 14.07855,183.4723 c 0,0.11025 0.08269,0.19844 0.187431,0.19844 h 0.611858 c 0.672465,0 1.135486,-0.48507 1.135486,-1.11346 v -0.005 c 0,-0.62287 -0.463021,-1.10243 -1.135486,-1.10243 h -0.611858 c -0.104739,0 -0.187431,0.0827 -0.187431,0.19844 z m 0.374827,-0.15985 v -1.51033 h 0.424462 c 0.446476,0 0.744114,0.31971 0.744114,0.75516 v 0.011 c 0,0.42995 -0.297638,0.74414 -0.744114,0.74414 z m 0,0"
       id="path68327" />
    <path
       inkscape:connector-curvature="0"
       style="fill:#000000;fill-opacity:1;stroke:none;stroke-width:0.35277778"
       d="m 16.7156,183.67074 h 1.262274 c 0.0937,0 0.170886,-0.0772 0.170886,-0.17639 0,-0.0937 -0.07719,-0.17087 -0.170886,-0.17087 h -1.074879 v -0.60083 h 0.920539 c 0.0937,0 0.170885,-0.0717 0.170885,-0.17088 0,-0.0992 -0.07719,-0.17638 -0.170885,-0.17638 h -0.920539 v -0.57878 h 1.058334 c 0.09373,0 0.170885,-0.0772 0.170885,-0.17639 0,-0.0937 -0.07715,-0.17088 -0.170885,-0.17088 H 16.7156 c -0.10474,0 -0.187431,0.0827 -0.187431,0.19844 v 1.82452 c 0,0.11025 0.08269,0.19844 0.187431,0.19844 z m 0,0"
       id="path68335" />
    <path
       inkscape:connector-curvature="0"
       style="fill:#000000;fill-opacity:1;stroke:none;stroke-width:0.35277778"
       d="m 18.631077,183.49435 c 0,0.10473 0.08266,0.19293 0.187396,0.19293 0.10474,0 0.187431,-0.0882 0.187431,-0.19293 v -0.60082 h 0.474027 l 0.523664,0.68902 c 0.03859,0.0606 0.0937,0.10473 0.181892,0.10473 0.0937,0 0.181892,-0.0717 0.181892,-0.18191 0,-0.0606 -0.02752,-0.0992 -0.06061,-0.14882 l -0.413421,-0.53468 c 0.286633,-0.0937 0.48507,-0.30868 0.48507,-0.66697 v -0.005 c 0,-0.19293 -0.06064,-0.35829 -0.176389,-0.47956 -0.137795,-0.13781 -0.347274,-0.22049 -0.617361,-0.22049 H 18.81847 c -0.10474,0 -0.187396,0.0827 -0.187396,0.19844 z m 0.374827,-0.94258 v -0.74965 h 0.551215 c 0.27559,0 0.440972,0.13229 0.440972,0.36931 v 0.006 c 0,0.22599 -0.170885,0.37482 -0.440972,0.37482 z m 0,0"
       id="path68331" />
    <path
       inkscape:connector-curvature="0"
       style="fill:#000000;fill-opacity:1;stroke:none;stroke-width:0.35277778"
       d="m 8.829957,177.77299 c 0,0.17639 0.137795,0.31971 0.314184,0.31971 0.176389,0 0.319723,-0.14332 0.319723,-0.31971 v -1.47174 l 0.567761,0.86541 c 0.06615,0.10473 0.148801,0.16536 0.270086,0.16536 0.115747,0 0.203941,-0.0606 0.270087,-0.16536 l 0.573264,-0.88195 v 1.47726 c 0,0.1819 0.143334,0.33073 0.319723,0.33073 0.181892,0 0.32519,-0.14883 0.32519,-0.33073 v -2.35369 c 0,-0.1819 -0.143298,-0.32522 -0.32519,-0.32522 h -0.07168 c -0.132292,0 -0.225989,0.0551 -0.292135,0.16537 l -0.79375,1.28984 -0.788247,-1.28433 c -0.0551,-0.0992 -0.154341,-0.17088 -0.292136,-0.17088 h -0.07165 c -0.181892,0 -0.325226,0.14332 -0.325226,0.32522 z m 0,0"
       id="path68339" />
    <path
       inkscape:connector-curvature="0"
       style="fill:#000000;fill-opacity:1;stroke:none;stroke-width:0.35277778"
       d="m 12.102254,178.39035 c 0,0.12678 0.115782,0.24254 0.253577,0.24254 0.0992,0 0.176389,-0.0496 0.220486,-0.14883 l 1.659149,-3.45612 c 0.01093,-0.0331 0.02752,-0.0772 0.02752,-0.12678 0,-0.12678 -0.115747,-0.23702 -0.248038,-0.23702 -0.10474,0 -0.181893,0.0496 -0.22599,0.14331 l -1.653646,3.46164 c -0.01658,0.0275 -0.03316,0.0772 -0.03316,0.12126 z m 0,0"
       id="path68347" />
    <path
       inkscape:connector-curvature="0"
       style="fill:#000000;fill-opacity:1;stroke:none;stroke-width:0.35277778"
       d="m 15.627457,178.10923 c 0.639409,0 1.085885,-0.33073 1.085885,-0.92053 v -0.011 c 0,-0.51263 -0.336233,-0.72761 -0.937049,-0.88746 -0.512621,-0.13229 -0.639409,-0.19292 -0.639409,-0.38585 v -0.011 c 0,-0.14332 0.126788,-0.25907 0.380329,-0.25907 0.203941,0 0.407918,0.0717 0.622865,0.19843 0.04964,0.0331 0.09924,0.0496 0.165382,0.0496 0.165347,0 0.303177,-0.13229 0.303177,-0.30317 0,-0.12678 -0.07168,-0.21497 -0.143333,-0.25907 -0.270087,-0.16536 -0.578767,-0.25907 -0.942587,-0.25907 -0.606319,0 -1.036285,0.35278 -1.036285,0.89297 v 0.006 c 0,0.5898 0.385868,0.75517 0.981181,0.90951 0.496076,0.12678 0.600816,0.20946 0.600816,0.37483 v 0.011 c 0,0.17088 -0.165347,0.27561 -0.429931,0.27561 -0.286631,0 -0.534705,-0.0992 -0.755191,-0.26459 -0.0441,-0.0331 -0.104704,-0.0606 -0.187395,-0.0606 -0.170886,0 -0.308681,0.13229 -0.308681,0.30317 0,0.0992 0.0551,0.19292 0.126788,0.24253 0.330729,0.23703 0.722066,0.35829 1.113438,0.35829 z m 0,0"
       id="path68343" />
    <path
       inkscape:connector-curvature="0"
       id="path43973"
       d="M 18.699975,209.73504 H 6.69865"
       style="fill:none;stroke:#000000;stroke-width:0.23495002;stroke-linecap:round;stroke-linejoin:round;stroke-miterlimit:10;stroke-opacity:1" />
    <path
       inkscape:connector-curvature="0"
       style="fill:#000000;fill-opacity:1;stroke:none;stroke-width:0.35277778"
       d="m 3.815785,203.5404 c 0,0.0827 0.06615,0.14332 0.143334,0.14332 h 0.865399 c 0.07165,0 0.132292,-0.0551 0.132292,-0.12678 0,-0.0717 -0.06064,-0.13229 -0.132292,-0.13229 H 4.102417 v -1.21819 c 0,-0.0772 -0.06615,-0.1378 -0.143298,-0.1378 -0.07719,0 -0.143334,0.0606 -0.143334,0.1378 z m 0,0"
       id="path68351" />
    <path
       inkscape:connector-curvature="0"
       style="fill:#000000;fill-opacity:1;stroke:none;stroke-width:0.35277778"
       d="m 5.434647,203.68372 h 0.948091 c 0.06615,0 0.126753,-0.0551 0.126753,-0.12678 0,-0.0661 -0.06061,-0.12678 -0.126753,-0.12678 H 5.577946 v -0.42995 h 0.68901 c 0.06615,0 0.126789,-0.0551 0.126789,-0.12127 0,-0.0717 -0.06064,-0.13229 -0.126789,-0.13229 h -0.68901 v -0.41341 h 0.79375 c 0.06615,0 0.121285,-0.0551 0.121285,-0.12678 0,-0.0717 -0.05514,-0.12678 -0.121285,-0.12678 H 5.434647 c -0.07719,0 -0.143333,0.0606 -0.143333,0.14332 v 1.3174 c 0,0.0827 0.06615,0.14332 0.143333,0.14332 z m 0,0"
       id="path68355" />
    <path
       inkscape:connector-curvature="0"
       style="fill:#000000;fill-opacity:1;stroke:none;stroke-width:0.35277778"
       d="m 6.892431,203.55694 c 0,0.0772 0.06615,0.1378 0.143334,0.1378 0.07715,0 0.143298,-0.0606 0.143298,-0.1378 v -0.52917 h 0.68901 c 0.07168,0 0.132292,-0.0551 0.132292,-0.12678 0,-0.0717 -0.06061,-0.12678 -0.132292,-0.12678 h -0.68901 v -0.44097 h 0.79375 c 0.07165,0 0.126788,-0.0551 0.126788,-0.12678 0,-0.0717 -0.05514,-0.12678 -0.126788,-0.12678 H 7.035765 c -0.07719,0 -0.143334,0.0606 -0.143334,0.14332 z m 0,0"
       id="path68359" />
    <path
       inkscape:connector-curvature="0"
       style="fill:#000000;fill-opacity:1;stroke:none;stroke-width:0.35277778"
       d="m 8.899701,203.55694 c 0,0.0772 0.06615,0.1378 0.143334,0.1378 0.07715,0 0.143299,-0.0606 0.143299,-0.1378 v -1.21819 h 0.391371 c 0.07165,0 0.126789,-0.0606 0.126789,-0.12678 0,-0.0717 -0.05514,-0.13229 -0.126789,-0.13229 H 8.50833 c -0.07165,0 -0.126753,0.0606 -0.126753,0.13229 0,0.0661 0.0551,0.12678 0.126753,0.12678 h 0.391371 z m 0,0"
       id="path68363" />
    <path
       inkscape:connector-curvature="0"
       style="fill:#000000;fill-opacity:1;stroke:none;stroke-width:0.35277778"
       d="m 14.856778,203.55694 c 0,0.0772 0.06615,0.1378 0.143334,0.1378 0.07715,0 0.143298,-0.0606 0.143298,-0.1378 v -0.43546 h 0.352778 l 0.391372,0.5016 c 0.03316,0.0441 0.07165,0.0717 0.137795,0.0717 0.06615,0 0.132291,-0.0496 0.132291,-0.13229 0,-0.0441 -0.01658,-0.0717 -0.0441,-0.10473 l -0.308681,-0.38585 c 0.214983,-0.0717 0.36382,-0.226 0.36382,-0.47956 v -0.005 c 0,-0.14332 -0.0441,-0.25907 -0.132291,-0.34727 -0.09924,-0.0992 -0.25908,-0.15985 -0.463021,-0.15985 h -0.573264 c -0.07719,0 -0.143334,0.0606 -0.143334,0.14332 z m 0.286632,-0.68351 v -0.54019 h 0.407917 c 0.209444,0 0.330729,0.0937 0.330729,0.2701 0,0.16536 -0.126788,0.27009 -0.330729,0.27009 z m 0,0"
       id="path68367" />
    <path
       inkscape:connector-curvature="0"
       style="fill:#000000;fill-opacity:1;stroke:none;stroke-width:0.35277778"
       d="m 16.706992,203.55694 c 0,0.0772 0.06615,0.1378 0.143298,0.1378 0.07719,0 0.143334,-0.0606 0.143334,-0.1378 v -1.35048 c 0,-0.0772 -0.06615,-0.1378 -0.143334,-0.1378 -0.07715,0 -0.143298,0.0606 -0.143298,0.1378 z m 0,0"
       id="path68371" />
    <path
       inkscape:connector-curvature="0"
       style="fill:#000000;fill-opacity:1;stroke:none;stroke-width:0.35277778"
       d="m 18.345821,203.71128 c 0.237032,0 0.42993,-0.0827 0.567761,-0.17639 0.06615,-0.0386 0.0992,-0.0992 0.0992,-0.17639 v -0.42995 c 0,-0.0772 -0.06064,-0.14332 -0.143298,-0.14332 h -0.446511 c -0.06615,0 -0.126753,0.0551 -0.126753,0.12679 0,0.0661 0.06061,0.12126 0.126753,0.12126 h 0.319722 v 0.29766 c -0.09924,0.0772 -0.237031,0.12127 -0.391371,0.12127 -0.325226,0 -0.545713,-0.24254 -0.545713,-0.57327 0,-0.30868 0.226025,-0.56775 0.523664,-0.56775 0.170885,0 0.286632,0.0496 0.385868,0.12678 0.02752,0.0165 0.0551,0.0331 0.0882,0.0331 0.07715,0 0.143298,-0.0662 0.143298,-0.14332 0,-0.0551 -0.03316,-0.0937 -0.06064,-0.11576 -0.143299,-0.10473 -0.308681,-0.15985 -0.545677,-0.15985 -0.48507,0 -0.826841,0.38034 -0.826841,0.82683 v 0.006 c 0,0.46853 0.325226,0.82682 0.832344,0.82682 z m 0,0"
       id="path68375" />
    <path
       inkscape:connector-curvature="0"
       style="fill:#000000;fill-opacity:1;stroke:none;stroke-width:0.35277778"
       d="m 19.56227,203.55694 c 0,0.0772 0.06614,0.1378 0.143333,0.1378 0.07715,0 0.143298,-0.0606 0.143298,-0.1378 v -0.55122 H 20.6151 v 0.55122 c 0,0.0772 0.06064,0.1378 0.137795,0.1378 0.07719,0 0.143333,-0.0606 0.143333,-0.1378 v -1.35048 c 0,-0.0772 -0.06615,-0.1378 -0.143333,-0.1378 -0.07715,0 -0.137795,0.0606 -0.137795,0.1378 v 0.54019 h -0.766199 v -0.54019 c 0,-0.0772 -0.06615,-0.1378 -0.143298,-0.1378 -0.07719,0 -0.143333,0.0606 -0.143333,0.1378 z m 0,0"
       id="path68383" />
    <path
       inkscape:connector-curvature="0"
       style="fill:#000000;fill-opacity:1;stroke:none;stroke-width:0.35277778"
       d="m 21.857759,203.55694 c 0,0.0772 0.06615,0.1378 0.143334,0.1378 0.07715,0 0.143299,-0.0606 0.143299,-0.1378 v -1.21819 h 0.391371 c 0.07165,0 0.126789,-0.0606 0.126789,-0.12678 0,-0.0717 -0.05514,-0.13229 -0.126789,-0.13229 h -1.069375 c -0.07165,0 -0.126753,0.0606 -0.126753,0.13229 0,0.0661 0.0551,0.12678 0.126753,0.12678 h 0.391371 z m 0,0"
       id="path68379" />
    <path
       inkscape:connector-curvature="0"
       id="path44009"
       d="m 23.539663,217.91921 c 0,-0.54984 -0.449263,-1.00046 -0.999102,-1.00046 h -7.682548 c -0.54984,0 -0.999067,0.45062 -0.999067,1.00046 v 12.17221 c 0,0.54984 0.449227,1.00046 0.999067,1.00046 h 7.682548 c 0.549839,0 0.999102,-0.45062 0.999102,-1.00046 z m 0,0"
       style="fill:#000000;fill-opacity:1;fill-rule:nonzero;stroke:none;stroke-width:0.35277778" />
    <path
       inkscape:connector-curvature="0"
       id="path44011"
       d="m 11.541055,217.91921 c 0,-0.54984 -0.450603,-1.00046 -1.000443,-1.00046 H 2.858064 c -0.549839,0 -0.999102,0.45062 -0.999102,1.00046 v 12.17221 c 0,0.54984 0.449263,1.00046 0.999102,1.00046 h 7.682548 c 0.54984,0 1.000443,-0.45062 1.000443,-1.00046 z m 0,0"
       style="fill:#000000;fill-opacity:1;fill-rule:nonzero;stroke:none;stroke-width:0.35277778" />
    <path
       inkscape:connector-curvature="0"
       style="fill:#e6e6e6;fill-opacity:1;stroke:none;stroke-width:0.35277778"
       d="m 4.535487,219.84534 c 0,0.0992 0.07715,0.17088 0.170851,0.17088 0.09924,0 0.176389,-0.0717 0.176389,-0.17088 v -0.79375 l 0.303177,0.46853 c 0.03859,0.0551 0.08269,0.0882 0.148837,0.0882 0.06064,0 0.110243,-0.0331 0.143298,-0.0882 l 0.308681,-0.47955 v 0.79926 c 0,0.0992 0.08269,0.17639 0.176388,0.17639 0.09924,0 0.176389,-0.0772 0.176389,-0.17639 v -1.27331 c 0,-0.0992 -0.07715,-0.17639 -0.176389,-0.17639 h -0.03856 c -0.07168,0 -0.121285,0.0331 -0.159879,0.0882 l -0.424426,0.70004 -0.429931,-0.69453 c -0.03316,-0.0551 -0.08269,-0.0937 -0.159879,-0.0937 h -0.03856 c -0.09924,0 -0.176388,0.0772 -0.176388,0.17639 z m 0,0"
       id="path68387" />
    <path
       inkscape:connector-curvature="0"
       style="fill:#e6e6e6;fill-opacity:1;stroke:none;stroke-width:0.35277778"
       d="m 6.623509,219.83983 c 0,0.0992 0.07719,0.17639 0.176388,0.17639 0.09924,0 0.176389,-0.0772 0.176389,-0.17639 v -1.27882 c 0,-0.0992 -0.07715,-0.17639 -0.176389,-0.17639 -0.0992,0 -0.176388,0.0772 -0.176388,0.17639 z m 0,0"
       id="path68395" />
    <path
       inkscape:connector-curvature="0"
       style="fill:#e6e6e6;fill-opacity:1;stroke:none;stroke-width:0.35277778"
       d="m 7.453136,219.8288 c 0,0.0992 0.07715,0.17639 0.176389,0.17639 h 0.451979 c 0.501615,0 0.848889,-0.35278 0.848889,-0.80477 0,-0.452 -0.347274,-0.79927 -0.848889,-0.79927 H 7.629525 c -0.09924,0 -0.176389,0.0772 -0.176389,0.17639 z m 0.352778,-0.14331 v -0.96463 h 0.27559 c 0.286632,0 0.479566,0.19844 0.479566,0.47956 v 0.005 c 0,0.28663 -0.192934,0.47956 -0.479566,0.47956 z m 0,0"
       id="path68391" />
    <path
       inkscape:connector-curvature="0"
       style="fill:#e6e6e6;fill-opacity:1;stroke:none;stroke-width:0.35277778"
       d="m 15.80127,220.02724 c 0.341736,0 0.584271,-0.17639 0.584271,-0.49609 v -0.006 c 0,-0.28112 -0.181893,-0.39687 -0.507118,-0.47956 -0.27559,-0.0716 -0.347275,-0.10473 -0.347275,-0.21497 0,-0.0827 0.07169,-0.14332 0.20948,-0.14332 0.110243,0 0.220486,0.0386 0.336232,0.11025 0.02752,0.0165 0.05514,0.022 0.08819,0.022 0.0937,0 0.165382,-0.0717 0.165382,-0.15986 0,-0.0717 -0.03859,-0.11575 -0.07719,-0.14331 -0.143298,-0.0882 -0.314184,-0.1378 -0.507118,-0.1378 -0.330729,0 -0.562222,0.19292 -0.562222,0.47955 v 0.006 c 0,0.3197 0.203941,0.4079 0.529167,0.49057 0.270086,0.0717 0.32519,0.11576 0.32519,0.20396 v 0.006 c 0,0.0937 -0.08819,0.15434 -0.231493,0.15434 -0.159843,0 -0.292135,-0.0551 -0.41342,-0.14883 -0.02187,-0.0165 -0.0551,-0.0275 -0.0992,-0.0275 -0.09373,0 -0.165382,0.0661 -0.165382,0.15986 0,0.0551 0.02752,0.10473 0.06615,0.13229 0.181892,0.13229 0.391371,0.19292 0.606354,0.19292 z m 0,0"
       id="path68399" />
    <path
       inkscape:connector-curvature="0"
       style="fill:#e6e6e6;fill-opacity:1;stroke:none;stroke-width:0.35277778"
       d="m 16.786543,219.83983 c 0,0.0992 0.07719,0.17639 0.176389,0.17639 0.09924,0 0.176389,-0.0772 0.176389,-0.17639 v -1.27882 c 0,-0.0992 -0.07715,-0.17639 -0.176389,-0.17639 -0.0992,0 -0.176389,0.0772 -0.176389,0.17639 z m 0,0"
       id="path68403" />
    <path
       inkscape:connector-curvature="0"
       style="fill:#e6e6e6;fill-opacity:1;stroke:none;stroke-width:0.35277778"
       d="m 17.616841,219.8288 c 0,0.0992 0.07715,0.17639 0.176389,0.17639 h 0.451979 c 0.501615,0 0.848889,-0.35278 0.848889,-0.80477 0,-0.452 -0.347274,-0.79927 -0.848889,-0.79927 H 17.79323 c -0.09924,0 -0.176389,0.0772 -0.176389,0.17639 z m 0.352778,-0.14331 v -0.96463 h 0.27559 c 0.286632,0 0.479566,0.19844 0.479566,0.47956 v 0.005 c 0,0.28663 -0.192934,0.47956 -0.479566,0.47956 z m 0,0"
       id="path68415" />
    <path
       inkscape:connector-curvature="0"
       style="fill:#e6e6e6;fill-opacity:1;stroke:none;stroke-width:0.35277778"
       d="m 19.657555,220.00519 h 0.898454 c 0.08819,0 0.159879,-0.0661 0.159879,-0.15434 0,-0.0882 -0.07168,-0.15985 -0.159879,-0.15985 h -0.722065 v -0.33624 h 0.611822 c 0.08269,0 0.154341,-0.0717 0.154341,-0.15434 0,-0.0882 -0.07165,-0.15985 -0.154341,-0.15985 h -0.611822 v -0.32522 h 0.711059 c 0.08819,0 0.159843,-0.0717 0.159843,-0.15434 0,-0.0882 -0.07165,-0.15986 -0.159843,-0.15986 h -0.887448 c -0.09924,0 -0.176389,0.0772 -0.176389,0.17639 v 1.25126 c 0,0.0992 0.07715,0.17639 0.176389,0.17639 z m 0,0"
       id="path68411" />
    <path
       inkscape:connector-curvature="0"
       style="fill:#e6e6e6;fill-opacity:1;stroke:none;stroke-width:0.35277778"
       d="m 21.661897,220.02724 c 0.341736,0 0.584271,-0.17639 0.584271,-0.49609 v -0.006 c 0,-0.28112 -0.181892,-0.39687 -0.507118,-0.47956 -0.27559,-0.0716 -0.347275,-0.10473 -0.347275,-0.21497 0,-0.0827 0.07169,-0.14332 0.20948,-0.14332 0.110243,0 0.220486,0.0386 0.336232,0.11025 0.02752,0.0165 0.05514,0.022 0.08819,0.022 0.0937,0 0.165382,-0.0717 0.165382,-0.15986 0,-0.0717 -0.03859,-0.11575 -0.07719,-0.14331 -0.143298,-0.0882 -0.314184,-0.1378 -0.507118,-0.1378 -0.330729,0 -0.562222,0.19292 -0.562222,0.47955 v 0.006 c 0,0.3197 0.203941,0.4079 0.529167,0.49057 0.270086,0.0717 0.32519,0.11576 0.32519,0.20396 v 0.006 c 0,0.0937 -0.08819,0.15434 -0.231493,0.15434 -0.159843,0 -0.292135,-0.0551 -0.41342,-0.14883 -0.02187,-0.0165 -0.0551,-0.0275 -0.0992,-0.0275 -0.09373,0 -0.165382,0.0661 -0.165382,0.15986 0,0.0551 0.02752,0.10473 0.06615,0.13229 0.181892,0.13229 0.391371,0.19292 0.606354,0.19292 z m 0,0"
       id="path68407" />
    <path
       inkscape:connector-curvature="0"
       style="fill:#000000;fill-opacity:1;stroke:none;stroke-width:0.35277778"
       d="m 15.075888,188.59064 c 0.02752,0.0717 0.07719,0.11576 0.143334,0.11576 h 0.02752 c 0.07165,0 0.121285,-0.0441 0.148837,-0.11576 l 0.358281,-1.04731 0.358281,1.04731 c 0.02187,0.0717 0.07168,0.11576 0.143334,0.11576 h 0.02752 c 0.06615,0 0.121285,-0.0441 0.148837,-0.11576 l 0.474028,-1.32843 c 0.0056,-0.0165 0.01093,-0.0386 0.01093,-0.0606 0,-0.0717 -0.06615,-0.13229 -0.137795,-0.13229 -0.07168,0 -0.115782,0.0441 -0.13783,0.0992 l -0.369288,1.10794 -0.36382,-1.10243 c -0.02187,-0.0662 -0.07165,-0.11025 -0.143298,-0.11025 h -0.01658 c -0.07165,0 -0.121285,0.0441 -0.143333,0.11025 l -0.363785,1.10243 -0.369323,-1.10794 c -0.01658,-0.0551 -0.07165,-0.0992 -0.137795,-0.0992 -0.07719,0 -0.148837,0.0606 -0.148837,0.1378 0,0.0165 0.0056,0.0386 0.01658,0.0551 z m 0,0"
       id="path68419" />
    <path
       inkscape:connector-curvature="0"
       style="fill:#000000;fill-opacity:1;stroke:none;stroke-width:0.35277778"
       d="m 17.275952,188.55757 c 0,0.0772 0.06615,0.1378 0.143298,0.1378 0.07719,0 0.143334,-0.0606 0.143334,-0.1378 v -1.35048 c 0,-0.0772 -0.06615,-0.1378 -0.143334,-0.1378 -0.07715,0 -0.143298,0.0606 -0.143298,0.1378 z m 0,0"
       id="path68423" />
    <path
       inkscape:connector-curvature="0"
       style="fill:#000000;fill-opacity:1;stroke:none;stroke-width:0.35277778"
       d="m 18.05986,188.54103 c 0,0.0827 0.06614,0.14332 0.143333,0.14332 h 0.457482 c 0.507119,0 0.854393,-0.35278 0.854393,-0.80478 0,-0.45199 -0.347274,-0.79926 -0.854393,-0.79926 h -0.457482 c -0.07719,0 -0.143333,0.0606 -0.143333,0.14332 z m 0.286631,-0.11575 v -1.09141 h 0.314184 c 0.336268,0 0.556754,0.23151 0.556754,0.5457 v 0.006 c 0,0.31419 -0.220486,0.54019 -0.556754,0.54019 z m 0,0"
       id="path68431" />
    <path
       inkscape:connector-curvature="0"
       style="fill:#000000;fill-opacity:1;stroke:none;stroke-width:0.35277778"
       d="m 20.227009,188.55757 c 0,0.0772 0.06615,0.1378 0.143334,0.1378 0.07715,0 0.143298,-0.0606 0.143298,-0.1378 v -1.21819 h 0.391372 c 0.07165,0 0.126788,-0.0606 0.126788,-0.12678 0,-0.0717 -0.05514,-0.13229 -0.126788,-0.13229 h -1.069341 c -0.07168,0 -0.126788,0.0606 -0.126788,0.13229 0,0.0661 0.0551,0.12678 0.126788,0.12678 h 0.391337 z m 0,0"
       id="path68427" />
    <path
       inkscape:connector-curvature="0"
       style="fill:#000000;fill-opacity:1;stroke:none;stroke-width:0.35277778"
       d="m 21.370256,188.55757 c 0,0.0772 0.06615,0.1378 0.143333,0.1378 0.07715,0 0.143299,-0.0606 0.143299,-0.1378 v -0.55122 h 0.766198 v 0.55122 c 0,0.0772 0.06064,0.1378 0.137795,0.1378 0.07719,0 0.143333,-0.0606 0.143333,-0.1378 v -1.35048 c 0,-0.0772 -0.06614,-0.1378 -0.143333,-0.1378 -0.07715,0 -0.137795,0.0606 -0.137795,0.1378 v 0.54019 h -0.766198 v -0.54019 c 0,-0.0772 -0.06615,-0.1378 -0.143299,-0.1378 -0.07719,0 -0.143333,0.0606 -0.143333,0.1378 z m 0,0"
       id="path68435" />
    <path
       inkscape:connector-curvature="0"
       style="fill:#000000;fill-opacity:1;stroke:none;stroke-width:0.35277778"
       d="m 5.928995,188.71191 c 0.25908,0 0.429966,-0.0827 0.578767,-0.21498 0.02752,-0.022 0.04964,-0.0606 0.04964,-0.0992 0,-0.0716 -0.06615,-0.13229 -0.13783,-0.13229 -0.03316,0 -0.06061,0.011 -0.08266,0.0331 -0.115782,0.0992 -0.231528,0.15434 -0.402414,0.15434 -0.303142,0 -0.529166,-0.25907 -0.529166,-0.57327 0,-0.31419 0.226024,-0.56774 0.529166,-0.56774 0.15434,0 0.275626,0.0551 0.385869,0.14331 0.01658,0.0165 0.0441,0.0276 0.08269,0.0276 0.07715,0 0.143298,-0.0606 0.143298,-0.1378 0,-0.0496 -0.02752,-0.0882 -0.0551,-0.11024 -0.143334,-0.11025 -0.303177,-0.1819 -0.551216,-0.1819 -0.485069,0 -0.82684,0.37482 -0.82684,0.82682 v 0.006 c 0,0.46302 0.347274,0.82682 0.815799,0.82682 z m 0,0"
       id="path68443" />
    <path
       inkscape:connector-curvature="0"
       style="fill:#000000;fill-opacity:1;stroke:none;stroke-width:0.35277778"
       d="M 7.57802,188.7064 H 7.5946 c 0.07715,0 0.132291,-0.0441 0.159843,-0.11576 l 0.567761,-1.32843 c 0.0056,-0.0165 0.01093,-0.0386 0.01093,-0.0606 0,-0.0717 -0.06064,-0.13229 -0.137795,-0.13229 -0.06615,0 -0.115746,0.0441 -0.137795,0.0882 l -0.46856,1.16858 -0.46302,-1.15755 c -0.02187,-0.0606 -0.07165,-0.0992 -0.143299,-0.0992 -0.08269,0 -0.143333,0.0606 -0.143333,0.1378 0,0.0221 0.0056,0.0441 0.01658,0.0661 l 0.562257,1.3174 c 0.02752,0.0717 0.08266,0.11576 0.159844,0.11576 z m 0,0"
       id="path68439" />
    <path
       inkscape:connector-curvature="0"
       id="path44063"
       d="M 6.688984,249.73398 H 18.688968"
       style="fill:none;stroke:#000000;stroke-width:0.23495002;stroke-linecap:round;stroke-linejoin:round;stroke-miterlimit:10;stroke-opacity:1" />
    <path
       inkscape:connector-curvature="0"
       style="fill:#000000;fill-opacity:1;stroke:none;stroke-width:0.35277778"
       d="m 4.606748,238.97589 c 0,0.11024 0.08269,0.19844 0.187431,0.19844 h 0.611858 c 0.672465,0 1.135486,-0.48507 1.135486,-1.11346 v -0.005 c 0,-0.62287 -0.463021,-1.10243 -1.135486,-1.10243 H 4.794179 c -0.104739,0 -0.187431,0.0827 -0.187431,0.19844 z m 0.374827,-0.15985 v -1.51033 h 0.424462 c 0.446476,0 0.744114,0.3197 0.744114,0.75516 v 0.011 c 0,0.42995 -0.297638,0.74414 -0.744114,0.74414 z m 0,0"
       id="path68451" />
    <path
       inkscape:connector-curvature="0"
       style="fill:#000000;fill-opacity:1;stroke:none;stroke-width:0.35277778"
       d="m 7.242951,239.17433 h 1.262274 c 0.09373,0 0.170886,-0.0772 0.170886,-0.17639 0,-0.0937 -0.07715,-0.17088 -0.170886,-0.17088 H 7.430382 v -0.60082 h 0.920503 c 0.09373,0 0.170886,-0.0717 0.170886,-0.17088 0,-0.0992 -0.07715,-0.17639 -0.170886,-0.17639 H 7.430382 v -0.57877 h 1.058333 c 0.0937,0 0.170851,-0.0772 0.170851,-0.17639 0,-0.0937 -0.07715,-0.17088 -0.170851,-0.17088 H 7.242951 c -0.10474,0 -0.187395,0.0827 -0.187395,0.19844 v 1.82452 c 0,0.11024 0.08266,0.19844 0.187395,0.19844 z m 0,0"
       id="path68447" />
    <path
       inkscape:connector-curvature="0"
       style="fill:#000000;fill-opacity:1;stroke:none;stroke-width:0.35277778"
       d="m 10.10151,239.21291 c 0.347275,0 0.578802,-0.11575 0.77724,-0.29765 0.03316,-0.0331 0.06061,-0.0827 0.06061,-0.14332 0,-0.0937 -0.08266,-0.17639 -0.176389,-0.17639 -0.0441,0 -0.08266,0.0165 -0.110243,0.0441 -0.159843,0.13229 -0.30868,0.20946 -0.53467,0.20946 -0.41342,0 -0.711059,-0.35278 -0.711059,-0.78824 v -0.005 c 0,-0.43546 0.303177,-0.78273 0.711059,-0.78273 0.203941,0 0.36382,0.0772 0.507118,0.19844 0.02752,0.022 0.06064,0.0386 0.115747,0.0386 0.10474,0 0.187431,-0.0827 0.187431,-0.18741 0,-0.0717 -0.03316,-0.12679 -0.07719,-0.15986 -0.187396,-0.14883 -0.402378,-0.24805 -0.733108,-0.24805 -0.650416,0 -1.102431,0.51815 -1.102431,1.14653 v 0.011 c 0,0.6339 0.463021,1.14101 1.085886,1.14101 z m 0,0"
       id="path68455" />
    <path
       inkscape:connector-curvature="0"
       style="fill:#000000;fill-opacity:1;stroke:none;stroke-width:0.35277778"
       d="m 12.394954,239.21291 c 0.661458,0 1.124479,-0.52365 1.124479,-1.15204 v -0.005 c 0,-0.62287 -0.457518,-1.14102 -1.118976,-1.14102 -0.655955,0 -1.118976,0.52366 -1.118976,1.14653 v 0.011 c 0,0.62287 0.457518,1.14101 1.113473,1.14101 z m 0.0056,-0.3638 c -0.424427,0 -0.727604,-0.35278 -0.727604,-0.78824 v -0.005 c 0,-0.42995 0.297639,-0.78273 0.722101,-0.78273 0.424427,0 0.727604,0.3583 0.727604,0.78824 v 0.011 c 0,0.42995 -0.29217,0.77721 -0.722101,0.77721 z m 0,0"
       id="path68459" />
    <path
       inkscape:connector-curvature="0"
       style="fill:#000000;fill-opacity:1;stroke:none;stroke-width:0.35277778"
       d="m 14.03911,238.97589 c 0,0.11024 0.08266,0.19844 0.187395,0.19844 h 0.611858 c 0.672465,0 1.135486,-0.48507 1.135486,-1.11346 v -0.005 c 0,-0.62287 -0.463021,-1.10243 -1.135486,-1.10243 h -0.611858 c -0.104739,0 -0.187395,0.0827 -0.187395,0.19844 z m 0.374826,-0.15985 v -1.51033 h 0.424427 c 0.446476,0 0.74415,0.3197 0.74415,0.75516 v 0.011 c 0,0.42995 -0.297674,0.74414 -0.74415,0.74414 z m 0,0"
       id="path68467" />
    <path
       inkscape:connector-curvature="0"
       style="fill:#000000;fill-opacity:1;stroke:none;stroke-width:0.35277778"
       d="m 16.675312,239.17433 h 1.262275 c 0.0937,0 0.170885,-0.0772 0.170885,-0.17639 0,-0.0937 -0.07719,-0.17088 -0.170885,-0.17088 h -1.074879 v -0.60082 h 0.920538 c 0.0937,0 0.170886,-0.0717 0.170886,-0.17088 0,-0.0992 -0.07719,-0.17639 -0.170886,-0.17639 h -0.920538 v -0.57877 h 1.058333 c 0.09373,0 0.170886,-0.0772 0.170886,-0.17639 0,-0.0937 -0.07715,-0.17088 -0.170886,-0.17088 h -1.245729 c -0.104739,0 -0.18743,0.0827 -0.18743,0.19844 v 1.82452 c 0,0.11024 0.08269,0.19844 0.18743,0.19844 z m 0,0"
       id="path68463" />
    <path
       inkscape:connector-curvature="0"
       style="fill:#000000;fill-opacity:1;stroke:none;stroke-width:0.35277778"
       d="m 18.591284,238.99794 c 0,0.10473 0.08269,0.19292 0.187431,0.19292 0.10474,0 0.187395,-0.0882 0.187395,-0.19292 v -0.60083 h 0.474063 l 0.523663,0.68902 c 0.03856,0.0606 0.0937,0.10473 0.181893,0.10473 0.0937,0 0.181892,-0.0716 0.181892,-0.1819 0,-0.0606 -0.02752,-0.0992 -0.06064,-0.14882 l -0.413385,-0.53468 c 0.286631,-0.0937 0.485069,-0.30868 0.485069,-0.66697 v -0.006 c 0,-0.19292 -0.06064,-0.35829 -0.176389,-0.47956 -0.13783,-0.1378 -0.347274,-0.22048 -0.617361,-0.22048 h -0.766198 c -0.10474,0 -0.187431,0.0827 -0.187431,0.19843 z m 0.374826,-0.94258 v -0.74965 h 0.551216 c 0.275625,0 0.440972,0.13229 0.440972,0.36931 v 0.006 c 0,0.226 -0.17085,0.37482 -0.440972,0.37482 z m 0,0"
       id="path68471" />
    <path
       inkscape:connector-curvature="0"
       id="path44089"
       d="M 18.699975,264.73392 H 6.69865"
       style="fill:none;stroke:#000000;stroke-width:0.23495002;stroke-linecap:round;stroke-linejoin:round;stroke-miterlimit:10;stroke-opacity:1" />
    <path
       inkscape:connector-curvature="0"
       id="path44091"
       d="M 23.539663,234.02434 H 1.857586"
       style="fill:none;stroke:#000000;stroke-width:0.23495002;stroke-linecap:round;stroke-linejoin:round;stroke-miterlimit:10;stroke-opacity:1" />
    <path
       inkscape:connector-curvature="0"
       style="fill:#000000;fill-opacity:1;stroke:none;stroke-width:0.35277778"
       d="m 4.571647,258.55789 c 0,0.0772 0.06064,0.1378 0.137795,0.1378 0.08269,0 0.143334,-0.0606 0.143334,-0.1378 v -0.95912 l 0.385833,0.58429 c 0.03316,0.0441 0.07168,0.0717 0.121285,0.0717 0.0496,0 0.08819,-0.0276 0.115746,-0.0717 l 0.391372,-0.5898 v 0.96463 c 0,0.0717 0.06615,0.1378 0.143298,0.1378 0.07719,0 0.143334,-0.0606 0.143334,-0.1378 v -1.34497 c 0,-0.0772 -0.06615,-0.14331 -0.143334,-0.14331 H 5.97715 c -0.05514,0 -0.0937,0.0275 -0.126788,0.0717 l -0.48507,0.76618 -0.490572,-0.76067 c -0.02752,-0.0441 -0.06615,-0.0772 -0.126789,-0.0772 h -0.03316 c -0.07719,0 -0.143333,0.0661 -0.143333,0.14331 z m 0,0"
       id="path68475" />
    <path
       inkscape:connector-curvature="0"
       style="fill:#000000;fill-opacity:1;stroke:none;stroke-width:0.35277778"
       d="m 6.656282,258.55789 c 0,0.0772 0.06615,0.1378 0.143298,0.1378 0.07719,0 0.143334,-0.0606 0.143334,-0.1378 v -1.35048 c 0,-0.0772 -0.06615,-0.1378 -0.143334,-0.1378 -0.07715,0 -0.143298,0.0606 -0.143298,0.1378 z m 0,0"
       id="path68483" />
    <path
       inkscape:connector-curvature="0"
       style="fill:#000000;fill-opacity:1;stroke:none;stroke-width:0.35277778"
       d="m 7.440013,258.54135 c 0,0.0827 0.06615,0.14332 0.143333,0.14332 h 0.457483 c 0.507118,0 0.854392,-0.35278 0.854392,-0.80477 0,-0.452 -0.347274,-0.79927 -0.854392,-0.79927 H 7.583346 c -0.07719,0 -0.143333,0.0606 -0.143333,0.14332 z m 0.286632,-0.11575 v -1.09141 h 0.314184 c 0.336267,0 0.556754,0.23151 0.556754,0.54571 v 0.005 c 0,0.31419 -0.220487,0.54019 -0.556754,0.54019 z m 0,0"
       id="path68479" />
    <path
       inkscape:connector-curvature="0"
       style="fill:#000000;fill-opacity:1;stroke:none;stroke-width:0.35277778"
       d="m 15.828681,258.70672 c 0.341736,0 0.573264,-0.17639 0.573264,-0.47956 v -0.006 c 0,-0.26459 -0.170886,-0.38585 -0.512657,-0.46854 -0.30868,-0.0717 -0.38033,-0.12678 -0.38033,-0.25356 0,-0.11024 0.0937,-0.19292 0.25908,-0.19292 0.126789,0 0.248039,0.0386 0.369324,0.12127 0.02187,0.0165 0.0441,0.022 0.07165,0.022 0.07715,0 0.137795,-0.0606 0.137795,-0.1323 0,-0.0551 -0.03316,-0.0937 -0.06615,-0.11024 -0.143298,-0.0992 -0.303177,-0.14883 -0.507118,-0.14883 -0.319687,0 -0.545712,0.18741 -0.545712,0.46302 v 0.006 c 0,0.29765 0.187431,0.39687 0.529167,0.47955 0.303177,0.0661 0.363819,0.13229 0.363819,0.24254 v 0.006 c 0,0.12127 -0.110243,0.20395 -0.281128,0.20395 -0.176389,0 -0.319687,-0.0606 -0.451979,-0.16537 -0.01658,-0.0165 -0.0441,-0.0275 -0.08269,-0.0275 -0.07165,0 -0.132292,0.0606 -0.132292,0.13229 0,0.0441 0.02187,0.0827 0.0551,0.11025 0.176389,0.13229 0.385868,0.19843 0.600851,0.19843 z m 0,0"
       id="path68487" />
    <path
       inkscape:connector-curvature="0"
       style="fill:#000000;fill-opacity:1;stroke:none;stroke-width:0.35277778"
       d="m 16.822386,258.55789 c 0,0.0772 0.06614,0.1378 0.143298,0.1378 0.07719,0 0.143333,-0.0606 0.143333,-0.1378 v -1.35048 c 0,-0.0772 -0.06615,-0.1378 -0.143333,-0.1378 -0.07715,0 -0.143298,0.0606 -0.143298,0.1378 z m 0,0"
       id="path68491" />
    <path
       inkscape:connector-curvature="0"
       style="fill:#000000;fill-opacity:1;stroke:none;stroke-width:0.35277778"
       d="m 17.606328,258.54135 c 0,0.0827 0.06615,0.14332 0.143334,0.14332 h 0.457482 c 0.507118,0 0.854393,-0.35278 0.854393,-0.80477 0,-0.452 -0.347275,-0.79927 -0.854393,-0.79927 h -0.457482 c -0.07719,0 -0.143334,0.0606 -0.143334,0.14332 z m 0.286632,-0.11575 v -1.09141 h 0.314184 c 0.336268,0 0.556754,0.23151 0.556754,0.54571 v 0.005 c 0,0.31419 -0.220486,0.54019 -0.556754,0.54019 z m 0,0"
       id="path68503" />
    <path
       inkscape:connector-curvature="0"
       style="fill:#000000;fill-opacity:1;stroke:none;stroke-width:0.35277778"
       d="m 19.60933,258.68467 h 0.94809 c 0.06615,0 0.126754,-0.0551 0.126754,-0.12678 0,-0.0661 -0.06061,-0.12678 -0.126754,-0.12678 h -0.804791 v -0.42995 h 0.68901 c 0.06615,0 0.126788,-0.0551 0.126788,-0.12126 0,-0.0717 -0.06064,-0.1323 -0.126788,-0.1323 h -0.68901 v -0.41341 h 0.79375 c 0.06614,0 0.121285,-0.0551 0.121285,-0.12678 0,-0.0717 -0.05514,-0.12678 -0.121285,-0.12678 H 19.60933 c -0.07719,0 -0.143334,0.0606 -0.143334,0.14332 v 1.3174 c 0,0.0827 0.06615,0.14332 0.143334,0.14332 z m 0,0"
       id="path68499" />
    <path
       inkscape:connector-curvature="0"
       style="fill:#000000;fill-opacity:1;stroke:none;stroke-width:0.35277778"
       d="m 21.631064,258.70672 c 0.341736,0 0.573264,-0.17639 0.573264,-0.47956 v -0.006 c 0,-0.26459 -0.170885,-0.38585 -0.512656,-0.46854 -0.308681,-0.0717 -0.38033,-0.12678 -0.38033,-0.25356 0,-0.11024 0.0937,-0.19292 0.25908,-0.19292 0.126788,0 0.248038,0.0386 0.369323,0.12127 0.02187,0.0165 0.0441,0.022 0.07165,0.022 0.07715,0 0.137795,-0.0606 0.137795,-0.1323 0,-0.0551 -0.03316,-0.0937 -0.06615,-0.11024 -0.143298,-0.0992 -0.303177,-0.14883 -0.507118,-0.14883 -0.319687,0 -0.545712,0.18741 -0.545712,0.46302 v 0.006 c 0,0.29765 0.187431,0.39687 0.529167,0.47955 0.303177,0.0661 0.36382,0.13229 0.36382,0.24254 v 0.006 c 0,0.12127 -0.110243,0.20395 -0.281129,0.20395 -0.176389,0 -0.319687,-0.0606 -0.451979,-0.16537 -0.01658,-0.0165 -0.0441,-0.0275 -0.08269,-0.0275 -0.07165,0 -0.132292,0.0606 -0.132292,0.13229 0,0.0441 0.02187,0.0827 0.0551,0.11025 0.176389,0.13229 0.385869,0.19843 0.600851,0.19843 z m 0,0"
       id="path68495" />
    <path
       inkscape:connector-curvature="0"
       id="path44119"
       d="m 23.539663,272.91947 c 0,-0.54984 -0.449263,-1.00045 -0.999102,-1.00045 h -7.682548 c -0.54984,0 -0.999067,0.45061 -0.999067,1.00045 v 12.17221 c 0,0.54984 0.449227,1.00046 0.999067,1.00046 h 7.682548 c 0.549839,0 0.999102,-0.45062 0.999102,-1.00046 z m 0,0"
       style="fill:#000000;fill-opacity:1;fill-rule:nonzero;stroke:none;stroke-width:0.35277778" />
    <path
       inkscape:connector-curvature="0"
       id="path44121"
       d="m 11.541055,272.91947 c 0,-0.54984 -0.450603,-1.00045 -1.000443,-1.00045 H 2.858064 c -0.549839,0 -0.999102,0.45061 -0.999102,1.00045 v 12.17221 c 0,0.54984 0.449263,1.00046 0.999102,1.00046 h 7.682548 c 0.54984,0 1.000443,-0.45062 1.000443,-1.00046 z m 0,0"
       style="fill:#000000;fill-opacity:1;fill-rule:nonzero;stroke:none;stroke-width:0.35277778" />
    <path
       inkscape:connector-curvature="0"
       style="fill:#e6e6e6;fill-opacity:1;stroke:none;stroke-width:0.35277778"
       d="m 3.797864,274.8294 c 0,0.0992 0.07715,0.17639 0.176389,0.17639 h 0.832344 c 0.08819,0 0.159844,-0.0717 0.159844,-0.15986 0,-0.0882 -0.07165,-0.15985 -0.159844,-0.15985 H 4.150642 v -1.12448 c 0,-0.0992 -0.07719,-0.17638 -0.176389,-0.17638 -0.09924,0 -0.176389,0.0772 -0.176389,0.17638 z m 0,0"
       id="path68511" />
    <path
       inkscape:connector-curvature="0"
       style="fill:#e6e6e6;fill-opacity:1;stroke:none;stroke-width:0.35277778"
       d="m 5.448758,275.00579 h 0.898455 c 0.08819,0 0.159879,-0.0661 0.159879,-0.15434 0,-0.0882 -0.07169,-0.15985 -0.159879,-0.15985 H 5.625147 v -0.33625 H 6.23697 c 0.08269,0 0.15434,-0.0717 0.15434,-0.15433 0,-0.0882 -0.07165,-0.15986 -0.15434,-0.15986 H 5.625147 v -0.32521 h 0.711059 c 0.08819,0 0.159844,-0.0717 0.159844,-0.15435 0,-0.0882 -0.07165,-0.15985 -0.159844,-0.15985 H 5.448758 c -0.09924,0 -0.176388,0.0772 -0.176388,0.17639 v 1.25126 c 0,0.0992 0.07715,0.17639 0.176388,0.17639 z m 0,0"
       id="path68507" />
    <path
       inkscape:connector-curvature="0"
       style="fill:#e6e6e6;fill-opacity:1;stroke:none;stroke-width:0.35277778"
       d="m 6.889503,274.84043 c 0,0.0992 0.07715,0.17638 0.176389,0.17638 0.0992,0 0.176389,-0.0772 0.176389,-0.17638 v -0.45752 h 0.617361 c 0.0937,0 0.159844,-0.0716 0.159844,-0.15985 0,-0.0882 -0.06615,-0.15985 -0.159844,-0.15985 H 7.242281 v -0.34175 h 0.722065 c 0.08819,0 0.159879,-0.0717 0.159879,-0.15986 0,-0.0882 -0.07168,-0.15985 -0.159879,-0.15985 H 7.065892 c -0.09924,0 -0.176389,0.0772 -0.176389,0.17639 z m 0,0"
       id="path68515" />
    <path
       inkscape:connector-curvature="0"
       style="fill:#e6e6e6;fill-opacity:1;stroke:none;stroke-width:0.35277778"
       d="m 8.874055,274.84043 c 0,0.0992 0.07715,0.17638 0.176389,0.17638 0.0992,0 0.176388,-0.0772 0.176388,-0.17638 v -1.11346 h 0.336233 c 0.0937,0 0.165347,-0.0717 0.165347,-0.16537 0,-0.0882 -0.07165,-0.15985 -0.165347,-0.15985 H 8.532284 c -0.0882,0 -0.159844,0.0717 -0.159844,0.15985 0,0.0937 0.07165,0.16537 0.159844,0.16537 h 0.341771 z m 0,0"
       id="path68519" />
    <path
       inkscape:connector-curvature="0"
       style="fill:#e6e6e6;fill-opacity:1;stroke:none;stroke-width:0.35277778"
       d="m 15.022337,274.84043 c 0,0.0992 0.07715,0.17638 0.176389,0.17638 0.0992,0 0.176389,-0.0772 0.176389,-0.17638 v -0.34727 h 0.281093 l 0.347274,0.43546 c 0.03859,0.0496 0.0937,0.0882 0.170886,0.0882 0.08819,0 0.170885,-0.0606 0.170885,-0.15985 0,-0.0551 -0.02752,-0.0937 -0.06064,-0.1378 l -0.242535,-0.29766 c 0.192935,-0.0772 0.319687,-0.23702 0.319687,-0.48507 v -0.005 c 0,-0.15434 -0.0496,-0.27561 -0.137795,-0.36931 -0.104739,-0.10474 -0.264583,-0.15986 -0.468524,-0.15986 h -0.556718 c -0.09924,0 -0.176389,0.0772 -0.176389,0.17639 z m 0.352778,-0.66146 v -0.45751 h 0.352777 c 0.170851,0 0.27559,0.0772 0.27559,0.226 v 0.006 c 0,0.13781 -0.0992,0.226 -0.270086,0.226 z m 0,0"
       id="path68523" />
    <path
       inkscape:connector-curvature="0"
       style="fill:#e6e6e6;fill-opacity:1;stroke:none;stroke-width:0.35277778"
       d="m 16.777265,274.84043 c 0,0.0992 0.07719,0.17638 0.176389,0.17638 0.09924,0 0.176389,-0.0772 0.176389,-0.17638 v -1.27883 c 0,-0.0992 -0.07715,-0.17638 -0.176389,-0.17638 -0.0992,0 -0.176389,0.0772 -0.176389,0.17638 z m 0,0"
       id="path68527" />
    <path
       inkscape:connector-curvature="0"
       style="fill:#e6e6e6;fill-opacity:1;stroke:none;stroke-width:0.35277778"
       d="m 18.36667,275.03335 c 0.242535,0 0.429931,-0.0827 0.562222,-0.15985 0.08269,-0.0496 0.126789,-0.12127 0.126789,-0.226 v -0.39136 c 0,-0.0992 -0.08269,-0.17639 -0.181892,-0.17639 h -0.402414 c -0.08266,0 -0.15434,0.0717 -0.15434,0.15434 0,0.0882 0.07168,0.15434 0.15434,0.15434 h 0.242535 v 0.22599 c -0.0937,0.0661 -0.203941,0.0992 -0.336233,0.0992 -0.281129,0 -0.48507,-0.21497 -0.48507,-0.51262 0,-0.27561 0.203941,-0.50161 0.463021,-0.50161 0.148837,0 0.253577,0.0386 0.347275,0.11024 0.02752,0.0165 0.06064,0.0386 0.110243,0.0386 0.0937,0 0.170885,-0.0827 0.170885,-0.17639 0,-0.0717 -0.03859,-0.11576 -0.07168,-0.14332 -0.143298,-0.0992 -0.303142,-0.15434 -0.545677,-0.15434 -0.485069,0 -0.843385,0.37483 -0.843385,0.82683 v 0.005 c 0,0.47404 0.341771,0.82682 0.843385,0.82682 z m 0,0"
       id="path68531" />
    <path
       inkscape:connector-curvature="0"
       style="fill:#e6e6e6;fill-opacity:1;stroke:none;stroke-width:0.35277778"
       d="m 19.478908,274.84043 c 0,0.0992 0.07715,0.17638 0.176389,0.17638 0.0992,0 0.176389,-0.0772 0.176389,-0.17638 v -0.47956 h 0.650417 v 0.47956 c 0,0.0992 0.07719,0.17638 0.176388,0.17638 0.09924,0 0.176389,-0.0772 0.176389,-0.17638 v -1.27883 c 0,-0.0992 -0.07715,-0.17638 -0.176389,-0.17638 -0.0992,0 -0.176388,0.0772 -0.176388,0.17638 v 0.47405 h -0.650417 v -0.47405 c 0,-0.0992 -0.07719,-0.17638 -0.176389,-0.17638 -0.09924,0 -0.176389,0.0772 -0.176389,0.17638 z m 0,0"
       id="path68539" />
    <path
       inkscape:connector-curvature="0"
       style="fill:#e6e6e6;fill-opacity:1;stroke:none;stroke-width:0.35277778"
       d="m 21.649162,274.84043 c 0,0.0992 0.07715,0.17638 0.176389,0.17638 0.0992,0 0.176389,-0.0772 0.176389,-0.17638 v -1.11346 h 0.336232 c 0.0937,0 0.165382,-0.0717 0.165382,-0.16537 0,-0.0882 -0.07168,-0.15985 -0.165382,-0.15985 h -1.030781 c -0.08819,0 -0.159844,0.0717 -0.159844,0.15985 0,0.0937 0.07165,0.16537 0.159844,0.16537 h 0.341771 z m 0,0"
       id="path68535" />
    <path
       inkscape:connector-curvature="0"
       style="fill:#000000;fill-opacity:1;stroke:none;stroke-width:0.35277778"
       d="m 5.927443,243.71251 c 0.25908,0 0.429965,-0.0827 0.578802,-0.21498 0.02752,-0.022 0.0496,-0.0606 0.0496,-0.0992 0,-0.0717 -0.06615,-0.1323 -0.137795,-0.1323 -0.03316,0 -0.06064,0.011 -0.08269,0.0331 -0.115746,0.0992 -0.231528,0.15434 -0.402378,0.15434 -0.303177,0 -0.529167,-0.25907 -0.529167,-0.57326 0,-0.3142 0.22599,-0.56776 0.529167,-0.56776 0.15434,0 0.27559,0.0551 0.385833,0.14332 0.01658,0.0165 0.0441,0.0275 0.08269,0.0275 0.07715,0 0.143298,-0.0606 0.143298,-0.13781 0,-0.0496 -0.02752,-0.0882 -0.0551,-0.11024 -0.143333,-0.11024 -0.303177,-0.1819 -0.551215,-0.1819 -0.485069,0 -0.82684,0.37483 -0.82684,0.82683 v 0.006 c 0,0.46302 0.347274,0.82682 0.815798,0.82682 z m 0,0"
       id="path68547" />
    <path
       inkscape:connector-curvature="0"
       style="fill:#000000;fill-opacity:1;stroke:none;stroke-width:0.35277778"
       d="m 7.576467,243.707 h 0.01658 c 0.07719,0 0.132292,-0.0441 0.159879,-0.11576 l 0.567725,-1.32843 c 0.0056,-0.0165 0.01093,-0.0386 0.01093,-0.0606 0,-0.0717 -0.06064,-0.13229 -0.137795,-0.13229 -0.06615,0 -0.115781,0.0441 -0.13783,0.0882 l -0.468524,1.16858 -0.463021,-1.15756 c -0.02187,-0.0606 -0.07165,-0.0992 -0.143298,-0.0992 -0.08269,0 -0.143334,0.0606 -0.143334,0.1378 0,0.022 0.0056,0.0441 0.01658,0.0661 l 0.562222,1.3174 c 0.02752,0.0717 0.08269,0.11576 0.159879,0.11576 z m 0,0"
       id="path68543" />
    <path
       inkscape:connector-curvature="0"
       style="fill:#000000;fill-opacity:1;stroke:none;stroke-width:0.35277778"
       d="m 15.074336,243.59124 c 0.02752,0.0717 0.07719,0.11576 0.143334,0.11576 h 0.02752 c 0.07165,0 0.121285,-0.0441 0.148836,-0.11576 l 0.358282,-1.04731 0.358281,1.04731 c 0.02187,0.0717 0.07168,0.11576 0.143333,0.11576 h 0.02752 c 0.06615,0 0.121285,-0.0441 0.148837,-0.11576 l 0.474028,-1.32843 c 0.0056,-0.0165 0.01093,-0.0386 0.01093,-0.0606 0,-0.0717 -0.06615,-0.13229 -0.137795,-0.13229 -0.07168,0 -0.115782,0.0441 -0.13783,0.0992 l -0.369288,1.10795 -0.36382,-1.10243 c -0.02187,-0.0661 -0.07165,-0.11024 -0.143298,-0.11024 h -0.01658 c -0.07165,0 -0.121285,0.0441 -0.143333,0.11024 l -0.363785,1.10243 -0.369323,-1.10795 c -0.01658,-0.0551 -0.07165,-0.0992 -0.137795,-0.0992 -0.07719,0 -0.148837,0.0606 -0.148837,0.1378 0,0.0165 0.0056,0.0386 0.01658,0.0551 z m 0,0"
       id="path68551" />
    <path
       inkscape:connector-curvature="0"
       style="fill:#000000;fill-opacity:1;stroke:none;stroke-width:0.35277778"
       d="m 17.2744,243.55817 c 0,0.0772 0.06615,0.1378 0.143298,0.1378 0.07719,0 0.143334,-0.0606 0.143334,-0.1378 v -1.35048 c 0,-0.0772 -0.06615,-0.1378 -0.143334,-0.1378 -0.07715,0 -0.143298,0.0606 -0.143298,0.1378 z m 0,0"
       id="path68555" />
    <path
       inkscape:connector-curvature="0"
       style="fill:#000000;fill-opacity:1;stroke:none;stroke-width:0.35277778"
       d="m 18.058307,243.54163 c 0,0.0827 0.06615,0.14332 0.143334,0.14332 h 0.457518 c 0.507117,0 0.854357,-0.35278 0.854357,-0.80478 0,-0.45199 -0.34724,-0.79926 -0.854357,-0.79926 h -0.457518 c -0.07719,0 -0.143334,0.0606 -0.143334,0.14332 z m 0.286632,-0.11575 v -1.09141 h 0.31422 c 0.336232,0 0.556718,0.23151 0.556718,0.5457 v 0.006 c 0,0.31419 -0.220486,0.54019 -0.556718,0.54019 z m 0,0"
       id="path68563" />
    <path
       inkscape:connector-curvature="0"
       style="fill:#000000;fill-opacity:1;stroke:none;stroke-width:0.35277778"
       d="m 20.225456,243.55817 c 0,0.0772 0.06615,0.1378 0.143334,0.1378 0.07715,0 0.143299,-0.0606 0.143299,-0.1378 v -1.21819 h 0.391371 c 0.07165,0 0.126789,-0.0606 0.126789,-0.12678 0,-0.0717 -0.05514,-0.13229 -0.126789,-0.13229 h -1.069375 c -0.07165,0 -0.126753,0.0606 -0.126753,0.13229 0,0.0661 0.0551,0.12678 0.126753,0.12678 h 0.391371 z m 0,0"
       id="path68559" />
    <path
       inkscape:connector-curvature="0"
       style="fill:#000000;fill-opacity:1;stroke:none;stroke-width:0.35277778"
       d="m 21.368704,243.55817 c 0,0.0772 0.06614,0.1378 0.143333,0.1378 0.07715,0 0.143298,-0.0606 0.143298,-0.1378 v -0.55122 h 0.766199 v 0.55122 c 0,0.0772 0.06064,0.1378 0.137795,0.1378 0.07719,0 0.143333,-0.0606 0.143333,-0.1378 v -1.35048 c 0,-0.0772 -0.06614,-0.1378 -0.143333,-0.1378 -0.07715,0 -0.137795,0.0606 -0.137795,0.1378 v 0.54019 h -0.766199 v -0.54019 c 0,-0.0772 -0.06615,-0.1378 -0.143298,-0.1378 -0.07719,0 -0.143333,0.0606 -0.143333,0.1378 z m 0,0"
       id="path68567" />
    <path
       inkscape:connector-curvature="0"
       id="path44179"
       d="m 13.269137,288.975 c 0,0.22048 -0.179141,0.401 -0.401002,0.401 -0.221862,0 -0.401038,-0.18052 -0.401038,-0.401 0,-0.22187 0.179176,-0.40101 0.401038,-0.40101 0.221861,0 0.401002,0.17914 0.401002,0.40101"
       style="fill:#000000;fill-opacity:1;fill-rule:nonzero;stroke:none;stroke-width:0.35277778" />
    <path
       inkscape:connector-curvature="0"
       id="path44181"
       d="m 9.9453,290.30067 c -0.117123,0 -0.223238,-0.0662 -0.27559,-0.17088 l -1.001854,-2.00367 c -0.07578,-0.15296 -0.01517,-0.33762 0.137795,-0.41478 0.151589,-0.0758 0.337644,-0.0138 0.41342,0.1378 l 0.726229,1.45383 0.726228,-1.45383 c 0.07715,-0.15159 0.261832,-0.2136 0.414797,-0.1378 0.151588,0.0772 0.213571,0.26182 0.137795,0.41478 l -1.001819,2.00367 c -0.05239,0.10473 -0.159879,0.17088 -0.277001,0.17088"
       style="fill:#000000;fill-opacity:1;fill-rule:nonzero;stroke:none;stroke-width:0.35277778" />
    <path
       inkscape:connector-curvature="0"
       id="path44183"
       d="m 15.45195,290.30067 c -0.117158,0 -0.224614,-0.0662 -0.277002,-0.17088 l -1.001818,-2.00367 c -0.07581,-0.15296 -0.01376,-0.33762 0.137795,-0.41478 0.152965,-0.0758 0.337608,-0.0138 0.414796,0.1378 l 0.726229,1.45383 0.726228,-1.45383 c 0.07578,-0.15159 0.261832,-0.2136 0.413385,-0.1378 0.152964,0.0772 0.213607,0.26182 0.13783,0.41478 l -1.001853,2.00367 c -0.05235,0.10473 -0.158468,0.17088 -0.27559,0.17088"
       style="fill:#000000;fill-opacity:1;fill-rule:nonzero;stroke:none;stroke-width:0.35277778" />
    <path
       inkscape:connector-curvature="0"
       id="path44185"
       d="m 12.848838,290.30067 c -0.723477,0 -1.31191,-0.58843 -1.31191,-1.31052 0,-0.72347 0.588433,-1.31051 1.31191,-1.31051 0.285256,0 0.558094,0.091 0.786835,0.26183 0.135079,0.10197 0.162631,0.29627 0.06064,0.43132 -0.101953,0.13643 -0.294887,0.16399 -0.431306,0.062 -0.121285,-0.091 -0.264584,-0.13918 -0.416172,-0.13918 -0.383117,0 -0.694549,0.31144 -0.694549,0.69453 0,0.3831 0.311432,0.69316 0.694549,0.69316 0.151588,0 0.294887,-0.0469 0.416172,-0.13781 0.136419,-0.10197 0.329353,-0.0758 0.431306,0.0606 0.101988,0.13642 0.07444,0.33073 -0.06064,0.4327 -0.228741,0.17088 -0.501579,0.26183 -0.786835,0.26183"
       style="fill:#000000;fill-opacity:1;fill-rule:nonzero;stroke:none;stroke-width:0.35277778" />
  </g>
  <g
     inkscape:groupmode="layer"
     id="layer5"
     inkscape:label="components"
     style="display:none">
    <circle
       r="2"
       cy="26.2344"
       cx="6.699338"
       id="circle8989"
       style="display:inline;opacity:1;vector-effect:none;fill:#00ff00;fill-opacity:1;fill-rule:evenodd;stroke:none;stroke-width:1;stroke-linecap:butt;stroke-linejoin:miter;stroke-miterlimit:4;stroke-dasharray:none;stroke-dashoffset:0;stroke-opacity:1;paint-order:normal" />
    <circle
       style="display:inline;opacity:1;vector-effect:none;fill:#00ff00;fill-opacity:1;fill-rule:evenodd;stroke:none;stroke-width:1;stroke-linecap:butt;stroke-linejoin:miter;stroke-miterlimit:4;stroke-dasharray:none;stroke-dashoffset:0;stroke-opacity:1;paint-order:normal"
       id="circle69798"
       cx="6.6993384"
       cy="41.234344"
       r="2" />
    <circle
       r="2"
       cy="41.234344"
       cx="18.699287"
       id="circle69800"
       style="display:inline;opacity:1;vector-effect:none;fill:#00ff00;fill-opacity:1;fill-rule:evenodd;stroke:none;stroke-width:1;stroke-linecap:butt;stroke-linejoin:miter;stroke-miterlimit:4;stroke-dasharray:none;stroke-dashoffset:0;stroke-opacity:1;paint-order:normal" />
    <circle
       style="display:inline;opacity:1;vector-effect:none;fill:#00ff00;fill-opacity:1;fill-rule:evenodd;stroke:none;stroke-width:1;stroke-linecap:butt;stroke-linejoin:miter;stroke-miterlimit:4;stroke-dasharray:none;stroke-dashoffset:0;stroke-opacity:1;paint-order:normal"
       id="circle69802"
       cx="6.6993384"
       cy="81.233978"
       r="2" />
    <circle
       r="2"
       cy="96.233917"
       cx="6.6993384"
       id="circle69804"
       style="display:inline;opacity:1;vector-effect:none;fill:#00ff00;fill-opacity:1;fill-rule:evenodd;stroke:none;stroke-width:1;stroke-linecap:butt;stroke-linejoin:miter;stroke-miterlimit:4;stroke-dasharray:none;stroke-dashoffset:0;stroke-opacity:1;paint-order:normal" />
    <circle
       style="display:inline;opacity:1;vector-effect:none;fill:#00ff00;fill-opacity:1;fill-rule:evenodd;stroke:none;stroke-width:1;stroke-linecap:butt;stroke-linejoin:miter;stroke-miterlimit:4;stroke-dasharray:none;stroke-dashoffset:0;stroke-opacity:1;paint-order:normal"
       id="circle69806"
       cx="18.699287"
       cy="96.233917"
       r="2" />
    <circle
       style="display:inline;opacity:1;vector-effect:none;fill:#0000ff;fill-opacity:1;fill-rule:evenodd;stroke:none;stroke-width:1;stroke-linecap:butt;stroke-linejoin:miter;stroke-miterlimit:4;stroke-dasharray:none;stroke-dashoffset:0;stroke-opacity:1;paint-order:normal"
       id="circle7496"
       cx="6.6993208"
       cy="57.252666"
       r="2" />
    <circle
       r="2"
       cy="57.252666"
       cx="18.699287"
       id="circle69823"
       style="display:inline;opacity:1;vector-effect:none;fill:#0000ff;fill-opacity:1;fill-rule:evenodd;stroke:none;stroke-width:1;stroke-linecap:butt;stroke-linejoin:miter;stroke-miterlimit:4;stroke-dasharray:none;stroke-dashoffset:0;stroke-opacity:1;paint-order:normal" />
    <circle
       style="display:inline;opacity:1;vector-effect:none;fill:#0000ff;fill-opacity:1;fill-rule:evenodd;stroke:none;stroke-width:1;stroke-linecap:butt;stroke-linejoin:miter;stroke-miterlimit:4;stroke-dasharray:none;stroke-dashoffset:0;stroke-opacity:1;paint-order:normal"
       id="circle69825"
       cx="6.6993384"
       cy="112.25225"
       r="2" />
    <circle
       r="2"
       cy="112.25225"
       cx="18.699287"
       id="circle69827"
       style="display:inline;opacity:1;vector-effect:none;fill:#0000ff;fill-opacity:1;fill-rule:evenodd;stroke:none;stroke-width:1;stroke-linecap:butt;stroke-linejoin:miter;stroke-miterlimit:4;stroke-dasharray:none;stroke-dashoffset:0;stroke-opacity:1;paint-order:normal" />
    <circle
       r="2"
       cy="26.234406"
       cx="18.699287"
       id="circle7554"
       style="display:inline;opacity:1;vector-effect:none;fill:#ff0000;fill-opacity:1;fill-rule:evenodd;stroke:none;stroke-width:1;stroke-linecap:butt;stroke-linejoin:miter;stroke-miterlimit:4;stroke-dasharray:none;stroke-dashoffset:0;stroke-opacity:1;paint-order:normal" />
    <circle
       style="display:inline;opacity:1;vector-effect:none;fill:#ff0000;fill-opacity:1;fill-rule:evenodd;stroke:none;stroke-width:1;stroke-linecap:butt;stroke-linejoin:miter;stroke-miterlimit:4;stroke-dasharray:none;stroke-dashoffset:0;stroke-opacity:1;paint-order:normal"
       id="circle69844"
       cx="18.699287"
       cy="81.234665"
       r="2" />
  </g>
</svg>
