<?xml version="1.0" encoding="UTF-8"?>
<svg xmlns="http://www.w3.org/2000/svg" width="75" height="380" xmlns:xlink="http://www.w3.org/1999/xlink" viewBox="0 0 75 380">
  <defs>
    <linearGradient id="uuid-43e5f23c-7566-4287-a69d-484dbc57e15f" x1="37.5" y1="0" x2="37.5" y2="380" gradientUnits="userSpaceOnUse">
      <stop offset="0" stop-color="#2a2a2b"/>
      <stop offset="1" stop-color="#171717"/>
    </linearGradient>
  </defs>
  <g id="uuid-21ccacdb-7c24-460f-b228-0231ef17898d" data-name="FND BG">
    <rect width="75" height="380" fill="url(#uuid-43e5f23c-7566-4287-a69d-484dbc57e15f)"/>
  </g>
  <g id="uuid-b51f4748-0d55-4a82-b862-2a426951d3e4" data-name="FND GRAPH">
    <line x1="52.48884" y1="238" x2="38.78088" y2="238" fill="none" stroke="#ededed" stroke-linecap="round" stroke-linejoin="round" stroke-width=".8"/>
    <path d="m21.83144,192.97662l1.65796-2.87167c.14313-.24791-.03578-.55779-.32204-.55779h-3.31592c-.28626,0-.46517.30989-.32204.55779l1.65796,2.87167c.14313.24791.50096.24791.64409,0Z" fill="#ededed"/>
    <path d="m53.37273,192.97662l1.65796-2.87167c.14313-.24791-.03578-.55779-.32204-.55779h-3.31592c-.28626,0-.46517.30989-.32204.55779l1.65796,2.87167c.14313.24791.50096.24791.64409,0Z" fill="#ededed"/>
    <g>
      <circle cx="37.99958" cy="356.2678" r="1.18571" fill="#ededed"/>
      <path d="m29.3572,360.18977c-.34551,0-.66126-.1952-.8158-.50419l-2.96428-5.92856c-.22526-.45057-.04266-.99844.40794-1.2237.45008-.22535.99831-.04271,1.22366.4079l2.14848,4.29696,2.14848-4.29696c.22526-.45057.77314-.63325,1.22366-.4079.45061.22526.63321.77314.40794,1.2237l-2.96428,5.92856c-.15454.30899-.47029.50419-.8158.50419Z" fill="#ededed"/>
      <path d="m45.63866,360.18977c-.34551,0-.66126-.1952-.8158-.50419l-2.96428-5.92856c-.22526-.45057-.04266-.99844.40794-1.2237.45016-.22535.9984-.04271,1.22366.4079l2.14848,4.29696,2.14848-4.29696c.22526-.45057.77305-.63325,1.22366-.4079.45061.22526.63321.77314.40794,1.2237l-2.96428,5.92856c-.15454.30899-.47029.50419-.8158.50419Z" fill="#ededed"/>
      <path d="m37.94034,360.18977c-2.13744,0-3.87637-1.73893-3.87637-3.87637s1.73893-3.87637,3.87637-3.87637c.84653,0,1.65102.26819,2.32653.77554.40278.30253.48401.87428.18153,1.27705-.30248.40273-.87432.48401-1.2771.18148-.357-.26815-.78267-.4099-1.23096-.4099-1.13156,0-2.05219.92059-2.05219,2.05219s.92064,2.05219,2.05219,2.05219c.44829,0,.87396-.14176,1.23096-.4099.40269-.30271.97444-.22125,1.2771.18148.30248.40278.22125.97453-.18153,1.27705-.67551.50735-1.48.77554-2.32653.77554Z" fill="#ededed"/>
    </g>
    <g>
      <circle cx="38.00165" cy="356.18345" r="1.18571" fill="#ededed"/>
      <path d="m29.35927,360.10542c-.34551,0-.66126-.1952-.8158-.50419l-2.96428-5.92856c-.22526-.45057-.04266-.99844.40794-1.2237.45008-.22535.99831-.04271,1.22366.4079l2.14848,4.29696,2.14848-4.29696c.22526-.45057.77314-.63325,1.22366-.4079.45061.22526.63321.77314.40794,1.2237l-2.96428,5.92856c-.15454.30899-.47029.50419-.8158.50419Z" fill="#ededed"/>
      <path d="m45.64073,360.10542c-.34551,0-.66126-.1952-.8158-.50419l-2.96428-5.92856c-.22526-.45057-.04266-.99844.40794-1.2237.45016-.22535.9984-.04271,1.22366.4079l2.14848,4.29696,2.14848-4.29696c.22526-.45057.77305-.63325,1.22366-.4079.45061.22526.63321.77314.40794,1.2237l-2.96428,5.92856c-.15454.30899-.47029.50419-.8158.50419Z" fill="#ededed"/>
      <path d="m37.94242,360.10542c-2.13744,0-3.87637-1.73893-3.87637-3.87637s1.73893-3.87637,3.87637-3.87637c.84653,0,1.65102.26819,2.32653.77554.40278.30253.48401.87428.18153,1.27705-.30248.40273-.87432.48401-1.2771.18148-.357-.26815-.78267-.4099-1.23096-.4099-1.13156,0-2.05219.92059-2.05219,2.05219s.92064,2.05219,2.05219,2.05219c.44829,0,.87396-.14176,1.23096-.4099.40269-.30271.97444-.22125,1.2771.18148.30248.40278.22125.97453-.18153,1.27705-.67551.50735-1.48.77554-2.32653.77554Z" fill="#ededed"/>
    </g>
    <rect x="7.17487" y="309.05632" width="60.65033" height="39.15691" rx="2.83465" ry="2.83465" fill="#ededed"/>
    <line x1="46.33506" y1="286" x2="27.98218" y2="286" fill="none" stroke="#ededed" stroke-linecap="round" stroke-linejoin="round" stroke-width=".8"/>
    <line x1="52.48884" y1="74.23831" x2="38.78088" y2="74.23831" fill="none" stroke="#ededed" stroke-linecap="round" stroke-linejoin="round" stroke-width=".8"/>
    <rect x="7.17487" y="145.51304" width="60.65033" height="39.15691" rx="2.83465" ry="2.83465" fill="#ededed"/>
    <line x1="46.33506" y1="122.16582" x2="27.98218" y2="122.16582" fill="none" stroke="#ededed" stroke-linecap="round" stroke-linejoin="round" stroke-width=".8"/>
    <line x1="15" y1="202" x2="60" y2="202" fill="none" stroke="#ededed" stroke-linecap="round" stroke-linejoin="round" stroke-width=".8"/>
    <g>
      <path d="m12.92951,88.76867c-4.87734-2.91881-8.14264-8.25353-8.14264-14.35091,0-9.23,7.48239-16.71239,16.71239-16.71239s16.71239,7.48239,16.71239,16.71239c0,6.06564-3.2314,11.37655-8.06662,14.30514" fill="none" stroke="#ededed" stroke-linecap="round" stroke-linejoin="round" stroke-width=".8"/>
      <circle cx="21.50939" cy="74.41772" r="20.69419" fill="none" isolation="isolate" opacity=".69"/>
      <line x1="21.49926" y1="57.70538" x2="21.49926" y2="69.29405" fill="none" stroke="#ededed" stroke-linecap="round" stroke-linejoin="round" stroke-width=".8"/>
    </g>
    <g>
      <path d="m12.92951,252.29298c-4.87734-2.91881-8.14264-8.25353-8.14264-14.35091,0-9.23,7.48239-16.71239,16.71239-16.71239s16.71239,7.48239,16.71239,16.71239c0,6.06564-3.2314,11.37655-8.06662,14.30514" fill="none" stroke="#ededed" stroke-linecap="round" stroke-linejoin="round" stroke-width=".8"/>
      <circle cx="21.50939" cy="237.94203" r="20.69419" fill="none" isolation="isolate" opacity=".69"/>
      <line x1="21.49926" y1="221.22968" x2="21.49926" y2="232.81836" fill="none" stroke="#ededed" stroke-linecap="round" stroke-linejoin="round" stroke-width=".8"/>
    </g>
    <path d="m39.11808,49.06501l-2.87167-1.65796c-.24791-.14313-.55779.03578-.55779.32204v3.31592c0,.28626.30989.46517.55779.32204l2.87167-1.65796c.24791-.14313.24791-.50096,0-.64409Z" fill="#ededed"/>
    <path d="m40.40264,212.76304l-2.87167-1.65796c-.24791-.14313-.55779.03578-.55779.32204v3.31592c0,.28626.30989.46517.55779.32204l2.87167-1.65796c.24791-.14313.24791-.50096,0-.64409Z" fill="#ededed"/>
  </g>
  <g id="uuid-fca0cdee-2492-4cc5-bb5f-854c50447f98" data-name="FND TXT">
    <g>
      <path d="m16.8291,47.14062c0-.28418.22559-.50928.51758-.50928.28418,0,.50879.2251.50879.50928v4.44043h2.64648c.25879,0,.4668.2085.4668.46729s-.20801.46729-.4668.46729h-3.15527c-.29199,0-.51758-.22559-.51758-.51758v-4.85742Z" fill="#ebebeb"/>
      <path d="m21.58691,53.0415l3.41406-6.99463c.0752-.1499.2002-.2334.36719-.2334.2168,0,.39258.17529.39258.38379,0,.0752-.02539.15039-.04199.2002l-3.42188,6.99463c-.0752.15039-.19238.2334-.35938.2334-.2168,0-.40039-.17529-.40039-.38379,0-.0752.02539-.15039.0498-.2002Z" fill="#ebebeb"/>
      <path d="m26.69238,47.19043c0-.29199.22559-.51758.51758-.51758h2.08691c.73438,0,1.31055.21729,1.68555.58447.30957.31689.48438.75098.48438,1.26025v.0166c0,.93506-.54297,1.50244-1.32715,1.74463l1.11816,1.41064c.10059.125.16699.2334.16699.39209,0,.28369-.24219.47559-.49219.47559-.2334,0-.38379-.1084-.50098-.26709l-1.41895-1.81104h-1.29395v1.56934c0,.28369-.22461.50879-.50879.50879-.29199,0-.51758-.2251-.51758-.50879v-4.85791Zm2.5293,2.37891c.73438,0,1.20215-.38379,1.20215-.97656v-.0166c0-.62598-.45117-.96826-1.21094-.96826h-1.49414v1.96143h1.50293Z" fill="#ebebeb"/>
      <path d="m42.74902,47.15723c0-.28369.22559-.51758.51758-.51758h.1084c.22559,0,.37598.1167.47559.27539l1.76953,2.771,1.77832-2.7793c.1084-.17529.25879-.26709.4668-.26709h.10938c.29199,0,.5166.23389.5166.51758v4.89111c0,.28369-.22461.50879-.5166.50879-.27539,0-.50977-.2334-.50977-.50879v-3.50586l-1.42676,2.14502c-.1084.16699-.24219.26709-.43457.26709-.18359,0-.31738-.1001-.42578-.26709l-1.41895-2.12793v3.49707c0,.28369-.22461.50049-.50879.50049s-.50098-.2168-.50098-.50049v-4.89941Z" fill="#ebebeb"/>
      <path d="m49.37012,53.0415l3.41406-6.99463c.0752-.1499.2002-.2334.36719-.2334.2168,0,.39258.17529.39258.38379,0,.0752-.02539.15039-.04199.2002l-3.42188,6.99463c-.0752.15039-.19238.2334-.35938.2334-.2168,0-.40039-.17529-.40039-.38379,0-.0752.02539-.15039.0498-.2002Z" fill="#ebebeb"/>
      <path d="m54.20801,51.86475c-.11621-.0835-.2002-.22559-.2002-.39258,0-.26709.2168-.47559.48438-.47559.1416,0,.2334.0415.30078.0918.4834.38379,1.00098.60107,1.63574.60107.63379,0,1.03516-.30078,1.03516-.73486v-.0166c0-.41699-.23438-.64258-1.31934-.89307-1.24316-.30029-1.94434-.66748-1.94434-1.74414v-.01709c0-1.00146.83496-1.69434,1.99512-1.69434.73438,0,1.32617.19238,1.85254.54297.11719.06641.22559.2085.22559.40869,0,.26709-.21777.47559-.48438.47559-.10059,0-.18359-.0249-.26758-.07471-.4502-.29248-.88379-.44238-1.34375-.44238-.60059,0-.95117.30859-.95117.69238v.01709c0,.45068.26758.65088,1.39355.91797,1.23535.30029,1.87012.74268,1.87012,1.71094v.0166c0,1.09375-.85938,1.74463-2.08691,1.74463-.79297,0-1.54395-.25049-2.19531-.73438Z" fill="#ebebeb"/>
    </g>
    <g>
      <path d="m26.05469,20.44141c0-.53809.42578-.96338.96387-.96338h.21191c.41309,0,.70117.2124.87598.50049l2.32715,3.79102,2.33984-3.80371c.2002-.3252.47559-.48779.86328-.48779h.21289c.53809,0,.96387.42529.96387.96338v6.95703c0,.53809-.42578.96338-.96387.96338-.52539,0-.95117-.43799-.95117-.96338v-4.36719l-1.68848,2.60254c-.2002.30078-.45117.48828-.80078.48828-.35059,0-.60059-.1875-.80078-.48828l-1.66406-2.56445v4.354c0,.52539-.42578.93848-.95117.93848s-.93848-.41309-.93848-.93848v-6.98193Z" fill="#ebebeb"/>
      <path d="m35.82812,28.88721l4.89258-10.22217c.1377-.28809.36328-.43848.66309-.43848.40039,0,.73828.33789.73828.71338,0,.1377-.0498.27539-.08789.36279l-4.8916,10.22266c-.1377.2876-.36328.43799-.66309.43799-.40039,0-.73828-.33789-.73828-.71338,0-.1377.0498-.27539.08691-.36279Z" fill="#ebebeb"/>
      <path d="m42.86035,27.36084c-.21289-.15039-.36328-.42529-.36328-.72607,0-.5.40039-.88818.90137-.88818.25,0,.4248.0874.5498.17529.66309.48779,1.38867.78809,2.24023.78809.78809,0,1.26367-.3125,1.26367-.82568v-.0249c0-.48828-.30078-.73828-1.76465-1.11377-1.76367-.45068-2.90234-.93848-2.90234-2.67725v-.02539c0-1.58887,1.27637-2.64014,3.06543-2.64014,1.06348,0,1.98926.27539,2.77734.77588.21289.125.42578.3877.42578.76318,0,.50049-.40039.88818-.90137.88818-.1875,0-.33789-.0498-.4873-.1377-.63867-.375-1.23926-.58789-1.83984-.58789-.73828,0-1.12598.33789-1.12598.76367v.02441c0,.57617.375.76367,1.88965,1.15137,1.77637.46289,2.77734,1.10107,2.77734,2.62793v.02441c0,1.73926-1.32617,2.71533-3.21582,2.71533-1.15039,0-2.31445-.3501-3.29004-1.05078Z" fill="#ebebeb"/>
    </g>
    <g>
      <path d="m15.23145,266.61572c0-.23047.18262-.42041.41992-.42041h.08789c.18359,0,.30566.09521.38672.22363l1.43652,2.24951,1.44238-2.25635c.08789-.14209.20996-.2168.37988-.2168h.08789c.2373,0,.41992.18994.41992.42041v3.97021c0,.22998-.18262.41309-.41992.41309-.22363,0-.41309-.18945-.41309-.41309v-2.8457l-1.15918,1.74121c-.08789.13574-.19629.2168-.35156.2168-.14941,0-.25781-.08105-.3457-.2168l-1.15137-1.72754v2.83887c0,.22998-.18359.40625-.41406.40625s-.40625-.17627-.40625-.40625v-3.97705Z" fill="#ebebeb"/>
      <path d="m21.38477,266.60205c0-.23047.18262-.41357.41992-.41357.23047,0,.41309.18311.41309.41357v3.98389c0,.22998-.18262.41309-.41309.41309-.2373,0-.41992-.18311-.41992-.41309v-3.98389Z" fill="#ebebeb"/>
      <path d="m23.69434,266.64258c0-.2373.18262-.41992.41992-.41992h1.34863c1.49023,0,2.52051,1.02295,2.52051,2.35742v.01367c0,1.33496-1.03027,2.37109-2.52051,2.37109h-1.34863c-.2373,0-.41992-.18262-.41992-.41992v-3.90234Zm1.76855,3.56348c.99609,0,1.64648-.67041,1.64648-1.59863v-.01367c0-.92773-.65039-1.6123-1.64648-1.6123h-.93555v3.22461h.93555Z" fill="#ebebeb"/>
    </g>
    <g>
      <path d="m45.52734,270.43652c-.09473-.06738-.16211-.18262-.16211-.31836,0-.2168.17578-.38623.39258-.38623.11523,0,.18945.03369.24414.07471.39258.31152.8125.48779,1.32812.48779.51465,0,.83984-.24365.83984-.59619v-.01367c0-.33887-.18945-.52148-1.07031-.72461-1.00977-.24414-1.5791-.54199-1.5791-1.41602v-.01367c0-.81299.67773-1.37549,1.61914-1.37549.59668,0,1.07715.15576,1.50391.44043.0957.0542.18359.16943.18359.33203,0,.2168-.17676.38623-.39355.38623-.08105,0-.14844-.02051-.2168-.06104-.36523-.23682-.71777-.35889-1.09082-.35889-.4873,0-.77148.25049-.77148.56201v.01367c0,.36572.2168.52832,1.13086.74512,1.00293.24414,1.51758.60303,1.51758,1.38916v.01367c0,.88721-.69727,1.41553-1.69336,1.41553-.64355,0-1.25391-.20312-1.78223-.59619Z" fill="#ebebeb"/>
      <path d="m50.23926,266.60205c0-.23047.18262-.41357.41992-.41357.23047,0,.41309.18311.41309.41357v3.98389c0,.22998-.18262.41309-.41309.41309-.2373,0-.41992-.18311-.41992-.41309v-3.98389Z" fill="#ebebeb"/>
      <path d="m52.54395,266.64258c0-.2373.18262-.41992.41992-.41992h1.34863c1.49023,0,2.52051,1.02295,2.52051,2.35742v.01367c0,1.33496-1.03027,2.37109-2.52051,2.37109h-1.34863c-.2373,0-.41992-.18262-.41992-.41992v-3.90234Zm1.76855,3.56348c.99609,0,1.64648-.67041,1.64648-1.59863v-.01367c0-.92773-.65039-1.6123-1.64648-1.6123h-.93555v3.22461h.93555Z" fill="#ebebeb"/>
      <path d="m58.03613,270.54492v-3.90234c0-.2373.18262-.41992.41992-.41992h2.75781c.20312,0,.37207.16943.37207.37256,0,.20996-.16895.37256-.37207.37256h-2.34473v1.2334h2.04004c.20312,0,.37207.16895.37207.37891,0,.20361-.16895.36621-.37207.36621h-2.04004v1.27344h2.37793c.2041,0,.37305.16943.37305.37305,0,.20996-.16895.37207-.37305.37207h-2.79102c-.2373,0-.41992-.18262-.41992-.41992Z" fill="#ebebeb"/>
    </g>
    <g>
      <path d="m12.94336,314.64746c0-.29102.23047-.52148.52246-.52148s.52148.23047.52148.52148v3.31348h1.93066c.26465,0,.47461.20996.47461.47412s-.20996.47412-.47461.47412h-2.45215c-.29199,0-.52246-.23047-.52246-.52148v-3.74023Z" fill="#1f1f1f"/>
      <path d="m17.29297,318.3877v-3.69922c0-.2915.23047-.52148.52148-.52148h2.62891c.25781,0,.46777.20996.46777.46729s-.20996.46045-.46777.46045h-2.11328v.96191h1.80859c.25781,0,.4668.21045.4668.46777s-.20898.46094-.4668.46094h-1.80859v.99561h2.14746c.25684,0,.46777.20996.46777.46729,0,.25781-.21094.46094-.46777.46094h-2.66309c-.29102,0-.52148-.23047-.52148-.52148Z" fill="#1f1f1f"/>
      <path d="m22.06641,314.68848c0-.2915.22949-.52148.52148-.52148h2.65527c.26465,0,.47363.20996.47363.47412s-.20898.47412-.47363.47412h-2.13379v1.00977h1.82812c.26562,0,.47461.20996.47461.47363,0,.26465-.20898.47461-.47461.47461h-1.82812v1.35498c0,.2915-.23047.52148-.52148.52148-.29199,0-.52148-.22998-.52148-.52148v-3.73975Z" fill="#1f1f1f"/>
      <path d="m27.92188,315.12891h-1.00293c-.26465,0-.48145-.2168-.48145-.48145,0-.26367.2168-.48047.48145-.48047h3.04785c.26562,0,.48242.2168.48242.48047,0,.26465-.2168.48145-.48242.48145h-1.00195v3.29932c0,.2915-.23047.52148-.52148.52148s-.52148-.22998-.52148-.52148v-3.29932Z" fill="#1f1f1f"/>
    </g>
    <g>
      <path d="m42.65625,314.68848c0-.2915.22949-.52148.52148-.52148h1.64648c.60156,0,1.07031.16895,1.38086.48047.26465.26465.40625.63721.40625,1.08398v.01367c0,.74512-.37207,1.20605-.94727,1.44336l.72461.88086c.10156.12842.16992.23682.16992.39941,0,.2915-.24414.48096-.49512.48096-.2373,0-.39355-.11475-.51465-.271l-1.0166-1.28711h-.83301v1.03662c0,.2915-.23047.52148-.52148.52148-.29199,0-.52148-.22998-.52148-.52148v-3.73975Zm2.09961,1.78174c.50781,0,.79883-.271.79883-.67041v-.01367c0-.44727-.31055-.67773-.81934-.67773h-1.03613v1.36182h1.05664Z" fill="#1f1f1f"/>
      <path d="m47.83496,314.64746c0-.29102.22949-.52148.52148-.52148s.52148.23047.52148.52148v3.78076c0,.2915-.22949.52148-.52148.52148s-.52148-.22998-.52148-.52148v-3.78076Z" fill="#1f1f1f"/>
      <path d="m50.03516,316.55176v-.01367c0-1.34863,1.05078-2.45264,2.48633-2.45264.71875,0,1.19336.1626,1.61914.46045.10156.07471.2168.2168.2168.42041,0,.28467-.23047.51465-.51465.51465-.14941,0-.24316-.0542-.31836-.1084-.28418-.20312-.58887-.3252-1.03613-.3252-.75977,0-1.3623.6709-1.3623,1.47705v.01367c0,.86719.59668,1.50391,1.43652,1.50391.37891,0,.71875-.09473.98242-.28467v-.67725h-.70508c-.25,0-.45312-.19629-.45312-.44727s.20312-.4541.45312-.4541h1.19336c.29102,0,.52148.23047.52148.52197v1.15186c0,.30469-.11523.51465-.36621.66357-.38574.2373-.94824.47412-1.66016.47412-1.47656,0-2.49316-1.03613-2.49316-2.43848Z" fill="#1f1f1f"/>
      <path d="m55.80859,314.64746c0-.29102.23047-.52148.52148-.52148s.52148.23047.52148.52148v1.396h1.92383v-1.396c0-.29102.23047-.52148.52148-.52148.29199,0,.52148.23047.52148.52148v3.78076c0,.2915-.22949.52148-.52148.52148-.29102,0-.52148-.22998-.52148-.52148v-1.42285h-1.92383v1.42285c0,.2915-.23047.52148-.52148.52148s-.52148-.22998-.52148-.52148v-3.78076Z" fill="#1f1f1f"/>
      <path d="m62.21094,315.12891h-1.00195c-.26367,0-.48047-.2168-.48047-.48145,0-.26367.2168-.48047.48047-.48047h3.04883c.26367,0,.48047.2168.48047.48047,0,.26465-.2168.48145-.48047.48145h-1.00293v3.29932c0,.2915-.23047.52148-.52246.52148-.29102,0-.52148-.22998-.52148-.52148v-3.29932Z" fill="#1f1f1f"/>
    </g>
    <g>
      <path d="m13.00586,102.87598c0-.23047.18262-.41357.41992-.41357.23047,0,.41309.18311.41309.41357v3.604h2.14844c.20996,0,.37891.16943.37891.37939s-.16895.37939-.37891.37939h-2.56152c-.2373,0-.41992-.18311-.41992-.41992v-3.94287Z" fill="#ebebeb"/>
      <path d="m17.35938,106.81885v-3.90234c0-.2373.18262-.42041.41992-.42041h2.75684c.20312,0,.37305.16992.37305.37305,0,.20996-.16992.37256-.37305.37256h-2.34375v1.23291h2.03906c.20312,0,.37305.16943.37305.37939,0,.20312-.16992.36572-.37305.36572h-2.03906v1.27393h2.37793c.20312,0,.37305.16943.37305.37256,0,.20996-.16992.37256-.37305.37256h-2.79102c-.2373,0-.41992-.18311-.41992-.41992Z" fill="#ebebeb"/>
      <path d="m22.08496,102.9165c0-.2373.18262-.42041.41992-.42041h2.76465c.20996,0,.37891.16992.37891.37988s-.16895.37891-.37891.37891h-2.35156v1.29395h2.04688c.20996,0,.37891.16992.37891.37988s-.16895.37891-.37891.37891h-2.04688v1.55176c0,.23047-.18262.41309-.41309.41309-.2373,0-.41992-.18262-.41992-.41309v-3.94287Z" fill="#ebebeb"/>
      <path d="m28.00293,103.26855h-1.15137c-.2168,0-.38574-.17578-.38574-.38574,0-.21045.16895-.38672.38574-.38672h3.15039c.20996,0,.37891.17627.37891.38672,0,.20996-.16895.38574-.37891.38574h-1.1582v3.59082c0,.23047-.19043.41309-.4209.41309-.22949,0-.41992-.18262-.41992-.41309v-3.59082Z" fill="#ebebeb"/>
    </g>
    <g>
      <path d="m42.78027,102.9165c0-.2373.18262-.42041.41992-.42041h1.69336c.59668,0,1.06348.17627,1.36816.47461.25098.25732.39355.60938.39355,1.02295v.01318c0,.75879-.44043,1.21973-1.07715,1.41602l.90723,1.14551c.08203.10156.13574.18945.13574.31836,0,.22998-.19629.38574-.39941.38574-.18945,0-.31152-.08789-.40625-.2168l-1.15234-1.46973h-1.0498v1.27344c0,.23047-.18262.41309-.41309.41309-.2373,0-.41992-.18262-.41992-.41309v-3.94287Zm2.05273,1.93066c.5957,0,.97559-.31152.97559-.79248v-.01367c0-.50781-.36621-.78613-.98242-.78613h-1.21289v1.59229h1.21973Z" fill="#ebebeb"/>
      <path d="m47.93848,102.87598c0-.23047.18262-.41357.41992-.41357.23047,0,.41309.18311.41309.41357v3.9834c0,.23047-.18262.41309-.41309.41309-.2373,0-.41992-.18262-.41992-.41309v-3.9834Z" fill="#ebebeb"/>
      <path d="m49.99902,104.88086v-.01318c0-1.32812,1.0166-2.45264,2.44531-2.45264.71191,0,1.18652.16943,1.62012.48096.08105.06104.16895.17627.16895.33887,0,.22363-.18262.41309-.41309.41309-.1084,0-.18945-.04736-.25781-.09473-.30469-.22363-.63672-.37256-1.15137-.37256-.87402,0-1.53809.76562-1.53809,1.67334v.01367c0,.97559.64355,1.69385,1.6123,1.69385.44727,0,.85352-.14258,1.14551-.35938v-.8877h-.93555c-.20312,0-.37207-.15527-.37207-.35889,0-.20312.16895-.36572.37207-.36572h1.32129c.2373,0,.41992.18262.41992.41992v1.26709c0,.23682-.09473.40625-.29102.52832-.40625.271-.97559.51514-1.6875.51514-1.4834,0-2.45898-1.05713-2.45898-2.43945Z" fill="#ebebeb"/>
      <path d="m55.76074,102.87598c0-.23047.18262-.41357.41992-.41357.23047,0,.41309.18311.41309.41357v1.5918h2.26367v-1.5918c0-.23047.18262-.41357.41309-.41357.2373,0,.41992.18311.41992.41357v3.9834c0,.23047-.18262.41309-.41992.41309-.23047,0-.41309-.18262-.41309-.41309v-1.61914h-2.26367v1.61914c0,.23047-.18262.41309-.41309.41309-.2373,0-.41992-.18262-.41992-.41309v-3.9834Z" fill="#ebebeb"/>
      <path d="m62.22949,103.26855h-1.15234c-.2168,0-.38574-.17578-.38574-.38574,0-.21045.16895-.38672.38574-.38672h3.15039c.20996,0,.37988.17627.37988.38672,0,.20996-.16992.38574-.37988.38574h-1.1582v3.59082c0,.23047-.18945.41309-.41992.41309s-.41992-.18262-.41992-.41309v-3.59082Z" fill="#ebebeb"/>
    </g>
    <g>
      <path d="m15.12109,151.14453c0-.29102.22949-.52148.52148-.52148h.11523c.22266,0,.37891.11523.47363.271l1.26074,2.05273,1.26562-2.05957c.10938-.17627.25781-.26416.46875-.26416h.11523c.29102,0,.52148.23047.52148.52148v3.76709c0,.2915-.23047.52148-.52148.52148-.28516,0-.51562-.23682-.51562-.52148v-2.36475l-.91406,1.40918c-.10938.16309-.24414.26465-.43359.26465s-.32617-.10156-.43359-.26465l-.90137-1.38867v2.35742c0,.28516-.23047.5083-.51465.5083-.28516,0-.50781-.22314-.50781-.5083v-3.78027Z" fill="#1f1f1f"/>
      <path d="m21.28516,151.13086c0-.29102.23047-.52148.52148-.52148s.52148.23047.52148.52148v3.78076c0,.2915-.23047.52148-.52148.52148s-.52148-.22998-.52148-.52148v-3.78076Z" fill="#1f1f1f"/>
      <path d="m23.73242,151.17188c0-.2915.23047-.52148.52148-.52148h1.32812c1.49023,0,2.52051,1.02246,2.52051,2.35742v.01367c0,1.33447-1.03027,2.37109-2.52051,2.37109h-1.32812c-.29102,0-.52148-.23047-.52148-.52148v-3.69922Zm1.84961,3.2793c.85352,0,1.42969-.57617,1.42969-1.41602v-.01367c0-.84033-.57617-1.42969-1.42969-1.42969h-.80664v2.85938h.80664Z" fill="#1f1f1f"/>
    </g>
    <g>
      <path d="m45.4375,154.89111c-.11523-.08105-.19727-.22998-.19727-.39307,0-.27051.2168-.48047.48828-.48047.13477,0,.23047.04688.29785.09473.35938.26416.75293.42676,1.21289.42676.42676,0,.68457-.16943.68457-.44727v-.01367c0-.26416-.16309-.39941-.95508-.60254-.95508-.24414-1.57227-.5083-1.57227-1.4502v-.01367c0-.86035.69141-1.4292,1.66016-1.4292.57617,0,1.07617.14893,1.50391.41992.11523.06787.23047.20996.23047.41357,0,.27051-.2168.48047-.48828.48047-.10156,0-.18262-.02686-.26367-.07422-.3457-.20312-.6709-.31836-.99609-.31836-.40039,0-.60938.18262-.60938.41309v.01367c0,.31152.20312.41309,1.02246.62305.96191.25098,1.50391.59668,1.50391,1.42285v.01367c0,.94141-.71777,1.47021-1.74121,1.47021-.62305,0-1.25391-.18994-1.78125-.56934Z" fill="#1f1f1f"/>
      <path d="m50.12988,151.13086c0-.29102.22949-.52148.52148-.52148s.52148.23047.52148.52148v3.78076c0,.2915-.22949.52148-.52148.52148s-.52148-.22998-.52148-.52148v-3.78076Z" fill="#1f1f1f"/>
      <path d="m52.57812,151.17188c0-.2915.22949-.52148.52148-.52148h1.32715c1.49121,0,2.52051,1.02246,2.52051,2.35742v.01367c0,1.33447-1.0293,2.37109-2.52051,2.37109h-1.32715c-.29199,0-.52148-.23047-.52148-.52148v-3.69922Zm1.84863,3.2793c.85449,0,1.42969-.57617,1.42969-1.41602v-.01367c0-.84033-.5752-1.42969-1.42969-1.42969h-.80566v2.85938h.80566Z" fill="#1f1f1f"/>
      <path d="m58.08008,154.87109v-3.69922c0-.2915.23047-.52148.52148-.52148h2.62891c.25781,0,.46777.20996.46777.46729s-.20996.46045-.46777.46045h-2.11328v.96191h1.80859c.25781,0,.4668.21045.4668.46777s-.20898.46094-.4668.46094h-1.80859v.99561h2.14746c.25684,0,.46777.20996.46777.46729,0,.25781-.21094.46094-.46777.46094h-2.66309c-.29102,0-.52148-.23047-.52148-.52148Z" fill="#1f1f1f"/>
    </g>
    <g>
      <path d="m20.60645,210.35498c0-.22998.18359-.41992.4209-.41992h.08789c.18262,0,.30469.09473.38574.22363l1.43652,2.24902,1.44336-2.25586c.08789-.14209.20996-.2168.37891-.2168h.08789c.2373,0,.41992.18994.41992.41992v3.97021c0,.23047-.18262.41309-.41992.41309-.22363,0-.41309-.18945-.41309-.41309v-2.8457l-1.1582,1.74121c-.08789.13574-.19629.2168-.35254.2168-.14941,0-.25781-.08105-.3457-.2168l-1.15137-1.72754v2.83887c0,.23047-.18262.40625-.41309.40625s-.40723-.17578-.40723-.40625v-3.97705Z" fill="#ebebeb"/>
      <path d="m26.03906,215.13135l2.77051-5.67725c.06152-.12207.16309-.18994.29785-.18994.17676,0,.31836.14258.31836.31201,0,.06055-.01953.12158-.0332.1626l-2.77832,5.67725c-.06055.12207-.15527.18945-.29102.18945-.17578,0-.3252-.14209-.3252-.31152,0-.06104.02051-.12207.04102-.1626Z" fill="#ebebeb"/>
      <path d="m30.02539,214.17627c-.09473-.06787-.16211-.18311-.16211-.31836,0-.2168.17578-.38623.39258-.38623.11523,0,.19043.03369.24414.07422.39258.31201.81348.48779,1.32812.48779s.83984-.24365.83984-.59619v-.01318c0-.33887-.18945-.52197-1.07031-.7251-1.00977-.24414-1.57812-.54199-1.57812-1.41602v-.01367c0-.81299.67676-1.375,1.61914-1.375.5957,0,1.07715.15576,1.50391.44043.09473.0542.18262.16895.18262.33203,0,.2168-.17578.38574-.39258.38574-.08203,0-.14941-.02002-.2168-.06055-.36621-.2373-.71875-.35938-1.09082-.35938-.48828,0-.77246.25098-.77246.5625v.01367c0,.36572.2168.52832,1.13086.74512,1.00293.24365,1.51758.60303,1.51758,1.38867v.01367c0,.8877-.69727,1.41602-1.69336,1.41602-.64355,0-1.25293-.20312-1.78223-.59619Z" fill="#ebebeb"/>
      <path d="m42.62305,210.3418c0-.23047.18359-.41357.41992-.41357.23047,0,.41406.18311.41406.41357v3.604h2.14746c.20996,0,.37891.16943.37891.37939s-.16895.37939-.37891.37939h-2.56152c-.23633,0-.41992-.18311-.41992-.41992v-3.94287Z" fill="#ebebeb"/>
      <path d="m46.53711,215.13135l2.77051-5.67725c.06152-.12207.16309-.18994.29785-.18994.17676,0,.31836.14258.31836.31201,0,.06055-.01953.12158-.0332.1626l-2.77832,5.67725c-.06055.12207-.15527.18945-.29102.18945-.17578,0-.3252-.14209-.3252-.31152,0-.06104.02051-.12207.04102-.1626Z" fill="#ebebeb"/>
      <path d="m50.73828,210.38232c0-.2373.18359-.42041.41992-.42041h1.69434c.5957,0,1.06348.17627,1.36816.47461.25098.25732.39355.60938.39355,1.02295v.01367c0,.75879-.44043,1.21924-1.07715,1.41553l.90723,1.14502c.08105.10205.13574.18994.13574.31885,0,.22998-.19629.38574-.39941.38574-.19043,0-.31152-.08789-.40723-.2168l-1.15137-1.46973h-1.0498v1.27344c0,.23047-.18359.41309-.41406.41309-.23633,0-.41992-.18262-.41992-.41309v-3.94287Zm2.05273,1.93066c.59668,0,.97559-.31152.97559-.79248v-.01367c0-.5083-.36523-.78613-.98145-.78613h-1.21289v1.59229h1.21875Z" fill="#ebebeb"/>
    </g>
  </g>
</svg>