<?xml version="1.0" encoding="UTF-8" standalone="no"?>
<svg
   xmlns:dc="http://purl.org/dc/elements/1.1/"
   xmlns:cc="http://creativecommons.org/ns#"
   xmlns:rdf="http://www.w3.org/1999/02/22-rdf-syntax-ns#"
   xmlns:svg="http://www.w3.org/2000/svg"
   xmlns="http://www.w3.org/2000/svg"
   xmlns:sodipodi="http://sodipodi.sourceforge.net/DTD/sodipodi-0.dtd"
   xmlns:inkscape="http://www.inkscape.org/namespaces/inkscape"
   width="75"
   height="380"
   viewBox="0 0 75 380"
   version="1.1"
   id="svg204"
   sodipodi:docname="M_S.svg"
   inkscape:version="0.92.3 (2405546, 2018-03-11)">
  <metadata
     id="metadata208">
    <rdf:RDF>
      <cc:Work
         rdf:about="">
        <dc:format>image/svg+xml</dc:format>
        <dc:type
           rdf:resource="http://purl.org/dc/dcmitype/StillImage" />
      </cc:Work>
    </rdf:RDF>
  </metadata>
  <sodipodi:namedview
     pagecolor="#ffffff"
     bordercolor="#666666"
     borderopacity="1"
     objecttolerance="10"
     gridtolerance="10"
     guidetolerance="10"
     inkscape:pageopacity="0"
     inkscape:pageshadow="2"
     inkscape:window-width="867"
     inkscape:window-height="480"
     id="namedview206"
     showgrid="false"
     inkscape:zoom="0.62105263"
     inkscape:cx="37.5"
     inkscape:cy="190"
     inkscape:window-x="0"
     inkscape:window-y="0"
     inkscape:window-maximized="0"
     inkscape:current-layer="svg204" />
  <defs
     id="defs10">
    <linearGradient
       id="a8f8366b-ec18-4d04-840b-1656766f8bff"
       x1="37.5"
       x2="37.5"
       y2="380"
       gradientUnits="userSpaceOnUse">
      <stop
         offset="0"
         stop-color="#ebebeb"
         id="stop2" />
      <stop
         offset="1"
         stop-color="#e1e1e1"
         id="stop4" />
    </linearGradient>
  </defs>
  <g
     id="a80ca31a-5334-4cc0-b350-2a1b1473a882"
     data-name="FND BG">
    <rect
       width="75"
       height="380"
       fill="url(#a8f8366b-ec18-4d04-840b-1656766f8bff)"
       id="rect12" />
  </g>
  <g
     id="f0f97d05-6185-405f-bf1f-a7f84a2e3692"
     data-name="FND GRAPH">
    <line
       x1="52.48884"
       y1="238"
       x2="38.78088"
       y2="238"
       fill="none"
       stroke="#1f1f1f"
       stroke-linecap="round"
       stroke-linejoin="round"
       stroke-width="0.8"
       id="line15" />
    <g
       id="use17"
       transform="translate(19.47902,189.54716)">
      <path
         id="path4866"
         d="M 2.35242,3.42947 4.01038,0.55779 A 0.37186,0.37186 0 0 0 3.68834,0 H 0.37242 a 0.37186,0.37186 0 0 0 -0.322,0.55779 l 1.658,2.87168 a 0.37187,0.37187 0 0 0 0.644,0 z"
         inkscape:connector-curvature="0"
         style="fill:#1f1f1f" />
    </g>
    <g
       id="use19"
       transform="translate(51.02031,189.54716)">
      <path
         id="path4870"
         d="M 2.35242,3.42947 4.01038,0.55779 A 0.37186,0.37186 0 0 0 3.68834,0 H 0.37242 a 0.37186,0.37186 0 0 0 -0.322,0.55779 l 1.658,2.87168 a 0.37187,0.37187 0 0 0 0.644,0 z"
         inkscape:connector-curvature="0"
         style="fill:#1f1f1f" />
    </g>
    <g
       id="g29">
      <circle
         cx="37.99958"
         cy="356.2678"
         r="1.18571"
         fill="#1f1f1f"
         id="circle21" />
      <path
         d="M29.3572,360.18977a.91213.91213,0,0,1-.8158-.50419L25.57712,353.757a.91209.91209,0,0,1,1.6316-.8158l2.14848,4.297,2.14848-4.297a.91209.91209,0,0,1,1.6316.8158L30.173,359.68558A.91212.91212,0,0,1,29.3572,360.18977Z"
         fill="#1f1f1f"
         id="path23" />
      <path
         d="M45.63866,360.18977a.91213.91213,0,0,1-.81581-.50419L41.85857,353.757a.9121.9121,0,0,1,1.63161-.8158l2.14848,4.297,2.14848-4.297a.91209.91209,0,0,1,1.6316.8158l-2.96428,5.92856A.91213.91213,0,0,1,45.63866,360.18977Z"
         fill="#1f1f1f"
         id="path25" />
      <path
         d="M37.94034,360.18977a3.87637,3.87637,0,1,1,2.32654-6.9772.91209.91209,0,1,1-1.09558,1.45854,2.03393,2.03393,0,0,0-1.231-.4099,2.05219,2.05219,0,1,0,0,4.10438,2.03393,2.03393,0,0,0,1.231-.4099.91209.91209,0,1,1,1.09558,1.45854A3.8449,3.8449,0,0,1,37.94034,360.18977Z"
         fill="#1f1f1f"
         id="path27" />
    </g>
    <g
       id="g39">
      <circle
         cx="38.00165"
         cy="356.18345"
         r="1.18571"
         fill="#1f1f1f"
         id="circle31" />
      <path
         d="M29.35927,360.10542a.91213.91213,0,0,1-.8158-.50419l-2.96428-5.92856a.91209.91209,0,0,1,1.6316-.8158l2.14848,4.297,2.14848-4.297a.91209.91209,0,0,1,1.6316.8158l-2.96428,5.92856A.91211.91211,0,0,1,29.35927,360.10542Z"
         fill="#1f1f1f"
         id="path33" />
      <path
         d="M45.64073,360.10542a.91211.91211,0,0,1-.8158-.50419l-2.96428-5.92856a.91209.91209,0,0,1,1.6316-.8158l2.14848,4.297,2.14848-4.297a.91209.91209,0,0,1,1.6316.8158l-2.96428,5.92856A.91213.91213,0,0,1,45.64073,360.10542Z"
         fill="#1f1f1f"
         id="path35" />
      <path
         d="M37.94242,360.10542a3.87637,3.87637,0,1,1,2.32653-6.97719.91208.91208,0,1,1-1.09557,1.45853,2.034,2.034,0,0,0-1.231-.4099,2.0522,2.0522,0,1,0,0,4.10439,2.034,2.034,0,0,0,1.231-.40991.91209.91209,0,1,1,1.09557,1.45854A3.8448,3.8448,0,0,1,37.94242,360.10542Z"
         fill="#1f1f1f"
         id="path37" />
    </g>
    <rect
       x="7.17487"
       y="309.05632"
       width="60.65033"
       height="39.15691"
       rx="2.83465"
       fill="#1f1f1f"
       id="rect41" />
    <line
       x1="46.33506"
       y1="286"
       x2="27.98218"
       y2="286"
       fill="none"
       stroke="#1f1f1f"
       stroke-linecap="round"
       stroke-linejoin="round"
       stroke-width="0.8"
       id="line43" />
    <line
       x1="52.48884"
       y1="74.23831"
       x2="38.78088"
       y2="74.23831"
       fill="none"
       stroke="#1f1f1f"
       stroke-linecap="round"
       stroke-linejoin="round"
       stroke-width="0.8"
       id="line45" />
    <rect
       x="7.17487"
       y="145.51304"
       width="60.65033"
       height="39.15691"
       rx="2.83465"
       fill="#1f1f1f"
       id="rect47" />
    <line
       x1="46.33506"
       y1="122.16582"
       x2="27.98218"
       y2="122.16582"
       fill="none"
       stroke="#1f1f1f"
       stroke-linecap="round"
       stroke-linejoin="round"
       stroke-width="0.8"
       id="line49" />
    <line
       x1="15"
       y1="202"
       x2="60"
       y2="202"
       fill="none"
       stroke="#1f1f1f"
       stroke-linecap="round"
       stroke-linejoin="round"
       stroke-width="0.8"
       id="line51" />
    <g
       id="g59">
      <path
         d="M12.92951,88.76867A16.71246,16.71246,0,1,1,30.145,88.7229"
         fill="none"
         stroke="#1f1f1f"
         stroke-linecap="round"
         stroke-linejoin="round"
         stroke-width="0.8"
         id="path53" />
      <circle
         cx="21.50939"
         cy="74.41772"
         r="20.69419"
         fill="none"
         opacity="0.69"
         style="isolation: isolate"
         id="circle55" />
      <line
         x1="21.49926"
         y1="57.70538"
         x2="21.49926"
         y2="69.29405"
         fill="none"
         stroke="#1f1f1f"
         stroke-linecap="round"
         stroke-linejoin="round"
         stroke-width="0.8"
         id="line57" />
    </g>
    <g
       id="g67">
      <path
         d="M12.92951,252.293a16.71246,16.71246,0,1,1,17.21552-.04577"
         fill="none"
         stroke="#1f1f1f"
         stroke-linecap="round"
         stroke-linejoin="round"
         stroke-width="0.8"
         id="path61" />
      <circle
         cx="21.50939"
         cy="237.94203"
         r="20.69419"
         fill="none"
         opacity="0.69"
         style="isolation: isolate"
         id="circle63" />
      <line
         x1="21.49926"
         y1="221.22968"
         x2="21.49926"
         y2="232.81836"
         fill="none"
         stroke="#1f1f1f"
         stroke-linecap="round"
         stroke-linejoin="round"
         stroke-width="0.8"
         id="line65" />
    </g>
    <g
       id="use69"
       transform="rotate(-90,43.55302,7.86441)">
      <path
         id="path4874"
         d="M 2.35242,3.42947 4.01038,0.55779 A 0.37186,0.37186 0 0 0 3.68834,0 H 0.37242 a 0.37186,0.37186 0 0 0 -0.322,0.55779 l 1.658,2.87168 a 0.37187,0.37187 0 0 0 0.644,0 z"
         inkscape:connector-curvature="0"
         style="fill:#1f1f1f" />
    </g>
    <g
       id="use71"
       transform="rotate(-90,126.04432,89.07114)">
      <path
         id="path4878"
         d="M 2.35242,3.42947 4.01038,0.55779 A 0.37186,0.37186 0 0 0 3.68834,0 H 0.37242 a 0.37186,0.37186 0 0 0 -0.322,0.55779 l 1.658,2.87168 a 0.37187,0.37187 0 0 0 0.644,0 z"
         inkscape:connector-curvature="0"
         style="fill:#1f1f1f" />
    </g>
  </g>
  <g
     id="ef7dc233-b6e6-47ed-8302-d40ee24b029e"
     data-name="FND TXT">
    <g
       id="g86">
      <path
         d="M16.8291,47.14062a.5132.5132,0,0,1,1.02637,0v4.44043H20.502a.46729.46729,0,0,1,0,.93457H17.34668a.50991.50991,0,0,1-.51758-.51757Z"
         fill="#1f1f1f"
         id="path74" />
      <path
         d="M21.58691,53.0415,25.001,46.04688a.39777.39777,0,0,1,.75976.15039.65.65,0,0,1-.042.20019l-3.42187,6.99463a.38055.38055,0,0,1-.35938.2334.39745.39745,0,0,1-.40039-.38379A.47922.47922,0,0,1,21.58691,53.0415Z"
         fill="#1f1f1f"
         id="path76" />
      <path
         d="M26.69238,47.19043a.50992.50992,0,0,1,.51758-.51758h2.08692a2.35234,2.35234,0,0,1,1.68554.58447,1.76222,1.76222,0,0,1,.48438,1.26026v.0166a1.72961,1.72961,0,0,1-1.32715,1.74463l1.11816,1.41064a.59221.59221,0,0,1,.167.39209.48409.48409,0,0,1-.49218.47559.58766.58766,0,0,1-.501-.26709L29.0127,50.479H27.71875v1.56934a.5132.5132,0,0,1-1.02637,0Zm2.5293,2.37891c.73437,0,1.20215-.38379,1.20215-.97657v-.0166c0-.626-.45117-.96826-1.21094-.96826H27.71875v1.96143Z"
         fill="#1f1f1f"
         id="path78" />
      <path
         d="M42.749,47.15723a.515.515,0,0,1,.51758-.51758h.1084a.53911.53911,0,0,1,.47559.27539l1.76953,2.771,1.77832-2.7793a.516.516,0,0,1,.46679-.26709h.10938a.51421.51421,0,0,1,.5166.51758v4.89111a.50686.50686,0,0,1-.5166.50879.517.517,0,0,1-.50977-.50879V48.54248l-1.42675,2.145a.48.48,0,0,1-.86036,0l-1.41894-2.12793v3.49707a.49813.49813,0,0,1-.50879.50049.49157.49157,0,0,1-.501-.50049Z"
         fill="#1f1f1f"
         id="path80" />
      <path
         d="M49.37012,53.0415l3.41406-6.99462a.39778.39778,0,0,1,.75977.15039.65.65,0,0,1-.042.20019l-3.42187,6.99463a.38054.38054,0,0,1-.35938.2334.39746.39746,0,0,1-.40039-.38379A.47907.47907,0,0,1,49.37012,53.0415Z"
         fill="#1f1f1f"
         id="path82" />
      <path
         d="M54.208,51.86475a.4836.4836,0,0,1-.2002-.39258.49747.49747,0,0,1,.78516-.38379,2.53171,2.53171,0,0,0,1.63574.60107c.63379,0,1.03516-.30078,1.03516-.73486V50.938c0-.417-.23438-.64258-1.31934-.89307-1.24316-.30029-1.94433-.66748-1.94433-1.74414v-.01709a1.78733,1.78733,0,0,1,1.99511-1.69433,3.21487,3.21487,0,0,1,1.85254.543.46214.46214,0,0,1,.22559.4087.47779.47779,0,0,1-.48438.47558.50044.50044,0,0,1-.26758-.07471,2.42354,2.42354,0,0,0-1.34375-.44238c-.60058,0-.95117.3086-.95117.69238V48.209c0,.45069.26758.65088,1.39356.918,1.23535.3003,1.87011.74268,1.87011,1.71094v.0166c0,1.09375-.85937,1.74463-2.08691,1.74463A3.6398,3.6398,0,0,1,54.208,51.86475Z"
         fill="#1f1f1f"
         id="path84" />
    </g>
    <g
       id="g94">
      <path
         d="M26.05469,20.44141a.95618.95618,0,0,1,.96386-.96338h.21192a.98836.98836,0,0,1,.876.50049l2.32714,3.791,2.33985-3.80371a.94346.94346,0,0,1,.86328-.48779h.21289a.95618.95618,0,0,1,.96387.96338v6.957a.95754.95754,0,1,1-1.915,0V23.03125L31.21,25.63379a.90078.90078,0,0,1-1.60156,0l-1.66406-2.56445v4.354a.94034.94034,0,0,1-.95118.93848.92955.92955,0,0,1-.93847-.93848Z"
         fill="#1f1f1f"
         id="path88" />
      <path
         d="M35.82812,28.88721,40.7207,18.665a.70044.70044,0,0,1,.66309-.43848.74343.74343,0,0,1,.73828.71338.95374.95374,0,0,1-.08789.36279l-4.8916,10.22266a.70071.70071,0,0,1-.66309.438.74343.74343,0,0,1-.73828-.71338A.97327.97327,0,0,1,35.82812,28.88721Z"
         fill="#1f1f1f"
         id="path90" />
      <path
         d="M42.86035,27.36084a.9.9,0,0,1-.36328-.72607.88687.88687,0,0,1,.90137-.88819.92229.92229,0,0,1,.5498.1753,3.6945,3.6945,0,0,0,2.24024.78808c.78808,0,1.26367-.3125,1.26367-.82568v-.0249c0-.48829-.30078-.73829-1.76465-1.11377-1.76367-.45069-2.90234-.93848-2.90234-2.67725V22.043c0-1.58887,1.27636-2.64014,3.06543-2.64014a5.083,5.083,0,0,1,2.77734.77588.87743.87743,0,0,1,.42578.76318.88657.88657,0,0,1-.90137.88819.91783.91783,0,0,1-.4873-.1377,3.651,3.651,0,0,0-1.83984-.58789c-.73829,0-1.126.33789-1.126.76367v.02442c0,.57617.375.76367,1.88965,1.15137,1.77636.46289,2.77734,1.10107,2.77734,2.62793v.02441c0,1.73926-1.32617,2.71533-3.21582,2.71533A5.65209,5.65209,0,0,1,42.86035,27.36084Z"
         fill="#1f1f1f"
         id="path92" />
    </g>
    <g
       id="g102">
      <path
         d="M15.23145,266.61572a.41782.41782,0,0,1,.41992-.42041h.08789a.43925.43925,0,0,1,.38672.22364l1.43652,2.24951,1.44238-2.25635a.41945.41945,0,0,1,.37989-.2168h.08789a.41783.41783,0,0,1,.41992.42041v3.97022a.412.412,0,0,1-.41992.41308.419.419,0,0,1-.41309-.41308v-2.84571l-1.15918,1.74122a.38872.38872,0,0,1-.69727,0l-1.15136-1.72754v2.83886a.40555.40555,0,0,1-.41406.40625.399.399,0,0,1-.40625-.40625Z"
         fill="#1f1f1f"
         id="path96" />
      <path
         d="M21.38477,266.60205a.41651.41651,0,0,1,.833,0v3.98389a.41651.41651,0,0,1-.833,0Z"
         fill="#1f1f1f"
         id="path98" />
      <path
         d="M23.69434,266.64258a.4132.4132,0,0,1,.41992-.41992h1.34863a2.36406,2.36406,0,0,1,2.52051,2.35742v.01367a2.37431,2.37431,0,0,1-2.52051,2.37109H24.11426a.4132.4132,0,0,1-.41992-.41992Zm1.76855,3.56347a1.54552,1.54552,0,0,0,1.64649-1.59863v-.01367a1.5564,1.5564,0,0,0-1.64649-1.6123h-.93555v3.2246Z"
         fill="#1f1f1f"
         id="path100" />
    </g>
    <g
       id="g112">
      <path
         d="M45.52734,270.43652a.38875.38875,0,0,1,.23047-.70459.38569.38569,0,0,1,.24414.07471,2.05559,2.05559,0,0,0,1.32813.48779c.51465,0,.83984-.24365.83984-.59619v-.01367c0-.33887-.18945-.52148-1.07031-.72461-1.00977-.24414-1.5791-.542-1.5791-1.416v-.01368a1.45075,1.45075,0,0,1,1.61914-1.37548,2.60681,2.60681,0,0,1,1.5039.44042.375.375,0,0,1,.1836.332.38808.38808,0,0,1-.39356.38623.40623.40623,0,0,1-.21679-.061,1.97218,1.97218,0,0,0-1.09082-.35889c-.48731,0-.77149.25049-.77149.562v.01367c0,.36572.2168.52832,1.13086.74512,1.00293.24414,1.51758.603,1.51758,1.38916v.01367c0,.8872-.69727,1.41552-1.69336,1.41552A2.95277,2.95277,0,0,1,45.52734,270.43652Z"
         fill="#1f1f1f"
         id="path104" />
      <path
         d="M50.23926,266.60205a.41652.41652,0,0,1,.833,0v3.98389a.41652.41652,0,0,1-.833,0Z"
         fill="#1f1f1f"
         id="path106" />
      <path
         d="M52.544,266.64258a.4132.4132,0,0,1,.41992-.41992H54.3125a2.36406,2.36406,0,0,1,2.52051,2.35742v.01367a2.37431,2.37431,0,0,1-2.52051,2.37109H52.96387a.4132.4132,0,0,1-.41992-.41992Zm1.76855,3.56347a1.54551,1.54551,0,0,0,1.64648-1.59863v-.01367a1.55639,1.55639,0,0,0-1.64648-1.6123H53.377v3.2246Z"
         fill="#1f1f1f"
         id="path108" />
      <path
         d="M58.03613,270.54492v-3.90234a.41321.41321,0,0,1,.41992-.41992h2.75782a.37556.37556,0,0,1,.37207.37255.37113.37113,0,0,1-.37207.37256H58.86914v1.2334h2.04a.37662.37662,0,0,1,.37207.37891.36981.36981,0,0,1-.37207.36621h-2.04v1.27344h2.37793a.37586.37586,0,0,1,.373.373.37093.37093,0,0,1-.373.37207h-2.791A.41321.41321,0,0,1,58.03613,270.54492Z"
         fill="#1f1f1f"
         id="path110" />
    </g>
    <g
       id="g122">
      <path
         d="M12.94336,314.64746a.522.522,0,0,1,1.04394,0v3.31348H15.918a.47412.47412,0,1,1,0,.94824H13.46582a.5179.5179,0,0,1-.52246-.52148Z"
         fill="#f0f0f0"
         id="path114" />
      <path
         d="M17.293,318.3877v-3.69922a.51738.51738,0,0,1,.52148-.52149h2.62891a.46835.46835,0,0,1,.46777.46729.46256.46256,0,0,1-.46777.46045H18.33008v.96191h1.80859a.46794.46794,0,0,1,.4668.46777.46213.46213,0,0,1-.4668.46094H18.33008v.99561h2.14746a.469.469,0,0,1,.46777.46728.46327.46327,0,0,1-.46777.46094H17.81445A.51768.51768,0,0,1,17.293,318.3877Z"
         fill="#f0f0f0"
         id="path116" />
      <path
         d="M22.06641,314.68848a.51677.51677,0,0,1,.52148-.52149h2.65527a.47412.47412,0,0,1,0,.94824H23.10938V316.125H24.9375a.47412.47412,0,1,1,0,.94824H23.10938v1.355a.52149.52149,0,1,1-1.043,0Z"
         fill="#f0f0f0"
         id="path118" />
      <path
         d="M27.92188,315.12891H26.919a.481.481,0,1,1,0-.96192H29.9668a.481.481,0,1,1,0,.96192h-1.002v3.29931a.52148.52148,0,1,1-1.043,0Z"
         fill="#f0f0f0"
         id="path120" />
    </g>
    <g
       id="g134">
      <path
         d="M42.65625,314.68848a.51677.51677,0,0,1,.52148-.52149h1.64649a1.88763,1.88763,0,0,1,1.38086.48047,1.488,1.488,0,0,1,.40625,1.084v.01367a1.44819,1.44819,0,0,1-.94727,1.44336l.72461.88086a.60772.60772,0,0,1,.16992.39941.48544.48544,0,0,1-.49511.481.6214.6214,0,0,1-.51465-.271l-1.0166-1.28711h-.833v1.03662a.52149.52149,0,1,1-1.043,0Zm2.09961,1.78173c.50781,0,.79883-.271.79883-.67041v-.01367c0-.44726-.31055-.67773-.81934-.67773H43.69922v1.36181Z"
         fill="#f0f0f0"
         id="path124" />
      <path
         d="M47.835,314.64746a.52149.52149,0,0,1,1.043,0v3.78076a.52149.52149,0,1,1-1.043,0Z"
         fill="#f0f0f0"
         id="path126" />
      <path
         d="M50.03516,316.55176v-.01367a2.43434,2.43434,0,0,1,2.48632-2.45264,2.62559,2.62559,0,0,1,1.61914.46045.52219.52219,0,0,1,.2168.42041.5144.5144,0,0,1-.51465.51465.50871.50871,0,0,1-.31836-.1084,1.659,1.659,0,0,0-1.03613-.3252,1.42439,1.42439,0,0,0-1.3623,1.477v.01368a1.42116,1.42116,0,0,0,1.43652,1.5039,1.66308,1.66308,0,0,0,.98242-.28467v-.67724h-.70508a.44786.44786,0,0,1-.45312-.44727.45366.45366,0,0,1,.45312-.4541H54.0332a.51779.51779,0,0,1,.52149.522v1.15186a.70428.70428,0,0,1-.36621.66357,3.15161,3.15161,0,0,1-1.66016.47412A2.37336,2.37336,0,0,1,50.03516,316.55176Z"
         fill="#f0f0f0"
         id="path128" />
      <path
         d="M55.80859,314.64746a.52149.52149,0,0,1,1.043,0v1.396h1.92383v-1.396a.52149.52149,0,0,1,1.043,0v3.78076a.52149.52149,0,1,1-1.043,0v-1.42285H56.85156v1.42285a.52149.52149,0,1,1-1.043,0Z"
         fill="#f0f0f0"
         id="path130" />
      <path
         d="M62.21094,315.12891H61.209a.481.481,0,0,1,0-.96192h3.04883a.481.481,0,0,1,0,.96192H63.25488v3.29931a.522.522,0,0,1-1.04394,0Z"
         fill="#f0f0f0"
         id="path132" />
    </g>
    <g
       id="g144">
      <path
         d="M13.00586,102.876a.41652.41652,0,0,1,.833,0v3.604H15.9873a.3794.3794,0,0,1,0,.75879H13.42578a.41351.41351,0,0,1-.41992-.41992Z"
         fill="#1f1f1f"
         id="path136" />
      <path
         d="M17.35938,106.81885V102.9165a.41362.41362,0,0,1,.41992-.42041h2.75683a.37683.37683,0,0,1,.373.37305.372.372,0,0,1-.373.37256H18.19238v1.23291h2.03907a.37786.37786,0,0,1,.373.37939.37056.37056,0,0,1-.373.36573H18.19238v1.27392h2.37793a.37641.37641,0,0,1,.373.37256.372.372,0,0,1-.373.37256h-2.791A.41351.41351,0,0,1,17.35938,106.81885Z"
         fill="#1f1f1f"
         id="path138" />
      <path
         d="M22.085,102.9165a.41362.41362,0,0,1,.41992-.42041h2.76465a.3794.3794,0,0,1,0,.75879H22.918v1.29395h2.04687a.3794.3794,0,0,1,0,.75879H22.918v1.55176a.41652.41652,0,0,1-.833,0Z"
         fill="#1f1f1f"
         id="path140" />
      <path
         d="M28.00293,103.26855H26.85156a.38623.38623,0,0,1,0-.77246H30.002a.3863.3863,0,0,1,0,.77246h-1.1582v3.59083a.42048.42048,0,0,1-.84082,0Z"
         fill="#1f1f1f"
         id="path142" />
    </g>
    <g
       id="g156">
      <path
         d="M42.78027,102.9165a.41363.41363,0,0,1,.41993-.42041h1.69335a1.90771,1.90771,0,0,1,1.36817.47461,1.43177,1.43177,0,0,1,.39355,1.023v.01319a1.40345,1.40345,0,0,1-1.07715,1.416l.90723,1.14551a.47932.47932,0,0,1,.13574.31836.39268.39268,0,0,1-.39941.38574.47557.47557,0,0,1-.40625-.2168l-1.15234-1.46972H43.61328v1.27344a.41652.41652,0,0,1-.833,0Zm2.05274,1.93067c.5957,0,.97558-.31153.97558-.79248V104.041c0-.50782-.36621-.78614-.98242-.78614H43.61328v1.59229Z"
         fill="#1f1f1f"
         id="path146" />
      <path
         d="M47.93848,102.876a.41651.41651,0,0,1,.833,0v3.9834a.41651.41651,0,0,1-.833,0Z"
         fill="#1f1f1f"
         id="path148" />
      <path
         d="M49.999,104.88086v-.01318a2.41619,2.41619,0,0,1,2.44532-2.45264,2.57552,2.57552,0,0,1,1.62011.481.42332.42332,0,0,1,.169.33886.41448.41448,0,0,1-.41309.41309.44108.44108,0,0,1-.25781-.09473,1.80079,1.80079,0,0,0-1.15137-.37256,1.60425,1.60425,0,0,0-1.53808,1.67334v.01368a1.58393,1.58393,0,0,0,1.6123,1.69384,1.93907,1.93907,0,0,0,1.14551-.35937v-.8877h-.93555a.36367.36367,0,0,1-.37207-.35888.36972.36972,0,0,1,.37207-.36573H54.0166a.41321.41321,0,0,1,.41992.41993v1.26709a.57614.57614,0,0,1-.291.52832,3.02011,3.02011,0,0,1-1.6875.51513A2.35335,2.35335,0,0,1,49.999,104.88086Z"
         fill="#1f1f1f"
         id="path150" />
      <path
         d="M55.76074,102.876a.41652.41652,0,0,1,.833,0v1.59179h2.26367V102.876a.41652.41652,0,0,1,.833,0v3.9834a.41652.41652,0,0,1-.833,0v-1.61915H56.59375v1.61915a.41652.41652,0,0,1-.833,0Z"
         fill="#1f1f1f"
         id="path152" />
      <path
         d="M62.22949,103.26855H61.07715a.38623.38623,0,0,1,0-.77246h3.15039a.38628.38628,0,0,1,0,.77246h-1.1582v3.59083a.42.42,0,0,1-.83985,0Z"
         fill="#1f1f1f"
         id="path154" />
    </g>
    <g
       id="g164">
      <path
         d="M15.12109,151.14453a.51708.51708,0,0,1,.52149-.52148h.11523a.5358.5358,0,0,1,.47364.271l1.26074,2.05274,1.26562-2.05957a.51253.51253,0,0,1,.46875-.26416h.11524a.51768.51768,0,0,1,.52148.52148v3.76709a.51856.51856,0,1,1-1.03711,0v-2.36474l-.91406,1.40917a.48752.48752,0,0,1-.86719,0l-.90137-1.38867v2.35742a.50872.50872,0,0,1-.51464.50831.50234.50234,0,0,1-.50782-.50831Z"
         fill="#f0f0f0"
         id="path158" />
      <path
         d="M21.28516,151.13086a.52148.52148,0,1,1,1.043,0v3.78076a.52148.52148,0,1,1-1.043,0Z"
         fill="#f0f0f0"
         id="path160" />
      <path
         d="M23.73242,151.17188a.51738.51738,0,0,1,.52149-.52149H25.582a2.36378,2.36378,0,0,1,2.52051,2.35742v.01367a2.37459,2.37459,0,0,1-2.52051,2.3711H24.25391a.51769.51769,0,0,1-.52149-.52149Zm1.84961,3.27929a1.35174,1.35174,0,0,0,1.42969-1.416v-.01368A1.36227,1.36227,0,0,0,25.582,151.5918h-.80664v2.85937Z"
         fill="#f0f0f0"
         id="path162" />
    </g>
    <g
       id="g174">
      <path
         d="M45.4375,154.89111a.48687.48687,0,0,1-.19727-.39306.48.48,0,0,1,.48829-.48047.499.499,0,0,1,.29785.09472,2.00316,2.00316,0,0,0,1.21289.42676c.42676,0,.68457-.16943.68457-.44726v-.01368c0-.26416-.16309-.39941-.95508-.60253-.95508-.24414-1.57227-.5083-1.57227-1.4502v-.01367a1.48354,1.48354,0,0,1,1.66016-1.4292,2.75415,2.75415,0,0,1,1.50391.41992.48258.48258,0,0,1-.25782.894.49844.49844,0,0,1-.26367-.07421,1.97546,1.97546,0,0,0-.99609-.31836c-.40039,0-.60938.18261-.60938.41308v.01367c0,.31153.20313.41309,1.02246.62305.96192.251,1.50391.59668,1.50391,1.42285v.01367c0,.94141-.71777,1.47022-1.74121,1.47022A3.0578,3.0578,0,0,1,45.4375,154.89111Z"
         fill="#f0f0f0"
         id="path166" />
      <path
         d="M50.12988,151.13086a.52149.52149,0,0,1,1.043,0v3.78076a.52149.52149,0,1,1-1.043,0Z"
         fill="#f0f0f0"
         id="path168" />
      <path
         d="M52.57812,151.17188a.51678.51678,0,0,1,.52149-.52149h1.32715a2.36322,2.36322,0,0,1,2.52051,2.35742v.01367a2.374,2.374,0,0,1-2.52051,2.3711H53.09961a.51708.51708,0,0,1-.52149-.52149Zm1.84864,3.27929a1.35122,1.35122,0,0,0,1.42969-1.416v-.01368a1.36175,1.36175,0,0,0-1.42969-1.42968h-.80567v2.85937Z"
         fill="#f0f0f0"
         id="path170" />
      <path
         d="M58.08008,154.87109v-3.69921a.51738.51738,0,0,1,.52148-.52149h2.62891a.46835.46835,0,0,1,.46777.46729.46255.46255,0,0,1-.46777.46044H59.11719V152.54h1.80859a.46794.46794,0,0,1,.4668.46777.46213.46213,0,0,1-.4668.46094H59.11719v.99561h2.14746a.469.469,0,0,1,.46777.46728.46328.46328,0,0,1-.46777.46094H58.60156A.51768.51768,0,0,1,58.08008,154.87109Z"
         fill="#f0f0f0"
         id="path172" />
    </g>
    <g
       id="g188">
      <path
         d="M20.60645,210.355a.41855.41855,0,0,1,.42089-.41992h.08789a.43787.43787,0,0,1,.38575.22363l1.43652,2.249,1.44336-2.25585a.419.419,0,0,1,.37891-.2168h.08789a.41772.41772,0,0,1,.41992.41992v3.97022a.41171.41171,0,0,1-.41992.41308.419.419,0,0,1-.41309-.41308v-2.84571l-1.1582,1.74121a.3895.3895,0,0,1-.69825,0l-1.15136-1.72754V214.332a.40442.40442,0,0,1-.41309.40625.39949.39949,0,0,1-.40722-.40625Z"
         fill="#1f1f1f"
         id="path176" />
      <path
         d="M26.03906,215.13135l2.77051-5.67725a.32242.32242,0,0,1,.61621.12207.531.531,0,0,1-.0332.1626L26.61426,215.416a.30731.30731,0,0,1-.291.18945.32279.32279,0,0,1-.32519-.31152A.37945.37945,0,0,1,26.03906,215.13135Z"
         fill="#1f1f1f"
         id="path178" />
      <path
         d="M30.02539,214.17627a.38875.38875,0,0,1,.23047-.70459.38668.38668,0,0,1,.24414.07422,2.05489,2.05489,0,0,0,1.32812.48779c.51465,0,.83985-.24365.83985-.59619v-.01318c0-.33887-.18945-.522-1.07031-.7251-1.00977-.24414-1.57813-.542-1.57813-1.416v-.01367a1.44987,1.44987,0,0,1,1.61914-1.375,2.609,2.609,0,0,1,1.50391.44043.37577.37577,0,0,1,.18262.332.38683.38683,0,0,1-.39258.38574.40108.40108,0,0,1-.2168-.06054,1.97387,1.97387,0,0,0-1.09082-.35938c-.48828,0-.77246.251-.77246.5625v.01367c0,.36573.2168.52832,1.13086.74512,1.00293.24365,1.51758.603,1.51758,1.38867v.01368c0,.88769-.69727,1.416-1.69336,1.416A2.95487,2.95487,0,0,1,30.02539,214.17627Z"
         fill="#1f1f1f"
         id="path180" />
      <path
         d="M42.62305,210.3418a.417.417,0,0,1,.834,0v3.604h2.14746a.3794.3794,0,0,1,0,.75879H43.043a.4141.4141,0,0,1-.41992-.41992Z"
         fill="#1f1f1f"
         id="path182" />
      <path
         d="M46.53711,215.13135l2.77051-5.67725a.32242.32242,0,0,1,.61621.12207.53069.53069,0,0,1-.03321.1626L47.1123,215.416a.30728.30728,0,0,1-.291.18945.3228.3228,0,0,1-.3252-.31152A.37944.37944,0,0,1,46.53711,215.13135Z"
         fill="#1f1f1f"
         id="path184" />
      <path
         d="M50.73828,210.38232a.41422.41422,0,0,1,.41992-.42041h1.69434a1.90932,1.90932,0,0,1,1.36816.47461,1.43178,1.43178,0,0,1,.39356,1.023v.01367a1.4029,1.4029,0,0,1-1.07715,1.41553l.90723,1.145a.48627.48627,0,0,1,.13574.31885.39268.39268,0,0,1-.39942.38574.47727.47727,0,0,1-.40722-.2168l-1.15137-1.46972h-1.0498v1.27344a.417.417,0,0,1-.834,0ZM52.791,212.313c.59668,0,.97558-.31153.97558-.79248v-.01367c0-.5083-.36523-.78614-.98144-.78614H51.57227V212.313Z"
         fill="#1f1f1f"
         id="path186" />
    </g>
  </g>
  <g
     id="bcd11dc9-abab-4077-ba99-bf416940c5f8"
     data-name="components"
     inkscape:groupmode="layer"
     style="display:none">
    <circle
       id="f6d0bf8e-444b-4666-9957-a0e775ff6f09"
       data-name="LrWidth#PJ301MPort"
       cx="53.509392"
       cy="238"
       r="5"
       style="fill:#00ff00" />
    <circle
       id="eb95cf02-65f4-48aa-9e59-2369d2663a14"
       data-name="LOut#PJ301MPort"
       cx="21.50939"
       cy="334"
       r="5"
       style="fill:#0000ff" />
    <circle
       id="f685f9ee-3b3a-445b-97b0-7fd329dd7603"
       data-name="ROut#PJ301MPort"
       cx="53.509392"
       cy="334"
       r="5"
       style="fill:#0000ff" />
    <circle
       id="aa690aaf-4d84-4f9a-ba94-a4a2b8cd3e19"
       data-name="M#PJ301MPort"
       cx="21.50939"
       cy="286"
       r="5"
       style="fill:#00ff00" />
    <circle
       id="fb079d53-f64c-43ad-be21-429986b56aa8"
       data-name="S#PJ301MPort"
       cx="53.509392"
       cy="286"
       r="5"
       style="fill:#00ff00" />
    <circle
       id="a6b549b3-bec4-4d28-bff3-9dc93fd055b9"
       data-name="MsWidth#PJ301MPort"
       cx="53.509392"
       cy="74.238312"
       r="5"
       style="fill:#00ff00" />
    <circle
       id="e2a1bc20-b8bd-4bd7-89b6-cc1ba251af6e"
       data-name="MOut#PJ301MPort"
       cx="21.50939"
       cy="170.31178"
       r="5"
       style="fill:#0000ff" />
    <circle
       id="f3d59e12-b2da-4b58-9daf-afdfa68992ce"
       data-name="SOut#PJ301MPort"
       cx="53.509392"
       cy="170.31178"
       r="5"
       style="fill:#0000ff" />
    <circle
       id="f2d041ab-8eeb-4536-a1f7-73f95d5d0913"
       data-name="L#PJ301MPort"
       cx="21.50939"
       cy="122.16582"
       r="5"
       style="fill:#00ff00" />
    <circle
       id="b8e3be3c-079c-4703-8f51-3ebfc51ef353"
       data-name="R#PJ301MPort"
       cx="53.509392"
       cy="122.16582"
       r="5"
       style="fill:#00ff00" />
    <circle
       id="a4f9824c-3d8c-4d1b-875f-331fa0d29019"
       data-name="StWidth#RoundBlackKnob"
       cx="21.50939"
       cy="237.94203"
       r="5"
       style="fill:#ff0000" />
    <circle
       id="aa859f59-c51a-44ff-ac49-d9e5fe5b0879"
       data-name="MsWidth#RoundBlackKnob"
       cx="21.50939"
       cy="74.417717"
       r="5"
       style="fill:#ff0000" />
  </g>
</svg>
