<?xml version="1.0" encoding="UTF-8" standalone="no"?>
<svg
   xmlns:dc="http://purl.org/dc/elements/1.1/"
   xmlns:cc="http://creativecommons.org/ns#"
   xmlns:rdf="http://www.w3.org/1999/02/22-rdf-syntax-ns#"
   xmlns:svg="http://www.w3.org/2000/svg"
   xmlns="http://www.w3.org/2000/svg"
   xmlns:sodipodi="http://sodipodi.sourceforge.net/DTD/sodipodi-0.dtd"
   xmlns:inkscape="http://www.inkscape.org/namespaces/inkscape"
   width="45"
   height="380"
   viewBox="0 0 45 380"
   version="1.1"
   id="svg79"
   sodipodi:docname="UMIX.svg"
   inkscape:version="0.92.3 (2405546, 2018-03-11)">
  <metadata
     id="metadata83">
    <rdf:RDF>
      <cc:Work
         rdf:about="">
        <dc:format>image/svg+xml</dc:format>
        <dc:type
           rdf:resource="http://purl.org/dc/dcmitype/StillImage" />
      </cc:Work>
    </rdf:RDF>
  </metadata>
  <sodipodi:namedview
     pagecolor="#ffffff"
     bordercolor="#666666"
     borderopacity="1"
     objecttolerance="10"
     gridtolerance="10"
     guidetolerance="10"
     inkscape:pageopacity="0"
     inkscape:pageshadow="2"
     inkscape:window-width="716"
     inkscape:window-height="480"
     id="namedview81"
     showgrid="false"
     inkscape:zoom="0.62105263"
     inkscape:cx="22.5"
     inkscape:cy="190"
     inkscape:window-x="0"
     inkscape:window-y="0"
     inkscape:window-maximized="0"
     inkscape:current-layer="svg79" />
  <defs
     id="defs7">
    <linearGradient
       id="fe6fa1e3-b00d-43c5-bb51-48a4b2316c99"
       x1="22.5"
       x2="22.5"
       y2="380"
       gradientUnits="userSpaceOnUse">
      <stop
         offset="0"
         stop-color="#ebebeb"
         id="stop2" />
      <stop
         offset="1"
         stop-color="#e1e1e1"
         id="stop4" />
    </linearGradient>
  </defs>
  <g
     id="a2e2b8e7-20e0-4b6c-bd9f-37b0b88b197d"
     data-name="FND BG">
    <rect
       width="45"
       height="380"
       fill="url(#fe6fa1e3-b00d-43c5-bb51-48a4b2316c99)"
       id="rect9" />
  </g>
  <g
     id="b9541324-3c38-4337-bfb9-5334bca160d9"
     data-name="FND GRAPH">
    <g
       id="g20">
      <circle
         cx="23.00165"
         cy="355.83101"
         r="1.18571"
         fill="#1f1f1f"
         id="circle12" />
      <path
         d="M14.35927,359.753a.91214.91214,0,0,1-.8158-.50418l-2.96428-5.92857a.91209.91209,0,0,1,1.6316-.8158l2.14848,4.297,2.14848-4.297a.91209.91209,0,0,1,1.6316.8158l-2.96428,5.92857A.91211.91211,0,0,1,14.35927,359.753Z"
         fill="#1f1f1f"
         id="path14" />
      <path
         d="M30.64073,359.753a.91211.91211,0,0,1-.8158-.50418l-2.96428-5.92857a.91209.91209,0,0,1,1.6316-.8158l2.14848,4.297,2.14848-4.297a.91209.91209,0,0,1,1.6316.8158l-2.96428,5.92857A.91214.91214,0,0,1,30.64073,359.753Z"
         fill="#1f1f1f"
         id="path16" />
      <path
         d="M22.94242,359.753a3.87637,3.87637,0,1,1,2.32653-6.97719.91209.91209,0,1,1-1.09557,1.45854,2.034,2.034,0,0,0-1.231-.40991,2.0522,2.0522,0,1,0,0,4.10439,2.034,2.034,0,0,0,1.231-.40991.91209.91209,0,1,1,1.09557,1.45854A3.8448,3.8448,0,0,1,22.94242,359.753Z"
         fill="#1f1f1f"
         id="path18" />
    </g>
    <rect
       x="8.22422"
       y="309.05634"
       width="28.55155"
       height="39.15691"
       rx="2.83465"
       fill="#1f1f1f"
       id="rect22" />
    <line
       x1="22.5"
       y1="132.8236"
       x2="22.5"
       y2="309.83531"
       fill="none"
       stroke="#1f1f1f"
       stroke-linecap="round"
       stroke-linejoin="round"
       stroke-width="0.8"
       id="line24" />
    <g
       id="g30">
      <path
         d="M13.92012,87.35089a16.71246,16.71246,0,1,1,17.21552-.04577L22.5,73"
         fill="none"
         stroke="#1f1f1f"
         stroke-linecap="round"
         stroke-linejoin="round"
         stroke-width="0.8"
         id="path26" />
      <circle
         cx="22.5"
         cy="72.99995"
         r="20.69419"
         fill="none"
         opacity="0.69"
         style="isolation: isolate"
         id="circle28" />
    </g>
  </g>
  <g
     id="b2635e9d-6eef-435d-a209-ceebf6403e0c"
     data-name="FND TXT">
    <g
       id="g43">
      <path
         d="M9.125,45.72314a.5132.5132,0,0,1,1.02637,0v4.44043h2.64648a.46729.46729,0,0,1,0,.93457H9.64258a.50991.50991,0,0,1-.51758-.51757Z"
         fill="#1f1f1f"
         id="path33" />
      <path
         d="M14.418,50.58057V45.773a.50991.50991,0,0,1,.51758-.51758H18.333a.46363.46363,0,0,1,.459.45947.45813.45813,0,0,1-.459.459H15.44434v1.519H17.957a.465.465,0,0,1,.459.46729.45611.45611,0,0,1-.459.45068H15.44434v1.56934H18.374a.4634.4634,0,0,1,.46.459.458.458,0,0,1-.46.459H14.93555A.50991.50991,0,0,1,14.418,50.58057Z"
         fill="#1f1f1f"
         id="path35" />
      <path
         d="M21.93457,50.76416l-2.04492-4.80762a.57631.57631,0,0,1-.0586-.2417.50612.50612,0,0,1,.51758-.501.53807.53807,0,0,1,.52637.36718l1.68555,4.21485,1.71093-4.24805a.53054.53054,0,0,1,.49317-.334.497.497,0,0,1,.50879.49218.60646.60646,0,0,1-.04981.21729l-2.05371,4.84082a.61173.61173,0,0,1-.59277.41748h-.05762A.60906.60906,0,0,1,21.93457,50.76416Z"
         fill="#1f1f1f"
         id="path37" />
      <path
         d="M26.457,50.58057V45.773a.50992.50992,0,0,1,.51758-.51758h3.39746a.46363.46363,0,0,1,.459.45947.45813.45813,0,0,1-.459.459H27.4834v1.519h2.51269a.465.465,0,0,1,.459.46729.45611.45611,0,0,1-.459.45068H27.4834v1.56934h2.92969a.4634.4634,0,0,1,.46.459.458.458,0,0,1-.46.459H26.97461A.50991.50991,0,0,1,26.457,50.58057Z"
         fill="#1f1f1f"
         id="path39" />
      <path
         d="M32.21,45.72314a.5132.5132,0,0,1,1.02637,0v4.44043h2.64648a.46729.46729,0,0,1,0,.93457H32.72754a.50991.50991,0,0,1-.51758-.51757Z"
         fill="#1f1f1f"
         id="path41" />
    </g>
    <g
       id="g49">
      <path
         d="M19.30078,116.71387a.41652.41652,0,0,1,.833,0v3.9834a.41652.41652,0,0,1-.833,0Z"
         fill="#1f1f1f"
         id="path45" />
      <path
         d="M21.60938,116.72754a.418.418,0,0,1,.41992-.41992h.08886a.52522.52522,0,0,1,.4336.24365l2.37109,3.06885V116.707a.40968.40968,0,0,1,.81934,0v3.9834a.40483.40483,0,0,1-.40625.41357h-.03418a.5249.5249,0,0,1-.4336-.25048l-2.43847-3.15723v3.00781a.41017.41017,0,0,1-.82031,0Z"
         fill="#1f1f1f"
         id="path47" />
    </g>
    <g
       id="g59">
      <path
         d="M6.57227,24.5332V20.4165a.96289.96289,0,1,1,1.92578,0v4.06641c0,1.42627.71289,2.16455,1.88965,2.16455s1.88964-.71289,1.88964-2.102V20.4165a.96338.96338,0,1,1,1.92676,0v4.0542c0,2.65235-1.48926,3.95362-3.84082,3.95362C8.00977,28.42432,6.57227,27.11035,6.57227,24.5332Z"
         fill="#1f1f1f"
         id="path51" />
      <path
         d="M16.35742,20.44141a.95618.95618,0,0,1,.96387-.96338h.21191a.99.99,0,0,1,.877.50049l2.32617,3.791,2.33984-3.80371a.94553.94553,0,0,1,.86328-.48779h.21289a.95557.95557,0,0,1,.96387.96338v6.957a.95754.95754,0,1,1-1.915,0V23.03125L21.5127,25.63379a.90079.90079,0,0,1-1.60157,0l-1.66406-2.56445v4.354a.93972.93972,0,0,1-.95117.93848.92956.92956,0,0,1-.93848-.93848Z"
         fill="#1f1f1f"
         id="path53" />
      <path
         d="M27.43652,20.4165a.96338.96338,0,1,1,1.92676,0v6.98194a.96338.96338,0,1,1-1.92676,0Z"
         fill="#1f1f1f"
         id="path55" />
      <path
         d="M31.31738,26.73535,33.68164,23.832l-2.22656-2.71484a1.17547,1.17547,0,0,1-.28711-.71338.92738.92738,0,0,1,.95019-.95069,1.00808,1.00808,0,0,1,.8877.47559l1.915,2.55225,1.90137-2.50244a1.10241,1.10241,0,0,1,.93945-.5254.87972.87972,0,0,1,.875.88819,1.14464,1.14464,0,0,1-.28711.73828l-2.22754,2.72754,2.35254,2.89014a1.17783,1.17783,0,0,1,.28711.71337.92772.92772,0,0,1-.95117.95118,1.01035,1.01035,0,0,1-.8877-.47559l-2.05176-2.68994-2.02734,2.63965a1.0997,1.0997,0,0,1-.9375.52588.8807.8807,0,0,1-.877-.88819A1.14486,1.14486,0,0,1,31.31738,26.73535Z"
         fill="#1f1f1f"
         id="path57" />
    </g>
    <g
       id="g67">
      <path
         d="M16.3877,314.66113a.51759.51759,0,0,1,.52246-.52148h.11523a.53518.53518,0,0,1,.47363.27051l1.26075,2.05273,1.2666-2.05957a.51151.51151,0,0,1,.46777-.26367h.11524a.51738.51738,0,0,1,.52148.52148v3.7666a.51857.51857,0,1,1-1.03711,0v-2.36425l-.91406,1.40918a.48793.48793,0,0,1-.86719,0l-.90137-1.38868v2.35743a.509.509,0,0,1-.51465.5083.50345.50345,0,0,1-.50878-.5083Z"
         fill="#f0f0f0"
         id="path61" />
      <path
         d="M22.55273,314.64746a.52149.52149,0,0,1,1.043,0v3.78027a.52149.52149,0,1,1-1.043,0Z"
         fill="#f0f0f0"
         id="path63" />
      <path
         d="M24.82617,318.06885l1.28028-1.57178-1.20606-1.47021a.63785.63785,0,0,1-.15527-.38624.50212.50212,0,0,1,.51465-.51464.54545.54545,0,0,1,.48046.25732l1.03711,1.38232,1.0293-1.35546a.59743.59743,0,0,1,.50879-.28418.47571.47571,0,0,1,.47363.48095.62044.62044,0,0,1-.15527.39991l-1.20606,1.47656,1.27344,1.56543a.63847.63847,0,0,1,.15625.38574.50248.50248,0,0,1-.51562.51514.54876.54876,0,0,1-.48047-.25733l-1.11133-1.457L25.65234,318.665a.59508.59508,0,0,1-.50781.28467.47684.47684,0,0,1-.47461-.481A.61966.61966,0,0,1,24.82617,318.06885Z"
         fill="#f0f0f0"
         id="path65" />
    </g>
  </g>
  <g
     id="b487e988-69e1-4f3e-a146-aeb5bcd8fb67"
     data-name="components"
     inkscape:groupmode="layer"
     style="display:none">
    <circle
       id="eccdb024-2d3e-4e08-a47c-b0ab69c7aa89"
       data-name="In6#PJ301MPort"
       cx="22.5"
       cy="286.00003"
       r="5"
       style="fill:#00ff00" />
    <circle
       id="badeaf3a-25a9-47ed-9354-9bfdb6861453"
       data-name="In3#PJ301MPort"
       cx="22.5"
       cy="196.00002"
       r="5"
       style="fill:#00ff00" />
    <circle
       id="b414eed3-2a71-4e99-832f-a05e5ada8814"
       data-name="In4#PJ301MPort"
       cx="22.5"
       cy="226.00002"
       r="5"
       style="fill:#00ff00" />
    <circle
       id="ed323d2b-7a00-43f7-abc0-c9e4a8106e0f"
       data-name="In1#PJ301MPort"
       cx="22.5"
       cy="136.00002"
       r="5"
       style="fill:#00ff00" />
    <circle
       id="a6cab8e5-a0d5-4096-b2ba-0e00b69fd42b"
       data-name="In2#PJ301MPort"
       cx="22.5"
       cy="166.00002"
       r="5"
       style="fill:#00ff00" />
    <circle
       id="a59e1e74-3d69-432f-b607-69c7166616cf"
       data-name="In5#PJ301MPort"
       cx="22.5"
       cy="256"
       r="5"
       style="fill:#00ff00" />
    <circle
       id="f3016410-0f8a-4ac8-aa3d-861cad752f82"
       data-name="Out#PJ301MPort"
       cx="22.5"
       cy="334"
       r="5"
       style="fill:#0000ff" />
    <circle
       id="b5ceac18-d110-4e9b-b49a-d2b94d480fd8"
       data-name="Level#RoundBlackKnob"
       cx="22.5"
       cy="72.999947"
       r="5"
       style="fill:#ff0000" />
  </g>
</svg>
