<?xml version="1.0" encoding="UTF-8"?>
<svg xmlns="http://www.w3.org/2000/svg" width="45" height="380" xmlns:xlink="http://www.w3.org/1999/xlink" viewBox="0 0 45 380">
  <defs>
    <linearGradient id="uuid-105e9e5d-da64-4faa-bcdc-08db03c53266" x1="22.5" y1="0" x2="22.5" y2="380" gradientUnits="userSpaceOnUse">
      <stop offset="0" stop-color="#2a2a2b"/>
      <stop offset="1" stop-color="#171717"/>
    </linearGradient>
  </defs>
  <g id="uuid-3ea083d4-3a2a-444f-92b7-d180e1e96d21" data-name="FND BG">
    <rect width="45" height="380" fill="url(#uuid-105e9e5d-da64-4faa-bcdc-08db03c53266)"/>
  </g>
  <g id="uuid-25462ef1-d259-47a4-aa85-b77f9ff26eb2" data-name="FND GRAPH">
    <g>
      <circle cx="23.00165" cy="355.83101" r="1.18571" fill="#ededed"/>
      <path d="m14.35927,359.75298c-.34551,0-.66126-.1952-.8158-.50419l-2.96428-5.92856c-.22526-.45057-.04266-.99844.40794-1.2237.45008-.22535.99831-.04271,1.22366.4079l2.14848,4.29696,2.14848-4.29696c.22526-.45057.77314-.63325,1.22366-.4079.45061.22526.63321.77314.40794,1.2237l-2.96428,5.92856c-.15454.30899-.47029.50419-.8158.50419Z" fill="#ededed"/>
      <path d="m30.64073,359.75298c-.34551,0-.66126-.1952-.8158-.50419l-2.96428-5.92856c-.22526-.45057-.04266-.99844.40794-1.2237.45016-.22535.9984-.04271,1.22366.4079l2.14848,4.29696,2.14848-4.29696c.22526-.45057.77305-.63325,1.22366-.4079.45061.22526.63321.77314.40794,1.2237l-2.96428,5.92856c-.15454.30899-.47029.50419-.8158.50419Z" fill="#ededed"/>
      <path d="m22.94242,359.75298c-2.13744,0-3.87637-1.73893-3.87637-3.87637s1.73893-3.87637,3.87637-3.87637c.84653,0,1.65102.26819,2.32653.77554.40278.30253.48401.87428.18153,1.27705-.30248.40273-.87432.48401-1.2771.18148-.357-.26815-.78267-.4099-1.23096-.4099-1.13156,0-2.05219.92059-2.05219,2.05219s.92064,2.05219,2.05219,2.05219c.44829,0,.87396-.14176,1.23096-.4099.40269-.30271.97444-.22125,1.2771.18148.30248.40278.22125.97453-.18153,1.27705-.67551.50735-1.48.77554-2.32653.77554Z" fill="#ededed"/>
    </g>
    <rect x="8.22422" y="309.05634" width="28.55155" height="39.15691" rx="2.83465" ry="2.83465" fill="#ededed"/>
    <line x1="22.5" y1="132.8236" x2="22.5" y2="309.83531" fill="none" stroke="#ededed" stroke-linecap="round" stroke-linejoin="round" stroke-width=".8"/>
    <g>
      <path d="m13.92012,87.35089c-4.87734-2.91881-8.14264-8.25353-8.14264-14.35091,0-9.23,7.48239-16.71239,16.71239-16.71239s16.71239,7.48239,16.71239,16.71239c0,6.06564-3.2314,11.37655-8.06662,14.30514l-8.63564-14.30517" fill="none" stroke="#ededed" stroke-linecap="round" stroke-linejoin="round" stroke-width=".8"/>
      <circle cx="22.5" cy="72.99995" r="20.69419" fill="none" isolation="isolate" opacity=".69"/>
    </g>
  </g>
  <g id="uuid-9413f1dd-df6c-46cf-a0ca-a150878d680f" data-name="FND TXT">
    <g>
      <path d="m9.125,45.72314c0-.28418.22559-.50928.51758-.50928.28418,0,.50879.2251.50879.50928v4.44043h2.64648c.25879,0,.4668.2085.4668.46729s-.20801.46729-.4668.46729h-3.15527c-.29199,0-.51758-.22559-.51758-.51758v-4.85742Z" fill="#ebebeb"/>
      <path d="m14.41797,50.58057v-4.80762c0-.29199.22559-.51758.51758-.51758h3.39746c.25,0,.45898.20898.45898.45947,0,.2583-.20898.45898-.45898.45898h-2.88867v1.51904h2.5127c.25,0,.45898.2085.45898.46729,0,.25049-.20898.45068-.45898.45068h-2.5127v1.56934h2.92969c.25098,0,.45996.2085.45996.45898,0,.25879-.20898.45898-.45996.45898h-3.43848c-.29199,0-.51758-.22559-.51758-.51758Z" fill="#ebebeb"/>
      <path d="m21.93457,50.76416l-2.04492-4.80762c-.0332-.0752-.05859-.1499-.05859-.2417,0-.27588.22559-.50098.51758-.50098.26758,0,.44238.15039.52637.36719l1.68555,4.21484,1.71094-4.24805c.06738-.17529.25098-.33398.49316-.33398.2832,0,.50879.2168.50879.49219,0,.0752-.02539.15869-.0498.21729l-2.05371,4.84082c-.1084.25879-.30078.41748-.59277.41748h-.05762c-.28418,0-.47656-.15869-.58496-.41748Z" fill="#ebebeb"/>
      <path d="m26.45703,50.58057v-4.80762c0-.29199.22559-.51758.51758-.51758h3.39746c.25,0,.45898.20898.45898.45947,0,.2583-.20898.45898-.45898.45898h-2.88867v1.51904h2.5127c.25,0,.45898.2085.45898.46729,0,.25049-.20898.45068-.45898.45068h-2.5127v1.56934h2.92969c.25098,0,.45996.2085.45996.45898,0,.25879-.20898.45898-.45996.45898h-3.43848c-.29199,0-.51758-.22559-.51758-.51758Z" fill="#ebebeb"/>
      <path d="m32.20996,45.72314c0-.28418.22559-.50928.51758-.50928.28418,0,.50879.2251.50879.50928v4.44043h2.64648c.25879,0,.4668.2085.4668.46729s-.20801.46729-.4668.46729h-3.15527c-.29199,0-.51758-.22559-.51758-.51758v-4.85742Z" fill="#ebebeb"/>
    </g>
    <g>
      <path d="m19.30078,116.71387c0-.23047.18262-.41309.41992-.41309.23047,0,.41309.18262.41309.41309v3.9834c0,.23047-.18262.41357-.41309.41357-.2373,0-.41992-.18311-.41992-.41357v-3.9834Z" fill="#ebebeb"/>
      <path d="m21.60938,116.72754c0-.23047.18359-.41992.41992-.41992h.08887c.20312,0,.31836.10156.43359.24365l2.37109,3.06885v-2.91309c0-.22363.18262-.40625.40625-.40625.23047,0,.41309.18262.41309.40625v3.9834c0,.23047-.17578.41357-.40625.41357h-.03418c-.19629,0-.31836-.10156-.43359-.25049l-2.43848-3.15723v3.00781c0,.22363-.18359.40674-.40625.40674-.23047,0-.41406-.18311-.41406-.40674v-3.97656Z" fill="#ebebeb"/>
    </g>
    <g>
      <path d="m11.5332,20.44141c0-.53809.42578-.96338.96387-.96338h.21191c.41406,0,.70117.2124.87695.50049l2.32617,3.79102,2.33984-3.80371c.20117-.3252.47656-.48779.86328-.48779h.21289c.53906,0,.96387.42529.96387.96338v6.95703c0,.53809-.4248.96338-.96387.96338-.52539,0-.95117-.43799-.95117-.96338v-4.36719l-1.68848,2.60254c-.2002.30078-.4502.48828-.80078.48828s-.60059-.1875-.80078-.48828l-1.66406-2.56445v4.354c0,.52539-.4248.93848-.95117.93848-.52539,0-.93848-.41309-.93848-.93848v-6.98193Z" fill="#ebebeb"/>
      <path d="m22.61328,20.4165c0-.53809.4248-.96338.96289-.96338s.96289.42529.96289.96338v6.98193c0,.53809-.4248.96338-.96289.96338s-.96289-.42529-.96289-.96338v-6.98193Z" fill="#ebebeb"/>
      <path d="m26.49316,26.73535l2.36426-2.90332-2.22656-2.71484c-.15039-.1875-.28711-.43799-.28711-.71338,0-.5376.40039-.95068.9502-.95068.41309,0,.65137.1626.8877.47559l1.91504,2.55225,1.90137-2.50244c.26367-.33789.51367-.52539.93945-.52539.4248,0,.875.33789.875.88818,0,.27539-.09961.50049-.28711.73828l-2.22754,2.72754,2.35254,2.89014c.15039.18799.28711.43848.28711.71338,0,.53809-.40039.95117-.95117.95117-.41211,0-.65039-.1626-.8877-.47559l-2.05176-2.68994-2.02734,2.63965c-.2627.33789-.5127.52588-.9375.52588-.42578,0-.87695-.33789-.87695-.88818,0-.27539.10059-.50098.28809-.73828Z" fill="#ebebeb"/>
    </g>
    <g>
      <path d="m16.3877,314.66113c0-.2915.23047-.52148.52246-.52148h.11523c.22363,0,.37891.11523.47363.27051l1.26074,2.05273,1.2666-2.05957c.1084-.17578.25781-.26367.46777-.26367h.11523c.29102,0,.52148.22998.52148.52148v3.7666c0,.2915-.23047.52197-.52148.52197-.28516,0-.51562-.2373-.51562-.52197v-2.36426l-.91406,1.40918c-.1084.1626-.24414.26416-.43359.26416-.19043,0-.3252-.10156-.43359-.26416l-.90137-1.38867v2.35742c0,.28467-.23047.5083-.51465.5083-.28516,0-.50879-.22363-.50879-.5083v-3.78027Z" fill="#1f1f1f"/>
      <path d="m22.55273,314.64746c0-.29102.23047-.52148.52148-.52148.29199,0,.52148.23047.52148.52148v3.78027c0,.2915-.22949.52197-.52148.52197-.29102,0-.52148-.23047-.52148-.52197v-3.78027Z" fill="#1f1f1f"/>
      <path d="m24.82617,318.06885l1.28027-1.57178-1.20605-1.47021c-.08105-.10156-.15527-.23682-.15527-.38623,0-.29102.2168-.51465.51465-.51465.22363,0,.35254.08789.48047.25732l1.03711,1.38232,1.0293-1.35547c.14258-.18262.27832-.28418.50879-.28418s.47363.18262.47363.48096c0,.14893-.05371.271-.15527.3999l-1.20605,1.47656,1.27344,1.56543c.08105.10156.15625.23682.15625.38574,0,.2915-.2168.51514-.51562.51514-.22266,0-.35156-.08838-.48047-.25732l-1.11133-1.45703-1.09766,1.42969c-.1416.18262-.27734.28467-.50781.28467s-.47461-.18311-.47461-.48096c0-.14941.05469-.27148.15625-.3999Z" fill="#1f1f1f"/>
    </g>
  </g>
</svg>