<?xml version="1.0" encoding="UTF-8"?>
<svg xmlns="http://www.w3.org/2000/svg" width="120" height="380" xmlns:xlink="http://www.w3.org/1999/xlink" viewBox="0 0 120 380">
  <defs>
    <linearGradient id="uuid-925fcaa7-b9ea-42b9-97ca-be2178393fa0" x1="59.99885" y1="0" x2="59.99885" y2="380" gradientUnits="userSpaceOnUse">
      <stop offset="0" stop-color="#2a2a2b"/>
      <stop offset="1" stop-color="#171717"/>
    </linearGradient>
  </defs>
  <g id="uuid-5cad21fb-65ce-4d68-85ef-5d4f6d0f8c00" data-name="FND BG">
    <rect x="-.00115" width="120" height="380" fill="url(#uuid-925fcaa7-b9ea-42b9-97ca-be2178393fa0)"/>
  </g>
  <g id="uuid-8a2a8bf3-2e37-4b45-bfa3-7d36ebb52b60" data-name="FND GRAPH">
    <g>
      <circle cx="60.5005" cy="355.83101" r="1.18571" fill="#ededed"/>
      <path d="m51.85812,359.75298c-.34551,0-.66126-.1952-.8158-.50419l-2.96428-5.92856c-.22526-.45057-.04266-.99844.40794-1.2237.45008-.22535.99831-.04271,1.22366.4079l2.14848,4.29696,2.14848-4.29696c.22526-.45057.77314-.63325,1.22366-.4079.45061.22526.63321.77314.40794,1.2237l-2.96428,5.92856c-.15454.30899-.47029.50419-.8158.50419Z" fill="#ededed"/>
      <path d="m68.13958,359.75298c-.34551,0-.66126-.1952-.8158-.50419l-2.96428-5.92856c-.22526-.45057-.04266-.99844.40794-1.2237.45016-.22535.9984-.04271,1.22366.4079l2.14848,4.29696,2.14848-4.29696c.22526-.45057.77305-.63325,1.22366-.4079.45061.22526.63321.77314.40794,1.2237l-2.96428,5.92856c-.15454.30899-.47029.50419-.8158.50419Z" fill="#ededed"/>
      <path d="m60.44127,359.75298c-2.13744,0-3.87637-1.73893-3.87637-3.87637s1.73893-3.87637,3.87637-3.87637c.84653,0,1.65102.26819,2.32653.77554.40278.30253.48401.87428.18153,1.27705-.30248.40273-.87432.48401-1.2771.18148-.357-.26815-.78267-.4099-1.23096-.4099-1.13156,0-2.05219.92059-2.05219,2.05219s.92064,2.05219,2.05219,2.05219c.44829,0,.87396-.14176,1.23096-.4099.40269-.30271.97444-.22125,1.2771.18148.30248.40278.22125.97453-.18153,1.27705-.67551.50735-1.48.77554-2.32653.77554Z" fill="#ededed"/>
    </g>
    <rect x="84.14442" y="40" width="28.55155" height="308.02897" rx="2.83465" ry="2.83465" fill="#ededed"/>
    <line x1="30.43233" y1="64.8652" x2="51.71103" y2="64.8652" fill="none" stroke="#ededed" stroke-linecap="round" stroke-linejoin="round" stroke-width=".8"/>
    <path d="m21.85183,320.66982l1.65796-2.87167c.14313-.24791-.03578-.55779-.32204-.55779h-3.31592c-.28626,0-.46517.30989-.32204.55779l1.65796,2.87167c.14313.24791.50096.24791.64409,0Z" fill="#ededed"/>
    <line x1="30.43233" y1="334" x2="51.71103" y2="334" fill="none" stroke="#ededed" stroke-linecap="round" stroke-linejoin="round" stroke-width=".8"/>
    <line x1="67.81103" y1="64.8652" x2="93.5376" y2="64.8652" fill="none" stroke="#ededed" stroke-linecap="round" stroke-linejoin="round" stroke-width=".8"/>
    <line x1="69.5802" y1="334" x2="93.5376" y2="334" fill="none" stroke="#ededed" stroke-linecap="round" stroke-linejoin="round" stroke-width=".8"/>
    <line x1="30.43233" y1="304.0961" x2="51.71103" y2="304.0961" fill="none" stroke="#ededed" stroke-linecap="round" stroke-linejoin="round" stroke-width=".8"/>
    <line x1="69.5802" y1="304.0961" x2="93.5376" y2="304.0961" fill="none" stroke="#ededed" stroke-linecap="round" stroke-linejoin="round" stroke-width=".8"/>
    <line x1="30.43233" y1="274.1922" x2="51.71103" y2="274.1922" fill="none" stroke="#ededed" stroke-linecap="round" stroke-linejoin="round" stroke-width=".8"/>
    <line x1="69.5802" y1="274.1922" x2="93.5376" y2="274.1922" fill="none" stroke="#ededed" stroke-linecap="round" stroke-linejoin="round" stroke-width=".8"/>
    <line x1="30.43233" y1="244.28829" x2="51.71103" y2="244.28829" fill="none" stroke="#ededed" stroke-linecap="round" stroke-linejoin="round" stroke-width=".8"/>
    <line x1="69.5802" y1="244.28829" x2="93.5376" y2="244.28829" fill="none" stroke="#ededed" stroke-linecap="round" stroke-linejoin="round" stroke-width=".8"/>
    <line x1="30.43233" y1="214.38439" x2="51.71103" y2="214.38439" fill="none" stroke="#ededed" stroke-linecap="round" stroke-linejoin="round" stroke-width=".8"/>
    <line x1="69.5802" y1="214.38439" x2="93.5376" y2="214.38439" fill="none" stroke="#ededed" stroke-linecap="round" stroke-linejoin="round" stroke-width=".8"/>
    <line x1="30.43233" y1="184.48049" x2="51.71103" y2="184.48049" fill="none" stroke="#ededed" stroke-linecap="round" stroke-linejoin="round" stroke-width=".8"/>
    <line x1="69.5802" y1="184.48049" x2="93.5376" y2="184.48049" fill="none" stroke="#ededed" stroke-linecap="round" stroke-linejoin="round" stroke-width=".8"/>
    <line x1="30.43233" y1="154.57659" x2="51.71103" y2="154.57659" fill="none" stroke="#ededed" stroke-linecap="round" stroke-linejoin="round" stroke-width=".8"/>
    <line x1="69.5802" y1="154.57659" x2="93.5376" y2="154.57659" fill="none" stroke="#ededed" stroke-linecap="round" stroke-linejoin="round" stroke-width=".8"/>
    <line x1="30.43233" y1="124.67269" x2="51.71103" y2="124.67269" fill="none" stroke="#ededed" stroke-linecap="round" stroke-linejoin="round" stroke-width=".8"/>
    <line x1="69.5802" y1="124.67269" x2="93.5376" y2="124.67269" fill="none" stroke="#ededed" stroke-linecap="round" stroke-linejoin="round" stroke-width=".8"/>
    <line x1="30.43233" y1="94.76878" x2="51.71103" y2="94.76878" fill="none" stroke="#ededed" stroke-linecap="round" stroke-linejoin="round" stroke-width=".8"/>
    <line x1="69.5802" y1="94.76878" x2="93.5376" y2="94.76878" fill="none" stroke="#ededed" stroke-linecap="round" stroke-linejoin="round" stroke-width=".8"/>
    <path d="m21.85183,290.76591l1.65796-2.87167c.14313-.24791-.03578-.55779-.32204-.55779h-3.31592c-.28626,0-.46517.30989-.32204.55779l1.65796,2.87167c.14313.24791.50096.24791.64409,0Z" fill="#ededed"/>
    <path d="m21.85183,260.86201l1.65796-2.87167c.14313-.24791-.03578-.55779-.32204-.55779h-3.31592c-.28626,0-.46517.30989-.32204.55779l1.65796,2.87167c.14313.24791.50096.24791.64409,0Z" fill="#ededed"/>
    <path d="m21.85183,230.95811l1.65796-2.87167c.14313-.24791-.03578-.55779-.32204-.55779h-3.31592c-.28626,0-.46517.30989-.32204.55779l1.65796,2.87167c.14313.24791.50096.24791.64409,0Z" fill="#ededed"/>
    <path d="m21.85183,201.05421l1.65796-2.87167c.14313-.24791-.03578-.55779-.32204-.55779h-3.31592c-.28626,0-.46517.30989-.32204.55779l1.65796,2.87167c.14313.24791.50096.24791.64409,0Z" fill="#ededed"/>
    <path d="m21.85183,171.15031l1.65796-2.87167c.14313-.24791-.03578-.55779-.32204-.55779h-3.31592c-.28626,0-.46517.30989-.32204.55779l1.65796,2.87167c.14313.24791.50096.24791.64409,0Z" fill="#ededed"/>
    <path d="m21.85183,141.2464l1.65796-2.87167c.14313-.24791-.03578-.55779-.32204-.55779h-3.31592c-.28626,0-.46517.30989-.32204.55779l1.65796,2.87167c.14313.24791.50096.24791.64409,0Z" fill="#ededed"/>
    <path d="m21.85183,111.3425l1.65796-2.87167c.14313-.24791-.03578-.55779-.32204-.55779h-3.31592c-.28626,0-.46517.30989-.32204.55779l1.65796,2.87167c.14313.24791.50096.24791.64409,0Z" fill="#ededed"/>
    <path d="m21.85183,81.4386l1.65796-2.87167c.14313-.24791-.03578-.55779-.32204-.55779h-3.31592c-.28626,0-.46517.30989-.32204.55779l1.65796,2.87167c.14313.24791.50096.24791.64409,0Z" fill="#ededed"/>
  </g>
  <g id="uuid-84b71c67-bcc7-42bd-ae21-dc3e031549e4" data-name="FND TXT">
    <g>
      <path d="m38.51448,20.44141c0-.53809.42578-.96338.96484-.96338h.21191c.41309,0,.7002.2124.87598.50049l2.32715,3.79102,2.33984-3.80371c.2002-.3252.47559-.48779.86328-.48779h.21289c.53809,0,.96387.42529.96387.96338v6.95703c0,.53809-.42578.96338-.96387.96338-.52539,0-.95117-.43799-.95117-.96338v-4.36719l-1.68848,2.60254c-.20117.30078-.45117.48828-.80078.48828-.35156,0-.60156-.1875-.80078-.48828l-1.66406-2.56445v4.354c0,.52539-.42578.93848-.95117.93848s-.93945-.41309-.93945-.93848v-6.98193Z" fill="#ebebeb"/>
      <path d="m49.4344,24.5332v-4.1167c0-.53809.42578-.96338.96289-.96338.53906,0,.96387.42529.96387.96338v4.06641c0,1.42627.71387,2.16455,1.88965,2.16455s1.88867-.71289,1.88867-2.10205v-4.12891c0-.53809.42578-.96338.96387-.96338s.96387.42529.96387.96338v4.0542c0,2.65234-1.49023,3.95361-3.8418,3.95361s-3.79102-1.31396-3.79102-3.89111Z" fill="#ebebeb"/>
      <path d="m61.09651,21.30469h-1.85156c-.48828,0-.88867-.40039-.88867-.88818s.40039-.88818.88867-.88818h5.63086c.48828,0,.88867.40039.88867.88818s-.40039.88818-.88867.88818h-1.85156v6.09375c0,.53809-.42578.96338-.96484.96338-.53711,0-.96289-.42529-.96289-.96338v-6.09375Z" fill="#ebebeb"/>
      <path d="m67.1219,27.32324v-6.83203c0-.5376.42578-.96289.96289-.96289h4.85547c.47461,0,.86328.3877.86328.86328s-.38867.85059-.86328.85059h-3.9043v1.77686h3.34082c.47559,0,.86328.3877.86328.86328s-.3877.85107-.86328.85107h-3.34082v1.83887h3.9668c.47461,0,.86328.38818.86328.86328,0,.47559-.38867.85107-.86328.85107h-4.91797c-.53711,0-.96289-.42529-.96289-.96338Z" fill="#ebebeb"/>
      <path d="m75.39827,27.36084c-.21289-.15039-.3623-.42529-.3623-.72607,0-.5.40039-.88818.90039-.88818.25,0,.42578.0874.55078.17529.66211.48779,1.38867.78809,2.23926.78809.78809,0,1.26367-.3125,1.26367-.82568v-.0249c0-.48828-.2998-.73828-1.76465-1.11377-1.76367-.45068-2.90234-.93848-2.90234-2.67725v-.02539c0-1.58887,1.27637-2.64014,3.06543-2.64014,1.06348,0,1.98926.27539,2.77832.77588.21289.125.4248.3877.4248.76318,0,.50049-.40039.88818-.90137.88818-.1875,0-.33789-.0498-.4873-.1377-.6377-.375-1.23926-.58789-1.83887-.58789-.73828,0-1.12695.33789-1.12695.76367v.02441c0,.57617.375.76367,1.88965,1.15137,1.77637.46289,2.77832,1.10107,2.77832,2.62793v.02441c0,1.73926-1.32617,2.71533-3.2168,2.71533-1.15039,0-2.31445-.3501-3.29004-1.05078Z" fill="#ebebeb"/>
    </g>
    <g>
      <path d="m18.32893,45.41797c0-.22998.18359-.41309.41992-.41309.23047,0,.41406.18311.41406.41309v3.98389c0,.23047-.18359.41357-.41406.41357-.23633,0-.41992-.18311-.41992-.41357v-3.98389Z" fill="#ebebeb"/>
      <path d="m20.63948,45.43164c0-.23047.18164-.41992.41992-.41992h.08789c.20312,0,.31836.10156.43359.24414l2.37109,3.06885v-2.91357c0-.22314.18262-.40625.40625-.40625.23047,0,.41309.18311.41309.40625v3.98389c0,.23047-.17578.41357-.40625.41357h-.03418c-.19629,0-.31836-.10156-.43359-.25098l-2.43848-3.15723v3.0083c0,.22363-.18262.40674-.40723.40674-.23047,0-.41211-.18311-.41211-.40674v-3.97705Z" fill="#ebebeb"/>
    </g>
    <g>
      <path d="m90.93342,47.52734v-.01367c0-1.34814,1.06348-2.45215,2.52734-2.45215s2.5127,1.09082,2.5127,2.43848v.01367c0,1.34863-1.0625,2.45264-2.52637,2.45264s-2.51367-1.09082-2.51367-2.43896Zm3.9502,0v-.01367c0-.81299-.5957-1.49023-1.43652-1.49023s-1.42285.66406-1.42285,1.47656v.01367c0,.81299.5957,1.49072,1.43652,1.49072.83984,0,1.42285-.66406,1.42285-1.47705Z" fill="#1f1f1f"/>
      <path d="m97.05256,47.85254v-2.229c0-.2915.23047-.52148.52148-.52148.29199,0,.52246.22998.52246.52148v2.20166c0,.77246.38477,1.17236,1.02246,1.17236.63672,0,1.02246-.38623,1.02246-1.13818v-2.23584c0-.2915.23047-.52148.52148-.52148.29199,0,.52246.22998.52246.52148v2.19482c0,1.43652-.80566,2.14111-2.08008,2.14111s-2.05273-.71143-2.05273-2.10693Z" fill="#1f1f1f"/>
      <path d="m103.53791,46.10449h-1.00293c-.26465,0-.48145-.2168-.48145-.48096s.2168-.48096.48145-.48096h3.04785c.26562,0,.48242.2168.48242.48096s-.2168.48096-.48242.48096h-1.00195v3.2998c0,.29102-.23047.52148-.52148.52148s-.52148-.23047-.52148-.52148v-3.2998Z" fill="#1f1f1f"/>
    </g>
  </g>
</svg>