<?xml version="1.0" encoding="UTF-8" standalone="no"?>
<svg
   xmlns:dc="http://purl.org/dc/elements/1.1/"
   xmlns:cc="http://creativecommons.org/ns#"
   xmlns:rdf="http://www.w3.org/1999/02/22-rdf-syntax-ns#"
   xmlns:svg="http://www.w3.org/2000/svg"
   xmlns="http://www.w3.org/2000/svg"
   xmlns:xlink="http://www.w3.org/1999/xlink"
   xmlns:sodipodi="http://sodipodi.sourceforge.net/DTD/sodipodi-0.dtd"
   xmlns:inkscape="http://www.inkscape.org/namespaces/inkscape"
   width="120"
   height="380"
   viewBox="0 0 120 380"
   version="1.1"
   id="svg144"
   sodipodi:docname="MUTES.svg"
   inkscape:version="0.92.3 (2405546, 2018-03-11)">
  <metadata
     id="metadata148">
    <rdf:RDF>
      <cc:Work
         rdf:about="">
        <dc:format>image/svg+xml</dc:format>
        <dc:type
           rdf:resource="http://purl.org/dc/dcmitype/StillImage" />
      </cc:Work>
    </rdf:RDF>
  </metadata>
  <sodipodi:namedview
     pagecolor="#ffffff"
     bordercolor="#666666"
     borderopacity="1"
     objecttolerance="10"
     gridtolerance="10"
     guidetolerance="10"
     inkscape:pageopacity="0"
     inkscape:pageshadow="2"
     inkscape:window-width="716"
     inkscape:window-height="480"
     id="namedview146"
     showgrid="false"
     inkscape:zoom="0.62105263"
     inkscape:cx="60"
     inkscape:cy="190"
     inkscape:window-x="0"
     inkscape:window-y="0"
     inkscape:window-maximized="0"
     inkscape:current-layer="svg144" />
  <defs
     id="defs10">
    <linearGradient
       id="e28c0c66-bae9-4fd3-bdf2-c0f1bd5119cc"
       x1="59.99885"
       x2="59.99885"
       y2="380"
       gradientUnits="userSpaceOnUse">
      <stop
         offset="0"
         stop-color="#ebebeb"
         id="stop2" />
      <stop
         offset="1"
         stop-color="#e1e1e1"
         id="stop4" />
    </linearGradient>
    <symbol
       id="b9888c9d-7633-4584-9ddc-1188e8d5c1d5"
       data-name="New Symbol 9"
       viewBox="0 0 4.061 3.615">
      <path
         d="M2.35242,3.42947,4.01038.55779A.37186.37186,0,0,0,3.68834,0H.37242a.37186.37186,0,0,0-.322.55779l1.658,2.87168A.37187.37187,0,0,0,2.35242,3.42947Z"
         fill="#1f1f1f"
         id="path7" />
    </symbol>
  </defs>
  <g
     id="f265fc9a-1edb-4724-b61d-29f402eaa6e3"
     data-name="FND BG">
    <rect
       x="-0.00115"
       width="120"
       height="380"
       fill="url(#e28c0c66-bae9-4fd3-bdf2-c0f1bd5119cc)"
       id="rect12" />
  </g>
  <g
     id="e1b8fc52-3b09-4816-89f5-7f75e64feccd"
     data-name="FND GRAPH">
    <g
       id="g23">
      <circle
         cx="60.5005"
         cy="355.83101"
         r="1.18571"
         fill="#1f1f1f"
         id="circle15" />
      <path
         d="M51.85812,359.753a.91214.91214,0,0,1-.8158-.50418L48.078,353.32023a.91209.91209,0,0,1,1.6316-.8158l2.14848,4.297,2.14848-4.297a.9121.9121,0,0,1,1.63161.8158l-2.96428,5.92857A.91214.91214,0,0,1,51.85812,359.753Z"
         fill="#1f1f1f"
         id="path17" />
      <path
         d="M68.13958,359.753a.91213.91213,0,0,1-.8158-.50418l-2.96428-5.92857a.91209.91209,0,0,1,1.6316-.8158l2.14848,4.297,2.14848-4.297a.91209.91209,0,0,1,1.6316.8158l-2.96428,5.92857A.91214.91214,0,0,1,68.13958,359.753Z"
         fill="#1f1f1f"
         id="path19" />
      <path
         d="M60.44127,359.753a3.87637,3.87637,0,1,1,2.32653-6.97719.91209.91209,0,1,1-1.09557,1.45854,2.034,2.034,0,0,0-1.231-.40991,2.0522,2.0522,0,1,0,0,4.10439,2.034,2.034,0,0,0,1.231-.40991.91209.91209,0,1,1,1.09557,1.45854A3.84478,3.84478,0,0,1,60.44127,359.753Z"
         fill="#1f1f1f"
         id="path21" />
    </g>
    <rect
       x="84.14442"
       y="40"
       width="28.55155"
       height="308.02897"
       rx="2.83465"
       fill="#1f1f1f"
       id="rect25" />
    <line
       x1="30.43233"
       y1="64.8652"
       x2="51.71103"
       y2="64.8652"
       fill="none"
       stroke="#1f1f1f"
       stroke-linecap="round"
       stroke-linejoin="round"
       stroke-width="0.8"
       id="line27" />
    <use
       width="4.06076"
       height="3.6154"
       transform="translate(19.49941 317.24035)"
       xlink:href="#b9888c9d-7633-4584-9ddc-1188e8d5c1d5"
       id="use29" />
    <line
       x1="30.43233"
       y1="334"
       x2="51.71103"
       y2="334"
       fill="none"
       stroke="#1f1f1f"
       stroke-linecap="round"
       stroke-linejoin="round"
       stroke-width="0.8"
       id="line31" />
    <line
       x1="67.81103"
       y1="64.8652"
       x2="93.5376"
       y2="64.8652"
       fill="none"
       stroke="#1f1f1f"
       stroke-linecap="round"
       stroke-linejoin="round"
       stroke-width="0.8"
       id="line33" />
    <line
       x1="69.5802"
       y1="334"
       x2="93.5376"
       y2="334"
       fill="none"
       stroke="#1f1f1f"
       stroke-linecap="round"
       stroke-linejoin="round"
       stroke-width="0.8"
       id="line35" />
    <line
       x1="30.43233"
       y1="304.0961"
       x2="51.71103"
       y2="304.0961"
       fill="none"
       stroke="#1f1f1f"
       stroke-linecap="round"
       stroke-linejoin="round"
       stroke-width="0.8"
       id="line37" />
    <line
       x1="69.5802"
       y1="304.0961"
       x2="93.5376"
       y2="304.0961"
       fill="none"
       stroke="#1f1f1f"
       stroke-linecap="round"
       stroke-linejoin="round"
       stroke-width="0.8"
       id="line39" />
    <line
       x1="30.43233"
       y1="274.1922"
       x2="51.71103"
       y2="274.1922"
       fill="none"
       stroke="#1f1f1f"
       stroke-linecap="round"
       stroke-linejoin="round"
       stroke-width="0.8"
       id="line41" />
    <line
       x1="69.5802"
       y1="274.1922"
       x2="93.5376"
       y2="274.1922"
       fill="none"
       stroke="#1f1f1f"
       stroke-linecap="round"
       stroke-linejoin="round"
       stroke-width="0.8"
       id="line43" />
    <line
       x1="30.43233"
       y1="244.28829"
       x2="51.71103"
       y2="244.28829"
       fill="none"
       stroke="#1f1f1f"
       stroke-linecap="round"
       stroke-linejoin="round"
       stroke-width="0.8"
       id="line45" />
    <line
       x1="69.5802"
       y1="244.28829"
       x2="93.5376"
       y2="244.28829"
       fill="none"
       stroke="#1f1f1f"
       stroke-linecap="round"
       stroke-linejoin="round"
       stroke-width="0.8"
       id="line47" />
    <line
       x1="30.43233"
       y1="214.38439"
       x2="51.71103"
       y2="214.38439"
       fill="none"
       stroke="#1f1f1f"
       stroke-linecap="round"
       stroke-linejoin="round"
       stroke-width="0.8"
       id="line49" />
    <line
       x1="69.5802"
       y1="214.38439"
       x2="93.5376"
       y2="214.38439"
       fill="none"
       stroke="#1f1f1f"
       stroke-linecap="round"
       stroke-linejoin="round"
       stroke-width="0.8"
       id="line51" />
    <line
       x1="30.43233"
       y1="184.48049"
       x2="51.71103"
       y2="184.48049"
       fill="none"
       stroke="#1f1f1f"
       stroke-linecap="round"
       stroke-linejoin="round"
       stroke-width="0.8"
       id="line53" />
    <line
       x1="69.5802"
       y1="184.48049"
       x2="93.5376"
       y2="184.48049"
       fill="none"
       stroke="#1f1f1f"
       stroke-linecap="round"
       stroke-linejoin="round"
       stroke-width="0.8"
       id="line55" />
    <line
       x1="30.43233"
       y1="154.57659"
       x2="51.71103"
       y2="154.57659"
       fill="none"
       stroke="#1f1f1f"
       stroke-linecap="round"
       stroke-linejoin="round"
       stroke-width="0.8"
       id="line57" />
    <line
       x1="69.5802"
       y1="154.57659"
       x2="93.5376"
       y2="154.57659"
       fill="none"
       stroke="#1f1f1f"
       stroke-linecap="round"
       stroke-linejoin="round"
       stroke-width="0.8"
       id="line59" />
    <line
       x1="30.43233"
       y1="124.67269"
       x2="51.71103"
       y2="124.67269"
       fill="none"
       stroke="#1f1f1f"
       stroke-linecap="round"
       stroke-linejoin="round"
       stroke-width="0.8"
       id="line61" />
    <line
       x1="69.5802"
       y1="124.67269"
       x2="93.5376"
       y2="124.67269"
       fill="none"
       stroke="#1f1f1f"
       stroke-linecap="round"
       stroke-linejoin="round"
       stroke-width="0.8"
       id="line63" />
    <line
       x1="30.43233"
       y1="94.76878"
       x2="51.71103"
       y2="94.76878"
       fill="none"
       stroke="#1f1f1f"
       stroke-linecap="round"
       stroke-linejoin="round"
       stroke-width="0.8"
       id="line65" />
    <line
       x1="69.5802"
       y1="94.76878"
       x2="93.5376"
       y2="94.76878"
       fill="none"
       stroke="#1f1f1f"
       stroke-linecap="round"
       stroke-linejoin="round"
       stroke-width="0.8"
       id="line67" />
    <use
       width="4.06076"
       height="3.6154"
       transform="translate(19.49941 287.33645)"
       xlink:href="#b9888c9d-7633-4584-9ddc-1188e8d5c1d5"
       id="use69" />
    <use
       width="4.06076"
       height="3.6154"
       transform="translate(19.49941 257.43255)"
       xlink:href="#b9888c9d-7633-4584-9ddc-1188e8d5c1d5"
       id="use71" />
    <use
       width="4.06076"
       height="3.6154"
       transform="translate(19.49941 227.52864)"
       xlink:href="#b9888c9d-7633-4584-9ddc-1188e8d5c1d5"
       id="use73" />
    <use
       width="4.06076"
       height="3.6154"
       transform="translate(19.49941 197.62474)"
       xlink:href="#b9888c9d-7633-4584-9ddc-1188e8d5c1d5"
       id="use75" />
    <use
       width="4.06076"
       height="3.6154"
       transform="translate(19.49941 167.72084)"
       xlink:href="#b9888c9d-7633-4584-9ddc-1188e8d5c1d5"
       id="use77" />
    <use
       width="4.06076"
       height="3.6154"
       transform="translate(19.49941 137.81694)"
       xlink:href="#b9888c9d-7633-4584-9ddc-1188e8d5c1d5"
       id="use79" />
    <use
       width="4.06076"
       height="3.6154"
       transform="translate(19.49941 107.91304)"
       xlink:href="#b9888c9d-7633-4584-9ddc-1188e8d5c1d5"
       id="use81" />
    <use
       width="4.06076"
       height="3.6154"
       transform="translate(19.49941 78.00913)"
       xlink:href="#b9888c9d-7633-4584-9ddc-1188e8d5c1d5"
       id="use83" />
  </g>
  <g
     id="e6e9946f-c390-4962-bb82-3c18697a48a4"
     data-name="FND TXT">
    <g
       id="g96">
      <path
         d="M38.51448,20.44141a.95639.95639,0,0,1,.96484-.96338h.21191a.98951.98951,0,0,1,.876.50049l2.32715,3.791,2.33984-3.80371a.94348.94348,0,0,1,.86328-.48779h.2129a.95618.95618,0,0,1,.96386.96338v6.957a.95754.95754,0,1,1-1.915,0V23.03125l-1.68847,2.60254a.90079.90079,0,0,1-1.60157,0L40.4051,23.06934v4.354a.94033.94033,0,0,1-.95117.93848.93038.93038,0,0,1-.93945-.93848Z"
         fill="#1f1f1f"
         id="path86" />
      <path
         d="M49.4344,24.5332V20.4165a.96338.96338,0,1,1,1.92676,0v4.06641c0,1.42627.71386,2.16455,1.88964,2.16455s1.88868-.71289,1.88868-2.102V20.4165a.96387.96387,0,0,1,1.92773,0v4.0542c0,2.65235-1.49023,3.95362-3.8418,3.95362S49.4344,27.11035,49.4344,24.5332Z"
         fill="#1f1f1f"
         id="path88" />
      <path
         d="M61.09651,21.30469H59.245a.88819.88819,0,1,1,0-1.77637H64.8758a.88819.88819,0,1,1,0,1.77637H63.02424v6.09375a.96387.96387,0,0,1-1.92773,0Z"
         fill="#1f1f1f"
         id="path90" />
      <path
         d="M67.1219,27.32324v-6.832a.95585.95585,0,0,1,.96289-.96289h4.85547a.86544.86544,0,0,1,.86328.86328.85465.85465,0,0,1-.86328.85059H69.036V23.019h3.34082a.86481.86481,0,0,1,.86328.86328.85445.85445,0,0,1-.86328.85108H69.036v1.83887h3.9668a.86575.86575,0,0,1,.86328.86328.85506.85506,0,0,1-.86328.85107h-4.918A.956.956,0,0,1,67.1219,27.32324Z"
         fill="#1f1f1f"
         id="path92" />
      <path
         d="M75.39827,27.36084a.89919.89919,0,0,1-.36231-.72607.88664.88664,0,0,1,.90039-.88819.92557.92557,0,0,1,.55078.1753,3.69169,3.69169,0,0,0,2.23926.78808c.78809,0,1.26367-.3125,1.26367-.82568v-.0249c0-.48829-.2998-.73829-1.76465-1.11377-1.76367-.45069-2.90234-.93848-2.90234-2.67725V22.043c0-1.58887,1.27637-2.64014,3.06543-2.64014a5.0887,5.0887,0,0,1,2.77832.77588.87678.87678,0,0,1,.42481.76318.88657.88657,0,0,1-.90137.88819.91789.91789,0,0,1-.48731-.1377,3.64775,3.64775,0,0,0-1.83886-.58789c-.73829,0-1.127.33789-1.127.76367v.02442c0,.57617.375.76367,1.88965,1.15137,1.77637.46289,2.77832,1.10107,2.77832,2.62793v.02441c0,1.73926-1.32617,2.71533-3.2168,2.71533A5.652,5.652,0,0,1,75.39827,27.36084Z"
         fill="#1f1f1f"
         id="path94" />
    </g>
    <g
       id="g102">
      <path
         d="M18.32893,45.418a.417.417,0,0,1,.834,0v3.98389a.417.417,0,0,1-.834,0Z"
         fill="#1f1f1f"
         id="path98" />
      <path
         d="M20.63948,45.43164a.4168.4168,0,0,1,.41992-.41992h.08789a.52449.52449,0,0,1,.43359.24414l2.3711,3.06885V45.41113a.40968.40968,0,0,1,.81933,0V49.395a.40483.40483,0,0,1-.40625.41357h-.03418a.52421.52421,0,0,1-.43359-.251l-2.43848-3.15723v3.0083a.40968.40968,0,0,1-.81933,0Z"
         fill="#1f1f1f"
         id="path100" />
    </g>
    <g
       id="g110">
      <path
         d="M90.93342,47.52734v-.01367a2.52117,2.52117,0,0,1,5.04-.01367v.01367a2.52116,2.52116,0,0,1-5.04.01367Zm3.9502,0v-.01367a1.44036,1.44036,0,0,0-1.43653-1.49023A1.41794,1.41794,0,0,0,92.02424,47.5v.01367a1.44077,1.44077,0,0,0,1.43653,1.49072A1.41866,1.41866,0,0,0,94.88362,47.52734Z"
         fill="#f0f0f0"
         id="path104" />
      <path
         d="M97.05256,47.85254v-2.229a.522.522,0,0,1,1.04395,0V47.8252c0,.77246.38476,1.17236,1.02246,1.17236.63672,0,1.02246-.38623,1.02246-1.13818V45.62354a.522.522,0,0,1,1.04395,0v2.19482a1.90889,1.90889,0,0,1-2.08008,2.14111A1.88179,1.88179,0,0,1,97.05256,47.85254Z"
         fill="#f0f0f0"
         id="path106" />
      <path
         d="M103.53791,46.10449H102.535a.481.481,0,1,1,0-.96191h3.04786a.481.481,0,1,1,0,.96191h-1.002V49.4043a.52149.52149,0,0,1-1.043,0Z"
         fill="#f0f0f0"
         id="path108" />
    </g>
  </g>
  <g
     id="ae2efd4c-830e-4c85-a202-20cb5f8a2cd0"
     data-name="components"
     inkscape:groupmode="layer"
     style="display:none">
    <circle
       id="eb8c8f32-ed04-4d31-a40b-7c02ed0a5123"
       data-name="Push01#LEDLightBezel"
       cx="59.976109"
       cy="64.865196"
       r="5"
       style="fill:#ff0000" />
    <circle
       id="a39bcb86-085f-4fe0-9700-6ef64ddac5c6"
       data-name="Push10#LEDLightBezel"
       cx="59.976109"
       cy="334"
       r="5"
       style="fill:#ff0000" />
    <circle
       id="a04a9fdd-f9a9-47bc-a8b7-158dccf5518c"
       data-name="Push09#LEDLightBezel"
       cx="59.976109"
       cy="304.0961"
       r="5"
       style="fill:#ff0000" />
    <circle
       id="afef267a-9096-4335-b7eb-a39108878b30"
       data-name="Push08#LEDLightBezel"
       cx="59.976109"
       cy="274.1922"
       r="5"
       style="fill:#ff0000" />
    <circle
       id="b29d924b-c48a-4c73-88f4-32a62ed6599e"
       data-name="Push07#LEDLightBezel"
       cx="59.976109"
       cy="244.28828"
       r="5"
       style="fill:#ff0000" />
    <circle
       id="a5a4912a-e881-4c09-8ea4-a3e661523bf3"
       data-name="Push06#LEDLightBezel"
       cx="59.976109"
       cy="214.38438"
       r="5"
       style="fill:#ff0000" />
    <circle
       id="a9785e33-f73d-4abc-a80f-0cc7d17b6b35"
       data-name="Push05#LEDLightBezel"
       cx="59.976109"
       cy="184.48048"
       r="5"
       style="fill:#ff0000" />
    <circle
       id="e820b847-91ba-4d28-a033-ca7d14b6d0bc"
       data-name="Push04#LEDLightBezel"
       cx="59.976109"
       cy="154.57658"
       r="5"
       style="fill:#ff0000" />
    <circle
       id="e8941567-fdb8-453e-9fec-798288a2f90b"
       data-name="Push03#LEDLightBezel"
       cx="59.976109"
       cy="124.67269"
       r="5"
       style="fill:#ff0000" />
    <circle
       id="ac5e317d-910b-4882-b311-9d2c0f073789"
       data-name="Push02#LEDLightBezel"
       cx="59.976109"
       cy="94.768784"
       r="5"
       style="fill:#ff0000" />
    <circle
       id="fc62b4d1-2986-4ac3-b51f-d184ebdb98f8"
       data-name="Out01#PJ301MPort"
       cx="98.420197"
       cy="64.865196"
       r="5"
       style="fill:#0000ff" />
    <circle
       id="b772facd-bf94-464a-b12e-0f08e4a50e54"
       data-name="Out10#PJ301MPort"
       cx="98.420197"
       cy="334"
       r="5"
       style="fill:#0000ff" />
    <circle
       id="ef72047f-df7e-469d-83e1-e76464aa892c"
       data-name="Out09#PJ301MPort"
       cx="98.420197"
       cy="304.0961"
       r="5"
       style="fill:#0000ff" />
    <circle
       id="b39cb916-e418-4e8f-be40-9cc766150ec5"
       data-name="Out08#PJ301MPort"
       cx="98.420197"
       cy="274.1922"
       r="5"
       style="fill:#0000ff" />
    <circle
       id="a43345bb-48d7-4b0f-9034-652653cf91b4"
       data-name="Out07#PJ301MPort"
       cx="98.420197"
       cy="244.28828"
       r="5"
       style="fill:#0000ff" />
    <circle
       id="b254d8ee-fe0a-4232-a299-39c415f6fd8e"
       data-name="Out06#PJ301MPort"
       cx="98.420197"
       cy="214.38438"
       r="5"
       style="fill:#0000ff" />
    <circle
       id="b72670f6-fced-4789-99e3-d7b4ab5b738e"
       data-name="Out05#PJ301MPort"
       cx="98.420197"
       cy="184.48048"
       r="5"
       style="fill:#0000ff" />
    <circle
       id="a735e6d2-0167-4a13-84fb-3d9948b1ffdc"
       data-name="Out04#PJ301MPort"
       cx="98.420197"
       cy="154.57658"
       r="5"
       style="fill:#0000ff" />
    <circle
       id="a762bfe5-8825-4c21-a878-ee274890a18c"
       data-name="Out03#PJ301MPort"
       cx="98.420197"
       cy="124.67269"
       r="5"
       style="fill:#0000ff" />
    <circle
       id="ebaad848-82a2-4ecf-95e4-97888b21bd1f"
       data-name="Out02#PJ301MPort"
       cx="98.420197"
       cy="94.768784"
       r="5"
       style="fill:#0000ff" />
    <circle
       id="a153b2a8-e35f-4411-9b11-c6a9cbd09808"
       data-name="In1#PJ301MPort"
       cx="21.529791"
       cy="64.865196"
       r="5"
       style="fill:#00ff00" />
    <circle
       id="ab5fbf34-dd8c-460d-b732-a4590e193f9f"
       data-name="In10#PJ301MPort"
       cx="21.529791"
       cy="334"
       r="5"
       style="fill:#00ff00" />
    <circle
       id="f8d18750-355c-4c90-9659-1fa0692236f3"
       data-name="In09#PJ301MPort"
       cx="21.529791"
       cy="304.0961"
       r="5"
       style="fill:#00ff00" />
    <circle
       id="bd6ba8eb-e99b-4ef0-bbd2-11ae9306eec9"
       data-name="In08#PJ301MPort"
       cx="21.529791"
       cy="274.1922"
       r="5"
       style="fill:#00ff00" />
    <circle
       id="f92c220e-142a-4a18-b5b7-9c2d6e8a299f"
       data-name="In07#PJ301MPort"
       cx="21.529791"
       cy="244.28828"
       r="5"
       style="fill:#00ff00" />
    <circle
       id="abee2f2d-5e77-43cd-bd82-495f1d90e332"
       data-name="In06#PJ301MPort"
       cx="21.529791"
       cy="214.38438"
       r="5"
       style="fill:#00ff00" />
    <circle
       id="e72a1a4b-acd3-49e0-9598-976c08413fa7"
       data-name="In05#PJ301MPort"
       cx="21.529791"
       cy="184.48048"
       r="5"
       style="fill:#00ff00" />
    <circle
       id="aece681d-e0d4-4b7f-a70f-dc8b1f51561d"
       data-name="In04#PJ301MPort"
       cx="21.529791"
       cy="154.57658"
       r="5"
       style="fill:#00ff00" />
    <circle
       id="ba9378d5-910a-48eb-9af4-6f9a492f818a"
       data-name="In03#PJ301MPort"
       cx="21.529791"
       cy="124.67269"
       r="5"
       style="fill:#00ff00" />
    <circle
       id="b4fb46b0-8c17-4f29-97fa-49abdcfc1aaf"
       data-name="In02#PJ301MPort"
       cx="21.529791"
       cy="94.768784"
       r="5"
       style="fill:#00ff00" />
  </g>
</svg>
