<?xml version="1.0" encoding="UTF-8"?>
<svg xmlns="http://www.w3.org/2000/svg" width="45" height="380" xmlns:xlink="http://www.w3.org/1999/xlink" viewBox="0 0 45 380">
  <defs>
    <linearGradient id="uuid-832804fd-2c2c-431f-9feb-c43b542c060e" x1="22.5" y1="-.00001" x2="22.5" y2="379.99999" gradientUnits="userSpaceOnUse">
      <stop offset="0" stop-color="#2a2a2b"/>
      <stop offset="1" stop-color="#171717"/>
    </linearGradient>
  </defs>
  <g id="uuid-18c0cfc5-31f7-4356-87dc-d7560888b4e0" data-name="FND BG">
    <rect y="-.00001" width="45" height="380" fill="url(#uuid-832804fd-2c2c-431f-9feb-c43b542c060e)"/>
  </g>
  <g id="uuid-4a4a0666-1988-4a48-8742-d717e58d9212" data-name="FND GRAPH">
    <g>
      <circle cx="23.00165" cy="355.831" r="1.18571" fill="#ededed"/>
      <path d="m14.35927,359.75297c-.34551,0-.66126-.1952-.8158-.50419l-2.96428-5.92856c-.22526-.45057-.04266-.99844.40794-1.2237.45008-.22535.99831-.04271,1.22366.4079l2.14848,4.29696,2.14848-4.29696c.22526-.45057.77314-.63325,1.22366-.4079.45061.22526.63321.77314.40794,1.2237l-2.96428,5.92856c-.15454.30899-.47029.50419-.8158.50419Z" fill="#ededed"/>
      <path d="m30.64073,359.75297c-.34551,0-.66126-.1952-.8158-.50419l-2.96428-5.92856c-.22526-.45057-.04266-.99844.40794-1.2237.45016-.22535.9984-.04271,1.22366.4079l2.14848,4.29696,2.14848-4.29696c.22526-.45057.77305-.63325,1.22366-.4079.45061.22526.63321.77314.40794,1.2237l-2.96428,5.92856c-.15454.30899-.47029.50419-.8158.50419Z" fill="#ededed"/>
      <path d="m22.94242,359.75297c-2.13744,0-3.87637-1.73893-3.87637-3.87637s1.73893-3.87637,3.87637-3.87637c.84653,0,1.65102.26819,2.32653.77554.40278.30253.48401.87428.18153,1.27705-.30248.40273-.87432.48401-1.2771.18148-.357-.26815-.78267-.4099-1.23096-.4099-1.13156,0-2.05219.92059-2.05219,2.05219s.92064,2.05219,2.05219,2.05219c.44829,0,.87396-.14176,1.23096-.4099.40269-.30271.97444-.22125,1.2771.18148.30248.40278.22125.97453-.18153,1.27705-.67551.50735-1.48.77554-2.32653.77554Z" fill="#ededed"/>
    </g>
    <rect x="8.18419" y="39.99999" width="28.6316" height="39.15691" rx="2.83465" ry="2.83465" fill="#ededed"/>
    <rect x="8.18419" y="84.89658" width="28.6316" height="39.15691" rx="2.83465" ry="2.83465" fill="#ededed"/>
    <rect x="8.18419" y="129.80161" width="28.6316" height="39.15691" rx="2.83465" ry="2.83465" fill="#ededed"/>
    <rect x="8.18419" y="174.74297" width="28.6316" height="39.15691" rx="2.83465" ry="2.83465" fill="#ededed"/>
    <rect x="8.18419" y="219.63047" width="28.6316" height="39.15691" rx="2.83465" ry="2.83465" fill="#ededed"/>
    <rect x="8.18419" y="264.48516" width="28.6316" height="39.15691" rx="2.83465" ry="2.83465" fill="#ededed"/>
    <rect x="8.18419" y="309.05632" width="28.6316" height="39.15691" rx="2.83465" ry="2.83465" fill="#ededed"/>
  </g>
  <g id="uuid-6205db4e-cdd5-49bd-8a8c-d969a00a1bb3" data-name="FND TXT">
    <g>
      <path d="m7.06348,20.44139c0-.53809.4248-.96338.96387-.96338h.19922c.46289,0,.73828.2251,1.00195.56299l3.71484,4.87988v-4.51709c0-.52539.42578-.95068.95117-.95068s.95117.42529.95117.95068v6.96924c0,.53809-.42578.96387-.96289.96387h-.0625c-.46289,0-.73828-.22559-1.00195-.56348l-3.85352-5.05469v4.69189c0,.52588-.42578.95117-.95117.95117s-.9502-.42529-.9502-.95117v-6.96924Z" fill="#ebebeb"/>
      <path d="m16.64844,23.9326v-.02539c0-2.48975,1.96484-4.5293,4.66797-4.5293,2.70215,0,4.6416,2.01465,4.6416,4.50439v.0249c0,2.49023-1.96387,4.5293-4.66699,4.5293s-4.64258-2.01416-4.64258-4.50391Zm7.29492,0v-.02539c0-1.50146-1.10059-2.75244-2.65234-2.75244s-2.62695,1.22607-2.62695,2.72754v.0249c0,1.50146,1.10059,2.75293,2.65234,2.75293,1.55078,0,2.62695-1.22656,2.62695-2.72754Z" fill="#ebebeb"/>
      <path d="m27.81152,20.41649c0-.53809.4248-.96338.96387-.96338.53711,0,.96289.42529.96289.96338v6.98193c0,.53809-.42578.96338-.96289.96338-.53906,0-.96387-.42529-.96387-.96338v-6.98193Z" fill="#ebebeb"/>
      <path d="m31.85156,27.36083c-.21289-.15039-.36328-.42529-.36328-.72607,0-.5.40039-.88818.90137-.88818.25,0,.4248.0874.5498.17529.66406.48779,1.38965.78809,2.24023.78809.78809,0,1.26367-.3125,1.26367-.82568v-.0249c0-.48828-.30078-.73828-1.76367-1.11377-1.76465-.45068-2.90332-.93848-2.90332-2.67725v-.02539c0-1.58887,1.27637-2.64014,3.06543-2.64014,1.06348,0,1.98926.27539,2.77734.77588.21289.125.42578.3877.42578.76318,0,.50049-.40039.88818-.90039.88818-.1875,0-.33789-.0498-.48828-.1377-.63867-.375-1.23828-.58789-1.83984-.58789-.73828,0-1.125.33789-1.125.76367v.02441c0,.57617.375.76367,1.88867,1.15137,1.77734.46289,2.77734,1.10107,2.77734,2.62793v.02441c0,1.73926-1.32617,2.71533-3.21484,2.71533-1.15137,0-2.31543-.3501-3.29102-1.05078Z" fill="#ebebeb"/>
    </g>
    <g>
      <path d="m12.88281,45.80077c-.02051-.06104-.04102-.13574-.04102-.19629,0-.2915.24414-.5083.53516-.5083.24414,0,.44043.15576.50879.37256l.94141,2.90625.94824-2.87891c.08105-.24414.26465-.41357.52832-.41357h.08105c.26465,0,.44727.1626.5293.41357l.94824,2.87891.94141-2.90625c.06836-.20312.24414-.37256.50195-.37256.28418,0,.51465.2168.51465.50146,0,.06055-.02051.14209-.04102.20312l-1.32812,3.72607c-.09473.26416-.29102.42676-.54199.42676h-.1084c-.25,0-.44043-.15576-.53516-.42676l-.93457-2.7168-.93457,2.7168c-.0957.271-.28516.42676-.53516.42676h-.1084c-.25098,0-.44727-.1626-.54199-.42676l-1.32812-3.72607Z" fill="#1f1f1f"/>
      <path d="m20.78125,45.61766c0-.2915.22949-.52148.52148-.52148.29102,0,.52148.22998.52148.52148v1.396h1.92383v-1.396c0-.2915.23047-.52148.52148-.52148.29199,0,.52246.22998.52246.52148v3.78076c0,.29102-.23047.52148-.52246.52148-.29102,0-.52148-.23047-.52148-.52148v-1.42285h-1.92383v1.42285c0,.29102-.23047.52148-.52148.52148-.29199,0-.52148-.23047-.52148-.52148v-3.78076Z" fill="#1f1f1f"/>
      <path d="m26.20898,45.61766c0-.2915.23047-.52148.52148-.52148.29199,0,.52148.22998.52148.52148v3.78076c0,.29102-.22949.52148-.52148.52148-.29102,0-.52148-.23047-.52148-.52148v-3.78076Z" fill="#1f1f1f"/>
      <path d="m29.65918,46.09862h-1.00293c-.26367,0-.48047-.2168-.48047-.48096s.2168-.48096.48047-.48096h3.04883c.26465,0,.48145.2168.48145.48096s-.2168.48096-.48145.48096h-1.00293v3.2998c0,.29102-.23047.52148-.52148.52148s-.52148-.23047-.52148-.52148v-3.2998Z" fill="#1f1f1f"/>
    </g>
    <g>
      <path d="m14.24121,90.55467c0-.29102.23047-.52148.52148-.52148h1.41602c1.13184,0,1.81543.6709,1.81543,1.63965v.01367c0,1.09717-.85352,1.6665-1.91699,1.6665h-.79297v.94189c0,.29102-.22949.52148-.52148.52148-.29102,0-.52148-.23047-.52148-.52148v-3.74023Zm1.87012,1.87012c.52148,0,.82617-.31152.82617-.71826v-.01318c0-.46777-.3252-.71875-.84668-.71875h-.80664v1.4502h.82715Z" fill="#1f1f1f"/>
      <path d="m19.00488,90.51415c0-.2915.23047-.52148.52148-.52148.29199,0,.52148.22998.52148.52148v3.78076c0,.29102-.22949.52148-.52148.52148-.29102,0-.52148-.23047-.52148-.52148v-3.78076Z" fill="#1f1f1f"/>
      <path d="m21.4541,90.52782c0-.2915.23047-.52197.52148-.52197h.1084c.25098,0,.40039.12207.54199.30518l2.0127,2.64209v-2.4458c0-.28467.23047-.51465.51465-.51465s.51465.22998.51465.51465v3.77393c0,.29102-.23047.52148-.52148.52148h-.03418c-.25,0-.39941-.12207-.54199-.30469l-2.08594-2.7373v2.54053c0,.28467-.23047.51514-.51562.51514-.28418,0-.51465-.23047-.51465-.51514v-3.77344Z" fill="#1f1f1f"/>
      <path d="m27.06055,90.51415c0-.2915.23047-.52148.52148-.52148.29199,0,.52148.22998.52148.52148v1.59229l1.9248-1.91064c.12793-.12842.25684-.20312.44043-.20312.29102,0,.48047.22314.48047.48096,0,.1626-.07422.28418-.18945.39258l-1.33496,1.24707,1.45703,1.8291c.08105.10156.1416.20996.1416.36572,0,.2915-.22266.5083-.52832.5083-.20312,0-.3252-.10156-.44043-.25098l-1.35449-1.7749-.59668.55566v.94873c0,.29102-.22949.52148-.52148.52148-.29102,0-.52148-.23047-.52148-.52148v-3.78076Z" fill="#1f1f1f"/>
    </g>
    <g>
      <path d="m15.45117,135.45995c0-.29102.22949-.52148.52148-.52148h1.64648c.60254,0,1.07031.16943,1.38184.48096.26367.26416.40625.63721.40625,1.08398v.01367c0,.74512-.37305,1.20557-.94824,1.44287l.72461.88086c.10156.12891.16992.2373.16992.39941,0,.2915-.24414.48145-.49512.48145-.2373,0-.39258-.11523-.51465-.271l-1.0166-1.2876h-.83301v1.03711c0,.29102-.23047.52148-.52148.52148-.29199,0-.52148-.23047-.52148-.52148v-3.74023Zm2.09961,1.78223c.50781,0,.7998-.27148.7998-.6709v-.01367c0-.44727-.31152-.67773-.82031-.67773h-1.03613v1.3623h1.05664Z" fill="#1f1f1f"/>
      <path d="m20.60449,139.15917v-3.69922c0-.29102.23047-.52148.52148-.52148h2.62891c.25781,0,.46777.20996.46777.46777,0,.25684-.20996.46045-.46777.46045h-2.11426v.96191h1.80957c.25684,0,.4668.20996.4668.46729,0,.25781-.20996.46094-.4668.46094h-1.80957v.99609h2.14844c.25684,0,.4668.20996.4668.46729s-.20996.46045-.4668.46045h-2.66309c-.29102,0-.52148-.22998-.52148-.52148Z" fill="#1f1f1f"/>
      <path d="m25.37695,135.45995c0-.29102.23047-.52148.52148-.52148h1.32812c1.49023,0,2.52051,1.02295,2.52051,2.35742v.01367c0,1.33496-1.03027,2.37109-2.52051,2.37109h-1.32812c-.29102,0-.52148-.22998-.52148-.52148v-3.69922Zm1.84961,3.2793c.85352,0,1.42969-.57617,1.42969-1.41602v-.01367c0-.83984-.57617-1.42969-1.42969-1.42969h-.80664v2.85938h.80664Z" fill="#1f1f1f"/>
    </g>
    <g>
      <path d="m15.50098,184.28368l-1.53711-3.6792c-.03418-.08105-.06152-.16211-.06152-.25049,0-.2915.23047-.51465.52148-.51465.27148,0,.44727.15576.52832.36572l1.18555,3.06934,1.19922-3.10352c.06836-.16895.25098-.33154.50195-.33154.28418,0,.51465.2168.51465.50146,0,.08105-.02734.16895-.05371.22998l-1.55176,3.71289c-.1084.25732-.30469.41309-.58984.41309h-.06738c-.28418,0-.48145-.15576-.58984-.41309Z" fill="#1f1f1f"/>
      <path d="m19.30957,180.36083c0-.2915.23047-.52148.52148-.52148.29199,0,.52148.22998.52148.52148v3.78076c0,.29102-.22949.52148-.52148.52148-.29102,0-.52148-.23047-.52148-.52148v-3.78076Z" fill="#1f1f1f"/>
      <path d="m21.50977,182.26463v-.01367c0-1.34814,1.06445-2.45215,2.52734-2.45215,1.46387,0,2.51367,1.09082,2.51367,2.43848v.01367c0,1.34863-1.06348,2.45264-2.52734,2.45264-1.46289,0-2.51367-1.09082-2.51367-2.43896Zm3.9502,0v-.01367c0-.81299-.5957-1.49023-1.43652-1.49023-.83984,0-1.42285.66406-1.42285,1.47656v.01367c0,.81299.59668,1.49072,1.43652,1.49072s1.42285-.66406,1.42285-1.47705Z" fill="#1f1f1f"/>
      <path d="m27.69824,180.36083c0-.2915.22949-.52148.52148-.52148.29102,0,.52148.22998.52148.52148v3.31299h1.93066c.26465,0,.47461.20996.47461.47412s-.20996.47412-.47461.47412h-2.45215c-.29199,0-.52148-.22998-.52148-.52148v-3.73975Z" fill="#1f1f1f"/>
    </g>
    <g>
      <path d="m13.4082,225.28905c0-.29102.23047-.52148.52148-.52148h1.68066c.54199,0,.96875.14893,1.23926.41992.2168.2168.3252.48145.3252.80664v.01318c0,.53516-.28418.8335-.62305,1.02295.54883.20996.8877.52832.8877,1.16553v.01318c0,.86719-.70508,1.30078-1.77539,1.30078h-1.73438c-.29102,0-.52148-.22998-.52148-.52148v-3.69922Zm1.97852,1.39551c.46094,0,.75195-.14844.75195-.50098v-.01367c0-.31152-.24414-.48779-.68457-.48779h-1.0293v1.00244h.96191Zm.27734,1.91113c.46094,0,.73828-.16309.73828-.51514v-.01367c0-.31836-.23633-.51514-.77148-.51514h-1.20605v1.04395h1.23926Z" fill="#1f1f1f"/>
      <path d="m18.55762,225.24852c0-.2915.23047-.52148.52148-.52148.29199,0,.52148.22998.52148.52148v3.31299h1.93164c.26367,0,.47363.20996.47363.47412s-.20996.47412-.47363.47412h-2.45312c-.29102,0-.52148-.22998-.52148-.52148v-3.73975Z" fill="#1f1f1f"/>
      <path d="m22.71777,227.47752v-2.229c0-.2915.23047-.52148.52148-.52148.29199,0,.52246.22998.52246.52148v2.20166c0,.77246.38574,1.17236,1.02246,1.17236s1.02344-.38623,1.02344-1.13818v-2.23584c0-.2915.23047-.52148.52148-.52148s.52148.22998.52148.52148v2.19482c0,1.43652-.80566,2.14111-2.08008,2.14111-1.27344,0-2.05273-.71143-2.05273-2.10693Z" fill="#1f1f1f"/>
      <path d="m28.17871,228.98827v-3.69922c0-.29102.23047-.52148.52148-.52148h2.62891c.25781,0,.46777.20996.46777.46777,0,.25684-.20996.46045-.46777.46045h-2.11426v.96191h1.80957c.25684,0,.4668.20996.4668.46729,0,.25781-.20996.46094-.4668.46094h-1.80957v.99609h2.14844c.25684,0,.4668.20996.4668.46729s-.20996.46045-.4668.46045h-2.66309c-.29102,0-.52148-.22998-.52148-.52148Z" fill="#1f1f1f"/>
    </g>
    <g>
      <path d="m12.72266,272.00682v-.01367c0-1.34814,1.05078-2.45215,2.4873-2.45215.71777,0,1.19238.16211,1.61914.46045.10156.07471.2168.2168.2168.41992,0,.28467-.23047.51514-.51562.51514-.14844,0-.24316-.0542-.31836-.1084-.28418-.20312-.58887-.3252-1.03613-.3252-.75879,0-1.3623.6709-1.3623,1.47656v.01367c0,.86719.59668,1.50391,1.43652,1.50391.37988,0,.71875-.09473.98242-.28418v-.67773h-.7041c-.25098,0-.4541-.19629-.4541-.44727,0-.25049.20312-.45361.4541-.45361h1.19238c.29102,0,.52148.22998.52148.52148v1.15186c0,.30469-.11523.51465-.36621.66406-.38574.2373-.94824.47412-1.66016.47412-1.47656,0-2.49316-1.03662-2.49316-2.43896Z" fill="#1f1f1f"/>
      <path d="m18.49609,270.14354c0-.29102.22949-.52148.52148-.52148h1.64648c.60254,0,1.07031.16943,1.38184.48096.26367.26416.40625.63721.40625,1.08398v.01367c0,.74512-.37305,1.20557-.94824,1.44287l.72461.88086c.10156.12891.16992.2373.16992.39941,0,.2915-.24414.48145-.49512.48145-.2373,0-.39258-.11523-.51465-.271l-1.0166-1.2876h-.83301v1.03711c0,.29102-.23047.52148-.52148.52148-.29199,0-.52148-.23047-.52148-.52148v-3.74023Zm2.09961,1.78223c.50781,0,.7998-.27148.7998-.6709v-.01367c0-.44727-.31152-.67773-.82031-.67773h-1.03613v1.3623h1.05664Z" fill="#1f1f1f"/>
      <path d="m23.31934,273.69383l1.65332-3.73291c.11523-.25781.3252-.41309.60938-.41309h.06152c.28418,0,.4873.15527.60254.41309l1.65332,3.73291c.0332.07471.05371.14209.05371.20996,0,.27783-.2168.50146-.49414.50146-.24414,0-.40625-.14258-.50195-.35938l-.31836-.74512h-2.08594l-.33203.7793c-.08887.20312-.26465.3252-.48145.3252-.27051,0-.48047-.2168-.48047-.48779,0-.07471.02637-.14893.06055-.22363Zm2.93359-1.31445l-.65723-1.56494-.65723,1.56494h1.31445Z" fill="#1f1f1f"/>
      <path d="m29.77148,272.53514l-1.53125-2.08008c-.07422-.10156-.12891-.22314-.12891-.37207,0-.27832.23047-.50146.52246-.50146.23633,0,.38574.12842.51465.31836l1.15137,1.65967,1.17188-1.67334c.12891-.18994.28516-.31152.50195-.31152.31836,0,.50781.22363.50781.5083,0,.14209-.06738.27051-.13574.36572l-1.53125,2.06592v1.36914c0,.29102-.22949.52148-.52148.52148-.29102,0-.52148-.23047-.52148-.52148v-1.34863Z" fill="#1f1f1f"/>
    </g>
    <g>
      <path d="m13.37891,314.68846c0-.2915.23047-.52197.52148-.52197h1.67969c.54297,0,.96875.14893,1.24023.41992.2168.2168.3252.48096.3252.80615v.01367c0,.53516-.28418.8335-.62305,1.02295.54785.21045.8877.52881.8877,1.16553v.01367c0,.86719-.70508,1.30078-1.77539,1.30078h-1.73438c-.29102,0-.52148-.23047-.52148-.52197v-3.69873Zm1.97852,1.39551c.45996,0,.75195-.14941.75195-.50146v-.01367c0-.31152-.24414-.48779-.68457-.48779h-1.03027v1.00293h.96289Zm.27734,1.91016c.46094,0,.73828-.16211.73828-.51465v-.01367c0-.31836-.23633-.51465-.77246-.51465h-1.20605v1.04297h1.24023Z" fill="#1f1f1f"/>
      <path d="m18.52832,314.64745c0-.29102.22949-.52148.52148-.52148.29102,0,.52148.23047.52148.52148v3.31299h1.93066c.26465,0,.47461.20996.47461.47412,0,.26465-.20996.47461-.47461.47461h-2.45215c-.29199,0-.52148-.23047-.52148-.52197v-3.73975Z" fill="#1f1f1f"/>
      <path d="m22.50586,316.55126v-.01367c0-1.34814,1.0166-2.45264,2.47266-2.45264.71191,0,1.19336.18994,1.58594.48145.1084.08105.20312.23047.20312.41309,0,.28467-.23047.50781-.51562.50781-.1416,0-.23633-.05371-.31055-.10156-.29199-.2168-.59668-.33838-.96875-.33838-.7998,0-1.37598.66357-1.37598,1.47705v.01318c0,.81299.5625,1.49072,1.37598,1.49072.43945,0,.73047-.13574,1.0293-.37305.08105-.06738.18945-.11475.31152-.11475.26465,0,.4873.2168.4873.48096,0,.1626-.08008.29102-.17578.37256-.42676.37256-.92773.59619-1.68652.59619-1.39551,0-2.43262-1.07715-2.43262-2.43896Z" fill="#1f1f1f"/>
      <path d="m27.92383,314.64745c0-.29102.23047-.52148.52148-.52148.29199,0,.52148.23047.52148.52148v1.59229l1.9248-1.91064c.12793-.12891.25684-.20312.44043-.20312.29102,0,.48047.22363.48047.48096,0,.1626-.07422.28467-.18945.39307l-1.33398,1.24609,1.45605,1.82959c.08105.10156.1416.20996.1416.36572,0,.2915-.22266.5083-.52734.5083-.20312,0-.32617-.10205-.44141-.25049l-1.35449-1.77539-.59668.55566v.94824c0,.2915-.22949.52197-.52148.52197-.29102,0-.52148-.23047-.52148-.52197v-3.78027Z" fill="#1f1f1f"/>
    </g>
  </g>
</svg>