<?xml version="1.0" encoding="UTF-8" standalone="no"?>
<svg
   xmlns:dc="http://purl.org/dc/elements/1.1/"
   xmlns:cc="http://creativecommons.org/ns#"
   xmlns:rdf="http://www.w3.org/1999/02/22-rdf-syntax-ns#"
   xmlns:svg="http://www.w3.org/2000/svg"
   xmlns="http://www.w3.org/2000/svg"
   xmlns:sodipodi="http://sodipodi.sourceforge.net/DTD/sodipodi-0.dtd"
   xmlns:inkscape="http://www.inkscape.org/namespaces/inkscape"
   width="45"
   height="380"
   viewBox="0 0 45 380"
   version="1.1"
   id="svg124"
   sodipodi:docname="NOIS.svg"
   inkscape:version="0.92.3 (2405546, 2018-03-11)">
  <metadata
     id="metadata128">
    <rdf:RDF>
      <cc:Work
         rdf:about="">
        <dc:format>image/svg+xml</dc:format>
        <dc:type
           rdf:resource="http://purl.org/dc/dcmitype/StillImage" />
      </cc:Work>
    </rdf:RDF>
  </metadata>
  <sodipodi:namedview
     pagecolor="#ffffff"
     bordercolor="#666666"
     borderopacity="1"
     objecttolerance="10"
     gridtolerance="10"
     guidetolerance="10"
     inkscape:pageopacity="0"
     inkscape:pageshadow="2"
     inkscape:window-width="716"
     inkscape:window-height="480"
     id="namedview126"
     showgrid="false"
     inkscape:zoom="0.62105263"
     inkscape:cx="22.5"
     inkscape:cy="190"
     inkscape:window-x="0"
     inkscape:window-y="0"
     inkscape:window-maximized="0"
     inkscape:current-layer="svg124" />
  <defs
     id="defs7">
    <linearGradient
       id="b7436e22-7890-4e73-9433-245aa52d8df3"
       x1="22.5"
       y1="-0.00001"
       x2="22.5"
       y2="379.99999"
       gradientUnits="userSpaceOnUse">
      <stop
         offset="0"
         stop-color="#ebebeb"
         id="stop2" />
      <stop
         offset="1"
         stop-color="#e1e1e1"
         id="stop4" />
    </linearGradient>
  </defs>
  <g
     id="a1349c98-ad5f-4933-9556-19be04013a9f"
     data-name="FND BG">
    <rect
       y="-0.00001"
       width="45"
       height="380"
       fill="url(#b7436e22-7890-4e73-9433-245aa52d8df3)"
       id="rect9" />
  </g>
  <g
     id="b3b5709b-be89-46c5-a197-d90d261ceb81"
     data-name="FND GRAPH">
    <g
       id="g20">
      <circle
         cx="23.00165"
         cy="355.831"
         r="1.18571"
         fill="#1f1f1f"
         id="circle12" />
      <path
         d="M14.35927,359.753a.91213.91213,0,0,1-.8158-.50419l-2.96428-5.92856a.91209.91209,0,0,1,1.6316-.8158l2.14848,4.297,2.14848-4.297a.91209.91209,0,0,1,1.6316.8158l-2.96428,5.92856A.91211.91211,0,0,1,14.35927,359.753Z"
         fill="#1f1f1f"
         id="path14" />
      <path
         d="M30.64073,359.753a.91211.91211,0,0,1-.8158-.50419l-2.96428-5.92856a.91209.91209,0,0,1,1.6316-.8158l2.14848,4.297,2.14848-4.297a.91209.91209,0,0,1,1.6316.8158l-2.96428,5.92856A.91213.91213,0,0,1,30.64073,359.753Z"
         fill="#1f1f1f"
         id="path16" />
      <path
         d="M22.94242,359.753a3.87637,3.87637,0,1,1,2.32653-6.9772.91209.91209,0,1,1-1.09557,1.45854,2.034,2.034,0,0,0-1.231-.4099,2.05219,2.05219,0,1,0,0,4.10438,2.034,2.034,0,0,0,1.231-.4099.91209.91209,0,1,1,1.09557,1.45854A3.8448,3.8448,0,0,1,22.94242,359.753Z"
         fill="#1f1f1f"
         id="path18" />
    </g>
    <rect
       x="8.18419"
       y="39.99999"
       width="28.6316"
       height="39.15691"
       rx="2.83465"
       fill="#1f1f1f"
       id="rect22" />
    <rect
       x="8.18419"
       y="84.89658"
       width="28.6316"
       height="39.15691"
       rx="2.83465"
       fill="#1f1f1f"
       id="rect24" />
    <rect
       x="8.18419"
       y="129.80161"
       width="28.6316"
       height="39.15691"
       rx="2.83465"
       fill="#1f1f1f"
       id="rect26" />
    <rect
       x="8.18419"
       y="174.74297"
       width="28.6316"
       height="39.15691"
       rx="2.83465"
       fill="#1f1f1f"
       id="rect28" />
    <rect
       x="8.18419"
       y="219.63047"
       width="28.6316"
       height="39.15691"
       rx="2.83465"
       fill="#1f1f1f"
       id="rect30" />
    <rect
       x="8.18419"
       y="264.48516"
       width="28.6316"
       height="39.15691"
       rx="2.83465"
       fill="#1f1f1f"
       id="rect32" />
    <rect
       x="8.18419"
       y="309.05632"
       width="28.6316"
       height="39.15691"
       rx="2.83465"
       fill="#1f1f1f"
       id="rect34" />
  </g>
  <g
     id="bae7fc3e-ce96-4b06-8e9d-c220317df750"
     data-name="FND TXT">
    <g
       id="g45">
      <path
         d="M7.06348,20.44139a.95557.95557,0,0,1,.96386-.96338h.19922a1.19625,1.19625,0,0,1,1.002.563l3.71484,4.87988V20.40379a.95117.95117,0,0,1,1.90234,0V27.373a.95638.95638,0,0,1-.96289.96387h-.0625a1.19668,1.19668,0,0,1-1.00195-.56348L8.96484,22.71874v4.69189a.95068.95068,0,1,1-1.90136,0Z"
         fill="#1f1f1f"
         id="path37" />
      <path
         d="M16.64844,23.9326v-.02539a4.52964,4.52964,0,0,1,4.668-4.52929,4.48749,4.48749,0,0,1,4.6416,4.50439v.0249a4.52851,4.52851,0,0,1-4.667,4.5293A4.48735,4.48735,0,0,1,16.64844,23.9326Zm7.29492,0v-.02539A2.66041,2.66041,0,0,0,21.291,21.15477a2.61865,2.61865,0,0,0-2.627,2.72754v.0249a2.66083,2.66083,0,0,0,2.65235,2.75293A2.61952,2.61952,0,0,0,23.94336,23.9326Z"
         fill="#1f1f1f"
         id="path39" />
      <path
         d="M27.81152,20.41649a.96338.96338,0,1,1,1.92676,0v6.98193a.96338.96338,0,1,1-1.92676,0Z"
         fill="#1f1f1f"
         id="path41" />
      <path
         d="M31.85156,27.36083a.9.9,0,0,1-.36328-.72608.88686.88686,0,0,1,.90137-.88818.92236.92236,0,0,1,.5498.17529,3.69889,3.69889,0,0,0,2.24024.78809c.78808,0,1.26367-.3125,1.26367-.82569v-.0249c0-.48828-.30078-.73828-1.76367-1.11377-1.76465-.45068-2.90332-.93848-2.90332-2.67725V22.043c0-1.58886,1.27636-2.64013,3.06543-2.64013a5.083,5.083,0,0,1,2.77734.77588.87742.87742,0,0,1,.42578.76318.88633.88633,0,0,1-.90039.88818.92377.92377,0,0,1-.48828-.13769,3.64814,3.64814,0,0,0-1.83984-.58789c-.73829,0-1.125.33789-1.125.76367v.02441c0,.57618.375.76368,1.88867,1.15137,1.77734.46289,2.77734,1.10108,2.77734,2.62793v.02441c0,1.73926-1.32617,2.71534-3.21484,2.71534A5.65284,5.65284,0,0,1,31.85156,27.36083Z"
         fill="#1f1f1f"
         id="path43" />
    </g>
    <g
       id="g55">
      <path
         d="M12.88281,45.80077a.6746.6746,0,0,1-.041-.19629.51815.51815,0,0,1,.53515-.5083.52767.52767,0,0,1,.50879.37256l.94141,2.90625.94824-2.87891a.54942.54942,0,0,1,.52832-.41357h.08106a.54294.54294,0,0,1,.52929.41357L17.8623,48.375l.94141-2.90625a.52312.52312,0,0,1,.502-.37256.50332.50332,0,0,1,.51465.50146.71937.71937,0,0,1-.041.20313l-1.32813,3.72607a.57765.57765,0,0,1-.542.42676h-.1084a.56272.56272,0,0,1-.53516-.42676L16.33105,46.81l-.93457,2.7168a.56355.56355,0,0,1-.53515.42676h-.1084a.57765.57765,0,0,1-.542-.42676Z"
         fill="#f0f0f0"
         id="path47" />
      <path
         d="M20.78125,45.61766a.52149.52149,0,0,1,1.043,0v1.396h1.92383v-1.396a.522.522,0,0,1,1.04394,0v3.78076a.522.522,0,0,1-1.04394,0V47.97557H21.82422v1.42285a.52149.52149,0,1,1-1.043,0Z"
         fill="#f0f0f0"
         id="path49" />
      <path
         d="M26.209,45.61766a.52149.52149,0,0,1,1.043,0v3.78076a.52149.52149,0,1,1-1.043,0Z"
         fill="#f0f0f0"
         id="path51" />
      <path
         d="M29.65918,46.09862H28.65625a.481.481,0,0,1,0-.96192h3.04883a.481.481,0,1,1,0,.96192H30.70215v3.2998a.52149.52149,0,1,1-1.043,0Z"
         fill="#f0f0f0"
         id="path53" />
    </g>
    <g
       id="g65">
      <path
         d="M14.24121,90.55467a.51768.51768,0,0,1,.52149-.52148h1.416a1.624,1.624,0,0,1,1.81543,1.63965v.01367a1.69512,1.69512,0,0,1-1.917,1.6665h-.793v.9419a.52149.52149,0,0,1-1.043,0Zm1.87012,1.87012a.73405.73405,0,0,0,.82617-.71826v-.01319c0-.46777-.3252-.71875-.84668-.71875h-.80664v1.4502Z"
         fill="#f0f0f0"
         id="path57" />
      <path
         d="M19.00488,90.51415a.52149.52149,0,1,1,1.043,0v3.78076a.52149.52149,0,0,1-1.043,0Z"
         fill="#f0f0f0"
         id="path59" />
      <path
         d="M21.4541,90.52782a.51779.51779,0,0,1,.52149-.522H22.084a.64483.64483,0,0,1,.542.30518l2.01269,2.64209v-2.4458a.51465.51465,0,0,1,1.0293,0v3.77393a.51768.51768,0,0,1-.52149.52148H25.1123a.648.648,0,0,1-.542-.30469l-2.08593-2.7373v2.54053a.51514.51514,0,0,1-1.03028,0Z"
         fill="#f0f0f0"
         id="path61" />
      <path
         d="M27.06055,90.51415a.52149.52149,0,1,1,1.043,0v1.59228l1.9248-1.91064a.58662.58662,0,0,1,.44043-.20313.46955.46955,0,0,1,.48047.481.52128.52128,0,0,1-.18945.39258l-1.335,1.24707,1.457,1.8291a.5558.5558,0,0,1,.1416.36572.5036.5036,0,0,1-.52832.5083.52666.52666,0,0,1-.44043-.251L28.7002,92.79051l-.59668.55567v.94873a.52149.52149,0,0,1-1.043,0Z"
         fill="#f0f0f0"
         id="path63" />
    </g>
    <g
       id="g73">
      <path
         d="M15.45117,135.46a.51707.51707,0,0,1,.52149-.52149h1.64648a1.89027,1.89027,0,0,1,1.38184.481,1.49124,1.49124,0,0,1,.40625,1.084v.01368A1.4483,1.4483,0,0,1,18.459,137.96l.72461.88086a.60971.60971,0,0,1,.16993.39941.48586.48586,0,0,1-.49512.48145.624.624,0,0,1-.51465-.271l-1.0166-1.2876h-.833v1.03711a.52149.52149,0,1,1-1.043,0Zm2.09961,1.78222c.50781,0,.79981-.27148.79981-.6709v-.01367c0-.44726-.31153-.67773-.82032-.67773H16.49414v1.3623Z"
         fill="#f0f0f0"
         id="path67" />
      <path
         d="M20.60449,139.15917V135.46a.51769.51769,0,0,1,.52149-.52149h2.6289a.46846.46846,0,0,1,.46778.46778.46287.46287,0,0,1-.46778.46044H21.64062v.96192H23.4502a.46814.46814,0,0,1,.46679.46728.46243.46243,0,0,1-.46679.46094H21.64062v.9961h2.14844a.46814.46814,0,0,1,.4668.46728.46234.46234,0,0,1-.4668.46045H21.126A.51738.51738,0,0,1,20.60449,139.15917Z"
         fill="#f0f0f0"
         id="path69" />
      <path
         d="M25.377,135.46a.51769.51769,0,0,1,.52149-.52149h1.32812a2.36406,2.36406,0,0,1,2.52051,2.35742v.01368a2.3743,2.3743,0,0,1-2.52051,2.37109H25.89844a.51738.51738,0,0,1-.52149-.52148Zm1.84961,3.27929a1.35174,1.35174,0,0,0,1.42969-1.416v-.01367a1.36254,1.36254,0,0,0-1.42969-1.42969h-.80664v2.85937Z"
         fill="#f0f0f0"
         id="path71" />
    </g>
    <g
       id="g83">
      <path
         d="M15.501,184.28368l-1.53711-3.6792a.64127.64127,0,0,1-.06153-.25049.51165.51165,0,0,1,.52149-.51465.54169.54169,0,0,1,.52832.36572l1.18555,3.06934,1.19921-3.10352a.54229.54229,0,0,1,.502-.33154.50332.50332,0,0,1,.51465.50147.61958.61958,0,0,1-.05372.23l-1.55175,3.71289a.61224.61224,0,0,1-.58985.41308h-.06738A.61312.61312,0,0,1,15.501,184.28368Z"
         fill="#f0f0f0"
         id="path75" />
      <path
         d="M19.30957,180.36083a.52149.52149,0,1,1,1.043,0v3.78076a.52149.52149,0,0,1-1.043,0Z"
         fill="#f0f0f0"
         id="path77" />
      <path
         d="M21.50977,182.26463V182.251a2.52167,2.52167,0,0,1,5.041-.01367v.01367a2.52166,2.52166,0,0,1-5.041.01367Zm3.95019,0V182.251a1.44035,1.44035,0,0,0-1.43652-1.49023,1.41852,1.41852,0,0,0-1.42285,1.47656v.01367a1.44137,1.44137,0,0,0,1.43652,1.49072A1.41866,1.41866,0,0,0,25.46,182.26463Z"
         fill="#f0f0f0"
         id="path79" />
      <path
         d="M27.69824,180.36083a.52149.52149,0,1,1,1.043,0v3.313h1.93067a.47413.47413,0,1,1,0,.94825H28.21973a.51677.51677,0,0,1-.52149-.52149Z"
         fill="#f0f0f0"
         id="path81" />
    </g>
    <g
       id="g93">
      <path
         d="M13.4082,225.28905a.51769.51769,0,0,1,.52149-.52149h1.68066a1.70989,1.70989,0,0,1,1.23926.41993,1.08861,1.08861,0,0,1,.32519.80664v.01318a1.10233,1.10233,0,0,1-.623,1.023,1.15915,1.15915,0,0,1,.88769,1.16553v.01318c0,.86719-.70507,1.30078-1.77539,1.30078H13.92969a.51738.51738,0,0,1-.52149-.52148Zm1.97852,1.39551c.46094,0,.752-.14844.752-.501v-.01367c0-.31153-.24414-.4878-.68457-.4878H14.4248v1.00245Zm.27734,1.91113c.46094,0,.73828-.16309.73828-.51514v-.01367c0-.31836-.23632-.51514-.77148-.51514H14.4248v1.04395Z"
         fill="#f0f0f0"
         id="path85" />
      <path
         d="M18.55762,225.24852a.52149.52149,0,0,1,1.043,0v3.313h1.93164a.47412.47412,0,0,1,0,.94824H19.0791a.51738.51738,0,0,1-.52148-.52148Z"
         fill="#f0f0f0"
         id="path87" />
      <path
         d="M22.71777,227.47752v-2.229a.522.522,0,0,1,1.04395,0v2.20166c0,.77246.38574,1.17236,1.02246,1.17236s1.02344-.38623,1.02344-1.13818v-2.23584a.52149.52149,0,0,1,1.043,0v2.19482a1.90889,1.90889,0,0,1-2.08008,2.14112A1.88222,1.88222,0,0,1,22.71777,227.47752Z"
         fill="#f0f0f0"
         id="path89" />
      <path
         d="M28.17871,228.98827v-3.69922a.51769.51769,0,0,1,.52149-.52149h2.6289a.46846.46846,0,0,1,.46778.46778.46288.46288,0,0,1-.46778.46045H29.21484v.96191h1.80957a.46815.46815,0,0,1,.4668.46729.46243.46243,0,0,1-.4668.46093H29.21484v.9961h2.14844a.46814.46814,0,0,1,.4668.46728.46233.46233,0,0,1-.4668.46045H28.7002A.51738.51738,0,0,1,28.17871,228.98827Z"
         fill="#f0f0f0"
         id="path91" />
    </g>
    <g
       id="g103">
      <path
         d="M12.72266,272.00682v-.01367A2.43448,2.43448,0,0,1,15.21,269.541a2.62642,2.62642,0,0,1,1.61914.46045.522.522,0,0,1,.2168.41992.51717.51717,0,0,1-.834.40674,1.65907,1.65907,0,0,0-1.03613-.32519,1.42489,1.42489,0,0,0-1.3623,1.47656v.01367A1.42116,1.42116,0,0,0,15.25,273.49706a1.66428,1.66428,0,0,0,.98242-.28418v-.67774h-.7041a.44808.44808,0,0,1-.4541-.44726.45376.45376,0,0,1,.4541-.45362H16.7207a.51738.51738,0,0,1,.52149.52149v1.15185a.70553.70553,0,0,1-.36621.66407,3.15171,3.15171,0,0,1-1.66016.47412A2.37375,2.37375,0,0,1,12.72266,272.00682Z"
         fill="#f0f0f0"
         id="path95" />
      <path
         d="M18.49609,270.14354a.51707.51707,0,0,1,.52149-.52148h1.64648a1.89025,1.89025,0,0,1,1.38184.481,1.49125,1.49125,0,0,1,.40625,1.084v.01367a1.44829,1.44829,0,0,1-.94824,1.44287l.72461.88086a.60976.60976,0,0,1,.16992.39941.48586.48586,0,0,1-.49512.48145.624.624,0,0,1-.51465-.271l-1.0166-1.28759h-.833v1.0371a.52149.52149,0,1,1-1.043,0Zm2.09961,1.78223c.50782,0,.79981-.27149.79981-.6709v-.01367c0-.44727-.31153-.67774-.82031-.67774H19.53906v1.36231Z"
         fill="#f0f0f0"
         id="path97" />
      <path
         d="M23.31934,273.69383l1.65332-3.73291a.64394.64394,0,0,1,.60937-.41308h.06152a.635.635,0,0,1,.60254.41308l1.65332,3.73291a.51805.51805,0,0,1,.05371.21.49446.49446,0,0,1-.49414.50147.53283.53283,0,0,1-.502-.35938l-.31836-.74511H24.55273l-.332.77929a.51388.51388,0,0,1-.48144.3252.47991.47991,0,0,1-.48047-.48779A.54811.54811,0,0,1,23.31934,273.69383Zm2.93359-1.31445-.65723-1.56494-.65722,1.56494Z"
         fill="#f0f0f0"
         id="path99" />
      <path
         d="M29.77148,272.53514l-1.53125-2.08008a.61877.61877,0,0,1-.1289-.37207.50924.50924,0,0,1,.52246-.50146.60068.60068,0,0,1,.51465.31836l1.15136,1.65967,1.17188-1.67334a.59846.59846,0,0,1,.502-.31153.48335.48335,0,0,1,.50782.5083.64515.64515,0,0,1-.13575.36573l-1.53125,2.06591v1.36914a.52149.52149,0,1,1-1.043,0Z"
         fill="#f0f0f0"
         id="path101" />
    </g>
    <g
       id="g113">
      <path
         d="M13.37891,314.68846a.51779.51779,0,0,1,.52148-.522h1.67969a1.71241,1.71241,0,0,1,1.24023.41992,1.08754,1.08754,0,0,1,.3252.80615v.01368a1.10232,1.10232,0,0,1-.62305,1.02294,1.16093,1.16093,0,0,1,.8877,1.16553v.01367c0,.86719-.70508,1.30079-1.77539,1.30079H13.90039a.51779.51779,0,0,1-.52148-.522Zm1.97851,1.39551c.46,0,.752-.14941.752-.50146v-.01368c0-.31152-.24415-.48779-.68458-.48779H14.39453V316.084Zm.27735,1.91016c.46093,0,.73828-.16211.73828-.51465v-.01367c0-.31836-.23633-.51465-.77246-.51465H14.39453v1.043Z"
         fill="#f0f0f0"
         id="path105" />
      <path
         d="M18.52832,314.64745a.52149.52149,0,1,1,1.043,0v3.313H21.502a.47437.47437,0,1,1,0,.94874H19.0498a.51718.51718,0,0,1-.52148-.522Z"
         fill="#f0f0f0"
         id="path107" />
      <path
         d="M22.50586,316.55126v-.01368a2.41064,2.41064,0,0,1,2.47266-2.45263,2.50991,2.50991,0,0,1,1.58593.48144.52153.52153,0,0,1,.20313.41309.50884.50884,0,0,1-.51563.50781.54161.54161,0,0,1-.31054-.10156,1.56226,1.56226,0,0,0-.96875-.33838,1.40523,1.40523,0,0,0-1.376,1.47705v.01318a1.409,1.409,0,0,0,1.376,1.49073,1.52333,1.52333,0,0,0,1.02929-.373.48324.48324,0,1,1,.623.73877,2.49889,2.49889,0,0,1-4.11914-1.84277Z"
         fill="#f0f0f0"
         id="path109" />
      <path
         d="M27.92383,314.64745a.52149.52149,0,1,1,1.043,0v1.59228l1.9248-1.91064a.58492.58492,0,0,1,.44043-.20313.46983.46983,0,0,1,.48047.481A.52228.52228,0,0,1,31.62305,315l-1.334,1.24609,1.45606,1.82959a.5558.5558,0,0,1,.1416.36572.50333.50333,0,0,1-.52734.5083.53013.53013,0,0,1-.44141-.25049l-1.35449-1.77539-.59668.55567v.94824a.52149.52149,0,1,1-1.043,0Z"
         fill="#f0f0f0"
         id="path111" />
    </g>
  </g>
  <g
     id="ee5cb15e-0014-4008-87b9-634109f98d9b"
     data-name="components"
     inkscape:groupmode="layer"
     style="display:none">
    <circle
       id="f7a29434-8400-4fef-9148-7755ac6e7a3e"
       data-name="White#PJ301MPort"
       cx="22.499981"
       cy="64.656601"
       r="5"
       style="fill:#0000ff" />
    <circle
       id="a03ab65c-8f79-4dee-9584-23d0d00f84e0"
       data-name="Pink#PJ301MPort"
       cx="22.499981"
       cy="109.5532"
       r="5"
       style="fill:#0000ff" />
    <circle
       id="b2a9399e-5b76-41eb-833a-02574111d874"
       data-name="Red#PJ301MPort"
       cx="22.499981"
       cy="154.45822"
       r="5"
       style="fill:#0000ff" />
    <circle
       id="a45e1bfb-87b5-44c0-8d9d-fd1636977f10"
       data-name="Violet#PJ301MPort"
       cx="22.499981"
       cy="199.3996"
       r="5"
       style="fill:#0000ff" />
    <circle
       id="b796d6a1-52eb-4b9f-ad67-71d98a712729"
       data-name="Blue#PJ301MPort"
       cx="22.499981"
       cy="244.28709"
       r="5"
       style="fill:#0000ff" />
    <circle
       id="a0c728e6-903b-4967-a8a3-9ffa468a1d6e"
       data-name="Gray#PJ301MPort"
       cx="22.499981"
       cy="289.14178"
       r="5"
       style="fill:#0000ff" />
    <circle
       id="aff75390-2199-4ec0-90ac-1516ccd9c59f"
       data-name="Black#PJ301MPort"
       cx="22.499981"
       cy="334"
       r="5"
       style="fill:#0000ff" />
  </g>
</svg>
