<?xml version="1.0" encoding="UTF-8" standalone="no"?>
<svg
   xmlns:dc="http://purl.org/dc/elements/1.1/"
   xmlns:cc="http://creativecommons.org/ns#"
   xmlns:rdf="http://www.w3.org/1999/02/22-rdf-syntax-ns#"
   xmlns:svg="http://www.w3.org/2000/svg"
   xmlns="http://www.w3.org/2000/svg"
   xmlns:sodipodi="http://sodipodi.sourceforge.net/DTD/sodipodi-0.dtd"
   xmlns:inkscape="http://www.inkscape.org/namespaces/inkscape"
   width="45"
   height="380"
   viewBox="0 0 45 380"
   version="1.1"
   id="svg100"
   sodipodi:docname="OCT.svg"
   inkscape:version="0.92.3 (2405546, 2018-03-11)">
  <metadata
     id="metadata104">
    <rdf:RDF>
      <cc:Work
         rdf:about="">
        <dc:format>image/svg+xml</dc:format>
        <dc:type
           rdf:resource="http://purl.org/dc/dcmitype/StillImage" />
      </cc:Work>
    </rdf:RDF>
  </metadata>
  <sodipodi:namedview
     pagecolor="#ffffff"
     bordercolor="#666666"
     borderopacity="1"
     objecttolerance="10"
     gridtolerance="10"
     guidetolerance="10"
     inkscape:pageopacity="0"
     inkscape:pageshadow="2"
     inkscape:window-width="716"
     inkscape:window-height="480"
     id="namedview102"
     showgrid="false"
     inkscape:zoom="0.62105263"
     inkscape:cx="22.5"
     inkscape:cy="190"
     inkscape:window-x="0"
     inkscape:window-y="0"
     inkscape:window-maximized="0"
     inkscape:current-layer="svg100" />
  <defs
     id="defs7">
    <linearGradient
       id="b9d4c11d-62bb-4149-8428-d73ba37a61cb"
       x1="22.50001"
       x2="22.50001"
       y2="380"
       gradientUnits="userSpaceOnUse">
      <stop
         offset="0"
         stop-color="#ebebeb"
         id="stop2" />
      <stop
         offset="1"
         stop-color="#e1e1e1"
         id="stop4" />
    </linearGradient>
  </defs>
  <g
     id="ba95d92a-b4a4-43a9-a7ed-2dca14b08678"
     data-name="FND BG">
    <rect
       x="0.00003"
       width="44.99997"
       height="380"
       fill="url(#b9d4c11d-62bb-4149-8428-d73ba37a61cb)"
       id="rect9" />
  </g>
  <g
     id="add40347-8840-45c0-bfcc-bb25648698f4"
     data-name="FND GRAPH">
    <g
       id="g20">
      <circle
         cx="23.00165"
         cy="355.83101"
         r="1.18571"
         fill="#1f1f1f"
         id="circle12" />
      <path
         d="M14.35927,359.753a.91214.91214,0,0,1-.8158-.50418l-2.96428-5.92857a.91209.91209,0,0,1,1.6316-.8158l2.14848,4.297,2.14848-4.297a.91209.91209,0,0,1,1.6316.8158l-2.96428,5.92857A.91211.91211,0,0,1,14.35927,359.753Z"
         fill="#1f1f1f"
         id="path14" />
      <path
         d="M30.64073,359.753a.91211.91211,0,0,1-.8158-.50418l-2.96428-5.92857a.91209.91209,0,0,1,1.6316-.8158l2.14848,4.297,2.14848-4.297a.91209.91209,0,0,1,1.6316.8158l-2.96428,5.92857A.91214.91214,0,0,1,30.64073,359.753Z"
         fill="#1f1f1f"
         id="path16" />
      <path
         d="M22.94242,359.753a3.87637,3.87637,0,1,1,2.32653-6.97719.91209.91209,0,1,1-1.09557,1.45854,2.034,2.034,0,0,0-1.231-.40991,2.0522,2.0522,0,1,0,0,4.10439,2.034,2.034,0,0,0,1.231-.40991.91209.91209,0,1,1,1.09557,1.45854A3.8448,3.8448,0,0,1,22.94242,359.753Z"
         fill="#1f1f1f"
         id="path18" />
    </g>
    <line
       x1="22.49997"
       y1="288.95597"
       x2="22.49997"
       y2="321.15516"
       fill="none"
       stroke="#1f1f1f"
       stroke-linecap="round"
       stroke-linejoin="round"
       stroke-width="0.8"
       id="line22" />
    <line
       x1="22.49997"
       y1="199.11971"
       x2="22.49997"
       y2="237.18019"
       fill="none"
       stroke="#1f1f1f"
       stroke-linecap="round"
       stroke-linejoin="round"
       stroke-width="0.8"
       id="line24" />
    <rect
       x="8.18423"
       y="309.05634"
       width="28.6316"
       height="39.15691"
       rx="2.83465"
       fill="#1f1f1f"
       id="rect26" />
  </g>
  <g
     id="a45286fa-eb04-47c3-92f8-302ab9da3263"
     data-name="FND TXT"
     style="display:inline">
    <g
       id="g35">
      <path
         d="m 9.09277,23.93262 v -0.02539 a 4.52881,4.52881 0 0 1 4.667,-4.5293 4.4875,4.4875 0 0 1 4.6416,4.50439 v 0.02491 a 4.52851,4.52851 0 0 1 -4.667,4.52929 4.48711,4.48711 0 0 1 -4.6416,-4.5039 z m 7.29493,0 v -0.02539 a 2.66121,2.66121 0 0 0 -2.65332,-2.75244 2.61924,2.61924 0 0 0 -2.627,2.72753 v 0.02491 a 2.66083,2.66083 0 0 0 2.65235,2.75293 2.61974,2.61974 0 0 0 2.62797,-2.72754 z"
         id="path29"
         inkscape:connector-curvature="0"
         style="fill:#1f1f1f" />
      <path
         d="m 19.76758,23.93262 v -0.02539 a 4.45145,4.45145 0 0 1 4.5664,-4.5293 4.64014,4.64014 0 0 1 2.92872,0.88867 0.962,0.962 0 0 1 0.375,0.7627 0.94,0.94 0 0 1 -0.95118,0.93847 1.00817,1.00817 0 0 1 -0.57519,-0.1875 2.88236,2.88236 0 0 0 -1.78906,-0.62548 2.59488,2.59488 0 0 0 -2.54,2.72753 v 0.02491 a 2.60136,2.60136 0 0 0 2.54,2.75293 2.8117,2.8117 0 0 0 1.90136,-0.68848 0.89265,0.89265 0 1 1 1.15137,1.36426 4.40088,4.40088 0 0 1 -3.11523,1.10058 4.42067,4.42067 0 0 1 -4.49219,-4.5039 z"
         id="path31"
         inkscape:connector-curvature="0"
         style="fill:#1f1f1f" />
      <path
         d="m 31.54883,21.30469 h -1.85156 a 0.88819,0.88819 0 1 1 0,-1.77637 h 5.62988 a 0.88819,0.88819 0 1 1 0,1.77637 h -1.85156 v 6.09375 a 0.96338,0.96338 0 1 1 -1.92676,0 z"
         id="path33"
         inkscape:connector-curvature="0"
         style="fill:#1f1f1f" />
    </g>
    <g
       id="g47">
      <path
         d="m 12.67773,269.64941 -1.66015,-3.90234 a 0.47419,0.47419 0 0 1 -0.04688,-0.19629 0.41033,0.41033 0 0 1 0.41992,-0.40625 0.43585,0.43585 0 0 1 0.42676,0.29785 l 1.36817,3.42139 1.38867,-3.44873 a 0.43087,0.43087 0 0 1 0.40039,-0.27051 0.403,0.403 0 0 1 0.41309,0.39942 0.47683,0.47683 0 0 1 -0.041,0.17626 l -1.666,3.9292 a 0.49667,0.49667 0 0 1 -0.48144,0.33887 h -0.04688 a 0.49434,0.49434 0 0 1 -0.47465,-0.33887 z"
         id="path37"
         inkscape:connector-curvature="0"
         style="fill:#1f1f1f" />
      <path
         d="m 15.37012,270.34766 2.77148,-5.67774 a 0.32257,0.32257 0 0 1 0.61621,0.12207 0.52312,0.52312 0 0 1 -0.03418,0.1626 l -2.77734,5.67725 a 0.30773,0.30773 0 0 1 -0.291,0.18994 0.32223,0.32223 0 0 1 -0.32519,-0.312 0.3939,0.3939 0 0 1 0.04002,-0.16212 z"
         id="path39"
         inkscape:connector-curvature="0"
         style="fill:#1f1f1f" />
      <path
         d="m 19.12988,267.563 v -0.0137 a 2.47973,2.47973 0 0 1 4.959,-0.0132 v 0.0132 a 2.47974,2.47974 0 0 1 -4.959,0.0137 z m 4.085,0 v -0.0137 a 1.62443,1.62443 0 0 0 -1.6123,-1.687 1.60243,1.60243 0 0 0 -1.59863,1.67383 v 0.0132 a 1.61918,1.61918 0 0 0 1.6123,1.68017 1.59649,1.59649 0 0 0 1.59859,-1.66652 z"
         id="path41"
         inkscape:connector-curvature="0"
         style="fill:#1f1f1f" />
      <path
         d="m 25.06934,267.563 v -0.0137 a 2.39946,2.39946 0 0 1 2.44531,-2.45264 2.4874,2.4874 0 0 1 1.626,0.53516 0.41846,0.41846 0 0 1 0.16309,0.332 0.40565,0.40565 0 0 1 -0.41406,0.40674 0.40137,0.40137 0 0 1 -0.25,-0.0815 1.72354,1.72354 0 0 0 -1.13184,-0.42676 1.59556,1.59556 0 0 0 -1.56445,1.67383 v 0.0132 a 1.59717,1.59717 0 0 0 1.56445,1.68017 1.69973,1.69973 0 0 0 1.18555,-0.4541 0.38367,0.38367 0 0 1 0.251,-0.0947 0.38921,0.38921 0 0 1 0.25683,0.68457 2.42268,2.42268 0 0 1 -1.7207,0.63672 2.38464,2.38464 0 0 1 -2.41118,-2.43893 z"
         id="path43"
         inkscape:connector-curvature="0"
         style="fill:#1f1f1f" />
      <path
         d="m 31.6875,265.95068 h -1.15137 a 0.38623,0.38623 0 0 1 0,-0.77246 h 3.15039 a 0.3863,0.3863 0 0 1 0,0.77246 h -1.1582 v 3.59032 a 0.42047,0.42047 0 0 1 -0.84082,0 z"
         id="path45"
         inkscape:connector-curvature="0"
         style="fill:#1f1f1f" />
    </g>
    <g
       id="g55">
      <path
         d="m 15.01367,316.55127 v -0.0137 a 2.52165,2.52165 0 0 1 5.041,-0.0132 v 0.0132 a 2.52166,2.52166 0 0 1 -5.041,0.0137 z m 3.94922,0 v -0.0137 a 1.44016,1.44016 0 0 0 -1.43555,-1.49024 1.41838,1.41838 0 0 0 -1.42285,1.477 v 0.0132 a 1.44137,1.44137 0 0 0 1.43653,1.49072 1.41786,1.41786 0 0 0 1.42187,-1.477 z"
         id="path49"
         inkscape:connector-curvature="0"
         style="fill:#f0f0f0" />
      <path
         d="m 21.13281,316.87646 v -2.229 a 0.5215,0.5215 0 0 1 1.043,0 v 2.20215 c 0,0.772 0.38672,1.17187 1.02344,1.17187 0.63672,0 1.02344,-0.38623 1.02344,-1.13818 v -2.23584 a 0.5215,0.5215 0 1 1 1.043,0 v 2.19531 a 1.90916,1.90916 0 0 1 -2.08007,2.14063 1.88222,1.88222 0 0 1 -2.05281,-2.10694 z"
         id="path51"
         inkscape:connector-curvature="0"
         style="fill:#f0f0f0" />
      <path
         d="m 27.61719,315.12842 h -1.002 a 0.481,0.481 0 0 1 0,-0.96192 h 3.04883 a 0.481,0.481 0 0 1 0,0.96192 h -1.00289 v 3.29931 a 0.522,0.522 0 1 1 -1.04394,0 z"
         id="path53"
         inkscape:connector-curvature="0"
         style="fill:#f0f0f0" />
    </g>
  </g>
  <g
     id="e06e6f64-a3d5-42c7-b50d-73a05fd90b9f"
     data-name="components"
     inkscape:groupmode="layer"
     style="display:none">
    <circle
       id="a725d6ea-2baa-46de-82f9-1bd6b9e460ad"
       data-name="Out#PJ301MPort"
       cx="22.500031"
       cy="334"
       r="5"
       style="fill:#0000ff" />
    <circle
       id="bf7270a5-2377-4eae-9e85-177e863f28c8"
       data-name="In#PJ301MPort"
       cx="22.500031"
       cy="286"
       r="5"
       style="fill:#00ff00" />
    <circle
       id="a00b14f7-95f5-4478-ba64-af20446c3418"
       data-name="Oct#PJ301MPort"
       cx="22.500031"
       cy="237.911"
       r="5"
       style="fill:#00ff00" />
    <rect
       id="f28573d3-d0b1-4530-af50-653ae58dc253"
       data-name="Screen"
       x="-0.033849999"
       y="38.5"
       width="45.067699"
       height="165"
       style="fill:#ffff00" />
  </g>
</svg>
