<?xml version="1.0" encoding="UTF-8"?>
<svg xmlns="http://www.w3.org/2000/svg" width="45" height="380" xmlns:xlink="http://www.w3.org/1999/xlink" viewBox="0 0 45 380">
  <defs>
    <linearGradient id="uuid-2b1f121c-1314-4f24-8697-b97e86b8cdde" x1="22.50001" y1="0" x2="22.50001" y2="380" gradientUnits="userSpaceOnUse">
      <stop offset="0" stop-color="#2a2a2b"/>
      <stop offset="1" stop-color="#171717"/>
    </linearGradient>
  </defs>
  <g id="uuid-df9aeed1-b230-4287-997e-872435d99d7a" data-name="FND BG">
    <rect x=".00003" width="44.99997" height="380" fill="url(#uuid-2b1f121c-1314-4f24-8697-b97e86b8cdde)"/>
  </g>
  <g id="uuid-8cfa2846-637f-4e0c-ad74-40ad75623147" data-name="FND GRAPH">
    <g>
      <circle cx="23.00165" cy="355.83101" r="1.18571" fill="#ededed"/>
      <path d="m14.35927,359.75298c-.34551,0-.66126-.1952-.8158-.50419l-2.96428-5.92856c-.22526-.45057-.04266-.99844.40794-1.2237.45008-.22535.99831-.04271,1.22366.4079l2.14848,4.29696,2.14848-4.29696c.22526-.45057.77314-.63325,1.22366-.4079.45061.22526.63321.77314.40794,1.2237l-2.96428,5.92856c-.15454.30899-.47029.50419-.8158.50419Z" fill="#ededed"/>
      <path d="m30.64073,359.75298c-.34551,0-.66126-.1952-.8158-.50419l-2.96428-5.92856c-.22526-.45057-.04266-.99844.40794-1.2237.45016-.22535.9984-.04271,1.22366.4079l2.14848,4.29696,2.14848-4.29696c.22526-.45057.77305-.63325,1.22366-.4079.45061.22526.63321.77314.40794,1.2237l-2.96428,5.92856c-.15454.30899-.47029.50419-.8158.50419Z" fill="#ededed"/>
      <path d="m22.94242,359.75298c-2.13744,0-3.87637-1.73893-3.87637-3.87637s1.73893-3.87637,3.87637-3.87637c.84653,0,1.65102.26819,2.32653.77554.40278.30253.48401.87428.18153,1.27705-.30248.40273-.87432.48401-1.2771.18148-.357-.26815-.78267-.4099-1.23096-.4099-1.13156,0-2.05219.92059-2.05219,2.05219s.92064,2.05219,2.05219,2.05219c.44829,0,.87396-.14176,1.23096-.4099.40269-.30271.97444-.22125,1.2771.18148.30248.40278.22125.97453-.18153,1.27705-.67551.50735-1.48.77554-2.32653.77554Z" fill="#ededed"/>
    </g>
    <line x1="22.49997" y1="288.95597" x2="22.49997" y2="321.15516" fill="none" stroke="#ededed" stroke-linecap="round" stroke-linejoin="round" stroke-width=".8"/>
    <line x1="22.49997" y1="199.11971" x2="22.49997" y2="237.18019" fill="none" stroke="#ededed" stroke-linecap="round" stroke-linejoin="round" stroke-width=".8"/>
    <rect x="8.18423" y="309.05634" width="28.6316" height="39.15691" rx="2.83465" ry="2.83465" fill="#ededed"/>
  </g>
  <g id="uuid-94853275-ba19-4f4f-a979-01ac906c6a2c" data-name="FND TXT">
    <g>
      <path d="m9.09277,23.93262v-.02539c0-2.48975,1.96387-4.5293,4.66699-4.5293,2.70215,0,4.6416,2.01465,4.6416,4.50439v.0249c0,2.49023-1.96387,4.5293-4.66699,4.5293-2.70215,0-4.6416-2.01416-4.6416-4.50391Zm7.29492,0v-.02539c0-1.50146-1.10156-2.75244-2.65332-2.75244-1.55078,0-2.62695,1.22607-2.62695,2.72754v.0249c0,1.50146,1.10059,2.75293,2.65234,2.75293s2.62793-1.22656,2.62793-2.72754Z" fill="#ebebeb"/>
      <path d="m19.76758,23.93262v-.02539c0-2.48975,1.87695-4.5293,4.56641-4.5293,1.31445,0,2.20215.35059,2.92871.88867.2002.1499.375.4248.375.7627,0,.52588-.42578.93848-.95117.93848-.2627,0-.4375-.09961-.5752-.1875-.53809-.40039-1.10156-.62549-1.78906-.62549-1.47656,0-2.54004,1.22607-2.54004,2.72754v.0249c0,1.50146,1.03809,2.75293,2.54004,2.75293.8125,0,1.35059-.25049,1.90137-.68848.15039-.125.35059-.2124.5752-.2124.48828,0,.90137.40039.90137.88818,0,.30029-.15039.53809-.3252.68848-.78809.68799-1.71387,1.10059-3.11523,1.10059-2.57812,0-4.49219-1.98926-4.49219-4.50391Z" fill="#ebebeb"/>
      <path d="m31.54883,21.30469h-1.85156c-.48828,0-.88867-.40039-.88867-.88818s.40039-.88818.88867-.88818h5.62988c.48828,0,.88867.40039.88867.88818s-.40039.88818-.88867.88818h-1.85156v6.09375c0,.53809-.42578.96338-.96289.96338-.53809,0-.96387-.42529-.96387-.96338v-6.09375Z" fill="#ebebeb"/>
    </g>
    <g>
      <path d="m12.67773,269.64941l-1.66016-3.90234c-.02637-.06055-.04688-.12158-.04688-.19629,0-.22363.18262-.40625.41992-.40625.2168,0,.35938.12207.42676.29785l1.36816,3.42139,1.38867-3.44873c.05469-.14209.2041-.27051.40039-.27051.23047,0,.41309.17578.41309.39941,0,.06104-.02051.12891-.04102.17627l-1.66602,3.9292c-.08789.20996-.24414.33887-.48145.33887h-.04688c-.23047,0-.38672-.12891-.47461-.33887Z" fill="#ebebeb"/>
      <path d="m15.37012,270.34766l2.77148-5.67773c.06055-.12207.16211-.18945.29785-.18945.17578,0,.31836.14209.31836.31152,0,.06104-.02051.12207-.03418.1626l-2.77734,5.67725c-.06055.12207-.15527.18994-.29102.18994-.17676,0-.3252-.14209-.3252-.31201,0-.06055.02051-.12158.04004-.16211Z" fill="#ebebeb"/>
      <path d="m19.12988,267.56299v-.01367c0-1.33447,1.03027-2.45264,2.48633-2.45264,1.45703,0,2.47266,1.10449,2.47266,2.43945v.01318c0,1.33447-1.0293,2.45264-2.48633,2.45264-1.45605,0-2.47266-1.10449-2.47266-2.43896Zm4.08496,0v-.01367c0-.92139-.66992-1.68701-1.6123-1.68701-.94141,0-1.59863.75195-1.59863,1.67383v.01318c0,.92139.6709,1.68018,1.6123,1.68018s1.59863-.74512,1.59863-1.6665Z" fill="#ebebeb"/>
      <path d="m25.06934,267.56299v-.01367c0-1.34814,1.00879-2.45264,2.44531-2.45264.73145,0,1.21289.2168,1.62598.53516.08789.06836.16309.18311.16309.33203,0,.23047-.18359.40674-.41406.40674-.11523,0-.19629-.04053-.25-.08154-.3252-.26367-.67773-.42676-1.13184-.42676-.90137,0-1.56445.74512-1.56445,1.67383v.01318c0,.92822.65625,1.68018,1.56445,1.68018.50098,0,.83984-.1626,1.18555-.4541.06152-.05371.14941-.09473.25098-.09473.20996,0,.39258.17627.39258.38623,0,.12891-.06055.23047-.13574.29834-.44629.39258-.95508.63672-1.7207.63672-1.38184,0-2.41113-1.07715-2.41113-2.43896Z" fill="#ebebeb"/>
      <path d="m31.6875,265.95068h-1.15137c-.2168,0-.38574-.17627-.38574-.38623s.16895-.38623.38574-.38623h3.15039c.20996,0,.37891.17627.37891.38623s-.16895.38623-.37891.38623h-1.1582v3.59033c0,.23047-.19043.41357-.41992.41357-.23047,0-.4209-.18311-.4209-.41357v-3.59033Z" fill="#ebebeb"/>
    </g>
    <g>
      <path d="m15.01367,316.55127v-.01367c0-1.34814,1.06445-2.45264,2.52734-2.45264s2.51367,1.09082,2.51367,2.43945v.01318c0,1.34814-1.06445,2.45264-2.52734,2.45264s-2.51367-1.09082-2.51367-2.43896Zm3.94922,0v-.01367c0-.81299-.5957-1.49023-1.43555-1.49023s-1.42285.66357-1.42285,1.47705v.01318c0,.81299.59668,1.49072,1.43652,1.49072s1.42188-.66406,1.42188-1.47705Z" fill="#1f1f1f"/>
      <path d="m21.13281,316.87646v-2.229c0-.29102.23047-.52148.52148-.52148s.52148.23047.52148.52148v2.20215c0,.77197.38672,1.17188,1.02344,1.17188s1.02344-.38623,1.02344-1.13818v-2.23584c0-.29102.23047-.52148.52148-.52148s.52148.23047.52148.52148v2.19531c0,1.43604-.80664,2.14062-2.08008,2.14062s-2.05273-.71143-2.05273-2.10693Z" fill="#1f1f1f"/>
      <path d="m27.61719,315.12842h-1.00195c-.26367,0-.48047-.2168-.48047-.48096s.2168-.48096.48047-.48096h3.04883c.26367,0,.48047.2168.48047.48096s-.2168.48096-.48047.48096h-1.00293v3.29932c0,.2915-.23047.52197-.52246.52197-.29102,0-.52148-.23047-.52148-.52197v-3.29932Z" fill="#1f1f1f"/>
    </g>
  </g>
</svg>