<?xml version="1.0" encoding="UTF-8" standalone="no"?>
<svg
   xmlns:dc="http://purl.org/dc/elements/1.1/"
   xmlns:cc="http://creativecommons.org/ns#"
   xmlns:rdf="http://www.w3.org/1999/02/22-rdf-syntax-ns#"
   xmlns:svg="http://www.w3.org/2000/svg"
   xmlns="http://www.w3.org/2000/svg"
   xmlns:sodipodi="http://sodipodi.sourceforge.net/DTD/sodipodi-0.dtd"
   xmlns:inkscape="http://www.inkscape.org/namespaces/inkscape"
   width="75"
   height="380"
   viewBox="0 0 75 380"
   version="1.1"
   id="svg208"
   sodipodi:docname="PROCESS.svg"
   inkscape:version="0.92.3 (2405546, 2018-03-11)">
  <metadata
     id="metadata212">
    <rdf:RDF>
      <cc:Work
         rdf:about="">
        <dc:format>image/svg+xml</dc:format>
        <dc:type
           rdf:resource="http://purl.org/dc/dcmitype/StillImage" />
      </cc:Work>
    </rdf:RDF>
  </metadata>
  <sodipodi:namedview
     pagecolor="#ffffff"
     bordercolor="#666666"
     borderopacity="1"
     objecttolerance="10"
     gridtolerance="10"
     guidetolerance="10"
     inkscape:pageopacity="0"
     inkscape:pageshadow="2"
     inkscape:window-width="1920"
     inkscape:window-height="1017"
     id="namedview210"
     showgrid="false"
     inkscape:zoom="1.7566021"
     inkscape:cx="0.74676461"
     inkscape:cy="162.11288"
     inkscape:window-x="-8"
     inkscape:window-y="-8"
     inkscape:window-maximized="1"
     inkscape:current-layer="svg208" />
  <defs
     id="defs9">
    <style
       id="style2">
      .uuid-57bd1e2f-1786-4de8-823b-ead3c33ca89d {
        fill: #f0f0f0;
      }

      .uuid-0d49eaf3-e062-44db-80d5-51dbf76d1da0 {
        fill: blue;
      }

      .uuid-3cfc38ff-2762-4c45-bd9f-cf67325cf3c5 {
        fill: url(#uuid-e30a21f0-2d63-431c-8b15-71b8c9c78a0d);
      }

      .uuid-5445a45f-1674-4ba4-a43a-40d2e914e5a1 {
        fill: lime;
      }

      .uuid-77cec769-671e-4e16-912b-cee9a444b8ed {
        isolation: isolate;
        opacity: .69;
      }

      .uuid-77cec769-671e-4e16-912b-cee9a444b8ed, .uuid-f33a7b67-4b50-4cb9-8b69-5eb147f414e4, .uuid-5065ae39-88db-4c7c-930f-80dfe709af08 {
        fill: none;
      }

      .uuid-5065ae39-88db-4c7c-930f-80dfe709af08 {
        stroke: #1f1f1f;
        stroke-linecap: round;
        stroke-miterlimit: 10;
        stroke-width: .8px;
      }

      .uuid-e6d611bb-6d98-4b98-9e18-aec52819f4ad {
        fill: #1f1f1f;
      }

      .uuid-69802020-82b3-43e9-b071-1f4fd6734a4c {
        fill: red;
      }
    </style>
    <linearGradient
       id="uuid-e30a21f0-2d63-431c-8b15-71b8c9c78a0d"
       x1="37.5"
       y1="0"
       x2="37.5"
       y2="380"
       gradientTransform="matrix(1, 0, 0, 1, 0, 0)"
       gradientUnits="userSpaceOnUse">
      <stop
         offset="0"
         stop-color="#ebebeb"
         id="stop4" />
      <stop
         offset="1"
         stop-color="#e1e1e1"
         id="stop6" />
    </linearGradient>
  </defs>
  <g
     id="uuid-9732506f-fb1c-4ead-87d0-f17dbaef6a05"
     data-name="FND BG">
    <rect
       width="75"
       height="380"
       style="fill: url(#uuid-e30a21f0-2d63-431c-8b15-71b8c9c78a0d);"
       id="rect11" />
  </g>
  <g
     id="uuid-a1afafb9-0d91-4eec-bd1a-0c1453c5e62b"
     data-name="FND GRAPH">
    <path
       d="M53.17802,174.55701l-1.65796-2.87167c-.14313-.24791,.03578-.55779,.32204-.55779h3.31592c.28626,0,.46517,.30988,.32204,.55779l-1.65796,2.87167c-.14313,.24791-.50096,.24791-.64409,0Z"
       style="fill: #1f1f1f;"
       id="path14" />
    <g
       id="g20">
      <rect
         x="7.22416"
         y="219.63044"
         width="28.55155"
         height="39.15691"
         rx="2.83465"
         ry="2.83465"
         style="fill: #1f1f1f;"
         id="rect16" />
      <rect
         x="18.07571"
         y="241.14133"
         width="6.86765"
         height="6.64999"
         style="fill: #1f1f1f;"
         id="rect18" />
    </g>
    <g
       id="g26">
      <rect
         x="39.22429"
         y="219.63044"
         width="28.55155"
         height="39.15691"
         rx="2.83465"
         ry="2.83465"
         style="fill: #1f1f1f;"
         id="rect22" />
      <rect
         x="50.07584"
         y="241.14133"
         width="6.86765"
         height="6.64999"
         style="fill: #1f1f1f;"
         id="rect24" />
    </g>
    <g
       id="g32">
      <rect
         x="7.22416"
         y="264.48514"
         width="28.55155"
         height="39.15691"
         rx="2.83465"
         ry="2.83465"
         style="fill: #1f1f1f;"
         id="rect28" />
      <rect
         x="18.07571"
         y="285.99603"
         width="6.86765"
         height="6.64999"
         style="fill: #1f1f1f;"
         id="rect30" />
    </g>
    <g
       id="g38">
      <rect
         x="39.22429"
         y="264.48514"
         width="28.55155"
         height="39.15691"
         rx="2.83465"
         ry="2.83465"
         style="fill: #1f1f1f;"
         id="rect34" />
      <rect
         x="50.07584"
         y="285.99603"
         width="6.86765"
         height="6.64999"
         style="fill: #1f1f1f;"
         id="rect36" />
    </g>
    <g
       id="g44">
      <rect
         x="7.22416"
         y="309.05634"
         width="28.55155"
         height="39.15691"
         rx="2.83465"
         ry="2.83465"
         style="fill: #1f1f1f;"
         id="rect40" />
      <rect
         x="18.07571"
         y="330.56723"
         width="6.86765"
         height="6.64999"
         style="fill: #1f1f1f;"
         id="rect42" />
    </g>
    <g
       id="g50">
      <rect
         x="39.22429"
         y="309.05634"
         width="28.55155"
         height="39.15691"
         rx="2.83465"
         ry="2.83465"
         style="fill: #1f1f1f;"
         id="rect46" />
      <rect
         x="50.07584"
         y="330.56723"
         width="6.86765"
         height="6.64999"
         style="fill: #1f1f1f;"
         id="rect48" />
    </g>
    <g
       id="g60">
      <circle
         cx="38.00165"
         cy="356.2678"
         r="1.18571"
         style="fill: #1f1f1f;"
         id="circle52" />
      <path
         d="M29.35927,360.18977c-.34551,0-.66126-.1952-.8158-.50419l-2.96428-5.92856c-.22526-.45057-.04266-.99844,.40794-1.2237,.45008-.22535,.99831-.04271,1.22366,.4079l2.14848,4.29696,2.14848-4.29696c.22526-.45057,.77314-.63325,1.22366-.4079,.45061,.22526,.63321,.77314,.40794,1.2237l-2.96428,5.92856c-.15454,.30899-.47029,.50419-.8158,.50419Z"
         style="fill: #1f1f1f;"
         id="path54" />
      <path
         d="M45.64073,360.18977c-.34551,0-.66126-.1952-.8158-.50419l-2.96428-5.92856c-.22526-.45057-.04266-.99844,.40794-1.2237,.45016-.22535,.9984-.04271,1.22366,.4079l2.14848,4.29696,2.14848-4.29696c.22526-.45057,.77305-.63325,1.22366-.4079,.45061,.22526,.63321,.77314,.40794,1.2237l-2.96428,5.92856c-.15454,.30899-.47029,.50419-.8158,.50419Z"
         style="fill: #1f1f1f;"
         id="path56" />
      <path
         d="M37.94242,360.18977c-2.13744,0-3.87637-1.73893-3.87637-3.87637s1.73893-3.87637,3.87637-3.87637c.84653,0,1.65102,.26819,2.32653,.77554,.40278,.30253,.48401,.87428,.18153,1.27705-.30248,.40273-.87432,.48401-1.2771,.18148-.357-.26815-.78267-.4099-1.23096-.4099-1.13156,0-2.05219,.92059-2.05219,2.05219s.92064,2.05219,2.05219,2.05219c.44829,0,.87396-.14176,1.23096-.4099,.40269-.30271,.97444-.22125,1.2771,.18148,.30248,.40278,.22125,.97453-.18153,1.27705-.67551,.50735-1.48,.77554-2.32653,.77554Z"
         style="fill: #1f1f1f;"
         id="path58" />
    </g>
    <g
       id="g72">
      <circle
         cx="37.5"
         cy="78.9999"
         r="26.48818"
         style="fill: none; isolation: isolate; opacity: .69;"
         id="circle62" />
      <g
         id="g68">
        <path
           d="M48.29822,97.10256c6.2955-3.78272,10.15833-10.61025,10.15833-17.95479,0-11.491-9.45566-20.94666-20.94666-20.94666s-20.94666,9.45566-20.94666,20.94666c0,7.39639,3.91756,14.2646,10.28394,18.02967"
           style="fill: none; stroke: #1f1f1f; stroke-linecap: round; stroke-miterlimit: 10; stroke-width: .8px;"
           id="path64" />
        <g
           id="g66" />
      </g>
      <line
         x1="48.29822"
         y1="97.10256"
         x2="37.5"
         y2="78.9999"
         style="fill: none;"
         id="line70" />
    </g>
  </g>
  <g
     id="uuid-389a75dc-35e2-46fd-a034-973b47350c61"
     data-name="FND TXT">
    <g
       id="g83">
      <path
         d="M44.26953,182.26465v-.01367c0-1.32764,1.01562-2.45215,2.44531-2.45215,.71094,0,1.18555,.16895,1.61914,.48047,.08105,.06152,.16992,.17676,.16992,.33887,0,.22363-.18359,.41357-.41406,.41357-.1084,0-.18945-.04736-.25684-.09521-.30566-.22363-.6377-.37207-1.15234-.37207-.87402,0-1.53809,.76514-1.53809,1.67285v.01367c0,.97559,.64453,1.69385,1.61328,1.69385,.44727,0,.85352-.14209,1.14453-.35889v-.8877h-.93457c-.2041,0-.37305-.15576-.37305-.35938,0-.20312,.16895-.36523,.37305-.36523h1.32129c.23633,0,.41992,.18262,.41992,.41992v1.2666c0,.2373-.0957,.40674-.29199,.52832-.40625,.27148-.97559,.51514-1.68652,.51514-1.48438,0-2.45898-1.05713-2.45898-2.43896Z"
         style="fill: #1f1f1f;"
         id="path75" />
      <path
         d="M49.66211,184.08008l1.76172-3.9292c.09473-.20996,.26367-.33887,.50098-.33887h.04004c.23828,0,.40039,.12891,.49512,.33887l1.76172,3.9292c.03418,.06152,.04785,.12207,.04785,.17627,0,.22363-.16992,.3999-.39355,.3999-.19629,0-.33203-.11523-.40625-.2915l-.38672-.88721h-2.30371l-.39941,.91455c-.06738,.16943-.20996,.26416-.38574,.26416-.2168,0-.38672-.16943-.38672-.38623,0-.06104,.02051-.12207,.05469-.18994Zm3.10254-1.34131l-.83301-1.91748-.83398,1.91748h1.66699Z"
         style="fill: #1f1f1f;"
         id="path77" />
      <path
         d="M55.93262,180.65234h-1.15137c-.2168,0-.38672-.17627-.38672-.38623s.16992-.38623,.38672-.38623h3.15039c.20898,0,.37891,.17627,.37891,.38623s-.16992,.38623-.37891,.38623h-1.15918v3.59082c0,.22998-.18945,.41309-.41992,.41309s-.41992-.18311-.41992-.41309v-3.59082Z"
         style="fill: #1f1f1f;"
         id="path79" />
      <path
         d="M59.31055,184.20215v-3.90234c0-.2373,.18359-.41992,.41992-.41992h2.75781c.20312,0,.37305,.16943,.37305,.37256,0,.20996-.16992,.37256-.37305,.37256h-2.34375v1.2334h2.03906c.20312,0,.37305,.16895,.37305,.37891,0,.20361-.16992,.36621-.37305,.36621h-2.03906v1.27344h2.37793c.20312,0,.37207,.16943,.37207,.37305,0,.20996-.16895,.37207-.37207,.37207h-2.79199c-.23633,0-.41992-.18262-.41992-.41992Z"
         style="fill: #1f1f1f;"
         id="path81" />
    </g>
    <g
       id="g89">
      <path
         d="M18.35645,180.25928c0-.23047,.18262-.41357,.41992-.41357,.23047,0,.41309,.18311,.41309,.41357v3.98389c0,.22998-.18262,.41309-.41309,.41309-.2373,0-.41992-.18311-.41992-.41309v-3.98389Z"
         style="fill: #1f1f1f;"
         id="path85" />
      <path
         d="M20.66602,180.27295c0-.23047,.18262-.42041,.41992-.42041h.08789c.20312,0,.31836,.10156,.43359,.24414l2.37109,3.06934v-2.91357c0-.22363,.18359-.40674,.40625-.40674,.23047,0,.41406,.18311,.41406,.40674v3.98389c0,.23047-.17578,.41309-.40625,.41309h-.03418c-.19629,0-.31836-.10156-.43359-.25098l-2.43945-3.15674v3.0083c0,.22314-.18262,.40625-.40625,.40625-.23047,0-.41309-.18311-.41309-.40625v-3.97705Z"
         style="fill: #1f1f1f;"
         id="path87" />
    </g>
    <g
       id="g99">
      <path
         d="M43.52441,229.0083c-.11523-.08154-.19629-.23047-.19629-.39307,0-.271,.2168-.48096,.48828-.48096,.13477,0,.23047,.04736,.29688,.09473,.35938,.26416,.75293,.42676,1.21289,.42676,.42773,0,.68457-.16943,.68457-.44678v-.01367c0-.26465-.16309-.3999-.95508-.60303-.95508-.24365-1.57129-.5083-1.57129-1.44971v-.01367c0-.86035,.69043-1.42969,1.65918-1.42969,.57617,0,1.07715,.14941,1.50488,.41992,.11426,.06787,.22949,.20996,.22949,.41357,0,.271-.2168,.48096-.4873,.48096-.10156,0-.18359-.02734-.26465-.07422-.34473-.20361-.6709-.31885-.99512-.31885-.40039,0-.61035,.18311-.61035,.41357v.01367c0,.31152,.20312,.41309,1.02246,.62305,.96289,.25049,1.50391,.59619,1.50391,1.42285v.01367c0,.94141-.71777,1.46973-1.74023,1.46973-.62305,0-1.25391-.18945-1.78223-.56885Z"
         style="fill: #f0f0f0;"
         id="path91" />
      <path
         d="M51.25391,229.42822l-.40039-.3999c-.38574,.33203-.84668,.54883-1.40918,.54883-.90723,0-1.5918-.52832-1.5918-1.36816v-.01367c0-.60303,.3252-1.02979,.9209-1.30078-.23633-.3252-.33203-.62354-.33203-.94873v-.01318c0-.65039,.52148-1.24707,1.43652-1.24707,.80664,0,1.33496,.52881,1.33496,1.19238v.01367c0,.63672-.40625,1.00977-.98926,1.24023l.62305,.61621c.1084-.1626,.20996-.33203,.31152-.51465,.04785-.09521,.18359-.2373,.38672-.2373,.23633,0,.43359,.19629,.43359,.43359,0,.07422-.02051,.14893-.06055,.2168-.13672,.2373-.29199,.48096-.45508,.71143l.43359,.42676c.0957,.09473,.15625,.19629,.15625,.33838,0,.25781-.19629,.4541-.45312,.4541-.14258,0-.23828-.04053-.3457-.14893Zm-.99609-.98926l-.9082-.91455c-.31836,.16943-.44727,.39307-.44727,.62988v.01367c0,.33203,.27734,.55566,.66406,.55566,.24414,0,.47461-.1084,.69141-.28467Zm.04688-2.48633v-.01318c0-.27148-.18262-.44043-.44727-.44043-.27734,0-.46094,.19629-.46094,.48047v.01367c0,.20996,.08203,.36621,.27832,.58984,.41309-.15625,.62988-.3252,.62988-.63037Z"
         style="fill: #f0f0f0;"
         id="path93" />
      <path
         d="M53.09863,225.24805c0-.29102,.23047-.52148,.52246-.52148,.29102,0,.52148,.23047,.52148,.52148v1.39551h1.92383v-1.39551c0-.29102,.23047-.52148,.52148-.52148s.52148,.23047,.52148,.52148v3.78027c0,.2915-.23047,.52197-.52148,.52197s-.52148-.23047-.52148-.52197v-1.42285h-1.92383v1.42285c0,.2915-.23047,.52197-.52148,.52197-.29199,0-.52246-.23047-.52246-.52197v-3.78027Z"
         style="fill: #f0f0f0;"
         id="path95" />
      <path
         d="M60.2793,228.49316l1.34863-1.10449c.58887-.48047,.81934-.74512,.81934-1.1377,0-.3999-.26367-.6167-.63672-.6167-.29785,0-.50781,.12842-.77148,.41357-.06836,.07422-.19043,.14844-.35352,.14844-.26367,0-.47363-.20996-.47363-.47363,0-.11523,.04785-.2373,.12207-.3252,.37891-.44043,.82617-.69824,1.54492-.69824,.98242,0,1.63281,.57617,1.63281,1.46338v.01367c0,.79248-.40723,1.18555-1.24707,1.83594l-.77246,.59619h1.65332c.25098,0,.4541,.20312,.4541,.4541,0,.25049-.20312,.44727-.4541,.44727h-2.5752c-.32422,0-.56152-.18311-.56152-.49512,0-.20312,.09473-.37891,.27051-.52148Z"
         style="fill: #f0f0f0;"
         id="path97" />
    </g>
    <g
       id="g109">
      <path
         d="M12.20605,229.0083c-.11523-.08154-.19629-.23047-.19629-.39307,0-.271,.2168-.48096,.48828-.48096,.13477,0,.23047,.04736,.29688,.09473,.35938,.26416,.75293,.42676,1.21289,.42676,.42773,0,.68457-.16943,.68457-.44678v-.01367c0-.26465-.16309-.3999-.95508-.60303-.95508-.24365-1.57129-.5083-1.57129-1.44971v-.01367c0-.86035,.69043-1.42969,1.65918-1.42969,.57617,0,1.07715,.14941,1.50488,.41992,.11426,.06787,.22949,.20996,.22949,.41357,0,.271-.2168,.48096-.4873,.48096-.10156,0-.18359-.02734-.26465-.07422-.34473-.20361-.6709-.31885-.99512-.31885-.40039,0-.61035,.18311-.61035,.41357v.01367c0,.31152,.20312,.41309,1.02246,.62305,.96289,.25049,1.50391,.59619,1.50391,1.42285v.01367c0,.94141-.71777,1.46973-1.74023,1.46973-.62305,0-1.25391-.18945-1.78223-.56885Z"
         style="fill: #f0f0f0;"
         id="path101" />
      <path
         d="M19.93555,229.42822l-.40039-.3999c-.38574,.33203-.84668,.54883-1.40918,.54883-.90723,0-1.5918-.52832-1.5918-1.36816v-.01367c0-.60303,.3252-1.02979,.9209-1.30078-.23633-.3252-.33203-.62354-.33203-.94873v-.01318c0-.65039,.52148-1.24707,1.43652-1.24707,.80664,0,1.33496,.52881,1.33496,1.19238v.01367c0,.63672-.40625,1.00977-.98926,1.24023l.62305,.61621c.1084-.1626,.20996-.33203,.31152-.51465,.04785-.09521,.18359-.2373,.38672-.2373,.23633,0,.43359,.19629,.43359,.43359,0,.07422-.02051,.14893-.06055,.2168-.13672,.2373-.29199,.48096-.45508,.71143l.43359,.42676c.0957,.09473,.15625,.19629,.15625,.33838,0,.25781-.19629,.4541-.45312,.4541-.14258,0-.23828-.04053-.3457-.14893Zm-.99609-.98926l-.9082-.91455c-.31836,.16943-.44727,.39307-.44727,.62988v.01367c0,.33203,.27734,.55566,.66406,.55566,.24414,0,.47461-.1084,.69141-.28467Zm.04688-2.48633v-.01318c0-.27148-.18262-.44043-.44727-.44043-.27734,0-.46094,.19629-.46094,.48047v.01367c0,.20996,.08203,.36621,.27832,.58984,.41309-.15625,.62988-.3252,.62988-.63037Z"
         style="fill: #f0f0f0;"
         id="path103" />
      <path
         d="M21.78027,225.24805c0-.29102,.23047-.52148,.52246-.52148,.29102,0,.52148,.23047,.52148,.52148v1.39551h1.92383v-1.39551c0-.29102,.23047-.52148,.52148-.52148s.52148,.23047,.52148,.52148v3.78027c0,.2915-.23047,.52197-.52148,.52197s-.52148-.23047-.52148-.52197v-1.42285h-1.92383v1.42285c0,.2915-.23047,.52197-.52148,.52197-.29199,0-.52246-.23047-.52246-.52197v-3.78027Z"
         style="fill: #f0f0f0;"
         id="path105" />
      <path
         d="M29.60547,225.75635l-.36621,.09473c-.05469,.01367-.12891,.02686-.18262,.02686-.24414,0-.45508-.20312-.45508-.44678,0-.21045,.13672-.38623,.3457-.44727l.6709-.19678c.19629-.05371,.3457-.08789,.48828-.08789h.0127c.28516,0,.51562,.23047,.51562,.51514v3.8208c0,.28467-.23047,.51514-.51562,.51514-.28418,0-.51367-.23047-.51367-.51514v-3.27881Z"
         style="fill: #f0f0f0;"
         id="path107" />
    </g>
    <g
       id="g117">
      <path
         d="M15.94824,270.5835h-1.00293c-.26367,0-.48047-.2168-.48047-.48096s.2168-.48096,.48047-.48096h3.04883c.26465,0,.48145,.2168,.48145,.48096s-.2168,.48096-.48145,.48096h-1.00195v3.29932c0,.2915-.23047,.52197-.52246,.52197-.29102,0-.52148-.23047-.52148-.52197v-3.29932Z"
         style="fill: #f0f0f0;"
         id="path111" />
      <path
         d="M22.28809,274.28271l-.39941-.3999c-.38672,.33203-.84766,.54883-1.41016,.54883-.90723,0-1.5918-.52832-1.5918-1.36816v-.01367c0-.60303,.32617-1.02979,.92188-1.30078-.2373-.3252-.33203-.62354-.33203-.94873v-.01318c0-.65039,.52148-1.24707,1.43555-1.24707,.80664,0,1.33594,.52881,1.33594,1.19238v.01367c0,.63672-.40723,1.00977-.99023,1.24023l.62402,.61621c.1084-.1626,.20996-.33203,.31152-.51465,.04688-.09521,.18262-.2373,.38672-.2373,.23633,0,.43359,.19629,.43359,.43359,0,.07422-.02148,.14893-.06152,.2168-.13574,.2373-.29199,.48096-.4541,.71143l.43359,.42676c.09473,.09473,.15625,.19629,.15625,.33838,0,.25781-.19727,.4541-.4541,.4541-.14258,0-.2373-.04053-.3457-.14893Zm-.99609-.98926l-.90723-.91455c-.31836,.16943-.44727,.39307-.44727,.62988v.01367c0,.33203,.27734,.55566,.66406,.55566,.24414,0,.47363-.1084,.69043-.28467Zm.04785-2.48633v-.01318c0-.27148-.18359-.44043-.44727-.44043-.27734,0-.46094,.19629-.46094,.48047v.01367c0,.20996,.08203,.36621,.27734,.58984,.41406-.15625,.63086-.3252,.63086-.63037Z"
         style="fill: #f0f0f0;"
         id="path113" />
      <path
         d="M24.13379,270.10254c0-.29102,.22949-.52148,.52148-.52148,.29102,0,.52148,.23047,.52148,.52148v1.39551h1.9248v-1.39551c0-.29102,.22949-.52148,.52148-.52148,.29102,0,.52148,.23047,.52148,.52148v3.78027c0,.2915-.23047,.52197-.52148,.52197-.29199,0-.52148-.23047-.52148-.52197v-1.42285h-1.9248v1.42285c0,.2915-.23047,.52197-.52148,.52197-.29199,0-.52148-.23047-.52148-.52197v-3.78027Z"
         style="fill: #f0f0f0;"
         id="path115" />
    </g>
    <g
       id="g125">
      <path
         d="M46.88379,270.10254c0-.29102,.23047-.52148,.52246-.52148,.29102,0,.52148,.23047,.52148,.52148v1.39551h1.92383v-1.39551c0-.29102,.23047-.52148,.52148-.52148s.52148,.23047,.52148,.52148v3.78027c0,.2915-.23047,.52197-.52148,.52197s-.52148-.23047-.52148-.52197v-1.42285h-1.92383v1.42285c0,.2915-.23047,.52197-.52148,.52197-.29199,0-.52246-.23047-.52246-.52197v-3.78027Z"
         style="fill: #f0f0f0;"
         id="path119" />
      <path
         d="M55.34082,274.28271l-.39941-.3999c-.38672,.33203-.84766,.54883-1.41016,.54883-.90723,0-1.5918-.52832-1.5918-1.36816v-.01367c0-.60303,.32617-1.02979,.92188-1.30078-.2373-.3252-.33203-.62354-.33203-.94873v-.01318c0-.65039,.52148-1.24707,1.43555-1.24707,.80664,0,1.33594,.52881,1.33594,1.19238v.01367c0,.63672-.40723,1.00977-.99023,1.24023l.62402,.61621c.1084-.1626,.20996-.33203,.31152-.51465,.04688-.09521,.18262-.2373,.38672-.2373,.23633,0,.43359,.19629,.43359,.43359,0,.07422-.02148,.14893-.06152,.2168-.13574,.2373-.29199,.48096-.4541,.71143l.43359,.42676c.09473,.09473,.15625,.19629,.15625,.33838,0,.25781-.19727,.4541-.4541,.4541-.14258,0-.2373-.04053-.3457-.14893Zm-.99609-.98926l-.90723-.91455c-.31836,.16943-.44727,.39307-.44727,.62988v.01367c0,.33203,.27734,.55566,.66406,.55566,.24414,0,.47363-.1084,.69043-.28467Zm.04785-2.48633v-.01318c0-.27148-.18359-.44043-.44727-.44043-.27734,0-.46094,.19629-.46094,.48047v.01367c0,.20996,.08203,.36621,.27734,.58984,.41406-.15625,.63086-.3252,.63086-.63037Z"
         style="fill: #f0f0f0;"
         id="path121" />
      <path
         d="M57.95703,270.5835h-1.00195c-.26465,0-.48145-.2168-.48145-.48096s.2168-.48096,.48145-.48096h3.04785c.26465,0,.48145,.2168,.48145,.48096s-.2168,.48096-.48145,.48096h-1.00293v3.29932c0,.2915-.23047,.52197-.52148,.52197s-.52148-.23047-.52148-.52197v-3.29932Z"
         style="fill: #f0f0f0;"
         id="path123" />
    </g>
    <g
       id="g135">
      <path
         d="M11.40234,318.40771c-.11523-.08154-.19629-.23047-.19629-.39307,0-.271,.2168-.48096,.4873-.48096,.13574,0,.23047,.04736,.29883,.09473,.35938,.26416,.75195,.42676,1.21289,.42676,.42578,0,.68359-.16943,.68359-.44678v-.01367c0-.26465-.16211-.3999-.95508-.60303-.95508-.24365-1.57227-.5083-1.57227-1.44971v-.01367c0-.86035,.69141-1.42969,1.66016-1.42969,.57617,0,1.07715,.14941,1.50391,.41992,.11523,.06787,.23047,.20996,.23047,.41357,0,.271-.2168,.48096-.48828,.48096-.10156,0-.18164-.02734-.26367-.07422-.3457-.20361-.66992-.31885-.99609-.31885-.39941,0-.60938,.18311-.60938,.41357v.01367c0,.31152,.20312,.41309,1.02344,.62305,.96094,.25049,1.50391,.59619,1.50391,1.42285v.01367c0,.94141-.71875,1.46973-1.74219,1.46973-.62305,0-1.25293-.18945-1.78125-.56885Z"
         style="fill: #f0f0f0;"
         id="path127" />
      <path
         d="M16.06934,314.64746c0-.29102,.22949-.52148,.52148-.52148,.29102,0,.52148,.23047,.52148,.52148v3.31299h1.93066c.26465,0,.47461,.20996,.47461,.47412,0,.26465-.20996,.47461-.47461,.47461h-2.45215c-.29199,0-.52148-.23047-.52148-.52197v-3.73975Z"
         style="fill: #f0f0f0;"
         id="path129" />
      <path
         d="M20.41797,318.38721v-3.69873c0-.2915,.23047-.52197,.52148-.52197h2.62891c.25781,0,.46777,.20996,.46777,.46729,0,.25781-.20996,.46094-.46777,.46094h-2.11328v.96191h1.80859c.25781,0,.4668,.20996,.4668,.46777,0,.25732-.20898,.46045-.4668,.46045h-1.80859v.99561h2.14746c.25684,0,.46777,.21045,.46777,.46777s-.21094,.46094-.46777,.46094h-2.66309c-.29102,0-.52148-.23047-.52148-.52197Z"
         style="fill: #f0f0f0;"
         id="path131" />
      <path
         d="M24.88867,314.83057c-.01953-.06104-.04004-.13574-.04004-.19678,0-.29102,.24316-.50781,.53516-.50781,.24316,0,.44043,.15576,.50781,.37256l.94238,2.90625,.94824-2.87939c.08105-.24365,.26465-.41309,.52832-.41309h.08105c.26465,0,.44727,.1626,.52832,.41309l.94922,2.87939,.94141-2.90625c.06738-.20361,.24414-.37256,.50098-.37256,.28418,0,.51465,.2168,.51465,.50098,0,.06152-.01953,.14258-.04004,.20361l-1.32812,3.72607c-.09473,.26416-.29102,.42676-.54199,.42676h-.1084c-.25098,0-.44043-.15576-.53516-.42676l-.93457-2.7168-.93555,2.7168c-.09473,.271-.28418,.42676-.53516,.42676h-.1084c-.25098,0-.44629-.1626-.54199-.42676l-1.32812-3.72607Z"
         style="fill: #f0f0f0;"
         id="path133" />
    </g>
    <g
       id="g147">
      <path
         d="M42.63867,316.55127v-.01367c0-1.34814,1.05078-2.45264,2.4873-2.45264,.71777,0,1.19238,.16309,1.61914,.46094,.10156,.07422,.2168,.2168,.2168,.41992,0,.28467-.23047,.51514-.51465,.51514-.14941,0-.24414-.0542-.31836-.1084-.28516-.20361-.58984-.3252-1.03711-.3252-.75879,0-1.36133,.67041-1.36133,1.47705v.01318c0,.86719,.5957,1.50439,1.43555,1.50439,.37988,0,.71875-.09521,.98242-.28467v-.67773h-.7041c-.25098,0-.4541-.19629-.4541-.44678,0-.25098,.20312-.4541,.4541-.4541h1.19238c.29102,0,.52148,.23047,.52148,.52148v1.15186c0,.30518-.11523,.51514-.36523,.66406-.38672,.23682-.94922,.47412-1.66016,.47412-1.47656,0-2.49414-1.03662-2.49414-2.43896Z"
         style="fill: #f0f0f0;"
         id="path137" />
      <path
         d="M48.41211,314.64746c0-.29102,.23047-.52148,.52148-.52148s.52148,.23047,.52148,.52148v3.31299h1.93164c.26367,0,.47363,.20996,.47363,.47412,0,.26465-.20996,.47461-.47363,.47461h-2.45312c-.29102,0-.52148-.23047-.52148-.52197v-3.73975Z"
         style="fill: #f0f0f0;"
         id="path139" />
      <path
         d="M52.78711,314.64746c0-.29102,.23047-.52148,.52148-.52148s.52148,.23047,.52148,.52148v3.78027c0,.2915-.23047,.52197-.52148,.52197s-.52148-.23047-.52148-.52197v-3.78027Z"
         style="fill: #f0f0f0;"
         id="path141" />
      <path
         d="M55.23438,314.68848c0-.2915,.23047-.52197,.52148-.52197h1.32812c1.49023,0,2.52051,1.02295,2.52051,2.35791v.01318c0,1.33447-1.03027,2.37158-2.52051,2.37158h-1.32812c-.29102,0-.52148-.23047-.52148-.52197v-3.69873Zm1.84961,3.27881c.85352,0,1.42969-.57568,1.42969-1.41602v-.01367c0-.83984-.57617-1.4292-1.42969-1.4292h-.80664v2.85889h.80664Z"
         style="fill: #f0f0f0;"
         id="path143" />
      <path
         d="M60.7373,318.38721v-3.69873c0-.2915,.23047-.52197,.52246-.52197h2.62793c.25781,0,.46777,.20996,.46777,.46729,0,.25781-.20996,.46094-.46777,.46094h-2.11426v.96191h1.80957c.25684,0,.46777,.20996,.46777,.46777,0,.25732-.21094,.46045-.46777,.46045h-1.80957v.99561h2.14844c.25781,0,.4668,.21045,.4668,.46777s-.20898,.46094-.4668,.46094h-2.66211c-.29199,0-.52246-.23047-.52246-.52197Z"
         style="fill: #f0f0f0;"
         id="path145" />
    </g>
    <g
       id="g157">
      <path
         d="M11.46484,139.15234c-.09473-.06738-.16211-.18262-.16211-.31836,0-.2168,.17578-.38623,.39258-.38623,.11523,0,.18945,.03369,.24414,.07471,.39258,.31152,.8125,.48779,1.32812,.48779,.51367,0,.83984-.24365,.83984-.59619v-.01367c0-.33887-.18945-.52148-1.07031-.72461-1.00977-.24414-1.5791-.54199-1.5791-1.41602v-.01367c0-.81299,.67773-1.37549,1.61914-1.37549,.59668,0,1.07715,.15576,1.50391,.44043,.09473,.0542,.18262,.16943,.18262,.33203,0,.2168-.17578,.38623-.39258,.38623-.08105,0-.14844-.02051-.2168-.06104-.36523-.23682-.71777-.35889-1.09082-.35889-.4873,0-.77246,.25049-.77246,.56201v.01367c0,.36572,.2168,.52832,1.13184,.74512,1.00293,.24414,1.51758,.60303,1.51758,1.38916v.01367c0,.88721-.69824,1.41553-1.69434,1.41553-.64258,0-1.25293-.20312-1.78125-.59619Z"
         style="fill: #1f1f1f;"
         id="path149" />
      <path
         d="M16.15039,135.31787c0-.23047,.18359-.41357,.4209-.41357,.22949,0,.41309,.18311,.41309,.41357v3.604h2.14746c.20996,0,.37988,.16992,.37988,.37988s-.16992,.37891-.37988,.37891h-2.56055c-.2373,0-.4209-.18262-.4209-.41992v-3.94287Z"
         style="fill: #1f1f1f;"
         id="path151" />
      <path
         d="M20.50391,139.26074v-3.90234c0-.2373,.18359-.41992,.41992-.41992h2.75781c.20312,0,.37305,.16943,.37305,.37256,0,.20996-.16992,.37256-.37305,.37256h-2.34375v1.2334h2.03906c.20312,0,.37305,.16895,.37305,.37891,0,.20361-.16992,.36621-.37305,.36621h-2.03906v1.27344h2.37793c.20312,0,.37207,.16943,.37207,.37305,0,.20996-.16895,.37207-.37207,.37207h-2.79199c-.23633,0-.41992-.18262-.41992-.41992Z"
         style="fill: #1f1f1f;"
         id="path153" />
      <path
         d="M24.98926,135.47363c-.02051-.04736-.03418-.1084-.03418-.1626,0-.22998,.19727-.40674,.42773-.40674,.20312,0,.35938,.12891,.41309,.30518l1.09082,3.25879,1.07031-3.24512c.06738-.19678,.20996-.33203,.41992-.33203h.06055c.21094,0,.35938,.13525,.41992,.33203l1.07129,3.24512,1.09082-3.26562c.06055-.16943,.20312-.29834,.40625-.29834,.22363,0,.41309,.17676,.41309,.3999,0,.0542-.02051,.12207-.04004,.16943l-1.40234,3.92969c-.0752,.20996-.23047,.34521-.43359,.34521h-.08203c-.20312,0-.35156-.12842-.42676-.34521l-1.05664-3.09619-1.05762,3.09619c-.07422,.2168-.22949,.34521-.43359,.34521h-.08008c-.2041,0-.35352-.12842-.43359-.34521l-1.40332-3.92969Z"
         style="fill: #1f1f1f;"
         id="path155" />
    </g>
    <g
       id="g167">
      <path
         d="M44.27539,135.3584c0-.2373,.18262-.41992,.41992-.41992h1.44922c1.11133,0,1.80273,.62988,1.80273,1.58545v.01318c0,1.06396-.85352,1.61914-1.89746,1.61914h-.94141v1.14551c0,.22998-.18262,.41309-.41309,.41309-.2373,0-.41992-.18311-.41992-.41309v-3.94336Zm1.80176,2.0459c.62988,0,1.02246-.35205,1.02246-.84668v-.01367c0-.55566-.39941-.84668-1.02246-.84668h-.96875v1.70703h.96875Z"
         style="fill: #1f1f1f;"
         id="path159" />
      <path
         d="M48.91113,137.66895v-2.35107c0-.23047,.18262-.41357,.41992-.41357,.23047,0,.41309,.18311,.41309,.41357v2.31689c0,.88086,.4541,1.34863,1.19922,1.34863,.73828,0,1.19238-.44043,1.19238-1.31445v-2.35107c0-.23047,.18262-.41357,.4209-.41357,.22949,0,.41211,.18311,.41211,.41357v2.31006c0,1.41602-.79883,2.12744-2.03906,2.12744-1.23242,0-2.01855-.71143-2.01855-2.08643Z"
         style="fill: #1f1f1f;"
         id="path161" />
      <path
         d="M54.20703,139.15234c-.09375-.06738-.16211-.18262-.16211-.31836,0-.2168,.17578-.38623,.39258-.38623,.11523,0,.18945,.03369,.24414,.07471,.39258,.31152,.8125,.48779,1.32812,.48779,.51465,0,.83984-.24365,.83984-.59619v-.01367c0-.33887-.18945-.52148-1.07031-.72461-1.00977-.24414-1.57812-.54199-1.57812-1.41602v-.01367c0-.81299,.67676-1.37549,1.61914-1.37549,.5957,0,1.07715,.15576,1.50391,.44043,.09473,.0542,.18262,.16943,.18262,.33203,0,.2168-.17578,.38623-.39258,.38623-.08105,0-.14941-.02051-.2168-.06104-.36621-.23682-.71875-.35889-1.09082-.35889-.48828,0-.77246,.25049-.77246,.56201v.01367c0,.36572,.2168,.52832,1.13184,.74512,1.00195,.24414,1.51758,.60303,1.51758,1.38916v.01367c0,.88721-.69824,1.41553-1.69434,1.41553-.64355,0-1.25293-.20312-1.78223-.59619Z"
         style="fill: #1f1f1f;"
         id="path163" />
      <path
         d="M58.89453,135.31787c0-.23047,.18262-.41357,.41992-.41357,.23047,0,.41309,.18311,.41309,.41357v1.59229h2.2627v-1.59229c0-.23047,.18262-.41357,.41309-.41357,.2373,0,.41992,.18311,.41992,.41357v3.98389c0,.22998-.18262,.41309-.41992,.41309-.23047,0-.41309-.18311-.41309-.41309v-1.61914h-2.2627v1.61914c0,.22998-.18262,.41309-.41309,.41309-.2373,0-.41992-.18311-.41992-.41309v-3.98389Z"
         style="fill: #1f1f1f;"
         id="path165" />
    </g>
    <g
       id="g177">
      <path
         d="M24.89355,50.45947c-.11621-.0835-.2002-.2251-.2002-.39209,0-.26709,.2168-.47559,.48438-.47559,.1416,0,.2334,.0415,.30078,.0918,.4834,.38379,1.00098,.60059,1.63477,.60059,.63477,0,1.03516-.30029,1.03516-.73438v-.0166c0-.41748-.2334-.64258-1.31836-.89307-1.24414-.30029-1.94531-.66797-1.94531-1.74463v-.0166c0-1.00195,.83496-1.69434,1.99512-1.69434,.73535,0,1.32715,.19189,1.85352,.54248,.11621,.06689,.22559,.2085,.22559,.40869,0,.26758-.21777,.47607-.48438,.47607-.10059,0-.18359-.0249-.26758-.0752-.4502-.29199-.88477-.44238-1.34375-.44238-.60059,0-.95117,.30908-.95117,.69287v.0166c0,.45068,.2666,.65137,1.39355,.91797,1.23535,.30078,1.87012,.74316,1.87012,1.71094v.01709c0,1.09326-.86035,1.74463-2.08691,1.74463-.79297,0-1.54395-.25098-2.19531-.73486Z"
         style="fill: #1f1f1f;"
         id="path169" />
      <path
         d="M30.59668,45.73535c0-.28369,.22559-.50879,.5166-.50879,.28418,0,.50977,.2251,.50977,.50879v4.44043h2.64551c.25879,0,.46777,.20898,.46777,.46729,0,.25879-.20898,.46729-.46777,.46729h-3.15527c-.29102,0-.5166-.2251-.5166-.51758v-4.85742Z"
         style="fill: #1f1f1f;"
         id="path171" />
      <path
         d="M35.88672,50.59277v-4.80762c0-.29199,.22559-.51709,.51758-.51709h3.39648c.25098,0,.45898,.2085,.45898,.45898,0,.25879-.20801,.45898-.45898,.45898h-2.8877v1.51904h2.5127c.25,0,.45898,.20898,.45898,.46777,0,.25-.20898,.4502-.45898,.4502h-2.5127v1.56934h2.92969c.25098,0,.45898,.20898,.45898,.45898,0,.25879-.20801,.45898-.45898,.45898h-3.43848c-.29199,0-.51758-.2251-.51758-.51758Z"
         style="fill: #1f1f1f;"
         id="path173" />
      <path
         d="M41.34277,45.92773c-.02539-.05859-.04199-.13379-.04199-.20068,0-.28369,.24219-.50049,.52539-.50049,.25098,0,.44336,.1582,.50977,.375l1.34375,4.01465,1.31836-3.99756c.08398-.24219,.25879-.40918,.51758-.40918h.0752c.25879,0,.44238,.16699,.51758,.40918l1.31934,3.99756,1.34375-4.02246c.07422-.20898,.25-.36719,.5-.36719,.27539,0,.50977,.2168,.50977,.49219,0,.06641-.02539,.15039-.05078,.20898l-1.72754,4.84082c-.0918,.25879-.28418,.42578-.53418,.42578h-.09961c-.25098,0-.43457-.15918-.52637-.42578l-1.30176-3.81445-1.30273,3.81445c-.0918,.2666-.2832,.42578-.5332,.42578h-.10059c-.25098,0-.43457-.15918-.53418-.42578l-1.72754-4.84082Z"
         style="fill: #1f1f1f;"
         id="path175" />
    </g>
    <g
       id="g193">
      <path
         d="M7.52344,20.49121c0-.53809,.42578-.96387,.96387-.96387h2.61426c2.08984,0,3.35352,1.23926,3.35352,3.02832v.0249c0,2.02686-1.57617,3.07812-3.54102,3.07812h-1.46289v1.73877c0,.53809-.42578,.96387-.96387,.96387s-.96387-.42578-.96387-.96387v-6.90625Zm3.45312,3.45312c.96387,0,1.52734-.5752,1.52734-1.32617v-.02539c0-.86328-.60156-1.32617-1.56445-1.32617h-1.48828v2.67773h1.52539Z"
         style="fill: #1f1f1f;"
         id="path179" />
      <path
         d="M15.9668,20.49121c0-.53809,.42578-.96387,.96289-.96387h3.04102c1.11328,0,1.97656,.31299,2.55273,.88867,.4873,.48779,.75,1.17578,.75,2.00195v.0249c0,1.37646-.6875,2.22705-1.75195,2.66504l1.33984,1.62646c.1875,.23828,.3125,.43848,.3125,.73828,0,.53809-.45117,.88867-.91406,.88867-.4375,0-.72461-.21289-.95117-.50049l-1.87598-2.37744h-1.53906v1.91406c0,.53809-.42578,.96387-.96387,.96387-.53711,0-.96289-.42578-.96289-.96387v-6.90625Zm3.87891,3.29053c.9375,0,1.47656-.50049,1.47656-1.23877v-.0249c0-.82568-.57617-1.25146-1.51465-1.25146h-1.91406v2.51514h1.95215Z"
         style="fill: #1f1f1f;"
         id="path181" />
      <path
         d="M24.64453,23.93164v-.0249c0-2.48975,1.96484-4.5293,4.66699-4.5293s4.6416,2.01416,4.6416,4.50439v.0249c0,2.48975-1.96387,4.52979-4.66602,4.52979-2.70312,0-4.64258-2.01465-4.64258-4.50488Zm7.29492,0v-.0249c0-1.50146-1.10156-2.75244-2.65234-2.75244-1.55176,0-2.62793,1.22607-2.62793,2.72754v.0249c0,1.50146,1.10059,2.75293,2.65234,2.75293s2.62793-1.22607,2.62793-2.72803Z"
         style="fill: #1f1f1f;"
         id="path183" />
      <path
         d="M35.31934,23.93164v-.0249c0-2.48975,1.87695-4.5293,4.56738-4.5293,1.31348,0,2.20117,.3501,2.92773,.88818,.2002,.15039,.375,.42578,.375,.76367,0,.52539-.42578,.93848-.95117,.93848-.26172,0-.4375-.10059-.5752-.18799-.53809-.40039-1.10059-.62549-1.78906-.62549-1.47656,0-2.54004,1.22607-2.54004,2.72754v.0249c0,1.50146,1.03906,2.75293,2.54004,2.75293,.81348,0,1.35059-.25049,1.90137-.68799,.15039-.12549,.35059-.21289,.57617-.21289,.48828,0,.90039,.40039,.90039,.88818,0,.30029-.15039,.53809-.3252,.68799-.78809,.68848-1.71387,1.10156-3.11523,1.10156-2.57715,0-4.49219-1.98975-4.49219-4.50488Z"
         style="fill: #1f1f1f;"
         id="path185" />
      <path
         d="M45.01465,27.32275v-6.83154c0-.53809,.42578-.96387,.96387-.96387h4.85449c.47559,0,.86328,.38818,.86328,.86328,0,.47559-.3877,.85107-.86328,.85107h-3.90332v1.77686h3.33984c.47656,0,.86328,.3877,.86328,.86328s-.38672,.85059-.86328,.85059h-3.33984v1.83984h3.96582c.47559,0,.86328,.3877,.86328,.86328,0,.4751-.3877,.85059-.86328,.85059h-4.91699c-.53809,0-.96387-.42529-.96387-.96338Z"
         style="fill: #1f1f1f;"
         id="path187" />
      <path
         d="M53.29102,27.36035c-.21289-.15039-.36328-.42578-.36328-.72559,0-.50098,.40039-.88867,.90137-.88867,.25,0,.4248,.08789,.5498,.17529,.66406,.48779,1.38965,.78809,2.24023,.78809,.78809,0,1.26367-.31299,1.26367-.82568v-.0249c0-.48779-.30078-.73828-1.76367-1.11377-1.76465-.4502-2.90332-.93848-2.90332-2.67773v-.0249c0-1.58887,1.27637-2.64014,3.06543-2.64014,1.06348,0,1.98926,.27539,2.77734,.77588,.21289,.125,.42578,.38818,.42578,.76318,0,.50049-.40039,.88867-.90039,.88867-.1875,0-.33789-.05029-.48828-.1377-.63867-.37549-1.23828-.58838-1.83984-.58838-.73828,0-1.125,.33789-1.125,.76318v.02539c0,.5752,.375,.76318,1.88867,1.15088,1.77734,.46289,2.77734,1.10107,2.77734,2.62744v.02539c0,1.73926-1.32617,2.71484-3.21484,2.71484-1.15137,0-2.31543-.3501-3.29102-1.05078Z"
         style="fill: #1f1f1f;"
         id="path189" />
      <path
         d="M61.38672,27.36035c-.21289-.15039-.36328-.42578-.36328-.72559,0-.50098,.40039-.88867,.90137-.88867,.25,0,.4248,.08789,.5498,.17529,.66406,.48779,1.38965,.78809,2.24023,.78809,.78809,0,1.26367-.31299,1.26367-.82568v-.0249c0-.48779-.30078-.73828-1.76367-1.11377-1.76465-.4502-2.90332-.93848-2.90332-2.67773v-.0249c0-1.58887,1.27637-2.64014,3.06543-2.64014,1.06348,0,1.98926,.27539,2.77734,.77588,.21289,.125,.42578,.38818,.42578,.76318,0,.50049-.40039,.88867-.90039,.88867-.1875,0-.33789-.05029-.48828-.1377-.63867-.37549-1.23828-.58838-1.83984-.58838-.73828,0-1.125,.33789-1.125,.76318v.02539c0,.5752,.375,.76318,1.88867,1.15088,1.77734,.46289,2.77734,1.10107,2.77734,2.62744v.02539c0,1.73926-1.32617,2.71484-3.21484,2.71484-1.15137,0-2.31543-.3501-3.29102-1.05078Z"
         style="fill: #1f1f1f;"
         id="path191" />
    </g>
  </g>
  <g
     id="uuid-092f7e42-380c-4be1-a5b4-aed15c4995b7"
     data-name="components"
     style="display:none"
     inkscape:groupmode="layer">
    <circle
       id="uuid-71a3810e-8eaf-45c3-9faf-24bae9aef87b"
       data-name="Gate#PJ301MPort"
       cx="53.509659"
       cy="199.3996"
       r="5"
       style="fill:#00ff00" />
    <circle
       id="uuid-db5155f5-65e6-42d4-a46f-37c1a1994da7"
       data-name="Slew#PJ301MPort"
       cx="21.551001"
       cy="154.45821"
       r="5"
       style="fill:#00ff00" />
    <circle
       id="uuid-cc619225-587e-496c-97a4-604d9bbb90b3"
       data-name="Push#LEDLightBezel"
       cx="53.551128"
       cy="154.45821"
       r="5"
       style="fill:#ff0000" />
    <circle
       id="uuid-ce067402-6038-492b-8c7d-74aa5beeb2af"
       data-name="In#PJ301MPort"
       cx="21.545441"
       cy="199.39957"
       r="5"
       style="fill:#00ff00" />
    <circle
       id="uuid-fb7f1d99-7275-42ff-b555-9355448e32f3"
       data-name="SH1#PJ301MPort"
       cx="21.545441"
       cy="244.28706"
       r="5"
       style="fill:#0000ff" />
    <circle
       id="uuid-903757b6-23ef-4942-84bf-9f97e38dfca1"
       data-name="SH2#PJ301MPort"
       cx="53.54557"
       cy="244.28706"
       r="5"
       style="fill:#0000ff" />
    <circle
       id="uuid-958e7a9f-319c-4641-ade7-098d593dd00e"
       data-name="TH#PJ301MPort"
       cx="21.545441"
       cy="289.2471"
       r="5"
       style="fill:#0000ff" />
    <circle
       id="uuid-26077e24-c699-4aa5-a220-eb805a3cc52c"
       data-name="HT#PJ301MPort"
       cx="53.54557"
       cy="289.14182"
       r="5"
       style="fill:#0000ff" />
    <circle
       id="uuid-4266c3b2-5596-4fdd-bfe3-4f8d2f98d7db"
       data-name="Slew#PJ301MPort"
       cx="21.545441"
       cy="334"
       r="5"
       style="fill:#0000ff" />
    <circle
       id="uuid-1d0351ea-df18-4b0a-9ec0-ad70be17c990"
       data-name="Glide#PJ301MPort"
       cx="53.54557"
       cy="334"
       r="5"
       style="fill:#0000ff" />
    <circle
       id="uuid-b15e7dd6-ec30-4b00-939b-8aadf1b61540"
       data-name="Slew#RoundLargeBlackKnob"
       cx="37.33955"
       cy="78.999962"
       r="5"
       style="fill:#ff0000" />
  </g>
</svg>
