<?xml version="1.0" encoding="UTF-8"?>
<svg xmlns="http://www.w3.org/2000/svg" width="120" height="380" xmlns:xlink="http://www.w3.org/1999/xlink" viewBox="0 0 120 380">
  <defs>
    <linearGradient id="uuid-58f821d6-28ab-42fb-898d-782e992c83ea" x1="60" y1="0" x2="60" y2="380" gradientUnits="userSpaceOnUse">
      <stop offset="0" stop-color="#2a2a2b"/>
      <stop offset="1" stop-color="#171717"/>
    </linearGradient>
  </defs>
  <g id="uuid-4733c37e-080c-407a-abf4-1b0566957233" data-name="FND BG">
    <rect width="120" height="380" fill="url(#uuid-58f821d6-28ab-42fb-898d-782e992c83ea)"/>
  </g>
  <g id="uuid-743867d8-31f1-47af-818e-ed3ebaadb377" data-name="FND GRAPH">
    <g>
      <circle cx="60.50165" cy="355.83101" r="1.18571" fill="#ededed"/>
      <path d="m51.85927,359.75298c-.34551,0-.66126-.1952-.8158-.50419l-2.96428-5.92856c-.22526-.45057-.04266-.99844.40794-1.2237.45008-.22535.99831-.04271,1.22366.4079l2.14848,4.29696,2.14848-4.29696c.22526-.45057.77314-.63325,1.22366-.4079.45061.22526.63321.77314.40794,1.2237l-2.96428,5.92856c-.15454.30899-.47029.50419-.8158.50419Z" fill="#ededed"/>
      <path d="m68.14073,359.75298c-.34551,0-.66126-.1952-.8158-.50419l-2.96428-5.92856c-.22526-.45057-.04266-.99844.40794-1.2237.45016-.22535.9984-.04271,1.22366.4079l2.14848,4.29696,2.14848-4.29696c.22526-.45057.77305-.63325,1.22366-.4079.45061.22526.63321.77314.40794,1.2237l-2.96428,5.92856c-.15454.30899-.47029.50419-.8158.50419Z" fill="#ededed"/>
      <path d="m60.44242,359.75298c-2.13744,0-3.87637-1.73893-3.87637-3.87637s1.73893-3.87637,3.87637-3.87637c.84653,0,1.65102.26819,2.32653.77554.40278.30253.48401.87428.18153,1.27705-.30248.40273-.87432.48401-1.2771.18148-.357-.26815-.78267-.4099-1.23096-.4099-1.13156,0-2.05219.92059-2.05219,2.05219s.92064,2.05219,2.05219,2.05219c.44829,0,.87396-.14176,1.23096-.4099.40269-.30271.97444-.22125,1.2771.18148.30248.40278.22125.97453-.18153,1.27705-.67551.50735-1.48.77554-2.32653.77554Z" fill="#ededed"/>
    </g>
    <rect x="84.11188" y="40" width="28.55155" height="308.02897" rx="2.83465" ry="2.83465" fill="#ededed"/>
    <rect x="45.70445" y="40" width="28.55155" height="308.02897" rx="2.83465" ry="2.83465" fill="#ededed"/>
    <line x1="31.225" y1="64.8652" x2="59.93472" y2="64.8652" fill="none" stroke="#ededed" stroke-linecap="round" stroke-linejoin="round" stroke-width=".8"/>
    <line x1="31.225" y1="334" x2="59.93472" y2="334" fill="none" stroke="#ededed" stroke-linecap="round" stroke-linejoin="round" stroke-width=".8"/>
    <line x1="31.225" y1="304.0961" x2="59.93472" y2="304.0961" fill="none" stroke="#ededed" stroke-linecap="round" stroke-linejoin="round" stroke-width=".8"/>
    <line x1="31.225" y1="274.1922" x2="59.93472" y2="274.1922" fill="none" stroke="#ededed" stroke-linecap="round" stroke-linejoin="round" stroke-width=".8"/>
    <line x1="31.225" y1="244.28829" x2="59.93472" y2="244.28829" fill="none" stroke="#ededed" stroke-linecap="round" stroke-linejoin="round" stroke-width=".8"/>
    <line x1="31.225" y1="214.38439" x2="59.93472" y2="214.38439" fill="none" stroke="#ededed" stroke-linecap="round" stroke-linejoin="round" stroke-width=".8"/>
    <line x1="31.225" y1="184.48049" x2="59.93472" y2="184.48049" fill="none" stroke="#ededed" stroke-linecap="round" stroke-linejoin="round" stroke-width=".8"/>
    <line x1="31.225" y1="154.57659" x2="59.93472" y2="154.57659" fill="none" stroke="#ededed" stroke-linecap="round" stroke-linejoin="round" stroke-width=".8"/>
    <line x1="31.225" y1="124.67269" x2="59.93472" y2="124.67269" fill="none" stroke="#ededed" stroke-linecap="round" stroke-linejoin="round" stroke-width=".8"/>
    <line x1="31.225" y1="94.76878" x2="59.93472" y2="94.76878" fill="none" stroke="#ededed" stroke-linecap="round" stroke-linejoin="round" stroke-width=".8"/>
  </g>
  <g id="uuid-c526ae3b-080a-4bd7-acd4-958327a18565" data-name="FND TXT">
    <g>
      <path d="m35.73047,20.49121c0-.5376.42578-.96289.96387-.96289h2.61426c2.08984,0,3.35352,1.23828,3.35352,3.02783v.0249c0,2.02686-1.57617,3.07812-3.54102,3.07812h-1.46289v1.73926c0,.53809-.42578.96338-.96387.96338s-.96387-.42529-.96387-.96338v-6.90723Zm3.45312,3.45361c.96387,0,1.52734-.57568,1.52734-1.32617v-.0249c0-.86328-.60156-1.32617-1.56445-1.32617h-1.48828v2.67725h1.52539Z" fill="#ebebeb"/>
      <path d="m44.03711,24.5332v-4.1167c0-.53809.42578-.96338.96289-.96338.53906,0,.96387.42529.96387.96338v4.06641c0,1.42627.71289,2.16455,1.88965,2.16455,1.17578,0,1.88867-.71289,1.88867-2.10205v-4.12891c0-.53809.42578-.96338.96387-.96338s.96387.42529.96387.96338v4.0542c0,2.65234-1.48926,3.95361-3.8418,3.95361s-3.79102-1.31396-3.79102-3.89111Z" fill="#ebebeb"/>
      <path d="m53.82324,20.4165c0-.53809.4248-.96338.96387-.96338.53711,0,.96289.42529.96289.96338v6.11865h3.56641c.4873,0,.875.3877.875.87549s-.3877.87598-.875.87598h-4.5293c-.53906,0-.96387-.42529-.96387-.96338v-6.90674Z" fill="#ebebeb"/>
      <path d="m61.59375,27.36084c-.21289-.15039-.36328-.42529-.36328-.72607,0-.5.40039-.88818.90039-.88818.25,0,.42578.0874.55078.17529.66309.48779,1.38867.78809,2.24023.78809.78711,0,1.26367-.3125,1.26367-.82568v-.0249c0-.48828-.30078-.73828-1.76465-1.11377-1.76465-.45068-2.90332-.93848-2.90332-2.67725v-.02539c0-1.58887,1.27734-2.64014,3.06641-2.64014,1.0625,0,1.98926.27539,2.77734.77588.21289.125.42578.3877.42578.76318,0,.50049-.40039.88818-.90137.88818-.1875,0-.33789-.0498-.4873-.1377-.63867-.375-1.23926-.58789-1.83984-.58789-.73828,0-1.12598.33789-1.12598.76367v.02441c0,.57617.375.76367,1.88965,1.15137,1.77637.46289,2.77734,1.10107,2.77734,2.62793v.02441c0,1.73926-1.32617,2.71533-3.21582,2.71533-1.15137,0-2.31445-.3501-3.29004-1.05078Z" fill="#ebebeb"/>
      <path d="m69.9082,27.32324v-6.83203c0-.5376.42578-.96289.96289-.96289h4.85547c.47461,0,.86328.3877.86328.86328s-.38867.85059-.86328.85059h-3.9043v1.77686h3.34082c.47559,0,.86328.3877.86328.86328s-.3877.85107-.86328.85107h-3.34082v1.83887h3.9668c.47461,0,.86328.38818.86328.86328,0,.47559-.38867.85107-.86328.85107h-4.91797c-.53711,0-.96289-.42529-.96289-.96338Z" fill="#ebebeb"/>
      <path d="m78.18457,27.36084c-.21289-.15039-.3623-.42529-.3623-.72607,0-.5.40039-.88818.90039-.88818.25,0,.42578.0874.55078.17529.66211.48779,1.38867.78809,2.23926.78809.78809,0,1.26367-.3125,1.26367-.82568v-.0249c0-.48828-.2998-.73828-1.76465-1.11377-1.76367-.45068-2.90234-.93848-2.90234-2.67725v-.02539c0-1.58887,1.27637-2.64014,3.06543-2.64014,1.06348,0,1.98926.27539,2.77832.77588.21191.125.4248.3877.4248.76318,0,.50049-.40039.88818-.90137.88818-.1875,0-.33789-.0498-.4873-.1377-.6377-.375-1.23926-.58789-1.83887-.58789-.73828,0-1.12695.33789-1.12695.76367v.02441c0,.57617.375.76367,1.88965,1.15137,1.77637.46289,2.77832,1.10107,2.77832,2.62793v.02441c0,1.73926-1.32715,2.71533-3.2168,2.71533-1.15039,0-2.31445-.3501-3.29004-1.05078Z" fill="#ebebeb"/>
    </g>
    <g>
      <path d="m12.2207,45.45898c0-.2373.18164-.41992.41992-.41992h1.44922c1.11133,0,1.80273.62988,1.80273,1.58496v.01367c0,1.06348-.85352,1.61914-1.89746,1.61914h-.94238v1.14502c0,.23047-.18164.41357-.41211.41357-.23828,0-.41992-.18311-.41992-.41357v-3.94287Zm1.80078,2.0459c.63086,0,1.02344-.35254,1.02344-.84668v-.01367c0-.55566-.39941-.84668-1.02344-.84668h-.96875v1.70703h.96875Z" fill="#ebebeb"/>
      <path d="m16.85645,47.76904v-2.35107c0-.22998.18262-.41309.41992-.41309.23047,0,.41309.18311.41309.41309v2.31738c0,.88086.4541,1.34814,1.19922,1.34814.73828,0,1.19336-.44043,1.19336-1.31445v-2.35107c0-.22998.18164-.41309.41992-.41309.23047,0,.41211.18311.41211.41309v2.31055c0,1.41602-.79883,2.12695-2.03906,2.12695-1.23242,0-2.01855-.71094-2.01855-2.08643Z" fill="#ebebeb"/>
      <path d="m22.15332,49.25293c-.09473-.06787-.16309-.18311-.16309-.31836,0-.2168.17676-.38623.39355-.38623.11523,0,.18945.03369.24316.07471.39355.31152.81348.4873,1.32812.4873.51562,0,.83984-.24365.83984-.5957v-.01367c0-.33887-.18945-.52197-1.07031-.7251-1.00879-.24365-1.57812-.54199-1.57812-1.41602v-.01318c0-.81348.67773-1.37549,1.61914-1.37549.5957,0,1.07715.15576,1.50391.43994.0957.05469.18359.16992.18359.33203,0,.2168-.17676.38672-.39355.38672-.08105,0-.14941-.02051-.2168-.06152-.36621-.23682-.71777-.35889-1.09082-.35889-.48828,0-.77148.25049-.77148.5625v.01318c0,.36621.2168.52881,1.13086.74561,1.00195.24365,1.51758.60303,1.51758,1.38867v.01367c0,.88721-.69727,1.41602-1.69336,1.41602-.64453,0-1.25391-.20361-1.78223-.59619Z" fill="#ebebeb"/>
      <path d="m26.83984,45.41797c0-.22998.18164-.41309.41992-.41309.23047,0,.41211.18311.41211.41309v1.59229h2.26367v-1.59229c0-.22998.18262-.41309.41309-.41309.2373,0,.41992.18311.41992.41309v3.98389c0,.23047-.18262.41357-.41992.41357-.23047,0-.41309-.18311-.41309-.41357v-1.61914h-2.26367v1.61914c0,.23047-.18164.41357-.41211.41357-.23828,0-.41992-.18311-.41992-.41357v-3.98389Z" fill="#ebebeb"/>
    </g>
    <g>
      <path d="m89.03809,47.52734v-.01367c0-1.34814,1.0498-2.45215,2.48633-2.45215.71777,0,1.19238.16211,1.62012.46045.10156.07471.2168.2168.2168.41992,0,.28467-.23047.51514-.51562.51514-.14844,0-.24414-.0542-.31836-.1084-.28516-.20312-.58984-.3252-1.03711-.3252-.75781,0-1.36133.6709-1.36133,1.47656v.01367c0,.86719.5957,1.50391,1.43652,1.50391.37988,0,.71777-.09473.98242-.28418v-.67773h-.7041c-.25195,0-.45508-.19629-.45508-.44727,0-.25049.20312-.45361.45508-.45361h1.19141c.29102,0,.52148.22998.52148.52148v1.15186c0,.30469-.11523.51465-.36523.66406-.38672.2373-.94922.47412-1.66016.47412-1.47656,0-2.49316-1.03662-2.49316-2.43896Z" fill="#1f1f1f"/>
      <path d="m94.44629,49.21436l1.65332-3.73291c.11523-.25781.3252-.41309.60938-.41309h.06152c.28418,0,.4873.15527.60254.41309l1.65332,3.73291c.03418.07471.05371.14209.05371.20996,0,.27783-.2168.50146-.49414.50146-.24414,0-.40625-.14258-.50195-.35938l-.31836-.74512h-2.08594l-.33203.7793c-.08789.20312-.26367.3252-.48047.3252-.27148,0-.48145-.2168-.48145-.48779,0-.07471.02637-.14893.06055-.22363Zm2.93359-1.31445l-.65723-1.56494-.65723,1.56494h1.31445Z" fill="#1f1f1f"/>
      <path d="m100.67871,46.10449h-1.00293c-.26367,0-.48047-.2168-.48047-.48096s.2168-.48096.48047-.48096h3.04883c.26465,0,.48145.2168.48145.48096s-.2168.48096-.48145.48096h-1.00195v3.2998c0,.29102-.23047.52148-.52246.52148-.29102,0-.52148-.23047-.52148-.52148v-3.2998Z" fill="#1f1f1f"/>
      <path d="m104.11426,49.36328v-3.69922c0-.29102.23047-.52148.52246-.52148h2.62793c.25781,0,.46777.20996.46777.46777,0,.25684-.20996.46045-.46777.46045h-2.11426v.96191h1.80957c.25684,0,.46777.20996.46777.46729,0,.25781-.21094.46094-.46777.46094h-1.80957v.99609h2.14844c.25781,0,.4668.20996.4668.46729s-.20898.46045-.4668.46045h-2.66211c-.29199,0-.52246-.22998-.52246-.52148Z" fill="#1f1f1f"/>
    </g>
    <g>
      <path d="m52.92676,46.10449h-1.00293c-.26367,0-.48047-.2168-.48047-.48096s.2168-.48096.48047-.48096h3.04883c.26465,0,.48145.2168.48145.48096s-.2168.48096-.48145.48096h-1.00195v3.2998c0,.29102-.23047.52148-.52246.52148-.29102,0-.52148-.23047-.52148-.52148v-3.2998Z" fill="#1f1f1f"/>
      <path d="m56.3623,45.66406c0-.29102.23047-.52148.52246-.52148h1.64551c.60254,0,1.07129.16943,1.38184.48096.26465.26416.40723.63721.40723,1.08398v.01367c0,.74512-.37305,1.20557-.94824,1.44287l.72461.88086c.10156.12891.16895.2373.16895.39941,0,.2915-.24316.48145-.49414.48145-.2373,0-.39355-.11523-.51465-.271l-1.0166-1.2876h-.83301v1.03711c0,.29102-.23047.52148-.52148.52148-.29199,0-.52246-.23047-.52246-.52148v-3.74023Zm2.10059,1.78223c.50781,0,.79883-.27148.79883-.6709v-.01367c0-.44727-.31055-.67773-.81934-.67773h-1.03613v1.3623h1.05664Z" fill="#1f1f1f"/>
      <path d="m61.54199,45.62354c0-.2915.22949-.52148.52148-.52148s.52148.22998.52148.52148v3.78076c0,.29102-.22949.52148-.52148.52148s-.52148-.23047-.52148-.52148v-3.78076Z" fill="#1f1f1f"/>
      <path d="m63.74219,47.52734v-.01367c0-1.34814,1.05078-2.45215,2.48633-2.45215.71875,0,1.19238.16211,1.61914.46045.10156.07471.2168.2168.2168.41992,0,.28467-.23047.51514-.51465.51514-.14941,0-.24316-.0542-.31836-.1084-.28418-.20312-.58887-.3252-1.03613-.3252-.75977,0-1.3623.6709-1.3623,1.47656v.01367c0,.86719.59668,1.50391,1.43652,1.50391.37891,0,.71777-.09473.98242-.28418v-.67773h-.70508c-.25,0-.45312-.19629-.45312-.44727,0-.25049.20312-.45361.45312-.45361h1.19336c.29102,0,.52148.22998.52148.52148v1.15186c0,.30469-.11523.51465-.36621.66406-.38574.2373-.94824.47412-1.66016.47412-1.47656,0-2.49316-1.03662-2.49316-2.43896Z" fill="#1f1f1f"/>
    </g>
  </g>
</svg>