<?xml version="1.0" encoding="UTF-8" standalone="no"?>
<svg
   xmlns:dc="http://purl.org/dc/elements/1.1/"
   xmlns:cc="http://creativecommons.org/ns#"
   xmlns:rdf="http://www.w3.org/1999/02/22-rdf-syntax-ns#"
   xmlns:svg="http://www.w3.org/2000/svg"
   xmlns="http://www.w3.org/2000/svg"
   xmlns:sodipodi="http://sodipodi.sourceforge.net/DTD/sodipodi-0.dtd"
   xmlns:inkscape="http://www.inkscape.org/namespaces/inkscape"
   width="120"
   height="380"
   viewBox="0 0 120 380"
   version="1.1"
   id="svg123"
   sodipodi:docname="PULSES.svg"
   inkscape:version="0.92.3 (2405546, 2018-03-11)">
  <metadata
     id="metadata127">
    <rdf:RDF>
      <cc:Work
         rdf:about="">
        <dc:format>image/svg+xml</dc:format>
        <dc:type
           rdf:resource="http://purl.org/dc/dcmitype/StillImage" />
      </cc:Work>
    </rdf:RDF>
  </metadata>
  <sodipodi:namedview
     pagecolor="#ffffff"
     bordercolor="#666666"
     borderopacity="1"
     objecttolerance="10"
     gridtolerance="10"
     guidetolerance="10"
     inkscape:pageopacity="0"
     inkscape:pageshadow="2"
     inkscape:window-width="716"
     inkscape:window-height="480"
     id="namedview125"
     showgrid="false"
     inkscape:zoom="0.62105263"
     inkscape:cx="60"
     inkscape:cy="190"
     inkscape:window-x="0"
     inkscape:window-y="0"
     inkscape:window-maximized="0"
     inkscape:current-layer="svg123" />
  <defs
     id="defs7">
    <linearGradient
       id="bdce50d6-b89f-47d4-9373-d598feae793c"
       x1="60"
       x2="60"
       y2="380"
       gradientUnits="userSpaceOnUse">
      <stop
         offset="0"
         stop-color="#ebebeb"
         id="stop2" />
      <stop
         offset="1"
         stop-color="#e1e1e1"
         id="stop4" />
    </linearGradient>
  </defs>
  <g
     id="ef7a5a91-e61a-4278-b2be-30a4bea66505"
     data-name="FND BG">
    <rect
       width="120"
       height="380"
       fill="url(#bdce50d6-b89f-47d4-9373-d598feae793c)"
       id="rect9" />
  </g>
  <g
     id="f4ac4ff2-c523-4270-9be7-13af6e9b89ce"
     data-name="FND GRAPH">
    <g
       id="g20">
      <circle
         cx="60.50165"
         cy="355.83101"
         r="1.18571"
         fill="#1f1f1f"
         id="circle12" />
      <path
         d="M51.85927,359.753a.91214.91214,0,0,1-.8158-.50418l-2.96428-5.92857a.91209.91209,0,0,1,1.6316-.8158l2.14848,4.297,2.14848-4.297a.91209.91209,0,0,1,1.6316.8158l-2.96428,5.92857A.91211.91211,0,0,1,51.85927,359.753Z"
         fill="#1f1f1f"
         id="path14" />
      <path
         d="M68.14073,359.753a.91211.91211,0,0,1-.8158-.50418l-2.96428-5.92857a.91209.91209,0,0,1,1.6316-.8158l2.14848,4.297,2.14848-4.297a.91209.91209,0,0,1,1.6316.8158l-2.96428,5.92857A.91214.91214,0,0,1,68.14073,359.753Z"
         fill="#1f1f1f"
         id="path16" />
      <path
         d="M60.44242,359.753a3.87637,3.87637,0,1,1,2.32653-6.97719.91209.91209,0,1,1-1.09557,1.45854,2.034,2.034,0,0,0-1.231-.40991,2.0522,2.0522,0,1,0,0,4.10439,2.034,2.034,0,0,0,1.231-.40991.91209.91209,0,1,1,1.09557,1.45854A3.8448,3.8448,0,0,1,60.44242,359.753Z"
         fill="#1f1f1f"
         id="path18" />
    </g>
    <rect
       x="84.11188"
       y="40"
       width="28.55155"
       height="308.02897"
       rx="2.83465"
       fill="#1f1f1f"
       id="rect22" />
    <rect
       x="45.70445"
       y="40"
       width="28.55155"
       height="308.02897"
       rx="2.83465"
       fill="#1f1f1f"
       id="rect24" />
    <line
       x1="31.225"
       y1="64.8652"
       x2="59.93472"
       y2="64.8652"
       fill="none"
       stroke="#1f1f1f"
       stroke-linecap="round"
       stroke-linejoin="round"
       stroke-width="0.8"
       id="line26" />
    <line
       x1="31.225"
       y1="334"
       x2="59.93472"
       y2="334"
       fill="none"
       stroke="#1f1f1f"
       stroke-linecap="round"
       stroke-linejoin="round"
       stroke-width="0.8"
       id="line28" />
    <line
       x1="31.225"
       y1="304.0961"
       x2="59.93472"
       y2="304.0961"
       fill="none"
       stroke="#1f1f1f"
       stroke-linecap="round"
       stroke-linejoin="round"
       stroke-width="0.8"
       id="line30" />
    <line
       x1="31.225"
       y1="274.1922"
       x2="59.93472"
       y2="274.1922"
       fill="none"
       stroke="#1f1f1f"
       stroke-linecap="round"
       stroke-linejoin="round"
       stroke-width="0.8"
       id="line32" />
    <line
       x1="31.225"
       y1="244.28829"
       x2="59.93472"
       y2="244.28829"
       fill="none"
       stroke="#1f1f1f"
       stroke-linecap="round"
       stroke-linejoin="round"
       stroke-width="0.8"
       id="line34" />
    <line
       x1="31.225"
       y1="214.38439"
       x2="59.93472"
       y2="214.38439"
       fill="none"
       stroke="#1f1f1f"
       stroke-linecap="round"
       stroke-linejoin="round"
       stroke-width="0.8"
       id="line36" />
    <line
       x1="31.225"
       y1="184.48049"
       x2="59.93472"
       y2="184.48049"
       fill="none"
       stroke="#1f1f1f"
       stroke-linecap="round"
       stroke-linejoin="round"
       stroke-width="0.8"
       id="line38" />
    <line
       x1="31.225"
       y1="154.57659"
       x2="59.93472"
       y2="154.57659"
       fill="none"
       stroke="#1f1f1f"
       stroke-linecap="round"
       stroke-linejoin="round"
       stroke-width="0.8"
       id="line40" />
    <line
       x1="31.225"
       y1="124.67269"
       x2="59.93472"
       y2="124.67269"
       fill="none"
       stroke="#1f1f1f"
       stroke-linecap="round"
       stroke-linejoin="round"
       stroke-width="0.8"
       id="line42" />
    <line
       x1="31.225"
       y1="94.76878"
       x2="59.93472"
       y2="94.76878"
       fill="none"
       stroke="#1f1f1f"
       stroke-linecap="round"
       stroke-linejoin="round"
       stroke-width="0.8"
       id="line44" />
  </g>
  <g
     id="f45f0899-80e9-413d-b7bb-637a8fd451bd"
     data-name="FND TXT">
    <g
       id="g59">
      <path
         d="M35.73047,20.49121a.95607.95607,0,0,1,.96387-.96289h2.61425c2.08985,0,3.35352,1.23828,3.35352,3.02783v.0249c0,2.02686-1.57617,3.07813-3.541,3.07813H37.6582v1.73926a.96387.96387,0,0,1-1.92773,0Zm3.45312,3.45361a1.35677,1.35677,0,0,0,1.52735-1.32617v-.0249c0-.86328-.60156-1.32617-1.56446-1.32617H37.6582v2.67724Z"
         fill="#1f1f1f"
         id="path47" />
      <path
         d="M44.03711,24.5332V20.4165a.96338.96338,0,1,1,1.92676,0v4.06641c0,1.42627.71289,2.16455,1.88965,2.16455,1.17578,0,1.88867-.71289,1.88867-2.102V20.4165a.96387.96387,0,0,1,1.92773,0v4.0542c0,2.65235-1.48926,3.95362-3.8418,3.95362S44.03711,27.11035,44.03711,24.5332Z"
         fill="#1f1f1f"
         id="path49" />
      <path
         d="M53.82324,20.4165a.96338.96338,0,1,1,1.92676,0v6.11866h3.56641a.87573.87573,0,0,1,0,1.75146h-4.5293a.95557.95557,0,0,1-.96387-.96338Z"
         fill="#1f1f1f"
         id="path51" />
      <path
         d="M61.59375,27.36084a.9.9,0,0,1-.36328-.72607.88664.88664,0,0,1,.90039-.88819.92557.92557,0,0,1,.55078.1753,3.6945,3.6945,0,0,0,2.24024.78808c.7871,0,1.26367-.3125,1.26367-.82568v-.0249c0-.48829-.30078-.73829-1.76465-1.11377-1.76465-.45069-2.90332-.93848-2.90332-2.67725V22.043c0-1.58887,1.27734-2.64014,3.0664-2.64014a5.0854,5.0854,0,0,1,2.77735.77588.87743.87743,0,0,1,.42578.76318.88657.88657,0,0,1-.90137.88819.91783.91783,0,0,1-.4873-.1377,3.651,3.651,0,0,0-1.83985-.58789c-.73828,0-1.126.33789-1.126.76367v.02442c0,.57617.375.76367,1.88965,1.15137,1.77636.46289,2.77734,1.10107,2.77734,2.62793v.02441c0,1.73926-1.32617,2.71533-3.21582,2.71533A5.64988,5.64988,0,0,1,61.59375,27.36084Z"
         fill="#1f1f1f"
         id="path53" />
      <path
         d="M69.9082,27.32324v-6.832a.95585.95585,0,0,1,.96289-.96289h4.85547a.86544.86544,0,0,1,.86328.86328.85465.85465,0,0,1-.86328.85059H71.82227V23.019h3.34082a.86482.86482,0,0,1,.86328.86328.85446.85446,0,0,1-.86328.85108H71.82227v1.83887h3.96679a.86575.86575,0,0,1,.86328.86328.85506.85506,0,0,1-.86328.85107h-4.918A.956.956,0,0,1,69.9082,27.32324Z"
         fill="#1f1f1f"
         id="path55" />
      <path
         d="M78.18457,27.36084a.89918.89918,0,0,1-.3623-.72607.88664.88664,0,0,1,.90039-.88819.92557.92557,0,0,1,.55078.1753A3.69169,3.69169,0,0,0,81.5127,26.71c.78808,0,1.26367-.3125,1.26367-.82568v-.0249c0-.48829-.29981-.73829-1.76465-1.11377-1.76367-.45069-2.90234-.93848-2.90234-2.67725V22.043c0-1.58887,1.27636-2.64014,3.06542-2.64014a5.0887,5.0887,0,0,1,2.77832.77588.89171.89171,0,0,1-.47656,1.65137.91783.91783,0,0,1-.4873-.1377,3.64781,3.64781,0,0,0-1.83887-.58789c-.73828,0-1.127.33789-1.127.76367v.02442c0,.57617.375.76367,1.88965,1.15137,1.77636.46289,2.77832,1.10107,2.77832,2.62793v.02441c0,1.73926-1.32715,2.71533-3.2168,2.71533A5.65209,5.65209,0,0,1,78.18457,27.36084Z"
         fill="#1f1f1f"
         id="path57" />
    </g>
    <g
       id="g69">
      <path
         d="M12.2207,45.459a.41262.41262,0,0,1,.41992-.41992h1.44922a1.59215,1.59215,0,0,1,1.80274,1.585v.01368c0,1.06347-.85352,1.61914-1.89746,1.61914h-.94239v1.145a.416.416,0,0,1-.832,0Zm1.80078,2.0459c.63086,0,1.02344-.35254,1.02344-.84668v-.01367c0-.55566-.39941-.84668-1.02344-.84668h-.96875v1.707Z"
         fill="#1f1f1f"
         id="path61" />
      <path
         d="M16.85645,47.769V45.418a.41651.41651,0,0,1,.833,0v2.31738c0,.88086.4541,1.34815,1.19922,1.34815.73828,0,1.19336-.44043,1.19336-1.31446V45.418a.416.416,0,0,1,.832,0v2.31055A1.89315,1.89315,0,0,1,18.875,49.85547,1.86928,1.86928,0,0,1,16.85645,47.769Z"
         fill="#1f1f1f"
         id="path63" />
      <path
         d="M22.15332,49.25293a.3883.3883,0,0,1,.23047-.70459.38055.38055,0,0,1,.24316.07471,2.059,2.059,0,0,0,1.32813.4873c.51562,0,.83984-.24365.83984-.5957V48.501c0-.33887-.18945-.522-1.07031-.7251-1.00879-.24365-1.57813-.542-1.57813-1.416v-.01318a1.45047,1.45047,0,0,1,1.61914-1.37549,2.61237,2.61237,0,0,1,1.50391.43994.37625.37625,0,0,1,.18359.332.38847.38847,0,0,1-.39355.38672.4.4,0,0,1-.2168-.06152,1.97457,1.97457,0,0,0-1.09082-.35889c-.48828,0-.77148.25049-.77148.5625v.01319c0,.36621.2168.5288,1.13086.7456,1.002.24365,1.51758.603,1.51758,1.38867v.01368c0,.8872-.69727,1.416-1.69336,1.416A2.95384,2.95384,0,0,1,22.15332,49.25293Z"
         fill="#1f1f1f"
         id="path65" />
      <path
         d="M26.83984,45.418a.416.416,0,0,1,.832,0v1.59228h2.26367V45.418a.41651.41651,0,0,1,.833,0v3.98389a.41651.41651,0,0,1-.833,0V47.78271H27.67188v1.61915a.416.416,0,0,1-.832,0Z"
         fill="#1f1f1f"
         id="path67" />
    </g>
    <g
       id="g79">
      <path
         d="M89.03809,47.52734v-.01367a2.43364,2.43364,0,0,1,2.48632-2.45215,2.63147,2.63147,0,0,1,1.62012.46045.522.522,0,0,1,.2168.41992.515.515,0,0,1-.51563.51514.50871.50871,0,0,1-.31836-.1084,1.664,1.664,0,0,0-1.03711-.32519A1.42476,1.42476,0,0,0,90.12891,47.5v.01367a1.4206,1.4206,0,0,0,1.43652,1.50391,1.66639,1.66639,0,0,0,.98242-.28418v-.67774h-.7041a.44831.44831,0,0,1-.45508-.44726.454.454,0,0,1,.45508-.45361h1.19141a.51738.51738,0,0,1,.52148.52148v1.15185a.70646.70646,0,0,1-.36523.66407,3.15732,3.15732,0,0,1-1.66016.47412A2.37375,2.37375,0,0,1,89.03809,47.52734Z"
         fill="#f0f0f0"
         id="path71" />
      <path
         d="M94.44629,49.21436l1.65332-3.73291a.64394.64394,0,0,1,.60937-.41309h.06153a.635.635,0,0,1,.60254.41309l1.65332,3.73291a.50283.50283,0,0,1,.05371.21.49447.49447,0,0,1-.49414.50146.53286.53286,0,0,1-.502-.35937l-.31836-.74512H95.67969l-.332.7793a.51165.51165,0,0,1-.48047.32519.48012.48012,0,0,1-.48145-.48779A.548.548,0,0,1,94.44629,49.21436Zm2.93359-1.31446L96.72266,46.335l-.65723,1.56494Z"
         fill="#f0f0f0"
         id="path73" />
      <path
         d="M100.67871,46.10449H99.67578a.481.481,0,0,1,0-.96191h3.04883a.481.481,0,1,1,0,.96191h-1.00195V49.4043a.522.522,0,0,1-1.044,0Z"
         fill="#f0f0f0"
         id="path75" />
      <path
         d="M104.11426,49.36328V45.66406a.5179.5179,0,0,1,.52246-.52148h2.62793a.46845.46845,0,0,1,.46777.46777.46287.46287,0,0,1-.46777.46045h-2.11426v.96191H106.96a.469.469,0,0,1,.46777.46729.46327.46327,0,0,1-.46777.46094h-1.80957V48.957h2.14844a.46751.46751,0,0,1,.46679.46729.46172.46172,0,0,1-.46679.46045h-2.66211A.5176.5176,0,0,1,104.11426,49.36328Z"
         fill="#f0f0f0"
         id="path77" />
    </g>
    <g
       id="g89">
      <path
         d="M52.92676,46.10449H51.92383a.481.481,0,0,1,0-.96191h3.04883a.481.481,0,1,1,0,.96191h-1.002V49.4043a.522.522,0,0,1-1.04394,0Z"
         fill="#f0f0f0"
         id="path81" />
      <path
         d="M56.3623,45.66406a.5179.5179,0,0,1,.52247-.52148h1.6455a1.88865,1.88865,0,0,1,1.38184.481,1.48781,1.48781,0,0,1,.40723,1.084v.01367a1.44828,1.44828,0,0,1-.94825,1.44287l.72461.88086a.60862.60862,0,0,1,.169.39942.485.485,0,0,1-.49414.48144.62262.62262,0,0,1-.51465-.271l-1.0166-1.2876h-.833V49.4043a.522.522,0,0,1-1.044,0Zm2.10059,1.78223c.50781,0,.79883-.27149.79883-.6709v-.01367c0-.44727-.31055-.67774-.81934-.67774H57.40625v1.36231Z"
         fill="#f0f0f0"
         id="path83" />
      <path
         d="M61.542,45.62354a.52149.52149,0,1,1,1.043,0V49.4043a.52149.52149,0,0,1-1.043,0Z"
         fill="#f0f0f0"
         id="path85" />
      <path
         d="M63.74219,47.52734v-.01367a2.43424,2.43424,0,0,1,2.48633-2.45215,2.62442,2.62442,0,0,1,1.61914.46045.522.522,0,0,1,.21679.41992.51482.51482,0,0,1-.51465.51514.50866.50866,0,0,1-.31835-.1084,1.6591,1.6591,0,0,0-1.03614-.32519A1.42426,1.42426,0,0,0,64.833,47.5v.01367a1.42116,1.42116,0,0,0,1.43652,1.50391,1.66848,1.66848,0,0,0,.98242-.28418v-.67774h-.70507a.44786.44786,0,0,1-.45313-.44726.45356.45356,0,0,1,.45313-.45361h1.19335a.51738.51738,0,0,1,.52149.52148v1.15185a.70553.70553,0,0,1-.36621.66407,3.15165,3.15165,0,0,1-1.66016.47412A2.37375,2.37375,0,0,1,63.74219,47.52734Z"
         fill="#f0f0f0"
         id="path87" />
    </g>
  </g>
  <g
     id="aadfc017-bc7c-4b4c-8e39-d82801fa3806"
     data-name="components"
     inkscape:groupmode="layer"
     style="display:none">
    <circle
       id="a4f03375-b3d9-482f-a1be-c74369bf81c6"
       data-name="Gate01#PJ301MPort"
       cx="98.387657"
       cy="64.865196"
       r="5"
       style="fill:#0000ff" />
    <circle
       id="add59a36-e480-4f1a-a56c-0170fa5bf559"
       data-name="Gat10#PJ301MPort"
       cx="98.387657"
       cy="334"
       r="5"
       style="fill:#0000ff" />
    <circle
       id="f618cd01-288f-42bb-b945-650e6eaf0bd4"
       data-name="Gate09#PJ301MPort"
       cx="98.387657"
       cy="304.0961"
       r="5"
       style="fill:#0000ff" />
    <circle
       id="ae1d2b54-59a2-45b4-969d-61bdb22984c1"
       data-name="Gate08#PJ301MPort"
       cx="98.387657"
       cy="274.1922"
       r="5"
       style="fill:#0000ff" />
    <circle
       id="f9463877-f193-466c-aa96-48c2425070de"
       data-name="Gate07#PJ301MPort"
       cx="98.387657"
       cy="244.28828"
       r="5"
       style="fill:#0000ff" />
    <circle
       id="fbcd65ad-bf9c-4c22-ac16-1c653b29e0a8"
       data-name="Gate06#PJ301MPort"
       cx="98.387657"
       cy="214.38438"
       r="5"
       style="fill:#0000ff" />
    <circle
       id="fc8ccb70-cf44-4573-a68e-92e002384bf7"
       data-name="Gate05#PJ301MPort"
       cx="98.387657"
       cy="184.48048"
       r="5"
       style="fill:#0000ff" />
    <circle
       id="a899ca9b-b178-4013-89b9-cabd17230738"
       data-name="Gate04#PJ301MPort"
       cx="98.387657"
       cy="154.57658"
       r="5"
       style="fill:#0000ff" />
    <circle
       id="abe58288-b73e-4fe5-a840-b2106b136fc8"
       data-name="Gate03#PJ301MPort"
       cx="98.387657"
       cy="124.67269"
       r="5"
       style="fill:#0000ff" />
    <circle
       id="f7cd9a37-5437-42fc-8c23-4e453c7f594a"
       data-name="Gate02#PJ301MPort"
       cx="98.387657"
       cy="94.768784"
       r="5"
       style="fill:#0000ff" />
    <circle
       id="a261c396-d364-4fd5-85e7-565c5877293d"
       data-name="Trig01#PJ301MPort"
       cx="59.980221"
       cy="64.865196"
       r="5"
       style="fill:#0000ff" />
    <circle
       id="a4d88dc8-2f62-40b5-a073-98d3f0ff178c"
       data-name="Trig10#PJ301MPort"
       cx="59.980221"
       cy="334"
       r="5"
       style="fill:#0000ff" />
    <circle
       id="b0f2ecc1-c21e-437e-bef0-81f9784eef17"
       data-name="Trig09#PJ301MPort"
       cx="59.980221"
       cy="304.0961"
       r="5"
       style="fill:#0000ff" />
    <circle
       id="f2cdba4f-df5a-413d-8254-2c083a05672e"
       data-name="Trig08#PJ301MPort"
       cx="59.980221"
       cy="274.1922"
       r="5"
       style="fill:#0000ff" />
    <circle
       id="b0e4543a-283a-4ee5-aa0a-cfbcdb2c2560"
       data-name="Trig07#PJ301MPort"
       cx="59.980221"
       cy="244.28828"
       r="5"
       style="fill:#0000ff" />
    <circle
       id="fa68b598-996b-45c4-84df-70483005b46f"
       data-name="Trig06#PJ301MPort"
       cx="59.980221"
       cy="214.38438"
       r="5"
       style="fill:#0000ff" />
    <circle
       id="e6647dc9-59ee-4223-be7b-b16bfb18d3df"
       data-name="Trig05#PJ301MPort"
       cx="59.980221"
       cy="184.48048"
       r="5"
       style="fill:#0000ff" />
    <circle
       id="f5e642f3-17c9-4067-b8c0-ed867ca02616"
       data-name="Trig04#PJ301MPort"
       cx="59.980221"
       cy="154.57658"
       r="5"
       style="fill:#0000ff" />
    <circle
       id="befa4269-2d7c-4a02-909d-40c31224ad8a"
       data-name="Trig03#PJ301MPort"
       cx="59.980221"
       cy="124.67269"
       r="5"
       style="fill:#0000ff" />
    <circle
       id="a04ec808-cc20-416c-8cc3-376ac8200d76"
       data-name="Trig02#PJ301MPort"
       cx="59.980221"
       cy="94.768784"
       r="5"
       style="fill:#0000ff" />
    <circle
       id="b4ac42b7-d402-46ad-9d0b-38dfcae73ede"
       data-name="Push01#LEDLightBezel"
       cx="21.497219"
       cy="64.865196"
       r="5"
       style="fill:#ff0000" />
    <circle
       id="e2132cfd-7ee5-4cce-acec-e9d7e093bf94"
       data-name="Push10#LEDLightBezel"
       cx="21.497219"
       cy="334"
       r="5"
       style="fill:#ff0000" />
    <circle
       id="e71e7e83-2df5-4438-b683-948dac9fbfd7"
       data-name="Push09#LEDLightBezel"
       cx="21.497219"
       cy="304.0961"
       r="5"
       style="fill:#ff0000" />
    <circle
       id="af359eeb-9349-4bfd-9915-2ea90a4e6c28"
       data-name="Push08#LEDLightBezel"
       cx="21.497219"
       cy="274.1922"
       r="5"
       style="fill:#ff0000" />
    <circle
       id="b2464ca6-efc3-4832-9d97-d1b74ea57aa1"
       data-name="Push07#LEDLightBezel"
       cx="21.497219"
       cy="244.28828"
       r="5"
       style="fill:#ff0000" />
    <circle
       id="a2a25d30-8f54-4f17-af0f-7bc666d07bff"
       data-name="Push06#LEDLightBezel"
       cx="21.497219"
       cy="214.38438"
       r="5"
       style="fill:#ff0000" />
    <circle
       id="b24c0b06-139b-4b63-b8d4-4c434c0db5e2"
       data-name="Push05#LEDLightBezel"
       cx="21.497219"
       cy="184.48048"
       r="5"
       style="fill:#ff0000" />
    <circle
       id="ac4ed106-9c6e-4900-9cf7-2c819bb878d2"
       data-name="Push04#LEDLightBezel"
       cx="21.497219"
       cy="154.57658"
       r="5"
       style="fill:#ff0000" />
    <circle
       id="b4b25169-4ca1-46c7-a819-61c163cc9ae7"
       data-name="Push03#LEDLightBezel"
       cx="21.497219"
       cy="124.67269"
       r="5"
       style="fill:#ff0000" />
    <circle
       id="f6209eb2-3b38-4460-8884-e2669fba9ce9"
       data-name="Push02#LEDLightBezel"
       cx="21.497219"
       cy="94.768784"
       r="5"
       style="fill:#ff0000" />
  </g>
</svg>
