<?xml version="1.0" encoding="UTF-8"?>
<svg xmlns="http://www.w3.org/2000/svg" width="45" height="380" xmlns:xlink="http://www.w3.org/1999/xlink" viewBox="0 0 45 380">
  <defs>
    <linearGradient id="uuid-2fb96e8e-8b46-4f6c-8943-119b4ddb7373" x1="22.5" y1="0" x2="22.5" y2="380" gradientUnits="userSpaceOnUse">
      <stop offset="0" stop-color="#2a2a2b"/>
      <stop offset="1" stop-color="#171717"/>
    </linearGradient>
  </defs>
  <g id="uuid-fae83288-4cda-433d-bcc3-3eb23ddb100c" data-name="FND BG">
    <rect width="45" height="380" fill="url(#uuid-2fb96e8e-8b46-4f6c-8943-119b4ddb7373)"/>
  </g>
  <g id="uuid-703fd6df-763d-4545-94b0-c8d69647f809" data-name="FND GRAPH">
    <path d="m23.32369,162.5081l1.65796-2.87167c.14313-.24791-.03578-.55779-.32204-.55779h-3.31592c-.28626,0-.46517.30989-.32204.55779l1.65796,2.87167c.14313.24791.50096.24791.64409,0Z" fill="#ededed"/>
    <rect x="8.22422" y="309.05634" width="28.55155" height="39.15691" rx="2.83465" ry="2.83465" fill="#ededed"/>
    <rect x="8.22422" y="261.07121" width="28.55155" height="39.15691" rx="2.83465" ry="2.83465" fill="#ededed"/>
    <g>
      <circle cx="23.00165" cy="355.83101" r="1.18571" fill="#ededed"/>
      <path d="m14.35927,359.75298c-.34551,0-.66126-.1952-.8158-.50419l-2.96428-5.92856c-.22526-.45057-.04266-.99844.40794-1.2237.45008-.22535.99831-.04271,1.22366.4079l2.14848,4.29696,2.14848-4.29696c.22526-.45057.77314-.63325,1.22366-.4079.45061.22526.63321.77314.40794,1.2237l-2.96428,5.92856c-.15454.30899-.47029.50419-.8158.50419Z" fill="#ededed"/>
      <path d="m30.64073,359.75298c-.34551,0-.66126-.1952-.8158-.50419l-2.96428-5.92856c-.22526-.45057-.04266-.99844.40794-1.2237.45016-.22535.9984-.04271,1.22366.4079l2.14848,4.29696,2.14848-4.29696c.22526-.45057.77305-.63325,1.22366-.4079.45061.22526.63321.77314.40794,1.2237l-2.96428,5.92856c-.15454.30899-.47029.50419-.8158.50419Z" fill="#ededed"/>
      <path d="m22.94242,359.75298c-2.13744,0-3.87637-1.73893-3.87637-3.87637s1.73893-3.87637,3.87637-3.87637c.84653,0,1.65102.26819,2.32653.77554.40278.30253.48401.87428.18153,1.27705-.30248.40273-.87432.48401-1.2771.18148-.357-.26815-.78267-.4099-1.23096-.4099-1.13156,0-2.05219.92059-2.05219,2.05219s.92064,2.05219,2.05219,2.05219c.44829,0,.87396-.14176,1.23096-.4099.40269-.30271.97444-.22125,1.2771.18148.30248.40278.22125.97453-.18153,1.27705-.67551.50735-1.48.77554-2.32653.77554Z" fill="#ededed"/>
    </g>
  </g>
  <g id="uuid-349c3be1-a6cc-4720-ae30-2e83adc59d7f" data-name="FND TXT">
    <g>
      <path d="m5.71386,20.49121c0-.5376.42578-.96289.96387-.96289h2.61426c2.08984,0,3.35352,1.23828,3.35352,3.02783v.0249c0,2.02686-1.57617,3.07812-3.54102,3.07812h-1.46387v1.73926c0,.53809-.42578.96338-.96289.96338-.53809,0-.96387-.42529-.96387-.96338v-6.90723Zm3.45312,3.45361c.96387,0,1.52637-.57568,1.52637-1.32617v-.0249c0-.86328-.60059-1.32617-1.56348-1.32617h-1.48926v2.67725h1.52637Z" fill="#ebebeb"/>
      <path d="m14.0205,24.5332v-4.1167c0-.53809.4248-.96338.96289-.96338s.96387.42529.96387.96338v4.06641c0,1.42627.71289,2.16455,1.88867,2.16455,1.17676,0,1.88965-.71289,1.88965-2.10205v-4.12891c0-.53809.42578-.96338.96387-.96338s.96289.42529.96289.96338v4.0542c0,2.65234-1.48926,3.95361-3.84082,3.95361-2.35254,0-3.79102-1.31396-3.79102-3.89111Z" fill="#ebebeb"/>
      <path d="m23.55956,27.36084c-.21289-.15039-.3623-.42529-.3623-.72607,0-.5.40039-.88818.90039-.88818.25,0,.42578.0874.55078.17529.66309.48779,1.38867.78809,2.23926.78809.78809,0,1.26367-.3125,1.26367-.82568v-.0249c0-.48828-.2998-.73828-1.76367-1.11377-1.76465-.45068-2.90332-.93848-2.90332-2.67725v-.02539c0-1.58887,1.27637-2.64014,3.06543-2.64014,1.06348,0,1.98926.27539,2.77832.77588.21191.125.4248.3877.4248.76318,0,.50049-.40039.88818-.90039.88818-.1875,0-.33789-.0498-.48828-.1377-.6377-.375-1.23828-.58789-1.83887-.58789-.73828,0-1.12598.33789-1.12598.76367v.02441c0,.57617.375.76367,1.88867,1.15137,1.77734.46289,2.77832,1.10107,2.77832,2.62793v.02441c0,1.73926-1.32715,2.71533-3.21582,2.71533-1.15137,0-2.31543-.3501-3.29102-1.05078Z" fill="#ebebeb"/>
      <path d="m31.87402,20.4165c0-.53809.42578-.96338.96387-.96338s.96387.42529.96387.96338v2.57764h3.55273v-2.57764c0-.53809.42578-.96338.96387-.96338s.96289.42529.96289.96338v6.98193c0,.53809-.4248.96338-.96289.96338s-.96387-.42529-.96387-.96338v-2.62793h-3.55273v2.62793c0,.53809-.42578.96338-.96387.96338s-.96387-.42529-.96387-.96338v-6.98193Z" fill="#ebebeb"/>
    </g>
    <g>
      <path d="m13.15038,316.55127v-.01367c0-1.34814,1.05029-2.45264,2.48633-2.45264.71826,0,1.19238.16309,1.61963.46094.10156.07422.2168.2168.2168.41992,0,.28467-.23047.51514-.51514.51514-.14893,0-.24365-.0542-.31836-.1084-.28467-.20361-.58936-.3252-1.03662-.3252-.75879,0-1.36182.67041-1.36182,1.47705v.01318c0,.86719.59619,1.50439,1.43652,1.50439.37939,0,.71777-.09521.98242-.28467v-.67773h-.70459c-.25098,0-.4541-.19629-.4541-.44678,0-.25098.20312-.4541.4541-.4541h1.19238c.29102,0,.52148.23047.52148.52148v1.15186c0,.30518-.11523.51514-.36572.66406-.38623.23682-.94873.47412-1.66016.47412-1.47656,0-2.49316-1.03662-2.49316-2.43896Z" fill="#1f1f1f"/>
      <path d="m18.55859,318.23828l1.65332-3.73291c.11523-.25732.3252-.41357.60986-.41357h.06104c.28418,0,.4873.15625.60254.41357l1.65332,3.73291c.03369.07422.0542.14209.0542.20996,0,.27783-.2168.50146-.49463.50146-.24414,0-.40625-.14209-.50146-.35889l-.31836-.74561h-2.08643l-.33203.7793c-.08838.20312-.26416.3252-.48096.3252-.271,0-.48096-.2168-.48096-.48779,0-.07471.02686-.14941.06055-.22363Zm2.93359-1.31445l-.65723-1.56494-.65723,1.56494h1.31445Z" fill="#1f1f1f"/>
      <path d="m24.79101,315.12842h-1.00244c-.26416,0-.48096-.2168-.48096-.48096s.2168-.48096.48096-.48096h3.04834c.26465,0,.48145.2168.48145.48096s-.2168.48096-.48145.48096h-1.00244v3.29932c0,.2915-.23047.52197-.52197.52197-.29102,0-.52148-.23047-.52148-.52197v-3.29932Z" fill="#1f1f1f"/>
      <path d="m28.22656,318.38721v-3.69873c0-.2915.23047-.52197.52197-.52197h2.62842c.25781,0,.46777.20996.46777.46729,0,.25781-.20996.46094-.46777.46094h-2.11377v.96191h1.80908c.25732,0,.46729.20996.46729.46777,0,.25732-.20996.46045-.46729.46045h-1.80908v.99561h2.14795c.25732,0,.46729.21045.46729.46777s-.20996.46094-.46729.46094h-2.6626c-.2915,0-.52197-.23047-.52197-.52197Z" fill="#1f1f1f"/>
    </g>
    <g>
      <path d="m15.44628,267.14307h-1.00244c-.26416,0-.48096-.2168-.48096-.48096s.2168-.48096.48096-.48096h3.04834c.26465,0,.48145.2168.48145.48096s-.2168.48096-.48145.48096h-1.00244v3.29932c0,.2915-.23047.52197-.52197.52197-.29102,0-.52148-.23047-.52148-.52197v-3.29932Z" fill="#1f1f1f"/>
      <path d="m18.88183,266.70312c0-.2915.23047-.52197.52197-.52197h1.646c.60303,0,1.0708.16943,1.38232.48096.26416.26416.40674.63672.40674,1.08398v.01367c0,.74512-.37305,1.20605-.94873,1.44287l.7251.88086c.10156.12842.16895.23682.16895.3999,0,.29102-.24365.48096-.49414.48096-.2373,0-.39307-.11523-.51514-.271l-1.01611-1.28711h-.8335v1.03613c0,.2915-.22998.52197-.52148.52197s-.52197-.23047-.52197-.52197v-3.73926Zm2.10059,1.78125c.50781,0,.79932-.27051.79932-.67041v-.01367c0-.44678-.31152-.67725-.81982-.67725h-1.03662v1.36133h1.05713Z" fill="#1f1f1f"/>
      <path d="m24.06152,266.66211c0-.29102.22998-.52148.52148-.52148s.52148.23047.52148.52148v3.78027c0,.2915-.22998.52197-.52148.52197s-.52148-.23047-.52148-.52197v-3.78027Z" fill="#1f1f1f"/>
      <path d="m26.26171,268.56592v-.01367c0-1.34814,1.05029-2.45264,2.48633-2.45264.71826,0,1.19238.16309,1.61963.46094.10156.07422.2168.2168.2168.41992,0,.28467-.23047.51514-.51514.51514-.14893,0-.24365-.0542-.31836-.1084-.28467-.20361-.58936-.3252-1.03662-.3252-.75879,0-1.36182.67041-1.36182,1.47705v.01318c0,.86719.59619,1.50439,1.43652,1.50439.37939,0,.71777-.09521.98242-.28467v-.67773h-.70459c-.25098,0-.4541-.19629-.4541-.44678,0-.25098.20312-.4541.4541-.4541h1.19238c.29102,0,.52148.23047.52148.52148v1.15186c0,.30518-.11523.51514-.36572.66406-.38623.23682-.94873.47412-1.66016.47412-1.47656,0-2.49316-1.03662-2.49316-2.43896Z" fill="#1f1f1f"/>
    </g>
    <g>
      <path d="m13.50829,218.64209c0-.23682.18311-.41992.41992-.41992h1.44971c1.11133,0,1.80225.63037,1.80225,1.58545v.01367c0,1.06348-.85352,1.61914-1.89697,1.61914h-.94141v1.14453c0,.23047-.18311.41357-.41357.41357-.23682,0-.41992-.18311-.41992-.41357v-3.94287Zm1.80225,2.04639c.62988,0,1.02246-.35254,1.02246-.84717v-.01318c0-.55566-.39941-.84717-1.02246-.84717h-.96875v1.70752h.96875Z" fill="#ebebeb"/>
      <path d="m18.14452,220.95215v-2.35059c0-.23047.18311-.41309.41992-.41309.23047,0,.41357.18262.41357.41309v2.31689c0,.88086.45361,1.34814,1.19873,1.34814.73877,0,1.19238-.44043,1.19238-1.31445v-2.35059c0-.23047.18311-.41309.42041-.41309.22998,0,.41309.18262.41309.41309v2.31055c0,1.41553-.79932,2.12695-2.03906,2.12695-1.23291,0-2.01904-.71143-2.01904-2.08691Z" fill="#ebebeb"/>
      <path d="m23.44091,222.43604c-.09473-.06787-.1626-.18311-.1626-.31836,0-.2168.17627-.38623.39307-.38623.11475,0,.18945.03418.24365.07471.39307.31152.81299.48779,1.32812.48779.51465,0,.83984-.24414.83984-.59619v-.01367c0-.33838-.18945-.52148-1.07031-.7251-1.00977-.24365-1.57861-.54199-1.57861-1.41602v-.01318c0-.81299.67725-1.37549,1.61914-1.37549.59619,0,1.07764.15625,1.50439.44043.09473.0542.18262.16943.18262.33203,0,.2168-.17578.38623-.39258.38623-.08154,0-.14941-.02051-.2168-.06104-.36621-.2373-.71875-.35938-1.09082-.35938-.48828,0-.77246.25098-.77246.5625v.01367c0,.36572.2168.52832,1.13135.74512,1.00244.24414,1.51758.60303,1.51758,1.38867v.01367c0,.8877-.69775,1.41602-1.69385,1.41602-.64355,0-1.25342-.20312-1.78174-.59619Z" fill="#ebebeb"/>
      <path d="m28.12744,218.60156c0-.23047.18311-.41309.41992-.41309.23047,0,.41357.18262.41357.41309v1.5918h2.2627v-1.5918c0-.23047.18262-.41309.41309-.41309.2373,0,.41992.18262.41992.41309v3.9834c0,.23047-.18262.41357-.41992.41357-.23047,0-.41309-.18311-.41309-.41357v-1.61914h-2.2627v1.61914c0,.23047-.18311.41357-.41357.41357-.23682,0-.41992-.18311-.41992-.41357v-3.9834Z" fill="#ebebeb"/>
    </g>
    <g>
      <path d="m12.90771,170.59326c0-.23047.18311-.41357.41992-.41357.23047,0,.41357.18311.41357.41357v1.59229h2.2627v-1.59229c0-.23047.18262-.41357.41309-.41357.2373,0,.41992.18311.41992.41357v3.98389c0,.22998-.18262.41309-.41992.41309-.23047,0-.41309-.18311-.41309-.41309v-1.61914h-2.2627v1.61914c0,.22998-.18311.41309-.41357.41309-.23682,0-.41992-.18311-.41992-.41309v-3.98389Z" fill="#ebebeb"/>
      <path d="m18.05077,172.59863v-.01367c0-1.33447,1.03027-2.45215,2.48682-2.45215s2.47266,1.104,2.47266,2.43848v.01367c0,1.33496-1.02979,2.45264-2.48633,2.45264s-2.47314-1.104-2.47314-2.43896Zm4.08545,0v-.01367c0-.92139-.67041-1.68652-1.6123-1.68652s-1.59912.75195-1.59912,1.67285v.01367c0,.92139.6709,1.68018,1.61279,1.68018s1.59863-.74512,1.59863-1.6665Z" fill="#ebebeb"/>
      <path d="m24.22509,170.59326c0-.23047.18311-.41357.42041-.41357.22998,0,.41309.18311.41309.41357v3.604h2.14746c.20996,0,.37939.16992.37939.37988s-.16943.37891-.37939.37891h-2.56055c-.2373,0-.42041-.18262-.42041-.41992v-3.94287Z" fill="#ebebeb"/>
      <path d="m28.57861,170.63379c0-.2373.18311-.41992.41992-.41992h1.34814c1.49023,0,2.52051,1.02295,2.52051,2.35742v.01367c0,1.33496-1.03027,2.37109-2.52051,2.37109h-1.34814c-.23682,0-.41992-.18262-.41992-.41992v-3.90234Zm1.76807,3.56348c.99609,0,1.64648-.67041,1.64648-1.59863v-.01367c0-.92773-.65039-1.6123-1.64648-1.6123h-.93457v3.22461h.93457Z" fill="#ebebeb"/>
    </g>
  </g>
</svg>