<?xml version="1.0" encoding="UTF-8"?>
<svg xmlns="http://www.w3.org/2000/svg" width="45" height="380" xmlns:xlink="http://www.w3.org/1999/xlink" viewBox="0 0 45 380">
  <defs>
    <linearGradient id="uuid-0d3c19de-3f0b-4c11-a33e-a9887850fd90" x1="22.5" y1="0" x2="22.5" y2="380" gradientUnits="userSpaceOnUse">
      <stop offset="0" stop-color="#2a2a2b"/>
      <stop offset="1" stop-color="#171717"/>
    </linearGradient>
  </defs>
  <g id="uuid-9600e6d6-5182-49bf-a626-6c729e7c4dc8" data-name="FND BG">
    <rect x=".00001" width="44.99997" height="380" fill="url(#uuid-0d3c19de-3f0b-4c11-a33e-a9887850fd90)"/>
  </g>
  <g id="uuid-7aa606fc-3a5f-46d9-82aa-5e41046c24b3" data-name="FND GRAPH">
    <g>
      <circle cx="23.00165" cy="355.83101" r="1.18571" fill="#ededed"/>
      <path d="m14.35927,359.75298c-.34551,0-.66126-.1952-.8158-.50419l-2.96428-5.92856c-.22526-.45057-.04266-.99844.40794-1.2237.45008-.22535.99831-.04271,1.22366.4079l2.14848,4.29696,2.14848-4.29696c.22526-.45057.77314-.63325,1.22366-.4079.45061.22526.63321.77314.40794,1.2237l-2.96428,5.92856c-.15454.30899-.47029.50419-.8158.50419Z" fill="#ededed"/>
      <path d="m30.64073,359.75298c-.34551,0-.66126-.1952-.8158-.50419l-2.96428-5.92856c-.22526-.45057-.04266-.99844.40794-1.2237.45016-.22535.9984-.04271,1.22366.4079l2.14848,4.29696,2.14848-4.29696c.22526-.45057.77305-.63325,1.22366-.4079.45061.22526.63321.77314.40794,1.2237l-2.96428,5.92856c-.15454.30899-.47029.50419-.8158.50419Z" fill="#ededed"/>
      <path d="m22.94242,359.75298c-2.13744,0-3.87637-1.73893-3.87637-3.87637s1.73893-3.87637,3.87637-3.87637c.84653,0,1.65102.26819,2.32653.77554.40278.30253.48401.87428.18153,1.27705-.30248.40273-.87432.48401-1.2771.18148-.357-.26815-.78267-.4099-1.23096-.4099-1.13156,0-2.05219.92059-2.05219,2.05219s.92064,2.05219,2.05219,2.05219c.44829,0,.87396-.14176,1.23096-.4099.40269-.30271.97444-.22125,1.2771.18148.30248.40278.22125.97453-.18153,1.27705-.67551.50735-1.48.77554-2.32653.77554Z" fill="#ededed"/>
    </g>
    <line x1="22.49997" y1="288.95597" x2="22.49997" y2="321.15516" fill="none" stroke="#ededed" stroke-linecap="round" stroke-linejoin="round" stroke-width=".8"/>
    <rect x="8.18423" y="309.05634" width="28.6316" height="39.15691" rx="2.83465" ry="2.83465" fill="#ededed"/>
    <g>
      <line x1="22.50005" y1="225.32297" x2="22.50005" y2="221.5997" fill="none" stroke="#ededed" stroke-linecap="round" stroke-linejoin="round" stroke-width=".8"/>
      <path d="m31.13566,252.15159c4.83522-2.92859,8.06662-8.2395,8.06662-14.30514,0-9.23-7.48239-16.71239-16.71239-16.71239s-16.71239,7.48239-16.71239,16.71239c0,6.09737,3.2653,11.4321,8.14264,14.35091" fill="none" stroke="#ededed" stroke-linecap="round" stroke-linejoin="round" stroke-width=".8"/>
      <circle cx="22.50003" cy="237.84641" r="20.69419" fill="none" isolation="isolate" opacity=".69"/>
    </g>
  </g>
  <g id="uuid-dc19b6b0-b6ac-4c7f-8306-24b05a8446d8" data-name="FND TXT">
    <g>
      <path d="m11.13867,212.77295v-.0166c0-1.64404,1.26855-3.02148,3.06348-3.02148s3.04688,1.36084,3.04688,3.00488v.0166c0,1.64453-1.26953,3.02148-3.06348,3.02148-1.79492,0-3.04688-1.36035-3.04688-3.00488Zm5.0332,0v-.0166c0-1.13525-.82617-2.07812-1.98633-2.07812s-1.96973.92627-1.96973,2.06152v.0166c0,1.13525.82617,2.06982,1.98633,2.06982s1.96973-.91797,1.96973-2.05322Z" fill="#ebebeb"/>
      <path d="m18.67871,210.35254c0-.29199.22559-.51758.51758-.51758h3.40527c.25879,0,.46777.20898.46777.46777s-.20898.46729-.46777.46729h-2.89648v1.59424h2.52148c.25879,0,.4668.2085.4668.46729s-.20801.46729-.4668.46729h-2.52148v1.91162c0,.28369-.22461.50879-.50879.50879-.29199,0-.51758-.2251-.51758-.50879v-4.85791Z" fill="#ebebeb"/>
      <path d="m24.06348,215.02686c-.11621-.0835-.2002-.22559-.2002-.39258,0-.26709.2168-.47559.48438-.47559.1416,0,.2334.0415.30078.0918.4834.38379,1.00098.60107,1.63574.60107.63379,0,1.03516-.30078,1.03516-.73486v-.0166c0-.41699-.23438-.64258-1.31934-.89307-1.24316-.30029-1.94434-.66748-1.94434-1.74414v-.01709c0-1.00146.83496-1.69434,1.99512-1.69434.73438,0,1.32617.19238,1.85254.54297.11719.06641.22559.2085.22559.40869,0,.26709-.21777.47559-.48438.47559-.10059,0-.18359-.0249-.26758-.07471-.4502-.29248-.88379-.44238-1.34375-.44238-.60059,0-.95117.30859-.95117.69238v.01709c0,.45068.26758.65088,1.39355.91797,1.23535.30029,1.87012.74268,1.87012,1.71094v.0166c0,1.09375-.85938,1.74463-2.08691,1.74463-.79297,0-1.54395-.25049-2.19531-.73438Z" fill="#ebebeb"/>
      <path d="m31.12891,210.78662h-1.41895c-.2666,0-.47559-.2168-.47559-.47559s.20898-.47607.47559-.47607h3.88184c.25879,0,.4668.21729.4668.47607s-.20801.47559-.4668.47559h-1.42773v4.42383c0,.28369-.2334.50879-.51758.50879-.2832,0-.51758-.2251-.51758-.50879v-4.42383Z" fill="#ebebeb"/>
    </g>
    <g>
      <path d="m8.7627,23.93262v-.02539c0-2.48975,1.96484-4.5293,4.66699-4.5293,2.70312,0,4.64258,2.01465,4.64258,4.50439v.0249c0,.92578-.28809,1.78906-.77637,2.51514l.37598.31299c.2002.1748.35059.4126.35059.72559,0,.50049-.40039.91309-.90137.91309-.2627,0-.48828-.1123-.6377-.2627l-.47559-.42529c-.73828.47559-1.62695.75049-2.60254.75049-2.70312,0-4.64258-2.01416-4.64258-4.50391Zm4.55469.98828c0-.50049.40039-.91357.90137-.91357.2627,0,.4375.0874.6377.26318l.96387.86328c.14941-.35059.2373-.76367.2373-1.20117v-.02539c0-1.50146-1.10156-2.75244-2.65234-2.75244-1.55176,0-2.62793,1.22607-2.62793,2.72754v.0249c0,1.50146,1.10156,2.75293,2.65234,2.75293.42578,0,.81348-.0752,1.15137-.23779l-.91309-.77588c-.2002-.1748-.35059-.41309-.35059-.72559Z" fill="#ebebeb"/>
      <path d="m19.99707,20.44141c0-.53809.42578-.96338.96387-.96338h.2002c.46289,0,.7373.2251,1.00098.56299l3.71582,4.87988v-4.51709c0-.52539.4248-.95068.95117-.95068.52539,0,.9502.42529.9502.95068v6.96924c0,.53809-.4248.96387-.96289.96387h-.0625c-.46289,0-.73828-.22559-1.00098-.56348l-3.85449-5.05469v4.69189c0,.52588-.4248.95117-.9502.95117s-.95117-.42529-.95117-.95117v-6.96924Z" fill="#ebebeb"/>
      <path d="m31.87891,21.30469h-1.85156c-.48828,0-.88867-.40039-.88867-.88818s.40039-.88818.88867-.88818h5.62988c.48828,0,.88867.40039.88867.88818s-.40039.88818-.88867.88818h-1.85156v6.09375c0,.53809-.42578.96338-.96387.96338-.53711,0-.96289-.42529-.96289-.96338v-6.09375Z" fill="#ebebeb"/>
    </g>
    <g>
      <path d="m12.67676,269.64941l-1.65918-3.90234c-.02734-.06055-.04785-.12158-.04785-.19629,0-.22363.18262-.40625.41992-.40625.2168,0,.35938.12207.42676.29785l1.36914,3.42139,1.38867-3.44873c.05371-.14209.20312-.27051.39941-.27051.23047,0,.41309.17578.41309.39941,0,.06104-.01953.12891-.04004.17627l-1.66699,3.9292c-.08789.20996-.24414.33887-.48047.33887h-.04785c-.23047,0-.38574-.12891-.47461-.33887Z" fill="#ebebeb"/>
      <path d="m15.37012,270.34766l2.77051-5.67773c.06152-.12207.16309-.18945.29883-.18945.17578,0,.31836.14209.31836.31152,0,.06104-.02051.12207-.03418.1626l-2.77734,5.67725c-.06152.12207-.15625.18994-.29199.18994-.17578,0-.3252-.14209-.3252-.31201,0-.06055.02051-.12158.04102-.16211Z" fill="#ebebeb"/>
      <path d="m19.12988,267.56299v-.01367c0-1.33447,1.0293-2.45264,2.48633-2.45264,1.45605,0,2.47266,1.10449,2.47266,2.43945v.01318c0,1.33447-1.03027,2.45264-2.48633,2.45264-1.45703,0-2.47266-1.10449-2.47266-2.43896Zm4.08496,0v-.01367c0-.92139-.6709-1.68701-1.6123-1.68701-.94238,0-1.59961.75195-1.59961,1.67383v.01318c0,.92139.6709,1.68018,1.61328,1.68018.94141,0,1.59863-.74512,1.59863-1.6665Z" fill="#ebebeb"/>
      <path d="m25.06836,267.56299v-.01367c0-1.34814,1.00977-2.45264,2.44531-2.45264.73242,0,1.21289.2168,1.62598.53516.08887.06836.16309.18311.16309.33203,0,.23047-.18262.40674-.41309.40674-.11523,0-.19629-.04053-.25098-.08154-.3252-.26367-.67773-.42676-1.13086-.42676-.90137,0-1.56543.74512-1.56543,1.67383v.01318c0,.92822.65723,1.68018,1.56543,1.68018.50098,0,.83984-.1626,1.18555-.4541.06055-.05371.14844-.09473.25-.09473.20996,0,.39355.17627.39355.38623,0,.12891-.06152.23047-.13574.29834-.44727.39258-.95508.63672-1.7207.63672-1.38184,0-2.41211-1.07715-2.41211-2.43896Z" fill="#ebebeb"/>
      <path d="m31.6875,265.95068h-1.15234c-.2168,0-.38574-.17627-.38574-.38623s.16895-.38623.38574-.38623h3.15039c.20996,0,.37988.17627.37988.38623s-.16992.38623-.37988.38623h-1.1582v3.59033c0,.23047-.18945.41357-.41992.41357s-.41992-.18311-.41992-.41357v-3.59033Z" fill="#ebebeb"/>
    </g>
    <g>
      <path d="m15.01367,316.55127v-.01367c0-1.34814,1.06445-2.45264,2.52734-2.45264,1.46387,0,2.51367,1.09082,2.51367,2.43945v.01318c0,1.34814-1.06348,2.45264-2.52734,2.45264-1.46289,0-2.51367-1.09082-2.51367-2.43896Zm3.9502,0v-.01367c0-.81299-.5957-1.49023-1.43652-1.49023-.83984,0-1.42285.66357-1.42285,1.47705v.01318c0,.81299.59668,1.49072,1.43652,1.49072s1.42285-.66406,1.42285-1.47705Z" fill="#1f1f1f"/>
      <path d="m21.13281,316.87646v-2.229c0-.29102.23047-.52148.52148-.52148.29199,0,.52246.23047.52246.52148v2.20215c0,.77197.38574,1.17188,1.02246,1.17188s1.02344-.38623,1.02344-1.13818v-2.23584c0-.29102.23047-.52148.52148-.52148s.52148.23047.52148.52148v2.19531c0,1.43604-.80566,2.14062-2.08008,2.14062-1.27344,0-2.05273-.71143-2.05273-2.10693Z" fill="#1f1f1f"/>
      <path d="m27.61816,315.12842h-1.00293c-.26367,0-.48047-.2168-.48047-.48096s.2168-.48096.48047-.48096h3.04883c.26465,0,.48145.2168.48145.48096s-.2168.48096-.48145.48096h-1.00293v3.29932c0,.2915-.23047.52197-.52148.52197s-.52148-.23047-.52148-.52197v-3.29932Z" fill="#1f1f1f"/>
    </g>
  </g>
</svg>