<?xml version="1.0" encoding="UTF-8"?>
<svg xmlns="http://www.w3.org/2000/svg" width="135" height="380" xmlns:xlink="http://www.w3.org/1999/xlink" viewBox="0 0 135 380">
  <defs>
    <linearGradient id="uuid-0123f95c-adb7-4725-b1e6-cd3daaa38f3a" x1="67.50002" y1="0" x2="67.50002" y2="380" gradientUnits="userSpaceOnUse">
      <stop offset="0" stop-color="#2a2a2b"/>
      <stop offset="1" stop-color="#171717"/>
    </linearGradient>
  </defs>
  <g id="uuid-3c1056bf-456a-40e2-8d3f-4fdf12460be0" data-name="FND BG">
    <rect x=".00003" width="134.99999" height="380" fill="url(#uuid-0123f95c-adb7-4725-b1e6-cd3daaa38f3a)"/>
  </g>
  <g id="uuid-4c11ef60-1dcf-473d-9546-8ec2b50a0eb2" data-name="FND GRAPH">
    <line x1="42.62572" y1="99.50846" x2="27.62671" y2="99.50846" fill="none" stroke="#ededed" stroke-linecap="round" stroke-linejoin="round" stroke-width=".5"/>
    <line x1="42.62572" y1="77.90726" x2="27.62671" y2="77.90726" fill="none" stroke="#ededed" stroke-linecap="round" stroke-linejoin="round" stroke-width=".5"/>
    <line x1="42.62572" y1="88.70786" x2="27.62671" y2="88.70786" fill="none" stroke="#ededed" stroke-linecap="round" stroke-linejoin="round" stroke-width=".5"/>
    <line x1="42.62572" y1="67.10666" x2="27.62671" y2="67.10666" fill="none" stroke="#ededed" stroke-linecap="round" stroke-linejoin="round"/>
    <line x1="42.62572" y1="110.30905" x2="27.62671" y2="110.30905" fill="none" stroke="#ededed" stroke-linecap="round" stroke-linejoin="round" stroke-width=".5"/>
    <line x1="42.62572" y1="121.10965" x2="27.62671" y2="121.10965" fill="none" stroke="#ededed" stroke-linecap="round" stroke-linejoin="round" stroke-width=".5"/>
    <line x1="42.62671" y1="131.91024" x2="27.62771" y2="131.91024" fill="none" stroke="#ededed" stroke-linecap="round" stroke-linejoin="round"/>
    <line x1="74.57971" y1="99.50832" x2="59.62676" y2="99.50832" fill="none" stroke="#ededed" stroke-linecap="round" stroke-linejoin="round" stroke-width=".5"/>
    <line x1="74.57971" y1="77.90702" x2="59.62676" y2="77.90702" fill="none" stroke="#ededed" stroke-linecap="round" stroke-linejoin="round" stroke-width=".5"/>
    <line x1="74.57971" y1="88.70767" x2="59.62676" y2="88.70767" fill="none" stroke="#ededed" stroke-linecap="round" stroke-linejoin="round" stroke-width=".5"/>
    <line x1="74.57971" y1="67.10637" x2="59.62676" y2="67.10637" fill="none" stroke="#ededed" stroke-linecap="round" stroke-linejoin="round"/>
    <line x1="74.57971" y1="110.30896" x2="59.62676" y2="110.30896" fill="none" stroke="#ededed" stroke-linecap="round" stroke-linejoin="round" stroke-width=".5"/>
    <line x1="74.57971" y1="121.10962" x2="59.62676" y2="121.10962" fill="none" stroke="#ededed" stroke-linecap="round" stroke-linejoin="round" stroke-width=".5"/>
    <line x1="74.5807" y1="131.91026" x2="59.62775" y2="131.91026" fill="none" stroke="#ededed" stroke-linecap="round" stroke-linejoin="round"/>
    <line x1="106.59608" y1="99.50832" x2="91.62593" y2="99.50832" fill="none" stroke="#ededed" stroke-linecap="round" stroke-linejoin="round" stroke-width=".5"/>
    <line x1="106.59608" y1="77.90702" x2="91.62593" y2="77.90702" fill="none" stroke="#ededed" stroke-linecap="round" stroke-linejoin="round" stroke-width=".5"/>
    <line x1="106.59608" y1="88.70767" x2="91.62593" y2="88.70767" fill="none" stroke="#ededed" stroke-linecap="round" stroke-linejoin="round" stroke-width=".5"/>
    <line x1="106.59608" y1="67.10637" x2="91.62593" y2="67.10637" fill="none" stroke="#ededed" stroke-linecap="round" stroke-linejoin="round"/>
    <line x1="106.59608" y1="110.30896" x2="91.62593" y2="110.30896" fill="none" stroke="#ededed" stroke-linecap="round" stroke-linejoin="round" stroke-width=".5"/>
    <line x1="106.59608" y1="121.10962" x2="91.62593" y2="121.10962" fill="none" stroke="#ededed" stroke-linecap="round" stroke-linejoin="round" stroke-width=".5"/>
    <line x1="106.59707" y1="131.91026" x2="91.62693" y2="131.91026" fill="none" stroke="#ededed" stroke-linecap="round" stroke-linejoin="round"/>
    <line x1="21.97519" y1="286" x2="54.50438" y2="286" fill="none" stroke="#ededed" stroke-linecap="round" stroke-linejoin="round" stroke-width=".8"/>
    <rect x="100.79782" y="260.79705" width="28.66906" height="39.15691" rx="2.83465" ry="2.83465" fill="#ededed"/>
    <g>
      <path d="m59.35927,359.75298c-.34551,0-.66126-.1952-.8158-.50419l-2.96428-5.92856c-.22526-.45057-.04266-.99844.40794-1.2237.45008-.22535.99831-.04271,1.22366.4079l2.14848,4.29696,2.14848-4.29696c.22526-.45057.77314-.63325,1.22366-.4079.45061.22526.63321.77314.40794,1.2237l-2.96428,5.92856c-.15454.30899-.47029.50419-.8158.50419Z" fill="#ededed"/>
      <path d="m75.64073,359.75298c-.34551,0-.66126-.1952-.8158-.50419l-2.96428-5.92856c-.22526-.45057-.04266-.99844.40794-1.2237.45016-.22535.9984-.04271,1.22366.4079l2.14848,4.29696,2.14848-4.29696c.22526-.45057.77305-.63325,1.22366-.4079.45061.22526.63321.77314.40794,1.2237l-2.96428,5.92856c-.15454.30899-.47029.50419-.8158.50419Z" fill="#ededed"/>
      <path d="m67.94242,359.75298c-2.13744,0-3.87637-1.73893-3.87637-3.87637s1.73893-3.87637,3.87637-3.87637c.84653,0,1.65102.26819,2.32653.77554.40278.30253.48401.87428.18153,1.27705-.30248.40273-.87432.48401-1.2771.18148-.357-.26815-.78267-.4099-1.23096-.4099-1.13156,0-2.05219.92059-2.05219,2.05219s.92064,2.05219,2.05219,2.05219c.44829,0,.87396-.14176,1.23096-.4099.40269-.30271.97444-.22125,1.2771.18148.30248.40278.22125.97453-.18153,1.27705-.67551.50735-1.48.77554-2.32653.77554Z" fill="#ededed"/>
      <circle cx="68.00165" cy="355.83101" r="1.18571" fill="#ededed"/>
    </g>
    <rect x="4.81652" y="309.0301" width="124.61509" height="39.15691" rx="2.83465" ry="2.83465" fill="#ededed"/>
    <g>
      <line x1="19.13231" y1="202.94551" x2="19.13231" y2="212.14746" fill="none" stroke="#ededed" stroke-linecap="round" stroke-linejoin="round" stroke-width=".8"/>
      <line x1="19.13231" y1="178.6111" x2="19.13231" y2="190.09049" fill="none" stroke="#ededed" stroke-linecap="round" stroke-linejoin="round"/>
      <path d="m10.97885,198.22438c-2.1616-2.1616-3.37728-5.09649-3.37728-8.15346,0-6.32558,5.20516-11.53074,11.53074-11.53074s11.53074,5.20516,11.53074,11.53074c0,3.05697-1.21567,5.99186-3.37728,8.15346" fill="none" stroke="#ededed" stroke-linecap="round" stroke-linejoin="round"/>
    </g>
    <g>
      <line x1="51.13235" y1="202.94551" x2="51.13235" y2="212.14746" fill="none" stroke="#ededed" stroke-linecap="round" stroke-linejoin="round" stroke-width=".8"/>
      <line x1="51.13235" y1="178.6111" x2="51.13235" y2="190.09049" fill="none" stroke="#ededed" stroke-linecap="round" stroke-linejoin="round"/>
      <path d="m42.97889,198.22438c-2.1616-2.1616-3.37728-5.09649-3.37728-8.15346,0-6.32558,5.20516-11.53074,11.53074-11.53074s11.53074,5.20516,11.53074,11.53074c0,3.05697-1.21567,5.99186-3.37728,8.15346" fill="none" stroke="#ededed" stroke-linecap="round" stroke-linejoin="round"/>
    </g>
    <g>
      <line x1="83.13235" y1="202.94551" x2="83.13235" y2="212.14746" fill="none" stroke="#ededed" stroke-linecap="round" stroke-linejoin="round" stroke-width=".8"/>
      <line x1="83.13235" y1="178.6111" x2="83.13235" y2="190.09049" fill="none" stroke="#ededed" stroke-linecap="round" stroke-linejoin="round"/>
      <path d="m74.97889,198.22438c-2.1616-2.1616-3.37728-5.09649-3.37728-8.15346,0-6.32558,5.20516-11.53074,11.53074-11.53074s11.53074,5.20516,11.53074,11.53074c0,3.05697-1.21567,5.99186-3.37728,8.15346" fill="none" stroke="#ededed" stroke-linecap="round" stroke-linejoin="round"/>
    </g>
    <g>
      <line x1="115.13235" y1="202.94551" x2="115.13235" y2="212.14746" fill="none" stroke="#ededed" stroke-linecap="round" stroke-linejoin="round" stroke-width=".8"/>
      <line x1="115.13235" y1="178.6111" x2="115.13235" y2="190.09049" fill="none" stroke="#ededed" stroke-linecap="round" stroke-linejoin="round"/>
      <path d="m106.97889,198.22438c-2.1616-2.1616-3.37728-5.09649-3.37728-8.15346,0-6.32558,5.20516-11.53074,11.53074-11.53074s11.53074,5.20516,11.53074,11.53074c0,3.05697-1.21567,5.99186-3.37728,8.15346" fill="none" stroke="#ededed" stroke-linecap="round" stroke-linejoin="round"/>
    </g>
  </g>
  <g id="uuid-0f7616b8-47dc-4a74-8fca-26656ccaa57b" data-name="FND TXT">
    <g>
      <path d="m108.0791,267.18359h-1.00195c-.26465,0-.48145-.2168-.48145-.48096s.2168-.48096.48145-.48096h3.04785c.26465,0,.48145.2168.48145.48096s-.2168.48096-.48145.48096h-1.00195v3.2998c0,.29102-.23047.52148-.52246.52148-.29102,0-.52148-.23047-.52148-.52148v-3.2998Z" fill="#1f1f1f"/>
      <path d="m111.51465,266.74316c0-.29102.23047-.52148.52246-.52148h1.64551c.60352,0,1.07129.16943,1.38281.48096.26367.26416.40625.63721.40625,1.08398v.01367c0,.74512-.37305,1.20557-.94824,1.44287l.72461.88086c.10156.12891.16895.2373.16895.39941,0,.2915-.24316.48145-.49414.48145-.2373,0-.39258-.11523-.51465-.271l-1.0166-1.2876h-.83301v1.03711c0,.29102-.23047.52148-.52148.52148-.29199,0-.52246-.23047-.52246-.52148v-3.74023Zm2.10059,1.78223c.50781,0,.7998-.27148.7998-.6709v-.01367c0-.44727-.31152-.67773-.82031-.67773h-1.03613v1.3623h1.05664Z" fill="#1f1f1f"/>
      <path d="m116.69434,266.70264c0-.2915.23047-.52148.52148-.52148.29199,0,.52148.22998.52148.52148v3.78076c0,.29102-.22949.52148-.52148.52148-.29102,0-.52148-.23047-.52148-.52148v-3.78076Z" fill="#1f1f1f"/>
      <path d="m118.89453,268.60645v-.01367c0-1.34814,1.05078-2.45215,2.48633-2.45215.71875,0,1.19238.16211,1.62012.46045.10156.07471.2168.2168.2168.41992,0,.28467-.23047.51514-.51562.51514-.14844,0-.24316-.0542-.31836-.1084-.28418-.20312-.58887-.3252-1.03613-.3252-.75879,0-1.3623.6709-1.3623,1.47656v.01367c0,.86719.59668,1.50391,1.43652,1.50391.37988,0,.71777-.09473.98242-.28418v-.67773h-.7041c-.25098,0-.4541-.19629-.4541-.44727,0-.25049.20312-.45361.4541-.45361h1.19238c.29102,0,.52148.22998.52148.52148v1.15186c0,.30469-.11523.51465-.36621.66406-.38574.2373-.94824.47412-1.66016.47412-1.47656,0-2.49316-1.03662-2.49316-2.43896Z" fill="#1f1f1f"/>
    </g>
    <g>
      <path d="m10.22852,218.77734c0-.2373.18262-.41992.41992-.41992h1.69336c.5957,0,1.06348.17627,1.36914.47412.25.25732.39258.60986.39258,1.02295v.01367c0,.75879-.44043,1.21973-1.07715,1.41602l.90723,1.14502c.08203.10156.13574.18994.13574.31836,0,.23047-.19629.38623-.39941.38623-.18945,0-.31152-.08789-.40625-.2168l-1.15234-1.47021h-1.0498v1.27393c0,.22998-.18262.41309-.41309.41309-.2373,0-.41992-.18311-.41992-.41309v-3.94336Zm2.05273,1.93066c.5957,0,.97559-.31152.97559-.79248v-.01318c0-.5083-.36621-.78613-.98242-.78613h-1.21289v1.5918h1.21973Z" fill="#ebebeb"/>
      <path d="m15.0625,222.55762l1.76172-3.9292c.09473-.20996.26367-.33887.50098-.33887h.04004c.23828,0,.40039.12891.49512.33887l1.76172,3.9292c.03418.06152.04785.12207.04785.17627,0,.22363-.16992.3999-.39355.3999-.19629,0-.33203-.11523-.40625-.2915l-.38672-.88721h-2.30371l-.39941.91455c-.06738.16943-.20996.26416-.38574.26416-.2168,0-.38672-.16943-.38672-.38623,0-.06104.02051-.12207.05469-.18994Zm3.10254-1.34131l-.83301-1.91748-.83398,1.91748h1.66699Z" fill="#ebebeb"/>
      <path d="m21.33301,219.12988h-1.15137c-.2168,0-.38672-.17627-.38672-.38623s.16992-.38623.38672-.38623h3.15039c.20898,0,.37891.17627.37891.38623s-.16992.38623-.37891.38623h-1.15918v3.59082c0,.22998-.18945.41309-.41992.41309s-.41992-.18311-.41992-.41309v-3.59082Z" fill="#ebebeb"/>
      <path d="m24.71094,222.67969v-3.90234c0-.2373.18359-.41992.4209-.41992h2.75684c.20312,0,.37305.16943.37305.37256,0,.20996-.16992.37256-.37305.37256h-2.34375v1.2334h2.03906c.20312,0,.37305.16895.37305.37891,0,.20361-.16992.36621-.37305.36621h-2.03906v1.27344h2.37793c.20312,0,.37207.16943.37207.37305,0,.20996-.16895.37207-.37207.37207h-2.79102c-.2373,0-.4209-.18262-.4209-.41992Z" fill="#ebebeb"/>
    </g>
    <g>
      <path d="m41.42871,218.77783c0-.23682.18262-.41992.41992-.41992h1.4502c1.11133,0,1.80176.63037,1.80176,1.58545v.01367c0,1.06348-.85352,1.61914-1.89648,1.61914h-.94238v1.14453c0,.23047-.18262.41357-.41309.41357-.2373,0-.41992-.18311-.41992-.41357v-3.94287Zm1.80176,2.04639c.63086,0,1.02344-.35254,1.02344-.84717v-.01318c0-.55566-.39941-.84717-1.02344-.84717h-.96875v1.70752h.96875Z" fill="#ebebeb"/>
      <path d="m46.14062,218.77783c0-.23682.18262-.41992.41992-.41992h1.69336c.5957,0,1.06348.17627,1.36914.47412.25.25781.39258.60986.39258,1.02344v.01318c0,.75879-.44043,1.21924-1.07715,1.41602l.90723,1.14502c.08203.10156.13574.18945.13574.31836,0,.23047-.19629.38623-.39941.38623-.18945,0-.31152-.08838-.40625-.2168l-1.15234-1.47021h-1.0498v1.27344c0,.23047-.18262.41357-.41309.41357-.2373,0-.41992-.18311-.41992-.41357v-3.94287Zm2.05273,1.93115c.5957,0,.97559-.31152.97559-.79297v-.01367c0-.50781-.36621-.78564-.98242-.78564h-1.21289v1.59229h1.21973Z" fill="#ebebeb"/>
      <path d="m50.98047,220.74268v-.01367c0-1.33447,1.0293-2.45264,2.48633-2.45264,1.45605,0,2.47266,1.10449,2.47266,2.43945v.01318c0,1.33447-1.03027,2.45264-2.48633,2.45264-1.45703,0-2.47266-1.10449-2.47266-2.43896Zm4.08496,0v-.01367c0-.92139-.6709-1.68701-1.6123-1.68701s-1.59961.75195-1.59961,1.67383v.01318c0,.92139.6709,1.68018,1.61328,1.68018.94141,0,1.59863-.74512,1.59863-1.6665Z" fill="#ebebeb"/>
      <path d="m57.15625,218.77783c0-.23682.18359-.41992.41992-.41992h1.70801c.54199,0,.96875.14893,1.23926.41992.21094.21045.31836.46729.31836.78613v.01318c0,.56934-.32422.87402-.67773,1.05713.55664.18994.94238.5083.94238,1.15186v.01367c0,.84668-.69824,1.30078-1.75488,1.30078h-1.77539c-.23633,0-.41992-.18311-.41992-.42041v-3.90234Zm1.95801,1.57861c.53613,0,.89453-.20996.89453-.64355v-.01367c0-.37256-.29785-.60254-.83301-.60254h-1.19922v1.25977h1.1377Zm.24414,2.00537c.56934,0,.91504-.22363.91504-.65039v-.01318c0-.3999-.31836-.63721-.97656-.63721h-1.32031v1.30078h1.38184Z" fill="#ebebeb"/>
    </g>
    <g>
      <path d="m75.72461,218.77734c0-.2373.18359-.41992.4209-.41992h1.69336c.59668,0,1.06348.17627,1.36816.47412.25098.25732.39355.60986.39355,1.02295v.01367c0,.75879-.44043,1.21973-1.07715,1.41602l.9082,1.14502c.08105.10156.13477.18994.13477.31836,0,.23047-.19629.38623-.39941.38623-.19043,0-.31152-.08789-.40723-.2168l-1.15137-1.47021h-1.0498v1.27393c0,.22998-.18359.41309-.41309.41309-.2373,0-.4209-.18311-.4209-.41309v-3.94336Zm2.05371,1.93066c.5957,0,.97559-.31152.97559-.79248v-.01318c0-.5083-.36621-.78613-.98242-.78613h-1.21289v1.5918h1.21973Z" fill="#ebebeb"/>
      <path d="m80.85742,218.75049c0-.23047.18359-.42041.41992-.42041h.08887c.20312,0,.31836.10156.43359.24414l2.37109,3.06934v-2.91357c0-.22363.18262-.40674.40625-.40674.23047,0,.41309.18311.41309.40674v3.98389c0,.23047-.17578.41309-.40625.41309h-.03418c-.19629,0-.31836-.10156-.43359-.25098l-2.43848-3.15674v3.0083c0,.22314-.18359.40625-.40625.40625-.23047,0-.41406-.18311-.41406-.40625v-3.97705Z" fill="#ebebeb"/>
      <path d="m86.45312,218.77734c0-.2373.18359-.41992.41992-.41992h1.34863c1.49023,0,2.52051,1.02295,2.52051,2.35742v.01367c0,1.33496-1.03027,2.37109-2.52051,2.37109h-1.34863c-.23633,0-.41992-.18262-.41992-.41992v-3.90234Zm1.76855,3.56348c.99512,0,1.64551-.67041,1.64551-1.59863v-.01367c0-.92773-.65039-1.6123-1.64551-1.6123h-.93457v3.22461h.93457Z" fill="#ebebeb"/>
    </g>
    <g>
      <path d="m103.38477,222.57031c-.0957-.06738-.16309-.18262-.16309-.31836,0-.2168.17676-.38623.39355-.38623.11426,0,.18945.03369.24316.07471.39355.31152.81348.48779,1.32812.48779s.83984-.24365.83984-.59619v-.01367c0-.33887-.18945-.52148-1.07031-.72461-1.00977-.24414-1.5791-.54199-1.5791-1.41602v-.01367c0-.81299.67773-1.37549,1.61914-1.37549.59668,0,1.07812.15576,1.50488.44043.09473.0542.18262.16943.18262.33203,0,.2168-.17578.38623-.39258.38623-.08203,0-.14941-.02051-.2168-.06104-.36621-.23682-.71875-.35889-1.09082-.35889-.48828,0-.77246.25049-.77246.56201v.01367c0,.36572.2168.52832,1.13086.74512,1.00293.24414,1.51758.60303,1.51758,1.38916v.01367c0,.88721-.69727,1.41553-1.69336,1.41553-.64355,0-1.25391-.20312-1.78125-.59619Z" fill="#ebebeb"/>
      <path d="m108.07031,218.73584c0-.23047.18359-.41357.41992-.41357.23047,0,.41406.18311.41406.41357v1.59229h2.26172v-1.59229c0-.23047.18359-.41357.41406-.41357.23633,0,.41992.18311.41992.41357v3.98389c0,.22998-.18359.41309-.41992.41309-.23047,0-.41406-.18311-.41406-.41309v-1.61914h-2.26172v1.61914c0,.22998-.18359.41309-.41406.41309-.23633,0-.41992-.18311-.41992-.41309v-3.98389Z" fill="#ebebeb"/>
      <path d="m113.08105,222.55664l1.76172-3.9292c.09473-.20996.26465-.33887.50098-.33887h.04102c.2373,0,.39941.12891.49414.33887l1.76172,3.9292c.03418.06152.04688.12207.04688.17627,0,.22363-.16895.3999-.39258.3999-.19629,0-.33203-.11523-.40625-.2915l-.38672-.88721h-2.30273l-.40039.91455c-.06738.16943-.20898.26416-.38574.26416-.2168,0-.38574-.16943-.38574-.38623,0-.06104.01953-.12207.05371-.18994Zm3.10254-1.34131l-.83301-1.91748-.83301,1.91748h1.66602Z" fill="#ebebeb"/>
      <path d="m118.72266,218.77637c0-.2373.18262-.41992.41992-.41992h1.44922c1.11133,0,1.80273.62988,1.80273,1.58545v.01318c0,1.06396-.85352,1.61914-1.89746,1.61914h-.94141v1.14551c0,.22998-.18262.41309-.41309.41309-.2373,0-.41992-.18311-.41992-.41309v-3.94336Zm1.80176,2.0459c.62988,0,1.02246-.35205,1.02246-.84668v-.01367c0-.55566-.39941-.84668-1.02246-.84668h-.96875v1.70703h.96875Z" fill="#ebebeb"/>
      <path d="m123.43359,222.67871v-3.90234c0-.2373.18359-.41992.41992-.41992h2.75781c.20312,0,.37305.16943.37305.37256,0,.20996-.16992.37256-.37305.37256h-2.34375v1.2334h2.03906c.20312,0,.37207.16895.37207.37891,0,.20361-.16895.36621-.37207.36621h-2.03906v1.27344h2.37695c.20312,0,.37305.16943.37305.37305,0,.20996-.16992.37207-.37305.37207h-2.79102c-.23633,0-.41992-.18262-.41992-.41992Z" fill="#ebebeb"/>
    </g>
    <g>
      <path d="m8.28516,45.76855c0-.29199.22461-.51709.51758-.51709h2.08594c.73438,0,1.31055.21729,1.68652.58447.30859.31689.4834.75098.4834,1.25977v.01709c0,.93506-.54199,1.50244-1.32617,1.74463l1.11816,1.41016c.10059.125.16699.23389.16699.39258,0,.28369-.24219.47559-.49219.47559-.23438,0-.38477-.1084-.50195-.26709l-1.41797-1.81104h-1.29395v1.56885c0,.28369-.22559.50928-.50879.50928-.29297,0-.51758-.22559-.51758-.50928v-4.85791Zm2.5293,2.37891c.73438,0,1.20117-.38379,1.20117-.97656v-.0166c0-.62598-.45117-.96777-1.20996-.96777h-1.49414v1.96094h1.50293Z" fill="#ebebeb"/>
      <path d="m14.16895,50.42627l2.16992-4.84131c.11621-.25879.3252-.41699.61816-.41699h.0498c.29199,0,.49219.1582.6084.41699l2.1709,4.84131c.04199.0752.05762.1499.05762.21729,0,.27539-.20801.49219-.4834.49219-.24219,0-.40918-.1416-.50098-.35889l-.47559-1.09326h-2.83789l-.49219,1.12695c-.08301.20801-.25879.3252-.47559.3252-.26758,0-.47656-.20898-.47656-.47559,0-.0752.02539-.15039.06738-.23389Zm3.82324-1.65283l-1.02734-2.36182-1.02637,2.36182h2.05371Z" fill="#ebebeb"/>
      <path d="m21.80078,46.20312h-1.41992c-.2666,0-.47559-.21729-.47559-.47607,0-.2583.20898-.47559.47559-.47559h3.88086c.25977,0,.46777.21729.46777.47559,0,.25879-.20801.47607-.46777.47607h-1.42676v4.42334c0,.28369-.2334.50928-.51758.50928s-.5166-.22559-.5166-.50928v-4.42334Z" fill="#ebebeb"/>
      <path d="m25.88965,50.57617v-4.80762c0-.29199.22559-.51709.51758-.51709h3.39746c.25,0,.45898.2085.45898.45898,0,.25879-.20898.45898-.45898.45898h-2.88867v1.51904h2.5127c.25098,0,.45898.20898.45898.46777,0,.25-.20801.4502-.45898.4502h-2.5127v1.56934h2.92969c.25098,0,.45898.20898.45898.45898,0,.25879-.20801.45898-.45898.45898h-3.43848c-.29199,0-.51758-.2251-.51758-.51758Z" fill="#ebebeb"/>
    </g>
    <g>
      <path d="m39.28711,45.76855c0-.29199.22461-.51709.51758-.51709h1.78516c1.36914,0,2.2207.77588,2.2207,1.95312v.0166c0,1.31006-1.05176,1.99463-2.33691,1.99463h-1.16016v1.41064c0,.28369-.22559.50928-.50879.50928-.29297,0-.51758-.22559-.51758-.50928v-4.85791Zm2.21973,2.521c.77637,0,1.26074-.43408,1.26074-1.04346v-.0166c0-.68457-.49219-1.04297-1.26074-1.04297h-1.19336v2.10303h1.19336Z" fill="#ebebeb"/>
      <path d="m45.01855,45.76855c0-.29199.22559-.51709.51758-.51709h2.08691c.73438,0,1.31055.21729,1.68555.58447.30859.31689.48438.75098.48438,1.25977v.01709c0,.93506-.54297,1.50244-1.32715,1.74463l1.11816,1.41016c.10059.125.16797.23389.16797.39258,0,.28369-.24219.47559-.49316.47559-.2334,0-.38379-.1084-.50098-.26709l-1.41797-1.81104h-1.29492v1.56885c0,.28369-.22461.50928-.50879.50928-.29199,0-.51758-.22559-.51758-.50928v-4.85791Zm2.5293,2.37891c.73438,0,1.20215-.38379,1.20215-.97656v-.0166c0-.62598-.45117-.96777-1.21094-.96777h-1.49414v1.96094h1.50293Z" fill="#ebebeb"/>
      <path d="m50.90723,48.18945v-.0166c0-1.64453,1.26855-3.02148,3.06348-3.02148,1.79395,0,3.0459,1.36035,3.0459,3.00488v.0166c0,1.64404-1.26855,3.02148-3.06348,3.02148-1.79395,0-3.0459-1.36035-3.0459-3.00488Zm5.03223,0v-.0166c0-1.13525-.82617-2.07812-1.98633-2.07812s-1.96875.92627-1.96875,2.06152v.0166c0,1.13477.82617,2.06982,1.98633,2.06982s1.96875-.91846,1.96875-2.05322Z" fill="#ebebeb"/>
      <path d="m58.44336,45.76855c0-.29199.22461-.51709.51758-.51709h2.10352c.66699,0,1.19336.18359,1.52734.51709.25781.25879.3916.57617.3916.96875v.0166c0,.70117-.40039,1.07666-.83496,1.30176.68555.23389,1.16016.62598,1.16016,1.41895v.0166c0,1.04346-.85938,1.60254-2.16113,1.60254h-2.18652c-.29297,0-.51758-.2251-.51758-.51758v-4.80762Zm2.41211,1.94531c.65918,0,1.10156-.25879,1.10156-.79297v-.0166c0-.45898-.36719-.74316-1.02734-.74316h-1.47656v1.55273h1.40234Zm.30078,2.4707c.70117,0,1.12695-.27588,1.12695-.80176v-.0166c0-.49219-.39258-.78418-1.20312-.78418h-1.62695v1.60254h1.70312Z" fill="#ebebeb"/>
    </g>
    <g>
      <path d="m74.07617,45.76855c0-.29199.22559-.51709.51758-.51709h2.08691c.73438,0,1.30957.21729,1.68652.58447.30859.31689.4834.75098.4834,1.25977v.01709c0,.93506-.54199,1.50244-1.32715,1.74463l1.11914,1.41016c.09961.125.16602.23389.16602.39258,0,.28369-.24219.47559-.49219.47559-.23438,0-.38379-.1084-.50098-.26709l-1.41895-1.81104h-1.29297v1.56885c0,.28369-.22656.50928-.50977.50928-.29199,0-.51758-.22559-.51758-.50928v-4.85791Zm2.5293,2.37891c.73438,0,1.20117-.38379,1.20117-.97656v-.0166c0-.62598-.4502-.96777-1.20898-.96777h-1.49414v1.96094h1.50195Z" fill="#ebebeb"/>
      <path d="m80.32812,45.73535c0-.28369.22559-.51758.51758-.51758h.1084c.25098,0,.39258.12549.53418.30078l2.92188,3.78125v-3.58936c0-.27539.22461-.50049.5-.50049.28418,0,.50977.2251.50977.50049v4.90771c0,.28418-.2168.50928-.50098.50928h-.04199c-.24219,0-.39258-.12549-.5332-.30908l-3.00586-3.88965v3.70605c0,.27539-.22461.50098-.5.50098-.28418,0-.50977-.22559-.50977-.50098v-4.89941Z" fill="#ebebeb"/>
      <path d="m87.15039,45.76855c0-.29199.22461-.51709.51758-.51709h1.66016c1.83691,0,3.10547,1.26025,3.10547,2.90479v.0166c0,1.64404-1.26855,2.9209-3.10547,2.9209h-1.66016c-.29297,0-.51758-.2251-.51758-.51758v-4.80762Zm2.17773,4.39062c1.22754,0,2.0293-.82617,2.0293-1.96973v-.0166c0-1.14355-.80176-1.98633-2.0293-1.98633h-1.15137v3.97266h1.15137Z" fill="#ebebeb"/>
    </g>
    <g>
      <path d="m100.77344,50.44287c-.11719-.0835-.2002-.2251-.2002-.39209,0-.26709.2168-.47559.4834-.47559.14258,0,.23438.0415.30078.0918.48438.38379,1.00195.60059,1.63672.60059.63379,0,1.03418-.30029,1.03418-.73438v-.0166c0-.41748-.2334-.64258-1.31836-.89307-1.24316-.30029-1.94434-.66797-1.94434-1.74463v-.0166c0-1.00195.83398-1.69434,1.99414-1.69434.73438,0,1.32715.19189,1.85352.54248.11621.06689.22461.2085.22461.40869,0,.26758-.2168.47607-.48438.47607-.09961,0-.18359-.0249-.2666-.0752-.4502-.29199-.88477-.44238-1.34375-.44238-.60059,0-.95215.30908-.95215.69287v.0166c0,.45068.26758.65137,1.39453.91797,1.23535.30078,1.86914.74316,1.86914,1.71094v.01709c0,1.09326-.85938,1.74463-2.08594,1.74463-.79297,0-1.54492-.25098-2.19531-.73486Z" fill="#ebebeb"/>
      <path d="m106.47559,45.71875c0-.28369.22559-.50879.51758-.50879.28418,0,.50879.2251.50879.50879v1.96143h2.78809v-1.96143c0-.28369.22559-.50879.50879-.50879.29297,0,.51758.2251.51758.50879v4.90771c0,.28369-.22461.50928-.51758.50928-.2832,0-.50879-.22559-.50879-.50928v-1.99463h-2.78809v1.99463c0,.28369-.22461.50928-.50879.50928-.29199,0-.51758-.22559-.51758-.50928v-4.90771Z" fill="#ebebeb"/>
      <path d="m112.57422,50.42627l2.16992-4.84131c.11719-.25879.32617-.41699.61719-.41699h.05078c.29199,0,.49219.1582.60938.41699l2.16992,4.84131c.04102.0752.05859.1499.05859.21729,0,.27539-.20898.49219-.48438.49219-.24219,0-.40918-.1416-.50098-.35889l-.47559-1.09326h-2.83789l-.49219,1.12695c-.08398.20801-.25879.3252-.47656.3252-.2666,0-.47461-.20898-.47461-.47559,0-.0752.02441-.15039.06641-.23389Zm3.82227-1.65283l-1.02637-2.36182-1.02637,2.36182h2.05273Z" fill="#ebebeb"/>
      <path d="m119.44824,45.76855c0-.29199.22559-.51709.51758-.51709h1.78613c1.36914,0,2.2207.77588,2.2207,1.95312v.0166c0,1.31006-1.05273,1.99463-2.33789,1.99463h-1.16016v1.41064c0,.28369-.22461.50928-.50879.50928-.29199,0-.51758-.22559-.51758-.50928v-4.85791Zm2.21973,2.521c.77734,0,1.26172-.43408,1.26172-1.04346v-.0166c0-.68457-.49316-1.04297-1.26172-1.04297h-1.19336v2.10303h1.19336Z" fill="#ebebeb"/>
      <path d="m125.18066,50.57617v-4.80762c0-.29199.22559-.51709.51758-.51709h3.39746c.25,0,.45898.2085.45898.45898,0,.25879-.20898.45898-.45898.45898h-2.88867v1.51904h2.5127c.25098,0,.45898.20898.45898.46777,0,.25-.20801.4502-.45898.4502h-2.5127v1.56934h2.92969c.25098,0,.45898.20898.45898.45898,0,.25879-.20801.45898-.45898.45898h-3.43848c-.29199,0-.51758-.2251-.51758-.51758Z" fill="#ebebeb"/>
    </g>
    <g>
      <path d="m38.54492,20.49121c0-.5376.4248-.96289.96289-.96289h3.04102c1.11328,0,1.97656.3125,2.55176.88818.4873.48779.75098,1.17627.75098,2.00195v.0249c0,1.37646-.68848,2.22754-1.75195,2.66504l1.33887,1.62695c.1875.2373.31348.4375.31348.73828,0,.5376-.45117.88818-.91406.88818-.4375,0-.72559-.21289-.95117-.50049l-1.87695-2.37744h-1.53906v1.91455c0,.53809-.42578.96338-.96289.96338-.53809,0-.96289-.42529-.96289-.96338v-6.90723Zm3.87793,3.29102c.93848,0,1.47656-.50049,1.47656-1.23877v-.0249c0-.82617-.5752-1.25098-1.51465-1.25098h-1.91406v2.51465h1.95215Z" fill="#ebebeb"/>
      <path d="m47.14062,27.04785l3.05371-6.89404c.21191-.47559.60059-.76318,1.12598-.76318h.11328c.52539,0,.90039.2876,1.11328.76318l3.05273,6.89404c.0625.1377.09961.2627.09961.3877,0,.51318-.40039.92627-.91309.92627-.4502,0-.75098-.26318-.92578-.66357l-.58887-1.37598h-3.85352l-.61328,1.43896c-.16211.37549-.4873.60059-.8877.60059-.50098,0-.8877-.40039-.8877-.90088,0-.1377.04883-.27539.11133-.41309Zm5.41797-2.42725l-1.21289-2.89014-1.21484,2.89014h2.42773Z" fill="#ebebeb"/>
      <path d="m57.12109,20.44141c0-.53809.42578-.96338.96289-.96338h.20117c.46289,0,.73828.2251,1,.56299l3.7168,4.87988v-4.51709c0-.52539.42578-.95068.95117-.95068s.9502.42529.9502.95068v6.96924c0,.53809-.4248.96387-.96387.96387h-.0625c-.46289,0-.73828-.22559-1-.56348l-3.85352-5.05469v4.69189c0,.52588-.42578.95117-.95117.95117s-.95117-.42529-.95117-.95117v-6.96924Z" fill="#ebebeb"/>
      <path d="m67.16992,20.49121c0-.5376.42578-.96289.96484-.96289h2.45117c2.75391,0,4.65527,1.88916,4.65527,4.354v.0249c0,2.46484-1.90137,4.37939-4.65527,4.37939h-2.45117c-.53906,0-.96484-.42529-.96484-.96338v-6.83203Zm3.41602,6.05615c1.57715,0,2.64062-1.06348,2.64062-2.61475v-.02539c0-1.55127-1.06348-2.63965-2.64062-2.63965h-1.48828v5.27979h1.48828Z" fill="#ebebeb"/>
      <path d="m76.57227,23.93262v-.02539c0-2.48975,1.96484-4.5293,4.66699-4.5293s4.6416,2.01465,4.6416,4.50439v.0249c0,2.49023-1.96387,4.5293-4.66602,4.5293-2.70312,0-4.64258-2.01416-4.64258-4.50391Zm7.29492,0v-.02539c0-1.50146-1.10156-2.75244-2.65234-2.75244-1.55273,0-2.62793,1.22607-2.62793,2.72754v.0249c0,1.50146,1.10059,2.75293,2.65234,2.75293s2.62793-1.22656,2.62793-2.72754Z" fill="#ebebeb"/>
      <path d="m87.69141,20.44141c0-.53809.42578-.96338.96289-.96338h.21289c.41309,0,.70117.2124.87598.50049l2.32715,3.79102,2.33984-3.80371c.2002-.3252.47559-.48779.86328-.48779h.21289c.53809,0,.96289.42529.96289.96338v6.95703c0,.53809-.4248.96338-.96289.96338-.52539,0-.95117-.43799-.95117-.96338v-4.36719l-1.68945,2.60254c-.19922.30078-.44922.48828-.80078.48828-.34961,0-.59961-.1875-.80078-.48828l-1.66406-2.56445v4.354c0,.52539-.4248.93848-.95117.93848-.52539,0-.9375-.41309-.9375-.93848v-6.98193Z" fill="#ebebeb"/>
    </g>
    <g>
      <path d="m12.26367,266.99561h-1.15234c-.2168,0-.38574-.17627-.38574-.38623s.16895-.38623.38574-.38623h3.15039c.20996,0,.37988.17627.37988.38623s-.16992.38623-.37988.38623h-1.1582v3.59033c0,.23047-.18945.41357-.41992.41357s-.41992-.18311-.41992-.41357v-3.59033Z" fill="#ebebeb"/>
      <path d="m15.64258,266.64307c0-.23682.18262-.41992.41992-.41992h1.69336c.5957,0,1.06348.17627,1.36816.47412.25098.25781.39355.60986.39355,1.02344v.01318c0,.75879-.44043,1.21924-1.07812,1.41602l.9082,1.14502c.08203.10156.13574.18945.13574.31836,0,.23047-.19629.38623-.39941.38623-.18945,0-.3125-.08838-.40625-.2168l-1.15234-1.47021h-1.0498v1.27344c0,.23047-.18262.41357-.41309.41357-.2373,0-.41992-.18311-.41992-.41357v-3.94287Zm2.05273,1.93115c.5957,0,.97461-.31152.97461-.79297v-.01367c0-.50781-.36523-.78564-.98242-.78564h-1.21191v1.59229h1.21973Z" fill="#ebebeb"/>
      <path d="m20.80078,266.60254c0-.23047.18262-.41309.41992-.41309.23047,0,.41309.18262.41309.41309v3.9834c0,.23047-.18262.41357-.41309.41357-.2373,0-.41992-.18311-.41992-.41357v-3.9834Z" fill="#ebebeb"/>
      <path d="m22.86133,268.60791v-.01367c0-1.32764,1.01562-2.45264,2.44531-2.45264.71094,0,1.18555.16992,1.61914.48145.08105.06055.16992.17578.16992.33887,0,.22314-.18359.41309-.41406.41309-.1084,0-.18945-.04785-.25684-.09473-.30566-.22363-.6377-.37305-1.15234-.37305-.87402,0-1.53809.76562-1.53809,1.67383v.01318c0,.97559.64453,1.69385,1.61328,1.69385.44727,0,.85352-.14258,1.14453-.35938v-.88721h-.93457c-.2041,0-.37305-.15576-.37305-.35889s.16895-.36621.37305-.36621h1.32129c.23633,0,.41992.18311.41992.41992v1.26709c0,.2373-.0957.40674-.29199.52881-.40625.27051-.97559.51465-1.68652.51465-1.48438,0-2.45898-1.05664-2.45898-2.43896Z" fill="#ebebeb"/>
    </g>
    <g>
      <path d="m47.93359,266.60254c0-.23047.18262-.41309.41992-.41309.23047,0,.41309.18262.41309.41309v3.9834c0,.23047-.18262.41357-.41309.41357-.2373,0-.41992-.18311-.41992-.41357v-3.9834Z" fill="#ebebeb"/>
      <path d="m50.24219,266.61621c0-.23047.18359-.41992.41992-.41992h.08887c.20312,0,.31836.10156.43359.24365l2.37109,3.06885v-2.91309c0-.22363.18262-.40625.40625-.40625.23047,0,.41309.18262.41309.40625v3.9834c0,.23047-.17578.41357-.40625.41357h-.03418c-.19629,0-.31836-.10156-.43359-.25049l-2.43848-3.15723v3.00781c0,.22363-.18359.40674-.40625.40674-.23047,0-.41406-.18311-.41406-.40674v-3.97656Z" fill="#ebebeb"/>
    </g>
    <g>
      <path d="m73.82324,268.6084v-.01367c0-1.33447,1.03027-2.45215,2.4873-2.45215,1.45605,0,2.47266,1.104,2.47266,2.43848v.01367c0,1.33496-1.03027,2.45264-2.48633,2.45264-1.45703,0-2.47363-1.104-2.47363-2.43896Zm4.08496,0v-.01367c0-.92139-.66992-1.68652-1.61133-1.68652-.94238,0-1.59961.75195-1.59961,1.67285v.01367c0,.92139.6709,1.68018,1.61328,1.68018.94141,0,1.59766-.74512,1.59766-1.6665Z" fill="#ebebeb"/>
      <path d="m80,266.64355c0-.2373.18262-.41992.41992-.41992h2.76367c.21094,0,.37988.16943.37988.37939s-.16895.37939-.37988.37939h-2.35059v1.29395h2.0459c.21094,0,.37988.16943.37988.37939s-.16895.37939-.37988.37939h-2.0459v1.55176c0,.22998-.18262.41309-.41309.41309-.2373,0-.41992-.18311-.41992-.41309v-3.94336Z" fill="#ebebeb"/>
      <path d="m84.42969,270.4375c-.09473-.06738-.16211-.18262-.16211-.31836,0-.2168.17578-.38623.39258-.38623.11523,0,.18945.03369.24414.07471.39258.31152.8125.48779,1.32812.48779.51465,0,.83984-.24365.83984-.59619v-.01367c0-.33887-.18945-.52148-1.07031-.72461-1.00977-.24414-1.5791-.54199-1.5791-1.41602v-.01367c0-.81299.67773-1.37549,1.62012-1.37549.5957,0,1.07617.15576,1.50391.44043.09375.0542.18262.16943.18262.33203,0,.2168-.17676.38623-.39355.38623-.08105,0-.14844-.02051-.2168-.06104-.36523-.23682-.71777-.35889-1.08984-.35889-.48828,0-.77344.25049-.77344.56201v.01367c0,.36572.2168.52832,1.13184.74512,1.00293.24414,1.51758.60303,1.51758,1.38916v.01367c0,.88721-.69824,1.41553-1.69336,1.41553-.64355,0-1.25293-.20312-1.78223-.59619Z" fill="#ebebeb"/>
      <path d="m90.22266,266.99609h-1.15234c-.2168,0-.38574-.17627-.38574-.38623s.16895-.38623.38574-.38623h3.15039c.21094,0,.37988.17627.37988.38623s-.16895.38623-.37988.38623h-1.1582v3.59082c0,.22998-.18945.41309-.41992.41309s-.41992-.18311-.41992-.41309v-3.59082Z" fill="#ebebeb"/>
    </g>
    <g>
      <path d="m45.61133,314.64844c0-.2915.23047-.52197.52148-.52197.29199,0,.52148.23047.52148.52197v3.3125h1.93164c.26367,0,.47363.20996.47363.47461,0,.26416-.20996.47412-.47363.47412h-2.45312c-.29102,0-.52148-.23047-.52148-.52197v-3.73926Z" fill="#1f1f1f"/>
      <path d="m49.98633,314.64844c0-.2915.23047-.52197.52148-.52197.29199,0,.52148.23047.52148.52197v3.78027c0,.29102-.22949.52148-.52148.52148-.29102,0-.52148-.23047-.52148-.52148v-3.78027Z" fill="#1f1f1f"/>
      <path d="m52.43555,314.66211c0-.2915.23047-.52197.52148-.52197h.1084c.25098,0,.40039.12207.54199.30518l2.0127,2.6416v-2.44531c0-.28467.23047-.51514.51465-.51514s.51465.23047.51465.51514v3.77344c0,.2915-.23047.52148-.52148.52148h-.03418c-.25,0-.39941-.12158-.54199-.30469l-2.08594-2.7373v2.54102c0,.28418-.23047.51465-.51562.51465-.28418,0-.51465-.23047-.51465-.51465v-3.77344Z" fill="#1f1f1f"/>
    </g>
    <g>
      <path d="m10.43262,318.4082c-.11523-.08105-.19629-.23047-.19629-.39258,0-.27148.2168-.48145.4873-.48145.13574,0,.23047.04785.29785.09473.35938.26465.75293.42725,1.21289.42725.42676,0,.68457-.16943.68457-.44727v-.01367c0-.26416-.16309-.3999-.95508-.60303-.95508-.24365-1.57227-.50781-1.57227-1.44971v-.01318c0-.86084.69141-1.42969,1.66016-1.42969.57617,0,1.07715.14893,1.50391.41992.11523.06787.23047.20996.23047.41309,0,.27148-.2168.48145-.48828.48145-.10156,0-.18262-.02734-.26367-.07471-.3457-.20361-.6709-.31836-.99609-.31836-.39941,0-.60938.18311-.60938.41309v.01367c0,.31152.20312.41309,1.02246.62354.96191.25049,1.50391.5957,1.50391,1.42236v.01367c0,.94189-.71777,1.47021-1.74121,1.47021-.62305,0-1.25293-.18994-1.78125-.56934Z" fill="#1f1f1f"/>
      <path d="m16.13867,315.12939h-1.00195c-.26465,0-.48145-.2168-.48145-.48096,0-.26465.2168-.48145.48145-.48145h3.04785c.26465,0,.48145.2168.48145.48145,0,.26416-.2168.48096-.48145.48096h-1.00195v3.29932c0,.29102-.23047.52148-.52148.52148-.29199,0-.52246-.23047-.52246-.52148v-3.29932Z" fill="#1f1f1f"/>
      <path d="m19.5752,318.3877v-3.69873c0-.2915.22949-.52197.52148-.52197h2.62793c.25781,0,.46777.20996.46777.46777,0,.25732-.20996.46094-.46777.46094h-2.11328v.96191h1.80859c.25781,0,.46777.20996.46777.46729s-.20996.46045-.46777.46045h-1.80859v.99609h2.14746c.25781,0,.46777.20996.46777.46777,0,.25732-.20996.46045-.46777.46045h-2.66211c-.29199,0-.52148-.23047-.52148-.52197Z" fill="#1f1f1f"/>
      <path d="m24.34766,314.68896c0-.2915.22949-.52197.52148-.52197h1.41602c1.13086,0,1.81543.6709,1.81543,1.63965v.01367c0,1.09766-.85352,1.6665-1.91699,1.6665h-.79297v.94189c0,.29102-.23047.52148-.52148.52148-.29199,0-.52148-.23047-.52148-.52148v-3.73975Zm1.86914,1.86963c.52148,0,.82715-.31152.82715-.71777v-.01367c0-.46777-.3252-.71826-.84766-.71826h-.80566v1.44971h.82617Z" fill="#1f1f1f"/>
    </g>
    <g>
      <path d="m76.56836,318.3877v-3.69873c0-.2915.23047-.52197.52148-.52197h2.62891c.25781,0,.46777.20996.46777.46777,0,.25732-.20996.46094-.46777.46094h-2.11328v.96191h1.80859c.25781,0,.4668.20996.4668.46729s-.20898.46045-.4668.46045h-1.80859v.99609h2.14746c.25684,0,.46777.20996.46777.46777,0,.25732-.21094.46045-.46777.46045h-2.66309c-.29102,0-.52148-.23047-.52148-.52197Z" fill="#1f1f1f"/>
      <path d="m81.21484,318.06934l1.28027-1.57129-1.20605-1.4707c-.08203-.10156-.15625-.23682-.15625-.38574,0-.2915.2168-.51514.51562-.51514.22266,0,.35156.08838.48047.25732l1.03711,1.38232,1.0293-1.35498c.14258-.18262.27734-.28467.50781-.28467s.47461.18311.47461.48096c0,.14941-.05469.27148-.15625.3999l-1.20508,1.47705,1.27344,1.56494c.08105.10156.15625.23682.15625.38623,0,.29102-.2168.51465-.51562.51465-.22266,0-.35156-.08789-.48047-.25732l-1.11133-1.45654-1.09766,1.42969c-.14258.18262-.27734.28418-.50781.28418s-.47461-.18262-.47461-.48096c0-.14893.05469-.271.15625-.3999Z" fill="#1f1f1f"/>
      <path d="m86.30469,314.68896c0-.2915.23047-.52197.52246-.52197h1.41602c1.13184,0,1.81543.6709,1.81543,1.63965v.01367c0,1.09766-.85352,1.6665-1.91699,1.6665h-.79297v.94189c0,.29102-.22949.52148-.52148.52148s-.52246-.23047-.52246-.52148v-3.73975Zm1.87109,1.86963c.52148,0,.82617-.31152.82617-.71777v-.01367c0-.46777-.3252-.71826-.84766-.71826h-.80566v1.44971h.82715Z" fill="#1f1f1f"/>
    </g>
    <g>
      <path d="m105.45508,318.4082c-.11523-.08105-.19531-.23047-.19531-.39258,0-.27148.2168-.48145.4873-.48145.13574,0,.23047.04785.29785.09473.35938.26465.75195.42725,1.21289.42725.42676,0,.68359-.16943.68359-.44727v-.01367c0-.26416-.16211-.3999-.95508-.60303-.95508-.24365-1.57129-.50781-1.57129-1.44971v-.01318c0-.86084.69043-1.42969,1.65918-1.42969.57617,0,1.07812.14893,1.50488.41992.11426.06787.22949.20996.22949.41309,0,.27148-.2168.48145-.4873.48145-.10156,0-.18262-.02734-.26465-.07471-.34473-.20361-.66992-.31836-.99512-.31836-.39941,0-.61035.18311-.61035.41309v.01367c0,.31152.20312.41309,1.02344.62354.96191.25049,1.50391.5957,1.50391,1.42236v.01367c0,.94189-.71875,1.47021-1.74121,1.47021-.62305,0-1.25293-.18994-1.78223-.56934Z" fill="#1f1f1f"/>
      <path d="m110.12305,314.66211c0-.2915.22949-.52197.52148-.52197h.11523c.22266,0,.37891.11523.47363.271l1.26074,2.05273,1.26562-2.05957c.10938-.17578.25781-.26416.46875-.26416h.11523c.29102,0,.52148.23047.52148.52197v3.7666c0,.29102-.23047.52148-.52148.52148-.28516,0-.51562-.2373-.51562-.52148v-2.36426l-.91406,1.40918c-.10938.16211-.24414.26367-.43359.26367s-.32617-.10156-.43359-.26367l-.90137-1.38916v2.35791c0,.28418-.23047.50781-.51465.50781-.28516,0-.50781-.22363-.50781-.50781v-3.78027Z" fill="#1f1f1f"/>
      <path d="m117.26074,315.12939h-1.00293c-.26367,0-.48047-.2168-.48047-.48096,0-.26465.2168-.48145.48047-.48145h3.04883c.26367,0,.48047.2168.48047.48145,0,.26416-.2168.48096-.48047.48096h-1.00195v3.29932c0,.29102-.23047.52148-.52148.52148-.29199,0-.52246-.23047-.52246-.52148v-3.29932Z" fill="#1f1f1f"/>
      <path d="m120.69922,314.64844c0-.2915.23047-.52197.52148-.52197s.52148.23047.52148.52197v1.39551h1.92383v-1.39551c0-.2915.23047-.52197.52148-.52197.29199,0,.52148.23047.52148.52197v3.78027c0,.29102-.22949.52148-.52148.52148-.29102,0-.52148-.23047-.52148-.52148v-1.42285h-1.92383v1.42285c0,.29102-.23047.52148-.52148.52148s-.52148-.23047-.52148-.52148v-3.78027Z" fill="#1f1f1f"/>
    </g>
  </g>
</svg>