<?xml version="1.0" encoding="UTF-8"?>
<svg xmlns="http://www.w3.org/2000/svg" width="45" height="380" xmlns:xlink="http://www.w3.org/1999/xlink" viewBox="0 0 45 380">
  <defs>
    <linearGradient id="uuid-6c3f6003-7dce-43e7-b1f0-7f98c3c243c7" x1="22.5" y1="0" x2="22.5" y2="380" gradientUnits="userSpaceOnUse">
      <stop offset="0" stop-color="#2a2a2b"/>
      <stop offset="1" stop-color="#171717"/>
    </linearGradient>
  </defs>
  <g id="uuid-9d49e0cd-5bfa-4531-b4aa-a7f30f5cf088" data-name="FND BG">
    <rect width="45" height="380" fill="url(#uuid-6c3f6003-7dce-43e7-b1f0-7f98c3c243c7)"/>
  </g>
  <g id="uuid-0656838d-269c-414d-9360-31d23a6e5364" data-name="FND GRAPH">
    <rect x="8.2287" y="129.60466" width="28.55155" height="218.42431" rx="2.83465" ry="2.83465" fill="#ededed"/>
    <path d="m22.83321,85.38804l1.65796-2.87167c.14313-.24791-.03578-.55779-.32204-.55779h-3.31592c-.28626,0-.46517.30989-.32204.55779l1.65796,2.87167c.14313.24791.50096.24791.64409,0Z" fill="#ededed"/>
    <g>
      <circle cx="23.00165" cy="355.83101" r="1.18571" fill="#ededed"/>
      <path d="m14.35927,359.75298c-.34551,0-.66126-.1952-.8158-.50419l-2.96428-5.92856c-.22526-.45057-.04266-.99844.40794-1.2237.45008-.22535.99831-.04271,1.22366.4079l2.14848,4.29696,2.14848-4.29696c.22526-.45057.77314-.63325,1.22366-.4079.45061.22526.63321.77314.40794,1.2237l-2.96428,5.92856c-.15454.30899-.47029.50419-.8158.50419Z" fill="#ededed"/>
      <path d="m30.64073,359.75298c-.34551,0-.66126-.1952-.8158-.50419l-2.96428-5.92856c-.22526-.45057-.04266-.99844.40794-1.2237.45016-.22535.9984-.04271,1.22366.4079l2.14848,4.29696,2.14848-4.29696c.22526-.45057.77305-.63325,1.22366-.4079.45061.22526.63321.77314.40794,1.2237l-2.96428,5.92856c-.15454.30899-.47029.50419-.8158.50419Z" fill="#ededed"/>
      <path d="m22.94242,359.75298c-2.13744,0-3.87637-1.73893-3.87637-3.87637s1.73893-3.87637,3.87637-3.87637c.84653,0,1.65102.26819,2.32653.77554.40278.30253.48401.87428.18153,1.27705-.30248.40273-.87432.48401-1.2771.18148-.357-.26815-.78267-.4099-1.23096-.4099-1.13156,0-2.05219.92059-2.05219,2.05219s.92064,2.05219,2.05219,2.05219c.44829,0,.87396-.14176,1.23096-.4099.40269-.30271.97444-.22125,1.2771.18148.30248.40278.22125.97453-.18153,1.27705-.67551.50735-1.48.77554-2.32653.77554Z" fill="#ededed"/>
    </g>
  </g>
  <g id="uuid-d9b26082-fb1a-45ac-b866-287362747f4e" data-name="FND TXT">
    <g>
      <path d="m15.0369,135.26367c0-.2915.22998-.52197.52148-.52197h1.64648c.60254,0,1.07031.16943,1.38184.48096.26416.26416.40625.63672.40625,1.08398v.01367c0,.74512-.37256,1.20605-.94824,1.44287l.7251.88086c.10156.12842.16943.23682.16943.3999,0,.29102-.24414.48096-.49463.48096-.2373,0-.39307-.11523-.51514-.271l-1.01611-1.28711h-.8335v1.03613c0,.2915-.23047.52197-.52148.52197-.2915,0-.52148-.23047-.52148-.52197v-3.73926Zm2.1001,1.78125c.50781,0,.79932-.27051.79932-.67041v-.01367c0-.44678-.31152-.67725-.81982-.67725h-1.03662v1.36133h1.05713Z" fill="#1f1f1f"/>
      <path d="m20.19022,135.23633c0-.2915.23047-.52148.52197-.52148h.1084c.25049,0,.3999.12158.54199.30469l2.01221,2.64209v-2.4458c0-.28418.23047-.51465.51465-.51465.28467,0,.51514.23047.51514.51465v3.77344c0,.2915-.23047.52197-.52197.52197h-.03369c-.25049,0-.3999-.12207-.54199-.30518l-2.08643-2.73682v2.54053c0,.28467-.23047.51514-.51514.51514s-.51514-.23047-.51514-.51514v-3.77344Z" fill="#1f1f1f"/>
      <path d="m25.79862,135.26367c0-.2915.22998-.52197.52148-.52197h1.32764c1.49072,0,2.52051,1.02295,2.52051,2.35791v.01318c0,1.33447-1.02979,2.37158-2.52051,2.37158h-1.32764c-.2915,0-.52148-.23047-.52148-.52197v-3.69873Zm1.84912,3.27881c.854,0,1.42969-.57568,1.42969-1.41602v-.01367c0-.83984-.57568-1.4292-1.42969-1.4292h-.80615v2.85889h.80615Z" fill="#1f1f1f"/>
    </g>
    <g>
      <path d="m13.22343,45.42285c0-.2373.18311-.41992.42041-.41992h1.44971c1.11084,0,1.80225.62988,1.80225,1.58545v.01318c0,1.06396-.854,1.61914-1.89746,1.61914h-.94141v1.14551c0,.22998-.18311.41309-.41309.41309-.2373,0-.42041-.18311-.42041-.41309v-3.94336Zm1.80225,2.0459c.62988,0,1.02295-.35205,1.02295-.84668v-.01367c0-.55566-.3999-.84668-1.02295-.84668h-.96875v1.70703h.96875Z" fill="#ebebeb"/>
      <path d="m17.85966,47.7334v-2.35107c0-.23047.18311-.41357.42041-.41357.22998,0,.41309.18311.41309.41357v2.31689c0,.88086.4541,1.34863,1.19922,1.34863.73877,0,1.19238-.44043,1.19238-1.31445v-2.35107c0-.23047.18311-.41357.42041-.41357.22998,0,.41309.18311.41309.41357v2.31006c0,1.41602-.7998,2.12744-2.03906,2.12744-1.2334,0-2.01953-.71143-2.01953-2.08643Z" fill="#ebebeb"/>
      <path d="m23.15653,49.2168c-.09521-.06738-.16309-.18262-.16309-.31836,0-.2168.17627-.38623.39307-.38623.11523,0,.18994.03369.24414.07471.39307.31152.81299.48779,1.32764.48779.51514,0,.84033-.24365.84033-.59619v-.01367c0-.33887-.18994-.52148-1.0708-.72461-1.00928-.24414-1.57812-.54199-1.57812-1.41602v-.01367c0-.81299.67725-1.37549,1.61914-1.37549.59619,0,1.07715.15576,1.50391.44043.09473.0542.18262.16943.18262.33203,0,.2168-.17578.38623-.39258.38623-.08105,0-.14941-.02051-.2168-.06104-.36621-.23682-.71826-.35889-1.09082-.35889-.48779,0-.77246.25049-.77246.56201v.01367c0,.36572.2168.52832,1.13184.74512,1.00244.24414,1.51758.60303,1.51758,1.38916v.01367c0,.88721-.69824,1.41553-1.69434,1.41553-.64355,0-1.25293-.20312-1.78125-.59619Z" fill="#ebebeb"/>
      <path d="m27.84257,45.38232c0-.23047.18311-.41357.42041-.41357.22998,0,.41309.18311.41309.41357v1.59229h2.2627v-1.59229c0-.23047.18311-.41357.41309-.41357.2373,0,.42041.18311.42041.41357v3.98389c0,.22998-.18311.41309-.42041.41309-.22998,0-.41309-.18311-.41309-.41309v-1.61914h-2.2627v1.61914c0,.22998-.18311.41309-.41309.41309-.2373,0-.42041-.18311-.42041-.41309v-3.98389Z" fill="#ebebeb"/>
    </g>
    <g>
      <path d="m15.71073,93.83154h-1.15137c-.2168,0-.38623-.17627-.38623-.38623s.16943-.38623.38623-.38623h3.1499c.21045,0,.37939.17627.37939.38623s-.16895.38623-.37939.38623h-1.1582v3.59033c0,.23047-.18994.41357-.42041.41357-.22998,0-.41992-.18311-.41992-.41357v-3.59033Z" fill="#ebebeb"/>
      <path d="m19.08964,93.479c0-.23682.18262-.41992.41992-.41992h1.69385c.59619,0,1.06348.17627,1.36865.47412.25049.25781.39258.60986.39258,1.02344v.01318c0,.75879-.44043,1.21924-1.07715,1.41602l.90771,1.14502c.08154.10156.13574.18945.13574.31836,0,.23047-.19678.38623-.3999.38623-.18945,0-.31152-.08838-.40625-.2168l-1.15186-1.47021h-1.05029v1.27344c0,.23047-.18262.41357-.41309.41357-.2373,0-.41992-.18311-.41992-.41357v-3.94287Zm2.05273,1.93115c.59619,0,.97559-.31152.97559-.79297v-.01367c0-.50781-.36572-.78564-.98242-.78564h-1.21289v1.59229h1.21973Z" fill="#ebebeb"/>
      <path d="m24.24784,93.43848c0-.23047.18262-.41309.41992-.41309.23047,0,.41309.18262.41309.41309v3.9834c0,.23047-.18262.41357-.41309.41357-.2373,0-.41992-.18311-.41992-.41357v-3.9834Z" fill="#ebebeb"/>
      <path d="m26.30888,95.44385v-.01367c0-1.32764,1.01611-2.45264,2.4458-2.45264.71094,0,1.18555.16992,1.61914.48145.08105.06055.16895.17578.16895.33887,0,.22314-.18262.41309-.41309.41309-.1084,0-.18945-.04785-.25732-.09473-.30518-.22363-.63672-.37305-1.15186-.37305-.87402,0-1.53809.76562-1.53809,1.67383v.01318c0,.97559.64404,1.69385,1.61279,1.69385.44678,0,.85352-.14258,1.14502-.35938v-.88721h-.93506c-.20312,0-.37256-.15576-.37256-.35889s.16943-.36621.37256-.36621h1.3208c.2373,0,.42041.18311.42041.41992v1.26709c0,.2373-.09521.40674-.2915.52881-.40625.27051-.97559.51465-1.68701.51465-1.4834,0-2.45898-1.05664-2.45898-2.43896Z" fill="#ebebeb"/>
    </g>
    <g>
      <path d="m9.02274,20.49219c0-.53809.42529-.96387.96338-.96387h3.04053c1.11328,0,1.97656.31299,2.55225.88867.48779.48779.75049,1.17578.75049,2.00195v.0249c0,1.37646-.68799,2.22705-1.75146,2.66504l1.33887,1.62646c.1875.23828.31299.43848.31299.73828,0,.53809-.45068.88867-.91357.88867-.43799,0-.72559-.21289-.95117-.50049l-1.87646-2.37744h-1.53906v1.91406c0,.53809-.42578.96387-.96338.96387-.53809,0-.96338-.42578-.96338-.96387v-6.90625Zm3.87842,3.29053c.93848,0,1.47656-.50049,1.47656-1.23877v-.0249c0-.82568-.57568-1.25146-1.51416-1.25146h-1.91406v2.51514h1.95166Z" fill="#ebebeb"/>
      <path d="m18.23954,20.44189c0-.53809.42578-.96338.96387-.96338h.2002c.46289,0,.73828.2251,1.00098.56299l3.71582,4.87988v-4.51709c0-.52539.42578-.95068.95117-.95068s.95068.42529.95068.95068v6.96973c0,.5376-.42529.96289-.96338.96289h-.0625c-.46289,0-.73828-.2251-1.00098-.5625l-3.85352-5.05518v4.69189c0,.52539-.42578.95117-.95117.95117s-.95117-.42578-.95117-.95117v-6.96924Z" fill="#ebebeb"/>
      <path d="m28.29032,20.49219c0-.53809.42529-.96387.96338-.96387h2.45215c2.75293,0,4.65479,1.88965,4.65479,4.35449v.0249c0,2.46533-1.90186,4.37939-4.65479,4.37939h-2.45215c-.53809,0-.96338-.42529-.96338-.96338v-6.83154Zm3.41553,6.05566c1.57666,0,2.64014-1.06348,2.64014-2.61523v-.0249c0-1.55127-1.06348-2.64014-2.64014-2.64014h-1.48877v5.28027h1.48877Z" fill="#ebebeb"/>
    </g>
  </g>
</svg>