<?xml version="1.0" encoding="UTF-8" standalone="no"?>
<svg
   xmlns:dc="http://purl.org/dc/elements/1.1/"
   xmlns:cc="http://creativecommons.org/ns#"
   xmlns:rdf="http://www.w3.org/1999/02/22-rdf-syntax-ns#"
   xmlns:svg="http://www.w3.org/2000/svg"
   xmlns="http://www.w3.org/2000/svg"
   xmlns:sodipodi="http://sodipodi.sourceforge.net/DTD/sodipodi-0.dtd"
   xmlns:inkscape="http://www.inkscape.org/namespaces/inkscape"
   width="135"
   height="380"
   viewBox="0 0 135 380"
   version="1.1"
   id="svg291"
   sodipodi:docname="RANDOM.svg"
   inkscape:version="0.92.3 (2405546, 2018-03-11)">
  <metadata
     id="metadata295">
    <rdf:RDF>
      <cc:Work
         rdf:about="">
        <dc:format>image/svg+xml</dc:format>
        <dc:type
           rdf:resource="http://purl.org/dc/dcmitype/StillImage" />
      </cc:Work>
    </rdf:RDF>
  </metadata>
  <sodipodi:namedview
     pagecolor="#ffffff"
     bordercolor="#666666"
     borderopacity="1"
     objecttolerance="10"
     gridtolerance="10"
     guidetolerance="10"
     inkscape:pageopacity="0"
     inkscape:pageshadow="2"
     inkscape:window-width="1920"
     inkscape:window-height="1017"
     id="namedview293"
     showgrid="false"
     inkscape:zoom="0.62105263"
     inkscape:cx="67.5"
     inkscape:cy="190"
     inkscape:window-x="-8"
     inkscape:window-y="-8"
     inkscape:window-maximized="1"
     inkscape:current-layer="svg291" />
  <defs
     id="defs7">
    <linearGradient
       id="b5923744-cbcc-4d88-aefc-59fc27f74fbc"
       x1="67.50002"
       x2="67.50002"
       y2="380"
       gradientUnits="userSpaceOnUse">
      <stop
         offset="0"
         stop-color="#ebebeb"
         id="stop2" />
      <stop
         offset="1"
         stop-color="#e1e1e1"
         id="stop4" />
    </linearGradient>
  </defs>
  <g
     id="a473deef-0fb3-453d-8217-58808a11e162"
     data-name="FND BG">
    <rect
       x="0.00003"
       width="134.99999"
       height="380"
       fill="url(#b5923744-cbcc-4d88-aefc-59fc27f74fbc)"
       id="rect9" />
  </g>
  <g
     id="ab71e601-9fd3-40f1-8475-868c5dcb179f"
     data-name="FND GRAPH">
    <line
       x1="42.62572"
       y1="99.50846"
       x2="27.62671"
       y2="99.50846"
       fill="none"
       stroke="#1f1f1f"
       stroke-linecap="round"
       stroke-linejoin="round"
       stroke-width="0.5"
       id="line12" />
    <line
       x1="42.62572"
       y1="77.90726"
       x2="27.62671"
       y2="77.90726"
       fill="none"
       stroke="#1f1f1f"
       stroke-linecap="round"
       stroke-linejoin="round"
       stroke-width="0.5"
       id="line14" />
    <line
       x1="42.62572"
       y1="88.70786"
       x2="27.62671"
       y2="88.70786"
       fill="none"
       stroke="#1f1f1f"
       stroke-linecap="round"
       stroke-linejoin="round"
       stroke-width="0.5"
       id="line16" />
    <line
       x1="42.62572"
       y1="67.10666"
       x2="27.62671"
       y2="67.10666"
       fill="none"
       stroke="#1f1f1f"
       stroke-linecap="round"
       stroke-linejoin="round"
       id="line18" />
    <line
       x1="42.62572"
       y1="110.30905"
       x2="27.62671"
       y2="110.30905"
       fill="none"
       stroke="#1f1f1f"
       stroke-linecap="round"
       stroke-linejoin="round"
       stroke-width="0.5"
       id="line20" />
    <line
       x1="42.62572"
       y1="121.10965"
       x2="27.62671"
       y2="121.10965"
       fill="none"
       stroke="#1f1f1f"
       stroke-linecap="round"
       stroke-linejoin="round"
       stroke-width="0.5"
       id="line22" />
    <line
       x1="42.62671"
       y1="131.91024"
       x2="27.62771"
       y2="131.91024"
       fill="none"
       stroke="#1f1f1f"
       stroke-linecap="round"
       stroke-linejoin="round"
       id="line24" />
    <line
       x1="74.57971"
       y1="99.50832"
       x2="59.62676"
       y2="99.50832"
       fill="none"
       stroke="#1f1f1f"
       stroke-linecap="round"
       stroke-linejoin="round"
       stroke-width="0.5"
       id="line26" />
    <line
       x1="74.57971"
       y1="77.90702"
       x2="59.62676"
       y2="77.90702"
       fill="none"
       stroke="#1f1f1f"
       stroke-linecap="round"
       stroke-linejoin="round"
       stroke-width="0.5"
       id="line28" />
    <line
       x1="74.57971"
       y1="88.70767"
       x2="59.62676"
       y2="88.70767"
       fill="none"
       stroke="#1f1f1f"
       stroke-linecap="round"
       stroke-linejoin="round"
       stroke-width="0.5"
       id="line30" />
    <line
       x1="74.57971"
       y1="67.10637"
       x2="59.62676"
       y2="67.10637"
       fill="none"
       stroke="#1f1f1f"
       stroke-linecap="round"
       stroke-linejoin="round"
       id="line32" />
    <line
       x1="74.57971"
       y1="110.30896"
       x2="59.62676"
       y2="110.30896"
       fill="none"
       stroke="#1f1f1f"
       stroke-linecap="round"
       stroke-linejoin="round"
       stroke-width="0.5"
       id="line34" />
    <line
       x1="74.57971"
       y1="121.10962"
       x2="59.62676"
       y2="121.10962"
       fill="none"
       stroke="#1f1f1f"
       stroke-linecap="round"
       stroke-linejoin="round"
       stroke-width="0.5"
       id="line36" />
    <line
       x1="74.5807"
       y1="131.91026"
       x2="59.62775"
       y2="131.91026"
       fill="none"
       stroke="#1f1f1f"
       stroke-linecap="round"
       stroke-linejoin="round"
       id="line38" />
    <line
       x1="106.59608"
       y1="99.50832"
       x2="91.62593"
       y2="99.50832"
       fill="none"
       stroke="#1f1f1f"
       stroke-linecap="round"
       stroke-linejoin="round"
       stroke-width="0.5"
       id="line40" />
    <line
       x1="106.59608"
       y1="77.90702"
       x2="91.62593"
       y2="77.90702"
       fill="none"
       stroke="#1f1f1f"
       stroke-linecap="round"
       stroke-linejoin="round"
       stroke-width="0.5"
       id="line42" />
    <line
       x1="106.59608"
       y1="88.70767"
       x2="91.62593"
       y2="88.70767"
       fill="none"
       stroke="#1f1f1f"
       stroke-linecap="round"
       stroke-linejoin="round"
       stroke-width="0.5"
       id="line44" />
    <line
       x1="106.59608"
       y1="67.10637"
       x2="91.62593"
       y2="67.10637"
       fill="none"
       stroke="#1f1f1f"
       stroke-linecap="round"
       stroke-linejoin="round"
       id="line46" />
    <line
       x1="106.59608"
       y1="110.30896"
       x2="91.62593"
       y2="110.30896"
       fill="none"
       stroke="#1f1f1f"
       stroke-linecap="round"
       stroke-linejoin="round"
       stroke-width="0.5"
       id="line48" />
    <line
       x1="106.59608"
       y1="121.10962"
       x2="91.62593"
       y2="121.10962"
       fill="none"
       stroke="#1f1f1f"
       stroke-linecap="round"
       stroke-linejoin="round"
       stroke-width="0.5"
       id="line50" />
    <line
       x1="106.59707"
       y1="131.91026"
       x2="91.62693"
       y2="131.91026"
       fill="none"
       stroke="#1f1f1f"
       stroke-linecap="round"
       stroke-linejoin="round"
       id="line52" />
    <line
       x1="21.97519"
       y1="286"
       x2="54.50438"
       y2="286"
       fill="none"
       stroke="#1f1f1f"
       stroke-linecap="round"
       stroke-linejoin="round"
       stroke-width="0.8"
       id="line54" />
    <rect
       x="100.79782"
       y="260.79705"
       width="28.66906"
       height="39.15691"
       rx="2.83465"
       fill="#1f1f1f"
       id="rect56" />
    <g
       id="g66">
      <path
         d="M59.35927,359.753a.91214.91214,0,0,1-.8158-.50418l-2.96428-5.92857a.91209.91209,0,0,1,1.6316-.8158l2.14848,4.297,2.14848-4.297a.91209.91209,0,0,1,1.6316.8158l-2.96428,5.92857A.91211.91211,0,0,1,59.35927,359.753Z"
         fill="#1f1f1f"
         id="path58" />
      <path
         d="M75.64073,359.753a.91211.91211,0,0,1-.8158-.50418l-2.96428-5.92857a.91209.91209,0,0,1,1.6316-.8158l2.14848,4.297,2.14848-4.297a.91209.91209,0,0,1,1.6316.8158l-2.96428,5.92857A.91214.91214,0,0,1,75.64073,359.753Z"
         fill="#1f1f1f"
         id="path60" />
      <path
         d="M67.94242,359.753a3.87637,3.87637,0,1,1,2.32653-6.97719.91209.91209,0,1,1-1.09557,1.45854,2.034,2.034,0,0,0-1.231-.40991,2.0522,2.0522,0,1,0,0,4.10439,2.034,2.034,0,0,0,1.231-.40991.91209.91209,0,1,1,1.09557,1.45854A3.8448,3.8448,0,0,1,67.94242,359.753Z"
         fill="#1f1f1f"
         id="path62" />
      <circle
         cx="68.00165"
         cy="355.83101"
         r="1.18571"
         fill="#1f1f1f"
         id="circle64" />
    </g>
    <rect
       x="4.81652"
       y="309.0301"
       width="124.61509"
       height="39.15691"
       rx="2.83465"
       fill="#1f1f1f"
       id="rect68" />
    <g
       id="g76">
      <line
         x1="19.13231"
         y1="202.94551"
         x2="19.13231"
         y2="212.14746"
         fill="none"
         stroke="#1f1f1f"
         stroke-linecap="round"
         stroke-linejoin="round"
         stroke-width="0.8"
         id="line70" />
      <line
         x1="19.13231"
         y1="178.6111"
         x2="19.13231"
         y2="190.09049"
         fill="none"
         stroke="#1f1f1f"
         stroke-linecap="round"
         stroke-linejoin="round"
         id="line72" />
      <path
         d="M10.97885,198.22438a11.53074,11.53074,0,1,1,16.30693,0"
         fill="none"
         stroke="#1f1f1f"
         stroke-linecap="round"
         stroke-linejoin="round"
         id="path74" />
    </g>
    <g
       id="g84">
      <line
         x1="51.13235"
         y1="202.94551"
         x2="51.13235"
         y2="212.14746"
         fill="none"
         stroke="#1f1f1f"
         stroke-linecap="round"
         stroke-linejoin="round"
         stroke-width="0.8"
         id="line78" />
      <line
         x1="51.13235"
         y1="178.6111"
         x2="51.13235"
         y2="190.09049"
         fill="none"
         stroke="#1f1f1f"
         stroke-linecap="round"
         stroke-linejoin="round"
         id="line80" />
      <path
         d="M42.97889,198.22438a11.53074,11.53074,0,1,1,16.30693,0"
         fill="none"
         stroke="#1f1f1f"
         stroke-linecap="round"
         stroke-linejoin="round"
         id="path82" />
    </g>
    <g
       id="g92">
      <line
         x1="83.13235"
         y1="202.94551"
         x2="83.13235"
         y2="212.14746"
         fill="none"
         stroke="#1f1f1f"
         stroke-linecap="round"
         stroke-linejoin="round"
         stroke-width="0.8"
         id="line86" />
      <line
         x1="83.13235"
         y1="178.6111"
         x2="83.13235"
         y2="190.09049"
         fill="none"
         stroke="#1f1f1f"
         stroke-linecap="round"
         stroke-linejoin="round"
         id="line88" />
      <path
         d="M74.97889,198.22438a11.53074,11.53074,0,1,1,16.30693,0"
         fill="none"
         stroke="#1f1f1f"
         stroke-linecap="round"
         stroke-linejoin="round"
         id="path90" />
    </g>
    <g
       id="g100">
      <line
         x1="115.13235"
         y1="202.94551"
         x2="115.13235"
         y2="212.14746"
         fill="none"
         stroke="#1f1f1f"
         stroke-linecap="round"
         stroke-linejoin="round"
         stroke-width="0.8"
         id="line94" />
      <line
         x1="115.13235"
         y1="178.6111"
         x2="115.13235"
         y2="190.09049"
         fill="none"
         stroke="#1f1f1f"
         stroke-linecap="round"
         stroke-linejoin="round"
         id="line96" />
      <path
         d="M106.97889,198.22438a11.53074,11.53074,0,1,1,16.30693,0"
         fill="none"
         stroke="#1f1f1f"
         stroke-linecap="round"
         stroke-linejoin="round"
         id="path98" />
    </g>
  </g>
  <g
     id="f0e80bda-ba6e-4742-a980-8f1965301e8d"
     data-name="FND TXT">
    <g
       id="g111">
      <path
         d="M108.0791,267.18359h-1.00195a.481.481,0,1,1,0-.96191H110.125a.481.481,0,1,1,0,.96191h-1.00195v3.29981a.522.522,0,0,1-1.044,0Z"
         fill="#f0f0f0"
         id="path103" />
      <path
         d="M111.51465,266.74316a.5179.5179,0,0,1,.52246-.52148h1.64551a1.8911,1.8911,0,0,1,1.38281.481,1.49122,1.49122,0,0,1,.40625,1.084v.01367a1.44829,1.44829,0,0,1-.94824,1.44287l.72461.88086a.60865.60865,0,0,1,.16894.39942.485.485,0,0,1-.49414.48144.624.624,0,0,1-.51465-.271l-1.0166-1.2876h-.833v1.03711a.522.522,0,0,1-1.04394,0Zm2.10058,1.78223c.50782,0,.79981-.27148.79981-.6709v-.01367c0-.44727-.31152-.67773-.82031-.67773h-1.03614v1.3623Z"
         fill="#f0f0f0"
         id="path105" />
      <path
         d="M116.69434,266.70264a.52148.52148,0,1,1,1.043,0v3.78076a.52148.52148,0,1,1-1.043,0Z"
         fill="#f0f0f0"
         id="path107" />
      <path
         d="M118.89453,268.60645v-.01368a2.43424,2.43424,0,0,1,2.48633-2.45215,2.62951,2.62951,0,0,1,1.62012.46045.522.522,0,0,1,.21679.41993.51717.51717,0,0,1-.834.40673,1.65909,1.65909,0,0,0-1.03613-.32519,1.4249,1.4249,0,0,0-1.36231,1.47656v.01367a1.42116,1.42116,0,0,0,1.43653,1.50391,1.66639,1.66639,0,0,0,.98242-.28418v-.67773h-.7041a.44809.44809,0,0,1-.45411-.44727.45376.45376,0,0,1,.45411-.45361h1.19238a.51738.51738,0,0,1,.52148.52148v1.15186a.7055.7055,0,0,1-.36621.66406,3.15164,3.15164,0,0,1-1.66015.47412A2.37375,2.37375,0,0,1,118.89453,268.60645Z"
         fill="#f0f0f0"
         id="path109" />
    </g>
    <g
       id="g121">
      <path
         d="M10.22852,218.77734a.41321.41321,0,0,1,.41992-.41992H12.3418a1.91552,1.91552,0,0,1,1.36914.47412,1.43608,1.43608,0,0,1,.39258,1.023v.01367a1.40346,1.40346,0,0,1-1.07715,1.416l.90722,1.145a.48032.48032,0,0,1,.13575.31836.39277.39277,0,0,1-.39942.38623.47557.47557,0,0,1-.40625-.2168l-1.15234-1.47021H11.06152v1.27392a.41651.41651,0,0,1-.833,0Zm2.05273,1.93067c.5957,0,.97559-.31153.97559-.79248v-.01319c0-.5083-.36622-.78613-.98243-.78613H11.06152v1.5918Z"
         fill="#1f1f1f"
         id="path113" />
      <path
         d="M15.0625,222.55762l1.76172-3.9292a.528.528,0,0,1,.501-.33887h.04a.51946.51946,0,0,1,.49512.33887l1.76172,3.9292a.36225.36225,0,0,1,.04785.17627.3911.3911,0,0,1-.39355.3999.42893.42893,0,0,1-.40625-.2915l-.38672-.88721H16.17969l-.39942.91455a.40007.40007,0,0,1-.38574.26416.38226.38226,0,0,1-.38672-.38623A.425.425,0,0,1,15.0625,222.55762Zm3.10254-1.34131-.833-1.91748-.834,1.91748Z"
         fill="#1f1f1f"
         id="path115" />
      <path
         d="M21.333,219.12988H20.18164a.38623.38623,0,1,1,0-.77246H23.332a.3863.3863,0,0,1,0,.77246H22.17285v3.59082a.42.42,0,0,1-.83984,0Z"
         fill="#1f1f1f"
         id="path117" />
      <path
         d="M24.71094,222.67969v-3.90235a.414.414,0,0,1,.4209-.41992h2.75683a.37641.37641,0,0,1,.373.37256.372.372,0,0,1-.373.37256H25.54492v1.2334H27.584a.37743.37743,0,0,1,.373.3789.37065.37065,0,0,1-.373.36621H25.54492v1.27344h2.37793a.37566.37566,0,0,1,.37207.37305.37072.37072,0,0,1-.37207.37207h-2.791A.414.414,0,0,1,24.71094,222.67969Z"
         fill="#1f1f1f"
         id="path119" />
    </g>
    <g
       id="g131">
      <path
         d="M41.42871,218.77783a.41351.41351,0,0,1,.41992-.41992h1.4502a1.59165,1.59165,0,0,1,1.80176,1.58545v.01367c0,1.06348-.85352,1.61914-1.89649,1.61914h-.94238v1.14453a.41652.41652,0,0,1-.833,0Zm1.80176,2.04639c.63086,0,1.02344-.35254,1.02344-.84717v-.01318c0-.55567-.39942-.84717-1.02344-.84717h-.96875v1.70752Z"
         fill="#1f1f1f"
         id="path123" />
      <path
         d="M46.14062,218.77783a.41351.41351,0,0,1,.41993-.41992h1.69336a1.91552,1.91552,0,0,1,1.36914.47412,1.43723,1.43723,0,0,1,.39257,1.02344v.01318a1.40384,1.40384,0,0,1-1.07714,1.416l.90722,1.145a.47934.47934,0,0,1,.13575.31836.39277.39277,0,0,1-.39942.38623.4767.4767,0,0,1-.40625-.2168l-1.15234-1.47021H46.97363v1.27343a.41652.41652,0,0,1-.833,0Zm2.05274,1.93115c.5957,0,.97559-.31152.97559-.793v-.01368c0-.50781-.36622-.78564-.98243-.78564H46.97363V220.709Z"
         fill="#1f1f1f"
         id="path125" />
      <path
         d="M50.98047,220.74268V220.729a2.47973,2.47973,0,0,1,4.959-.01318v.01318a2.47973,2.47973,0,0,1-4.959.01368Zm4.085,0V220.729a1.625,1.625,0,0,0-1.61231-1.687,1.60321,1.60321,0,0,0-1.5996,1.67383v.01318a1.61938,1.61938,0,0,0,1.61328,1.68018A1.5965,1.5965,0,0,0,55.06543,220.74268Z"
         fill="#1f1f1f"
         id="path127" />
      <path
         d="M57.15625,218.77783a.4141.4141,0,0,1,.41992-.41992h1.708a1.70993,1.70993,0,0,1,1.23926.41992,1.05913,1.05913,0,0,1,.31836.78613v.01319a1.128,1.128,0,0,1-.67774,1.05713,1.1628,1.1628,0,0,1,.94239,1.15185v.01367c0,.84668-.69825,1.30079-1.75489,1.30079H57.57617a.41421.41421,0,0,1-.41992-.42041Zm1.958,1.57862c.53613,0,.89453-.21.89453-.64356v-.01367c0-.37256-.29785-.60254-.833-.60254H57.97656v1.25977Zm.24414,2.00537c.56933,0,.915-.22364.915-.65039v-.01319c0-.3999-.31836-.6372-.97656-.6372H57.97656v1.30078Z"
         fill="#1f1f1f"
         id="path129" />
    </g>
    <g
       id="g139">
      <path
         d="M75.72461,218.77734a.414.414,0,0,1,.4209-.41992h1.69336a1.90966,1.90966,0,0,1,1.36816.47412,1.43261,1.43261,0,0,1,.39356,1.023v.01367a1.40346,1.40346,0,0,1-1.07715,1.416l.9082,1.145a.4839.4839,0,0,1,.13477.31836.39277.39277,0,0,1-.39942.38623.47727.47727,0,0,1-.40722-.2168l-1.15137-1.47021H76.55859v1.27392a.417.417,0,0,1-.834,0Zm2.05371,1.93067c.5957,0,.97559-.31153.97559-.79248v-.01319c0-.5083-.36621-.78613-.98243-.78613H76.55859v1.5918Z"
         fill="#1f1f1f"
         id="path133" />
      <path
         d="M80.85742,218.75049a.41845.41845,0,0,1,.41992-.42041h.08887a.52448.52448,0,0,1,.43359.24414l2.3711,3.06933V218.73a.40968.40968,0,0,1,.81933,0v3.98389a.40441.40441,0,0,1-.40625.41308H84.5498a.52423.52423,0,0,1-.43359-.251l-2.43848-3.15674v3.0083a.41017.41017,0,0,1-.82031,0Z"
         fill="#1f1f1f"
         id="path135" />
      <path
         d="M86.45312,218.77734a.41381.41381,0,0,1,.41993-.41992h1.34863a2.36406,2.36406,0,0,1,2.52051,2.35742v.01368a2.37431,2.37431,0,0,1-2.52051,2.37109H86.87305a.41381.41381,0,0,1-.41993-.41992Zm1.76856,3.56348a1.54524,1.54524,0,0,0,1.64551-1.59863v-.01367a1.55613,1.55613,0,0,0-1.64551-1.61231h-.93457v3.22461Z"
         fill="#1f1f1f"
         id="path137" />
    </g>
    <g
       id="g151">
      <path
         d="M103.38477,222.57031a.3883.3883,0,0,1,.23046-.70459.38264.38264,0,0,1,.24317.07471,2.05948,2.05948,0,0,0,1.32812.48779c.51465,0,.83985-.24365.83985-.59619v-.01367c0-.33887-.18946-.52148-1.07032-.72461-1.00976-.24414-1.5791-.542-1.5791-1.416v-.01367a1.45075,1.45075,0,0,1,1.61914-1.37549,2.61,2.61,0,0,1,1.50489.44043.37638.37638,0,0,1,.18261.332.38723.38723,0,0,1-.39257.38623.40139.40139,0,0,1-.2168-.061,1.977,1.977,0,0,0-1.09082-.35889c-.48828,0-.77246.25049-.77246.562v.01367c0,.36572.21679.52832,1.13086.74511,1.00293.24415,1.51758.603,1.51758,1.38916v.01368c0,.8872-.69727,1.41552-1.69336,1.41552A2.94781,2.94781,0,0,1,103.38477,222.57031Z"
         fill="#1f1f1f"
         id="path141" />
      <path
         d="M108.07031,218.73584a.417.417,0,0,1,.834,0v1.59228H111.166v-1.59228a.417.417,0,0,1,.834,0v3.98389a.417.417,0,0,1-.834,0v-1.61914H108.9043v1.61914a.417.417,0,0,1-.834,0Z"
         fill="#1f1f1f"
         id="path143" />
      <path
         d="M113.08105,222.55664l1.76172-3.9292a.529.529,0,0,1,.501-.33887h.041a.51912.51912,0,0,1,.49414.33887l1.76171,3.9292a.36038.36038,0,0,1,.04688.17627.3903.3903,0,0,1-.39258.3999.42892.42892,0,0,1-.40625-.2915l-.38672-.88721h-2.30273l-.40039.91455a.39918.39918,0,0,1-.38574.26416.38144.38144,0,0,1-.38575-.38623A.423.423,0,0,1,113.08105,222.55664Zm3.10254-1.34131-.833-1.91748-.833,1.91748Z"
         fill="#1f1f1f"
         id="path145" />
      <path
         d="M118.72266,218.77637a.4132.4132,0,0,1,.41992-.41992h1.44922a1.59223,1.59223,0,0,1,1.80273,1.58544v.01319c0,1.064-.85351,1.61914-1.89746,1.61914h-.94141v1.14551a.41651.41651,0,0,1-.833,0Zm1.80175,2.0459c.62989,0,1.02247-.35206,1.02247-.84668v-.01368c0-.55566-.39942-.84668-1.02247-.84668h-.96875v1.707Z"
         fill="#1f1f1f"
         id="path147" />
      <path
         d="M123.43359,222.67871v-3.90234a.41381.41381,0,0,1,.41993-.41992h2.75781a.37641.37641,0,0,1,.37305.37255.372.372,0,0,1-.37305.37256h-2.34375v1.2334h2.03906a.37661.37661,0,0,1,.37207.37891.36981.36981,0,0,1-.37207.36621h-2.03906v1.27344h2.377a.3765.3765,0,0,1,.373.373.37154.37154,0,0,1-.373.37207h-2.791A.41381.41381,0,0,1,123.43359,222.67871Z"
         fill="#1f1f1f"
         id="path149" />
    </g>
    <g
       id="g161">
      <path
         d="M8.28516,45.76855a.50891.50891,0,0,1,.51757-.51709h2.08594a2.35651,2.35651,0,0,1,1.68653.58448,1.76528,1.76528,0,0,1,.48339,1.25976v.01709a1.72881,1.72881,0,0,1-1.32617,1.74463l1.11817,1.41016a.59343.59343,0,0,1,.167.39258.48409.48409,0,0,1-.49219.47558.58812.58812,0,0,1-.50195-.26709l-1.418-1.811h-1.294v1.56884a.51319.51319,0,0,1-1.02636,0Zm2.52929,2.37891c.73438,0,1.20117-.38379,1.20117-.97656v-.0166c0-.626-.45117-.96778-1.21-.96778H9.31152v1.96094Z"
         fill="#1f1f1f"
         id="path153" />
      <path
         d="M14.169,50.42627,16.33887,45.585a.65014.65014,0,0,1,.61816-.417h.04981a.63831.63831,0,0,1,.60839.417l2.1709,4.84131a.44219.44219,0,0,1,.05762.21728.48037.48037,0,0,1-.4834.49219.52863.52863,0,0,1-.501-.35888l-.47559-1.09327H15.5459l-.49219,1.127a.49389.49389,0,0,1-.47559.32519.47085.47085,0,0,1-.47656-.47558A.52417.52417,0,0,1,14.169,50.42627Zm3.82324-1.65283-1.02735-2.36182-1.02636,2.36182Z"
         fill="#1f1f1f"
         id="path155" />
      <path
         d="M21.80078,46.20312H20.38086a.47583.47583,0,0,1,0-.95166h3.88086a.4759.4759,0,0,1,0,.95166H22.835v4.42334a.51715.51715,0,0,1-1.03418,0Z"
         fill="#1f1f1f"
         id="path157" />
      <path
         d="M25.88965,50.57617V45.76855a.5095.5095,0,0,1,.51758-.51709h3.39746a.46321.46321,0,0,1,.459.459.45781.45781,0,0,1-.459.459H26.916v1.51905h2.51269a.46478.46478,0,0,1,.459.46777.45539.45539,0,0,1-.459.4502H26.916v1.56933H29.8457a.46289.46289,0,0,1,.459.459.45721.45721,0,0,1-.459.459H26.40723A.50962.50962,0,0,1,25.88965,50.57617Z"
         fill="#1f1f1f"
         id="path159" />
    </g>
    <g
       id="g171">
      <path
         d="M39.28711,45.76855a.50892.50892,0,0,1,.51758-.51709h1.78515a1.96132,1.96132,0,0,1,2.22071,1.95313v.0166c0,1.31006-1.05176,1.99463-2.33692,1.99463H40.31348v1.41064a.5132.5132,0,0,1-1.02637,0Zm2.21973,2.521c.77636,0,1.26074-.43408,1.26074-1.04346v-.0166c0-.68457-.49219-1.043-1.26074-1.043H40.31348v2.103Z"
         fill="#1f1f1f"
         id="path163" />
      <path
         d="M45.01855,45.76855a.50951.50951,0,0,1,.51758-.51709h2.08692a2.3523,2.3523,0,0,1,1.68554.58448A1.76593,1.76593,0,0,1,49.793,47.0957v.01709a1.72961,1.72961,0,0,1-1.32715,1.74463L49.584,50.26758a.5945.5945,0,0,1,.168.39258.48431.48431,0,0,1-.49316.47558.58766.58766,0,0,1-.501-.26709l-1.418-1.811H46.04492v1.56884a.5132.5132,0,0,1-1.02637,0Zm2.5293,2.37891c.73438,0,1.20215-.38379,1.20215-.97656v-.0166c0-.626-.45117-.96778-1.21094-.96778H46.04492v1.96094Z"
         fill="#1f1f1f"
         id="path165" />
      <path
         d="M50.90723,48.18945v-.0166a3.055,3.055,0,0,1,6.10937-.0166v.0166a3.055,3.055,0,0,1-6.10937.0166Zm5.03222,0v-.0166a2.0015,2.0015,0,0,0-1.98633-2.07812,1.97311,1.97311,0,0,0-1.96874,2.06152v.0166a1.9947,1.9947,0,0,0,1.98632,2.06983A1.96636,1.96636,0,0,0,55.93945,48.18945Z"
         fill="#1f1f1f"
         id="path167" />
      <path
         d="M58.44336,45.76855a.50892.50892,0,0,1,.51758-.51709h2.10351a2.112,2.112,0,0,1,1.52735.51709,1.3124,1.3124,0,0,1,.3916.96875v.01661a1.3899,1.3899,0,0,1-.835,1.30175,1.43172,1.43172,0,0,1,1.16015,1.41895v.0166c0,1.04346-.85937,1.60254-2.16113,1.60254H58.96094a.509.509,0,0,1-.51758-.51758Zm2.41211,1.94532c.65918,0,1.10156-.25879,1.10156-.793v-.0166c0-.459-.36719-.74317-1.02734-.74317H59.45312v1.55274Zm.30078,2.4707c.70117,0,1.127-.27588,1.127-.80176v-.0166c0-.49219-.39258-.78418-1.20312-.78418h-1.627v1.60254Z"
         fill="#1f1f1f"
         id="path169" />
    </g>
    <g
       id="g179">
      <path
         d="M74.07617,45.76855a.50951.50951,0,0,1,.51758-.51709h2.08691a2.35817,2.35817,0,0,1,1.68653.58448,1.76528,1.76528,0,0,1,.4834,1.25976v.01709a1.72864,1.72864,0,0,1-1.32715,1.74463l1.11914,1.41016a.597.597,0,0,1,.166.39258.48408.48408,0,0,1-.49218.47558.5864.5864,0,0,1-.501-.26709l-1.419-1.811h-1.293v1.56884a.51369.51369,0,0,1-1.02735,0Zm2.5293,2.37891c.73437,0,1.20117-.38379,1.20117-.97656v-.0166c0-.626-.45019-.96778-1.209-.96778H75.10352v1.96094Z"
         fill="#1f1f1f"
         id="path173" />
      <path
         d="M80.32812,45.73535a.515.515,0,0,1,.51758-.51758h.1084a.64555.64555,0,0,1,.53418.30078l2.92188,3.78125V45.71045a.5049.5049,0,0,1,1.00976,0v4.90771a.49865.49865,0,0,1-.501.50928h-.042a.64291.64291,0,0,1-.5332-.30908l-3.00586-3.88965v3.70606a.5049.5049,0,0,1-1.00977,0Z"
         fill="#1f1f1f"
         id="path175" />
      <path
         d="M87.15039,45.76855a.50892.50892,0,0,1,.51758-.51709h1.66015a2.91223,2.91223,0,0,1,3.10547,2.90479v.0166a2.92492,2.92492,0,0,1-3.10547,2.9209H87.668a.509.509,0,0,1-.51758-.51758Zm2.17773,4.39063a1.90473,1.90473,0,0,0,2.0293-1.96973v-.0166a1.91762,1.91762,0,0,0-2.0293-1.98633H88.17676v3.97266Z"
         fill="#1f1f1f"
         id="path177" />
    </g>
    <g
       id="g191">
      <path
         d="M100.77344,50.44287a.47846.47846,0,0,1,.2832-.86767.47334.47334,0,0,1,.30078.09179,2.53581,2.53581,0,0,0,1.63672.60059c.63379,0,1.03418-.30029,1.03418-.73438v-.0166c0-.41748-.2334-.64258-1.31836-.89306-1.24316-.3003-1.94434-.668-1.94434-1.74463V46.8623a1.78616,1.78616,0,0,1,1.99415-1.69433,3.2177,3.2177,0,0,1,1.85351.54248.4641.4641,0,0,1,.22461.40869.47727.47727,0,0,1-.48437.47607.49335.49335,0,0,1-.26661-.07519,2.42985,2.42985,0,0,0-1.34375-.44238c-.60058,0-.95214.30908-.95214.69287v.0166c0,.45068.26757.65137,1.39453.918,1.23535.30078,1.86914.74316,1.86914,1.71094v.01709c0,1.09326-.85938,1.74462-2.08594,1.74462A3.63812,3.63812,0,0,1,100.77344,50.44287Z"
         fill="#1f1f1f"
         id="path181" />
      <path
         d="M106.47559,45.71875a.5132.5132,0,0,1,1.02636,0v1.96143H110.29V45.71875a.5132.5132,0,0,1,1.02637,0v4.90771a.5132.5132,0,0,1-1.02637,0V48.63184H107.502v1.99462a.51319.51319,0,0,1-1.02636,0Z"
         fill="#1f1f1f"
         id="path183" />
      <path
         d="M112.57422,50.42627l2.16992-4.84131a.65167.65167,0,0,1,.61719-.417h.05078a.6405.6405,0,0,1,.60937.417l2.16993,4.84131a.45485.45485,0,0,1,.05859.21728.48117.48117,0,0,1-.48438.49219.52865.52865,0,0,1-.501-.35888l-.47559-1.09327h-2.83789l-.49219,1.127a.49512.49512,0,0,1-.47656.32519.46981.46981,0,0,1-.47461-.47558A.52217.52217,0,0,1,112.57422,50.42627Zm3.82226-1.65283-1.02636-2.36182-1.02637,2.36182Z"
         fill="#1f1f1f"
         id="path185" />
      <path
         d="M119.44824,45.76855a.50951.50951,0,0,1,.51758-.51709H121.752a1.96132,1.96132,0,0,1,2.22071,1.95313v.0166c0,1.31006-1.05274,1.99463-2.33789,1.99463h-1.16016v1.41064a.5132.5132,0,0,1-1.02637,0Zm2.21973,2.521c.77734,0,1.26172-.43408,1.26172-1.04346v-.0166c0-.68457-.49317-1.043-1.26172-1.043h-1.19336v2.103Z"
         fill="#1f1f1f"
         id="path187" />
      <path
         d="M125.18066,50.57617V45.76855a.50951.50951,0,0,1,.51758-.51709h3.39746a.46321.46321,0,0,1,.459.459.45782.45782,0,0,1-.459.459H126.207v1.51905h2.5127a.46478.46478,0,0,1,.459.46777.45538.45538,0,0,1-.459.4502H126.207v1.56933h2.92969a.46288.46288,0,0,1,.459.459.4572.4572,0,0,1-.459.459h-3.43848A.50962.50962,0,0,1,125.18066,50.57617Z"
         fill="#1f1f1f"
         id="path189" />
    </g>
    <g
       id="g205">
      <path
         d="M38.54492,20.49121a.95525.95525,0,0,1,.96289-.96289h3.041a3.48782,3.48782,0,0,1,2.55176.88818,2.75211,2.75211,0,0,1,.751,2.002v.0249a2.67321,2.67321,0,0,1-1.752,2.665l1.33887,1.627a1.12318,1.12318,0,0,1,.31347.73828.89706.89706,0,0,1-.91406.88819,1.15512,1.15512,0,0,1-.95117-.50049l-1.87695-2.37744H40.4707v1.91455a.96289.96289,0,1,1-1.92578,0Zm3.87793,3.291c.93848,0,1.47656-.50049,1.47656-1.23877v-.02491c0-.82617-.57519-1.251-1.51464-1.251H40.4707v2.51465Z"
         fill="#1f1f1f"
         id="path193" />
      <path
         d="M47.14062,27.04785l3.05372-6.894a1.18964,1.18964,0,0,1,1.126-.76319h.11328a1.174,1.174,0,0,1,1.11329.76319l3.05273,6.894a.93922.93922,0,0,1,.09961.3877.91339.91339,0,0,1-.91309.92627.98119.98119,0,0,1-.92578-.66358l-.58887-1.376H49.418l-.61328,1.439a.94468.94468,0,0,1-.8877.60059.88574.88574,0,0,1-.88769-.90088A1.02153,1.02153,0,0,1,47.14062,27.04785Zm5.418-2.42724L51.3457,21.73047l-1.21484,2.89014Z"
         fill="#1f1f1f"
         id="path195" />
      <path
         d="M57.12109,20.44141A.956.956,0,0,1,58.084,19.478h.20118a1.1903,1.1903,0,0,1,1,.563L63.002,24.9209V20.40381a.95069.95069,0,1,1,1.90137,0v6.96924a.956.956,0,0,1-.96387.96386H63.877a1.19078,1.19078,0,0,1-1-.56347l-3.85351-5.05469v4.69189a.95118.95118,0,1,1-1.90235,0Z"
         fill="#1f1f1f"
         id="path197" />
      <path
         d="M67.16992,20.49121a.95629.95629,0,0,1,.96485-.96289h2.45117a4.36535,4.36535,0,0,1,4.65527,4.354v.02491a4.38489,4.38489,0,0,1-4.65527,4.37939H68.13477a.9564.9564,0,0,1-.96485-.96338Zm3.416,6.05615a2.49573,2.49573,0,0,0,2.64062-2.61474v-.02539a2.51539,2.51539,0,0,0-2.64062-2.63965H69.09766v5.27978Z"
         fill="#1f1f1f"
         id="path199" />
      <path
         d="M76.57227,23.93262v-.02539a4.6564,4.6564,0,0,1,9.30859-.02491v.02491a4.65641,4.65641,0,0,1-9.30859.02539Zm7.29492,0v-.02539a2.661,2.661,0,0,0-2.65235-2.75244,2.61885,2.61885,0,0,0-2.62793,2.72753v.02491a2.66083,2.66083,0,0,0,2.65235,2.75293A2.61973,2.61973,0,0,0,83.86719,23.93262Z"
         fill="#1f1f1f"
         id="path201" />
      <path
         d="M87.69141,20.44141a.956.956,0,0,1,.96289-.96338h.21289a.98833.98833,0,0,1,.876.50049l2.32715,3.791,2.33985-3.80371a.94346.94346,0,0,1,.86328-.48779h.21289a.95536.95536,0,0,1,.96289.96338v6.957a.95705.95705,0,1,1-1.91406,0V23.03125L92.8457,25.63379a.90078.90078,0,0,1-1.60156,0l-1.66406-2.56445v4.354a.93972.93972,0,0,1-.95117.93848.92874.92874,0,0,1-.9375-.93848Z"
         fill="#1f1f1f"
         id="path203" />
    </g>
    <g
       id="g215">
      <path
         d="M12.26367,266.99561H11.11133a.38624.38624,0,0,1,0-.77247h3.15039a.38629.38629,0,0,1,0,.77247h-1.1582v3.59033a.42.42,0,0,1-.83985,0Z"
         fill="#1f1f1f"
         id="path207" />
      <path
         d="M15.64258,266.64307a.41351.41351,0,0,1,.41992-.41993h1.69336a1.91126,1.91126,0,0,1,1.36816.47413,1.43376,1.43376,0,0,1,.39356,1.02343v.01319a1.40365,1.40365,0,0,1-1.07813,1.416l.90821,1.145a.47934.47934,0,0,1,.13574.31836.39277.39277,0,0,1-.39942.38623.47544.47544,0,0,1-.40625-.2168l-1.15234-1.47021h-1.0498v1.27344a.41652.41652,0,0,1-.833,0Zm2.05273,1.93115c.59571,0,.97461-.31152.97461-.793v-.01367c0-.50781-.36523-.78565-.98242-.78565H16.47559v1.59229Z"
         fill="#1f1f1f"
         id="path209" />
      <path
         d="M20.80078,266.60254a.41652.41652,0,0,1,.833,0v3.9834a.41652.41652,0,0,1-.833,0Z"
         fill="#1f1f1f"
         id="path211" />
      <path
         d="M22.86133,268.60791v-.01367a2.41587,2.41587,0,0,1,2.44531-2.45264,2.57462,2.57462,0,0,1,1.61914.48145.42234.42234,0,0,1,.16992.33886.41564.41564,0,0,1-.41406.41309.43879.43879,0,0,1-.25684-.09473,1.80579,1.80579,0,0,0-1.15234-.373,1.60438,1.60438,0,0,0-1.53808,1.67382v.01319a1.5847,1.5847,0,0,0,1.61328,1.69385,1.93379,1.93379,0,0,0,1.14453-.35938v-.88721h-.93457a.36423.36423,0,0,1-.373-.35888.37034.37034,0,0,1,.373-.36621h1.32129a.4141.4141,0,0,1,.41992.41992v1.26709a.57723.57723,0,0,1-.292.52881,3.02308,3.02308,0,0,1-1.68653.51465A2.35242,2.35242,0,0,1,22.86133,268.60791Z"
         fill="#1f1f1f"
         id="path213" />
    </g>
    <g
       id="g221">
      <path
         d="M47.93359,266.60254a.41652.41652,0,0,1,.833,0v3.9834a.41652.41652,0,0,1-.833,0Z"
         fill="#1f1f1f"
         id="path217" />
      <path
         d="M50.24219,266.61621a.418.418,0,0,1,.41992-.41992H50.751a.52521.52521,0,0,1,.43359.24365l2.37109,3.06885V266.5957a.40968.40968,0,0,1,.81934,0v3.9834a.40484.40484,0,0,1-.40625.41358h-.03418a.52488.52488,0,0,1-.43359-.25049L51.0625,267.585v3.00781a.41017.41017,0,0,1-.82031,0Z"
         fill="#1f1f1f"
         id="path219" />
    </g>
    <g
       id="g231">
      <path
         d="M73.82324,268.6084v-.01367a2.48024,2.48024,0,0,1,4.96-.01368v.01368a2.48023,2.48023,0,0,1-4.96.01367Zm4.085,0v-.01367a1.62382,1.62382,0,0,0-1.61132-1.68653,1.60236,1.60236,0,0,0-1.59961,1.67285v.01368a1.61938,1.61938,0,0,0,1.61328,1.68017A1.59571,1.59571,0,0,0,77.9082,268.6084Z"
         fill="#1f1f1f"
         id="path223" />
      <path
         d="M80,266.64355a.41321.41321,0,0,1,.41992-.41992h2.76367a.3794.3794,0,1,1,0,.75879H80.833v1.29395h2.0459a.3794.3794,0,1,1,0,.75879H80.833v1.55175a.41652.41652,0,0,1-.833,0Z"
         fill="#1f1f1f"
         id="path225" />
      <path
         d="M84.42969,270.4375a.38875.38875,0,0,1,.23047-.70459.38573.38573,0,0,1,.24414.07471,2.05558,2.05558,0,0,0,1.32812.48779c.51465,0,.83985-.24365.83985-.59619v-.01367c0-.33887-.18946-.52149-1.07032-.72461-1.00976-.24414-1.5791-.542-1.5791-1.416v-.01367a1.4511,1.4511,0,0,1,1.62012-1.37549,2.61124,2.61124,0,0,1,1.50391.44043.37839.37839,0,0,1,.18261.332.38807.38807,0,0,1-.39355.38623.40623.40623,0,0,1-.2168-.061,1.97158,1.97158,0,0,0-1.08984-.35889c-.48828,0-.77344.25049-.77344.562v.01367c0,.36573.2168.52833,1.13184.74512,1.00292.24414,1.51757.603,1.51757,1.38916v.01367c0,.88721-.69824,1.41553-1.69336,1.41553A2.95484,2.95484,0,0,1,84.42969,270.4375Z"
         fill="#1f1f1f"
         id="path227" />
      <path
         d="M90.22266,266.99609H89.07031a.38623.38623,0,0,1,0-.77246H92.2207a.38628.38628,0,0,1,0,.77246H91.0625v3.59082a.42.42,0,0,1-.83984,0Z"
         fill="#1f1f1f"
         id="path229" />
    </g>
    <g
       id="g239">
      <path
         d="M45.61133,314.64844a.52149.52149,0,1,1,1.043,0v3.3125h1.93164a.47437.47437,0,0,1,0,.94873H46.13281a.51779.51779,0,0,1-.52148-.522Z"
         fill="#f0f0f0"
         id="path233" />
      <path
         d="M49.98633,314.64844a.52149.52149,0,1,1,1.043,0v3.78027a.52149.52149,0,1,1-1.043,0Z"
         fill="#f0f0f0"
         id="path235" />
      <path
         d="M52.43555,314.66211a.51779.51779,0,0,1,.52148-.522h.1084a.6448.6448,0,0,1,.542.30517l2.0127,2.6416V314.6416a.51465.51465,0,1,1,1.02929,0V318.415a.51737.51737,0,0,1-.52148.52148h-.03418a.64691.64691,0,0,1-.542-.30468l-2.08594-2.73731v2.541a.51514.51514,0,0,1-1.03027,0Z"
         fill="#f0f0f0"
         id="path237" />
    </g>
    <g
       id="g249">
      <path
         d="M10.43262,318.4082a.48651.48651,0,0,1-.19629-.39258.48.48,0,0,1,.4873-.48144.50311.50311,0,0,1,.29785.09473,2.00063,2.00063,0,0,0,1.2129.42724c.42675,0,.68457-.16943.68457-.44726v-.01368c0-.26416-.16309-.3999-.95508-.603-.95508-.24365-1.57227-.50781-1.57227-1.44971v-.01318a1.48361,1.48361,0,0,1,1.66016-1.42969,2.7517,2.7517,0,0,1,1.5039.41992.47534.47534,0,0,1,.23047.41309.48022.48022,0,0,1-.48828.48144.49878.49878,0,0,1-.26367-.0747,1.9707,1.9707,0,0,0-.99609-.31836c-.39942,0-.60938.1831-.60938.41308v.01367c0,.31153.20313.41309,1.02246.62354.96192.25049,1.50391.5957,1.50391,1.42236v.01367c0,.9419-.71778,1.47022-1.74121,1.47022A3.06,3.06,0,0,1,10.43262,318.4082Z"
         fill="#f0f0f0"
         id="path241" />
      <path
         d="M16.13867,315.12939h-1.002a.4812.4812,0,1,1,0-.9624h3.04785a.4812.4812,0,1,1,0,.9624h-1.002v3.29932a.522.522,0,0,1-1.04395,0Z"
         fill="#f0f0f0"
         id="path243" />
      <path
         d="M19.5752,318.3877V314.689a.51718.51718,0,0,1,.52148-.522h2.62793a.46846.46846,0,0,1,.46777.46778.463.463,0,0,1-.46777.46093H20.61133v.96192h1.80859a.46836.46836,0,0,1,.46778.46728.46256.46256,0,0,1-.46778.46045H20.61133v.9961h2.14746a.46845.46845,0,0,1,.46777.46777.46256.46256,0,0,1-.46777.46045H20.09668A.51718.51718,0,0,1,19.5752,318.3877Z"
         fill="#f0f0f0"
         id="path245" />
      <path
         d="M24.34766,314.689a.51718.51718,0,0,1,.52148-.522h1.416a1.62453,1.62453,0,0,1,1.81543,1.63965v.01367a1.69486,1.69486,0,0,1-1.917,1.66651h-.793v.94189a.52148.52148,0,1,1-1.043,0Zm1.86914,1.86963a.73485.73485,0,0,0,.82715-.71777v-.01367c0-.46777-.3252-.71826-.84766-.71826h-.80567v1.4497Z"
         fill="#f0f0f0"
         id="path247" />
    </g>
    <g
       id="g257">
      <path
         d="M76.56836,318.3877V314.689a.51779.51779,0,0,1,.52148-.522h2.62891a.46846.46846,0,0,1,.46777.46778.463.463,0,0,1-.46777.46093H77.60547v.96192h1.80859a.46751.46751,0,0,1,.4668.46728.46172.46172,0,0,1-.4668.46045H77.60547v.9961h2.14746a.46908.46908,0,0,1,.46777.46777.46317.46317,0,0,1-.46777.46045H77.08984A.51779.51779,0,0,1,76.56836,318.3877Z"
         fill="#f0f0f0"
         id="path251" />
      <path
         d="M81.21484,318.06934l1.28028-1.57129-1.20606-1.47071a.6327.6327,0,0,1-.15625-.38574.50248.50248,0,0,1,.51563-.51514.54878.54878,0,0,1,.48047.25733l1.03711,1.38232,1.02929-1.355a.59633.59633,0,0,1,.50781-.28467.47684.47684,0,0,1,.47461.481.61957.61957,0,0,1-.15625.3999l-1.20507,1.47706,1.27343,1.56494a.63864.63864,0,0,1,.15625.38623.50236.50236,0,0,1-.51562.51465.54773.54773,0,0,1-.48047-.25733l-1.11133-1.45654L82.041,318.666a.59585.59585,0,0,1-.50782.28418.47652.47652,0,0,1-.47461-.481A.6216.6216,0,0,1,81.21484,318.06934Z"
         fill="#f0f0f0"
         id="path253" />
      <path
         d="M86.30469,314.689a.518.518,0,0,1,.52246-.522h1.416a1.624,1.624,0,0,1,1.81543,1.63965v.01367a1.69485,1.69485,0,0,1-1.917,1.66651h-.793v.94189a.522.522,0,0,1-1.04394,0Zm1.87109,1.86963a.734.734,0,0,0,.82617-.71777v-.01367c0-.46777-.32519-.71826-.84765-.71826h-.80567v1.4497Z"
         fill="#f0f0f0"
         id="path255" />
    </g>
    <g
       id="g267">
      <path
         d="M105.45508,318.4082a.4857.4857,0,0,1-.19531-.39258.48.48,0,0,1,.4873-.48144.50313.50313,0,0,1,.29785.09473,1.99846,1.99846,0,0,0,1.21289.42724c.42676,0,.6836-.16943.6836-.44726v-.01368c0-.26416-.16211-.3999-.95508-.603-.95508-.24365-1.57129-.50781-1.57129-1.44971v-.01318a1.48274,1.48274,0,0,1,1.65918-1.42969,2.75508,2.75508,0,0,1,1.50488.41992.48327.48327,0,0,1-.25781.89453.50479.50479,0,0,1-.26465-.0747,1.96463,1.96463,0,0,0-.99512-.31836c-.39941,0-.61035.1831-.61035.41308v.01367c0,.31153.20313.41309,1.02344.62354.96191.25049,1.50391.5957,1.50391,1.42236v.01367c0,.9419-.71875,1.47022-1.74122,1.47022A3.06516,3.06516,0,0,1,105.45508,318.4082Z"
         fill="#f0f0f0"
         id="path259" />
      <path
         d="M110.12305,314.66211a.51718.51718,0,0,1,.52148-.522h.11524a.5358.5358,0,0,1,.47363.271l1.26074,2.05274,1.26563-2.05957a.51343.51343,0,0,1,.46875-.26416h.11523a.51778.51778,0,0,1,.52148.522v3.7666a.51856.51856,0,1,1-1.03711,0v-2.36426l-.91406,1.40918a.48834.48834,0,0,1-.86718,0l-.90137-1.38916v2.35791a.50893.50893,0,0,1-.51465.50782.50252.50252,0,0,1-.50781-.50782Z"
         fill="#f0f0f0"
         id="path261" />
      <path
         d="M117.26074,315.12939h-1.00293a.4812.4812,0,0,1,0-.9624h3.04883a.4812.4812,0,0,1,0,.9624h-1.002v3.29932a.522.522,0,0,1-1.04395,0Z"
         fill="#f0f0f0"
         id="path263" />
      <path
         d="M120.69922,314.64844a.52149.52149,0,1,1,1.043,0V316.044H123.666v-1.39551a.52148.52148,0,1,1,1.043,0v3.78027a.52148.52148,0,1,1-1.043,0v-1.42285h-1.92383v1.42285a.52149.52149,0,1,1-1.043,0Z"
         fill="#f0f0f0"
         id="path265" />
    </g>
  </g>
  <g
     id="afa9daa1-cafe-4994-af1a-e50ed69ff9ef"
     data-name="components"
     inkscape:groupmode="layer"
     style="display:none">
    <circle
       id="f596749b-0cb3-4e51-9197-fdcec78b88a6"
       data-name="Rate#PJ301MPort"
       cx="19.132311"
       cy="237.84212"
       r="5"
       style="fill:#00ff00" />
    <circle
       id="aa05794f-4d28-45a6-adc4-3fbc03f58b37"
       data-name="Prob#PJ301MPort"
       cx="51.132351"
       cy="237.84209"
       r="5"
       style="fill:#00ff00" />
    <circle
       id="acc8d206-9511-4cef-8602-f88bde59e284"
       data-name="Rnd#PJ301MPort"
       cx="83.132347"
       cy="237.85397"
       r="5"
       style="fill:#00ff00" />
    <circle
       id="a36d695c-2e73-44af-802d-e86754f42d9c"
       data-name="Shape#PJ301MPort"
       cx="115.13235"
       cy="237.86584"
       r="5"
       style="fill:#00ff00" />
    <circle
       id="b24da343-bf3f-4ece-b111-8e25e413138d"
       data-name="Trig#PJ301MPort"
       cx="19.132311"
       cy="286"
       r="5"
       style="fill:#00ff00" />
    <circle
       id="fa7cbb2d-fb6a-409b-bc4b-c086c92ae759"
       data-name="In#PJ301MPort"
       cx="51.132351"
       cy="286"
       r="5"
       style="fill:#00ff00" />
    <circle
       id="f9289341-2299-4b72-b4e1-7081da9deea0"
       data-name="Ofst#LEDButton"
       cx="83.132347"
       cy="286"
       r="5"
       style="fill:#ff0000" />
    <circle
       id="a777dcca-15d8-4cbe-8006-b6665d6e9fd8"
       data-name="Rate#LEDSlider"
       cx="19.132311"
       cy="99.228233"
       r="5"
       style="fill:#ff0000" />
    <circle
       id="fce00290-eb62-4762-9039-f92e22c1bfc6"
       data-name="Prob#LEDSlider"
       cx="51.126751"
       cy="99.228233"
       r="5"
       style="fill:#ff0000" />
    <circle
       id="f304728d-b7d6-41c5-85aa-57938063b864"
       data-name="Rnd#LEDSlider"
       cx="83.125923"
       cy="99.228233"
       r="5"
       style="fill:#ff0000" />
    <circle
       id="bc377f26-26d7-4473-a393-72d484233a95"
       data-name="Shape#LEDSlider"
       cx="115.09708"
       cy="99.228233"
       r="5"
       style="fill:#ff0000" />
    <circle
       id="ef61abbe-59de-46a0-ab1c-d7a928d61214"
       data-name="Lin#PJ301MPort"
       cx="51.132351"
       cy="334"
       r="5"
       style="fill:#0000ff" />
    <circle
       id="ae9816b4-a43d-41d2-9d54-c6d3760303dd"
       data-name="Step#PJ301MPort"
       cx="19.132311"
       cy="334"
       r="5"
       style="fill:#0000ff" />
    <circle
       id="b629cf29-52ef-48c5-9210-7e4131e3e86f"
       data-name="Exp#PJ301MPort"
       cx="83.132347"
       cy="334"
       r="5"
       style="fill:#0000ff" />
    <circle
       id="ab16b98a-bbf6-4234-8a06-56b1ee3981db"
       data-name="Smth#PJ301MPort"
       cx="115.13235"
       cy="334"
       r="5"
       style="fill:#0000ff" />
    <circle
       id="b3231dce-687e-469b-b7dd-d4426614e78e"
       data-name="Gate#PJ301MPort"
       cx="115.13235"
       cy="286"
       r="5"
       style="fill:#0000ff" />
    <circle
       id="a76e4967-9455-4912-82dd-2f1a42e18b72"
       data-name="RateCv#Trimpot"
       cx="19.132311"
       cy="190"
       r="5"
       style="fill:#ff0000" />
    <circle
       id="bbaeffdb-7133-4bae-acb9-639c1f6ab727"
       data-name="ProbCv#Trimpot"
       cx="51.132351"
       cy="190"
       r="5"
       style="fill:#ff0000" />
    <circle
       id="b788a5d1-3231-4479-8530-11250870f37b"
       data-name="RndCv#Trimpot"
       cx="83.132347"
       cy="190"
       r="5"
       style="fill:#ff0000" />
    <circle
       id="aedeacaf-faf1-4b10-af4e-93613f3c5648"
       data-name="ShapeCv#Trimpot"
       cx="115.13235"
       cy="190"
       r="5"
       style="fill:#ff0000" />
  </g>
</svg>
