<?xml version="1.0" encoding="UTF-8"?>
<svg xmlns="http://www.w3.org/2000/svg" width="45" height="380" xmlns:xlink="http://www.w3.org/1999/xlink" viewBox="0 0 45 380">
  <defs>
    <linearGradient id="uuid-3b2f0bbc-37d0-41b6-8686-900051f94d63" x1="22.5" y1="0" x2="22.5" y2="380" gradientUnits="userSpaceOnUse">
      <stop offset="0" stop-color="#2a2a2b"/>
      <stop offset="1" stop-color="#171717"/>
    </linearGradient>
  </defs>
  <g id="uuid-4e84d29e-f7f0-4f77-ab88-94f66b946309" data-name="FND BG">
    <rect width="45" height="380" fill="url(#uuid-3b2f0bbc-37d0-41b6-8686-900051f94d63)"/>
  </g>
  <g id="uuid-72e9bcb7-7310-4b62-afce-514df5ed171c" data-name="FND GRAPH">
    <rect x="8.22422" y="309.05634" width="28.55155" height="39.15691" rx="2.83465" ry="2.83465" fill="#ededed"/>
    <g>
      <path d="m13.92012,87.35089c-4.87734-2.91881-8.14264-8.25353-8.14264-14.35091,0-9.23,7.48239-16.71239,16.71239-16.71239s16.71239,7.48239,16.71239,16.71239c0,6.06564-3.2314,11.37655-8.06662,14.30514" fill="none" stroke="#ededed" stroke-linecap="round" stroke-linejoin="round" stroke-width=".8"/>
      <circle cx="22.5" cy="72.99995" r="20.69419" fill="none" isolation="isolate" opacity=".69"/>
    </g>
    <g>
      <path d="m13.90998,141.41229c-4.87734-2.91881-8.14264-8.25353-8.14264-14.35091,0-9.23,7.48239-16.71239,16.71239-16.71239s16.71239,7.48239,16.71239,16.71239c0,6.06564-3.2314,11.37655-8.06662,14.30514" fill="none" stroke="#ededed" stroke-linecap="round" stroke-linejoin="round" stroke-width=".8"/>
      <circle cx="22.48986" cy="127.06135" r="20.69419" fill="none" isolation="isolate" opacity=".69"/>
    </g>
    <line x1="22.48986" y1="110.78674" x2="22.48986" y2="119.73803" fill="none" stroke="#ededed" stroke-linecap="round" stroke-linejoin="round" stroke-width=".8"/>
    <line x1="22.48986" y1="56.2876" x2="22.48986" y2="65.2389" fill="none" stroke="#ededed" stroke-linecap="round" stroke-linejoin="round" stroke-width=".8"/>
    <path d="m15.30245,201.92112c-4.18524-2.51474-6.75324-7.05367-6.75324-11.93631,0-7.63919,6.28611-13.9253,13.9253-13.9253s13.9253,6.28611,13.9253,13.9253c0,4.9171-2.60439,9.48308-6.83674,11.98609l-7.44259-12.12156" fill="none" stroke="#ededed" stroke-linecap="round" stroke-linejoin="round" stroke-width=".8"/>
    <path d="m29.56306,249.96669c4.23236-2.50301,6.83674-7.06899,6.83674-11.98609,0-7.63919-6.28611-13.9253-13.9253-13.9253s-13.9253,6.28611-13.9253,13.9253c0,4.88264,2.568,9.42157,6.75324,11.93631l7.32949-12.51059" fill="none" stroke="#ededed" stroke-linecap="round" stroke-linejoin="round" stroke-width=".8"/>
    <g>
      <circle cx="23.00165" cy="355.83101" r="1.18571" fill="#ededed"/>
      <path d="m14.35927,359.75298c-.34551,0-.66126-.1952-.8158-.50419l-2.96428-5.92856c-.22526-.45057-.04266-.99844.40794-1.2237.45008-.22535.99831-.04271,1.22366.4079l2.14848,4.29696,2.14848-4.29696c.22526-.45057.77314-.63325,1.22366-.4079.45061.22526.63321.77314.40794,1.2237l-2.96428,5.92856c-.15454.30899-.47029.50419-.8158.50419Z" fill="#ededed"/>
      <path d="m30.64073,359.75298c-.34551,0-.66126-.1952-.8158-.50419l-2.96428-5.92856c-.22526-.45057-.04266-.99844.40794-1.2237.45016-.22535.9984-.04271,1.22366.4079l2.14848,4.29696,2.14848-4.29696c.22526-.45057.77305-.63325,1.22366-.4079.45061.22526.63321.77314.40794,1.2237l-2.96428,5.92856c-.15454.30899-.47029.50419-.8158.50419Z" fill="#ededed"/>
      <path d="m22.94242,359.75298c-2.13744,0-3.87637-1.73893-3.87637-3.87637s1.73893-3.87637,3.87637-3.87637c.84653,0,1.65102.26819,2.32653.77554.40278.30253.48401.87428.18153,1.27705-.30248.40273-.87432.48401-1.2771.18148-.357-.26815-.78267-.4099-1.23096-.4099-1.13156,0-2.05219.92059-2.05219,2.05219s.92064,2.05219,2.05219,2.05219c.44829,0,.87396-.14176,1.23096-.4099.40269-.30271.97444-.22125,1.2771.18148.30248.40278.22125.97453-.18153,1.27705-.67551.50735-1.48.77554-2.32653.77554Z" fill="#ededed"/>
    </g>
  </g>
  <g id="uuid-c6547a3e-d7db-4640-b14f-ddb5947bca14" data-name="FND TXT">
    <g>
      <path d="m5.38212,102.25439v-.0166c0-1.64404,1.26855-3.02148,3.06348-3.02148s3.04688,1.36084,3.04688,3.00488v.0166c0,1.64453-1.26953,3.02148-3.06348,3.02148-1.79492,0-3.04688-1.36035-3.04688-3.00488Zm5.0332,0v-.0166c0-1.13525-.82617-2.07812-1.98633-2.07812s-1.96973.92627-1.96973,2.06152v.0166c0,1.13525.82617,2.06982,1.98633,2.06982s1.96973-.91797,1.96973-2.05322Z" fill="#ebebeb"/>
      <path d="m12.92216,99.83398c0-.29199.22559-.51758.51758-.51758h3.40527c.25879,0,.46777.20898.46777.46777s-.20898.46729-.46777.46729h-2.89648v1.59424h2.52148c.25879,0,.4668.2085.4668.46729s-.20801.46729-.4668.46729h-2.52148v1.91162c0,.28369-.22461.50879-.50879.50879-.29199,0-.51758-.2251-.51758-.50879v-4.85791Z" fill="#ebebeb"/>
      <path d="m18.49638,99.83398c0-.29199.22559-.51758.51758-.51758h3.40527c.25879,0,.46777.20898.46777.46777s-.20898.46729-.46777.46729h-2.89648v1.59424h2.52148c.25879,0,.4668.2085.4668.46729s-.20801.46729-.4668.46729h-2.52148v1.91162c0,.28369-.22461.50879-.50879.50879-.29199,0-.51758-.2251-.51758-.50879v-4.85791Z" fill="#ebebeb"/>
      <path d="m23.88114,104.5083c-.11621-.0835-.2002-.22559-.2002-.39258,0-.26709.2168-.47559.48438-.47559.1416,0,.2334.0415.30078.0918.4834.38379,1.00098.60107,1.63574.60107.63379,0,1.03516-.30078,1.03516-.73486v-.0166c0-.41699-.23438-.64258-1.31934-.89307-1.24316-.30029-1.94434-.66748-1.94434-1.74414v-.01709c0-1.00146.83496-1.69434,1.99512-1.69434.73438,0,1.32617.19238,1.85254.54297.11719.06641.22559.2085.22559.40869,0,.26709-.21777.47559-.48438.47559-.10059,0-.18359-.0249-.26758-.07471-.4502-.29248-.88379-.44238-1.34375-.44238-.60059,0-.95117.30859-.95117.69238v.01709c0,.45068.26758.65088,1.39355.91797,1.23535.30029,1.87012.74268,1.87012,1.71094v.0166c0,1.09375-.85938,1.74463-2.08691,1.74463-.79297,0-1.54395-.25049-2.19531-.73438Z" fill="#ebebeb"/>
      <path d="m29.5872,104.6416v-4.80762c0-.29199.22559-.51758.51758-.51758h3.39746c.25,0,.45898.20898.45898.45947,0,.2583-.20898.45898-.45898.45898h-2.88867v1.51904h2.5127c.25098,0,.45898.2085.45898.46729,0,.25049-.20801.45068-.45898.45068h-2.5127v1.56934h2.92969c.25098,0,.45996.2085.45996.45898,0,.25879-.20898.45898-.45996.45898h-3.43848c-.29199,0-.51758-.22559-.51758-.51758Z" fill="#ebebeb"/>
      <path d="m36.86747,100.26807h-1.41895c-.2666,0-.47559-.2168-.47559-.47559s.20898-.47607.47559-.47607h3.88184c.25879,0,.4668.21729.4668.47607s-.20801.47559-.4668.47559h-1.42773v4.42383c0,.28369-.2334.50879-.51758.50879-.2832,0-.51758-.2251-.51758-.50879v-4.42383Z" fill="#ebebeb"/>
    </g>
    <g>
      <path d="m11.68485,48.20996v-.0166c0-1.63574,1.25195-3.02148,3.01367-3.02148.87598,0,1.45996.20898,1.99414.59277.10059.0752.20898.2168.20898.41748,0,.27539-.22559.50879-.50879.50879-.13379,0-.23438-.05811-.31738-.1167-.37598-.27539-.78418-.45898-1.41895-.45898-1.07715,0-1.89453.94287-1.89453,2.06152v.0166c0,1.20215.79297,2.08691,1.98633,2.08691.55078,0,1.05176-.17529,1.41016-.44238v-1.09375h-1.15137c-.25,0-.45898-.19189-.45898-.44238,0-.25.20898-.45068.45898-.45068h1.62793c.29199,0,.5166.22559.5166.51758v1.56104c0,.29199-.11621.50049-.3584.65088-.50098.33398-1.20215.63428-2.07812.63428-1.82812,0-3.03027-1.30225-3.03027-3.00488Z" fill="#ebebeb"/>
      <path d="m18.25614,50.44678l2.1709-4.84082c.11621-.25879.3252-.41748.61719-.41748h.0498c.29199,0,.49316.15869.60938.41748l2.16992,4.84082c.04199.0752.05859.15039.05859.21729,0,.27539-.20801.49219-.48438.49219-.24121,0-.4082-.1416-.5-.35889l-.47559-1.09326h-2.83789l-.49316,1.12695c-.08301.2085-.25879.3252-.47559.3252-.2666,0-.47559-.2085-.47559-.47559,0-.0752.02539-.15039.06641-.23389Zm3.82324-1.65234l-1.02637-2.3623-1.02734,2.3623h2.05371Z" fill="#ebebeb"/>
      <path d="m25.16434,45.73975c0-.28418.22559-.50928.51758-.50928.28418,0,.50879.2251.50879.50928v4.90771c0,.28369-.22461.50879-.50879.50879-.29199,0-.51758-.2251-.51758-.50879v-4.90771Z" fill="#ebebeb"/>
      <path d="m27.94169,45.75635c0-.28369.22559-.51758.51758-.51758h.1084c.25098,0,.39258.125.53418.30029l2.92188,3.78125v-3.58887c0-.27588.22461-.50098.5-.50098.28418,0,.50977.2251.50977.50098v4.90771c0,.28369-.2168.50879-.50098.50879h-.04199c-.24219,0-.3916-.125-.53418-.30859l-3.00488-3.88965v3.70605c0,.27539-.22461.50049-.5.50049-.28418,0-.50977-.2251-.50977-.50049v-4.89941Z" fill="#ebebeb"/>
    </g>
    <g>
      <path d="m6.44364,20.49121c0-.5376.42578-.96289.96387-.96289h3.04004c1.11328,0,1.97656.3125,2.55273.88818.4873.48779.75098,1.17627.75098,2.00195v.0249c0,1.37646-.68848,2.22754-1.75195,2.66504l1.33887,1.62695c.1875.2373.3125.4375.3125.73828,0,.5376-.4502.88818-.91309.88818-.43848,0-.72559-.21289-.95117-.50049l-1.87695-2.37744h-1.53906v1.91455c0,.53809-.4248.96338-.96289.96338s-.96387-.42529-.96387-.96338v-6.90723Zm3.87891,3.29102c.93848,0,1.47656-.50049,1.47656-1.23877v-.0249c0-.82617-.57617-1.25098-1.51465-1.25098h-1.91406v2.51465h1.95215Z" fill="#ebebeb"/>
      <path d="m15.44462,27.36084c-.21289-.15039-.3623-.42529-.3623-.72607,0-.5.40039-.88818.90039-.88818.25,0,.42578.0874.55078.17529.66309.48779,1.38867.78809,2.23926.78809.78809,0,1.26367-.3125,1.26367-.82568v-.0249c0-.48828-.2998-.73828-1.76367-1.11377-1.76465-.45068-2.90332-.93848-2.90332-2.67725v-.02539c0-1.58887,1.27637-2.64014,3.06543-2.64014,1.06348,0,1.99023.27539,2.77832.77588.21289.125.4248.3877.4248.76318,0,.50049-.40039.88818-.90039.88818-.1875,0-.33789-.0498-.48828-.1377-.6377-.375-1.23828-.58789-1.83887-.58789-.73828,0-1.12598.33789-1.12598.76367v.02441c0,.57617.375.76367,1.88867,1.15137,1.77734.46289,2.77832,1.10107,2.77832,2.62793v.02441c0,1.73926-1.32617,2.71533-3.21582,2.71533-1.15137,0-2.31445-.3501-3.29102-1.05078Z" fill="#ebebeb"/>
      <path d="m23.21415,23.93262v-.02539c0-2.48975,1.87695-4.5293,4.56641-4.5293,1.31445,0,2.20215.35059,2.92871.88867.2002.1499.375.4248.375.7627,0,.52588-.42578.93848-.95117.93848-.2627,0-.4375-.09961-.5752-.1875-.53809-.40039-1.10156-.62549-1.78906-.62549-1.47656,0-2.54004,1.22607-2.54004,2.72754v.0249c0,1.50146,1.03809,2.75293,2.54004,2.75293.8125,0,1.35059-.25049,1.90137-.68848.15039-.125.35059-.2124.5752-.2124.48828,0,.90137.40039.90137.88818,0,.30029-.15039.53809-.3252.68848-.78809.68799-1.71387,1.10059-3.11523,1.10059-2.57812,0-4.49219-1.98926-4.49219-4.50391Z" fill="#ebebeb"/>
      <path d="m32.90946,20.4165c0-.53809.42578-.96338.96387-.96338s.96289.42529.96289.96338v6.11865h3.56641c.4873,0,.87598.3877.87598.87549s-.38867.87598-.87598.87598h-4.5293c-.53809,0-.96387-.42529-.96387-.96338v-6.90674Z" fill="#ebebeb"/>
    </g>
    <g>
      <path d="m15.01298,316.55127v-.01367c0-1.34814,1.06445-2.45264,2.52734-2.45264,1.46387,0,2.51367,1.09082,2.51367,2.43945v.01318c0,1.34814-1.06348,2.45264-2.52734,2.45264-1.46289,0-2.51367-1.09082-2.51367-2.43896Zm3.9502,0v-.01367c0-.81299-.5957-1.49023-1.43652-1.49023-.83984,0-1.42285.66357-1.42285,1.47705v.01318c0,.81299.59668,1.49072,1.43652,1.49072s1.42285-.66406,1.42285-1.47705Z" fill="#1f1f1f"/>
      <path d="m21.13212,316.87646v-2.229c0-.29102.23047-.52148.52148-.52148.29199,0,.52246.23047.52246.52148v2.20215c0,.77197.38574,1.17188,1.02246,1.17188s1.02344-.38623,1.02344-1.13818v-2.23584c0-.29102.23047-.52148.52148-.52148s.52148.23047.52148.52148v2.19531c0,1.43604-.80566,2.14062-2.08008,2.14062-1.27344,0-2.05273-.71143-2.05273-2.10693Z" fill="#1f1f1f"/>
      <path d="m27.61747,315.12842h-1.00293c-.26367,0-.48047-.2168-.48047-.48096s.2168-.48096.48047-.48096h3.04883c.26465,0,.48145.2168.48145.48096s-.2168.48096-.48145.48096h-1.00293v3.29932c0,.2915-.23047.52197-.52148.52197s-.52148-.23047-.52148-.52197v-3.29932Z" fill="#1f1f1f"/>
    </g>
    <g>
      <path d="m19.30595,266.60156c0-.23047.18311-.41309.41992-.41309.23047,0,.41357.18262.41357.41309v3.9834c0,.23047-.18311.41357-.41357.41357-.23682,0-.41992-.18311-.41992-.41357v-3.9834Z" fill="#ebebeb"/>
      <path d="m21.61552,266.61523c0-.23047.18311-.41992.41992-.41992h.08838c.20312,0,.31836.10156.43359.24365l2.37109,3.06885v-2.91309c0-.22363.18311-.40625.40674-.40625.23047,0,.41309.18262.41309.40625v3.9834c0,.23047-.17578.41357-.40625.41357h-.03418c-.19629,0-.31836-.10156-.43359-.25049l-2.43896-3.15723v3.00781c0,.22363-.18311.40674-.40674.40674-.22998,0-.41309-.18311-.41309-.40674v-3.97656Z" fill="#ebebeb"/>
    </g>
    <g>
      <path d="m16.48466,215.25439c0-.23047.18262-.42041.41992-.42041h.08789c.18262,0,.30469.09521.38574.22363l1.43652,2.24951,1.44336-2.25635c.08789-.14209.20996-.2168.37891-.2168h.08887c.23633,0,.41992.18994.41992.42041v3.97021c0,.22998-.18359.41309-.41992.41309-.22363,0-.41406-.18945-.41406-.41309v-2.8457l-1.1582,1.74121c-.08789.13574-.19629.2168-.35254.2168-.14844,0-.25684-.08105-.3457-.2168l-1.15137-1.72754v2.83887c0,.22998-.18262.40625-.41309.40625s-.40625-.17627-.40625-.40625v-3.97705Z" fill="#ebebeb"/>
      <path d="m22.63798,215.24072c0-.23047.18262-.41357.41992-.41357.23047,0,.41309.18311.41309.41357v3.98389c0,.22998-.18262.41309-.41309.41309-.2373,0-.41992-.18311-.41992-.41309v-3.98389Z" fill="#ebebeb"/>
      <path d="m24.94755,215.25439c0-.23047.18262-.42041.41992-.42041h.08789c.20312,0,.31836.10156.43359.24414l2.37109,3.06934v-2.91357c0-.22363.18262-.40674.40625-.40674.23047,0,.41406.18311.41406.40674v3.98389c0,.23047-.17676.41309-.40723.41309h-.0332c-.19727,0-.31836-.10156-.43359-.25098l-2.43945-3.15674v3.0083c0,.22314-.18262.40625-.40625.40625-.23047,0-.41309-.18311-.41309-.40625v-3.97705Z" fill="#ebebeb"/>
    </g>
    <g>
      <path d="m15.22392,167.27881c0-.23047.18262-.42041.41992-.42041h.08789c.18359,0,.30566.09521.38672.22363l1.43652,2.24951,1.44238-2.25635c.08887-.14209.20996-.2168.37988-.2168h.08789c.2373,0,.41992.18994.41992.42041v3.97021c0,.22998-.18262.41309-.41992.41309-.22363,0-.41309-.18945-.41309-.41309v-2.8457l-1.1582,1.74121c-.08887.13574-.19727.2168-.35254.2168-.14941,0-.25781-.08105-.3457-.2168l-1.15137-1.72754v2.83887c0,.22998-.18359.40625-.41406.40625-.22949,0-.40625-.17627-.40625-.40625v-3.97705Z" fill="#ebebeb"/>
      <path d="m20.97001,171.08594l1.76172-3.9292c.09473-.20996.26367-.33887.50098-.33887h.04102c.2373,0,.39941.12891.49414.33887l1.76172,3.9292c.03418.06152.04785.12207.04785.17627,0,.22363-.16992.3999-.39355.3999-.19629,0-.33203-.11523-.40625-.2915l-.38574-.88721h-2.30371l-.39941.91455c-.06836.16943-.21094.26416-.38672.26416-.2168,0-.38574-.16943-.38574-.38623,0-.06104.01953-.12207.05371-.18994Zm3.10352-1.34131l-.83398-1.91748-.83301,1.91748h1.66699Z" fill="#ebebeb"/>
      <path d="m26.60087,170.96436l1.40918-1.74805-1.32715-1.646c-.06836-.08838-.12891-.19678-.12891-.31201,0-.22998.17578-.40674.41309-.40674.17578,0,.27734.06836.37891.20361l1.19922,1.57861,1.18555-1.55176c.1084-.14893.22363-.23047.40723-.23047.18262,0,.37891.14941.37891.37988,0,.12207-.04688.2168-.12891.31836l-1.32715,1.65283,1.39551,1.74121c.06738.08838.12891.18994.12891.31201,0,.22998-.17676.40625-.41406.40625-.17578,0-.27734-.06787-.37891-.20312l-1.27344-1.66016-1.25391,1.63281c-.11523.14941-.22363.23047-.40625.23047-.18945,0-.37988-.14941-.37988-.38623,0-.11523.04785-.20996.12207-.31152Z" fill="#ebebeb"/>
    </g>
  </g>
</svg>