<?xml version="1.0" encoding="utf-8"?>
<!-- Generator: Adobe Illustrator 27.8.1, SVG Export Plug-In . SVG Version: 6.00 Build 0)  -->
<svg version="1.0" id="Layer_1" xmlns="http://www.w3.org/2000/svg" xmlns:xlink="http://www.w3.org/1999/xlink" x="0px" y="0px"
	 width="45px" height="380px" viewBox="0 0 45 380" enable-background="new 0 0 45 380" xml:space="preserve">
<g id="uuid-4e84d29e-f7f0-4f77-ab88-94f66b946309">
	
		<linearGradient id="SVGID_1_" gradientUnits="userSpaceOnUse" x1="22.5" y1="381.27557" x2="22.5" y2="1.27557" gradientTransform="matrix(1 0 0 -1 0 381.27557)">
		<stop  offset="0" style="stop-color:#2A2A2B"/>
		<stop  offset="1" style="stop-color:#171717"/>
	</linearGradient>
	<rect y="0" fill="url(#SVGID_1_)" width="45" height="380"/>
</g>
<g id="uuid-72e9bcb7-7310-4b62-afce-514df5ed171c">
	<path fill="#EDEDED" d="M11.05887,309.05634h22.88225c1.56553,0,2.83465,1.26913,2.83465,2.83466v33.48761
		c0,1.56552-1.26912,2.83466-2.83465,2.83466H11.05887c-1.56553,0-2.83465-1.26913-2.83465-2.83466v-33.48761
		C8.22422,310.32547,9.49334,309.05634,11.05887,309.05634z"/>
	<g>
		<path fill="none" stroke="#EDEDED" stroke-width="0.8" stroke-linecap="round" stroke-linejoin="round" d="M13.92012,87.35089
			c-4.87734-2.91881-8.14264-8.25353-8.14264-14.35091c0-9.23,7.48239-16.71239,16.71239-16.71239
			s16.71239,7.48239,16.71239,16.71239c0,6.06564-3.2314,11.37655-8.06662,14.30514"/>
		<circle fill="none" cx="22.5" cy="72.99995" r="20.69419"/>
	</g>
	<g>
		<path fill="none" stroke="#EDEDED" stroke-width="0.8" stroke-linecap="round" stroke-linejoin="round" d="M13.90998,141.41229
			c-4.87734-2.91881-8.14264-8.25352-8.14264-14.35091c0-9.23,7.48239-16.71239,16.71239-16.71239
			s16.71239,7.48239,16.71239,16.71239c0,6.06564-3.2314,11.37656-8.06662,14.30515"/>
		<circle fill="none" cx="22.48986" cy="127.06135" r="20.69419"/>
	</g>
	
		<line fill="none" stroke="#EDEDED" stroke-width="0.8" stroke-linecap="round" stroke-linejoin="round" x1="22.48986" y1="110.78674" x2="22.48986" y2="119.73803"/>
	
		<line fill="none" stroke="#EDEDED" stroke-width="0.8" stroke-linecap="round" stroke-linejoin="round" x1="22.48986" y1="56.2876" x2="22.48986" y2="65.2389"/>
	<path fill="none" stroke="#EDEDED" stroke-width="0.8" stroke-linecap="round" stroke-linejoin="round" d="M15.30245,201.92113
		c-4.18524-2.51474-6.75324-7.05367-6.75324-11.93631c0-7.63919,6.28611-13.92529,13.9253-13.92529
		s13.9253,6.28612,13.9253,13.92529c0,4.9171-2.60439,9.48308-6.83674,11.98608l-7.44259-12.12157"/>
	<path fill="none" stroke="#EDEDED" stroke-width="0.8" stroke-linecap="round" stroke-linejoin="round" d="M29.56306,249.96669
		c4.23236-2.50301,6.83674-7.06898,6.83674-11.98608c0-7.63919-6.28611-13.92529-13.9253-13.92529
		s-13.9253,6.28612-13.9253,13.92529c0,4.88264,2.568,9.42157,6.75324,11.93631l7.32949-12.51059"/>
	<g>
		<circle fill="#EDEDED" cx="23.00165" cy="355.83102" r="1.1857"/>
		<path fill="#EDEDED" d="M14.35927,359.75299c-0.34551,0-0.66126-0.19519-0.8158-0.50418l-2.96428-5.92856
			c-0.22526-0.45056-0.04266-0.99844,0.40794-1.22369c0.45008-0.22534,0.99831-0.04272,1.22366,0.4079l2.14848,4.29697
			l2.14848-4.29697c0.22526-0.45056,0.77314-0.63324,1.22366-0.4079c0.45061,0.22525,0.63321,0.77313,0.40794,1.22369
			l-2.96428,5.92856C15.02053,359.5578,14.70478,359.75299,14.35927,359.75299z"/>
		<path fill="#EDEDED" d="M30.64073,359.75299c-0.34551,0-0.66126-0.19519-0.8158-0.50418l-2.96428-5.92856
			c-0.22526-0.45056-0.04266-0.99844,0.40794-1.22369c0.45016-0.22534,0.9984-0.04272,1.22366,0.4079l2.14848,4.29697
			l2.14848-4.29697c0.22526-0.45056,0.77305-0.63324,1.22366-0.4079c0.45061,0.22525,0.63321,0.77313,0.40794,1.22369
			l-2.96428,5.92856C31.30199,359.5578,30.98624,359.75299,30.64073,359.75299z"/>
		<path fill="#EDEDED" d="M22.94242,359.75299c-2.13744,0-3.87637-1.73892-3.87637-3.87637s1.73893-3.87637,3.87637-3.87637
			c0.84653,0,1.65102,0.26819,2.32653,0.77554c0.40278,0.30252,0.48401,0.87427,0.18153,1.27704
			c-0.30248,0.40274-0.87432,0.48401-1.2771,0.18149c-0.357-0.26816-0.78267-0.40991-1.23096-0.40991
			c-1.13156,0-2.05219,0.92059-2.05219,2.05219s0.92064,2.05219,2.05219,2.05219c0.44829,0,0.87396-0.14175,1.23096-0.40991
			c0.40269-0.3027,0.97444-0.22125,1.2771,0.18149c0.30248,0.40277,0.22125,0.97452-0.18153,1.27704
			c-0.67551,0.50735-1.48,0.77554-2.32653,0.77554V359.75299z"/>
	</g>
	
		<line id="line12" fill="none" stroke="#EDEDED" stroke-width="0.8" stroke-linecap="round" stroke-linejoin="round" x1="22.49994" y1="288.95596" x2="22.49994" y2="321.15515"/>
</g>
<g id="uuid-c6547a3e-d7db-4640-b14f-ddb5947bca14">
	<g>
		<path fill="#EBEBEB" d="M5.38212,102.25439v-0.0166c0-1.64404,1.26855-3.02148,3.06348-3.02148s3.04688,1.36084,3.04688,3.00488
			v0.0166c0,1.64453-1.26953,3.02148-3.06348,3.02148C6.63408,105.25927,5.38212,103.89892,5.38212,102.25439z M10.41532,102.25439
			v-0.0166c0-1.13525-0.82617-2.07812-1.98633-2.07812s-1.96973,0.92627-1.96973,2.06152v0.0166
			c0,1.13525,0.82617,2.06982,1.98633,2.06982S10.41532,103.38964,10.41532,102.25439z"/>
		<path fill="#EBEBEB" d="M12.92216,99.83398c0-0.29199,0.22559-0.51758,0.51758-0.51758h3.40527
			c0.25879,0,0.46777,0.20898,0.46777,0.46777s-0.20898,0.46729-0.46777,0.46729h-2.89648v1.59424h2.52148
			c0.25879,0,0.4668,0.2085,0.4668,0.46729s-0.20801,0.46729-0.4668,0.46729h-2.52148v1.91162
			c0,0.28369-0.22461,0.50879-0.50879,0.50879c-0.29199,0-0.51758-0.2251-0.51758-0.50879V99.834V99.83398z"/>
		<path fill="#EBEBEB" d="M18.49638,99.83398c0-0.29199,0.22559-0.51758,0.51758-0.51758h3.40527
			c0.25879,0,0.46777,0.20898,0.46777,0.46777s-0.20898,0.46729-0.46777,0.46729h-2.89648v1.59424h2.52148
			c0.25879,0,0.4668,0.2085,0.4668,0.46729s-0.20801,0.46729-0.4668,0.46729h-2.52148v1.91162
			c0,0.28369-0.22461,0.50879-0.50879,0.50879c-0.29199,0-0.51758-0.2251-0.51758-0.50879V99.834L18.49638,99.83398z"/>
		<path fill="#EBEBEB" d="M23.88114,104.5083c-0.11621-0.0835-0.2002-0.22559-0.2002-0.39258
			c0-0.26709,0.2168-0.47559,0.48438-0.47559c0.1416,0,0.2334,0.0415,0.30078,0.0918
			c0.4834,0.38379,1.00098,0.60107,1.63574,0.60107c0.63379,0,1.03516-0.30078,1.03516-0.73486v-0.0166
			c0-0.41699-0.23438-0.64258-1.31934-0.89307c-1.24316-0.30029-1.94434-0.66748-1.94434-1.74414v-0.01709
			c0-1.00146,0.83496-1.69434,1.99512-1.69434c0.73438,0,1.32617,0.19238,1.85254,0.54297
			c0.11719,0.06641,0.22559,0.2085,0.22559,0.40869c0,0.26709-0.21777,0.47559-0.48438,0.47559
			c-0.10059,0-0.18359-0.0249-0.26758-0.07471c-0.4502-0.29248-0.88379-0.44238-1.34375-0.44238
			c-0.60059,0-0.95117,0.30859-0.95117,0.69238v0.01709c0,0.45068,0.26758,0.65088,1.39355,0.91797
			c1.23535,0.30029,1.87012,0.74268,1.87012,1.71094v0.0166c0,1.09375-0.85938,1.74463-2.08691,1.74463
			c-0.79297,0-1.54395-0.25049-2.19531-0.73438V104.5083z"/>
		<path fill="#EBEBEB" d="M29.5872,104.6416v-4.80762c0-0.29199,0.22559-0.51758,0.51758-0.51758h3.39746
			c0.25,0,0.45898,0.20898,0.45898,0.45947c0,0.2583-0.20898,0.45898-0.45898,0.45898h-2.88867v1.51904h2.5127
			c0.25098,0,0.45898,0.2085,0.45898,0.46729c0,0.25049-0.20801,0.45068-0.45898,0.45068h-2.5127v1.56934h2.92969
			c0.25098,0,0.45996,0.2085,0.45996,0.45898c0,0.25879-0.20898,0.45898-0.45996,0.45898h-3.43848
			C29.81279,105.15917,29.5872,104.93358,29.5872,104.6416z"/>
		<path fill="#EBEBEB" d="M36.86747,100.26807h-1.41895c-0.2666,0-0.47559-0.2168-0.47559-0.47559s0.20898-0.47607,0.47559-0.47607
			h3.88184c0.25879,0,0.4668,0.21729,0.4668,0.47607s-0.20801,0.47559-0.4668,0.47559h-1.42773v4.42383
			c0,0.28369-0.2334,0.50879-0.51758,0.50879c-0.2832,0-0.51758-0.2251-0.51758-0.50879
			C36.86747,104.69189,36.86747,100.26807,36.86747,100.26807z"/>
	</g>
	<g>
		<path fill="#EBEBEB" d="M11.68485,48.20996v-0.0166c0-1.63574,1.25195-3.02148,3.01367-3.02148
			c0.87598,0,1.45996,0.20898,1.99414,0.59277c0.10059,0.0752,0.20898,0.2168,0.20898,0.41748
			c0,0.27539-0.22559,0.50879-0.50879,0.50879c-0.13379,0-0.23438-0.05811-0.31738-0.1167
			c-0.37598-0.27539-0.78418-0.45898-1.41895-0.45898c-1.07715,0-1.89453,0.94287-1.89453,2.06152v0.0166
			c0,1.20215,0.79297,2.08691,1.98633,2.08691c0.55078,0,1.05176-0.17529,1.41016-0.44238v-1.09375h-1.15137
			c-0.25,0-0.45898-0.19189-0.45898-0.44238c0-0.25,0.20898-0.45068,0.45898-0.45068h1.62793
			c0.29199,0,0.5166,0.22559,0.5166,0.51758v1.56104c0,0.29199-0.11621,0.50049-0.3584,0.65088
			c-0.50098,0.33398-1.20215,0.63428-2.07812,0.63428c-1.82812,0-3.03027-1.30225-3.03027-3.00488L11.68485,48.20996z"/>
		<path fill="#EBEBEB" d="M18.25614,50.44678l2.1709-4.84082c0.11621-0.25879,0.3252-0.41748,0.61719-0.41748h0.0498
			c0.29199,0,0.49316,0.15869,0.60938,0.41748l2.16992,4.84082c0.04199,0.0752,0.05859,0.15039,0.05859,0.21729
			c0,0.27539-0.20801,0.49219-0.48438,0.49219c-0.24121,0-0.4082-0.1416-0.5-0.35889l-0.47559-1.09326h-2.83789l-0.49316,1.12695
			c-0.08301,0.2085-0.25879,0.3252-0.47559,0.3252c-0.2666,0-0.47559-0.2085-0.47559-0.47559
			C18.18972,50.60547,18.21511,50.53028,18.25614,50.44678z M22.07938,48.79444l-1.02637-2.3623l-1.02734,2.3623H22.07938z"/>
		<path fill="#EBEBEB" d="M25.16434,45.73975c0-0.28418,0.22559-0.50928,0.51758-0.50928c0.28418,0,0.50879,0.2251,0.50879,0.50928
			v4.90771c0,0.28369-0.22461,0.50879-0.50879,0.50879c-0.29199,0-0.51758-0.2251-0.51758-0.50879V45.73975z"/>
		<path fill="#EBEBEB" d="M27.94169,45.75635c0-0.28369,0.22559-0.51758,0.51758-0.51758h0.1084
			c0.25098,0,0.39258,0.125,0.53418,0.30029l2.92188,3.78125v-3.58887c0-0.27588,0.22461-0.50098,0.5-0.50098
			c0.28418,0,0.50977,0.2251,0.50977,0.50098v4.90771c0,0.28369-0.2168,0.50879-0.50098,0.50879h-0.04199
			c-0.24219,0-0.3916-0.125-0.53418-0.30859l-3.00488-3.88965v3.70605c0,0.27539-0.22461,0.50049-0.5,0.50049
			c-0.28418,0-0.50977-0.2251-0.50977-0.50049v-4.89941L27.94169,45.75635z"/>
	</g>
	<g>
		<path fill="#EBEBEB" d="M6.44364,20.49121c0-0.5376,0.42578-0.96289,0.96387-0.96289h3.04004
			c1.11328,0,1.97656,0.3125,2.55273,0.88818c0.4873,0.48779,0.75098,1.17627,0.75098,2.00195v0.0249
			c0,1.37646-0.68848,2.22754-1.75195,2.66504l1.33887,1.62695c0.1875,0.2373,0.3125,0.4375,0.3125,0.73828
			c0,0.5376-0.4502,0.88818-0.91309,0.88818c-0.43848,0-0.72559-0.21289-0.95117-0.50049l-1.87695-2.37744H8.37041v1.91455
			c0,0.53809-0.4248,0.96338-0.96289,0.96338s-0.96387-0.42529-0.96387-0.96338v-6.90723L6.44364,20.49121z M10.32255,23.78223
			c0.93848,0,1.47656-0.50049,1.47656-1.23877v-0.0249c0-0.82617-0.57617-1.25098-1.51465-1.25098H8.3704v2.51465H10.32255z"/>
		<path fill="#EBEBEB" d="M15.44462,27.36084c-0.21289-0.15039-0.3623-0.42529-0.3623-0.72607
			c0-0.5,0.40039-0.88818,0.90039-0.88818c0.25,0,0.42578,0.0874,0.55078,0.17529c0.66309,0.48779,1.38867,0.78809,2.23926,0.78809
			c0.78809,0,1.26367-0.3125,1.26367-0.82568v-0.0249c0-0.48828-0.2998-0.73828-1.76367-1.11377
			c-1.76465-0.45068-2.90332-0.93848-2.90332-2.67725v-0.02539c0-1.58887,1.27637-2.64014,3.06543-2.64014
			c1.06348,0,1.99023,0.27539,2.77832,0.77588c0.21289,0.125,0.4248,0.3877,0.4248,0.76318
			c0,0.50049-0.40039,0.88818-0.90039,0.88818c-0.1875,0-0.33789-0.0498-0.48828-0.1377
			c-0.6377-0.375-1.23828-0.58789-1.83887-0.58789c-0.73828,0-1.12598,0.33789-1.12598,0.76367v0.02441
			c0,0.57617,0.375,0.76367,1.88867,1.15137c1.77734,0.46289,2.77832,1.10107,2.77832,2.62793v0.02441
			c0,1.73926-1.32617,2.71533-3.21582,2.71533c-1.15137,0-2.31445-0.3501-3.29102-1.05078L15.44462,27.36084z"/>
		<path fill="#EBEBEB" d="M23.21415,23.93262v-0.02539c0-2.48975,1.87695-4.5293,4.56641-4.5293
			c1.31445,0,2.20215,0.35059,2.92871,0.88867c0.2002,0.1499,0.375,0.4248,0.375,0.7627c0,0.52588-0.42578,0.93848-0.95117,0.93848
			c-0.2627,0-0.4375-0.09961-0.5752-0.1875c-0.53809-0.40039-1.10156-0.62549-1.78906-0.62549
			c-1.47656,0-2.54004,1.22607-2.54004,2.72754v0.0249c0,1.50146,1.03809,2.75293,2.54004,2.75293
			c0.8125,0,1.35059-0.25049,1.90137-0.68848c0.15039-0.125,0.35059-0.2124,0.5752-0.2124
			c0.48828,0,0.90137,0.40039,0.90137,0.88818c0,0.30029-0.15039,0.53809-0.3252,0.68848
			c-0.78809,0.68799-1.71387,1.10059-3.11523,1.10059c-2.57812,0-4.49219-1.98926-4.49219-4.50391L23.21415,23.93262z"/>
		<path fill="#EBEBEB" d="M32.90946,20.4165c0-0.53809,0.42578-0.96338,0.96387-0.96338s0.96289,0.42529,0.96289,0.96338v6.11865
			h3.56641c0.4873,0,0.87598,0.3877,0.87598,0.87549s-0.38867,0.87598-0.87598,0.87598h-4.5293
			c-0.53809,0-0.96387-0.42529-0.96387-0.96338V20.4165z"/>
	</g>
	<g>
		<path fill="#1F1F1F" d="M15.01298,316.55127v-0.01367c0-1.34814,1.06445-2.45264,2.52734-2.45264
			c1.46387,0,2.51367,1.09082,2.51367,2.43945v0.01318c0,1.34814-1.06348,2.45264-2.52734,2.45264
			C16.06376,318.99023,15.01298,317.89941,15.01298,316.55127z M18.96318,316.55127v-0.01367
			c0-0.81299-0.5957-1.49023-1.43652-1.49023c-0.83984,0-1.42285,0.66357-1.42285,1.47705v0.01318
			c0,0.81299,0.59668,1.49072,1.43652,1.49072S18.96318,317.36426,18.96318,316.55127z"/>
		<path fill="#1F1F1F" d="M21.13212,316.87646v-2.229c0-0.29102,0.23047-0.52148,0.52148-0.52148
			c0.29199,0,0.52246,0.23047,0.52246,0.52148v2.20215c0,0.77197,0.38574,1.17188,1.02246,1.17188s1.02344-0.38623,1.02344-1.13818
			v-2.23584c0-0.29102,0.23047-0.52148,0.52148-0.52148s0.52148,0.23047,0.52148,0.52148v2.19531
			c0,1.43604-0.80566,2.14062-2.08008,2.14062C21.9114,318.9834,21.13211,318.27197,21.13212,316.87646z"/>
		<path fill="#1F1F1F" d="M27.61747,315.12842h-1.00293c-0.26367,0-0.48047-0.2168-0.48047-0.48096s0.2168-0.48096,0.48047-0.48096
			h3.04883c0.26465,0,0.48145,0.2168,0.48145,0.48096s-0.2168,0.48096-0.48145,0.48096h-1.00293v3.29932
			c0,0.2915-0.23047,0.52197-0.52148,0.52197s-0.52148-0.23047-0.52148-0.52197
			C27.61748,318.42773,27.61748,315.12842,27.61747,315.12842z"/>
	</g>
	<g>
		<path fill="#EBEBEB" d="M19.30595,266.60156c0-0.23047,0.18311-0.41309,0.41992-0.41309
			c0.23047,0,0.41357,0.18262,0.41357,0.41309v3.9834c0,0.23047-0.18311,0.41357-0.41357,0.41357
			c-0.23682,0-0.41992-0.18311-0.41992-0.41357V266.60156z"/>
		<path fill="#EBEBEB" d="M21.61552,266.61523c0-0.23047,0.18311-0.41992,0.41992-0.41992h0.08838
			c0.20312,0,0.31836,0.10156,0.43359,0.24365l2.37109,3.06885v-2.91309c0-0.22363,0.18311-0.40625,0.40674-0.40625
			c0.23047,0,0.41309,0.18262,0.41309,0.40625v3.9834c0,0.23047-0.17578,0.41357-0.40625,0.41357H25.3079
			c-0.19629,0-0.31836-0.10156-0.43359-0.25049l-2.43896-3.15723v3.00781c0,0.22363-0.18311,0.40674-0.40674,0.40674
			c-0.22998,0-0.41309-0.18311-0.41309-0.40674C21.61552,270.5918,21.61552,266.61523,21.61552,266.61523z"/>
	</g>
	<g>
		<path fill="#EBEBEB" d="M16.48466,215.25439c0-0.23047,0.18262-0.42041,0.41992-0.42041h0.08789
			c0.18262,0,0.30469,0.09521,0.38574,0.22363l1.43652,2.24951l1.44336-2.25635c0.08789-0.14209,0.20996-0.2168,0.37891-0.2168
			h0.08887c0.23633,0,0.41992,0.18994,0.41992,0.42041v3.97021c0,0.22998-0.18359,0.41309-0.41992,0.41309
			c-0.22363,0-0.41406-0.18945-0.41406-0.41309v-2.8457l-1.1582,1.74121c-0.08789,0.13574-0.19629,0.2168-0.35254,0.2168
			c-0.14844,0-0.25684-0.08105-0.3457-0.2168l-1.15137-1.72754v2.83887c0,0.22998-0.18262,0.40625-0.41309,0.40625
			s-0.40625-0.17627-0.40625-0.40625C16.48466,219.23145,16.48466,215.25439,16.48466,215.25439z"/>
		<path fill="#EBEBEB" d="M22.63798,215.24072c0-0.23047,0.18262-0.41357,0.41992-0.41357
			c0.23047,0,0.41309,0.18311,0.41309,0.41357v3.98389c0,0.22998-0.18262,0.41309-0.41309,0.41309
			c-0.2373,0-0.41992-0.18311-0.41992-0.41309V215.24072z"/>
		<path fill="#EBEBEB" d="M24.94755,215.25439c0-0.23047,0.18262-0.42041,0.41992-0.42041h0.08789
			c0.20312,0,0.31836,0.10156,0.43359,0.24414l2.37109,3.06934v-2.91357c0-0.22363,0.18262-0.40674,0.40625-0.40674
			c0.23047,0,0.41406,0.18311,0.41406,0.40674v3.98389c0,0.23047-0.17676,0.41309-0.40723,0.41309h-0.0332
			c-0.19727,0-0.31836-0.10156-0.43359-0.25098l-2.43945-3.15674v3.0083c0,0.22314-0.18262,0.40625-0.40625,0.40625
			c-0.23047,0-0.41309-0.18311-0.41309-0.40625C24.94754,219.23145,24.94754,215.25439,24.94755,215.25439z"/>
	</g>
	<g>
		<path fill="#EBEBEB" d="M15.22392,167.27881c0-0.23047,0.18262-0.42041,0.41992-0.42041h0.08789
			c0.18359,0,0.30566,0.09521,0.38672,0.22363l1.43652,2.24951l1.44238-2.25635c0.08887-0.14209,0.20996-0.2168,0.37988-0.2168
			h0.08789c0.2373,0,0.41992,0.18994,0.41992,0.42041v3.97021c0,0.22998-0.18262,0.41309-0.41992,0.41309
			c-0.22363,0-0.41309-0.18945-0.41309-0.41309v-2.8457l-1.1582,1.74121c-0.08887,0.13574-0.19727,0.2168-0.35254,0.2168
			c-0.14941,0-0.25781-0.08105-0.3457-0.2168l-1.15137-1.72754v2.83887c0,0.22998-0.18359,0.40625-0.41406,0.40625
			c-0.22949,0-0.40625-0.17627-0.40625-0.40625C15.22391,171.25586,15.22391,167.27881,15.22392,167.27881z"/>
		<path fill="#EBEBEB" d="M20.97001,171.08594l1.76172-3.9292c0.09473-0.20996,0.26367-0.33887,0.50098-0.33887h0.04102
			c0.2373,0,0.39941,0.12891,0.49414,0.33887l1.76172,3.9292c0.03418,0.06152,0.04785,0.12207,0.04785,0.17627
			c0,0.22363-0.16992,0.3999-0.39355,0.3999c-0.19629,0-0.33203-0.11523-0.40625-0.2915l-0.38574-0.88721h-2.30371l-0.39941,0.91455
			c-0.06836,0.16943-0.21094,0.26416-0.38672,0.26416c-0.2168,0-0.38574-0.16943-0.38574-0.38623
			c0-0.06104,0.01953-0.12207,0.05371-0.18994H20.97001z M24.07353,169.74463l-0.83398-1.91748l-0.83301,1.91748H24.07353z"/>
		<path fill="#EBEBEB" d="M26.60087,170.96436l1.40918-1.74805l-1.32715-1.646c-0.06836-0.08838-0.12891-0.19678-0.12891-0.31201
			c0-0.22998,0.17578-0.40674,0.41309-0.40674c0.17578,0,0.27734,0.06836,0.37891,0.20361l1.19922,1.57861l1.18555-1.55176
			c0.1084-0.14893,0.22363-0.23047,0.40723-0.23047c0.18262,0,0.37891,0.14941,0.37891,0.37988
			c0,0.12207-0.04688,0.2168-0.12891,0.31836l-1.32715,1.65283l1.39551,1.74121c0.06738,0.08838,0.12891,0.18994,0.12891,0.31201
			c0,0.22998-0.17676,0.40625-0.41406,0.40625c-0.17578,0-0.27734-0.06787-0.37891-0.20312l-1.27344-1.66016l-1.25391,1.63281
			c-0.11523,0.14941-0.22363,0.23047-0.40625,0.23047c-0.18945,0-0.37988-0.14941-0.37988-0.38623
			C26.47881,171.16064,26.52666,171.06592,26.60087,170.96436z"/>
	</g>
</g>
</svg>
