<?xml version="1.0" encoding="UTF-8" standalone="no"?>
<svg
   width="195"
   height="380"
   viewBox="0 0 195 380"
   version="1.1"
   id="svg269"
   sodipodi:docname="SCOPE.svg"
   inkscape:version="1.1.1 (3bf5ae0d25, 2021-09-20)"
   xmlns:inkscape="http://www.inkscape.org/namespaces/inkscape"
   xmlns:sodipodi="http://sodipodi.sourceforge.net/DTD/sodipodi-0.dtd"
   xmlns="http://www.w3.org/2000/svg"
   xmlns:svg="http://www.w3.org/2000/svg">
  <sodipodi:namedview
     id="namedview271"
     pagecolor="#ffffff"
     bordercolor="#666666"
     borderopacity="1.0"
     inkscape:pageshadow="2"
     inkscape:pageopacity="0.0"
     inkscape:pagecheckerboard="0"
     showgrid="false"
     inkscape:zoom="1.8921053"
     inkscape:cx="97.510431"
     inkscape:cy="190"
     inkscape:window-width="1920"
     inkscape:window-height="1009"
     inkscape:window-x="-8"
     inkscape:window-y="-8"
     inkscape:window-maximized="1"
     inkscape:current-layer="uuid-01687cb8-7441-45ec-98e1-245f9b20292f" />
  <defs
     id="defs7">
    <linearGradient
       id="uuid-53e641b2-4ed6-4c8c-b9f5-b62382837ca8"
       x1="97.50002"
       y1="0"
       x2="97.50002"
       y2="380"
       gradientUnits="userSpaceOnUse">
      <stop
         offset="0"
         stop-color="#ebebeb"
         id="stop2" />
      <stop
         offset="1"
         stop-color="#e1e1e1"
         id="stop4" />
    </linearGradient>
  </defs>
  <g
     id="uuid-c4ee3f4d-09f1-4b84-8562-00919c5a3800"
     data-name="FND BG">
    <rect
       x=".00004"
       width="194.99996"
       height="380"
       fill="url(#uuid-53e641b2-4ed6-4c8c-b9f5-b62382837ca8)"
       id="rect9" />
  </g>
  <g
     id="uuid-d53dfa26-254a-467a-ac58-d86b307427be"
     data-name="FND GRAPH">
    <line
       x1="169.47881"
       y1="302.57366"
       x2="169.47881"
       y2="308.02135"
       fill="none"
       stroke="#1f1f1f"
       stroke-linecap="round"
       stroke-linejoin="round"
       stroke-width=".8"
       id="line12" />
    <g
       id="g22">
      <path
         d="m89.35927,359.75298c-.34551,0-.66126-.1952-.8158-.50419l-2.96428-5.92856c-.22526-.45057-.04266-.99844.40794-1.2237.45008-.22535.99831-.04271,1.22366.4079l2.14848,4.29696,2.14848-4.29696c.22526-.45057.77314-.63325,1.22366-.4079.45061.22526.63321.77314.40794,1.2237l-2.96428,5.92856c-.15454.30899-.47029.50419-.8158.50419Z"
         fill="#1f1f1f"
         id="path14" />
      <path
         d="m105.64073,359.75298c-.34551,0-.66126-.1952-.8158-.50419l-2.96428-5.92856c-.22526-.45057-.04266-.99844.40794-1.2237.45016-.22535.9984-.04271,1.22366.4079l2.14848,4.29696,2.14848-4.29696c.22526-.45057.77305-.63325,1.22366-.4079.45061.22526.63321.77314.40794,1.2237l-2.96428,5.92856c-.15454.30899-.47029.50419-.8158.50419Z"
         fill="#1f1f1f"
         id="path16" />
      <path
         d="m97.94242,359.75298c-2.13744,0-3.87637-1.73893-3.87637-3.87637s1.73893-3.87637,3.87637-3.87637c.84653,0,1.65102.26819,2.32653.77554.40278.30253.48401.87428.18153,1.27705-.30248.40273-.87432.48401-1.2771.18148-.357-.26815-.78267-.4099-1.23096-.4099-1.13156,0-2.05219.92059-2.05219,2.05219s.92064,2.05219,2.05219,2.05219c.44829,0,.87396-.14176,1.23096-.4099.40269-.30271.97444-.22125,1.2771.18148.30248.40278.22125.97453-.18153,1.27705-.67551.50735-1.48.77554-2.32653.77554Z"
         fill="#1f1f1f"
         id="path18" />
      <circle
         cx="98.00165"
         cy="355.83101"
         r="1.18571"
         fill="#1f1f1f"
         id="circle20" />
    </g>
    <rect
       x="47.19857"
       y="309.08893"
       width="28.6316"
       height="39.15691"
       rx="2.83465"
       ry="2.83465"
       fill="#1f1f1f"
       id="rect24" />
    <rect
       x="119.18493"
       y="309.08893"
       width="28.6316"
       height="39.15691"
       rx="2.83465"
       ry="2.83465"
       fill="#1f1f1f"
       id="rect26" />
    <path
       d="m43.82551,333.67796l-2.87167-1.65796c-.24791-.14313-.55779.03578-.55779.32204v3.31592c0,.28626.30989.46517.55779.32204l2.87167-1.65796c.24791-.14313.24791-.50096,0-.64409Z"
       fill="#1f1f1f"
       id="path28" />
    <path
       d="m115.81186,333.67796l-2.87167-1.65796c-.24791-.14313-.55779.03578-.55779.32204v3.31592c0,.28626.30989.46517.55779.32204l2.87167-1.65796c.24791-.14313.24791-.50096,0-.64409Z"
       fill="#1f1f1f"
       id="path30" />
    <g
       id="g38">
      <line
         x1="121.4965"
         y1="273.348"
         x2="121.4965"
         y2="269.62474"
         fill="none"
         stroke="#1f1f1f"
         stroke-linecap="round"
         stroke-linejoin="round"
         stroke-width=".8"
         id="line32" />
      <path
         d="m130.13212,300.17662c4.83522-2.92859,8.06662-8.2395,8.06662-14.30514,0-9.23-7.48239-16.71239-16.71239-16.71239s-16.71239,7.48239-16.71239,16.71239c0,6.09737,3.2653,11.4321,8.14264,14.35091"
         fill="none"
         stroke="#1f1f1f"
         stroke-linecap="round"
         stroke-linejoin="round"
         stroke-width=".8"
         id="path34" />
      <circle
         cx="121.49648"
         cy="285.87145"
         r="20.69419"
         fill="none"
         isolation="isolate"
         opacity=".69"
         id="circle36" />
    </g>
    <g
       id="g46">
      <line
         x1="169.47883"
         y1="273.348"
         x2="169.47883"
         y2="269.62474"
         fill="none"
         stroke="#1f1f1f"
         stroke-linecap="round"
         stroke-linejoin="round"
         stroke-width=".8"
         id="line40" />
      <path
         d="m178.11444,300.17662c4.83522-2.92859,8.06662-8.2395,8.06662-14.30514,0-9.23-7.48239-16.71239-16.71239-16.71239s-16.71239,7.48239-16.71239,16.71239c0,6.09737,3.2653,11.4321,8.14264,14.35091"
         fill="none"
         stroke="#1f1f1f"
         stroke-linecap="round"
         stroke-linejoin="round"
         stroke-width=".8"
         id="path42" />
      <circle
         cx="169.47881"
         cy="285.87145"
         r="20.69419"
         fill="none"
         isolation="isolate"
         opacity=".69"
         id="circle44" />
    </g>
    <g
       id="g68">
      <line
         x1="73.51586"
         y1="225.32297"
         x2="73.51586"
         y2="221.5997"
         fill="none"
         stroke="#1f1f1f"
         stroke-linecap="round"
         stroke-linejoin="round"
         stroke-width=".8"
         id="line48" />
      <g
         id="g62">
        <line
           x1="58.11972"
           y1="244.29978"
           x2="73.51463"
           y2="237.77696"
           fill="none"
           stroke="#1f1f1f"
           stroke-linecap="round"
           stroke-miterlimit="10"
           stroke-width=".5"
           id="line50" />
        <line
           x1="57.42684"
           y1="233.42999"
           x2="73.57328"
           y2="237.76966"
           fill="none"
           stroke="#1f1f1f"
           stroke-linecap="round"
           stroke-miterlimit="10"
           stroke-width=".5"
           id="line52" />
        <line
           x1="63.26901"
           y1="224.68408"
           x2="73.59131"
           y2="237.83643"
           fill="none"
           stroke="#1f1f1f"
           stroke-linecap="round"
           stroke-miterlimit="10"
           stroke-width=".5"
           id="line54" />
        <line
           x1="83.58968"
           y1="224.5587"
           x2="73.496"
           y2="237.88731"
           fill="none"
           stroke="#1f1f1f"
           stroke-linecap="round"
           stroke-miterlimit="10"
           stroke-width=".5"
           id="line56" />
        <line
           x1="89.53825"
           y1="233.22819"
           x2="73.47046"
           y2="237.85056"
           fill="none"
           stroke="#1f1f1f"
           stroke-linecap="round"
           stroke-miterlimit="10"
           stroke-width=".5"
           id="line58" />
        <line
           x1="88.9544"
           y1="244.14791"
           x2="73.4845"
           y2="237.80498"
           fill="none"
           stroke="#1f1f1f"
           stroke-linecap="round"
           stroke-miterlimit="10"
           stroke-width=".5"
           id="line60" />
      </g>
      <path
         d="m64.93596,252.19736c-4.87734-2.91881-8.14264-8.25353-8.14264-14.35091,0-9.23,7.48239-16.71239,16.71239-16.71239s16.71239,7.48239,16.71239,16.71239c0,6.06564-3.2314,11.37655-8.06662,14.30514l-8.63564-14.30517-8.57988,14.35095Z"
         fill="none"
         stroke="#1f1f1f"
         stroke-linecap="round"
         stroke-linejoin="round"
         stroke-width=".8"
         id="path64" />
      <circle
         cx="73.51584"
         cy="237.84641"
         r="20.69419"
         fill="none"
         isolation="isolate"
         opacity=".69"
         id="circle66" />
    </g>
    <g
       id="g74">
      <path
         d="m34.15683,300.18781c4.83522-2.92859,8.06662-8.2395,8.06662-14.30514,0-9.23-7.48239-16.71239-16.71239-16.71239s-16.71239,7.48239-16.71239,16.71239c0,6.09737,3.2653,11.4321,8.14264,14.35091"
         fill="none"
         stroke="#1f1f1f"
         stroke-linecap="round"
         stroke-linejoin="round"
         stroke-width=".8"
         id="path70" />
      <circle
         cx="25.52119"
         cy="285.88264"
         r="20.69419"
         fill="none"
         isolation="isolate"
         opacity=".69"
         id="circle72" />
    </g>
    <g
       id="g82">
      <line
         x1="73.51583"
         y1="273.348"
         x2="73.51583"
         y2="269.62474"
         fill="none"
         stroke="#1f1f1f"
         stroke-linecap="round"
         stroke-linejoin="round"
         stroke-width=".8"
         id="line76" />
      <path
         d="m82.15145,300.17662c4.83522-2.92859,8.06662-8.2395,8.06662-14.30514,0-9.23-7.48239-16.71239-16.71239-16.71239s-16.71239,7.48239-16.71239,16.71239c0,6.09737,3.2653,11.4321,8.14264,14.35091"
         fill="none"
         stroke="#1f1f1f"
         stroke-linecap="round"
         stroke-linejoin="round"
         stroke-width=".8"
         id="path78" />
      <circle
         cx="73.51581"
         cy="285.87145"
         r="20.69419"
         fill="none"
         isolation="isolate"
         opacity=".69"
         id="circle80" />
    </g>
    <g
       id="g104">
      <line
         x1="121.48637"
         y1="225.32297"
         x2="121.48637"
         y2="221.5997"
         fill="none"
         stroke="#1f1f1f"
         stroke-linecap="round"
         stroke-linejoin="round"
         stroke-width=".8"
         id="line84" />
      <g
         id="g98">
        <line
           x1="106.09023"
           y1="244.29978"
           x2="121.48514"
           y2="237.77696"
           fill="none"
           stroke="#1f1f1f"
           stroke-linecap="round"
           stroke-miterlimit="10"
           stroke-width=".5"
           id="line86" />
        <line
           x1="105.39735"
           y1="233.42999"
           x2="121.54379"
           y2="237.76966"
           fill="none"
           stroke="#1f1f1f"
           stroke-linecap="round"
           stroke-miterlimit="10"
           stroke-width=".5"
           id="line88" />
        <line
           x1="111.23952"
           y1="224.68408"
           x2="121.56182"
           y2="237.83643"
           fill="none"
           stroke="#1f1f1f"
           stroke-linecap="round"
           stroke-miterlimit="10"
           stroke-width=".5"
           id="line90" />
        <line
           x1="131.56019"
           y1="224.5587"
           x2="121.46651"
           y2="237.88731"
           fill="none"
           stroke="#1f1f1f"
           stroke-linecap="round"
           stroke-miterlimit="10"
           stroke-width=".5"
           id="line92" />
        <line
           x1="137.50876"
           y1="233.22819"
           x2="121.44097"
           y2="237.85056"
           fill="none"
           stroke="#1f1f1f"
           stroke-linecap="round"
           stroke-miterlimit="10"
           stroke-width=".5"
           id="line94" />
        <line
           x1="136.92491"
           y1="244.14791"
           x2="121.45501"
           y2="237.80498"
           fill="none"
           stroke="#1f1f1f"
           stroke-linecap="round"
           stroke-miterlimit="10"
           stroke-width=".5"
           id="line96" />
      </g>
      <path
         d="m112.90647,252.19736c-4.87734-2.91881-8.14264-8.25353-8.14264-14.35091,0-9.23,7.48239-16.71239,16.71239-16.71239s16.71239,7.48239,16.71239,16.71239c0,6.06564-3.2314,11.37655-8.06662,14.30514l-8.6255-14.30517-8.59002,14.35095Z"
         fill="none"
         stroke="#1f1f1f"
         stroke-linecap="round"
         stroke-linejoin="round"
         stroke-width=".8"
         id="path100" />
      <circle
         cx="121.48635"
         cy="237.84641"
         r="20.69419"
         fill="none"
         isolation="isolate"
         opacity=".69"
         id="circle102" />
    </g>
  </g>
  <g
     id="uuid-59cf0549-b020-411a-85f6-5c31845f97c7"
     data-name="FND TXT">
    <g
       id="g117">
      <path
         d="m106.87891,213.19287v-.0166c0-1.63574,1.25195-3.02148,3.01367-3.02148.87598,0,1.45996.20898,1.99414.59277.10059.0752.20898.2168.20898.41748,0,.27539-.22559.50879-.50879.50879-.13379,0-.23438-.05811-.31738-.1167-.37598-.27539-.78418-.45898-1.41895-.45898-1.07715,0-1.89453.94287-1.89453,2.06152v.0166c0,1.20215.79297,2.08691,1.98633,2.08691.55078,0,1.05176-.17529,1.41016-.44238v-1.09375h-1.15137c-.25,0-.45898-.19189-.45898-.44238,0-.25.20898-.45068.45898-.45068h1.62793c.29199,0,.5166.22559.5166.51758v1.56104c0,.29199-.11621.50049-.3584.65088-.50098.33398-1.20215.63428-2.07812.63428-1.82812,0-3.03027-1.30225-3.03027-3.00488Z"
         fill="#1f1f1f"
         id="path107" />
      <path
         d="m113.4502,215.42969l2.1709-4.84082c.11621-.25879.3252-.41748.61719-.41748h.0498c.29199,0,.49316.15869.60938.41748l2.16992,4.84082c.04199.0752.05859.15039.05859.21729,0,.27539-.20801.49219-.48438.49219-.24121,0-.4082-.1416-.5-.35889l-.47559-1.09326h-2.83789l-.49316,1.12695c-.08301.2085-.25879.3252-.47559.3252-.2666,0-.47559-.2085-.47559-.47559,0-.0752.02539-.15039.06641-.23389Zm3.82324-1.65234l-1.02637-2.3623-1.02734,2.3623h2.05371Z"
         fill="#1f1f1f"
         id="path109" />
      <path
         d="m120.3584,210.72266c0-.28418.22559-.50928.51758-.50928.28418,0,.50879.2251.50879.50928v4.90771c0,.28369-.22461.50879-.50879.50879-.29199,0-.51758-.2251-.51758-.50879v-4.90771Z"
         fill="#1f1f1f"
         id="path111" />
      <path
         d="m123.13574,210.73926c0-.28369.22559-.51758.51758-.51758h.1084c.25098,0,.39258.125.53418.30029l2.92188,3.78125v-3.58887c0-.27588.22461-.50098.5-.50098.28418,0,.50977.2251.50977.50098v4.90771c0,.28369-.2168.50879-.50098.50879h-.04199c-.24219,0-.3916-.125-.53418-.30859l-3.00488-3.88965v3.70605c0,.27539-.22461.50049-.5.50049-.28418,0-.50977-.2251-.50977-.50049v-4.89941Z"
         fill="#1f1f1f"
         id="path113" />
      <path
         d="m132.1123,215.10449l1.79492-1.52734c.80078-.67627,1.09277-1.05176,1.09277-1.57764,0-.57568-.40918-.90967-.94336-.90967-.4668,0-.79297.2168-1.15137.65088-.0752.0835-.19238.15869-.35938.15869-.25781,0-.4668-.20898-.4668-.46729,0-.10889.04199-.22559.11621-.31738.47656-.59277,1.01855-.94336,1.93652-.94336,1.14355,0,1.92871.70117,1.92871,1.74463v.0166c0,.91846-.48438,1.41895-1.51953,2.26221l-1.20215,1.00146h2.37109c.25,0,.4502.2002.4502.45068s-.2002.45068-.4502.45068h-3.31348c-.31738,0-.55078-.18359-.55078-.48389,0-.20068.0918-.36768.2666-.50928Z"
         fill="#1f1f1f"
         id="path115" />
    </g>
    <g
       id="g129">
      <path
         d="m59.24902,260.82617v-.0166c0-1.64404,1.26855-3.02148,3.06348-3.02148s3.04688,1.36084,3.04688,3.00488v.0166c0,1.64453-1.26953,3.02148-3.06348,3.02148-1.79492,0-3.04688-1.36035-3.04688-3.00488Zm5.0332,0v-.0166c0-1.13525-.82617-2.07812-1.98633-2.07812s-1.96973.92627-1.96973,2.06152v.0166c0,1.13525.82617,2.06982,1.98633,2.06982s1.96973-.91797,1.96973-2.05322Z"
         fill="#1f1f1f"
         id="path119" />
      <path
         d="m66.78906,258.40576c0-.29199.22559-.51758.51758-.51758h3.40527c.25879,0,.46777.20898.46777.46777s-.20898.46729-.46777.46729h-2.89648v1.59424h2.52148c.25879,0,.4668.2085.4668.46729s-.20801.46729-.4668.46729h-2.52148v1.91162c0,.28369-.22461.50879-.50879.50879-.29199,0-.51758-.2251-.51758-.50879v-4.85791Z"
         fill="#1f1f1f"
         id="path121" />
      <path
         d="m72.17383,263.08008c-.11621-.0835-.2002-.22559-.2002-.39258,0-.26709.2168-.47559.48438-.47559.1416,0,.2334.0415.30078.0918.4834.38379,1.00098.60107,1.63574.60107.63379,0,1.03516-.30078,1.03516-.73486v-.0166c0-.41699-.23438-.64258-1.31934-.89307-1.24316-.30029-1.94434-.66748-1.94434-1.74414v-.01709c0-1.00146.83496-1.69434,1.99512-1.69434.73438,0,1.32617.19238,1.85254.54297.11719.06641.22559.2085.22559.40869,0,.26709-.21777.47559-.48438.47559-.10059,0-.18359-.0249-.26758-.07471-.4502-.29248-.88379-.44238-1.34375-.44238-.60059,0-.95117.30859-.95117.69238v.01709c0,.45068.26758.65088,1.39355.91797,1.23535.30029,1.87012.74268,1.87012,1.71094v.0166c0,1.09375-.85938,1.74463-2.08691,1.74463-.79297,0-1.54395-.25049-2.19531-.73438Z"
         fill="#1f1f1f"
         id="path123" />
      <path
         d="m79.23926,258.83984h-1.41895c-.2666,0-.47559-.2168-.47559-.47559s.20898-.47607.47559-.47607h3.88184c.25879,0,.4668.21729.4668.47607s-.20801.47559-.4668.47559h-1.42773v4.42383c0,.28369-.2334.50879-.51758.50879-.2832,0-.51758-.2251-.51758-.50879v-4.42383Z"
         fill="#1f1f1f"
         id="path125" />
      <path
         d="m86.4541,258.85645l-.60059.18359c-.05859.0166-.13379.02539-.18359.02539-.24219,0-.45117-.20068-.45117-.43408,0-.21729.13379-.38428.34277-.44238l.88477-.28369c.2002-.05859.35059-.0918.50098-.0918h.0166c.29199,0,.50879.2251.50879.50879v4.94141c0,.28369-.22559.50879-.50879.50879-.27539,0-.50977-.2251-.50977-.50879v-4.40723Z"
         fill="#1f1f1f"
         id="path127" />
    </g>
    <g
       id="g141">
      <path
         d="m76.08008,27.36084c-.21289-.15039-.3623-.42529-.3623-.72607,0-.5.40039-.88818.90137-.88818.25,0,.4248.0874.5498.17529.66309.48779,1.38867.78809,2.23926.78809.78906,0,1.26367-.3125,1.26367-.82568v-.0249c0-.48828-.2998-.73828-1.76367-1.11377-1.76367-.45068-2.90234-.93848-2.90234-2.67725v-.02539c0-1.58887,1.27539-2.64014,3.06445-2.64014,1.06445,0,1.99023.27539,2.77832.77588.21289.125.4248.3877.4248.76318,0,.50049-.40039.88818-.90039.88818-.1875,0-.33789-.0498-.48828-.1377-.6377-.375-1.23828-.58789-1.83887-.58789-.73828,0-1.12598.33789-1.12598.76367v.02441c0,.57617.375.76367,1.88867,1.15137,1.77734.46289,2.77832,1.10107,2.77832,2.62793v.02441c0,1.73926-1.32617,2.71533-3.21582,2.71533-1.15039,0-2.31445-.3501-3.29102-1.05078Z"
         fill="#1f1f1f"
         id="path131" />
      <path
         d="m83.84961,23.93262v-.02539c0-2.48975,1.87695-4.5293,4.56641-4.5293,1.31445,0,2.20312.35059,2.92871.88867.2002.1499.375.4248.375.7627,0,.52588-.4248.93848-.9502.93848-.26367,0-.43848-.09961-.57617-.1875-.53809-.40039-1.10156-.62549-1.78906-.62549-1.47656,0-2.54004,1.22607-2.54004,2.72754v.0249c0,1.50146,1.03809,2.75293,2.54004,2.75293.8125,0,1.35156-.25049,1.90234-.68848.14941-.125.34961-.2124.57422-.2124.48828,0,.90137.40039.90137.88818,0,.30029-.14941.53809-.3252.68848-.78809.68799-1.71387,1.10059-3.11523,1.10059-2.57812,0-4.49219-1.98926-4.49219-4.50391Z"
         fill="#1f1f1f"
         id="path133" />
      <path
         d="m92.92969,23.93262v-.02539c0-2.48975,1.96387-4.5293,4.66602-4.5293,2.70312,0,4.64258,2.01465,4.64258,4.50439v.0249c0,2.49023-1.96484,4.5293-4.66699,4.5293s-4.6416-2.01416-4.6416-4.50391Zm7.29395,0v-.02539c0-1.50146-1.10059-2.75244-2.65234-2.75244s-2.62793,1.22607-2.62793,2.72754v.0249c0,1.50146,1.10156,2.75293,2.65234,2.75293,1.55273,0,2.62793-1.22656,2.62793-2.72754Z"
         fill="#1f1f1f"
         id="path135" />
      <path
         d="m104.04883,20.49121c0-.5376.42578-.96289.96289-.96289h2.61523c2.08984,0,3.35352,1.23828,3.35352,3.02783v.0249c0,2.02686-1.57617,3.07812-3.54102,3.07812h-1.46387v1.73926c0,.53809-.42578.96338-.96387.96338-.53711,0-.96289-.42529-.96289-.96338v-6.90723Zm3.45312,3.45361c.96289,0,1.52637-.57568,1.52637-1.32617v-.0249c0-.86328-.60059-1.32617-1.56348-1.32617h-1.48926v2.67725h1.52637Z"
         fill="#1f1f1f"
         id="path137" />
      <path
         d="m112.45898,27.32324v-6.83203c0-.5376.42578-.96289.96289-.96289h4.85547c.47461,0,.86328.3877.86328.86328s-.38867.85059-.86328.85059h-3.9043v1.77686h3.34082c.47559,0,.86328.3877.86328.86328s-.3877.85107-.86328.85107h-3.34082v1.83887h3.9668c.47461,0,.86328.38818.86328.86328,0,.47559-.38867.85107-.86328.85107h-4.91797c-.53711,0-.96289-.42529-.96289-.96338Z"
         fill="#1f1f1f"
         id="path139" />
    </g>
    <g
       id="g149">
      <path
         d="m21.19141,219.1416l-.48828.14893c-.04688.01318-.10742.02002-.14844.02002-.19629,0-.36523-.16211-.36523-.35205,0-.17627.10742-.31201.27734-.35889l.71777-.23047c.16309-.04785.28418-.07471.40723-.07471h.0127c.2373,0,.41309.18311.41309.41357v4.01074c0,.22998-.18262.41309-.41309.41309-.22363,0-.41309-.18311-.41309-.41309v-3.57715Z"
         fill="#1f1f1f"
         id="path143" />
      <path
         d="m23.23828,222.50195l1.01562-1.21973-.94141-1.11816c-.08789-.1084-.13574-.20312-.13574-.31152,0-.23047.17676-.37891.37988-.37891.16211,0,.27734.07422.37891.20312l.80664,1.05664.81934-1.0498c.09473-.12207.20996-.20996.35254-.20996.2168,0,.38672.15527.38672.35889,0,.11475-.04785.19629-.11523.27783l-.96875,1.1582,1.00195,1.18555c.08789.1084.13574.20312.13574.31152,0,.23047-.17676.37988-.37988.37988-.16211,0-.27734-.07471-.37891-.20996l-.86719-1.11816-.86719,1.11816c-.09473.11523-.20996.20996-.35938.20996-.20996,0-.37891-.15625-.37891-.35938,0-.11523.04102-.20312.11523-.28418Z"
         fill="#1f1f1f"
         id="path145" />
      <path
         d="m27.40039,222.29199l1.45703-1.24023c.65039-.54883.8877-.85352.8877-1.28027,0-.46777-.33203-.73828-.76562-.73828-.37988,0-.64355.17578-.93457.52832-.06152.06738-.15625.12891-.29199.12891-.20996,0-.37891-.16992-.37891-.37988,0-.08789.03418-.18262.09473-.25732.38672-.48096.82617-.76562,1.57227-.76562.92773,0,1.56445.56934,1.56445,1.41602v.01367c0,.74512-.39258,1.15186-1.23242,1.83594l-.97656.81299h1.92383c.2041,0,.36621.1626.36621.36572,0,.20361-.16211.36572-.36621.36572h-2.68945c-.25684,0-.44727-.14893-.44727-.39258,0-.1626.0752-.29834.2168-.41309Z"
         fill="#1f1f1f"
         id="path147" />
    </g>
    <g
       id="g159">
      <path
         d="m162.60645,219.12793h-1.15137c-.2168,0-.38672-.17627-.38672-.38623s.16992-.38623.38672-.38623h3.15039c.20996,0,.37891.17627.37891.38623s-.16895.38623-.37891.38623h-1.1582v3.59082c0,.22998-.19043.41309-.4209.41309-.22949,0-.41992-.18311-.41992-.41309v-3.59082Z"
         fill="#1f1f1f"
         id="path151" />
      <path
         d="m165.98535,218.77539c0-.2373.18262-.41992.41992-.41992h1.69434c.5957,0,1.0625.17627,1.36816.47412.25098.25732.39258.60986.39258,1.02295v.01367c0,.75879-.44043,1.21973-1.07715,1.41602l.9082,1.14502c.08105.10156.13477.18994.13477.31836,0,.23047-.19629.38623-.39941.38623-.18945,0-.31152-.08789-.40625-.2168l-1.15137-1.47021h-1.05078v1.27393c0,.22998-.18262.41309-.41309.41309-.2373,0-.41992-.18311-.41992-.41309v-3.94336Zm2.05273,1.93066c.59668,0,.97559-.31152.97559-.79248v-.01318c0-.5083-.36621-.78613-.98242-.78613h-1.21289v1.5918h1.21973Z"
         fill="#1f1f1f"
         id="path153" />
      <path
         d="m171.14355,218.73486c0-.23047.18262-.41357.41992-.41357.23047,0,.41309.18311.41309.41357v3.98389c0,.22998-.18262.41309-.41309.41309-.2373,0-.41992-.18311-.41992-.41309v-3.98389Z"
         fill="#1f1f1f"
         id="path155" />
      <path
         d="m173.2041,220.74023v-.01367c0-1.32764,1.0166-2.45215,2.44629-2.45215.71094,0,1.18555.16895,1.61914.48047.08105.06152.16895.17676.16895.33887,0,.22363-.18262.41357-.41309.41357-.1084,0-.18945-.04736-.25781-.09521-.30469-.22363-.63672-.37207-1.15137-.37207-.87402,0-1.53809.76514-1.53809,1.67285v.01367c0,.97559.64355,1.69385,1.6123,1.69385.44727,0,.85352-.14209,1.14551-.35889v-.8877h-.93555c-.20312,0-.37305-.15576-.37305-.35938,0-.20312.16992-.36523.37305-.36523h1.32129c.2373,0,.41992.18262.41992.41992v1.2666c0,.2373-.09473.40674-.29102.52832-.40723.27148-.97559.51514-1.68652.51514-1.48438,0-2.45996-1.05713-2.45996-2.43896Z"
         fill="#1f1f1f"
         id="path157" />
    </g>
    <g
       id="g171">
      <path
         d="m106.32324,260.82617v-.0166c0-1.64404,1.26855-3.02148,3.06348-3.02148s3.04688,1.36084,3.04688,3.00488v.0166c0,1.64453-1.26953,3.02148-3.06348,3.02148-1.79492,0-3.04688-1.36035-3.04688-3.00488Zm5.0332,0v-.0166c0-1.13525-.82617-2.07812-1.98633-2.07812s-1.96973.92627-1.96973,2.06152v.0166c0,1.13525.82617,2.06982,1.98633,2.06982s1.96973-.91797,1.96973-2.05322Z"
         fill="#1f1f1f"
         id="path161" />
      <path
         d="m113.86328,258.40576c0-.29199.22559-.51758.51758-.51758h3.40527c.25879,0,.46777.20898.46777.46777s-.20898.46729-.46777.46729h-2.89648v1.59424h2.52148c.25879,0,.4668.2085.4668.46729s-.20801.46729-.4668.46729h-2.52148v1.91162c0,.28369-.22461.50879-.50879.50879-.29199,0-.51758-.2251-.51758-.50879v-4.85791Z"
         fill="#1f1f1f"
         id="path163" />
      <path
         d="m119.24805,263.08008c-.11621-.0835-.2002-.22559-.2002-.39258,0-.26709.2168-.47559.48438-.47559.1416,0,.2334.0415.30078.0918.4834.38379,1.00098.60107,1.63574.60107.63379,0,1.03516-.30078,1.03516-.73486v-.0166c0-.41699-.23438-.64258-1.31934-.89307-1.24316-.30029-1.94434-.66748-1.94434-1.74414v-.01709c0-1.00146.83496-1.69434,1.99512-1.69434.73438,0,1.32617.19238,1.85254.54297.11719.06641.22559.2085.22559.40869,0,.26709-.21777.47559-.48438.47559-.10059,0-.18359-.0249-.26758-.07471-.4502-.29248-.88379-.44238-1.34375-.44238-.60059,0-.95117.30859-.95117.69238v.01709c0,.45068.26758.65088,1.39355.91797,1.23535.30029,1.87012.74268,1.87012,1.71094v.0166c0,1.09375-.85938,1.74463-2.08691,1.74463-.79297,0-1.54395-.25049-2.19531-.73438Z"
         fill="#1f1f1f"
         id="path165" />
      <path
         d="m126.31348,258.83984h-1.41895c-.2666,0-.47559-.2168-.47559-.47559s.20898-.47607.47559-.47607h3.88184c.25879,0,.4668.21729.4668.47607s-.20801.47559-.4668.47559h-1.42773v4.42383c0,.28369-.2334.50879-.51758.50879-.2832,0-.51758-.2251-.51758-.50879v-4.42383Z"
         fill="#1f1f1f"
         id="path167" />
      <path
         d="m132.66895,262.73779l1.79492-1.52734c.80078-.67627,1.09277-1.05176,1.09277-1.57764,0-.57617-.40918-.90967-.94336-.90967-.4668,0-.79297.2168-1.15137.65088-.0752.0835-.19238.15869-.35938.15869-.25781,0-.4668-.2085-.4668-.46729,0-.10889.04199-.22559.11621-.31738.47656-.59277,1.01855-.94336,1.93652-.94336,1.14355,0,1.92871.70117,1.92871,1.74463v.0166c0,.91846-.48438,1.41895-1.51953,2.26221l-1.20215,1.00146h2.37109c.25,0,.4502.2002.4502.45068s-.2002.45068-.4502.45068h-3.31348c-.31738,0-.55078-.18359-.55078-.48389,0-.20068.0918-.36768.2666-.50928Z"
         fill="#1f1f1f"
         id="path169" />
    </g>
    <g
       id="g183">
      <path
         d="m156.93164,258.83936h-1.41895c-.2666,0-.47559-.2168-.47559-.47559s.20898-.47607.47559-.47607h3.88184c.25879,0,.4668.21729.4668.47607s-.20801.47559-.4668.47559h-1.42773v4.42383c0,.28369-.2334.50879-.51758.50879-.2832,0-.51758-.2251-.51758-.50879v-4.42383Z"
         fill="#1f1f1f"
         id="path173" />
      <path
         d="m161.02441,258.35547c0-.28418.22559-.50928.51758-.50928.28418,0,.50879.2251.50879.50928v1.96143h2.78809v-1.96143c0-.28418.22559-.50928.50977-.50928.29199,0,.5166.2251.5166.50928v4.90771c0,.28369-.22461.50879-.5166.50879-.28418,0-.50977-.2251-.50977-.50879v-1.99512h-2.78809v1.99512c0,.28369-.22461.50879-.50879.50879-.29199,0-.51758-.2251-.51758-.50879v-4.90771Z"
         fill="#1f1f1f"
         id="path175" />
      <path
         d="m167.59863,258.40527c0-.29199.22559-.51758.51758-.51758h2.08691c.73438,0,1.31055.21729,1.68555.58447.30957.31689.48438.75098.48438,1.26025v.0166c0,.93506-.54297,1.50244-1.32715,1.74463l1.11816,1.41064c.10059.125.16699.2334.16699.39209,0,.28369-.24219.47559-.49219.47559-.2334,0-.38379-.1084-.50098-.26709l-1.41895-1.81104h-1.29395v1.56934c0,.28369-.22461.50879-.50879.50879-.29199,0-.51758-.2251-.51758-.50879v-4.85791Zm2.5293,2.37891c.73438,0,1.20215-.38379,1.20215-.97656v-.0166c0-.62598-.45117-.96826-1.21094-.96826h-1.49414v1.96143h1.50293Z"
         fill="#1f1f1f"
         id="path177" />
      <path
         d="m173.85352,263.21289v-4.80762c0-.29199.22559-.51758.51758-.51758h3.39746c.25,0,.45898.20898.45898.45947,0,.2583-.20898.45898-.45898.45898h-2.88867v1.51904h2.5127c.25098,0,.45898.2085.45898.46729,0,.25049-.20801.45068-.45898.45068h-2.5127v1.56934h2.92969c.25098,0,.45996.2085.45996.45898,0,.25879-.20898.45898-.45996.45898h-3.43848c-.29199,0-.51758-.22559-.51758-.51758Z"
         fill="#1f1f1f"
         id="path179" />
      <path
         d="m179.46973,263.07959c-.11621-.0835-.2002-.22559-.2002-.39258,0-.26709.2168-.47559.48438-.47559.1416,0,.2334.0415.30078.0918.4834.38379,1.00098.60107,1.63574.60107.63379,0,1.03516-.30078,1.03516-.73486v-.0166c0-.41699-.23438-.64258-1.31934-.89307-1.24316-.30029-1.94434-.66748-1.94434-1.74414v-.01709c0-1.00146.83496-1.69434,1.99512-1.69434.73438,0,1.32617.19238,1.85254.54297.11719.06641.22559.2085.22559.40869,0,.26709-.21777.47559-.48438.47559-.10059,0-.18359-.0249-.26758-.07471-.4502-.29248-.88379-.44238-1.34375-.44238-.60059,0-.95117.30859-.95117.69238v.01709c0,.45068.26758.65088,1.39355.91797,1.23535.30029,1.87012.74268,1.87012,1.71094v.0166c0,1.09375-.85938,1.74463-2.08691,1.74463-.79297,0-1.54395-.25049-2.19531-.73438Z"
         fill="#1f1f1f"
         id="path181" />
    </g>
    <g
       id="g193">
      <path
         d="m17.00195,258.83936h-1.41895c-.2666,0-.47559-.2168-.47559-.47559s.20898-.47607.47559-.47607h3.88184c.25879,0,.4668.21729.4668.47607s-.20801.47559-.4668.47559h-1.42773v4.42383c0,.28369-.2334.50879-.51758.50879-.2832,0-.51758-.2251-.51758-.50879v-4.42383Z"
         fill="#1f1f1f"
         id="path185" />
      <path
         d="m21.125,258.35547c0-.28418.22559-.50928.51758-.50928.28418,0,.50879.2251.50879.50928v4.90771c0,.28369-.22461.50879-.50879.50879-.29199,0-.51758-.2251-.51758-.50879v-4.90771Z"
         fill="#1f1f1f"
         id="path187" />
      <path
         d="m23.90332,258.37207c0-.28369.22559-.51758.51758-.51758h.1084c.22559,0,.37598.1167.47559.27539l1.76953,2.771,1.77832-2.7793c.1084-.17529.25879-.26709.4668-.26709h.10938c.29199,0,.5166.23389.5166.51758v4.89111c0,.28369-.22461.50879-.5166.50879-.27539,0-.50977-.2334-.50977-.50879v-3.50586l-1.42676,2.14502c-.1084.16699-.24219.26709-.43457.26709-.18359,0-.31738-.1001-.42578-.26709l-1.41895-2.12793v3.49707c0,.28369-.22461.50049-.50879.50049s-.50098-.2168-.50098-.50049v-4.89941Z"
         fill="#1f1f1f"
         id="path189" />
      <path
         d="m31.38379,263.21289v-4.80762c0-.29199.22559-.51758.51758-.51758h3.39746c.25,0,.45898.20898.45898.45947,0,.2583-.20898.45898-.45898.45898h-2.88867v1.51904h2.5127c.25,0,.45898.2085.45898.46729,0,.25049-.20898.45068-.45898.45068h-2.5127v1.56934h2.92969c.25098,0,.45996.2085.45996.45898,0,.25879-.20898.45898-.45996.45898h-3.43848c-.29199,0-.51758-.22559-.51758-.51758Z"
         fill="#1f1f1f"
         id="path191" />
    </g>
    <g
       id="g201">
      <path
         d="m19.96191,314.54736c0-.23047.18262-.41357.41992-.41357.23047,0,.41309.18311.41309.41357v3.98389c0,.22998-.18262.41309-.41309.41309-.2373,0-.41992-.18311-.41992-.41309v-3.98389Z"
         fill="#1f1f1f"
         id="path195" />
      <path
         d="m22.27148,314.56104c0-.23047.18262-.42041.41992-.42041h.08789c.20312,0,.31836.10156.43359.24414l2.37109,3.06934v-2.91357c0-.22363.18359-.40674.40625-.40674.23047,0,.41406.18311.41406.40674v3.98389c0,.23047-.17578.41309-.40625.41309h-.03418c-.19629,0-.31836-.10156-.43359-.25098l-2.43945-3.15674v3.0083c0,.22314-.18262.40625-.40625.40625-.23047,0-.41309-.18311-.41309-.40625v-3.97705Z"
         fill="#1f1f1f"
         id="path197" />
      <path
         d="m30.25879,314.9541l-.4873.14893c-.04785.01318-.10938.02002-.14941.02002-.19629,0-.36621-.16211-.36621-.35205,0-.17627.1084-.31201.27734-.35889l.71875-.23047c.16211-.04785.28418-.07471.40625-.07471h.01367c.2373,0,.41309.18311.41309.41357v4.01074c0,.22998-.18262.41309-.41309.41309-.22363,0-.41309-.18311-.41309-.41309v-3.57715Z"
         fill="#1f1f1f"
         id="path199" />
    </g>
    <g
       id="g211">
      <path
         d="m51.58008,316.61035v-.01367c0-1.34814,1.06445-2.45215,2.52734-2.45215,1.46387,0,2.51367,1.09082,2.51367,2.43848v.01367c0,1.34863-1.06348,2.45264-2.52734,2.45264-1.46289,0-2.51367-1.09082-2.51367-2.43896Zm3.9502,0v-.01367c0-.81299-.59668-1.49023-1.43652-1.49023s-1.42285.66406-1.42285,1.47656v.01367c0,.81299.59668,1.49072,1.43652,1.49072s1.42285-.66406,1.42285-1.47705Z"
         fill="#f0f0f0"
         id="path203" />
      <path
         d="m57.69922,316.93555v-2.229c0-.2915.23047-.52148.52148-.52148.29199,0,.52246.22998.52246.52148v2.20166c0,.77246.38574,1.17236,1.02246,1.17236s1.02344-.38623,1.02344-1.13818v-2.23584c0-.2915.23047-.52148.52148-.52148s.52148.22998.52148.52148v2.19482c0,1.43652-.80664,2.14111-2.08008,2.14111s-2.05273-.71143-2.05273-2.10693Z"
         fill="#f0f0f0"
         id="path205" />
      <path
         d="m64.18457,315.1875h-1.00293c-.26465,0-.48145-.2168-.48145-.48096s.2168-.48096.48145-.48096h3.04883c.26367,0,.48047.2168.48047.48096s-.2168.48096-.48047.48096h-1.00293v3.2998c0,.29102-.23047.52148-.52148.52148s-.52148-.23047-.52148-.52148v-3.2998Z"
         fill="#f0f0f0"
         id="path207" />
      <path
         d="m70.14551,315.21484l-.36621.09473c-.05469.01367-.12891.02734-.18262.02734-.24414,0-.4541-.20361-.4541-.44727,0-.20996.13574-.38623.3457-.44727l.66992-.19629c.19727-.05469.3457-.08838.48828-.08838h.01367c.28418,0,.51465.23047.51465.51514v3.8208c0,.28467-.23047.51514-.51465.51514-.28516,0-.51465-.23047-.51465-.51514v-3.27881Z"
         fill="#f0f0f0"
         id="path209" />
    </g>
    <g
       id="g219">
      <path
         d="m91.21191,314.54736c0-.23047.18262-.41357.41992-.41357.23047,0,.41309.18311.41309.41357v3.98389c0,.22998-.18262.41309-.41309.41309-.2373,0-.41992-.18311-.41992-.41309v-3.98389Z"
         fill="#1f1f1f"
         id="path213" />
      <path
         d="m93.52148,314.56104c0-.23047.18262-.42041.41992-.42041h.08789c.20312,0,.31836.10156.43359.24414l2.37109,3.06934v-2.91357c0-.22363.18359-.40674.40625-.40674.23047,0,.41406.18311.41406.40674v3.98389c0,.23047-.17676.41309-.40723.41309h-.03418c-.19531,0-.31836-.10156-.43359-.25098l-2.43848-3.15674v3.0083c0,.22314-.18262.40625-.40625.40625-.23047,0-.41309-.18311-.41309-.40625v-3.97705Z"
         fill="#1f1f1f"
         id="path215" />
      <path
         d="m100.81055,318.10449l1.45703-1.24023c.65039-.54883.88672-.85352.88672-1.28027,0-.46777-.33203-.73828-.76562-.73828-.37891,0-.64258.17578-.93457.52832-.06055.06738-.15527.12891-.29102.12891-.20996,0-.37988-.16992-.37988-.37988,0-.08789.03418-.18262.0957-.25732.38574-.48096.82617-.76562,1.57129-.76562.92871,0,1.56543.56934,1.56543,1.41602v.01367c0,.74512-.39355,1.15186-1.2334,1.83594l-.97559.81299h1.92383c.20312,0,.36621.1626.36621.36572,0,.20361-.16309.36572-.36621.36572h-2.68945c-.25781,0-.44727-.14893-.44727-.39258,0-.1626.07422-.29834.2168-.41309Z"
         fill="#1f1f1f"
         id="path217" />
    </g>
    <g
       id="g229">
      <path
         d="m162.6084,314.93896h-1.15137c-.2168,0-.38672-.17627-.38672-.38623s.16992-.38574.38672-.38574h3.15039c.20996,0,.37891.17578.37891.38574s-.16895.38623-.37891.38623h-1.1582v3.59082c0,.23047-.19043.41357-.4209.41357-.22949,0-.41992-.18311-.41992-.41357v-3.59082Z"
         fill="#1f1f1f"
         id="path221" />
      <path
         d="m165.9873,314.58691c0-.2373.18262-.41992.41992-.41992h1.69434c.5957,0,1.0625.17578,1.36816.47412.25098.25732.39258.60986.39258,1.02295v.01367c0,.75879-.44043,1.21924-1.07715,1.41602l.9082,1.14453c.08105.10156.13477.18994.13477.31836,0,.23047-.19629.38672-.39941.38672-.18945,0-.31152-.08838-.40625-.2168l-1.15137-1.4707h-1.05078v1.27393c0,.23047-.18262.41357-.41309.41357-.2373,0-.41992-.18311-.41992-.41357v-3.94287Zm2.05273,1.93066c.59668,0,.97559-.31152.97559-.79248v-.01367c0-.5083-.36621-.78564-.98242-.78564h-1.21289v1.5918h1.21973Z"
         fill="#1f1f1f"
         id="path223" />
      <path
         d="m171.14551,314.5459c0-.22998.18262-.41309.41992-.41309.23047,0,.41309.18311.41309.41309v3.98389c0,.23047-.18262.41357-.41309.41357-.2373,0-.41992-.18311-.41992-.41357v-3.98389Z"
         fill="#1f1f1f"
         id="path225" />
      <path
         d="m173.20605,316.55176v-.01367c0-1.32812,1.0166-2.45264,2.44629-2.45264.71094,0,1.18555.16943,1.61914.48096.08105.06104.16895.17627.16895.33887,0,.22363-.18262.41309-.41309.41309-.1084,0-.18945-.04736-.25781-.09473-.30469-.22363-.63672-.37256-1.15137-.37256-.87402,0-1.53809.76562-1.53809,1.67334v.01367c0,.97559.64355,1.69336,1.6123,1.69336.44727,0,.85352-.14209,1.14551-.35889v-.88721h-.93555c-.20312,0-.37305-.15625-.37305-.35938s.16992-.36572.37305-.36572h1.32129c.2373,0,.41992.18311.41992.41992v1.26709c0,.2373-.09473.40625-.29102.52832-.40723.271-.97559.51465-1.68652.51465-1.48438,0-2.45996-1.05664-2.45996-2.43848Z"
         fill="#1f1f1f"
         id="path227" />
    </g>
    <g
       id="g239">
      <path
         d="m122.88477,316.61035v-.01367c0-1.34814,1.06445-2.45215,2.52734-2.45215,1.46387,0,2.51367,1.09082,2.51367,2.43848v.01367c0,1.34863-1.06348,2.45264-2.52734,2.45264-1.46289,0-2.51367-1.09082-2.51367-2.43896Zm3.95117,0v-.01367c0-.81299-.59766-1.49023-1.4375-1.49023s-1.42188.66406-1.42188,1.47656v.01367c0,.81299.5957,1.49072,1.43555,1.49072s1.42383-.66406,1.42383-1.47705Z"
         fill="#f0f0f0"
         id="path231" />
      <path
         d="m129.00391,316.93555v-2.229c0-.2915.23047-.52148.52148-.52148.29199,0,.52246.22998.52246.52148v2.20166c0,.77246.38574,1.17236,1.02246,1.17236s1.02344-.38623,1.02344-1.13818v-2.23584c0-.2915.23047-.52148.52148-.52148s.52148.22998.52148.52148v2.19482c0,1.43652-.80664,2.14111-2.08008,2.14111s-2.05273-.71143-2.05273-2.10693Z"
         fill="#f0f0f0"
         id="path233" />
      <path
         d="m135.48926,315.1875h-1.00293c-.26367,0-.48047-.2168-.48047-.48096s.2168-.48096.48047-.48096h3.04883c.26367,0,.48047.2168.48047.48096s-.2168.48096-.48047.48096h-1.00195v3.2998c0,.29102-.23047.52148-.52148.52148-.29199,0-.52246-.23047-.52246-.52148v-3.2998Z"
         fill="#f0f0f0"
         id="path235" />
      <path
         d="m140.80664,317.95166l1.34766-1.104c.58984-.48145.82031-.74512.82031-1.13867,0-.39941-.26367-.61621-.63672-.61621-.29883,0-.50781.12891-.77246.41309-.06738.07471-.19043.14941-.35254.14941-.26367,0-.47461-.20996-.47461-.47461,0-.11523.04785-.23682.12305-.3252.37891-.44043.82617-.69775,1.54395-.69775.98242,0,1.63281.57568,1.63281,1.46338v.01367c0,.79297-.40723,1.18555-1.24707,1.83594l-.77148.59619h1.65234c.25098,0,.4541.20361.4541.4541s-.20312.44678-.4541.44678h-2.57422c-.3252,0-.5625-.18262-.5625-.49414,0-.20312.0957-.37988.27148-.52197Z"
         fill="#f0f0f0"
         id="path237" />
    </g>
    <g
       id="g251">
      <path
         d="m59.80469,213.19287v-.0166c0-1.63574,1.25195-3.02148,3.01367-3.02148.87598,0,1.45996.20898,1.99414.59277.10059.0752.20898.2168.20898.41748,0,.27539-.22559.50879-.50879.50879-.13379,0-.23438-.05811-.31738-.1167-.37598-.27539-.78418-.45898-1.41895-.45898-1.07715,0-1.89453.94287-1.89453,2.06152v.0166c0,1.20215.79297,2.08691,1.98633,2.08691.55078,0,1.05176-.17529,1.41016-.44238v-1.09375h-1.15137c-.25,0-.45898-.19189-.45898-.44238,0-.25.20898-.45068.45898-.45068h1.62793c.29199,0,.5166.22559.5166.51758v1.56104c0,.29199-.11621.50049-.3584.65088-.50098.33398-1.20215.63428-2.07812.63428-1.82812,0-3.03027-1.30225-3.03027-3.00488Z"
         fill="#1f1f1f"
         id="path241" />
      <path
         d="m66.37598,215.42969l2.1709-4.84082c.11621-.25879.3252-.41748.61719-.41748h.0498c.29199,0,.49316.15869.60938.41748l2.16992,4.84082c.04199.0752.05859.15039.05859.21729,0,.27539-.20801.49219-.48438.49219-.24121,0-.4082-.1416-.5-.35889l-.47559-1.09326h-2.83789l-.49316,1.12695c-.08301.2085-.25879.3252-.47559.3252-.2666,0-.47559-.2085-.47559-.47559,0-.0752.02539-.15039.06641-.23389Zm3.82324-1.65234l-1.02637-2.3623-1.02734,2.3623h2.05371Z"
         fill="#1f1f1f"
         id="path243" />
      <path
         d="m73.28418,210.72266c0-.28418.22559-.50928.51758-.50928.28418,0,.50879.2251.50879.50928v4.90771c0,.28369-.22461.50879-.50879.50879-.29199,0-.51758-.2251-.51758-.50879v-4.90771Z"
         fill="#1f1f1f"
         id="path245" />
      <path
         d="m76.06152,210.73926c0-.28369.22559-.51758.51758-.51758h.1084c.25098,0,.39258.125.53418.30029l2.92188,3.78125v-3.58887c0-.27588.22461-.50098.5-.50098.28418,0,.50977.2251.50977.50098v4.90771c0,.28369-.2168.50879-.50098.50879h-.04199c-.24219,0-.3916-.125-.53418-.30859l-3.00488-3.88965v3.70605c0,.27539-.22461.50049-.5.50049-.28418,0-.50977-.2251-.50977-.50049v-4.89941Z"
         fill="#1f1f1f"
         id="path247" />
      <path
         d="m85.89746,211.22314l-.60059.18359c-.05859.01709-.13379.02539-.18359.02539-.24219,0-.45117-.20068-.45117-.43408,0-.21729.13379-.38428.34277-.44238l.88477-.28369c.2002-.05859.35059-.0918.50098-.0918h.0166c.29199,0,.50879.2251.50879.50879v4.94141c0,.28369-.22559.50879-.50879.50879-.27539,0-.50977-.2251-.50977-.50879v-4.40723Z"
         fill="#1f1f1f"
         id="path249" />
    </g>
  </g>
  <g
     id="uuid-01687cb8-7441-45ec-98e1-245f9b20292f"
     data-name="components"
     style="display:none"
     inkscape:groupmode="layer">
    <circle
       id="uuid-e9f982fb-2414-43cb-9c46-31dd417c22f3"
       data-name="1x2#LEDButton"
       cx="25.521191"
       cy="238"
       r="5"
       fill="#ff0000" />
    <circle
       id="uuid-0e696d93-9562-4857-865b-1ab1ebc29583"
       data-name="Trig#LEDButton"
       cx="169.47881"
       cy="237.75993"
       r="5"
       fill="#ff0000" />
    <circle
       id="uuid-ac818d73-593e-47ac-a73a-0468a40d11b6"
       data-name="In1#PJ301MPort"
       cx="25.521191"
       cy="334"
       r="5"
       fill="#00ff00" />
    <circle
       id="uuid-31465d9b-7446-49a6-923d-bf2d4f2ff800"
       data-name="Trig#PJ301MPort"
       cx="169.47881"
       cy="334"
       r="5"
       fill="#00ff00" />
    <circle
       id="uuid-cae7cb64-b9d2-4491-a6b2-1bbe8644b71e"
       data-name="Out2#PJ301MPort"
       cx="133.50073"
       cy="334"
       r="5"
       fill="#0000ff" />
    <circle
       id="uuid-ca0ee116-dd43-4274-a871-e021c37688d9"
       data-name="In2#PJ301MPort"
       cx="97.507553"
       cy="334"
       r="5"
       fill="#00ff00" />
    <circle
       id="uuid-9f6aaa20-2e2d-4157-ac7e-322d135a42a1"
       data-name="Out1#PJ301MPort"
       cx="61.51437"
       cy="334"
       r="5"
       fill="#0000ff" />
    <circle
       id="uuid-fc739517-3f69-49b2-bc2b-9b7bc3d5fd8a"
       data-name="Ofst2#RoundBlackKnob"
       cx="121.49648"
       cy="285.87146"
       r="5"
       fill="#ff0000" />
    <circle
       id="uuid-ab39d8e8-140e-432a-bb9c-0c335ce60cca"
       data-name="Time#RoundBlackKnob"
       cx="25.521191"
       cy="285.88263"
       r="5"
       fill="#ff0000" />
    <circle
       id="uuid-02c82747-e2a9-449f-a615-e4803e54047f"
       data-name="Ofst1#RoundBlackKnob"
       cx="73.515839"
       cy="285.79443"
       r="5"
       fill="#ff0000" />
    <circle
       id="uuid-cac4d032-60a6-4a44-a4f3-589a138067c5"
       data-name="Gain2#RoundBlackKnob"
       cx="121.49648"
       cy="237.84641"
       r="5"
       fill="#ff0000" />
    <circle
       id="uuid-b89b9fb9-3f2e-4ffc-a858-490ee0fd20ef"
       data-name="Gain1#RoundBlackKnob"
       cx="73.515839"
       cy="237.84641"
       r="5"
       fill="#ff0000" />
    <circle
       id="uuid-598b36ab-02d4-4246-84c2-bbff6f9dda2e"
       data-name="Thers#RoundBlackKnob"
       cx="169.47881"
       cy="285.87146"
       r="5"
       fill="#ff0000" />
    <rect
       id="uuid-c451808c-f8de-4d15-a4dc-10dce1838ce1"
       data-name="Screen"
       x="3.9999999e-05"
       y="38.5"
       width="194.99995"
       height="165"
       fill="#ffff00" />
  </g>
</svg>
