<?xml version="1.0" encoding="UTF-8" standalone="no"?>
<!-- Created with Inkscape (http://www.inkscape.org/) -->

<svg
   xmlns:dc="http://purl.org/dc/elements/1.1/"
   xmlns:cc="http://creativecommons.org/ns#"
   xmlns:rdf="http://www.w3.org/1999/02/22-rdf-syntax-ns#"
   xmlns:svg="http://www.w3.org/2000/svg"
   xmlns="http://www.w3.org/2000/svg"
   xmlns:sodipodi="http://sodipodi.sourceforge.net/DTD/sodipodi-0.dtd"
   xmlns:inkscape="http://www.inkscape.org/namespaces/inkscape"
   width="51.671444mm"
   height="100.54166mm"
   viewBox="0 0 51.671444 100.54168"
   version="1.1"
   id="svg4541"
   sodipodi:docname="Scope.svg"
   inkscape:version="0.92.2 5c3e80d, 2017-08-06">
  <defs
     id="defs4535" />
  <sodipodi:namedview
     id="base"
     pagecolor="#ffffff"
     bordercolor="#666666"
     borderopacity="1.0"
     inkscape:pageopacity="0.0"
     inkscape:pageshadow="2"
     inkscape:zoom="1.4"
     inkscape:cx="-72.179872"
     inkscape:cy="279.26111"
     inkscape:document-units="mm"
     inkscape:current-layer="g13452"
     showgrid="false"
     fit-margin-top="0"
     fit-margin-left="0"
     fit-margin-right="0"
     fit-margin-bottom="0"
     inkscape:window-width="1600"
     inkscape:window-height="882"
     inkscape:window-x="0"
     inkscape:window-y="18"
     inkscape:window-maximized="0" />
  <metadata
     id="metadata4538">
    <rdf:RDF>
      <cc:Work
         rdf:about="">
        <dc:format>image/svg+xml</dc:format>
        <dc:type
           rdf:resource="http://purl.org/dc/dcmitype/StillImage" />
        <dc:title />
      </cc:Work>
    </rdf:RDF>
  </metadata>
  <g
     inkscape:label="Layer 1"
     inkscape:groupmode="layer"
     id="layer1"
     transform="translate(10.012165,-99.047014)">
    <g
       transform="matrix(0.27602379,0,0,0.27602379,354.09618,57.736346)"
       id="g13122"
       style="stroke-width:0.9585526">
      <g
         transform="translate(-167.07644,-20.557569)"
         id="g13178"
         style="stroke-width:0.91882312">
        <g
           transform="translate(-99.2314,6.0949065)"
           id="g13224"
           style="stroke-width:0.88074034">
          <g
             transform="translate(-315.65411,137.78158)"
             id="g13271"
             style="stroke-width:0.84423596">
            <g
               transform="translate(-332.2261,26.059316)"
               id="g13383"
               style="stroke-width:0.80924457">
              <g
                 transform="translate(-188.93134,0.28519852)"
                 id="g13452"
                 style="stroke-width:0.77570349">
                <path
                   style="fill:#e6e6e6;fill-opacity:1;fill-rule:nonzero;stroke:none;stroke-width:0.77570349"
                   d="M -215.73442,0.265625 H -29.0664 V 363.98828 h -186.66802 z m 0,0"
                   id="path25073"
                   inkscape:connector-curvature="0" />
                <path
                   inkscape:connector-curvature="0"
                   id="path11210"
                   d="m -200.04551,193.37988 c 0,0.28125 0.21875,0.46875 0.4375,0.46875 0.21875,0 0.34375,-0.10937 0.48438,-0.28125 l 1.48437,-1.92187 1.5,1.95312 c 0.125,0.15625 0.23438,0.25 0.45313,0.25 0.28125,0 0.48437,-0.21875 0.48437,-0.48437 0,-0.14063 -0.0781,-0.26563 -0.15625,-0.375 l -1.64062,-2.04688 1.5625,-1.95312 c 0.0937,-0.125 0.15625,-0.23438 0.15625,-0.375 0,-0.28125 -0.23438,-0.45313 -0.45313,-0.45313 -0.21875,0 -0.34375,0.0937 -0.48437,0.26563 l -1.39063,1.84375 -1.42187,-1.875 c -0.10938,-0.15625 -0.23438,-0.23438 -0.4375,-0.23438 -0.28125,0 -0.5,0.20313 -0.5,0.48438 0,0.125 0.0781,0.26562 0.15625,0.35937 l 1.5625,1.95313 -1.65625,2.0625 c -0.0937,0.125 -0.14063,0.23437 -0.14063,0.35937 z m 0,0"
                   style="fill:#000000;fill-opacity:1;stroke:none;stroke-width:0.77570349" />
                <path
                   inkscape:connector-curvature="0"
                   id="path11206"
                   d="m -189.68352,193.87988 c 1.17188,0 2,-0.625 2,-1.67187 v -0.0156 c 0,-0.92187 -0.60937,-1.34375 -1.79687,-1.64062 -1.07813,-0.25 -1.34375,-0.45313 -1.34375,-0.875 v -0.0156 c 0,-0.375 0.34375,-0.67187 0.92187,-0.67187 0.4375,0 0.84375,0.15625 1.28125,0.42187 0.0781,0.0469 0.15625,0.0781 0.26563,0.0781 0.25,0 0.45312,-0.20313 0.45312,-0.45313 0,-0.1875 -0.0937,-0.32812 -0.21875,-0.39062 -0.5,-0.34375 -1.0625,-0.53125 -1.76562,-0.53125 -1.10938,0 -1.92188,0.67187 -1.92188,1.625 v 0.0156 c 0,1.03125 0.67188,1.39063 1.875,1.67188 1.03125,0.25 1.26563,0.46875 1.26563,0.85937 v 0.0156 c 0,0.42187 -0.39063,0.70312 -1,0.70312 -0.60938,0 -1.10938,-0.20312 -1.5625,-0.57812 -0.0625,-0.0469 -0.15625,-0.0781 -0.29688,-0.0781 -0.25,0 -0.45312,0.20313 -0.45312,0.45313 0,0.15625 0.0781,0.29687 0.1875,0.375 0.625,0.46875 1.34375,0.70312 2.10937,0.70312 z m 0,0"
                   style="fill:#000000;fill-opacity:1;stroke:none;stroke-width:0.77570349" />
                <path
                   inkscape:connector-curvature="0"
                   id="path11202"
                   d="m -183.81608,193.89551 c 0.90625,0 1.51563,-0.28125 2.04688,-0.75 0.0781,-0.0781 0.15625,-0.20313 0.15625,-0.35938 0,-0.23437 -0.21875,-0.45312 -0.46875,-0.45312 -0.125,0 -0.21875,0.0469 -0.29688,0.10937 -0.40625,0.34375 -0.8125,0.54688 -1.39062,0.54688 -1.07813,0 -1.85938,-0.89063 -1.85938,-1.98438 v -0.0156 c 0,-1.09375 0.78125,-1.98438 1.85938,-1.98438 0.53125,0 0.9375,0.20313 1.32812,0.51563 0.0625,0.0469 0.15625,0.0937 0.29688,0.0937 0.26562,0 0.48437,-0.21875 0.48437,-0.48438 0,-0.17187 -0.0781,-0.3125 -0.1875,-0.39062 -0.48437,-0.375 -1.0625,-0.64063 -1.92187,-0.64063 -1.70313,0 -2.89063,1.3125 -2.89063,2.90625 v 0.0156 c 0,1.60937 1.21875,2.875 2.84375,2.875 z m 0,0"
                   style="fill:#000000;fill-opacity:1;stroke:none;stroke-width:0.77570349" />
                <path
                   inkscape:connector-curvature="0"
                   id="path11198"
                   d="m -180.31627,193.30176 c 0,0.28125 0.21875,0.5 0.5,0.5 h 3.01563 c 0.25,0 0.45312,-0.20313 0.45312,-0.45313 0,-0.25 -0.20312,-0.4375 -0.45312,-0.4375 h -2.53125 v -4.26562 c 0,-0.26563 -0.21875,-0.48438 -0.48438,-0.48438 -0.28125,0 -0.5,0.21875 -0.5,0.48438 z m 0,0"
                   style="fill:#000000;fill-opacity:1;stroke:none;stroke-width:0.77570349" />
                <path
                   inkscape:connector-curvature="0"
                   id="path11194"
                   d="m -194.93693,298.01602 c 0,0.23438 0.1875,0.375 0.375,0.375 0.17188,0 0.28125,-0.0781 0.39063,-0.21875 l 1.20312,-1.5625 1.21875,1.59375 c 0.0937,0.125 0.1875,0.1875 0.35938,0.1875 0.23437,0 0.40625,-0.17187 0.40625,-0.39062 0,-0.10938 -0.0625,-0.21875 -0.125,-0.29688 l -1.34375,-1.67187 1.26562,-1.57813 c 0.0781,-0.10937 0.125,-0.1875 0.125,-0.3125 0,-0.21875 -0.1875,-0.35937 -0.35937,-0.35937 -0.17188,0 -0.28125,0.0781 -0.39063,0.21875 l -1.14062,1.48437 -1.14063,-1.51562 c -0.10937,-0.125 -0.20312,-0.1875 -0.375,-0.1875 -0.21875,0 -0.39062,0.17187 -0.39062,0.39062 0,0.10938 0.0625,0.20313 0.125,0.29688 l 1.26562,1.57812 -1.34375,1.67188 c -0.0781,0.0937 -0.125,0.1875 -0.125,0.29687 z m 0,0"
                   style="fill:#000000;fill-opacity:1;stroke:none;stroke-width:0.77570349" />
                <path
                   inkscape:connector-curvature="0"
                   id="path11190"
                   d="m -188.06468,298.0004 c 0,0.21875 0.1875,0.39062 0.40625,0.39062 0.21875,0 0.40625,-0.17187 0.40625,-0.39062 v -3.82813 c 0,-0.21875 -0.1875,-0.39062 -0.40625,-0.39062 -0.21875,0 -0.40625,0.17187 -0.40625,0.39062 z m 0,0"
                   style="fill:#000000;fill-opacity:1;stroke:none;stroke-width:0.77570349" />
                <path
                   inkscape:connector-curvature="0"
                   id="path11186"
                   d="m -185.84245,298.0004 c 0,0.21875 0.1875,0.39062 0.40625,0.39062 0.21875,0 0.39062,-0.17187 0.39062,-0.39062 v -2.89063 l 2.34375,3.03125 c 0.10938,0.14063 0.21875,0.25 0.40625,0.25 h 0.0312 c 0.21875,0 0.39063,-0.1875 0.39063,-0.40625 v -3.8125 c 0,-0.21875 -0.17188,-0.39062 -0.39063,-0.39062 -0.21875,0 -0.39062,0.17187 -0.39062,0.39062 v 2.79688 l -2.28125,-2.95313 c -0.10938,-0.14062 -0.21875,-0.23437 -0.40625,-0.23437 h -0.0937 c -0.21875,0 -0.40625,0.1875 -0.40625,0.40625 z m 0,0"
                   style="fill:#000000;fill-opacity:1;stroke:none;stroke-width:0.77570349" />
                <path
                   inkscape:connector-curvature="0"
                   id="path11182"
                   d="m -106.50444,288.51303 c 0,0.23438 0.1875,0.375 0.375,0.375 0.17187,0 0.28125,-0.0781 0.39062,-0.21875 l 1.20313,-1.5625 1.21875,1.59375 c 0.0937,0.125 0.1875,0.1875 0.35937,0.1875 0.23438,0 0.40625,-0.17187 0.40625,-0.39062 0,-0.10938 -0.0625,-0.21875 -0.125,-0.29688 l -1.34375,-1.67187 1.26563,-1.57813 c 0.0781,-0.10937 0.125,-0.1875 0.125,-0.3125 0,-0.21875 -0.1875,-0.35937 -0.35938,-0.35937 -0.17187,0 -0.28125,0.0781 -0.39062,0.21875 l -1.14063,1.48437 -1.14062,-1.51562 c -0.10938,-0.125 -0.20313,-0.1875 -0.375,-0.1875 -0.21875,0 -0.39063,0.17187 -0.39063,0.39062 0,0.10938 0.0625,0.20313 0.125,0.29688 l 1.26563,1.57812 -1.34375,1.67188 c -0.0781,0.0937 -0.125,0.1875 -0.125,0.29687 z m 0,0"
                   style="fill:#000000;fill-opacity:1;stroke:none;stroke-width:0.77570349" />
                <path
                   inkscape:connector-curvature="0"
                   id="path11178"
                   d="m -100.7205,287.82553 c 0,0.21875 0.17187,0.375 0.375,0.375 0.20312,0 0.375,-0.15625 0.375,-0.375 v -0.90625 h 0.921875 c 0.1875,0 0.359375,-0.15625 0.359375,-0.34375 0,-0.20312 -0.171875,-0.35937 -0.359375,-0.35937 H -99.9705 v -0.90625 c 0,-0.20313 -0.17188,-0.375 -0.375,-0.375 -0.20313,0 -0.375,0.17187 -0.375,0.375 v 0.90625 h -0.92188 c -0.1875,0 -0.35937,0.15625 -0.35937,0.35937 0,0.1875 0.17187,0.34375 0.35937,0.34375 h 0.92188 z m 0,0"
                   style="fill:#000000;fill-opacity:1;stroke:none;stroke-width:0.77570349" />
                <path
                   inkscape:connector-curvature="0"
                   id="path11174"
                   d="m -96.690962,288.49741 c 0,0.21875 0.1875,0.39062 0.40625,0.39062 0.21875,0 0.40625,-0.17187 0.40625,-0.39062 v -1.42188 l 1.546875,-2.125 c 0.0625,-0.0781 0.109375,-0.1875 0.109375,-0.29687 0,-0.20313 -0.15625,-0.39063 -0.390625,-0.39063 -0.171875,0 -0.28125,0.10938 -0.375,0.25 l -1.296875,1.82813 -1.265625,-1.82813 c -0.09375,-0.14062 -0.21875,-0.23437 -0.390625,-0.23437 -0.21875,0 -0.40625,0.17187 -0.40625,0.375 0,0.10937 0.04687,0.20312 0.09375,0.28125 l 1.5625,2.15625 z m 0,0"
                   style="fill:#000000;fill-opacity:1;stroke:none;stroke-width:0.77570349" />
                <path
                   inkscape:connector-curvature="0"
                   id="path11170"
                   d="m -62.352827,288.85678 h 2.6875 c 0.1875,0 0.359375,-0.15625 0.359375,-0.35937 0,-0.1875 -0.171875,-0.35938 -0.359375,-0.35938 h -2.28125 v -1.21875 h 1.953125 c 0.1875,0 0.359375,-0.15625 0.359375,-0.34375 0,-0.20312 -0.171875,-0.375 -0.359375,-0.375 h -1.953125 v -1.17187 h 2.25 c 0.1875,0 0.34375,-0.15625 0.34375,-0.35938 0,-0.20312 -0.15625,-0.35937 -0.34375,-0.35937 h -2.65625 c -0.21875,0 -0.40625,0.17187 -0.40625,0.40625 v 3.73437 c 0,0.23438 0.1875,0.40625 0.40625,0.40625 z m 0,0"
                   style="fill:#000000;fill-opacity:1;stroke:none;stroke-width:0.77570349" />
                <path
                   inkscape:connector-curvature="0"
                   id="path11166"
                   d="m -58.423994,288.51303 c 0,0.23438 0.1875,0.375 0.375,0.375 0.171875,0 0.28125,-0.0781 0.390625,-0.21875 l 1.203125,-1.5625 1.21875,1.59375 c 0.09375,0.125 0.1875,0.1875 0.359375,0.1875 0.234375,0 0.40625,-0.17187 0.40625,-0.39062 0,-0.10938 -0.0625,-0.21875 -0.125,-0.29688 l -1.34375,-1.67187 1.265625,-1.57813 c 0.07813,-0.10937 0.125,-0.1875 0.125,-0.3125 0,-0.21875 -0.1875,-0.35937 -0.359375,-0.35937 -0.171875,0 -0.28125,0.0781 -0.390625,0.21875 l -1.140625,1.48437 -1.140625,-1.51562 c -0.109375,-0.125 -0.203125,-0.1875 -0.375,-0.1875 -0.21875,0 -0.390625,0.17187 -0.390625,0.39062 0,0.10938 0.0625,0.20313 0.125,0.29688 l 1.265625,1.57812 -1.34375,1.67188 c -0.07813,0.0937 -0.125,0.1875 -0.125,0.29687 z m 0,0"
                   style="fill:#000000;fill-opacity:1;stroke:none;stroke-width:0.77570349" />
                <path
                   inkscape:connector-curvature="0"
                   id="path11162"
                   d="m -52.194746,288.49741 c 0,0.21875 0.1875,0.39062 0.40625,0.39062 0.21875,0 0.40625,-0.17187 0.40625,-0.39062 v -3.45313 h 1.109375 c 0.203125,0 0.359375,-0.17187 0.359375,-0.35937 0,-0.20313 -0.15625,-0.375 -0.359375,-0.375 h -3.03125 c -0.203125,0 -0.359375,0.17187 -0.359375,0.375 0,0.1875 0.15625,0.35937 0.359375,0.35937 h 1.109375 z m 0,0"
                   style="fill:#000000;fill-opacity:1;stroke:none;stroke-width:0.77570349" />
                <path
                   inkscape:connector-curvature="0"
                   id="path11158"
                   d="m -106.6215,245.41803 c 0,0.23437 0.1875,0.375 0.375,0.375 0.17188,0 0.28125,-0.0781 0.39063,-0.21875 l 1.20312,-1.5625 1.21875,1.59375 c 0.0937,0.125 0.1875,0.1875 0.35938,0.1875 0.23437,0 0.40625,-0.17188 0.40625,-0.39063 0,-0.10937 -0.0625,-0.21875 -0.125,-0.29687 l -1.34375,-1.67188 1.26562,-1.57812 c 0.0781,-0.10938 0.125,-0.1875 0.125,-0.3125 0,-0.21875 -0.1875,-0.35938 -0.35937,-0.35938 -0.17188,0 -0.28125,0.0781 -0.39063,0.21875 l -1.14062,1.48438 -1.14063,-1.51563 c -0.10937,-0.125 -0.20312,-0.1875 -0.375,-0.1875 -0.21875,0 -0.39062,0.17188 -0.39062,0.39063 0,0.10937 0.0625,0.20312 0.125,0.29687 l 1.26562,1.57813 -1.34375,1.67187 c -0.0781,0.0937 -0.125,0.1875 -0.125,0.29688 z m 0,0"
                   style="fill:#000000;fill-opacity:1;stroke:none;stroke-width:0.77570349" />
                <path
                   inkscape:connector-curvature="0"
                   id="path11154"
                   d="m -102.09672,246.32428 c 0,0.17187 0.14062,0.29687 0.3125,0.29687 0.125,0 0.21875,-0.0625 0.28125,-0.17187 l 2.65625,-5.45313 c 0.01563,-0.0312 0.03125,-0.0937 0.03125,-0.15625 0,-0.15625 -0.125,-0.29687 -0.296875,-0.29687 -0.125,0 -0.234375,0.0625 -0.28125,0.1875 l -2.671875,5.4375 c -0.0156,0.0469 -0.0312,0.0937 -0.0312,0.15625 z m 0,0"
                   style="fill:#000000;fill-opacity:1;stroke:none;stroke-width:0.77570349" />
                <path
                   inkscape:connector-curvature="0"
                   id="path11150"
                   d="m -96.56352,245.4024 c 0,0.21875 0.1875,0.39063 0.40625,0.39063 0.21875,0 0.40625,-0.17188 0.40625,-0.39063 v -1.42187 l 1.546875,-2.125 c 0.0625,-0.0781 0.109375,-0.1875 0.109375,-0.29688 0,-0.20312 -0.15625,-0.39062 -0.390625,-0.39062 -0.171875,0 -0.28125,0.10937 -0.375,0.25 l -1.296875,1.82812 -1.265625,-1.82812 c -0.09375,-0.14063 -0.21875,-0.23438 -0.390625,-0.23438 -0.21875,0 -0.40625,0.17188 -0.40625,0.375 0,0.10938 0.04687,0.20313 0.09375,0.28125 l 1.5625,2.15625 z m 0,0"
                   style="fill:#000000;fill-opacity:1;stroke:none;stroke-width:0.77570349" />
                <path
                   style="fill:#000000;fill-opacity:1;fill-rule:nonzero;stroke:none;stroke-width:0.77570349"
                   d="m -130.2032,352.50781 c -0.332,0 -0.6328,-0.1875 -0.7812,-0.48437 l -2.8438,-5.6836 c -0.2148,-0.42968 -0.039,-0.95703 0.3946,-1.17187 0.4297,-0.21484 0.957,-0.0391 1.1718,0.39062 l 2.0586,4.1211 2.0586,-4.1211 c 0.2149,-0.42968 0.7422,-0.60546 1.1719,-0.39062 0.4336,0.21484 0.6094,0.74219 0.3906,1.17187 l -2.8398,5.6836 c -0.1485,0.29687 -0.4492,0.48437 -0.7813,0.48437"
                   id="path25625"
                   inkscape:connector-curvature="0" />
                <path
                   style="fill:#000000;fill-opacity:1;fill-rule:nonzero;stroke:none;stroke-width:0.77570349"
                   d="m -114.5977,352.50781 c -0.332,0 -0.6328,-0.1875 -0.7812,-0.48437 l -2.8399,-5.6836 c -0.2187,-0.42968 -0.043,-0.95703 0.3906,-1.17187 0.4297,-0.21484 0.9571,-0.0391 1.1719,0.39062 l 2.0586,4.1211 2.0586,-4.1211 c 0.2187,-0.42968 0.7422,-0.60546 1.1758,-0.39062 0.4297,0.21484 0.6054,0.74219 0.3906,1.17187 l -2.8437,5.6836 c -0.1446,0.29687 -0.4493,0.48437 -0.7813,0.48437"
                   id="path25627"
                   inkscape:connector-curvature="0" />
                <path
                   style="fill:#000000;fill-opacity:1;fill-rule:nonzero;stroke:none;stroke-width:0.77570349"
                   d="m -121.9766,352.50781 c -2.0469,0 -3.7148,-1.66797 -3.7148,-3.71484 0,-2.05078 1.6679,-3.71875 3.7148,-3.71875 0.8125,0 1.582,0.25781 2.2305,0.74609 0.3867,0.28907 0.4648,0.83594 0.1757,1.22266 -0.2929,0.38672 -0.8398,0.46484 -1.2265,0.17578 -0.3399,-0.25781 -0.75,-0.39453 -1.1797,-0.39453 -1.0859,0 -1.9648,0.88281 -1.9648,1.96875 0,1.08203 0.8789,1.96484 1.9648,1.96484 0.4297,0 0.8398,-0.13672 1.1797,-0.39062 0.3867,-0.29297 0.9336,-0.21485 1.2265,0.17187 0.2891,0.38672 0.211,0.9336 -0.1757,1.22657 -0.6485,0.48437 -1.418,0.74218 -2.2305,0.74218"
                   id="path25629"
                   inkscape:connector-curvature="0" />
                <path
                   style="fill:#000000;fill-opacity:1;fill-rule:nonzero;stroke:none;stroke-width:0.77570349"
                   d="m -120.7813,348.74609 c 0,0.62891 -0.5117,1.13672 -1.1367,1.13672 -0.6289,0 -1.1367,-0.50781 -1.1367,-1.13672 0,-0.625 0.5078,-1.13671 1.1367,-1.13671 0.625,0 1.1367,0.51171 1.1367,1.13671"
                   id="path25631"
                   inkscape:connector-curvature="0" />
                <path
                   inkscape:connector-curvature="0"
                   id="path11146"
                   d="m -154.19096,193.34863 c 0,0.28125 0.21875,0.5 0.48437,0.5 0.28125,0 0.5,-0.21875 0.5,-0.5 v -1.75 l 1.90625,-2.60937 c 0.0781,-0.0937 0.14063,-0.21875 0.14063,-0.35938 0,-0.26562 -0.1875,-0.46875 -0.48438,-0.46875 -0.20312,0 -0.34375,0.10938 -0.46875,0.28125 l -1.57812,2.26563 -1.5625,-2.25 c -0.125,-0.17188 -0.26563,-0.29688 -0.48438,-0.29688 -0.28125,0 -0.5,0.20313 -0.5,0.46875 0,0.14063 0.0469,0.25 0.125,0.34375 l 1.92188,2.65625 z m 0,0"
                   style="fill:#000000;fill-opacity:1;stroke:none;stroke-width:0.77570349" />
                <path
                   inkscape:connector-curvature="0"
                   id="path11142"
                   d="m -145.83232,193.87988 c 1.17188,0 2,-0.625 2,-1.67187 v -0.0156 c 0,-0.92187 -0.60937,-1.34375 -1.79687,-1.64062 -1.07813,-0.25 -1.34375,-0.45313 -1.34375,-0.875 v -0.0156 c 0,-0.375 0.34375,-0.67187 0.92187,-0.67187 0.4375,0 0.84375,0.15625 1.28125,0.42187 0.0781,0.0469 0.15625,0.0781 0.26563,0.0781 0.25,0 0.45312,-0.20313 0.45312,-0.45313 0,-0.1875 -0.0937,-0.32812 -0.21875,-0.39062 -0.5,-0.34375 -1.0625,-0.53125 -1.76562,-0.53125 -1.10938,0 -1.92188,0.67187 -1.92188,1.625 v 0.0156 c 0,1.03125 0.67188,1.39063 1.875,1.67188 1.03125,0.25 1.26563,0.46875 1.26563,0.85937 v 0.0156 c 0,0.42187 -0.39063,0.70312 -1,0.70312 -0.60938,0 -1.10938,-0.20312 -1.5625,-0.57812 -0.0625,-0.0469 -0.15625,-0.0781 -0.29688,-0.0781 -0.25,0 -0.45312,0.20313 -0.45312,0.45313 0,0.15625 0.0781,0.29687 0.1875,0.375 0.625,0.46875 1.34375,0.70312 2.10937,0.70312 z m 0,0"
                   style="fill:#000000;fill-opacity:1;stroke:none;stroke-width:0.77570349" />
                <path
                   inkscape:connector-curvature="0"
                   id="path11138"
                   d="m -139.96489,193.89551 c 0.90625,0 1.51563,-0.28125 2.04688,-0.75 0.0781,-0.0781 0.15625,-0.20313 0.15625,-0.35938 0,-0.23437 -0.21875,-0.45312 -0.46875,-0.45312 -0.125,0 -0.21875,0.0469 -0.29688,0.10937 -0.40625,0.34375 -0.8125,0.54688 -1.39062,0.54688 -1.07813,0 -1.85938,-0.89063 -1.85938,-1.98438 v -0.0156 c 0,-1.09375 0.78125,-1.98438 1.85938,-1.98438 0.53125,0 0.9375,0.20313 1.32812,0.51563 0.0625,0.0469 0.15625,0.0937 0.29688,0.0937 0.26562,0 0.48437,-0.21875 0.48437,-0.48438 0,-0.17187 -0.0781,-0.3125 -0.1875,-0.39062 -0.48437,-0.375 -1.0625,-0.64063 -1.92187,-0.64063 -1.70313,0 -2.89063,1.3125 -2.89063,2.90625 v 0.0156 c 0,1.60937 1.21875,2.875 2.84375,2.875 z m 0,0"
                   style="fill:#000000;fill-opacity:1;stroke:none;stroke-width:0.77570349" />
                <path
                   inkscape:connector-curvature="0"
                   id="path11134"
                   d="m -136.46501,193.30176 c 0,0.28125 0.21875,0.5 0.5,0.5 h 3.01563 c 0.25,0 0.45312,-0.20313 0.45312,-0.45313 0,-0.25 -0.20312,-0.4375 -0.45312,-0.4375 h -2.53125 v -4.26562 c 0,-0.26563 -0.21875,-0.48438 -0.48438,-0.48438 -0.28125,0 -0.5,0.21875 -0.5,0.48438 z m 0,0"
                   style="fill:#000000;fill-opacity:1;stroke:none;stroke-width:0.77570349" />
                <path
                   inkscape:connector-curvature="0"
                   id="path11130"
                   d="m -200.70628,245.09988 c 0,0.28125 0.21875,0.46875 0.4375,0.46875 0.21875,0 0.34375,-0.10937 0.48438,-0.28125 l 1.48437,-1.92187 1.5,1.95312 c 0.125,0.15625 0.23438,0.25 0.45313,0.25 0.28125,0 0.48437,-0.21875 0.48437,-0.48437 0,-0.14063 -0.0781,-0.26563 -0.15625,-0.375 l -1.64062,-2.04688 1.5625,-1.95312 c 0.0937,-0.125 0.15625,-0.23438 0.15625,-0.375 0,-0.28125 -0.23438,-0.45313 -0.45313,-0.45313 -0.21875,0 -0.34375,0.0937 -0.48437,0.26563 l -1.39063,1.84375 -1.42187,-1.875 c -0.10938,-0.15625 -0.23438,-0.23438 -0.4375,-0.23438 -0.28125,0 -0.5,0.20313 -0.5,0.48438 0,0.125 0.0781,0.26562 0.15625,0.35937 l 1.5625,1.95313 -1.65625,2.0625 c -0.0937,0.125 -0.14063,0.23437 -0.14063,0.35937 z m 0,0"
                   style="fill:#000000;fill-opacity:1;stroke:none;stroke-width:0.77570349" />
                <path
                   inkscape:connector-curvature="0"
                   id="path11126"
                   d="m -192.31303,245.06863 c 0,0.28125 0.21875,0.5 0.5,0.5 0.26563,0 0.48438,-0.21875 0.48438,-0.5 v -1.34375 h 1.10937 c 1.23438,0 2.25,-0.65625 2.25,-1.92187 v -0.0156 c 0,-1.125 -0.82812,-1.85937 -2.14062,-1.85937 h -1.70313 c -0.28125,0 -0.5,0.20312 -0.5,0.48437 z m 0.98438,-2.23437 v -2.01563 h 1.14062 c 0.73438,0 1.21875,0.34375 1.21875,1 v 0.0156 c 0,0.57812 -0.46875,1 -1.21875,1 z m 0,0"
                   style="fill:#000000;fill-opacity:1;stroke:none;stroke-width:0.77570349" />
                <path
                   inkscape:connector-curvature="0"
                   id="path11122"
                   d="m -184.08598,245.61551 c 1.71875,0 2.9375,-1.3125 2.9375,-2.89063 v -0.0156 c 0,-1.57813 -1.20313,-2.89063 -2.92188,-2.89063 -1.71875,0 -2.9375,1.32813 -2.9375,2.90625 v 0.0156 c 0,1.57812 1.20313,2.875 2.92188,2.875 z m 0.0156,-0.90625 c -1.10937,0 -1.90625,-0.90625 -1.90625,-1.98438 v -0.0156 c 0,-1.09375 0.78125,-1.98438 1.89063,-1.98438 1.10937,0 1.90625,0.90625 1.90625,2 v 0.0156 c 0,1.07812 -0.78125,1.96875 -1.89063,1.96875 z m 0,0"
                   style="fill:#000000;fill-opacity:1;stroke:none;stroke-width:0.77570349" />
                <path
                   inkscape:connector-curvature="0"
                   id="path11118"
                   d="m -177.86192,245.59988 c 1.17188,0 2,-0.625 2,-1.67187 v -0.0156 c 0,-0.92187 -0.60937,-1.34375 -1.79687,-1.64062 -1.07813,-0.25 -1.34375,-0.45313 -1.34375,-0.875 v -0.0156 c 0,-0.375 0.34375,-0.67187 0.92187,-0.67187 0.4375,0 0.84375,0.15625 1.28125,0.42187 0.0781,0.0469 0.15625,0.0781 0.26563,0.0781 0.25,0 0.45312,-0.20313 0.45312,-0.45313 0,-0.1875 -0.0937,-0.32812 -0.21875,-0.39062 -0.5,-0.34375 -1.0625,-0.53125 -1.76562,-0.53125 -1.10938,0 -1.92188,0.67187 -1.92188,1.625 v 0.0156 c 0,1.03125 0.67188,1.39063 1.875,1.67188 1.03125,0.25 1.26563,0.46875 1.26563,0.85937 v 0.0156 c 0,0.42187 -0.39063,0.70312 -1,0.70312 -0.60938,0 -1.10938,-0.20312 -1.5625,-0.57812 -0.0625,-0.0469 -0.15625,-0.0781 -0.29688,-0.0781 -0.25,0 -0.45312,0.20313 -0.45312,0.45313 0,0.15625 0.0781,0.29687 0.1875,0.375 0.625,0.46875 1.34375,0.70312 2.10937,0.70312 z m 0,0"
                   style="fill:#000000;fill-opacity:1;stroke:none;stroke-width:0.77570349" />
                <path
                   inkscape:connector-curvature="0"
                   id="path11114"
                   d="m -154.8549,245.06863 c 0,0.28125 0.21875,0.5 0.48437,0.5 0.28125,0 0.5,-0.21875 0.5,-0.5 v -1.75 l 1.90625,-2.60937 c 0.0781,-0.0937 0.14063,-0.21875 0.14063,-0.35938 0,-0.26562 -0.1875,-0.46875 -0.48438,-0.46875 -0.20312,0 -0.34375,0.10938 -0.46875,0.28125 l -1.57812,2.26563 -1.5625,-2.25 c -0.125,-0.17188 -0.26563,-0.29688 -0.48438,-0.29688 -0.28125,0 -0.5,0.20313 -0.5,0.46875 0,0.14063 0.0469,0.25 0.125,0.34375 l 1.92188,2.65625 z m 0,0"
                   style="fill:#000000;fill-opacity:1;stroke:none;stroke-width:0.77570349" />
                <path
                   inkscape:connector-curvature="0"
                   id="path11110"
                   d="m -148.46501,245.06863 c 0,0.28125 0.21875,0.5 0.5,0.5 0.26563,0 0.48438,-0.21875 0.48438,-0.5 v -1.34375 h 1.10937 c 1.23438,0 2.25,-0.65625 2.25,-1.92187 v -0.0156 c 0,-1.125 -0.82812,-1.85937 -2.14062,-1.85937 h -1.70313 c -0.28125,0 -0.5,0.20312 -0.5,0.48437 z m 0.98438,-2.23437 v -2.01563 h 1.14062 c 0.73438,0 1.21875,0.34375 1.21875,1 v 0.0156 c 0,0.57812 -0.46875,1 -1.21875,1 z m 0,0"
                   style="fill:#000000;fill-opacity:1;stroke:none;stroke-width:0.77570349" />
                <path
                   inkscape:connector-curvature="0"
                   id="path11106"
                   d="m -140.23881,245.61551 c 1.71875,0 2.9375,-1.3125 2.9375,-2.89063 v -0.0156 c 0,-1.57813 -1.20313,-2.89063 -2.92188,-2.89063 -1.71875,0 -2.9375,1.32813 -2.9375,2.90625 v 0.0156 c 0,1.57812 1.20313,2.875 2.92188,2.875 z m 0.0156,-0.90625 c -1.10937,0 -1.90625,-0.90625 -1.90625,-1.98438 v -0.0156 c 0,-1.09375 0.78125,-1.98438 1.89063,-1.98438 1.10937,0 1.90625,0.90625 1.90625,2 v 0.0156 c 0,1.07812 -0.78125,1.96875 -1.89063,1.96875 z m 0,0"
                   style="fill:#000000;fill-opacity:1;stroke:none;stroke-width:0.77570349" />
                <path
                   inkscape:connector-curvature="0"
                   id="path11102"
                   d="m -134.01396,245.59988 c 1.17188,0 2,-0.625 2,-1.67187 v -0.0156 c 0,-0.92187 -0.60937,-1.34375 -1.79687,-1.64062 -1.07813,-0.25 -1.34375,-0.45313 -1.34375,-0.875 v -0.0156 c 0,-0.375 0.34375,-0.67187 0.92187,-0.67187 0.4375,0 0.84375,0.15625 1.28125,0.42187 0.0781,0.0469 0.15625,0.0781 0.26563,0.0781 0.25,0 0.45312,-0.20313 0.45312,-0.45313 0,-0.1875 -0.0937,-0.32812 -0.21875,-0.39062 -0.5,-0.34375 -1.0625,-0.53125 -1.76562,-0.53125 -1.10938,0 -1.92188,0.67187 -1.92188,1.625 v 0.0156 c 0,1.03125 0.67188,1.39063 1.875,1.67188 1.03125,0.25 1.26563,0.46875 1.26563,0.85937 v 0.0156 c 0,0.42187 -0.39063,0.70312 -1,0.70312 -0.60938,0 -1.10938,-0.20312 -1.5625,-0.57812 -0.0625,-0.0469 -0.15625,-0.0781 -0.29688,-0.0781 -0.25,0 -0.45312,0.20313 -0.45312,0.45313 0,0.15625 0.0781,0.29687 0.1875,0.375 0.625,0.46875 1.34375,0.70312 2.10937,0.70312 z m 0,0"
                   style="fill:#000000;fill-opacity:1;stroke:none;stroke-width:0.77570349" />
                <path
                   inkscape:connector-curvature="0"
                   id="path11098"
                   d="m -108.62602,193.34863 c 0,0.28125 0.21875,0.5 0.5,0.5 0.26563,0 0.5,-0.21875 0.5,-0.5 v -4.23437 h 1.35938 c 0.25,0 0.45312,-0.20313 0.45312,-0.45313 0,-0.25 -0.20312,-0.45312 -0.45312,-0.45312 h -3.71875 c -0.25,0 -0.45313,0.20312 -0.45313,0.45312 0,0.25 0.20313,0.45313 0.45313,0.45313 h 1.35937 z m 0,0"
                   style="fill:#000000;fill-opacity:1;stroke:none;stroke-width:0.77570349" />
                <path
                   inkscape:connector-curvature="0"
                   id="path11094"
                   d="m -104.65849,193.34863 c 0,0.28125 0.20312,0.5 0.48437,0.5 0.28125,0 0.5,-0.21875 0.5,-0.5 v -4.70312 c 0,-0.26563 -0.21875,-0.48438 -0.5,-0.48438 -0.28125,0 -0.48437,0.21875 -0.48437,0.48438 z m 0,0"
                   style="fill:#000000;fill-opacity:1;stroke:none;stroke-width:0.77570349" />
                <path
                   inkscape:connector-curvature="0"
                   id="path11090"
                   d="m -101.98979,193.36426 c 0,0.26562 0.20312,0.48437 0.48437,0.48437 0.26563,0 0.48438,-0.21875 0.48438,-0.48437 v -3.35938 l 1.359375,2.04688 c 0.109375,0.15625 0.234375,0.25 0.40625,0.25 0.1875,0 0.3125,-0.0937 0.421875,-0.25 l 1.359375,-2.0625 v 3.35937 c 0,0.26563 0.234375,0.5 0.5,0.5 0.28125,0 0.484375,-0.21875 0.484375,-0.5 v -4.6875 c 0,-0.26562 -0.203125,-0.48437 -0.484375,-0.48437 h -0.109375 c -0.203125,0 -0.34375,0.0781 -0.453125,0.25 l -1.703125,2.65625 -1.6875,-2.65625 c -0.0937,-0.14063 -0.25,-0.25 -0.46875,-0.25 h -0.0937 c -0.28125,0 -0.5,0.21875 -0.5,0.48437 z m 0,0"
                   style="fill:#000000;fill-opacity:1;stroke:none;stroke-width:0.77570349" />
                <path
                   inkscape:connector-curvature="0"
                   id="path11086"
                   d="m -94.308271,193.80176 h 3.296875 c 0.234375,0 0.4375,-0.1875 0.4375,-0.4375 0,-0.25 -0.203125,-0.4375 -0.4375,-0.4375 h -2.8125 v -1.51563 h 2.40625 c 0.25,0 0.4375,-0.1875 0.4375,-0.42187 0,-0.25 -0.1875,-0.45313 -0.4375,-0.45313 h -2.40625 v -1.45312 h 2.765625 c 0.25,0 0.4375,-0.1875 0.4375,-0.4375 0,-0.25 -0.1875,-0.4375 -0.4375,-0.4375 h -3.25 c -0.28125,0 -0.5,0.20312 -0.5,0.48437 v 4.60938 c 0,0.28125 0.21875,0.5 0.5,0.5 z m 0,0"
                   style="fill:#000000;fill-opacity:1;stroke:none;stroke-width:0.77570349" />
                <path
                   style="fill:none;stroke:#000000;stroke-width:0.47927633;stroke-linecap:round;stroke-linejoin:round;stroke-miterlimit:10;stroke-opacity:1"
                   d="M -166.3243,201.66406 V 331.30859"
                   id="path25695"
                   inkscape:connector-curvature="0" />
                <path
                   style="fill:none;stroke:#000000;stroke-width:0.47927633;stroke-linecap:round;stroke-linejoin:round;stroke-miterlimit:10;stroke-opacity:1"
                   d="M -122.3985,201.66406 V 331.30859"
                   id="path25697"
                   inkscape:connector-curvature="0" />
                <path
                   style="fill:none;stroke:#000000;stroke-width:0.47927633;stroke-linecap:round;stroke-linejoin:round;stroke-miterlimit:10;stroke-opacity:1"
                   d="M -78.4766,201.66406 V 331.30859"
                   id="path25699"
                   inkscape:connector-curvature="0" />
                <path
                   inkscape:connector-curvature="0"
                   id="path11082"
                   d="m -61.774946,245.4082 c 0,0.21875 0.1875,0.39063 0.40625,0.39063 0.21875,0 0.40625,-0.17188 0.40625,-0.39063 v -3.82812 c 0,-0.21875 -0.1875,-0.39063 -0.40625,-0.39063 -0.21875,0 -0.40625,0.17188 -0.40625,0.39063 z m 0,0"
                   style="fill:#000000;fill-opacity:1;stroke:none;stroke-width:0.77570349" />
                <path
                   inkscape:connector-curvature="0"
                   id="path11078"
                   d="m -59.551924,245.4082 c 0,0.21875 0.1875,0.39063 0.40625,0.39063 0.21875,0 0.390625,-0.17188 0.390625,-0.39063 v -2.89062 l 2.34375,3.03125 c 0.109375,0.14062 0.21875,0.25 0.40625,0.25 h 0.03125 c 0.21875,0 0.390625,-0.1875 0.390625,-0.40625 v -3.8125 c 0,-0.21875 -0.171875,-0.39063 -0.390625,-0.39063 -0.21875,0 -0.390625,0.17188 -0.390625,0.39063 v 2.79687 l -2.28125,-2.95312 c -0.109375,-0.14063 -0.21875,-0.23438 -0.40625,-0.23438 h -0.09375 c -0.21875,0 -0.40625,0.1875 -0.40625,0.40625 z m 0,0"
                   style="fill:#000000;fill-opacity:1;stroke:none;stroke-width:0.77570349" />
                <path
                   inkscape:connector-curvature="0"
                   id="path11074"
                   d="m -53.139204,245.4082 c 0,0.21875 0.1875,0.39063 0.40625,0.39063 0.21875,0 0.40625,-0.17188 0.40625,-0.39063 v -3.45312 h 1.109375 c 0.203125,0 0.359375,-0.17188 0.359375,-0.35938 0,-0.20312 -0.15625,-0.375 -0.359375,-0.375 h -3.03125 c -0.203125,0 -0.359375,0.17188 -0.359375,0.375 0,0.1875 0.15625,0.35938 0.359375,0.35938 h 1.109375 z m 0,0"
                   style="fill:#000000;fill-opacity:1;stroke:none;stroke-width:0.77570349" />
                <path
                   inkscape:connector-curvature="0"
                   id="path11070"
                   d="m -139.78935,27.23877 c 1.8125,0 3.07812,-0.9375 3.07812,-2.609375 v -0.03125 c 0,-1.453125 -0.95312,-2.0625 -2.65625,-2.515625 -1.45312,-0.375 -1.8125,-0.546875 -1.8125,-1.09375 v -0.03125 c 0,-0.40625 0.35938,-0.734375 1.07813,-0.734375 0.57812,0 1.15625,0.203125 1.76562,0.5625 0.14063,0.09375 0.28125,0.140625 0.46875,0.140625 0.46875,0 0.85938,-0.375 0.85938,-0.859375 0,-0.359375 -0.20313,-0.609375 -0.40625,-0.734375 -0.76563,-0.46875 -1.64063,-0.734375 -2.67188,-0.734375 -1.71875,0 -2.9375,1 -2.9375,2.53125 v 0.01563 c 0,1.671875 1.09375,2.140625 2.78125,2.578125 1.40625,0.359375 1.70313,0.59375 1.70313,1.0625 v 0.03125 c 0,0.484375 -0.46875,0.78125 -1.21875,0.78125 -0.8125,0 -1.51563,-0.28125 -2.14063,-0.75 -0.125,-0.09375 -0.29687,-0.171875 -0.53125,-0.171875 -0.48437,0 -0.875,0.375 -0.875,0.859375 0,0.28125 0.15625,0.546875 0.35938,0.6875 0.9375,0.671875 2.04687,1.015625 3.15625,1.015625 z m 0,0"
                   style="fill:#000000;fill-opacity:1;stroke:none;stroke-width:0.77570349" />
                <path
                   inkscape:connector-curvature="0"
                   id="path11066"
                   d="m -131.19707,27.254395 c 1.34375,0 2.23438,-0.390625 3,-1.046875 0.15625,-0.15625 0.3125,-0.375 0.3125,-0.671875 0,-0.46875 -0.40625,-0.84375 -0.875,-0.84375 -0.21875,0 -0.40625,0.07813 -0.54687,0.203125 -0.53125,0.421875 -1.04688,0.65625 -1.82813,0.65625 -1.4375,0 -2.4375,-1.203125 -2.4375,-2.640625 v -0.01563 c 0,-1.4375 1.03125,-2.625 2.4375,-2.625 0.65625,0 1.20313,0.21875 1.71875,0.609375 0.14063,0.07813 0.29688,0.171875 0.54688,0.171875 0.51562,0 0.92187,-0.390625 0.92187,-0.890625 0,-0.328125 -0.17187,-0.59375 -0.35937,-0.734375 -0.70313,-0.515625 -1.54688,-0.859375 -2.8125,-0.859375 -2.57813,0 -4.375,1.953125 -4.375,4.34375 v 0.03125 c 0,2.40625 1.82812,4.3125 4.29687,4.3125 z m 0,0"
                   style="fill:#000000;fill-opacity:1;stroke:none;stroke-width:0.77570349" />
                <path
                   inkscape:connector-curvature="0"
                   id="path11062"
                   d="m -122.33488,27.254395 c 2.59375,0 4.46875,-1.953125 4.46875,-4.34375 v -0.01563 c 0,-2.390625 -1.85937,-4.328125 -4.45312,-4.328125 -2.59375,0 -4.46875,1.953125 -4.46875,4.34375 v 0.03125 c 0,2.390625 1.85937,4.3125 4.45312,4.3125 z m 0.0156,-1.703125 c -1.48438,0 -2.54688,-1.203125 -2.54688,-2.640625 v -0.01563 c 0,-1.4375 1.03125,-2.625 2.53125,-2.625 1.48438,0 2.53125,1.203125 2.53125,2.640625 v 0.03125 c 0,1.4375 -1.03125,2.609375 -2.51562,2.609375 z m 0,0"
                   style="fill:#000000;fill-opacity:1;stroke:none;stroke-width:0.77570349" />
                <path
                   inkscape:connector-curvature="0"
                   id="path11058"
                   d="m -116.12296,26.254395 c 0,0.515625 0.40625,0.9375 0.92187,0.9375 0.51563,0 0.92188,-0.421875 0.92188,-0.9375 v -1.65625 h 1.40625 c 1.875,0 3.39062,-1.015625 3.39062,-2.953125 v -0.03125 c 0,-1.71875 -1.21875,-2.90625 -3.21875,-2.90625 h -2.5 c -0.51562,0 -0.92187,0.421875 -0.92187,0.9375 z m 1.84375,-3.296875 v -2.578125 h 1.42187 c 0.92188,0 1.5,0.453125 1.5,1.28125 v 0.01563 c 0,0.71875 -0.53125,1.28125 -1.46875,1.28125 z m 0,0"
                   style="fill:#000000;fill-opacity:1;stroke:none;stroke-width:0.77570349" />
                <path
                   inkscape:connector-curvature="0"
                   id="path11054"
                   d="m -107.13713,27.11377 h 4.70312 c 0.46875,0 0.82813,-0.359375 0.82813,-0.8125 0,-0.453125 -0.35938,-0.828125 -0.82813,-0.828125 h -3.79687 V 23.70752 h 3.20312 c 0.45313,0 0.82813,-0.359375 0.82813,-0.8125 0,-0.46875 -0.375,-0.828125 -0.82813,-0.828125 h -3.20312 V 20.36377 h 3.75 c 0.45312,0 0.82812,-0.359375 0.82812,-0.828125 0,-0.453125 -0.375,-0.828125 -0.82812,-0.828125 h -4.65625 c -0.51563,0 -0.92188,0.421875 -0.92188,0.9375 v 6.546875 c 0,0.515625 0.40625,0.921875 0.92188,0.921875 z m 0,0"
                   style="fill:#000000;fill-opacity:1;stroke:none;stroke-width:0.77570349" />
                <path
                   style="fill:none;stroke:#000000;stroke-width:0.47927633;stroke-linecap:round;stroke-linejoin:round;stroke-miterlimit:10;stroke-opacity:1"
                   d="m -53.5586,296.14453 -2.9571,2.95703 -2.9609,-2.95703"
                   id="path27303"
                   inkscape:connector-curvature="0" />
                <path
                   style="fill:#1e282b;fill-opacity:1;fill-rule:nonzero;stroke:none;stroke-width:0.77570349"
                   d="M -28.8008,176.45313 H -216.00004 V 42.558599 H -28.8008 Z m 0,0"
                   id="path28577"
                   inkscape:connector-curvature="0" />
                <path
                   style="clip-rule:nonzero;fill:none;stroke:#ffffff;stroke-width:0.52145267;stroke-linecap:butt;stroke-linejoin:miter;stroke-miterlimit:10;stroke-opacity:0.25098041"
                   d="M -216.00004,56.734375 H -28.80083"
                   id="path8437"
                   inkscape:connector-curvature="0" />
                <path
                   style="clip-rule:nonzero;fill:none;stroke:#ffffff;stroke-width:0.52145267;stroke-linecap:butt;stroke-linejoin:miter;stroke-miterlimit:10;stroke-opacity:0.25098041"
                   d="M -216.00004,83.121094 H -28.80083"
                   id="path8443"
                   inkscape:connector-curvature="0" />
                <path
                   style="clip-rule:nonzero;fill:none;stroke:#ffffff;stroke-width:0.52145267;stroke-linecap:butt;stroke-linejoin:miter;stroke-miterlimit:10;stroke-opacity:0.25098041"
                   d="M -216.00004,135.89063 H -28.80083"
                   id="path8449"
                   inkscape:connector-curvature="0" />
                <path
                   style="clip-rule:nonzero;fill:none;stroke:#ffffff;stroke-width:0.52145267;stroke-linecap:butt;stroke-linejoin:miter;stroke-miterlimit:10;stroke-opacity:0.25098041"
                   d="M -216.00004,162.27734 H -28.80083"
                   id="path8455"
                   inkscape:connector-curvature="0" />
                <path
                   inkscape:connector-curvature="0"
                   id="path11050"
                   d="m -149.43998,298.00088 c 0,0.21875 0.1875,0.39063 0.40625,0.39063 0.21875,0 0.40625,-0.17188 0.40625,-0.39063 v -1.42187 l 1.54687,-2.125 c 0.0625,-0.0781 0.10938,-0.1875 0.10938,-0.29688 0,-0.20312 -0.15625,-0.39062 -0.39063,-0.39062 -0.17187,0 -0.28125,0.10937 -0.375,0.25 l -1.29687,1.82812 -1.26563,-1.82812 c -0.0937,-0.14063 -0.21875,-0.23438 -0.39062,-0.23438 -0.21875,0 -0.40625,0.17188 -0.40625,0.375 0,0.10938 0.0469,0.20313 0.0937,0.28125 l 1.5625,2.15625 z m 0,0"
                   style="fill:#000000;fill-opacity:1;stroke:none;stroke-width:0.77570349" />
                <path
                   inkscape:connector-curvature="0"
                   id="path11046"
                   d="m -144.20036,298.00088 c 0,0.21875 0.1875,0.39063 0.40625,0.39063 0.21875,0 0.40625,-0.17188 0.40625,-0.39063 v -3.82812 c 0,-0.21875 -0.1875,-0.39063 -0.40625,-0.39063 -0.21875,0 -0.40625,0.17188 -0.40625,0.39063 z m 0,0"
                   style="fill:#000000;fill-opacity:1;stroke:none;stroke-width:0.77570349" />
                <path
                   inkscape:connector-curvature="0"
                   id="path11042"
                   d="m -141.97746,298.00088 c 0,0.21875 0.1875,0.39063 0.40625,0.39063 0.21875,0 0.39062,-0.17188 0.39062,-0.39063 v -2.89062 l 2.34375,3.03125 c 0.10938,0.14062 0.21875,0.25 0.40625,0.25 h 0.0312 c 0.21875,0 0.39063,-0.1875 0.39063,-0.40625 v -3.8125 c 0,-0.21875 -0.17188,-0.39063 -0.39063,-0.39063 -0.21875,0 -0.39062,0.17188 -0.39062,0.39063 v 2.79687 l -2.28125,-2.95312 c -0.10938,-0.14063 -0.21875,-0.23438 -0.40625,-0.23438 h -0.0937 c -0.21875,0 -0.40625,0.1875 -0.40625,0.40625 z m 0,0"
                   style="fill:#000000;fill-opacity:1;stroke:none;stroke-width:0.77570349" />
                <path
                   style="clip-rule:nonzero;fill:none;stroke:#ffffff;stroke-width:0.52145267;stroke-linecap:butt;stroke-linejoin:miter;stroke-miterlimit:10;stroke-opacity:0.25098041"
                   d="M -122.39848,56.734375 V 162.28516"
                   id="path8461"
                   inkscape:connector-curvature="0" />
                <path
                   style="clip-rule:nonzero;fill:none;stroke:#ffffff;stroke-width:0.52145267;stroke-linecap:butt;stroke-linejoin:miter;stroke-miterlimit:10;stroke-opacity:0.25098041"
                   d="M -91.199262,56.734375 V 162.28516"
                   id="path8467"
                   inkscape:connector-curvature="0" />
                <path
                   style="clip-rule:nonzero;fill:none;stroke:#ffffff;stroke-width:0.52145267;stroke-linecap:butt;stroke-linejoin:miter;stroke-miterlimit:10;stroke-opacity:0.25098041"
                   d="M -153.5977,56.734375 V 162.28516"
                   id="path8473"
                   inkscape:connector-curvature="0" />
                <path
                   style="clip-rule:nonzero;fill:none;stroke:#ffffff;stroke-width:0.52145267;stroke-linecap:butt;stroke-linejoin:miter;stroke-miterlimit:10;stroke-opacity:0.25098041"
                   d="M -184.79692,56.734375 V 162.28516"
                   id="path8479"
                   inkscape:connector-curvature="0" />
                <path
                   style="clip-rule:nonzero;fill:none;stroke:#ffffff;stroke-width:0.52145267;stroke-linecap:butt;stroke-linejoin:miter;stroke-miterlimit:10;stroke-opacity:0.25098041"
                   d="M -59.996137,56.734375 V 162.28516"
                   id="path8485"
                   inkscape:connector-curvature="0" />
                <path
                   inkscape:connector-curvature="0"
                   id="path11038"
                   d="m -64.542524,193.34863 c 0,0.28125 0.21875,0.5 0.5,0.5 0.265625,0 0.5,-0.21875 0.5,-0.5 v -4.23437 h 1.359375 c 0.25,0 0.453125,-0.20313 0.453125,-0.45313 0,-0.25 -0.203125,-0.45312 -0.453125,-0.45312 h -3.71875 c -0.25,0 -0.453125,0.20312 -0.453125,0.45312 0,0.25 0.203125,0.45313 0.453125,0.45313 h 1.359375 z m 0,0"
                   style="fill:#000000;fill-opacity:1;stroke:none;stroke-width:0.77570349" />
                <path
                   inkscape:connector-curvature="0"
                   id="path11034"
                   d="m -60.605513,193.34863 c 0,0.28125 0.21875,0.5 0.5,0.5 0.265625,0 0.484375,-0.21875 0.484375,-0.5 v -1.5 h 1.234375 l 1.359375,1.73438 c 0.125,0.15625 0.265625,0.26562 0.484375,0.26562 0.25,0 0.46875,-0.1875 0.46875,-0.46875 0,-0.14062 -0.0625,-0.25 -0.15625,-0.375 l -1.0625,-1.34375 c 0.75,-0.23437 1.265625,-0.78125 1.265625,-1.67187 v -0.0156 c 0,-0.48437 -0.171875,-0.90625 -0.46875,-1.21875 -0.359375,-0.34375 -0.90625,-0.54687 -1.609375,-0.54687 h -2 c -0.28125,0 -0.5,0.20312 -0.5,0.48437 z m 0.984375,-2.375 v -1.875 h 1.4375 c 0.71875,0 1.15625,0.32813 1.15625,0.92188 v 0.0156 c 0,0.57813 -0.453125,0.9375 -1.15625,0.9375 z m 0,0"
                   style="fill:#000000;fill-opacity:1;stroke:none;stroke-width:0.77570349" />
                <path
                   inkscape:connector-curvature="0"
                   id="path11030"
                   d="m -54.564619,193.34863 c 0,0.28125 0.203125,0.5 0.484375,0.5 0.28125,0 0.5,-0.21875 0.5,-0.5 v -4.70312 c 0,-0.26563 -0.21875,-0.48438 -0.5,-0.48438 -0.28125,0 -0.484375,0.21875 -0.484375,0.48438 z m 0,0"
                   style="fill:#000000;fill-opacity:1;stroke:none;stroke-width:0.77570349" />
                <path
                   inkscape:connector-curvature="0"
                   id="path11026"
                   d="m -49.286054,193.89551 c 0.84375,0 1.515625,-0.28125 2,-0.60938 0.21875,-0.14062 0.34375,-0.34375 0.34375,-0.625 v -1.48437 c 0,-0.28125 -0.21875,-0.5 -0.5,-0.5 h -1.5625 c -0.234375,0 -0.4375,0.1875 -0.4375,0.42187 0,0.25 0.203125,0.4375 0.4375,0.4375 h 1.109375 v 1.04688 c -0.34375,0.25 -0.828125,0.42187 -1.359375,0.42187 -1.140625,0 -1.90625,-0.84375 -1.90625,-2 v -0.0156 c 0,-1.07813 0.78125,-1.98438 1.8125,-1.98438 0.609375,0 1,0.1875 1.375,0.4375 0.07813,0.0625 0.171875,0.125 0.296875,0.125 0.265625,0 0.484375,-0.23437 0.484375,-0.5 0,-0.1875 -0.09375,-0.32812 -0.203125,-0.39062 -0.5,-0.375 -1.0625,-0.57813 -1.90625,-0.57813 -1.6875,0 -2.890625,1.32813 -2.890625,2.90625 v 0.0156 c 0,1.625 1.15625,2.875 2.90625,2.875 z m 0,0"
                   style="fill:#000000;fill-opacity:1;stroke:none;stroke-width:0.77570349" />
              </g>
            </g>
          </g>
        </g>
      </g>
    </g>
  </g>
</svg>
