<?xml version="1.0" encoding="utf-8"?>
<!-- Generator: Adobe Illustrator 27.8.1, SVG Export Plug-In . SVG Version: 6.00 Build 0)  -->
<svg version="1.0"
	 id="svg269" xmlns:svg="http://www.w3.org/2000/svg" xmlns:inkscape="http://www.inkscape.org/namespaces/inkscape" xmlns:sodipodi="http://sodipodi.sourceforge.net/DTD/sodipodi-0.dtd"
	 xmlns="http://www.w3.org/2000/svg" xmlns:xlink="http://www.w3.org/1999/xlink" x="0px" y="0px" width="195px" height="380px"
	 viewBox="0 0 195 380" enable-background="new 0 0 195 380" xml:space="preserve">
<sodipodi:namedview  bordercolor="#666666" borderopacity="1.0" id="namedview271" inkscape:current-layer="uuid-01687cb8-7441-45ec-98e1-245f9b20292f" inkscape:cx="97.510431" inkscape:cy="190" inkscape:pagecheckerboard="0" inkscape:pageopacity="0.0" inkscape:pageshadow="2" inkscape:window-height="1009" inkscape:window-maximized="1" inkscape:window-width="1920" inkscape:window-x="-8" inkscape:window-y="-8" inkscape:zoom="1.8921053" pagecolor="#ffffff" showgrid="false">
	</sodipodi:namedview>
<g id="uuid-c4ee3f4d-09f1-4b84-8562-00919c5a3800">
	
		<linearGradient id="rect9_00000092426418500424291310000009388725874193446806_" gradientUnits="userSpaceOnUse" x1="97.50002" y1="381.27557" x2="97.50002" y2="1.27557" gradientTransform="matrix(1 0 0 -1 0 381.27557)">
		<stop  offset="0" style="stop-color:#EBEBEB"/>
		<stop  offset="1" style="stop-color:#E1E1E1"/>
	</linearGradient>
	
		<rect id="rect9" x="0.00004" y="0" fill="url(#rect9_00000092426418500424291310000009388725874193446806_)" width="194.99995" height="380"/>
</g>
<g id="uuid-d53dfa26-254a-467a-ac58-d86b307427be">
	
		<line id="line12" fill="none" stroke="#1F1F1F" stroke-width="0.8" stroke-linecap="round" stroke-linejoin="round" x1="169.47881" y1="302.57367" x2="169.47881" y2="308.02136"/>
	<g id="g22">
		<path id="path14" fill="#1F1F1F" d="M89.35927,359.75299c-0.34551,0-0.66126-0.19519-0.8158-0.50418l-2.96428-5.92856
			c-0.22526-0.45056-0.04266-0.99844,0.40794-1.22369c0.45008-0.22534,0.99831-0.04272,1.22366,0.4079l2.14848,4.29697
			l2.14848-4.29697c0.22526-0.45056,0.77314-0.63324,1.22366-0.4079c0.45061,0.22525,0.63321,0.77313,0.40794,1.22369
			l-2.96428,5.92856c-0.15454,0.30899-0.47029,0.50418-0.8158,0.50418H89.35927z"/>
		<path id="path16" fill="#1F1F1F" d="M105.64073,359.75299c-0.34551,0-0.66126-0.19519-0.8158-0.50418l-2.96428-5.92856
			c-0.22526-0.45056-0.04266-0.99844,0.40794-1.22369c0.45016-0.22534,0.9984-0.04272,1.22366,0.4079l2.14848,4.29697
			l2.14848-4.29697c0.22526-0.45056,0.77305-0.63324,1.22366-0.4079c0.45061,0.22525,0.63321,0.77313,0.40794,1.22369
			l-2.96428,5.92856c-0.15454,0.30899-0.47029,0.50418-0.8158,0.50418H105.64073z"/>
		<path id="path18" fill="#1F1F1F" d="M97.94242,359.75299c-2.13744,0-3.87637-1.73892-3.87637-3.87637
			s1.73893-3.87637,3.87637-3.87637c0.84653,0,1.65102,0.26819,2.32653,0.77554c0.40278,0.30252,0.48401,0.87427,0.18153,1.27704
			c-0.30248,0.40274-0.87432,0.48401-1.2771,0.18149c-0.357-0.26816-0.78267-0.40991-1.23096-0.40991
			c-1.13156,0-2.05219,0.92059-2.05219,2.05219s0.92064,2.05219,2.05219,2.05219c0.44829,0,0.87396-0.14175,1.23096-0.40991
			c0.40269-0.3027,0.97444-0.22125,1.2771,0.18149c0.30248,0.40277,0.22125,0.97452-0.18153,1.27704
			c-0.67551,0.50735-1.48,0.77554-2.32653,0.77554V359.75299z"/>
		<circle id="circle20" fill="#1F1F1F" cx="98.00165" cy="355.83102" r="1.1857"/>
	</g>
	<path id="rect24" fill="#1F1F1F" d="M50.03322,309.08893h22.9623c1.56554,0,2.83465,1.26913,2.83465,2.83466v33.48761
		c0,1.56552-1.26911,2.83466-2.83465,2.83466h-22.9623c-1.56553,0-2.83465-1.26913-2.83465-2.83466v-33.48761
		C47.19857,310.35806,48.46769,309.08893,50.03322,309.08893z"/>
	<path id="rect26" fill="#1F1F1F" d="M122.01958,309.08893h22.9623c1.56554,0,2.83466,1.26913,2.83466,2.83466v33.48761
		c0,1.56552-1.26912,2.83466-2.83466,2.83466h-22.9623c-1.56554,0-2.83465-1.26913-2.83465-2.83466v-33.48761
		C119.18493,310.35806,120.45404,309.08893,122.01958,309.08893z"/>
	<path id="path28" fill="#1F1F1F" d="M43.82551,333.67795l-2.87167-1.65796c-0.24791-0.14313-0.55779,0.03577-0.55779,0.32205
		v3.31592c0,0.28625,0.30989,0.46518,0.55779,0.32205l2.87167-1.65796C44.07342,334.17892,44.07342,333.82111,43.82551,333.67795z"
		/>
	<path id="path30" fill="#1F1F1F" d="M115.81186,333.67795l-2.87167-1.65796c-0.24791-0.14313-0.55779,0.03577-0.55779,0.32205
		v3.31592c0,0.28625,0.30989,0.46518,0.55779,0.32205l2.87167-1.65796C116.05977,334.17892,116.05977,333.82111,115.81186,333.67795
		z"/>
	<g id="g38">
		
			<line id="line32" fill="none" stroke="#1F1F1F" stroke-width="0.8" stroke-linecap="round" stroke-linejoin="round" x1="121.4965" y1="273.34799" x2="121.4965" y2="269.62473"/>
		<path id="path34" fill="none" stroke="#1F1F1F" stroke-width="0.8" stroke-linecap="round" stroke-linejoin="round" d="
			M130.13213,300.17661c4.83522-2.92859,8.06662-8.2395,8.06662-14.30515c0-9.23001-7.48239-16.7124-16.71239-16.7124
			s-16.71239,7.48239-16.71239,16.7124c0,6.09738,3.2653,11.4321,8.14264,14.35092"/>
		<circle id="circle36" fill="none" cx="121.49648" cy="285.87146" r="20.69419"/>
	</g>
	<g id="g46">
		
			<line id="line40" fill="none" stroke="#1F1F1F" stroke-width="0.8" stroke-linecap="round" stroke-linejoin="round" x1="169.47884" y1="273.34799" x2="169.47884" y2="269.62473"/>
		<path id="path42" fill="none" stroke="#1F1F1F" stroke-width="0.8" stroke-linecap="round" stroke-linejoin="round" d="
			M178.11444,300.17661c4.83522-2.92859,8.06662-8.2395,8.06662-14.30515c0-9.23001-7.48239-16.7124-16.71239-16.7124
			s-16.71239,7.48239-16.71239,16.7124c0,6.09738,3.2653,11.4321,8.14264,14.35092"/>
		<circle id="circle44" fill="none" cx="169.47881" cy="285.87146" r="20.69418"/>
	</g>
	<g id="g68">
		
			<line id="line48" fill="none" stroke="#1F1F1F" stroke-width="0.5" stroke-linecap="round" stroke-linejoin="round" x1="73.51586" y1="225.32297" x2="73.51586" y2="221.5997"/>
		<g id="g62">
			
				<line id="line50" fill="none" stroke="#1F1F1F" stroke-width="0.5" stroke-linecap="round" stroke-miterlimit="10" x1="58.11972" y1="244.29977" x2="73.51463" y2="237.77696"/>
			
				<line id="line52" fill="none" stroke="#1F1F1F" stroke-width="0.5" stroke-linecap="round" stroke-miterlimit="10" x1="57.42684" y1="233.42999" x2="73.57328" y2="237.76965"/>
			
				<line id="line54" fill="none" stroke="#1F1F1F" stroke-width="0.5" stroke-linecap="round" stroke-miterlimit="10" x1="63.26901" y1="224.68408" x2="73.59131" y2="237.83643"/>
			
				<line id="line56" fill="none" stroke="#1F1F1F" stroke-width="0.5" stroke-linecap="round" stroke-miterlimit="10" x1="83.58968" y1="224.5587" x2="73.496" y2="237.88731"/>
			
				<line id="line58" fill="none" stroke="#1F1F1F" stroke-width="0.5" stroke-linecap="round" stroke-miterlimit="10" x1="89.53825" y1="233.2282" x2="73.47046" y2="237.85056"/>
			
				<line id="line60" fill="none" stroke="#1F1F1F" stroke-width="0.5" stroke-linecap="round" stroke-miterlimit="10" x1="88.9544" y1="244.1479" x2="73.4845" y2="237.80498"/>
		</g>
		<path id="path64" fill="none" stroke="#1F1F1F" stroke-width="0.8" stroke-linecap="round" stroke-linejoin="round" d="
			M64.93596,252.19736c-4.87734-2.91881-8.14264-8.25352-8.14264-14.35091c0-9.23,7.48239-16.71239,16.71239-16.71239
			s16.71239,7.48239,16.71239,16.71239c0,6.06564-3.2314,11.37656-8.06662,14.30515l-8.63564-14.30518l-8.57988,14.35095
			L64.93596,252.19736z"/>
		<circle id="circle66" fill="none" cx="73.51584" cy="237.84641" r="20.69419"/>
	</g>
	<g id="g74">
		<path id="path70" fill="none" stroke="#1F1F1F" stroke-width="0.8" stroke-linecap="round" stroke-linejoin="round" d="
			M34.15683,300.18781c4.83522-2.92859,8.06662-8.2395,8.06662-14.30515c0-9.23001-7.48239-16.7124-16.71239-16.7124
			s-16.71239,7.48239-16.71239,16.7124c0,6.09738,3.2653,11.4321,8.14264,14.35092"/>
		<circle id="circle72" fill="none" cx="25.52119" cy="285.88263" r="20.69419"/>
	</g>
	<g id="g82">
		
			<line id="line76" fill="none" stroke="#1F1F1F" stroke-width="0.8" stroke-linecap="round" stroke-linejoin="round" x1="73.51583" y1="273.34799" x2="73.51583" y2="269.62473"/>
		<path id="path78" fill="none" stroke="#1F1F1F" stroke-width="0.8" stroke-linecap="round" stroke-linejoin="round" d="
			M82.15145,300.17661c4.83522-2.92859,8.06662-8.2395,8.06662-14.30515c0-9.23001-7.48239-16.7124-16.71239-16.7124
			s-16.71239,7.48239-16.71239,16.7124c0,6.09738,3.2653,11.4321,8.14264,14.35092"/>
		<circle id="circle80" fill="none" cx="73.51581" cy="285.87146" r="20.69419"/>
	</g>
	<g id="g104">
		
			<line id="line84" fill="none" stroke="#1F1F1F" stroke-width="0.5" stroke-linecap="round" stroke-linejoin="round" x1="121.48637" y1="225.32297" x2="121.48637" y2="221.5997"/>
		<g id="g98">
			
				<line id="line86" fill="none" stroke="#1F1F1F" stroke-width="0.5" stroke-linecap="round" stroke-miterlimit="10" x1="106.09023" y1="244.29977" x2="121.48514" y2="237.77696"/>
			
				<line id="line88" fill="none" stroke="#1F1F1F" stroke-width="0.5" stroke-linecap="round" stroke-miterlimit="10" x1="105.39735" y1="233.42999" x2="121.54379" y2="237.76965"/>
			
				<line id="line90" fill="none" stroke="#1F1F1F" stroke-width="0.5" stroke-linecap="round" stroke-miterlimit="10" x1="111.23952" y1="224.68408" x2="121.56182" y2="237.83643"/>
			
				<line id="line92" fill="none" stroke="#1F1F1F" stroke-width="0.5" stroke-linecap="round" stroke-miterlimit="10" x1="131.5602" y1="224.5587" x2="121.46651" y2="237.88731"/>
			
				<line id="line94" fill="none" stroke="#1F1F1F" stroke-width="0.5" stroke-linecap="round" stroke-miterlimit="10" x1="137.50876" y1="233.2282" x2="121.44097" y2="237.85056"/>
			
				<line id="line96" fill="none" stroke="#1F1F1F" stroke-width="0.5" stroke-linecap="round" stroke-miterlimit="10" x1="136.92491" y1="244.1479" x2="121.45501" y2="237.80498"/>
		</g>
		<path id="path100" fill="none" stroke="#1F1F1F" stroke-width="0.8" stroke-linecap="round" stroke-linejoin="round" d="
			M112.90647,252.19736c-4.87734-2.91881-8.14264-8.25352-8.14264-14.35091c0-9.23,7.48239-16.71239,16.71239-16.71239
			s16.71239,7.48239,16.71239,16.71239c0,6.06564-3.2314,11.37656-8.06662,14.30515l-8.6255-14.30518l-8.59002,14.35095V252.19736z"
			/>
		<circle id="circle102" fill="none" cx="121.48635" cy="237.84641" r="20.69419"/>
	</g>
</g>
<g id="uuid-59cf0549-b020-411a-85f6-5c31845f97c7">
	<g id="g117">
		<path id="path107" fill="#1F1F1F" d="M106.87891,213.19287v-0.0166c0-1.63574,1.25195-3.02148,3.01367-3.02148
			c0.87598,0,1.45996,0.20898,1.99414,0.59277c0.10059,0.0752,0.20898,0.2168,0.20898,0.41748
			c0,0.27539-0.22559,0.50879-0.50879,0.50879c-0.13379,0-0.23438-0.05811-0.31738-0.1167
			c-0.37598-0.27539-0.78418-0.45898-1.41895-0.45898c-1.07715,0-1.89453,0.94287-1.89453,2.06152v0.0166
			c0,1.20215,0.79297,2.08691,1.98633,2.08691c0.55078,0,1.05176-0.17529,1.41016-0.44238v-1.09375h-1.15137
			c-0.25,0-0.45898-0.19189-0.45898-0.44238c0-0.25,0.20898-0.45068,0.45898-0.45068h1.62793
			c0.29199,0,0.5166,0.22559,0.5166,0.51758v1.56104c0,0.29199-0.11621,0.50049-0.3584,0.65088
			c-0.50098,0.33398-1.20215,0.63428-2.07812,0.63428C108.08105,216.19775,106.8789,214.89551,106.87891,213.19287z"/>
		<path id="path109" fill="#1F1F1F" d="M113.4502,215.42969l2.1709-4.84082c0.11621-0.25879,0.3252-0.41748,0.61719-0.41748h0.0498
			c0.29199,0,0.49316,0.15869,0.60938,0.41748l2.16992,4.84082c0.04199,0.0752,0.05859,0.15039,0.05859,0.21729
			c0,0.27539-0.20801,0.49219-0.48438,0.49219c-0.24121,0-0.4082-0.1416-0.5-0.35889l-0.47559-1.09326h-2.83789l-0.49316,1.12695
			c-0.08301,0.2085-0.25879,0.3252-0.47559,0.3252c-0.2666,0-0.47559-0.2085-0.47559-0.47559
			c0-0.0752,0.02539-0.15039,0.06641-0.23389H113.4502z M117.27345,213.77734l-1.02637-2.3623l-1.02734,2.3623H117.27345z"/>
		<path id="path111" fill="#1F1F1F" d="M120.3584,210.72266c0-0.28418,0.22559-0.50928,0.51758-0.50928
			c0.28418,0,0.50879,0.2251,0.50879,0.50928v4.90771c0,0.28369-0.22461,0.50879-0.50879,0.50879
			c-0.29199,0-0.51758-0.2251-0.51758-0.50879V210.72266z"/>
		<path id="path113" fill="#1F1F1F" d="M123.13574,210.73926c0-0.28369,0.22559-0.51758,0.51758-0.51758h0.1084
			c0.25098,0,0.39258,0.125,0.53418,0.30029l2.92188,3.78125v-3.58887c0-0.27588,0.22461-0.50098,0.5-0.50098
			c0.28419,0,0.50977,0.2251,0.50977,0.50098v4.90771c0,0.28369-0.2168,0.50879-0.50098,0.50879h-0.04199
			c-0.24219,0-0.3916-0.125-0.53418-0.30859l-3.00488-3.88965v3.70605c0,0.27539-0.22461,0.50049-0.5,0.50049
			c-0.28418,0-0.50977-0.2251-0.50977-0.50049C123.13575,215.63867,123.13575,210.73926,123.13574,210.73926z"/>
		<path id="path115" fill="#1F1F1F" d="M132.1123,215.10449l1.79492-1.52734c0.80078-0.67627,1.09277-1.05176,1.09277-1.57764
			c0-0.57568-0.40918-0.90967-0.94336-0.90967c-0.4668,0-0.79297,0.2168-1.15137,0.65088
			c-0.0752,0.0835-0.19238,0.15869-0.35938,0.15869c-0.25781,0-0.4668-0.20898-0.4668-0.46729
			c0-0.10889,0.04199-0.22559,0.11621-0.31738c0.47656-0.59277,1.01855-0.94336,1.93652-0.94336
			c1.14355,0,1.92871,0.70117,1.92871,1.74463v0.0166c0,0.91846-0.48438,1.41895-1.51953,2.26221l-1.20215,1.00146h2.37109
			c0.25,0,0.4502,0.2002,0.4502,0.45068s-0.2002,0.45068-0.4502,0.45068h-3.31348c-0.31738,0-0.55078-0.18359-0.55078-0.48389
			C131.8457,215.41309,131.9375,215.24609,132.1123,215.10449z"/>
	</g>
	<g id="g129">
		<path id="path119" fill="#1F1F1F" d="M59.24902,260.82617v-0.0166c0-1.64404,1.26855-3.02148,3.06348-3.02148
			s3.04688,1.36084,3.04688,3.00488v0.0166c0,1.64453-1.26953,3.02148-3.06348,3.02148
			C60.50098,263.83105,59.24902,262.4707,59.24902,260.82617z M64.28222,260.82617v-0.0166
			c0-1.13525-0.82617-2.07812-1.98633-2.07812s-1.96973,0.92627-1.96973,2.06152v0.0166c0,1.13525,0.82617,2.06982,1.98633,2.06982
			S64.28222,261.96143,64.28222,260.82617z"/>
		<path id="path121" fill="#1F1F1F" d="M66.78906,258.40576c0-0.29199,0.22559-0.51758,0.51758-0.51758h3.40527
			c0.25879,0,0.46777,0.20898,0.46777,0.46777s-0.20898,0.46729-0.46777,0.46729h-2.89648v1.59424h2.52148
			c0.25879,0,0.4668,0.2085,0.4668,0.46729s-0.20801,0.46729-0.4668,0.46729h-2.52148v1.91162
			c0,0.28369-0.22461,0.50879-0.50879,0.50879c-0.29199,0-0.51758-0.2251-0.51758-0.50879
			C66.78907,263.26367,66.78907,258.40576,66.78906,258.40576z"/>
		<path id="path123" fill="#1F1F1F" d="M72.17383,263.08008c-0.11621-0.0835-0.2002-0.22559-0.2002-0.39258
			c0-0.26709,0.2168-0.47559,0.48438-0.47559c0.1416,0,0.2334,0.0415,0.30078,0.0918
			c0.4834,0.38379,1.00098,0.60107,1.63574,0.60107c0.63379,0,1.03516-0.30078,1.03516-0.73486v-0.0166
			c0-0.41699-0.23438-0.64258-1.31934-0.89307c-1.24316-0.30029-1.94434-0.66748-1.94434-1.74414v-0.01709
			c0-1.00146,0.83496-1.69434,1.99512-1.69434c0.73438,0,1.32617,0.19238,1.85254,0.54297
			c0.11719,0.06641,0.22559,0.2085,0.22559,0.40869c0,0.26709-0.21777,0.47559-0.48438,0.47559
			c-0.10059,0-0.18359-0.0249-0.26758-0.07471c-0.4502-0.29248-0.88379-0.44238-1.34375-0.44238
			c-0.60059,0-0.95117,0.30859-0.95117,0.69238v0.01709c0,0.45068,0.26758,0.65088,1.39355,0.91797
			c1.23535,0.30029,1.87012,0.74268,1.87012,1.71094v0.0166c0,1.09375-0.85938,1.74463-2.08691,1.74463
			c-0.79297,0-1.54395-0.25049-2.19531-0.73438H72.17383z"/>
		<path id="path125" fill="#1F1F1F" d="M79.23926,258.83984H77.8203c-0.2666,0-0.47559-0.2168-0.47559-0.47559
			s0.20898-0.47607,0.47559-0.47607h3.88184c0.25879,0,0.4668,0.21729,0.4668,0.47607s-0.20801,0.47559-0.4668,0.47559h-1.42773
			v4.42383c0,0.28369-0.2334,0.50879-0.51758,0.50879c-0.2832,0-0.51758-0.2251-0.51758-0.50879
			C79.23927,263.26367,79.23927,258.83984,79.23926,258.83984z"/>
		<path id="path127" fill="#1F1F1F" d="M86.4541,258.85645l-0.60059,0.18359c-0.05859,0.0166-0.13379,0.02539-0.18359,0.02539
			c-0.24219,0-0.45117-0.20068-0.45117-0.43408c0-0.21729,0.13379-0.38428,0.34277-0.44238l0.88477-0.28369
			c0.2002-0.05859,0.35059-0.0918,0.50098-0.0918h0.0166c0.29199,0,0.50879,0.2251,0.50879,0.50879v4.94141
			c0,0.28369-0.22559,0.50879-0.50879,0.50879c-0.27539,0-0.50977-0.2251-0.50977-0.50879
			C86.45409,263.26367,86.45409,258.85645,86.4541,258.85645z"/>
	</g>
	<g id="g141">
		<path id="path131" fill="#1F1F1F" d="M76.08008,27.36084c-0.21289-0.15039-0.3623-0.42529-0.3623-0.72607
			c0-0.5,0.40039-0.88818,0.90137-0.88818c0.25,0,0.4248,0.0874,0.5498,0.17529c0.66309,0.48779,1.38867,0.78809,2.23926,0.78809
			c0.78906,0,1.26367-0.3125,1.26367-0.82568v-0.0249c0-0.48828-0.2998-0.73828-1.76367-1.11377
			c-1.76367-0.45068-2.90234-0.93848-2.90234-2.67725v-0.02539c0-1.58887,1.27539-2.64014,3.06445-2.64014
			c1.06445,0,1.99023,0.27539,2.77832,0.77588c0.21289,0.125,0.4248,0.3877,0.4248,0.76318
			c0,0.50049-0.40039,0.88818-0.90039,0.88818c-0.1875,0-0.33789-0.0498-0.48828-0.1377
			c-0.6377-0.375-1.23828-0.58789-1.83887-0.58789c-0.73828,0-1.12598,0.33789-1.12598,0.76367v0.02441
			c0,0.57617,0.375,0.76367,1.88867,1.15137c1.77734,0.46289,2.77832,1.10107,2.77832,2.62793v0.02441
			c0,1.73926-1.32617,2.71533-3.21582,2.71533c-1.15039,0-2.31445-0.3501-3.29102-1.05078L76.08008,27.36084z"/>
		<path id="path133" fill="#1F1F1F" d="M83.84961,23.93262v-0.02539c0-2.48975,1.87695-4.5293,4.56641-4.5293
			c1.31445,0,2.20312,0.35059,2.92871,0.88867c0.2002,0.1499,0.375,0.4248,0.375,0.7627c0,0.52588-0.4248,0.93848-0.9502,0.93848
			c-0.26367,0-0.43848-0.09961-0.57617-0.1875c-0.53809-0.40039-1.10156-0.62549-1.78906-0.62549
			c-1.47656,0-2.54004,1.22607-2.54004,2.72754v0.0249c0,1.50146,1.03809,2.75293,2.54004,2.75293
			c0.8125,0,1.35156-0.25049,1.90234-0.68848c0.14941-0.125,0.34961-0.2124,0.57422-0.2124
			c0.48828,0,0.90137,0.40039,0.90137,0.88818c0,0.30029-0.14941,0.53809-0.3252,0.68848
			c-0.78809,0.68799-1.71387,1.10059-3.11523,1.10059C85.76367,28.43653,83.8496,26.44727,83.84961,23.93262z"/>
		<path id="path135" fill="#1F1F1F" d="M92.92969,23.93262v-0.02539c0-2.48975,1.96387-4.5293,4.66602-4.5293
			c2.70312,0,4.64258,2.01465,4.64258,4.50439v0.0249c0,2.49023-1.96484,4.5293-4.66699,4.5293s-4.6416-2.01416-4.6416-4.50391
			L92.92969,23.93262z M100.22364,23.93262v-0.02539c0-1.50146-1.10059-2.75244-2.65234-2.75244s-2.62793,1.22607-2.62793,2.72754
			v0.0249c0,1.50146,1.10156,2.75293,2.65234,2.75293C99.14845,26.66016,100.22365,25.4336,100.22364,23.93262z"/>
		<path id="path137" fill="#1F1F1F" d="M104.04883,20.49121c0-0.5376,0.42578-0.96289,0.96289-0.96289h2.61523
			c2.08984,0,3.35352,1.23828,3.35352,3.02783v0.0249c0,2.02686-1.57617,3.07812-3.54102,3.07812h-1.46387v1.73926
			c0,0.53809-0.42578,0.96338-0.96387,0.96338c-0.53711,0-0.96289-0.42529-0.96289-0.96338V20.4912L104.04883,20.49121z
			 M107.50195,23.94482c0.96289,0,1.52637-0.57568,1.52637-1.32617v-0.0249c0-0.86328-0.60059-1.32617-1.56348-1.32617h-1.48926
			v2.67725C105.97558,23.94483,107.50195,23.94483,107.50195,23.94482z"/>
		<path id="path139" fill="#1F1F1F" d="M112.45898,27.32324v-6.83203c0-0.5376,0.42578-0.96289,0.96289-0.96289h4.85547
			c0.47461,0,0.86328,0.3877,0.86328,0.86328s-0.38867,0.85059-0.86328,0.85059h-3.9043v1.77686h3.34082
			c0.47559,0,0.86328,0.3877,0.86328,0.86328s-0.3877,0.85107-0.86328,0.85107h-3.34082v1.83887h3.9668
			c0.47461,0,0.86328,0.38818,0.86328,0.86328c0,0.47559-0.38867,0.85107-0.86328,0.85107h-4.91797
			C112.88476,28.28662,112.45898,27.86133,112.45898,27.32324z"/>
	</g>
	<g id="g149">
		<path id="path143" fill="#1F1F1F" d="M21.19141,219.1416l-0.48828,0.14893c-0.04688,0.01318-0.10742,0.02002-0.14844,0.02002
			c-0.19629,0-0.36523-0.16211-0.36523-0.35205c0-0.17627,0.10742-0.31201,0.27734-0.35889l0.71777-0.23047
			c0.16309-0.04785,0.28418-0.07471,0.40723-0.07471h0.0127c0.2373,0,0.41309,0.18311,0.41309,0.41357v4.01074
			c0,0.22998-0.18262,0.41309-0.41309,0.41309c-0.22363,0-0.41309-0.18311-0.41309-0.41309V219.1416z"/>
		<path id="path145" fill="#1F1F1F" d="M23.23828,222.50195l1.01562-1.21973l-0.94141-1.11816
			c-0.08789-0.1084-0.13574-0.20312-0.13574-0.31152c0-0.23047,0.17676-0.37891,0.37988-0.37891
			c0.16211,0,0.27734,0.07422,0.37891,0.20312l0.80664,1.05664l0.81934-1.0498c0.09473-0.12207,0.20996-0.20996,0.35254-0.20996
			c0.2168,0,0.38672,0.15527,0.38672,0.35889c0,0.11475-0.04785,0.19629-0.11523,0.27783l-0.96875,1.1582l1.00195,1.18555
			c0.08789,0.1084,0.13574,0.20312,0.13574,0.31152c0,0.23047-0.17676,0.37988-0.37988,0.37988
			c-0.16211,0-0.27734-0.07471-0.37891-0.20996l-0.86719-1.11816l-0.86719,1.11816
			c-0.09473,0.11523-0.20996,0.20996-0.35938,0.20996c-0.20996,0-0.37891-0.15625-0.37891-0.35938
			c0-0.11523,0.04102-0.20312,0.11523-0.28418H23.23828z"/>
		<path id="path147" fill="#1F1F1F" d="M27.40039,222.29199l1.45703-1.24023c0.65039-0.54883,0.8877-0.85352,0.8877-1.28027
			c0-0.46777-0.33203-0.73828-0.76562-0.73828c-0.37988,0-0.64355,0.17578-0.93457,0.52832
			c-0.06152,0.06738-0.15625,0.12891-0.29199,0.12891c-0.20996,0-0.37891-0.16992-0.37891-0.37988
			c0-0.08789,0.03418-0.18262,0.09473-0.25732c0.38672-0.48096,0.82617-0.76562,1.57227-0.76562
			c0.92773,0,1.56445,0.56934,1.56445,1.41602v0.01367c0,0.74512-0.39258,1.15186-1.23242,1.83594l-0.97656,0.81299h1.92383
			c0.2041,0,0.36621,0.1626,0.36621,0.36572c0,0.20361-0.16211,0.36572-0.36621,0.36572h-2.68945
			c-0.25684,0-0.44727-0.14893-0.44727-0.39258c0-0.1626,0.0752-0.29834,0.2168-0.41309H27.40039z"/>
	</g>
	<g id="g159">
		<path id="path151" fill="#1F1F1F" d="M162.60645,219.12793h-1.15137c-0.2168,0-0.38672-0.17627-0.38672-0.38623
			s0.16992-0.38623,0.38672-0.38623h3.15039c0.20996,0,0.37891,0.17627,0.37891,0.38623s-0.16895,0.38623-0.37891,0.38623h-1.1582
			v3.59082c0,0.22998-0.19043,0.41309-0.4209,0.41309c-0.22949,0-0.41992-0.18311-0.41992-0.41309V219.12793z"/>
		<path id="path153" fill="#1F1F1F" d="M165.98535,218.77539c0-0.2373,0.18262-0.41992,0.41992-0.41992h1.69434
			c0.5957,0,1.0625,0.17627,1.36816,0.47412c0.25098,0.25732,0.39258,0.60986,0.39258,1.02295v0.01367
			c0,0.75879-0.44043,1.21973-1.07715,1.41602l0.9082,1.14502c0.08105,0.10156,0.13477,0.18994,0.13477,0.31836
			c0,0.23047-0.19629,0.38623-0.39941,0.38623c-0.18945,0-0.31152-0.08789-0.40625-0.2168l-1.15137-1.47021h-1.05078v1.27393
			c0,0.22998-0.18262,0.41309-0.41309,0.41309c-0.2373,0-0.41992-0.18311-0.41992-0.41309V218.77539z M168.03809,220.70605
			c0.59668,0,0.97559-0.31152,0.97559-0.79248v-0.01318c0-0.5083-0.36621-0.78613-0.98242-0.78613h-1.21289v1.5918H168.03809z"/>
		<path id="path155" fill="#1F1F1F" d="M171.14355,218.73486c0-0.23047,0.18262-0.41357,0.41992-0.41357
			c0.23047,0,0.41309,0.18311,0.41309,0.41357v3.98389c0,0.22998-0.18262,0.41309-0.41309,0.41309
			c-0.2373,0-0.41992-0.18311-0.41992-0.41309V218.73486z"/>
		<path id="path157" fill="#1F1F1F" d="M173.2041,220.74023v-0.01367c0-1.32764,1.0166-2.45215,2.44629-2.45215
			c0.71094,0,1.18555,0.16895,1.61914,0.48047c0.08105,0.06152,0.16895,0.17676,0.16895,0.33887
			c0,0.22363-0.18262,0.41357-0.41309,0.41357c-0.1084,0-0.18945-0.04736-0.25781-0.09521
			c-0.30469-0.22363-0.63672-0.37207-1.15137-0.37207c-0.87402,0-1.53809,0.76514-1.53809,1.67285v0.01367
			c0,0.97559,0.64355,1.69385,1.6123,1.69385c0.44727,0,0.85352-0.14209,1.14551-0.35889v-0.8877h-0.93555
			c-0.20312,0-0.37305-0.15576-0.37305-0.35938c0-0.20312,0.16992-0.36523,0.37305-0.36523h1.32129
			c0.2373,0,0.41992,0.18262,0.41992,0.41992v1.2666c0,0.2373-0.09473,0.40674-0.29102,0.52832
			c-0.40723,0.27148-0.97559,0.51514-1.68652,0.51514C174.17969,223.1792,173.2041,222.12207,173.2041,220.74023z"/>
	</g>
	<g id="g171">
		<path id="path161" fill="#1F1F1F" d="M106.32324,260.82617v-0.0166c0-1.64404,1.26855-3.02148,3.06348-3.02148
			s3.04688,1.36084,3.04688,3.00488v0.0166c0,1.64453-1.26953,3.02148-3.06348,3.02148
			C107.5752,263.83105,106.32324,262.4707,106.32324,260.82617z M111.35645,260.82617v-0.0166
			c0-1.13525-0.82617-2.07812-1.98633-2.07812s-1.96973,0.92627-1.96973,2.06152v0.0166c0,1.13525,0.82617,2.06982,1.98633,2.06982
			S111.35645,261.96143,111.35645,260.82617z"/>
		<path id="path163" fill="#1F1F1F" d="M113.86328,258.40576c0-0.29199,0.22559-0.51758,0.51758-0.51758h3.40527
			c0.25879,0,0.46777,0.20898,0.46777,0.46777s-0.20898,0.46729-0.46777,0.46729h-2.89648v1.59424h2.52148
			c0.25879,0,0.4668,0.2085,0.4668,0.46729s-0.20801,0.46729-0.4668,0.46729h-2.52148v1.91162
			c0,0.28369-0.22461,0.50879-0.50879,0.50879c-0.29199,0-0.51758-0.2251-0.51758-0.50879
			C113.86329,263.26367,113.86329,258.40576,113.86328,258.40576z"/>
		<path id="path165" fill="#1F1F1F" d="M119.24805,263.08008c-0.11621-0.0835-0.2002-0.22559-0.2002-0.39258
			c0-0.26709,0.2168-0.47559,0.48438-0.47559c0.1416,0,0.2334,0.0415,0.30078,0.0918
			c0.4834,0.38379,1.00098,0.60107,1.63574,0.60107c0.63379,0,1.03516-0.30078,1.03516-0.73486v-0.0166
			c0-0.41699-0.23438-0.64258-1.31934-0.89307c-1.24316-0.30029-1.94434-0.66748-1.94434-1.74414v-0.01709
			c0-1.00146,0.83496-1.69434,1.99512-1.69434c0.73438,0,1.32617,0.19238,1.85254,0.54297
			c0.11719,0.06641,0.22559,0.2085,0.22559,0.40869c0,0.26709-0.21777,0.47559-0.48438,0.47559
			c-0.10059,0-0.18359-0.0249-0.26758-0.07471c-0.4502-0.29248-0.88379-0.44238-1.34375-0.44238
			c-0.60059,0-0.95117,0.30859-0.95117,0.69238v0.01709c0,0.45068,0.26758,0.65088,1.39355,0.91797
			c1.23535,0.30029,1.87012,0.74268,1.87012,1.71094v0.0166c0,1.09375-0.85938,1.74463-2.08691,1.74463
			c-0.79297,0-1.54395-0.25049-2.19531-0.73438H119.24805z"/>
		<path id="path167" fill="#1F1F1F" d="M126.31348,258.83984h-1.41895c-0.2666,0-0.47559-0.2168-0.47559-0.47559
			s0.20898-0.47607,0.47559-0.47607h3.88184c0.25879,0,0.4668,0.21729,0.4668,0.47607s-0.20801,0.47559-0.4668,0.47559h-1.42773
			v4.42383c0,0.28369-0.2334,0.50879-0.51758,0.50879c-0.2832,0-0.51758-0.2251-0.51758-0.50879
			C126.31348,263.26367,126.31348,258.83984,126.31348,258.83984z"/>
		<path id="path169" fill="#1F1F1F" d="M132.66895,262.73779l1.79492-1.52734c0.80078-0.67627,1.09277-1.05176,1.09277-1.57764
			c0-0.57617-0.40918-0.90967-0.94336-0.90967c-0.4668,0-0.79297,0.2168-1.15137,0.65088
			c-0.0752,0.0835-0.19238,0.15869-0.35938,0.15869c-0.25781,0-0.4668-0.2085-0.4668-0.46729
			c0-0.10889,0.04199-0.22559,0.11621-0.31738c0.47656-0.59277,1.01855-0.94336,1.93652-0.94336
			c1.14355,0,1.92871,0.70117,1.92871,1.74463v0.0166c0,0.91846-0.48438,1.41895-1.51953,2.26221l-1.20215,1.00146h2.37109
			c0.25,0,0.4502,0.2002,0.4502,0.45068s-0.2002,0.45068-0.4502,0.45068h-3.31348c-0.31738,0-0.55078-0.18359-0.55078-0.48389
			C132.40234,263.04639,132.49414,262.87939,132.66895,262.73779z"/>
	</g>
	<g id="g183">
		<path id="path173" fill="#1F1F1F" d="M156.93164,258.83936h-1.41895c-0.2666,0-0.47559-0.2168-0.47559-0.47559
			s0.20898-0.47607,0.47559-0.47607h3.88184c0.25879,0,0.4668,0.21729,0.4668,0.47607s-0.20801,0.47559-0.4668,0.47559h-1.42773
			v4.42383c0,0.28369-0.2334,0.50879-0.51758,0.50879c-0.2832,0-0.51758-0.2251-0.51758-0.50879V258.83936z"/>
		<path id="path175" fill="#1F1F1F" d="M161.02441,258.35547c0-0.28418,0.22559-0.50928,0.51758-0.50928
			c0.28418,0,0.50879,0.2251,0.50879,0.50928v1.96143h2.78809v-1.96143c0-0.28418,0.22559-0.50928,0.50977-0.50928
			c0.29199,0,0.5166,0.2251,0.5166,0.50928v4.90771c0,0.28369-0.22461,0.50879-0.5166,0.50879
			c-0.28418,0-0.50977-0.2251-0.50977-0.50879v-1.99512h-2.78809v1.99512c0,0.28369-0.22461,0.50879-0.50879,0.50879
			c-0.29199,0-0.51758-0.2251-0.51758-0.50879V258.35547z"/>
		<path id="path177" fill="#1F1F1F" d="M167.59863,258.40527c0-0.29199,0.22559-0.51758,0.51758-0.51758h2.08691
			c0.73438,0,1.31055,0.21729,1.68555,0.58447c0.30957,0.31689,0.48438,0.75098,0.48438,1.26025v0.0166
			c0,0.93506-0.54297,1.50244-1.32715,1.74463l1.11816,1.41064c0.10059,0.125,0.16699,0.2334,0.16699,0.39209
			c0,0.28369-0.24219,0.47559-0.49219,0.47559c-0.2334,0-0.38379-0.1084-0.50098-0.26709l-1.41895-1.81104H168.625v1.56934
			c0,0.28369-0.22461,0.50879-0.50879,0.50879c-0.29199,0-0.51758-0.2251-0.51758-0.50879V258.40527z M170.12793,260.78418
			c0.73438,0,1.20215-0.38379,1.20215-0.97656v-0.0166c0-0.62598-0.45117-0.96826-1.21094-0.96826H168.625v1.96143H170.12793z"/>
		<path id="path179" fill="#1F1F1F" d="M173.85352,263.21289v-4.80762c0-0.29199,0.22559-0.51758,0.51758-0.51758h3.39746
			c0.25,0,0.45898,0.20898,0.45898,0.45947c0,0.2583-0.20898,0.45898-0.45898,0.45898h-2.88867v1.51904h2.5127
			c0.25098,0,0.45898,0.2085,0.45898,0.46729c0,0.25049-0.20801,0.45068-0.45898,0.45068h-2.5127v1.56934h2.92969
			c0.25098,0,0.45996,0.2085,0.45996,0.45898c0,0.25879-0.20898,0.45898-0.45996,0.45898h-3.43848
			C174.0791,263.73047,173.85352,263.50488,173.85352,263.21289z"/>
		<path id="path181" fill="#1F1F1F" d="M179.46973,263.07959c-0.11621-0.0835-0.2002-0.22559-0.2002-0.39258
			c0-0.26709,0.2168-0.47559,0.48438-0.47559c0.1416,0,0.2334,0.0415,0.30078,0.0918
			c0.4834,0.38379,1.00098,0.60107,1.63574,0.60107c0.63379,0,1.03516-0.30078,1.03516-0.73486v-0.0166
			c0-0.41699-0.23438-0.64258-1.31934-0.89307c-1.24316-0.30029-1.94434-0.66748-1.94434-1.74414v-0.01709
			c0-1.00146,0.83496-1.69434,1.99512-1.69434c0.73438,0,1.32617,0.19238,1.85254,0.54297
			c0.11719,0.06641,0.22559,0.2085,0.22559,0.40869c0,0.26709-0.21777,0.47559-0.48438,0.47559
			c-0.10059,0-0.18359-0.0249-0.26758-0.07471c-0.4502-0.29248-0.88379-0.44238-1.34375-0.44238
			c-0.60059,0-0.95117,0.30859-0.95117,0.69238v0.01709c0,0.45068,0.26758,0.65088,1.39355,0.91797
			c1.23535,0.30029,1.87012,0.74268,1.87012,1.71094v0.0166c0,1.09375-0.85938,1.74463-2.08691,1.74463
			C180.87207,263.81396,180.12109,263.56348,179.46973,263.07959z"/>
	</g>
	<g id="g193">
		<path id="path185" fill="#1F1F1F" d="M17.00195,258.83936H15.583c-0.2666,0-0.47559-0.2168-0.47559-0.47559
			s0.20898-0.47607,0.47559-0.47607h3.88184c0.25879,0,0.4668,0.21729,0.4668,0.47607s-0.20801,0.47559-0.4668,0.47559h-1.42773
			v4.42383c0,0.28369-0.2334,0.50879-0.51758,0.50879c-0.2832,0-0.51758-0.2251-0.51758-0.50879V258.83936z"/>
		<path id="path187" fill="#1F1F1F" d="M21.125,258.35547c0-0.28418,0.22559-0.50928,0.51758-0.50928
			c0.28418,0,0.50879,0.2251,0.50879,0.50928v4.90771c0,0.28369-0.22461,0.50879-0.50879,0.50879
			c-0.29199,0-0.51758-0.2251-0.51758-0.50879C21.125,263.26318,21.125,258.35547,21.125,258.35547z"/>
		<path id="path189" fill="#1F1F1F" d="M23.90332,258.37207c0-0.28369,0.22559-0.51758,0.51758-0.51758h0.1084
			c0.22559,0,0.37598,0.1167,0.47559,0.27539l1.76953,2.771l1.77832-2.7793c0.1084-0.17529,0.25879-0.26709,0.4668-0.26709h0.10938
			c0.29199,0,0.5166,0.23389,0.5166,0.51758v4.89111c0,0.28369-0.22461,0.50879-0.5166,0.50879
			c-0.27539,0-0.50977-0.2334-0.50977-0.50879v-3.50586l-1.42676,2.14502c-0.1084,0.16699-0.24219,0.26709-0.43457,0.26709
			c-0.18359,0-0.31738-0.1001-0.42578-0.26709l-1.41895-2.12793v3.49707c0,0.28369-0.22461,0.50049-0.50879,0.50049
			s-0.50098-0.2168-0.50098-0.50049C23.90332,263.27148,23.90332,258.37207,23.90332,258.37207z"/>
		<path id="path191" fill="#1F1F1F" d="M31.38379,263.21289v-4.80762c0-0.29199,0.22559-0.51758,0.51758-0.51758h3.39746
			c0.25,0,0.45898,0.20898,0.45898,0.45947c0,0.2583-0.20898,0.45898-0.45898,0.45898h-2.88867v1.51904h2.5127
			c0.25,0,0.45898,0.2085,0.45898,0.46729c0,0.25049-0.20898,0.45068-0.45898,0.45068h-2.5127v1.56934h2.92969
			c0.25098,0,0.45996,0.2085,0.45996,0.45898c0,0.25879-0.20898,0.45898-0.45996,0.45898h-3.43848
			C31.60938,263.73047,31.38379,263.50488,31.38379,263.21289z"/>
	</g>
	<g id="g201">
		<path id="path195" fill="#1F1F1F" d="M19.96191,314.54736c0-0.23047,0.18262-0.41357,0.41992-0.41357
			c0.23047,0,0.41309,0.18311,0.41309,0.41357v3.98389c0,0.22998-0.18262,0.41309-0.41309,0.41309
			c-0.2373,0-0.41992-0.18311-0.41992-0.41309V314.54736z"/>
		<path id="path197" fill="#1F1F1F" d="M22.27148,314.56104c0-0.23047,0.18262-0.42041,0.41992-0.42041h0.08789
			c0.20312,0,0.31836,0.10156,0.43359,0.24414l2.37109,3.06934v-2.91357c0-0.22363,0.18359-0.40674,0.40625-0.40674
			c0.23047,0,0.41406,0.18311,0.41406,0.40674v3.98389c0,0.23047-0.17578,0.41309-0.40625,0.41309h-0.03418
			c-0.19629,0-0.31836-0.10156-0.43359-0.25098l-2.43945-3.15674v3.0083c0,0.22314-0.18262,0.40625-0.40625,0.40625
			c-0.23047,0-0.41309-0.18311-0.41309-0.40625C22.27147,318.53809,22.27147,314.56104,22.27148,314.56104z"/>
		<path id="path199" fill="#1F1F1F" d="M30.25879,314.9541l-0.4873,0.14893c-0.04785,0.01318-0.10938,0.02002-0.14941,0.02002
			c-0.19629,0-0.36621-0.16211-0.36621-0.35205c0-0.17627,0.1084-0.31201,0.27734-0.35889l0.71875-0.23047
			c0.16211-0.04785,0.28418-0.07471,0.40625-0.07471h0.01367c0.2373,0,0.41309,0.18311,0.41309,0.41357v4.01074
			c0,0.22998-0.18262,0.41309-0.41309,0.41309c-0.22363,0-0.41309-0.18311-0.41309-0.41309
			C30.25879,318.53125,30.25879,314.9541,30.25879,314.9541z"/>
	</g>
	<g id="g211">
		<path id="path203" fill="#F0F0F0" d="M51.58008,316.61035v-0.01367c0-1.34814,1.06445-2.45215,2.52734-2.45215
			c1.46387,0,2.51367,1.09082,2.51367,2.43848v0.01367c0,1.34863-1.06348,2.45264-2.52734,2.45264
			C52.63086,319.04932,51.58008,317.9585,51.58008,316.61035z M55.53028,316.61035v-0.01367
			c0-0.81299-0.59668-1.49023-1.43652-1.49023s-1.42285,0.66406-1.42285,1.47656v0.01367c0,0.81299,0.59668,1.49072,1.43652,1.49072
			S55.53028,317.42334,55.53028,316.61035z"/>
		<path id="path205" fill="#F0F0F0" d="M57.69922,316.93555v-2.229c0-0.2915,0.23047-0.52148,0.52148-0.52148
			c0.29199,0,0.52246,0.22998,0.52246,0.52148v2.20166c0,0.77246,0.38574,1.17236,1.02246,1.17236s1.02344-0.38623,1.02344-1.13818
			v-2.23584c0-0.2915,0.23047-0.52148,0.52148-0.52148s0.52148,0.22998,0.52148,0.52148v2.19482
			c0,1.43652-0.80664,2.14111-2.08008,2.14111S57.69921,318.33105,57.69922,316.93555z"/>
		<path id="path207" fill="#F0F0F0" d="M64.18457,315.1875h-1.00293c-0.26465,0-0.48145-0.2168-0.48145-0.48096
			s0.2168-0.48096,0.48145-0.48096h3.04883c0.26367,0,0.48047,0.2168,0.48047,0.48096s-0.2168,0.48096-0.48047,0.48096h-1.00293
			v3.2998c0,0.29102-0.23047,0.52148-0.52148,0.52148s-0.52148-0.23047-0.52148-0.52148v-3.2998H64.18457z"/>
		<path id="path209" fill="#F0F0F0" d="M70.14551,315.21484l-0.36621,0.09473c-0.05469,0.01367-0.12891,0.02734-0.18262,0.02734
			c-0.24414,0-0.4541-0.20361-0.4541-0.44727c0-0.20996,0.13574-0.38623,0.3457-0.44727l0.66992-0.19629
			c0.19727-0.05469,0.3457-0.08838,0.48828-0.08838h0.01367c0.28418,0,0.51465,0.23047,0.51465,0.51514v3.8208
			c0,0.28467-0.23047,0.51514-0.51465,0.51514c-0.28516,0-0.51465-0.23047-0.51465-0.51514V315.21484z"/>
	</g>
	<g id="g219">
		<path id="path213" fill="#1F1F1F" d="M91.21191,314.54736c0-0.23047,0.18262-0.41357,0.41992-0.41357
			c0.23047,0,0.41309,0.18311,0.41309,0.41357v3.98389c0,0.22998-0.18262,0.41309-0.41309,0.41309
			c-0.2373,0-0.41992-0.18311-0.41992-0.41309V314.54736z"/>
		<path id="path215" fill="#1F1F1F" d="M93.52148,314.56104c0-0.23047,0.18262-0.42041,0.41992-0.42041h0.08789
			c0.20312,0,0.31836,0.10156,0.43359,0.24414l2.37109,3.06934v-2.91357c0-0.22363,0.18359-0.40674,0.40625-0.40674
			c0.23047,0,0.41406,0.18311,0.41406,0.40674v3.98389c0,0.23047-0.17676,0.41309-0.40723,0.41309h-0.03418
			c-0.19531,0-0.31836-0.10156-0.43359-0.25098l-2.43848-3.15674v3.0083c0,0.22314-0.18262,0.40625-0.40625,0.40625
			c-0.23047,0-0.41309-0.18311-0.41309-0.40625v-3.97705H93.52148z"/>
		<path id="path217" fill="#1F1F1F" d="M100.81055,318.10449l1.45703-1.24023c0.65039-0.54883,0.88672-0.85352,0.88672-1.28027
			c0-0.46777-0.33203-0.73828-0.76562-0.73828c-0.37891,0-0.64258,0.17578-0.93457,0.52832
			c-0.06055,0.06738-0.15527,0.12891-0.29102,0.12891c-0.20996,0-0.37988-0.16992-0.37988-0.37988
			c0-0.08789,0.03418-0.18262,0.0957-0.25732c0.38574-0.48096,0.82617-0.76562,1.57129-0.76562
			c0.92871,0,1.56543,0.56934,1.56543,1.41602v0.01367c0,0.74512-0.39355,1.15186-1.2334,1.83594l-0.97559,0.81299h1.92383
			c0.20312,0,0.36621,0.1626,0.36621,0.36572c0,0.20361-0.16309,0.36572-0.36621,0.36572h-2.68945
			c-0.25781,0-0.44727-0.14893-0.44727-0.39258c0-0.1626,0.07422-0.29834,0.2168-0.41309H100.81055z"/>
	</g>
	<g id="g229">
		<path id="path221" fill="#1F1F1F" d="M162.6084,314.93896h-1.15137c-0.2168,0-0.38672-0.17627-0.38672-0.38623
			s0.16992-0.38574,0.38672-0.38574h3.15039c0.20996,0,0.37891,0.17578,0.37891,0.38574s-0.16895,0.38623-0.37891,0.38623h-1.1582
			v3.59082c0,0.23047-0.19043,0.41357-0.4209,0.41357c-0.22949,0-0.41992-0.18311-0.41992-0.41357V314.93896z"/>
		<path id="path223" fill="#1F1F1F" d="M165.9873,314.58691c0-0.2373,0.18262-0.41992,0.41992-0.41992h1.69434
			c0.5957,0,1.0625,0.17578,1.36816,0.47412c0.25098,0.25732,0.39258,0.60986,0.39258,1.02295v0.01367
			c0,0.75879-0.44043,1.21924-1.07715,1.41602l0.9082,1.14453c0.08105,0.10156,0.13477,0.18994,0.13477,0.31836
			c0,0.23047-0.19629,0.38672-0.39941,0.38672c-0.18945,0-0.31152-0.08838-0.40625-0.2168l-1.15137-1.4707h-1.05078v1.27393
			c0,0.23047-0.18262,0.41357-0.41309,0.41357c-0.2373,0-0.41992-0.18311-0.41992-0.41357V314.58691z M168.04004,316.51758
			c0.59668,0,0.97559-0.31152,0.97559-0.79248v-0.01367c0-0.5083-0.36621-0.78564-0.98242-0.78564h-1.21289v1.5918H168.04004z"/>
		<path id="path225" fill="#1F1F1F" d="M171.14551,314.5459c0-0.22998,0.18262-0.41309,0.41992-0.41309
			c0.23047,0,0.41309,0.18311,0.41309,0.41309v3.98389c0,0.23047-0.18262,0.41357-0.41309,0.41357
			c-0.2373,0-0.41992-0.18311-0.41992-0.41357V314.5459z"/>
		<path id="path227" fill="#1F1F1F" d="M173.20605,316.55176v-0.01367c0-1.32812,1.0166-2.45264,2.44629-2.45264
			c0.71094,0,1.18555,0.16943,1.61914,0.48096c0.08105,0.06104,0.16895,0.17627,0.16895,0.33887
			c0,0.22363-0.18262,0.41309-0.41309,0.41309c-0.1084,0-0.18945-0.04736-0.25781-0.09473
			c-0.30469-0.22363-0.63672-0.37256-1.15137-0.37256c-0.87402,0-1.53809,0.76562-1.53809,1.67334v0.01367
			c0,0.97559,0.64355,1.69336,1.6123,1.69336c0.44727,0,0.85352-0.14209,1.14551-0.35889v-0.88721h-0.93555
			c-0.20312,0-0.37305-0.15625-0.37305-0.35938s0.16992-0.36572,0.37305-0.36572h1.32129c0.2373,0,0.41992,0.18311,0.41992,0.41992
			v1.26709c0,0.2373-0.09473,0.40625-0.29102,0.52832c-0.40723,0.271-0.97559,0.51465-1.68652,0.51465
			C174.18164,318.99023,173.20605,317.93359,173.20605,316.55176z"/>
	</g>
	<g id="g239">
		<path id="path231" fill="#F0F0F0" d="M122.88477,316.61035v-0.01367c0-1.34814,1.06445-2.45215,2.52734-2.45215
			c1.46387,0,2.51367,1.09082,2.51367,2.43848v0.01367c0,1.34863-1.06348,2.45264-2.52734,2.45264
			C123.93555,319.04932,122.88477,317.9585,122.88477,316.61035z M126.83595,316.61035v-0.01367
			c0-0.81299-0.59766-1.49023-1.4375-1.49023s-1.42188,0.66406-1.42188,1.47656v0.01367c0,0.81299,0.5957,1.49072,1.43555,1.49072
			S126.83594,317.42334,126.83595,316.61035z"/>
		<path id="path233" fill="#F0F0F0" d="M129.00391,316.93555v-2.229c0-0.2915,0.23047-0.52148,0.52148-0.52148
			c0.29199,0,0.52246,0.22998,0.52246,0.52148v2.20166c0,0.77246,0.38574,1.17236,1.02246,1.17236s1.02344-0.38623,1.02344-1.13818
			v-2.23584c0-0.2915,0.23047-0.52148,0.52148-0.52148s0.52148,0.22998,0.52148,0.52148v2.19482
			c0,1.43652-0.80664,2.14111-2.08008,2.14111S129.00391,318.33105,129.00391,316.93555z"/>
		<path id="path235" fill="#F0F0F0" d="M135.48926,315.1875h-1.00293c-0.26367,0-0.48047-0.2168-0.48047-0.48096
			s0.2168-0.48096,0.48047-0.48096h3.04883c0.26367,0,0.48047,0.2168,0.48047,0.48096s-0.2168,0.48096-0.48047,0.48096h-1.00195
			v3.2998c0,0.29102-0.23047,0.52148-0.52148,0.52148c-0.29199,0-0.52246-0.23047-0.52246-0.52148V315.1875z"/>
		<path id="path237" fill="#F0F0F0" d="M140.80664,317.95166l1.34766-1.104c0.58984-0.48145,0.82031-0.74512,0.82031-1.13867
			c0-0.39941-0.26367-0.61621-0.63672-0.61621c-0.29883,0-0.50781,0.12891-0.77246,0.41309
			c-0.06738,0.07471-0.19043,0.14941-0.35254,0.14941c-0.26367,0-0.47461-0.20996-0.47461-0.47461
			c0-0.11523,0.04785-0.23682,0.12305-0.3252c0.37891-0.44043,0.82617-0.69775,1.54395-0.69775
			c0.98242,0,1.63281,0.57568,1.63281,1.46338v0.01367c0,0.79297-0.40723,1.18555-1.24707,1.83594l-0.77148,0.59619h1.65234
			c0.25098,0,0.4541,0.20361,0.4541,0.4541s-0.20312,0.44678-0.4541,0.44678h-2.57422c-0.3252,0-0.5625-0.18262-0.5625-0.49414
			C140.53516,318.27051,140.63086,318.09375,140.80664,317.95166z"/>
	</g>
	<g id="g251">
		<path id="path241" fill="#1F1F1F" d="M59.80469,213.19287v-0.0166c0-1.63574,1.25195-3.02148,3.01367-3.02148
			c0.87598,0,1.45996,0.20898,1.99414,0.59277c0.10059,0.0752,0.20898,0.2168,0.20898,0.41748
			c0,0.27539-0.22559,0.50879-0.50879,0.50879c-0.13379,0-0.23438-0.05811-0.31738-0.1167
			c-0.37598-0.27539-0.78418-0.45898-1.41895-0.45898c-1.07715,0-1.89453,0.94287-1.89453,2.06152v0.0166
			c0,1.20215,0.79297,2.08691,1.98633,2.08691c0.55078,0,1.05176-0.17529,1.41016-0.44238v-1.09375h-1.15137
			c-0.25,0-0.45898-0.19189-0.45898-0.44238c0-0.25,0.20898-0.45068,0.45898-0.45068h1.62793
			c0.29199,0,0.5166,0.22559,0.5166,0.51758v1.56104c0,0.29199-0.11621,0.50049-0.3584,0.65088
			c-0.50098,0.33398-1.20215,0.63428-2.07812,0.63428C61.00684,216.19775,59.80469,214.89551,59.80469,213.19287z"/>
		<path id="path243" fill="#1F1F1F" d="M66.37598,215.42969l2.1709-4.84082c0.11621-0.25879,0.3252-0.41748,0.61719-0.41748h0.0498
			c0.29199,0,0.49316,0.15869,0.60938,0.41748l2.16992,4.84082c0.04199,0.0752,0.05859,0.15039,0.05859,0.21729
			c0,0.27539-0.20801,0.49219-0.48438,0.49219c-0.24121,0-0.4082-0.1416-0.5-0.35889l-0.47559-1.09326h-2.83789l-0.49316,1.12695
			c-0.08301,0.2085-0.25879,0.3252-0.47559,0.3252c-0.2666,0-0.47559-0.2085-0.47559-0.47559
			c0-0.0752,0.02539-0.15039,0.06641-0.23389H66.37598z M70.19922,213.77734l-1.02637-2.3623l-1.02734,2.3623H70.19922z"/>
		<path id="path245" fill="#1F1F1F" d="M73.28418,210.72266c0-0.28418,0.22559-0.50928,0.51758-0.50928
			c0.28418,0,0.50879,0.2251,0.50879,0.50928v4.90771c0,0.28369-0.22461,0.50879-0.50879,0.50879
			c-0.29199,0-0.51758-0.2251-0.51758-0.50879V210.72266z"/>
		<path id="path247" fill="#1F1F1F" d="M76.06152,210.73926c0-0.28369,0.22559-0.51758,0.51758-0.51758h0.1084
			c0.25098,0,0.39258,0.125,0.53418,0.30029l2.92188,3.78125v-3.58887c0-0.27588,0.22461-0.50098,0.5-0.50098
			c0.28418,0,0.50977,0.2251,0.50977,0.50098v4.90771c0,0.28369-0.2168,0.50879-0.50098,0.50879h-0.04199
			c-0.24219,0-0.3916-0.125-0.53418-0.30859l-3.00488-3.88965v3.70605c0,0.27539-0.22461,0.50049-0.5,0.50049
			c-0.28418,0-0.50977-0.2251-0.50977-0.50049C76.06153,215.63867,76.06153,210.73926,76.06152,210.73926z"/>
		<path id="path249" fill="#1F1F1F" d="M85.89746,211.22314l-0.60059,0.18359c-0.05859,0.01709-0.13379,0.02539-0.18359,0.02539
			c-0.24219,0-0.45117-0.20068-0.45117-0.43408c0-0.21729,0.13379-0.38428,0.34277-0.44238l0.88477-0.28369
			c0.2002-0.05859,0.35059-0.0918,0.50098-0.0918h0.0166c0.29199,0,0.50879,0.2251,0.50879,0.50879v4.94141
			c0,0.28369-0.22559,0.50879-0.50879,0.50879c-0.27539,0-0.50977-0.2251-0.50977-0.50879
			C85.89745,215.63037,85.89745,211.22314,85.89746,211.22314z"/>
	</g>
</g>
<g id="uuid-01687cb8-7441-45ec-98e1-245f9b20292f" inkscape:groupmode="layer" display="none">
	<circle id="uuid-e9f982fb-2414-43cb-9c46-31dd417c22f3" display="inline" fill="#FF0000" cx="25.52119" cy="238" r="5"/>
	<circle id="uuid-0e696d93-9562-4857-865b-1ab1ebc29583" display="inline" fill="#FF0000" cx="169.47881" cy="237.75993" r="5"/>
	<circle id="uuid-ac818d73-593e-47ac-a73a-0468a40d11b6" display="inline" fill="#00FF00" cx="25.52119" cy="334" r="5"/>
	<circle id="uuid-31465d9b-7446-49a6-923d-bf2d4f2ff800" display="inline" fill="#00FF00" cx="169.47881" cy="334" r="5"/>
	<circle id="uuid-cae7cb64-b9d2-4491-a6b2-1bbe8644b71e" display="inline" fill="#0000FF" cx="133.50073" cy="334" r="5"/>
	<circle id="uuid-ca0ee116-dd43-4274-a871-e021c37688d9" display="inline" fill="#00FF00" cx="97.50755" cy="334" r="5"/>
	<circle id="uuid-9f6aaa20-2e2d-4157-ac7e-322d135a42a1" display="inline" fill="#0000FF" cx="61.51437" cy="334" r="5"/>
	<circle id="uuid-fc739517-3f69-49b2-bc2b-9b7bc3d5fd8a" display="inline" fill="#FF0000" cx="121.49648" cy="285.87146" r="5"/>
	<circle id="uuid-ab39d8e8-140e-432a-bb9c-0c335ce60cca" display="inline" fill="#FF0000" cx="25.52119" cy="285.88263" r="5"/>
	<circle id="uuid-02c82747-e2a9-449f-a615-e4803e54047f" display="inline" fill="#FF0000" cx="73.51584" cy="285.79443" r="5"/>
	<circle id="uuid-cac4d032-60a6-4a44-a4f3-589a138067c5" display="inline" fill="#FF0000" cx="121.49648" cy="237.84641" r="5"/>
	<circle id="uuid-b89b9fb9-3f2e-4ffc-a858-490ee0fd20ef" display="inline" fill="#FF0000" cx="73.51584" cy="237.84641" r="5"/>
	<circle id="uuid-598b36ab-02d4-4246-84c2-bbff6f9dda2e" display="inline" fill="#FF0000" cx="169.47881" cy="285.87146" r="5"/>
	
		<rect id="uuid-c451808c-f8de-4d15-a4dc-10dce1838ce1" x="0.00004" y="38.5" display="inline" fill="#FFFF00" width="194.99995" height="165"/>
</g>
</svg>
