<?xml version="1.0" encoding="UTF-8" standalone="no"?>
<!-- Created with Inkscape (http://www.inkscape.org/) -->

<svg
   xmlns:dc="http://purl.org/dc/elements/1.1/"
   xmlns:cc="http://creativecommons.org/ns#"
   xmlns:rdf="http://www.w3.org/1999/02/22-rdf-syntax-ns#"
   xmlns:svg="http://www.w3.org/2000/svg"
   xmlns="http://www.w3.org/2000/svg"
   xmlns:sodipodi="http://sodipodi.sourceforge.net/DTD/sodipodi-0.dtd"
   xmlns:inkscape="http://www.inkscape.org/namespaces/inkscape"
   width="87.444527mm"
   height="100.54166mm"
   viewBox="0 0 87.444527 100.54168"
   version="1.1"
   id="svg4541"
   sodipodi:docname="SEQ3.svg"
   inkscape:version="0.92.2 5c3e80d, 2017-08-06">
  <defs
     id="defs4535" />
  <sodipodi:namedview
     id="base"
     pagecolor="#ffffff"
     bordercolor="#666666"
     borderopacity="1.0"
     inkscape:pageopacity="0.0"
     inkscape:pageshadow="2"
     inkscape:zoom="0.98994949"
     inkscape:cx="41.248443"
     inkscape:cy="139.75485"
     inkscape:document-units="mm"
     inkscape:current-layer="g13539"
     showgrid="false"
     fit-margin-top="0"
     fit-margin-left="0"
     fit-margin-right="0"
     fit-margin-bottom="0"
     inkscape:window-width="1600"
     inkscape:window-height="882"
     inkscape:window-x="0"
     inkscape:window-y="18"
     inkscape:window-maximized="0" />
  <metadata
     id="metadata4538">
    <rdf:RDF>
      <cc:Work
         rdf:about="">
        <dc:format>image/svg+xml</dc:format>
        <dc:type
           rdf:resource="http://purl.org/dc/dcmitype/StillImage" />
        <dc:title></dc:title>
      </cc:Work>
    </rdf:RDF>
  </metadata>
  <g
     inkscape:label="Layer 1"
     inkscape:groupmode="layer"
     id="layer1"
     transform="translate(36.687896,-107.67836)">
    <g
       transform="matrix(0.27602379,0,0,0.27602379,354.09618,57.736346)"
       id="g13122"
       style="stroke-width:0.9585526">
      <g
         transform="translate(-167.07644,-20.557569)"
         id="g13178"
         style="stroke-width:0.91882312">
        <g
           transform="translate(-99.2314,6.0949065)"
           id="g13224"
           style="stroke-width:0.88074034">
          <g
             transform="translate(-315.65411,137.78158)"
             id="g13271"
             style="stroke-width:0.84423596">
            <g
               transform="translate(-332.2261,26.059316)"
               id="g13383"
               style="stroke-width:0.80924457">
              <g
                 transform="translate(-188.93134,0.28519852)"
                 id="g13452"
                 style="stroke-width:0.77570349">
                <g
                   id="g13539"
                   transform="translate(-312.64291,31.270301)"
                   style="stroke-width:0.74355263">
                  <path
                     style="fill:#e6e6e6;fill-opacity:1;fill-rule:nonzero;stroke:none;stroke-width:0.74355263"
                     d="M 0.2656,0.265625 H 316.5351 V 363.98828 H 0.2656 Z m 0,0"
                     id="path25077"
                     inkscape:connector-curvature="0" />
                  <path
                     inkscape:connector-curvature="0"
                     id="path11022"
                     d="m 143.14791,27.23877 c 1.8125,0 3.07812,-0.9375 3.07812,-2.609375 v -0.03125 c 0,-1.453125 -0.95312,-2.0625 -2.65625,-2.515625 -1.45312,-0.375 -1.8125,-0.546875 -1.8125,-1.09375 v -0.03125 c 0,-0.40625 0.35938,-0.734375 1.07813,-0.734375 0.57812,0 1.15625,0.203125 1.76562,0.5625 0.14063,0.09375 0.28125,0.140625 0.46875,0.140625 0.46875,0 0.85938,-0.375 0.85938,-0.859375 0,-0.359375 -0.20313,-0.609375 -0.40625,-0.734375 -0.76563,-0.46875 -1.64063,-0.734375 -2.67188,-0.734375 -1.71875,0 -2.9375,1 -2.9375,2.53125 v 0.01563 c 0,1.671875 1.09375,2.140625 2.78125,2.578125 1.40625,0.359375 1.70313,0.59375 1.70313,1.0625 v 0.03125 c 0,0.484375 -0.46875,0.78125 -1.21875,0.78125 -0.8125,0 -1.51563,-0.28125 -2.14063,-0.75 -0.125,-0.09375 -0.29687,-0.171875 -0.53125,-0.171875 -0.48437,0 -0.875,0.375 -0.875,0.859375 0,0.28125 0.15625,0.546875 0.35938,0.6875 0.9375,0.671875 2.04687,1.015625 3.15625,1.015625 z m 0,0"
                     style="fill:#000000;fill-opacity:1;stroke:none;stroke-width:0.74355263" />
                  <path
                     inkscape:connector-curvature="0"
                     id="path11018"
                     d="m 148.89144,27.11377 h 4.70312 c 0.46875,0 0.82813,-0.359375 0.82813,-0.8125 0,-0.453125 -0.35938,-0.828125 -0.82813,-0.828125 h -3.79687 V 23.70752 h 3.20312 c 0.45313,0 0.82813,-0.359375 0.82813,-0.8125 0,-0.46875 -0.375,-0.828125 -0.82813,-0.828125 h -3.20312 V 20.36377 h 3.75 c 0.45312,0 0.82812,-0.359375 0.82812,-0.828125 0,-0.453125 -0.375,-0.828125 -0.82812,-0.828125 h -4.65625 c -0.51563,0 -0.92188,0.421875 -0.92188,0.9375 v 6.546875 c 0,0.515625 0.40625,0.921875 0.92188,0.921875 z m 0,0"
                     style="fill:#000000;fill-opacity:1;stroke:none;stroke-width:0.74355263" />
                  <path
                     inkscape:connector-curvature="0"
                     id="path11014"
                     d="m 160.00362,27.254395 c 0.9375,0 1.78125,-0.265625 2.48437,-0.71875 l 0.46875,0.40625 c 0.14063,0.140625 0.35938,0.25 0.60938,0.25 0.46875,0 0.85937,-0.390625 0.85937,-0.875 0,-0.296875 -0.14062,-0.515625 -0.32812,-0.6875 l -0.375,-0.296875 c 0.46875,-0.703125 0.75,-1.53125 0.75,-2.421875 v -0.01563 c 0,-2.390625 -1.85938,-4.328125 -4.45313,-4.328125 -2.59375,0 -4.46875,1.953125 -4.46875,4.34375 v 0.03125 c 0,2.390625 1.85938,4.3125 4.45313,4.3125 z m 0.25,-2.671875 0.875,0.75 c -0.32813,0.15625 -0.70313,0.21875 -1.10938,0.21875 -1.48437,0 -2.54687,-1.203125 -2.54687,-2.640625 v -0.01563 c 0,-1.4375 1.03125,-2.625 2.53125,-2.625 1.48437,0 2.53125,1.203125 2.53125,2.640625 v 0.03125 c 0,0.421875 -0.0781,0.8125 -0.21875,1.140625 l -0.92188,-0.828125 c -0.20312,-0.15625 -0.35937,-0.25 -0.60937,-0.25 -0.48438,0 -0.875,0.40625 -0.875,0.875 0,0.3125 0.14062,0.53125 0.34375,0.703125 z m 0,0"
                     style="fill:#000000;fill-opacity:1;stroke:none;stroke-width:0.74355263" />
                  <path
                     inkscape:connector-curvature="0"
                     id="path11010"
                     d="m 166.9565,24.27002 h 2.07812 c 0.48438,0 0.89063,-0.390625 0.89063,-0.875 0,-0.484375 -0.40625,-0.875 -0.89063,-0.875 h -2.07812 c -0.48438,0 -0.875,0.390625 -0.875,0.875 0,0.484375 0.39062,0.875 0.875,0.875 z m 0,0"
                     style="fill:#000000;fill-opacity:1;stroke:none;stroke-width:0.74355263" />
                  <path
                     inkscape:connector-curvature="0"
                     id="path11006"
                     d="m 173.93464,27.254395 c 1.875,0 3.01563,-1.15625 3.01563,-2.75 v -0.01563 c 0,-1.5625 -1.10938,-2.15625 -2.25,-2.359375 l 1.64062,-1.5625 c 0.34375,-0.328125 0.5625,-0.578125 0.5625,-1.03125 0,-0.515625 -0.40625,-0.828125 -0.9375,-0.828125 h -4.09375 c -0.4375,0 -0.79687,0.359375 -0.79687,0.796875 0,0.4375 0.35937,0.796875 0.79687,0.796875 h 2.57813 l -1.64063,1.640625 c -0.28125,0.28125 -0.39062,0.5 -0.39062,0.75 0,0.4375 0.35937,0.796875 0.79687,0.796875 h 0.28125 c 1.03125,0 1.64063,0.390625 1.64063,1.0625 v 0.03125 c 0,0.625 -0.48438,1.015625 -1.1875,1.015625 -0.65625,0 -1.15625,-0.21875 -1.64063,-0.625 -0.14062,-0.109375 -0.32812,-0.21875 -0.57812,-0.21875 -0.48438,0 -0.89063,0.40625 -0.89063,0.890625 0,0.25 0.14063,0.515625 0.3125,0.65625 0.67188,0.578125 1.57813,0.953125 2.78125,0.953125 z m 0,0"
                     style="fill:#000000;fill-opacity:1;stroke:none;stroke-width:0.74355263" />
                  <path
                     style="fill:none;stroke:#000000;stroke-width:0.47927633;stroke-linecap:round;stroke-linejoin:round;stroke-miterlimit:10;stroke-opacity:1"
                     d="M 18.0859,127.82422 H 298.7148"
                     id="path27449"
                     inkscape:connector-curvature="0" />
                  <path
                     style="fill:#000000;fill-opacity:1;fill-rule:nonzero;stroke:none;stroke-width:0.74355263"
                     d="m 150.5976,352.50781 c -0.332,0 -0.6367,-0.1875 -0.7812,-0.48437 l -2.8438,-5.6836 c -0.2148,-0.42968 -0.039,-0.95703 0.3906,-1.17187 0.4336,-0.21484 0.9571,-0.0391 1.1758,0.39062 l 2.0586,4.1211 2.0586,-4.1211 c 0.2149,-0.42968 0.7422,-0.60546 1.1719,-0.39062 0.4336,0.21484 0.6055,0.74219 0.3906,1.17187 l -2.8398,5.6836 c -0.1485,0.29687 -0.4532,0.48437 -0.7813,0.48437"
                     id="path27727"
                     inkscape:connector-curvature="0" />
                  <path
                     style="fill:#000000;fill-opacity:1;fill-rule:nonzero;stroke:none;stroke-width:0.74355263"
                     d="m 166.2031,352.50781 c -0.332,0 -0.6328,-0.1875 -0.7813,-0.48437 l -2.8398,-5.6836 c -0.2188,-0.42968 -0.043,-0.95703 0.3906,-1.17187 0.4297,-0.21484 0.957,-0.0391 1.1719,0.39062 l 2.0586,4.1211 2.0586,-4.1211 c 0.2148,-0.42968 0.7422,-0.60546 1.1719,-0.39062 0.4335,0.21484 0.6093,0.74219 0.3945,1.17187 l -2.8438,5.6836 c -0.1484,0.29687 -0.4492,0.48437 -0.7812,0.48437"
                     id="path27729"
                     inkscape:connector-curvature="0" />
                  <path
                     style="fill:#000000;fill-opacity:1;fill-rule:nonzero;stroke:none;stroke-width:0.74355263"
                     d="m 158.8242,352.50781 c -2.0508,0 -3.7149,-1.66797 -3.7149,-3.71484 0,-2.05078 1.6641,-3.71875 3.7149,-3.71875 0.8125,0 1.582,0.25781 2.2304,0.74609 0.3868,0.28907 0.4649,0.83594 0.1719,1.22266 -0.289,0.38672 -0.8359,0.46484 -1.2226,0.17578 -0.3438,-0.25781 -0.75,-0.39453 -1.1797,-0.39453 -1.086,0 -1.9688,0.88281 -1.9688,1.96875 0,1.08203 0.8828,1.96484 1.9688,1.96484 0.4297,0 0.8359,-0.13672 1.1797,-0.39062 0.3867,-0.29297 0.9336,-0.21485 1.2226,0.17187 0.293,0.38672 0.2149,0.9336 -0.1719,1.22657 -0.6484,0.48437 -1.4179,0.74218 -2.2304,0.74218"
                     id="path27731"
                     inkscape:connector-curvature="0" />
                  <path
                     style="fill:#000000;fill-opacity:1;fill-rule:nonzero;stroke:none;stroke-width:0.74355263"
                     d="m 160.0156,348.74609 c 0,0.62891 -0.5078,1.13672 -1.1367,1.13672 -0.625,0 -1.1328,-0.50781 -1.1328,-1.13672 0,-0.625 0.5078,-1.13671 1.1328,-1.13671 0.6289,0 1.1367,0.51171 1.1367,1.13671"
                     id="path27733"
                     inkscape:connector-curvature="0" />
                  <path
                     inkscape:connector-curvature="0"
                     id="path11002"
                     d="m 143.34566,332.72848 c 0.67187,0 1.21875,-0.23437 1.60937,-0.5 0.1875,-0.10937 0.28125,-0.28125 0.28125,-0.5 v -1.21875 c 0,-0.21875 -0.17187,-0.40625 -0.40625,-0.40625 h -1.26562 c -0.1875,0 -0.35938,0.15625 -0.35938,0.35938 0,0.1875 0.17188,0.34375 0.35938,0.34375 h 0.90625 v 0.84375 c -0.28125,0.21875 -0.67188,0.34375 -1.10938,0.34375 -0.92187,0 -1.54687,-0.6875 -1.54687,-1.625 0,-0.875 0.64062,-1.60938 1.48437,-1.60938 0.48438,0 0.8125,0.14063 1.09375,0.35938 0.0781,0.0469 0.15625,0.0937 0.25,0.0937 0.21875,0 0.40625,-0.1875 0.40625,-0.40625 0,-0.15625 -0.0937,-0.26563 -0.17187,-0.32813 -0.40625,-0.29687 -0.875,-0.45312 -1.54688,-0.45312 -1.375,0 -2.34375,1.07812 -2.34375,2.34375 v 0.0156 c 0,1.32813 0.92188,2.34375 2.35938,2.34375 z m 0,0"
                     style="fill:#000000;fill-opacity:1;stroke:none;stroke-width:0.74355263" />
                  <path
                     inkscape:connector-curvature="0"
                     id="path10994"
                     d="m 146.09834,332.30661 c 0,0.21875 0.17188,0.375 0.375,0.375 0.17188,0 0.3125,-0.0937 0.375,-0.25 l 0.375,-0.875 h 2.21875 l 0.375,0.84375 c 0.0625,0.17187 0.1875,0.28125 0.39063,0.28125 0.20312,0 0.375,-0.17188 0.375,-0.375 0,-0.0625 -0.0156,-0.125 -0.0469,-0.17188 l -1.6875,-3.78125 c -0.0937,-0.1875 -0.25,-0.3125 -0.48437,-0.3125 h -0.0312 c -0.23438,0 -0.39063,0.125 -0.48438,0.3125 l -1.6875,3.78125 c -0.0312,0.0625 -0.0625,0.125 -0.0625,0.17188 z m 1.4375,-1.46875 0.79688,-1.82813 0.79687,1.82813 z m 0,0"
                     style="fill:#000000;fill-opacity:1;stroke:none;stroke-width:0.74355263" />
                  <path
                     inkscape:connector-curvature="0"
                     id="path10998"
                     d="m 152.18342,332.29098 c 0,0.21875 0.1875,0.39063 0.40625,0.39063 0.21875,0 0.40625,-0.17188 0.40625,-0.39063 v -3.45312 h 1.10938 c 0.20312,0 0.35937,-0.17188 0.35937,-0.35938 0,-0.20312 -0.15625,-0.375 -0.35937,-0.375 h -3.03125 c -0.20313,0 -0.35938,0.17188 -0.35938,0.375 0,0.1875 0.15625,0.35938 0.35938,0.35938 h 1.10937 z m 0,0"
                     style="fill:#000000;fill-opacity:1;stroke:none;stroke-width:0.74355263" />
                  <path
                     inkscape:connector-curvature="0"
                     id="path10990"
                     d="m 155.83003,332.65036 h 2.6875 c 0.1875,0 0.35938,-0.15625 0.35938,-0.35938 0,-0.1875 -0.17188,-0.35937 -0.35938,-0.35937 h -2.28125 v -1.21875 h 1.95313 c 0.1875,0 0.35937,-0.15625 0.35937,-0.34375 0,-0.20313 -0.17187,-0.375 -0.35937,-0.375 h -1.95313 v -1.17188 h 2.25 c 0.1875,0 0.34375,-0.15625 0.34375,-0.35937 0,-0.20313 -0.15625,-0.35938 -0.34375,-0.35938 h -2.65625 c -0.21875,0 -0.40625,0.17188 -0.40625,0.40625 v 3.73438 c 0,0.23437 0.1875,0.40625 0.40625,0.40625 z m 0,0"
                     style="fill:#000000;fill-opacity:1;stroke:none;stroke-width:0.74355263" />
                  <path
                     inkscape:connector-curvature="0"
                     id="path10986"
                     d="m 163.89998,332.72848 c 1.40625,0 2.39062,-1.07812 2.39062,-2.35937 0,-1.28125 -0.96875,-2.34375 -2.375,-2.34375 -1.39062,0 -2.375,1.0625 -2.375,2.34375 v 0.0156 c 0,1.28125 0.96875,2.34375 2.35938,2.34375 z m 0.0156,-0.73437 c -0.90625,0 -1.54687,-0.73438 -1.54687,-1.625 0,-0.89063 0.64062,-1.60938 1.53125,-1.60938 0.90625,0 1.54687,0.73438 1.54687,1.60938 v 0.0156 c 0,0.89063 -0.625,1.60938 -1.53125,1.60938 z m 0,0"
                     style="fill:#000000;fill-opacity:1;stroke:none;stroke-width:0.74355263" />
                  <path
                     inkscape:connector-curvature="0"
                     id="path10978"
                     d="m 169.33943,332.72848 c 1.1875,0 1.95313,-0.6875 1.95313,-2.04687 v -2.21875 c 0,-0.21875 -0.17188,-0.39063 -0.39063,-0.39063 -0.23437,0 -0.40625,0.17188 -0.40625,0.39063 v 2.25 c 0,0.84375 -0.4375,1.26562 -1.14062,1.26562 -0.71875,0 -1.15625,-0.45312 -1.15625,-1.29687 v -2.21875 c 0,-0.21875 -0.17188,-0.39063 -0.39063,-0.39063 -0.23437,0 -0.40625,0.17188 -0.40625,0.39063 v 2.25 c 0,1.32812 0.75,2.01562 1.9375,2.01562 z m 0,0"
                     style="fill:#000000;fill-opacity:1;stroke:none;stroke-width:0.74355263" />
                  <path
                     inkscape:connector-curvature="0"
                     id="path10974"
                     d="m 173.69575,332.29098 c 0,0.21875 0.1875,0.39063 0.40625,0.39063 0.21875,0 0.40625,-0.17188 0.40625,-0.39063 v -3.45312 h 1.10938 c 0.20312,0 0.35937,-0.17188 0.35937,-0.35938 0,-0.20312 -0.15625,-0.375 -0.35937,-0.375 h -3.03125 c -0.20313,0 -0.35938,0.17188 -0.35938,0.375 0,0.1875 0.15625,0.35938 0.35938,0.35938 h 1.10937 z m 0,0"
                     style="fill:#000000;fill-opacity:1;stroke:none;stroke-width:0.74355263" />
                  <path
                     style="fill:none;stroke:#000000;stroke-width:0.47927633;stroke-linecap:round;stroke-linejoin:round;stroke-miterlimit:10;stroke-opacity:1"
                     d="M 18.0859,330.32813 H 134.3046"
                     id="path27763"
                     inkscape:connector-curvature="0" />
                  <path
                     style="fill:none;stroke:#000000;stroke-width:0.47927633;stroke-linecap:round;stroke-linejoin:round;stroke-miterlimit:10;stroke-opacity:1"
                     d="M 182.4961,330.32813 H 298.7148"
                     id="path27765"
                     inkscape:connector-curvature="0" />
                  <path
                     style="fill:none;stroke:#000000;stroke-width:0.47927633;stroke-linecap:round;stroke-linejoin:round;stroke-miterlimit:10;stroke-opacity:1"
                     d="m 29.4218,274.80469 v 30.95312"
                     id="path27767"
                     inkscape:connector-curvature="0" />
                  <path
                     style="fill:none;stroke:#000000;stroke-width:0.47927633;stroke-linecap:round;stroke-linejoin:round;stroke-miterlimit:10;stroke-opacity:1"
                     d="m 66.2734,274.80469 v 30.95312"
                     id="path27769"
                     inkscape:connector-curvature="0" />
                  <path
                     style="fill:none;stroke:#000000;stroke-width:0.47927633;stroke-linecap:round;stroke-linejoin:round;stroke-miterlimit:10;stroke-opacity:1"
                     d="m 103.125,274.80469 v 30.95312"
                     id="path27771"
                     inkscape:connector-curvature="0" />
                  <path
                     style="fill:none;stroke:#000000;stroke-width:0.47927633;stroke-linecap:round;stroke-linejoin:round;stroke-miterlimit:10;stroke-opacity:1"
                     d="m 139.9765,274.80469 v 30.95312"
                     id="path27773"
                     inkscape:connector-curvature="0" />
                  <path
                     style="fill:none;stroke:#000000;stroke-width:0.47927633;stroke-linecap:round;stroke-linejoin:round;stroke-miterlimit:10;stroke-opacity:1"
                     d="m 176.8242,274.80469 v 30.95312"
                     id="path27775"
                     inkscape:connector-curvature="0" />
                  <path
                     style="fill:none;stroke:#000000;stroke-width:0.47927633;stroke-linecap:round;stroke-linejoin:round;stroke-miterlimit:10;stroke-opacity:1"
                     d="m 213.6757,274.80469 v 30.95312"
                     id="path27777"
                     inkscape:connector-curvature="0" />
                  <path
                     style="fill:none;stroke:#000000;stroke-width:0.47927633;stroke-linecap:round;stroke-linejoin:round;stroke-miterlimit:10;stroke-opacity:1"
                     d="m 250.5273,274.80469 v 30.95312"
                     id="path27779"
                     inkscape:connector-curvature="0" />
                  <path
                     style="fill:none;stroke:#000000;stroke-width:0.47927633;stroke-linecap:round;stroke-linejoin:round;stroke-miterlimit:10;stroke-opacity:1"
                     d="m 287.375,274.80469 v 30.95312"
                     id="path27781"
                     inkscape:connector-curvature="0" />
                  <path
                     inkscape:connector-curvature="0"
                     id="path10966"
                     d="m 17.895464,46.540016 c 0.90625,0 1.515625,-0.28125 2.046875,-0.75 0.07813,-0.07813 0.15625,-0.203125 0.15625,-0.359375 0,-0.234375 -0.21875,-0.453125 -0.46875,-0.453125 -0.125,0 -0.21875,0.04687 -0.296875,0.109375 -0.40625,0.34375 -0.8125,0.546875 -1.390625,0.546875 -1.078125,0 -1.859375,-0.890625 -1.859375,-1.984375 v -0.01563 c 0,-1.09375 0.78125,-1.984375 1.859375,-1.984375 0.53125,0 0.9375,0.203125 1.328125,0.515625 0.0625,0.04687 0.15625,0.09375 0.296875,0.09375 0.265625,0 0.484375,-0.21875 0.484375,-0.484375 0,-0.171875 -0.07813,-0.3125 -0.1875,-0.390625 -0.484375,-0.375 -1.0625,-0.640625 -1.921875,-0.640625 -1.703125,0 -2.890625,1.3125 -2.890625,2.90625 v 0.01563 c 0,1.609375 1.21875,2.875 2.84375,2.875 z m 0,0"
                     style="fill:#000000;fill-opacity:1;stroke:none;stroke-width:0.74355263" />
                  <path
                     inkscape:connector-curvature="0"
                     id="path10970"
                     d="m 21.397783,45.946266 c 0,0.28125 0.21875,0.5 0.5,0.5 h 3.015625 c 0.25,0 0.453125,-0.203125 0.453125,-0.453125 0,-0.25 -0.203125,-0.4375 -0.453125,-0.4375 h -2.53125 v -4.265625 c 0,-0.265625 -0.21875,-0.484375 -0.484375,-0.484375 -0.28125,0 -0.5,0.21875 -0.5,0.484375 z m 0,0"
                     style="fill:#000000;fill-opacity:1;stroke:none;stroke-width:0.74355263" />
                  <path
                     inkscape:connector-curvature="0"
                     id="path10962"
                     d="m 28.900835,46.540016 c 1.71875,0 2.9375,-1.3125 2.9375,-2.890625 v -0.01563 c 0,-1.578125 -1.203125,-2.890625 -2.921875,-2.890625 -1.71875,0 -2.9375,1.328125 -2.9375,2.90625 v 0.01563 c 0,1.578125 1.203125,2.875 2.921875,2.875 z m 0.01563,-0.90625 c -1.109375,0 -1.90625,-0.90625 -1.90625,-1.984375 v -0.01563 c 0,-1.09375 0.78125,-1.984375 1.890625,-1.984375 1.109375,0 1.90625,0.90625 1.90625,2 v 0.01563 c 0,1.078125 -0.78125,1.96875 -1.890625,1.96875 z m 0,0"
                     style="fill:#000000;fill-opacity:1;stroke:none;stroke-width:0.74355263" />
                  <path
                     inkscape:connector-curvature="0"
                     id="path10954"
                     d="m 35.77791,46.540016 c 0.90625,0 1.515625,-0.28125 2.046875,-0.75 0.07813,-0.07813 0.15625,-0.203125 0.15625,-0.359375 0,-0.234375 -0.21875,-0.453125 -0.46875,-0.453125 -0.125,0 -0.21875,0.04687 -0.296875,0.109375 -0.40625,0.34375 -0.8125,0.546875 -1.390625,0.546875 -1.078125,0 -1.859375,-0.890625 -1.859375,-1.984375 v -0.01563 c 0,-1.09375 0.78125,-1.984375 1.859375,-1.984375 0.53125,0 0.9375,0.203125 1.328125,0.515625 0.0625,0.04687 0.15625,0.09375 0.296875,0.09375 0.265625,0 0.484375,-0.21875 0.484375,-0.484375 0,-0.171875 -0.07813,-0.3125 -0.1875,-0.390625 -0.484375,-0.375 -1.0625,-0.640625 -1.921875,-0.640625 -1.703125,0 -2.890625,1.3125 -2.890625,2.90625 v 0.01563 c 0,1.609375 1.21875,2.875 2.84375,2.875 z m 0,0"
                     style="fill:#000000;fill-opacity:1;stroke:none;stroke-width:0.74355263" />
                  <path
                     inkscape:connector-curvature="0"
                     id="path10958"
                     d="m 39.280108,45.993141 c 0,0.28125 0.21875,0.5 0.5,0.5 0.265625,0 0.484375,-0.21875 0.484375,-0.5 v -1.15625 l 0.90625,-0.875 1.8125,2.296875 c 0.09375,0.125 0.21875,0.234375 0.40625,0.234375 0.28125,0 0.5,-0.21875 0.5,-0.484375 0,-0.15625 -0.0625,-0.25 -0.140625,-0.359375 l -1.890625,-2.34375 1.75,-1.671875 c 0.109375,-0.109375 0.171875,-0.21875 0.171875,-0.375 0,-0.234375 -0.171875,-0.453125 -0.453125,-0.453125 -0.171875,0 -0.296875,0.0625 -0.40625,0.1875 l -2.65625,2.671875 v -2.375 c 0,-0.265625 -0.21875,-0.484375 -0.484375,-0.484375 -0.28125,0 -0.5,0.21875 -0.5,0.484375 z m 0,0"
                     style="fill:#000000;fill-opacity:1;stroke:none;stroke-width:0.74355263" />
                  <path
                     inkscape:connector-curvature="0"
                     id="path10950"
                     d="m 129.28646,46.524391 c 1.17187,0 2,-0.625 2,-1.671875 v -0.01563 c 0,-0.921875 -0.60938,-1.34375 -1.79688,-1.640625 -1.07812,-0.25 -1.34375,-0.453125 -1.34375,-0.875 v -0.01563 c 0,-0.375 0.34375,-0.671875 0.92188,-0.671875 0.4375,0 0.84375,0.15625 1.28125,0.421875 0.0781,0.04687 0.15625,0.07813 0.26562,0.07813 0.25,0 0.45313,-0.203125 0.45313,-0.453125 0,-0.1875 -0.0937,-0.328125 -0.21875,-0.390625 -0.5,-0.34375 -1.0625,-0.53125 -1.76563,-0.53125 -1.10937,0 -1.92187,0.671875 -1.92187,1.625 v 0.01563 c 0,1.03125 0.67188,1.390625 1.875,1.671875 1.03125,0.25 1.26562,0.46875 1.26562,0.859375 v 0.01563 c 0,0.421875 -0.39062,0.703125 -1,0.703125 -0.60937,0 -1.10937,-0.203125 -1.56249,-0.578125 -0.0625,-0.04687 -0.15625,-0.07813 -0.29688,-0.07813 -0.25,0 -0.45312,0.203125 -0.45312,0.453125 0,0.15625 0.0781,0.296875 0.1875,0.375 0.625,0.46875 1.34374,0.703125 2.10937,0.703125 z m 0,0"
                     style="fill:#000000;fill-opacity:1;stroke:none;stroke-width:0.74355263" />
                  <path
                     inkscape:connector-curvature="0"
                     id="path10942"
                     d="m 133.95674,45.993141 c 0,0.28125 0.21875,0.5 0.5,0.5 0.26562,0 0.5,-0.21875 0.5,-0.5 v -4.234375 h 1.35937 c 0.25,0 0.45313,-0.203125 0.45313,-0.453125 0,-0.25 -0.20313,-0.453125 -0.45313,-0.453125 h -3.71875 c -0.25,0 -0.45312,0.203125 -0.45312,0.453125 0,0.25 0.20312,0.453125 0.45312,0.453125 h 1.35938 z m 0,0"
                     style="fill:#000000;fill-opacity:1;stroke:none;stroke-width:0.74355263" />
                  <path
                     inkscape:connector-curvature="0"
                     id="path10946"
                     d="m 138.39376,46.446266 h 3.29687 c 0.23438,0 0.4375,-0.1875 0.4375,-0.4375 0,-0.25 -0.20312,-0.4375 -0.4375,-0.4375 h -2.8125 v -1.515625 h 2.40625 c 0.25,0 0.4375,-0.1875 0.4375,-0.421875 0,-0.25 -0.1875,-0.453125 -0.4375,-0.453125 h -2.40625 v -1.453125 h 2.76563 c 0.25,0 0.4375,-0.1875 0.4375,-0.4375 0,-0.25 -0.1875,-0.4375 -0.4375,-0.4375 h -3.25 c -0.28125,0 -0.5,0.203125 -0.5,0.484375 v 4.609375 c 0,0.28125 0.21875,0.5 0.5,0.5 z m 0,0"
                     style="fill:#000000;fill-opacity:1;stroke:none;stroke-width:0.74355263" />
                  <path
                     inkscape:connector-curvature="0"
                     id="path10938"
                     d="m 143.41939,45.993141 c 0,0.28125 0.21875,0.5 0.5,0.5 0.26562,0 0.48437,-0.21875 0.48437,-0.5 v -1.34375 h 1.10938 c 1.23437,0 2.25,-0.65625 2.25,-1.921875 v -0.01563 c 0,-1.125 -0.82813,-1.859375 -2.14063,-1.859375 h -1.70312 c -0.28125,0 -0.5,0.203125 -0.5,0.484375 z m 0.98437,-2.234375 v -2.015625 h 1.14063 c 0.73437,0 1.21875,0.34375 1.21875,1 v 0.01563 c 0,0.578125 -0.46875,1 -1.21875,1 z m 0,0"
                     style="fill:#000000;fill-opacity:1;stroke:none;stroke-width:0.74355263" />
                  <path
                     inkscape:connector-curvature="0"
                     id="path10934"
                     d="m 150.92415,46.524391 c 1.17187,0 2,-0.625 2,-1.671875 v -0.01563 c 0,-0.921875 -0.60938,-1.34375 -1.79688,-1.640625 -1.07812,-0.25 -1.34375,-0.453125 -1.34375,-0.875 v -0.01563 c 0,-0.375 0.34375,-0.671875 0.92188,-0.671875 0.4375,0 0.84375,0.15625 1.28125,0.421875 0.0781,0.04687 0.15625,0.07813 0.26562,0.07813 0.25,0 0.45313,-0.203125 0.45313,-0.453125 0,-0.1875 -0.0937,-0.328125 -0.21875,-0.390625 -0.5,-0.34375 -1.0625,-0.53125 -1.76563,-0.53125 -1.10937,0 -1.92187,0.671875 -1.92187,1.625 v 0.01563 c 0,1.03125 0.67187,1.390625 1.875,1.671875 1.03125,0.25 1.26562,0.46875 1.26562,0.859375 v 0.01563 c 0,0.421875 -0.39062,0.703125 -1,0.703125 -0.60937,0 -1.10937,-0.203125 -1.5625,-0.578125 -0.0625,-0.04687 -0.15625,-0.07813 -0.29687,-0.07813 -0.25,0 -0.45313,0.203125 -0.45313,0.453125 0,0.15625 0.0781,0.296875 0.1875,0.375 0.625,0.46875 1.34375,0.703125 2.10938,0.703125 z m 0,0"
                     style="fill:#000000;fill-opacity:1;stroke:none;stroke-width:0.74355263" />
                  <path
                     inkscape:connector-curvature="0"
                     id="path10930"
                     d="m 168.09517,55.98819 c 0.67187,0 1.21875,-0.234375 1.60937,-0.5 0.1875,-0.109375 0.28125,-0.28125 0.28125,-0.5 v -1.21875 c 0,-0.21875 -0.17187,-0.40625 -0.40625,-0.40625 h -1.26562 c -0.1875,0 -0.35938,0.15625 -0.35938,0.359375 0,0.1875 0.17188,0.34375 0.35938,0.34375 h 0.90625 v 0.84375 c -0.28125,0.21875 -0.67188,0.34375 -1.10938,0.34375 -0.92187,0 -1.54687,-0.6875 -1.54687,-1.625 0,-0.875 0.64062,-1.609375 1.48437,-1.609375 0.48438,0 0.8125,0.140625 1.09375,0.359375 0.0781,0.04687 0.15625,0.09375 0.25,0.09375 0.21875,0 0.40625,-0.1875 0.40625,-0.40625 0,-0.15625 -0.0937,-0.265625 -0.17187,-0.328125 -0.40625,-0.296875 -0.875,-0.453125 -1.54688,-0.453125 -1.375,0 -2.34375,1.078125 -2.34375,2.34375 v 0.01563 c 0,1.328125 0.92188,2.34375 2.35938,2.34375 z m 0,0"
                     style="fill:#000000;fill-opacity:1;stroke:none;stroke-width:0.74355263" />
                  <path
                     inkscape:connector-curvature="0"
                     id="path10922"
                     d="m 170.84785,55.566315 c 0,0.21875 0.17188,0.375 0.375,0.375 0.17188,0 0.3125,-0.09375 0.375,-0.25 l 0.375,-0.875 h 2.21875 l 0.375,0.84375 c 0.0625,0.171875 0.1875,0.28125 0.39063,0.28125 0.20312,0 0.375,-0.171875 0.375,-0.375 0,-0.0625 -0.0156,-0.125 -0.0469,-0.171875 l -1.6875,-3.78125 c -0.0937,-0.1875 -0.25,-0.3125 -0.48437,-0.3125 h -0.0312 c -0.23438,0 -0.39063,0.125 -0.48438,0.3125 l -1.6875,3.78125 c -0.0312,0.0625 -0.0625,0.125 -0.0625,0.171875 z m 1.4375,-1.46875 0.79688,-1.828125 0.79687,1.828125 z m 0,0"
                     style="fill:#000000;fill-opacity:1;stroke:none;stroke-width:0.74355263" />
                  <path
                     inkscape:connector-curvature="0"
                     id="path10926"
                     d="m 176.93281,55.55069 c 0,0.21875 0.1875,0.390625 0.40625,0.390625 0.21875,0 0.40625,-0.171875 0.40625,-0.390625 v -3.453125 h 1.10938 c 0.20312,0 0.35937,-0.171875 0.35937,-0.359375 0,-0.203125 -0.15625,-0.375 -0.35937,-0.375 h -3.03125 c -0.20313,0 -0.35938,0.171875 -0.35938,0.375 0,0.1875 0.15625,0.359375 0.35938,0.359375 h 1.10937 z m 0,0"
                     style="fill:#000000;fill-opacity:1;stroke:none;stroke-width:0.74355263" />
                  <path
                     inkscape:connector-curvature="0"
                     id="path10918"
                     d="m 180.57954,55.910065 h 2.6875 c 0.1875,0 0.35938,-0.15625 0.35938,-0.359375 0,-0.1875 -0.17188,-0.359375 -0.35938,-0.359375 h -2.28125 v -1.21875 h 1.95313 c 0.1875,0 0.35937,-0.15625 0.35937,-0.34375 0,-0.203125 -0.17187,-0.375 -0.35937,-0.375 h -1.95313 V 52.08194 h 2.25 c 0.1875,0 0.34375,-0.15625 0.34375,-0.359375 0,-0.203125 -0.15625,-0.359375 -0.34375,-0.359375 h -2.65625 c -0.21875,0 -0.40625,0.171875 -0.40625,0.40625 v 3.734375 c 0,0.234375 0.1875,0.40625 0.40625,0.40625 z m 0,0"
                     style="fill:#000000;fill-opacity:1;stroke:none;stroke-width:0.74355263" />
                  <path
                     inkscape:connector-curvature="0"
                     id="path10914"
                     d="m 186.3177,55.972565 c 0.96875,0 1.625,-0.5 1.625,-1.359375 v -0.01563 c 0,-0.75 -0.48437,-1.09375 -1.45312,-1.328125 -0.875,-0.203125 -1.07813,-0.359375 -1.07813,-0.71875 0,-0.3125 0.26563,-0.546875 0.73438,-0.546875 0.35937,0 0.70312,0.109375 1.04687,0.34375 0.0625,0.04687 0.125,0.0625 0.20313,0.0625 0.21875,0 0.39062,-0.171875 0.39062,-0.375 0,-0.15625 -0.0937,-0.265625 -0.1875,-0.3125 -0.40625,-0.28125 -0.85937,-0.421875 -1.4375,-0.421875 -0.90625,0 -1.54687,0.53125 -1.54687,1.3125 v 0.01563 c 0,0.84375 0.53125,1.125 1.5,1.359375 0.85937,0.1875 1.03125,0.375 1.03125,0.6875 v 0.01563 c 0,0.34375 -0.3125,0.578125 -0.79688,0.578125 -0.5,0 -0.90625,-0.171875 -1.28125,-0.46875 -0.0469,-0.04687 -0.125,-0.07813 -0.23437,-0.07813 -0.20313,0 -0.375,0.171875 -0.375,0.375 0,0.125 0.0625,0.234375 0.15625,0.3125 0.5,0.375 1.09375,0.5625 1.70312,0.5625 z m 0,0"
                     style="fill:#000000;fill-opacity:1;stroke:none;stroke-width:0.74355263" />
                  <path
                     inkscape:connector-curvature="0"
                     id="path10910"
                     d="m 203.22029,55.55069 c 0,0.21875 0.1875,0.390625 0.40625,0.390625 0.21875,0 0.40625,-0.171875 0.40625,-0.390625 v -1.234375 h 1 l 1.10938,1.421875 c 0.0937,0.125 0.20312,0.203125 0.39062,0.203125 0.1875,0 0.375,-0.140625 0.375,-0.375 0,-0.125 -0.0469,-0.203125 -0.125,-0.296875 l -0.875,-1.09375 c 0.60938,-0.203125 1.03125,-0.640625 1.03125,-1.359375 v -0.01563 c 0,-0.40625 -0.125,-0.734375 -0.375,-0.984375 -0.28125,-0.28125 -0.73437,-0.453125 -1.3125,-0.453125 h -1.625 c -0.21875,0 -0.40625,0.171875 -0.40625,0.40625 z m 0.8125,-1.9375 v -1.53125 h 1.15625 c 0.59375,0 0.9375,0.265625 0.9375,0.765625 0,0.46875 -0.35937,0.765625 -0.9375,0.765625 z m 0,0"
                     style="fill:#000000;fill-opacity:1;stroke:none;stroke-width:0.74355263" />
                  <path
                     inkscape:connector-curvature="0"
                     id="path10906"
                     d="m 210.2419,55.98819 c 1.40625,0 2.39062,-1.078125 2.39062,-2.359375 0,-1.28125 -0.96875,-2.34375 -2.375,-2.34375 -1.39062,0 -2.375,1.0625 -2.375,2.34375 v 0.01563 c 0,1.28125 0.96875,2.34375 2.35938,2.34375 z m 0.0156,-0.734375 c -0.90625,0 -1.54687,-0.734375 -1.54687,-1.625 0,-0.890625 0.64062,-1.609375 1.53125,-1.609375 0.90625,0 1.54687,0.734375 1.54687,1.609375 v 0.01563 c 0,0.890625 -0.625,1.609375 -1.53125,1.609375 z m 0,0"
                     style="fill:#000000;fill-opacity:1;stroke:none;stroke-width:0.74355263" />
                  <path
                     inkscape:connector-curvature="0"
                     id="path10894"
                     d="m 214.70101,55.64444 c 0.0781,0.203125 0.21875,0.328125 0.40625,0.328125 h 0.0781 c 0.20313,0 0.34375,-0.125 0.42188,-0.328125 l 1.01562,-2.96875 1.01563,2.96875 c 0.0625,0.203125 0.20312,0.328125 0.40625,0.328125 h 0.0781 c 0.1875,0 0.34375,-0.125 0.42188,-0.328125 l 1.34375,-3.765625 c 0.0156,-0.04687 0.0312,-0.109375 0.0312,-0.171875 0,-0.203125 -0.1875,-0.375 -0.39063,-0.375 -0.20312,0 -0.32812,0.125 -0.39062,0.28125 l -1.04688,3.140625 -1.03125,-3.125 c -0.0625,-0.1875 -0.20312,-0.3125 -0.40625,-0.3125 h -0.0469 c -0.20313,0 -0.34375,0.125 -0.40625,0.3125 l -1.03125,3.125 -1.04688,-3.140625 c -0.0469,-0.15625 -0.20312,-0.28125 -0.39062,-0.28125 -0.21875,0 -0.42188,0.171875 -0.42188,0.390625 0,0.04687 0.0156,0.109375 0.0469,0.15625 z m 0,0"
                     style="fill:#000000;fill-opacity:1;stroke:none;stroke-width:0.74355263" />
                  <path
                     inkscape:connector-curvature="0"
                     id="path10902"
                     d="m 223.29451,55.55069 c 0,0.21875 0.1875,0.390625 0.39062,0.390625 0.23438,0 0.40625,-0.171875 0.40625,-0.390625 v -3.859375 c 0,-0.21875 -0.17187,-0.390625 -0.40625,-0.390625 -0.125,0 -0.23437,0.03125 -0.39062,0.07813 l -0.6875,0.21875 c -0.17188,0.04687 -0.28125,0.171875 -0.28125,0.34375 0,0.171875 0.17187,0.328125 0.35937,0.328125 0.0312,0 0.0937,0 0.14063,-0.01563 l 0.46875,-0.140625 z m 0,0"
                     style="fill:#000000;fill-opacity:1;stroke:none;stroke-width:0.74355263" />
                  <path
                     inkscape:connector-curvature="0"
                     id="path10890"
                     d="m 239.36677,55.55069 c 0,0.21875 0.1875,0.390625 0.40625,0.390625 0.21875,0 0.40625,-0.171875 0.40625,-0.390625 v -1.234375 h 1 l 1.10938,1.421875 c 0.0937,0.125 0.20312,0.203125 0.39062,0.203125 0.1875,0 0.375,-0.140625 0.375,-0.375 0,-0.125 -0.0469,-0.203125 -0.125,-0.296875 l -0.875,-1.09375 c 0.60938,-0.203125 1.03125,-0.640625 1.03125,-1.359375 v -0.01563 c 0,-0.40625 -0.125,-0.734375 -0.375,-0.984375 -0.28125,-0.28125 -0.73437,-0.453125 -1.3125,-0.453125 h -1.625 c -0.21875,0 -0.40625,0.171875 -0.40625,0.40625 z m 0.8125,-1.9375 v -1.53125 h 1.15625 c 0.59375,0 0.9375,0.265625 0.9375,0.765625 0,0.46875 -0.35937,0.765625 -0.9375,0.765625 z m 0,0"
                     style="fill:#000000;fill-opacity:1;stroke:none;stroke-width:0.74355263" />
                  <path
                     inkscape:connector-curvature="0"
                     id="path10886"
                     d="m 246.38838,55.98819 c 1.40625,0 2.39062,-1.078125 2.39062,-2.359375 0,-1.28125 -0.96875,-2.34375 -2.375,-2.34375 -1.39062,0 -2.375,1.0625 -2.375,2.34375 v 0.01563 c 0,1.28125 0.96875,2.34375 2.35938,2.34375 z m 0.0156,-0.734375 c -0.90625,0 -1.54687,-0.734375 -1.54687,-1.625 0,-0.890625 0.64062,-1.609375 1.53125,-1.609375 0.90625,0 1.54687,0.734375 1.54687,1.609375 v 0.01563 c 0,0.890625 -0.625,1.609375 -1.53125,1.609375 z m 0,0"
                     style="fill:#000000;fill-opacity:1;stroke:none;stroke-width:0.74355263" />
                  <path
                     inkscape:connector-curvature="0"
                     id="path10874"
                     d="m 250.84749,55.64444 c 0.0781,0.203125 0.21875,0.328125 0.40625,0.328125 h 0.0781 c 0.20313,0 0.34375,-0.125 0.42188,-0.328125 l 1.01562,-2.96875 1.01563,2.96875 c 0.0625,0.203125 0.20312,0.328125 0.40625,0.328125 h 0.0781 c 0.1875,0 0.34375,-0.125 0.42188,-0.328125 l 1.34375,-3.765625 c 0.0156,-0.04687 0.0312,-0.109375 0.0312,-0.171875 0,-0.203125 -0.1875,-0.375 -0.39063,-0.375 -0.20312,0 -0.32812,0.125 -0.39062,0.28125 l -1.04688,3.140625 -1.03125,-3.125 c -0.0625,-0.1875 -0.20312,-0.3125 -0.40625,-0.3125 h -0.0469 c -0.20313,0 -0.34375,0.125 -0.40625,0.3125 l -1.03125,3.125 -1.04688,-3.140625 c -0.0469,-0.15625 -0.20312,-0.28125 -0.39062,-0.28125 -0.21875,0 -0.42188,0.171875 -0.42188,0.390625 0,0.04687 0.0156,0.109375 0.0469,0.15625 z m 0,0"
                     style="fill:#000000;fill-opacity:1;stroke:none;stroke-width:0.74355263" />
                  <path
                     inkscape:connector-curvature="0"
                     id="path10882"
                     d="m 258.566,55.535065 c 0,0.234375 0.1875,0.375 0.42187,0.375 h 2.57813 c 0.20312,0 0.35937,-0.15625 0.35937,-0.34375 0,-0.203125 -0.15625,-0.359375 -0.35937,-0.359375 h -1.84375 l 0.9375,-0.78125 c 0.8125,-0.65625 1.1875,-1.046875 1.1875,-1.765625 0,-0.8125 -0.60938,-1.359375 -1.5,-1.359375 -0.71875,0 -1.14063,0.265625 -1.51563,0.734375 -0.0469,0.0625 -0.0781,0.15625 -0.0781,0.234375 0,0.203125 0.15625,0.375 0.35937,0.375 0.125,0 0.21875,-0.0625 0.28125,-0.125 0.28125,-0.34375 0.53125,-0.515625 0.89063,-0.515625 0.42187,0 0.73437,0.265625 0.73437,0.71875 0,0.40625 -0.21875,0.703125 -0.84375,1.21875 l -1.40625,1.1875 c -0.14062,0.125 -0.20312,0.25 -0.20312,0.40625 z m 0,0"
                     style="fill:#000000;fill-opacity:1;stroke:none;stroke-width:0.74355263" />
                  <path
                     inkscape:connector-curvature="0"
                     id="path10870"
                     d="m 276.20234,55.55069 c 0,0.21875 0.1875,0.390625 0.40625,0.390625 0.21875,0 0.40625,-0.171875 0.40625,-0.390625 v -1.234375 h 1 l 1.10938,1.421875 c 0.0937,0.125 0.20312,0.203125 0.39062,0.203125 0.1875,0 0.375,-0.140625 0.375,-0.375 0,-0.125 -0.0469,-0.203125 -0.125,-0.296875 l -0.875,-1.09375 c 0.60938,-0.203125 1.03125,-0.640625 1.03125,-1.359375 v -0.01563 c 0,-0.40625 -0.125,-0.734375 -0.375,-0.984375 -0.28125,-0.28125 -0.73437,-0.453125 -1.3125,-0.453125 h -1.625 c -0.21875,0 -0.40625,0.171875 -0.40625,0.40625 z m 0.8125,-1.9375 v -1.53125 h 1.15625 c 0.59375,0 0.9375,0.265625 0.9375,0.765625 0,0.46875 -0.35937,0.765625 -0.9375,0.765625 z m 0,0"
                     style="fill:#000000;fill-opacity:1;stroke:none;stroke-width:0.74355263" />
                  <path
                     inkscape:connector-curvature="0"
                     id="path10866"
                     d="m 283.22383,55.98819 c 1.40625,0 2.39063,-1.078125 2.39063,-2.359375 0,-1.28125 -0.96875,-2.34375 -2.375,-2.34375 -1.39063,0 -2.375,1.0625 -2.375,2.34375 v 0.01563 c 0,1.28125 0.96875,2.34375 2.35937,2.34375 z m 0.0156,-0.734375 c -0.90625,0 -1.54688,-0.734375 -1.54688,-1.625 0,-0.890625 0.64063,-1.609375 1.53125,-1.609375 0.90625,0 1.54688,0.734375 1.54688,1.609375 v 0.01563 c 0,0.890625 -0.625,1.609375 -1.53125,1.609375 z m 0,0"
                     style="fill:#000000;fill-opacity:1;stroke:none;stroke-width:0.74355263" />
                  <path
                     inkscape:connector-curvature="0"
                     id="path10854"
                     d="m 287.68306,55.64444 c 0.0781,0.203125 0.21875,0.328125 0.40625,0.328125 h 0.0781 c 0.20313,0 0.34375,-0.125 0.42188,-0.328125 l 1.01562,-2.96875 1.01563,2.96875 c 0.0625,0.203125 0.20312,0.328125 0.40625,0.328125 h 0.0781 c 0.1875,0 0.34375,-0.125 0.42188,-0.328125 l 1.34375,-3.765625 c 0.0156,-0.04687 0.0312,-0.109375 0.0312,-0.171875 0,-0.203125 -0.1875,-0.375 -0.39063,-0.375 -0.20312,0 -0.32812,0.125 -0.39062,0.28125 l -1.04688,3.140625 -1.03125,-3.125 c -0.0625,-0.1875 -0.20312,-0.3125 -0.40625,-0.3125 h -0.0469 c -0.20313,0 -0.34375,0.125 -0.40625,0.3125 l -1.03125,3.125 -1.04688,-3.140625 c -0.0469,-0.15625 -0.20312,-0.28125 -0.39062,-0.28125 -0.21875,0 -0.42188,0.171875 -0.42188,0.390625 0,0.04687 0.0156,0.109375 0.0469,0.15625 z m 0,0"
                     style="fill:#000000;fill-opacity:1;stroke:none;stroke-width:0.74355263" />
                  <path
                     inkscape:connector-curvature="0"
                     id="path10862"
                     d="m 297.13594,55.98819 c 0.95313,0 1.59375,-0.609375 1.59375,-1.4375 v -0.01563 c 0,-0.84375 -0.64062,-1.1875 -1.32812,-1.28125 l 1.0625,-1.109375 c 0.14062,-0.140625 0.23437,-0.25 0.23437,-0.4375 0,-0.203125 -0.17187,-0.34375 -0.40625,-0.34375 h -2.32812 c -0.1875,0 -0.34375,0.15625 -0.34375,0.34375 0,0.1875 0.15625,0.34375 0.34375,0.34375 h 1.65625 l -1.0625,1.140625 c -0.125,0.125 -0.17188,0.21875 -0.17188,0.328125 0,0.1875 0.15625,0.34375 0.34375,0.34375 h 0.17188 c 0.625,0 1.04687,0.25 1.04687,0.703125 v 0.01563 c 0,0.40625 -0.34375,0.6875 -0.79687,0.6875 -0.42188,0 -0.75,-0.15625 -1.03125,-0.4375 -0.0625,-0.0625 -0.15625,-0.109375 -0.26563,-0.109375 -0.20312,0 -0.39062,0.1875 -0.39062,0.390625 0,0.109375 0.0625,0.21875 0.14062,0.28125 0.35938,0.359375 0.875,0.59375 1.53125,0.59375 z m 0,0"
                     style="fill:#000000;fill-opacity:1;stroke:none;stroke-width:0.74355263" />
                  <path
                     inkscape:connector-curvature="0"
                     id="path10846"
                     d="m 59.245318,50.883698 c 0,0.21875 0.1875,0.390625 0.40625,0.390625 0.21875,0 0.40625,-0.171875 0.40625,-0.390625 v -1.234375 h 1 l 1.109375,1.421875 c 0.09375,0.125 0.203125,0.203125 0.390625,0.203125 0.1875,0 0.375,-0.140625 0.375,-0.375 0,-0.125 -0.04687,-0.203125 -0.125,-0.296875 l -0.875,-1.09375 c 0.609375,-0.203125 1.03125,-0.640625 1.03125,-1.359375 v -0.01563 c 0,-0.40625 -0.125,-0.734375 -0.375,-0.984375 -0.28125,-0.28125 -0.734375,-0.453125 -1.3125,-0.453125 h -1.625 c -0.21875,0 -0.40625,0.171875 -0.40625,0.40625 z m 0.8125,-1.9375 v -1.53125 h 1.15625 c 0.59375,0 0.9375,0.265625 0.9375,0.765625 0,0.46875 -0.359375,0.765625 -0.9375,0.765625 z m 0,0"
                     style="fill:#000000;fill-opacity:1;stroke:none;stroke-width:0.74355263" />
                  <path
                     inkscape:connector-curvature="0"
                     id="path10850"
                     d="m 66.03438,51.321198 c 1.1875,0 1.953125,-0.6875 1.953125,-2.046875 v -2.21875 c 0,-0.21875 -0.171875,-0.390625 -0.390625,-0.390625 -0.234375,0 -0.40625,0.171875 -0.40625,0.390625 v 2.25 c 0,0.84375 -0.4375,1.265625 -1.140625,1.265625 -0.71875,0 -1.15625,-0.453125 -1.15625,-1.296875 v -2.21875 c 0,-0.21875 -0.171875,-0.390625 -0.390625,-0.390625 -0.234375,0 -0.40625,0.171875 -0.40625,0.390625 v 2.25 c 0,1.328125 0.75,2.015625 1.9375,2.015625 z m 0,0"
                     style="fill:#000000;fill-opacity:1;stroke:none;stroke-width:0.74355263" />
                  <path
                     inkscape:connector-curvature="0"
                     id="path10842"
                     d="m 69.33333,50.883698 c 0,0.21875 0.1875,0.390625 0.40625,0.390625 0.21875,0 0.390625,-0.171875 0.390625,-0.390625 v -2.890625 l 2.34375,3.03125 c 0.109375,0.140625 0.21875,0.25 0.40625,0.25 h 0.03125 c 0.21875,0 0.390625,-0.1875 0.390625,-0.40625 v -3.8125 c 0,-0.21875 -0.171875,-0.390625 -0.390625,-0.390625 -0.21875,0 -0.390625,0.171875 -0.390625,0.390625 v 2.796875 l -2.28125,-2.953125 c -0.109375,-0.140625 -0.21875,-0.234375 -0.40625,-0.234375 h -0.09375 c -0.21875,0 -0.40625,0.1875 -0.40625,0.40625 z m 0,0"
                     style="fill:#000000;fill-opacity:1;stroke:none;stroke-width:0.74355263" />
                  <path
                     inkscape:connector-curvature="0"
                     id="path10838"
                     d="m 92.362871,50.883698 c 0,0.21875 0.1875,0.390625 0.40625,0.390625 0.21875,0 0.40625,-0.171875 0.40625,-0.390625 v -1.234375 h 1 l 1.109375,1.421875 c 0.09375,0.125 0.203125,0.203125 0.390625,0.203125 0.1875,0 0.375,-0.140625 0.375,-0.375 0,-0.125 -0.04687,-0.203125 -0.125,-0.296875 l -0.875,-1.09375 c 0.609375,-0.203125 1.03125,-0.640625 1.03125,-1.359375 v -0.01563 c 0,-0.40625 -0.125,-0.734375 -0.375,-0.984375 -0.28125,-0.28125 -0.734375,-0.453125 -1.3125,-0.453125 h -1.625 c -0.21875,0 -0.40625,0.171875 -0.40625,0.40625 z m 0.8125,-1.9375 v -1.53125 h 1.15625 c 0.59375,0 0.9375,0.265625 0.9375,0.765625 0,0.46875 -0.359375,0.765625 -0.9375,0.765625 z m 0,0"
                     style="fill:#000000;fill-opacity:1;stroke:none;stroke-width:0.74355263" />
                  <path
                     inkscape:connector-curvature="0"
                     id="path10830"
                     d="m 97.698076,51.243073 h 2.687504 c 0.1875,0 0.35937,-0.15625 0.35937,-0.359375 0,-0.1875 -0.17187,-0.359375 -0.35937,-0.359375 h -2.281254 v -1.21875 h 1.953124 c 0.1875,0 0.35938,-0.15625 0.35938,-0.34375 0,-0.203125 -0.17188,-0.375 -0.35938,-0.375 h -1.953124 v -1.171875 h 2.250004 c 0.1875,0 0.34375,-0.15625 0.34375,-0.359375 0,-0.203125 -0.15625,-0.359375 -0.34375,-0.359375 h -2.656254 c -0.21875,0 -0.40625,0.171875 -0.40625,0.40625 v 3.734375 c 0,0.234375 0.1875,0.40625 0.40625,0.40625 z m 0,0"
                     style="fill:#000000;fill-opacity:1;stroke:none;stroke-width:0.74355263" />
                  <path
                     inkscape:connector-curvature="0"
                     id="path10834"
                     d="m 103.43551,51.305573 c 0.96875,0 1.625,-0.5 1.625,-1.359375 v -0.01563 c 0,-0.75 -0.48438,-1.09375 -1.45313,-1.328125 -0.875,-0.203125 -1.07812,-0.359375 -1.07812,-0.71875 0,-0.3125 0.26562,-0.546875 0.73437,-0.546875 0.35938,0 0.70313,0.109375 1.04688,0.34375 0.0625,0.04687 0.125,0.0625 0.20312,0.0625 0.21875,0 0.39063,-0.171875 0.39063,-0.375 0,-0.15625 -0.0937,-0.265625 -0.1875,-0.3125 -0.40625,-0.28125 -0.85938,-0.421875 -1.4375,-0.421875 -0.90625,0 -1.54688,0.53125 -1.54688,1.3125 v 0.01563 c 0,0.84375 0.53125,1.125 1.5,1.359375 0.85938,0.1875 1.03125,0.375 1.03125,0.6875 v 0.01563 c 0,0.34375 -0.3125,0.578125 -0.79687,0.578125 -0.5,0 -0.90625,-0.171875 -1.28125,-0.46875 -0.0469,-0.04687 -0.125,-0.07813 -0.23438,-0.07813 -0.20312,0 -0.375,0.171875 -0.375,0.375 0,0.125 0.0625,0.234375 0.15625,0.3125 0.5,0.375 1.09375,0.5625 1.70313,0.5625 z m 0,0"
                     style="fill:#000000;fill-opacity:1;stroke:none;stroke-width:0.74355263" />
                  <path
                     inkscape:connector-curvature="0"
                     id="path10826"
                     d="m 106.63168,51.243073 h 2.6875 c 0.1875,0 0.35937,-0.15625 0.35937,-0.359375 0,-0.1875 -0.17187,-0.359375 -0.35937,-0.359375 h -2.28125 v -1.21875 h 1.95312 c 0.1875,0 0.35938,-0.15625 0.35938,-0.34375 0,-0.203125 -0.17188,-0.375 -0.35938,-0.375 h -1.95312 v -1.171875 h 2.25 c 0.1875,0 0.34375,-0.15625 0.34375,-0.359375 0,-0.203125 -0.15625,-0.359375 -0.34375,-0.359375 h -2.65625 c -0.21875,0 -0.40625,0.171875 -0.40625,0.40625 v 3.734375 c 0,0.234375 0.1875,0.40625 0.40625,0.40625 z m 0,0"
                     style="fill:#000000;fill-opacity:1;stroke:none;stroke-width:0.74355263" />
                  <path
                     inkscape:connector-curvature="0"
                     id="path10822"
                     d="m 111.95955,50.883698 c 0,0.21875 0.1875,0.390625 0.40625,0.390625 0.21875,0 0.40625,-0.171875 0.40625,-0.390625 v -3.453125 h 1.10938 c 0.20312,0 0.35937,-0.171875 0.35937,-0.359375 0,-0.203125 -0.15625,-0.375 -0.35937,-0.375 h -3.03125 c -0.20313,0 -0.35938,0.171875 -0.35938,0.375 0,0.1875 0.15625,0.359375 0.35938,0.359375 h 1.10937 z m 0,0"
                     style="fill:#000000;fill-opacity:1;stroke:none;stroke-width:0.74355263" />
                  <path
                     style="fill:none;stroke:#000000;stroke-width:0.47927633;stroke-linecap:round;stroke-linejoin:round;stroke-miterlimit:10;stroke-opacity:1"
                     d="M 29.4218,72.390629 V 111.48438"
                     id="path27911"
                     inkscape:connector-curvature="0" />
                  <path
                     style="fill:none;stroke:#000000;stroke-width:0.47927633;stroke-linecap:round;stroke-linejoin:round;stroke-miterlimit:10;stroke-opacity:1"
                     d="M 176.8242,66.722659 V 105.8125"
                     id="path27913"
                     inkscape:connector-curvature="0" />
                  <path
                     style="fill:none;stroke:#000000;stroke-width:0.47927633;stroke-linecap:round;stroke-linejoin:round;stroke-miterlimit:10;stroke-opacity:1"
                     d="M 103.125,66.722659 V 105.8125"
                     id="path27915"
                     inkscape:connector-curvature="0" />
                  <path
                     style="fill:none;stroke:#000000;stroke-width:0.47927633;stroke-linecap:round;stroke-linejoin:round;stroke-miterlimit:10;stroke-opacity:1"
                     d="M 213.6757,66.722659 V 105.8125"
                     id="path27917"
                     inkscape:connector-curvature="0" />
                  <path
                     style="fill:none;stroke:#000000;stroke-width:0.47927633;stroke-linecap:round;stroke-linejoin:round;stroke-miterlimit:10;stroke-opacity:1"
                     d="M 250.5273,66.722659 V 105.8125"
                     id="path27919"
                     inkscape:connector-curvature="0" />
                  <path
                     style="fill:none;stroke:#000000;stroke-width:0.47927633;stroke-linecap:round;stroke-linejoin:round;stroke-miterlimit:10;stroke-opacity:1"
                     d="M 287.375,66.722659 V 105.8125"
                     id="path27921"
                     inkscape:connector-curvature="0" />
                  <path
                     style="fill:none;stroke:#000000;stroke-width:0.47927633;stroke-linecap:round;stroke-linejoin:round;stroke-miterlimit:10;stroke-opacity:1"
                     d="M 139.9765,66.722659 V 105.8125"
                     id="path27923"
                     inkscape:connector-curvature="0" />
                  <path
                     inkscape:connector-curvature="0"
                     id="path10818"
                     d="m 52.548784,88.45697 h 2.6875 c 0.1875,0 0.359375,-0.15625 0.359375,-0.359375 0,-0.1875 -0.171875,-0.359375 -0.359375,-0.359375 h -2.28125 v -1.21875 h 1.953125 c 0.1875,0 0.359375,-0.15625 0.359375,-0.34375 0,-0.203125 -0.171875,-0.375 -0.359375,-0.375 h -1.953125 v -1.171875 h 2.25 c 0.1875,0 0.34375,-0.15625 0.34375,-0.359375 0,-0.203125 -0.15625,-0.359375 -0.34375,-0.359375 h -2.65625 c -0.21875,0 -0.40625,0.171875 -0.40625,0.40625 v 3.734375 c 0,0.234375 0.1875,0.40625 0.40625,0.40625 z m 0,0"
                     style="fill:#000000;fill-opacity:1;stroke:none;stroke-width:0.74355263" />
                  <path
                     inkscape:connector-curvature="0"
                     id="path10814"
                     d="m 56.475664,88.11322 c 0,0.234375 0.1875,0.375 0.375,0.375 0.171875,0 0.28125,-0.07813 0.390625,-0.21875 l 1.203125,-1.5625 1.21875,1.59375 c 0.09375,0.125 0.1875,0.1875 0.359375,0.1875 0.234375,0 0.40625,-0.171875 0.40625,-0.390625 0,-0.109375 -0.0625,-0.21875 -0.125,-0.296875 l -1.34375,-1.671875 1.265625,-1.578125 c 0.07813,-0.109375 0.125,-0.1875 0.125,-0.3125 0,-0.21875 -0.1875,-0.359375 -0.359375,-0.359375 -0.171875,0 -0.28125,0.07813 -0.390625,0.21875 l -1.140625,1.484375 -1.140625,-1.515625 c -0.109375,-0.125 -0.203125,-0.1875 -0.375,-0.1875 -0.21875,0 -0.390625,0.171875 -0.390625,0.390625 0,0.109375 0.0625,0.203125 0.125,0.296875 l 1.265625,1.578125 -1.34375,1.671875 c -0.07813,0.09375 -0.125,0.1875 -0.125,0.296875 z m 0,0"
                     style="fill:#000000;fill-opacity:1;stroke:none;stroke-width:0.74355263" />
                  <path
                     inkscape:connector-curvature="0"
                     id="path10802"
                     d="m 62.704912,88.097595 c 0,0.21875 0.1875,0.390625 0.40625,0.390625 0.21875,0 0.40625,-0.171875 0.40625,-0.390625 V 84.64447 h 1.109375 c 0.203125,0 0.359375,-0.171875 0.359375,-0.359375 0,-0.203125 -0.15625,-0.375 -0.359375,-0.375 h -3.03125 c -0.203125,0 -0.359375,0.171875 -0.359375,0.375 0,0.1875 0.15625,0.359375 0.359375,0.359375 h 1.109375 z m 0,0"
                     style="fill:#000000;fill-opacity:1;stroke:none;stroke-width:0.74355263" />
                  <path
                     inkscape:connector-curvature="0"
                     id="path10810"
                     d="m 69.8669,88.535095 c 0.734375,0 1.21875,-0.234375 1.640625,-0.609375 0.07813,-0.0625 0.140625,-0.171875 0.140625,-0.28125 0,-0.203125 -0.1875,-0.375 -0.390625,-0.375 -0.09375,0 -0.171875,0.03125 -0.234375,0.09375 -0.328125,0.28125 -0.65625,0.4375 -1.140625,0.4375 -0.859375,0 -1.5,-0.734375 -1.5,-1.625 0,-0.890625 0.640625,-1.609375 1.5,-1.609375 0.4375,0 0.78125,0.15625 1.09375,0.40625 0.04687,0.04687 0.125,0.07813 0.234375,0.07813 0.21875,0 0.40625,-0.171875 0.40625,-0.390625 0,-0.140625 -0.07813,-0.25 -0.15625,-0.3125 -0.40625,-0.3125 -0.859375,-0.515625 -1.5625,-0.515625 -1.375,0 -2.34375,1.0625 -2.34375,2.34375 v 0.01563 c 0,1.3125 0.984375,2.34375 2.3125,2.34375 z m 0,0"
                     style="fill:#000000;fill-opacity:1;stroke:none;stroke-width:0.74355263" />
                  <path
                     inkscape:connector-curvature="0"
                     id="path10798"
                     d="m 72.742998,88.05072 c 0,0.234375 0.1875,0.40625 0.40625,0.40625 h 2.453125 c 0.203125,0 0.375,-0.15625 0.375,-0.359375 0,-0.203125 -0.171875,-0.375 -0.375,-0.375 H 73.555498 V 84.26947 c 0,-0.21875 -0.1875,-0.390625 -0.40625,-0.390625 -0.21875,0 -0.40625,0.171875 -0.40625,0.390625 z m 0,0"
                     style="fill:#000000;fill-opacity:1;stroke:none;stroke-width:0.74355263" />
                  <path
                     inkscape:connector-curvature="0"
                     id="path10794"
                     d="m 76.925737,88.097595 c 0,0.21875 0.1875,0.390625 0.40625,0.390625 0.21875,0 0.40625,-0.171875 0.40625,-0.390625 V 87.14447 l 0.734375,-0.703125 1.46875,1.859375 c 0.07813,0.109375 0.171875,0.1875 0.328125,0.1875 0.234375,0 0.40625,-0.171875 0.40625,-0.390625 0,-0.125 -0.04687,-0.203125 -0.109375,-0.28125 l -1.53125,-1.90625 1.40625,-1.359375 c 0.09375,-0.09375 0.15625,-0.1875 0.15625,-0.3125 0,-0.1875 -0.15625,-0.359375 -0.375,-0.359375 -0.140625,0 -0.234375,0.04687 -0.328125,0.140625 l -2.15625,2.171875 V 84.26947 c 0,-0.21875 -0.1875,-0.390625 -0.40625,-0.390625 -0.21875,0 -0.40625,0.171875 -0.40625,0.390625 z m 0,0"
                     style="fill:#000000;fill-opacity:1;stroke:none;stroke-width:0.74355263" />
                  <path
                     inkscape:connector-curvature="0"
                     id="path10790"
                     d="m 29.264605,143.42083 c 0,0.28125 0.21875,0.5 0.484375,0.5 0.28125,0 0.5,-0.21875 0.5,-0.5 v -4.73437 c 0,-0.26563 -0.21875,-0.48438 -0.5,-0.48438 h -0.01563 c -0.140625,0 -0.28125,0.0312 -0.46875,0.0937 l -0.859375,0.26563 c -0.1875,0.0625 -0.328125,0.21875 -0.328125,0.42187 0,0.23438 0.203125,0.42188 0.4375,0.42188 0.04687,0 0.125,-0.0156 0.171875,-0.0312 l 0.578125,-0.17188 z m 0,0"
                     style="fill:#000000;fill-opacity:1;stroke:none;stroke-width:0.74355263" />
                  <path
                     inkscape:connector-curvature="0"
                     id="path10786"
                     d="m 64.170488,143.40521 c 0,0.29687 0.21875,0.46875 0.53125,0.46875 h 3.171875 c 0.234375,0 0.4375,-0.1875 0.4375,-0.4375 0,-0.23438 -0.203125,-0.42188 -0.4375,-0.42188 h -2.265625 l 1.140625,-0.96875 c 1,-0.79687 1.46875,-1.28125 1.46875,-2.15625 v -0.0312 c 0,-1 -0.765625,-1.67187 -1.859375,-1.67187 -0.875,0 -1.390625,0.34375 -1.84375,0.90625 -0.07813,0.0937 -0.125,0.20312 -0.125,0.3125 0,0.25 0.203125,0.4375 0.453125,0.4375 0.15625,0 0.265625,-0.0625 0.34375,-0.14063 0.34375,-0.42187 0.65625,-0.625 1.109375,-0.625 0.5,0 0.90625,0.3125 0.90625,0.875 0,0.5 -0.28125,0.85938 -1.0625,1.5 l -1.71875,1.46875 c -0.15625,0.14063 -0.25,0.29688 -0.25,0.48438 z m 0,0"
                     style="fill:#000000;fill-opacity:1;stroke:none;stroke-width:0.74355263" />
                  <path
                     inkscape:connector-curvature="0"
                     id="path10782"
                     d="m 103.14302,143.96771 c 1.17188,0 1.96875,-0.73438 1.96875,-1.78125 v -0.0156 c 0,-1.03125 -0.8125,-1.45312 -1.65625,-1.5625 l 1.32813,-1.35937 c 0.15625,-0.17188 0.28125,-0.3125 0.28125,-0.54688 0,-0.26562 -0.21875,-0.42187 -0.5,-0.42187 h -2.85938 c -0.23437,0 -0.4375,0.1875 -0.4375,0.42187 0,0.23438 0.20313,0.42188 0.4375,0.42188 h 2.03125 l -1.3125,1.40625 c -0.15625,0.15625 -0.20312,0.26562 -0.20312,0.40625 0,0.21875 0.1875,0.42187 0.42187,0.42187 h 0.20313 c 0.78125,0 1.28125,0.3125 1.28125,0.85938 v 0.0156 c 0,0.51563 -0.40625,0.84375 -0.96875,0.84375 -0.51563,0 -0.92188,-0.17187 -1.26563,-0.53125 -0.0781,-0.0781 -0.1875,-0.125 -0.32812,-0.125 -0.26563,0 -0.46875,0.21875 -0.46875,0.46875 0,0.14063 0.0625,0.28125 0.15625,0.35938 0.45312,0.4375 1.0625,0.71875 1.89062,0.71875 z m 0,0"
                     style="fill:#000000;fill-opacity:1;stroke:none;stroke-width:0.74355263" />
                  <path
                     inkscape:connector-curvature="0"
                     id="path10778"
                     d="m 140.54756,143.45208 c 0,0.26563 0.20313,0.46875 0.46875,0.46875 0.26563,0 0.46875,-0.20312 0.46875,-0.46875 v -0.82812 h 0.4375 c 0.23438,0 0.40625,-0.1875 0.40625,-0.40625 0,-0.21875 -0.17187,-0.40625 -0.40625,-0.40625 h -0.4375 v -3.14063 c 0,-0.26562 -0.20312,-0.48437 -0.46875,-0.48437 -0.29687,0 -0.42187,0.125 -0.60937,0.32812 l -2.625,3.125 c -0.14063,0.15625 -0.21875,0.32813 -0.21875,0.51563 0,0.26562 0.21875,0.46875 0.48437,0.46875 h 2.5 z m -1.84375,-1.64062 1.84375,-2.21875 v 2.21875 z m 0,0"
                     style="fill:#000000;fill-opacity:1;stroke:none;stroke-width:0.74355263" />
                  <path
                     inkscape:connector-curvature="0"
                     id="path10774"
                     d="m 176.80745,143.96771 c 1.1875,0 2.04687,-0.75 2.04687,-1.89063 v -0.0156 c 0,-1.1875 -0.85937,-1.76563 -1.95312,-1.76563 -0.375,0 -0.625,0.0625 -0.89063,0.15625 l 0.0937,-1.3125 h 2.09375 c 0.25,0 0.4375,-0.1875 0.4375,-0.42187 0,-0.25 -0.1875,-0.4375 -0.4375,-0.4375 h -2.53125 c -0.23437,0 -0.4375,0.17187 -0.45312,0.4375 l -0.10938,2.01562 c -0.0156,0.1875 0.0469,0.32813 0.1875,0.42188 0.1875,0.14062 0.3125,0.20312 0.46875,0.20312 0.14063,0 0.40625,-0.20312 0.95313,-0.20312 0.6875,0 1.15625,0.35937 1.15625,0.9375 v 0.0156 c 0,0.59375 -0.45313,0.96875 -1.07813,0.96875 -0.4375,0 -0.84375,-0.15625 -1.21875,-0.46875 -0.0781,-0.0781 -0.17187,-0.10937 -0.29687,-0.10937 -0.25,0 -0.46875,0.21875 -0.46875,0.48437 0,0.15625 0.0781,0.28125 0.20312,0.375 0.45313,0.35938 1.03125,0.60938 1.79688,0.60938 z m 0,0"
                     style="fill:#000000;fill-opacity:1;stroke:none;stroke-width:0.74355263" />
                  <path
                     inkscape:connector-curvature="0"
                     id="path10770"
                     d="m 213.76179,143.96771 c 1.17188,0 2.07813,-0.79688 2.07813,-1.90625 v -0.0156 c 0,-1.10937 -0.875,-1.75 -1.95313,-1.75 -0.67187,0 -1.04687,0.26563 -1.34375,0.54688 0.0469,-1.01563 0.5,-1.76563 1.34375,-1.76563 0.375,0 0.65625,0.10938 0.95313,0.3125 0.0781,0.0312 0.15625,0.0625 0.25,0.0625 0.25,0 0.46875,-0.1875 0.46875,-0.45312 0,-0.20313 -0.0937,-0.32813 -0.25,-0.42188 -0.35938,-0.25 -0.8125,-0.40625 -1.39063,-0.40625 -1.59375,0 -2.40625,1.34375 -2.40625,3.0625 v 0.0156 c 0,1.125 0.26563,1.70312 0.6875,2.125 0.375,0.375 0.875,0.59375 1.5625,0.59375 z m -0.0312,-0.85938 c -0.70312,0 -1.15625,-0.42187 -1.15625,-1 v -0.0156 c 0,-0.53125 0.4375,-0.98438 1.125,-0.98438 0.70313,0 1.15625,0.42188 1.15625,0.98438 v 0.0156 c 0,0.57813 -0.42187,1 -1.125,1 z m 0,0"
                     style="fill:#000000;fill-opacity:1;stroke:none;stroke-width:0.74355263" />
                  <path
                     inkscape:connector-curvature="0"
                     id="path10766"
                     d="m 249.19246,143.46771 c 0,0.28125 0.25,0.45312 0.5,0.45312 0.20312,0 0.35937,-0.10937 0.48437,-0.32812 l 2.3125,-4.40625 c 0.0781,-0.15625 0.14063,-0.32813 0.14063,-0.46875 0,-0.28125 -0.17188,-0.4375 -0.45313,-0.4375 h -3.14062 c -0.23438,0 -0.4375,0.1875 -0.4375,0.42187 0,0.25 0.20312,0.4375 0.4375,0.4375 h 2.42187 l -2.17187,4.03125 c -0.0469,0.0937 -0.0937,0.21875 -0.0937,0.29688 z m 0,0"
                     style="fill:#000000;fill-opacity:1;stroke:none;stroke-width:0.74355263" />
                  <path
                     inkscape:connector-curvature="0"
                     id="path10762"
                     d="m 287.38229,143.95208 c 1.23437,0 2.14062,-0.625 2.14062,-1.625 v -0.0156 c 0,-0.65625 -0.39062,-1.0625 -1.01562,-1.34375 0.48437,-0.25 0.82812,-0.625 0.82812,-1.25 v -0.0156 c 0,-0.85937 -0.82812,-1.51562 -1.95312,-1.51562 -1.10938,0 -1.9375,0.65625 -1.9375,1.51562 v 0.0156 c 0,0.625 0.34375,1 0.8125,1.25 -0.625,0.26562 -1,0.6875 -1,1.35937 v 0.0156 c 0,0.96875 0.90625,1.60937 2.125,1.60937 z m 0,-3.3125 c -0.57813,0 -1,-0.34375 -1,-0.82812 v -0.0156 c 0,-0.42187 0.40625,-0.78125 1,-0.78125 0.60937,0 1,0.35938 1,0.78125 v 0.0156 c 0,0.48437 -0.42188,0.82812 -1,0.82812 z m 0,2.48438 c -0.73438,0 -1.15625,-0.375 -1.15625,-0.82813 v -0.0156 c 0,-0.51563 0.5,-0.85938 1.15625,-0.85938 0.67187,0 1.1875,0.34375 1.1875,0.85938 v 0.0156 c 0,0.45313 -0.45313,0.82813 -1.1875,0.82813 z m 0,0"
                     style="fill:#000000;fill-opacity:1;stroke:none;stroke-width:0.74355263" />
                </g>
              </g>
            </g>
          </g>
        </g>
      </g>
    </g>
  </g>
</svg>
