<?xml version="1.0" encoding="UTF-8"?>
<svg xmlns="http://www.w3.org/2000/svg" width="330" height="380" xmlns:xlink="http://www.w3.org/1999/xlink" viewBox="0 0 330 380">
  <defs>
    <linearGradient id="uuid-cb402f4e-2073-4ac4-b9b5-9d7e3a39d1b0" x1="164.99999" y1="0" x2="164.99999" y2="380" gradientUnits="userSpaceOnUse">
      <stop offset="0" stop-color="#2a2a2b"/>
      <stop offset="1" stop-color="#171717"/>
    </linearGradient>
  </defs>
  <g id="uuid-0bd986c9-eee6-418a-b463-11473de44865" data-name="FND BG">
    <rect x="-.00001" width="330.00001" height="380" fill="url(#uuid-cb402f4e-2073-4ac4-b9b5-9d7e3a39d1b0)"/>
  </g>
  <g id="uuid-d5404638-624f-44d5-9e8f-53746ce69aa0" data-name="FND GRAPH">
    <rect x="16.15289" y="309.05634" width="143.88012" height="39.15691" rx="2.83465" ry="2.83465" fill="#ededed"/>
    <rect x="169.92522" y="309.05634" width="143.96085" height="39.15691" rx="2.83465" ry="2.83465" fill="#ededed"/>
    <g>
      <path d="m156.85927,359.75298c-.34551,0-.66126-.1952-.8158-.50419l-2.96428-5.92856c-.22526-.45057-.04266-.99844.40794-1.2237.45008-.22535.99831-.04271,1.22366.4079l2.14848,4.29696,2.14848-4.29696c.22526-.45057.77314-.63325,1.22366-.4079.45061.22526.63321.77314.40794,1.2237l-2.96428,5.92856c-.15454.30899-.47029.50419-.8158.50419Z" fill="#ededed"/>
      <path d="m173.14073,359.75298c-.34551,0-.66126-.1952-.8158-.50419l-2.96428-5.92856c-.22526-.45057-.04266-.99844.40794-1.2237.45016-.22535.9984-.04271,1.22366.4079l2.14848,4.29696,2.14848-4.29696c.22526-.45057.77305-.63325,1.22366-.4079.45061.22526.63321.77314.40794,1.2237l-2.96428,5.92856c-.15454.30899-.47029.50419-.8158.50419Z" fill="#ededed"/>
      <path d="m165.44242,359.75298c-2.13744,0-3.87637-1.73893-3.87637-3.87637s1.73893-3.87637,3.87637-3.87637c.84653,0,1.65102.26819,2.32653.77554.40278.30253.48401.87428.18153,1.27705-.30248.40273-.87432.48401-1.2771.18148-.357-.26815-.78267-.4099-1.23096-.4099-1.13156,0-2.05219.92059-2.05219,2.05219s.92064,2.05219,2.05219,2.05219c.44829,0,.87396-.14176,1.23096-.4099.40269-.30271.97444-.22125,1.2771.18148.30248.40278.22125.97453-.18153,1.27705-.67551.50735-1.48.77554-2.32653.77554Z" fill="#ededed"/>
      <circle cx="165.50165" cy="355.83101" r="1.18571" fill="#ededed"/>
    </g>
    <line x1="299.53132" y1="53.2205" x2="299.53132" y2="72.80725" fill="none" stroke="#ededed" stroke-linecap="round" stroke-linejoin="round" stroke-width=".8"/>
    <line x1="261.0938" y1="53.2205" x2="261.0938" y2="72.80725" fill="none" stroke="#ededed" stroke-linecap="round" stroke-linejoin="round" stroke-width=".8"/>
    <line x1="222.65628" y1="53.2205" x2="222.65628" y2="72.80725" fill="none" stroke="#ededed" stroke-linecap="round" stroke-linejoin="round" stroke-width=".8"/>
    <line x1="184.21876" y1="53.2205" x2="184.21876" y2="72.80725" fill="none" stroke="#ededed" stroke-linecap="round" stroke-linejoin="round" stroke-width=".8"/>
    <line x1="145.78124" y1="53.2205" x2="145.78124" y2="72.80725" fill="none" stroke="#ededed" stroke-linecap="round" stroke-linejoin="round" stroke-width=".8"/>
    <line x1="30.46868" y1="120.77538" x2="30.46868" y2="137.48773" fill="none" stroke="#ededed" stroke-linecap="round" stroke-linejoin="round" stroke-width=".8"/>
    <line x1="30.46868" y1="162.24405" x2="30.46868" y2="178.9564" fill="none" stroke="#ededed" stroke-linecap="round" stroke-linejoin="round" stroke-width=".8"/>
    <line x1="30.46868" y1="203.71271" x2="30.46868" y2="220.42506" fill="none" stroke="#ededed" stroke-linecap="round" stroke-linejoin="round" stroke-width=".8"/>
    <line x1="68.9062" y1="120.77538" x2="68.9062" y2="137.48773" fill="none" stroke="#ededed" stroke-linecap="round" stroke-linejoin="round" stroke-width=".8"/>
    <line x1="68.9062" y1="162.24405" x2="68.9062" y2="178.9564" fill="none" stroke="#ededed" stroke-linecap="round" stroke-linejoin="round" stroke-width=".8"/>
    <line x1="68.9062" y1="203.71271" x2="68.9062" y2="220.42506" fill="none" stroke="#ededed" stroke-linecap="round" stroke-linejoin="round" stroke-width=".8"/>
    <line x1="107.34372" y1="120.77538" x2="107.34372" y2="137.48773" fill="none" stroke="#ededed" stroke-linecap="round" stroke-linejoin="round" stroke-width=".8"/>
    <line x1="107.34372" y1="162.24405" x2="107.34372" y2="178.9564" fill="none" stroke="#ededed" stroke-linecap="round" stroke-linejoin="round" stroke-width=".8"/>
    <line x1="107.34372" y1="203.71271" x2="107.34372" y2="220.42506" fill="none" stroke="#ededed" stroke-linecap="round" stroke-linejoin="round" stroke-width=".8"/>
    <line x1="145.78124" y1="120.77538" x2="145.78124" y2="137.48773" fill="none" stroke="#ededed" stroke-linecap="round" stroke-linejoin="round" stroke-width=".8"/>
    <line x1="145.78124" y1="162.24405" x2="145.78124" y2="178.9564" fill="none" stroke="#ededed" stroke-linecap="round" stroke-linejoin="round" stroke-width=".8"/>
    <line x1="145.78124" y1="203.71271" x2="145.78124" y2="220.42506" fill="none" stroke="#ededed" stroke-linecap="round" stroke-linejoin="round" stroke-width=".8"/>
    <line x1="184.21876" y1="120.77538" x2="184.21876" y2="137.48773" fill="none" stroke="#ededed" stroke-linecap="round" stroke-linejoin="round" stroke-width=".8"/>
    <line x1="184.21876" y1="162.24405" x2="184.21876" y2="178.9564" fill="none" stroke="#ededed" stroke-linecap="round" stroke-linejoin="round" stroke-width=".8"/>
    <line x1="184.21876" y1="203.71271" x2="184.21876" y2="220.42506" fill="none" stroke="#ededed" stroke-linecap="round" stroke-linejoin="round" stroke-width=".8"/>
    <line x1="222.65628" y1="120.77538" x2="222.65628" y2="137.48773" fill="none" stroke="#ededed" stroke-linecap="round" stroke-linejoin="round" stroke-width=".8"/>
    <line x1="222.65628" y1="162.24405" x2="222.65628" y2="178.9564" fill="none" stroke="#ededed" stroke-linecap="round" stroke-linejoin="round" stroke-width=".8"/>
    <line x1="222.65628" y1="203.71271" x2="222.65628" y2="220.42506" fill="none" stroke="#ededed" stroke-linecap="round" stroke-linejoin="round" stroke-width=".8"/>
    <line x1="261.0938" y1="120.77538" x2="261.0938" y2="137.48773" fill="none" stroke="#ededed" stroke-linecap="round" stroke-linejoin="round" stroke-width=".8"/>
    <line x1="261.0938" y1="162.24405" x2="261.0938" y2="178.9564" fill="none" stroke="#ededed" stroke-linecap="round" stroke-linejoin="round" stroke-width=".8"/>
    <line x1="261.0938" y1="203.71271" x2="261.0938" y2="220.42506" fill="none" stroke="#ededed" stroke-linecap="round" stroke-linejoin="round" stroke-width=".8"/>
    <line x1="299.53132" y1="120.77538" x2="299.53132" y2="137.48773" fill="none" stroke="#ededed" stroke-linecap="round" stroke-linejoin="round" stroke-width=".8"/>
    <line x1="299.53132" y1="162.24405" x2="299.53132" y2="178.9564" fill="none" stroke="#ededed" stroke-linecap="round" stroke-linejoin="round" stroke-width=".8"/>
    <line x1="299.53132" y1="203.71271" x2="299.53132" y2="220.42506" fill="none" stroke="#ededed" stroke-linecap="round" stroke-linejoin="round" stroke-width=".8"/>
    <circle cx="145.78124" cy="100.58629" r="13.79989" fill="none"/>
    <circle cx="184.21876" cy="100.58629" r="13.79989" fill="none"/>
    <rect x="16.15289" y="271.68344" width="28.6316" height="28.63301" rx="2.34296" ry="2.34296" fill="#ededed"/>
    <rect x="54.59597" y="271.68344" width="28.6316" height="28.63301" rx="2.34296" ry="2.34296" fill="#ededed"/>
    <rect x="93.03905" y="271.68344" width="28.6316" height="28.63301" rx="2.34296" ry="2.34296" fill="#ededed"/>
    <rect x="131.48214" y="271.68344" width="28.6316" height="28.63301" rx="2.34296" ry="2.34296" fill="#ededed"/>
    <rect x="169.92522" y="271.68344" width="28.6316" height="28.63301" rx="2.34296" ry="2.34296" fill="#ededed"/>
    <rect x="208.36831" y="271.68344" width="28.6316" height="28.63301" rx="2.34296" ry="2.34296" fill="#ededed"/>
    <rect x="246.81139" y="271.68344" width="28.6316" height="28.63301" rx="2.34296" ry="2.34296" fill="#ededed"/>
    <rect x="285.25448" y="271.68344" width="28.6316" height="28.63301" rx="2.34296" ry="2.34296" fill="#ededed"/>
    <line x1="44.37609" y1="253.26275" x2="54.99879" y2="253.26275" fill="none" stroke="#ededed" stroke-linecap="round" stroke-linejoin="round" stroke-width=".8"/>
    <line x1="82.81361" y1="253.26275" x2="93.43631" y2="253.26275" fill="none" stroke="#ededed" stroke-linecap="round" stroke-linejoin="round" stroke-width=".8"/>
    <line x1="121.25113" y1="253.26275" x2="131.87383" y2="253.26275" fill="none" stroke="#ededed" stroke-linecap="round" stroke-linejoin="round" stroke-width=".8"/>
    <line x1="159.68865" y1="253.26275" x2="170.31135" y2="253.26275" fill="none" stroke="#ededed" stroke-linecap="round" stroke-linejoin="round" stroke-width=".8"/>
    <line x1="198.12617" y1="253.26275" x2="208.74887" y2="253.26275" fill="none" stroke="#ededed" stroke-linecap="round" stroke-linejoin="round" stroke-width=".8"/>
    <line x1="236.56369" y1="253.26275" x2="247.18639" y2="253.26275" fill="none" stroke="#ededed" stroke-linecap="round" stroke-linejoin="round" stroke-width=".8"/>
    <line x1="275.00121" y1="253.26275" x2="285.62391" y2="253.26275" fill="none" stroke="#ededed" stroke-linecap="round" stroke-linejoin="round" stroke-width=".8"/>
    <g>
      <circle cx="34.70371" cy="78.99989" r="26.48818" fill="none" isolation="isolate" opacity=".69"/>
      <path d="m45.50193,97.10255c6.2955-3.78272,10.15833-10.61025,10.15833-17.95479,0-11.491-9.45566-20.94666-20.94666-20.94666s-20.94666,9.45566-20.94666,20.94666c0,7.39639,3.91756,14.2646,10.28394,18.02967" fill="none" stroke="#ededed" stroke-linecap="round" stroke-miterlimit="10" stroke-width=".8"/>
      <line x1="45.50193" y1="97.10255" x2="34.70371" y2="78.99989" fill="none"/>
    </g>
    <g>
      <circle cx="94.71674" cy="79.07998" r="26.48818" fill="none" isolation="isolate" opacity=".69"/>
      <g>
        <path d="m105.51496,97.18264c6.2955-3.78272,10.15833-10.61025,10.15833-17.95479,0-11.491-9.45566-20.94666-20.94666-20.94666s-20.94666,9.45566-20.94666,20.94666c0,7.39639,3.91756,14.2646,10.28394,18.02967l10.65282-18.17754" fill="none" stroke="#ededed" stroke-linecap="round" stroke-linejoin="round" stroke-width=".8"/>
        <g>
          <line x1="75.01341" y1="85.53009" x2="84.27617" y2="82.73615" fill="none" stroke="#ededed" stroke-linecap="round" stroke-miterlimit="10" stroke-width=".5"/>
          <line x1="76.26737" y1="70.4434" x2="84.91281" y2="74.78609" fill="none" stroke="#ededed" stroke-linecap="round" stroke-miterlimit="10" stroke-width=".5"/>
          <line x1="86.91123" y1="60.02197" x2="90.64823" y2="69.42766" fill="none" stroke="#ededed" stroke-linecap="round" stroke-miterlimit="10" stroke-width=".5"/>
          <line x1="102.56588" y1="59.82108" x2="98.65658" y2="69.36792" fill="none" stroke="#ededed" stroke-linecap="round" stroke-miterlimit="10" stroke-width=".5"/>
          <line x1="113.1599" y1="70.39185" x2="104.4691" y2="74.64304" fill="none" stroke="#ededed" stroke-linecap="round" stroke-miterlimit="10" stroke-width=".5"/>
          <line x1="114.45677" y1="85.47287" x2="105.22369" y2="82.58233" fill="none" stroke="#ededed" stroke-linecap="round" stroke-miterlimit="10" stroke-width=".5"/>
        </g>
      </g>
      <line x1="105.51496" y1="97.18264" x2="94.71674" y2="79.07998" fill="none" stroke="#ededed" stroke-linecap="round" stroke-miterlimit="10" stroke-width=".8"/>
    </g>
    <g>
      <path d="m39.10432,151.79291c4.83522-2.92859,8.06662-8.2395,8.06662-14.30514,0-9.23-7.48239-16.71239-16.71239-16.71239s-16.71239,7.48239-16.71239,16.71239c0,6.09737,3.2653,11.4321,8.14264,14.35091" fill="none" stroke="#ededed" stroke-linecap="round" stroke-linejoin="round" stroke-width=".8"/>
      <circle cx="30.46868" cy="137.48773" r="20.69419" fill="none" isolation="isolate" opacity=".69"/>
    </g>
    <g>
      <path d="m39.10432,193.26157c4.83522-2.92859,8.06662-8.2395,8.06662-14.30514,0-9.23-7.48239-16.71239-16.71239-16.71239s-16.71239,7.48239-16.71239,16.71239c0,6.09737,3.2653,11.4321,8.14264,14.35091" fill="none" stroke="#ededed" stroke-linecap="round" stroke-linejoin="round" stroke-width=".8"/>
      <circle cx="30.46868" cy="178.9564" r="20.69419" fill="none" isolation="isolate" opacity=".69"/>
    </g>
    <g>
      <path d="m39.10432,234.59446c4.83522-2.92859,8.06662-8.2395,8.06662-14.30514,0-9.23-7.48239-16.71239-16.71239-16.71239s-16.71239,7.48239-16.71239,16.71239c0,6.09737,3.2653,11.4321,8.14264,14.35091" fill="none" stroke="#ededed" stroke-linecap="round" stroke-linejoin="round" stroke-width=".8"/>
      <circle cx="30.46868" cy="220.28929" r="20.69419" fill="none" isolation="isolate" opacity=".69"/>
    </g>
    <g>
      <path d="m77.54184,151.79291c4.83522-2.92859,8.06662-8.2395,8.06662-14.30514,0-9.23-7.48239-16.71239-16.71239-16.71239s-16.71239,7.48239-16.71239,16.71239c0,6.09737,3.2653,11.4321,8.14264,14.35091" fill="none" stroke="#ededed" stroke-linecap="round" stroke-linejoin="round" stroke-width=".8"/>
      <circle cx="68.9062" cy="137.48773" r="20.69419" fill="none" isolation="isolate" opacity=".69"/>
    </g>
    <g>
      <path d="m77.54184,193.26157c4.83522-2.92859,8.06662-8.2395,8.06662-14.30514,0-9.23-7.48239-16.71239-16.71239-16.71239s-16.71239,7.48239-16.71239,16.71239c0,6.09737,3.2653,11.4321,8.14264,14.35091" fill="none" stroke="#ededed" stroke-linecap="round" stroke-linejoin="round" stroke-width=".8"/>
      <circle cx="68.9062" cy="178.9564" r="20.69419" fill="none" isolation="isolate" opacity=".69"/>
    </g>
    <g>
      <path d="m77.54184,234.59446c4.83522-2.92859,8.06662-8.2395,8.06662-14.30514,0-9.23-7.48239-16.71239-16.71239-16.71239s-16.71239,7.48239-16.71239,16.71239c0,6.09737,3.2653,11.4321,8.14264,14.35091" fill="none" stroke="#ededed" stroke-linecap="round" stroke-linejoin="round" stroke-width=".8"/>
      <circle cx="68.9062" cy="220.28929" r="20.69419" fill="none" isolation="isolate" opacity=".69"/>
    </g>
    <g>
      <path d="m115.97936,151.79291c4.83522-2.92859,8.06662-8.2395,8.06662-14.30514,0-9.23-7.48239-16.71239-16.71239-16.71239s-16.71239,7.48239-16.71239,16.71239c0,6.09737,3.2653,11.4321,8.14264,14.35091" fill="none" stroke="#ededed" stroke-linecap="round" stroke-linejoin="round" stroke-width=".8"/>
      <circle cx="107.34372" cy="137.48773" r="20.69419" fill="none" isolation="isolate" opacity=".69"/>
    </g>
    <g>
      <path d="m115.97936,193.26157c4.83522-2.92859,8.06662-8.2395,8.06662-14.30514,0-9.23-7.48239-16.71239-16.71239-16.71239s-16.71239,7.48239-16.71239,16.71239c0,6.09737,3.2653,11.4321,8.14264,14.35091" fill="none" stroke="#ededed" stroke-linecap="round" stroke-linejoin="round" stroke-width=".8"/>
      <circle cx="107.34372" cy="178.9564" r="20.69419" fill="none" isolation="isolate" opacity=".69"/>
    </g>
    <g>
      <path d="m115.97936,234.59446c4.83522-2.92859,8.06662-8.2395,8.06662-14.30514,0-9.23-7.48239-16.71239-16.71239-16.71239s-16.71239,7.48239-16.71239,16.71239c0,6.09737,3.2653,11.4321,8.14264,14.35091" fill="none" stroke="#ededed" stroke-linecap="round" stroke-linejoin="round" stroke-width=".8"/>
      <circle cx="107.34372" cy="220.28929" r="20.69419" fill="none" isolation="isolate" opacity=".69"/>
    </g>
    <g>
      <path d="m154.41688,151.79291c4.83522-2.92859,8.06662-8.2395,8.06662-14.30514,0-9.23-7.48239-16.71239-16.71239-16.71239s-16.71239,7.48239-16.71239,16.71239c0,6.09737,3.2653,11.4321,8.14264,14.35091" fill="none" stroke="#ededed" stroke-linecap="round" stroke-linejoin="round" stroke-width=".8"/>
      <circle cx="145.78124" cy="137.48773" r="20.69419" fill="none" isolation="isolate" opacity=".69"/>
    </g>
    <g>
      <path d="m154.41688,193.26157c4.83522-2.92859,8.06662-8.2395,8.06662-14.30514,0-9.23-7.48239-16.71239-16.71239-16.71239s-16.71239,7.48239-16.71239,16.71239c0,6.09737,3.2653,11.4321,8.14264,14.35091" fill="none" stroke="#ededed" stroke-linecap="round" stroke-linejoin="round" stroke-width=".8"/>
      <circle cx="145.78124" cy="178.9564" r="20.69419" fill="none" isolation="isolate" opacity=".69"/>
    </g>
    <g>
      <path d="m154.41688,234.59446c4.83522-2.92859,8.06662-8.2395,8.06662-14.30514,0-9.23-7.48239-16.71239-16.71239-16.71239s-16.71239,7.48239-16.71239,16.71239c0,6.09737,3.2653,11.4321,8.14264,14.35091" fill="none" stroke="#ededed" stroke-linecap="round" stroke-linejoin="round" stroke-width=".8"/>
      <circle cx="145.78124" cy="220.28929" r="20.69419" fill="none" isolation="isolate" opacity=".69"/>
    </g>
    <g>
      <path d="m192.85439,151.79291c4.83522-2.92859,8.06662-8.2395,8.06662-14.30514,0-9.23-7.48239-16.71239-16.71239-16.71239s-16.71239,7.48239-16.71239,16.71239c0,6.09737,3.2653,11.4321,8.14264,14.35091" fill="none" stroke="#ededed" stroke-linecap="round" stroke-linejoin="round" stroke-width=".8"/>
      <circle cx="184.21876" cy="137.48773" r="20.69419" fill="none" isolation="isolate" opacity=".69"/>
    </g>
    <g>
      <path d="m192.85439,193.26157c4.83522-2.92859,8.06662-8.2395,8.06662-14.30514,0-9.23-7.48239-16.71239-16.71239-16.71239s-16.71239,7.48239-16.71239,16.71239c0,6.09737,3.2653,11.4321,8.14264,14.35091" fill="none" stroke="#ededed" stroke-linecap="round" stroke-linejoin="round" stroke-width=".8"/>
      <circle cx="184.21876" cy="178.9564" r="20.69419" fill="none" isolation="isolate" opacity=".69"/>
    </g>
    <g>
      <path d="m192.85439,234.59446c4.83522-2.92859,8.06662-8.2395,8.06662-14.30514,0-9.23-7.48239-16.71239-16.71239-16.71239s-16.71239,7.48239-16.71239,16.71239c0,6.09737,3.2653,11.4321,8.14264,14.35091" fill="none" stroke="#ededed" stroke-linecap="round" stroke-linejoin="round" stroke-width=".8"/>
      <circle cx="184.21876" cy="220.28929" r="20.69419" fill="none" isolation="isolate" opacity=".69"/>
    </g>
    <g>
      <path d="m231.29191,151.79291c4.83522-2.92859,8.06662-8.2395,8.06662-14.30514,0-9.23-7.48239-16.71239-16.71239-16.71239s-16.71239,7.48239-16.71239,16.71239c0,6.09737,3.2653,11.4321,8.14264,14.35091" fill="none" stroke="#ededed" stroke-linecap="round" stroke-linejoin="round" stroke-width=".8"/>
      <circle cx="222.65628" cy="137.48773" r="20.69419" fill="none" isolation="isolate" opacity=".69"/>
    </g>
    <g>
      <path d="m231.29191,193.26157c4.83522-2.92859,8.06662-8.2395,8.06662-14.30514,0-9.23-7.48239-16.71239-16.71239-16.71239s-16.71239,7.48239-16.71239,16.71239c0,6.09737,3.2653,11.4321,8.14264,14.35091" fill="none" stroke="#ededed" stroke-linecap="round" stroke-linejoin="round" stroke-width=".8"/>
      <circle cx="222.65628" cy="178.9564" r="20.69419" fill="none" isolation="isolate" opacity=".69"/>
    </g>
    <g>
      <path d="m231.29191,234.59446c4.83522-2.92859,8.06662-8.2395,8.06662-14.30514,0-9.23-7.48239-16.71239-16.71239-16.71239s-16.71239,7.48239-16.71239,16.71239c0,6.09737,3.2653,11.4321,8.14264,14.35091" fill="none" stroke="#ededed" stroke-linecap="round" stroke-linejoin="round" stroke-width=".8"/>
      <circle cx="222.65628" cy="220.28929" r="20.69419" fill="none" isolation="isolate" opacity=".69"/>
    </g>
    <g>
      <path d="m269.72943,151.79291c4.83522-2.92859,8.06662-8.2395,8.06662-14.30514,0-9.23-7.48239-16.71239-16.71239-16.71239s-16.71239,7.48239-16.71239,16.71239c0,6.09737,3.2653,11.4321,8.14264,14.35091" fill="none" stroke="#ededed" stroke-linecap="round" stroke-linejoin="round" stroke-width=".8"/>
      <circle cx="261.0938" cy="137.48773" r="20.69419" fill="none" isolation="isolate" opacity=".69"/>
    </g>
    <g>
      <path d="m269.72943,193.26157c4.83522-2.92859,8.06662-8.2395,8.06662-14.30514,0-9.23-7.48239-16.71239-16.71239-16.71239s-16.71239,7.48239-16.71239,16.71239c0,6.09737,3.2653,11.4321,8.14264,14.35091" fill="none" stroke="#ededed" stroke-linecap="round" stroke-linejoin="round" stroke-width=".8"/>
      <circle cx="261.0938" cy="178.9564" r="20.69419" fill="none" isolation="isolate" opacity=".69"/>
    </g>
    <g>
      <path d="m269.72943,234.59446c4.83522-2.92859,8.06662-8.2395,8.06662-14.30514,0-9.23-7.48239-16.71239-16.71239-16.71239s-16.71239,7.48239-16.71239,16.71239c0,6.09737,3.2653,11.4321,8.14264,14.35091" fill="none" stroke="#ededed" stroke-linecap="round" stroke-linejoin="round" stroke-width=".8"/>
      <circle cx="261.0938" cy="220.28929" r="20.69419" fill="none" isolation="isolate" opacity=".69"/>
    </g>
    <g>
      <path d="m308.16695,151.79291c4.83522-2.92859,8.06662-8.2395,8.06662-14.30514,0-9.23-7.48239-16.71239-16.71239-16.71239s-16.71239,7.48239-16.71239,16.71239c0,6.09737,3.2653,11.4321,8.14264,14.35091" fill="none" stroke="#ededed" stroke-linecap="round" stroke-linejoin="round" stroke-width=".8"/>
      <circle cx="299.53132" cy="137.48773" r="20.69419" fill="none" isolation="isolate" opacity=".69"/>
    </g>
    <g>
      <path d="m308.16695,193.26157c4.83522-2.92859,8.06662-8.2395,8.06662-14.30514,0-9.23-7.48239-16.71239-16.71239-16.71239s-16.71239,7.48239-16.71239,16.71239c0,6.09737,3.2653,11.4321,8.14264,14.35091" fill="none" stroke="#ededed" stroke-linecap="round" stroke-linejoin="round" stroke-width=".8"/>
      <circle cx="299.53132" cy="178.9564" r="20.69419" fill="none" isolation="isolate" opacity=".69"/>
    </g>
    <g>
      <path d="m308.16695,234.59446c4.83522-2.92859,8.06662-8.2395,8.06662-14.30514,0-9.23-7.48239-16.71239-16.71239-16.71239s-16.71239,7.48239-16.71239,16.71239c0,6.09737,3.2653,11.4321,8.14264,14.35091" fill="none" stroke="#ededed" stroke-linecap="round" stroke-linejoin="round" stroke-width=".8"/>
      <circle cx="299.53132" cy="220.28929" r="20.69419" fill="none" isolation="isolate" opacity=".69"/>
    </g>
    <path d="m137.61764,108.73669c-2.1616-2.1616-3.37728-5.09649-3.37728-8.15346,0-6.32558,5.20516-11.53074,11.53074-11.53074s11.53074,5.20516,11.53074,11.53074c0,3.05697-1.21567,5.99186-3.37728,8.15346l-8.14037-8.14894" fill="none" stroke="#ededed" stroke-linecap="round" stroke-linejoin="round"/>
    <path d="m176.0653,108.73669c-2.1616-2.1616-3.37728-5.09649-3.37728-8.15346,0-6.32558,5.20516-11.53074,11.53074-11.53074s11.53074,5.20516,11.53074,11.53074c0,3.05697-1.21567,5.99186-3.37728,8.15346l-8.1505-8.14894" fill="none" stroke="#ededed" stroke-linecap="round" stroke-linejoin="round"/>
  </g>
  <g id="uuid-1affeefd-160c-48d1-afef-0406dcbf7993" data-name="FND TXT">
    <g>
      <path d="m61.06641,316.55127v-.01367c0-1.34814,1.01758-2.45264,2.47363-2.45264.71191,0,1.19238.18994,1.58496.48145.10938.08105.20312.23047.20312.41309,0,.28467-.23047.50781-.51465.50781-.1416,0-.2373-.05371-.31152-.10156-.29102-.2168-.5957-.33838-.96875-.33838-.79883,0-1.375.66357-1.375,1.47705v.01318c0,.81299.5625,1.49072,1.375,1.49072.44043,0,.73145-.13574,1.0293-.37305.08203-.06738.18945-.11475.3125-.11475.26367,0,.4873.2168.4873.48096,0,.1626-.08105.29102-.17676.37256-.42578.37256-.92773.59619-1.68555.59619-1.39648,0-2.43359-1.07715-2.43359-2.43896Z" fill="#1f1f1f"/>
      <path d="m67.75195,318.57031l-1.53711-3.67871c-.03418-.08154-.06055-.16309-.06055-.25098,0-.29102.22949-.51465.52148-.51465.27051,0,.44727.15576.52734.36572l1.18555,3.06885,1.19922-3.10254c.06836-.16943.25195-.33203.50195-.33203.28516,0,.51562.2168.51562.50098,0,.08154-.02734.16992-.05469.23047l-1.55176,3.71289c-.1084.25732-.30469.41309-.58887.41309h-.06836c-.28516,0-.48047-.15576-.58984-.41309Z" fill="#1f1f1f"/>
      <path d="m73.43555,317.89258l1.34863-1.10449c.58887-.48047.81934-.74512.81934-1.1377,0-.3999-.26367-.6167-.63672-.6167-.29785,0-.50781.12842-.77148.41357-.06836.07422-.19043.14844-.35352.14844-.26367,0-.47363-.20996-.47363-.47363,0-.11523.04785-.2373.12207-.3252.37891-.44043.82617-.69824,1.54492-.69824.98242,0,1.63281.57617,1.63281,1.46338v.01367c0,.79248-.40625,1.18555-1.24707,1.83594l-.77246.59619h1.65332c.25098,0,.4541.20312.4541.4541,0,.25049-.20312.44727-.4541.44727h-2.5752c-.32422,0-.56152-.18311-.56152-.49512,0-.20312.09473-.37891.27051-.52148Z" fill="#1f1f1f"/>
    </g>
    <g>
      <path d="m215.81934,316.55127v-.01367c0-1.34814,1.0166-2.45264,2.47363-2.45264.71094,0,1.19238.18994,1.58496.48145.1084.08105.20312.23047.20312.41309,0,.28467-.23047.50781-.51465.50781-.14258,0-.2373-.05371-.31152-.10156-.29199-.2168-.59668-.33838-.96875-.33838-.7998,0-1.37598.66357-1.37598,1.47705v.01318c0,.81299.5625,1.49072,1.37598,1.49072.44043,0,.73145-.13574,1.0293-.37305.08105-.06738.18945-.11475.31152-.11475.26465,0,.48828.2168.48828.48096,0,.1626-.08105.29102-.17676.37256-.42676.37256-.92773.59619-1.68652.59619-1.39551,0-2.43262-1.07715-2.43262-2.43896Z" fill="#1f1f1f"/>
      <path d="m221.23828,314.64746c0-.29102.22949-.52148.52148-.52148.29102,0,.52148.23047.52148.52148v3.31299h1.93066c.26465,0,.47461.20996.47461.47412,0,.26465-.20996.47461-.47461.47461h-2.45215c-.29199,0-.52148-.23047-.52148-.52197v-3.73975Z" fill="#1f1f1f"/>
      <path d="m225.58691,314.64746c0-.29102.23047-.52148.52148-.52148.29199,0,.52148.23047.52148.52148v1.59229l1.9248-1.91064c.12793-.12891.25684-.20312.44043-.20312.29102,0,.48047.22363.48047.48096,0,.1626-.07422.28467-.18945.39307l-1.33496,1.24609,1.45703,1.82959c.08105.10156.1416.20996.1416.36572,0,.2915-.22266.5083-.52832.5083-.20312,0-.3252-.10205-.44043-.25049l-1.35449-1.77539-.59668.55566v.94824c0,.2915-.22949.52197-.52148.52197-.29102,0-.52148-.23047-.52148-.52197v-3.78027Z" fill="#1f1f1f"/>
    </g>
    <g>
      <path d="m173.24414,318.40771c-.11523-.08154-.19629-.23047-.19629-.39307,0-.271.2168-.48096.4873-.48096.13574,0,.23047.04736.29883.09473.35938.26416.75195.42676,1.21289.42676.42578,0,.68359-.16943.68359-.44678v-.01367c0-.26465-.16211-.3999-.95508-.60303-.95508-.24365-1.57227-.5083-1.57227-1.44971v-.01367c0-.86035.69141-1.42969,1.66016-1.42969.57617,0,1.07812.14941,1.50391.41992.11523.06787.23047.20996.23047.41357,0,.271-.2168.48096-.48828.48096-.10156,0-.18164-.02734-.26367-.07422-.3457-.20361-.66992-.31885-.99609-.31885-.39941,0-.60938.18311-.60938.41357v.01367c0,.31152.20312.41309,1.02344.62305.96094.25049,1.50391.59619,1.50391,1.42285v.01367c0,.94141-.71875,1.46973-1.74219,1.46973-.62305,0-1.25195-.18945-1.78125-.56885Z" fill="#1f1f1f"/>
      <path d="m178.95117,315.12842h-1.00293c-.26465,0-.48145-.2168-.48145-.48096s.2168-.48096.48145-.48096h3.04785c.26562,0,.48242.2168.48242.48096s-.2168.48096-.48242.48096h-1.00195v3.29932c0,.2915-.23047.52197-.52148.52197s-.52148-.23047-.52148-.52197v-3.29932Z" fill="#1f1f1f"/>
      <path d="m182.38672,318.38721v-3.69873c0-.2915.23047-.52197.52148-.52197h2.62891c.25781,0,.4668.20996.4668.46729,0,.25781-.20898.46094-.4668.46094h-2.11426v.96191h1.80957c.25684,0,.4668.20996.4668.46777,0,.25732-.20996.46045-.4668.46045h-1.80957v.99561h2.14746c.25781,0,.46777.21045.46777.46777s-.20996.46094-.46777.46094h-2.66211c-.29102,0-.52148-.23047-.52148-.52197Z" fill="#1f1f1f"/>
      <path d="m187.1582,314.68848c0-.2915.23047-.52197.52246-.52197h1.41602c1.13184,0,1.81543.67041,1.81543,1.63965v.01318c0,1.09766-.85352,1.66699-1.91699,1.66699h-.79297v.94141c0,.2915-.22949.52197-.52148.52197s-.52246-.23047-.52246-.52197v-3.73926Zm1.87109,1.86963c.52148,0,.82617-.31201.82617-.71826v-.01367c0-.46729-.3252-.71777-.84766-.71777h-.80566v1.44971h.82715Z" fill="#1f1f1f"/>
      <path d="m191.79492,318.40771c-.11523-.08154-.19629-.23047-.19629-.39307,0-.271.2168-.48096.4873-.48096.13574,0,.23047.04736.29883.09473.35938.26416.75195.42676,1.21289.42676.42578,0,.68359-.16943.68359-.44678v-.01367c0-.26465-.16211-.3999-.95508-.60303-.95508-.24365-1.57227-.5083-1.57227-1.44971v-.01367c0-.86035.69141-1.42969,1.66016-1.42969.57617,0,1.07812.14941,1.50391.41992.11523.06787.23047.20996.23047.41357,0,.271-.2168.48096-.48828.48096-.10156,0-.18164-.02734-.26367-.07422-.3457-.20361-.66992-.31885-.99609-.31885-.39941,0-.60938.18311-.60938.41357v.01367c0,.31152.20312.41309,1.02344.62305.96094.25049,1.50391.59619,1.50391,1.42285v.01367c0,.94141-.71875,1.46973-1.74219,1.46973-.62305,0-1.25195-.18945-1.78125-.56885Z" fill="#1f1f1f"/>
    </g>
    <g>
      <path d="m21.06836,46.20654h-1.41895c-.2666,0-.47559-.2168-.47559-.47559s.20898-.47607.47559-.47607h3.88184c.25879,0,.4668.21729.4668.47607s-.20801.47559-.4668.47559h-1.42773v4.42383c0,.28369-.2334.50879-.51758.50879-.2832,0-.51758-.2251-.51758-.50879v-4.42383Z" fill="#ebebeb"/>
      <path d="m25.16113,50.58008v-4.80762c0-.29199.22559-.51758.51758-.51758h3.39746c.25,0,.45898.20898.45898.45947,0,.2583-.20898.45898-.45898.45898h-2.88867v1.51904h2.5127c.25,0,.45898.2085.45898.46729,0,.25049-.20898.45068-.45898.45068h-2.5127v1.56934h2.92969c.25098,0,.45996.2085.45996.45898,0,.25879-.20898.45898-.45996.45898h-3.43848c-.29199,0-.51758-.22559-.51758-.51758Z" fill="#ebebeb"/>
      <path d="m30.91309,45.73926c0-.28369.22559-.51758.51758-.51758h.1084c.22559,0,.37598.1167.47559.27539l1.76953,2.771,1.77832-2.7793c.1084-.17529.25879-.26709.4668-.26709h.10938c.29199,0,.5166.23389.5166.51758v4.89111c0,.28369-.22461.50879-.5166.50879-.27539,0-.50977-.2334-.50977-.50879v-3.50586l-1.42676,2.14502c-.1084.16699-.24219.26709-.43457.26709-.18359,0-.31738-.1001-.42578-.26709l-1.41895-2.12793v3.49707c0,.28369-.22461.50049-.50879.50049s-.50098-.2168-.50098-.50049v-4.89941Z" fill="#ebebeb"/>
      <path d="m38.39453,45.77246c0-.29199.22559-.51758.51758-.51758h1.78613c1.36914,0,2.2207.77637,2.2207,1.95312v.0166c0,1.31055-1.05176,1.99512-2.33789,1.99512h-1.16016v1.41064c0,.28369-.22461.50879-.50879.50879-.29199,0-.51758-.2251-.51758-.50879v-4.85791Zm2.2207,2.52051c.77637,0,1.25977-.43359,1.25977-1.04297v-.0166c0-.68457-.49219-1.04346-1.25977-1.04346h-1.19434v2.10303h1.19434Z" fill="#ebebeb"/>
      <path d="m43.9209,48.19287v-.0166c0-1.64404,1.26855-3.02148,3.06348-3.02148s3.04688,1.36084,3.04688,3.00488v.0166c0,1.64453-1.26953,3.02148-3.06348,3.02148-1.79492,0-3.04688-1.36035-3.04688-3.00488Zm5.0332,0v-.0166c0-1.13525-.82617-2.07812-1.98633-2.07812s-1.96973.92627-1.96973,2.06152v.0166c0,1.13525.82617,2.06982,1.98633,2.06982s1.96973-.91797,1.96973-2.05322Z" fill="#ebebeb"/>
    </g>
    <g>
      <path d="m81.38379,50.44678c-.11621-.0835-.2002-.22559-.2002-.39258,0-.26709.2168-.47559.48438-.47559.1416,0,.2334.0415.30078.0918.4834.38379,1.00098.60107,1.63574.60107.63379,0,1.03516-.30078,1.03516-.73486v-.0166c0-.41699-.23438-.64258-1.31934-.89307-1.24316-.30029-1.94434-.66748-1.94434-1.74414v-.01709c0-1.00146.83496-1.69434,1.99512-1.69434.73438,0,1.32617.19238,1.85254.54297.11719.06641.22559.2085.22559.40869,0,.26709-.21777.47559-.48438.47559-.10059,0-.18359-.0249-.26758-.07471-.4502-.29248-.88379-.44238-1.34375-.44238-.60059,0-.95117.30859-.95117.69238v.01709c0,.45068.26758.65088,1.39355.91797,1.23535.30029,1.87012.74268,1.87012,1.71094v.0166c0,1.09375-.85938,1.74463-2.08691,1.74463-.79297,0-1.54395-.25049-2.19531-.73438Z" fill="#ebebeb"/>
      <path d="m88.44922,46.20654h-1.41895c-.2666,0-.47559-.2168-.47559-.47559s.20898-.47607.47559-.47607h3.88184c.25879,0,.4668.21729.4668.47607s-.20801.47559-.4668.47559h-1.42773v4.42383c0,.28369-.2334.50879-.51758.50879-.2832,0-.51758-.2251-.51758-.50879v-4.42383Z" fill="#ebebeb"/>
      <path d="m92.54199,50.58008v-4.80762c0-.29199.22559-.51758.51758-.51758h3.39746c.25,0,.45898.20898.45898.45947,0,.2583-.20898.45898-.45898.45898h-2.88867v1.51904h2.5127c.25,0,.45898.2085.45898.46729,0,.25049-.20898.45068-.45898.45068h-2.5127v1.56934h2.92969c.25098,0,.45996.2085.45996.45898,0,.25879-.20898.45898-.45996.45898h-3.43848c-.29199,0-.51758-.22559-.51758-.51758Z" fill="#ebebeb"/>
      <path d="m98.29492,45.77246c0-.29199.22559-.51758.51758-.51758h1.78613c1.36914,0,2.2207.77637,2.2207,1.95312v.0166c0,1.31055-1.05176,1.99512-2.33789,1.99512h-1.16016v1.41064c0,.28369-.22461.50879-.50879.50879-.29199,0-.51758-.2251-.51758-.50879v-4.85791Zm2.2207,2.52051c.77637,0,1.25977-.43359,1.25977-1.04297v-.0166c0-.68457-.49219-1.04346-1.25977-1.04346h-1.19434v2.10303h1.19434Z" fill="#ebebeb"/>
      <path d="m103.90918,50.44678c-.11621-.0835-.2002-.22559-.2002-.39258,0-.26709.2168-.47559.48438-.47559.1416,0,.2334.0415.30078.0918.4834.38379,1.00098.60107,1.63574.60107.63379,0,1.03516-.30078,1.03516-.73486v-.0166c0-.41699-.23438-.64258-1.31934-.89307-1.24316-.30029-1.94434-.66748-1.94434-1.74414v-.01709c0-1.00146.83496-1.69434,1.99512-1.69434.73438,0,1.32617.19238,1.85254.54297.11719.06641.22559.2085.22559.40869,0,.26709-.21777.47559-.48438.47559-.10059,0-.18359-.0249-.26758-.07471-.4502-.29248-.88379-.44238-1.34375-.44238-.60059,0-.95117.30859-.95117.69238v.01709c0,.45068.26758.65088,1.39355.91797,1.23535.30029,1.87012.74268,1.87012,1.71094v.0166c0,1.09375-.85938,1.74463-2.08691,1.74463-.79297,0-1.54395-.25049-2.19531-.73438Z" fill="#ebebeb"/>
    </g>
    <g>
      <path d="m253.77344,80.20312c0-.2373.18359-.41992.41992-.41992h1.69336c.59668,0,1.06445.17627,1.36914.47412.25098.25732.39258.60986.39258,1.02295v.01367c0,.75879-.43945,1.21973-1.07715,1.41602l.9082,1.14502c.08105.10156.13574.18994.13574.31836,0,.23047-.19727.38623-.40039.38623-.18945,0-.31152-.08789-.40625-.2168l-1.15137-1.47021h-1.0498v1.27393c0,.22998-.18359.41309-.41406.41309-.23633,0-.41992-.18311-.41992-.41309v-3.94336Zm2.05273,1.93066c.59668,0,.97559-.31152.97559-.79248v-.01318c0-.5083-.36621-.78613-.98242-.78613h-1.21191v1.5918h1.21875Z" fill="#ebebeb"/>
      <path d="m258.81641,82.51367v-2.35107c0-.23047.18262-.41357.41992-.41357.23047,0,.41309.18311.41309.41357v2.31689c0,.88086.4541,1.34863,1.19922,1.34863.73828,0,1.19238-.44043,1.19238-1.31445v-2.35107c0-.23047.18262-.41357.41992-.41357.23047,0,.41309.18311.41309.41357v2.31006c0,1.41602-.7998,2.12744-2.03906,2.12744-1.2334,0-2.01855-.71143-2.01855-2.08643Z" fill="#ebebeb"/>
      <path d="m264.27734,80.17627c0-.23047.18359-.42041.41992-.42041h.08887c.20312,0,.31836.10156.43359.24414l2.37109,3.06934v-2.91357c0-.22363.18262-.40674.40625-.40674.23047,0,.41309.18311.41309.40674v3.98389c0,.23047-.17578.41309-.40625.41309h-.03418c-.19629,0-.31836-.10156-.43359-.25098l-2.43848-3.15674v3.0083c0,.22314-.18359.40625-.40625.40625-.23047,0-.41406-.18311-.41406-.40625v-3.97705Z" fill="#ebebeb"/>
    </g>
    <g>
      <path d="m215.85938,82.16797v-.01367c0-1.34863,1.00879-2.45264,2.44531-2.45264.73145,0,1.21289.2168,1.62598.53516.08789.06787.16309.18311.16309.33203,0,.23047-.18359.40674-.41406.40674-.11523,0-.19629-.04102-.25-.08154-.32617-.26416-.67773-.42676-1.13184-.42676-.90137,0-1.56543.74512-1.56543,1.67334v.01367c0,.92773.6582,1.68018,1.56543,1.68018.50098,0,.83984-.1626,1.18555-.4541.06152-.0542.14941-.09473.25098-.09473.20996,0,.39258.17627.39258.38623,0,.12891-.06055.23047-.13477.29785-.44727.39307-.95605.63672-1.72168.63672-1.38184,0-2.41113-1.07715-2.41113-2.43848Z" fill="#ebebeb"/>
      <path d="m221.27539,80.16211c0-.22998.18359-.41309.4209-.41309.22949,0,.41309.18311.41309.41309v3.60449h2.14746c.20996,0,.37988.16943.37988.37939s-.16992.37939-.37988.37939h-2.56055c-.2373,0-.4209-.18262-.4209-.41992v-3.94336Z" fill="#ebebeb"/>
      <path d="m225.62891,80.16211c0-.22998.18359-.41309.41992-.41309.23047,0,.41406.18311.41406.41309v2.00586l2.24902-2.26318c.09473-.10156.19629-.15576.3457-.15576.22949,0,.38574.18311.38574.38623,0,.12842-.05371.22363-.14844.31152l-1.47754,1.42285,1.59863,1.98486c.06836.08838.11523.16943.11523.29834,0,.22998-.18262.40674-.41992.40674-.16211,0-.26367-.08154-.35156-.19678l-1.52539-1.94434-.77148.74512v.98242c0,.23047-.18359.41357-.41406.41357-.23633,0-.41992-.18311-.41992-.41357v-3.98389Z" fill="#ebebeb"/>
    </g>
    <g>
      <path d="m288.3291,80.20312c0-.2373.18262-.41992.41992-.41992h1.69434c.5957,0,1.0625.17627,1.36816.47412.25098.25732.39258.60986.39258,1.02295v.01367c0,.75879-.44043,1.21973-1.07715,1.41602l.9082,1.14502c.08105.10156.13477.18994.13477.31836,0,.23047-.19629.38623-.39941.38623-.18945,0-.31152-.08789-.40625-.2168l-1.15137-1.47021h-1.05078v1.27393c0,.22998-.18262.41309-.41309.41309-.2373,0-.41992-.18311-.41992-.41309v-3.94336Zm2.05273,1.93066c.59668,0,.97559-.31152.97559-.79248v-.01318c0-.5083-.36621-.78613-.98242-.78613h-1.21289v1.5918h1.21973Z" fill="#ebebeb"/>
      <path d="m293.46094,84.10547v-3.90234c0-.2373.18359-.41992.4209-.41992h2.75684c.20312,0,.37305.16943.37305.37256,0,.20996-.16992.37256-.37305.37256h-2.34375v1.2334h2.03906c.20312,0,.37305.16895.37305.37891,0,.20361-.16992.36621-.37305.36621h-2.03906v1.27344h2.37793c.20312,0,.37207.16943.37207.37305,0,.20996-.16895.37207-.37207.37207h-2.79102c-.2373,0-.4209-.18262-.4209-.41992Z" fill="#ebebeb"/>
      <path d="m298.07617,83.99707c-.0957-.06738-.16309-.18262-.16309-.31836,0-.2168.17676-.38623.39355-.38623.11523,0,.18945.03369.24414.07471.39258.31152.8125.48779,1.32715.48779s.84082-.24365.84082-.59619v-.01367c0-.33887-.19043-.52148-1.07129-.72461-1.00879-.24414-1.57812-.54199-1.57812-1.41602v-.01367c0-.81299.67676-1.37549,1.61914-1.37549.59668,0,1.07715.15576,1.50391.44043.09473.0542.18262.16943.18262.33203,0,.2168-.17578.38623-.39258.38623-.08105,0-.14941-.02051-.2168-.06104-.36621-.23682-.71875-.35889-1.09082-.35889-.4873,0-.77246.25049-.77246.56201v.01367c0,.36572.2168.52832,1.13184.74512,1.00293.24414,1.51758.60303,1.51758,1.38916v.01367c0,.88721-.69824,1.41553-1.69434,1.41553-.64355,0-1.25293-.20312-1.78125-.59619Z" fill="#ebebeb"/>
      <path d="m302.76172,84.10547v-3.90234c0-.2373.18359-.41992.4209-.41992h2.75684c.20312,0,.37305.16943.37305.37256,0,.20996-.16992.37256-.37305.37256h-2.34375v1.2334h2.03906c.20312,0,.37305.16895.37305.37891,0,.20361-.16992.36621-.37305.36621h-2.03906v1.27344h2.37793c.20312,0,.37207.16943.37207.37305,0,.20996-.16895.37207-.37207.37207h-2.79102c-.2373,0-.4209-.18262-.4209-.41992Z" fill="#ebebeb"/>
      <path d="m308.72559,80.55566h-1.15137c-.2168,0-.38672-.17627-.38672-.38623s.16992-.38623.38672-.38623h3.15039c.20996,0,.37891.17627.37891.38623s-.16895.38623-.37891.38623h-1.1582v3.59082c0,.22998-.19043.41309-.4209.41309-.22949,0-.41992-.18311-.41992-.41309v-3.59082Z" fill="#ebebeb"/>
    </g>
    <g>
      <path d="m134.60156,80.55518h-1.15234c-.2168,0-.38574-.17627-.38574-.38623s.16895-.38574.38574-.38574h3.15039c.20996,0,.37988.17578.37988.38574s-.16992.38623-.37988.38623h-1.1582v3.59082c0,.23047-.18945.41357-.41992.41357s-.41992-.18311-.41992-.41357v-3.59082Z" fill="#ebebeb"/>
      <path d="m137.98047,84.10547v-3.90234c0-.2373.18262-.41992.41992-.41992h2.75684c.20312,0,.37207.16895.37207.37207,0,.21045-.16895.37305-.37207.37305h-2.34375v1.23291h2.03906c.20312,0,.37207.16943.37207.37939,0,.20312-.16895.36572-.37207.36572h-2.03906v1.27393h2.37793c.20312,0,.37207.16895.37207.37256,0,.20996-.16895.37256-.37207.37256h-2.79102c-.2373,0-.41992-.18262-.41992-.41992Z" fill="#ebebeb"/>
      <path d="m142.70508,80.17578c0-.23047.18359-.41992.41992-.41992h.08887c.18262,0,.30469.09473.38574.22363l1.43652,2.24902,1.44238-2.25586c.08887-.14258.21094-.2168.37988-.2168h.08789c.2373,0,.4209.18945.4209.41992v3.97021c0,.23047-.18359.41357-.4209.41357-.22363,0-.41309-.18994-.41309-.41357v-2.84521l-1.1582,1.74121c-.08789.13525-.19727.2168-.35254.2168-.14941,0-.25684-.08154-.3457-.2168l-1.15137-1.72803v2.83887c0,.22998-.18359.40674-.41406.40674-.22949,0-.40625-.17676-.40625-.40674v-3.97705Z" fill="#ebebeb"/>
      <path d="m148.83398,80.20312c0-.2373.18262-.41992.41992-.41992h1.44922c1.11133,0,1.80273.62988,1.80273,1.58496v.01367c0,1.06348-.85352,1.61914-1.89746,1.61914h-.94141v1.14502c0,.23047-.18262.41357-.41309.41357-.2373,0-.41992-.18311-.41992-.41357v-3.94287Zm1.80176,2.0459c.62988,0,1.02246-.35254,1.02246-.84668v-.01367c0-.55566-.39941-.84668-1.02246-.84668h-.96875v1.70703h.96875Z" fill="#ebebeb"/>
      <path d="m153.37402,82.16797v-.01367c0-1.33496,1.03027-2.45264,2.4873-2.45264,1.45605,0,2.47266,1.104,2.47266,2.43896v.01367c0,1.33447-1.03027,2.45215-2.48633,2.45215-1.45703,0-2.47363-1.104-2.47363-2.43848Zm4.08496,0v-.01367c0-.92139-.66992-1.68701-1.61133-1.68701-.94238,0-1.59961.75195-1.59961,1.67334v.01367c0,.92139.6709,1.68018,1.61328,1.68018.94141,0,1.59766-.74561,1.59766-1.6665Z" fill="#ebebeb"/>
    </g>
    <g>
      <path d="m173.28125,83.99707c-.09473-.06787-.16211-.18311-.16211-.31836,0-.2168.17578-.38623.39258-.38623.11523,0,.18945.03369.24414.07471.39258.31152.8125.4873,1.32812.4873.51465,0,.83984-.24365.83984-.5957v-.01367c0-.33887-.18945-.52197-1.07031-.7251-1.00977-.24365-1.5791-.54199-1.5791-1.41602v-.01318c0-.81348.67773-1.37549,1.62012-1.37549.5957,0,1.07617.15576,1.50391.43994.09375.05469.18262.16992.18262.33203,0,.2168-.17676.38672-.39355.38672-.08105,0-.14844-.02051-.2168-.06152-.36523-.23682-.71777-.35889-1.08984-.35889-.48828,0-.77344.25049-.77344.5625v.01318c0,.36621.2168.52881,1.13184.74561,1.00293.24365,1.51758.60303,1.51758,1.38867v.01367c0,.88721-.69824,1.41602-1.69336,1.41602-.64355,0-1.25293-.20361-1.78223-.59619Z" fill="#ebebeb"/>
      <path d="m179.07422,80.55518h-1.15234c-.2168,0-.38574-.17627-.38574-.38623s.16895-.38574.38574-.38574h3.15039c.21094,0,.37988.17578.37988.38574s-.16895.38623-.37988.38623h-1.1582v3.59082c0,.23047-.18945.41357-.41992.41357s-.41992-.18311-.41992-.41357v-3.59082Z" fill="#ebebeb"/>
      <path d="m182.45312,84.10547v-3.90234c0-.2373.18262-.41992.41992-.41992h2.75684c.2041,0,.37305.16895.37305.37207,0,.21045-.16895.37305-.37305.37305h-2.34375v1.23291h2.03906c.20312,0,.37305.16943.37305.37939,0,.20312-.16992.36572-.37305.36572h-2.03906v1.27393h2.37793c.20312,0,.37305.16895.37305.37256,0,.20996-.16992.37256-.37305.37256h-2.79102c-.2373,0-.41992-.18262-.41992-.41992Z" fill="#ebebeb"/>
      <path d="m187.17773,80.20312c0-.2373.18359-.41992.4209-.41992h1.4502c1.11035,0,1.80176.62988,1.80176,1.58496v.01367c0,1.06348-.85449,1.61914-1.89746,1.61914h-.94141v1.14502c0,.23047-.18359.41357-.41309.41357-.2373,0-.4209-.18311-.4209-.41357v-3.94287Zm1.80273,2.0459c.62988,0,1.02344-.35254,1.02344-.84668v-.01367c0-.55566-.40039-.84668-1.02344-.84668h-.96875v1.70703h.96875Z" fill="#ebebeb"/>
      <path d="m191.79102,83.99707c-.09375-.06787-.16211-.18311-.16211-.31836,0-.2168.17578-.38623.39258-.38623.11523,0,.18945.03369.24414.07471.39258.31152.8125.4873,1.32812.4873.51465,0,.83984-.24365.83984-.5957v-.01367c0-.33887-.18945-.52197-1.07031-.7251-1.00977-.24365-1.57812-.54199-1.57812-1.41602v-.01318c0-.81348.67676-1.37549,1.61914-1.37549.5957,0,1.07715.15576,1.50391.43994.09473.05469.18262.16992.18262.33203,0,.2168-.17578.38672-.39258.38672-.08105,0-.14941-.02051-.2168-.06152-.36621-.23682-.71875-.35889-1.09082-.35889-.48828,0-.77246.25049-.77246.5625v.01318c0,.36621.2168.52881,1.13184.74561,1.00195.24365,1.51758.60303,1.51758,1.38867v.01367c0,.88721-.69824,1.41602-1.69434,1.41602-.64355,0-1.25293-.20361-1.78223-.59619Z" fill="#ebebeb"/>
    </g>
    <g>
      <path d="m146.57227,27.36084c-.21289-.15039-.3623-.42529-.3623-.72607,0-.5.40039-.88818.90137-.88818.25,0,.4248.0874.5498.17529.66309.48779,1.38867.78809,2.23926.78809.78906,0,1.26367-.3125,1.26367-.82568v-.0249c0-.48828-.2998-.73828-1.76367-1.11377-1.76367-.45068-2.90234-.93848-2.90234-2.67725v-.02539c0-1.58887,1.27539-2.64014,3.06445-2.64014,1.06445,0,1.99023.27539,2.77832.77588.21289.125.4248.3877.4248.76318,0,.50049-.40039.88818-.90039.88818-.1875,0-.33789-.0498-.48828-.1377-.6377-.375-1.23828-.58789-1.83887-.58789-.73828,0-1.12598.33789-1.12598.76367v.02441c0,.57617.375.76367,1.88867,1.15137,1.77734.46289,2.77832,1.10107,2.77832,2.62793v.02441c0,1.73926-1.32617,2.71533-3.21582,2.71533-1.15039,0-2.31445-.3501-3.29102-1.05078Z" fill="#ebebeb"/>
      <path d="m154.8877,27.32324v-6.83203c0-.5376.4248-.96289.96387-.96289h4.85352c.47656,0,.86328.3877.86328.86328s-.38672.85059-.86328.85059h-3.90332v1.77686h3.34082c.47559,0,.86328.3877.86328.86328s-.3877.85107-.86328.85107h-3.34082v1.83887h3.96582c.47656,0,.86328.38818.86328.86328,0,.47559-.38672.85107-.86328.85107h-4.91602c-.53906,0-.96387-.42529-.96387-.96338Z" fill="#ebebeb"/>
      <path d="m162.7959,23.93262v-.02539c0-2.48975,1.96387-4.5293,4.66699-4.5293s4.64258,2.01465,4.64258,4.50439v.0249c0,.92578-.28809,1.78906-.77637,2.51514l.37598.31299c.19922.1748.34961.4126.34961.72559,0,.50049-.40039.91309-.90039.91309-.2627,0-.48828-.1123-.63867-.2627l-.47461-.42529c-.73828.47559-1.62695.75049-2.60352.75049-2.70215,0-4.6416-2.01416-4.6416-4.50391Zm4.55469.98828c0-.50049.40039-.91357.90137-.91357.26172,0,.4375.0874.6377.26318l.96387.86328c.14941-.35059.2373-.76367.2373-1.20117v-.02539c0-1.50146-1.10156-2.75244-2.65332-2.75244-1.55078,0-2.62695,1.22607-2.62695,2.72754v.0249c0,1.50146,1.10156,2.75293,2.65234,2.75293.42578,0,.81348-.0752,1.15137-.23779l-.91309-.77588c-.20117-.1748-.35059-.41309-.35059-.72559Z" fill="#ebebeb"/>
      <path d="m177.51758,27.43555c-.17578-.1499-.32617-.4126-.32617-.68799,0-.50049.42578-.92578.92578-.92578.27539,0,.46387.11279.61328.23779.50098.42529,1.02637.65039,1.71484.65039.72559,0,1.23828-.41309,1.23828-1.06348v-.0249c0-.71338-.6377-1.11377-1.71387-1.11377h-.2998c-.45117,0-.82617-.375-.82617-.82568,0-.2627.1123-.48779.41211-.78857l1.70215-1.71387h-2.69043c-.4502,0-.8252-.37549-.8252-.82568,0-.45068.375-.82568.8252-.82568h4.26758c.5625,0,.97559.3252.97559.85059,0,.47559-.22559.73828-.5752,1.07617l-1.71484,1.63867c1.18945.2002,2.35254.82617,2.35254,2.45264v.0249c0,1.65186-1.20117,2.86523-3.15332,2.86523-1.25098,0-2.18945-.3877-2.90234-1.00098Z" fill="#ebebeb"/>
    </g>
    <g>
      <path d="m138.72852,315.12842h-1.00293c-.26465,0-.48145-.2168-.48145-.48096s.2168-.48096.48145-.48096h3.04785c.26562,0,.48242.2168.48242.48096s-.2168.48096-.48242.48096h-1.00195v3.29932c0,.2915-.23047.52197-.52148.52197s-.52148-.23047-.52148-.52197v-3.29932Z" fill="#1f1f1f"/>
      <path d="m142.16406,314.68848c0-.2915.23047-.52197.52148-.52197h1.64648c.60254,0,1.07031.16943,1.38184.48096.26465.26416.40723.63672.40723,1.08398v.01367c0,.74512-.37305,1.20605-.94922,1.44287l.72461.88086c.10156.12842.16992.23682.16992.3999,0,.29102-.24414.48096-.49414.48096-.23828,0-.39355-.11523-.51562-.271l-1.01562-1.28711h-.83398v1.03613c0,.2915-.23047.52197-.52148.52197s-.52148-.23047-.52148-.52197v-3.73926Zm2.09961,1.78125c.50781,0,.7998-.27051.7998-.67041v-.01367c0-.44678-.31152-.67725-.81934-.67725h-1.03711v1.36133h1.05664Z" fill="#1f1f1f"/>
      <path d="m147.34375,314.64746c0-.29102.22949-.52148.52148-.52148.29102,0,.52148.23047.52148.52148v3.78027c0,.2915-.23047.52197-.52148.52197-.29199,0-.52148-.23047-.52148-.52197v-3.78027Z" fill="#1f1f1f"/>
      <path d="m149.54297,316.55127v-.01367c0-1.34814,1.05078-2.45264,2.48633-2.45264.71875,0,1.19336.16309,1.62012.46094.10156.07422.2168.2168.2168.41992,0,.28467-.23047.51514-.51465.51514-.14941,0-.24414-.0542-.31836-.1084-.28516-.20361-.58984-.3252-1.03711-.3252-.75879,0-1.36133.67041-1.36133,1.47705v.01318c0,.86719.5957,1.50439,1.43555,1.50439.37988,0,.71875-.09521.98242-.28467v-.67773h-.7041c-.25098,0-.4541-.19629-.4541-.44678,0-.25098.20312-.4541.4541-.4541h1.19238c.29102,0,.52148.23047.52148.52148v1.15186c0,.30518-.11523.51514-.36523.66406-.38672.23682-.94922.47412-1.66016.47412-1.47656,0-2.49414-1.03662-2.49414-2.43896Z" fill="#1f1f1f"/>
    </g>
    <g>
      <path d="m99.51074,316.55127v-.01367c0-1.34814,1.0166-2.45264,2.47363-2.45264.71094,0,1.19238.18994,1.58496.48145.1084.08105.20312.23047.20312.41309,0,.28467-.23047.50781-.51465.50781-.14258,0-.2373-.05371-.31152-.10156-.29199-.2168-.59668-.33838-.96875-.33838-.7998,0-1.37598.66357-1.37598,1.47705v.01318c0,.81299.5625,1.49072,1.37598,1.49072.44043,0,.73145-.13574,1.0293-.37305.08105-.06738.18945-.11475.31152-.11475.26465,0,.48828.2168.48828.48096,0,.1626-.08105.29102-.17676.37256-.42676.37256-.92773.59619-1.68652.59619-1.39551,0-2.43262-1.07715-2.43262-2.43896Z" fill="#1f1f1f"/>
      <path d="m106.19629,318.57031l-1.53711-3.67871c-.03418-.08154-.06152-.16309-.06152-.25098,0-.29102.23047-.51465.52148-.51465.27148,0,.44727.15576.52832.36572l1.18555,3.06885,1.19922-3.10254c.06836-.16943.25098-.33203.50195-.33203.28418,0,.51465.2168.51465.50098,0,.08154-.02734.16992-.05371.23047l-1.55176,3.71289c-.1084.25732-.30469.41309-.58984.41309h-.06738c-.28418,0-.48145-.15576-.58984-.41309Z" fill="#1f1f1f"/>
      <path d="m111.85254,318.44824c-.09473-.08105-.17578-.22363-.17578-.37256,0-.271.23047-.50146.50098-.50146.14941,0,.25098.06104.33203.12891.27148.23047.55566.35205.92871.35205.39258,0,.6709-.22314.6709-.57568v-.01367c0-.38623-.3457-.60303-.92871-.60303h-.16211c-.24414,0-.44727-.20312-.44727-.44678,0-.14258.06055-.26465.22363-.42676l.9209-.92871h-1.45605c-.24414,0-.44727-.20312-.44727-.44678,0-.24414.20312-.44727.44727-.44727h2.30957c.30469,0,.52832.17627.52832.46045,0,.25781-.12109.3999-.31152.58301l-.92773.8877c.64355.1084,1.27344.44678,1.27344,1.32764v.01318c0,.89453-.65039,1.55176-1.70703,1.55176-.67773,0-1.18555-.20996-1.57227-.54199Z" fill="#1f1f1f"/>
    </g>
    <g>
      <path d="m23.31055,316.55127v-.01367c0-1.34814,1.0166-2.45264,2.47363-2.45264.71094,0,1.19238.18994,1.58496.48145.1084.08105.20312.23047.20312.41309,0,.28467-.23047.50781-.51465.50781-.14258,0-.2373-.05371-.31152-.10156-.29199-.2168-.59668-.33838-.96875-.33838-.7998,0-1.37598.66357-1.37598,1.47705v.01318c0,.81299.5625,1.49072,1.37598,1.49072.44043,0,.73145-.13574,1.0293-.37305.08105-.06738.18945-.11475.31152-.11475.26465,0,.48828.2168.48828.48096,0,.1626-.08105.29102-.17676.37256-.42676.37256-.92773.59619-1.68652.59619-1.39551,0-2.43262-1.07715-2.43262-2.43896Z" fill="#1f1f1f"/>
      <path d="m29.99609,318.57031l-1.53711-3.67871c-.03418-.08154-.06152-.16309-.06152-.25098,0-.29102.23047-.51465.52148-.51465.27148,0,.44727.15576.52832.36572l1.18555,3.06885,1.19922-3.10254c.06836-.16943.25098-.33203.50195-.33203.28418,0,.51465.2168.51465.50098,0,.08154-.02734.16992-.05371.23047l-1.55176,3.71289c-.1084.25732-.30469.41309-.58984.41309h-.06738c-.28418,0-.48145-.15576-.58984-.41309Z" fill="#1f1f1f"/>
      <path d="m36.32324,315.15576l-.36523.09473c-.05469.01367-.12891.02686-.18359.02686-.24414,0-.4541-.20312-.4541-.44678,0-.21045.13574-.38623.3457-.44727l.6709-.19678c.19629-.05371.3457-.08789.48828-.08789h.0127c.28516,0,.51562.23047.51562.51514v3.8208c0,.28467-.23047.51514-.51562.51514-.28418,0-.51465-.23047-.51465-.51514v-3.27881Z" fill="#1f1f1f"/>
    </g>
    <g>
      <path d="m288.27246,314.68848c0-.2915.22949-.52197.52148-.52197h1.64648c.60254,0,1.07031.16943,1.38184.48096.26367.26416.40625.63672.40625,1.08398v.01367c0,.74512-.37305,1.20605-.94824,1.44287l.72461.88086c.10156.12842.16992.23682.16992.3999,0,.29102-.24414.48096-.49512.48096-.2373,0-.39258-.11523-.51465-.271l-1.0166-1.28711h-.83301v1.03613c0,.2915-.23047.52197-.52148.52197-.29199,0-.52148-.23047-.52148-.52197v-3.73926Zm2.09961,1.78125c.50781,0,.7998-.27051.7998-.67041v-.01367c0-.44678-.31152-.67725-.82031-.67725h-1.03613v1.36133h1.05664Z" fill="#1f1f1f"/>
      <path d="m293.42578,318.38721v-3.69873c0-.2915.23047-.52197.52148-.52197h2.62891c.25781,0,.46777.20996.46777.46729,0,.25781-.20996.46094-.46777.46094h-2.11426v.96191h1.80957c.25684,0,.4668.20996.4668.46777,0,.25732-.20996.46045-.4668.46045h-1.80957v.99561h2.14844c.25684,0,.4668.21045.4668.46777s-.20996.46094-.4668.46094h-2.66309c-.29102,0-.52148-.23047-.52148-.52197Z" fill="#1f1f1f"/>
      <path d="m298.0752,318.40771c-.11523-.08154-.19629-.23047-.19629-.39307,0-.271.2168-.48096.4873-.48096.13574,0,.23047.04736.29785.09473.35938.26416.75293.42676,1.21289.42676.42676,0,.68457-.16943.68457-.44678v-.01367c0-.26465-.16309-.3999-.95508-.60303-.95508-.24365-1.57227-.5083-1.57227-1.44971v-.01367c0-.86035.69141-1.42969,1.66016-1.42969.57617,0,1.07715.14941,1.50391.41992.11523.06787.23047.20996.23047.41357,0,.271-.2168.48096-.48828.48096-.10156,0-.18262-.02734-.26367-.07422-.3457-.20361-.6709-.31885-.99609-.31885-.39941,0-.60938.18311-.60938.41357v.01367c0,.31152.20312.41309,1.02246.62305.96191.25049,1.50391.59619,1.50391,1.42285v.01367c0,.94141-.71777,1.46973-1.74121,1.46973-.62305,0-1.25293-.18945-1.78125-.56885Z" fill="#1f1f1f"/>
      <path d="m302.74219,318.38721v-3.69873c0-.2915.22949-.52197.52148-.52197h2.62793c.25781,0,.46777.20996.46777.46729,0,.25781-.20996.46094-.46777.46094h-2.11328v.96191h1.80859c.25781,0,.46777.20996.46777.46777,0,.25732-.20996.46045-.46777.46045h-1.80859v.99561h2.14746c.25781,0,.46777.21045.46777.46777s-.20996.46094-.46777.46094h-2.66211c-.29199,0-.52148-.23047-.52148-.52197Z" fill="#1f1f1f"/>
      <path d="m308.63379,315.12842h-1.00293c-.26367,0-.48047-.2168-.48047-.48096s.2168-.48096.48047-.48096h3.04883c.26465,0,.48145.2168.48145.48096s-.2168.48096-.48145.48096h-1.00293v3.29932c0,.2915-.23047.52197-.52148.52197s-.52148-.23047-.52148-.52197v-3.29932Z" fill="#1f1f1f"/>
    </g>
    <g>
      <path d="m253.71777,314.68848c0-.2915.22949-.52197.52148-.52197h1.64648c.60254,0,1.07031.16943,1.38184.48096.26367.26416.40625.63672.40625,1.08398v.01367c0,.74512-.37305,1.20605-.94824,1.44287l.72461.88086c.10156.12842.16992.23682.16992.3999,0,.29102-.24414.48096-.49512.48096-.2373,0-.39258-.11523-.51465-.271l-1.0166-1.28711h-.83301v1.03613c0,.2915-.23047.52197-.52148.52197-.29199,0-.52148-.23047-.52148-.52197v-3.73926Zm2.09961,1.78125c.50781,0,.7998-.27051.7998-.67041v-.01367c0-.44678-.31152-.67725-.82031-.67725h-1.03613v1.36133h1.05664Z" fill="#1f1f1f"/>
      <path d="m258.78418,316.87646v-2.229c0-.29102.23047-.52148.52148-.52148.29199,0,.52246.23047.52246.52148v2.20215c0,.77197.38574,1.17188,1.02246,1.17188s1.02344-.38623,1.02344-1.13818v-2.23584c0-.29102.23047-.52148.52148-.52148s.52148.23047.52148.52148v2.19531c0,1.43604-.80566,2.14062-2.08008,2.14062-1.27344,0-2.05273-.71143-2.05273-2.10693Z" fill="#1f1f1f"/>
      <path d="m264.24512,314.66113c0-.2915.23047-.52148.52148-.52148h.1084c.25098,0,.40039.12158.54199.30469l2.0127,2.64209v-2.4458c0-.28418.23047-.51465.51465-.51465s.51465.23047.51465.51465v3.77344c0,.2915-.23047.52197-.52148.52197h-.03418c-.25,0-.39941-.12207-.54199-.30518l-2.08594-2.73682v2.54053c0,.28467-.23047.51514-.51562.51514-.28418,0-.51465-.23047-.51465-.51514v-3.77344Z" fill="#1f1f1f"/>
    </g>
  </g>
</svg>