<?xml version="1.0" encoding="UTF-8" standalone="no"?>
<svg
   xmlns:dc="http://purl.org/dc/elements/1.1/"
   xmlns:cc="http://creativecommons.org/ns#"
   xmlns:rdf="http://www.w3.org/1999/02/22-rdf-syntax-ns#"
   xmlns:svg="http://www.w3.org/2000/svg"
   xmlns="http://www.w3.org/2000/svg"
   xmlns:sodipodi="http://sodipodi.sourceforge.net/DTD/sodipodi-0.dtd"
   xmlns:inkscape="http://www.inkscape.org/namespaces/inkscape"
   width="330"
   height="380"
   viewBox="0 0 330 380"
   version="1.1"
   id="svg485"
   sodipodi:docname="SEQ3.svg"
   inkscape:version="0.92.3 (2405546, 2018-03-11)">
  <metadata
     id="metadata489">
    <rdf:RDF>
      <cc:Work
         rdf:about="">
        <dc:format>image/svg+xml</dc:format>
        <dc:type
           rdf:resource="http://purl.org/dc/dcmitype/StillImage" />
      </cc:Work>
    </rdf:RDF>
  </metadata>
  <sodipodi:namedview
     pagecolor="#ffffff"
     bordercolor="#666666"
     borderopacity="1"
     objecttolerance="10"
     gridtolerance="10"
     guidetolerance="10"
     inkscape:pageopacity="0"
     inkscape:pageshadow="2"
     inkscape:window-width="716"
     inkscape:window-height="480"
     id="namedview487"
     showgrid="false"
     inkscape:zoom="0.62105263"
     inkscape:cx="165"
     inkscape:cy="190"
     inkscape:window-x="0"
     inkscape:window-y="0"
     inkscape:window-maximized="0"
     inkscape:current-layer="svg485" />
  <defs
     id="defs7">
    <linearGradient
       id="f79b8e61-1911-42d8-8c72-177ae7631f52"
       x1="164.99999"
       x2="164.99999"
       y2="380"
       gradientUnits="userSpaceOnUse">
      <stop
         offset="0"
         stop-color="#ebebeb"
         id="stop2" />
      <stop
         offset="1"
         stop-color="#e1e1e1"
         id="stop4" />
    </linearGradient>
  </defs>
  <g
     id="b67a4c87-93cc-4eae-8347-46f451a2913e"
     data-name="FND BG">
    <rect
       x="-0.00001"
       width="330.00001"
       height="380"
       fill="url(#f79b8e61-1911-42d8-8c72-177ae7631f52)"
       id="rect9" />
  </g>
  <g
     id="b3ea66c8-295d-481d-afd3-185f2ec54b8a"
     data-name="FND GRAPH">
    <rect
       x="16.15289"
       y="309.05634"
       width="143.88012"
       height="39.15691"
       rx="2.83465"
       fill="#1f1f1f"
       id="rect12" />
    <rect
       x="169.92522"
       y="309.05634"
       width="143.96085"
       height="39.15691"
       rx="2.83465"
       fill="#1f1f1f"
       id="rect14" />
    <g
       id="g24">
      <path
         d="M156.85927,359.753a.91214.91214,0,0,1-.8158-.50418l-2.96428-5.92857a.91209.91209,0,0,1,1.6316-.8158l2.14848,4.297,2.14848-4.297a.91209.91209,0,0,1,1.6316.8158l-2.96428,5.92857A.91211.91211,0,0,1,156.85927,359.753Z"
         fill="#1f1f1f"
         id="path16" />
      <path
         d="M173.14073,359.753a.91211.91211,0,0,1-.8158-.50418l-2.96428-5.92857a.91209.91209,0,0,1,1.6316-.8158l2.14848,4.297,2.14848-4.297a.91209.91209,0,0,1,1.6316.8158l-2.96428,5.92857A.91214.91214,0,0,1,173.14073,359.753Z"
         fill="#1f1f1f"
         id="path18" />
      <path
         d="M165.44242,359.753a3.87637,3.87637,0,1,1,2.32653-6.97719.91209.91209,0,1,1-1.09557,1.45854,2.034,2.034,0,0,0-1.231-.40991,2.0522,2.0522,0,1,0,0,4.10439,2.034,2.034,0,0,0,1.231-.40991.91209.91209,0,1,1,1.09557,1.45854A3.8448,3.8448,0,0,1,165.44242,359.753Z"
         fill="#1f1f1f"
         id="path20" />
      <circle
         cx="165.50165"
         cy="355.83101"
         r="1.18571"
         fill="#1f1f1f"
         id="circle22" />
    </g>
    <line
       x1="299.53132"
       y1="53.2205"
       x2="299.53132"
       y2="72.80725"
       fill="none"
       stroke="#1f1f1f"
       stroke-linecap="round"
       stroke-linejoin="round"
       stroke-width="0.8"
       id="line26" />
    <line
       x1="261.0938"
       y1="53.2205"
       x2="261.0938"
       y2="72.80725"
       fill="none"
       stroke="#1f1f1f"
       stroke-linecap="round"
       stroke-linejoin="round"
       stroke-width="0.8"
       id="line28" />
    <line
       x1="222.65628"
       y1="53.2205"
       x2="222.65628"
       y2="72.80725"
       fill="none"
       stroke="#1f1f1f"
       stroke-linecap="round"
       stroke-linejoin="round"
       stroke-width="0.8"
       id="line30" />
    <line
       x1="184.21876"
       y1="53.2205"
       x2="184.21876"
       y2="72.80725"
       fill="none"
       stroke="#1f1f1f"
       stroke-linecap="round"
       stroke-linejoin="round"
       stroke-width="0.8"
       id="line32" />
    <line
       x1="145.78124"
       y1="53.2205"
       x2="145.78124"
       y2="72.80725"
       fill="none"
       stroke="#1f1f1f"
       stroke-linecap="round"
       stroke-linejoin="round"
       stroke-width="0.8"
       id="line34" />
    <g
       id="g40">
      <path
         d="M139.91006,110.51391a11.5338,11.5338,0,1,1,11.81153-.04123l-5.94035-9.88639"
         fill="none"
         stroke="#1f1f1f"
         stroke-linecap="round"
         stroke-linejoin="round"
         id="path36" />
      <circle
         cx="145.78124"
         cy="100.58629"
         r="13.79989"
         fill="none"
         id="circle38" />
    </g>
    <g
       id="g46">
      <path
         d="M178.34758,110.51391a11.5338,11.5338,0,1,1,11.81152-.04123l-5.94034-9.88639"
         fill="none"
         stroke="#1f1f1f"
         stroke-linecap="round"
         stroke-linejoin="round"
         id="path42" />
      <circle
         cx="184.21876"
         cy="100.58629"
         r="13.79989"
         fill="none"
         id="circle44" />
    </g>
    <rect
       x="16.15289"
       y="271.68344"
       width="28.6316"
       height="28.63301"
       rx="2.34296"
       fill="#1f1f1f"
       id="rect48" />
    <rect
       x="54.59597"
       y="271.68344"
       width="28.6316"
       height="28.63301"
       rx="2.34296"
       fill="#1f1f1f"
       id="rect50" />
    <rect
       x="93.03905"
       y="271.68344"
       width="28.6316"
       height="28.63301"
       rx="2.34296"
       fill="#1f1f1f"
       id="rect52" />
    <rect
       x="131.48214"
       y="271.68344"
       width="28.6316"
       height="28.63301"
       rx="2.34296"
       fill="#1f1f1f"
       id="rect54" />
    <rect
       x="169.92522"
       y="271.68344"
       width="28.6316"
       height="28.63301"
       rx="2.34296"
       fill="#1f1f1f"
       id="rect56" />
    <rect
       x="208.36831"
       y="271.68344"
       width="28.6316"
       height="28.63301"
       rx="2.34296"
       fill="#1f1f1f"
       id="rect58" />
    <rect
       x="246.81139"
       y="271.68344"
       width="28.6316"
       height="28.63301"
       rx="2.34296"
       fill="#1f1f1f"
       id="rect60" />
    <rect
       x="285.25448"
       y="271.68344"
       width="28.6316"
       height="28.63301"
       rx="2.34296"
       fill="#1f1f1f"
       id="rect62" />
    <line
       x1="44.37609"
       y1="253.26275"
       x2="54.99879"
       y2="253.26275"
       fill="none"
       stroke="#1f1f1f"
       stroke-linecap="round"
       stroke-linejoin="round"
       stroke-width="0.8"
       id="line64" />
    <line
       x1="82.81361"
       y1="253.26275"
       x2="93.43631"
       y2="253.26275"
       fill="none"
       stroke="#1f1f1f"
       stroke-linecap="round"
       stroke-linejoin="round"
       stroke-width="0.8"
       id="line66" />
    <line
       x1="121.25113"
       y1="253.26275"
       x2="131.87383"
       y2="253.26275"
       fill="none"
       stroke="#1f1f1f"
       stroke-linecap="round"
       stroke-linejoin="round"
       stroke-width="0.8"
       id="line68" />
    <line
       x1="159.68865"
       y1="253.26275"
       x2="170.31135"
       y2="253.26275"
       fill="none"
       stroke="#1f1f1f"
       stroke-linecap="round"
       stroke-linejoin="round"
       stroke-width="0.8"
       id="line70" />
    <line
       x1="198.12617"
       y1="253.26275"
       x2="208.74887"
       y2="253.26275"
       fill="none"
       stroke="#1f1f1f"
       stroke-linecap="round"
       stroke-linejoin="round"
       stroke-width="0.8"
       id="line72" />
    <line
       x1="236.56369"
       y1="253.26275"
       x2="247.18639"
       y2="253.26275"
       fill="none"
       stroke="#1f1f1f"
       stroke-linecap="round"
       stroke-linejoin="round"
       stroke-width="0.8"
       id="line74" />
    <line
       x1="275.00121"
       y1="253.26275"
       x2="285.62391"
       y2="253.26275"
       fill="none"
       stroke="#1f1f1f"
       stroke-linecap="round"
       stroke-linejoin="round"
       stroke-width="0.8"
       id="line76" />
    <g
       id="g84">
      <circle
         cx="34.70371"
         cy="78.99989"
         r="26.48818"
         fill="none"
         opacity="0.69"
         style="isolation: isolate"
         id="circle78" />
      <path
         d="M45.50193,97.10255a20.94666,20.94666,0,1,0-21.45105.07488"
         fill="none"
         stroke="#1f1f1f"
         stroke-linecap="round"
         stroke-miterlimit="10"
         stroke-width="0.8"
         id="path80" />
      <line
         x1="45.50193"
         y1="97.10255"
         x2="34.70371"
         y2="78.99989"
         fill="none"
         id="line82" />
    </g>
    <g
       id="g108">
      <circle
         cx="94.71674"
         cy="79.07998"
         r="26.48818"
         fill="none"
         opacity="0.69"
         style="isolation: isolate"
         id="circle86" />
      <g
         id="g104">
        <path
           d="M105.515,97.18264a20.94666,20.94666,0,1,0-21.451.07488"
           fill="none"
           stroke="#1f1f1f"
           stroke-linecap="round"
           stroke-miterlimit="10"
           stroke-width="0.8"
           id="path88" />
        <g
           id="g102">
          <line
             x1="75.01341"
             y1="85.53009"
             x2="84.27617"
             y2="82.73615"
             fill="none"
             stroke="#1f1f1f"
             stroke-linecap="round"
             stroke-miterlimit="10"
             stroke-width="0.5"
             id="line90" />
          <line
             x1="76.26737"
             y1="70.4434"
             x2="84.91281"
             y2="74.78609"
             fill="none"
             stroke="#1f1f1f"
             stroke-linecap="round"
             stroke-miterlimit="10"
             stroke-width="0.5"
             id="line92" />
          <line
             x1="86.91123"
             y1="60.02197"
             x2="90.64823"
             y2="69.42766"
             fill="none"
             stroke="#1f1f1f"
             stroke-linecap="round"
             stroke-miterlimit="10"
             stroke-width="0.5"
             id="line94" />
          <line
             x1="102.56588"
             y1="59.82108"
             x2="98.65658"
             y2="69.36792"
             fill="none"
             stroke="#1f1f1f"
             stroke-linecap="round"
             stroke-miterlimit="10"
             stroke-width="0.5"
             id="line96" />
          <line
             x1="113.1599"
             y1="70.39185"
             x2="104.4691"
             y2="74.64304"
             fill="none"
             stroke="#1f1f1f"
             stroke-linecap="round"
             stroke-miterlimit="10"
             stroke-width="0.5"
             id="line98" />
          <line
             x1="114.45677"
             y1="85.47287"
             x2="105.22369"
             y2="82.58233"
             fill="none"
             stroke="#1f1f1f"
             stroke-linecap="round"
             stroke-miterlimit="10"
             stroke-width="0.5"
             id="line100" />
        </g>
      </g>
      <line
         x1="105.51496"
         y1="97.18264"
         x2="94.71674"
         y2="79.07998"
         fill="none"
         stroke="#1f1f1f"
         stroke-linecap="round"
         stroke-miterlimit="10"
         stroke-width="0.8"
         id="line106" />
    </g>
    <g
       id="g114">
      <path
         d="M39.10432,151.79291a16.71232,16.71232,0,1,0-17.21552.04577"
         fill="none"
         stroke="#1f1f1f"
         stroke-linecap="round"
         stroke-linejoin="round"
         stroke-width="0.8"
         id="path110" />
      <circle
         cx="30.46868"
         cy="137.48773"
         r="20.69419"
         fill="none"
         opacity="0.69"
         style="isolation: isolate"
         id="circle112" />
    </g>
    <g
       id="g120">
      <path
         d="M39.10432,193.26157a16.71232,16.71232,0,1,0-17.21552.04577"
         fill="none"
         stroke="#1f1f1f"
         stroke-linecap="round"
         stroke-linejoin="round"
         stroke-width="0.8"
         id="path116" />
      <circle
         cx="30.46868"
         cy="178.9564"
         r="20.69419"
         fill="none"
         opacity="0.69"
         style="isolation: isolate"
         id="circle118" />
    </g>
    <g
       id="g126">
      <path
         d="M39.10432,234.59446a16.71232,16.71232,0,1,0-17.21552.04577"
         fill="none"
         stroke="#1f1f1f"
         stroke-linecap="round"
         stroke-linejoin="round"
         stroke-width="0.8"
         id="path122" />
      <circle
         cx="30.46868"
         cy="220.28929"
         r="20.69419"
         fill="none"
         opacity="0.69"
         style="isolation: isolate"
         id="circle124" />
    </g>
    <g
       id="g132">
      <path
         d="M77.54184,151.79291a16.71232,16.71232,0,1,0-17.21552.04577"
         fill="none"
         stroke="#1f1f1f"
         stroke-linecap="round"
         stroke-linejoin="round"
         stroke-width="0.8"
         id="path128" />
      <circle
         cx="68.9062"
         cy="137.48773"
         r="20.69419"
         fill="none"
         opacity="0.69"
         style="isolation: isolate"
         id="circle130" />
    </g>
    <g
       id="g138">
      <path
         d="M77.54184,193.26157a16.71232,16.71232,0,1,0-17.21552.04577"
         fill="none"
         stroke="#1f1f1f"
         stroke-linecap="round"
         stroke-linejoin="round"
         stroke-width="0.8"
         id="path134" />
      <circle
         cx="68.9062"
         cy="178.9564"
         r="20.69419"
         fill="none"
         opacity="0.69"
         style="isolation: isolate"
         id="circle136" />
    </g>
    <g
       id="g144">
      <path
         d="M77.54184,234.59446a16.71232,16.71232,0,1,0-17.21552.04577"
         fill="none"
         stroke="#1f1f1f"
         stroke-linecap="round"
         stroke-linejoin="round"
         stroke-width="0.8"
         id="path140" />
      <circle
         cx="68.9062"
         cy="220.28929"
         r="20.69419"
         fill="none"
         opacity="0.69"
         style="isolation: isolate"
         id="circle142" />
    </g>
    <g
       id="g150">
      <path
         d="M115.97936,151.79291a16.71232,16.71232,0,1,0-17.21552.04577"
         fill="none"
         stroke="#1f1f1f"
         stroke-linecap="round"
         stroke-linejoin="round"
         stroke-width="0.8"
         id="path146" />
      <circle
         cx="107.34372"
         cy="137.48773"
         r="20.69419"
         fill="none"
         opacity="0.69"
         style="isolation: isolate"
         id="circle148" />
    </g>
    <g
       id="g156">
      <path
         d="M115.97936,193.26157a16.71232,16.71232,0,1,0-17.21552.04577"
         fill="none"
         stroke="#1f1f1f"
         stroke-linecap="round"
         stroke-linejoin="round"
         stroke-width="0.8"
         id="path152" />
      <circle
         cx="107.34372"
         cy="178.9564"
         r="20.69419"
         fill="none"
         opacity="0.69"
         style="isolation: isolate"
         id="circle154" />
    </g>
    <g
       id="g162">
      <path
         d="M115.97936,234.59446a16.71232,16.71232,0,1,0-17.21552.04577"
         fill="none"
         stroke="#1f1f1f"
         stroke-linecap="round"
         stroke-linejoin="round"
         stroke-width="0.8"
         id="path158" />
      <circle
         cx="107.34372"
         cy="220.28929"
         r="20.69419"
         fill="none"
         opacity="0.69"
         style="isolation: isolate"
         id="circle160" />
    </g>
    <g
       id="g168">
      <path
         d="M154.41688,151.79291a16.71232,16.71232,0,1,0-17.21552.04577"
         fill="none"
         stroke="#1f1f1f"
         stroke-linecap="round"
         stroke-linejoin="round"
         stroke-width="0.8"
         id="path164" />
      <circle
         cx="145.78124"
         cy="137.48773"
         r="20.69419"
         fill="none"
         opacity="0.69"
         style="isolation: isolate"
         id="circle166" />
    </g>
    <g
       id="g174">
      <path
         d="M154.41688,193.26157a16.71232,16.71232,0,1,0-17.21552.04577"
         fill="none"
         stroke="#1f1f1f"
         stroke-linecap="round"
         stroke-linejoin="round"
         stroke-width="0.8"
         id="path170" />
      <circle
         cx="145.78124"
         cy="178.9564"
         r="20.69419"
         fill="none"
         opacity="0.69"
         style="isolation: isolate"
         id="circle172" />
    </g>
    <g
       id="g180">
      <path
         d="M154.41688,234.59446a16.71232,16.71232,0,1,0-17.21552.04577"
         fill="none"
         stroke="#1f1f1f"
         stroke-linecap="round"
         stroke-linejoin="round"
         stroke-width="0.8"
         id="path176" />
      <circle
         cx="145.78124"
         cy="220.28929"
         r="20.69419"
         fill="none"
         opacity="0.69"
         style="isolation: isolate"
         id="circle178" />
    </g>
    <g
       id="g186">
      <path
         d="M192.85439,151.79291a16.71231,16.71231,0,1,0-17.21551.04577"
         fill="none"
         stroke="#1f1f1f"
         stroke-linecap="round"
         stroke-linejoin="round"
         stroke-width="0.8"
         id="path182" />
      <circle
         cx="184.21876"
         cy="137.48773"
         r="20.69419"
         fill="none"
         opacity="0.69"
         style="isolation: isolate"
         id="circle184" />
    </g>
    <g
       id="g192">
      <path
         d="M192.85439,193.26157a16.71231,16.71231,0,1,0-17.21551.04577"
         fill="none"
         stroke="#1f1f1f"
         stroke-linecap="round"
         stroke-linejoin="round"
         stroke-width="0.8"
         id="path188" />
      <circle
         cx="184.21876"
         cy="178.9564"
         r="20.69419"
         fill="none"
         opacity="0.69"
         style="isolation: isolate"
         id="circle190" />
    </g>
    <g
       id="g198">
      <path
         d="M192.85439,234.59446a16.71231,16.71231,0,1,0-17.21551.04577"
         fill="none"
         stroke="#1f1f1f"
         stroke-linecap="round"
         stroke-linejoin="round"
         stroke-width="0.8"
         id="path194" />
      <circle
         cx="184.21876"
         cy="220.28929"
         r="20.69419"
         fill="none"
         opacity="0.69"
         style="isolation: isolate"
         id="circle196" />
    </g>
    <g
       id="g204">
      <path
         d="M231.29191,151.79291a16.71231,16.71231,0,1,0-17.21551.04577"
         fill="none"
         stroke="#1f1f1f"
         stroke-linecap="round"
         stroke-linejoin="round"
         stroke-width="0.8"
         id="path200" />
      <circle
         cx="222.65628"
         cy="137.48773"
         r="20.69419"
         fill="none"
         opacity="0.69"
         style="isolation: isolate"
         id="circle202" />
    </g>
    <g
       id="g210">
      <path
         d="M231.29191,193.26157a16.71231,16.71231,0,1,0-17.21551.04577"
         fill="none"
         stroke="#1f1f1f"
         stroke-linecap="round"
         stroke-linejoin="round"
         stroke-width="0.8"
         id="path206" />
      <circle
         cx="222.65628"
         cy="178.9564"
         r="20.69419"
         fill="none"
         opacity="0.69"
         style="isolation: isolate"
         id="circle208" />
    </g>
    <g
       id="g216">
      <path
         d="M231.29191,234.59446a16.71231,16.71231,0,1,0-17.21551.04577"
         fill="none"
         stroke="#1f1f1f"
         stroke-linecap="round"
         stroke-linejoin="round"
         stroke-width="0.8"
         id="path212" />
      <circle
         cx="222.65628"
         cy="220.28929"
         r="20.69419"
         fill="none"
         opacity="0.69"
         style="isolation: isolate"
         id="circle214" />
    </g>
    <g
       id="g222">
      <path
         d="M269.72943,151.79291a16.71231,16.71231,0,1,0-17.21551.04577"
         fill="none"
         stroke="#1f1f1f"
         stroke-linecap="round"
         stroke-linejoin="round"
         stroke-width="0.8"
         id="path218" />
      <circle
         cx="261.0938"
         cy="137.48773"
         r="20.69419"
         fill="none"
         opacity="0.69"
         style="isolation: isolate"
         id="circle220" />
    </g>
    <g
       id="g228">
      <path
         d="M269.72943,193.26157a16.71231,16.71231,0,1,0-17.21551.04577"
         fill="none"
         stroke="#1f1f1f"
         stroke-linecap="round"
         stroke-linejoin="round"
         stroke-width="0.8"
         id="path224" />
      <circle
         cx="261.0938"
         cy="178.9564"
         r="20.69419"
         fill="none"
         opacity="0.69"
         style="isolation: isolate"
         id="circle226" />
    </g>
    <g
       id="g234">
      <path
         d="M269.72943,234.59446a16.71231,16.71231,0,1,0-17.21551.04577"
         fill="none"
         stroke="#1f1f1f"
         stroke-linecap="round"
         stroke-linejoin="round"
         stroke-width="0.8"
         id="path230" />
      <circle
         cx="261.0938"
         cy="220.28929"
         r="20.69419"
         fill="none"
         opacity="0.69"
         style="isolation: isolate"
         id="circle232" />
    </g>
    <g
       id="g240">
      <path
         d="M308.167,151.79291a16.71231,16.71231,0,1,0-17.21551.04577"
         fill="none"
         stroke="#1f1f1f"
         stroke-linecap="round"
         stroke-linejoin="round"
         stroke-width="0.8"
         id="path236" />
      <circle
         cx="299.53132"
         cy="137.48773"
         r="20.69419"
         fill="none"
         opacity="0.69"
         style="isolation: isolate"
         id="circle238" />
    </g>
    <g
       id="g246">
      <path
         d="M308.167,193.26157a16.71231,16.71231,0,1,0-17.21551.04577"
         fill="none"
         stroke="#1f1f1f"
         stroke-linecap="round"
         stroke-linejoin="round"
         stroke-width="0.8"
         id="path242" />
      <circle
         cx="299.53132"
         cy="178.9564"
         r="20.69419"
         fill="none"
         opacity="0.69"
         style="isolation: isolate"
         id="circle244" />
    </g>
    <g
       id="g252">
      <path
         d="M308.167,234.59446a16.71231,16.71231,0,1,0-17.21551.04577"
         fill="none"
         stroke="#1f1f1f"
         stroke-linecap="round"
         stroke-linejoin="round"
         stroke-width="0.8"
         id="path248" />
      <circle
         cx="299.53132"
         cy="220.28929"
         r="20.69419"
         fill="none"
         opacity="0.69"
         style="isolation: isolate"
         id="circle250" />
    </g>
  </g>
  <g
     id="fb42cb62-6fa1-4ca7-bd91-156ece93d982"
     data-name="FND TXT">
    <g
       id="g261">
      <path
         d="M61.06641,316.55127v-.01367A2.41145,2.41145,0,0,1,63.54,314.085a2.50689,2.50689,0,0,1,1.585.48145.51867.51867,0,0,1,.20312.41308.5086.5086,0,0,1-.51464.50781.54507.54507,0,0,1-.31153-.10156,1.55816,1.55816,0,0,0-.96875-.33838,1.40507,1.40507,0,0,0-1.375,1.477v.01319a1.40884,1.40884,0,0,0,1.375,1.49072,1.51969,1.51969,0,0,0,1.0293-.37305.48326.48326,0,1,1,.62305.73877,2.49892,2.49892,0,0,1-4.11914-1.84277Z"
         fill="#f0f0f0"
         id="path255" />
      <path
         d="M67.75195,318.57031l-1.53711-3.67871a.64646.64646,0,0,1-.06054-.251.51135.51135,0,0,1,.52148-.51464.54041.54041,0,0,1,.52734.36572l1.18555,3.06885,1.19922-3.10254a.543.543,0,0,1,.50195-.332.50346.50346,0,0,1,.51563.501.59936.59936,0,0,1-.05469.23047L68.999,318.57031a.61188.61188,0,0,1-.58886.41309H68.3418A.61313.61313,0,0,1,67.75195,318.57031Z"
         fill="#f0f0f0"
         id="path257" />
      <path
         d="M73.43555,317.89258l1.34863-1.10449c.58887-.48047.81934-.74512.81934-1.1377a.5815.5815,0,0,0-.63672-.6167.99817.99817,0,0,0-.77149.41358.48034.48034,0,0,1-.35351.14843.471.471,0,0,1-.47364-.47363.52335.52335,0,0,1,.12207-.32519,1.86643,1.86643,0,0,1,1.54493-.69825A1.46236,1.46236,0,0,1,76.668,315.562v.01367c0,.79248-.40625,1.18555-1.24707,1.83594l-.77246.59619h1.65332a.45387.45387,0,0,1,.4541.4541.4484.4484,0,0,1-.4541.44727h-2.5752a.50029.50029,0,0,1-.56152-.49512A.65932.65932,0,0,1,73.43555,317.89258Z"
         fill="#f0f0f0"
         id="path259" />
    </g>
    <g
       id="g269">
      <path
         d="M215.81934,316.55127v-.01367A2.41087,2.41087,0,0,1,218.293,314.085a2.50888,2.50888,0,0,1,1.585.48145.52151.52151,0,0,1,.20312.41308.5086.5086,0,0,1-.51464.50781.54246.54246,0,0,1-.31153-.10156,1.56229,1.56229,0,0,0-.96875-.33838,1.40524,1.40524,0,0,0-1.376,1.477v.01319a1.409,1.409,0,0,0,1.376,1.49072,1.51969,1.51969,0,0,0,1.0293-.37305.48326.48326,0,1,1,.62305.73877,2.49889,2.49889,0,0,1-4.11914-1.84277Z"
         fill="#f0f0f0"
         id="path263" />
      <path
         d="M221.23828,314.64746a.52149.52149,0,0,1,1.043,0v3.313h1.93066a.47437.47437,0,1,1,0,.94873h-2.45214a.51718.51718,0,0,1-.52149-.522Z"
         fill="#f0f0f0"
         id="path265" />
      <path
         d="M225.58691,314.64746a.52149.52149,0,0,1,1.043,0v1.59229l1.92481-1.91065a.58493.58493,0,0,1,.44043-.20312.46983.46983,0,0,1,.48047.48095.52226.52226,0,0,1-.18946.39307l-1.335,1.24609,1.457,1.82959a.55577.55577,0,0,1,.1416.36573.50359.50359,0,0,1-.52832.5083.52848.52848,0,0,1-.44043-.25049l-1.35449-1.77539-.59668.55566v.94824a.52149.52149,0,1,1-1.043,0Z"
         fill="#f0f0f0"
         id="path267" />
    </g>
    <g
       id="g281">
      <path
         d="M173.24414,318.40771a.48746.48746,0,0,1-.19629-.39306.4799.4799,0,0,1,.48731-.481.50546.50546,0,0,1,.29882.09473,2.001,2.001,0,0,0,1.2129.42676c.42578,0,.68359-.16944.68359-.44678v-.01367c0-.26465-.16211-.39991-.95508-.603-.95508-.24365-1.57227-.5083-1.57227-1.44971v-.01367a1.48389,1.48389,0,0,1,1.66016-1.42969,2.75349,2.75349,0,0,1,1.50391.41992.4829.4829,0,0,1-.25781.89454.50548.50548,0,0,1-.26368-.07422,1.96873,1.96873,0,0,0-.99609-.31885c-.39941,0-.60938.1831-.60938.41357v.01368c0,.31152.20313.41308,1.02344.623.96094.25049,1.50391.59619,1.50391,1.42285v.01368c0,.9414-.71875,1.46972-1.74219,1.46972A3.06169,3.06169,0,0,1,173.24414,318.40771Z"
         fill="#f0f0f0"
         id="path271" />
      <path
         d="M178.95117,315.12842h-1.00293a.481.481,0,1,1,0-.96192h3.04785a.481.481,0,1,1,0,.96192h-1.002v3.29931a.52149.52149,0,1,1-1.043,0Z"
         fill="#f0f0f0"
         id="path273" />
      <path
         d="M182.38672,318.38721v-3.69873a.51779.51779,0,0,1,.52148-.522h2.62891a.46752.46752,0,0,1,.4668.46729.46183.46183,0,0,1-.4668.46094h-2.11426v.96191h1.80957a.46825.46825,0,0,1,.4668.46777.46233.46233,0,0,1-.4668.46045h-1.80957v.99561h2.14746a.46878.46878,0,0,1,.46778.46777.463.463,0,0,1-.46778.46094H182.9082A.51779.51779,0,0,1,182.38672,318.38721Z"
         fill="#f0f0f0"
         id="path275" />
      <path
         d="M187.1582,314.68848a.518.518,0,0,1,.52246-.522h1.416a1.62378,1.62378,0,0,1,1.81543,1.63965v.01319a1.69521,1.69521,0,0,1-1.917,1.667h-.793v.9414a.522.522,0,1,1-1.04395,0Zm1.8711,1.86963a.73432.73432,0,0,0,.82617-.71827v-.01367c0-.46728-.3252-.71777-.84766-.71777h-.80566v1.44971Z"
         fill="#f0f0f0"
         id="path277" />
      <path
         d="M191.79492,318.40771a.48746.48746,0,0,1-.19629-.39306.4799.4799,0,0,1,.48731-.481.50549.50549,0,0,1,.29883.09473,2.001,2.001,0,0,0,1.21289.42676c.42578,0,.68359-.16944.68359-.44678v-.01367c0-.26465-.16211-.39991-.95508-.603-.95508-.24365-1.57226-.5083-1.57226-1.44971v-.01367a1.48388,1.48388,0,0,1,1.66015-1.42969,2.75349,2.75349,0,0,1,1.50391.41992.4829.4829,0,0,1-.25781.89454.5055.5055,0,0,1-.26368-.07422,1.96873,1.96873,0,0,0-.99609-.31885c-.39941,0-.60937.1831-.60937.41357v.01368c0,.31152.20312.41308,1.02343.623.96094.25049,1.50391.59619,1.50391,1.42285v.01368c0,.9414-.71875,1.46972-1.74219,1.46972A3.06169,3.06169,0,0,1,191.79492,318.40771Z"
         fill="#f0f0f0"
         id="path279" />
    </g>
    <g
       id="g293">
      <path
         d="M21.06836,46.20654H19.64941a.47583.47583,0,0,1,0-.95166h3.88184a.47592.47592,0,0,1,0,.95166H22.10352v4.42383a.51766.51766,0,0,1-1.03516,0Z"
         fill="#1f1f1f"
         id="path283" />
      <path
         d="M25.16113,50.58008V45.77246a.50992.50992,0,0,1,.51758-.51758h3.39746a.46364.46364,0,0,1,.459.45948.45813.45813,0,0,1-.459.459H26.1875v1.519h2.5127a.465.465,0,0,1,.459.46729.45609.45609,0,0,1-.459.45068H26.1875v1.56934h2.92969a.4634.4634,0,0,1,.46.459.458.458,0,0,1-.46.459H25.67871A.50992.50992,0,0,1,25.16113,50.58008Z"
         fill="#1f1f1f"
         id="path285" />
      <path
         d="M30.91309,45.73926a.515.515,0,0,1,.51757-.51758h.1084a.53911.53911,0,0,1,.47559.27539l1.76953,2.771,1.77832-2.7793a.516.516,0,0,1,.4668-.26709h.10937a.51421.51421,0,0,1,.5166.51758v4.89111a.50686.50686,0,0,1-.5166.50879.517.517,0,0,1-.50976-.50879V47.12451l-1.42676,2.145a.47995.47995,0,0,1-.86035,0L31.92285,47.1416v3.49707a.49813.49813,0,0,1-.50879.50049.49157.49157,0,0,1-.501-.50049Z"
         fill="#1f1f1f"
         id="path287" />
      <path
         d="M38.39453,45.77246a.50992.50992,0,0,1,.51758-.51758h1.78613A1.96158,1.96158,0,0,1,42.919,47.208v.0166c0,1.31055-1.05176,1.99512-2.3379,1.99512H39.4209v1.41064a.5132.5132,0,0,1-1.02637,0Zm2.2207,2.52051c.77637,0,1.25977-.43359,1.25977-1.043v-.0166c0-.68457-.49219-1.04346-1.25977-1.04346H39.4209v2.103Z"
         fill="#1f1f1f"
         id="path289" />
      <path
         d="M43.9209,48.19287v-.0166a3.05548,3.05548,0,0,1,6.11035-.0166v.0166a3.05548,3.05548,0,0,1-6.11035.0166Zm5.0332,0v-.0166a2.00151,2.00151,0,0,0-1.98633-2.07813,1.9739,1.9739,0,0,0-1.96972,2.06153v.0166a1.99441,1.99441,0,0,0,1.98633,2.06982A1.96686,1.96686,0,0,0,48.9541,48.19287Z"
         fill="#1f1f1f"
         id="path291" />
    </g>
    <g
       id="g305">
      <path
         d="M81.38379,50.44678a.4836.4836,0,0,1-.2002-.39258.49747.49747,0,0,1,.78516-.38379,2.53171,2.53171,0,0,0,1.63574.60107c.63379,0,1.03516-.30078,1.03516-.73486V49.52c0-.417-.23438-.64258-1.31934-.89307-1.24316-.30029-1.94433-.66748-1.94433-1.74414v-.01709a1.78733,1.78733,0,0,1,1.99511-1.69433,3.21478,3.21478,0,0,1,1.85254.543.46211.46211,0,0,1,.22559.40869.47778.47778,0,0,1-.48438.47558.50046.50046,0,0,1-.26757-.0747,2.42361,2.42361,0,0,0-1.34375-.44239c-.60059,0-.95118.3086-.95118.69239V46.791c0,.45068.26758.65087,1.39356.918,1.23535.3003,1.87012.74268,1.87012,1.71094v.0166c0,1.09375-.85938,1.74463-2.08692,1.74463A3.6398,3.6398,0,0,1,81.38379,50.44678Z"
         fill="#1f1f1f"
         id="path295" />
      <path
         d="M88.44922,46.20654H87.03027a.47583.47583,0,0,1,0-.95166h3.88184a.47592.47592,0,0,1,0,.95166H89.48438v4.42383a.51766.51766,0,0,1-1.03516,0Z"
         fill="#1f1f1f"
         id="path297" />
      <path
         d="M92.542,50.58008V45.77246a.50992.50992,0,0,1,.51758-.51758H96.457a.46364.46364,0,0,1,.459.45948.45813.45813,0,0,1-.459.459H93.56836v1.519h2.51269a.465.465,0,0,1,.459.46729.4561.4561,0,0,1-.459.45068H93.56836v1.56934h2.92969a.4634.4634,0,0,1,.46.459.458.458,0,0,1-.46.459H93.05957A.50992.50992,0,0,1,92.542,50.58008Z"
         fill="#1f1f1f"
         id="path299" />
      <path
         d="M98.29492,45.77246a.50992.50992,0,0,1,.51758-.51758h1.78613a1.96158,1.96158,0,0,1,2.22071,1.95313v.0166c0,1.31055-1.05176,1.99512-2.33789,1.99512H99.32129v1.41064a.5132.5132,0,0,1-1.02637,0Zm2.2207,2.52051c.77637,0,1.25977-.43359,1.25977-1.043v-.0166c0-.68457-.49219-1.04346-1.25977-1.04346H99.32129v2.103Z"
         fill="#1f1f1f"
         id="path301" />
      <path
         d="M103.90918,50.44678a.4836.4836,0,0,1-.2002-.39258.49747.49747,0,0,1,.78516-.38379,2.53171,2.53171,0,0,0,1.63574.60107c.63379,0,1.03516-.30078,1.03516-.73486V49.52c0-.417-.23438-.64258-1.31934-.89307-1.24316-.30029-1.94433-.66748-1.94433-1.74414v-.01709a1.78733,1.78733,0,0,1,1.99511-1.69433,3.21478,3.21478,0,0,1,1.85254.543.46211.46211,0,0,1,.22559.40869.47778.47778,0,0,1-.48438.47558.50046.50046,0,0,1-.26757-.0747,2.42361,2.42361,0,0,0-1.34375-.44239c-.60059,0-.95118.3086-.95118.69239V46.791c0,.45068.26758.65087,1.39356.918,1.23535.3003,1.87012.74268,1.87012,1.71094v.0166c0,1.09375-.85938,1.74463-2.08692,1.74463A3.6398,3.6398,0,0,1,103.90918,50.44678Z"
         fill="#1f1f1f"
         id="path303" />
    </g>
    <g
       id="g313">
      <path
         d="M253.77344,80.20312a.4138.4138,0,0,1,.41992-.41992h1.69336a1.9122,1.9122,0,0,1,1.36914.47412,1.43192,1.43192,0,0,1,.39258,1.02295V81.294a1.40248,1.40248,0,0,1-1.07715,1.416l.9082,1.145a.485.485,0,0,1,.13574.31836.3936.3936,0,0,1-.40039.38623.47557.47557,0,0,1-.40625-.2168l-1.15136-1.47021h-1.04981v1.27392a.417.417,0,0,1-.834,0Zm2.05273,1.93067c.59668,0,.97559-.31152.97559-.79248v-.01319c0-.5083-.36621-.78613-.98242-.78613h-1.21192v1.5918Z"
         fill="#1f1f1f"
         id="path307" />
      <path
         d="M258.81641,82.51367V80.1626a.41651.41651,0,0,1,.833,0v2.31689c0,.88086.45411,1.34863,1.19922,1.34863.73828,0,1.19239-.44042,1.19239-1.31445V80.1626a.41651.41651,0,0,1,.833,0v2.31006A1.894,1.894,0,0,1,260.835,84.6001,1.86906,1.86906,0,0,1,258.81641,82.51367Z"
         fill="#1f1f1f"
         id="path309" />
      <path
         d="M264.27734,80.17627a.41845.41845,0,0,1,.41993-.42041h.08886a.52451.52451,0,0,1,.4336.24414l2.37109,3.06934V80.15576a.40968.40968,0,0,1,.81934,0v3.98389a.40441.40441,0,0,1-.40625.41308h-.03418a.52424.52424,0,0,1-.4336-.251L265.09766,81.145v3.0083a.41018.41018,0,0,1-.82032,0Z"
         fill="#1f1f1f"
         id="path311" />
    </g>
    <g
       id="g321">
      <path
         d="M215.85938,82.168V82.1543a2.39917,2.39917,0,0,1,2.44531-2.45264,2.4874,2.4874,0,0,1,1.626.53516.41774.41774,0,0,1,.16309.332.41659.41659,0,0,1-.66406.32519,1.72292,1.72292,0,0,0-1.13184-.42675,1.59619,1.59619,0,0,0-1.56543,1.67333v.01368a1.59883,1.59883,0,0,0,1.56543,1.68017,1.69969,1.69969,0,0,0,1.18555-.4541.38115.38115,0,0,1,.251-.09473.38946.38946,0,0,1,.25781.68409,2.42477,2.42477,0,0,1-1.72168.63672A2.38452,2.38452,0,0,1,215.85938,82.168Z"
         fill="#1f1f1f"
         id="path315" />
      <path
         d="M221.27539,80.16211a.417.417,0,0,1,.834,0V83.7666h2.14746a.3794.3794,0,1,1,0,.75879h-2.56055a.414.414,0,0,1-.4209-.41992Z"
         fill="#1f1f1f"
         id="path317" />
      <path
         d="M225.62891,80.16211a.417.417,0,0,1,.834,0V82.168l2.249-2.26318a.438.438,0,0,1,.34571-.15577.38189.38189,0,0,1,.38574.38623.40484.40484,0,0,1-.14844.31153l-1.47754,1.42285,1.59864,1.98486a.44937.44937,0,0,1,.11523.29834.4068.4068,0,0,1-.41992.40674.421.421,0,0,1-.35156-.19678l-1.52539-1.94433-.77149.74511V84.146a.417.417,0,0,1-.834,0Z"
         fill="#1f1f1f"
         id="path319" />
    </g>
    <g
       id="g333">
      <path
         d="M288.3291,80.20312a.41321.41321,0,0,1,.41992-.41992h1.69434a1.913,1.913,0,0,1,1.36816.47412,1.43192,1.43192,0,0,1,.39258,1.02295V81.294A1.40345,1.40345,0,0,1,291.127,82.71l.90821,1.145a.48394.48394,0,0,1,.13476.31836.39277.39277,0,0,1-.39941.38623.47555.47555,0,0,1-.40625-.2168l-1.15137-1.47021h-1.05078v1.27392a.41652.41652,0,0,1-.833,0Zm2.05274,1.93067c.59668,0,.97558-.31152.97558-.79248v-.01319c0-.5083-.36621-.78613-.98242-.78613h-1.21289v1.5918Z"
         fill="#1f1f1f"
         id="path323" />
      <path
         d="M293.46094,84.10547V80.20312a.414.414,0,0,1,.4209-.41992h2.75683a.37641.37641,0,0,1,.37305.37256.372.372,0,0,1-.37305.37256h-2.34375v1.2334H296.334a.37743.37743,0,0,1,.373.3789.37066.37066,0,0,1-.373.36622h-2.03906v1.27343h2.37793a.37566.37566,0,0,1,.37207.373.37072.37072,0,0,1-.37207.37207h-2.791A.414.414,0,0,1,293.46094,84.10547Z"
         fill="#1f1f1f"
         id="path325" />
      <path
         d="M298.07617,83.99707a.39441.39441,0,0,1,.47461-.62988,2.05494,2.05494,0,0,0,1.32715.48779c.51465,0,.84082-.24365.84082-.59619v-.01367c0-.33887-.19043-.52149-1.07129-.72461-1.00879-.24414-1.57812-.542-1.57812-1.416v-.01367a1.45021,1.45021,0,0,1,1.61914-1.37549,2.60676,2.60676,0,0,1,1.5039.44043.37636.37636,0,0,1,.18262.332.38723.38723,0,0,1-.39258.38623.40384.40384,0,0,1-.2168-.061,1.977,1.977,0,0,0-1.09082-.35889c-.4873,0-.77246.25049-.77246.562v.01368c0,.36572.2168.52832,1.13184.74511,1.00293.24414,1.51758.603,1.51758,1.38916v.01367c0,.88721-.69824,1.41553-1.69434,1.41553A2.95,2.95,0,0,1,298.07617,83.99707Z"
         fill="#1f1f1f"
         id="path327" />
      <path
         d="M302.76172,84.10547V80.20312a.414.414,0,0,1,.4209-.41992h2.75683a.37641.37641,0,0,1,.373.37256.372.372,0,0,1-.373.37256H303.5957v1.2334h2.03907a.37743.37743,0,0,1,.373.3789.37065.37065,0,0,1-.373.36622H303.5957v1.27343h2.37793a.37566.37566,0,0,1,.37207.373.37072.37072,0,0,1-.37207.37207h-2.791A.414.414,0,0,1,302.76172,84.10547Z"
         fill="#1f1f1f"
         id="path329" />
      <path
         d="M308.72559,80.55566h-1.15137a.38623.38623,0,1,1,0-.77246h3.15039a.3863.3863,0,0,1,0,.77246h-1.1582v3.59082a.42047.42047,0,0,1-.84082,0Z"
         fill="#1f1f1f"
         id="path331" />
    </g>
    <g
       id="g345">
      <path
         d="M134.60156,80.55518h-1.15234a.386.386,0,0,1,0-.772h3.15039a.386.386,0,0,1,0,.772h-1.1582V84.146a.42.42,0,0,1-.83985,0Z"
         fill="#1f1f1f"
         id="path335" />
      <path
         d="M137.98047,84.10547V80.20312a.41321.41321,0,0,1,.41992-.41992h2.75684a.37515.37515,0,0,1,.37207.37207.37125.37125,0,0,1-.37207.373h-2.34375v1.23291h2.03906a.377.377,0,0,1,.37207.37939.36972.36972,0,0,1-.37207.36573h-2.03906v1.27392h2.37793a.37525.37525,0,0,1,.37207.37256.37114.37114,0,0,1-.37207.37256h-2.791A.41321.41321,0,0,1,137.98047,84.10547Z"
         fill="#1f1f1f"
         id="path337" />
      <path
         d="M142.70508,80.17578a.418.418,0,0,1,.41992-.41992h.08887a.43786.43786,0,0,1,.38574.22363l1.43652,2.249,1.44239-2.25586a.42062.42062,0,0,1,.37988-.2168h.08789a.41825.41825,0,0,1,.4209.41992V84.146a.413.413,0,0,1-.4209.41357.41943.41943,0,0,1-.41309-.41357V81.30078L145.375,83.042a.38949.38949,0,0,1-.69824,0l-1.15137-1.728v2.83887a.406.406,0,0,1-.41406.40674.4.4,0,0,1-.40625-.40674Z"
         fill="#1f1f1f"
         id="path339" />
      <path
         d="M148.834,80.20312a.41322.41322,0,0,1,.41993-.41992h1.44921a1.59215,1.59215,0,0,1,1.80274,1.585v.01368c0,1.06347-.85352,1.61914-1.89746,1.61914H149.667v1.145a.41652.41652,0,0,1-.833,0Zm1.80176,2.0459c.62988,0,1.02246-.35254,1.02246-.84668v-.01367c0-.55566-.39941-.84668-1.02246-.84668H149.667v1.707Z"
         fill="#1f1f1f"
         id="path341" />
      <path
         d="M153.374,82.168V82.1543a2.48023,2.48023,0,0,1,4.96-.01368v.01368a2.48024,2.48024,0,0,1-4.96.01367Zm4.085,0V82.1543a1.62423,1.62423,0,0,0-1.61132-1.687,1.60248,1.60248,0,0,0-1.59961,1.67333v.01368a1.61938,1.61938,0,0,0,1.61328,1.68017A1.596,1.596,0,0,0,157.459,82.168Z"
         fill="#1f1f1f"
         id="path343" />
    </g>
    <g
       id="g357">
      <path
         d="M173.28125,83.99707a.38875.38875,0,0,1,.23047-.70459.38573.38573,0,0,1,.24414.07471,2.05512,2.05512,0,0,0,1.32812.4873c.51465,0,.83985-.24365.83985-.5957v-.01367c0-.33887-.18945-.522-1.07031-.7251-1.00977-.24365-1.57911-.542-1.57911-1.416v-.01318a1.45082,1.45082,0,0,1,1.62012-1.37549,2.61462,2.61462,0,0,1,1.50391.43994.37964.37964,0,0,1,.18261.332.38847.38847,0,0,1-.39355.38672.40242.40242,0,0,1-.2168-.06152,1.97158,1.97158,0,0,0-1.08984-.35889c-.48828,0-.77344.25049-.77344.5625v.01319c0,.36621.2168.52881,1.13184.7456,1.00293.24365,1.51758.603,1.51758,1.38867v.01368c0,.8872-.69825,1.416-1.69336,1.416A2.95806,2.95806,0,0,1,173.28125,83.99707Z"
         fill="#1f1f1f"
         id="path347" />
      <path
         d="M179.07422,80.55518h-1.15234a.386.386,0,0,1,0-.772h3.15039a.386.386,0,0,1,0,.772h-1.15821V84.146a.42.42,0,0,1-.83984,0Z"
         fill="#1f1f1f"
         id="path349" />
      <path
         d="M182.45312,84.10547V80.20312a.41322.41322,0,0,1,.41993-.41992h2.75683a.37535.37535,0,0,1,.373.37207.37146.37146,0,0,1-.373.373h-2.34375v1.23291h2.03907a.37786.37786,0,0,1,.373.37939.37056.37056,0,0,1-.373.36573h-2.03907v1.27392h2.37793a.37609.37609,0,0,1,.37305.37256.372.372,0,0,1-.37305.37256h-2.791A.41322.41322,0,0,1,182.45312,84.10547Z"
         fill="#1f1f1f"
         id="path351" />
      <path
         d="M187.17773,80.20312a.414.414,0,0,1,.4209-.41992h1.4502a1.59181,1.59181,0,0,1,1.80176,1.585v.01368c0,1.06347-.8545,1.61914-1.89747,1.61914h-.9414v1.145a.417.417,0,0,1-.834,0Zm1.80274,2.0459c.62988,0,1.02344-.35254,1.02344-.84668v-.01367c0-.55566-.40039-.84668-1.02344-.84668h-.96875v1.707Z"
         fill="#1f1f1f"
         id="path353" />
      <path
         d="M191.791,83.99707a.39376.39376,0,0,1-.16211-.31836.4031.4031,0,0,1,.63671-.31152,2.05513,2.05513,0,0,0,1.32813.4873c.51465,0,.83984-.24365.83984-.5957v-.01367c0-.33887-.18945-.522-1.07031-.7251-1.00976-.24365-1.57812-.542-1.57812-1.416v-.01318a1.44992,1.44992,0,0,1,1.61914-1.37549,2.61233,2.61233,0,0,1,1.5039.43994.3776.3776,0,0,1,.18262.332.38764.38764,0,0,1-.39258.38672.4.4,0,0,1-.21679-.06152,1.97705,1.97705,0,0,0-1.09083-.35889c-.48828,0-.77246.25049-.77246.5625v.01319c0,.36621.2168.52881,1.13184.7456,1.00195.24365,1.51758.603,1.51758,1.38867v.01368c0,.8872-.69824,1.416-1.69434,1.416A2.958,2.958,0,0,1,191.791,83.99707Z"
         fill="#1f1f1f"
         id="path355" />
    </g>
    <g
       id="g367">
      <path
         d="M146.57227,27.36084a.89919.89919,0,0,1-.36231-.72607.88687.88687,0,0,1,.90137-.88819.92229.92229,0,0,1,.5498.1753,3.69387,3.69387,0,0,0,2.23926.78808c.78906,0,1.26367-.3125,1.26367-.82568v-.0249c0-.48829-.2998-.73829-1.76367-1.11377-1.76367-.45069-2.90234-.93848-2.90234-2.67725V22.043c0-1.58887,1.27539-2.64014,3.06445-2.64014a5.084,5.084,0,0,1,2.77832.77588.87677.87677,0,0,1,.4248.76318.88634.88634,0,0,1-.90039.88819.92378.92378,0,0,1-.48828-.1377,3.64489,3.64489,0,0,0-1.83886-.58789c-.73829,0-1.126.33789-1.126.76367v.02442c0,.57617.375.76367,1.88867,1.15137,1.77734.46289,2.77832,1.10107,2.77832,2.62793v.02441c0,1.73926-1.32617,2.71533-3.21582,2.71533A5.6572,5.6572,0,0,1,146.57227,27.36084Z"
         fill="#1f1f1f"
         id="path359" />
      <path
         d="M154.8877,27.32324v-6.832a.95546.95546,0,0,1,.96386-.96289h4.85352a.86419.86419,0,0,1,.86328.86328.85343.85343,0,0,1-.86328.85059h-3.90332V23.019h3.34082a.86482.86482,0,0,1,.86328.86328.85446.85446,0,0,1-.86328.85108h-3.34082v1.83887h3.96582a.86449.86449,0,0,1,.86328.86328.85384.85384,0,0,1-.86328.85107h-4.916A.95557.95557,0,0,1,154.8877,27.32324Z"
         fill="#1f1f1f"
         id="path361" />
      <path
         d="M162.7959,23.93262v-.02539a4.65691,4.65691,0,0,1,9.30957-.02491v.02491a4.493,4.493,0,0,1-.77637,2.51513l.376.313a.94692.94692,0,0,1,.34961.72559.90258.90258,0,0,1-1.53907.65039l-.4746-.42529a4.7742,4.7742,0,0,1-2.60352.75048A4.4871,4.4871,0,0,1,162.7959,23.93262Zm4.55469.98828a.90809.90809,0,0,1,.90136-.91358.8879.8879,0,0,1,.6377.26319l.96387.86328a3.08486,3.08486,0,0,0,.2373-1.20117v-.02539a2.6612,2.6612,0,0,0-2.65332-2.75244,2.61923,2.61923,0,0,0-2.62695,2.72753v.02491a2.66143,2.66143,0,0,0,2.65234,2.75293,2.633,2.633,0,0,0,1.15137-.2378l-.91309-.77588A.94227.94227,0,0,1,167.35059,24.9209Z"
         fill="#1f1f1f"
         id="path363" />
      <path
         d="M177.51758,27.43555a.91392.91392,0,0,1,.59961-1.61377.91452.91452,0,0,1,.61328.23779,2.50252,2.50252,0,0,0,1.71484.65039,1.09829,1.09829,0,0,0,1.23828-1.06348v-.0249c0-.71338-.63769-1.11377-1.71386-1.11377h-.29981a.8327.8327,0,0,1-.82617-.82568,1.08971,1.08971,0,0,1,.41211-.78858l1.70215-1.71386h-2.69043a.82569.82569,0,0,1,0-1.65137h4.26758a.87187.87187,0,0,1,.97558.85059,1.39893,1.39893,0,0,1-.57519,1.07617l-1.71485,1.63867a2.42889,2.42889,0,0,1,2.35254,2.45264v.0249a2.85653,2.85653,0,0,1-3.15332,2.86523A4.27976,4.27976,0,0,1,177.51758,27.43555Z"
         fill="#1f1f1f"
         id="path365" />
    </g>
    <g
       id="g377">
      <path
         d="M136.43164,316.55127v-.01367A2.43464,2.43464,0,0,1,138.918,314.085a2.63074,2.63074,0,0,1,1.62012.46094.5212.5212,0,0,1,.21679.41992.51482.51482,0,0,1-.51465.51514.50642.50642,0,0,1-.31835-.1084,1.66106,1.66106,0,0,0-1.03711-.3252,1.42394,1.42394,0,0,0-1.36133,1.477v.01319A1.42079,1.42079,0,0,0,138.959,318.042a1.66449,1.66449,0,0,0,.98243-.28467v-.67773h-.70411a.448.448,0,0,1-.4541-.44678.45387.45387,0,0,1,.4541-.4541h1.19239a.51768.51768,0,0,1,.52148.52149v1.15185a.70547.70547,0,0,1-.36523.66406,3.16171,3.16171,0,0,1-1.66016.47412A2.37455,2.37455,0,0,1,136.43164,316.55127Z"
         fill="#f0f0f0"
         id="path369" />
      <path
         d="M141.83984,318.23828l1.6543-3.73291a.64416.64416,0,0,1,.60938-.41357h.06054a.63651.63651,0,0,1,.60352.41357l1.65234,3.73291a.50316.50316,0,0,1,.05469.21.49448.49448,0,0,1-.49414.50147.53238.53238,0,0,1-.50195-.35889l-.31836-.74561h-2.08594l-.332.7793a.5139.5139,0,0,1-.48145.3252.48072.48072,0,0,1-.48144-.4878A.56178.56178,0,0,1,141.83984,318.23828Zm2.9336-1.31445-.65625-1.56494-.65821,1.56494Z"
         fill="#f0f0f0"
         id="path371" />
      <path
         d="M148.07227,315.12842h-1.002a.481.481,0,0,1,0-.96192h3.04883a.481.481,0,0,1,0,.96192h-1.00293v3.29931a.522.522,0,1,1-1.04394,0Z"
         fill="#f0f0f0"
         id="path373" />
      <path
         d="M151.50781,318.38721v-3.69873a.518.518,0,0,1,.52246-.522h2.62793a.46919.46919,0,0,1,.46875.46729.46349.46349,0,0,1-.46875.46094h-2.11328v.96191h1.8086a.46845.46845,0,0,1,.46777.46777.46255.46255,0,0,1-.46777.46045h-1.8086v.99561h2.14844a.46856.46856,0,0,1,.4668.46777.46275.46275,0,0,1-.4668.46094h-2.66309A.518.518,0,0,1,151.50781,318.38721Z"
         fill="#f0f0f0"
         id="path375" />
    </g>
    <g
       id="g385">
      <path
         d="M99.51074,316.55127v-.01367a2.41088,2.41088,0,0,1,2.47364-2.45264,2.5089,2.5089,0,0,1,1.585.48145.52153.52153,0,0,1,.20312.41308.50861.50861,0,0,1-.51465.50781.54243.54243,0,0,1-.31152-.10156,1.56229,1.56229,0,0,0-.96875-.33838,1.40524,1.40524,0,0,0-1.376,1.477v.01319a1.409,1.409,0,0,0,1.376,1.49072,1.51971,1.51971,0,0,0,1.0293-.37305.48325.48325,0,1,1,.623.73877,2.49889,2.49889,0,0,1-4.11914-1.84277Z"
         fill="#f0f0f0"
         id="path379" />
      <path
         d="M106.19629,318.57031l-1.53711-3.67871a.64773.64773,0,0,1-.06152-.251.51194.51194,0,0,1,.52148-.51464.54168.54168,0,0,1,.52832.36572l1.18555,3.06885,1.19922-3.10254a.5419.5419,0,0,1,.502-.332.50322.50322,0,0,1,.51465.501.61767.61767,0,0,1-.05371.23047l-1.55176,3.71289a.61223.61223,0,0,1-.58984.41309h-.06739A.61312.61312,0,0,1,106.19629,318.57031Z"
         fill="#f0f0f0"
         id="path381" />
      <path
         d="M111.85254,318.44824a.49548.49548,0,0,1,.32519-.874.494.494,0,0,1,.332.1289,1.35441,1.35441,0,0,0,.92871.35206.5949.5949,0,0,0,.6709-.57569v-.01367c0-.38623-.34571-.603-.92872-.603h-.16211a.45089.45089,0,0,1-.44726-.44677.586.586,0,0,1,.22363-.42676l.9209-.92871h-1.456a.447.447,0,1,1,0-.894h2.30957a.47218.47218,0,0,1,.52832.46045.75451.75451,0,0,1-.31153.583l-.92773.8877a1.31469,1.31469,0,0,1,1.27344,1.32763v.01319a1.54677,1.54677,0,0,1-1.707,1.55175A2.3202,2.3202,0,0,1,111.85254,318.44824Z"
         fill="#f0f0f0"
         id="path383" />
    </g>
    <g
       id="g393">
      <path
         d="M23.31055,316.55127v-.01367a2.41087,2.41087,0,0,1,2.47363-2.45264,2.50888,2.50888,0,0,1,1.585.48145.52151.52151,0,0,1,.20313.41308.50861.50861,0,0,1-.51465.50781.54246.54246,0,0,1-.31153-.10156,1.56229,1.56229,0,0,0-.96875-.33838,1.40524,1.40524,0,0,0-1.376,1.477v.01319a1.409,1.409,0,0,0,1.376,1.49072,1.51969,1.51969,0,0,0,1.0293-.37305.48326.48326,0,1,1,.623.73877,2.49889,2.49889,0,0,1-4.11914-1.84277Z"
         fill="#f0f0f0"
         id="path387" />
      <path
         d="M29.99609,318.57031,28.459,314.8916a.64773.64773,0,0,1-.06152-.251.512.512,0,0,1,.52149-.51464.54169.54169,0,0,1,.52832.36572l1.18554,3.06885L31.832,314.458a.54191.54191,0,0,1,.50195-.332.50322.50322,0,0,1,.51465.501.61748.61748,0,0,1-.05371.23047l-1.55176,3.71289a.61222.61222,0,0,1-.58984.41309h-.06738A.61313.61313,0,0,1,29.99609,318.57031Z"
         fill="#f0f0f0"
         id="path389" />
      <path
         d="M36.32324,315.15576l-.36523.09473a.851.851,0,0,1-.1836.02685.45686.45686,0,0,1-.4541-.44677.4619.4619,0,0,1,.34571-.44727l.67089-.19678a1.88437,1.88437,0,0,1,.48829-.08789h.01269a.515.515,0,0,1,.51563.51514v3.8208a.51514.51514,0,1,1-1.03028,0Z"
         fill="#f0f0f0"
         id="path391" />
    </g>
    <g
       id="g405">
      <path
         d="M288.27246,314.68848a.51718.51718,0,0,1,.52149-.522h1.64648a1.89027,1.89027,0,0,1,1.38184.481,1.49045,1.49045,0,0,1,.40625,1.084v.01367a1.44787,1.44787,0,0,1-.94825,1.44287l.72461.88086a.60789.60789,0,0,1,.16992.3999.48576.48576,0,0,1-.49511.481.624.624,0,0,1-.51465-.271l-1.0166-1.28711h-.833v1.03613a.52149.52149,0,1,1-1.043,0Zm2.09961,1.78125c.50781,0,.79981-.27051.79981-.67041v-.01368c0-.44677-.31153-.67724-.82032-.67724h-1.03613v1.36133Z"
         fill="#f0f0f0"
         id="path395" />
      <path
         d="M293.42578,318.38721v-3.69873a.51779.51779,0,0,1,.52149-.522h2.6289a.46836.46836,0,0,1,.46778.46729.46267.46267,0,0,1-.46778.46094h-2.11426v.96191h1.80957a.46825.46825,0,0,1,.4668.46777.46233.46233,0,0,1-.4668.46045h-1.80957v.99561h2.14844a.46856.46856,0,0,1,.4668.46777.46275.46275,0,0,1-.4668.46094h-2.66308A.51779.51779,0,0,1,293.42578,318.38721Z"
         fill="#f0f0f0"
         id="path397" />
      <path
         d="M298.0752,318.40771a.48744.48744,0,0,1-.19629-.39306.47989.47989,0,0,1,.4873-.481.49979.49979,0,0,1,.29785.09473,2.00319,2.00319,0,0,0,1.21289.42676c.42676,0,.68457-.16944.68457-.44678v-.01367c0-.26465-.16308-.39991-.95507-.603-.95508-.24365-1.57227-.5083-1.57227-1.44971v-.01367a1.48389,1.48389,0,0,1,1.66016-1.42969,2.75585,2.75585,0,0,1,1.5039.41992.4829.4829,0,0,1-.25781.89454.50287.50287,0,0,1-.26367-.07422,1.97164,1.97164,0,0,0-.9961-.31885c-.39941,0-.60937.1831-.60937.41357v.01368c0,.31152.20312.41308,1.02246.623.96191.25049,1.50391.59619,1.50391,1.42285v.01368c0,.9414-.71778,1.46972-1.74121,1.46972A3.05948,3.05948,0,0,1,298.0752,318.40771Z"
         fill="#f0f0f0"
         id="path399" />
      <path
         d="M302.74219,318.38721v-3.69873a.51718.51718,0,0,1,.52148-.522h2.62793a.46836.46836,0,0,1,.46778.46729.46267.46267,0,0,1-.46778.46094h-2.11328v.96191h1.80859a.46846.46846,0,0,1,.46778.46777.46256.46256,0,0,1-.46778.46045h-1.80859v.99561h2.14746a.46877.46877,0,0,1,.46777.46777.463.463,0,0,1-.46777.46094h-2.66211A.51718.51718,0,0,1,302.74219,318.38721Z"
         fill="#f0f0f0"
         id="path401" />
      <path
         d="M308.63379,315.12842h-1.00293a.481.481,0,0,1,0-.96192h3.04883a.481.481,0,1,1,0,.96192h-1.00293v3.29931a.52149.52149,0,1,1-1.043,0Z"
         fill="#f0f0f0"
         id="path403" />
    </g>
    <g
       id="g413">
      <path
         d="M253.71777,314.68848a.51719.51719,0,0,1,.52149-.522h1.64648a1.89027,1.89027,0,0,1,1.38184.481,1.49045,1.49045,0,0,1,.40625,1.084v.01367a1.44787,1.44787,0,0,1-.94824,1.44287l.72461.88086a.60794.60794,0,0,1,.16992.3999.48576.48576,0,0,1-.49512.481.624.624,0,0,1-.51465-.271l-1.0166-1.28711h-.833v1.03613a.52149.52149,0,1,1-1.043,0Zm2.09961,1.78125c.50782,0,.79981-.27051.79981-.67041v-.01368c0-.44677-.31153-.67724-.82031-.67724h-1.03614v1.36133Z"
         fill="#f0f0f0"
         id="path407" />
      <path
         d="M258.78418,316.87646v-2.229a.522.522,0,0,1,1.04394,0v2.20215c0,.772.38575,1.17187,1.02247,1.17187s1.02343-.38623,1.02343-1.13818v-2.23584a.52149.52149,0,0,1,1.043,0v2.19531a1.90874,1.90874,0,0,1-2.08008,2.14063A1.88222,1.88222,0,0,1,258.78418,316.87646Z"
         fill="#f0f0f0"
         id="path409" />
      <path
         d="M264.24512,314.66113a.51738.51738,0,0,1,.52148-.52148h.1084a.64433.64433,0,0,1,.542.30469l2.0127,2.64209v-2.44581a.51465.51465,0,0,1,1.02929,0v3.77344a.51779.51779,0,0,1-.52148.522h-.03418a.64738.64738,0,0,1-.542-.30518l-2.08594-2.73682v2.54053a.51514.51514,0,1,1-1.03027,0Z"
         fill="#f0f0f0"
         id="path411" />
    </g>
  </g>
  <g
     id="a3f73d54-8e7d-4d95-9e26-b3d51d7e80fc"
     data-name="components"
     inkscape:groupmode="layer"
     style="display:none">
    <circle
       id="a2c1605b-3c2c-42f5-b8a4-d6537b56e523"
       data-name="Clk#SmallLight"
       cx="222.65628"
       cy="98.908768"
       r="3"
       style="fill:#ff00ff" />
    <circle
       id="be0e0cf0-8759-4e54-9ad8-c692822bf75a"
       data-name="Pos1#TinyLight"
       cx="41.528332"
       cy="274.90924"
       r="1.5"
       style="fill:#ff00ff" />
    <circle
       id="ab99c478-d1ee-44f9-8765-e5ff24ab4b2d"
       data-name="Pos2#TinyLight"
       cx="79.971413"
       cy="274.90924"
       r="1.5"
       style="fill:#ff00ff" />
    <circle
       id="f6a1e0dc-55a2-415d-ad73-4c8e85400ab4"
       data-name="Pos3##TinyLight"
       cx="118.4145"
       cy="274.90924"
       r="1.5"
       style="fill:#ff00ff" />
    <circle
       id="f6b1e6f3-0a59-4a4d-b5e3-03cff357986a"
       data-name="Pos4##TinyLight"
       cx="156.85757"
       cy="274.90924"
       r="1.5"
       style="fill:#ff00ff" />
    <circle
       id="ac60c765-8ada-4107-9edf-3027b2096412"
       data-name="Pos5#TinyLight"
       cx="195.30066"
       cy="274.90924"
       r="1.5"
       style="fill:#ff00ff" />
    <circle
       id="a987d565-f4b0-45fb-804a-f1bbd3ed4051"
       data-name="Pos6#TinyLight"
       cx="233.74374"
       cy="274.90924"
       r="1.5"
       style="fill:#ff00ff" />
    <circle
       id="aa13ae73-4b30-43a5-a946-025439c53e43"
       data-name="Pos7#TinyLight"
       cx="272.18683"
       cy="274.90924"
       r="1.5"
       style="fill:#ff00ff" />
    <circle
       id="a54ac82f-b122-43ba-96da-5bc07aec0557"
       data-name="Pos8#TinyLight"
       cx="310.62991"
       cy="274.90924"
       r="1.5"
       style="fill:#ff00ff" />
    <circle
       id="ba7aff71-b5c1-4dc4-af29-20bcb14b4635"
       data-name="RunExt#PJ301MPort"
       cx="261.09381"
       cy="51.436951"
       r="5"
       style="fill:#00ff00" />
    <circle
       id="a86ee30d-1c59-4356-b8ea-811e2c926acd"
       data-name="ClkExt#PJ301MPort"
       cx="222.65628"
       cy="51.436951"
       r="5"
       style="fill:#00ff00" />
    <circle
       id="a2b6977f-850f-4c73-a21c-1bbdce544df0"
       data-name="ResetExt#PJ301MPort"
       cx="299.53131"
       cy="51.436951"
       r="5"
       style="fill:#00ff00" />
    <circle
       id="bcd7b150-8715-4e20-9e23-529462a36247"
       data-name="StepsCv#PJ301MPort"
       cx="184.21877"
       cy="51.102188"
       r="5"
       style="fill:#00ff00" />
    <circle
       id="adf8e259-dd85-436c-ba37-8cec2ba107fb"
       data-name="Tempo#PJ301MPort"
       cx="145.78123"
       cy="51.102188"
       r="5"
       style="fill:#00ff00" />
    <circle
       id="a4c57a5e-6b5a-41d7-8c3d-4de3ce281169"
       data-name="Gate1#PJ301MPort"
       cx="30.468679"
       cy="285.99994"
       r="5"
       style="fill:#0000ff" />
    <circle
       id="b81a2428-2c9a-46ff-a1c4-ba85cf5fe164"
       data-name="Gate2#PJ301MPort"
       cx="68.906197"
       cy="285.99994"
       r="5"
       style="fill:#0000ff" />
    <circle
       id="f04883d3-8b4d-4ef8-85eb-4b5414da8abd"
       data-name="Gate3#PJ301MPort"
       cx="107.34372"
       cy="285.99994"
       r="5"
       style="fill:#0000ff" />
    <circle
       id="fd1c699b-fd32-4347-9a61-6ab0e1f0210c"
       data-name="Gate4#PJ301MPort"
       cx="145.78123"
       cy="285.99994"
       r="5"
       style="fill:#0000ff" />
    <circle
       id="b14565dc-7602-439d-89fe-37cbf345be5c"
       data-name="Gate5#PJ301MPort"
       cx="184.21877"
       cy="285.99994"
       r="5"
       style="fill:#0000ff" />
    <circle
       id="f051f5cb-0305-4844-a82f-9409e615b694"
       data-name="Gate6#PJ301MPort"
       cx="222.65628"
       cy="285.99994"
       r="5"
       style="fill:#0000ff" />
    <circle
       id="a83cd6d6-a56a-48d6-a50c-097ca95045f2"
       data-name="Gate7#PJ301MPort"
       cx="261.09381"
       cy="285.99994"
       r="5"
       style="fill:#0000ff" />
    <circle
       id="eaa530a7-9949-4910-8d0a-cf8a9cf10b0b"
       data-name="Gate8#PJ301MPort"
       cx="299.53131"
       cy="285.99994"
       r="5"
       style="fill:#0000ff" />
    <circle
       id="a4106f26-c845-479e-8079-46d0247eebc4"
       data-name="Run#LEDButton"
       cx="261.09381"
       cy="99.44455"
       r="5"
       style="fill:#ff0000" />
    <circle
       id="eb2bdda5-f0ce-4f05-849f-ef7e6c2212fd"
       data-name="Reset#LEDButton"
       cx="299.53131"
       cy="99.44455"
       r="5"
       style="fill:#ff0000" />
    <circle
       id="e9770c39-aaa0-4fc8-9f5a-bf6f8f305040"
       data-name="Gate1#LEDButton"
       cx="30.468679"
       cy="253.34979"
       r="5.2161698"
       style="fill:#ff0000" />
    <circle
       id="ec6994db-4e96-43d5-987f-7c525f01f5e4"
       data-name="Gate2#LEDButton"
       cx="68.906197"
       cy="253.34979"
       r="5.2161698"
       style="fill:#ff0000" />
    <circle
       id="b80436d6-5645-4e90-b33f-f62c40408d5e"
       data-name="Gate3#LEDButton"
       cx="107.34372"
       cy="253.34979"
       r="5.2161698"
       style="fill:#ff0000" />
    <circle
       id="b62872d5-5c99-4928-8af2-0040cdaba360"
       data-name="Gate4#LEDButton"
       cx="145.78123"
       cy="253.34979"
       r="5.2161698"
       style="fill:#ff0000" />
    <circle
       id="b1ff1470-fa75-4402-a5e0-e2246223f7bd"
       data-name="Gate5#LEDButton"
       cx="184.21877"
       cy="253.34979"
       r="5.2161698"
       style="fill:#ff0000" />
    <circle
       id="fcf65891-dace-4f70-ad15-ac873c28946b"
       data-name="Gate6#LEDButton"
       cx="222.65628"
       cy="253.34979"
       r="5.2161698"
       style="fill:#ff0000" />
    <circle
       id="ee80f0eb-9b92-4afb-b1f9-beef72ba6c8a"
       data-name="Gate7#LEDButton"
       cx="261.09381"
       cy="253.34979"
       r="5.2161698"
       style="fill:#ff0000" />
    <circle
       id="e4aca1e7-9444-4a51-a1c0-32a6fdb31e86"
       data-name="Gate8#LEDButton"
       cx="299.53131"
       cy="253.34979"
       r="5.2161698"
       style="fill:#ff0000" />
    <circle
       id="f67d4448-ba91-47aa-85c2-90abed604dbb"
       data-name="Gate#PJ301MPort"
       cx="145.78123"
       cy="334"
       r="5"
       style="fill:#0000ff" />
    <circle
       id="ef489ed7-4d78-4046-a035-3eaeacaa4f13"
       data-name="Cv3#PJ301MPort"
       cx="107.34372"
       cy="334"
       r="5"
       style="fill:#0000ff" />
    <circle
       id="e1887405-3846-4877-8a5d-02196a209bd4"
       data-name="Cv2#PJ301MPort"
       cx="68.906197"
       cy="334"
       r="5"
       style="fill:#0000ff" />
    <circle
       id="e75d567d-4a95-4128-949d-0569048d5997"
       data-name="Cv1#PJ301MPort"
       cx="30.468679"
       cy="334"
       r="5"
       style="fill:#0000ff" />
    <circle
       id="bed48f16-5e50-4328-a9b6-6db290dd1848"
       data-name="Reset#PJ301MPort"
       cx="299.53131"
       cy="334"
       r="5"
       style="fill:#0000ff" />
    <circle
       id="a726c4f2-329f-4f33-bf8d-6259cd7d9a64"
       data-name="Run#PJ301MPort"
       cx="261.09381"
       cy="334"
       r="5"
       style="fill:#0000ff" />
    <circle
       id="e9c941c7-c32e-4099-828a-94129bad7a05"
       data-name="Clk#PJ301MPort"
       cx="222.65628"
       cy="334"
       r="5"
       style="fill:#0000ff" />
    <circle
       id="bbfdf9ab-aaa1-4855-97cf-a4904146c44a"
       data-name="Steps#PJ301MPort"
       cx="184.21877"
       cy="334"
       r="5"
       style="fill:#0000ff" />
    <circle
       id="bce89f92-b3e4-4bce-8ae0-e70edb20fa9e"
       data-name="CV21#RoundBlackKnob"
       cx="30.468679"
       cy="178.95641"
       r="5"
       style="fill:#ff0000" />
    <circle
       id="e1686899-fa90-4cde-89b7-ae537ba2ef60"
       data-name="CV11#RoundBlackKnob"
       cx="30.468679"
       cy="137.48773"
       r="5"
       style="fill:#ff0000" />
    <circle
       id="b597a839-ee61-4786-a9ee-8326cd2d0da4"
       data-name="CV31#RoundBlackKnob"
       cx="30.468679"
       cy="220.28929"
       r="5"
       style="fill:#ff0000" />
    <circle
       id="ef29d43e-5227-40d0-91f2-561479956f89"
       data-name="CV22#RoundBlackKnob"
       cx="68.906197"
       cy="178.95641"
       r="5"
       style="fill:#ff0000" />
    <circle
       id="efa355b7-8962-4104-8d07-dc44123c676a"
       data-name="CV12#RoundBlackKnob"
       cx="68.906197"
       cy="137.48773"
       r="5"
       style="fill:#ff0000" />
    <circle
       id="f9bd2c6c-ca47-464b-aef0-da1697e12b2b"
       data-name="CV32#RoundBlackKnob"
       cx="68.906197"
       cy="220.28929"
       r="5"
       style="fill:#ff0000" />
    <circle
       id="bc724c3f-dfe8-44ea-b27c-0b8dde2404dd"
       data-name="CV23#RoundBlackKnob"
       cx="107.34372"
       cy="178.95641"
       r="5"
       style="fill:#ff0000" />
    <circle
       id="b8510ea3-c702-4778-9aeb-44ad7a6acf45"
       data-name="CV13#RoundBlackKnob"
       cx="107.34372"
       cy="137.48773"
       r="5"
       style="fill:#ff0000" />
    <circle
       id="ac665488-b5e9-427f-8c77-d2a3a5502b21"
       data-name="CV33#RoundBlackKnob"
       cx="107.34372"
       cy="220.28929"
       r="5"
       style="fill:#ff0000" />
    <circle
       id="e1aa665d-3b28-46dc-b6a7-16fc294b70b3"
       data-name="CV24#RoundBlackKnob"
       cx="145.78123"
       cy="178.95641"
       r="5"
       style="fill:#ff0000" />
    <circle
       id="b84c31a7-8fb1-48fd-a347-61f311a1cd0d"
       data-name="CV14#RoundBlackKnob"
       cx="145.78123"
       cy="137.48773"
       r="5"
       style="fill:#ff0000" />
    <circle
       id="fc5e6dc2-743e-4629-9573-76d5008606c9"
       data-name="CV34#RoundBlackKnob"
       cx="145.78123"
       cy="220.28929"
       r="5"
       style="fill:#ff0000" />
    <circle
       id="a15ed318-9226-4f00-bf44-5db7a787ceb9"
       data-name="CV25#RoundBlackKnob"
       cx="184.21877"
       cy="178.95641"
       r="5"
       style="fill:#ff0000" />
    <circle
       id="b4778acc-d8fe-4db9-a2a1-78d65104da64"
       data-name="CV15#RoundBlackKnob"
       cx="184.21877"
       cy="137.48773"
       r="5"
       style="fill:#ff0000" />
    <circle
       id="e15f712a-5753-4163-96b2-f65fbf5289cb"
       data-name="CV35#RoundBlackKnob"
       cx="184.21877"
       cy="220.28929"
       r="5"
       style="fill:#ff0000" />
    <circle
       id="ace43dc2-9179-4d68-8d51-a8588bd2c34d"
       data-name="CV26#RoundBlackKnob"
       cx="222.65628"
       cy="178.95641"
       r="5"
       style="fill:#ff0000" />
    <circle
       id="b2736d2d-ff46-4b43-a17d-16993ad0a77d"
       data-name="CV16#RoundBlackKnob"
       cx="222.65628"
       cy="137.48773"
       r="5"
       style="fill:#ff0000" />
    <circle
       id="a0fd0d6d-b799-4c1b-9571-439a6aee087d"
       data-name="CV36#RoundBlackKnob"
       cx="222.65628"
       cy="220.28929"
       r="5"
       style="fill:#ff0000" />
    <circle
       id="f4eb2706-d5d0-4045-811d-24ca84be91f4"
       data-name="CV27#RoundBlackKnob"
       cx="261.09381"
       cy="178.95641"
       r="5"
       style="fill:#ff0000" />
    <circle
       id="a076195e-3a07-47f8-89c3-909abb7614cf"
       data-name="CV17#RoundBlackKnob"
       cx="261.09381"
       cy="137.48773"
       r="5"
       style="fill:#ff0000" />
    <circle
       id="fc6e3178-c427-48e2-9ddd-5464ba2385a5"
       data-name="CV37#RoundBlackKnob"
       cx="261.09381"
       cy="220.28929"
       r="5"
       style="fill:#ff0000" />
    <circle
       id="fb9d8ec9-2ef9-42c1-8f16-133a2830158a"
       data-name="CV28#RoundBlackKnob"
       cx="299.53131"
       cy="178.95641"
       r="5"
       style="fill:#ff0000" />
    <circle
       id="b7da9ab6-c1fd-4009-a4ac-404520e66a3c"
       data-name="CV18#RoundBlackKnob"
       cx="299.53131"
       cy="137.48773"
       r="5"
       style="fill:#ff0000" />
    <circle
       id="e67d0377-3e57-4596-b5de-0a35d2f70781"
       data-name="CV38#RoundBlackKnob"
       cx="299.53131"
       cy="220.28929"
       r="5"
       style="fill:#ff0000" />
    <circle
       id="b9152663-14ae-43ca-b630-b265ca630865"
       data-name="Tempo#RoundLargeBlackKnob"
       cx="34.703709"
       cy="78.999893"
       r="5"
       style="fill:#ff0000" />
    <circle
       id="a141df88-c6c2-4258-b557-5340f933eea8"
       data-name="Steps#RoundLargeBlackKnob"
       cx="94.716743"
       cy="79.079979"
       r="5"
       style="fill:#ff0000" />
    <circle
       id="be646ccf-23f4-4f94-a6b5-26efa4101386"
       data-name="TempoCv#Trimpot"
       cx="145.78419"
       cy="100.58775"
       r="5"
       style="fill:#ff0000" />
    <circle
       id="edf546e8-c66d-415e-babd-dc32d8e3a409"
       data-name="StepsCv#Trimpot"
       cx="184.22173"
       cy="100.58775"
       r="5"
       style="fill:#ff0000" />
  </g>
</svg>
