<?xml version="1.0" encoding="utf-8"?>
<!-- Generator: Adobe Illustrator 27.8.1, SVG Export Plug-In . SVG Version: 6.00 Build 0)  -->
<svg version="1.0"
	 id="svg529" xmlns:svg="http://www.w3.org/2000/svg" xmlns:inkscape="http://www.inkscape.org/namespaces/inkscape" xmlns:sodipodi="http://sodipodi.sourceforge.net/DTD/sodipodi-0.dtd"
	 xmlns="http://www.w3.org/2000/svg" xmlns:xlink="http://www.w3.org/1999/xlink" x="0px" y="0px" width="330px" height="380px"
	 viewBox="0 0 330 380" enable-background="new 0 0 330 380" xml:space="preserve">
<sodipodi:namedview  bordercolor="#666666" borderopacity="1.0" id="namedview531" inkscape:current-layer="uuid-f6f88346-73b2-460d-b38e-bd003c26e72a" inkscape:cx="165.15994" inkscape:cy="190" inkscape:pagecheckerboard="0" inkscape:pageopacity="0.0" inkscape:pageshadow="2" inkscape:window-height="1009" inkscape:window-maximized="1" inkscape:window-width="1920" inkscape:window-x="-8" inkscape:window-y="-8" inkscape:zoom="1.8921053" pagecolor="#ffffff" showgrid="false">
	</sodipodi:namedview>
<g id="uuid-2bea04da-24a8-4a01-9169-bb32bf87cde9">
	
		<linearGradient id="rect9_00000031901872592001495870000009156636621385203640_" gradientUnits="userSpaceOnUse" x1="165" y1="381.27557" x2="165" y2="1.27557" gradientTransform="matrix(1 0 0 -1 0 381.27557)">
		<stop  offset="0" style="stop-color:#EBEBEB"/>
		<stop  offset="1" style="stop-color:#E1E1E1"/>
	</linearGradient>
	
		<rect id="rect9" x="-0.00001" y="0" fill="url(#rect9_00000031901872592001495870000009156636621385203640_)" width="330" height="380"/>
</g>
<g id="uuid-335a3803-a7c6-47af-8d6b-ca612d27b5a6">
	<path id="rect12" fill="#1F1F1F" d="M18.98754,309.05634h138.21083c1.56554,0,2.83466,1.26913,2.83466,2.83466v33.48761
		c0,1.56552-1.26912,2.83466-2.83466,2.83466H18.98754c-1.56553,0-2.83465-1.26913-2.83465-2.83466v-33.48761
		C16.15289,310.32547,17.422,309.05634,18.98754,309.05634z"/>
	<path id="rect14" fill="#1F1F1F" d="M172.75987,309.05634h138.29152c1.56552,0,2.83466,1.26913,2.83466,2.83466v33.48761
		c0,1.56552-1.26913,2.83466-2.83466,2.83466H172.75987c-1.56554,0-2.83466-1.26913-2.83466-2.83466v-33.48761
		C169.92522,310.32547,171.19434,309.05634,172.75987,309.05634z"/>
	<g id="g24">
		<path id="path16" fill="#1F1F1F" d="M156.85927,359.75299c-0.3455,0-0.66125-0.19519-0.8158-0.50418l-2.96428-5.92856
			c-0.22527-0.45056-0.04266-0.99844,0.40794-1.22369c0.45007-0.22534,0.99831-0.04272,1.22366,0.4079l2.14848,4.29697
			l2.14848-4.29697c0.22527-0.45056,0.77315-0.63324,1.22366-0.4079c0.45061,0.22525,0.63321,0.77313,0.40794,1.22369
			l-2.96428,5.92856c-0.15454,0.30899-0.47029,0.50418-0.8158,0.50418H156.85927z"/>
		<path id="path18" fill="#1F1F1F" d="M173.14073,359.75299c-0.3455,0-0.66125-0.19519-0.8158-0.50418l-2.96428-5.92856
			c-0.22527-0.45056-0.04266-0.99844,0.40794-1.22369c0.45016-0.22534,0.9984-0.04272,1.22366,0.4079l2.14848,4.29697
			l2.14848-4.29697c0.22527-0.45056,0.77306-0.63324,1.22366-0.4079c0.45061,0.22525,0.63321,0.77313,0.40794,1.22369
			l-2.96428,5.92856c-0.15454,0.30899-0.47029,0.50418-0.8158,0.50418H173.14073z"/>
		<path id="path20" fill="#1F1F1F" d="M165.44241,359.75299c-2.13744,0-3.87637-1.73892-3.87637-3.87637
			s1.73894-3.87637,3.87637-3.87637c0.84653,0,1.65102,0.26819,2.32652,0.77554c0.40279,0.30252,0.48401,0.87427,0.18153,1.27704
			c-0.30247,0.40274-0.87431,0.48401-1.2771,0.18149c-0.35699-0.26816-0.78267-0.40991-1.23096-0.40991
			c-1.13156,0-2.05219,0.92059-2.05219,2.05219s0.92064,2.05219,2.05219,2.05219c0.44829,0,0.87396-0.14175,1.23096-0.40991
			c0.40269-0.3027,0.97444-0.22125,1.2771,0.18149c0.30247,0.40277,0.22125,0.97452-0.18153,1.27704
			c-0.67551,0.50735-1.48,0.77554-2.32652,0.77554V359.75299z"/>
		<circle id="circle22" fill="#1F1F1F" cx="165.50165" cy="355.83102" r="1.18571"/>
	</g>
	
		<line id="line32" fill="none" stroke="#1F1F1F" stroke-width="0.8" stroke-linecap="round" stroke-linejoin="round" x1="184.21877" y1="53.2205" x2="184.21877" y2="72.80725"/>
	
		<line id="line34" fill="none" stroke="#1F1F1F" stroke-width="0.8" stroke-linecap="round" stroke-linejoin="round" x1="145.78123" y1="53.2205" x2="145.78123" y2="72.80725"/>
	
		<line id="line36" fill="none" stroke="#1F1F1F" stroke-width="0.8" stroke-linecap="round" stroke-linejoin="round" x1="30.46868" y1="120.77538" x2="30.46868" y2="137.48773"/>
	
		<line id="line38" fill="none" stroke="#1F1F1F" stroke-width="0.8" stroke-linecap="round" stroke-linejoin="round" x1="30.46868" y1="162.24405" x2="30.46868" y2="178.95641"/>
	
		<line id="line40" fill="none" stroke="#1F1F1F" stroke-width="0.8" stroke-linecap="round" stroke-linejoin="round" x1="30.46868" y1="203.71271" x2="30.46868" y2="220.42506"/>
	
		<line id="line42" fill="none" stroke="#1F1F1F" stroke-width="0.8" stroke-linecap="round" stroke-linejoin="round" x1="68.9062" y1="120.77538" x2="68.9062" y2="137.48773"/>
	
		<line id="line44" fill="none" stroke="#1F1F1F" stroke-width="0.8" stroke-linecap="round" stroke-linejoin="round" x1="68.9062" y1="162.24405" x2="68.9062" y2="178.95641"/>
	
		<line id="line46" fill="none" stroke="#1F1F1F" stroke-width="0.8" stroke-linecap="round" stroke-linejoin="round" x1="68.9062" y1="203.71271" x2="68.9062" y2="220.42506"/>
	
		<line id="line48" fill="none" stroke="#1F1F1F" stroke-width="0.8" stroke-linecap="round" stroke-linejoin="round" x1="107.34372" y1="120.77538" x2="107.34372" y2="137.48773"/>
	
		<line id="line50" fill="none" stroke="#1F1F1F" stroke-width="0.8" stroke-linecap="round" stroke-linejoin="round" x1="107.34372" y1="162.24405" x2="107.34372" y2="178.95641"/>
	
		<line id="line52" fill="none" stroke="#1F1F1F" stroke-width="0.8" stroke-linecap="round" stroke-linejoin="round" x1="107.34372" y1="203.71271" x2="107.34372" y2="220.42506"/>
	
		<line id="line54" fill="none" stroke="#1F1F1F" stroke-width="0.8" stroke-linecap="round" stroke-linejoin="round" x1="145.78123" y1="120.77538" x2="145.78123" y2="137.48773"/>
	
		<line id="line56" fill="none" stroke="#1F1F1F" stroke-width="0.8" stroke-linecap="round" stroke-linejoin="round" x1="145.78123" y1="162.24405" x2="145.78123" y2="178.95641"/>
	
		<line id="line58" fill="none" stroke="#1F1F1F" stroke-width="0.8" stroke-linecap="round" stroke-linejoin="round" x1="145.78123" y1="203.71271" x2="145.78123" y2="220.42506"/>
	
		<line id="line60" fill="none" stroke="#1F1F1F" stroke-width="0.8" stroke-linecap="round" stroke-linejoin="round" x1="184.21877" y1="120.77538" x2="184.21877" y2="137.48773"/>
	
		<line id="line62" fill="none" stroke="#1F1F1F" stroke-width="0.8" stroke-linecap="round" stroke-linejoin="round" x1="184.21877" y1="162.24405" x2="184.21877" y2="178.95641"/>
	
		<line id="line64" fill="none" stroke="#1F1F1F" stroke-width="0.8" stroke-linecap="round" stroke-linejoin="round" x1="184.21877" y1="203.71271" x2="184.21877" y2="220.42506"/>
	
		<line id="line66" fill="none" stroke="#1F1F1F" stroke-width="0.8" stroke-linecap="round" stroke-linejoin="round" x1="222.65628" y1="120.77538" x2="222.65628" y2="137.48773"/>
	
		<line id="line68" fill="none" stroke="#1F1F1F" stroke-width="0.8" stroke-linecap="round" stroke-linejoin="round" x1="222.65628" y1="162.24405" x2="222.65628" y2="178.95641"/>
	
		<line id="line70" fill="none" stroke="#1F1F1F" stroke-width="0.8" stroke-linecap="round" stroke-linejoin="round" x1="222.65628" y1="203.71271" x2="222.65628" y2="220.42506"/>
	
		<line id="line72" fill="none" stroke="#1F1F1F" stroke-width="0.8" stroke-linecap="round" stroke-linejoin="round" x1="261.09381" y1="120.77538" x2="261.09381" y2="137.48773"/>
	
		<line id="line74" fill="none" stroke="#1F1F1F" stroke-width="0.8" stroke-linecap="round" stroke-linejoin="round" x1="261.09381" y1="162.24405" x2="261.09381" y2="178.95641"/>
	
		<line id="line76" fill="none" stroke="#1F1F1F" stroke-width="0.8" stroke-linecap="round" stroke-linejoin="round" x1="261.09381" y1="203.71271" x2="261.09381" y2="220.42506"/>
	
		<line id="line78" fill="none" stroke="#1F1F1F" stroke-width="0.8" stroke-linecap="round" stroke-linejoin="round" x1="299.53131" y1="120.77538" x2="299.53131" y2="137.48773"/>
	
		<line id="line80" fill="none" stroke="#1F1F1F" stroke-width="0.8" stroke-linecap="round" stroke-linejoin="round" x1="299.53131" y1="162.24405" x2="299.53131" y2="178.95641"/>
	
		<line id="line82" fill="none" stroke="#1F1F1F" stroke-width="0.8" stroke-linecap="round" stroke-linejoin="round" x1="299.53131" y1="203.71271" x2="299.53131" y2="220.42506"/>
	<circle id="circle84" fill="none" cx="145.78123" cy="100.58629" r="13.79989"/>
	<circle id="circle86" fill="none" cx="184.21877" cy="100.58629" r="13.79989"/>
	<path id="rect88" fill="#1F1F1F" d="M18.49585,271.68344h23.94568c1.29398,0,2.34296,1.04898,2.34296,2.34296v23.94711
		c0,1.29398-1.04898,2.34296-2.34296,2.34296H18.49585c-1.29398,0-2.34296-1.04898-2.34296-2.34296V274.0264
		C16.15289,272.73242,17.20187,271.68344,18.49585,271.68344z"/>
	<path id="rect90" fill="#1F1F1F" d="M56.93893,271.68344h23.94568c1.29398,0,2.34296,1.04898,2.34296,2.34296v23.94711
		c0,1.29398-1.04897,2.34296-2.34296,2.34296H56.93893c-1.29398,0-2.34296-1.04898-2.34296-2.34296V274.0264
		C54.59597,272.73242,55.64495,271.68344,56.93893,271.68344z"/>
	<path id="rect92" fill="#1F1F1F" d="M95.382,271.68344h23.94569c1.29398,0,2.34296,1.04898,2.34296,2.34296v23.94711
		c0,1.29398-1.04897,2.34296-2.34296,2.34296H95.382c-1.29398,0-2.34296-1.04898-2.34296-2.34296V274.0264
		C93.03905,272.73242,94.08802,271.68344,95.382,271.68344z"/>
	<path id="rect94" fill="#1F1F1F" d="M133.8251,271.68344h23.94568c1.29398,0,2.34296,1.04898,2.34296,2.34296v23.94711
		c0,1.29398-1.04898,2.34296-2.34296,2.34296H133.8251c-1.29398,0-2.34296-1.04898-2.34296-2.34296V274.0264
		C131.48215,272.73242,132.53113,271.68344,133.8251,271.68344z"/>
	<path id="rect96" fill="#1F1F1F" d="M172.26817,271.68344h23.94569c1.29398,0,2.34296,1.04898,2.34296,2.34296v23.94711
		c0,1.29398-1.04898,2.34296-2.34296,2.34296h-23.94569c-1.29398,0-2.34296-1.04898-2.34296-2.34296V274.0264
		C169.92522,272.73242,170.9742,271.68344,172.26817,271.68344z"/>
	<path id="rect98" fill="#1F1F1F" d="M210.71127,271.68344h23.94568c1.29398,0,2.34296,1.04898,2.34296,2.34296v23.94711
		c0,1.29398-1.04898,2.34296-2.34296,2.34296h-23.94568c-1.29398,0-2.34296-1.04898-2.34296-2.34296V274.0264
		C208.36832,272.73242,209.4173,271.68344,210.71127,271.68344z"/>
	<path id="rect100" fill="#1F1F1F" d="M249.15434,271.68344h23.94569c1.29398,0,2.34296,1.04898,2.34296,2.34296v23.94711
		c0,1.29398-1.04898,2.34296-2.34296,2.34296h-23.94569c-1.29398,0-2.34296-1.04898-2.34296-2.34296V274.0264
		C246.81139,272.73242,247.86037,271.68344,249.15434,271.68344z"/>
	<path id="rect102" fill="#1F1F1F" d="M287.59744,271.68344h23.94568c1.29398,0,2.34296,1.04898,2.34296,2.34296v23.94711
		c0,1.29398-1.04898,2.34296-2.34296,2.34296h-23.94568c-1.29398,0-2.34296-1.04898-2.34296-2.34296V274.0264
		C285.25449,272.73242,286.30347,271.68344,287.59744,271.68344z"/>
	
		<line id="line104" fill="none" stroke="#1F1F1F" stroke-width="0.8" stroke-linecap="round" stroke-linejoin="round" x1="44.37609" y1="253.26276" x2="54.99879" y2="253.26276"/>
	
		<line id="line106" fill="none" stroke="#1F1F1F" stroke-width="0.8" stroke-linecap="round" stroke-linejoin="round" x1="82.81361" y1="253.26276" x2="93.43631" y2="253.26276"/>
	
		<line id="line108" fill="none" stroke="#1F1F1F" stroke-width="0.8" stroke-linecap="round" stroke-linejoin="round" x1="121.25113" y1="253.26276" x2="131.87383" y2="253.26276"/>
	
		<line id="line110" fill="none" stroke="#1F1F1F" stroke-width="0.8" stroke-linecap="round" stroke-linejoin="round" x1="159.68864" y1="253.26276" x2="170.31136" y2="253.26276"/>
	
		<line id="line112" fill="none" stroke="#1F1F1F" stroke-width="0.8" stroke-linecap="round" stroke-linejoin="round" x1="198.12617" y1="253.26276" x2="208.74887" y2="253.26276"/>
	
		<line id="line114" fill="none" stroke="#1F1F1F" stroke-width="0.8" stroke-linecap="round" stroke-linejoin="round" x1="236.56369" y1="253.26276" x2="247.18639" y2="253.26276"/>
	
		<line id="line116" fill="none" stroke="#1F1F1F" stroke-width="0.8" stroke-linecap="round" stroke-linejoin="round" x1="275.00122" y1="253.26276" x2="285.6239" y2="253.26276"/>
	<g id="g124">
		<circle id="circle118" fill="none" cx="34.70371" cy="78.99989" r="26.48818"/>
		<path id="path120" fill="none" stroke="#1F1F1F" stroke-width="0.8" stroke-linecap="round" stroke-miterlimit="10" d="
			M45.50193,97.10255c6.2955-3.78272,10.15833-10.61025,10.15833-17.95479c0-11.491-9.45566-20.94666-20.94666-20.94666
			s-20.94666,9.45566-20.94666,20.94666c0,7.39639,3.91756,14.2646,10.28394,18.02967"/>
		<line id="line122" fill="none" x1="45.50193" y1="97.10255" x2="34.70371" y2="78.99989"/>
	</g>
	<g id="g146">
		<circle id="circle126" fill="none" cx="94.71674" cy="79.07998" r="26.48818"/>
		<g id="g144">
			<path id="path128" fill="none" stroke="#1F1F1F" stroke-width="0.8" stroke-linecap="round" stroke-miterlimit="10" d="
				M105.51496,97.18264c6.2955-3.78272,10.15833-10.61025,10.15833-17.95479c0-11.491-9.45566-20.94666-20.94666-20.94666
				s-20.94666,9.45566-20.94666,20.94666c0,7.39639,3.91756,14.2646,10.28394,18.02967l10.65282-18.17754"/>
			<g id="g142">
				
					<line id="line130" fill="none" stroke="#1F1F1F" stroke-width="0.5" stroke-linecap="round" stroke-miterlimit="10" x1="75.01341" y1="85.53009" x2="84.27617" y2="82.73615"/>
				
					<line id="line132" fill="none" stroke="#1F1F1F" stroke-width="0.5" stroke-linecap="round" stroke-miterlimit="10" x1="76.26737" y1="70.4434" x2="84.91281" y2="74.78609"/>
				
					<line id="line134" fill="none" stroke="#1F1F1F" stroke-width="0.5" stroke-linecap="round" stroke-miterlimit="10" x1="86.91123" y1="60.02197" x2="90.64823" y2="69.42766"/>
				
					<line id="line136" fill="none" stroke="#1F1F1F" stroke-width="0.5" stroke-linecap="round" stroke-miterlimit="10" x1="102.56588" y1="59.82108" x2="98.65658" y2="69.36792"/>
				
					<line id="line138" fill="none" stroke="#1F1F1F" stroke-width="0.5" stroke-linecap="round" stroke-miterlimit="10" x1="113.1599" y1="70.39185" x2="104.4691" y2="74.64304"/>
				
					<line id="line140" fill="none" stroke="#1F1F1F" stroke-width="0.5" stroke-linecap="round" stroke-miterlimit="10" x1="114.45677" y1="85.47287" x2="105.22369" y2="82.58233"/>
			</g>
		</g>
	</g>
	<g id="g152">
		<path id="path148" fill="none" stroke="#1F1F1F" stroke-width="0.8" stroke-linecap="round" stroke-linejoin="round" d="
			M39.10432,151.79291c4.83522-2.92859,8.06662-8.2395,8.06662-14.30515c0-9.23-7.48239-16.71239-16.71239-16.71239
			s-16.71239,7.48239-16.71239,16.71239c0,6.09737,3.2653,11.4321,8.14264,14.35091"/>
		<circle id="circle150" fill="none" cx="30.46868" cy="137.48773" r="20.69419"/>
	</g>
	<g id="g158">
		<path id="path154" fill="none" stroke="#1F1F1F" stroke-width="0.8" stroke-linecap="round" stroke-linejoin="round" d="
			M39.10432,193.26157c4.83522-2.92859,8.06662-8.2395,8.06662-14.30515c0-9.23-7.48239-16.71239-16.71239-16.71239
			s-16.71239,7.48239-16.71239,16.71239c0,6.09737,3.2653,11.4321,8.14264,14.35091"/>
		<circle id="circle156" fill="none" cx="30.46868" cy="178.95641" r="20.69419"/>
	</g>
	<g id="g164">
		<path id="path160" fill="none" stroke="#1F1F1F" stroke-width="0.8" stroke-linecap="round" stroke-linejoin="round" d="
			M39.10432,234.59447c4.83522-2.92859,8.06662-8.2395,8.06662-14.30515c0-9.23-7.48239-16.71239-16.71239-16.71239
			s-16.71239,7.48239-16.71239,16.71239c0,6.09737,3.2653,11.4321,8.14264,14.35091"/>
		<circle id="circle162" fill="none" cx="30.46868" cy="220.28929" r="20.69419"/>
	</g>
	<g id="g170">
		<path id="path166" fill="none" stroke="#1F1F1F" stroke-width="0.8" stroke-linecap="round" stroke-linejoin="round" d="
			M77.54184,151.79291c4.83522-2.92859,8.06662-8.2395,8.06662-14.30515c0-9.23-7.48239-16.71239-16.71239-16.71239
			s-16.71239,7.48239-16.71239,16.71239c0,6.09737,3.2653,11.4321,8.14264,14.35091"/>
		<circle id="circle168" fill="none" cx="68.9062" cy="137.48773" r="20.69419"/>
	</g>
	<g id="g176">
		<path id="path172" fill="none" stroke="#1F1F1F" stroke-width="0.8" stroke-linecap="round" stroke-linejoin="round" d="
			M77.54184,193.26157c4.83522-2.92859,8.06662-8.2395,8.06662-14.30515c0-9.23-7.48239-16.71239-16.71239-16.71239
			s-16.71239,7.48239-16.71239,16.71239c0,6.09737,3.2653,11.4321,8.14264,14.35091"/>
		<circle id="circle174" fill="none" cx="68.9062" cy="178.95641" r="20.69419"/>
	</g>
	<g id="g182">
		<path id="path178" fill="none" stroke="#1F1F1F" stroke-width="0.8" stroke-linecap="round" stroke-linejoin="round" d="
			M77.54184,234.59447c4.83522-2.92859,8.06662-8.2395,8.06662-14.30515c0-9.23-7.48239-16.71239-16.71239-16.71239
			s-16.71239,7.48239-16.71239,16.71239c0,6.09737,3.2653,11.4321,8.14264,14.35091"/>
		<circle id="circle180" fill="none" cx="68.9062" cy="220.28929" r="20.69419"/>
	</g>
	<g id="g188">
		<path id="path184" fill="none" stroke="#1F1F1F" stroke-width="0.8" stroke-linecap="round" stroke-linejoin="round" d="
			M115.97936,151.79291c4.83522-2.92859,8.06662-8.2395,8.06662-14.30515c0-9.23-7.48239-16.71239-16.71239-16.71239
			s-16.71239,7.48239-16.71239,16.71239c0,6.09737,3.2653,11.4321,8.14264,14.35091"/>
		<circle id="circle186" fill="none" cx="107.34372" cy="137.48773" r="20.69419"/>
	</g>
	<g id="g194">
		<path id="path190" fill="none" stroke="#1F1F1F" stroke-width="0.8" stroke-linecap="round" stroke-linejoin="round" d="
			M115.97936,193.26157c4.83522-2.92859,8.06662-8.2395,8.06662-14.30515c0-9.23-7.48239-16.71239-16.71239-16.71239
			s-16.71239,7.48239-16.71239,16.71239c0,6.09737,3.2653,11.4321,8.14264,14.35091"/>
		<circle id="circle192" fill="none" cx="107.34372" cy="178.95641" r="20.69419"/>
	</g>
	<g id="g200">
		<path id="path196" fill="none" stroke="#1F1F1F" stroke-width="0.8" stroke-linecap="round" stroke-linejoin="round" d="
			M115.97936,234.59447c4.83522-2.92859,8.06662-8.2395,8.06662-14.30515c0-9.23-7.48239-16.71239-16.71239-16.71239
			s-16.71239,7.48239-16.71239,16.71239c0,6.09737,3.2653,11.4321,8.14264,14.35091"/>
		<circle id="circle198" fill="none" cx="107.34372" cy="220.28929" r="20.69419"/>
	</g>
	<g id="g206">
		<path id="path202" fill="none" stroke="#1F1F1F" stroke-width="0.8" stroke-linecap="round" stroke-linejoin="round" d="
			M154.41689,151.79291c4.83522-2.92859,8.06662-8.2395,8.06662-14.30515c0-9.23-7.48239-16.71239-16.71239-16.71239
			s-16.71239,7.48239-16.71239,16.71239c0,6.09737,3.2653,11.4321,8.14264,14.35091"/>
		<circle id="circle204" fill="none" cx="145.78123" cy="137.48773" r="20.69419"/>
	</g>
	<g id="g212">
		<path id="path208" fill="none" stroke="#1F1F1F" stroke-width="0.8" stroke-linecap="round" stroke-linejoin="round" d="
			M154.41689,193.26157c4.83522-2.92859,8.06662-8.2395,8.06662-14.30515c0-9.23-7.48239-16.71239-16.71239-16.71239
			s-16.71239,7.48239-16.71239,16.71239c0,6.09737,3.2653,11.4321,8.14264,14.35091"/>
		<circle id="circle210" fill="none" cx="145.78123" cy="178.95641" r="20.69419"/>
	</g>
	<g id="g218">
		<path id="path214" fill="none" stroke="#1F1F1F" stroke-width="0.8" stroke-linecap="round" stroke-linejoin="round" d="
			M154.41689,234.59447c4.83522-2.92859,8.06662-8.2395,8.06662-14.30515c0-9.23-7.48239-16.71239-16.71239-16.71239
			s-16.71239,7.48239-16.71239,16.71239c0,6.09737,3.2653,11.4321,8.14264,14.35091"/>
		<circle id="circle216" fill="none" cx="145.78123" cy="220.28929" r="20.69419"/>
	</g>
	<g id="g224">
		<path id="path220" fill="none" stroke="#1F1F1F" stroke-width="0.8" stroke-linecap="round" stroke-linejoin="round" d="
			M192.85439,151.79291c4.83522-2.92859,8.06662-8.2395,8.06662-14.30515c0-9.23-7.48239-16.71239-16.71239-16.71239
			s-16.71239,7.48239-16.71239,16.71239c0,6.09737,3.2653,11.4321,8.14264,14.35091"/>
		<circle id="circle222" fill="none" cx="184.21877" cy="137.48773" r="20.69419"/>
	</g>
	<g id="g230">
		<path id="path226" fill="none" stroke="#1F1F1F" stroke-width="0.8" stroke-linecap="round" stroke-linejoin="round" d="
			M192.85439,193.26157c4.83522-2.92859,8.06662-8.2395,8.06662-14.30515c0-9.23-7.48239-16.71239-16.71239-16.71239
			s-16.71239,7.48239-16.71239,16.71239c0,6.09737,3.2653,11.4321,8.14264,14.35091"/>
		<circle id="circle228" fill="none" cx="184.21877" cy="178.95641" r="20.69418"/>
	</g>
	<g id="g236">
		<path id="path232" fill="none" stroke="#1F1F1F" stroke-width="0.8" stroke-linecap="round" stroke-linejoin="round" d="
			M192.85439,234.59447c4.83522-2.92859,8.06662-8.2395,8.06662-14.30515c0-9.23-7.48239-16.71239-16.71239-16.71239
			s-16.71239,7.48239-16.71239,16.71239c0,6.09737,3.2653,11.4321,8.14264,14.35091"/>
		<circle id="circle234" fill="none" cx="184.21877" cy="220.28929" r="20.69418"/>
	</g>
	<g id="g242">
		<path id="path238" fill="none" stroke="#1F1F1F" stroke-width="0.8" stroke-linecap="round" stroke-linejoin="round" d="
			M231.29192,151.79291c4.83522-2.92859,8.06662-8.2395,8.06662-14.30515c0-9.23-7.48239-16.71239-16.71239-16.71239
			s-16.71239,7.48239-16.71239,16.71239c0,6.09737,3.2653,11.4321,8.14264,14.35091"/>
		<circle id="circle240" fill="none" cx="222.65628" cy="137.48773" r="20.69419"/>
	</g>
	<g id="g248">
		<path id="path244" fill="none" stroke="#1F1F1F" stroke-width="0.8" stroke-linecap="round" stroke-linejoin="round" d="
			M231.29192,193.26157c4.83522-2.92859,8.06662-8.2395,8.06662-14.30515c0-9.23-7.48239-16.71239-16.71239-16.71239
			s-16.71239,7.48239-16.71239,16.71239c0,6.09737,3.2653,11.4321,8.14264,14.35091"/>
		<circle id="circle246" fill="none" cx="222.65628" cy="178.95641" r="20.69418"/>
	</g>
	<g id="g254">
		<path id="path250" fill="none" stroke="#1F1F1F" stroke-width="0.8" stroke-linecap="round" stroke-linejoin="round" d="
			M231.29192,234.59447c4.83522-2.92859,8.06662-8.2395,8.06662-14.30515c0-9.23-7.48239-16.71239-16.71239-16.71239
			s-16.71239,7.48239-16.71239,16.71239c0,6.09737,3.2653,11.4321,8.14264,14.35091"/>
		<circle id="circle252" fill="none" cx="222.65628" cy="220.28929" r="20.69418"/>
	</g>
	<g id="g260">
		<path id="path256" fill="none" stroke="#1F1F1F" stroke-width="0.8" stroke-linecap="round" stroke-linejoin="round" d="
			M269.72943,151.79291c4.83521-2.92859,8.06662-8.2395,8.06662-14.30515c0-9.23-7.48239-16.71239-16.7124-16.71239
			s-16.71239,7.48239-16.71239,16.71239c0,6.09737,3.2653,11.4321,8.14264,14.35091"/>
		<circle id="circle258" fill="none" cx="261.09381" cy="137.48773" r="20.69419"/>
	</g>
	<g id="g266">
		<path id="path262" fill="none" stroke="#1F1F1F" stroke-width="0.8" stroke-linecap="round" stroke-linejoin="round" d="
			M269.72943,193.26157c4.83521-2.92859,8.06662-8.2395,8.06662-14.30515c0-9.23-7.48239-16.71239-16.7124-16.71239
			s-16.71239,7.48239-16.71239,16.71239c0,6.09737,3.2653,11.4321,8.14264,14.35091"/>
		<circle id="circle264" fill="none" cx="261.09381" cy="178.95641" r="20.69418"/>
	</g>
	<g id="g272">
		<path id="path268" fill="none" stroke="#1F1F1F" stroke-width="0.8" stroke-linecap="round" stroke-linejoin="round" d="
			M269.72943,234.59447c4.83521-2.92859,8.06662-8.2395,8.06662-14.30515c0-9.23-7.48239-16.71239-16.7124-16.71239
			s-16.71239,7.48239-16.71239,16.71239c0,6.09737,3.2653,11.4321,8.14264,14.35091"/>
		<circle id="circle270" fill="none" cx="261.09381" cy="220.28929" r="20.69418"/>
	</g>
	<g id="g278">
		<path id="path274" fill="none" stroke="#1F1F1F" stroke-width="0.8" stroke-linecap="round" stroke-linejoin="round" d="
			M308.16696,151.79291c4.83521-2.92859,8.06662-8.2395,8.06662-14.30515c0-9.23-7.48239-16.71239-16.7124-16.71239
			s-16.7124,7.48239-16.7124,16.71239c0,6.09737,3.26529,11.4321,8.14264,14.35091"/>
		<circle id="circle276" fill="none" cx="299.53131" cy="137.48773" r="20.69419"/>
	</g>
	<g id="g284">
		<path id="path280" fill="none" stroke="#1F1F1F" stroke-width="0.8" stroke-linecap="round" stroke-linejoin="round" d="
			M308.16696,193.26157c4.83521-2.92859,8.06662-8.2395,8.06662-14.30515c0-9.23-7.48239-16.71239-16.7124-16.71239
			s-16.7124,7.48239-16.7124,16.71239c0,6.09737,3.26529,11.4321,8.14264,14.35091"/>
		<circle id="circle282" fill="none" cx="299.53131" cy="178.95641" r="20.69418"/>
	</g>
	<g id="g290">
		<path id="path286" fill="none" stroke="#1F1F1F" stroke-width="0.8" stroke-linecap="round" stroke-linejoin="round" d="
			M308.16696,234.59447c4.83521-2.92859,8.06662-8.2395,8.06662-14.30515c0-9.23-7.48239-16.71239-16.7124-16.71239
			s-16.7124,7.48239-16.7124,16.71239c0,6.09737,3.26529,11.4321,8.14264,14.35091"/>
		<circle id="circle288" fill="none" cx="299.53131" cy="220.28929" r="20.69418"/>
	</g>
	<path id="path292" fill="none" stroke="#1F1F1F" stroke-linecap="round" stroke-linejoin="round" d="M137.61765,108.73669
		c-2.16161-2.1616-3.37727-5.09649-3.37727-8.15346c0-6.32558,5.20515-11.53074,11.53075-11.53074
		s11.53075,5.20516,11.53075,11.53074c0,3.05697-1.21567,5.99186-3.37727,8.15346l-8.14037-8.14894"/>
	<path id="path294" fill="none" stroke="#1F1F1F" stroke-linecap="round" stroke-linejoin="round" d="M176.06531,108.73669
		c-2.16161-2.1616-3.37727-5.09649-3.37727-8.15346c0-6.32558,5.20515-11.53074,11.53075-11.53074
		s11.53075,5.20516,11.53075,11.53074c0,3.05697-1.21567,5.99186-3.37727,8.15346l-8.1505-8.14894"/>
	
		<line id="line296" fill="none" stroke="#1F1F1F" stroke-width="0.8" stroke-linecap="round" stroke-miterlimit="10" x1="105.26434" y1="97.25309" x2="94.71674" y2="79.07998"/>
	<path id="path48" fill="#1F1F1F" d="M260.77176,69.77774l-1.65796,2.87167c-0.14313,0.24791,0.0358,0.55779,0.32205,0.55779
		h3.31592c0.28625,0,0.46518-0.30989,0.32205-0.55779l-1.65796-2.87167C261.27274,69.52983,260.91489,69.52983,260.77176,69.77774
		L260.77176,69.77774z"/>
	<path id="path48_00000052786871158496984610000001934178904818798216_" fill="#1F1F1F" d="M299.20926,69.77774l-1.65796,2.87167
		c-0.14313,0.24791,0.0358,0.55779,0.32205,0.55779h3.31592c0.28625,0,0.46518-0.30989,0.32205-0.55779l-1.65796-2.87167
		C299.71024,69.52983,299.35239,69.52983,299.20926,69.77774L299.20926,69.77774z"/>
	<path id="path48_00000037685979118359283280000003466072100383103391_" fill="#1F1F1F" d="M222.33424,69.77774l-1.65796,2.87167
		c-0.14313,0.24791,0.03578,0.55779,0.32204,0.55779h3.31592c0.28625,0,0.46516-0.30989,0.32204-0.55779l-1.65796-2.87167
		c-0.14313-0.24791-0.50096-0.24791-0.64409,0H222.33424z"/>
</g>
<g id="uuid-f977e39a-f784-4e1d-bf7d-8caa6222171e">
	<g id="g305">
		<path id="path299" fill="#F0F0F0" d="M61.06641,316.55127v-0.01367c0-1.34814,1.01758-2.45264,2.47363-2.45264
			c0.71191,0,1.19238,0.18994,1.58496,0.48145c0.10938,0.08105,0.20312,0.23047,0.20312,0.41309
			c0,0.28467-0.23047,0.50781-0.51465,0.50781c-0.1416,0-0.2373-0.05371-0.31152-0.10156
			c-0.29102-0.2168-0.5957-0.33838-0.96875-0.33838c-0.79883,0-1.375,0.66357-1.375,1.47705v0.01318
			c0,0.81299,0.5625,1.49072,1.375,1.49072c0.44043,0,0.73145-0.13574,1.0293-0.37305
			c0.08203-0.06738,0.18945-0.11475,0.3125-0.11475c0.26367,0,0.4873,0.2168,0.4873,0.48096
			c0,0.1626-0.08105,0.29102-0.17676,0.37256c-0.42578,0.37256-0.92773,0.59619-1.68555,0.59619
			c-1.39648,0-2.43359-1.07715-2.43359-2.43896H61.06641z"/>
		<path id="path301" fill="#F0F0F0" d="M67.75195,318.57031l-1.53711-3.67871c-0.03418-0.08154-0.06055-0.16309-0.06055-0.25098
			c0-0.29102,0.22949-0.51465,0.52148-0.51465c0.27051,0,0.44727,0.15576,0.52734,0.36572l1.18555,3.06885l1.19922-3.10254
			c0.06836-0.16943,0.25195-0.33203,0.50195-0.33203c0.28516,0,0.51562,0.2168,0.51562,0.50098
			c0,0.08154-0.02734,0.16992-0.05469,0.23047l-1.55176,3.71289c-0.1084,0.25732-0.30469,0.41309-0.58887,0.41309h-0.06836
			c-0.28516,0-0.48047-0.15576-0.58984-0.41309H67.75195z"/>
		<path id="path303" fill="#F0F0F0" d="M73.43555,317.89258l1.34863-1.10449c0.58887-0.48047,0.81934-0.74512,0.81934-1.1377
			c0-0.3999-0.26367-0.6167-0.63672-0.6167c-0.29785,0-0.50781,0.12842-0.77148,0.41357
			c-0.06836,0.07422-0.19043,0.14844-0.35352,0.14844c-0.26367,0-0.47363-0.20996-0.47363-0.47363
			c0-0.11523,0.04785-0.2373,0.12207-0.3252c0.37891-0.44043,0.82617-0.69824,1.54492-0.69824
			c0.98242,0,1.63281,0.57617,1.63281,1.46338v0.01367c0,0.79248-0.40625,1.18555-1.24707,1.83594l-0.77246,0.59619h1.65332
			c0.25098,0,0.4541,0.20312,0.4541,0.4541c0,0.25049-0.20312,0.44727-0.4541,0.44727h-2.5752
			c-0.32422,0-0.56152-0.18311-0.56152-0.49512C73.16504,318.21094,73.25977,318.03516,73.43555,317.89258z"/>
	</g>
	<g id="g313">
		<path id="path307" fill="#F0F0F0" d="M215.81934,316.55127v-0.01367c0-1.34814,1.0166-2.45264,2.47363-2.45264
			c0.71094,0,1.19238,0.18994,1.58496,0.48145c0.1084,0.08105,0.20312,0.23047,0.20312,0.41309
			c0,0.28467-0.23047,0.50781-0.51465,0.50781c-0.14258,0-0.2373-0.05371-0.31152-0.10156
			c-0.29199-0.2168-0.59668-0.33838-0.96875-0.33838c-0.7998,0-1.37598,0.66357-1.37598,1.47705v0.01318
			c0,0.81299,0.5625,1.49072,1.37598,1.49072c0.44043,0,0.73145-0.13574,1.0293-0.37305
			c0.08105-0.06738,0.18945-0.11475,0.31152-0.11475c0.26465,0,0.48828,0.2168,0.48828,0.48096
			c0,0.1626-0.08105,0.29102-0.17676,0.37256c-0.42676,0.37256-0.92773,0.59619-1.68652,0.59619
			C216.85645,318.99023,215.81934,317.91309,215.81934,316.55127z"/>
		<path id="path309" fill="#F0F0F0" d="M221.23828,314.64746c0-0.29102,0.22949-0.52148,0.52148-0.52148
			c0.29102,0,0.52148,0.23047,0.52148,0.52148v3.31299h1.93066c0.26465,0,0.47461,0.20996,0.47461,0.47412
			c0,0.26465-0.20996,0.47461-0.47461,0.47461h-2.45215c-0.29199,0-0.52148-0.23047-0.52148-0.52197V314.64746z"/>
		<path id="path311" fill="#F0F0F0" d="M225.58691,314.64746c0-0.29102,0.23047-0.52148,0.52148-0.52148
			c0.29199,0,0.52148,0.23047,0.52148,0.52148v1.59229l1.9248-1.91064c0.12793-0.12891,0.25684-0.20312,0.44043-0.20312
			c0.29102,0,0.48047,0.22363,0.48047,0.48096c0,0.1626-0.07422,0.28467-0.18945,0.39307l-1.33496,1.24609l1.45703,1.82959
			c0.08105,0.10156,0.1416,0.20996,0.1416,0.36572c0,0.2915-0.22266,0.5083-0.52832,0.5083
			c-0.20312,0-0.3252-0.10205-0.44043-0.25049l-1.35449-1.77539l-0.59668,0.55566v0.94824c0,0.2915-0.22949,0.52197-0.52148,0.52197
			c-0.29102,0-0.52148-0.23047-0.52148-0.52197V314.64746z"/>
	</g>
	<g id="g325">
		<path id="path315" fill="#F0F0F0" d="M173.24414,318.40771c-0.11523-0.08154-0.19629-0.23047-0.19629-0.39307
			c0-0.271,0.2168-0.48096,0.4873-0.48096c0.13574,0,0.23047,0.04736,0.29883,0.09473
			c0.35938,0.26416,0.75195,0.42676,1.21289,0.42676c0.42578,0,0.68359-0.16943,0.68359-0.44678v-0.01367
			c0-0.26465-0.16211-0.3999-0.95508-0.60303c-0.95508-0.24365-1.57227-0.5083-1.57227-1.44971v-0.01367
			c0-0.86035,0.69141-1.42969,1.66016-1.42969c0.57617,0,1.07812,0.14941,1.50391,0.41992
			c0.11523,0.06787,0.23047,0.20996,0.23047,0.41357c0,0.271-0.2168,0.48096-0.48828,0.48096
			c-0.10156,0-0.18164-0.02734-0.26367-0.07422c-0.3457-0.20361-0.66992-0.31885-0.99609-0.31885
			c-0.39941,0-0.60938,0.18311-0.60938,0.41357v0.01367c0,0.31152,0.20312,0.41309,1.02344,0.62305
			c0.96094,0.25049,1.50391,0.59619,1.50391,1.42285v0.01367c0,0.94141-0.71875,1.46973-1.74219,1.46973
			C174.40234,318.97656,173.77344,318.78711,173.24414,318.40771z"/>
		<path id="path317" fill="#F0F0F0" d="M178.95117,315.12842h-1.00293c-0.26465,0-0.48145-0.2168-0.48145-0.48096
			s0.2168-0.48096,0.48145-0.48096h3.04785c0.26562,0,0.48242,0.2168,0.48242,0.48096s-0.2168,0.48096-0.48242,0.48096h-1.00195
			v3.29932c0,0.2915-0.23047,0.52197-0.52148,0.52197s-0.52148-0.23047-0.52148-0.52197V315.12842z"/>
		<path id="path319" fill="#F0F0F0" d="M182.38672,318.38721v-3.69873c0-0.2915,0.23047-0.52197,0.52148-0.52197h2.62891
			c0.25781,0,0.4668,0.20996,0.4668,0.46729c0,0.25781-0.20898,0.46094-0.4668,0.46094h-2.11426v0.96191h1.80957
			c0.25684,0,0.4668,0.20996,0.4668,0.46777c0,0.25732-0.20996,0.46045-0.4668,0.46045h-1.80957v0.99561h2.14746
			c0.25781,0,0.46777,0.21045,0.46777,0.46777s-0.20996,0.46094-0.46777,0.46094h-2.66211
			C182.61719,318.90918,182.38672,318.67871,182.38672,318.38721z"/>
		<path id="path321" fill="#F0F0F0" d="M187.1582,314.68848c0-0.2915,0.23047-0.52197,0.52246-0.52197h1.41602
			c1.13184,0,1.81543,0.67041,1.81543,1.63965v0.01318c0,1.09766-0.85352,1.66699-1.91699,1.66699h-0.79297v0.94141
			c0,0.2915-0.22949,0.52197-0.52148,0.52197s-0.52246-0.23047-0.52246-0.52197V314.68848z M189.0293,316.55811
			c0.52148,0,0.82617-0.31201,0.82617-0.71826v-0.01367c0-0.46729-0.3252-0.71777-0.84766-0.71777h-0.80566v1.44971H189.0293z"/>
		<path id="path323" fill="#F0F0F0" d="M191.79492,318.40771c-0.11523-0.08154-0.19629-0.23047-0.19629-0.39307
			c0-0.271,0.2168-0.48096,0.4873-0.48096c0.13574,0,0.23047,0.04736,0.29883,0.09473
			c0.35938,0.26416,0.75195,0.42676,1.21289,0.42676c0.42578,0,0.68359-0.16943,0.68359-0.44678v-0.01367
			c0-0.26465-0.16211-0.3999-0.95508-0.60303c-0.95508-0.24365-1.57227-0.5083-1.57227-1.44971v-0.01367
			c0-0.86035,0.69141-1.42969,1.66016-1.42969c0.57617,0,1.07812,0.14941,1.50391,0.41992
			c0.11523,0.06787,0.23047,0.20996,0.23047,0.41357c0,0.271-0.2168,0.48096-0.48828,0.48096
			c-0.10156,0-0.18164-0.02734-0.26367-0.07422c-0.3457-0.20361-0.66992-0.31885-0.99609-0.31885
			c-0.39941,0-0.60938,0.18311-0.60938,0.41357v0.01367c0,0.31152,0.20312,0.41309,1.02344,0.62305
			c0.96094,0.25049,1.50391,0.59619,1.50391,1.42285v0.01367c0,0.94141-0.71875,1.46973-1.74219,1.46973
			C192.95312,318.97656,192.32422,318.78711,191.79492,318.40771z"/>
	</g>
	<g id="g337">
		<path id="path327" fill="#1F1F1F" d="M21.06836,46.20654h-1.41895c-0.2666,0-0.47559-0.2168-0.47559-0.47559
			s0.20898-0.47607,0.47559-0.47607h3.88184c0.25879,0,0.4668,0.21729,0.4668,0.47607s-0.20801,0.47559-0.4668,0.47559h-1.42773
			v4.42383c0,0.28369-0.2334,0.50879-0.51758,0.50879c-0.2832,0-0.51758-0.2251-0.51758-0.50879
			C21.06836,50.63037,21.06836,46.20654,21.06836,46.20654z"/>
		<path id="path329" fill="#1F1F1F" d="M25.16113,50.58008v-4.80762c0-0.29199,0.22559-0.51758,0.51758-0.51758h3.39746
			c0.25,0,0.45898,0.20898,0.45898,0.45947c0,0.2583-0.20898,0.45898-0.45898,0.45898H26.1875v1.51904h2.5127
			c0.25,0,0.45898,0.2085,0.45898,0.46729c0,0.25049-0.20898,0.45068-0.45898,0.45068h-2.5127v1.56934h2.92969
			c0.25098,0,0.45996,0.2085,0.45996,0.45898c0,0.25879-0.20898,0.45898-0.45996,0.45898h-3.43848
			c-0.29199,0-0.51758-0.22559-0.51758-0.51758L25.16113,50.58008z"/>
		<path id="path331" fill="#1F1F1F" d="M30.91309,45.73926c0-0.28369,0.22559-0.51758,0.51758-0.51758h0.1084
			c0.22559,0,0.37598,0.1167,0.47559,0.27539l1.76953,2.771l1.77832-2.7793c0.1084-0.17529,0.25879-0.26709,0.4668-0.26709h0.10938
			c0.29199,0,0.5166,0.23389,0.5166,0.51758v4.89111c0,0.28369-0.22461,0.50879-0.5166,0.50879
			c-0.27539,0-0.50977-0.2334-0.50977-0.50879v-3.50586l-1.42676,2.14502c-0.1084,0.16699-0.24219,0.26709-0.43457,0.26709
			c-0.18359,0-0.31738-0.1001-0.42578-0.26709l-1.41895-2.12793v3.49707c0,0.28369-0.22461,0.50049-0.50879,0.50049
			s-0.50098-0.2168-0.50098-0.50049V45.73926z"/>
		<path id="path333" fill="#1F1F1F" d="M38.39453,45.77246c0-0.29199,0.22559-0.51758,0.51758-0.51758h1.78613
			c1.36914,0,2.2207,0.77637,2.2207,1.95312v0.0166c0,1.31055-1.05176,1.99512-2.33789,1.99512h-1.16016v1.41064
			c0,0.28369-0.22461,0.50879-0.50879,0.50879c-0.29199,0-0.51758-0.2251-0.51758-0.50879v-4.85791L38.39453,45.77246z
			 M40.61523,48.29297c0.77637,0,1.25977-0.43359,1.25977-1.04297v-0.0166c0-0.68457-0.49219-1.04346-1.25977-1.04346h-1.19434
			v2.10303H40.61523z"/>
		<path id="path335" fill="#1F1F1F" d="M43.9209,48.19287v-0.0166c0-1.64404,1.26855-3.02148,3.06348-3.02148
			s3.04688,1.36084,3.04688,3.00488v0.0166c0,1.64453-1.26953,3.02148-3.06348,3.02148
			C45.17286,51.19775,43.9209,49.8374,43.9209,48.19287z M48.9541,48.19287v-0.0166c0-1.13525-0.82617-2.07812-1.98633-2.07812
			s-1.96973,0.92627-1.96973,2.06152v0.0166c0,1.13525,0.82617,2.06982,1.98633,2.06982S48.9541,49.32812,48.9541,48.19287z"/>
	</g>
	<g id="g349">
		<path id="path339" fill="#1F1F1F" d="M81.38379,50.44678c-0.11621-0.0835-0.2002-0.22559-0.2002-0.39258
			c0-0.26709,0.2168-0.47559,0.48438-0.47559c0.1416,0,0.2334,0.0415,0.30078,0.0918
			c0.4834,0.38379,1.00098,0.60107,1.63574,0.60107c0.63379,0,1.03516-0.30078,1.03516-0.73486v-0.0166
			c0-0.41699-0.23438-0.64258-1.31934-0.89307c-1.24316-0.30029-1.94434-0.66748-1.94434-1.74414v-0.01709
			c0-1.00146,0.83496-1.69434,1.99512-1.69434c0.73438,0,1.32617,0.19238,1.85254,0.54297
			c0.11719,0.06641,0.22559,0.2085,0.22559,0.40869c0,0.26709-0.21777,0.47559-0.48438,0.47559
			c-0.10059,0-0.18359-0.0249-0.26758-0.07471c-0.4502-0.29248-0.88379-0.44238-1.34375-0.44238
			c-0.60059,0-0.95117,0.30859-0.95117,0.69238v0.01709c0,0.45068,0.26758,0.65088,1.39355,0.91797
			c1.23535,0.30029,1.87012,0.74268,1.87012,1.71094v0.0166c0,1.09375-0.85938,1.74463-2.08691,1.74463
			c-0.79297,0-1.54395-0.25049-2.19531-0.73438L81.38379,50.44678z"/>
		<path id="path341" fill="#1F1F1F" d="M88.44922,46.20654h-1.41895c-0.2666,0-0.47559-0.2168-0.47559-0.47559
			s0.20898-0.47607,0.47559-0.47607h3.88184c0.25879,0,0.4668,0.21729,0.4668,0.47607s-0.20801,0.47559-0.4668,0.47559h-1.42773
			v4.42383c0,0.28369-0.2334,0.50879-0.51758,0.50879c-0.2832,0-0.51758-0.2251-0.51758-0.50879
			C88.44923,50.63037,88.44923,46.20654,88.44922,46.20654z"/>
		<path id="path343" fill="#1F1F1F" d="M92.54199,50.58008v-4.80762c0-0.29199,0.22559-0.51758,0.51758-0.51758h3.39746
			c0.25,0,0.45898,0.20898,0.45898,0.45947c0,0.2583-0.20898,0.45898-0.45898,0.45898h-2.88867v1.51904h2.5127
			c0.25,0,0.45898,0.2085,0.45898,0.46729c0,0.25049-0.20898,0.45068-0.45898,0.45068h-2.5127v1.56934h2.92969
			c0.25098,0,0.45996,0.2085,0.45996,0.45898c0,0.25879-0.20898,0.45898-0.45996,0.45898h-3.43848
			c-0.29199,0-0.51758-0.22559-0.51758-0.51758V50.58008z"/>
		<path id="path345" fill="#1F1F1F" d="M98.29492,45.77246c0-0.29199,0.22559-0.51758,0.51758-0.51758h1.78613
			c1.36914,0,2.2207,0.77637,2.2207,1.95312v0.0166c0,1.31055-1.05176,1.99512-2.33789,1.99512h-1.16016v1.41064
			c0,0.28369-0.22461,0.50879-0.50879,0.50879c-0.29199,0-0.51758-0.2251-0.51758-0.50879
			C98.29492,50.63037,98.29492,45.77246,98.29492,45.77246z M100.51562,48.29297c0.77637,0,1.25977-0.43359,1.25977-1.04297v-0.0166
			c0-0.68457-0.49219-1.04346-1.25977-1.04346h-1.19434v2.10303H100.51562z"/>
		<path id="path347" fill="#1F1F1F" d="M103.90918,50.44678c-0.11621-0.0835-0.2002-0.22559-0.2002-0.39258
			c0-0.26709,0.2168-0.47559,0.48438-0.47559c0.1416,0,0.2334,0.0415,0.30078,0.0918
			c0.4834,0.38379,1.00098,0.60107,1.63574,0.60107c0.63379,0,1.03516-0.30078,1.03516-0.73486v-0.0166
			c0-0.41699-0.23438-0.64258-1.31934-0.89307c-1.24316-0.30029-1.94434-0.66748-1.94434-1.74414v-0.01709
			c0-1.00146,0.83496-1.69434,1.99512-1.69434c0.73438,0,1.32617,0.19238,1.85254,0.54297
			c0.11719,0.06641,0.22559,0.2085,0.22559,0.40869c0,0.26709-0.21777,0.47559-0.48438,0.47559
			c-0.10059,0-0.18359-0.0249-0.26758-0.07471c-0.4502-0.29248-0.88379-0.44238-1.34375-0.44238
			c-0.60059,0-0.95117,0.30859-0.95117,0.69238v0.01709c0,0.45068,0.26758,0.65088,1.39355,0.91797
			c1.23535,0.30029,1.87012,0.74268,1.87012,1.71094v0.0166c0,1.09375-0.85938,1.74463-2.08691,1.74463
			c-0.79297,0-1.54395-0.25049-2.19531-0.73438L103.90918,50.44678z"/>
	</g>
	<g id="g357">
		<path id="path351" fill="#1F1F1F" d="M253.77344,80.20312c0-0.2373,0.18359-0.41992,0.41992-0.41992h1.69336
			c0.59668,0,1.06445,0.17627,1.36914,0.47412c0.25098,0.25732,0.39258,0.60986,0.39258,1.02295v0.01367
			c0,0.75879-0.43945,1.21973-1.07715,1.41602l0.9082,1.14502c0.08105,0.10156,0.13574,0.18994,0.13574,0.31836
			c0,0.23047-0.19727,0.38623-0.40039,0.38623c-0.18945,0-0.31152-0.08789-0.40625-0.2168l-1.15137-1.47021h-1.0498v1.27393
			c0,0.22998-0.18359,0.41309-0.41406,0.41309c-0.23633,0-0.41992-0.18311-0.41992-0.41309v-3.94336V80.20312z M255.82617,82.13377
			c0.59668,0,0.97559-0.31152,0.97559-0.79248v-0.01318c0-0.5083-0.36621-0.78613-0.98242-0.78613h-1.21191v1.5918H255.82617z"/>
		<path id="path353" fill="#1F1F1F" d="M258.81641,82.51367v-2.35107c0-0.23047,0.18262-0.41357,0.41992-0.41357
			c0.23047,0,0.41309,0.18311,0.41309,0.41357v2.31689c0,0.88086,0.4541,1.34863,1.19922,1.34863
			c0.73828,0,1.19238-0.44043,1.19238-1.31445v-2.35107c0-0.23047,0.18262-0.41357,0.41992-0.41357
			c0.23047,0,0.41309,0.18311,0.41309,0.41357v2.31006c0,1.41602-0.7998,2.12744-2.03906,2.12744
			C259.60156,84.60011,258.81641,83.88867,258.81641,82.51367z"/>
		<path id="path355" fill="#1F1F1F" d="M264.27734,80.17627c0-0.23047,0.18359-0.42041,0.41992-0.42041h0.08887
			c0.20312,0,0.31836,0.10156,0.43359,0.24414l2.37109,3.06934v-2.91357c0-0.22363,0.18262-0.40674,0.40625-0.40674
			c0.23047,0,0.41309,0.18311,0.41309,0.40674v3.98389c0,0.23047-0.17578,0.41309-0.40625,0.41309h-0.03418
			c-0.19629,0-0.31836-0.10156-0.43359-0.25098l-2.43848-3.15674v3.0083c0,0.22314-0.18359,0.40625-0.40625,0.40625
			c-0.23047,0-0.41406-0.18311-0.41406-0.40625v-3.97705V80.17627z"/>
	</g>
	<g id="g365">
		<path id="path359" fill="#1F1F1F" d="M215.85938,82.16797V82.1543c0-1.34863,1.00879-2.45264,2.44531-2.45264
			c0.73145,0,1.21289,0.2168,1.62598,0.53516c0.08789,0.06787,0.16309,0.18311,0.16309,0.33203
			c0,0.23047-0.18359,0.40674-0.41406,0.40674c-0.11523,0-0.19629-0.04102-0.25-0.08154
			c-0.32617-0.26416-0.67773-0.42676-1.13184-0.42676c-0.90137,0-1.56543,0.74512-1.56543,1.67334v0.01367
			c0,0.92773,0.6582,1.68018,1.56543,1.68018c0.50098,0,0.83984-0.1626,1.18555-0.4541
			c0.06152-0.0542,0.14941-0.09473,0.25098-0.09473c0.20996,0,0.39258,0.17627,0.39258,0.38623
			c0,0.12891-0.06055,0.23047-0.13477,0.29785c-0.44727,0.39307-0.95605,0.63672-1.72168,0.63672
			C216.88867,84.60645,215.85938,83.5293,215.85938,82.16797z"/>
		<path id="path361" fill="#1F1F1F" d="M221.27539,80.16211c0-0.22998,0.18359-0.41309,0.4209-0.41309
			c0.22949,0,0.41309,0.18311,0.41309,0.41309v3.60449h2.14746c0.20996,0,0.37988,0.16943,0.37988,0.37939
			s-0.16992,0.37939-0.37988,0.37939h-2.56055c-0.2373,0-0.4209-0.18262-0.4209-0.41992v-3.94336V80.16211z"/>
		<path id="path363" fill="#1F1F1F" d="M225.62891,80.16211c0-0.22998,0.18359-0.41309,0.41992-0.41309
			c0.23047,0,0.41406,0.18311,0.41406,0.41309v2.00586l2.24902-2.26318c0.09473-0.10156,0.19629-0.15576,0.3457-0.15576
			c0.22949,0,0.38574,0.18311,0.38574,0.38623c0,0.12842-0.05371,0.22363-0.14844,0.31152l-1.47754,1.42285l1.59863,1.98486
			c0.06836,0.08838,0.11523,0.16943,0.11523,0.29834c0,0.22998-0.18262,0.40674-0.41992,0.40674
			c-0.16211,0-0.26367-0.08154-0.35156-0.19678l-1.52539-1.94434l-0.77148,0.74512v0.98242
			c0,0.23047-0.18359,0.41357-0.41406,0.41357c-0.23633,0-0.41992-0.18311-0.41992-0.41357
			C225.62891,84.14599,225.62891,80.1621,225.62891,80.16211z"/>
	</g>
	<g id="g377">
		<path id="path367" fill="#1F1F1F" d="M288.3291,80.20312c0-0.2373,0.18262-0.41992,0.41992-0.41992h1.69434
			c0.5957,0,1.0625,0.17627,1.36816,0.47412c0.25098,0.25732,0.39258,0.60986,0.39258,1.02295v0.01367
			c0,0.75879-0.44043,1.21973-1.07715,1.41602l0.9082,1.14502c0.08105,0.10156,0.13477,0.18994,0.13477,0.31836
			c0,0.23047-0.19629,0.38623-0.39941,0.38623c-0.18945,0-0.31152-0.08789-0.40625-0.2168l-1.15137-1.47021h-1.05078v1.27393
			c0,0.22998-0.18262,0.41309-0.41309,0.41309c-0.2373,0-0.41992-0.18311-0.41992-0.41309v-3.94336V80.20312z M290.38184,82.13377
			c0.59668,0,0.97559-0.31152,0.97559-0.79248v-0.01318c0-0.5083-0.36621-0.78613-0.98242-0.78613h-1.21289v1.5918H290.38184z"/>
		<path id="path369" fill="#1F1F1F" d="M293.46094,84.10547v-3.90234c0-0.2373,0.18359-0.41992,0.4209-0.41992h2.75684
			c0.20312,0,0.37305,0.16943,0.37305,0.37256c0,0.20996-0.16992,0.37256-0.37305,0.37256h-2.34375v1.2334h2.03906
			c0.20312,0,0.37305,0.16895,0.37305,0.37891c0,0.20361-0.16992,0.36621-0.37305,0.36621h-2.03906v1.27344h2.37793
			c0.20312,0,0.37207,0.16943,0.37207,0.37305c0,0.20996-0.16895,0.37207-0.37207,0.37207h-2.79102
			C293.64453,84.52539,293.46094,84.34277,293.46094,84.10547z"/>
		<path id="path371" fill="#1F1F1F" d="M298.07617,83.99707c-0.0957-0.06738-0.16309-0.18262-0.16309-0.31836
			c0-0.2168,0.17676-0.38623,0.39355-0.38623c0.11523,0,0.18945,0.03369,0.24414,0.07471
			c0.39258,0.31152,0.8125,0.48779,1.32715,0.48779s0.84082-0.24365,0.84082-0.59619v-0.01367
			c0-0.33887-0.19043-0.52148-1.07129-0.72461c-1.00879-0.24414-1.57812-0.54199-1.57812-1.41602v-0.01367
			c0-0.81299,0.67676-1.37549,1.61914-1.37549c0.59668,0,1.07715,0.15576,1.50391,0.44043
			c0.09473,0.0542,0.18262,0.16943,0.18262,0.33203c0,0.2168-0.17578,0.38623-0.39258,0.38623
			c-0.08105,0-0.14941-0.02051-0.2168-0.06104c-0.36621-0.23682-0.71875-0.35889-1.09082-0.35889
			c-0.4873,0-0.77246,0.25049-0.77246,0.56201v0.01367c0,0.36572,0.2168,0.52832,1.13184,0.74512
			c1.00293,0.24414,1.51758,0.60303,1.51758,1.38916v0.01367c0,0.88721-0.69824,1.41553-1.69434,1.41553
			c-0.64355,0-1.25293-0.20312-1.78125-0.59619V83.99707z"/>
		<path id="path373" fill="#1F1F1F" d="M302.76172,84.10547v-3.90234c0-0.2373,0.18359-0.41992,0.4209-0.41992h2.75684
			c0.20312,0,0.37305,0.16943,0.37305,0.37256c0,0.20996-0.16992,0.37256-0.37305,0.37256h-2.34375v1.2334h2.03906
			c0.20312,0,0.37305,0.16895,0.37305,0.37891c0,0.20361-0.16992,0.36621-0.37305,0.36621h-2.03906v1.27344h2.37793
			c0.20312,0,0.37207,0.16943,0.37207,0.37305c0,0.20996-0.16895,0.37207-0.37207,0.37207h-2.79102
			C302.94531,84.52539,302.76172,84.34277,302.76172,84.10547z"/>
		<path id="path375" fill="#1F1F1F" d="M308.72559,80.55566h-1.15137c-0.2168,0-0.38672-0.17627-0.38672-0.38623
			s0.16992-0.38623,0.38672-0.38623h3.15039c0.20996,0,0.37891,0.17627,0.37891,0.38623s-0.16895,0.38623-0.37891,0.38623h-1.1582
			v3.59082c0,0.22998-0.19043,0.41309-0.4209,0.41309c-0.22949,0-0.41992-0.18311-0.41992-0.41309V80.55566z"/>
	</g>
	<g id="g389">
		<path id="path379" fill="#1F1F1F" d="M134.60156,80.55518h-1.15234c-0.2168,0-0.38574-0.17627-0.38574-0.38623
			s0.16895-0.38574,0.38574-0.38574h3.15039c0.20996,0,0.37988,0.17578,0.37988,0.38574s-0.16992,0.38623-0.37988,0.38623h-1.1582
			V84.146c0,0.23047-0.18945,0.41357-0.41992,0.41357s-0.41992-0.18311-0.41992-0.41357V80.55518z"/>
		<path id="path381" fill="#1F1F1F" d="M137.98047,84.10547v-3.90234c0-0.2373,0.18262-0.41992,0.41992-0.41992h2.75684
			c0.20312,0,0.37207,0.16895,0.37207,0.37207c0,0.21045-0.16895,0.37305-0.37207,0.37305h-2.34375v1.23291h2.03906
			c0.20312,0,0.37207,0.16943,0.37207,0.37939c0,0.20312-0.16895,0.36572-0.37207,0.36572h-2.03906v1.27393h2.37793
			c0.20312,0,0.37207,0.16895,0.37207,0.37256c0,0.20996-0.16895,0.37256-0.37207,0.37256h-2.79102
			C138.16309,84.52539,137.98047,84.34277,137.98047,84.10547z"/>
		<path id="path383" fill="#1F1F1F" d="M142.70508,80.17578c0-0.23047,0.18359-0.41992,0.41992-0.41992h0.08887
			c0.18262,0,0.30469,0.09473,0.38574,0.22363l1.43652,2.24902l1.44238-2.25586c0.08887-0.14258,0.21094-0.2168,0.37988-0.2168
			h0.08789c0.2373,0,0.4209,0.18945,0.4209,0.41992v3.97021c0,0.23047-0.18359,0.41357-0.4209,0.41357
			c-0.22363,0-0.41309-0.18994-0.41309-0.41357v-2.84521l-1.1582,1.74121c-0.08789,0.13525-0.19727,0.2168-0.35254,0.2168
			c-0.14941,0-0.25684-0.08154-0.3457-0.2168l-1.15137-1.72803v2.83887c0,0.22998-0.18359,0.40674-0.41406,0.40674
			c-0.22949,0-0.40625-0.17676-0.40625-0.40674V80.17578z"/>
		<path id="path385" fill="#1F1F1F" d="M148.83398,80.20312c0-0.2373,0.18262-0.41992,0.41992-0.41992h1.44922
			c1.11133,0,1.80273,0.62988,1.80273,1.58496v0.01367c0,1.06348-0.85352,1.61914-1.89746,1.61914h-0.94141v1.14502
			c0,0.23047-0.18262,0.41357-0.41309,0.41357c-0.2373,0-0.41992-0.18311-0.41992-0.41357V80.20312z M150.63574,82.24902
			c0.62988,0,1.02246-0.35254,1.02246-0.84668v-0.01367c0-0.55566-0.39941-0.84668-1.02246-0.84668h-0.96875v1.70703H150.63574z"/>
		<path id="path387" fill="#1F1F1F" d="M153.37402,82.16797V82.1543c0-1.33496,1.03027-2.45264,2.4873-2.45264
			c1.45605,0,2.47266,1.104,2.47266,2.43896v0.01367c0,1.33447-1.03027,2.45215-2.48633,2.45215
			C154.39062,84.60644,153.37402,83.50244,153.37402,82.16797z M157.45898,82.16797V82.1543
			c0-0.92139-0.66992-1.68701-1.61133-1.68701c-0.94238,0-1.59961,0.75195-1.59961,1.67334v0.01367
			c0,0.92139,0.6709,1.68018,1.61328,1.68018c0.94141,0,1.59766-0.74561,1.59766-1.6665V82.16797z"/>
	</g>
	<g id="g401">
		<path id="path391" fill="#1F1F1F" d="M173.28125,83.99707c-0.09473-0.06787-0.16211-0.18311-0.16211-0.31836
			c0-0.2168,0.17578-0.38623,0.39258-0.38623c0.11523,0,0.18945,0.03369,0.24414,0.07471
			c0.39258,0.31152,0.8125,0.4873,1.32812,0.4873c0.51465,0,0.83984-0.24365,0.83984-0.5957v-0.01367
			c0-0.33887-0.18945-0.52197-1.07031-0.7251c-1.00977-0.24365-1.5791-0.54199-1.5791-1.41602v-0.01318
			c0-0.81348,0.67773-1.37549,1.62012-1.37549c0.5957,0,1.07617,0.15576,1.50391,0.43994
			c0.09375,0.05469,0.18262,0.16992,0.18262,0.33203c0,0.2168-0.17676,0.38672-0.39355,0.38672
			c-0.08105,0-0.14844-0.02051-0.2168-0.06152c-0.36523-0.23682-0.71777-0.35889-1.08984-0.35889
			c-0.48828,0-0.77344,0.25049-0.77344,0.5625v0.01318c0,0.36621,0.2168,0.52881,1.13184,0.74561
			c1.00293,0.24365,1.51758,0.60303,1.51758,1.38867v0.01367c0,0.88721-0.69824,1.41602-1.69336,1.41602
			C174.41992,84.59326,173.81055,84.38965,173.28125,83.99707z"/>
		<path id="path393" fill="#1F1F1F" d="M179.07422,80.55518h-1.15234c-0.2168,0-0.38574-0.17627-0.38574-0.38623
			s0.16895-0.38574,0.38574-0.38574h3.15039c0.21094,0,0.37988,0.17578,0.37988,0.38574s-0.16895,0.38623-0.37988,0.38623h-1.1582
			V84.146c0,0.23047-0.18945,0.41357-0.41992,0.41357s-0.41992-0.18311-0.41992-0.41357V80.55518z"/>
		<path id="path395" fill="#1F1F1F" d="M182.45312,84.10547v-3.90234c0-0.2373,0.18262-0.41992,0.41992-0.41992h2.75684
			c0.2041,0,0.37305,0.16895,0.37305,0.37207c0,0.21045-0.16895,0.37305-0.37305,0.37305h-2.34375v1.23291h2.03906
			c0.20312,0,0.37305,0.16943,0.37305,0.37939c0,0.20312-0.16992,0.36572-0.37305,0.36572h-2.03906v1.27393h2.37793
			c0.20312,0,0.37305,0.16895,0.37305,0.37256c0,0.20996-0.16992,0.37256-0.37305,0.37256h-2.79102
			C182.63574,84.52539,182.45312,84.34277,182.45312,84.10547z"/>
		<path id="path397" fill="#1F1F1F" d="M187.17773,80.20312c0-0.2373,0.18359-0.41992,0.4209-0.41992h1.4502
			c1.11035,0,1.80176,0.62988,1.80176,1.58496v0.01367c0,1.06348-0.85449,1.61914-1.89746,1.61914h-0.94141v1.14502
			c0,0.23047-0.18359,0.41357-0.41309,0.41357c-0.2373,0-0.4209-0.18311-0.4209-0.41357V80.20312z M188.98047,82.24902
			c0.62988,0,1.02344-0.35254,1.02344-0.84668v-0.01367c0-0.55566-0.40039-0.84668-1.02344-0.84668h-0.96875v1.70703H188.98047z"/>
		<path id="path399" fill="#1F1F1F" d="M191.79102,83.99707c-0.09375-0.06787-0.16211-0.18311-0.16211-0.31836
			c0-0.2168,0.17578-0.38623,0.39258-0.38623c0.11523,0,0.18945,0.03369,0.24414,0.07471
			c0.39258,0.31152,0.8125,0.4873,1.32812,0.4873c0.51465,0,0.83984-0.24365,0.83984-0.5957v-0.01367
			c0-0.33887-0.18945-0.52197-1.07031-0.7251c-1.00977-0.24365-1.57812-0.54199-1.57812-1.41602v-0.01318
			c0-0.81348,0.67676-1.37549,1.61914-1.37549c0.5957,0,1.07715,0.15576,1.50391,0.43994
			c0.09473,0.05469,0.18262,0.16992,0.18262,0.33203c0,0.2168-0.17578,0.38672-0.39258,0.38672
			c-0.08105,0-0.14941-0.02051-0.2168-0.06152c-0.36621-0.23682-0.71875-0.35889-1.09082-0.35889
			c-0.48828,0-0.77246,0.25049-0.77246,0.5625v0.01318c0,0.36621,0.2168,0.52881,1.13184,0.74561
			c1.00195,0.24365,1.51758,0.60303,1.51758,1.38867v0.01367c0,0.88721-0.69824,1.41602-1.69434,1.41602
			C192.92969,84.59326,192.32031,84.38965,191.79102,83.99707z"/>
	</g>
	<g id="g411">
		<path id="path403" fill="#1F1F1F" d="M146.57227,27.36084c-0.21289-0.15039-0.3623-0.42529-0.3623-0.72607
			c0-0.5,0.40039-0.88818,0.90137-0.88818c0.25,0,0.4248,0.0874,0.5498,0.17529c0.66309,0.48779,1.38867,0.78809,2.23926,0.78809
			c0.78906,0,1.26367-0.3125,1.26367-0.82568v-0.0249c0-0.48828-0.2998-0.73828-1.76367-1.11377
			c-1.76367-0.45068-2.90234-0.93848-2.90234-2.67725v-0.02539c0-1.58887,1.27539-2.64014,3.06445-2.64014
			c1.06445,0,1.99023,0.27539,2.77832,0.77588c0.21289,0.125,0.4248,0.3877,0.4248,0.76318
			c0,0.50049-0.40039,0.88818-0.90039,0.88818c-0.1875,0-0.33789-0.0498-0.48828-0.1377
			c-0.6377-0.375-1.23828-0.58789-1.83887-0.58789c-0.73828,0-1.12598,0.33789-1.12598,0.76367v0.02441
			c0,0.57617,0.375,0.76367,1.88867,1.15137c1.77734,0.46289,2.77832,1.10107,2.77832,2.62793v0.02441
			c0,1.73926-1.32617,2.71533-3.21582,2.71533c-1.15039,0-2.31445-0.3501-3.29102-1.05078V27.36084z"/>
		<path id="path405" fill="#1F1F1F" d="M154.8877,27.32324v-6.83203c0-0.5376,0.4248-0.96289,0.96387-0.96289h4.85352
			c0.47656,0,0.86328,0.3877,0.86328,0.86328s-0.38672,0.85059-0.86328,0.85059h-3.90332v1.77686h3.34082
			c0.47559,0,0.86328,0.3877,0.86328,0.86328s-0.3877,0.85107-0.86328,0.85107h-3.34082v1.83887h3.96582
			c0.47656,0,0.86328,0.38818,0.86328,0.86328c0,0.47559-0.38672,0.85107-0.86328,0.85107h-4.91602
			C155.3125,28.28662,154.8877,27.86133,154.8877,27.32324z"/>
		<path id="path407" fill="#1F1F1F" d="M162.7959,23.93262v-0.02539c0-2.48975,1.96387-4.5293,4.66699-4.5293
			s4.64258,2.01465,4.64258,4.50439v0.0249c0,0.92578-0.28809,1.78906-0.77637,2.51514l0.37598,0.31299
			c0.19922,0.1748,0.34961,0.4126,0.34961,0.72559c0,0.50049-0.40039,0.91309-0.90039,0.91309
			c-0.2627,0-0.48828-0.1123-0.63867-0.2627l-0.47461-0.42529c-0.73828,0.47559-1.62695,0.75049-2.60352,0.75049
			C164.73535,28.43653,162.7959,26.42237,162.7959,23.93262z M167.35059,24.9209c0-0.50049,0.40039-0.91357,0.90137-0.91357
			c0.26172,0,0.4375,0.0874,0.6377,0.26318l0.96387,0.86328c0.14941-0.35059,0.2373-0.76367,0.2373-1.20117v-0.02539
			c0-1.50146-1.10156-2.75244-2.65332-2.75244c-1.55078,0-2.62695,1.22607-2.62695,2.72754v0.0249
			c0,1.50146,1.10156,2.75293,2.65234,2.75293c0.42578,0,0.81348-0.0752,1.15137-0.23779l-0.91309-0.77588
			C167.5,25.47169,167.35059,25.2334,167.35059,24.9209z"/>
		<path id="path409" fill="#1F1F1F" d="M177.51758,27.43555c-0.17578-0.1499-0.32617-0.4126-0.32617-0.68799
			c0-0.50049,0.42578-0.92578,0.92578-0.92578c0.27539,0,0.46387,0.11279,0.61328,0.23779
			c0.50098,0.42529,1.02637,0.65039,1.71484,0.65039c0.72559,0,1.23828-0.41309,1.23828-1.06348v-0.0249
			c0-0.71338-0.6377-1.11377-1.71387-1.11377h-0.2998c-0.45117,0-0.82617-0.375-0.82617-0.82568
			c0-0.2627,0.1123-0.48779,0.41211-0.78857l1.70215-1.71387h-2.69043c-0.4502,0-0.8252-0.37549-0.8252-0.82568
			c0-0.45068,0.375-0.82568,0.8252-0.82568h4.26758c0.5625,0,0.97559,0.3252,0.97559,0.85059
			c0,0.47559-0.22559,0.73828-0.5752,1.07617l-1.71484,1.63867c1.18945,0.2002,2.35254,0.82617,2.35254,2.45264v0.0249
			c0,1.65186-1.20117,2.86523-3.15332,2.86523C179.16895,28.43653,178.23047,28.04883,177.51758,27.43555z"/>
	</g>
	<g id="g421">
		<path id="path413" fill="#F0F0F0" d="M138.72852,315.12842h-1.00293c-0.26465,0-0.48145-0.2168-0.48145-0.48096
			s0.2168-0.48096,0.48145-0.48096h3.04785c0.26562,0,0.48242,0.2168,0.48242,0.48096s-0.2168,0.48096-0.48242,0.48096h-1.00195
			v3.29932c0,0.2915-0.23047,0.52197-0.52148,0.52197s-0.52148-0.23047-0.52148-0.52197V315.12842z"/>
		<path id="path415" fill="#F0F0F0" d="M142.16406,314.68848c0-0.2915,0.23047-0.52197,0.52148-0.52197h1.64648
			c0.60254,0,1.07031,0.16943,1.38184,0.48096c0.26465,0.26416,0.40723,0.63672,0.40723,1.08398v0.01367
			c0,0.74512-0.37305,1.20605-0.94922,1.44287l0.72461,0.88086c0.10156,0.12842,0.16992,0.23682,0.16992,0.3999
			c0,0.29102-0.24414,0.48096-0.49414,0.48096c-0.23828,0-0.39355-0.11523-0.51562-0.271l-1.01562-1.28711h-0.83398v1.03613
			c0,0.2915-0.23047,0.52197-0.52148,0.52197s-0.52148-0.23047-0.52148-0.52197V314.68848z M144.26367,316.46973
			c0.50781,0,0.7998-0.27051,0.7998-0.67041v-0.01367c0-0.44678-0.31152-0.67725-0.81934-0.67725h-1.03711v1.36133H144.26367z"/>
		<path id="path417" fill="#F0F0F0" d="M147.34375,314.64746c0-0.29102,0.22949-0.52148,0.52148-0.52148
			c0.29102,0,0.52148,0.23047,0.52148,0.52148v3.78027c0,0.2915-0.23047,0.52197-0.52148,0.52197
			c-0.29199,0-0.52148-0.23047-0.52148-0.52197V314.64746z"/>
		<path id="path419" fill="#F0F0F0" d="M149.54297,316.55127v-0.01367c0-1.34814,1.05078-2.45264,2.48633-2.45264
			c0.71875,0,1.19336,0.16309,1.62012,0.46094c0.10156,0.07422,0.2168,0.2168,0.2168,0.41992
			c0,0.28467-0.23047,0.51514-0.51465,0.51514c-0.14941,0-0.24414-0.0542-0.31836-0.1084
			c-0.28516-0.20361-0.58984-0.3252-1.03711-0.3252c-0.75879,0-1.36133,0.67041-1.36133,1.47705v0.01318
			c0,0.86719,0.5957,1.50439,1.43555,1.50439c0.37988,0,0.71875-0.09521,0.98242-0.28467v-0.67773h-0.7041
			c-0.25098,0-0.4541-0.19629-0.4541-0.44678c0-0.25098,0.20312-0.4541,0.4541-0.4541h1.19238
			c0.29102,0,0.52148,0.23047,0.52148,0.52148v1.15186c0,0.30518-0.11523,0.51514-0.36523,0.66406
			c-0.38672,0.23682-0.94922,0.47412-1.66016,0.47412C150.56055,318.99023,149.54297,317.95361,149.54297,316.55127z"/>
	</g>
	<g id="g429">
		<path id="path423" fill="#F0F0F0" d="M99.51074,316.55127v-0.01367c0-1.34814,1.0166-2.45264,2.47363-2.45264
			c0.71094,0,1.19238,0.18994,1.58496,0.48145c0.1084,0.08105,0.20312,0.23047,0.20312,0.41309
			c0,0.28467-0.23047,0.50781-0.51465,0.50781c-0.14258,0-0.2373-0.05371-0.31152-0.10156
			c-0.29199-0.2168-0.59668-0.33838-0.96875-0.33838c-0.7998,0-1.37598,0.66357-1.37598,1.47705v0.01318
			c0,0.81299,0.5625,1.49072,1.37598,1.49072c0.44043,0,0.73145-0.13574,1.0293-0.37305
			c0.08105-0.06738,0.18945-0.11475,0.31152-0.11475c0.26465,0,0.48828,0.2168,0.48828,0.48096
			c0,0.1626-0.08105,0.29102-0.17676,0.37256c-0.42676,0.37256-0.92773,0.59619-1.68652,0.59619
			C100.54784,318.99023,99.51073,317.91309,99.51074,316.55127z"/>
		<path id="path425" fill="#F0F0F0" d="M106.19629,318.57031l-1.53711-3.67871c-0.03418-0.08154-0.06152-0.16309-0.06152-0.25098
			c0-0.29102,0.23047-0.51465,0.52148-0.51465c0.27148,0,0.44727,0.15576,0.52832,0.36572l1.18555,3.06885l1.19922-3.10254
			c0.06836-0.16943,0.25098-0.33203,0.50195-0.33203c0.28418,0,0.51465,0.2168,0.51465,0.50098
			c0,0.08154-0.02734,0.16992-0.05371,0.23047l-1.55176,3.71289c-0.1084,0.25732-0.30469,0.41309-0.58984,0.41309h-0.06738
			C106.50195,318.9834,106.30467,318.82764,106.19629,318.57031z"/>
		<path id="path427" fill="#F0F0F0" d="M111.85254,318.44824c-0.09473-0.08105-0.17578-0.22363-0.17578-0.37256
			c0-0.271,0.23047-0.50146,0.50098-0.50146c0.14941,0,0.25098,0.06104,0.33203,0.12891
			c0.27148,0.23047,0.55566,0.35205,0.92871,0.35205c0.39258,0,0.6709-0.22314,0.6709-0.57568v-0.01367
			c0-0.38623-0.3457-0.60303-0.92871-0.60303h-0.16211c-0.24414,0-0.44727-0.20312-0.44727-0.44678
			c0-0.14258,0.06055-0.26465,0.22363-0.42676l0.9209-0.92871h-1.45605c-0.24414,0-0.44727-0.20312-0.44727-0.44678
			c0-0.24414,0.20312-0.44727,0.44727-0.44727h2.30957c0.30469,0,0.52832,0.17627,0.52832,0.46045
			c0,0.25781-0.12109,0.3999-0.31152,0.58301l-0.92773,0.8877c0.64355,0.1084,1.27344,0.44678,1.27344,1.32764v0.01318
			c0,0.89453-0.65039,1.55176-1.70703,1.55176C112.74709,318.99023,112.23927,318.78027,111.85254,318.44824z"/>
	</g>
	<g id="g437">
		<path id="path431" fill="#F0F0F0" d="M23.31055,316.55127v-0.01367c0-1.34814,1.0166-2.45264,2.47363-2.45264
			c0.71094,0,1.19238,0.18994,1.58496,0.48145c0.1084,0.08105,0.20312,0.23047,0.20312,0.41309
			c0,0.28467-0.23047,0.50781-0.51465,0.50781c-0.14258,0-0.2373-0.05371-0.31152-0.10156
			c-0.29199-0.2168-0.59668-0.33838-0.96875-0.33838c-0.7998,0-1.37598,0.66357-1.37598,1.47705v0.01318
			c0,0.81299,0.5625,1.49072,1.37598,1.49072c0.44043,0,0.73145-0.13574,1.0293-0.37305
			c0.08105-0.06738,0.18945-0.11475,0.31152-0.11475c0.26465,0,0.48828,0.2168,0.48828,0.48096
			c0,0.1626-0.08105,0.29102-0.17676,0.37256c-0.42676,0.37256-0.92773,0.59619-1.68652,0.59619
			c-1.39551,0-2.43262-1.07715-2.43262-2.43896H23.31055z"/>
		<path id="path433" fill="#F0F0F0" d="M29.99609,318.57031l-1.53711-3.67871c-0.03418-0.08154-0.06152-0.16309-0.06152-0.25098
			c0-0.29102,0.23047-0.51465,0.52148-0.51465c0.27148,0,0.44727,0.15576,0.52832,0.36572l1.18555,3.06885l1.19922-3.10254
			c0.06836-0.16943,0.25098-0.33203,0.50195-0.33203c0.28418,0,0.51465,0.2168,0.51465,0.50098
			c0,0.08154-0.02734,0.16992-0.05371,0.23047l-1.55176,3.71289c-0.1084,0.25732-0.30469,0.41309-0.58984,0.41309h-0.06738
			c-0.28418,0-0.48145-0.15576-0.58984-0.41309H29.99609z"/>
		<path id="path435" fill="#F0F0F0" d="M36.32324,315.15576l-0.36523,0.09473c-0.05469,0.01367-0.12891,0.02686-0.18359,0.02686
			c-0.24414,0-0.4541-0.20312-0.4541-0.44678c0-0.21045,0.13574-0.38623,0.3457-0.44727l0.6709-0.19678
			c0.19629-0.05371,0.3457-0.08789,0.48828-0.08789h0.0127c0.28516,0,0.51562,0.23047,0.51562,0.51514v3.8208
			c0,0.28467-0.23047,0.51514-0.51562,0.51514c-0.28418,0-0.51465-0.23047-0.51465-0.51514
			C36.32325,318.43457,36.32325,315.15576,36.32324,315.15576z"/>
	</g>
	<g id="g449">
		<path id="path439" fill="#F0F0F0" d="M288.27246,314.68848c0-0.2915,0.22949-0.52197,0.52148-0.52197h1.64648
			c0.60254,0,1.07031,0.16943,1.38184,0.48096c0.26367,0.26416,0.40625,0.63672,0.40625,1.08398v0.01367
			c0,0.74512-0.37305,1.20605-0.94824,1.44287l0.72461,0.88086c0.10156,0.12842,0.16992,0.23682,0.16992,0.3999
			c0,0.29102-0.24414,0.48096-0.49512,0.48096c-0.2373,0-0.39258-0.11523-0.51465-0.271l-1.0166-1.28711h-0.83301v1.03613
			c0,0.2915-0.23047,0.52197-0.52148,0.52197c-0.29199,0-0.52148-0.23047-0.52148-0.52197V314.68848z M290.37207,316.46973
			c0.50781,0,0.7998-0.27051,0.7998-0.67041v-0.01367c0-0.44678-0.31152-0.67725-0.82031-0.67725h-1.03613v1.36133H290.37207z"/>
		<path id="path441" fill="#F0F0F0" d="M293.42578,318.38721v-3.69873c0-0.2915,0.23047-0.52197,0.52148-0.52197h2.62891
			c0.25781,0,0.46777,0.20996,0.46777,0.46729c0,0.25781-0.20996,0.46094-0.46777,0.46094h-2.11426v0.96191h1.80957
			c0.25684,0,0.4668,0.20996,0.4668,0.46777c0,0.25732-0.20996,0.46045-0.4668,0.46045h-1.80957v0.99561h2.14844
			c0.25684,0,0.4668,0.21045,0.4668,0.46777s-0.20996,0.46094-0.4668,0.46094h-2.66309
			C293.65625,318.90918,293.42578,318.67871,293.42578,318.38721z"/>
		<path id="path443" fill="#F0F0F0" d="M298.0752,318.40771c-0.11523-0.08154-0.19629-0.23047-0.19629-0.39307
			c0-0.271,0.2168-0.48096,0.4873-0.48096c0.13574,0,0.23047,0.04736,0.29785,0.09473
			c0.35938,0.26416,0.75293,0.42676,1.21289,0.42676c0.42676,0,0.68457-0.16943,0.68457-0.44678v-0.01367
			c0-0.26465-0.16309-0.3999-0.95508-0.60303c-0.95508-0.24365-1.57227-0.5083-1.57227-1.44971v-0.01367
			c0-0.86035,0.69141-1.42969,1.66016-1.42969c0.57617,0,1.07715,0.14941,1.50391,0.41992
			c0.11523,0.06787,0.23047,0.20996,0.23047,0.41357c0,0.271-0.2168,0.48096-0.48828,0.48096
			c-0.10156,0-0.18262-0.02734-0.26367-0.07422c-0.3457-0.20361-0.6709-0.31885-0.99609-0.31885
			c-0.39941,0-0.60938,0.18311-0.60938,0.41357v0.01367c0,0.31152,0.20312,0.41309,1.02246,0.62305
			c0.96191,0.25049,1.50391,0.59619,1.50391,1.42285v0.01367c0,0.94141-0.71777,1.46973-1.74121,1.46973
			C299.2334,318.97656,298.60352,318.78711,298.0752,318.40771z"/>
		<path id="path445" fill="#F0F0F0" d="M302.74219,318.38721v-3.69873c0-0.2915,0.22949-0.52197,0.52148-0.52197h2.62793
			c0.25781,0,0.46777,0.20996,0.46777,0.46729c0,0.25781-0.20996,0.46094-0.46777,0.46094h-2.11328v0.96191h1.80859
			c0.25781,0,0.46777,0.20996,0.46777,0.46777c0,0.25732-0.20996,0.46045-0.46777,0.46045h-1.80859v0.99561h2.14746
			c0.25781,0,0.46777,0.21045,0.46777,0.46777s-0.20996,0.46094-0.46777,0.46094h-2.66211
			C302.97168,318.90918,302.74219,318.67871,302.74219,318.38721z"/>
		<path id="path447" fill="#F0F0F0" d="M308.63379,315.12842h-1.00293c-0.26367,0-0.48047-0.2168-0.48047-0.48096
			s0.2168-0.48096,0.48047-0.48096h3.04883c0.26465,0,0.48145,0.2168,0.48145,0.48096s-0.2168,0.48096-0.48145,0.48096h-1.00293
			v3.29932c0,0.2915-0.23047,0.52197-0.52148,0.52197s-0.52148-0.23047-0.52148-0.52197V315.12842z"/>
	</g>
	<g id="g457">
		<path id="path451" fill="#F0F0F0" d="M253.71777,314.68848c0-0.2915,0.22949-0.52197,0.52148-0.52197h1.64648
			c0.60254,0,1.07031,0.16943,1.38184,0.48096c0.26367,0.26416,0.40625,0.63672,0.40625,1.08398v0.01367
			c0,0.74512-0.37305,1.20605-0.94824,1.44287l0.72461,0.88086c0.10156,0.12842,0.16992,0.23682,0.16992,0.3999
			c0,0.29102-0.24414,0.48096-0.49512,0.48096c-0.2373,0-0.39258-0.11523-0.51465-0.271l-1.0166-1.28711h-0.83301v1.03613
			c0,0.2915-0.23047,0.52197-0.52148,0.52197c-0.29199,0-0.52148-0.23047-0.52148-0.52197V314.68848z M255.81738,316.46973
			c0.50781,0,0.7998-0.27051,0.7998-0.67041v-0.01367c0-0.44678-0.31152-0.67725-0.82031-0.67725h-1.03613v1.36133H255.81738z"/>
		<path id="path453" fill="#F0F0F0" d="M258.78418,316.87646v-2.229c0-0.29102,0.23047-0.52148,0.52148-0.52148
			c0.29199,0,0.52246,0.23047,0.52246,0.52148v2.20215c0,0.77197,0.38574,1.17188,1.02246,1.17188s1.02344-0.38623,1.02344-1.13818
			v-2.23584c0-0.29102,0.23047-0.52148,0.52148-0.52148s0.52148,0.23047,0.52148,0.52148v2.19531
			c0,1.43604-0.80566,2.14062-2.08008,2.14062C259.56348,318.9834,258.78418,318.27197,258.78418,316.87646z"/>
		<path id="path455" fill="#F0F0F0" d="M264.24512,314.66113c0-0.2915,0.23047-0.52148,0.52148-0.52148h0.1084
			c0.25098,0,0.40039,0.12158,0.54199,0.30469l2.0127,2.64209v-2.4458c0-0.28418,0.23047-0.51465,0.51465-0.51465
			s0.51465,0.23047,0.51465,0.51465v3.77344c0,0.2915-0.23047,0.52197-0.52148,0.52197h-0.03418
			c-0.25,0-0.39941-0.12207-0.54199-0.30518l-2.08594-2.73682v2.54053c0,0.28467-0.23047,0.51514-0.51562,0.51514
			c-0.28418,0-0.51465-0.23047-0.51465-0.51514V314.66113z"/>
	</g>
</g>
<g id="uuid-f6f88346-73b2-460d-b38e-bd003c26e72a" inkscape:groupmode="layer" display="none">
	<circle id="uuid-41ee6727-85f0-4b8a-a485-f337ca47ed34" display="inline" fill="#FF00FF" cx="222.65628" cy="98.90877" r="3"/>
	<circle id="uuid-557b13f0-4a5d-463b-b878-2a8d14f0aaac" display="inline" fill="#FF00FF" cx="41.52833" cy="274.90924" r="1.5"/>
	<circle id="uuid-1136e986-df54-4257-a9ae-d670d8f1bb9c" display="inline" fill="#FF00FF" cx="79.97141" cy="274.90924" r="1.5"/>
	<circle id="uuid-1b3af51b-17fe-4931-a1c6-8cad85fa2b82" display="inline" fill="#FF00FF" cx="118.4145" cy="274.90924" r="1.5"/>
	<circle id="uuid-bddd7588-1ce5-4027-b184-1d73028f54ed" display="inline" fill="#FF00FF" cx="156.85757" cy="274.90924" r="1.5"/>
	<circle id="uuid-129002ef-6a32-47bc-b497-b285eb38812a" display="inline" fill="#FF00FF" cx="195.30066" cy="274.90924" r="1.5"/>
	<circle id="uuid-2b61815e-7401-4e28-a01f-e8b5a6b9d256" display="inline" fill="#FF00FF" cx="233.74374" cy="274.90924" r="1.5"/>
	<circle id="uuid-04baaac0-8b85-4c40-a5c6-a159ed3459e9" display="inline" fill="#FF00FF" cx="272.18683" cy="274.90924" r="1.5"/>
	<circle id="uuid-eba8bd27-9adb-4527-aebe-e540cfe236c6" display="inline" fill="#FF00FF" cx="310.62991" cy="274.90924" r="1.5"/>
	<circle id="uuid-6550a826-69b2-4338-85df-b579a5f08bfb" display="inline" fill="#00FF00" cx="261.09381" cy="51.43695" r="5"/>
	<circle id="uuid-9654ba8a-d406-4bcb-baed-51a7fa5d608c" display="inline" fill="#00FF00" cx="222.65628" cy="51.43695" r="5"/>
	<circle id="uuid-d35406ca-ff6e-4e88-8ae0-95164c30eace" display="inline" fill="#00FF00" cx="299.53131" cy="51.43695" r="5"/>
	<circle id="uuid-8344beac-f177-463d-b370-c048b2b566f8" display="inline" fill="#00FF00" cx="184.21877" cy="51.10219" r="5"/>
	<circle id="uuid-9486dbcc-1358-4ee7-b524-635b10a18c5a" display="inline" fill="#00FF00" cx="145.78123" cy="51.10219" r="5"/>
	<circle id="uuid-ca6f7f46-b105-463f-9c08-c64f3cf99c5b" display="inline" fill="#0000FF" cx="30.46868" cy="285.99994" r="5"/>
	<circle id="uuid-733807d0-1108-430c-80d9-4bb0804e25bd" display="inline" fill="#0000FF" cx="68.9062" cy="285.99994" r="5"/>
	<circle id="uuid-04f9f39e-2e05-4329-8902-a93e7a2df287" display="inline" fill="#0000FF" cx="107.34372" cy="285.99994" r="5"/>
	<circle id="uuid-2694d0b8-d2fd-4d1a-b9f3-1a05633f2ada" display="inline" fill="#0000FF" cx="145.78123" cy="285.99994" r="5"/>
	<circle id="uuid-8c83fbfd-083f-47a5-aaab-aef793de5019" display="inline" fill="#0000FF" cx="184.21877" cy="285.99994" r="5"/>
	<circle id="uuid-a4e67068-f222-44dc-b0ac-f3be7f880b71" display="inline" fill="#0000FF" cx="222.65628" cy="285.99994" r="5"/>
	<circle id="uuid-42d39b45-fee8-4c96-bcc2-9b0cab95be83" display="inline" fill="#0000FF" cx="261.09381" cy="285.99994" r="5"/>
	<circle id="uuid-3c654457-e4c8-4b6a-8abb-43532e0d2b76" display="inline" fill="#0000FF" cx="299.53131" cy="285.99994" r="5"/>
	<circle id="uuid-17d3ffb7-d9fe-4310-8306-cb149b4e175a" display="inline" fill="#FF0000" cx="261.09381" cy="99.44455" r="5"/>
	<circle id="uuid-8d923c43-16d7-44c0-bbd8-006bf1b3455c" display="inline" fill="#FF0000" cx="299.53131" cy="99.44455" r="5"/>
	
		<circle id="uuid-558f2f27-5735-4633-9bae-86e50078eb73" display="inline" fill="#FF0000" cx="30.46868" cy="253.34979" r="5.21616"/>
	
		<circle id="uuid-53ab746a-aede-4d14-b23b-604235646c19" display="inline" fill="#FF0000" cx="68.9062" cy="253.34979" r="5.21617"/>
	
		<circle id="uuid-7d2bf2a2-1089-45c9-a5ab-7b076575cb8a" display="inline" fill="#FF0000" cx="107.34372" cy="253.34979" r="5.21617"/>
	
		<circle id="uuid-161c57e0-94da-483e-8195-981a937bfb0c" display="inline" fill="#FF0000" cx="145.78123" cy="253.34979" r="5.21617"/>
	
		<circle id="uuid-1f07043e-51ab-4f26-bc86-86b83a381fb9" display="inline" fill="#FF0000" cx="184.21877" cy="253.34979" r="5.21617"/>
	
		<circle id="uuid-8c667612-2410-46ce-b7a9-f145943034f9" display="inline" fill="#FF0000" cx="222.65628" cy="253.34979" r="5.21617"/>
	
		<circle id="uuid-0daa6a2b-3e52-4fe5-ad18-19f66db1af27" display="inline" fill="#FF0000" cx="261.09381" cy="253.34979" r="5.21616"/>
	
		<circle id="uuid-ec8fbc89-10d1-4475-a49c-004ff5e5d476" display="inline" fill="#FF0000" cx="299.53131" cy="253.34979" r="5.21616"/>
	<circle id="uuid-7ac1f591-c2cd-42fc-b935-6ba814f2a4a4" display="inline" fill="#0000FF" cx="145.78123" cy="334" r="5"/>
	<circle id="uuid-2895fba8-2ba2-43f2-a5dc-4b6ae9df7749" display="inline" fill="#0000FF" cx="107.34372" cy="334" r="5"/>
	<circle id="uuid-68e15b0f-50fa-474c-8900-b8cb400ff0a2" display="inline" fill="#0000FF" cx="68.9062" cy="334" r="5"/>
	<circle id="uuid-03d3fbad-cc6e-48d0-8623-a47cc4f34ea6" display="inline" fill="#0000FF" cx="30.46868" cy="334" r="5"/>
	<circle id="uuid-ebfcf1d3-c9bb-45c8-a90e-a76f86e48142" display="inline" fill="#0000FF" cx="299.53131" cy="334" r="5"/>
	<circle id="uuid-a372c347-48ad-432c-b5c9-95031d6e9b5f" display="inline" fill="#0000FF" cx="261.09381" cy="334" r="5"/>
	<circle id="uuid-2a8d91fa-b268-40d6-9046-842a9d0183f6" display="inline" fill="#0000FF" cx="222.65628" cy="334" r="5"/>
	<circle id="uuid-b73f8616-9746-482b-b318-016fe122c768" display="inline" fill="#0000FF" cx="184.21877" cy="334" r="5"/>
	<circle id="uuid-15b277e3-4c88-44f9-9d90-b353176b17e2" display="inline" fill="#FF0000" cx="30.46868" cy="178.95641" r="5"/>
	<circle id="uuid-273f9faf-fd53-409f-8ec1-0ed84e581a75" display="inline" fill="#FF0000" cx="30.46868" cy="137.48773" r="5"/>
	<circle id="uuid-dc64903b-cf30-4ebb-9bfb-427d518dbdf5" display="inline" fill="#FF0000" cx="30.46868" cy="220.28929" r="5"/>
	<circle id="uuid-af377857-e633-441c-949c-c807adfaee38" display="inline" fill="#FF0000" cx="68.9062" cy="178.95641" r="5"/>
	<circle id="uuid-9b12405b-f600-4bec-9b08-eccf35dd27da" display="inline" fill="#FF0000" cx="68.9062" cy="137.48773" r="5"/>
	<circle id="uuid-500cde9a-c2c3-439d-ac54-004b3c5479f2" display="inline" fill="#FF0000" cx="68.9062" cy="220.28929" r="5"/>
	<circle id="uuid-fa506fe9-099f-45f4-b887-0aa8da241a9d" display="inline" fill="#FF0000" cx="107.34372" cy="178.95641" r="5"/>
	<circle id="uuid-8599beda-5b44-48dc-af36-56a39389702a" display="inline" fill="#FF0000" cx="107.34372" cy="137.48773" r="5"/>
	<circle id="uuid-11bd9d8d-205e-46fb-8f91-750c3fe9bf9a" display="inline" fill="#FF0000" cx="107.34372" cy="220.28929" r="5"/>
	<circle id="uuid-0814963c-8715-42c1-964b-d0b127e2318c" display="inline" fill="#FF0000" cx="145.78123" cy="178.95641" r="5"/>
	<circle id="uuid-e7c2481f-0a7e-4349-92ac-d29b76dbcbfe" display="inline" fill="#FF0000" cx="145.78123" cy="137.48773" r="5"/>
	<circle id="uuid-6a403bb5-0fa7-4730-9d21-81a91424c7de" display="inline" fill="#FF0000" cx="145.78123" cy="220.28929" r="5"/>
	<circle id="uuid-9f435131-0e86-4cb5-af77-e8015643f13c" display="inline" fill="#FF0000" cx="184.21877" cy="178.95641" r="5"/>
	<circle id="uuid-e75e311a-6705-4fe8-b98e-515b9931a666" display="inline" fill="#FF0000" cx="184.21877" cy="137.48773" r="5"/>
	<circle id="uuid-9dc4da00-a21a-41a3-b1c7-ec7a4954e2ac" display="inline" fill="#FF0000" cx="184.21877" cy="220.28929" r="5"/>
	<circle id="uuid-41b2eb1b-3430-4f2b-af5c-526ecd3225ed" display="inline" fill="#FF0000" cx="222.65628" cy="178.95641" r="5"/>
	<circle id="uuid-7c1848e7-c987-4644-98aa-669ea8afcba7" display="inline" fill="#FF0000" cx="222.65628" cy="137.48773" r="5"/>
	<circle id="uuid-013e0ca1-565b-4e30-bd85-20b8eb3f02ce" display="inline" fill="#FF0000" cx="222.65628" cy="220.28929" r="5"/>
	<circle id="uuid-04b72aa8-1b5a-4026-a3ae-9880e53a7e95" display="inline" fill="#FF0000" cx="261.09381" cy="178.95641" r="5"/>
	<circle id="uuid-34c02921-0c86-4086-be51-73be2d14b349" display="inline" fill="#FF0000" cx="261.09381" cy="137.48773" r="5"/>
	<circle id="uuid-b11928db-8d5a-457f-8596-1b478659a63d" display="inline" fill="#FF0000" cx="261.09381" cy="220.28929" r="5"/>
	<circle id="uuid-5bd10f34-5d39-4ef1-a679-c13cfaeec292" display="inline" fill="#FF0000" cx="299.53131" cy="178.95641" r="5"/>
	<circle id="uuid-020347fc-add7-4f41-903c-75c948bc6397" display="inline" fill="#FF0000" cx="299.53131" cy="137.48773" r="5"/>
	<circle id="uuid-a0cce35e-e536-40bb-8a38-6f71086a6c32" display="inline" fill="#FF0000" cx="299.53131" cy="220.28929" r="5"/>
	<circle id="uuid-bbaa9b8f-3382-46a2-a338-8ecea8205692" display="inline" fill="#FF0000" cx="34.70371" cy="78.99989" r="5"/>
	<circle id="uuid-526d5944-96b3-44f6-8427-cab1be38e4b1" display="inline" fill="#FF0000" cx="94.71674" cy="79.07998" r="5"/>
	<circle id="uuid-1528d15a-c20d-47fa-890c-83c7cd345f5a" display="inline" fill="#FF0000" cx="145.78419" cy="100.58775" r="5"/>
	<circle id="uuid-abf7f1c6-d52c-4789-b0bb-7a99bab00c11" display="inline" fill="#FF0000" cx="184.22173" cy="100.58775" r="5"/>
</g>
</svg>
