<?xml version="1.0" encoding="UTF-8" standalone="no"?>
<svg
   width="330"
   height="380"
   viewBox="0 0 330 380"
   version="1.1"
   id="svg529"
   sodipodi:docname="SEQ3.svg"
   inkscape:version="1.1.1 (3bf5ae0d25, 2021-09-20)"
   xmlns:inkscape="http://www.inkscape.org/namespaces/inkscape"
   xmlns:sodipodi="http://sodipodi.sourceforge.net/DTD/sodipodi-0.dtd"
   xmlns="http://www.w3.org/2000/svg"
   xmlns:svg="http://www.w3.org/2000/svg">
  <sodipodi:namedview
     id="namedview531"
     pagecolor="#ffffff"
     bordercolor="#666666"
     borderopacity="1.0"
     inkscape:pageshadow="2"
     inkscape:pageopacity="0.0"
     inkscape:pagecheckerboard="0"
     showgrid="false"
     inkscape:zoom="1.8921053"
     inkscape:cx="165.15994"
     inkscape:cy="190"
     inkscape:window-width="1920"
     inkscape:window-height="1009"
     inkscape:window-x="-8"
     inkscape:window-y="-8"
     inkscape:window-maximized="1"
     inkscape:current-layer="uuid-f6f88346-73b2-460d-b38e-bd003c26e72a" />
  <defs
     id="defs7">
    <linearGradient
       id="uuid-f431b19f-fdc0-4c12-9e94-0ba0583b084d"
       x1="164.99999"
       y1="0"
       x2="164.99999"
       y2="380"
       gradientUnits="userSpaceOnUse">
      <stop
         offset="0"
         stop-color="#ebebeb"
         id="stop2" />
      <stop
         offset="1"
         stop-color="#e1e1e1"
         id="stop4" />
    </linearGradient>
  </defs>
  <g
     id="uuid-2bea04da-24a8-4a01-9169-bb32bf87cde9"
     data-name="FND BG">
    <rect
       x="-.00001"
       width="330.00001"
       height="380"
       fill="url(#uuid-f431b19f-fdc0-4c12-9e94-0ba0583b084d)"
       id="rect9" />
  </g>
  <g
     id="uuid-335a3803-a7c6-47af-8d6b-ca612d27b5a6"
     data-name="FND GRAPH">
    <rect
       x="16.15289"
       y="309.05634"
       width="143.88012"
       height="39.15691"
       rx="2.83465"
       ry="2.83465"
       fill="#1f1f1f"
       id="rect12" />
    <rect
       x="169.92522"
       y="309.05634"
       width="143.96085"
       height="39.15691"
       rx="2.83465"
       ry="2.83465"
       fill="#1f1f1f"
       id="rect14" />
    <g
       id="g24">
      <path
         d="m156.85927,359.75298c-.34551,0-.66126-.1952-.8158-.50419l-2.96428-5.92856c-.22526-.45057-.04266-.99844.40794-1.2237.45008-.22535.99831-.04271,1.22366.4079l2.14848,4.29696,2.14848-4.29696c.22526-.45057.77314-.63325,1.22366-.4079.45061.22526.63321.77314.40794,1.2237l-2.96428,5.92856c-.15454.30899-.47029.50419-.8158.50419Z"
         fill="#1f1f1f"
         id="path16" />
      <path
         d="m173.14073,359.75298c-.34551,0-.66126-.1952-.8158-.50419l-2.96428-5.92856c-.22526-.45057-.04266-.99844.40794-1.2237.45016-.22535.9984-.04271,1.22366.4079l2.14848,4.29696,2.14848-4.29696c.22526-.45057.77305-.63325,1.22366-.4079.45061.22526.63321.77314.40794,1.2237l-2.96428,5.92856c-.15454.30899-.47029.50419-.8158.50419Z"
         fill="#1f1f1f"
         id="path18" />
      <path
         d="m165.44242,359.75298c-2.13744,0-3.87637-1.73893-3.87637-3.87637s1.73893-3.87637,3.87637-3.87637c.84653,0,1.65102.26819,2.32653.77554.40278.30253.48401.87428.18153,1.27705-.30248.40273-.87432.48401-1.2771.18148-.357-.26815-.78267-.4099-1.23096-.4099-1.13156,0-2.05219.92059-2.05219,2.05219s.92064,2.05219,2.05219,2.05219c.44829,0,.87396-.14176,1.23096-.4099.40269-.30271.97444-.22125,1.2771.18148.30248.40278.22125.97453-.18153,1.27705-.67551.50735-1.48.77554-2.32653.77554Z"
         fill="#1f1f1f"
         id="path20" />
      <circle
         cx="165.50165"
         cy="355.83101"
         r="1.18571"
         fill="#1f1f1f"
         id="circle22" />
    </g>
    <line
       x1="299.53132"
       y1="53.2205"
       x2="299.53132"
       y2="72.80725"
       fill="none"
       stroke="#1f1f1f"
       stroke-linecap="round"
       stroke-linejoin="round"
       stroke-width=".8"
       id="line26" />
    <line
       x1="261.0938"
       y1="53.2205"
       x2="261.0938"
       y2="72.80725"
       fill="none"
       stroke="#1f1f1f"
       stroke-linecap="round"
       stroke-linejoin="round"
       stroke-width=".8"
       id="line28" />
    <line
       x1="222.65628"
       y1="53.2205"
       x2="222.65628"
       y2="72.80725"
       fill="none"
       stroke="#1f1f1f"
       stroke-linecap="round"
       stroke-linejoin="round"
       stroke-width=".8"
       id="line30" />
    <line
       x1="184.21876"
       y1="53.2205"
       x2="184.21876"
       y2="72.80725"
       fill="none"
       stroke="#1f1f1f"
       stroke-linecap="round"
       stroke-linejoin="round"
       stroke-width=".8"
       id="line32" />
    <line
       x1="145.78124"
       y1="53.2205"
       x2="145.78124"
       y2="72.80725"
       fill="none"
       stroke="#1f1f1f"
       stroke-linecap="round"
       stroke-linejoin="round"
       stroke-width=".8"
       id="line34" />
    <line
       x1="30.46868"
       y1="120.77538"
       x2="30.46868"
       y2="137.48773"
       fill="none"
       stroke="#1f1f1f"
       stroke-linecap="round"
       stroke-linejoin="round"
       stroke-width=".8"
       id="line36" />
    <line
       x1="30.46868"
       y1="162.24405"
       x2="30.46868"
       y2="178.9564"
       fill="none"
       stroke="#1f1f1f"
       stroke-linecap="round"
       stroke-linejoin="round"
       stroke-width=".8"
       id="line38" />
    <line
       x1="30.46868"
       y1="203.71271"
       x2="30.46868"
       y2="220.42506"
       fill="none"
       stroke="#1f1f1f"
       stroke-linecap="round"
       stroke-linejoin="round"
       stroke-width=".8"
       id="line40" />
    <line
       x1="68.9062"
       y1="120.77538"
       x2="68.9062"
       y2="137.48773"
       fill="none"
       stroke="#1f1f1f"
       stroke-linecap="round"
       stroke-linejoin="round"
       stroke-width=".8"
       id="line42" />
    <line
       x1="68.9062"
       y1="162.24405"
       x2="68.9062"
       y2="178.9564"
       fill="none"
       stroke="#1f1f1f"
       stroke-linecap="round"
       stroke-linejoin="round"
       stroke-width=".8"
       id="line44" />
    <line
       x1="68.9062"
       y1="203.71271"
       x2="68.9062"
       y2="220.42506"
       fill="none"
       stroke="#1f1f1f"
       stroke-linecap="round"
       stroke-linejoin="round"
       stroke-width=".8"
       id="line46" />
    <line
       x1="107.34372"
       y1="120.77538"
       x2="107.34372"
       y2="137.48773"
       fill="none"
       stroke="#1f1f1f"
       stroke-linecap="round"
       stroke-linejoin="round"
       stroke-width=".8"
       id="line48" />
    <line
       x1="107.34372"
       y1="162.24405"
       x2="107.34372"
       y2="178.9564"
       fill="none"
       stroke="#1f1f1f"
       stroke-linecap="round"
       stroke-linejoin="round"
       stroke-width=".8"
       id="line50" />
    <line
       x1="107.34372"
       y1="203.71271"
       x2="107.34372"
       y2="220.42506"
       fill="none"
       stroke="#1f1f1f"
       stroke-linecap="round"
       stroke-linejoin="round"
       stroke-width=".8"
       id="line52" />
    <line
       x1="145.78124"
       y1="120.77538"
       x2="145.78124"
       y2="137.48773"
       fill="none"
       stroke="#1f1f1f"
       stroke-linecap="round"
       stroke-linejoin="round"
       stroke-width=".8"
       id="line54" />
    <line
       x1="145.78124"
       y1="162.24405"
       x2="145.78124"
       y2="178.9564"
       fill="none"
       stroke="#1f1f1f"
       stroke-linecap="round"
       stroke-linejoin="round"
       stroke-width=".8"
       id="line56" />
    <line
       x1="145.78124"
       y1="203.71271"
       x2="145.78124"
       y2="220.42506"
       fill="none"
       stroke="#1f1f1f"
       stroke-linecap="round"
       stroke-linejoin="round"
       stroke-width=".8"
       id="line58" />
    <line
       x1="184.21876"
       y1="120.77538"
       x2="184.21876"
       y2="137.48773"
       fill="none"
       stroke="#1f1f1f"
       stroke-linecap="round"
       stroke-linejoin="round"
       stroke-width=".8"
       id="line60" />
    <line
       x1="184.21876"
       y1="162.24405"
       x2="184.21876"
       y2="178.9564"
       fill="none"
       stroke="#1f1f1f"
       stroke-linecap="round"
       stroke-linejoin="round"
       stroke-width=".8"
       id="line62" />
    <line
       x1="184.21876"
       y1="203.71271"
       x2="184.21876"
       y2="220.42506"
       fill="none"
       stroke="#1f1f1f"
       stroke-linecap="round"
       stroke-linejoin="round"
       stroke-width=".8"
       id="line64" />
    <line
       x1="222.65628"
       y1="120.77538"
       x2="222.65628"
       y2="137.48773"
       fill="none"
       stroke="#1f1f1f"
       stroke-linecap="round"
       stroke-linejoin="round"
       stroke-width=".8"
       id="line66" />
    <line
       x1="222.65628"
       y1="162.24405"
       x2="222.65628"
       y2="178.9564"
       fill="none"
       stroke="#1f1f1f"
       stroke-linecap="round"
       stroke-linejoin="round"
       stroke-width=".8"
       id="line68" />
    <line
       x1="222.65628"
       y1="203.71271"
       x2="222.65628"
       y2="220.42506"
       fill="none"
       stroke="#1f1f1f"
       stroke-linecap="round"
       stroke-linejoin="round"
       stroke-width=".8"
       id="line70" />
    <line
       x1="261.0938"
       y1="120.77538"
       x2="261.0938"
       y2="137.48773"
       fill="none"
       stroke="#1f1f1f"
       stroke-linecap="round"
       stroke-linejoin="round"
       stroke-width=".8"
       id="line72" />
    <line
       x1="261.0938"
       y1="162.24405"
       x2="261.0938"
       y2="178.9564"
       fill="none"
       stroke="#1f1f1f"
       stroke-linecap="round"
       stroke-linejoin="round"
       stroke-width=".8"
       id="line74" />
    <line
       x1="261.0938"
       y1="203.71271"
       x2="261.0938"
       y2="220.42506"
       fill="none"
       stroke="#1f1f1f"
       stroke-linecap="round"
       stroke-linejoin="round"
       stroke-width=".8"
       id="line76" />
    <line
       x1="299.53132"
       y1="120.77538"
       x2="299.53132"
       y2="137.48773"
       fill="none"
       stroke="#1f1f1f"
       stroke-linecap="round"
       stroke-linejoin="round"
       stroke-width=".8"
       id="line78" />
    <line
       x1="299.53132"
       y1="162.24405"
       x2="299.53132"
       y2="178.9564"
       fill="none"
       stroke="#1f1f1f"
       stroke-linecap="round"
       stroke-linejoin="round"
       stroke-width=".8"
       id="line80" />
    <line
       x1="299.53132"
       y1="203.71271"
       x2="299.53132"
       y2="220.42506"
       fill="none"
       stroke="#1f1f1f"
       stroke-linecap="round"
       stroke-linejoin="round"
       stroke-width=".8"
       id="line82" />
    <circle
       cx="145.78124"
       cy="100.58629"
       r="13.79989"
       fill="none"
       id="circle84" />
    <circle
       cx="184.21876"
       cy="100.58629"
       r="13.79989"
       fill="none"
       id="circle86" />
    <rect
       x="16.15289"
       y="271.68344"
       width="28.6316"
       height="28.63301"
       rx="2.34296"
       ry="2.34296"
       fill="#1f1f1f"
       id="rect88" />
    <rect
       x="54.59597"
       y="271.68344"
       width="28.6316"
       height="28.63301"
       rx="2.34296"
       ry="2.34296"
       fill="#1f1f1f"
       id="rect90" />
    <rect
       x="93.03905"
       y="271.68344"
       width="28.6316"
       height="28.63301"
       rx="2.34296"
       ry="2.34296"
       fill="#1f1f1f"
       id="rect92" />
    <rect
       x="131.48214"
       y="271.68344"
       width="28.6316"
       height="28.63301"
       rx="2.34296"
       ry="2.34296"
       fill="#1f1f1f"
       id="rect94" />
    <rect
       x="169.92522"
       y="271.68344"
       width="28.6316"
       height="28.63301"
       rx="2.34296"
       ry="2.34296"
       fill="#1f1f1f"
       id="rect96" />
    <rect
       x="208.36831"
       y="271.68344"
       width="28.6316"
       height="28.63301"
       rx="2.34296"
       ry="2.34296"
       fill="#1f1f1f"
       id="rect98" />
    <rect
       x="246.81139"
       y="271.68344"
       width="28.6316"
       height="28.63301"
       rx="2.34296"
       ry="2.34296"
       fill="#1f1f1f"
       id="rect100" />
    <rect
       x="285.25448"
       y="271.68344"
       width="28.6316"
       height="28.63301"
       rx="2.34296"
       ry="2.34296"
       fill="#1f1f1f"
       id="rect102" />
    <line
       x1="44.37609"
       y1="253.26275"
       x2="54.99879"
       y2="253.26275"
       fill="none"
       stroke="#1f1f1f"
       stroke-linecap="round"
       stroke-linejoin="round"
       stroke-width=".8"
       id="line104" />
    <line
       x1="82.81361"
       y1="253.26275"
       x2="93.43631"
       y2="253.26275"
       fill="none"
       stroke="#1f1f1f"
       stroke-linecap="round"
       stroke-linejoin="round"
       stroke-width=".8"
       id="line106" />
    <line
       x1="121.25113"
       y1="253.26275"
       x2="131.87383"
       y2="253.26275"
       fill="none"
       stroke="#1f1f1f"
       stroke-linecap="round"
       stroke-linejoin="round"
       stroke-width=".8"
       id="line108" />
    <line
       x1="159.68865"
       y1="253.26275"
       x2="170.31135"
       y2="253.26275"
       fill="none"
       stroke="#1f1f1f"
       stroke-linecap="round"
       stroke-linejoin="round"
       stroke-width=".8"
       id="line110" />
    <line
       x1="198.12617"
       y1="253.26275"
       x2="208.74887"
       y2="253.26275"
       fill="none"
       stroke="#1f1f1f"
       stroke-linecap="round"
       stroke-linejoin="round"
       stroke-width=".8"
       id="line112" />
    <line
       x1="236.56369"
       y1="253.26275"
       x2="247.18639"
       y2="253.26275"
       fill="none"
       stroke="#1f1f1f"
       stroke-linecap="round"
       stroke-linejoin="round"
       stroke-width=".8"
       id="line114" />
    <line
       x1="275.00121"
       y1="253.26275"
       x2="285.62391"
       y2="253.26275"
       fill="none"
       stroke="#1f1f1f"
       stroke-linecap="round"
       stroke-linejoin="round"
       stroke-width=".8"
       id="line116" />
    <g
       id="g124">
      <circle
         cx="34.70371"
         cy="78.99989"
         r="26.48818"
         fill="none"
         isolation="isolate"
         opacity=".69"
         id="circle118" />
      <path
         d="m45.50193,97.10255c6.2955-3.78272,10.15833-10.61025,10.15833-17.95479,0-11.491-9.45566-20.94666-20.94666-20.94666s-20.94666,9.45566-20.94666,20.94666c0,7.39639,3.91756,14.2646,10.28394,18.02967"
         fill="none"
         stroke="#1f1f1f"
         stroke-linecap="round"
         stroke-miterlimit="10"
         stroke-width=".8"
         id="path120" />
      <line
         x1="45.50193"
         y1="97.10255"
         x2="34.70371"
         y2="78.99989"
         fill="none"
         id="line122" />
    </g>
    <g
       id="g146">
      <circle
         cx="94.71674"
         cy="79.07998"
         r="26.48818"
         fill="none"
         isolation="isolate"
         opacity=".69"
         id="circle126" />
      <g
         id="g144">
        <path
           d="m105.51496,97.18264c6.2955-3.78272,10.15833-10.61025,10.15833-17.95479,0-11.491-9.45566-20.94666-20.94666-20.94666s-20.94666,9.45566-20.94666,20.94666c0,7.39639,3.91756,14.2646,10.28394,18.02967l10.65282-18.17754"
           fill="none"
           stroke="#1f1f1f"
           stroke-linecap="round"
           stroke-miterlimit="10"
           stroke-width=".8"
           id="path128" />
        <g
           id="g142">
          <line
             x1="75.01341"
             y1="85.53009"
             x2="84.27617"
             y2="82.73615"
             fill="none"
             stroke="#1f1f1f"
             stroke-linecap="round"
             stroke-miterlimit="10"
             stroke-width=".5"
             id="line130" />
          <line
             x1="76.26737"
             y1="70.4434"
             x2="84.91281"
             y2="74.78609"
             fill="none"
             stroke="#1f1f1f"
             stroke-linecap="round"
             stroke-miterlimit="10"
             stroke-width=".5"
             id="line132" />
          <line
             x1="86.91123"
             y1="60.02197"
             x2="90.64823"
             y2="69.42766"
             fill="none"
             stroke="#1f1f1f"
             stroke-linecap="round"
             stroke-miterlimit="10"
             stroke-width=".5"
             id="line134" />
          <line
             x1="102.56588"
             y1="59.82108"
             x2="98.65658"
             y2="69.36792"
             fill="none"
             stroke="#1f1f1f"
             stroke-linecap="round"
             stroke-miterlimit="10"
             stroke-width=".5"
             id="line136" />
          <line
             x1="113.1599"
             y1="70.39185"
             x2="104.4691"
             y2="74.64304"
             fill="none"
             stroke="#1f1f1f"
             stroke-linecap="round"
             stroke-miterlimit="10"
             stroke-width=".5"
             id="line138" />
          <line
             x1="114.45677"
             y1="85.47287"
             x2="105.22369"
             y2="82.58233"
             fill="none"
             stroke="#1f1f1f"
             stroke-linecap="round"
             stroke-miterlimit="10"
             stroke-width=".5"
             id="line140" />
        </g>
      </g>
    </g>
    <g
       id="g152">
      <path
         d="m39.10432,151.79291c4.83522-2.92859,8.06662-8.2395,8.06662-14.30514,0-9.23-7.48239-16.71239-16.71239-16.71239s-16.71239,7.48239-16.71239,16.71239c0,6.09737,3.2653,11.4321,8.14264,14.35091"
         fill="none"
         stroke="#1f1f1f"
         stroke-linecap="round"
         stroke-linejoin="round"
         stroke-width=".8"
         id="path148" />
      <circle
         cx="30.46868"
         cy="137.48773"
         r="20.69419"
         fill="none"
         isolation="isolate"
         opacity=".69"
         id="circle150" />
    </g>
    <g
       id="g158">
      <path
         d="m39.10432,193.26157c4.83522-2.92859,8.06662-8.2395,8.06662-14.30514,0-9.23-7.48239-16.71239-16.71239-16.71239s-16.71239,7.48239-16.71239,16.71239c0,6.09737,3.2653,11.4321,8.14264,14.35091"
         fill="none"
         stroke="#1f1f1f"
         stroke-linecap="round"
         stroke-linejoin="round"
         stroke-width=".8"
         id="path154" />
      <circle
         cx="30.46868"
         cy="178.9564"
         r="20.69419"
         fill="none"
         isolation="isolate"
         opacity=".69"
         id="circle156" />
    </g>
    <g
       id="g164">
      <path
         d="m39.10432,234.59446c4.83522-2.92859,8.06662-8.2395,8.06662-14.30514,0-9.23-7.48239-16.71239-16.71239-16.71239s-16.71239,7.48239-16.71239,16.71239c0,6.09737,3.2653,11.4321,8.14264,14.35091"
         fill="none"
         stroke="#1f1f1f"
         stroke-linecap="round"
         stroke-linejoin="round"
         stroke-width=".8"
         id="path160" />
      <circle
         cx="30.46868"
         cy="220.28929"
         r="20.69419"
         fill="none"
         isolation="isolate"
         opacity=".69"
         id="circle162" />
    </g>
    <g
       id="g170">
      <path
         d="m77.54184,151.79291c4.83522-2.92859,8.06662-8.2395,8.06662-14.30514,0-9.23-7.48239-16.71239-16.71239-16.71239s-16.71239,7.48239-16.71239,16.71239c0,6.09737,3.2653,11.4321,8.14264,14.35091"
         fill="none"
         stroke="#1f1f1f"
         stroke-linecap="round"
         stroke-linejoin="round"
         stroke-width=".8"
         id="path166" />
      <circle
         cx="68.9062"
         cy="137.48773"
         r="20.69419"
         fill="none"
         isolation="isolate"
         opacity=".69"
         id="circle168" />
    </g>
    <g
       id="g176">
      <path
         d="m77.54184,193.26157c4.83522-2.92859,8.06662-8.2395,8.06662-14.30514,0-9.23-7.48239-16.71239-16.71239-16.71239s-16.71239,7.48239-16.71239,16.71239c0,6.09737,3.2653,11.4321,8.14264,14.35091"
         fill="none"
         stroke="#1f1f1f"
         stroke-linecap="round"
         stroke-linejoin="round"
         stroke-width=".8"
         id="path172" />
      <circle
         cx="68.9062"
         cy="178.9564"
         r="20.69419"
         fill="none"
         isolation="isolate"
         opacity=".69"
         id="circle174" />
    </g>
    <g
       id="g182">
      <path
         d="m77.54184,234.59446c4.83522-2.92859,8.06662-8.2395,8.06662-14.30514,0-9.23-7.48239-16.71239-16.71239-16.71239s-16.71239,7.48239-16.71239,16.71239c0,6.09737,3.2653,11.4321,8.14264,14.35091"
         fill="none"
         stroke="#1f1f1f"
         stroke-linecap="round"
         stroke-linejoin="round"
         stroke-width=".8"
         id="path178" />
      <circle
         cx="68.9062"
         cy="220.28929"
         r="20.69419"
         fill="none"
         isolation="isolate"
         opacity=".69"
         id="circle180" />
    </g>
    <g
       id="g188">
      <path
         d="m115.97936,151.79291c4.83522-2.92859,8.06662-8.2395,8.06662-14.30514,0-9.23-7.48239-16.71239-16.71239-16.71239s-16.71239,7.48239-16.71239,16.71239c0,6.09737,3.2653,11.4321,8.14264,14.35091"
         fill="none"
         stroke="#1f1f1f"
         stroke-linecap="round"
         stroke-linejoin="round"
         stroke-width=".8"
         id="path184" />
      <circle
         cx="107.34372"
         cy="137.48773"
         r="20.69419"
         fill="none"
         isolation="isolate"
         opacity=".69"
         id="circle186" />
    </g>
    <g
       id="g194">
      <path
         d="m115.97936,193.26157c4.83522-2.92859,8.06662-8.2395,8.06662-14.30514,0-9.23-7.48239-16.71239-16.71239-16.71239s-16.71239,7.48239-16.71239,16.71239c0,6.09737,3.2653,11.4321,8.14264,14.35091"
         fill="none"
         stroke="#1f1f1f"
         stroke-linecap="round"
         stroke-linejoin="round"
         stroke-width=".8"
         id="path190" />
      <circle
         cx="107.34372"
         cy="178.9564"
         r="20.69419"
         fill="none"
         isolation="isolate"
         opacity=".69"
         id="circle192" />
    </g>
    <g
       id="g200">
      <path
         d="m115.97936,234.59446c4.83522-2.92859,8.06662-8.2395,8.06662-14.30514,0-9.23-7.48239-16.71239-16.71239-16.71239s-16.71239,7.48239-16.71239,16.71239c0,6.09737,3.2653,11.4321,8.14264,14.35091"
         fill="none"
         stroke="#1f1f1f"
         stroke-linecap="round"
         stroke-linejoin="round"
         stroke-width=".8"
         id="path196" />
      <circle
         cx="107.34372"
         cy="220.28929"
         r="20.69419"
         fill="none"
         isolation="isolate"
         opacity=".69"
         id="circle198" />
    </g>
    <g
       id="g206">
      <path
         d="m154.41688,151.79291c4.83522-2.92859,8.06662-8.2395,8.06662-14.30514,0-9.23-7.48239-16.71239-16.71239-16.71239s-16.71239,7.48239-16.71239,16.71239c0,6.09737,3.2653,11.4321,8.14264,14.35091"
         fill="none"
         stroke="#1f1f1f"
         stroke-linecap="round"
         stroke-linejoin="round"
         stroke-width=".8"
         id="path202" />
      <circle
         cx="145.78124"
         cy="137.48773"
         r="20.69419"
         fill="none"
         isolation="isolate"
         opacity=".69"
         id="circle204" />
    </g>
    <g
       id="g212">
      <path
         d="m154.41688,193.26157c4.83522-2.92859,8.06662-8.2395,8.06662-14.30514,0-9.23-7.48239-16.71239-16.71239-16.71239s-16.71239,7.48239-16.71239,16.71239c0,6.09737,3.2653,11.4321,8.14264,14.35091"
         fill="none"
         stroke="#1f1f1f"
         stroke-linecap="round"
         stroke-linejoin="round"
         stroke-width=".8"
         id="path208" />
      <circle
         cx="145.78124"
         cy="178.9564"
         r="20.69419"
         fill="none"
         isolation="isolate"
         opacity=".69"
         id="circle210" />
    </g>
    <g
       id="g218">
      <path
         d="m154.41688,234.59446c4.83522-2.92859,8.06662-8.2395,8.06662-14.30514,0-9.23-7.48239-16.71239-16.71239-16.71239s-16.71239,7.48239-16.71239,16.71239c0,6.09737,3.2653,11.4321,8.14264,14.35091"
         fill="none"
         stroke="#1f1f1f"
         stroke-linecap="round"
         stroke-linejoin="round"
         stroke-width=".8"
         id="path214" />
      <circle
         cx="145.78124"
         cy="220.28929"
         r="20.69419"
         fill="none"
         isolation="isolate"
         opacity=".69"
         id="circle216" />
    </g>
    <g
       id="g224">
      <path
         d="m192.85439,151.79291c4.83522-2.92859,8.06662-8.2395,8.06662-14.30514,0-9.23-7.48239-16.71239-16.71239-16.71239s-16.71239,7.48239-16.71239,16.71239c0,6.09737,3.2653,11.4321,8.14264,14.35091"
         fill="none"
         stroke="#1f1f1f"
         stroke-linecap="round"
         stroke-linejoin="round"
         stroke-width=".8"
         id="path220" />
      <circle
         cx="184.21876"
         cy="137.48773"
         r="20.69419"
         fill="none"
         isolation="isolate"
         opacity=".69"
         id="circle222" />
    </g>
    <g
       id="g230">
      <path
         d="m192.85439,193.26157c4.83522-2.92859,8.06662-8.2395,8.06662-14.30514,0-9.23-7.48239-16.71239-16.71239-16.71239s-16.71239,7.48239-16.71239,16.71239c0,6.09737,3.2653,11.4321,8.14264,14.35091"
         fill="none"
         stroke="#1f1f1f"
         stroke-linecap="round"
         stroke-linejoin="round"
         stroke-width=".8"
         id="path226" />
      <circle
         cx="184.21876"
         cy="178.9564"
         r="20.69419"
         fill="none"
         isolation="isolate"
         opacity=".69"
         id="circle228" />
    </g>
    <g
       id="g236">
      <path
         d="m192.85439,234.59446c4.83522-2.92859,8.06662-8.2395,8.06662-14.30514,0-9.23-7.48239-16.71239-16.71239-16.71239s-16.71239,7.48239-16.71239,16.71239c0,6.09737,3.2653,11.4321,8.14264,14.35091"
         fill="none"
         stroke="#1f1f1f"
         stroke-linecap="round"
         stroke-linejoin="round"
         stroke-width=".8"
         id="path232" />
      <circle
         cx="184.21876"
         cy="220.28929"
         r="20.69419"
         fill="none"
         isolation="isolate"
         opacity=".69"
         id="circle234" />
    </g>
    <g
       id="g242">
      <path
         d="m231.29191,151.79291c4.83522-2.92859,8.06662-8.2395,8.06662-14.30514,0-9.23-7.48239-16.71239-16.71239-16.71239s-16.71239,7.48239-16.71239,16.71239c0,6.09737,3.2653,11.4321,8.14264,14.35091"
         fill="none"
         stroke="#1f1f1f"
         stroke-linecap="round"
         stroke-linejoin="round"
         stroke-width=".8"
         id="path238" />
      <circle
         cx="222.65628"
         cy="137.48773"
         r="20.69419"
         fill="none"
         isolation="isolate"
         opacity=".69"
         id="circle240" />
    </g>
    <g
       id="g248">
      <path
         d="m231.29191,193.26157c4.83522-2.92859,8.06662-8.2395,8.06662-14.30514,0-9.23-7.48239-16.71239-16.71239-16.71239s-16.71239,7.48239-16.71239,16.71239c0,6.09737,3.2653,11.4321,8.14264,14.35091"
         fill="none"
         stroke="#1f1f1f"
         stroke-linecap="round"
         stroke-linejoin="round"
         stroke-width=".8"
         id="path244" />
      <circle
         cx="222.65628"
         cy="178.9564"
         r="20.69419"
         fill="none"
         isolation="isolate"
         opacity=".69"
         id="circle246" />
    </g>
    <g
       id="g254">
      <path
         d="m231.29191,234.59446c4.83522-2.92859,8.06662-8.2395,8.06662-14.30514,0-9.23-7.48239-16.71239-16.71239-16.71239s-16.71239,7.48239-16.71239,16.71239c0,6.09737,3.2653,11.4321,8.14264,14.35091"
         fill="none"
         stroke="#1f1f1f"
         stroke-linecap="round"
         stroke-linejoin="round"
         stroke-width=".8"
         id="path250" />
      <circle
         cx="222.65628"
         cy="220.28929"
         r="20.69419"
         fill="none"
         isolation="isolate"
         opacity=".69"
         id="circle252" />
    </g>
    <g
       id="g260">
      <path
         d="m269.72943,151.79291c4.83522-2.92859,8.06662-8.2395,8.06662-14.30514,0-9.23-7.48239-16.71239-16.71239-16.71239s-16.71239,7.48239-16.71239,16.71239c0,6.09737,3.2653,11.4321,8.14264,14.35091"
         fill="none"
         stroke="#1f1f1f"
         stroke-linecap="round"
         stroke-linejoin="round"
         stroke-width=".8"
         id="path256" />
      <circle
         cx="261.0938"
         cy="137.48773"
         r="20.69419"
         fill="none"
         isolation="isolate"
         opacity=".69"
         id="circle258" />
    </g>
    <g
       id="g266">
      <path
         d="m269.72943,193.26157c4.83522-2.92859,8.06662-8.2395,8.06662-14.30514,0-9.23-7.48239-16.71239-16.71239-16.71239s-16.71239,7.48239-16.71239,16.71239c0,6.09737,3.2653,11.4321,8.14264,14.35091"
         fill="none"
         stroke="#1f1f1f"
         stroke-linecap="round"
         stroke-linejoin="round"
         stroke-width=".8"
         id="path262" />
      <circle
         cx="261.0938"
         cy="178.9564"
         r="20.69419"
         fill="none"
         isolation="isolate"
         opacity=".69"
         id="circle264" />
    </g>
    <g
       id="g272">
      <path
         d="m269.72943,234.59446c4.83522-2.92859,8.06662-8.2395,8.06662-14.30514,0-9.23-7.48239-16.71239-16.71239-16.71239s-16.71239,7.48239-16.71239,16.71239c0,6.09737,3.2653,11.4321,8.14264,14.35091"
         fill="none"
         stroke="#1f1f1f"
         stroke-linecap="round"
         stroke-linejoin="round"
         stroke-width=".8"
         id="path268" />
      <circle
         cx="261.0938"
         cy="220.28929"
         r="20.69419"
         fill="none"
         isolation="isolate"
         opacity=".69"
         id="circle270" />
    </g>
    <g
       id="g278">
      <path
         d="m308.16695,151.79291c4.83522-2.92859,8.06662-8.2395,8.06662-14.30514,0-9.23-7.48239-16.71239-16.71239-16.71239s-16.71239,7.48239-16.71239,16.71239c0,6.09737,3.2653,11.4321,8.14264,14.35091"
         fill="none"
         stroke="#1f1f1f"
         stroke-linecap="round"
         stroke-linejoin="round"
         stroke-width=".8"
         id="path274" />
      <circle
         cx="299.53132"
         cy="137.48773"
         r="20.69419"
         fill="none"
         isolation="isolate"
         opacity=".69"
         id="circle276" />
    </g>
    <g
       id="g284">
      <path
         d="m308.16695,193.26157c4.83522-2.92859,8.06662-8.2395,8.06662-14.30514,0-9.23-7.48239-16.71239-16.71239-16.71239s-16.71239,7.48239-16.71239,16.71239c0,6.09737,3.2653,11.4321,8.14264,14.35091"
         fill="none"
         stroke="#1f1f1f"
         stroke-linecap="round"
         stroke-linejoin="round"
         stroke-width=".8"
         id="path280" />
      <circle
         cx="299.53132"
         cy="178.9564"
         r="20.69419"
         fill="none"
         isolation="isolate"
         opacity=".69"
         id="circle282" />
    </g>
    <g
       id="g290">
      <path
         d="m308.16695,234.59446c4.83522-2.92859,8.06662-8.2395,8.06662-14.30514,0-9.23-7.48239-16.71239-16.71239-16.71239s-16.71239,7.48239-16.71239,16.71239c0,6.09737,3.2653,11.4321,8.14264,14.35091"
         fill="none"
         stroke="#1f1f1f"
         stroke-linecap="round"
         stroke-linejoin="round"
         stroke-width=".8"
         id="path286" />
      <circle
         cx="299.53132"
         cy="220.28929"
         r="20.69419"
         fill="none"
         isolation="isolate"
         opacity=".69"
         id="circle288" />
    </g>
    <path
       d="m137.61764,108.73669c-2.1616-2.1616-3.37728-5.09649-3.37728-8.15346,0-6.32558,5.20516-11.53074,11.53074-11.53074s11.53074,5.20516,11.53074,11.53074c0,3.05697-1.21567,5.99186-3.37728,8.15346l-8.14037-8.14894"
       fill="none"
       stroke="#1f1f1f"
       stroke-linecap="round"
       stroke-linejoin="round"
       id="path292" />
    <path
       d="m176.0653,108.73669c-2.1616-2.1616-3.37728-5.09649-3.37728-8.15346,0-6.32558,5.20516-11.53074,11.53074-11.53074s11.53074,5.20516,11.53074,11.53074c0,3.05697-1.21567,5.99186-3.37728,8.15346l-8.1505-8.14894"
       fill="none"
       stroke="#1f1f1f"
       stroke-linecap="round"
       stroke-linejoin="round"
       id="path294" />
    <line
       x1="105.26434"
       y1="97.25309"
       x2="94.71674"
       y2="79.07998"
       fill="none"
       stroke="#1f1f1f"
       stroke-linecap="round"
       stroke-miterlimit="10"
       stroke-width=".8"
       id="line296" />
  </g>
  <g
     id="uuid-f977e39a-f784-4e1d-bf7d-8caa6222171e"
     data-name="FND TXT">
    <g
       id="g305">
      <path
         d="m61.06641,316.55127v-.01367c0-1.34814,1.01758-2.45264,2.47363-2.45264.71191,0,1.19238.18994,1.58496.48145.10938.08105.20312.23047.20312.41309,0,.28467-.23047.50781-.51465.50781-.1416,0-.2373-.05371-.31152-.10156-.29102-.2168-.5957-.33838-.96875-.33838-.79883,0-1.375.66357-1.375,1.47705v.01318c0,.81299.5625,1.49072,1.375,1.49072.44043,0,.73145-.13574,1.0293-.37305.08203-.06738.18945-.11475.3125-.11475.26367,0,.4873.2168.4873.48096,0,.1626-.08105.29102-.17676.37256-.42578.37256-.92773.59619-1.68555.59619-1.39648,0-2.43359-1.07715-2.43359-2.43896Z"
         fill="#f0f0f0"
         id="path299" />
      <path
         d="m67.75195,318.57031l-1.53711-3.67871c-.03418-.08154-.06055-.16309-.06055-.25098,0-.29102.22949-.51465.52148-.51465.27051,0,.44727.15576.52734.36572l1.18555,3.06885,1.19922-3.10254c.06836-.16943.25195-.33203.50195-.33203.28516,0,.51562.2168.51562.50098,0,.08154-.02734.16992-.05469.23047l-1.55176,3.71289c-.1084.25732-.30469.41309-.58887.41309h-.06836c-.28516,0-.48047-.15576-.58984-.41309Z"
         fill="#f0f0f0"
         id="path301" />
      <path
         d="m73.43555,317.89258l1.34863-1.10449c.58887-.48047.81934-.74512.81934-1.1377,0-.3999-.26367-.6167-.63672-.6167-.29785,0-.50781.12842-.77148.41357-.06836.07422-.19043.14844-.35352.14844-.26367,0-.47363-.20996-.47363-.47363,0-.11523.04785-.2373.12207-.3252.37891-.44043.82617-.69824,1.54492-.69824.98242,0,1.63281.57617,1.63281,1.46338v.01367c0,.79248-.40625,1.18555-1.24707,1.83594l-.77246.59619h1.65332c.25098,0,.4541.20312.4541.4541,0,.25049-.20312.44727-.4541.44727h-2.5752c-.32422,0-.56152-.18311-.56152-.49512,0-.20312.09473-.37891.27051-.52148Z"
         fill="#f0f0f0"
         id="path303" />
    </g>
    <g
       id="g313">
      <path
         d="m215.81934,316.55127v-.01367c0-1.34814,1.0166-2.45264,2.47363-2.45264.71094,0,1.19238.18994,1.58496.48145.1084.08105.20312.23047.20312.41309,0,.28467-.23047.50781-.51465.50781-.14258,0-.2373-.05371-.31152-.10156-.29199-.2168-.59668-.33838-.96875-.33838-.7998,0-1.37598.66357-1.37598,1.47705v.01318c0,.81299.5625,1.49072,1.37598,1.49072.44043,0,.73145-.13574,1.0293-.37305.08105-.06738.18945-.11475.31152-.11475.26465,0,.48828.2168.48828.48096,0,.1626-.08105.29102-.17676.37256-.42676.37256-.92773.59619-1.68652.59619-1.39551,0-2.43262-1.07715-2.43262-2.43896Z"
         fill="#f0f0f0"
         id="path307" />
      <path
         d="m221.23828,314.64746c0-.29102.22949-.52148.52148-.52148.29102,0,.52148.23047.52148.52148v3.31299h1.93066c.26465,0,.47461.20996.47461.47412,0,.26465-.20996.47461-.47461.47461h-2.45215c-.29199,0-.52148-.23047-.52148-.52197v-3.73975Z"
         fill="#f0f0f0"
         id="path309" />
      <path
         d="m225.58691,314.64746c0-.29102.23047-.52148.52148-.52148.29199,0,.52148.23047.52148.52148v1.59229l1.9248-1.91064c.12793-.12891.25684-.20312.44043-.20312.29102,0,.48047.22363.48047.48096,0,.1626-.07422.28467-.18945.39307l-1.33496,1.24609,1.45703,1.82959c.08105.10156.1416.20996.1416.36572,0,.2915-.22266.5083-.52832.5083-.20312,0-.3252-.10205-.44043-.25049l-1.35449-1.77539-.59668.55566v.94824c0,.2915-.22949.52197-.52148.52197-.29102,0-.52148-.23047-.52148-.52197v-3.78027Z"
         fill="#f0f0f0"
         id="path311" />
    </g>
    <g
       id="g325">
      <path
         d="m173.24414,318.40771c-.11523-.08154-.19629-.23047-.19629-.39307,0-.271.2168-.48096.4873-.48096.13574,0,.23047.04736.29883.09473.35938.26416.75195.42676,1.21289.42676.42578,0,.68359-.16943.68359-.44678v-.01367c0-.26465-.16211-.3999-.95508-.60303-.95508-.24365-1.57227-.5083-1.57227-1.44971v-.01367c0-.86035.69141-1.42969,1.66016-1.42969.57617,0,1.07812.14941,1.50391.41992.11523.06787.23047.20996.23047.41357,0,.271-.2168.48096-.48828.48096-.10156,0-.18164-.02734-.26367-.07422-.3457-.20361-.66992-.31885-.99609-.31885-.39941,0-.60938.18311-.60938.41357v.01367c0,.31152.20312.41309,1.02344.62305.96094.25049,1.50391.59619,1.50391,1.42285v.01367c0,.94141-.71875,1.46973-1.74219,1.46973-.62305,0-1.25195-.18945-1.78125-.56885Z"
         fill="#f0f0f0"
         id="path315" />
      <path
         d="m178.95117,315.12842h-1.00293c-.26465,0-.48145-.2168-.48145-.48096s.2168-.48096.48145-.48096h3.04785c.26562,0,.48242.2168.48242.48096s-.2168.48096-.48242.48096h-1.00195v3.29932c0,.2915-.23047.52197-.52148.52197s-.52148-.23047-.52148-.52197v-3.29932Z"
         fill="#f0f0f0"
         id="path317" />
      <path
         d="m182.38672,318.38721v-3.69873c0-.2915.23047-.52197.52148-.52197h2.62891c.25781,0,.4668.20996.4668.46729,0,.25781-.20898.46094-.4668.46094h-2.11426v.96191h1.80957c.25684,0,.4668.20996.4668.46777,0,.25732-.20996.46045-.4668.46045h-1.80957v.99561h2.14746c.25781,0,.46777.21045.46777.46777s-.20996.46094-.46777.46094h-2.66211c-.29102,0-.52148-.23047-.52148-.52197Z"
         fill="#f0f0f0"
         id="path319" />
      <path
         d="m187.1582,314.68848c0-.2915.23047-.52197.52246-.52197h1.41602c1.13184,0,1.81543.67041,1.81543,1.63965v.01318c0,1.09766-.85352,1.66699-1.91699,1.66699h-.79297v.94141c0,.2915-.22949.52197-.52148.52197s-.52246-.23047-.52246-.52197v-3.73926Zm1.87109,1.86963c.52148,0,.82617-.31201.82617-.71826v-.01367c0-.46729-.3252-.71777-.84766-.71777h-.80566v1.44971h.82715Z"
         fill="#f0f0f0"
         id="path321" />
      <path
         d="m191.79492,318.40771c-.11523-.08154-.19629-.23047-.19629-.39307,0-.271.2168-.48096.4873-.48096.13574,0,.23047.04736.29883.09473.35938.26416.75195.42676,1.21289.42676.42578,0,.68359-.16943.68359-.44678v-.01367c0-.26465-.16211-.3999-.95508-.60303-.95508-.24365-1.57227-.5083-1.57227-1.44971v-.01367c0-.86035.69141-1.42969,1.66016-1.42969.57617,0,1.07812.14941,1.50391.41992.11523.06787.23047.20996.23047.41357,0,.271-.2168.48096-.48828.48096-.10156,0-.18164-.02734-.26367-.07422-.3457-.20361-.66992-.31885-.99609-.31885-.39941,0-.60938.18311-.60938.41357v.01367c0,.31152.20312.41309,1.02344.62305.96094.25049,1.50391.59619,1.50391,1.42285v.01367c0,.94141-.71875,1.46973-1.74219,1.46973-.62305,0-1.25195-.18945-1.78125-.56885Z"
         fill="#f0f0f0"
         id="path323" />
    </g>
    <g
       id="g337">
      <path
         d="m21.06836,46.20654h-1.41895c-.2666,0-.47559-.2168-.47559-.47559s.20898-.47607.47559-.47607h3.88184c.25879,0,.4668.21729.4668.47607s-.20801.47559-.4668.47559h-1.42773v4.42383c0,.28369-.2334.50879-.51758.50879-.2832,0-.51758-.2251-.51758-.50879v-4.42383Z"
         fill="#1f1f1f"
         id="path327" />
      <path
         d="m25.16113,50.58008v-4.80762c0-.29199.22559-.51758.51758-.51758h3.39746c.25,0,.45898.20898.45898.45947,0,.2583-.20898.45898-.45898.45898h-2.88867v1.51904h2.5127c.25,0,.45898.2085.45898.46729,0,.25049-.20898.45068-.45898.45068h-2.5127v1.56934h2.92969c.25098,0,.45996.2085.45996.45898,0,.25879-.20898.45898-.45996.45898h-3.43848c-.29199,0-.51758-.22559-.51758-.51758Z"
         fill="#1f1f1f"
         id="path329" />
      <path
         d="m30.91309,45.73926c0-.28369.22559-.51758.51758-.51758h.1084c.22559,0,.37598.1167.47559.27539l1.76953,2.771,1.77832-2.7793c.1084-.17529.25879-.26709.4668-.26709h.10938c.29199,0,.5166.23389.5166.51758v4.89111c0,.28369-.22461.50879-.5166.50879-.27539,0-.50977-.2334-.50977-.50879v-3.50586l-1.42676,2.14502c-.1084.16699-.24219.26709-.43457.26709-.18359,0-.31738-.1001-.42578-.26709l-1.41895-2.12793v3.49707c0,.28369-.22461.50049-.50879.50049s-.50098-.2168-.50098-.50049v-4.89941Z"
         fill="#1f1f1f"
         id="path331" />
      <path
         d="m38.39453,45.77246c0-.29199.22559-.51758.51758-.51758h1.78613c1.36914,0,2.2207.77637,2.2207,1.95312v.0166c0,1.31055-1.05176,1.99512-2.33789,1.99512h-1.16016v1.41064c0,.28369-.22461.50879-.50879.50879-.29199,0-.51758-.2251-.51758-.50879v-4.85791Zm2.2207,2.52051c.77637,0,1.25977-.43359,1.25977-1.04297v-.0166c0-.68457-.49219-1.04346-1.25977-1.04346h-1.19434v2.10303h1.19434Z"
         fill="#1f1f1f"
         id="path333" />
      <path
         d="m43.9209,48.19287v-.0166c0-1.64404,1.26855-3.02148,3.06348-3.02148s3.04688,1.36084,3.04688,3.00488v.0166c0,1.64453-1.26953,3.02148-3.06348,3.02148-1.79492,0-3.04688-1.36035-3.04688-3.00488Zm5.0332,0v-.0166c0-1.13525-.82617-2.07812-1.98633-2.07812s-1.96973.92627-1.96973,2.06152v.0166c0,1.13525.82617,2.06982,1.98633,2.06982s1.96973-.91797,1.96973-2.05322Z"
         fill="#1f1f1f"
         id="path335" />
    </g>
    <g
       id="g349">
      <path
         d="m81.38379,50.44678c-.11621-.0835-.2002-.22559-.2002-.39258,0-.26709.2168-.47559.48438-.47559.1416,0,.2334.0415.30078.0918.4834.38379,1.00098.60107,1.63574.60107.63379,0,1.03516-.30078,1.03516-.73486v-.0166c0-.41699-.23438-.64258-1.31934-.89307-1.24316-.30029-1.94434-.66748-1.94434-1.74414v-.01709c0-1.00146.83496-1.69434,1.99512-1.69434.73438,0,1.32617.19238,1.85254.54297.11719.06641.22559.2085.22559.40869,0,.26709-.21777.47559-.48438.47559-.10059,0-.18359-.0249-.26758-.07471-.4502-.29248-.88379-.44238-1.34375-.44238-.60059,0-.95117.30859-.95117.69238v.01709c0,.45068.26758.65088,1.39355.91797,1.23535.30029,1.87012.74268,1.87012,1.71094v.0166c0,1.09375-.85938,1.74463-2.08691,1.74463-.79297,0-1.54395-.25049-2.19531-.73438Z"
         fill="#1f1f1f"
         id="path339" />
      <path
         d="m88.44922,46.20654h-1.41895c-.2666,0-.47559-.2168-.47559-.47559s.20898-.47607.47559-.47607h3.88184c.25879,0,.4668.21729.4668.47607s-.20801.47559-.4668.47559h-1.42773v4.42383c0,.28369-.2334.50879-.51758.50879-.2832,0-.51758-.2251-.51758-.50879v-4.42383Z"
         fill="#1f1f1f"
         id="path341" />
      <path
         d="m92.54199,50.58008v-4.80762c0-.29199.22559-.51758.51758-.51758h3.39746c.25,0,.45898.20898.45898.45947,0,.2583-.20898.45898-.45898.45898h-2.88867v1.51904h2.5127c.25,0,.45898.2085.45898.46729,0,.25049-.20898.45068-.45898.45068h-2.5127v1.56934h2.92969c.25098,0,.45996.2085.45996.45898,0,.25879-.20898.45898-.45996.45898h-3.43848c-.29199,0-.51758-.22559-.51758-.51758Z"
         fill="#1f1f1f"
         id="path343" />
      <path
         d="m98.29492,45.77246c0-.29199.22559-.51758.51758-.51758h1.78613c1.36914,0,2.2207.77637,2.2207,1.95312v.0166c0,1.31055-1.05176,1.99512-2.33789,1.99512h-1.16016v1.41064c0,.28369-.22461.50879-.50879.50879-.29199,0-.51758-.2251-.51758-.50879v-4.85791Zm2.2207,2.52051c.77637,0,1.25977-.43359,1.25977-1.04297v-.0166c0-.68457-.49219-1.04346-1.25977-1.04346h-1.19434v2.10303h1.19434Z"
         fill="#1f1f1f"
         id="path345" />
      <path
         d="m103.90918,50.44678c-.11621-.0835-.2002-.22559-.2002-.39258,0-.26709.2168-.47559.48438-.47559.1416,0,.2334.0415.30078.0918.4834.38379,1.00098.60107,1.63574.60107.63379,0,1.03516-.30078,1.03516-.73486v-.0166c0-.41699-.23438-.64258-1.31934-.89307-1.24316-.30029-1.94434-.66748-1.94434-1.74414v-.01709c0-1.00146.83496-1.69434,1.99512-1.69434.73438,0,1.32617.19238,1.85254.54297.11719.06641.22559.2085.22559.40869,0,.26709-.21777.47559-.48438.47559-.10059,0-.18359-.0249-.26758-.07471-.4502-.29248-.88379-.44238-1.34375-.44238-.60059,0-.95117.30859-.95117.69238v.01709c0,.45068.26758.65088,1.39355.91797,1.23535.30029,1.87012.74268,1.87012,1.71094v.0166c0,1.09375-.85938,1.74463-2.08691,1.74463-.79297,0-1.54395-.25049-2.19531-.73438Z"
         fill="#1f1f1f"
         id="path347" />
    </g>
    <g
       id="g357">
      <path
         d="m253.77344,80.20312c0-.2373.18359-.41992.41992-.41992h1.69336c.59668,0,1.06445.17627,1.36914.47412.25098.25732.39258.60986.39258,1.02295v.01367c0,.75879-.43945,1.21973-1.07715,1.41602l.9082,1.14502c.08105.10156.13574.18994.13574.31836,0,.23047-.19727.38623-.40039.38623-.18945,0-.31152-.08789-.40625-.2168l-1.15137-1.47021h-1.0498v1.27393c0,.22998-.18359.41309-.41406.41309-.23633,0-.41992-.18311-.41992-.41309v-3.94336Zm2.05273,1.93066c.59668,0,.97559-.31152.97559-.79248v-.01318c0-.5083-.36621-.78613-.98242-.78613h-1.21191v1.5918h1.21875Z"
         fill="#1f1f1f"
         id="path351" />
      <path
         d="m258.81641,82.51367v-2.35107c0-.23047.18262-.41357.41992-.41357.23047,0,.41309.18311.41309.41357v2.31689c0,.88086.4541,1.34863,1.19922,1.34863.73828,0,1.19238-.44043,1.19238-1.31445v-2.35107c0-.23047.18262-.41357.41992-.41357.23047,0,.41309.18311.41309.41357v2.31006c0,1.41602-.7998,2.12744-2.03906,2.12744-1.2334,0-2.01855-.71143-2.01855-2.08643Z"
         fill="#1f1f1f"
         id="path353" />
      <path
         d="m264.27734,80.17627c0-.23047.18359-.42041.41992-.42041h.08887c.20312,0,.31836.10156.43359.24414l2.37109,3.06934v-2.91357c0-.22363.18262-.40674.40625-.40674.23047,0,.41309.18311.41309.40674v3.98389c0,.23047-.17578.41309-.40625.41309h-.03418c-.19629,0-.31836-.10156-.43359-.25098l-2.43848-3.15674v3.0083c0,.22314-.18359.40625-.40625.40625-.23047,0-.41406-.18311-.41406-.40625v-3.97705Z"
         fill="#1f1f1f"
         id="path355" />
    </g>
    <g
       id="g365">
      <path
         d="m215.85938,82.16797v-.01367c0-1.34863,1.00879-2.45264,2.44531-2.45264.73145,0,1.21289.2168,1.62598.53516.08789.06787.16309.18311.16309.33203,0,.23047-.18359.40674-.41406.40674-.11523,0-.19629-.04102-.25-.08154-.32617-.26416-.67773-.42676-1.13184-.42676-.90137,0-1.56543.74512-1.56543,1.67334v.01367c0,.92773.6582,1.68018,1.56543,1.68018.50098,0,.83984-.1626,1.18555-.4541.06152-.0542.14941-.09473.25098-.09473.20996,0,.39258.17627.39258.38623,0,.12891-.06055.23047-.13477.29785-.44727.39307-.95605.63672-1.72168.63672-1.38184,0-2.41113-1.07715-2.41113-2.43848Z"
         fill="#1f1f1f"
         id="path359" />
      <path
         d="m221.27539,80.16211c0-.22998.18359-.41309.4209-.41309.22949,0,.41309.18311.41309.41309v3.60449h2.14746c.20996,0,.37988.16943.37988.37939s-.16992.37939-.37988.37939h-2.56055c-.2373,0-.4209-.18262-.4209-.41992v-3.94336Z"
         fill="#1f1f1f"
         id="path361" />
      <path
         d="m225.62891,80.16211c0-.22998.18359-.41309.41992-.41309.23047,0,.41406.18311.41406.41309v2.00586l2.24902-2.26318c.09473-.10156.19629-.15576.3457-.15576.22949,0,.38574.18311.38574.38623,0,.12842-.05371.22363-.14844.31152l-1.47754,1.42285,1.59863,1.98486c.06836.08838.11523.16943.11523.29834,0,.22998-.18262.40674-.41992.40674-.16211,0-.26367-.08154-.35156-.19678l-1.52539-1.94434-.77148.74512v.98242c0,.23047-.18359.41357-.41406.41357-.23633,0-.41992-.18311-.41992-.41357v-3.98389Z"
         fill="#1f1f1f"
         id="path363" />
    </g>
    <g
       id="g377">
      <path
         d="m288.3291,80.20312c0-.2373.18262-.41992.41992-.41992h1.69434c.5957,0,1.0625.17627,1.36816.47412.25098.25732.39258.60986.39258,1.02295v.01367c0,.75879-.44043,1.21973-1.07715,1.41602l.9082,1.14502c.08105.10156.13477.18994.13477.31836,0,.23047-.19629.38623-.39941.38623-.18945,0-.31152-.08789-.40625-.2168l-1.15137-1.47021h-1.05078v1.27393c0,.22998-.18262.41309-.41309.41309-.2373,0-.41992-.18311-.41992-.41309v-3.94336Zm2.05273,1.93066c.59668,0,.97559-.31152.97559-.79248v-.01318c0-.5083-.36621-.78613-.98242-.78613h-1.21289v1.5918h1.21973Z"
         fill="#1f1f1f"
         id="path367" />
      <path
         d="m293.46094,84.10547v-3.90234c0-.2373.18359-.41992.4209-.41992h2.75684c.20312,0,.37305.16943.37305.37256,0,.20996-.16992.37256-.37305.37256h-2.34375v1.2334h2.03906c.20312,0,.37305.16895.37305.37891,0,.20361-.16992.36621-.37305.36621h-2.03906v1.27344h2.37793c.20312,0,.37207.16943.37207.37305,0,.20996-.16895.37207-.37207.37207h-2.79102c-.2373,0-.4209-.18262-.4209-.41992Z"
         fill="#1f1f1f"
         id="path369" />
      <path
         d="m298.07617,83.99707c-.0957-.06738-.16309-.18262-.16309-.31836,0-.2168.17676-.38623.39355-.38623.11523,0,.18945.03369.24414.07471.39258.31152.8125.48779,1.32715.48779s.84082-.24365.84082-.59619v-.01367c0-.33887-.19043-.52148-1.07129-.72461-1.00879-.24414-1.57812-.54199-1.57812-1.41602v-.01367c0-.81299.67676-1.37549,1.61914-1.37549.59668,0,1.07715.15576,1.50391.44043.09473.0542.18262.16943.18262.33203,0,.2168-.17578.38623-.39258.38623-.08105,0-.14941-.02051-.2168-.06104-.36621-.23682-.71875-.35889-1.09082-.35889-.4873,0-.77246.25049-.77246.56201v.01367c0,.36572.2168.52832,1.13184.74512,1.00293.24414,1.51758.60303,1.51758,1.38916v.01367c0,.88721-.69824,1.41553-1.69434,1.41553-.64355,0-1.25293-.20312-1.78125-.59619Z"
         fill="#1f1f1f"
         id="path371" />
      <path
         d="m302.76172,84.10547v-3.90234c0-.2373.18359-.41992.4209-.41992h2.75684c.20312,0,.37305.16943.37305.37256,0,.20996-.16992.37256-.37305.37256h-2.34375v1.2334h2.03906c.20312,0,.37305.16895.37305.37891,0,.20361-.16992.36621-.37305.36621h-2.03906v1.27344h2.37793c.20312,0,.37207.16943.37207.37305,0,.20996-.16895.37207-.37207.37207h-2.79102c-.2373,0-.4209-.18262-.4209-.41992Z"
         fill="#1f1f1f"
         id="path373" />
      <path
         d="m308.72559,80.55566h-1.15137c-.2168,0-.38672-.17627-.38672-.38623s.16992-.38623.38672-.38623h3.15039c.20996,0,.37891.17627.37891.38623s-.16895.38623-.37891.38623h-1.1582v3.59082c0,.22998-.19043.41309-.4209.41309-.22949,0-.41992-.18311-.41992-.41309v-3.59082Z"
         fill="#1f1f1f"
         id="path375" />
    </g>
    <g
       id="g389">
      <path
         d="m134.60156,80.55518h-1.15234c-.2168,0-.38574-.17627-.38574-.38623s.16895-.38574.38574-.38574h3.15039c.20996,0,.37988.17578.37988.38574s-.16992.38623-.37988.38623h-1.1582v3.59082c0,.23047-.18945.41357-.41992.41357s-.41992-.18311-.41992-.41357v-3.59082Z"
         fill="#1f1f1f"
         id="path379" />
      <path
         d="m137.98047,84.10547v-3.90234c0-.2373.18262-.41992.41992-.41992h2.75684c.20312,0,.37207.16895.37207.37207,0,.21045-.16895.37305-.37207.37305h-2.34375v1.23291h2.03906c.20312,0,.37207.16943.37207.37939,0,.20312-.16895.36572-.37207.36572h-2.03906v1.27393h2.37793c.20312,0,.37207.16895.37207.37256,0,.20996-.16895.37256-.37207.37256h-2.79102c-.2373,0-.41992-.18262-.41992-.41992Z"
         fill="#1f1f1f"
         id="path381" />
      <path
         d="m142.70508,80.17578c0-.23047.18359-.41992.41992-.41992h.08887c.18262,0,.30469.09473.38574.22363l1.43652,2.24902,1.44238-2.25586c.08887-.14258.21094-.2168.37988-.2168h.08789c.2373,0,.4209.18945.4209.41992v3.97021c0,.23047-.18359.41357-.4209.41357-.22363,0-.41309-.18994-.41309-.41357v-2.84521l-1.1582,1.74121c-.08789.13525-.19727.2168-.35254.2168-.14941,0-.25684-.08154-.3457-.2168l-1.15137-1.72803v2.83887c0,.22998-.18359.40674-.41406.40674-.22949,0-.40625-.17676-.40625-.40674v-3.97705Z"
         fill="#1f1f1f"
         id="path383" />
      <path
         d="m148.83398,80.20312c0-.2373.18262-.41992.41992-.41992h1.44922c1.11133,0,1.80273.62988,1.80273,1.58496v.01367c0,1.06348-.85352,1.61914-1.89746,1.61914h-.94141v1.14502c0,.23047-.18262.41357-.41309.41357-.2373,0-.41992-.18311-.41992-.41357v-3.94287Zm1.80176,2.0459c.62988,0,1.02246-.35254,1.02246-.84668v-.01367c0-.55566-.39941-.84668-1.02246-.84668h-.96875v1.70703h.96875Z"
         fill="#1f1f1f"
         id="path385" />
      <path
         d="m153.37402,82.16797v-.01367c0-1.33496,1.03027-2.45264,2.4873-2.45264,1.45605,0,2.47266,1.104,2.47266,2.43896v.01367c0,1.33447-1.03027,2.45215-2.48633,2.45215-1.45703,0-2.47363-1.104-2.47363-2.43848Zm4.08496,0v-.01367c0-.92139-.66992-1.68701-1.61133-1.68701-.94238,0-1.59961.75195-1.59961,1.67334v.01367c0,.92139.6709,1.68018,1.61328,1.68018.94141,0,1.59766-.74561,1.59766-1.6665Z"
         fill="#1f1f1f"
         id="path387" />
    </g>
    <g
       id="g401">
      <path
         d="m173.28125,83.99707c-.09473-.06787-.16211-.18311-.16211-.31836,0-.2168.17578-.38623.39258-.38623.11523,0,.18945.03369.24414.07471.39258.31152.8125.4873,1.32812.4873.51465,0,.83984-.24365.83984-.5957v-.01367c0-.33887-.18945-.52197-1.07031-.7251-1.00977-.24365-1.5791-.54199-1.5791-1.41602v-.01318c0-.81348.67773-1.37549,1.62012-1.37549.5957,0,1.07617.15576,1.50391.43994.09375.05469.18262.16992.18262.33203,0,.2168-.17676.38672-.39355.38672-.08105,0-.14844-.02051-.2168-.06152-.36523-.23682-.71777-.35889-1.08984-.35889-.48828,0-.77344.25049-.77344.5625v.01318c0,.36621.2168.52881,1.13184.74561,1.00293.24365,1.51758.60303,1.51758,1.38867v.01367c0,.88721-.69824,1.41602-1.69336,1.41602-.64355,0-1.25293-.20361-1.78223-.59619Z"
         fill="#1f1f1f"
         id="path391" />
      <path
         d="m179.07422,80.55518h-1.15234c-.2168,0-.38574-.17627-.38574-.38623s.16895-.38574.38574-.38574h3.15039c.21094,0,.37988.17578.37988.38574s-.16895.38623-.37988.38623h-1.1582v3.59082c0,.23047-.18945.41357-.41992.41357s-.41992-.18311-.41992-.41357v-3.59082Z"
         fill="#1f1f1f"
         id="path393" />
      <path
         d="m182.45312,84.10547v-3.90234c0-.2373.18262-.41992.41992-.41992h2.75684c.2041,0,.37305.16895.37305.37207,0,.21045-.16895.37305-.37305.37305h-2.34375v1.23291h2.03906c.20312,0,.37305.16943.37305.37939,0,.20312-.16992.36572-.37305.36572h-2.03906v1.27393h2.37793c.20312,0,.37305.16895.37305.37256,0,.20996-.16992.37256-.37305.37256h-2.79102c-.2373,0-.41992-.18262-.41992-.41992Z"
         fill="#1f1f1f"
         id="path395" />
      <path
         d="m187.17773,80.20312c0-.2373.18359-.41992.4209-.41992h1.4502c1.11035,0,1.80176.62988,1.80176,1.58496v.01367c0,1.06348-.85449,1.61914-1.89746,1.61914h-.94141v1.14502c0,.23047-.18359.41357-.41309.41357-.2373,0-.4209-.18311-.4209-.41357v-3.94287Zm1.80273,2.0459c.62988,0,1.02344-.35254,1.02344-.84668v-.01367c0-.55566-.40039-.84668-1.02344-.84668h-.96875v1.70703h.96875Z"
         fill="#1f1f1f"
         id="path397" />
      <path
         d="m191.79102,83.99707c-.09375-.06787-.16211-.18311-.16211-.31836,0-.2168.17578-.38623.39258-.38623.11523,0,.18945.03369.24414.07471.39258.31152.8125.4873,1.32812.4873.51465,0,.83984-.24365.83984-.5957v-.01367c0-.33887-.18945-.52197-1.07031-.7251-1.00977-.24365-1.57812-.54199-1.57812-1.41602v-.01318c0-.81348.67676-1.37549,1.61914-1.37549.5957,0,1.07715.15576,1.50391.43994.09473.05469.18262.16992.18262.33203,0,.2168-.17578.38672-.39258.38672-.08105,0-.14941-.02051-.2168-.06152-.36621-.23682-.71875-.35889-1.09082-.35889-.48828,0-.77246.25049-.77246.5625v.01318c0,.36621.2168.52881,1.13184.74561,1.00195.24365,1.51758.60303,1.51758,1.38867v.01367c0,.88721-.69824,1.41602-1.69434,1.41602-.64355,0-1.25293-.20361-1.78223-.59619Z"
         fill="#1f1f1f"
         id="path399" />
    </g>
    <g
       id="g411">
      <path
         d="m146.57227,27.36084c-.21289-.15039-.3623-.42529-.3623-.72607,0-.5.40039-.88818.90137-.88818.25,0,.4248.0874.5498.17529.66309.48779,1.38867.78809,2.23926.78809.78906,0,1.26367-.3125,1.26367-.82568v-.0249c0-.48828-.2998-.73828-1.76367-1.11377-1.76367-.45068-2.90234-.93848-2.90234-2.67725v-.02539c0-1.58887,1.27539-2.64014,3.06445-2.64014,1.06445,0,1.99023.27539,2.77832.77588.21289.125.4248.3877.4248.76318,0,.50049-.40039.88818-.90039.88818-.1875,0-.33789-.0498-.48828-.1377-.6377-.375-1.23828-.58789-1.83887-.58789-.73828,0-1.12598.33789-1.12598.76367v.02441c0,.57617.375.76367,1.88867,1.15137,1.77734.46289,2.77832,1.10107,2.77832,2.62793v.02441c0,1.73926-1.32617,2.71533-3.21582,2.71533-1.15039,0-2.31445-.3501-3.29102-1.05078Z"
         fill="#1f1f1f"
         id="path403" />
      <path
         d="m154.8877,27.32324v-6.83203c0-.5376.4248-.96289.96387-.96289h4.85352c.47656,0,.86328.3877.86328.86328s-.38672.85059-.86328.85059h-3.90332v1.77686h3.34082c.47559,0,.86328.3877.86328.86328s-.3877.85107-.86328.85107h-3.34082v1.83887h3.96582c.47656,0,.86328.38818.86328.86328,0,.47559-.38672.85107-.86328.85107h-4.91602c-.53906,0-.96387-.42529-.96387-.96338Z"
         fill="#1f1f1f"
         id="path405" />
      <path
         d="m162.7959,23.93262v-.02539c0-2.48975,1.96387-4.5293,4.66699-4.5293s4.64258,2.01465,4.64258,4.50439v.0249c0,.92578-.28809,1.78906-.77637,2.51514l.37598.31299c.19922.1748.34961.4126.34961.72559,0,.50049-.40039.91309-.90039.91309-.2627,0-.48828-.1123-.63867-.2627l-.47461-.42529c-.73828.47559-1.62695.75049-2.60352.75049-2.70215,0-4.6416-2.01416-4.6416-4.50391Zm4.55469.98828c0-.50049.40039-.91357.90137-.91357.26172,0,.4375.0874.6377.26318l.96387.86328c.14941-.35059.2373-.76367.2373-1.20117v-.02539c0-1.50146-1.10156-2.75244-2.65332-2.75244-1.55078,0-2.62695,1.22607-2.62695,2.72754v.0249c0,1.50146,1.10156,2.75293,2.65234,2.75293.42578,0,.81348-.0752,1.15137-.23779l-.91309-.77588c-.20117-.1748-.35059-.41309-.35059-.72559Z"
         fill="#1f1f1f"
         id="path407" />
      <path
         d="m177.51758,27.43555c-.17578-.1499-.32617-.4126-.32617-.68799,0-.50049.42578-.92578.92578-.92578.27539,0,.46387.11279.61328.23779.50098.42529,1.02637.65039,1.71484.65039.72559,0,1.23828-.41309,1.23828-1.06348v-.0249c0-.71338-.6377-1.11377-1.71387-1.11377h-.2998c-.45117,0-.82617-.375-.82617-.82568,0-.2627.1123-.48779.41211-.78857l1.70215-1.71387h-2.69043c-.4502,0-.8252-.37549-.8252-.82568,0-.45068.375-.82568.8252-.82568h4.26758c.5625,0,.97559.3252.97559.85059,0,.47559-.22559.73828-.5752,1.07617l-1.71484,1.63867c1.18945.2002,2.35254.82617,2.35254,2.45264v.0249c0,1.65186-1.20117,2.86523-3.15332,2.86523-1.25098,0-2.18945-.3877-2.90234-1.00098Z"
         fill="#1f1f1f"
         id="path409" />
    </g>
    <g
       id="g421">
      <path
         d="m138.72852,315.12842h-1.00293c-.26465,0-.48145-.2168-.48145-.48096s.2168-.48096.48145-.48096h3.04785c.26562,0,.48242.2168.48242.48096s-.2168.48096-.48242.48096h-1.00195v3.29932c0,.2915-.23047.52197-.52148.52197s-.52148-.23047-.52148-.52197v-3.29932Z"
         fill="#f0f0f0"
         id="path413" />
      <path
         d="m142.16406,314.68848c0-.2915.23047-.52197.52148-.52197h1.64648c.60254,0,1.07031.16943,1.38184.48096.26465.26416.40723.63672.40723,1.08398v.01367c0,.74512-.37305,1.20605-.94922,1.44287l.72461.88086c.10156.12842.16992.23682.16992.3999,0,.29102-.24414.48096-.49414.48096-.23828,0-.39355-.11523-.51562-.271l-1.01562-1.28711h-.83398v1.03613c0,.2915-.23047.52197-.52148.52197s-.52148-.23047-.52148-.52197v-3.73926Zm2.09961,1.78125c.50781,0,.7998-.27051.7998-.67041v-.01367c0-.44678-.31152-.67725-.81934-.67725h-1.03711v1.36133h1.05664Z"
         fill="#f0f0f0"
         id="path415" />
      <path
         d="m147.34375,314.64746c0-.29102.22949-.52148.52148-.52148.29102,0,.52148.23047.52148.52148v3.78027c0,.2915-.23047.52197-.52148.52197-.29199,0-.52148-.23047-.52148-.52197v-3.78027Z"
         fill="#f0f0f0"
         id="path417" />
      <path
         d="m149.54297,316.55127v-.01367c0-1.34814,1.05078-2.45264,2.48633-2.45264.71875,0,1.19336.16309,1.62012.46094.10156.07422.2168.2168.2168.41992,0,.28467-.23047.51514-.51465.51514-.14941,0-.24414-.0542-.31836-.1084-.28516-.20361-.58984-.3252-1.03711-.3252-.75879,0-1.36133.67041-1.36133,1.47705v.01318c0,.86719.5957,1.50439,1.43555,1.50439.37988,0,.71875-.09521.98242-.28467v-.67773h-.7041c-.25098,0-.4541-.19629-.4541-.44678,0-.25098.20312-.4541.4541-.4541h1.19238c.29102,0,.52148.23047.52148.52148v1.15186c0,.30518-.11523.51514-.36523.66406-.38672.23682-.94922.47412-1.66016.47412-1.47656,0-2.49414-1.03662-2.49414-2.43896Z"
         fill="#f0f0f0"
         id="path419" />
    </g>
    <g
       id="g429">
      <path
         d="m99.51074,316.55127v-.01367c0-1.34814,1.0166-2.45264,2.47363-2.45264.71094,0,1.19238.18994,1.58496.48145.1084.08105.20312.23047.20312.41309,0,.28467-.23047.50781-.51465.50781-.14258,0-.2373-.05371-.31152-.10156-.29199-.2168-.59668-.33838-.96875-.33838-.7998,0-1.37598.66357-1.37598,1.47705v.01318c0,.81299.5625,1.49072,1.37598,1.49072.44043,0,.73145-.13574,1.0293-.37305.08105-.06738.18945-.11475.31152-.11475.26465,0,.48828.2168.48828.48096,0,.1626-.08105.29102-.17676.37256-.42676.37256-.92773.59619-1.68652.59619-1.39551,0-2.43262-1.07715-2.43262-2.43896Z"
         fill="#f0f0f0"
         id="path423" />
      <path
         d="m106.19629,318.57031l-1.53711-3.67871c-.03418-.08154-.06152-.16309-.06152-.25098,0-.29102.23047-.51465.52148-.51465.27148,0,.44727.15576.52832.36572l1.18555,3.06885,1.19922-3.10254c.06836-.16943.25098-.33203.50195-.33203.28418,0,.51465.2168.51465.50098,0,.08154-.02734.16992-.05371.23047l-1.55176,3.71289c-.1084.25732-.30469.41309-.58984.41309h-.06738c-.28418,0-.48145-.15576-.58984-.41309Z"
         fill="#f0f0f0"
         id="path425" />
      <path
         d="m111.85254,318.44824c-.09473-.08105-.17578-.22363-.17578-.37256,0-.271.23047-.50146.50098-.50146.14941,0,.25098.06104.33203.12891.27148.23047.55566.35205.92871.35205.39258,0,.6709-.22314.6709-.57568v-.01367c0-.38623-.3457-.60303-.92871-.60303h-.16211c-.24414,0-.44727-.20312-.44727-.44678,0-.14258.06055-.26465.22363-.42676l.9209-.92871h-1.45605c-.24414,0-.44727-.20312-.44727-.44678,0-.24414.20312-.44727.44727-.44727h2.30957c.30469,0,.52832.17627.52832.46045,0,.25781-.12109.3999-.31152.58301l-.92773.8877c.64355.1084,1.27344.44678,1.27344,1.32764v.01318c0,.89453-.65039,1.55176-1.70703,1.55176-.67773,0-1.18555-.20996-1.57227-.54199Z"
         fill="#f0f0f0"
         id="path427" />
    </g>
    <g
       id="g437">
      <path
         d="m23.31055,316.55127v-.01367c0-1.34814,1.0166-2.45264,2.47363-2.45264.71094,0,1.19238.18994,1.58496.48145.1084.08105.20312.23047.20312.41309,0,.28467-.23047.50781-.51465.50781-.14258,0-.2373-.05371-.31152-.10156-.29199-.2168-.59668-.33838-.96875-.33838-.7998,0-1.37598.66357-1.37598,1.47705v.01318c0,.81299.5625,1.49072,1.37598,1.49072.44043,0,.73145-.13574,1.0293-.37305.08105-.06738.18945-.11475.31152-.11475.26465,0,.48828.2168.48828.48096,0,.1626-.08105.29102-.17676.37256-.42676.37256-.92773.59619-1.68652.59619-1.39551,0-2.43262-1.07715-2.43262-2.43896Z"
         fill="#f0f0f0"
         id="path431" />
      <path
         d="m29.99609,318.57031l-1.53711-3.67871c-.03418-.08154-.06152-.16309-.06152-.25098,0-.29102.23047-.51465.52148-.51465.27148,0,.44727.15576.52832.36572l1.18555,3.06885,1.19922-3.10254c.06836-.16943.25098-.33203.50195-.33203.28418,0,.51465.2168.51465.50098,0,.08154-.02734.16992-.05371.23047l-1.55176,3.71289c-.1084.25732-.30469.41309-.58984.41309h-.06738c-.28418,0-.48145-.15576-.58984-.41309Z"
         fill="#f0f0f0"
         id="path433" />
      <path
         d="m36.32324,315.15576l-.36523.09473c-.05469.01367-.12891.02686-.18359.02686-.24414,0-.4541-.20312-.4541-.44678,0-.21045.13574-.38623.3457-.44727l.6709-.19678c.19629-.05371.3457-.08789.48828-.08789h.0127c.28516,0,.51562.23047.51562.51514v3.8208c0,.28467-.23047.51514-.51562.51514-.28418,0-.51465-.23047-.51465-.51514v-3.27881Z"
         fill="#f0f0f0"
         id="path435" />
    </g>
    <g
       id="g449">
      <path
         d="m288.27246,314.68848c0-.2915.22949-.52197.52148-.52197h1.64648c.60254,0,1.07031.16943,1.38184.48096.26367.26416.40625.63672.40625,1.08398v.01367c0,.74512-.37305,1.20605-.94824,1.44287l.72461.88086c.10156.12842.16992.23682.16992.3999,0,.29102-.24414.48096-.49512.48096-.2373,0-.39258-.11523-.51465-.271l-1.0166-1.28711h-.83301v1.03613c0,.2915-.23047.52197-.52148.52197-.29199,0-.52148-.23047-.52148-.52197v-3.73926Zm2.09961,1.78125c.50781,0,.7998-.27051.7998-.67041v-.01367c0-.44678-.31152-.67725-.82031-.67725h-1.03613v1.36133h1.05664Z"
         fill="#f0f0f0"
         id="path439" />
      <path
         d="m293.42578,318.38721v-3.69873c0-.2915.23047-.52197.52148-.52197h2.62891c.25781,0,.46777.20996.46777.46729,0,.25781-.20996.46094-.46777.46094h-2.11426v.96191h1.80957c.25684,0,.4668.20996.4668.46777,0,.25732-.20996.46045-.4668.46045h-1.80957v.99561h2.14844c.25684,0,.4668.21045.4668.46777s-.20996.46094-.4668.46094h-2.66309c-.29102,0-.52148-.23047-.52148-.52197Z"
         fill="#f0f0f0"
         id="path441" />
      <path
         d="m298.0752,318.40771c-.11523-.08154-.19629-.23047-.19629-.39307,0-.271.2168-.48096.4873-.48096.13574,0,.23047.04736.29785.09473.35938.26416.75293.42676,1.21289.42676.42676,0,.68457-.16943.68457-.44678v-.01367c0-.26465-.16309-.3999-.95508-.60303-.95508-.24365-1.57227-.5083-1.57227-1.44971v-.01367c0-.86035.69141-1.42969,1.66016-1.42969.57617,0,1.07715.14941,1.50391.41992.11523.06787.23047.20996.23047.41357,0,.271-.2168.48096-.48828.48096-.10156,0-.18262-.02734-.26367-.07422-.3457-.20361-.6709-.31885-.99609-.31885-.39941,0-.60938.18311-.60938.41357v.01367c0,.31152.20312.41309,1.02246.62305.96191.25049,1.50391.59619,1.50391,1.42285v.01367c0,.94141-.71777,1.46973-1.74121,1.46973-.62305,0-1.25293-.18945-1.78125-.56885Z"
         fill="#f0f0f0"
         id="path443" />
      <path
         d="m302.74219,318.38721v-3.69873c0-.2915.22949-.52197.52148-.52197h2.62793c.25781,0,.46777.20996.46777.46729,0,.25781-.20996.46094-.46777.46094h-2.11328v.96191h1.80859c.25781,0,.46777.20996.46777.46777,0,.25732-.20996.46045-.46777.46045h-1.80859v.99561h2.14746c.25781,0,.46777.21045.46777.46777s-.20996.46094-.46777.46094h-2.66211c-.29199,0-.52148-.23047-.52148-.52197Z"
         fill="#f0f0f0"
         id="path445" />
      <path
         d="m308.63379,315.12842h-1.00293c-.26367,0-.48047-.2168-.48047-.48096s.2168-.48096.48047-.48096h3.04883c.26465,0,.48145.2168.48145.48096s-.2168.48096-.48145.48096h-1.00293v3.29932c0,.2915-.23047.52197-.52148.52197s-.52148-.23047-.52148-.52197v-3.29932Z"
         fill="#f0f0f0"
         id="path447" />
    </g>
    <g
       id="g457">
      <path
         d="m253.71777,314.68848c0-.2915.22949-.52197.52148-.52197h1.64648c.60254,0,1.07031.16943,1.38184.48096.26367.26416.40625.63672.40625,1.08398v.01367c0,.74512-.37305,1.20605-.94824,1.44287l.72461.88086c.10156.12842.16992.23682.16992.3999,0,.29102-.24414.48096-.49512.48096-.2373,0-.39258-.11523-.51465-.271l-1.0166-1.28711h-.83301v1.03613c0,.2915-.23047.52197-.52148.52197-.29199,0-.52148-.23047-.52148-.52197v-3.73926Zm2.09961,1.78125c.50781,0,.7998-.27051.7998-.67041v-.01367c0-.44678-.31152-.67725-.82031-.67725h-1.03613v1.36133h1.05664Z"
         fill="#f0f0f0"
         id="path451" />
      <path
         d="m258.78418,316.87646v-2.229c0-.29102.23047-.52148.52148-.52148.29199,0,.52246.23047.52246.52148v2.20215c0,.77197.38574,1.17188,1.02246,1.17188s1.02344-.38623,1.02344-1.13818v-2.23584c0-.29102.23047-.52148.52148-.52148s.52148.23047.52148.52148v2.19531c0,1.43604-.80566,2.14062-2.08008,2.14062-1.27344,0-2.05273-.71143-2.05273-2.10693Z"
         fill="#f0f0f0"
         id="path453" />
      <path
         d="m264.24512,314.66113c0-.2915.23047-.52148.52148-.52148h.1084c.25098,0,.40039.12158.54199.30469l2.0127,2.64209v-2.4458c0-.28418.23047-.51465.51465-.51465s.51465.23047.51465.51465v3.77344c0,.2915-.23047.52197-.52148.52197h-.03418c-.25,0-.39941-.12207-.54199-.30518l-2.08594-2.73682v2.54053c0,.28467-.23047.51514-.51562.51514-.28418,0-.51465-.23047-.51465-.51514v-3.77344Z"
         fill="#f0f0f0"
         id="path455" />
    </g>
  </g>
  <g
     id="uuid-f6f88346-73b2-460d-b38e-bd003c26e72a"
     data-name="components"
     style="display:none"
     inkscape:groupmode="layer">
    <circle
       id="uuid-41ee6727-85f0-4b8a-a485-f337ca47ed34"
       data-name="Clk#SmallLight"
       cx="222.65628"
       cy="98.908768"
       r="3"
       fill="#ff00ff" />
    <circle
       id="uuid-557b13f0-4a5d-463b-b878-2a8d14f0aaac"
       data-name="Pos1#TinyLight"
       cx="41.528332"
       cy="274.90924"
       r="1.5"
       fill="#ff00ff" />
    <circle
       id="uuid-1136e986-df54-4257-a9ae-d670d8f1bb9c"
       data-name="Pos2#TinyLight"
       cx="79.971413"
       cy="274.90924"
       r="1.5"
       fill="#ff00ff" />
    <circle
       id="uuid-1b3af51b-17fe-4931-a1c6-8cad85fa2b82"
       data-name="Pos3##TinyLight"
       cx="118.4145"
       cy="274.90924"
       r="1.5"
       fill="#ff00ff" />
    <circle
       id="uuid-bddd7588-1ce5-4027-b184-1d73028f54ed"
       data-name="Pos4##TinyLight"
       cx="156.85757"
       cy="274.90924"
       r="1.5"
       fill="#ff00ff" />
    <circle
       id="uuid-129002ef-6a32-47bc-b497-b285eb38812a"
       data-name="Pos5#TinyLight"
       cx="195.30066"
       cy="274.90924"
       r="1.5"
       fill="#ff00ff" />
    <circle
       id="uuid-2b61815e-7401-4e28-a01f-e8b5a6b9d256"
       data-name="Pos6#TinyLight"
       cx="233.74374"
       cy="274.90924"
       r="1.5"
       fill="#ff00ff" />
    <circle
       id="uuid-04baaac0-8b85-4c40-a5c6-a159ed3459e9"
       data-name="Pos7#TinyLight"
       cx="272.18683"
       cy="274.90924"
       r="1.5"
       fill="#ff00ff" />
    <circle
       id="uuid-eba8bd27-9adb-4527-aebe-e540cfe236c6"
       data-name="Pos8#TinyLight"
       cx="310.62991"
       cy="274.90924"
       r="1.5"
       fill="#ff00ff" />
    <circle
       id="uuid-6550a826-69b2-4338-85df-b579a5f08bfb"
       data-name="RunExt#PJ301MPort"
       cx="261.09381"
       cy="51.436951"
       r="5"
       fill="#00ff00" />
    <circle
       id="uuid-9654ba8a-d406-4bcb-baed-51a7fa5d608c"
       data-name="ClkExt#PJ301MPort"
       cx="222.65628"
       cy="51.436951"
       r="5"
       fill="#00ff00" />
    <circle
       id="uuid-d35406ca-ff6e-4e88-8ae0-95164c30eace"
       data-name="ResetExt#PJ301MPort"
       cx="299.53131"
       cy="51.436951"
       r="5"
       fill="#00ff00" />
    <circle
       id="uuid-8344beac-f177-463d-b370-c048b2b566f8"
       data-name="StepsCv#PJ301MPort"
       cx="184.21877"
       cy="51.102188"
       r="5"
       fill="#00ff00" />
    <circle
       id="uuid-9486dbcc-1358-4ee7-b524-635b10a18c5a"
       data-name="Tempo#PJ301MPort"
       cx="145.78123"
       cy="51.102188"
       r="5"
       fill="#00ff00" />
    <circle
       id="uuid-ca6f7f46-b105-463f-9c08-c64f3cf99c5b"
       data-name="Gate1#PJ301MPort"
       cx="30.468679"
       cy="285.99994"
       r="5"
       fill="#0000ff" />
    <circle
       id="uuid-733807d0-1108-430c-80d9-4bb0804e25bd"
       data-name="Gate2#PJ301MPort"
       cx="68.906197"
       cy="285.99994"
       r="5"
       fill="#0000ff" />
    <circle
       id="uuid-04f9f39e-2e05-4329-8902-a93e7a2df287"
       data-name="Gate3#PJ301MPort"
       cx="107.34372"
       cy="285.99994"
       r="5"
       fill="#0000ff" />
    <circle
       id="uuid-2694d0b8-d2fd-4d1a-b9f3-1a05633f2ada"
       data-name="Gate4#PJ301MPort"
       cx="145.78123"
       cy="285.99994"
       r="5"
       fill="#0000ff" />
    <circle
       id="uuid-8c83fbfd-083f-47a5-aaab-aef793de5019"
       data-name="Gate5#PJ301MPort"
       cx="184.21877"
       cy="285.99994"
       r="5"
       fill="#0000ff" />
    <circle
       id="uuid-a4e67068-f222-44dc-b0ac-f3be7f880b71"
       data-name="Gate6#PJ301MPort"
       cx="222.65628"
       cy="285.99994"
       r="5"
       fill="#0000ff" />
    <circle
       id="uuid-42d39b45-fee8-4c96-bcc2-9b0cab95be83"
       data-name="Gate7#PJ301MPort"
       cx="261.09381"
       cy="285.99994"
       r="5"
       fill="#0000ff" />
    <circle
       id="uuid-3c654457-e4c8-4b6a-8abb-43532e0d2b76"
       data-name="Gate8#PJ301MPort"
       cx="299.53131"
       cy="285.99994"
       r="5"
       fill="#0000ff" />
    <circle
       id="uuid-17d3ffb7-d9fe-4310-8306-cb149b4e175a"
       data-name="Run#LEDButton"
       cx="261.09381"
       cy="99.44455"
       r="5"
       fill="#ff0000" />
    <circle
       id="uuid-8d923c43-16d7-44c0-bbd8-006bf1b3455c"
       data-name="Reset#LEDButton"
       cx="299.53131"
       cy="99.44455"
       r="5"
       fill="#ff0000" />
    <circle
       id="uuid-558f2f27-5735-4633-9bae-86e50078eb73"
       data-name="Gate1#LEDButton"
       cx="30.468679"
       cy="253.34979"
       r="5.2161698"
       fill="#ff0000" />
    <circle
       id="uuid-53ab746a-aede-4d14-b23b-604235646c19"
       data-name="Gate2#LEDButton"
       cx="68.906197"
       cy="253.34979"
       r="5.2161698"
       fill="#ff0000" />
    <circle
       id="uuid-7d2bf2a2-1089-45c9-a5ab-7b076575cb8a"
       data-name="Gate3#LEDButton"
       cx="107.34372"
       cy="253.34979"
       r="5.2161698"
       fill="#ff0000" />
    <circle
       id="uuid-161c57e0-94da-483e-8195-981a937bfb0c"
       data-name="Gate4#LEDButton"
       cx="145.78123"
       cy="253.34979"
       r="5.2161698"
       fill="#ff0000" />
    <circle
       id="uuid-1f07043e-51ab-4f26-bc86-86b83a381fb9"
       data-name="Gate5#LEDButton"
       cx="184.21877"
       cy="253.34979"
       r="5.2161698"
       fill="#ff0000" />
    <circle
       id="uuid-8c667612-2410-46ce-b7a9-f145943034f9"
       data-name="Gate6#LEDButton"
       cx="222.65628"
       cy="253.34979"
       r="5.2161698"
       fill="#ff0000" />
    <circle
       id="uuid-0daa6a2b-3e52-4fe5-ad18-19f66db1af27"
       data-name="Gate7#LEDButton"
       cx="261.09381"
       cy="253.34979"
       r="5.2161698"
       fill="#ff0000" />
    <circle
       id="uuid-ec8fbc89-10d1-4475-a49c-004ff5e5d476"
       data-name="Gate8#LEDButton"
       cx="299.53131"
       cy="253.34979"
       r="5.2161698"
       fill="#ff0000" />
    <circle
       id="uuid-7ac1f591-c2cd-42fc-b935-6ba814f2a4a4"
       data-name="Gate#PJ301MPort"
       cx="145.78123"
       cy="334"
       r="5"
       fill="#0000ff" />
    <circle
       id="uuid-2895fba8-2ba2-43f2-a5dc-4b6ae9df7749"
       data-name="Cv3#PJ301MPort"
       cx="107.34372"
       cy="334"
       r="5"
       fill="#0000ff" />
    <circle
       id="uuid-68e15b0f-50fa-474c-8900-b8cb400ff0a2"
       data-name="Cv2#PJ301MPort"
       cx="68.906197"
       cy="334"
       r="5"
       fill="#0000ff" />
    <circle
       id="uuid-03d3fbad-cc6e-48d0-8623-a47cc4f34ea6"
       data-name="Cv1#PJ301MPort"
       cx="30.468679"
       cy="334"
       r="5"
       fill="#0000ff" />
    <circle
       id="uuid-ebfcf1d3-c9bb-45c8-a90e-a76f86e48142"
       data-name="Reset#PJ301MPort"
       cx="299.53131"
       cy="334"
       r="5"
       fill="#0000ff" />
    <circle
       id="uuid-a372c347-48ad-432c-b5c9-95031d6e9b5f"
       data-name="Run#PJ301MPort"
       cx="261.09381"
       cy="334"
       r="5"
       fill="#0000ff" />
    <circle
       id="uuid-2a8d91fa-b268-40d6-9046-842a9d0183f6"
       data-name="Clk#PJ301MPort"
       cx="222.65628"
       cy="334"
       r="5"
       fill="#0000ff" />
    <circle
       id="uuid-b73f8616-9746-482b-b318-016fe122c768"
       data-name="Steps#PJ301MPort"
       cx="184.21877"
       cy="334"
       r="5"
       fill="#0000ff" />
    <circle
       id="uuid-15b277e3-4c88-44f9-9d90-b353176b17e2"
       data-name="CV21#RoundBlackKnob"
       cx="30.468679"
       cy="178.95641"
       r="5"
       fill="#ff0000" />
    <circle
       id="uuid-273f9faf-fd53-409f-8ec1-0ed84e581a75"
       data-name="CV11#RoundBlackKnob"
       cx="30.468679"
       cy="137.48773"
       r="5"
       fill="#ff0000" />
    <circle
       id="uuid-dc64903b-cf30-4ebb-9bfb-427d518dbdf5"
       data-name="CV31#RoundBlackKnob"
       cx="30.468679"
       cy="220.28929"
       r="5"
       fill="#ff0000" />
    <circle
       id="uuid-af377857-e633-441c-949c-c807adfaee38"
       data-name="CV22#RoundBlackKnob"
       cx="68.906197"
       cy="178.95641"
       r="5"
       fill="#ff0000" />
    <circle
       id="uuid-9b12405b-f600-4bec-9b08-eccf35dd27da"
       data-name="CV12#RoundBlackKnob"
       cx="68.906197"
       cy="137.48773"
       r="5"
       fill="#ff0000" />
    <circle
       id="uuid-500cde9a-c2c3-439d-ac54-004b3c5479f2"
       data-name="CV32#RoundBlackKnob"
       cx="68.906197"
       cy="220.28929"
       r="5"
       fill="#ff0000" />
    <circle
       id="uuid-fa506fe9-099f-45f4-b887-0aa8da241a9d"
       data-name="CV23#RoundBlackKnob"
       cx="107.34372"
       cy="178.95641"
       r="5"
       fill="#ff0000" />
    <circle
       id="uuid-8599beda-5b44-48dc-af36-56a39389702a"
       data-name="CV13#RoundBlackKnob"
       cx="107.34372"
       cy="137.48773"
       r="5"
       fill="#ff0000" />
    <circle
       id="uuid-11bd9d8d-205e-46fb-8f91-750c3fe9bf9a"
       data-name="CV33#RoundBlackKnob"
       cx="107.34372"
       cy="220.28929"
       r="5"
       fill="#ff0000" />
    <circle
       id="uuid-0814963c-8715-42c1-964b-d0b127e2318c"
       data-name="CV24#RoundBlackKnob"
       cx="145.78123"
       cy="178.95641"
       r="5"
       fill="#ff0000" />
    <circle
       id="uuid-e7c2481f-0a7e-4349-92ac-d29b76dbcbfe"
       data-name="CV14#RoundBlackKnob"
       cx="145.78123"
       cy="137.48773"
       r="5"
       fill="#ff0000" />
    <circle
       id="uuid-6a403bb5-0fa7-4730-9d21-81a91424c7de"
       data-name="CV34#RoundBlackKnob"
       cx="145.78123"
       cy="220.28929"
       r="5"
       fill="#ff0000" />
    <circle
       id="uuid-9f435131-0e86-4cb5-af77-e8015643f13c"
       data-name="CV25#RoundBlackKnob"
       cx="184.21877"
       cy="178.95641"
       r="5"
       fill="#ff0000" />
    <circle
       id="uuid-e75e311a-6705-4fe8-b98e-515b9931a666"
       data-name="CV15#RoundBlackKnob"
       cx="184.21877"
       cy="137.48773"
       r="5"
       fill="#ff0000" />
    <circle
       id="uuid-9dc4da00-a21a-41a3-b1c7-ec7a4954e2ac"
       data-name="CV35#RoundBlackKnob"
       cx="184.21877"
       cy="220.28929"
       r="5"
       fill="#ff0000" />
    <circle
       id="uuid-41b2eb1b-3430-4f2b-af5c-526ecd3225ed"
       data-name="CV26#RoundBlackKnob"
       cx="222.65628"
       cy="178.95641"
       r="5"
       fill="#ff0000" />
    <circle
       id="uuid-7c1848e7-c987-4644-98aa-669ea8afcba7"
       data-name="CV16#RoundBlackKnob"
       cx="222.65628"
       cy="137.48773"
       r="5"
       fill="#ff0000" />
    <circle
       id="uuid-013e0ca1-565b-4e30-bd85-20b8eb3f02ce"
       data-name="CV36#RoundBlackKnob"
       cx="222.65628"
       cy="220.28929"
       r="5"
       fill="#ff0000" />
    <circle
       id="uuid-04b72aa8-1b5a-4026-a3ae-9880e53a7e95"
       data-name="CV27#RoundBlackKnob"
       cx="261.09381"
       cy="178.95641"
       r="5"
       fill="#ff0000" />
    <circle
       id="uuid-34c02921-0c86-4086-be51-73be2d14b349"
       data-name="CV17#RoundBlackKnob"
       cx="261.09381"
       cy="137.48773"
       r="5"
       fill="#ff0000" />
    <circle
       id="uuid-b11928db-8d5a-457f-8596-1b478659a63d"
       data-name="CV37#RoundBlackKnob"
       cx="261.09381"
       cy="220.28929"
       r="5"
       fill="#ff0000" />
    <circle
       id="uuid-5bd10f34-5d39-4ef1-a679-c13cfaeec292"
       data-name="CV28#RoundBlackKnob"
       cx="299.53131"
       cy="178.95641"
       r="5"
       fill="#ff0000" />
    <circle
       id="uuid-020347fc-add7-4f41-903c-75c948bc6397"
       data-name="CV18#RoundBlackKnob"
       cx="299.53131"
       cy="137.48773"
       r="5"
       fill="#ff0000" />
    <circle
       id="uuid-a0cce35e-e536-40bb-8a38-6f71086a6c32"
       data-name="CV38#RoundBlackKnob"
       cx="299.53131"
       cy="220.28929"
       r="5"
       fill="#ff0000" />
    <circle
       id="uuid-bbaa9b8f-3382-46a2-a338-8ecea8205692"
       data-name="Tempo#RoundLargeBlackKnob"
       cx="34.703709"
       cy="78.999893"
       r="5"
       fill="#ff0000" />
    <circle
       id="uuid-526d5944-96b3-44f6-8427-cab1be38e4b1"
       data-name="Steps#RoundLargeBlackKnob"
       cx="94.716743"
       cy="79.079979"
       r="5"
       fill="#ff0000" />
    <circle
       id="uuid-1528d15a-c20d-47fa-890c-83c7cd345f5a"
       data-name="TempoCv#Trimpot"
       cx="145.78419"
       cy="100.58775"
       r="5"
       fill="#ff0000" />
    <circle
       id="uuid-abf7f1c6-d52c-4789-b0bb-7a99bab00c11"
       data-name="StepsCv#Trimpot"
       cx="184.22173"
       cy="100.58775"
       r="5"
       fill="#ff0000" />
  </g>
</svg>
