<?xml version="1.0" encoding="UTF-8" standalone="no"?>
<svg
   xmlns:dc="http://purl.org/dc/elements/1.1/"
   xmlns:cc="http://creativecommons.org/ns#"
   xmlns:rdf="http://www.w3.org/1999/02/22-rdf-syntax-ns#"
   xmlns:svg="http://www.w3.org/2000/svg"
   xmlns="http://www.w3.org/2000/svg"
   xmlns:sodipodi="http://sodipodi.sourceforge.net/DTD/sodipodi-0.dtd"
   xmlns:inkscape="http://www.inkscape.org/namespaces/inkscape"
   width="45"
   height="380"
   viewBox="0 0 45 380"
   version="1.1"
   id="svg94"
   sodipodi:docname="4_1.svg"
   inkscape:version="0.92.3 (2405546, 2018-03-11)">
  <metadata
     id="metadata98">
    <rdf:RDF>
      <cc:Work
         rdf:about="">
        <dc:format>image/svg+xml</dc:format>
        <dc:type
           rdf:resource="http://purl.org/dc/dcmitype/StillImage" />
      </cc:Work>
    </rdf:RDF>
  </metadata>
  <sodipodi:namedview
     pagecolor="#ffffff"
     bordercolor="#666666"
     borderopacity="1"
     objecttolerance="10"
     gridtolerance="10"
     guidetolerance="10"
     inkscape:pageopacity="0"
     inkscape:pageshadow="2"
     inkscape:window-width="1920"
     inkscape:window-height="1017"
     id="namedview96"
     showgrid="false"
     inkscape:zoom="0.62105263"
     inkscape:cx="22.5"
     inkscape:cy="190"
     inkscape:window-x="-8"
     inkscape:window-y="-8"
     inkscape:window-maximized="1"
     inkscape:current-layer="svg94" />
  <defs
     id="defs10">
    <linearGradient
       id="fe7cfbbc-feee-46dd-b601-e99b96fa138e"
       x1="22.5"
       y1="-0.00001"
       x2="22.5"
       y2="379.99999"
       gradientUnits="userSpaceOnUse">
      <stop
         offset="0"
         stop-color="#ebebeb"
         id="stop2" />
      <stop
         offset="1"
         stop-color="#e1e1e1"
         id="stop4" />
    </linearGradient>
  </defs>
  <g
     id="b80d2353-80d5-423e-ae42-56e5cb5389c8"
     data-name="FND BG">
    <rect
       y="-0.00001"
       width="45"
       height="380"
       fill="url(#fe7cfbbc-feee-46dd-b601-e99b96fa138e)"
       id="rect12" />
  </g>
  <g
     id="ab0d1155-05e0-4b5a-bf46-e8bac5f70a52"
     data-name="FND GRAPH">
    <g
       id="g23">
      <circle
         cx="23.00165"
         cy="355.831"
         r="1.18571"
         fill="#1f1f1f"
         id="circle15" />
      <path
         d="M14.35927,359.753a.91213.91213,0,0,1-.8158-.50419l-2.96428-5.92856a.91209.91209,0,0,1,1.6316-.8158l2.14848,4.297,2.14848-4.297a.91209.91209,0,0,1,1.6316.8158l-2.96428,5.92856A.91211.91211,0,0,1,14.35927,359.753Z"
         fill="#1f1f1f"
         id="path17" />
      <path
         d="M30.64073,359.753a.91211.91211,0,0,1-.8158-.50419l-2.96428-5.92856a.91209.91209,0,0,1,1.6316-.8158l2.14848,4.297,2.14848-4.297a.91209.91209,0,0,1,1.6316.8158l-2.96428,5.92856A.91213.91213,0,0,1,30.64073,359.753Z"
         fill="#1f1f1f"
         id="path19" />
      <path
         d="M22.94242,359.753a3.87637,3.87637,0,1,1,2.32653-6.9772.91209.91209,0,1,1-1.09557,1.45854,2.034,2.034,0,0,0-1.231-.4099,2.05219,2.05219,0,1,0,0,4.10438,2.034,2.034,0,0,0,1.231-.4099.91209.91209,0,1,1,1.09557,1.45854A3.8448,3.8448,0,0,1,22.94242,359.753Z"
         fill="#1f1f1f"
         id="path21" />
    </g>
    <line
       x1="23.03206"
       y1="201.01932"
       x2="23.03206"
       y2="312.92473"
       fill="none"
       stroke="#1f1f1f"
       stroke-linecap="round"
       stroke-linejoin="round"
       stroke-width="0.8"
       id="line25" />
    <rect
       x="8.71626"
       y="309.05632"
       width="28.6316"
       height="39.15691"
       rx="2.83465"
       fill="#1f1f1f"
       id="rect27" />
    <g
       id="use29"
       transform="rotate(-90,24.01894,2.08097)">
      <path
         id="path4814"
         d="M 2.35242,3.42947 4.01038,0.55779 A 0.37186,0.37186 0 0 0 3.68834,0 H 0.37242 a 0.37186,0.37186 0 0 0 -0.322,0.55779 l 1.658,2.87168 a 0.37187,0.37187 0 0 0 0.644,0 z"
         inkscape:connector-curvature="0"
         style="fill:#1f1f1f" />
    </g>
  </g>
  <g
     id="b46944f3-ed92-4475-9230-488daf2844ce"
     data-name="FND TXT">
    <g
       id="g38">
      <path
         d="M16.23242,83.02489v-.01367a2.40028,2.40028,0,0,1,2.44629-2.45264,2.48938,2.48938,0,0,1,1.626.53516.41778.41778,0,0,1,.16211.332.41659.41659,0,0,1-.66407.32519,1.72092,1.72092,0,0,0-1.13085-.42676A1.59634,1.59634,0,0,0,17.10645,82.998v.01319a1.59794,1.59794,0,0,0,1.56543,1.68017,1.69973,1.69973,0,0,0,1.18554-.4541.379.379,0,0,1,.25-.09473.39637.39637,0,0,1,.39356.38623.402.402,0,0,1-.13575.29834,2.42435,2.42435,0,0,1-1.7207.63672A2.38545,2.38545,0,0,1,16.23242,83.02489Z"
         fill="#1f1f1f"
         id="path32" />
      <path
         d="M21.65039,81.01952a.416.416,0,0,1,.832,0V84.624h2.14844a.3794.3794,0,0,1,0,.75879H22.07031a.413.413,0,0,1-.41992-.42041Z"
         fill="#1f1f1f"
         id="path34" />
      <path
         d="M26.00391,81.01952a.416.416,0,0,1,.832,0v2.00537l2.25-2.2627a.43646.43646,0,0,1,.3457-.15576.38087.38087,0,0,1,.38574.38574.40365.40365,0,0,1-.14941.312l-1.47656,1.42237L29.791,84.7119a.453.453,0,0,1,.11523.29785.40734.40734,0,0,1-.4209.40674.42275.42275,0,0,1-.35254-.19678l-1.52343-1.94433-.77344.74511v.98243a.416.416,0,0,1-.832,0Z"
         fill="#1f1f1f"
         id="path36" />
    </g>
    <g
       id="g46">
      <path
         d="M10.95117,48.957l1.45606-1.23975c.65039-.54883.88769-.854.88769-1.28076a.71111.71111,0,0,0-.76562-.73828,1.16,1.16,0,0,0-.93555.52832.38324.38324,0,0,1-.66992-.25049.41634.41634,0,0,1,.09375-.25732,1.83559,1.83559,0,0,1,1.57226-.76563,1.42064,1.42064,0,0,1,1.56543,1.416v.01367c0,.74512-.39355,1.15137-1.23339,1.83594l-.97559.8125h1.9248a.366.366,0,0,1,0,.73193H11.18066a.39983.39983,0,0,1-.44628-.39307A.51644.51644,0,0,1,10.95117,48.957Z"
         fill="#1f1f1f"
         id="path40" />
      <path
         d="M21.20312,49.228a.40036.40036,0,1,1,.542-.58935,1.44263,1.44263,0,0,0,1.07715.4541.74363.74363,0,0,0,.82031-.71875v-.01318c0-.46729-.42774-.73194-1.0918-.73194h-.16894a.36063.36063,0,0,1-.3584-.35888.47252.47252,0,0,1,.17578-.33887l1.11133-1.18555H21.58984a.36258.36258,0,1,1,0-.7251h2.42481a.37335.37335,0,0,1,.41308.36621.60865.60865,0,0,1-.23632.45411L23.07227,46.999c.71875.08789,1.39648.4541,1.39648,1.32812v.01319a1.51922,1.51922,0,0,1-1.66016,1.50439A2.22428,2.22428,0,0,1,21.20312,49.228Z"
         fill="#1f1f1f"
         id="path42" />
      <path
         d="M33.78613,48.6992H31.666a.39175.39175,0,0,1-.40723-.39257.65519.65519,0,0,1,.18262-.44043l2.22949-2.64209a.59059.59059,0,0,1,.50781-.271.40224.40224,0,0,1,.40723.39941v2.6626h.36523a.34294.34294,0,0,1,.34571.34571.33685.33685,0,0,1-.34571.33837h-.36523v.70508a.4.4,0,0,1-.79981,0Zm0-.68408V46.13866l-1.55859,1.87646Z"
         fill="#1f1f1f"
         id="path44" />
    </g>
    <g
       id="g58">
      <path
         d="M11.82812,129.144a.41292.41292,0,0,1,.41993-.41992h1.69336a1.91132,1.91132,0,0,1,1.36816.47412,1.43376,1.43376,0,0,1,.39355,1.02344v.01318a1.40462,1.40462,0,0,1-1.07812,1.416l.9082,1.145a.47938.47938,0,0,1,.13575.31836.39277.39277,0,0,1-.39942.38623.47546.47546,0,0,1-.40625-.21679l-1.15234-1.47022H12.66016v1.27344a.416.416,0,0,1-.832,0Zm2.05274,1.93115c.5957,0,.97461-.31152.97461-.793v-.01367c0-.50781-.36524-.78564-.98242-.78564H12.66016v1.59228Z"
         fill="#1f1f1f"
         id="path48" />
      <path
         d="M16.96094,133.04637V129.144a.41291.41291,0,0,1,.41992-.41992H20.1377a.37556.37556,0,0,1,.37207.37256.37113.37113,0,0,1-.37207.37255H17.793v1.23291h2.04a.37748.37748,0,0,1,.37207.37989.36972.36972,0,0,1-.37207.36572h-2.04v1.27344h2.37891a.3764.3764,0,0,1,.373.37256.37237.37237,0,0,1-.373.373h-2.791A.413.413,0,0,1,16.96094,133.04637Z"
         fill="#1f1f1f"
         id="path50" />
      <path
         d="M21.5752,132.938a.3883.3883,0,0,1,.23046-.70459.38348.38348,0,0,1,.24317.07471,2.05946,2.05946,0,0,0,1.32812.48779c.51563,0,.83985-.24414.83985-.59619V132.186c0-.33838-.18946-.52148-1.07032-.7251-1.00878-.24365-1.57812-.542-1.57812-1.416v-.01319a1.45075,1.45075,0,0,1,1.61914-1.37548,2.61266,2.61266,0,0,1,1.50391.44043.375.375,0,0,1,.18359.332.38807.38807,0,0,1-.39355.38623.4038.4038,0,0,1-.2168-.061,1.97149,1.97149,0,0,0-1.09082-.35937c-.48731,0-.77149.251-.77149.5625v.01367c0,.36572.2168.52832,1.13086.74512,1.002.24414,1.51758.603,1.51758,1.38867v.01367c0,.88769-.69726,1.416-1.69336,1.416A2.95064,2.95064,0,0,1,21.5752,132.938Z"
         fill="#1f1f1f"
         id="path52" />
      <path
         d="M26.26172,133.04637V129.144a.41291.41291,0,0,1,.41992-.41992h2.75684a.37556.37556,0,0,1,.37207.37256.37113.37113,0,0,1-.37207.37255H27.09375v1.23291h2.04a.37748.37748,0,0,1,.37207.37989.36972.36972,0,0,1-.37207.36572h-2.04v1.27344h2.37891a.3764.3764,0,0,1,.373.37256.37237.37237,0,0,1-.373.373h-2.791A.413.413,0,0,1,26.26172,133.04637Z"
         fill="#1f1f1f"
         id="path54" />
      <path
         d="M32.22461,129.49657H31.07324a.38623.38623,0,0,1,0-.77246h3.14942a.38628.38628,0,0,1,0,.77246H33.06445v3.59033a.42.42,0,0,1-.83984,0Z"
         fill="#1f1f1f"
         id="path56" />
    </g>
    <g
       id="g64">
      <path
         d="M19.832,176.60155a.417.417,0,0,1,.834,0v3.9834a.417.417,0,0,1-.834,0Z"
         fill="#1f1f1f"
         id="path60" />
      <path
         d="M22.14258,176.61522a.4168.4168,0,0,1,.41992-.41992h.08789a.52519.52519,0,0,1,.43359.24365l2.3711,3.06885v-2.91309a.41017.41017,0,0,1,.82031,0v3.9834a.40564.40564,0,0,1-.40723.41357H25.834a.52488.52488,0,0,1-.43359-.25048L22.96191,177.584v3.00781a.40968.40968,0,0,1-.81933,0Z"
         fill="#1f1f1f"
         id="path62" />
    </g>
    <g
       id="g72">
      <path
         d="M15.54492,316.55126v-.01368a2.52165,2.52165,0,0,1,5.041-.01318v.01318a2.52166,2.52166,0,0,1-5.041.01368Zm3.94922,0v-.01368a1.44015,1.44015,0,0,0-1.43555-1.49023,1.41837,1.41837,0,0,0-1.42285,1.47705v.01318a1.44138,1.44138,0,0,0,1.43653,1.49073A1.41787,1.41787,0,0,0,19.49414,316.55126Z"
         fill="#f0f0f0"
         id="path66" />
      <path
         d="M21.66406,316.87645v-2.229a.52149.52149,0,1,1,1.043,0v2.20214c0,.772.38672,1.17188,1.02344,1.17188s1.02344-.38623,1.02344-1.13818v-2.23584a.52149.52149,0,1,1,1.043,0v2.19531a1.90916,1.90916,0,0,1-2.08008,2.14062A1.88221,1.88221,0,0,1,21.66406,316.87645Z"
         fill="#f0f0f0"
         id="path68" />
      <path
         d="M28.14844,315.1284h-1.002a.481.481,0,0,1,0-.96191h3.04883a.481.481,0,0,1,0,.96191H29.19238v3.29932a.522.522,0,1,1-1.04394,0Z"
         fill="#f0f0f0"
         id="path70" />
    </g>
    <g
       id="g78">
      <path
         d="M14.89258,26.39745H11.28906a.90319.90319,0,0,1-.93847-.88868,1.5575,1.5575,0,0,1,.45019-1.05078l3.80371-4.417a1.413,1.413,0,0,1,1.20117-.65039.91328.91328,0,0,1,.92579.91309V24.833h.46289a.78471.78471,0,0,1,.78808.78858.774.774,0,0,1-.78808.77588h-.46289v1.05078a.91338.91338,0,0,1-.92579.91357.90264.90264,0,0,1-.91308-.91357Zm0-1.56446V22.10545L12.56543,24.833Z"
         fill="#1f1f1f"
         id="path74" />
      <path
         d="M32.03125,21.355l-.67578.17529a1.574,1.574,0,0,1-.33789.0498.83779.83779,0,0,1-.2002-1.65136l1.23926-.36328a3.45823,3.45823,0,0,1,.90039-.1626h.02539a.94994.94994,0,0,1,.9502.95117v7.05664a.95069.95069,0,1,1-1.90137,0Z"
         fill="#1f1f1f"
         id="path76" />
    </g>
  </g>
  <g
     id="a569232f-c7aa-47d5-8f72-501ec4e917c2"
     data-name="components"
     inkscape:groupmode="layer"
     style="display:none">
    <circle
       id="acde747e-0770-484f-b763-a3e1a0e49fa1"
       data-name="Steps#CKSSThreeH"
       cx="23.032049"
       cy="61.83651"
       r="5"
       style="fill:#ff0000" />
    <circle
       id="a54b8ff0-6e35-4710-96f2-42ab3dd01a76"
       data-name="Clk#PJ301MPort"
       cx="23.032061"
       cy="99.895348"
       r="5"
       style="fill:#00ff00" />
    <circle
       id="b895bfd4-0707-4e2e-bb0f-fad149250cfe"
       data-name="Reset#PJ301MPort"
       cx="23.032061"
       cy="148.01006"
       r="5"
       style="fill:#00ff00" />
    <circle
       id="e98fbe14-33d8-4b2b-adc0-4260a2095805"
       data-name="In1#PJ301MPort"
       cx="23.032061"
       cy="196.00006"
       r="5"
       style="fill:#00ff00" />
    <circle
       id="a084da8d-2489-49de-b2ca-6eae45963a7c"
       data-name="In2#PJ301MPort"
       cx="23.032061"
       cy="226.00006"
       r="5"
       style="fill:#00ff00" />
    <circle
       id="f32f386c-f8c3-40ea-bf9e-a71eb09007fc"
       data-name="In3#PJ301MPort"
       cx="23.032061"
       cy="256.00006"
       r="5"
       style="fill:#00ff00" />
    <circle
       id="a8fce013-09d3-4020-974f-18dfc0b4039d"
       data-name="In4#PJ301MPort"
       cx="23.032061"
       cy="286.00003"
       r="5"
       style="fill:#00ff00" />
    <circle
       id="e63cf230-7edb-4269-9742-03e3f3f62954"
       data-name="Out#PJ301MPort"
       cx="23.032061"
       cy="334"
       r="5"
       style="fill:#0000ff" />
    <circle
       id="a4c15de8-5b9e-4635-9fc8-c54c1d8698af"
       data-name="Pos1#TinyLight"
       cx="34.032059"
       cy="186.7877"
       r="1.5"
       style="fill:#ff00ff" />
    <circle
       id="a9483965-210f-43dd-bf96-97bda0efedf6"
       data-name="Pos2#TinyLight"
       cx="34.032059"
       cy="214.94446"
       r="1.5"
       style="fill:#ff00ff" />
    <circle
       id="eb048629-e983-4770-b95b-2591843cb8cb"
       data-name="Pos3#TinyLight"
       cx="34.032059"
       cy="244.94446"
       r="1.5"
       style="fill:#ff00ff" />
    <circle
       id="aa96ae00-df7d-40b6-a169-a503db53ed88"
       data-name="Pos4#TinyLight"
       cx="34.032059"
       cy="274.94443"
       r="1.5"
       style="fill:#ff00ff" />
  </g>
</svg>
