<?xml version="1.0" encoding="UTF-8" standalone="no"?>
<svg
   xmlns:dc="http://purl.org/dc/elements/1.1/"
   xmlns:cc="http://creativecommons.org/ns#"
   xmlns:rdf="http://www.w3.org/1999/02/22-rdf-syntax-ns#"
   xmlns:svg="http://www.w3.org/2000/svg"
   xmlns="http://www.w3.org/2000/svg"
   xmlns:xlink="http://www.w3.org/1999/xlink"
   xmlns:sodipodi="http://sodipodi.sourceforge.net/DTD/sodipodi-0.dtd"
   xmlns:inkscape="http://www.inkscape.org/namespaces/inkscape"
   width="45"
   height="380"
   viewBox="0 0 45 380"
   version="1.1"
   id="svg94"
   sodipodi:docname="1_4.svg"
   inkscape:version="0.92.3 (2405546, 2018-03-11)">
  <metadata
     id="metadata98">
    <rdf:RDF>
      <cc:Work
         rdf:about="">
        <dc:format>image/svg+xml</dc:format>
        <dc:type
           rdf:resource="http://purl.org/dc/dcmitype/StillImage" />
      </cc:Work>
    </rdf:RDF>
  </metadata>
  <sodipodi:namedview
     pagecolor="#ffffff"
     bordercolor="#666666"
     borderopacity="1"
     objecttolerance="10"
     gridtolerance="10"
     guidetolerance="10"
     inkscape:pageopacity="0"
     inkscape:pageshadow="2"
     inkscape:window-width="1920"
     inkscape:window-height="1017"
     id="namedview96"
     showgrid="false"
     inkscape:zoom="0.62105263"
     inkscape:cx="22.5"
     inkscape:cy="190"
     inkscape:window-x="-8"
     inkscape:window-y="-8"
     inkscape:window-maximized="1"
     inkscape:current-layer="svg94" />
  <defs
     id="defs10">
    <linearGradient
       id="bbc85d75-aa23-44c1-b3f8-d60545f62561"
       x1="22.5"
       y1="-0.00001"
       x2="22.5"
       y2="379.99999"
       gradientUnits="userSpaceOnUse">
      <stop
         offset="0"
         stop-color="#ebebeb"
         id="stop2" />
      <stop
         offset="1"
         stop-color="#e1e1e1"
         id="stop4" />
    </linearGradient>
    <symbol
       id="b6a76dc8-30d1-42d5-aecf-7b9835229cb1"
       data-name="New Symbol 9"
       viewBox="0 0 4.061 3.615">
      <path
         d="M2.35242,3.42947,4.01038.55779A.37186.37186,0,0,0,3.68834,0H.37242a.37186.37186,0,0,0-.322.55779l1.658,2.87168A.37187.37187,0,0,0,2.35242,3.42947Z"
         fill="#1f1f1f"
         id="path7" />
    </symbol>
  </defs>
  <g
     id="fa5f17a2-6249-49d0-8fe7-80b34c10804b"
     data-name="FND BG">
    <rect
       y="-0.00001"
       width="45"
       height="380"
       fill="url(#bbc85d75-aa23-44c1-b3f8-d60545f62561)"
       id="rect12" />
  </g>
  <g
     id="fc3ab4f5-6a83-4c4e-8e19-f40110912367"
     data-name="FND GRAPH">
    <g
       id="g23">
      <circle
         cx="23.00165"
         cy="355.831"
         r="1.18571"
         fill="#1f1f1f"
         id="circle15" />
      <path
         d="M14.35927,359.753a.91213.91213,0,0,1-.8158-.50419l-2.96428-5.92856a.91209.91209,0,0,1,1.6316-.8158l2.14848,4.297,2.14848-4.297a.91209.91209,0,0,1,1.6316.8158l-2.96428,5.92856A.91211.91211,0,0,1,14.35927,359.753Z"
         fill="#1f1f1f"
         id="path17" />
      <path
         d="M30.64073,359.753a.91211.91211,0,0,1-.8158-.50419l-2.96428-5.92856a.91209.91209,0,0,1,1.6316-.8158l2.14848,4.297,2.14848-4.297a.91209.91209,0,0,1,1.6316.8158l-2.96428,5.92856A.91213.91213,0,0,1,30.64073,359.753Z"
         fill="#1f1f1f"
         id="path19" />
      <path
         d="M22.94242,359.753a3.87637,3.87637,0,1,1,2.32653-6.9772.91209.91209,0,1,1-1.09557,1.45854,2.034,2.034,0,0,0-1.231-.4099,2.05219,2.05219,0,1,0,0,4.10438,2.034,2.034,0,0,0,1.231-.4099.91209.91209,0,1,1,1.09557,1.45854A3.8448,3.8448,0,0,1,22.94242,359.753Z"
         fill="#1f1f1f"
         id="path21" />
    </g>
    <line
       x1="22.30765"
       y1="197.15091"
       x2="22.30765"
       y2="309.05632"
       fill="none"
       stroke="#1f1f1f"
       stroke-linecap="round"
       stroke-linejoin="round"
       stroke-width="0.666"
       id="line25" />
    <rect
       x="8.03188"
       y="219.12045"
       width="28.55155"
       height="129.09278"
       rx="2.83465"
       fill="#1f1f1f"
       id="rect27" />
    <use
       width="4.06076"
       height="3.6154"
       transform="translate(19.53866 26.09991) rotate(-90)"
       xlink:href="#b6a76dc8-30d1-42d5-aecf-7b9835229cb1"
       id="use29" />
  </g>
  <g
     id="b4f9e4e4-5007-4679-b85a-b1814a424fc5"
     data-name="FND TXT">
    <g
       id="g38">
      <path
         d="M15.50879,83.02489v-.01367a2.39947,2.39947,0,0,1,2.44531-2.45264,2.48743,2.48743,0,0,1,1.626.53516.41778.41778,0,0,1,.16211.332.41584.41584,0,0,1-.66309.32519,1.72349,1.72349,0,0,0-1.13183-.42676A1.59634,1.59634,0,0,0,16.38184,82.998v.01319a1.59794,1.59794,0,0,0,1.56543,1.68017,1.69973,1.69973,0,0,0,1.18554-.4541.38371.38371,0,0,1,.251-.09473.38921.38921,0,0,1,.25683.68457,2.42265,2.42265,0,0,1-1.7207.63672A2.38464,2.38464,0,0,1,15.50879,83.02489Z"
         fill="#1f1f1f"
         id="path32" />
      <path
         d="M20.92578,81.01952a.41652.41652,0,0,1,.833,0V84.624h2.14746a.3794.3794,0,1,1,0,.75879H21.3457a.41362.41362,0,0,1-.41992-.42041Z"
         fill="#1f1f1f"
         id="path34" />
      <path
         d="M25.2793,81.01952a.41651.41651,0,0,1,.833,0v2.00537l2.249-2.2627a.43646.43646,0,0,1,.3457-.15576.38087.38087,0,0,1,.38574.38574.40581.40581,0,0,1-.14843.312L27.4668,82.72655l1.59961,1.98535a.453.453,0,0,1,.11523.29785.40734.40734,0,0,1-.4209.40674.421.421,0,0,1-.35156-.19678l-1.52441-1.94433-.77247.74511v.98243a.41651.41651,0,0,1-.833,0Z"
         fill="#1f1f1f"
         id="path36" />
    </g>
    <g
       id="g46">
      <path
         d="M10.22656,48.957l1.45606-1.23975c.65039-.54883.88769-.854.88769-1.28076a.71111.71111,0,0,0-.76562-.73828,1.15831,1.15831,0,0,0-.93457.52832.3831.3831,0,0,1-.292.1289.37843.37843,0,0,1-.3789-.37939.41169.41169,0,0,1,.09473-.25732,1.83256,1.83256,0,0,1,1.57128-.76563,1.42012,1.42012,0,0,1,1.56543,1.416v.01367c0,.74512-.39257,1.15137-1.23339,1.83594l-.97559.8125h1.9248a.366.366,0,0,1,0,.73193H10.45605a.39983.39983,0,0,1-.44628-.39307A.51644.51644,0,0,1,10.22656,48.957Z"
         fill="#1f1f1f"
         id="path40" />
      <path
         d="M20.47852,49.228a.39826.39826,0,0,1,.26464-.69775.39761.39761,0,0,1,.27735.1084,1.44263,1.44263,0,0,0,1.07715.4541A.74309.74309,0,0,0,22.918,48.374v-.01318c0-.46729-.42676-.73194-1.09082-.73194h-.16992a.36063.36063,0,0,1-.3584-.35888.47252.47252,0,0,1,.17578-.33887l1.11133-1.18555H20.86523a.36257.36257,0,1,1,0-.7251H23.29a.37335.37335,0,0,1,.41308.36621.60865.60865,0,0,1-.23632.45411L22.34863,46.999c.71778.08789,1.39551.4541,1.39551,1.32812v.01319A1.51922,1.51922,0,0,1,22.084,49.84471,2.22424,2.22424,0,0,1,20.47852,49.228Z"
         fill="#1f1f1f"
         id="path42" />
      <path
         d="M33.06152,48.6992H30.94141a.39232.39232,0,0,1-.40723-.39257.65186.65186,0,0,1,.18359-.44043l2.22852-2.64209a.59059.59059,0,0,1,.50781-.271.40224.40224,0,0,1,.40723.39941v2.6626h.36523a.34294.34294,0,0,1,.34571.34571.33685.33685,0,0,1-.34571.33837h-.36523v.70508a.4.4,0,0,1-.79981,0Zm0-.68408V46.13866l-1.55859,1.87646Z"
         fill="#1f1f1f"
         id="path44" />
    </g>
    <g
       id="g58">
      <path
         d="M11.10352,129.144a.4135.4135,0,0,1,.41992-.41992H13.2168a1.90966,1.90966,0,0,1,1.36816.47412,1.43376,1.43376,0,0,1,.39356,1.02344v.01318a1.40383,1.40383,0,0,1-1.07715,1.416l.90722,1.145a.47938.47938,0,0,1,.13575.31836.39277.39277,0,0,1-.39942.38623.47672.47672,0,0,1-.40625-.21679l-1.15234-1.47022H11.93652v1.27344a.41651.41651,0,0,1-.833,0Zm2.05273,1.93115c.5957,0,.97559-.31152.97559-.793v-.01367c0-.50781-.36622-.78564-.98243-.78564H11.93652v1.59228Z"
         fill="#1f1f1f"
         id="path48" />
      <path
         d="M16.23633,133.04637V129.144a.41351.41351,0,0,1,.41992-.41992h2.75684a.3764.3764,0,0,1,.373.37256.372.372,0,0,1-.373.37255H17.06934v1.23291H19.1084a.3783.3783,0,0,1,.373.37989.37057.37057,0,0,1-.373.36572H17.06934v1.27344h2.37793a.3764.3764,0,0,1,.373.37256.37237.37237,0,0,1-.373.373h-2.791A.41362.41362,0,0,1,16.23633,133.04637Z"
         fill="#1f1f1f"
         id="path50" />
      <path
         d="M20.85059,132.938a.39441.39441,0,0,1,.47461-.62988,2.05556,2.05556,0,0,0,1.32812.48779c.51465,0,.83984-.24414.83984-.59619V132.186c0-.33838-.18945-.52148-1.07031-.7251-1.00976-.24365-1.5791-.542-1.5791-1.416v-.01319a1.45075,1.45075,0,0,1,1.61914-1.37548,2.61043,2.61043,0,0,1,1.50391.44043.375.375,0,0,1,.18359.332.38807.38807,0,0,1-.39355.38623.40624.40624,0,0,1-.2168-.061,1.96907,1.96907,0,0,0-1.09082-.35937c-.48731,0-.77149.251-.77149.5625v.01367c0,.36572.2168.52832,1.13086.74512,1.00293.24414,1.51758.603,1.51758,1.38867v.01367c0,.88769-.69726,1.416-1.69336,1.416A2.95276,2.95276,0,0,1,20.85059,132.938Z"
         fill="#1f1f1f"
         id="path52" />
      <path
         d="M25.53711,133.04637V129.144a.41351.41351,0,0,1,.41992-.41992h2.75684a.3764.3764,0,0,1,.373.37256.372.372,0,0,1-.373.37255H26.37012v1.23291h2.03906a.3783.3783,0,0,1,.373.37989.37057.37057,0,0,1-.373.36572H26.37012v1.27344h2.37793a.3764.3764,0,0,1,.373.37256.37237.37237,0,0,1-.373.373H25.957A.41362.41362,0,0,1,25.53711,133.04637Z"
         fill="#1f1f1f"
         id="path54" />
      <path
         d="M31.5,129.49657H30.34863a.38623.38623,0,0,1,0-.77246H33.499a.3863.3863,0,0,1,0,.77246h-1.1582v3.59033a.42047.42047,0,0,1-.84082,0Z"
         fill="#1f1f1f"
         id="path56" />
    </g>
    <g
       id="g64">
      <path
         d="M19.10742,176.60155a.41652.41652,0,0,1,.833,0v3.98388a.41652.41652,0,0,1-.833,0Z"
         fill="#1f1f1f"
         id="path60" />
      <path
         d="M21.416,176.61522a.418.418,0,0,1,.41992-.41992h.08789a.52184.52184,0,0,1,.43359.24414l2.37207,3.06885v-2.91358a.40968.40968,0,0,1,.81934,0v3.98389a.40483.40483,0,0,1-.40625.41357h-.0332a.5216.5216,0,0,1-.4336-.251L22.23633,177.584v3.0083a.41017.41017,0,0,1-.82031,0Z"
         fill="#1f1f1f"
         id="path62" />
    </g>
    <g
       id="g72">
      <path
         d="M14.82031,226.64159v-.01367a2.52168,2.52168,0,0,1,5.041-.01368v.01368a2.52166,2.52166,0,0,1-5.041.01367Zm3.9502,0v-.01367a1.44037,1.44037,0,0,0-1.43653-1.49024,1.41853,1.41853,0,0,0-1.42285,1.47656v.01368a1.44138,1.44138,0,0,0,1.43653,1.49072A1.41866,1.41866,0,0,0,18.77051,226.64159Z"
         fill="#f0f0f0"
         id="path66" />
      <path
         d="M20.93945,226.96678v-2.229a.522.522,0,0,1,1.04395,0v2.20166c0,.77246.38574,1.17236,1.02246,1.17236s1.02344-.38623,1.02344-1.13818v-2.23584a.52149.52149,0,1,1,1.043,0v2.19482a1.90889,1.90889,0,0,1-2.08008,2.14112A1.88222,1.88222,0,0,1,20.93945,226.96678Z"
         fill="#f0f0f0"
         id="path68" />
      <path
         d="M27.4248,225.21874H26.42188a.481.481,0,0,1,0-.96192H29.4707a.481.481,0,1,1,0,.96192H28.46777v3.2998a.52149.52149,0,0,1-1.043,0Z"
         fill="#f0f0f0"
         id="path70" />
    </g>
    <g
       id="g78">
      <path
         d="M12.13965,21.355l-.67578.17529a1.574,1.574,0,0,1-.33789.0498.83779.83779,0,0,1-.2002-1.65136l1.23926-.36328a3.45809,3.45809,0,0,1,.90039-.1626h.02539a.94994.94994,0,0,1,.9502.95117v7.05664a.95069.95069,0,1,1-1.90137,0Z"
         fill="#1f1f1f"
         id="path74" />
      <path
         d="M31.44141,26.39745H27.83789a.90379.90379,0,0,1-.93848-.88868,1.562,1.562,0,0,1,.4502-1.05078l3.80371-4.417a1.41419,1.41419,0,0,1,1.20117-.65039.9135.9135,0,0,1,.92676.91309V24.833h.46289a.78533.78533,0,0,1,.78809.78858.77465.77465,0,0,1-.78809.77588h-.46289v1.05078a.9136.9136,0,0,1-.92676.91357.90264.90264,0,0,1-.91308-.91357Zm0-1.56446V22.10545L29.11426,24.833Z"
         fill="#1f1f1f"
         id="path76" />
    </g>
  </g>
  <g
     id="a8bbbad0-00fd-4530-913a-668cfe1165e6"
     data-name="components"
     inkscape:groupmode="layer"
     style="display:none">
    <circle
       id="a850a16c-3d10-4705-afde-8117518924e4"
       data-name="Steps#CKSSThreeH"
       cx="22.30764"
       cy="61.83651"
       r="5"
       style="fill:#ff0000" />
    <circle
       id="ae7c14d8-9c3a-4f3a-9ff6-8dfd3b503bb5"
       data-name="Clk#PJ301MPort"
       cx="22.30765"
       cy="99.895348"
       r="5"
       style="fill:#00ff00" />
    <circle
       id="ab066026-7114-4e99-86ec-f1f0d676bc62"
       data-name="Reset#PJ301MPort"
       cx="22.30765"
       cy="148.01006"
       r="5"
       style="fill:#00ff00" />
    <circle
       id="f42f7893-fd95-4b5c-9dee-12df393e54be"
       data-name="In#PJ301MPort"
       cx="22.30765"
       cy="196.00009"
       r="5"
       style="fill:#00ff00" />
    <circle
       id="b9c3dbb3-51b5-4ccf-8e5d-762fd605ac92"
       data-name="Out1#PJ301MPort"
       cx="22.30765"
       cy="243.91919"
       r="5"
       style="fill:#0000ff" />
    <circle
       id="a44c05d4-e0f7-4cd8-adb5-4daf6fedfc98"
       data-name="Out2#PJ301MPort"
       cx="22.30765"
       cy="273.91919"
       r="5"
       style="fill:#0000ff" />
    <circle
       id="b5f61763-df1c-4fd5-a600-13b730908726"
       data-name="Out3#PJ301MPort"
       cx="22.30765"
       cy="303.91919"
       r="5"
       style="fill:#0000ff" />
    <circle
       id="a52180f4-8b18-4e3d-8358-99115381f1fe"
       data-name="Out4#PJ301MPort"
       cx="22.30765"
       cy="333.91919"
       r="5"
       style="fill:#0000ff" />
    <circle
       id="b05fe4a5-d982-45f2-8df8-5b810f9fb4a6"
       data-name="Pos1#TinyLight"
       cx="33.307652"
       cy="232.86359"
       r="1.5"
       style="fill:#ff00ff" />
    <circle
       id="ae8d56dc-468c-434f-ad79-c017495a13df"
       data-name="Pos2#TinyLight"
       cx="33.307652"
       cy="262.86359"
       r="1.5"
       style="fill:#ff00ff" />
    <circle
       id="ac40dcff-4c21-48cd-9eeb-1c7b5ee3a24a"
       data-name="Pos3#TinyLight"
       cx="33.307652"
       cy="292.86359"
       r="1.5"
       style="fill:#ff00ff" />
    <circle
       id="bea35b6c-5c53-4319-9b62-ebd821fbd00a"
       data-name="Pos4#TinyLight"
       cx="33.307652"
       cy="322.86362"
       r="1.5"
       style="fill:#ff00ff" />
  </g>
</svg>
