<?xml version="1.0" encoding="UTF-8" standalone="no"?>
<svg
   xmlns:dc="http://purl.org/dc/elements/1.1/"
   xmlns:cc="http://creativecommons.org/ns#"
   xmlns:rdf="http://www.w3.org/1999/02/22-rdf-syntax-ns#"
   xmlns:svg="http://www.w3.org/2000/svg"
   xmlns="http://www.w3.org/2000/svg"
   xmlns:sodipodi="http://sodipodi.sourceforge.net/DTD/sodipodi-0.dtd"
   xmlns:inkscape="http://www.inkscape.org/namespaces/inkscape"
   width="45"
   height="380"
   viewBox="0 0 45 380"
   version="1.1"
   id="svg94"
   sodipodi:docname="1_4.svg"
   inkscape:version="0.92.3 (2405546, 2018-03-11)">
  <metadata
     id="metadata98">
    <rdf:RDF>
      <cc:Work
         rdf:about="">
        <dc:format>image/svg+xml</dc:format>
        <dc:type
           rdf:resource="http://purl.org/dc/dcmitype/StillImage" />
      </cc:Work>
    </rdf:RDF>
  </metadata>
  <sodipodi:namedview
     pagecolor="#ffffff"
     bordercolor="#666666"
     borderopacity="1"
     objecttolerance="10"
     gridtolerance="10"
     guidetolerance="10"
     inkscape:pageopacity="0"
     inkscape:pageshadow="2"
     inkscape:window-width="1920"
     inkscape:window-height="1017"
     id="namedview96"
     showgrid="false"
     inkscape:zoom="3.5132042"
     inkscape:cx="17.43035"
     inkscape:cy="291.45365"
     inkscape:window-x="-8"
     inkscape:window-y="-8"
     inkscape:window-maximized="1"
     inkscape:current-layer="svg94" />
  <defs
     id="defs10">
    <linearGradient
       id="bbc85d75-aa23-44c1-b3f8-d60545f62561"
       x1="22.5"
       y1="-0.00001"
       x2="22.5"
       y2="379.99999"
       gradientUnits="userSpaceOnUse">
      <stop
         offset="0"
         stop-color="#ebebeb"
         id="stop2" />
      <stop
         offset="1"
         stop-color="#e1e1e1"
         id="stop4" />
    </linearGradient>
  </defs>
  <g
     id="fa5f17a2-6249-49d0-8fe7-80b34c10804b"
     data-name="FND BG">
    <rect
       y="-9.9999997e-006"
       width="45"
       height="380"
       id="rect12"
       x="0"
       style="fill:url(#bbc85d75-aa23-44c1-b3f8-d60545f62561)" />
  </g>
  <g
     id="fc3ab4f5-6a83-4c4e-8e19-f40110912367"
     data-name="FND GRAPH">
    <g
       id="g23">
      <circle
         cx="23.00165"
         cy="355.83099"
         r="1.18571"
         id="circle15"
         style="fill:#1f1f1f" />
      <path
         d="m 14.35927,359.753 a 0.91213,0.91213 0 0 1 -0.8158,-0.50419 l -2.96428,-5.92856 a 0.91209213,0.91209213 0 0 1 1.6316,-0.8158 l 2.14848,4.297 2.14848,-4.297 a 0.91209213,0.91209213 0 0 1 1.6316,0.8158 l -2.96428,5.92856 a 0.91211,0.91211 0 0 1 -0.8158,0.50419 z"
         id="path17"
         inkscape:connector-curvature="0"
         style="fill:#1f1f1f" />
      <path
         d="m 30.64073,359.753 a 0.91211,0.91211 0 0 1 -0.8158,-0.50419 l -2.96428,-5.92856 a 0.91209213,0.91209213 0 0 1 1.6316,-0.8158 l 2.14848,4.297 2.14848,-4.297 a 0.91209213,0.91209213 0 0 1 1.6316,0.8158 l -2.96428,5.92856 a 0.91213,0.91213 0 0 1 -0.8158,0.50419 z"
         id="path19"
         inkscape:connector-curvature="0"
         style="fill:#1f1f1f" />
      <path
         d="m 22.94242,359.753 a 3.87637,3.87637 0 1 1 2.32653,-6.9772 0.91209,0.91209 0 1 1 -1.09557,1.45854 2.034,2.034 0 0 0 -1.231,-0.4099 2.05219,2.05219 0 1 0 0,4.10438 2.034,2.034 0 0 0 1.231,-0.4099 0.91209,0.91209 0 1 1 1.09557,1.45854 3.8448,3.8448 0 0 1 -2.32653,0.77554 z"
         id="path21"
         inkscape:connector-curvature="0"
         style="fill:#1f1f1f" />
    </g>
    <line
       x1="22.30765"
       y1="197.15091"
       x2="22.30765"
       y2="309.0563"
       id="line25"
       style="fill:none;stroke:#1f1f1f;stroke-width:0.66600001;stroke-linecap:round;stroke-linejoin:round" />
    <rect
       x="8.0318804"
       y="219.12045"
       width="28.55155"
       height="129.09277"
       rx="2.83465"
       id="rect27"
       style="fill:#1f1f1f" />
    <g
       id="use29"
       transform="rotate(-90,22.819285,3.280625)">
      <path
         id="path4814"
         d="M 2.35242,3.42947 4.01038,0.55779 A 0.37186,0.37186 0 0 0 3.68834,0 H 0.37242 a 0.37186,0.37186 0 0 0 -0.322,0.55779 l 1.658,2.87168 a 0.37187,0.37187 0 0 0 0.644,0 z"
         inkscape:connector-curvature="0"
         style="fill:#1f1f1f" />
    </g>
  </g>
  <g
     id="b4f9e4e4-5007-4679-b85a-b1814a424fc5"
     data-name="FND TXT">
    <g
       id="g38">
      <path
         d="m 15.50879,83.02489 v -0.01367 a 2.39947,2.39947 0 0 1 2.44531,-2.45264 2.48743,2.48743 0 0 1 1.626,0.53516 0.41778,0.41778 0 0 1 0.16211,0.332 0.41584,0.41584 0 0 1 -0.66309,0.32519 1.72349,1.72349 0 0 0 -1.13183,-0.42676 1.59634,1.59634 0 0 0 -1.56545,1.67383 v 0.01319 a 1.59794,1.59794 0 0 0 1.56543,1.68017 1.69973,1.69973 0 0 0 1.18554,-0.4541 0.38371,0.38371 0 0 1 0.251,-0.09473 0.38921,0.38921 0 0 1 0.25683,0.68457 2.42265,2.42265 0 0 1 -1.7207,0.63672 2.38464,2.38464 0 0 1 -2.41115,-2.43893 z"
         id="path32"
         inkscape:connector-curvature="0"
         style="fill:#1f1f1f" />
      <path
         d="m 20.92578,81.01952 a 0.41652,0.41652 0 0 1 0.833,0 V 84.624 h 2.14746 a 0.3794,0.3794 0 1 1 0,0.75879 H 21.3457 a 0.41362,0.41362 0 0 1 -0.41992,-0.42041 z"
         id="path34"
         inkscape:connector-curvature="0"
         style="fill:#1f1f1f" />
      <path
         d="m 25.2793,81.01952 a 0.41651,0.41651 0 0 1 0.833,0 v 2.00537 l 2.249,-2.2627 a 0.43646,0.43646 0 0 1 0.3457,-0.15576 0.38087,0.38087 0 0 1 0.38574,0.38574 0.40581,0.40581 0 0 1 -0.14843,0.312 l -1.47751,1.42238 1.59961,1.98535 a 0.453,0.453 0 0 1 0.11523,0.29785 0.40734,0.40734 0 0 1 -0.4209,0.40674 0.421,0.421 0 0 1 -0.35156,-0.19678 l -1.52441,-1.94433 -0.77247,0.74511 v 0.98243 a 0.41651,0.41651 0 0 1 -0.833,0 z"
         id="path36"
         inkscape:connector-curvature="0"
         style="fill:#1f1f1f" />
    </g>
    <g
       id="g46">
      <path
         d="m 10.22656,48.957 1.45606,-1.23975 c 0.65039,-0.54883 0.88769,-0.854 0.88769,-1.28076 a 0.71111,0.71111 0 0 0 -0.76562,-0.73828 1.15831,1.15831 0 0 0 -0.93457,0.52832 0.3831,0.3831 0 0 1 -0.292,0.1289 0.37843,0.37843 0 0 1 -0.3789,-0.37939 0.41169,0.41169 0 0 1 0.09473,-0.25732 1.83256,1.83256 0 0 1 1.57128,-0.76563 1.42012,1.42012 0 0 1 1.56543,1.416 v 0.01367 c 0,0.74512 -0.39257,1.15137 -1.23339,1.83594 l -0.97559,0.8125 h 1.9248 a 0.366,0.366 0 0 1 0,0.73193 H 10.45605 A 0.39983,0.39983 0 0 1 10.00977,49.37006 0.51644,0.51644 0 0 1 10.22656,48.957 Z"
         id="path40"
         inkscape:connector-curvature="0"
         style="fill:#1f1f1f" />
      <path
         d="m 20.47852,49.228 a 0.39826,0.39826 0 0 1 0.26464,-0.69775 0.39761,0.39761 0 0 1 0.27735,0.1084 1.44263,1.44263 0 0 0 1.07715,0.4541 A 0.74309,0.74309 0 0 0 22.918,48.374 v -0.01318 c 0,-0.46729 -0.42676,-0.73194 -1.09082,-0.73194 H 21.65726 A 0.36063,0.36063 0 0 1 21.29886,47.27 0.47252,0.47252 0 0 1 21.47464,46.93113 l 1.11133,-1.18555 h -1.72074 a 0.36257,0.36257 0 1 1 0,-0.7251 H 23.29 a 0.37335,0.37335 0 0 1 0.41308,0.36621 0.60865,0.60865 0 0 1 -0.23632,0.45411 l -1.11813,1.1582 c 0.71778,0.08789 1.39551,0.4541 1.39551,1.32812 v 0.01319 A 1.51922,1.51922 0 0 1 22.084,49.84471 2.22424,2.22424 0 0 1 20.47852,49.228 Z"
         id="path42"
         inkscape:connector-curvature="0"
         style="fill:#1f1f1f" />
      <path
         d="m 33.06152,48.6992 h -2.12011 a 0.39232,0.39232 0 0 1 -0.40723,-0.39257 0.65186,0.65186 0 0 1 0.18359,-0.44043 l 2.22852,-2.64209 a 0.59059,0.59059 0 0 1 0.50781,-0.271 0.40224,0.40224 0 0 1 0.40723,0.39941 v 2.6626 h 0.36523 a 0.34294,0.34294 0 0 1 0.34571,0.34571 0.33685,0.33685 0 0 1 -0.34571,0.33837 h -0.36523 v 0.70508 a 0.4,0.4 0 0 1 -0.79981,0 z m 0,-0.68408 v -1.87646 l -1.55859,1.87646 z"
         id="path44"
         inkscape:connector-curvature="0"
         style="fill:#1f1f1f" />
    </g>
    <g
       id="g58">
      <path
         d="m 11.10352,129.144 a 0.4135,0.4135 0 0 1 0.41992,-0.41992 h 1.69336 a 1.90966,1.90966 0 0 1 1.36816,0.47412 1.43376,1.43376 0 0 1 0.39356,1.02344 v 0.0132 a 1.40383,1.40383 0 0 1 -1.07715,1.416 l 0.90722,1.145 a 0.47938,0.47938 0 0 1 0.13575,0.31836 0.39277,0.39277 0 0 1 -0.39942,0.38623 0.47672,0.47672 0 0 1 -0.40625,-0.21679 l -1.15234,-1.47022 h -1.04981 v 1.27344 a 0.41651,0.41651 0 0 1 -0.833,0 z m 2.05273,1.93115 c 0.5957,0 0.97559,-0.31152 0.97559,-0.793 v -0.0137 c 0,-0.50781 -0.36622,-0.78564 -0.98243,-0.78564 h -1.21289 v 1.59228 z"
         id="path48"
         inkscape:connector-curvature="0"
         style="fill:#1f1f1f" />
      <path
         d="M 16.23633,133.04637 V 129.144 a 0.41351,0.41351 0 0 1 0.41992,-0.41992 h 2.75684 a 0.3764,0.3764 0 0 1 0.373,0.37256 0.372,0.372 0 0 1 -0.373,0.37255 h -2.34375 v 1.23291 h 2.03906 a 0.3783,0.3783 0 0 1 0.373,0.37989 0.37057,0.37057 0 0 1 -0.373,0.36572 h -2.03906 v 1.27344 h 2.37793 a 0.3764,0.3764 0 0 1 0.373,0.37256 0.37237,0.37237 0 0 1 -0.373,0.373 h -2.791 a 0.41362,0.41362 0 0 1 -0.41994,-0.42034 z"
         id="path50"
         inkscape:connector-curvature="0"
         style="fill:#1f1f1f" />
      <path
         d="m 20.85059,132.938 a 0.39441,0.39441 0 0 1 0.47461,-0.62988 2.05556,2.05556 0 0 0 1.32812,0.48779 c 0.51465,0 0.83984,-0.24414 0.83984,-0.59619 v -0.0137 c 0,-0.33838 -0.18945,-0.52148 -1.07031,-0.7251 -1.00976,-0.24365 -1.5791,-0.542 -1.5791,-1.416 v -0.0132 a 1.45075,1.45075 0 0 1 1.61914,-1.37548 2.61043,2.61043 0 0 1 1.50391,0.44043 0.375,0.375 0 0 1 0.18359,0.332 0.38807,0.38807 0 0 1 -0.39355,0.38623 0.40624,0.40624 0 0 1 -0.2168,-0.061 1.96907,1.96907 0 0 0 -1.09082,-0.35937 c -0.48731,0 -0.77149,0.251 -0.77149,0.5625 v 0.0137 c 0,0.36572 0.2168,0.52832 1.13086,0.74512 1.00293,0.24414 1.51758,0.603 1.51758,1.38867 v 0.0137 c 0,0.88769 -0.69726,1.416 -1.69336,1.416 A 2.95276,2.95276 0 0 1 20.85059,132.938 Z"
         id="path52"
         inkscape:connector-curvature="0"
         style="fill:#1f1f1f" />
      <path
         d="M 25.53711,133.04637 V 129.144 a 0.41351,0.41351 0 0 1 0.41992,-0.41992 h 2.75684 a 0.3764,0.3764 0 0 1 0.373,0.37256 0.372,0.372 0 0 1 -0.373,0.37255 h -2.34375 v 1.23291 h 2.03906 a 0.3783,0.3783 0 0 1 0.373,0.37989 0.37057,0.37057 0 0 1 -0.373,0.36572 h -2.03906 v 1.27344 h 2.37793 a 0.3764,0.3764 0 0 1 0.373,0.37256 0.37237,0.37237 0 0 1 -0.373,0.373 H 25.957 a 0.41362,0.41362 0 0 1 -0.41989,-0.42034 z"
         id="path54"
         inkscape:connector-curvature="0"
         style="fill:#1f1f1f" />
      <path
         d="m 31.5,129.49657 h -1.15137 a 0.38623,0.38623 0 0 1 0,-0.77246 H 33.499 a 0.3863,0.3863 0 0 1 0,0.77246 h -1.1582 v 3.59033 a 0.42047,0.42047 0 0 1 -0.84082,0 z"
         id="path56"
         inkscape:connector-curvature="0"
         style="fill:#1f1f1f" />
    </g>
    <g
       id="g64">
      <path
         d="m 19.10742,176.60155 a 0.41652,0.41652 0 0 1 0.833,0 v 3.98388 a 0.41652,0.41652 0 0 1 -0.833,0 z"
         id="path60"
         inkscape:connector-curvature="0"
         style="fill:#1f1f1f" />
      <path
         d="m 21.416,176.61522 a 0.418,0.418 0 0 1 0.41992,-0.41992 h 0.08789 a 0.52184,0.52184 0 0 1 0.43359,0.24414 l 2.37207,3.06885 v -2.91358 a 0.40968,0.40968 0 0 1 0.81934,0 v 3.98389 a 0.40483,0.40483 0 0 1 -0.40625,0.41357 h -0.0332 a 0.5216,0.5216 0 0 1 -0.4336,-0.251 L 22.23633,177.584 v 3.0083 a 0.41017,0.41017 0 0 1 -0.82031,0 z"
         id="path62"
         inkscape:connector-curvature="0"
         style="fill:#1f1f1f" />
    </g>
    <g
       id="g72">
      <path
         d="m 14.82031,226.64159 v -0.0137 a 2.52168,2.52168 0 0 1 5.041,-0.0137 v 0.0137 a 2.52166,2.52166 0 0 1 -5.041,0.0137 z m 3.9502,0 v -0.0137 a 1.44037,1.44037 0 0 0 -1.43653,-1.49024 1.41853,1.41853 0 0 0 -1.42285,1.47656 v 0.0137 a 1.44138,1.44138 0 0 0 1.43653,1.49072 1.41866,1.41866 0 0 0 1.42285,-1.47705 z"
         id="path66"
         inkscape:connector-curvature="0"
         style="fill:#f0f0f0" />
      <path
         d="m 20.93945,226.96678 v -2.229 a 0.522,0.522 0 0 1 1.04395,0 v 2.20166 c 0,0.77246 0.38574,1.17236 1.02246,1.17236 0.63672,0 1.02344,-0.38623 1.02344,-1.13818 v -2.23584 a 0.5215,0.5215 0 1 1 1.043,0 v 2.19482 a 1.90889,1.90889 0 0 1 -2.08008,2.14112 1.88222,1.88222 0 0 1 -2.05277,-2.10694 z"
         id="path68"
         inkscape:connector-curvature="0"
         style="fill:#f0f0f0" />
      <path
         d="m 27.4248,225.21874 h -1.00292 a 0.481,0.481 0 0 1 0,-0.96192 h 3.04882 a 0.481,0.481 0 1 1 0,0.96192 h -1.00293 v 3.2998 a 0.5215,0.5215 0 0 1 -1.043,0 z"
         id="path70"
         inkscape:connector-curvature="0"
         style="fill:#f0f0f0" />
    </g>
    <g
       id="g78">
      <path
         d="m 12.13965,21.355 -0.67578,0.17529 a 1.574,1.574 0 0 1 -0.33789,0.0498 0.83779,0.83779 0 0 1 -0.2002,-1.65136 l 1.23926,-0.36328 a 3.45809,3.45809 0 0 1 0.90039,-0.1626 h 0.02539 a 0.94994,0.94994 0 0 1 0.9502,0.95117 v 7.05664 a 0.95069,0.95069 0 1 1 -1.90137,0 z"
         id="path74"
         inkscape:connector-curvature="0"
         style="fill:#1f1f1f" />
      <path
         d="m 31.44141,26.39745 h -3.60352 a 0.90379,0.90379 0 0 1 -0.93848,-0.88868 1.562,1.562 0 0 1 0.4502,-1.05078 l 3.80371,-4.417 a 1.41419,1.41419 0 0 1 1.20117,-0.65039 0.9135,0.9135 0 0 1 0.92676,0.91309 V 24.833 h 0.46289 a 0.78533,0.78533 0 0 1 0.78809,0.78858 0.77465,0.77465 0 0 1 -0.78809,0.77588 h -0.46289 v 1.05078 a 0.9136,0.9136 0 0 1 -0.92676,0.91357 0.90264,0.90264 0 0 1 -0.91308,-0.91357 z m 0,-1.56446 V 22.10545 L 29.11426,24.833 Z"
         id="path76"
         inkscape:connector-curvature="0"
         style="fill:#1f1f1f" />
    </g>
  </g>
  <g
     id="a8bbbad0-00fd-4530-913a-668cfe1165e6"
     data-name="components"
     inkscape:groupmode="layer"
     style="display:none">
    <circle
       id="a850a16c-3d10-4705-afde-8117518924e4"
       data-name="Steps#CKSSThreeH"
       cx="22.30764"
       cy="61.83651"
       r="5"
       style="fill:#ff0000" />
    <circle
       id="ae7c14d8-9c3a-4f3a-9ff6-8dfd3b503bb5"
       data-name="Clk#PJ301MPort"
       cx="22.30765"
       cy="99.895348"
       r="5"
       style="fill:#00ff00" />
    <circle
       id="ab066026-7114-4e99-86ec-f1f0d676bc62"
       data-name="Reset#PJ301MPort"
       cx="22.30765"
       cy="148.01006"
       r="5"
       style="fill:#00ff00" />
    <circle
       id="f42f7893-fd95-4b5c-9dee-12df393e54be"
       data-name="In#PJ301MPort"
       cx="22.30765"
       cy="196.00009"
       r="5"
       style="fill:#00ff00" />
    <circle
       id="b9c3dbb3-51b5-4ccf-8e5d-762fd605ac92"
       data-name="Out1#PJ301MPort"
       cx="22.30765"
       cy="243.91919"
       r="5"
       style="fill:#0000ff" />
    <circle
       id="a44c05d4-e0f7-4cd8-adb5-4daf6fedfc98"
       data-name="Out2#PJ301MPort"
       cx="22.30765"
       cy="273.91919"
       r="5"
       style="fill:#0000ff" />
    <circle
       id="b5f61763-df1c-4fd5-a600-13b730908726"
       data-name="Out3#PJ301MPort"
       cx="22.30765"
       cy="303.91919"
       r="5"
       style="fill:#0000ff" />
    <circle
       id="a52180f4-8b18-4e3d-8358-99115381f1fe"
       data-name="Out4#PJ301MPort"
       cx="22.30765"
       cy="333.91919"
       r="5"
       style="fill:#0000ff" />
    <circle
       id="b05fe4a5-d982-45f2-8df8-5b810f9fb4a6"
       data-name="Pos1#TinyLight"
       cx="33.307652"
       cy="232.86359"
       r="1.5"
       style="fill:#ff00ff" />
    <circle
       id="ae8d56dc-468c-434f-ad79-c017495a13df"
       data-name="Pos2#TinyLight"
       cx="33.307652"
       cy="262.86359"
       r="1.5"
       style="fill:#ff00ff" />
    <circle
       id="ac40dcff-4c21-48cd-9eeb-1c7b5ee3a24a"
       data-name="Pos3#TinyLight"
       cx="33.307652"
       cy="292.86359"
       r="1.5"
       style="fill:#ff00ff" />
    <circle
       id="bea35b6c-5c53-4319-9b62-ebd821fbd00a"
       data-name="Pos4#TinyLight"
       cx="33.307652"
       cy="322.86362"
       r="1.5"
       style="fill:#ff00ff" />
  </g>
</svg>
