<?xml version="1.0" encoding="UTF-8" standalone="no"?>
<svg
   width="45"
   height="380"
   viewBox="0 0 45 380"
   version="1.1"
   id="svg93"
   sodipodi:docname="4_1.svg"
   inkscape:version="1.2.1 (9c6d41e410, 2022-07-14)"
   xmlns:inkscape="http://www.inkscape.org/namespaces/inkscape"
   xmlns:sodipodi="http://sodipodi.sourceforge.net/DTD/sodipodi-0.dtd"
   xmlns="http://www.w3.org/2000/svg"
   xmlns:svg="http://www.w3.org/2000/svg">
  <sodipodi:namedview
     id="namedview95"
     pagecolor="#ffffff"
     bordercolor="#000000"
     borderopacity="0.25"
     inkscape:showpageshadow="2"
     inkscape:pageopacity="0.0"
     inkscape:pagecheckerboard="0"
     inkscape:deskcolor="#d1d1d1"
     showgrid="false"
     inkscape:zoom="2.1815789"
     inkscape:cx="22.689988"
     inkscape:cy="190.22919"
     inkscape:window-width="1920"
     inkscape:window-height="1009"
     inkscape:window-x="-8"
     inkscape:window-y="-8"
     inkscape:window-maximized="1"
     inkscape:current-layer="svg93" />
  <defs
     id="defs7">
    <linearGradient
       id="uuid-9401e973-4508-4a27-b8a6-297150ea2ffa"
       x1="22.5"
       y1="-.00001"
       x2="22.5"
       y2="379.99999"
       gradientUnits="userSpaceOnUse">
      <stop
         offset="0"
         stop-color="#ebebeb"
         id="stop2" />
      <stop
         offset="1"
         stop-color="#e1e1e1"
         id="stop4" />
    </linearGradient>
  </defs>
  <g
     id="uuid-3e283a81-709c-4f33-8fd8-f9d0743e6c08"
     data-name="FND BG">
    <rect
       y="-.00001"
       width="45"
       height="380"
       fill="url(#uuid-9401e973-4508-4a27-b8a6-297150ea2ffa)"
       id="rect9" />
  </g>
  <g
     id="uuid-b2bb2351-557b-49e4-ab3c-b5d9536c317a"
     data-name="FND GRAPH">
    <g
       id="g20">
      <circle
         cx="23.00165"
         cy="355.831"
         r="1.18571"
         fill="#1f1f1f"
         id="circle12" />
      <path
         d="m14.35927,359.75297c-.34551,0-.66126-.1952-.8158-.50419l-2.96428-5.92856c-.22526-.45057-.04266-.99844.40794-1.2237.45008-.22535.99831-.04271,1.22366.4079l2.14848,4.29696,2.14848-4.29696c.22526-.45057.77314-.63325,1.22366-.4079.45061.22526.63321.77314.40794,1.2237l-2.96428,5.92856c-.15454.30899-.47029.50419-.8158.50419Z"
         fill="#1f1f1f"
         id="path14" />
      <path
         d="m30.64073,359.75297c-.34551,0-.66126-.1952-.8158-.50419l-2.96428-5.92856c-.22526-.45057-.04266-.99844.40794-1.2237.45016-.22535.9984-.04271,1.22366.4079l2.14848,4.29696,2.14848-4.29696c.22526-.45057.77305-.63325,1.22366-.4079.45061.22526.63321.77314.40794,1.2237l-2.96428,5.92856c-.15454.30899-.47029.50419-.8158.50419Z"
         fill="#1f1f1f"
         id="path16" />
      <path
         d="m22.94242,359.75297c-2.13744,0-3.87637-1.73893-3.87637-3.87637s1.73893-3.87637,3.87637-3.87637c.84653,0,1.65102.26819,2.32653.77554.40278.30253.48401.87428.18153,1.27705-.30248.40273-.87432.48401-1.2771.18148-.357-.26815-.78267-.4099-1.23096-.4099-1.13156,0-2.05219.92059-2.05219,2.05219s.92064,2.05219,2.05219,2.05219c.44829,0,.87396-.14176,1.23096-.4099.40269-.30271.97444-.22125,1.2771.18148.30248.40278.22125.97453-.18153,1.27705-.67551.50735-1.48.77554-2.32653.77554Z"
         fill="#1f1f1f"
         id="path18" />
    </g>
    <line
       x1="23.03206"
       y1="201.01932"
       x2="23.03206"
       y2="312.92473"
       fill="none"
       stroke="#1f1f1f"
       stroke-linecap="round"
       stroke-linejoin="round"
       stroke-width=".8"
       id="line22" />
    <rect
       x="8.71626"
       y="309.05632"
       width="28.6316"
       height="39.15691"
       rx="2.83465"
       ry="2.83465"
       fill="#1f1f1f"
       id="rect24" />
    <path
       d="m25.36743,23.74749l-2.87167-1.65796c-.24791-.14313-.55779.03578-.55779.32204v3.31592c0,.28626.30989.46517.55779.32204l2.87167-1.65796c.24791-.14313.24791-.50096,0-.64409Z"
       fill="#1f1f1f"
       id="path26" />
  </g>
  <g
     id="uuid-3f570a6f-a5f0-439c-833b-d2ba2231e2e8"
     data-name="FND TXT">
    <g
       id="g37">
      <path
         d="m16.16113,81.41258h-1.15137c-.2168,0-.38672-.17627-.38672-.38623s.16992-.38623.38672-.38623h3.15039c.20996,0,.37891.17627.37891.38623s-.16895.38623-.37891.38623h-1.1582v3.59033c0,.23047-.19043.41357-.4209.41357-.22949,0-.41992-.18311-.41992-.41357v-3.59033Z"
         fill="#1f1f1f"
         id="path29" />
      <path
         d="m19.54004,81.06004c0-.23682.18262-.41992.41992-.41992h1.69434c.5957,0,1.0625.17627,1.36816.47412.25098.25781.39258.60986.39258,1.02344v.01318c0,.75879-.44043,1.21924-1.07715,1.41602l.9082,1.14502c.08105.10156.13477.18945.13477.31836,0,.23047-.19629.38623-.39941.38623-.18945,0-.31152-.08838-.40625-.2168l-1.15137-1.47021h-1.05078v1.27344c0,.23047-.18262.41357-.41309.41357-.2373,0-.41992-.18311-.41992-.41357v-3.94287Zm2.05273,1.93115c.59668,0,.97559-.31152.97559-.79297v-.01367c0-.50781-.36523-.78564-.98242-.78564h-1.21289v1.59229h1.21973Z"
         fill="#1f1f1f"
         id="path31" />
      <path
         d="m24.69824,81.01952c0-.23047.18262-.41309.41992-.41309.23047,0,.41309.18262.41309.41309v3.9834c0,.23047-.18262.41357-.41309.41357-.2373,0-.41992-.18311-.41992-.41357v-3.9834Z"
         fill="#1f1f1f"
         id="path33" />
      <path
         d="m26.75977,83.02489v-.01367c0-1.32764,1.01562-2.45264,2.44531-2.45264.71094,0,1.18555.16992,1.61914.48145.08105.06055.16895.17578.16895.33887,0,.22314-.18262.41309-.41309.41309-.1084,0-.18945-.04785-.25781-.09473-.30469-.22363-.63672-.37305-1.15137-.37305-.87402,0-1.53809.76562-1.53809,1.67383v.01318c0,.97559.64453,1.69385,1.61328,1.69385.44629,0,.85352-.14258,1.14453-.35938v-.88721h-.93555c-.20312,0-.37207-.15576-.37207-.35889s.16895-.36621.37207-.36621h1.32129c.2373,0,.4209.18311.4209.41992v1.26709c0,.2373-.0957.40674-.29199.52881-.40625.27051-.97559.51465-1.68652.51465-1.48438,0-2.45898-1.05664-2.45898-2.43896Z"
         fill="#1f1f1f"
         id="path35" />
    </g>
    <g
       id="g45">
      <path
         d="m10.95117,48.95702l1.45605-1.23975c.65039-.54883.8877-.854.8877-1.28076,0-.46729-.33203-.73828-.76562-.73828-.37988,0-.64453.17627-.93555.52832-.06055.06787-.15527.12891-.29102.12891-.20996,0-.37891-.16943-.37891-.37939,0-.08838.0332-.18311.09375-.25732.38672-.48145.82715-.76562,1.57227-.76562.92773,0,1.56543.56885,1.56543,1.41602v.01367c0,.74512-.39355,1.15137-1.2334,1.83594l-.97559.8125h1.9248c.20312,0,.36523.16309.36523.36621s-.16211.36572-.36523.36572h-2.69043c-.25684,0-.44629-.14893-.44629-.39307,0-.1626.07422-.29785.2168-.41309Z"
         fill="#1f1f1f"
         id="path39" />
      <path
         d="m21.20312,49.22801c-.07422-.06104-.13574-.17627-.13574-.29834,0-.2168.18262-.39941.39941-.39941.12305,0,.21094.04736.27832.1084.29785.29785.63672.4541,1.07715.4541.4668,0,.82031-.28516.82031-.71875v-.01318c0-.46729-.42773-.73193-1.0918-.73193h-.16895c-.19629,0-.3584-.16211-.3584-.35889,0-.1084.04688-.20996.17578-.33887l1.11133-1.18555h-1.7207c-.2041,0-.36719-.1626-.36719-.35889,0-.20312.16309-.36621.36719-.36621h2.4248c.2373,0,.41309.14258.41309.36621,0,.19629-.09473.31152-.23633.4541l-1.11914,1.1582c.71875.08789,1.39648.4541,1.39648,1.32812v.01318c0,.87402-.6709,1.50439-1.66016,1.50439-.69727,0-1.21875-.24414-1.60547-.6167Z"
         fill="#1f1f1f"
         id="path41" />
      <path
         d="m33.78613,48.6992h-2.12012c-.22461,0-.40723-.16211-.40723-.39258,0-.1626.06152-.29785.18262-.44043l2.22949-2.64209c.14941-.17627.26465-.271.50781-.271.22363,0,.40723.17578.40723.39941v2.6626h.36523c.19629,0,.3457.15576.3457.3457s-.14941.33838-.3457.33838h-.36523v.70508c0,.22363-.17676.39258-.40039.39258s-.39941-.16895-.39941-.39258v-.70508Zm0-.68408v-1.87646l-1.55859,1.87646h1.55859Z"
         fill="#1f1f1f"
         id="path43" />
    </g>
    <g
       id="g57">
      <path
         d="m11.82812,129.14403c0-.23682.18164-.41992.41992-.41992h1.69336c.5957,0,1.06348.17627,1.36816.47412.25098.25781.39355.60986.39355,1.02344v.01318c0,.75879-.44141,1.21924-1.07812,1.41602l.9082,1.14502c.08203.10156.13574.18945.13574.31836,0,.23047-.19629.38623-.39941.38623-.18945,0-.3125-.08838-.40625-.2168l-1.15234-1.47021h-1.05078v1.27344c0,.23047-.18164.41357-.41211.41357-.23828,0-.41992-.18311-.41992-.41357v-3.94287Zm2.05273,1.93115c.5957,0,.97461-.31152.97461-.79297v-.01367c0-.50781-.36523-.78564-.98242-.78564h-1.21289v1.59229h1.2207Z"
         fill="#1f1f1f"
         id="path47" />
      <path
         d="m16.96094,133.04637v-3.90234c0-.23682.18164-.41992.41992-.41992h2.75684c.20312,0,.37207.16943.37207.37256,0,.20996-.16895.37256-.37207.37256h-2.34473v1.23291h2.04004c.20312,0,.37207.16992.37207.37988,0,.20312-.16895.36572-.37207.36572h-2.04004v1.27344h2.37891c.20312,0,.37305.16943.37305.37256,0,.20996-.16992.37305-.37305.37305h-2.79102c-.23828,0-.41992-.18311-.41992-.42041Z"
         fill="#1f1f1f"
         id="path49" />
      <path
         d="m21.5752,132.93797c-.09473-.06787-.16309-.18311-.16309-.31836,0-.2168.17676-.38623.39355-.38623.11523,0,.18945.03418.24316.07471.39355.31152.81348.48779,1.32812.48779.51562,0,.83984-.24414.83984-.59619v-.01367c0-.33838-.18945-.52148-1.07031-.7251-1.00879-.24365-1.57812-.54199-1.57812-1.41602v-.01318c0-.81299.67773-1.37549,1.61914-1.37549.5957,0,1.07715.15625,1.50391.44043.0957.0542.18359.16943.18359.33203,0,.2168-.17676.38623-.39355.38623-.08105,0-.14941-.02051-.2168-.06104-.36621-.2373-.71777-.35938-1.09082-.35938-.4873,0-.77148.25098-.77148.5625v.01367c0,.36572.2168.52832,1.13086.74512,1.00195.24414,1.51758.60303,1.51758,1.38867v.01367c0,.8877-.69727,1.41602-1.69336,1.41602-.64453,0-1.25391-.20312-1.78223-.59619Z"
         fill="#1f1f1f"
         id="path51" />
      <path
         d="m26.26172,133.04637v-3.90234c0-.23682.18164-.41992.41992-.41992h2.75684c.20312,0,.37207.16943.37207.37256,0,.20996-.16895.37256-.37207.37256h-2.34473v1.23291h2.04004c.20312,0,.37207.16992.37207.37988,0,.20312-.16895.36572-.37207.36572h-2.04004v1.27344h2.37891c.20312,0,.37305.16943.37305.37256,0,.20996-.16992.37305-.37305.37305h-2.79102c-.23828,0-.41992-.18311-.41992-.42041Z"
         fill="#1f1f1f"
         id="path53" />
      <path
         d="m32.22461,129.49657h-1.15137c-.2168,0-.38574-.17627-.38574-.38623s.16895-.38623.38574-.38623h3.14941c.21094,0,.37988.17627.37988.38623s-.16895.38623-.37988.38623h-1.1582v3.59033c0,.23047-.18945.41357-.41992.41357s-.41992-.18311-.41992-.41357v-3.59033Z"
         fill="#1f1f1f"
         id="path55" />
    </g>
    <g
       id="g63">
      <path
         d="m19.83203,176.60155c0-.23047.18359-.41309.41992-.41309.23047,0,.41406.18262.41406.41309v3.9834c0,.23047-.18359.41357-.41406.41357-.23633,0-.41992-.18311-.41992-.41357v-3.9834Z"
         fill="#1f1f1f"
         id="path59" />
      <path
         d="m22.14258,176.61522c0-.23047.18164-.41992.41992-.41992h.08789c.20312,0,.31836.10156.43359.24365l2.37109,3.06885v-2.91309c0-.22363.18262-.40625.40625-.40625.23047,0,.41406.18262.41406.40625v3.9834c0,.23047-.17676.41357-.40723.41357h-.03418c-.19629,0-.31836-.10156-.43359-.25049l-2.43848-3.15723v3.00781c0,.22363-.18262.40674-.40723.40674-.23047,0-.41211-.18311-.41211-.40674v-3.97656Z"
         fill="#1f1f1f"
         id="path61" />
    </g>
    <g
       id="g71">
      <path
         d="m15.54492,316.55126v-.01367c0-1.34814,1.06445-2.45264,2.52734-2.45264s2.51367,1.09082,2.51367,2.43945v.01318c0,1.34814-1.06445,2.45264-2.52734,2.45264s-2.51367-1.09082-2.51367-2.43896Zm3.94922,0v-.01367c0-.81299-.5957-1.49023-1.43555-1.49023s-1.42285.66357-1.42285,1.47705v.01318c0,.81299.59668,1.49072,1.43652,1.49072s1.42188-.66406,1.42188-1.47705Z"
         fill="#f0f0f0"
         id="path65" />
      <path
         d="m21.66406,316.87645v-2.229c0-.29102.23047-.52148.52148-.52148s.52148.23047.52148.52148v2.20215c0,.77197.38672,1.17188,1.02344,1.17188s1.02344-.38623,1.02344-1.13818v-2.23584c0-.29102.23047-.52148.52148-.52148s.52148.23047.52148.52148v2.19531c0,1.43604-.80664,2.14062-2.08008,2.14062s-2.05273-.71143-2.05273-2.10693Z"
         fill="#f0f0f0"
         id="path67" />
      <path
         d="m28.14844,315.1284h-1.00195c-.26367,0-.48047-.2168-.48047-.48096s.2168-.48096.48047-.48096h3.04883c.26367,0,.48047.2168.48047.48096s-.2168.48096-.48047.48096h-1.00293v3.29932c0,.2915-.23047.52197-.52246.52197-.29102,0-.52148-.23047-.52148-.52197v-3.29932Z"
         fill="#f0f0f0"
         id="path69" />
    </g>
    <g
       id="g77">
      <path
         d="m14.89258,26.39745h-3.60352c-.51367,0-.93848-.37549-.93848-.88867,0-.40039.16211-.71289.4502-1.05078l3.80371-4.41699c.36328-.42529.6377-.65039,1.20117-.65039.5127,0,.92578.40039.92578.91309v4.5293h.46289c.43848,0,.78809.35059.78809.78857s-.34961.77588-.78809.77588h-.46289v1.05078c0,.51318-.41309.91357-.92578.91357s-.91309-.40039-.91309-.91357v-1.05078Zm0-1.56445v-2.72754l-2.32715,2.72754h2.32715Z"
         fill="#1f1f1f"
         id="path73" />
      <path
         d="m32.03125,21.35497l-.67578.17529c-.09961.0249-.2373.0498-.33789.0498-.4502,0-.83789-.37549-.83789-.82568,0-.38818.25-.71338.6377-.82568l1.23926-.36328c.3623-.09961.6377-.1626.90039-.1626h.02539c.52539,0,.9502.42529.9502.95117v7.05664c0,.52588-.4248.95117-.9502.95117s-.95117-.42529-.95117-.95117v-6.05566Z"
         fill="#1f1f1f"
         id="path75" />
    </g>
  </g>
  <g
     id="uuid-9e16e32b-1410-444a-b78d-56a04f8724dc"
     data-name="components"
     inkscape:groupmode="layer"
     style="display:none">
    <circle
       id="uuid-6e838060-8c39-4c35-9a94-029c397acd4a"
       data-name="Steps#CKSSThreeH"
       cx="23.032049"
       cy="61.83651"
       r="5"
       fill="#ff0000" />
    <circle
       id="uuid-8f58e4d8-7041-4c37-ad7a-fb204a6bc746"
       data-name="Clk#PJ301MPort"
       cx="23.032061"
       cy="99.895348"
       r="5"
       fill="#00ff00" />
    <circle
       id="uuid-1ada5b53-ff05-4ebb-86de-7f84b9a6b83a"
       data-name="Reset#PJ301MPort"
       cx="23.032061"
       cy="148.01006"
       r="5"
       fill="#00ff00" />
    <circle
       id="uuid-021fd4da-1cec-42fd-ac29-791b12f2a1e7"
       data-name="In1#PJ301MPort"
       cx="23.032061"
       cy="196.00006"
       r="5"
       fill="#00ff00" />
    <circle
       id="uuid-5abe03e2-8c03-4ca8-acf5-cfd4b634be34"
       data-name="In2#PJ301MPort"
       cx="23.032061"
       cy="226.00006"
       r="5"
       fill="#00ff00" />
    <circle
       id="uuid-ad65e535-1066-49bf-935e-0a825101577e"
       data-name="In3#PJ301MPort"
       cx="23.032061"
       cy="256.00006"
       r="5"
       fill="#00ff00" />
    <circle
       id="uuid-2d5b7763-5dba-458d-bab8-151c524a8a4d"
       data-name="In4#PJ301MPort"
       cx="23.032061"
       cy="286.00003"
       r="5"
       fill="#00ff00" />
    <circle
       id="uuid-6f7c049b-16b9-4f0e-85d1-649900b18775"
       data-name="Out#PJ301MPort"
       cx="23.032061"
       cy="334"
       r="5"
       fill="#0000ff" />
    <circle
       id="uuid-944024af-2083-4462-b471-99e542d305b4"
       data-name="Pos1#TinyLight"
       cx="34.032059"
       cy="186.7877"
       r="1.5"
       fill="#ff00ff" />
    <circle
       id="uuid-54112906-37e6-433a-b1b7-2b70c0c9b6bf"
       data-name="Pos2#TinyLight"
       cx="34.032059"
       cy="214.94446"
       r="1.5"
       fill="#ff00ff" />
    <circle
       id="uuid-c11bc291-fc32-4655-bef1-0b641667ad35"
       data-name="Pos3#TinyLight"
       cx="34.032059"
       cy="244.94446"
       r="1.5"
       fill="#ff00ff" />
    <circle
       id="uuid-f020569f-40a6-42a8-95a1-1ff7c36b52d2"
       data-name="Pos4#TinyLight"
       cx="34.032059"
       cy="274.94443"
       r="1.5"
       fill="#ff00ff" />
  </g>
</svg>
