<?xml version="1.0" encoding="UTF-8"?>
<svg xmlns="http://www.w3.org/2000/svg" width="105" height="380" xmlns:xlink="http://www.w3.org/1999/xlink" viewBox="0 0 105 380">
  <defs>
    <linearGradient id="uuid-7fb16b1b-2862-4993-ac30-28cb40b8fdd2" x1="52.5" y1="0" x2="52.5" y2="380" gradientUnits="userSpaceOnUse">
      <stop offset="0" stop-color="#2a2a2b"/>
      <stop offset="1" stop-color="#171717"/>
    </linearGradient>
  </defs>
  <g id="uuid-0ad17ff8-b177-4213-b1ac-4b1363b98489" data-name="FND BG">
    <rect width="105" height="380" fill="url(#uuid-7fb16b1b-2862-4993-ac30-28cb40b8fdd2)"/>
  </g>
  <g id="uuid-fb3b85b0-05d0-4d7a-a2f8-f19d86369fdf" data-name="FND GRAPH">
    <g>
      <line x1="22.9792" y1="333.67721" x2="44.25791" y2="333.67721" fill="none" stroke="#ededed" stroke-linecap="round" stroke-linejoin="round" stroke-width=".8"/>
      <line x1="22.9792" y1="303.77331" x2="44.25791" y2="303.77331" fill="none" stroke="#ededed" stroke-linecap="round" stroke-linejoin="round" stroke-width=".8"/>
      <line x1="22.9792" y1="273.86941" x2="44.25791" y2="273.86941" fill="none" stroke="#ededed" stroke-linecap="round" stroke-linejoin="round" stroke-width=".8"/>
      <line x1="22.9792" y1="243.96551" x2="44.25791" y2="243.96551" fill="none" stroke="#ededed" stroke-linecap="round" stroke-linejoin="round" stroke-width=".8"/>
      <line x1="22.9792" y1="214.06161" x2="44.25791" y2="214.06161" fill="none" stroke="#ededed" stroke-linecap="round" stroke-linejoin="round" stroke-width=".8"/>
      <line x1="22.9792" y1="184.1577" x2="44.25791" y2="184.1577" fill="none" stroke="#ededed" stroke-linecap="round" stroke-linejoin="round" stroke-width=".8"/>
      <line x1="22.9792" y1="154.2538" x2="44.25791" y2="154.2538" fill="none" stroke="#ededed" stroke-linecap="round" stroke-linejoin="round" stroke-width=".8"/>
      <line x1="22.9792" y1="124.3499" x2="44.25791" y2="124.3499" fill="none" stroke="#ededed" stroke-linecap="round" stroke-linejoin="round" stroke-width=".8"/>
    </g>
    <g>
      <line x1="52.9809" y1="333.67721" x2="74.2596" y2="333.67721" fill="none" stroke="#ededed" stroke-linecap="round" stroke-linejoin="round" stroke-width=".8"/>
      <line x1="52.9809" y1="303.77331" x2="74.2596" y2="303.77331" fill="none" stroke="#ededed" stroke-linecap="round" stroke-linejoin="round" stroke-width=".8"/>
      <line x1="52.9809" y1="273.86941" x2="74.2596" y2="273.86941" fill="none" stroke="#ededed" stroke-linecap="round" stroke-linejoin="round" stroke-width=".8"/>
      <line x1="52.9809" y1="243.96551" x2="74.2596" y2="243.96551" fill="none" stroke="#ededed" stroke-linecap="round" stroke-linejoin="round" stroke-width=".8"/>
      <line x1="52.9809" y1="214.06161" x2="74.2596" y2="214.06161" fill="none" stroke="#ededed" stroke-linecap="round" stroke-linejoin="round" stroke-width=".8"/>
      <line x1="52.9809" y1="184.1577" x2="74.2596" y2="184.1577" fill="none" stroke="#ededed" stroke-linecap="round" stroke-linejoin="round" stroke-width=".8"/>
      <line x1="52.9809" y1="154.2538" x2="74.2596" y2="154.2538" fill="none" stroke="#ededed" stroke-linecap="round" stroke-linejoin="round" stroke-width=".8"/>
      <line x1="52.9809" y1="124.3499" x2="74.2596" y2="124.3499" fill="none" stroke="#ededed" stroke-linecap="round" stroke-linejoin="round" stroke-width=".8"/>
    </g>
    <path d="m20.87349,85.38806l1.65796-2.87167c.14313-.24791-.03578-.55779-.32204-.55779h-3.31592c-.28626,0-.46517.30989-.32204.55779l1.65796,2.87167c.14313.24791.50096.24791.64409,0Z" fill="#ededed"/>
    <path d="m52.71745,85.38807l1.65796-2.87167c.14313-.24791-.03578-.55779-.32204-.55779h-3.31592c-.28626,0-.46517.30989-.32204.55779l1.65796,2.87167c.14313.24791.50096.24791.64409,0Z" fill="#ededed"/>
    <path d="m84.8752,85.38807l1.65796-2.87167c.14313-.24791-.03578-.55779-.32204-.55779h-3.31592c-.28626,0-.46517.30989-.32204.55779l1.65796,2.87167c.14313.24791.50096.24791.64409,0Z" fill="#ededed"/>
    <g>
      <path d="m32.26,140.84683l3.20293-.85822c.27651-.07409.36912-.41972.1667-.62214l-2.34471-2.34471c-.20242-.20242-.54805-.1098-.62214.1667l-.85822,3.20293c-.07409.27651.17893.52953.45544.45544Z" fill="#ededed"/>
      <path d="m33.43229,139.1738l2.47982-2.47982c.53225-.53225,1.25413-.83126,2.00684-.83126h4.68001" fill="none" stroke="#ededed" stroke-linecap="round" stroke-linejoin="round" stroke-width=".8"/>
      <path d="m32.26,170.75073l3.20293-.85822c.27651-.07409.36912-.41972.1667-.62214l-2.34471-2.34471c-.20242-.20242-.54805-.1098-.62214.1667l-.85822,3.20293c-.07409.27651.17893.52953.45544.45544Z" fill="#ededed"/>
      <path d="m33.43229,169.07771l2.47982-2.47982c.53225-.53225,1.25413-.83126,2.00684-.83126h4.68001" fill="none" stroke="#ededed" stroke-linecap="round" stroke-linejoin="round" stroke-width=".8"/>
      <path d="m32.26,200.65463l3.20293-.85822c.27651-.07409.36912-.41972.1667-.62214l-2.34471-2.34471c-.20242-.20242-.54805-.1098-.62214.1667l-.85822,3.20293c-.07409.27651.17893.52953.45544.45544Z" fill="#ededed"/>
      <path d="m33.43229,198.98161l2.47982-2.47982c.53225-.53225,1.25413-.83126,2.00684-.83126h4.68001" fill="none" stroke="#ededed" stroke-linecap="round" stroke-linejoin="round" stroke-width=".8"/>
      <path d="m32.26,230.55853l3.20293-.85822c.27651-.07409.36912-.41972.1667-.62214l-2.34471-2.34471c-.20242-.20242-.54805-.1098-.62214.1667l-.85822,3.20293c-.07409.27651.17893.52953.45544.45544Z" fill="#ededed"/>
      <path d="m33.43229,228.88551l2.47982-2.47982c.53225-.53225,1.25413-.83126,2.00684-.83126h4.68001" fill="none" stroke="#ededed" stroke-linecap="round" stroke-linejoin="round" stroke-width=".8"/>
      <path d="m32.26,260.46244l3.20293-.85822c.27651-.07409.36912-.41972.1667-.62214l-2.34471-2.34471c-.20242-.20242-.54805-.1098-.62214.1667l-.85822,3.20293c-.07409.27651.17893.52953.45544.45544Z" fill="#ededed"/>
      <path d="m33.43229,258.78941l2.47982-2.47982c.53225-.53225,1.25413-.83126,2.00684-.83126h4.68001" fill="none" stroke="#ededed" stroke-linecap="round" stroke-linejoin="round" stroke-width=".8"/>
      <path d="m32.26,290.36634l3.20293-.85822c.27651-.07409.36912-.41972.1667-.62214l-2.34471-2.34471c-.20242-.20242-.54805-.1098-.62214.1667l-.85822,3.20293c-.07409.27651.17893.52953.45544.45544Z" fill="#ededed"/>
      <path d="m33.43229,288.69331l2.47982-2.47982c.53225-.53225,1.25413-.83126,2.00684-.83126h4.68001" fill="none" stroke="#ededed" stroke-linecap="round" stroke-linejoin="round" stroke-width=".8"/>
      <path d="m32.26,320.27024l3.20293-.85822c.27651-.07409.36912-.41972.1667-.62214l-2.34471-2.34471c-.20242-.20242-.54805-.1098-.62214.1667l-.85822,3.20293c-.07409.27651.17893.52953.45544.45544Z" fill="#ededed"/>
      <path d="m33.43229,318.59722l2.47982-2.47982c.53225-.53225,1.25413-.83126,2.00684-.83126h4.68001" fill="none" stroke="#ededed" stroke-linecap="round" stroke-linejoin="round" stroke-width=".8"/>
    </g>
    <path d="m95.99426,99.40625h-22.8822c-1.55908,0-2.83466,1.27557-2.83466,2.83459v33.04041h1.46576c.59766,0,1.15967-.23291,1.58252-.65576l10.79785-10.79785.84863.84863-10.79785,10.79785c-.64941.64941-1.51318,1.00732-2.43115,1.00732h-1.46576v28.70361h1.46576c.59814,0,1.16016-.23242,1.58252-.65527l10.79785-10.79834.84863.84863-10.79785,10.79834c-.64941.64941-1.5127,1.00684-2.43115,1.00684h-1.46576v28.70361h1.46576c.59814,0,1.16016-.23242,1.58252-.65527l10.79785-10.79785.84863.84863-10.79785,10.79785c-.64941.64941-1.5127,1.00684-2.43115,1.00684h-1.46576v28.70361h1.46576c.59814,0,1.16016-.23242,1.58252-.65527l10.79785-10.79785.84863.84863-10.79785,10.79785c-.64941.64941-1.5127,1.00684-2.43115,1.00684h-1.46576v28.7041h1.46576c.59766,0,1.15967-.23291,1.58252-.65576l10.79785-10.79785.84863.84863-10.79785,10.79785c-.64941.64941-1.51318,1.00732-2.43115,1.00732h-1.46576v28.70361h1.46576c.59766,0,1.15967-.23291,1.58252-.65576l10.79785-10.79785.84863.84863-10.79785,10.79785c-.64941.64941-1.51318,1.00732-2.43115,1.00732h-1.46576v28.70361h1.46576c.59814,0,1.16016-.23242,1.58252-.65527l10.79785-10.79834.84863.84863-10.79785,10.79834c-.64941.64941-1.5127,1.00684-2.43115,1.00684h-1.46576v29.47382c0,1.55902,1.27557,2.83466,2.83466,2.83466h22.8822c1.55908,0,2.83466-1.27563,2.83466-2.83466V102.24084c0-1.55902-1.27557-2.83459-2.83466-2.83459Z" fill="#ededed"/>
    <g>
      <circle cx="53.04737" cy="356.48323" r="1.18571" fill="#ededed"/>
      <path d="m44.405,360.4052c-.34551,0-.66126-.1952-.8158-.50419l-2.96428-5.92856c-.22526-.45057-.04266-.99844.40794-1.2237.45008-.22535.99831-.04271,1.22366.4079l2.14848,4.29696,2.14848-4.29696c.22526-.45057.77314-.63325,1.22366-.4079.45061.22526.63321.77314.40794,1.2237l-2.96428,5.92856c-.15454.30899-.47029.50419-.8158.50419Z" fill="#ededed"/>
      <path d="m60.68645,360.4052c-.34551,0-.66126-.1952-.8158-.50419l-2.96428-5.92856c-.22526-.45057-.04266-.99844.40794-1.2237.45016-.22535.9984-.04271,1.22366.4079l2.14848,4.29696,2.14848-4.29696c.22526-.45057.77305-.63325,1.22366-.4079.45061.22526.63321.77314.40794,1.2237l-2.96428,5.92856c-.15454.30899-.47029.50419-.8158.50419Z" fill="#ededed"/>
      <path d="m52.98814,360.4052c-2.13744,0-3.87637-1.73893-3.87637-3.87637s1.73893-3.87637,3.87637-3.87637c.84653,0,1.65102.26819,2.32653.77554.40278.30253.48401.87428.18153,1.27705-.30248.40273-.87432.48401-1.2771.18148-.357-.26815-.78267-.4099-1.23096-.4099-1.13156,0-2.05219.92059-2.05219,2.05219s.92064,2.05219,2.05219,2.05219c.44829,0,.87396-.14176,1.23096-.4099.40269-.30271.97444-.22125,1.2771.18148.30248.40278.22125.97453-.18153,1.27705-.67551.50735-1.48.77554-2.32653.77554Z" fill="#ededed"/>
    </g>
    <path d="m52.84502,320.34703l1.65796-2.87167c.14313-.24791-.03578-.55779-.32204-.55779h-3.31592c-.28626,0-.46517.30989-.32204.55779l1.65796,2.87167c.14313.24791.50096.24791.64409,0Z" fill="#ededed"/>
    <path d="m52.84502,290.44313l1.65796-2.87167c.14313-.24791-.03578-.55779-.32204-.55779h-3.31592c-.28626,0-.46517.30989-.32204.55779l1.65796,2.87167c.14313.24791.50096.24791.64409,0Z" fill="#ededed"/>
    <path d="m52.84502,260.53923l1.65796-2.87167c.14313-.24791-.03578-.55779-.32204-.55779h-3.31592c-.28626,0-.46517.30989-.32204.55779l1.65796,2.87167c.14313.24791.50096.24791.64409,0Z" fill="#ededed"/>
    <path d="m52.84502,230.63532l1.65796-2.87167c.14313-.24791-.03578-.55779-.32204-.55779h-3.31592c-.28626,0-.46517.30989-.32204.55779l1.65796,2.87167c.14313.24791.50096.24791.64409,0Z" fill="#ededed"/>
    <path d="m52.84502,200.73142l1.65796-2.87167c.14313-.24791-.03578-.55779-.32204-.55779h-3.31592c-.28626,0-.46517.30989-.32204.55779l1.65796,2.87167c.14313.24791.50096.24791.64409,0Z" fill="#ededed"/>
    <path d="m52.84502,170.82752l1.65796-2.87167c.14313-.24791-.03578-.55779-.32204-.55779h-3.31592c-.28626,0-.46517.30989-.32204.55779l1.65796,2.87167c.14313.24791.50096.24791.64409,0Z" fill="#ededed"/>
    <path d="m52.84502,140.92362l1.65796-2.87167c.14313-.24791-.03578-.55779-.32204-.55779h-3.31592c-.28626,0-.46517.30989-.32204.55779l1.65796,2.87167c.14313.24791.50096.24791.64409,0Z" fill="#ededed"/>
  </g>
  <g id="uuid-c0e731cc-156c-41bc-a1d5-95529e23302d" data-name="FND TXT">
    <g>
      <path d="m13.14725,45.45898c0-.2373.18311-.41992.42041-.41992h1.69336c.59619,0,1.06348.17578,1.36865.47412.25049.25732.39307.60986.39307,1.02295v.01367c0,.75879-.44043,1.21924-1.07715,1.41602l.90771,1.14453c.08154.10156.13525.18994.13525.31836,0,.23047-.19629.38672-.39941.38672-.18994,0-.31152-.08838-.40674-.2168l-1.15186-1.4707h-1.0498v1.27393c0,.23047-.18311.41357-.41309.41357-.2373,0-.42041-.18311-.42041-.41357v-3.94287Zm2.05322,1.93066c.5957,0,.97559-.31152.97559-.79248v-.01367c0-.5083-.36621-.78564-.98242-.78564h-1.21289v1.5918h1.21973Z" fill="#ebebeb"/>
      <path d="m18.28007,45.43164c0-.23047.18311-.41992.41992-.41992h.08838c.20312,0,.31836.10156.43359.24414l2.37109,3.06885v-2.91357c0-.22314.18262-.40625.40625-.40625.23047,0,.41309.18311.41309.40625v3.98389c0,.23047-.17578.41357-.40625.41357h-.03418c-.19629,0-.31836-.10156-.43359-.25098l-2.43848-3.15723v3.0083c0,.22363-.18311.40674-.40674.40674-.22998,0-.41309-.18311-.41309-.40674v-3.97705Z" fill="#ebebeb"/>
      <path d="m23.87528,45.45898c0-.2373.18311-.41992.41992-.41992h1.34863c1.49023,0,2.52002,1.02246,2.52002,2.35742v.01367c0,1.33447-1.02979,2.37109-2.52002,2.37109h-1.34863c-.23682,0-.41992-.18262-.41992-.41992v-3.90234Zm1.76855,3.56348c.99561,0,1.646-.6709,1.646-1.59863v-.01367c0-.92822-.65039-1.6123-1.646-1.6123h-.93506v3.22461h.93506Z" fill="#ebebeb"/>
    </g>
    <g>
      <path d="m72.53593,47.42383v-.01367c0-1.34863,1.00928-2.45264,2.4458-2.45264.73145,0,1.21289.2168,1.62598.53516.08789.06787.1626.18311.1626.33203,0,.23047-.18311.40674-.41357.40674-.11475,0-.19629-.04102-.25049-.08154-.3252-.26416-.67725-.42676-1.13135-.42676-.90088,0-1.56494.74512-1.56494,1.67334v.01367c0,.92773.65723,1.68018,1.56494,1.68018.50146,0,.83984-.1626,1.18555-.4541.06104-.0542.14941-.09473.25098-.09473.20996,0,.39258.17627.39258.38623,0,.12891-.06055.23047-.13525.29785-.44727.39307-.95557.63672-1.72119.63672-1.38184,0-2.41162-1.07715-2.41162-2.43848Z" fill="#ebebeb"/>
      <path d="m77.95292,45.41797c0-.22998.18311-.41309.42041-.41309.22998,0,.41309.18311.41309.41309v3.60449h2.14746c.20996,0,.37939.16943.37939.37939s-.16943.37939-.37939.37939h-2.56055c-.2373,0-.42041-.18262-.42041-.41992v-3.94336Z" fill="#ebebeb"/>
      <path d="m82.30643,49.36133v-3.90234c0-.2373.18311-.41992.41992-.41992h2.75732c.20312,0,.37256.16895.37256.37207,0,.21045-.16943.37305-.37256.37305h-2.34375v1.23291h2.03906c.20312,0,.37256.16943.37256.37939,0,.20312-.16943.36572-.37256.36572h-2.03906v1.27393h2.37793c.20312,0,.37207.16895.37207.37256,0,.20996-.16895.37256-.37207.37256h-2.7915c-.23682,0-.41992-.18262-.41992-.41992Z" fill="#ebebeb"/>
      <path d="m86.82743,49.23926l1.76172-3.92969c.09473-.20996.26416-.33838.50098-.33838h.04102c.2373,0,.39941.12842.49414.33838l1.76172,3.92969c.03418.06104.04736.12207.04736.17627,0,.22314-.16943.3999-.39307.3999-.19629,0-.33203-.11523-.40625-.2915l-.38623-.8877h-2.30322l-.3999.91455c-.06787.16943-.20996.26465-.38623.26465-.2168,0-.38623-.16992-.38623-.38672,0-.06055.02051-.12158.0542-.18945Zm3.10303-1.34131l-.8335-1.91748-.83301,1.91748h1.6665Z" fill="#ebebeb"/>
      <path d="m92.46854,45.45898c0-.2373.18311-.41992.41992-.41992h1.69385c.59619,0,1.06348.17578,1.36816.47412.25098.25732.39307.60986.39307,1.02295v.01367c0,.75879-.43994,1.21924-1.07715,1.41602l.90771,1.14453c.08154.10156.13574.18994.13574.31836,0,.23047-.19629.38672-.3999.38672-.18945,0-.31152-.08838-.40625-.2168l-1.15186-1.4707h-1.0498v1.27393c0,.23047-.18311.41357-.41357.41357-.23682,0-.41992-.18311-.41992-.41357v-3.94287Zm2.05273,1.93066c.59619,0,.97559-.31152.97559-.79248v-.01367c0-.5083-.36572-.78564-.98242-.78564h-1.2124v1.5918h1.21924Z" fill="#ebebeb"/>
    </g>
    <g>
      <path d="m43.24638,45.45898c0-.2373.18262-.41992.41992-.41992h1.44971c1.11133,0,1.80225.62988,1.80225,1.58496v.01367c0,1.06348-.85352,1.61914-1.89697,1.61914h-.94189v1.14502c0,.23047-.18262.41357-.41309.41357-.2373,0-.41992-.18311-.41992-.41357v-3.94287Zm1.80176,2.0459c.63037,0,1.02344-.35254,1.02344-.84668v-.01367c0-.55566-.3999-.84668-1.02344-.84668h-.96875v1.70703h.96875Z" fill="#ebebeb"/>
      <path d="m47.88261,47.76904v-2.35107c0-.22998.18311-.41309.42041-.41309.22998,0,.41309.18311.41309.41309v2.31738c0,.88086.4541,1.34814,1.19922,1.34814.73828,0,1.19238-.44043,1.19238-1.31445v-2.35107c0-.22998.18262-.41309.41992-.41309.23047,0,.41309.18311.41309.41309v2.31055c0,1.41602-.79932,2.12695-2.03906,2.12695-1.2334,0-2.01904-.71094-2.01904-2.08643Z" fill="#ebebeb"/>
      <path d="m53.17899,49.25293c-.09473-.06787-.1626-.18311-.1626-.31836,0-.2168.17627-.38623.39307-.38623.11523,0,.18945.03369.24365.07471.39307.31152.81299.4873,1.32812.4873.51465,0,.83984-.24365.83984-.5957v-.01367c0-.33887-.18945-.52197-1.07031-.7251-1.00928-.24365-1.57861-.54199-1.57861-1.41602v-.01318c0-.81348.67773-1.37549,1.61914-1.37549.59619,0,1.07715.15576,1.50391.43994.09521.05469.18311.16992.18311.33203,0,.2168-.17627.38672-.39307.38672-.08105,0-.14893-.02051-.2168-.06152-.36572-.23682-.71777-.35889-1.09082-.35889-.4873,0-.77197.25049-.77197.5625v.01318c0,.36621.2168.52881,1.13135.74561,1.00293.24365,1.51758.60303,1.51758,1.38867v.01367c0,.88721-.69775,1.41602-1.69385,1.41602-.64355,0-1.25342-.20361-1.78174-.59619Z" fill="#ebebeb"/>
      <path d="m57.86552,45.41797c0-.22998.18262-.41309.41992-.41309.23047,0,.41309.18311.41309.41309v1.59229h2.2627v-1.59229c0-.22998.18311-.41309.41357-.41309.23682,0,.41992.18311.41992.41309v3.98389c0,.23047-.18311.41357-.41992.41357-.23047,0-.41357-.18311-.41357-.41357v-1.61914h-2.2627v1.61914c0,.23047-.18262.41357-.41309.41357-.2373,0-.41992-.18311-.41992-.41357v-3.98389Z" fill="#ebebeb"/>
    </g>
    <g>
      <path d="m23.01102,28.01318c-.21289-.15039-.36328-.42529-.36328-.72607,0-.5.40039-.88818.90137-.88818.25,0,.4248.0874.5498.17529.66309.48779,1.38867.78809,2.24023.78809.78809,0,1.26367-.3125,1.26367-.82568v-.0249c0-.48828-.30078-.73828-1.76465-1.11377-1.76367-.45068-2.90234-.93848-2.90234-2.67725v-.02539c0-1.58887,1.27637-2.64014,3.06543-2.64014,1.06348,0,1.98926.27539,2.77734.77588.21289.125.42578.3877.42578.76318,0,.50049-.40039.88818-.90137.88818-.1875,0-.33789-.0498-.4873-.1377-.63867-.375-1.23926-.58789-1.83984-.58789-.73828,0-1.12598.33789-1.12598.76367v.02441c0,.57617.375.76367,1.88965,1.15137,1.77637.46289,2.77734,1.10107,2.77734,2.62793v.02441c0,1.73926-1.32617,2.71533-3.21582,2.71533-1.15039,0-2.31445-.3501-3.29004-1.05078Z" fill="#ebebeb"/>
      <path d="m36.98075,28.78906l-.73828-.73828c-.71289.61279-1.56348,1.01318-2.60254,1.01318-1.67676,0-2.94043-.97607-2.94043-2.52734v-.0249c0-1.11377.60059-1.90186,1.70215-2.40234-.43848-.60059-.61328-1.15137-.61328-1.75195v-.0249c0-1.20117.96387-2.30225,2.65234-2.30225,1.48926,0,2.46484.97607,2.46484,2.20215v.0249c0,1.17627-.75,1.86475-1.82617,2.28955l1.15039,1.13867c.2002-.2998.38867-.61279.57617-.95068.08789-.17529.33789-.43799.71289-.43799.43848,0,.80078.36279.80078.80078,0,.1377-.03711.27539-.1123.40039-.25.43799-.53809.88867-.83887,1.31396l.80078.78809c.17578.17529.28809.36279.28809.62549,0,.47559-.3623.83838-.83789.83838-.2627,0-.43848-.07471-.63867-.2749Zm-1.83887-1.82715l-1.67676-1.68896c-.58789.31299-.82617.72559-.82617,1.16357v.0249c0,.61328.51367,1.02588,1.22656,1.02588.4502,0,.87598-.2002,1.27637-.52539Zm.08691-4.5918v-.02539c0-.5-.33691-.81299-.8252-.81299-.5127,0-.85059.36279-.85059.88818v.02539c0,.3877.14941.67578.5127,1.08838.7627-.2876,1.16309-.60059,1.16309-1.16357Z" fill="#ebebeb"/>
      <path d="m40.07548,21.06885c0-.53809.42578-.96338.96387-.96338s.96387.42529.96387.96338v2.57764h3.55273v-2.57764c0-.53809.42578-.96338.96387-.96338s.96289.42529.96289.96338v6.98193c0,.53809-.4248.96338-.96289.96338s-.96387-.42529-.96387-.96338v-2.62793h-3.55273v2.62793c0,.53809-.42578.96338-.96387.96338s-.96387-.42529-.96387-.96338v-6.98193Z" fill="#ebebeb"/>
      <path d="m56.61356,27.7002l3.05273-6.89404c.21289-.47559.60059-.76318,1.12598-.76318h.1123c.52637,0,.90137.2876,1.11426.76318l3.05273,6.89404c.0625.1377.10059.2627.10059.3877,0,.51318-.40039.92627-.91406.92627-.4502,0-.75098-.26318-.92578-.66357l-.58789-1.37598h-3.85352l-.61328,1.43896c-.16309.37549-.48828.60059-.88867.60059-.5,0-.88867-.40039-.88867-.90088,0-.1377.05078-.27539.11328-.41309Zm5.41797-2.42725l-1.21387-2.89014-1.21387,2.89014h2.42773Z" fill="#ebebeb"/>
      <path d="m66.64286,28.01318c-.21289-.15039-.3623-.42529-.3623-.72607,0-.5.40039-.88818.90039-.88818.25,0,.42578.0874.55078.17529.66309.48779,1.38867.78809,2.23926.78809.78809,0,1.26367-.3125,1.26367-.82568v-.0249c0-.48828-.2998-.73828-1.76367-1.11377-1.76465-.45068-2.90332-.93848-2.90332-2.67725v-.02539c0-1.58887,1.27637-2.64014,3.06543-2.64014,1.06348,0,1.98926.27539,2.77832.77588.21191.125.4248.3877.4248.76318,0,.50049-.40039.88818-.90039.88818-.1875,0-.33789-.0498-.48828-.1377-.6377-.375-1.23828-.58789-1.83887-.58789-.73828,0-1.12598.33789-1.12598.76367v.02441c0,.57617.375.76367,1.88867,1.15137,1.77734.46289,2.77832,1.10107,2.77832,2.62793v.02441c0,1.73926-1.32715,2.71533-3.21582,2.71533-1.15137,0-2.31543-.3501-3.29102-1.05078Z" fill="#ebebeb"/>
      <path d="m74.95829,21.14355c0-.5376.42578-.96289.96387-.96289h3.04004c1.11328,0,1.97656.3125,2.55273.88818.4873.48779.75,1.17627.75,2.00195v.0249c0,1.37646-.6875,2.22754-1.75098,2.66504l1.33887,1.62695c.1875.2373.3125.4375.3125.73828,0,.5376-.4502.88818-.91309.88818-.43848,0-.72559-.21289-.95117-.50049l-1.87695-2.37744h-1.53906v1.91455c0,.53809-.42578.96338-.96289.96338-.53809,0-.96387-.42529-.96387-.96338v-6.90723Zm3.87891,3.29102c.93848,0,1.47656-.50049,1.47656-1.23877v-.0249c0-.82617-.57617-1.25098-1.51465-1.25098h-1.91406v2.51465h1.95215Z" fill="#ebebeb"/>
    </g>
    <g>
      <path d="m17.35136,104.73145c0-.23047.18311-.41357.41992-.41357.23047,0,.41357.18311.41357.41357v3.9834c0,.23047-.18311.41309-.41357.41309-.23682,0-.41992-.18262-.41992-.41309v-3.9834Z" fill="#ebebeb"/>
      <path d="m19.66093,104.74463c0-.22998.18262-.41992.41992-.41992h.08789c.20361,0,.31885.10156.43359.24365l2.37158,3.06934v-2.91309c0-.22363.18262-.40674.40625-.40674.23047,0,.41309.18311.41309.40674v3.9834c0,.23047-.17578.41309-.40625.41309h-.03369c-.19678,0-.31885-.10156-.43359-.25049l-2.43896-3.15674v3.00781c0,.22363-.18311.40625-.40674.40625-.23047,0-.41309-.18262-.41309-.40625v-3.97705Z" fill="#ebebeb"/>
    </g>
    <g>
      <path d="m45.67558,105.12402h-1.15186c-.2168,0-.38574-.17578-.38574-.38574,0-.21045.16895-.38672.38574-.38672h3.15039c.20996,0,.37939.17627.37939.38672,0,.20996-.16943.38574-.37939.38574h-1.1582v3.59082c0,.23047-.18994.41309-.41992.41309-.23047,0-.42041-.18262-.42041-.41309v-3.59082Z" fill="#ebebeb"/>
      <path d="m49.05448,104.77197c0-.2373.18262-.42041.41992-.42041h1.69385c.59619,0,1.06348.17627,1.36816.47461.25098.25732.39307.60938.39307,1.02295v.01318c0,.75879-.44043,1.21973-1.07715,1.41602l.90771,1.14551c.08154.10156.13574.18945.13574.31836,0,.22998-.19629.38574-.3999.38574-.18945,0-.31152-.08789-.40625-.2168l-1.15186-1.46973h-1.05029v1.27344c0,.23047-.18262.41309-.41309.41309-.2373,0-.41992-.18262-.41992-.41309v-3.94287Zm2.05273,1.93066c.59619,0,.97559-.31152.97559-.79248v-.01367c0-.50781-.36572-.78613-.98242-.78613h-1.21289v1.59229h1.21973Z" fill="#ebebeb"/>
      <path d="m54.21268,104.73145c0-.23047.18311-.41357.41992-.41357.23047,0,.41357.18311.41357.41357v3.9834c0,.23047-.18311.41309-.41357.41309-.23682,0-.41992-.18262-.41992-.41309v-3.9834Z" fill="#ebebeb"/>
      <path d="m56.27372,106.73633v-.01318c0-1.32812,1.01611-2.45264,2.44531-2.45264.71143,0,1.18604.16943,1.61963.48096.08105.06104.16943.17627.16943.33887,0,.22363-.18311.41309-.41357.41309-.1084,0-.18945-.04736-.25732-.09473-.30469-.22363-.63672-.37256-1.15186-.37256-.87402,0-1.5376.76562-1.5376,1.67334v.01367c0,.97559.64355,1.69385,1.6123,1.69385.44727,0,.85352-.14258,1.14502-.35938v-.8877h-.93506c-.20312,0-.37256-.15527-.37256-.35889,0-.20312.16943-.36572.37256-.36572h1.32129c.23682,0,.41992.18262.41992.41992v1.26709c0,.23682-.09473.40625-.2915.52832-.40625.271-.97559.51514-1.68701.51514-1.4834,0-2.45898-1.05713-2.45898-2.43945Z" fill="#ebebeb"/>
    </g>
    <g>
      <path d="m77.71073,108.69678c-.11523-.08154-.19629-.23047-.19629-.39307,0-.271.2168-.48096.48779-.48096.13525,0,.23047.04736.29785.09473.35938.26416.75195.42676,1.21289.42676.42676,0,.68408-.16943.68408-.44678v-.01367c0-.26465-.1626-.3999-.95508-.60303-.95508-.24365-1.57178-.5083-1.57178-1.44971v-.01367c0-.86035.69092-1.42969,1.65967-1.42969.57617,0,1.07764.14941,1.50439.41992.11523.06787.22998.20996.22998.41357,0,.271-.2168.48096-.48779.48096-.10156,0-.18262-.02734-.26416-.07422-.34521-.20361-.67041-.31885-.99561-.31885-.3999,0-.60986.18311-.60986.41357v.01367c0,.31152.20312.41309,1.02295.62305.96191.25049,1.50391.59619,1.50391,1.42285v.01367c0,.94141-.71777,1.46973-1.74121,1.46973-.62305,0-1.25293-.18945-1.78174-.56885Z" fill="#1f1f1f"/>
      <path d="m85.43974,109.1167l-.3999-.3999c-.38623.33203-.84668.54883-1.40918.54883-.90771,0-1.5918-.52832-1.5918-1.36816v-.01367c0-.60303.3252-1.02979.92139-1.30078-.2373-.3252-.33203-.62354-.33203-.94873v-.01318c0-.65039.52148-1.24707,1.43604-1.24707.80615,0,1.33496.52881,1.33496,1.19238v.01367c0,.63672-.40674,1.00977-.98926,1.24023l.62354.61621c.1084-.1626.20996-.33203.31152-.51465.04736-.09521.18262-.2373.38623-.2373.23682,0,.43359.19629.43359.43359,0,.07422-.02051.14893-.06104.2168-.13574.2373-.2915.48096-.4541.71143l.43359.42676c.09473.09473.15576.19629.15576.33838,0,.25781-.19629.4541-.45361.4541-.14258,0-.2373-.04053-.3457-.14893Zm-.99609-.98926l-.90771-.91455c-.31836.16943-.44727.39307-.44727.62988v.01367c0,.33203.27783.55566.66406.55566.24414,0,.47412-.1084.69092-.28467Zm.04785-2.48633v-.01318c0-.27148-.18311-.44043-.44727-.44043-.27783,0-.46094.19629-.46094.48047v.01367c0,.20996.08154.36621.27783.58984.41357-.15625.63037-.3252.63037-.63037Z" fill="#1f1f1f"/>
      <path d="m87.28544,104.93652c0-.29102.22998-.52148.52148-.52148.29102,0,.52148.23047.52148.52148v1.39551h1.92432v-1.39551c0-.29102.22998-.52148.52148-.52148s.52197.23047.52197.52148v3.78027c0,.2915-.23047.52197-.52197.52197s-.52148-.23047-.52148-.52197v-1.42285h-1.92432v1.42285c0,.2915-.23047.52197-.52148.52197-.2915,0-.52148-.23047-.52148-.52197v-3.78027Z" fill="#1f1f1f"/>
    </g>
  </g>
</svg>