<?xml version="1.0" encoding="utf-8"?>
<!-- Generator: Adobe Illustrator 27.8.1, SVG Export Plug-In . SVG Version: 6.00 Build 0)  -->
<svg version="1.0"
	 id="svg208" xmlns:svg="http://www.w3.org/2000/svg" xmlns:inkscape="http://www.inkscape.org/namespaces/inkscape" xmlns:sodipodi="http://sodipodi.sourceforge.net/DTD/sodipodi-0.dtd"
	 xmlns="http://www.w3.org/2000/svg" xmlns:xlink="http://www.w3.org/1999/xlink" x="0px" y="0px" width="105px" height="380px"
	 viewBox="0 0 105 380" enable-background="new 0 0 105 380" xml:space="preserve">
<sodipodi:namedview  bordercolor="#000000" borderopacity="0.25" id="namedview210" inkscape:current-layer="uuid-f5d828c0-96f2-44e6-9d4d-5f62c3fc741e" inkscape:cx="51.109771" inkscape:cy="190.22919" inkscape:deskcolor="#d1d1d1" inkscape:pagecheckerboard="0" inkscape:pageopacity="0.0" inkscape:showpageshadow="2" inkscape:window-height="1009" inkscape:window-maximized="1" inkscape:window-width="1920" inkscape:window-x="-8" inkscape:window-y="-8" inkscape:zoom="2.1815789" pagecolor="#ffffff" showgrid="false">
	</sodipodi:namedview>
<g id="uuid-c0c47bce-b523-4103-aaff-f7552d6374b9">
	
		<linearGradient id="rect9_00000018232444932061977110000012989135498264787112_" gradientUnits="userSpaceOnUse" x1="52.5" y1="381.27557" x2="52.5" y2="1.27557" gradientTransform="matrix(1 0 0 -1 0 381.27557)">
		<stop  offset="0" style="stop-color:#EBEBEB"/>
		<stop  offset="1" style="stop-color:#E1E1E1"/>
	</linearGradient>
	<rect id="rect9" y="0" fill="url(#rect9_00000018232444932061977110000012989135498264787112_)" width="105" height="380"/>
</g>
<g id="uuid-6a091a4e-2503-4fc8-8a71-a72d0bd14b8c">
	<g id="g28">
		
			<line id="line12" fill="none" stroke="#1F1F1F" stroke-width="0.8" stroke-linecap="round" stroke-linejoin="round" x1="22.9792" y1="333.67722" x2="44.25791" y2="333.67722"/>
		
			<line id="line14" fill="none" stroke="#1F1F1F" stroke-width="0.8" stroke-linecap="round" stroke-linejoin="round" x1="22.9792" y1="303.77332" x2="44.25791" y2="303.77332"/>
		
			<line id="line16" fill="none" stroke="#1F1F1F" stroke-width="0.8" stroke-linecap="round" stroke-linejoin="round" x1="22.9792" y1="273.86942" x2="44.25791" y2="273.86942"/>
		
			<line id="line18" fill="none" stroke="#1F1F1F" stroke-width="0.8" stroke-linecap="round" stroke-linejoin="round" x1="22.9792" y1="243.96552" x2="44.25791" y2="243.96552"/>
		
			<line id="line20" fill="none" stroke="#1F1F1F" stroke-width="0.8" stroke-linecap="round" stroke-linejoin="round" x1="22.9792" y1="214.06161" x2="44.25791" y2="214.06161"/>
		
			<line id="line22" fill="none" stroke="#1F1F1F" stroke-width="0.8" stroke-linecap="round" stroke-linejoin="round" x1="22.9792" y1="184.1577" x2="44.25791" y2="184.1577"/>
		
			<line id="line24" fill="none" stroke="#1F1F1F" stroke-width="0.8" stroke-linecap="round" stroke-linejoin="round" x1="22.9792" y1="154.2538" x2="44.25791" y2="154.2538"/>
		
			<line id="line26" fill="none" stroke="#1F1F1F" stroke-width="0.8" stroke-linecap="round" stroke-linejoin="round" x1="22.9792" y1="124.3499" x2="44.25791" y2="124.3499"/>
	</g>
	<g id="g46">
		
			<line id="line30" fill="none" stroke="#1F1F1F" stroke-width="0.8" stroke-linecap="round" stroke-linejoin="round" x1="52.9809" y1="333.67722" x2="74.2596" y2="333.67722"/>
		
			<line id="line32" fill="none" stroke="#1F1F1F" stroke-width="0.8" stroke-linecap="round" stroke-linejoin="round" x1="52.9809" y1="303.77332" x2="74.2596" y2="303.77332"/>
		
			<line id="line34" fill="none" stroke="#1F1F1F" stroke-width="0.8" stroke-linecap="round" stroke-linejoin="round" x1="52.9809" y1="273.86942" x2="74.2596" y2="273.86942"/>
		
			<line id="line36" fill="none" stroke="#1F1F1F" stroke-width="0.8" stroke-linecap="round" stroke-linejoin="round" x1="52.9809" y1="243.96552" x2="74.2596" y2="243.96552"/>
		
			<line id="line38" fill="none" stroke="#1F1F1F" stroke-width="0.8" stroke-linecap="round" stroke-linejoin="round" x1="52.9809" y1="214.06161" x2="74.2596" y2="214.06161"/>
		
			<line id="line40" fill="none" stroke="#1F1F1F" stroke-width="0.8" stroke-linecap="round" stroke-linejoin="round" x1="52.9809" y1="184.1577" x2="74.2596" y2="184.1577"/>
		
			<line id="line42" fill="none" stroke="#1F1F1F" stroke-width="0.8" stroke-linecap="round" stroke-linejoin="round" x1="52.9809" y1="154.2538" x2="74.2596" y2="154.2538"/>
		
			<line id="line44" fill="none" stroke="#1F1F1F" stroke-width="0.8" stroke-linecap="round" stroke-linejoin="round" x1="52.9809" y1="124.3499" x2="74.2596" y2="124.3499"/>
	</g>
	<path id="path50" fill="#1F1F1F" d="M52.71745,88.38807l1.65796-2.87167c0.14313-0.24791-0.03578-0.55779-0.32204-0.55779h-3.31592
		c-0.28626,0-0.46517,0.30989-0.32204,0.55779l1.65796,2.87167C52.2165,88.63598,52.57433,88.63598,52.71745,88.38807z"/>
	<g id="g82">
		<path id="path54" fill="#1F1F1F" d="M32.26,140.84683l3.20293-0.85822c0.27651-0.0741,0.36912-0.41972,0.1667-0.62215
			l-2.34471-2.34471c-0.20242-0.20242-0.54805-0.1098-0.62214,0.1667l-0.85822,3.20293
			C31.73047,140.66789,31.98349,140.92091,32.26,140.84683z"/>
		<path id="path56" fill="none" stroke="#1F1F1F" stroke-width="0.8" stroke-linecap="round" stroke-linejoin="round" d="
			M33.43229,139.1738l2.47982-2.47981c0.53225-0.53226,1.25413-0.83125,2.00684-0.83125h4.68001"/>
		<path id="path58" fill="#1F1F1F" d="M32.26,170.75073l3.20293-0.85822c0.27651-0.0741,0.36912-0.41972,0.1667-0.62215
			l-2.34471-2.34471c-0.20242-0.20242-0.54805-0.1098-0.62214,0.1667l-0.85822,3.20293
			C31.73047,170.57179,31.98349,170.82481,32.26,170.75073z"/>
		<path id="path60" fill="none" stroke="#1F1F1F" stroke-width="0.8" stroke-linecap="round" stroke-linejoin="round" d="
			M33.43229,169.07771l2.47982-2.47981c0.53225-0.53226,1.25413-0.83125,2.00684-0.83125h4.68001"/>
		<path id="path62" fill="#1F1F1F" d="M32.26,200.65463l3.20293-0.85822c0.27651-0.0741,0.36912-0.41972,0.1667-0.62215
			l-2.34471-2.34471c-0.20242-0.20242-0.54805-0.1098-0.62214,0.1667l-0.85822,3.20293
			C31.73047,200.47569,31.98349,200.72871,32.26,200.65463z"/>
		<path id="path64" fill="none" stroke="#1F1F1F" stroke-width="0.8" stroke-linecap="round" stroke-linejoin="round" d="
			M33.43229,198.98161l2.47982-2.47981c0.53225-0.53226,1.25413-0.83125,2.00684-0.83125h4.68001"/>
		<path id="path66" fill="#1F1F1F" d="M32.26,230.55853l3.20293-0.85822c0.27651-0.0741,0.36912-0.41972,0.1667-0.62215
			l-2.34471-2.34471c-0.20242-0.20242-0.54805-0.1098-0.62214,0.1667l-0.85822,3.20293
			C31.73047,230.37959,31.98349,230.63261,32.26,230.55853z"/>
		<path id="path68" fill="none" stroke="#1F1F1F" stroke-width="0.8" stroke-linecap="round" stroke-linejoin="round" d="
			M33.43229,228.88551l2.47982-2.47981c0.53225-0.53226,1.25413-0.83125,2.00684-0.83125h4.68001"/>
		<path id="path70" fill="#1F1F1F" d="M32.26,260.46243l3.20293-0.85822c0.27651-0.0741,0.36912-0.41971,0.1667-0.62213
			l-2.34471-2.3447c-0.20242-0.20242-0.54805-0.1098-0.62214,0.16669l-0.85822,3.20294
			c-0.07409,0.27652,0.17893,0.52954,0.45544,0.45544V260.46243z"/>
		<path id="path72" fill="none" stroke="#1F1F1F" stroke-width="0.8" stroke-linecap="round" stroke-linejoin="round" d="
			M33.43229,258.7894l2.47982-2.47983c0.53225-0.53226,1.25413-0.83125,2.00684-0.83125h4.68001"/>
		<path id="path74" fill="#1F1F1F" d="M32.26,290.36633l3.20293-0.85822c0.27651-0.0741,0.36912-0.41971,0.1667-0.62213
			l-2.34471-2.3447c-0.20242-0.20242-0.54805-0.1098-0.62214,0.16669l-0.85822,3.20294
			c-0.07409,0.27652,0.17893,0.52954,0.45544,0.45544V290.36633z"/>
		<path id="path76" fill="none" stroke="#1F1F1F" stroke-width="0.8" stroke-linecap="round" stroke-linejoin="round" d="
			M33.43229,288.6933l2.47982-2.47983c0.53225-0.53226,1.25413-0.83127,2.00684-0.83127h4.68001"/>
		<path id="path78" fill="#1F1F1F" d="M32.26,320.27023l3.20293-0.85822c0.27651-0.0741,0.36912-0.41971,0.1667-0.62213
			l-2.34471-2.3447c-0.20242-0.20242-0.54805-0.1098-0.62214,0.16669l-0.85822,3.20294
			c-0.07409,0.27652,0.17893,0.52954,0.45544,0.45544V320.27023z"/>
		<path id="path80" fill="none" stroke="#1F1F1F" stroke-width="0.8" stroke-linecap="round" stroke-linejoin="round" d="
			M33.43229,318.59723l2.47982-2.47983c0.53225-0.53226,1.25413-0.83127,2.00684-0.83127h4.68001"/>
	</g>
	<path id="path84" fill="#1F1F1F" d="M95.99426,99.40625h-22.8822c-1.55908,0-2.83466,1.27557-2.83466,2.83459v33.04041h1.46576
		c0.59766,0,1.15967-0.23291,1.58252-0.65576l10.79785-10.79785l0.84863,0.84863l-10.79785,10.79785
		c-0.64941,0.64941-1.51318,1.00732-2.43115,1.00732H70.2774v28.70361h1.46576c0.59814,0,1.16016-0.23242,1.58252-0.65527
		l10.79785-10.79834l0.84863,0.84863l-10.79785,10.79834c-0.64941,0.64941-1.5127,1.00684-2.43115,1.00684H70.2774v28.70361h1.46576
		c0.59814,0,1.16016-0.23242,1.58252-0.65527l10.79785-10.79785l0.84863,0.84863l-10.79785,10.79785
		c-0.64941,0.64941-1.5127,1.00684-2.43115,1.00684H70.2774v28.70361h1.46576c0.59814,0,1.16016-0.23242,1.58252-0.65527
		l10.79785-10.79785l0.84863,0.84863l-10.79785,10.79785c-0.64941,0.64941-1.5127,1.00684-2.43115,1.00684H70.2774v28.7041h1.46576
		c0.59766,0,1.15967-0.23291,1.58252-0.65576l10.79785-10.79785l0.84863,0.84863l-10.79785,10.79785
		c-0.64941,0.64941-1.51318,1.00732-2.43115,1.00732H70.2774v28.70361h1.46576c0.59766,0,1.15967-0.23291,1.58252-0.65576
		l10.79785-10.79785l0.84863,0.84863l-10.79785,10.79785c-0.64941,0.64941-1.51318,1.00732-2.43115,1.00732H70.2774v28.70361
		h1.46576c0.59814,0,1.16016-0.23242,1.58252-0.65527l10.79785-10.79834l0.84863,0.84863l-10.79785,10.79834
		c-0.64941,0.64941-1.5127,1.00684-2.43115,1.00684H70.2774v29.47382c0,1.55902,1.27557,2.83466,2.83466,2.83466h22.8822
		c1.55908,0,2.83466-1.27563,2.83466-2.83466V102.24084C98.82893,100.68182,97.55335,99.40625,95.99426,99.40625z"/>
	<g id="g94">
		<circle id="circle86" fill="#1F1F1F" cx="53.04737" cy="356.48322" r="1.18571"/>
		<path id="path88" fill="#1F1F1F" d="M44.405,360.40521c-0.34551,0-0.66126-0.19519-0.8158-0.50418l-2.96428-5.92856
			c-0.22526-0.45056-0.04266-0.99844,0.40794-1.22369c0.45008-0.22534,0.99831-0.04272,1.22366,0.4079l2.14848,4.29697
			l2.14848-4.29697c0.22526-0.45056,0.77314-0.63324,1.22366-0.4079c0.45061,0.22525,0.63321,0.77313,0.40794,1.22369
			l-2.96428,5.92856C45.06626,360.21002,44.75051,360.40521,44.405,360.40521z"/>
		<path id="path90" fill="#1F1F1F" d="M60.68645,360.40521c-0.34551,0-0.66126-0.19519-0.8158-0.50418l-2.96428-5.92856
			c-0.22526-0.45056-0.04266-0.99844,0.40794-1.22369c0.45016-0.22534,0.9984-0.04272,1.22366,0.4079l2.14848,4.29697
			l2.14848-4.29697c0.22526-0.45056,0.77305-0.63324,1.22366-0.4079c0.45061,0.22525,0.63321,0.77313,0.40794,1.22369
			l-2.96428,5.92856C61.34772,360.21002,61.03197,360.40521,60.68645,360.40521z"/>
		<path id="path92" fill="#1F1F1F" d="M52.98814,360.40521c-2.13744,0-3.87637-1.73892-3.87637-3.87637
			s1.73893-3.87637,3.87637-3.87637c0.84653,0,1.65102,0.26819,2.32653,0.77554c0.40278,0.30252,0.48401,0.87427,0.18153,1.27704
			c-0.30248,0.40274-0.87432,0.48401-1.2771,0.18149c-0.357-0.26816-0.78267-0.40991-1.23096-0.40991
			c-1.13156,0-2.05219,0.92059-2.05219,2.05219s0.92064,2.05219,2.05219,2.05219c0.44829,0,0.87396-0.14175,1.23096-0.40991
			c0.40269-0.3027,0.97444-0.22125,1.2771,0.18149c0.30248,0.40277,0.22125,0.97452-0.18153,1.27704
			c-0.67551,0.50735-1.48,0.77554-2.32653,0.77554V360.40521z"/>
	</g>
	<path id="path96" fill="#1F1F1F" d="M52.84502,320.34702l1.65796-2.87167c0.14313-0.24792-0.03578-0.5578-0.32204-0.5578h-3.31592
		c-0.28626,0-0.46517,0.30988-0.32204,0.5578l1.65796,2.87167C52.34407,320.59494,52.7019,320.59494,52.84502,320.34702z"/>
	<path id="path98" fill="#1F1F1F" d="M52.84502,290.44312l1.65796-2.87167c0.14313-0.24792-0.03578-0.5578-0.32204-0.5578h-3.31592
		c-0.28626,0-0.46517,0.30988-0.32204,0.5578l1.65796,2.87167C52.34407,290.69104,52.7019,290.69104,52.84502,290.44312z"/>
	<path id="path100" fill="#1F1F1F" d="M52.84502,260.53922l1.65796-2.87167c0.14313-0.24792-0.03578-0.5578-0.32204-0.5578h-3.31592
		c-0.28626,0-0.46517,0.30988-0.32204,0.5578l1.65796,2.87167C52.34407,260.78714,52.7019,260.78714,52.84502,260.53922z"/>
	<path id="path102" fill="#1F1F1F" d="M52.84502,230.63531l1.65796-2.87167c0.14313-0.24791-0.03578-0.55779-0.32204-0.55779
		h-3.31592c-0.28626,0-0.46517,0.30989-0.32204,0.55779l1.65796,2.87167C52.34407,230.88322,52.7019,230.88322,52.84502,230.63531z"
		/>
	<path id="path104" fill="#1F1F1F" d="M52.84502,200.73141l1.65796-2.87167c0.14313-0.24791-0.03578-0.55779-0.32204-0.55779
		h-3.31592c-0.28626,0-0.46517,0.30989-0.32204,0.55779l1.65796,2.87167C52.34407,200.97932,52.7019,200.97932,52.84502,200.73141z"
		/>
	<path id="path106" fill="#1F1F1F" d="M52.84502,170.82751l1.65796-2.87167c0.14313-0.24791-0.03578-0.55779-0.32204-0.55779
		h-3.31592c-0.28626,0-0.46517,0.30989-0.32204,0.55779l1.65796,2.87167C52.34407,171.07542,52.7019,171.07542,52.84502,170.82751z"
		/>
	<path id="path108" fill="#1F1F1F" d="M52.84502,140.92361l1.65796-2.87167c0.14313-0.24791-0.03578-0.55779-0.32204-0.55779
		h-3.31592c-0.28626,0-0.46517,0.30989-0.32204,0.55779l1.65796,2.87167C52.34407,141.17152,52.7019,141.17152,52.84502,140.92361z"
		/>
	
		<line id="line24_00000119811049728364728640000005301958313019944889_" fill="none" stroke="#1F1F1F" stroke-width="0.8" stroke-linecap="round" stroke-linejoin="round" x1="84.55316" y1="70.83113" x2="84.55316" y2="100.94224"/>
	
		<line id="line24_00000093169972701056794670000000318960613106868392_" fill="none" stroke="#1F1F1F" stroke-width="0.8" stroke-linecap="round" stroke-linejoin="round" x1="20.5515" y1="77.34626" x2="20.5515" y2="98.24198"/>
</g>
<g id="uuid-2636a8de-4c92-41c2-9a92-d43b7f61adbd">
	<g id="g117">
		<path id="path111" fill="#1F1F1F" d="M13.14746,45.45898c0-0.2373,0.18262-0.41992,0.41992-0.41992h1.69336
			c0.59668,0,1.06396,0.17578,1.36914,0.47412c0.25049,0.25732,0.39258,0.60986,0.39258,1.02295v0.01367
			c0,0.75879-0.44043,1.21924-1.07715,1.41602l0.9082,1.14453c0.08105,0.10156,0.13525,0.18994,0.13525,0.31836
			c0,0.23047-0.19678,0.38672-0.3999,0.38672c-0.18945,0-0.31152-0.08838-0.40625-0.2168l-1.15186-1.4707h-1.05029v1.27393
			c0,0.23047-0.18262,0.41357-0.41309,0.41357c-0.2373,0-0.41992-0.18311-0.41992-0.41357v-3.94287L13.14746,45.45898z
			 M15.20019,47.38964c0.59619,0,0.97559-0.31152,0.97559-0.79248v-0.01367c0-0.5083-0.36621-0.78564-0.98242-0.78564h-1.21289
			v1.5918h1.21973L15.20019,47.38964z"/>
		<path id="path113" fill="#1F1F1F" d="M18.28027,45.43164c0-0.23047,0.18262-0.41992,0.41992-0.41992h0.08789
			c0.20312,0,0.31836,0.10156,0.43359,0.24414l2.37109,3.06885v-2.91357c0-0.22314,0.18262-0.40625,0.40625-0.40625
			c0.23047,0,0.41357,0.18311,0.41357,0.40625v3.98389c0,0.23047-0.17627,0.41357-0.40674,0.41357h-0.03369
			c-0.19678,0-0.31836-0.10156-0.43359-0.25098l-2.43896-3.15723v3.0083c0,0.22363-0.18262,0.40674-0.40625,0.40674
			c-0.23047,0-0.41309-0.18311-0.41309-0.40674C18.28026,49.40869,18.28026,45.43164,18.28027,45.43164z"/>
		<path id="path115" fill="#1F1F1F" d="M23.875,45.45898c0-0.2373,0.18359-0.41992,0.42041-0.41992h1.34814
			c1.49023,0,2.52051,1.02246,2.52051,2.35742v0.01367c0,1.33447-1.03027,2.37109-2.52051,2.37109h-1.34814
			c-0.23682,0-0.42041-0.18262-0.42041-0.41992V45.45898z M25.64355,49.02246c0.99609,0,1.64648-0.6709,1.64648-1.59863v-0.01367
			c0-0.92822-0.65039-1.6123-1.64648-1.6123h-0.93457v3.22461C24.70898,49.02247,25.64355,49.02247,25.64355,49.02246z"/>
	</g>
	<g id="g129">
		<path id="path119" fill="#1F1F1F" d="M72.53613,47.42383v-0.01367c0-1.34863,1.00928-2.45264,2.44531-2.45264
			c0.73193,0,1.21289,0.2168,1.62598,0.53516c0.08838,0.06787,0.16309,0.18311,0.16309,0.33203
			c0,0.23047-0.18311,0.40674-0.41357,0.40674c-0.11475,0-0.19678-0.04102-0.25049-0.08154
			c-0.3252-0.26416-0.67773-0.42676-1.13184-0.42676c-0.90039,0-1.56445,0.74512-1.56445,1.67334v0.01367
			c0,0.92773,0.65723,1.68018,1.56445,1.68018c0.50195,0,0.84033-0.1626,1.18555-0.4541
			c0.06152-0.0542,0.14941-0.09473,0.25098-0.09473c0.20996,0,0.39307,0.17627,0.39307,0.38623
			c0,0.12891-0.06104,0.23047-0.13525,0.29785c-0.44727,0.39307-0.95557,0.63672-1.72119,0.63672
			c-1.38232,0-2.41162-1.07715-2.41162-2.43848L72.53613,47.42383z"/>
		<path id="path121" fill="#1F1F1F" d="M77.95312,45.41797c0-0.22998,0.18262-0.41309,0.41992-0.41309
			c0.23047,0,0.41309,0.18311,0.41309,0.41309v3.60449h2.14746c0.21045,0,0.37988,0.16943,0.37988,0.37939
			s-0.16943,0.37939-0.37988,0.37939h-2.56055c-0.2373,0-0.41992-0.18262-0.41992-0.41992v-3.94336L77.95312,45.41797z"/>
		<path id="path123" fill="#1F1F1F" d="M82.30664,49.36133v-3.90234c0-0.2373,0.18262-0.41992,0.41992-0.41992h2.75684
			c0.20361,0,0.37305,0.16895,0.37305,0.37207c0,0.21045-0.16943,0.37305-0.37305,0.37305h-2.34375v1.23291h2.03906
			c0.20312,0,0.37305,0.16943,0.37305,0.37939c0,0.20312-0.16992,0.36572-0.37305,0.36572h-2.03906v1.27393h2.37793
			c0.20312,0,0.37256,0.16895,0.37256,0.37256c0,0.20996-0.16943,0.37256-0.37256,0.37256h-2.79102
			C82.48927,49.78125,82.30664,49.59863,82.30664,49.36133z"/>
		<path id="path125" fill="#1F1F1F" d="M86.82715,49.23926l1.76172-3.92969c0.09473-0.20996,0.26465-0.33838,0.50146-0.33838
			h0.04053c0.2373,0,0.3999,0.12842,0.49463,0.33838l1.76123,3.92969c0.03418,0.06104,0.04785,0.12207,0.04785,0.17627
			c0,0.22314-0.16943,0.3999-0.39307,0.3999c-0.19678,0-0.33203-0.11523-0.40674-0.2915l-0.38574-0.8877H87.9453l-0.39941,0.91455
			c-0.06836,0.16943-0.20996,0.26465-0.38672,0.26465c-0.2168,0-0.38574-0.16992-0.38574-0.38672
			C86.77344,49.36816,86.79395,49.30713,86.82715,49.23926z M89.93067,47.89795l-0.8335-1.91748l-0.8335,1.91748h1.66699H89.93067z"
			/>
		<path id="path127" fill="#1F1F1F" d="M92.46875,45.45898c0-0.2373,0.18262-0.41992,0.41992-0.41992h1.69336
			c0.59668,0,1.06348,0.17578,1.36865,0.47412c0.25049,0.25732,0.39307,0.60986,0.39307,1.02295v0.01367
			c0,0.75879-0.44043,1.21924-1.07715,1.41602l0.90771,1.14453c0.08154,0.10156,0.13525,0.18994,0.13525,0.31836
			c0,0.23047-0.19629,0.38672-0.39941,0.38672c-0.18945,0-0.31152-0.08838-0.40625-0.2168l-1.15234-1.4707h-1.0498v1.27393
			c0,0.23047-0.18262,0.41357-0.41309,0.41357c-0.2373,0-0.41992-0.18311-0.41992-0.41357
			C92.46874,49.40186,92.46874,45.45899,92.46875,45.45898z M94.52148,47.38964c0.5957,0,0.97559-0.31152,0.97559-0.79248v-0.01367
			c0-0.5083-0.36621-0.78564-0.98242-0.78564h-1.21289v1.5918C93.30176,47.38965,94.52148,47.38965,94.52148,47.38964z"/>
	</g>
	<g id="g139">
		<path id="path131" fill="#1F1F1F" d="M43.24609,45.45898c0-0.2373,0.18311-0.41992,0.41992-0.41992h1.4502
			c1.11133,0,1.80176,0.62988,1.80176,1.58496v0.01367c0,1.06348-0.85352,1.61914-1.89648,1.61914H44.0796v1.14502
			c0,0.23047-0.18311,0.41357-0.41357,0.41357c-0.23682,0-0.41992-0.18311-0.41992-0.41357v-3.94287H43.24609z M45.04834,47.50488
			c0.63037,0,1.02295-0.35254,1.02295-0.84668v-0.01367c0-0.55566-0.39941-0.84668-1.02295-0.84668h-0.96875v1.70703H45.04834z"/>
		<path id="path133" fill="#1F1F1F" d="M47.88281,47.76904v-2.35107c0-0.22998,0.18262-0.41309,0.41992-0.41309
			c0.23047,0,0.41309,0.18311,0.41309,0.41309v2.31738c0,0.88086,0.4541,1.34814,1.19922,1.34814
			c0.73828,0,1.19238-0.44043,1.19238-1.31445v-2.35107c0-0.22998,0.18262-0.41309,0.41992-0.41309
			c0.23047,0,0.41309,0.18311,0.41309,0.41309v2.31055c0,1.41602-0.79883,2.12695-2.03906,2.12695
			c-1.23291,0-2.01855-0.71094-2.01855-2.08643H47.88281z"/>
		<path id="path135" fill="#1F1F1F" d="M53.17871,49.25293c-0.09473-0.06787-0.16211-0.18311-0.16211-0.31836
			c0-0.2168,0.17578-0.38623,0.39258-0.38623c0.11523,0,0.18945,0.03369,0.24414,0.07471
			c0.39258,0.31152,0.8125,0.4873,1.32812,0.4873c0.51465,0,0.83984-0.24365,0.83984-0.5957v-0.01367
			c0-0.33887-0.18945-0.52197-1.07031-0.7251c-1.00977-0.24365-1.5791-0.54199-1.5791-1.41602v-0.01318
			c0-0.81348,0.67773-1.37549,1.61914-1.37549c0.59668,0,1.07764,0.15576,1.50439,0.43994
			c0.09521,0.05469,0.18311,0.16992,0.18311,0.33203c0,0.2168-0.17627,0.38672-0.39307,0.38672
			c-0.08154,0-0.14893-0.02051-0.2168-0.06152c-0.36572-0.23682-0.71826-0.35889-1.09082-0.35889
			c-0.48779,0-0.77197,0.25049-0.77197,0.5625v0.01318c0,0.36621,0.2168,0.52881,1.13086,0.74561
			c1.00293,0.24365,1.51758,0.60303,1.51758,1.38867v0.01367c0,0.88721-0.69727,1.41602-1.69336,1.41602
			c-0.64355,0-1.25391-0.20361-1.78223-0.59619L53.17871,49.25293z"/>
		<path id="path137" fill="#1F1F1F" d="M57.86523,45.41797c0-0.22998,0.18311-0.41309,0.41992-0.41309
			c0.23047,0,0.41357,0.18311,0.41357,0.41309v1.59229h2.2627v-1.59229c0-0.22998,0.18311-0.41309,0.41357-0.41309
			c0.23682,0,0.41992,0.18311,0.41992,0.41309v3.98389c0,0.23047-0.18311,0.41357-0.41992,0.41357
			c-0.23047,0-0.41357-0.18311-0.41357-0.41357v-1.61914h-2.2627v1.61914c0,0.23047-0.18311,0.41357-0.41357,0.41357
			c-0.23682,0-0.41992-0.18311-0.41992-0.41357V45.41797z"/>
	</g>
	<g id="g153">
		<path id="path141" fill="#1F1F1F" d="M23.01074,28.01318c-0.21289-0.15039-0.36279-0.42529-0.36279-0.72607
			c0-0.5,0.40039-0.88818,0.90088-0.88818c0.25,0,0.42529,0.0874,0.55029,0.17529c0.66309,0.48779,1.38867,0.78809,2.23975,0.78809
			c0.78809,0,1.26367-0.3125,1.26367-0.82568v-0.0249c0-0.48828-0.30029-0.73828-1.76416-1.11377
			c-1.76416-0.45068-2.90283-0.93848-2.90283-2.67725v-0.02539c0-1.58887,1.27637-2.64014,3.06543-2.64014
			c1.06348,0,1.98975,0.27539,2.77783,0.77588c0.21289,0.125,0.42529,0.3877,0.42529,0.76318
			c0,0.50049-0.40039,0.88818-0.90088,0.88818c-0.1875,0-0.33789-0.0498-0.48779-0.1377
			c-0.63818-0.375-1.23877-0.58789-1.83936-0.58789c-0.73828,0-1.12598,0.33789-1.12598,0.76367v0.02441
			c0,0.57617,0.375,0.76367,1.88916,1.15137c1.77686,0.46289,2.77783,1.10107,2.77783,2.62793v0.02441
			c0,1.73926-1.32617,2.71533-3.21582,2.71533c-1.15088,0-2.31445-0.3501-3.29053-1.05078L23.01074,28.01318z"/>
		<path id="path143" fill="#1F1F1F" d="M36.98096,28.78906l-0.73828-0.73828c-0.71289,0.61279-1.56396,1.01318-2.60254,1.01318
			c-1.67676,0-2.94043-0.97607-2.94043-2.52734v-0.0249c0-1.11377,0.60059-1.90186,1.70166-2.40234
			c-0.43799-0.60059-0.61279-1.15137-0.61279-1.75195v-0.0249c0-1.20117,0.96338-2.30225,2.65234-2.30225
			c1.48926,0,2.46484,0.97607,2.46484,2.20215v0.0249c0,1.17627-0.75049,1.86475-1.82666,2.28955l1.15088,1.13867
			c0.2002-0.2998,0.38818-0.61279,0.57568-0.95068c0.08789-0.17529,0.33789-0.43799,0.71338-0.43799
			c0.43799,0,0.80078,0.36279,0.80078,0.80078c0,0.1377-0.0376,0.27539-0.11279,0.40039
			c-0.25,0.43799-0.53809,0.88867-0.83838,1.31396l0.80078,0.78809c0.17529,0.17529,0.28809,0.36279,0.28809,0.62549
			c0,0.47559-0.36279,0.83838-0.83838,0.83838c-0.2627,0-0.43799-0.07471-0.63818-0.2749L36.98096,28.78906z M35.1416,26.96191
			l-1.67676-1.68896c-0.58789,0.31299-0.82568,0.72559-0.82568,1.16357v0.0249c0,0.61328,0.51318,1.02588,1.22607,1.02588
			C34.31591,27.4873,34.74121,27.2871,35.1416,26.96191z M35.229,22.37011v-0.02539c0-0.5-0.3374-0.81299-0.82568-0.81299
			c-0.5127,0-0.85059,0.36279-0.85059,0.88818v0.02539c0,0.3877,0.1499,0.67578,0.5127,1.08838
			C34.82861,23.24608,35.229,22.93309,35.229,22.37011z"/>
		<path id="path145" fill="#1F1F1F" d="M40.07568,21.06885c0-0.53809,0.42578-0.96338,0.96387-0.96338
			s0.96338,0.42529,0.96338,0.96338v2.57764h3.55322v-2.57764c0-0.53809,0.42578-0.96338,0.96338-0.96338
			c0.53809,0,0.96338,0.42529,0.96338,0.96338v6.98193c0,0.53809-0.42529,0.96338-0.96338,0.96338
			c-0.5376,0-0.96338-0.42529-0.96338-0.96338v-2.62793h-3.55322v2.62793c0,0.53809-0.42529,0.96338-0.96338,0.96338
			s-0.96387-0.42529-0.96387-0.96338V21.06885z"/>
		<path id="path147" fill="#1F1F1F" d="M56.61328,27.7002l3.05322-6.89404c0.2124-0.47559,0.60059-0.76318,1.12598-0.76318h0.1123
			c0.52588,0,0.90137,0.2876,1.11377,0.76318l3.05322,6.89404c0.0625,0.1377,0.1001,0.2627,0.1001,0.3877
			c0,0.51318-0.40039,0.92627-0.91357,0.92627c-0.4502,0-0.75098-0.26318-0.92578-0.66357l-0.58838-1.37598h-3.85352
			l-0.61328,1.43896c-0.1626,0.37549-0.48779,0.60059-0.88818,0.60059c-0.50049,0-0.88867-0.40039-0.88867-0.90088
			C56.50049,27.97559,56.55078,27.83789,56.61328,27.7002z M62.03125,25.27295l-1.21387-2.89014L59.604,25.27295H62.03125z"/>
		<path id="path149" fill="#1F1F1F" d="M66.64307,28.01318c-0.21289-0.15039-0.36279-0.42529-0.36279-0.72607
			c0-0.5,0.40039-0.88818,0.90088-0.88818c0.25,0,0.42529,0.0874,0.55029,0.17529c0.66309,0.48779,1.38916,0.78809,2.23975,0.78809
			c0.78809,0,1.26367-0.3125,1.26367-0.82568v-0.0249c0-0.48828-0.30029-0.73828-1.76416-1.11377
			c-1.76416-0.45068-2.90283-0.93848-2.90283-2.67725v-0.02539c0-1.58887,1.27637-2.64014,3.06543-2.64014
			c1.06348,0,1.98926,0.27539,2.77783,0.77588c0.2124,0.125,0.42529,0.3877,0.42529,0.76318
			c0,0.50049-0.40039,0.88818-0.90088,0.88818c-0.1875,0-0.33789-0.0498-0.48779-0.1377
			c-0.63818-0.375-1.23877-0.58789-1.83936-0.58789c-0.73828,0-1.12598,0.33789-1.12598,0.76367v0.02441
			c0,0.57617,0.375,0.76367,1.88916,1.15137c1.77686,0.46289,2.77783,1.10107,2.77783,2.62793v0.02441
			c0,1.73926-1.32666,2.71533-3.21582,2.71533c-1.15088,0-2.31494-0.3501-3.29053-1.05078L66.64307,28.01318z"/>
		<path id="path151" fill="#1F1F1F" d="M74.9585,21.14355c0-0.5376,0.42529-0.96289,0.96338-0.96289h3.04053
			c1.11328,0,1.97656,0.3125,2.55225,0.88818c0.48779,0.48779,0.75049,1.17627,0.75049,2.00195v0.0249
			c0,1.37646-0.68799,2.22754-1.75146,2.66504l1.33887,1.62695c0.1875,0.2373,0.31299,0.4375,0.31299,0.73828
			c0,0.5376-0.45068,0.88818-0.91357,0.88818c-0.43799,0-0.72559-0.21289-0.95117-0.50049l-1.87646-2.37744h-1.53906v1.91455
			c0,0.53809-0.42578,0.96338-0.96338,0.96338c-0.53809,0-0.96338-0.42529-0.96338-0.96338v-6.90723L74.9585,21.14355z
			 M78.83692,24.43457c0.93848,0,1.47656-0.50049,1.47656-1.23877v-0.0249c0-0.82617-0.57568-1.25098-1.51416-1.25098h-1.91406
			v2.51465H78.83692z"/>
	</g>
	<g id="g159">
		<path id="path155" fill="#1F1F1F" d="M17.35156,104.73145c0-0.23047,0.18262-0.41357,0.41992-0.41357
			c0.23047,0,0.41309,0.18311,0.41309,0.41357v3.9834c0,0.23047-0.18262,0.41309-0.41309,0.41309
			c-0.2373,0-0.41992-0.18262-0.41992-0.41309V104.73145z"/>
		<path id="path157" fill="#1F1F1F" d="M19.66113,104.74463c0-0.22998,0.18262-0.41992,0.41992-0.41992h0.08789
			c0.20312,0,0.31836,0.10156,0.43359,0.24365l2.37109,3.06934v-2.91309c0-0.22363,0.18262-0.40674,0.40625-0.40674
			c0.23047,0,0.41309,0.18311,0.41309,0.40674v3.9834c0,0.23047-0.17578,0.41309-0.40625,0.41309h-0.0332
			c-0.19727,0-0.31934-0.10156-0.43359-0.25049l-2.43945-3.15674v3.00781c0,0.22363-0.18262,0.40625-0.40625,0.40625
			c-0.23047,0-0.41309-0.18262-0.41309-0.40625L19.66113,104.74463z"/>
	</g>
	<g id="g169">
		<path id="path161" fill="#1F1F1F" d="M45.67578,105.12402h-1.15186c-0.2168,0-0.38574-0.17578-0.38574-0.38574
			c0-0.21045,0.16895-0.38672,0.38574-0.38672h3.15039c0.20996,0,0.37939,0.17627,0.37939,0.38672
			c0,0.20996-0.16943,0.38574-0.37939,0.38574h-1.1582v3.59082c0,0.23047-0.18994,0.41309-0.41992,0.41309
			c-0.23047,0-0.42041-0.18262-0.42041-0.41309V105.12402z"/>
		<path id="path163" fill="#1F1F1F" d="M49.05469,104.77197c0-0.2373,0.18262-0.42041,0.41992-0.42041h1.69385
			c0.59619,0,1.06348,0.17627,1.36816,0.47461c0.25098,0.25732,0.39307,0.60938,0.39307,1.02295v0.0132
			c0,0.75879-0.44043,1.21973-1.07715,1.41602l0.90771,1.14551c0.08154,0.10156,0.13574,0.18945,0.13574,0.31836
			c0,0.22998-0.19629,0.38574-0.3999,0.38574c-0.18945,0-0.31152-0.0879-0.40625-0.2168l-1.15186-1.46973H49.8877v1.27344
			c0,0.23047-0.18262,0.41309-0.41309,0.41309c-0.2373,0-0.41992-0.18262-0.41992-0.41309V104.772L49.05469,104.77197z
			 M51.10742,106.70263c0.59619,0,0.97559-0.31152,0.97559-0.79248v-0.0137c0-0.50781-0.36572-0.78613-0.98242-0.78613H49.8877
			v1.59229h1.21973L51.10742,106.70263z"/>
		<path id="path165" fill="#1F1F1F" d="M54.21289,104.73145c0-0.23047,0.18311-0.41357,0.41992-0.41357
			c0.23047,0,0.41357,0.18311,0.41357,0.41357v3.9834c0,0.23047-0.18311,0.41309-0.41357,0.41309
			c-0.23682,0-0.41992-0.18262-0.41992-0.41309V104.73145z"/>
		<path id="path167" fill="#1F1F1F" d="M56.27393,106.73633v-0.0132c0-1.32812,1.01611-2.45264,2.44531-2.45264
			c0.71143,0,1.18604,0.16943,1.61963,0.48096c0.08105,0.061,0.16943,0.17627,0.16943,0.33887
			c0,0.22363-0.18311,0.41309-0.41357,0.41309c-0.1084,0-0.18945-0.0474-0.25732-0.0947
			c-0.30469-0.22363-0.63672-0.37256-1.15186-0.37256c-0.87402,0-1.5376,0.76562-1.5376,1.67334v0.0137
			c0,0.97559,0.64355,1.69385,1.6123,1.69385c0.44727,0,0.85352-0.14258,1.14502-0.35938v-0.8877h-0.93506
			c-0.20312,0-0.37256-0.15527-0.37256-0.35889c0-0.20312,0.16943-0.36572,0.37256-0.36572h1.32129
			c0.23682,0,0.41992,0.18262,0.41992,0.41992v1.26709c0,0.23682-0.09473,0.40625-0.2915,0.52832
			c-0.40625,0.271-0.97559,0.51514-1.68701,0.51514c-1.4834,0-2.45898-1.05713-2.45898-2.43945L56.27393,106.73633z"/>
	</g>
	<g id="g177">
		<path id="path171" fill="#F0F0F0" d="M77.71094,108.69678c-0.11523-0.0815-0.19629-0.23047-0.19629-0.39307
			c0-0.271,0.2168-0.48096,0.48779-0.48096c0.13525,0,0.23047,0.0474,0.29785,0.0947
			c0.35938,0.26416,0.75195,0.42676,1.21289,0.42676c0.42676,0,0.68408-0.16943,0.68408-0.44678v-0.0137
			c0-0.26465-0.1626-0.3999-0.95508-0.60303c-0.95508-0.24365-1.57178-0.5083-1.57178-1.44971v-0.0137
			c0-0.86035,0.69092-1.42969,1.65967-1.42969c0.57617,0,1.07764,0.14941,1.50439,0.41992
			c0.11523,0.0679,0.22998,0.20996,0.22998,0.41357c0,0.271-0.2168,0.48096-0.48779,0.48096
			c-0.10156,0-0.18262-0.0273-0.26416-0.0742c-0.34521-0.20361-0.67041-0.31885-0.99561-0.31885
			c-0.3999,0-0.60986,0.18311-0.60986,0.41357v0.0137c0,0.31152,0.20312,0.41309,1.02295,0.62305
			c0.96191,0.25049,1.50391,0.59619,1.50391,1.42285v0.0137c0,0.94141-0.71777,1.46973-1.74121,1.46973
			c-0.62305,0-1.25293-0.18945-1.78174-0.56885L77.71094,108.69678z"/>
		<path id="path173" fill="#F0F0F0" d="M85.43994,109.1167l-0.3999-0.3999c-0.38623,0.33203-0.84668,0.54883-1.40918,0.54883
			c-0.90771,0-1.5918-0.52832-1.5918-1.36816v-0.0137c0-0.60303,0.3252-1.02979,0.92139-1.30078
			c-0.2373-0.3252-0.33203-0.62354-0.33203-0.94873v-0.0132c0-0.65039,0.52148-1.24707,1.43604-1.24707
			c0.80615,0,1.33496,0.52881,1.33496,1.19238v0.0137c0,0.63672-0.40674,1.00977-0.98926,1.24023l0.62354,0.61621
			c0.1084-0.1626,0.20996-0.33203,0.31152-0.51465c0.04736-0.0952,0.18262-0.2373,0.38623-0.2373
			c0.23682,0,0.43359,0.19629,0.43359,0.43359c0,0.0742-0.02051,0.14893-0.06104,0.2168
			c-0.13574,0.2373-0.2915,0.48096-0.4541,0.71143l0.43359,0.42676c0.09473,0.0947,0.15576,0.19629,0.15576,0.33838
			c0,0.25781-0.19629,0.4541-0.45361,0.4541C85.64307,109.26562,85.54836,109.22513,85.43994,109.1167z M84.44385,108.12744
			l-0.90771-0.91455c-0.31836,0.16943-0.44727,0.39307-0.44727,0.62988v0.0137c0,0.33203,0.27783,0.55566,0.66406,0.55566
			c0.24414,0,0.47412-0.1084,0.69092-0.28467V108.12744z M84.4917,105.64111v-0.0132c0-0.27148-0.18311-0.44043-0.44727-0.44043
			c-0.27783,0-0.46094,0.19629-0.46094,0.48047v0.0137c0,0.20996,0.08154,0.36621,0.27783,0.58984
			c0.41357-0.15625,0.63037-0.3252,0.63037-0.63037L84.4917,105.64111z"/>
		<path id="path175" fill="#F0F0F0" d="M87.28564,104.93652c0-0.29102,0.22998-0.52148,0.52148-0.52148
			c0.29102,0,0.52148,0.23047,0.52148,0.52148v1.39551h1.92432v-1.39551c0-0.29102,0.22998-0.52148,0.52148-0.52148
			s0.52197,0.23047,0.52197,0.52148v3.78027c0,0.2915-0.23047,0.52197-0.52197,0.52197c-0.2915,0-0.52148-0.23047-0.52148-0.52197
			v-1.42285H88.3286v1.42285c0,0.2915-0.23047,0.52197-0.52148,0.52197c-0.2915,0-0.52148-0.23047-0.52148-0.52197
			L87.28564,104.93652z"/>
	</g>
</g>
<g id="uuid-f5d828c0-96f2-44e6-9d4d-5f62c3fc741e" inkscape:groupmode="layer" display="none">
	<circle id="uuid-1e250e98-a38d-4734-8fe7-6336cbbeddc8" display="inline" fill="#FF0000" cx="20.5515" cy="64.52419" r="5"/>
	<circle id="uuid-b6de7f5e-9f2c-453b-8341-7e31b841bb8f" display="inline" fill="#FF0000" cx="84.4485" cy="64.52419" r="5"/>
	<circle id="uuid-e17cb700-c9b7-4a60-a533-95cb3f7f5bf5" display="inline" fill="#FF0000" cx="52.52298" cy="64.52419" r="5"/>
	<circle id="uuid-91990096-3a4f-472b-8692-23e40f96ab1c" display="inline" fill="#00FF00" cx="52.52298" cy="124.17849" r="5"/>
	<circle id="uuid-02d0bc31-8f9a-4f8f-b780-b70205cac121" display="inline" fill="#00FF00" cx="52.52298" cy="333.67722" r="5"/>
	<circle id="uuid-9ab91612-d373-4a3f-b495-275c5ec70c01" display="inline" fill="#00FF00" cx="20.55145" cy="333.67722" r="5"/>
	<circle id="uuid-4e618ab2-ec1f-410c-81c8-21df07cc39e3" display="inline" fill="#00FF00" cx="52.52298" cy="303.77332" r="5"/>
	<circle id="uuid-3752ffb4-6ce0-445d-a0ce-fd0e532a01b5" display="inline" fill="#00FF00" cx="20.55145" cy="303.77332" r="5"/>
	<circle id="uuid-b2c1216d-c3e0-42a6-8240-cd4bd982da66" display="inline" fill="#00FF00" cx="52.52298" cy="273.86942" r="5"/>
	<circle id="uuid-64ac859b-83be-4f7e-8d05-144b71a96d7a" display="inline" fill="#00FF00" cx="20.55145" cy="273.86942" r="5"/>
	<circle id="uuid-c23294c1-46f0-4d58-b183-fb3356258791" display="inline" fill="#00FF00" cx="52.52298" cy="243.96552" r="5"/>
	<circle id="uuid-41d07e12-53fd-403c-9f27-e328aabd8015" display="inline" fill="#00FF00" cx="20.55145" cy="243.96552" r="5"/>
	<circle id="uuid-b18023f1-3d7b-4c75-9a8f-923be43e3b0a" display="inline" fill="#00FF00" cx="52.52298" cy="214.06161" r="5"/>
	<circle id="uuid-95f1e7a6-0f9a-46e1-9ce8-3d8bf64a9b72" display="inline" fill="#00FF00" cx="20.55145" cy="214.06161" r="5"/>
	<circle id="uuid-b1b0fab4-f5e8-47c9-aac8-62568fa0859c" display="inline" fill="#00FF00" cx="52.52298" cy="184.1577" r="5"/>
	<circle id="uuid-e2b39dfa-8cbd-403b-934f-04675d8ac692" display="inline" fill="#00FF00" cx="20.55145" cy="184.1577" r="5"/>
	<circle id="uuid-d9e5b74b-10b0-4b64-859a-b94ecc26d26a" display="inline" fill="#00FF00" cx="52.52298" cy="154.2538" r="5"/>
	<circle id="uuid-23c901a7-9697-4ec9-9320-9fb08e819f85" display="inline" fill="#00FF00" cx="20.55145" cy="154.2538" r="5"/>
	<circle id="uuid-63bdb5a5-eada-4080-87b6-932e5a54ddc0" display="inline" fill="#00FF00" cx="20.55145" cy="124.3499" r="5"/>
	<circle id="uuid-cb690557-696a-4156-8a08-4a0b4f732858" display="inline" fill="#0000FF" cx="84.44855" cy="333.67722" r="5"/>
	<circle id="uuid-35118042-4a44-4c4a-a43f-32400a86eeb4" display="inline" fill="#0000FF" cx="84.44855" cy="303.77332" r="5"/>
	<circle id="uuid-a21e2520-ac1a-4bd7-92f7-fb006108e80d" display="inline" fill="#0000FF" cx="84.44855" cy="273.86942" r="5"/>
	<circle id="uuid-c6c0b27e-ad3d-47ed-962e-908188e0bfc9" display="inline" fill="#0000FF" cx="84.44855" cy="243.96552" r="5"/>
	<circle id="uuid-b5fb3d28-0719-47ea-9d31-7f81e95c7d58" display="inline" fill="#0000FF" cx="84.44855" cy="214.06161" r="5"/>
	<circle id="uuid-599a5d60-4f87-49ea-827f-e2901d96cd6d" display="inline" fill="#0000FF" cx="84.44855" cy="184.1577" r="5"/>
	<circle id="uuid-6eb24cd9-861d-47ad-bbe2-16282f0eb52f" display="inline" fill="#0000FF" cx="84.44855" cy="154.2538" r="5"/>
	<circle id="uuid-5bc4e340-9a31-42ca-9781-936e4b23db19" display="inline" fill="#0000FF" cx="84.44855" cy="124.3499" r="5"/>
</g>
</svg>
