<?xml version="1.0" encoding="utf-8"?>
<!-- Generator: Adobe Illustrator 27.8.1, SVG Export Plug-In . SVG Version: 6.00 Build 0)  -->
<svg version="1.0" id="Layer_1" xmlns="http://www.w3.org/2000/svg" xmlns:xlink="http://www.w3.org/1999/xlink" x="0px" y="0px"
	 width="105px" height="380px" viewBox="0 0 105 380" enable-background="new 0 0 105 380" xml:space="preserve">
<g id="uuid-0ad17ff8-b177-4213-b1ac-4b1363b98489">
	
		<linearGradient id="SVGID_1_" gradientUnits="userSpaceOnUse" x1="52.5" y1="381.27557" x2="52.5" y2="1.27557" gradientTransform="matrix(1 0 0 -1 0 381.27557)">
		<stop  offset="0" style="stop-color:#2A2A2B"/>
		<stop  offset="1" style="stop-color:#171717"/>
	</linearGradient>
	<rect y="0" fill="url(#SVGID_1_)" width="105" height="380"/>
</g>
<g id="uuid-fb3b85b0-05d0-4d7a-a2f8-f19d86369fdf">
	<g>
		
			<line fill="none" stroke="#EDEDED" stroke-width="0.8" stroke-linecap="round" stroke-linejoin="round" x1="22.9792" y1="333.67722" x2="44.25791" y2="333.67722"/>
		
			<line fill="none" stroke="#EDEDED" stroke-width="0.8" stroke-linecap="round" stroke-linejoin="round" x1="22.9792" y1="303.77332" x2="44.25791" y2="303.77332"/>
		
			<line fill="none" stroke="#EDEDED" stroke-width="0.8" stroke-linecap="round" stroke-linejoin="round" x1="22.9792" y1="273.86942" x2="44.25791" y2="273.86942"/>
		
			<line fill="none" stroke="#EDEDED" stroke-width="0.8" stroke-linecap="round" stroke-linejoin="round" x1="22.9792" y1="243.96552" x2="44.25791" y2="243.96552"/>
		
			<line fill="none" stroke="#EDEDED" stroke-width="0.8" stroke-linecap="round" stroke-linejoin="round" x1="22.9792" y1="214.06161" x2="44.25791" y2="214.06161"/>
		
			<line fill="none" stroke="#EDEDED" stroke-width="0.8" stroke-linecap="round" stroke-linejoin="round" x1="22.9792" y1="184.1577" x2="44.25791" y2="184.1577"/>
		
			<line fill="none" stroke="#EDEDED" stroke-width="0.8" stroke-linecap="round" stroke-linejoin="round" x1="22.9792" y1="154.2538" x2="44.25791" y2="154.2538"/>
		
			<line fill="none" stroke="#EDEDED" stroke-width="0.8" stroke-linecap="round" stroke-linejoin="round" x1="22.9792" y1="124.3499" x2="44.25791" y2="124.3499"/>
	</g>
	<g>
		
			<line fill="none" stroke="#EDEDED" stroke-width="0.8" stroke-linecap="round" stroke-linejoin="round" x1="52.9809" y1="333.67722" x2="74.2596" y2="333.67722"/>
		
			<line fill="none" stroke="#EDEDED" stroke-width="0.8" stroke-linecap="round" stroke-linejoin="round" x1="52.9809" y1="303.77332" x2="74.2596" y2="303.77332"/>
		
			<line fill="none" stroke="#EDEDED" stroke-width="0.8" stroke-linecap="round" stroke-linejoin="round" x1="52.9809" y1="273.86942" x2="74.2596" y2="273.86942"/>
		
			<line fill="none" stroke="#EDEDED" stroke-width="0.8" stroke-linecap="round" stroke-linejoin="round" x1="52.9809" y1="243.96552" x2="74.2596" y2="243.96552"/>
		
			<line fill="none" stroke="#EDEDED" stroke-width="0.8" stroke-linecap="round" stroke-linejoin="round" x1="52.9809" y1="214.06161" x2="74.2596" y2="214.06161"/>
		
			<line fill="none" stroke="#EDEDED" stroke-width="0.8" stroke-linecap="round" stroke-linejoin="round" x1="52.9809" y1="184.1577" x2="74.2596" y2="184.1577"/>
		
			<line fill="none" stroke="#EDEDED" stroke-width="0.8" stroke-linecap="round" stroke-linejoin="round" x1="52.9809" y1="154.2538" x2="74.2596" y2="154.2538"/>
		
			<line fill="none" stroke="#EDEDED" stroke-width="0.8" stroke-linecap="round" stroke-linejoin="round" x1="52.9809" y1="124.3499" x2="74.2596" y2="124.3499"/>
	</g>
	<path id="path50" fill="#EDEDED" d="M52.71745,88.38807l1.65796-2.87167c0.14313-0.24791-0.03578-0.55779-0.32204-0.55779h-3.31592
		c-0.28626,0-0.46517,0.30989-0.32204,0.55779l1.65796,2.87167C52.2165,88.63598,52.57433,88.63598,52.71745,88.38807z"/>
	
		<line id="line24_00000119811049728364728640000005301958313019944889_" fill="none" stroke="#EDEDED" stroke-width="0.8" stroke-linecap="round" stroke-linejoin="round" x1="84.55316" y1="70.83113" x2="84.55316" y2="100.94224"/>
	
		<line id="line24_00000093169972701056794670000000318960613106868392_" fill="none" stroke="#EDEDED" stroke-width="0.8" stroke-linecap="round" stroke-linejoin="round" x1="20.5515" y1="77.34626" x2="20.5515" y2="98.24198"/>
	<g>
		<path fill="#EDEDED" d="M32.26,140.84683l3.20293-0.85822c0.27651-0.0741,0.36912-0.41972,0.1667-0.62215l-2.34471-2.34471
			c-0.20242-0.20242-0.54805-0.1098-0.62214,0.1667l-0.85822,3.20293C31.73047,140.66789,31.98349,140.92091,32.26,140.84683z"/>
		<path fill="none" stroke="#EDEDED" stroke-width="0.8" stroke-linecap="round" stroke-linejoin="round" d="M33.43229,139.1738
			l2.47982-2.47981c0.53225-0.53226,1.25413-0.83125,2.00684-0.83125h4.68001"/>
		<path fill="#EDEDED" d="M32.26,170.75073l3.20293-0.85822c0.27651-0.0741,0.36912-0.41972,0.1667-0.62215l-2.34471-2.34471
			c-0.20242-0.20242-0.54805-0.1098-0.62214,0.1667l-0.85822,3.20293C31.73047,170.57179,31.98349,170.82481,32.26,170.75073z"/>
		<path fill="none" stroke="#EDEDED" stroke-width="0.8" stroke-linecap="round" stroke-linejoin="round" d="M33.43229,169.07771
			l2.47982-2.47981c0.53225-0.53226,1.25413-0.83125,2.00684-0.83125h4.68001"/>
		<path fill="#EDEDED" d="M32.26,200.65463l3.20293-0.85822c0.27651-0.0741,0.36912-0.41972,0.1667-0.62215l-2.34471-2.34471
			c-0.20242-0.20242-0.54805-0.1098-0.62214,0.1667l-0.85822,3.20293C31.73047,200.47569,31.98349,200.72871,32.26,200.65463z"/>
		<path fill="none" stroke="#EDEDED" stroke-width="0.8" stroke-linecap="round" stroke-linejoin="round" d="M33.43229,198.98161
			l2.47982-2.47981c0.53225-0.53226,1.25413-0.83125,2.00684-0.83125h4.68001"/>
		<path fill="#EDEDED" d="M32.26,230.55853l3.20293-0.85822c0.27651-0.0741,0.36912-0.41972,0.1667-0.62215l-2.34471-2.34471
			c-0.20242-0.20242-0.54805-0.1098-0.62214,0.1667l-0.85822,3.20293C31.73047,230.37959,31.98349,230.63261,32.26,230.55853z"/>
		<path fill="none" stroke="#EDEDED" stroke-width="0.8" stroke-linecap="round" stroke-linejoin="round" d="M33.43229,228.88551
			l2.47982-2.47981c0.53225-0.53226,1.25413-0.83125,2.00684-0.83125h4.68001"/>
		<path fill="#EDEDED" d="M32.26,260.46243l3.20293-0.85822c0.27651-0.0741,0.36912-0.41971,0.1667-0.62213l-2.34471-2.3447
			c-0.20242-0.20242-0.54805-0.1098-0.62214,0.16669l-0.85822,3.20294c-0.07409,0.27652,0.17893,0.52954,0.45544,0.45544V260.46243z
			"/>
		<path fill="none" stroke="#EDEDED" stroke-width="0.8" stroke-linecap="round" stroke-linejoin="round" d="M33.43229,258.7894
			l2.47982-2.47983c0.53225-0.53226,1.25413-0.83125,2.00684-0.83125h4.68001"/>
		<path fill="#EDEDED" d="M32.26,290.36633l3.20293-0.85822c0.27651-0.0741,0.36912-0.41971,0.1667-0.62213l-2.34471-2.3447
			c-0.20242-0.20242-0.54805-0.1098-0.62214,0.16669l-0.85822,3.20294c-0.07409,0.27652,0.17893,0.52954,0.45544,0.45544V290.36633z
			"/>
		<path fill="none" stroke="#EDEDED" stroke-width="0.8" stroke-linecap="round" stroke-linejoin="round" d="M33.43229,288.6933
			l2.47982-2.47983c0.53225-0.53226,1.25413-0.83127,2.00684-0.83127h4.68001"/>
		<path fill="#EDEDED" d="M32.26,320.27023l3.20293-0.85822c0.27651-0.0741,0.36912-0.41971,0.1667-0.62213l-2.34471-2.3447
			c-0.20242-0.20242-0.54805-0.1098-0.62214,0.16669l-0.85822,3.20294c-0.07409,0.27652,0.17893,0.52954,0.45544,0.45544V320.27023z
			"/>
		<path fill="none" stroke="#EDEDED" stroke-width="0.8" stroke-linecap="round" stroke-linejoin="round" d="M33.43229,318.59723
			l2.47982-2.47983c0.53225-0.53226,1.25413-0.83127,2.00684-0.83127h4.68001"/>
	</g>
	<path fill="#EDEDED" d="M95.99426,99.40625h-22.8822c-1.55908,0-2.83466,1.27557-2.83466,2.83459v33.04041h1.46576
		c0.59766,0,1.15967-0.23291,1.58252-0.65576l10.79785-10.79785l0.84863,0.84863l-10.79785,10.79785
		c-0.64941,0.64941-1.51318,1.00732-2.43115,1.00732H70.2774v28.70361h1.46576c0.59814,0,1.16016-0.23242,1.58252-0.65527
		l10.79785-10.79834l0.84863,0.84863l-10.79785,10.79834c-0.64941,0.64941-1.5127,1.00684-2.43115,1.00684H70.2774v28.70361h1.46576
		c0.59814,0,1.16016-0.23242,1.58252-0.65527l10.79785-10.79785l0.84863,0.84863l-10.79785,10.79785
		c-0.64941,0.64941-1.5127,1.00684-2.43115,1.00684H70.2774v28.70361h1.46576c0.59814,0,1.16016-0.23242,1.58252-0.65527
		l10.79785-10.79785l0.84863,0.84863l-10.79785,10.79785c-0.64941,0.64941-1.5127,1.00684-2.43115,1.00684H70.2774v28.7041h1.46576
		c0.59766,0,1.15967-0.23291,1.58252-0.65576l10.79785-10.79785l0.84863,0.84863l-10.79785,10.79785
		c-0.64941,0.64941-1.51318,1.00732-2.43115,1.00732H70.2774v28.70361h1.46576c0.59766,0,1.15967-0.23291,1.58252-0.65576
		l10.79785-10.79785l0.84863,0.84863l-10.79785,10.79785c-0.64941,0.64941-1.51318,1.00732-2.43115,1.00732H70.2774v28.70361
		h1.46576c0.59814,0,1.16016-0.23242,1.58252-0.65527l10.79785-10.79834l0.84863,0.84863l-10.79785,10.79834
		c-0.64941,0.64941-1.5127,1.00684-2.43115,1.00684H70.2774v29.47382c0,1.55902,1.27557,2.83466,2.83466,2.83466h22.8822
		c1.55908,0,2.83466-1.27563,2.83466-2.83466V102.24084C98.82893,100.68182,97.55335,99.40625,95.99426,99.40625z"/>
	<g>
		<circle fill="#EDEDED" cx="53.04737" cy="356.48322" r="1.18571"/>
		<path fill="#EDEDED" d="M44.405,360.40521c-0.34551,0-0.66126-0.19519-0.8158-0.50418l-2.96428-5.92856
			c-0.22526-0.45056-0.04266-0.99844,0.40794-1.22369c0.45008-0.22534,0.99831-0.04272,1.22366,0.4079l2.14848,4.29697
			l2.14848-4.29697c0.22526-0.45056,0.77314-0.63324,1.22366-0.4079c0.45061,0.22525,0.63321,0.77313,0.40794,1.22369
			l-2.96428,5.92856C45.06626,360.21002,44.75051,360.40521,44.405,360.40521z"/>
		<path fill="#EDEDED" d="M60.68645,360.40521c-0.34551,0-0.66126-0.19519-0.8158-0.50418l-2.96428-5.92856
			c-0.22526-0.45056-0.04266-0.99844,0.40794-1.22369c0.45016-0.22534,0.9984-0.04272,1.22366,0.4079l2.14848,4.29697
			l2.14848-4.29697c0.22526-0.45056,0.77305-0.63324,1.22366-0.4079c0.45061,0.22525,0.63321,0.77313,0.40794,1.22369
			l-2.96428,5.92856C61.34772,360.21002,61.03197,360.40521,60.68645,360.40521z"/>
		<path fill="#EDEDED" d="M52.98814,360.40521c-2.13744,0-3.87637-1.73892-3.87637-3.87637s1.73893-3.87637,3.87637-3.87637
			c0.84653,0,1.65102,0.26819,2.32653,0.77554c0.40278,0.30252,0.48401,0.87427,0.18153,1.27704
			c-0.30248,0.40274-0.87432,0.48401-1.2771,0.18149c-0.357-0.26816-0.78267-0.40991-1.23096-0.40991
			c-1.13156,0-2.05219,0.92059-2.05219,2.05219s0.92064,2.05219,2.05219,2.05219c0.44829,0,0.87396-0.14175,1.23096-0.40991
			c0.40269-0.3027,0.97444-0.22125,1.2771,0.18149c0.30248,0.40277,0.22125,0.97452-0.18153,1.27704
			c-0.67551,0.50735-1.48,0.77554-2.32653,0.77554V360.40521z"/>
	</g>
	<path fill="#EDEDED" d="M52.84502,320.34702l1.65796-2.87167c0.14313-0.24792-0.03578-0.5578-0.32204-0.5578h-3.31592
		c-0.28626,0-0.46517,0.30988-0.32204,0.5578l1.65796,2.87167C52.34407,320.59494,52.7019,320.59494,52.84502,320.34702z"/>
	<path fill="#EDEDED" d="M52.84502,290.44312l1.65796-2.87167c0.14313-0.24792-0.03578-0.5578-0.32204-0.5578h-3.31592
		c-0.28626,0-0.46517,0.30988-0.32204,0.5578l1.65796,2.87167C52.34407,290.69104,52.7019,290.69104,52.84502,290.44312z"/>
	<path fill="#EDEDED" d="M52.84502,260.53922l1.65796-2.87167c0.14313-0.24792-0.03578-0.5578-0.32204-0.5578h-3.31592
		c-0.28626,0-0.46517,0.30988-0.32204,0.5578l1.65796,2.87167C52.34407,260.78714,52.7019,260.78714,52.84502,260.53922z"/>
	<path fill="#EDEDED" d="M52.84502,230.63531l1.65796-2.87167c0.14313-0.24791-0.03578-0.55779-0.32204-0.55779h-3.31592
		c-0.28626,0-0.46517,0.30989-0.32204,0.55779l1.65796,2.87167C52.34407,230.88322,52.7019,230.88322,52.84502,230.63531z"/>
	<path fill="#EDEDED" d="M52.84502,200.73141l1.65796-2.87167c0.14313-0.24791-0.03578-0.55779-0.32204-0.55779h-3.31592
		c-0.28626,0-0.46517,0.30989-0.32204,0.55779l1.65796,2.87167C52.34407,200.97932,52.7019,200.97932,52.84502,200.73141z"/>
	<path fill="#EDEDED" d="M52.84502,170.82751l1.65796-2.87167c0.14313-0.24791-0.03578-0.55779-0.32204-0.55779h-3.31592
		c-0.28626,0-0.46517,0.30989-0.32204,0.55779l1.65796,2.87167C52.34407,171.07542,52.7019,171.07542,52.84502,170.82751z"/>
	<path fill="#EDEDED" d="M52.84502,140.92361l1.65796-2.87167c0.14313-0.24791-0.03578-0.55779-0.32204-0.55779h-3.31592
		c-0.28626,0-0.46517,0.30989-0.32204,0.55779l1.65796,2.87167C52.34407,141.17152,52.7019,141.17152,52.84502,140.92361z"/>
</g>
<g id="uuid-c0e731cc-156c-41bc-a1d5-95529e23302d">
	<g>
		<path fill="#EBEBEB" d="M13.14725,45.45898c0-0.2373,0.18311-0.41992,0.42041-0.41992h1.69336
			c0.59619,0,1.06348,0.17578,1.36865,0.47412c0.25049,0.25732,0.39307,0.60986,0.39307,1.02295v0.01367
			c0,0.75879-0.44043,1.21924-1.07715,1.41602l0.90771,1.14453c0.08154,0.10156,0.13525,0.18994,0.13525,0.31836
			c0,0.23047-0.19629,0.38672-0.39941,0.38672c-0.18994,0-0.31152-0.08838-0.40674-0.2168l-1.15186-1.4707h-1.0498v1.27393
			c0,0.23047-0.18311,0.41357-0.41309,0.41357c-0.2373,0-0.42041-0.18311-0.42041-0.41357v-3.94287L13.14725,45.45898z
			 M15.20047,47.38964c0.5957,0,0.97559-0.31152,0.97559-0.79248v-0.01367c0-0.5083-0.36621-0.78564-0.98242-0.78564h-1.21289
			v1.5918h1.21973L15.20047,47.38964z"/>
		<path fill="#EBEBEB" d="M18.28007,45.43164c0-0.23047,0.18311-0.41992,0.41992-0.41992h0.08838
			c0.20312,0,0.31836,0.10156,0.43359,0.24414l2.37109,3.06885v-2.91357c0-0.22314,0.18262-0.40625,0.40625-0.40625
			c0.23047,0,0.41309,0.18311,0.41309,0.40625v3.98389c0,0.23047-0.17578,0.41357-0.40625,0.41357h-0.03418
			c-0.19629,0-0.31836-0.10156-0.43359-0.25098l-2.43848-3.15723v3.0083c0,0.22363-0.18311,0.40674-0.40674,0.40674
			c-0.22998,0-0.41309-0.18311-0.41309-0.40674C18.28006,49.40869,18.28006,45.43164,18.28007,45.43164z"/>
		<path fill="#EBEBEB" d="M23.87528,45.45898c0-0.2373,0.18311-0.41992,0.41992-0.41992h1.34863
			c1.49023,0,2.52002,1.02246,2.52002,2.35742v0.01367c0,1.33447-1.02979,2.37109-2.52002,2.37109H24.2952
			c-0.23682,0-0.41992-0.18262-0.41992-0.41992C23.87528,49.36132,23.87528,45.45898,23.87528,45.45898z M25.64383,49.02246
			c0.99561,0,1.646-0.6709,1.646-1.59863v-0.01367c0-0.92822-0.65039-1.6123-1.646-1.6123h-0.93506v3.22461
			C24.70877,49.02247,25.64383,49.02247,25.64383,49.02246z"/>
	</g>
	<g>
		<path fill="#EBEBEB" d="M72.53593,47.42383v-0.01367c0-1.34863,1.00928-2.45264,2.4458-2.45264
			c0.73145,0,1.21289,0.2168,1.62598,0.53516c0.08789,0.06787,0.1626,0.18311,0.1626,0.33203
			c0,0.23047-0.18311,0.40674-0.41357,0.40674c-0.11475,0-0.19629-0.04102-0.25049-0.08154
			c-0.3252-0.26416-0.67725-0.42676-1.13135-0.42676c-0.90088,0-1.56494,0.74512-1.56494,1.67334v0.01367
			c0,0.92773,0.65723,1.68018,1.56494,1.68018c0.50146,0,0.83984-0.1626,1.18555-0.4541
			c0.06104-0.0542,0.14941-0.09473,0.25098-0.09473c0.20996,0,0.39258,0.17627,0.39258,0.38623
			c0,0.12891-0.06055,0.23047-0.13525,0.29785c-0.44727,0.39307-0.95557,0.63672-1.72119,0.63672
			c-1.38184,0-2.41162-1.07715-2.41162-2.43848L72.53593,47.42383z"/>
		<path fill="#EBEBEB" d="M77.95292,45.41797c0-0.22998,0.18311-0.41309,0.42041-0.41309c0.22998,0,0.41309,0.18311,0.41309,0.41309
			v3.60449h2.14746c0.20996,0,0.37939,0.16943,0.37939,0.37939s-0.16943,0.37939-0.37939,0.37939h-2.56055
			c-0.2373,0-0.42041-0.18262-0.42041-0.41992v-3.94336L77.95292,45.41797z"/>
		<path fill="#EBEBEB" d="M82.30643,49.36133v-3.90234c0-0.2373,0.18311-0.41992,0.41992-0.41992h2.75732
			c0.20312,0,0.37256,0.16895,0.37256,0.37207c0,0.21045-0.16943,0.37305-0.37256,0.37305h-2.34375v1.23291h2.03906
			c0.20312,0,0.37256,0.16943,0.37256,0.37939c0,0.20312-0.16943,0.36572-0.37256,0.36572h-2.03906v1.27393h2.37793
			c0.20312,0,0.37207,0.16895,0.37207,0.37256c0,0.20996-0.16895,0.37256-0.37207,0.37256h-2.7915
			C82.48953,49.78125,82.30643,49.59863,82.30643,49.36133z"/>
		<path fill="#EBEBEB" d="M86.82743,49.23926l1.76172-3.92969c0.09473-0.20996,0.26416-0.33838,0.50098-0.33838h0.04102
			c0.2373,0,0.39941,0.12842,0.49414,0.33838l1.76172,3.92969c0.03418,0.06104,0.04736,0.12207,0.04736,0.17627
			c0,0.22314-0.16943,0.3999-0.39307,0.3999c-0.19629,0-0.33203-0.11523-0.40625-0.2915l-0.38623-0.8877H87.9456l-0.3999,0.91455
			c-0.06787,0.16943-0.20996,0.26465-0.38623,0.26465c-0.2168,0-0.38623-0.16992-0.38623-0.38672
			C86.77324,49.36816,86.79375,49.30713,86.82743,49.23926z M89.93046,47.89795l-0.8335-1.91748l-0.83301,1.91748h1.6665H89.93046z"
			/>
		<path fill="#EBEBEB" d="M92.46854,45.45898c0-0.2373,0.18311-0.41992,0.41992-0.41992h1.69385
			c0.59619,0,1.06348,0.17578,1.36816,0.47412c0.25098,0.25732,0.39307,0.60986,0.39307,1.02295v0.01367
			c0,0.75879-0.43994,1.21924-1.07715,1.41602l0.90771,1.14453c0.08154,0.10156,0.13574,0.18994,0.13574,0.31836
			c0,0.23047-0.19629,0.38672-0.3999,0.38672c-0.18945,0-0.31152-0.08838-0.40625-0.2168l-1.15186-1.4707h-1.0498v1.27393
			c0,0.23047-0.18311,0.41357-0.41357,0.41357c-0.23682,0-0.41992-0.18311-0.41992-0.41357
			C92.46853,49.40186,92.46853,45.45899,92.46854,45.45898z M94.52126,47.38964c0.59619,0,0.97559-0.31152,0.97559-0.79248v-0.01367
			c0-0.5083-0.36572-0.78564-0.98242-0.78564h-1.2124v1.5918C93.30203,47.38965,94.52127,47.38965,94.52126,47.38964z"/>
	</g>
	<g>
		<path fill="#EBEBEB" d="M43.24638,45.45898c0-0.2373,0.18262-0.41992,0.41992-0.41992h1.44971
			c1.11133,0,1.80225,0.62988,1.80225,1.58496v0.01367c0,1.06348-0.85352,1.61914-1.89697,1.61914H44.0794v1.14502
			c0,0.23047-0.18262,0.41357-0.41309,0.41357c-0.2373,0-0.41992-0.18311-0.41992-0.41357v-3.94287H43.24638z M45.04814,47.50488
			c0.63037,0,1.02344-0.35254,1.02344-0.84668v-0.01367c0-0.55566-0.3999-0.84668-1.02344-0.84668h-0.96875v1.70703H45.04814z"/>
		<path fill="#EBEBEB" d="M47.88261,47.76904v-2.35107c0-0.22998,0.18311-0.41309,0.42041-0.41309
			c0.22998,0,0.41309,0.18311,0.41309,0.41309v2.31738c0,0.88086,0.4541,1.34814,1.19922,1.34814
			c0.73828,0,1.19238-0.44043,1.19238-1.31445v-2.35107c0-0.22998,0.18262-0.41309,0.41992-0.41309
			c0.23047,0,0.41309,0.18311,0.41309,0.41309v2.31055c0,1.41602-0.79932,2.12695-2.03906,2.12695
			c-1.2334,0-2.01904-0.71094-2.01904-2.08643H47.88261z"/>
		<path fill="#EBEBEB" d="M53.17899,49.25293c-0.09473-0.06787-0.1626-0.18311-0.1626-0.31836
			c0-0.2168,0.17627-0.38623,0.39307-0.38623c0.11523,0,0.18945,0.03369,0.24365,0.07471
			c0.39307,0.31152,0.81299,0.4873,1.32812,0.4873c0.51465,0,0.83984-0.24365,0.83984-0.5957v-0.01367
			c0-0.33887-0.18945-0.52197-1.07031-0.7251c-1.00928-0.24365-1.57861-0.54199-1.57861-1.41602v-0.01318
			c0-0.81348,0.67773-1.37549,1.61914-1.37549c0.59619,0,1.07715,0.15576,1.50391,0.43994
			c0.09521,0.05469,0.18311,0.16992,0.18311,0.33203c0,0.2168-0.17627,0.38672-0.39307,0.38672
			c-0.08105,0-0.14893-0.02051-0.2168-0.06152c-0.36572-0.23682-0.71777-0.35889-1.09082-0.35889
			c-0.4873,0-0.77197,0.25049-0.77197,0.5625v0.01318c0,0.36621,0.2168,0.52881,1.13135,0.74561
			c1.00293,0.24365,1.51758,0.60303,1.51758,1.38867v0.01367c0,0.88721-0.69775,1.41602-1.69385,1.41602
			C54.31718,49.84912,53.70731,49.64552,53.17899,49.25293z"/>
		<path fill="#EBEBEB" d="M57.86552,45.41797c0-0.22998,0.18262-0.41309,0.41992-0.41309c0.23047,0,0.41309,0.18311,0.41309,0.41309
			v1.59229h2.2627v-1.59229c0-0.22998,0.18311-0.41309,0.41357-0.41309c0.23682,0,0.41992,0.18311,0.41992,0.41309v3.98389
			c0,0.23047-0.18311,0.41357-0.41992,0.41357c-0.23047,0-0.41357-0.18311-0.41357-0.41357v-1.61914h-2.2627v1.61914
			c0,0.23047-0.18262,0.41357-0.41309,0.41357c-0.2373,0-0.41992-0.18311-0.41992-0.41357V45.41797z"/>
	</g>
	<g>
		<path fill="#EBEBEB" d="M23.01102,28.01318c-0.21289-0.15039-0.36328-0.42529-0.36328-0.72607
			c0-0.5,0.40039-0.88818,0.90137-0.88818c0.25,0,0.4248,0.0874,0.5498,0.17529c0.66309,0.48779,1.38867,0.78809,2.24023,0.78809
			c0.78809,0,1.26367-0.3125,1.26367-0.82568v-0.0249c0-0.48828-0.30078-0.73828-1.76465-1.11377
			c-1.76367-0.45068-2.90234-0.93848-2.90234-2.67725v-0.02539c0-1.58887,1.27637-2.64014,3.06543-2.64014
			c1.06348,0,1.98926,0.27539,2.77734,0.77588c0.21289,0.125,0.42578,0.3877,0.42578,0.76318
			c0,0.50049-0.40039,0.88818-0.90137,0.88818c-0.1875,0-0.33789-0.0498-0.4873-0.1377
			c-0.63867-0.375-1.23926-0.58789-1.83984-0.58789c-0.73828,0-1.12598,0.33789-1.12598,0.76367v0.02441
			c0,0.57617,0.375,0.76367,1.88965,1.15137c1.77637,0.46289,2.77734,1.10107,2.77734,2.62793v0.02441
			c0,1.73926-1.32617,2.71533-3.21582,2.71533c-1.15039,0-2.31445-0.3501-3.29004-1.05078L23.01102,28.01318z"/>
		<path fill="#EBEBEB" d="M36.98075,28.78906l-0.73828-0.73828c-0.71289,0.61279-1.56348,1.01318-2.60254,1.01318
			c-1.67676,0-2.94043-0.97607-2.94043-2.52734v-0.0249c0-1.11377,0.60059-1.90186,1.70215-2.40234
			c-0.43848-0.60059-0.61328-1.15137-0.61328-1.75195v-0.0249c0-1.20117,0.96387-2.30225,2.65234-2.30225
			c1.48926,0,2.46484,0.97607,2.46484,2.20215v0.0249c0,1.17627-0.75,1.86475-1.82617,2.28955l1.15039,1.13867
			c0.2002-0.2998,0.38867-0.61279,0.57617-0.95068c0.08789-0.17529,0.33789-0.43799,0.71289-0.43799
			c0.43848,0,0.80078,0.36279,0.80078,0.80078c0,0.1377-0.03711,0.27539-0.1123,0.40039
			c-0.25,0.43799-0.53809,0.88867-0.83887,1.31396l0.80078,0.78809c0.17578,0.17529,0.28809,0.36279,0.28809,0.62549
			c0,0.47559-0.3623,0.83838-0.83789,0.83838c-0.2627,0-0.43848-0.07471-0.63867-0.2749L36.98075,28.78906z M35.14188,26.96191
			l-1.67676-1.68896c-0.58789,0.31299-0.82617,0.72559-0.82617,1.16357v0.0249c0,0.61328,0.51367,1.02588,1.22656,1.02588
			C34.3157,27.4873,34.74149,27.2871,35.14188,26.96191z M35.22879,22.37011v-0.02539c0-0.5-0.33691-0.81299-0.8252-0.81299
			c-0.5127,0-0.85059,0.36279-0.85059,0.88818v0.02539c0,0.3877,0.14941,0.67578,0.5127,1.08838
			C34.8284,23.24608,35.22879,22.93309,35.22879,22.37011z"/>
		<path fill="#EBEBEB" d="M40.07548,21.06885c0-0.53809,0.42578-0.96338,0.96387-0.96338s0.96387,0.42529,0.96387,0.96338v2.57764
			h3.55273v-2.57764c0-0.53809,0.42578-0.96338,0.96387-0.96338s0.96289,0.42529,0.96289,0.96338v6.98193
			c0,0.53809-0.4248,0.96338-0.96289,0.96338s-0.96387-0.42529-0.96387-0.96338v-2.62793h-3.55273v2.62793
			c0,0.53809-0.42578,0.96338-0.96387,0.96338s-0.96387-0.42529-0.96387-0.96338V21.06885z"/>
		<path fill="#EBEBEB" d="M56.61356,27.7002l3.05273-6.89404c0.21289-0.47559,0.60059-0.76318,1.12598-0.76318h0.1123
			c0.52637,0,0.90137,0.2876,1.11426,0.76318l3.05273,6.89404c0.0625,0.1377,0.10059,0.2627,0.10059,0.3877
			c0,0.51318-0.40039,0.92627-0.91406,0.92627c-0.4502,0-0.75098-0.26318-0.92578-0.66357l-0.58789-1.37598H58.8909
			l-0.61328,1.43896c-0.16309,0.37549-0.48828,0.60059-0.88867,0.60059c-0.5,0-0.88867-0.40039-0.88867-0.90088
			C56.50028,27.97559,56.55106,27.83789,56.61356,27.7002z M62.03153,25.27295l-1.21387-2.89014l-1.21387,2.89014h2.42773H62.03153z
			"/>
		<path fill="#EBEBEB" d="M66.64286,28.01318c-0.21289-0.15039-0.3623-0.42529-0.3623-0.72607
			c0-0.5,0.40039-0.88818,0.90039-0.88818c0.25,0,0.42578,0.0874,0.55078,0.17529c0.66309,0.48779,1.38867,0.78809,2.23926,0.78809
			c0.78809,0,1.26367-0.3125,1.26367-0.82568v-0.0249c0-0.48828-0.2998-0.73828-1.76367-1.11377
			c-1.76465-0.45068-2.90332-0.93848-2.90332-2.67725v-0.02539c0-1.58887,1.27637-2.64014,3.06543-2.64014
			c1.06348,0,1.98926,0.27539,2.77832,0.77588c0.21191,0.125,0.4248,0.3877,0.4248,0.76318
			c0,0.50049-0.40039,0.88818-0.90039,0.88818c-0.1875,0-0.33789-0.0498-0.48828-0.1377
			c-0.6377-0.375-1.23828-0.58789-1.83887-0.58789c-0.73828,0-1.12598,0.33789-1.12598,0.76367v0.02441
			c0,0.57617,0.375,0.76367,1.88867,1.15137c1.77734,0.46289,2.77832,1.10107,2.77832,2.62793v0.02441
			c0,1.73926-1.32715,2.71533-3.21582,2.71533c-1.15137,0-2.31543-0.3501-3.29102-1.05078L66.64286,28.01318z"/>
		<path fill="#EBEBEB" d="M74.95829,21.14355c0-0.5376,0.42578-0.96289,0.96387-0.96289h3.04004
			c1.11328,0,1.97656,0.3125,2.55273,0.88818c0.4873,0.48779,0.75,1.17627,0.75,2.00195v0.0249
			c0,1.37646-0.6875,2.22754-1.75098,2.66504l1.33887,1.62695c0.1875,0.2373,0.3125,0.4375,0.3125,0.73828
			c0,0.5376-0.4502,0.88818-0.91309,0.88818c-0.43848,0-0.72559-0.21289-0.95117-0.50049l-1.87695-2.37744h-1.53906v1.91455
			c0,0.53809-0.42578,0.96338-0.96289,0.96338c-0.53809,0-0.96387-0.42529-0.96387-0.96338v-6.90723L74.95829,21.14355z
			 M78.8372,24.43457c0.93848,0,1.47656-0.50049,1.47656-1.23877v-0.0249c0-0.82617-0.57617-1.25098-1.51465-1.25098h-1.91406
			v2.51465H78.8372z"/>
	</g>
	<g>
		<path fill="#EBEBEB" d="M17.35136,104.73145c0-0.23047,0.18311-0.41357,0.41992-0.41357
			c0.23047,0,0.41357,0.18311,0.41357,0.41357v3.9834c0,0.23047-0.18311,0.41309-0.41357,0.41309
			c-0.23682,0-0.41992-0.18262-0.41992-0.41309V104.73145z"/>
		<path fill="#EBEBEB" d="M19.66093,104.74463c0-0.22998,0.18262-0.41992,0.41992-0.41992h0.08789
			c0.20361,0,0.31885,0.10156,0.43359,0.24365l2.37158,3.06934v-2.91309c0-0.22363,0.18262-0.40674,0.40625-0.40674
			c0.23047,0,0.41309,0.18311,0.41309,0.40674v3.9834c0,0.23047-0.17578,0.41309-0.40625,0.41309h-0.03369
			c-0.19678,0-0.31885-0.10156-0.43359-0.25049l-2.43896-3.15674v3.00781c0,0.22363-0.18311,0.40625-0.40674,0.40625
			c-0.23047,0-0.41309-0.18262-0.41309-0.40625C19.66093,108.72169,19.66093,104.74464,19.66093,104.74463z"/>
	</g>
	<g>
		<path fill="#EBEBEB" d="M45.67558,105.12402h-1.15186c-0.2168,0-0.38574-0.17578-0.38574-0.38574
			c0-0.21045,0.16895-0.38672,0.38574-0.38672h3.15039c0.20996,0,0.37939,0.17627,0.37939,0.38672
			c0,0.20996-0.16943,0.38574-0.37939,0.38574h-1.1582v3.59082c0,0.23047-0.18994,0.41309-0.41992,0.41309
			c-0.23047,0-0.42041-0.18262-0.42041-0.41309V105.12402z"/>
		<path fill="#EBEBEB" d="M49.05448,104.77197c0-0.2373,0.18262-0.42041,0.41992-0.42041h1.69385
			c0.59619,0,1.06348,0.17627,1.36816,0.47461c0.25098,0.25732,0.39307,0.60938,0.39307,1.02295v0.01318
			c0,0.75879-0.44043,1.21973-1.07715,1.41602l0.90771,1.14551c0.08154,0.10156,0.13574,0.18945,0.13574,0.31836
			c0,0.22998-0.19629,0.38574-0.3999,0.38574c-0.18945,0-0.31152-0.08789-0.40625-0.2168l-1.15186-1.46973h-1.05029v1.27344
			c0,0.23047-0.18262,0.41309-0.41309,0.41309c-0.2373,0-0.41992-0.18262-0.41992-0.41309
			C49.05448,108.71485,49.05448,104.77198,49.05448,104.77197z M51.10721,106.70263c0.59619,0,0.97559-0.31152,0.97559-0.79248
			v-0.01367c0-0.50781-0.36572-0.78613-0.98242-0.78613h-1.21289v1.59229C49.88749,106.70264,51.10722,106.70264,51.10721,106.70263
			z"/>
		<path fill="#EBEBEB" d="M54.21268,104.73145c0-0.23047,0.18311-0.41357,0.41992-0.41357
			c0.23047,0,0.41357,0.18311,0.41357,0.41357v3.9834c0,0.23047-0.18311,0.41309-0.41357,0.41309
			c-0.23682,0-0.41992-0.18262-0.41992-0.41309V104.73145z"/>
		<path fill="#EBEBEB" d="M56.27372,106.73633v-0.01318c0-1.32812,1.01611-2.45264,2.44531-2.45264
			c0.71143,0,1.18604,0.16943,1.61963,0.48096c0.08105,0.06104,0.16943,0.17627,0.16943,0.33887
			c0,0.22363-0.18311,0.41309-0.41357,0.41309c-0.1084,0-0.18945-0.04736-0.25732-0.09473
			c-0.30469-0.22363-0.63672-0.37256-1.15186-0.37256c-0.87402,0-1.5376,0.76562-1.5376,1.67334v0.01367
			c0,0.97559,0.64355,1.69385,1.6123,1.69385c0.44727,0,0.85352-0.14258,1.14502-0.35938v-0.8877H58.97
			c-0.20312,0-0.37256-0.15527-0.37256-0.35889c0-0.20312,0.16943-0.36572,0.37256-0.36572h1.32129
			c0.23682,0,0.41992,0.18262,0.41992,0.41992v1.26709c0,0.23682-0.09473,0.40625-0.2915,0.52832
			c-0.40625,0.271-0.97559,0.51514-1.68701,0.51514C57.2493,109.17577,56.27372,108.11864,56.27372,106.73633z"/>
	</g>
	<g>
		<path fill="#1F1F1F" d="M77.71073,108.69678c-0.11523-0.08154-0.19629-0.23047-0.19629-0.39307
			c0-0.271,0.2168-0.48096,0.48779-0.48096c0.13525,0,0.23047,0.04736,0.29785,0.09473
			c0.35938,0.26416,0.75195,0.42676,1.21289,0.42676c0.42676,0,0.68408-0.16943,0.68408-0.44678v-0.01367
			c0-0.26465-0.1626-0.3999-0.95508-0.60303c-0.95508-0.24365-1.57178-0.5083-1.57178-1.44971v-0.01367
			c0-0.86035,0.69092-1.42969,1.65967-1.42969c0.57617,0,1.07764,0.14941,1.50439,0.41992
			c0.11523,0.06787,0.22998,0.20996,0.22998,0.41357c0,0.271-0.2168,0.48096-0.48779,0.48096
			c-0.10156,0-0.18262-0.02734-0.26416-0.07422c-0.34521-0.20361-0.67041-0.31885-0.99561-0.31885
			c-0.3999,0-0.60986,0.18311-0.60986,0.41357v0.01367c0,0.31152,0.20312,0.41309,1.02295,0.62305
			c0.96191,0.25049,1.50391,0.59619,1.50391,1.42285v0.01367c0,0.94141-0.71777,1.46973-1.74121,1.46973
			c-0.62305,0-1.25293-0.18945-1.78174-0.56885L77.71073,108.69678z"/>
		<path fill="#1F1F1F" d="M85.43974,109.1167l-0.3999-0.3999c-0.38623,0.33203-0.84668,0.54883-1.40918,0.54883
			c-0.90771,0-1.5918-0.52832-1.5918-1.36816v-0.01367c0-0.60303,0.3252-1.02979,0.92139-1.30078
			c-0.2373-0.3252-0.33203-0.62354-0.33203-0.94873v-0.01318c0-0.65039,0.52148-1.24707,1.43604-1.24707
			c0.80615,0,1.33496,0.52881,1.33496,1.19238v0.01367c0,0.63672-0.40674,1.00977-0.98926,1.24023l0.62354,0.61621
			c0.1084-0.1626,0.20996-0.33203,0.31152-0.51465c0.04736-0.09521,0.18262-0.2373,0.38623-0.2373
			c0.23682,0,0.43359,0.19629,0.43359,0.43359c0,0.07422-0.02051,0.14893-0.06104,0.2168
			c-0.13574,0.2373-0.2915,0.48096-0.4541,0.71143l0.43359,0.42676c0.09473,0.09473,0.15576,0.19629,0.15576,0.33838
			c0,0.25781-0.19629,0.4541-0.45361,0.4541C85.64288,109.26564,85.54816,109.22511,85.43974,109.1167z M84.44365,108.12744
			l-0.90771-0.91455c-0.31836,0.16943-0.44727,0.39307-0.44727,0.62988v0.01367c0,0.33203,0.27783,0.55566,0.66406,0.55566
			C83.99687,108.4121,84.22685,108.3037,84.44365,108.12744z M84.4915,105.64111v-0.01318
			c0-0.27148-0.18311-0.44043-0.44727-0.44043c-0.27783,0-0.46094,0.19629-0.46094,0.48047v0.01367
			c0,0.20996,0.08154,0.36621,0.27783,0.58984C84.27469,106.11523,84.49149,105.94628,84.4915,105.64111z"/>
		<path fill="#1F1F1F" d="M87.28544,104.93652c0-0.29102,0.22998-0.52148,0.52148-0.52148
			c0.29102,0,0.52148,0.23047,0.52148,0.52148v1.39551h1.92432v-1.39551c0-0.29102,0.22998-0.52148,0.52148-0.52148
			s0.52197,0.23047,0.52197,0.52148v3.78027c0,0.2915-0.23047,0.52197-0.52197,0.52197s-0.52148-0.23047-0.52148-0.52197v-1.42285
			h-1.92432v1.42285c0,0.2915-0.23047,0.52197-0.52148,0.52197c-0.2915,0-0.52148-0.23047-0.52148-0.52197V104.93652z"/>
	</g>
</g>
</svg>
