<?xml version="1.0" encoding="UTF-8" standalone="no"?>
<!-- Created with Inkscape (http://www.inkscape.org/) -->

<svg
   xmlns:dc="http://purl.org/dc/elements/1.1/"
   xmlns:cc="http://creativecommons.org/ns#"
   xmlns:rdf="http://www.w3.org/1999/02/22-rdf-syntax-ns#"
   xmlns:svg="http://www.w3.org/2000/svg"
   xmlns="http://www.w3.org/2000/svg"
   xmlns:sodipodi="http://sodipodi.sourceforge.net/DTD/sodipodi-0.dtd"
   xmlns:inkscape="http://www.inkscape.org/namespaces/inkscape"
   width="25.400002mm"
   height="128.49931mm"
   viewBox="0 0 25.400002 128.49931"
   version="1.1"
   id="svg55291"
   inkscape:version="0.92.4 5da689c313, 2019-01-14"
   sodipodi:docname="Split.svg">
  <defs
     id="defs55285" />
  <sodipodi:namedview
     id="base"
     pagecolor="#ffffff"
     bordercolor="#666666"
     borderopacity="1.0"
     inkscape:pageopacity="0.0"
     inkscape:pageshadow="2"
     inkscape:zoom="0.98994949"
     inkscape:cx="26.266559"
     inkscape:cy="248.06495"
     inkscape:document-units="mm"
     inkscape:current-layer="layer2"
     showgrid="false"
     fit-margin-top="0"
     fit-margin-left="0"
     fit-margin-right="0"
     fit-margin-bottom="0"
     inkscape:snap-bbox="true"
     inkscape:snap-bbox-midpoints="true"
     inkscape:snap-nodes="false"
     inkscape:window-width="1600"
     inkscape:window-height="882"
     inkscape:window-x="0"
     inkscape:window-y="18"
     inkscape:window-maximized="0" />
  <metadata
     id="metadata55288">
    <rdf:RDF>
      <cc:Work
         rdf:about="">
        <dc:format>image/svg+xml</dc:format>
        <dc:type
           rdf:resource="http://purl.org/dc/dcmitype/StillImage" />
        <dc:title />
      </cc:Work>
    </rdf:RDF>
  </metadata>
  <g
     inkscape:label="Layer 1"
     inkscape:groupmode="layer"
     id="layer1"
     transform="translate(-32.735819,-42.454441)">
    <path
       inkscape:connector-curvature="0"
       style="fill:#e6e6e6;fill-opacity:1;fill-rule:nonzero;stroke:none;stroke-width:0.35277778"
       d="M 32.829516,42.548148 H 58.043498 V 170.86142 H 32.829516 Z m 0,0"
       id="path29985" />
    <path
       inkscape:connector-curvature="0"
       style="fill:#ababab;fill-opacity:1;fill-rule:nonzero;stroke:none;stroke-width:0.35277778"
       d="M 58.13582,42.454441 H 32.735819 V 170.95375 H 58.13582 Z M 57.9498,170.76772 H 32.92325 V 42.641854 H 57.9498 Z m 0,0"
       id="path29987" />
    <path
       inkscape:connector-curvature="0"
       style="fill:#000000;fill-opacity:1;fill-rule:nonzero;stroke:none;stroke-width:0.35277778"
       d="m 46.006332,164.23444 c 0,0.22186 -0.179141,0.40101 -0.401003,0.40101 -0.220486,0 -0.401002,-0.17915 -0.401002,-0.40101 0,-0.22049 0.180516,-0.40101 0.401002,-0.40101 0.221862,0 0.401003,0.18052 0.401003,0.40101"
       id="path29997" />
    <path
       inkscape:connector-curvature="0"
       style="fill:#000000;fill-opacity:1;fill-rule:nonzero;stroke:none;stroke-width:0.35277778"
       d="m 42.68387,165.56149 c -0.117122,0 -0.224613,-0.0662 -0.276966,-0.17088 l -1.001853,-2.00504 c -0.07578,-0.15159 -0.01376,-0.33763 0.137795,-0.41342 0.152964,-0.0758 0.337643,-0.0152 0.414796,0.13781 l 0.726228,1.45383 0.726229,-1.45383 c 0.07581,-0.15296 0.261831,-0.2136 0.41342,-0.13781 0.152965,0.0758 0.213607,0.26183 0.137795,0.41342 l -1.001818,2.00504 c -0.05239,0.10473 -0.158468,0.17088 -0.275626,0.17088"
       id="path29999" />
    <path
       inkscape:connector-curvature="0"
       style="fill:#000000;fill-opacity:1;fill-rule:nonzero;stroke:none;stroke-width:0.35277778"
       d="m 48.189144,165.56149 c -0.117122,0 -0.223237,-0.0662 -0.275625,-0.17088 l -1.003194,-2.00504 c -0.07581,-0.15159 -0.01376,-0.33763 0.139171,-0.41342 0.151588,-0.0758 0.337643,-0.0152 0.41342,0.13781 l 0.726228,1.45383 0.726229,-1.45383 c 0.07578,-0.15296 0.261831,-0.2136 0.41342,-0.13781 0.152964,0.0758 0.214948,0.26183 0.139171,0.41342 l -1.00323,2.00504 c -0.05235,0.10473 -0.158467,0.17088 -0.27559,0.17088"
       id="path30001" />
    <path
       inkscape:connector-curvature="0"
       style="fill:#000000;fill-opacity:1;fill-rule:nonzero;stroke:none;stroke-width:0.35277778"
       d="m 45.586032,165.56149 c -0.723476,0 -1.310534,-0.58842 -1.310534,-1.3119 0,-0.72209 0.587058,-1.31051 1.310534,-1.31051 0.286632,0 0.558095,0.091 0.786871,0.26321 0.136419,0.10197 0.163971,0.29489 0.06061,0.43132 -0.101953,0.13643 -0.294888,0.16399 -0.431307,0.062 -0.121285,-0.091 -0.264583,-0.13918 -0.416172,-0.13918 -0.383116,0 -0.694549,0.31144 -0.694549,0.69315 0,0.3831 0.311433,0.69453 0.694549,0.69453 0.151589,0 0.294887,-0.0482 0.416172,-0.13918 0.136419,-0.10197 0.329354,-0.0744 0.431307,0.062 0.103363,0.13642 0.07581,0.32935 -0.06061,0.4327 -0.228776,0.17088 -0.500239,0.26183 -0.786871,0.26183"
       id="path30003" />
    <path
       inkscape:connector-curvature="0"
       style="fill:#000000;fill-opacity:1;stroke:none;stroke-width:0.35277778"
       d="m 36.240348,57.746529 c 0,0.08268 0.06615,0.148827 0.154341,0.148827 0.08269,0 0.148837,-0.06615 0.148837,-0.148827 v -0.418924 h 0.347239 c 0.380365,0 0.689046,-0.203951 0.689046,-0.589802 v -0.0055 c 0,-0.347266 -0.253577,-0.578777 -0.655955,-0.578777 h -0.529167 c -0.08819,0 -0.154341,0.06615 -0.154341,0.15434 z m 0.303178,-0.694531 v -0.617361 h 0.352777 c 0.231493,0 0.374827,0.104729 0.374827,0.30868 0,0.1819 -0.143334,0.308681 -0.374827,0.308681 z m 0,0"
       id="path51857" />
    <path
       inkscape:connector-curvature="0"
       style="fill:#000000;fill-opacity:1;stroke:none;stroke-width:0.35277778"
       d="m 38.79453,57.911894 c 0.529167,0 0.903994,-0.4079 0.903994,-0.892969 v -0.0055 c 0,-0.485069 -0.369288,-0.887454 -0.898455,-0.887454 -0.529167,0 -0.909532,0.407899 -0.909532,0.892968 v 0.0055 c 0,0.485069 0.374827,0.887458 0.903993,0.887458 z m 0.0056,-0.281122 c -0.341771,0 -0.589809,-0.275608 -0.589809,-0.611847 v -0.0055 c 0,-0.336239 0.242535,-0.606336 0.584271,-0.606336 0.341771,0 0.589809,0.275607 0.589809,0.61185 v 0.0055 c 0,0.336243 -0.242535,0.606337 -0.584271,0.606337 z m 0,0"
       id="path51853" />
    <path
       inkscape:connector-curvature="0"
       style="fill:#000000;fill-opacity:1;stroke:none;stroke-width:0.35277778"
       d="m 40.137944,57.729991 c 0,0.08819 0.06615,0.15434 0.15434,0.15434 h 0.931545 c 0.07719,0 0.143333,-0.06063 0.143333,-0.137802 0,-0.07717 -0.06615,-0.137806 -0.143333,-0.137806 h -0.782708 v -1.317402 c 0,-0.08268 -0.06615,-0.14883 -0.148837,-0.14883 -0.08819,0 -0.15434,0.06615 -0.15434,0.14883 z m 0,0"
       id="path51849" />
    <path
       inkscape:connector-curvature="0"
       style="fill:#000000;fill-opacity:1;stroke:none;stroke-width:0.35277778"
       d="m 41.98537,57.746529 c 0,0.08268 0.06615,0.148827 0.148837,0.148827 0.0882,0 0.15434,-0.06615 0.15434,-0.148827 v -0.540191 l 0.58981,-0.810288 c 0.02187,-0.02755 0.03859,-0.06615 0.03859,-0.104729 0,-0.08268 -0.05514,-0.14883 -0.148837,-0.14883 -0.06064,0 -0.10474,0.03305 -0.143334,0.08819 l -0.490573,0.700045 -0.479566,-0.694531 c -0.03856,-0.05512 -0.08266,-0.09371 -0.148802,-0.09371 -0.08819,0 -0.15434,0.06615 -0.15434,0.14883 0,0.03858 0.01658,0.07166 0.03856,0.104729 l 0.595313,0.815798 z m 0,0"
       id="path51845" />
    <path
       inkscape:connector-curvature="0"
       style="fill:#000000;fill-opacity:1;fill-rule:nonzero;stroke:none;stroke-width:0.35277778"
       d="m 55.011796,161.43013 c 0.54984,0 0.999102,-0.45062 0.999102,-1.00046 V 71.306428 c 0,-0.549839 -0.449262,-1.000456 -0.999102,-1.000456 h -8.000894 c -0.549804,0 -0.999067,0.450617 -0.999067,1.000456 v 89.123242 c 0,0.54984 0.449263,1.00046 0.999067,1.00046 z m 0,0"
       id="path43611" />
    <path
       inkscape:connector-curvature="0"
       style="fill:#000000;fill-opacity:1;fill-rule:nonzero;stroke:none;stroke-width:0.35277778"
       d="m 43.506584,161.43013 c 0.549804,0 1.000442,-0.45062 1.000442,-1.00046 V 71.306428 c 0,-0.549839 -0.450638,-1.000456 -1.000442,-1.000456 h -7.999519 c -0.54984,0 -1.000478,0.450617 -1.000478,1.000456 v 89.123242 c 0,0.54984 0.450638,1.00046 1.000478,1.00046 z m 0,0"
       id="path43613" />
    <path
       inkscape:connector-curvature="0"
       style="fill:#ffffff;fill-opacity:1;stroke:none;stroke-width:0.35277778"
       d="m 49.129474,73.66631 c 0.452014,0 0.700052,-0.352777 0.700052,-0.876429 v -0.0055 c 0,-0.31419 -0.07715,-0.490582 -0.192934,-0.606337 -0.12125,-0.121267 -0.248038,-0.170876 -0.463021,-0.170876 -0.358281,0 -0.611823,0.237019 -0.611823,0.562242 v 0.0055 c 0,0.325218 0.22599,0.518144 0.573264,0.518144 0.143299,0 0.248038,-0.0441 0.325191,-0.110244 -0.02187,0.214974 -0.126753,0.363803 -0.325191,0.363803 -0.09924,0 -0.170885,-0.02204 -0.253576,-0.07166 -0.02752,-0.01654 -0.06064,-0.02755 -0.0937,-0.02755 -0.0937,0 -0.165382,0.06615 -0.165382,0.159856 0,0.06615 0.03316,0.115752 0.08269,0.143314 0.115746,0.07717 0.242534,0.115755 0.424427,0.115755 z m 0.06614,-0.870918 c -0.176388,0 -0.281093,-0.09922 -0.281093,-0.237022 v -0.0055 c 0,-0.143317 0.0992,-0.242536 0.270087,-0.242536 0.176389,0 0.286632,0.09922 0.286632,0.242536 v 0.0055 c 0,0.137803 -0.10474,0.237022 -0.275626,0.237022 z m 0,0"
       id="path51841" />
    <path
       inkscape:connector-curvature="0"
       style="fill:#ffffff;fill-opacity:1;stroke:none;stroke-width:0.35277778"
       d="m 50.356964,73.093048 h 0.396875 c 0.0937,0 0.165382,-0.07166 0.165382,-0.165364 0,-0.0937 -0.07168,-0.165365 -0.165382,-0.165365 h -0.396875 c -0.0937,0 -0.170886,0.07166 -0.170886,0.165365 0,0.09371 0.07719,0.165364 0.170886,0.165364 z m 0,0"
       id="path51833" />
    <path
       inkscape:connector-curvature="0"
       style="fill:#ffffff;fill-opacity:1;stroke:none;stroke-width:0.35277778"
       d="m 51.430255,73.478898 c 0,0.09371 0.07719,0.170878 0.176389,0.170878 0.09373,0 0.170885,-0.07717 0.170885,-0.170878 v -1.295355 c 0,-0.09371 -0.07715,-0.170879 -0.170885,-0.170879 h -0.0056 c -0.0496,0 -0.0992,0.01101 -0.165347,0.02755 l -0.226025,0.06615 c -0.07165,0.02204 -0.12125,0.08268 -0.12125,0.154339 0,0.08268 0.07165,0.148826 0.154341,0.148826 0.02187,0 0.0441,-0.0055 0.06614,-0.01101 l 0.12125,-0.02755 z m 0,0"
       id="path51837" />
    <path
       inkscape:connector-curvature="0"
       style="fill:#ffffff;fill-opacity:1;stroke:none;stroke-width:0.35277778"
       d="m 52.846199,73.66631 c 0.347275,0 0.611858,-0.225996 0.611858,-0.556725 v -0.0055 c 0,-0.330729 -0.242535,-0.507116 -0.562257,-0.507116 -0.159844,0 -0.253542,0.04961 -0.336233,0.09922 0.02752,-0.209463 0.126789,-0.369314 0.325226,-0.369314 0.0992,0 0.165347,0.02204 0.237032,0.06615 0.02752,0.01101 0.0551,0.02204 0.08819,0.02204 0.08819,0 0.165347,-0.07166 0.165347,-0.159854 0,-0.07166 -0.03859,-0.121269 -0.0937,-0.154342 -0.0937,-0.05512 -0.225989,-0.0937 -0.385868,-0.0937 -0.479531,0 -0.705556,0.380336 -0.705556,0.876429 v 0.0055 c 0,0.31419 0.07719,0.49058 0.192934,0.606337 0.110244,0.110242 0.253577,0.170874 0.463021,0.170874 z m -0.01093,-0.303165 c -0.176389,0 -0.281129,-0.104732 -0.281129,-0.237024 v -0.0055 c 0,-0.137806 0.0992,-0.231511 0.27559,-0.231511 0.170886,0 0.275626,0.09922 0.275626,0.231511 v 0.0055 c 0,0.137806 -0.09924,0.237024 -0.270087,0.237024 z m 0,0"
       id="path51829" />
    <path
       inkscape:connector-curvature="0"
       style="fill:#ffffff;fill-opacity:1;stroke:none;stroke-width:0.35277778"
       d="m 38.137023,73.478898 c 0,0.09371 0.07719,0.170878 0.176389,0.170878 0.09373,0 0.170885,-0.07717 0.170885,-0.170878 v -1.295355 c 0,-0.09371 -0.07715,-0.170879 -0.170885,-0.170879 h -0.0056 c -0.0496,0 -0.0992,0.01101 -0.165347,0.02755 l -0.226026,0.06615 c -0.07165,0.02204 -0.121249,0.08268 -0.121249,0.154339 0,0.08268 0.07165,0.148826 0.15434,0.148826 0.02187,0 0.0441,-0.0055 0.06615,-0.01101 l 0.12125,-0.02755 z m 0,0"
       id="path51617" />
    <path
       inkscape:connector-curvature="0"
       style="fill:#ffffff;fill-opacity:1;stroke:none;stroke-width:0.35277778"
       d="m 39.065499,73.093048 h 0.396875 c 0.0937,0 0.165382,-0.07166 0.165382,-0.165364 0,-0.0937 -0.07168,-0.165365 -0.165382,-0.165365 h -0.396875 c -0.0937,0 -0.170886,0.07166 -0.170886,0.165365 0,0.09371 0.07719,0.165364 0.170886,0.165364 z m 0,0"
       id="path51621" />
    <path
       inkscape:connector-curvature="0"
       style="fill:#ffffff;fill-opacity:1;stroke:none;stroke-width:0.35277778"
       d="m 40.56103,73.660802 c 0.358281,0 0.617361,-0.170879 0.617361,-0.474046 0,-0.192927 -0.0937,-0.297657 -0.25908,-0.380342 0.126788,-0.07717 0.203941,-0.176387 0.203941,-0.352776 0,-0.248045 -0.220486,-0.440974 -0.562222,-0.440974 -0.341771,0 -0.562257,0.192929 -0.562257,0.440974 0,0.176389 0.07719,0.275608 0.203976,0.352776 -0.170886,0.07717 -0.25908,0.192929 -0.25908,0.385853 v 0.0055 c 0,0.281117 0.264583,0.463021 0.617361,0.463021 z m 0,-0.97014 c -0.137795,0 -0.231528,-0.08819 -0.231528,-0.198438 v -0.0055 c 0,-0.09922 0.08819,-0.187412 0.231528,-0.187412 0.143298,0 0.231493,0.09371 0.231493,0.192926 0,0.115752 -0.0937,0.198437 -0.231493,0.198437 z m 0,0.677992 c -0.176389,0 -0.275625,-0.08819 -0.275625,-0.198438 v -0.0055 c 0,-0.121266 0.115781,-0.192926 0.275625,-0.192926 0.159844,0 0.27559,0.07166 0.27559,0.192926 v 0.0055 c 0,0.115758 -0.0992,0.198438 -0.27559,0.198438 z m 0,0"
       id="path51613" />
    <path
       inkscape:connector-curvature="0"
       style="fill:#000000;fill-opacity:1;stroke:none;stroke-width:0.35277778"
       d="m 40.679352,52.56356 c 0.639409,0 1.085885,-0.330728 1.085885,-0.920529 v -0.01103 c 0,-0.512631 -0.336233,-0.727605 -0.937048,-0.887457 -0.512657,-0.132292 -0.63941,-0.192926 -0.63941,-0.385851 v -0.01102 c 0,-0.143316 0.126753,-0.259071 0.38033,-0.259071 0.20394,0 0.407881,0.07166 0.622864,0.198437 0.0496,0.03307 0.09924,0.04961 0.165382,0.04961 0.165347,0 0.303142,-0.132291 0.303142,-0.303168 0,-0.126779 -0.07165,-0.214974 -0.143298,-0.259071 -0.270087,-0.165365 -0.578767,-0.259071 -0.942587,-0.259071 -0.606319,0 -1.036285,0.352777 -1.036285,0.892968 v 0.0055 c 0,0.589801 0.385868,0.755165 0.981181,0.909507 0.496076,0.126778 0.600816,0.209461 0.600816,0.374825 v 0.01103 c 0,0.170877 -0.165382,0.275608 -0.429966,0.275608 -0.286632,0 -0.53467,-0.09922 -0.755156,-0.264584 -0.0441,-0.03307 -0.10474,-0.06063 -0.187396,-0.06063 -0.170885,0 -0.30868,0.132292 -0.30868,0.303168 0,0.09922 0.0551,0.192926 0.126753,0.242532 0.330729,0.237024 0.722101,0.358291 1.113473,0.358291 z m 0,0"
       id="path51609" />
    <path
       inkscape:connector-curvature="0"
       style="fill:#000000;fill-opacity:1;stroke:none;stroke-width:0.35277778"
       d="m 42.38034,52.216294 c 0,0.181902 0.143334,0.330728 0.325226,0.330728 0.181893,0 0.325226,-0.148826 0.325226,-0.330728 v -0.584288 h 0.496076 c 0.661459,0 1.196164,-0.35829 1.196164,-1.041796 v -0.01103 c 0,-0.606338 -0.429965,-1.025262 -1.135521,-1.025262 h -0.881945 c -0.181892,0 -0.325226,0.148829 -0.325226,0.33073 z m 0.650452,-1.163064 v -0.909504 h 0.501615 c 0.325191,0 0.529167,0.159851 0.529167,0.451995 v 0.0055 c 0,0.253559 -0.187431,0.451997 -0.51816,0.451997 z m 0,0"
       id="path51605" />
    <path
       inkscape:connector-curvature="0"
       style="fill:#000000;fill-opacity:1;stroke:none;stroke-width:0.35277778"
       d="m 45.2365,52.194244 c 0,0.181904 0.143334,0.325219 0.325226,0.325219 h 1.532396 c 0.165347,0 0.292135,-0.132291 0.292135,-0.297656 0,-0.165364 -0.126788,-0.297656 -0.292135,-0.297656 h -1.20717 v -2.067057 c 0,-0.181901 -0.143334,-0.325217 -0.325226,-0.325217 -0.181892,0 -0.325226,0.143316 -0.325226,0.325217 z m 0,0"
       id="path51601" />
    <path
       inkscape:connector-curvature="0"
       style="fill:#000000;fill-opacity:1;stroke:none;stroke-width:0.35277778"
       d="m 47.858733,52.216294 c 0,0.181902 0.143333,0.330728 0.325226,0.330728 0.181892,0 0.325225,-0.148826 0.325225,-0.330728 v -2.3592 c 0,-0.181901 -0.143333,-0.325217 -0.325225,-0.325217 -0.181893,0 -0.325226,0.143316 -0.325226,0.325217 z m 0,0"
       id="path51593" />
    <path
       inkscape:connector-curvature="0"
       style="fill:#000000;fill-opacity:1;stroke:none;stroke-width:0.35277778"
       d="m 49.90876,52.216294 c 0,0.181902 0.143333,0.330728 0.325226,0.330728 0.181892,0 0.325225,-0.148826 0.325225,-0.330728 V 50.15475 h 0.628368 c 0.165383,0 0.297674,-0.132293 0.297674,-0.297656 0,-0.165365 -0.132291,-0.303169 -0.297674,-0.303169 h -1.907187 c -0.165382,0 -0.297674,0.137804 -0.297674,0.303169 0,0.165363 0.132292,0.297656 0.297674,0.297656 h 0.628368 z m 0,0"
       id="path51597" />
    <path
       inkscape:connector-curvature="0"
       style="fill:#000000;fill-opacity:1;stroke:none;stroke-width:0.35277778"
       d="m 48.177256,57.911894 c 0.281128,0 0.463021,-0.08819 0.628403,-0.231511 0.02752,-0.02205 0.0496,-0.06063 0.0496,-0.104733 0,-0.07717 -0.06614,-0.143316 -0.143298,-0.143316 -0.03859,0 -0.07168,0.01655 -0.09373,0.03306 -0.126753,0.110243 -0.248038,0.165364 -0.42993,0.165364 -0.330729,0 -0.573264,-0.270093 -0.573264,-0.611847 v -0.0055 c 0,-0.33624 0.242535,-0.606337 0.573264,-0.606337 0.165347,0 0.292135,0.05512 0.41342,0.15434 0.01658,0.01655 0.0441,0.02755 0.08819,0.02755 0.08266,0 0.148802,-0.06063 0.148802,-0.14883 0,-0.04961 -0.02187,-0.0937 -0.0551,-0.121267 -0.15434,-0.115753 -0.325226,-0.192924 -0.595312,-0.192924 -0.523664,0 -0.892987,0.402386 -0.892987,0.892969 v 0.0055 c 0,0.496094 0.380365,0.887459 0.881945,0.887459 z m 0,0"
       id="path51589" />
    <path
       inkscape:connector-curvature="0"
       style="fill:#000000;fill-opacity:1;stroke:none;stroke-width:0.35277778"
       d="m 49.265893,57.746529 c 0,0.08268 0.06615,0.148827 0.15434,0.148827 0.08269,0 0.148837,-0.06615 0.148837,-0.148827 v -0.589802 h 0.826805 v 0.589802 c 0,0.08268 0.06615,0.148827 0.148837,0.148827 0.0882,0 0.154341,-0.06615 0.154341,-0.148827 v -1.455208 c 0,-0.08268 -0.06615,-0.14883 -0.154341,-0.14883 -0.08269,0 -0.148837,0.06615 -0.148837,0.14883 v 0.584288 H 49.56907 v -0.584288 c 0,-0.08268 -0.06615,-0.14883 -0.148837,-0.14883 -0.08819,0 -0.15434,0.06615 -0.15434,0.14883 z m 0,0"
       id="path51577" />
    <path
       inkscape:connector-curvature="0"
       style="fill:#000000;fill-opacity:1;stroke:none;stroke-width:0.35277778"
       d="m 51.071304,57.757553 c 0,0.07717 0.06061,0.137803 0.137795,0.137803 0.06614,0 0.115746,-0.03306 0.143298,-0.0937 l 0.143334,-0.336243 h 0.84335 l 0.137795,0.325218 c 0.02752,0.06615 0.07719,0.10473 0.148837,0.10473 0.08269,0 0.143334,-0.06063 0.143334,-0.143317 0,-0.02205 -0.0056,-0.0441 -0.01658,-0.06615 l -0.644913,-1.43316 c -0.03316,-0.07717 -0.09373,-0.121267 -0.176388,-0.121267 h -0.01658 c -0.08819,0 -0.148837,0.0441 -0.181892,0.121267 l -0.644949,1.43316 c -0.01093,0.02755 -0.01658,0.04961 -0.01658,0.07166 z m 0.540173,-0.562239 0.303177,-0.694531 0.308681,0.694531 z m 0,0"
       id="path51581" />
    <path
       inkscape:connector-curvature="0"
       style="fill:#000000;fill-opacity:1;stroke:none;stroke-width:0.35277778"
       d="m 53.140416,57.746529 c 0,0.08268 0.06615,0.148827 0.15434,0.148827 0.07719,0 0.148837,-0.06615 0.148837,-0.148827 v -1.09692 l 0.887448,1.152042 c 0.03859,0.05512 0.08269,0.0937 0.15434,0.0937 h 0.01658 c 0.08269,0 0.148837,-0.06615 0.148837,-0.154341 v -1.449689 c 0,-0.08268 -0.06615,-0.14883 -0.15434,-0.14883 -0.08269,0 -0.148837,0.06615 -0.148837,0.14883 v 1.063843 l -0.859896,-1.118965 c -0.0441,-0.05512 -0.0882,-0.08819 -0.159844,-0.08819 h -0.03316 c -0.08819,0 -0.15434,0.06615 -0.15434,0.148826 z m 0,0"
       id="path51585" />
  </g>
  <g
     inkscape:groupmode="layer"
     id="layer2"
     inkscape:label="widgets"
     style="display:none">
    <circle
       style="opacity:1;vector-effect:none;fill:#0000ff;fill-opacity:1;fill-rule:evenodd;stroke:none;stroke-width:0.69999999;stroke-linecap:butt;stroke-linejoin:miter;stroke-miterlimit:4;stroke-dasharray:none;stroke-dashoffset:0;stroke-opacity:1;paint-order:normal"
       id="path55819"
       cx="6.7709875"
       cy="37.020309"
       r="2" />
    <circle
       r="2"
       cy="37.020309"
       cx="18.27486"
       id="circle60329"
       style="opacity:1;vector-effect:none;fill:#0000ff;fill-opacity:1;fill-rule:evenodd;stroke:none;stroke-width:0.69999999;stroke-linecap:butt;stroke-linejoin:miter;stroke-miterlimit:4;stroke-dasharray:none;stroke-dashoffset:0;stroke-opacity:1;paint-order:normal" />
    <circle
       r="2"
       cy="48.019806"
       cx="6.7709875"
       id="circle60331"
       style="opacity:1;vector-effect:none;fill:#0000ff;fill-opacity:1;fill-rule:evenodd;stroke:none;stroke-width:0.69999999;stroke-linecap:butt;stroke-linejoin:miter;stroke-miterlimit:4;stroke-dasharray:none;stroke-dashoffset:0;stroke-opacity:1;paint-order:normal" />
    <circle
       style="opacity:1;vector-effect:none;fill:#0000ff;fill-opacity:1;fill-rule:evenodd;stroke:none;stroke-width:0.69999999;stroke-linecap:butt;stroke-linejoin:miter;stroke-miterlimit:4;stroke-dasharray:none;stroke-dashoffset:0;stroke-opacity:1;paint-order:normal"
       id="circle60333"
       cx="18.27486"
       cy="48.019806"
       r="2" />
    <circle
       style="opacity:1;vector-effect:none;fill:#0000ff;fill-opacity:1;fill-rule:evenodd;stroke:none;stroke-width:0.69999999;stroke-linecap:butt;stroke-linejoin:miter;stroke-miterlimit:4;stroke-dasharray:none;stroke-dashoffset:0;stroke-opacity:1;paint-order:normal"
       id="circle60335"
       cx="6.7702994"
       cy="59.019997"
       r="2" />
    <circle
       r="2"
       cy="59.019997"
       cx="18.274172"
       id="circle60337"
       style="opacity:1;vector-effect:none;fill:#0000ff;fill-opacity:1;fill-rule:evenodd;stroke:none;stroke-width:0.69999999;stroke-linecap:butt;stroke-linejoin:miter;stroke-miterlimit:4;stroke-dasharray:none;stroke-dashoffset:0;stroke-opacity:1;paint-order:normal" />
    <circle
       r="2"
       cy="70.020195"
       cx="6.7702994"
       id="circle60339"
       style="opacity:1;vector-effect:none;fill:#0000ff;fill-opacity:1;fill-rule:evenodd;stroke:none;stroke-width:0.69999999;stroke-linecap:butt;stroke-linejoin:miter;stroke-miterlimit:4;stroke-dasharray:none;stroke-dashoffset:0;stroke-opacity:1;paint-order:normal" />
    <circle
       style="opacity:1;vector-effect:none;fill:#0000ff;fill-opacity:1;fill-rule:evenodd;stroke:none;stroke-width:0.69999999;stroke-linecap:butt;stroke-linejoin:miter;stroke-miterlimit:4;stroke-dasharray:none;stroke-dashoffset:0;stroke-opacity:1;paint-order:normal"
       id="circle60341"
       cx="18.274172"
       cy="70.020195"
       r="2" />
    <circle
       style="opacity:1;vector-effect:none;fill:#0000ff;fill-opacity:1;fill-rule:evenodd;stroke:none;stroke-width:0.69999999;stroke-linecap:butt;stroke-linejoin:miter;stroke-miterlimit:4;stroke-dasharray:none;stroke-dashoffset:0;stroke-opacity:1;paint-order:normal"
       id="circle60343"
       cx="6.7702994"
       cy="81.020378"
       r="2" />
    <circle
       r="2"
       cy="81.020378"
       cx="18.274172"
       id="circle60345"
       style="opacity:1;vector-effect:none;fill:#0000ff;fill-opacity:1;fill-rule:evenodd;stroke:none;stroke-width:0.69999999;stroke-linecap:butt;stroke-linejoin:miter;stroke-miterlimit:4;stroke-dasharray:none;stroke-dashoffset:0;stroke-opacity:1;paint-order:normal" />
    <circle
       r="2"
       cy="92.019882"
       cx="6.7702994"
       id="circle60347"
       style="opacity:1;vector-effect:none;fill:#0000ff;fill-opacity:1;fill-rule:evenodd;stroke:none;stroke-width:0.69999999;stroke-linecap:butt;stroke-linejoin:miter;stroke-miterlimit:4;stroke-dasharray:none;stroke-dashoffset:0;stroke-opacity:1;paint-order:normal" />
    <circle
       style="opacity:1;vector-effect:none;fill:#0000ff;fill-opacity:1;fill-rule:evenodd;stroke:none;stroke-width:0.69999999;stroke-linecap:butt;stroke-linejoin:miter;stroke-miterlimit:4;stroke-dasharray:none;stroke-dashoffset:0;stroke-opacity:1;paint-order:normal"
       id="circle60349"
       cx="18.274172"
       cy="92.019882"
       r="2" />
    <circle
       style="opacity:1;vector-effect:none;fill:#0000ff;fill-opacity:1;fill-rule:evenodd;stroke:none;stroke-width:0.69999999;stroke-linecap:butt;stroke-linejoin:miter;stroke-miterlimit:4;stroke-dasharray:none;stroke-dashoffset:0;stroke-opacity:1;paint-order:normal"
       id="circle60351"
       cx="6.7709875"
       cy="103.02007"
       r="2" />
    <circle
       r="2"
       cy="103.02007"
       cx="18.27486"
       id="circle60353"
       style="opacity:1;vector-effect:none;fill:#0000ff;fill-opacity:1;fill-rule:evenodd;stroke:none;stroke-width:0.69999999;stroke-linecap:butt;stroke-linejoin:miter;stroke-miterlimit:4;stroke-dasharray:none;stroke-dashoffset:0;stroke-opacity:1;paint-order:normal" />
    <circle
       r="2"
       cy="114.02026"
       cx="6.7709875"
       id="circle60355"
       style="opacity:1;vector-effect:none;fill:#0000ff;fill-opacity:1;fill-rule:evenodd;stroke:none;stroke-width:0.69999999;stroke-linecap:butt;stroke-linejoin:miter;stroke-miterlimit:4;stroke-dasharray:none;stroke-dashoffset:0;stroke-opacity:1;paint-order:normal" />
    <circle
       style="opacity:1;vector-effect:none;fill:#0000ff;fill-opacity:1;fill-rule:evenodd;stroke:none;stroke-width:0.69999999;stroke-linecap:butt;stroke-linejoin:miter;stroke-miterlimit:4;stroke-dasharray:none;stroke-dashoffset:0;stroke-opacity:1;paint-order:normal"
       id="circle60357"
       cx="18.27486"
       cy="114.02026"
       r="2" />
    <circle
       r="2"
       cy="21.347191"
       cx="6.7702994"
       id="circle60359"
       style="opacity:1;vector-effect:none;fill:#00ff00;fill-opacity:1;fill-rule:evenodd;stroke:none;stroke-width:0.69999999;stroke-linecap:butt;stroke-linejoin:miter;stroke-miterlimit:4;stroke-dasharray:none;stroke-dashoffset:0;stroke-opacity:1;paint-order:normal" />
    <circle
       style="opacity:1;vector-effect:none;fill:#ff00ff;fill-opacity:1;fill-rule:evenodd;stroke:none;stroke-width:0.175;stroke-linecap:butt;stroke-linejoin:miter;stroke-miterlimit:4;stroke-dasharray:none;stroke-dashoffset:0;stroke-opacity:1;paint-order:normal"
       id="circle60361"
       cx="15.275506"
       cy="17.775314"
       r="0.5" />
    <circle
       r="0.5"
       cy="17.775314"
       cx="17.27504"
       id="circle60363"
       style="opacity:1;vector-effect:none;fill:#ff00ff;fill-opacity:1;fill-rule:evenodd;stroke:none;stroke-width:0.175;stroke-linecap:butt;stroke-linejoin:miter;stroke-miterlimit:4;stroke-dasharray:none;stroke-dashoffset:0;stroke-opacity:1;paint-order:normal" />
    <circle
       style="opacity:1;vector-effect:none;fill:#ff00ff;fill-opacity:1;fill-rule:evenodd;stroke:none;stroke-width:0.175;stroke-linecap:butt;stroke-linejoin:miter;stroke-miterlimit:4;stroke-dasharray:none;stroke-dashoffset:0;stroke-opacity:1;paint-order:normal"
       id="circle60365"
       cx="19.27527"
       cy="17.775314"
       r="0.5" />
    <circle
       r="0.5"
       cy="17.775314"
       cx="21.275494"
       id="circle60367"
       style="opacity:1;vector-effect:none;fill:#ff00ff;fill-opacity:1;fill-rule:evenodd;stroke:none;stroke-width:0.175;stroke-linecap:butt;stroke-linejoin:miter;stroke-miterlimit:4;stroke-dasharray:none;stroke-dashoffset:0;stroke-opacity:1;paint-order:normal" />
    <circle
       r="0.5"
       cy="19.774849"
       cx="15.275506"
       id="circle60369"
       style="opacity:1;vector-effect:none;fill:#ff00ff;fill-opacity:1;fill-rule:evenodd;stroke:none;stroke-width:0.175;stroke-linecap:butt;stroke-linejoin:miter;stroke-miterlimit:4;stroke-dasharray:none;stroke-dashoffset:0;stroke-opacity:1;paint-order:normal" />
    <circle
       style="opacity:1;vector-effect:none;fill:#ff00ff;fill-opacity:1;fill-rule:evenodd;stroke:none;stroke-width:0.175;stroke-linecap:butt;stroke-linejoin:miter;stroke-miterlimit:4;stroke-dasharray:none;stroke-dashoffset:0;stroke-opacity:1;paint-order:normal"
       id="circle60371"
       cx="17.27504"
       cy="19.774849"
       r="0.5" />
    <circle
       r="0.5"
       cy="19.774849"
       cx="19.27527"
       id="circle60373"
       style="opacity:1;vector-effect:none;fill:#ff00ff;fill-opacity:1;fill-rule:evenodd;stroke:none;stroke-width:0.175;stroke-linecap:butt;stroke-linejoin:miter;stroke-miterlimit:4;stroke-dasharray:none;stroke-dashoffset:0;stroke-opacity:1;paint-order:normal" />
    <circle
       style="opacity:1;vector-effect:none;fill:#ff00ff;fill-opacity:1;fill-rule:evenodd;stroke:none;stroke-width:0.175;stroke-linecap:butt;stroke-linejoin:miter;stroke-miterlimit:4;stroke-dasharray:none;stroke-dashoffset:0;stroke-opacity:1;paint-order:normal"
       id="circle60375"
       cx="21.275494"
       cy="19.774849"
       r="0.5" />
    <circle
       style="opacity:1;vector-effect:none;fill:#ff00ff;fill-opacity:1;fill-rule:evenodd;stroke:none;stroke-width:0.175;stroke-linecap:butt;stroke-linejoin:miter;stroke-miterlimit:4;stroke-dasharray:none;stroke-dashoffset:0;stroke-opacity:1;paint-order:normal"
       id="circle60377"
       cx="15.275561"
       cy="21.775072"
       r="0.5" />
    <circle
       r="0.5"
       cy="21.775072"
       cx="17.275095"
       id="circle60379"
       style="opacity:1;vector-effect:none;fill:#ff00ff;fill-opacity:1;fill-rule:evenodd;stroke:none;stroke-width:0.175;stroke-linecap:butt;stroke-linejoin:miter;stroke-miterlimit:4;stroke-dasharray:none;stroke-dashoffset:0;stroke-opacity:1;paint-order:normal" />
    <circle
       style="opacity:1;vector-effect:none;fill:#ff00ff;fill-opacity:1;fill-rule:evenodd;stroke:none;stroke-width:0.175;stroke-linecap:butt;stroke-linejoin:miter;stroke-miterlimit:4;stroke-dasharray:none;stroke-dashoffset:0;stroke-opacity:1;paint-order:normal"
       id="circle60381"
       cx="19.275326"
       cy="21.775072"
       r="0.5" />
    <circle
       r="0.5"
       cy="21.775072"
       cx="21.275549"
       id="circle60383"
       style="opacity:1;vector-effect:none;fill:#ff00ff;fill-opacity:1;fill-rule:evenodd;stroke:none;stroke-width:0.175;stroke-linecap:butt;stroke-linejoin:miter;stroke-miterlimit:4;stroke-dasharray:none;stroke-dashoffset:0;stroke-opacity:1;paint-order:normal" />
    <circle
       r="0.5"
       cy="23.775293"
       cx="15.275561"
       id="circle60385"
       style="opacity:1;vector-effect:none;fill:#ff00ff;fill-opacity:1;fill-rule:evenodd;stroke:none;stroke-width:0.175;stroke-linecap:butt;stroke-linejoin:miter;stroke-miterlimit:4;stroke-dasharray:none;stroke-dashoffset:0;stroke-opacity:1;paint-order:normal" />
    <circle
       style="opacity:1;vector-effect:none;fill:#ff00ff;fill-opacity:1;fill-rule:evenodd;stroke:none;stroke-width:0.175;stroke-linecap:butt;stroke-linejoin:miter;stroke-miterlimit:4;stroke-dasharray:none;stroke-dashoffset:0;stroke-opacity:1;paint-order:normal"
       id="circle60387"
       cx="17.275095"
       cy="23.775293"
       r="0.5" />
    <circle
       r="0.5"
       cy="23.775293"
       cx="19.275326"
       id="circle60389"
       style="opacity:1;vector-effect:none;fill:#ff00ff;fill-opacity:1;fill-rule:evenodd;stroke:none;stroke-width:0.175;stroke-linecap:butt;stroke-linejoin:miter;stroke-miterlimit:4;stroke-dasharray:none;stroke-dashoffset:0;stroke-opacity:1;paint-order:normal" />
    <circle
       style="opacity:1;vector-effect:none;fill:#ff00ff;fill-opacity:1;fill-rule:evenodd;stroke:none;stroke-width:0.175;stroke-linecap:butt;stroke-linejoin:miter;stroke-miterlimit:4;stroke-dasharray:none;stroke-dashoffset:0;stroke-opacity:1;paint-order:normal"
       id="circle60391"
       cx="21.275549"
       cy="23.775293"
       r="0.5" />
  </g>
</svg>
