<?xml version="1.0" encoding="UTF-8" standalone="no"?>
<svg
   xmlns:dc="http://purl.org/dc/elements/1.1/"
   xmlns:cc="http://creativecommons.org/ns#"
   xmlns:rdf="http://www.w3.org/1999/02/22-rdf-syntax-ns#"
   xmlns:svg="http://www.w3.org/2000/svg"
   xmlns="http://www.w3.org/2000/svg"
   xmlns:sodipodi="http://sodipodi.sourceforge.net/DTD/sodipodi-0.dtd"
   xmlns:inkscape="http://www.inkscape.org/namespaces/inkscape"
   width="75"
   height="380"
   viewBox="0 0 75 380"
   version="1.1"
   id="svg132"
   sodipodi:docname="SPLIT.svg"
   inkscape:version="0.92.3 (2405546, 2018-03-11)">
  <metadata
     id="metadata136">
    <rdf:RDF>
      <cc:Work
         rdf:about="">
        <dc:format>image/svg+xml</dc:format>
        <dc:type
           rdf:resource="http://purl.org/dc/dcmitype/StillImage" />
      </cc:Work>
    </rdf:RDF>
  </metadata>
  <sodipodi:namedview
     pagecolor="#ffffff"
     bordercolor="#666666"
     borderopacity="1"
     objecttolerance="10"
     gridtolerance="10"
     guidetolerance="10"
     inkscape:pageopacity="0"
     inkscape:pageshadow="2"
     inkscape:window-width="716"
     inkscape:window-height="480"
     id="namedview134"
     showgrid="false"
     inkscape:zoom="0.62105263"
     inkscape:cx="37.5"
     inkscape:cy="190"
     inkscape:window-x="0"
     inkscape:window-y="0"
     inkscape:window-maximized="0"
     inkscape:current-layer="svg132" />
  <defs
     id="defs7">
    <linearGradient
       id="aab8b6fd-3948-4f25-ba8e-1c82f966b88a"
       x1="37.5"
       x2="37.5"
       y2="380"
       gradientUnits="userSpaceOnUse">
      <stop
         offset="0"
         stop-color="#ebebeb"
         id="stop2" />
      <stop
         offset="1"
         stop-color="#e1e1e1"
         id="stop4" />
    </linearGradient>
  </defs>
  <g
     id="ad801b06-58dc-4a73-ad49-57908275371c"
     data-name="FND BG">
    <rect
       width="75"
       height="380"
       fill="url(#aab8b6fd-3948-4f25-ba8e-1c82f966b88a)"
       id="rect9" />
  </g>
  <g
     id="f92b2d20-7eea-46c8-8e46-ffa89fc11467"
     data-name="FND GRAPH">
    <rect
       x="7.18421"
       y="99.19004"
       width="28.6316"
       height="249.02319"
       rx="2.83465"
       fill="#1f1f1f"
       id="rect12" />
    <rect
       x="39.18421"
       y="99.19004"
       width="28.6316"
       height="249.02319"
       rx="2.83465"
       fill="#1f1f1f"
       id="rect14" />
    <g
       id="g24">
      <circle
         cx="37.99958"
         cy="356.2678"
         r="1.18571"
         fill="#1f1f1f"
         id="circle16" />
      <path
         d="M29.3572,360.18977a.91213.91213,0,0,1-.8158-.50419L25.57712,353.757a.91209.91209,0,0,1,1.6316-.8158l2.14848,4.297,2.14848-4.297a.91209.91209,0,0,1,1.6316.8158L30.173,359.68558A.91212.91212,0,0,1,29.3572,360.18977Z"
         fill="#1f1f1f"
         id="path18" />
      <path
         d="M45.63866,360.18977a.91213.91213,0,0,1-.81581-.50419L41.85857,353.757a.9121.9121,0,0,1,1.63161-.8158l2.14848,4.297,2.14848-4.297a.91209.91209,0,0,1,1.6316.8158l-2.96428,5.92856A.91213.91213,0,0,1,45.63866,360.18977Z"
         fill="#1f1f1f"
         id="path20" />
      <path
         d="M37.94034,360.18977a3.87637,3.87637,0,1,1,2.32654-6.9772.91209.91209,0,1,1-1.09558,1.45854,2.03393,2.03393,0,0,0-1.231-.4099,2.05219,2.05219,0,1,0,0,4.10438,2.03393,2.03393,0,0,0,1.231-.4099.91209.91209,0,1,1,1.09558,1.45854A3.8449,3.8449,0,0,1,37.94034,360.18977Z"
         fill="#1f1f1f"
         id="path22" />
    </g>
    <g
       id="g34">
      <circle
         cx="38.00165"
         cy="355.83101"
         r="1.18571"
         fill="#1f1f1f"
         id="circle26" />
      <path
         d="M29.35927,359.753a.91214.91214,0,0,1-.8158-.50418l-2.96428-5.92857a.91209.91209,0,0,1,1.6316-.8158l2.14848,4.297,2.14848-4.297a.91209.91209,0,0,1,1.6316.8158l-2.96428,5.92857A.91211.91211,0,0,1,29.35927,359.753Z"
         fill="#1f1f1f"
         id="path28" />
      <path
         d="M45.64073,359.753a.91211.91211,0,0,1-.8158-.50418l-2.96428-5.92857a.91209.91209,0,0,1,1.6316-.8158l2.14848,4.297,2.14848-4.297a.91209.91209,0,0,1,1.6316.8158l-2.96428,5.92857A.91214.91214,0,0,1,45.64073,359.753Z"
         fill="#1f1f1f"
         id="path30" />
      <path
         d="M37.94242,359.753a3.87637,3.87637,0,1,1,2.32653-6.97719.91209.91209,0,1,1-1.09557,1.45854,2.034,2.034,0,0,0-1.231-.40991,2.0522,2.0522,0,1,0,0,4.10439,2.034,2.034,0,0,0,1.231-.40991.91209.91209,0,1,1,1.09557,1.45854A3.8448,3.8448,0,0,1,37.94242,359.753Z"
         fill="#1f1f1f"
         id="path32" />
    </g>
  </g>
  <g
     id="bb071e86-8b45-4d42-8e44-3dadbe88b680"
     data-name="FND TXT">
    <g
       id="g51">
      <path
         d="M13.32422,89.23877a.51443.51443,0,0,1,.51758-.51758h.10742a.53954.53954,0,0,1,.47656.27539l1.76953,2.771,1.77735-2.7793a.51856.51856,0,0,1,.46777-.26709h.1084a.515.515,0,0,1,.51758.51758v4.89111a.5077.5077,0,0,1-.51758.50879.517.517,0,0,1-.50977-.50879V90.624L16.6123,92.76953a.47955.47955,0,0,1-.85937,0L14.334,90.64062v3.49756a.499.499,0,0,1-.50976.50049.49134.49134,0,0,1-.5-.50049Z"
         fill="#1f1f1f"
         id="path37" />
      <path
         d="M20.49316,91.69238v-.0166a3.055,3.055,0,0,1,6.10938-.0166v.0166a3.055,3.055,0,0,1-6.10938.0166Zm5.03223,0v-.0166a2.00179,2.00179,0,0,0-1.98633-2.07812,1.97312,1.97312,0,0,0-1.96875,2.06152v.0166a1.99482,1.99482,0,0,0,1.98633,2.07031A1.96648,1.96648,0,0,0,25.52539,91.69238Z"
         fill="#1f1f1f"
         id="path39" />
      <path
         d="M28.0293,89.23877a.51443.51443,0,0,1,.51758-.51758h.10742a.64931.64931,0,0,1,.53515.30029l2.9209,3.78125V89.21387a.50539.50539,0,0,1,1.01074,0v4.90722a.49987.49987,0,0,1-.502.50977h-.041a.64586.64586,0,0,1-.53417-.30908l-3.00489-3.88965v3.70605a.5049.5049,0,0,1-1.00976,0Z"
         fill="#1f1f1f"
         id="path41" />
      <path
         d="M34.54688,91.69238v-.0166a3.055,3.055,0,0,1,6.10937-.0166v.0166a3.055,3.055,0,0,1-6.10937.0166Zm5.0332,0v-.0166a2.00179,2.00179,0,0,0-1.98633-2.07812A1.9739,1.9739,0,0,0,35.624,91.65918v.0166a1.99483,1.99483,0,0,0,1.98633,2.07031A1.96728,1.96728,0,0,0,39.58008,91.69238Z"
         fill="#1f1f1f"
         id="path43" />
      <path
         d="M44.14453,91.69238v-.0166a3.055,3.055,0,0,1,6.10938-.0166v.0166a3.055,3.055,0,0,1-6.10938.0166Zm5.0332,0v-.0166a2.00179,2.00179,0,0,0-1.98632-2.07812,1.97469,1.97469,0,0,0-1.97071,2.06152v.0166A1.99483,1.99483,0,0,0,47.207,93.74609,1.96806,1.96806,0,0,0,49.17773,91.69238Z"
         fill="#1f1f1f"
         id="path45" />
      <path
         d="M51.5957,92.11816V89.22168a.5137.5137,0,0,1,1.02735,0v2.85449c0,1.08545.55859,1.66113,1.47754,1.66113.90918,0,1.46875-.54248,1.46875-1.61914V89.22168a.5132.5132,0,0,1,1.02636,0v2.84668A2.33268,2.33268,0,0,1,54.084,94.689,2.3038,2.3038,0,0,1,51.5957,92.11816Z"
         fill="#1f1f1f"
         id="path47" />
      <path
         d="M59.60156,89.70605H58.18164a.47559.47559,0,1,1,0-.95117H62.0625a.47565.47565,0,0,1,0,.95117H60.63574v4.42383a.51716.51716,0,0,1-1.03418,0Z"
         fill="#1f1f1f"
         id="path49" />
    </g>
    <g
       id="g59">
      <path
         d="M17.459,105.313l-.36523.09472a.85036.85036,0,0,1-.18359.02686.456.456,0,0,1-.45313-.44678.46079.46079,0,0,1,.3457-.44726l.66993-.19678a1.89122,1.89122,0,0,1,.48828-.08789h.01367a.51482.51482,0,0,1,.51465.51514v3.8208a.51514.51514,0,0,1-1.03028,0Z"
         fill="#f0f0f0"
         id="path53" />
      <path
         d="M19.69531,106.96582a.49693.49693,0,0,1,.49414-.49414h1.17969a.49439.49439,0,0,1,0,.98877H20.18945A.49735.49735,0,0,1,19.69531,106.96582Z"
         fill="#f0f0f0"
         id="path55" />
      <path
         d="M22.7793,107.76562V107.752a1.15157,1.15157,0,0,1,.76562-1.145,1.13043,1.13043,0,0,1-.60351-1.03662v-.01367c0-.72461.66406-1.30078,1.668-1.30078,1.00195,0,1.666.56934,1.666,1.30078v.01367a1.12868,1.12868,0,0,1-.60351,1.03662,1.17422,1.17422,0,0,1,.76562,1.11768v.01367c0,.88086-.7793,1.39551-1.82812,1.39551C23.55859,109.13379,22.7793,108.5918,22.7793,107.76562Zm2.64843-.08154v-.01367c0-.36572-.34472-.58252-.81835-.58252-.47461,0-.82032.2168-.82032.58252v.01367c0,.3252.30469.58936.82032.58936C25.12305,108.27344,25.42773,108.01611,25.42773,107.68408Zm-.1416-1.99853v-.01367a.60359.60359,0,0,0-.67675-.55567c-.42774,0-.67774.25781-.67774.54883v.01367a.68557.68557,0,0,0,1.35449.00684Z"
         fill="#f0f0f0"
         id="path57" />
    </g>
    <g
       id="g69">
      <path
         d="M46.68945,108.80859a.495.495,0,0,1-.24414-.42675.481.481,0,0,1,.49512-.47413.524.524,0,0,1,.27051.08155,1.395,1.395,0,0,0,.75976.21c.582,0,.89356-.44043.96094-1.07715a1.44226,1.44226,0,0,1-.96094.3252,1.49995,1.49995,0,0,1-1.69433-1.53125v-.01368a1.67363,1.67363,0,0,1,1.80957-1.66015,1.71391,1.71391,0,0,1,1.36718.51513,2.349,2.349,0,0,1,.5625,1.78858v.01367c0,1.53809-.7246,2.58789-2.07226,2.58789A2.24062,2.24062,0,0,1,46.68945,108.80859Zm2.26367-2.93359v-.01367a.7383.7383,0,0,0-.834-.72461.71307.71307,0,0,0-.80664.71826v.01318c0,.42041.3125.71192.82715.71192A.71736.71736,0,0,0,48.95312,105.875Z"
         fill="#f0f0f0"
         id="path61" />
      <path
         d="M51.07227,106.96582a.49628.49628,0,0,1,.49414-.49414h1.17871a.49439.49439,0,1,1,0,.98877H51.56641A.4967.4967,0,0,1,51.07227,106.96582Z"
         fill="#f0f0f0"
         id="path63" />
      <path
         d="M54.73535,105.313l-.36621.09472a.85046.85046,0,0,1-.18262.02686.45686.45686,0,0,1-.4541-.44678.46188.46188,0,0,1,.3457-.44726l.66993-.19678a1.89122,1.89122,0,0,1,.48828-.08789H55.25a.515.515,0,0,1,.51562.51514v3.8208a.51514.51514,0,0,1-1.03027,0Z"
         fill="#f0f0f0"
         id="path65" />
      <path
         d="M57.542,108.63965a2.34527,2.34527,0,0,1-.5625-1.7959v-.01318c0-1.46338.66406-2.58838,2.08008-2.58838a2.23458,2.23458,0,0,1,1.14551.28467.49671.49671,0,0,1,.27051.44726.486.486,0,0,1-.49512.481.56555.56555,0,0,1-.25684-.07422,1.30979,1.30979,0,0,0-.69824-.18994c-.58984,0-.88672.47412-.95508,1.09765a1.643,1.643,0,0,1,.98242-.30517,1.4911,1.4911,0,0,1,1.666,1.51074v.01367a1.67232,1.67232,0,0,1-1.80859,1.63965A1.8,1.8,0,0,1,57.542,108.63965Zm2.14063-1.084V107.542c0-.3999-.31153-.6914-.82617-.6914s-.81348.28466-.81348.68457v.01367a.73245.73245,0,0,0,.82617.7041C59.38477,108.25293,59.68262,107.96191,59.68262,107.55566Z"
         fill="#f0f0f0"
         id="path67" />
    </g>
    <g
       id="g79">
      <path
         d="M43.291,47.42285v-.01318A2.4,2.4,0,0,1,45.73633,44.957a2.49024,2.49024,0,0,1,1.627.53516.417.417,0,0,1,.16211.332.40442.40442,0,0,1-.41309.40625.4099.4099,0,0,1-.251-.08106,1.71844,1.71844,0,0,0-1.13086-.42675A1.59541,1.59541,0,0,0,44.166,47.396v.01367a1.59717,1.59717,0,0,0,1.56445,1.68017,1.69971,1.69971,0,0,0,1.18555-.4541.37652.37652,0,0,1,.25-.09472.396.396,0,0,1,.39355.38623.40177.40177,0,0,1-.13574.29785,2.42256,2.42256,0,0,1-1.72071.6372A2.38556,2.38556,0,0,1,43.291,47.42285Z"
         fill="#1f1f1f"
         id="path71" />
      <path
         d="M48.709,45.418a.416.416,0,0,1,.832,0v1.5918h2.26367V45.418a.41652.41652,0,0,1,.833,0v3.9834a.41652.41652,0,0,1-.833,0V47.78223H49.541v1.61914a.416.416,0,0,1-.832,0Z"
         fill="#1f1f1f"
         id="path73" />
      <path
         d="M53.71875,49.23877l1.76172-3.9292a.52932.52932,0,0,1,.502-.33887h.04a.5213.5213,0,0,1,.49512.33887l1.76172,3.9292a.36994.36994,0,0,1,.04687.17627.39048.39048,0,0,1-.39258.39941.42821.42821,0,0,1-.40625-.291l-.38672-.8877H54.83691l-.39941.91455a.40219.40219,0,0,1-.38672.26416.381.381,0,0,1-.38574-.38574A.434.434,0,0,1,53.71875,49.23877Zm3.10352-1.34131-.834-1.91748-.833,1.91748Z"
         fill="#1f1f1f"
         id="path75" />
      <path
         d="M59.35938,45.43115a.41834.41834,0,0,1,.41992-.41992h.08789a.52387.52387,0,0,1,.43359.24365l2.37207,3.06934V45.41113a.40968.40968,0,0,1,.81934,0v3.9834a.40442.40442,0,0,1-.40625.41309h-.03321a.52358.52358,0,0,1-.43359-.25049l-2.43945-3.15674V49.4082a.41017.41017,0,0,1-.82031,0Z"
         fill="#1f1f1f"
         id="path77" />
    </g>
    <g
       id="g89">
      <path
         d="M12.52148,45.77734a.41381.41381,0,0,1,.41993-.41992H14.3916a1.59131,1.59131,0,0,1,1.80176,1.585v.01367c0,1.06348-.85352,1.61915-1.89648,1.61915h-.94141v1.145a.417.417,0,0,1-.834,0Zm1.80274,2.0459c.62988,0,1.02344-.35254,1.02344-.84668v-.01367c0-.55566-.40039-.84668-1.02344-.84668h-.96875v1.707Z"
         fill="#1f1f1f"
         id="path81" />
      <path
         d="M17.0625,47.74219v-.01367a2.47973,2.47973,0,0,1,4.959-.01368v.01368a2.47974,2.47974,0,0,1-4.959.01367Zm4.08594,0v-.01367a1.62523,1.62523,0,0,0-1.61328-1.687,1.60151,1.60151,0,0,0-1.59766,1.67334v.01368a1.61839,1.61839,0,0,0,1.61133,1.68017A1.59757,1.59757,0,0,0,21.14844,47.74219Z"
         fill="#1f1f1f"
         id="path83" />
      <path
         d="M23.23926,45.73633a.41652.41652,0,0,1,.833,0v3.60449H26.2207a.3794.3794,0,0,1,0,.75879H23.65918a.41321.41321,0,0,1-.41992-.41992Z"
         fill="#1f1f1f"
         id="path85" />
      <path
         d="M28.31055,48.25684l-1.63282-2.24219a.52071.52071,0,0,1-.09375-.29151.40517.40517,0,0,1,.41993-.3999.47961.47961,0,0,1,.40625.251l1.32031,1.90332,1.3418-1.91016a.47921.47921,0,0,1,.40039-.251.395.395,0,0,1,.40625.40673.50806.50806,0,0,1-.11524.29786l-1.61914,2.21533v1.48388a.417.417,0,0,1-.834,0Z"
         fill="#1f1f1f"
         id="path87" />
    </g>
    <g
       id="g101">
      <path
         d="M20.14551,27.36035a.90045.90045,0,0,1-.36328-.72558.88667.88667,0,0,1,.90136-.88868.93137.93137,0,0,1,.55079.1753,3.69384,3.69384,0,0,0,2.23925.78808c.78809,0,1.26367-.313,1.26367-.82568v-.0249c0-.4878-.2998-.73828-1.76464-1.11377-1.76368-.4502-2.90235-.93848-2.90235-2.67774v-.0249c0-1.58887,1.27637-2.64014,3.06543-2.64014a5.083,5.083,0,0,1,2.77735.77588.89164.89164,0,0,1-.47461,1.65186.92557.92557,0,0,1-.48828-.1377,3.6472,3.6472,0,0,0-1.83985-.58838c-.7373,0-1.126.33789-1.126.76319v.02539c0,.57519.376.76318,1.88964,1.15088,1.77637.46289,2.77735,1.10107,2.77735,2.62744v.02539c0,1.73926-1.32617,2.71484-3.21485,2.71484A5.65274,5.65274,0,0,1,20.14551,27.36035Z"
         fill="#1f1f1f"
         id="path91" />
      <path
         d="M28.46,20.49121a.95659.95659,0,0,1,.96387-.96387h2.61523c2.08887,0,3.35254,1.23926,3.35254,3.02832v.02491c0,2.02685-1.57617,3.07812-3.541,3.07812H30.38672v1.73877a.96338.96338,0,1,1-1.92676,0Zm3.4541,3.45313a1.35617,1.35617,0,0,0,1.52637-1.32618v-.02539c0-.86328-.60059-1.32617-1.56445-1.32617H30.38672v2.67774Z"
         fill="#1f1f1f"
         id="path93" />
      <path
         d="M36.90234,20.416a.96338.96338,0,1,1,1.92676,0v6.11816h3.56641a.876.876,0,0,1,0,1.752h-4.5293a.95618.95618,0,0,1-.96387-.96338Z"
         fill="#1f1f1f"
         id="path95" />
      <path
         d="M44.66113,20.416a.96338.96338,0,1,1,1.92676,0v6.98144a.96338.96338,0,1,1-1.92676,0Z"
         fill="#1f1f1f"
         id="path97" />
      <path
         d="M50.709,21.3042H48.85645a.88843.88843,0,0,1,0-1.77686H54.4873a.88843.88843,0,1,1,0,1.77686H52.63574v6.09326a.96338.96338,0,1,1-1.92676,0Z"
         fill="#1f1f1f"
         id="path99" />
    </g>
  </g>
  <g
     id="f238f02f-6a6e-41b5-a183-1ff70885551f"
     data-name="components"
     inkscape:groupmode="layer"
     style="display:none">
    <circle
       id="b98f73fa-27c1-4df3-a7cc-1ee26cf23126"
       data-name="08#PJ301MPort"
       cx="21.50001"
       cy="334"
       r="5"
       style="fill:#0000ff" />
    <circle
       id="bba4cf60-4c0c-4f53-ad36-2e75a79d196a"
       data-name="16#PJ301MPort"
       cx="53.500011"
       cy="334"
       r="5"
       style="fill:#0000ff" />
    <circle
       id="a6d4b68c-5bbb-4d5b-8cec-ae252de50a78"
       data-name="07#PJ301MPort"
       cx="21.50001"
       cy="304"
       r="5"
       style="fill:#0000ff" />
    <circle
       id="b3cce024-ca5a-4328-81e5-ff9c56480f97"
       data-name="15#PJ301MPort"
       cx="53.500011"
       cy="304"
       r="5"
       style="fill:#0000ff" />
    <circle
       id="b25955a2-933d-4770-97bc-8f073e657520"
       data-name="06#PJ301MPort"
       cx="21.50001"
       cy="274"
       r="5"
       style="fill:#0000ff" />
    <circle
       id="f9b0205d-5569-4bf1-a1f9-8312823ac99a"
       data-name="14#PJ301MPort"
       cx="53.500011"
       cy="274"
       r="5"
       style="fill:#0000ff" />
    <circle
       id="f1c8d950-e015-4b76-8c6b-d91196e10554"
       data-name="05#PJ301MPort"
       cx="21.50001"
       cy="244"
       r="5"
       style="fill:#0000ff" />
    <circle
       id="ad9a9c87-8c6b-4a6c-ae68-65d8619cc472"
       data-name="13#PJ301MPort"
       cx="53.500011"
       cy="244"
       r="5"
       style="fill:#0000ff" />
    <circle
       id="f1d3c364-fef4-47c5-8bca-331466774cc3"
       data-name="04#PJ301MPort"
       cx="21.50001"
       cy="214"
       r="5"
       style="fill:#0000ff" />
    <circle
       id="a07081fe-d202-4db0-89d9-f6cbd877a967"
       data-name="12#PJ301MPort"
       cx="53.500011"
       cy="214"
       r="5"
       style="fill:#0000ff" />
    <circle
       id="ff685964-c5c3-49d1-97ba-87e03bb52326"
       data-name="03#PJ301MPort"
       cx="21.50001"
       cy="184"
       r="5"
       style="fill:#0000ff" />
    <circle
       id="bc6b34b3-9c57-445a-b211-2c4f40ae7a13"
       data-name="11#PJ301MPort"
       cx="53.500011"
       cy="184"
       r="5"
       style="fill:#0000ff" />
    <circle
       id="ff0d38e0-d0e3-4325-a67d-cc97f7afb522"
       data-name="02#PJ301MPort"
       cx="21.50001"
       cy="154"
       r="5"
       style="fill:#0000ff" />
    <circle
       id="b01514ba-a246-4f59-9461-fbbb576863bb"
       data-name="10#PJ301MPort"
       cx="53.500011"
       cy="154"
       r="5"
       style="fill:#0000ff" />
    <circle
       id="a32b5c1b-70c7-4dac-9cef-b1e5c9f29642"
       data-name="01#PJ301MPort"
       cx="21.50001"
       cy="124"
       r="5"
       style="fill:#0000ff" />
    <circle
       id="b77b528f-12a5-4699-955a-bd82191013ea"
       data-name="09#PJ301MPort"
       cx="53.500011"
       cy="124"
       r="5"
       style="fill:#0000ff" />
    <circle
       id="ae3798f3-4a65-416a-8c09-54f6265ccdb9"
       data-name="Poly#PJ301MPort"
       cx="21.50001"
       cy="64.862877"
       r="5"
       style="fill:#00ff00" />
    <rect
       id="f2df93d7-1770-43ad-941b-434f4dfc6245"
       data-name="Chan"
       x="41.39806"
       y="54.953018"
       width="24.20389"
       height="24.20389"
       style="fill:#ffff00" />
  </g>
</svg>
