<?xml version="1.0" encoding="UTF-8"?>
<svg xmlns="http://www.w3.org/2000/svg" width="75" height="380" xmlns:xlink="http://www.w3.org/1999/xlink" viewBox="0 0 75 380">
  <defs>
    <linearGradient id="uuid-5d989093-ff69-48f8-8c35-d6a95a1d2670" x1="37.5" y1="0" x2="37.5" y2="380" gradientUnits="userSpaceOnUse">
      <stop offset="0" stop-color="#2a2a2b"/>
      <stop offset="1" stop-color="#171717"/>
    </linearGradient>
  </defs>
  <g id="uuid-adcc429e-010b-44a0-9335-e461c4e3483c" data-name="FND BG">
    <rect width="75" height="380" fill="url(#uuid-5d989093-ff69-48f8-8c35-d6a95a1d2670)"/>
  </g>
  <g id="uuid-4d62c22e-1fa3-4511-a625-53d96ab49e57" data-name="FND GRAPH">
    <rect x="7.18421" y="99.19004" width="28.6316" height="249.02319" rx="2.83465" ry="2.83465" fill="#ededed"/>
    <rect x="39.18421" y="99.19004" width="28.6316" height="249.02319" rx="2.83465" ry="2.83465" fill="#ededed"/>
    <g>
      <circle cx="37.99958" cy="356.2678" r="1.18571" fill="#ededed"/>
      <path d="m29.3572,360.18977c-.34551,0-.66126-.1952-.8158-.50419l-2.96428-5.92856c-.22526-.45057-.04266-.99844.40794-1.2237.45008-.22535.99831-.04271,1.22366.4079l2.14848,4.29696,2.14848-4.29696c.22526-.45057.77314-.63325,1.22366-.4079.45061.22526.63321.77314.40794,1.2237l-2.96428,5.92856c-.15454.30899-.47029.50419-.8158.50419Z" fill="#ededed"/>
      <path d="m45.63866,360.18977c-.34551,0-.66126-.1952-.8158-.50419l-2.96428-5.92856c-.22526-.45057-.04266-.99844.40794-1.2237.45016-.22535.9984-.04271,1.22366.4079l2.14848,4.29696,2.14848-4.29696c.22526-.45057.77305-.63325,1.22366-.4079.45061.22526.63321.77314.40794,1.2237l-2.96428,5.92856c-.15454.30899-.47029.50419-.8158.50419Z" fill="#ededed"/>
      <path d="m37.94034,360.18977c-2.13744,0-3.87637-1.73893-3.87637-3.87637s1.73893-3.87637,3.87637-3.87637c.84653,0,1.65102.26819,2.32653.77554.40278.30253.48401.87428.18153,1.27705-.30248.40273-.87432.48401-1.2771.18148-.357-.26815-.78267-.4099-1.23096-.4099-1.13156,0-2.05219.92059-2.05219,2.05219s.92064,2.05219,2.05219,2.05219c.44829,0,.87396-.14176,1.23096-.4099.40269-.30271.97444-.22125,1.2771.18148.30248.40278.22125.97453-.18153,1.27705-.67551.50735-1.48.77554-2.32653.77554Z" fill="#ededed"/>
    </g>
    <g>
      <circle cx="38.00165" cy="355.83101" r="1.18571" fill="#ededed"/>
      <path d="m29.35927,359.75298c-.34551,0-.66126-.1952-.8158-.50419l-2.96428-5.92856c-.22526-.45057-.04266-.99844.40794-1.2237.45008-.22535.99831-.04271,1.22366.4079l2.14848,4.29696,2.14848-4.29696c.22526-.45057.77314-.63325,1.22366-.4079.45061.22526.63321.77314.40794,1.2237l-2.96428,5.92856c-.15454.30899-.47029.50419-.8158.50419Z" fill="#ededed"/>
      <path d="m45.64073,359.75298c-.34551,0-.66126-.1952-.8158-.50419l-2.96428-5.92856c-.22526-.45057-.04266-.99844.40794-1.2237.45016-.22535.9984-.04271,1.22366.4079l2.14848,4.29696,2.14848-4.29696c.22526-.45057.77305-.63325,1.22366-.4079.45061.22526.63321.77314.40794,1.2237l-2.96428,5.92856c-.15454.30899-.47029.50419-.8158.50419Z" fill="#ededed"/>
      <path d="m37.94242,359.75298c-2.13744,0-3.87637-1.73893-3.87637-3.87637s1.73893-3.87637,3.87637-3.87637c.84653,0,1.65102.26819,2.32653.77554.40278.30253.48401.87428.18153,1.27705-.30248.40273-.87432.48401-1.2771.18148-.357-.26815-.78267-.4099-1.23096-.4099-1.13156,0-2.05219.92059-2.05219,2.05219s.92064,2.05219,2.05219,2.05219c.44829,0,.87396-.14176,1.23096-.4099.40269-.30271.97444-.22125,1.2771.18148.30248.40278.22125.97453-.18153,1.27705-.67551.50735-1.48.77554-2.32653.77554Z" fill="#ededed"/>
    </g>
  </g>
  <g id="uuid-12e10bdb-ce8e-466d-83f7-965ad984a35b" data-name="FND TXT">
    <g>
      <path d="m13.32422,89.23877c0-.28369.22461-.51758.51758-.51758h.10742c.22656,0,.37695.1167.47656.27539l1.76953,2.771,1.77734-2.7793c.10938-.17529.25977-.26709.46777-.26709h.1084c.29199,0,.51758.23389.51758.51758v4.89111c0,.28369-.22559.50879-.51758.50879-.27539,0-.50977-.2334-.50977-.50879v-3.50586l-1.42676,2.14551c-.1084.16699-.24121.2666-.43359.2666-.18457,0-.31738-.09961-.42578-.2666l-1.41895-2.12891v3.49756c0,.28369-.22559.50049-.50977.50049-.2832,0-.5-.2168-.5-.50049v-4.89941Z" fill="#ebebeb"/>
      <path d="m20.49316,91.69238v-.0166c0-1.64453,1.26855-3.02148,3.06348-3.02148,1.79395,0,3.0459,1.36035,3.0459,3.00488v.0166c0,1.64453-1.26855,3.02148-3.06348,3.02148-1.79395,0-3.0459-1.36035-3.0459-3.00488Zm5.03223,0v-.0166c0-1.13477-.82617-2.07812-1.98633-2.07812s-1.96875.92627-1.96875,2.06152v.0166c0,1.13525.82617,2.07031,1.98633,2.07031s1.96875-.91846,1.96875-2.05371Z" fill="#ebebeb"/>
      <path d="m28.0293,89.23877c0-.28369.22461-.51758.51758-.51758h.10742c.25098,0,.39258.12549.53516.30029l2.9209,3.78125v-3.58887c0-.27539.22559-.50098.50098-.50098.2832,0,.50977.22559.50977.50098v4.90723c0,.28418-.21777.50977-.50195.50977h-.04102c-.24219,0-.39258-.12549-.53418-.30908l-3.00488-3.88965v3.70605c0,.27539-.22559.50049-.50098.50049-.28418,0-.50879-.2251-.50879-.50049v-4.89941Z" fill="#ebebeb"/>
      <path d="m34.54688,91.69238v-.0166c0-1.64453,1.26953-3.02148,3.06348-3.02148s3.0459,1.36035,3.0459,3.00488v.0166c0,1.64453-1.26758,3.02148-3.0625,3.02148s-3.04688-1.36035-3.04688-3.00488Zm5.0332,0v-.0166c0-1.13477-.82617-2.07812-1.98633-2.07812s-1.96973.92627-1.96973,2.06152v.0166c0,1.13525.82617,2.07031,1.98633,2.07031s1.96973-.91846,1.96973-2.05371Z" fill="#ebebeb"/>
      <path d="m44.14453,91.69238v-.0166c0-1.64453,1.26855-3.02148,3.0625-3.02148,1.79492,0,3.04688,1.36035,3.04688,3.00488v.0166c0,1.64453-1.26855,3.02148-3.0625,3.02148-1.79492,0-3.04688-1.36035-3.04688-3.00488Zm5.0332,0v-.0166c0-1.13477-.82617-2.07812-1.98633-2.07812s-1.9707.92627-1.9707,2.06152v.0166c0,1.13525.82617,2.07031,1.98633,2.07031s1.9707-.91846,1.9707-2.05371Z" fill="#ebebeb"/>
      <path d="m51.5957,92.11816v-2.89648c0-.2832.22656-.50879.51758-.50879.28418,0,.50977.22559.50977.50879v2.85449c0,1.08545.55859,1.66113,1.47754,1.66113.90918,0,1.46875-.54248,1.46875-1.61914v-2.89648c0-.2832.22559-.50879.51758-.50879.28418,0,.50879.22559.50879.50879v2.84668c0,1.74414-.98438,2.62061-2.51172,2.62061-1.51953,0-2.48828-.87646-2.48828-2.5708Z" fill="#ebebeb"/>
      <path d="m59.60156,89.70605h-1.41992c-.2666,0-.47559-.2168-.47559-.47559s.20898-.47559.47559-.47559h3.88086c.25977,0,.46777.2168.46777.47559s-.20801.47559-.46777.47559h-1.42676v4.42383c0,.28369-.2334.50879-.51758.50879s-.5166-.2251-.5166-.50879v-4.42383Z" fill="#ebebeb"/>
    </g>
    <g>
      <path d="m17.45898,105.31299l-.36523.09473c-.05469.01367-.12891.02686-.18359.02686-.24414,0-.45312-.20312-.45312-.44678,0-.21045.13477-.38623.3457-.44727l.66992-.19678c.19727-.05371.3457-.08789.48828-.08789h.01367c.28418,0,.51465.23047.51465.51514v3.8208c0,.28467-.23047.51514-.51465.51514-.28516,0-.51562-.23047-.51562-.51514v-3.27881Z" fill="#1f1f1f"/>
      <path d="m19.69531,106.96582c0-.271.22363-.49414.49414-.49414h1.17969c.27148,0,.49414.22314.49414.49414s-.22266.49463-.49414.49463h-1.17969c-.27051,0-.49414-.22363-.49414-.49463Z" fill="#1f1f1f"/>
      <path d="m22.7793,107.76562v-.01367c0-.57617.26367-.91504.76562-1.14502-.36523-.22363-.60352-.52881-.60352-1.03662v-.01367c0-.72461.66406-1.30078,1.66797-1.30078,1.00195,0,1.66602.56934,1.66602,1.30078v.01367c0,.50781-.2373.81299-.60352,1.03662.48145.25049.76562.55518.76562,1.11768v.01367c0,.88086-.7793,1.39551-1.82812,1.39551-1.05078,0-1.83008-.54199-1.83008-1.36816Zm2.64844-.08154v-.01367c0-.36572-.34473-.58252-.81836-.58252-.47461,0-.82031.2168-.82031.58252v.01367c0,.3252.30469.58936.82031.58936.51367,0,.81836-.25732.81836-.58936Zm-.1416-1.99854v-.01367c0-.29102-.25098-.55566-.67676-.55566-.42773,0-.67773.25781-.67773.54883v.01367c0,.33203.26367.58252.67773.58252.41211,0,.67676-.24365.67676-.57568Z" fill="#1f1f1f"/>
    </g>
    <g>
      <path d="m46.68945,108.80859c-.14258-.08789-.24414-.2373-.24414-.42676,0-.271.22461-.47412.49512-.47412.10156,0,.18945.03369.27051.08154.24414.14209.46094.20996.75977.20996.58203,0,.89355-.44043.96094-1.07715-.23047.19629-.54883.3252-.96094.3252-1.03027,0-1.69434-.56934-1.69434-1.53125v-.01367c0-.95508.73828-1.66016,1.80957-1.66016.63672,0,1.00879.15625,1.36719.51514.33984.33887.5625.85352.5625,1.78857v.01367c0,1.53809-.72461,2.58789-2.07227,2.58789-.5293,0-.90137-.12207-1.25391-.33887Zm2.26367-2.93359v-.01367c0-.41992-.3125-.72461-.83398-.72461-.51562,0-.80664.29785-.80664.71826v.01318c0,.42041.3125.71191.82715.71191s.81348-.29834.81348-.70508Z" fill="#1f1f1f"/>
      <path d="m51.07227,106.96582c0-.271.22266-.49414.49414-.49414h1.17871c.27051,0,.49512.22314.49512.49414s-.22461.49463-.49512.49463h-1.17871c-.27148,0-.49414-.22363-.49414-.49463Z" fill="#1f1f1f"/>
      <path d="m54.73535,105.31299l-.36621.09473c-.05469.01367-.12891.02686-.18262.02686-.24414,0-.4541-.20312-.4541-.44678,0-.21045.13574-.38623.3457-.44727l.66992-.19678c.19727-.05371.3457-.08789.48828-.08789h.01367c.28516,0,.51562.23047.51562.51514v3.8208c0,.28467-.23047.51514-.51562.51514s-.51465-.23047-.51465-.51514v-3.27881Z" fill="#1f1f1f"/>
      <path d="m57.54199,108.63965c-.3457-.3457-.5625-.854-.5625-1.7959v-.01318c0-1.46338.66406-2.58838,2.08008-2.58838.47363,0,.86035.11523,1.14551.28467.16211.09521.27051.2373.27051.44727,0,.271-.22363.48096-.49512.48096-.08789,0-.18262-.03369-.25684-.07422-.2168-.12207-.41309-.18994-.69824-.18994-.58984,0-.88672.47412-.95508,1.09766.2373-.15576.51562-.30518.98242-.30518.94141,0,1.66602.52197,1.66602,1.51074v.01367c0,.96875-.77832,1.63965-1.80859,1.63965-.61621,0-1.03613-.17627-1.36816-.50781Zm2.14062-1.08398v-.01367c0-.3999-.31152-.69141-.82617-.69141s-.81348.28467-.81348.68457v.01367c0,.39941.3125.7041.82617.7041.51562,0,.81348-.29102.81348-.69727Z" fill="#1f1f1f"/>
    </g>
    <g>
      <path d="m43.29102,47.42285v-.01318c0-1.34814,1.00977-2.45264,2.44531-2.45264.73242,0,1.21289.2168,1.62695.53516.08789.06787.16211.18311.16211.33203,0,.23047-.18262.40625-.41309.40625-.11523,0-.19629-.04053-.25098-.08105-.32422-.26416-.67773-.42676-1.13086-.42676-.90137,0-1.56445.74512-1.56445,1.67334v.01367c0,.92822.65625,1.68018,1.56445,1.68018.50098,0,.83984-.1626,1.18555-.4541.06055-.0542.14844-.09473.25-.09473.21094,0,.39355.17578.39355.38623,0,.12842-.06152.22998-.13574.29785-.44727.39307-.95508.63721-1.7207.63721-1.38184,0-2.41211-1.07715-2.41211-2.43945Z" fill="#ebebeb"/>
      <path d="m48.70898,45.41797c0-.23047.18164-.41357.41992-.41357.23047,0,.41211.18311.41211.41357v1.5918h2.26367v-1.5918c0-.23047.18262-.41357.41309-.41357.2373,0,.41992.18311.41992.41357v3.9834c0,.23047-.18262.41309-.41992.41309-.23047,0-.41309-.18262-.41309-.41309v-1.61914h-2.26367v1.61914c0,.23047-.18164.41309-.41211.41309-.23828,0-.41992-.18262-.41992-.41309v-3.9834Z" fill="#ebebeb"/>
      <path d="m53.71875,49.23877l1.76172-3.9292c.0957-.20996.26367-.33887.50195-.33887h.04004c.2373,0,.39941.12891.49512.33887l1.76172,3.9292c.0332.06104.04688.12207.04688.17627,0,.22363-.16992.39941-.39258.39941-.19727,0-.33203-.11523-.40625-.29102l-.38672-.8877h-2.30371l-.39941.91455c-.06836.16943-.21094.26416-.38672.26416-.2168,0-.38574-.16895-.38574-.38574,0-.06152.02051-.12207.05371-.18994Zm3.10352-1.34131l-.83398-1.91748-.83301,1.91748h1.66699Z" fill="#ebebeb"/>
      <path d="m59.35938,45.43115c0-.22998.18359-.41992.41992-.41992h.08789c.2041,0,.31836.10156.43359.24365l2.37207,3.06934v-2.91309c0-.22363.18262-.40674.40625-.40674.23047,0,.41309.18311.41309.40674v3.9834c0,.23047-.17578.41309-.40625.41309h-.0332c-.19727,0-.31836-.10156-.43359-.25049l-2.43945-3.15674v3.00781c0,.22363-.18359.40625-.40625.40625-.23047,0-.41406-.18262-.41406-.40625v-3.97705Z" fill="#ebebeb"/>
    </g>
    <g>
      <path d="m12.52148,45.77734c0-.2373.18359-.41992.41992-.41992h1.4502c1.11133,0,1.80176.62988,1.80176,1.58496v.01367c0,1.06348-.85352,1.61914-1.89648,1.61914h-.94141v1.14502c0,.23047-.18359.41357-.41406.41357-.23633,0-.41992-.18311-.41992-.41357v-3.94287Zm1.80273,2.0459c.62988,0,1.02344-.35254,1.02344-.84668v-.01367c0-.55566-.40039-.84668-1.02344-.84668h-.96875v1.70703h.96875Z" fill="#ebebeb"/>
      <path d="m17.0625,47.74219v-.01367c0-1.33496,1.03027-2.45264,2.48633-2.45264,1.45703,0,2.47266,1.104,2.47266,2.43896v.01367c0,1.33447-1.0293,2.45215-2.48633,2.45215-1.45605,0-2.47266-1.104-2.47266-2.43848Zm4.08594,0v-.01367c0-.92139-.6709-1.68701-1.61328-1.68701-.94141,0-1.59766.75195-1.59766,1.67334v.01367c0,.92139.66992,1.68018,1.61133,1.68018s1.59961-.74561,1.59961-1.6665Z" fill="#ebebeb"/>
      <path d="m23.23926,45.73633c0-.22998.18262-.41309.41992-.41309.23047,0,.41309.18311.41309.41309v3.60449h2.14844c.20898,0,.37891.16943.37891.37939s-.16992.37939-.37891.37939h-2.56152c-.2373,0-.41992-.18262-.41992-.41992v-3.94336Z" fill="#ebebeb"/>
      <path d="m28.31055,48.25684l-1.63281-2.24219c-.05371-.08154-.09375-.17676-.09375-.2915,0-.22363.18262-.3999.41992-.3999.18262,0,.30469.10156.40625.25098l1.32031,1.90332,1.3418-1.91016c.10156-.14941.22461-.25098.40039-.25098.24414,0,.40625.18311.40625.40674,0,.11475-.05469.2168-.11523.29785l-1.61914,2.21533v1.48389c0,.23047-.18359.41357-.41992.41357-.23047,0-.41406-.18311-.41406-.41357v-1.46338Z" fill="#ebebeb"/>
    </g>
    <g>
      <path d="m20.14551,27.36035c-.21289-.15039-.36328-.42578-.36328-.72559,0-.50098.40039-.88867.90137-.88867.25,0,.4248.08789.55078.17529.66309.48779,1.38867.78809,2.23926.78809.78809,0,1.26367-.31299,1.26367-.82568v-.0249c0-.48779-.2998-.73828-1.76465-1.11377-1.76367-.4502-2.90234-.93848-2.90234-2.67773v-.0249c0-1.58887,1.27637-2.64014,3.06543-2.64014,1.06348,0,1.98926.27539,2.77734.77588.21289.125.42578.38818.42578.76318,0,.50049-.40039.88867-.90039.88867-.18848,0-.33789-.05029-.48828-.1377-.63867-.37549-1.23926-.58838-1.83984-.58838-.7373,0-1.12598.33789-1.12598.76318v.02539c0,.5752.37598.76318,1.88965,1.15088,1.77637.46289,2.77734,1.10107,2.77734,2.62744v.02539c0,1.73926-1.32617,2.71484-3.21484,2.71484-1.15137,0-2.31543-.3501-3.29102-1.05078Z" fill="#ebebeb"/>
      <path d="m28.45996,20.49121c0-.53809.42578-.96387.96387-.96387h2.61523c2.08887,0,3.35254,1.23926,3.35254,3.02832v.0249c0,2.02686-1.57617,3.07812-3.54102,3.07812h-1.46387v1.73877c0,.53809-.4248.96387-.96289.96387s-.96387-.42578-.96387-.96387v-6.90625Zm3.4541,3.45312c.96289,0,1.52637-.5752,1.52637-1.32617v-.02539c0-.86328-.60059-1.32617-1.56445-1.32617h-1.48926v2.67773h1.52734Z" fill="#ebebeb"/>
      <path d="m36.90234,20.41602c0-.53809.42578-.96338.96387-.96338s.96289.42529.96289.96338v6.11816h3.56641c.48828,0,.87598.38818.87598.87598,0,.48828-.3877.87598-.87598.87598h-4.5293c-.53809,0-.96387-.42529-.96387-.96338v-6.90674Z" fill="#ebebeb"/>
      <path d="m44.66113,20.41602c0-.53809.42578-.96338.96387-.96338.53711,0,.96289.42529.96289.96338v6.98145c0,.53809-.42578.96387-.96289.96387-.53809,0-.96387-.42578-.96387-.96387v-6.98145Z" fill="#ebebeb"/>
      <path d="m50.70898,21.3042h-1.85254c-.4873,0-.8877-.40039-.8877-.88818,0-.48828.40039-.88867.8877-.88867h5.63086c.48828,0,.88867.40039.88867.88867,0,.48779-.40039.88818-.88867.88818h-1.85156v6.09326c0,.53809-.42578.96387-.96387.96387s-.96289-.42578-.96289-.96387v-6.09326Z" fill="#ebebeb"/>
    </g>
  </g>
</svg>