<?xml version="1.0" encoding="UTF-8"?>
<svg xmlns="http://www.w3.org/2000/svg" width="45" height="380" xmlns:xlink="http://www.w3.org/1999/xlink" viewBox="0 0 45 380">
  <defs>
    <linearGradient id="uuid-89528f15-fc29-4418-81ef-f9abfc7dd456" x1="22.5" y1="0" x2="22.5" y2="380" gradientUnits="userSpaceOnUse">
      <stop offset="0" stop-color="#2a2a2b"/>
      <stop offset="1" stop-color="#171717"/>
    </linearGradient>
  </defs>
  <g id="uuid-7a085b02-e8eb-4216-bede-9d176c358fc1" data-name="FND BG">
    <rect width="45" height="380" fill="url(#uuid-89528f15-fc29-4418-81ef-f9abfc7dd456)"/>
  </g>
  <g id="uuid-6a007c52-7418-4226-ad58-6e1483f7c1b9" data-name="FND GRAPH">
    <line x1="22.49996" y1="282.5303" x2="22.49996" y2="311.96512" fill="none" stroke="#ededed" stroke-linecap="round" stroke-linejoin="round" stroke-width=".8"/>
    <g>
      <path d="m13.92008,204.16572c-4.87734-2.91881-8.14264-8.25353-8.14264-14.35091,0-9.23,7.48239-16.71239,16.71239-16.71239s16.71239,7.48239,16.71239,16.71239c0,6.06564-3.2314,11.37655-8.06662,14.30514l-8.63564-14.30517" fill="none" stroke="#ededed" stroke-linecap="round" stroke-linejoin="round" stroke-width=".8"/>
      <circle cx="22.49996" cy="189.81477" r="20.69419" fill="none" isolation="isolate" opacity=".69"/>
    </g>
    <rect x="8.22418" y="309.05634" width="28.55155" height="39.15691" rx="2.83465" ry="2.83465" fill="#ededed"/>
    <g>
      <circle cx="23.00165" cy="355.83101" r="1.18571" fill="#ededed"/>
      <path d="m14.35927,359.75298c-.34551,0-.66126-.1952-.8158-.50419l-2.96428-5.92856c-.22526-.45057-.04266-.99844.40794-1.2237.45008-.22535.99831-.04271,1.22366.4079l2.14848,4.29696,2.14848-4.29696c.22526-.45057.77314-.63325,1.22366-.4079.45061.22526.63321.77314.40794,1.2237l-2.96428,5.92856c-.15454.30899-.47029.50419-.8158.50419Z" fill="#ededed"/>
      <path d="m30.64073,359.75298c-.34551,0-.66126-.1952-.8158-.50419l-2.96428-5.92856c-.22526-.45057-.04266-.99844.40794-1.2237.45016-.22535.9984-.04271,1.22366.4079l2.14848,4.29696,2.14848-4.29696c.22526-.45057.77305-.63325,1.22366-.4079.45061.22526.63321.77314.40794,1.2237l-2.96428,5.92856c-.15454.30899-.47029.50419-.8158.50419Z" fill="#ededed"/>
      <path d="m22.94242,359.75298c-2.13744,0-3.87637-1.73893-3.87637-3.87637s1.73893-3.87637,3.87637-3.87637c.84653,0,1.65102.26819,2.32653.77554.40278.30253.48401.87428.18153,1.27705-.30248.40273-.87432.48401-1.2771.18148-.357-.26815-.78267-.4099-1.23096-.4099-1.13156,0-2.05219.92059-2.05219,2.05219s.92064,2.05219,2.05219,2.05219c.44829,0,.87396-.14176,1.23096-.4099.40269-.30271.97444-.22125,1.2771.18148.30248.40278.22125.97453-.18153,1.27705-.67551.50735-1.48.77554-2.32653.77554Z" fill="#ededed"/>
    </g>
  </g>
  <g id="uuid-b9b9809b-245d-4643-bb7d-6ff851d560bc" data-name="FND TXT">
    <g>
      <path d="m9.125,162.5376c0-.28418.22559-.50928.51758-.50928.28418,0,.50879.2251.50879.50928v4.43994h2.64648c.25879,0,.4668.20898.4668.46777s-.20801.46729-.4668.46729h-3.15527c-.29199,0-.51758-.22559-.51758-.51758v-4.85742Z" fill="#ebebeb"/>
      <path d="m14.41797,167.39502v-4.80762c0-.29199.22559-.51758.51758-.51758h3.39746c.25,0,.45898.20898.45898.45947,0,.2583-.20898.45898-.45898.45898h-2.88867v1.51904h2.5127c.25,0,.45898.2085.45898.46729,0,.25049-.20898.45068-.45898.45068h-2.5127v1.56934h2.92969c.25098,0,.45996.2085.45996.45898,0,.25879-.20898.45898-.45996.45898h-3.43848c-.29199,0-.51758-.22559-.51758-.51758Z" fill="#ebebeb"/>
      <path d="m21.93457,167.57861l-2.04492-4.80762c-.0332-.0752-.05859-.1499-.05859-.2417,0-.27588.22559-.50098.51758-.50098.26758,0,.44238.15039.52637.36719l1.68555,4.21484,1.71094-4.24805c.06738-.17529.25098-.33398.49316-.33398.2832,0,.50879.2168.50879.49219,0,.0752-.02539.15869-.0498.21729l-2.05371,4.84082c-.1084.25879-.30078.41748-.59277.41748h-.05762c-.28418,0-.47656-.15869-.58496-.41748Z" fill="#ebebeb"/>
      <path d="m26.45703,167.39502v-4.80762c0-.29199.22559-.51758.51758-.51758h3.39746c.25,0,.45898.20898.45898.45947,0,.2583-.20898.45898-.45898.45898h-2.88867v1.51904h2.5127c.25,0,.45898.2085.45898.46729,0,.25049-.20898.45068-.45898.45068h-2.5127v1.56934h2.92969c.25098,0,.45996.2085.45996.45898,0,.25879-.20898.45898-.45996.45898h-3.43848c-.29199,0-.51758-.22559-.51758-.51758Z" fill="#ebebeb"/>
      <path d="m32.20996,162.5376c0-.28418.22559-.50928.51758-.50928.28418,0,.50879.2251.50879.50928v4.43994h2.64648c.25879,0,.4668.20898.4668.46777s-.20801.46729-.4668.46729h-3.15527c-.29199,0-.51758-.22559-.51758-.51758v-4.85742Z" fill="#ebebeb"/>
    </g>
    <g>
      <path d="m11.35938,314.66113c0-.2915.23047-.52148.52148-.52148h.11523c.22461,0,.37988.11523.47461.27051l1.25977,2.05273,1.26758-2.05957c.10742-.17578.25781-.26367.4668-.26367h.11523c.29102,0,.52148.22998.52148.52148v3.7666c0,.2915-.23047.52197-.52148.52197-.28418,0-.51465-.2373-.51465-.52197v-2.36426l-.91504,1.40918c-.10742.1626-.24316.26416-.43359.26416-.18945,0-.32422-.10156-.43359-.26416l-.90039-1.38867v2.35742c0,.28467-.23047.5083-.51562.5083-.28418,0-.50781-.22363-.50781-.5083v-3.78027Z" fill="#1f1f1f"/>
      <path d="m17.24805,316.55127v-.01367c0-1.34814,1.06445-2.45264,2.52734-2.45264,1.46387,0,2.51367,1.09082,2.51367,2.43945v.01318c0,1.34814-1.06348,2.45264-2.52734,2.45264-1.46289,0-2.51367-1.09082-2.51367-2.43896Zm3.9502,0v-.01367c0-.81299-.5957-1.49023-1.43652-1.49023-.83984,0-1.42188.66357-1.42188,1.47705v.01318c0,.81299.5957,1.49072,1.43555,1.49072s1.42285-.66406,1.42285-1.47705Z" fill="#1f1f1f"/>
      <path d="m23.43652,314.66113c0-.2915.22949-.52148.52148-.52148h.1084c.25,0,.39941.12158.54199.30469l2.0127,2.64209v-2.4458c0-.28418.22949-.51465.51367-.51465.28516,0,.51562.23047.51562.51465v3.77344c0,.2915-.23047.52197-.52148.52197h-.03418c-.25098,0-.39941-.12207-.54199-.30518l-2.08691-2.73682v2.54053c0,.28467-.22949.51514-.51465.51514s-.51465-.23047-.51465-.51514v-3.77344Z" fill="#1f1f1f"/>
      <path d="m28.79688,316.55127v-.01367c0-1.34814,1.06348-2.45264,2.52734-2.45264,1.46289,0,2.5127,1.09082,2.5127,2.43945v.01318c0,1.34814-1.06348,2.45264-2.52637,2.45264-1.46387,0-2.51367-1.09082-2.51367-2.43896Zm3.94922,0v-.01367c0-.81299-.5957-1.49023-1.43555-1.49023-.84082,0-1.42383.66357-1.42383,1.47705v.01318c0,.81299.59668,1.49072,1.4375,1.49072.83984,0,1.42188-.66406,1.42188-1.47705Z" fill="#1f1f1f"/>
    </g>
    <g>
      <path d="m12.29102,220.74121v-.01367c0-1.34863,1.00977-2.45264,2.44531-2.45264.73242,0,1.21289.2168,1.62598.53516.08887.06787.16309.18311.16309.33203,0,.23047-.18262.40674-.41309.40674-.11523,0-.19629-.04102-.25098-.08154-.3252-.26416-.67773-.42676-1.13086-.42676-.90137,0-1.56543.74512-1.56543,1.67334v.01367c0,.92773.65723,1.68018,1.56543,1.68018.50098,0,.83984-.1626,1.18555-.4541.06055-.0542.14844-.09473.25-.09473.20996,0,.39355.17627.39355.38623,0,.12891-.06152.23047-.13574.29785-.44727.39307-.95508.63672-1.7207.63672-1.38184,0-2.41211-1.07715-2.41211-2.43848Z" fill="#ebebeb"/>
      <path d="m17.70801,218.73535c0-.22998.18262-.41309.41992-.41309.23047,0,.41309.18311.41309.41309v1.59229h2.26367v-1.59229c0-.22998.18262-.41309.41309-.41309.2373,0,.41992.18311.41992.41309v3.98389c0,.23047-.18262.41357-.41992.41357-.23047,0-.41309-.18311-.41309-.41357v-1.61914h-2.26367v1.61914c0,.23047-.18262.41357-.41309.41357-.2373,0-.41992-.18311-.41992-.41357v-3.98389Z" fill="#ebebeb"/>
      <path d="m22.71875,222.55664l1.76172-3.92969c.09473-.20996.26367-.33838.50098-.33838h.04102c.2373,0,.39941.12842.49414.33838l1.76172,3.92969c.03418.06104.04785.12207.04785.17627,0,.22314-.16992.3999-.39355.3999-.19629,0-.33203-.11523-.40625-.2915l-.38574-.8877h-2.30371l-.40039.91455c-.06738.16943-.20996.26465-.38574.26465-.2168,0-.38574-.16992-.38574-.38672,0-.06055.01953-.12158.05371-.18945Zm3.10254-1.34131l-.83301-1.91748-.83301,1.91748h1.66602Z" fill="#ebebeb"/>
      <path d="m28.35938,218.74902c0-.23047.18262-.41992.41992-.41992h.08789c.2041,0,.31836.10156.43359.24414l2.37207,3.06885v-2.91357c0-.22314.18262-.40625.40625-.40625.23047,0,.41309.18311.41309.40625v3.98389c0,.23047-.17578.41357-.40625.41357h-.03418c-.19629,0-.31836-.10156-.43359-.25098l-2.43848-3.15723v3.0083c0,.22363-.18359.40674-.40723.40674-.23047,0-.41309-.18311-.41309-.40674v-3.97705Z" fill="#ebebeb"/>
    </g>
    <g>
      <path d="m13.52148,266.64209c0-.2373.18262-.42041.41992-.42041h1.4502c1.11133,0,1.80176.63037,1.80176,1.58545v.01367c0,1.06396-.85352,1.61914-1.89648,1.61914h-.94238v1.14502c0,.23047-.18262.41309-.41309.41309-.2373,0-.41992-.18262-.41992-.41309v-3.94287Zm1.80176,2.0459c.63086,0,1.02344-.35205,1.02344-.84717v-.01318c0-.55566-.39941-.84717-1.02344-.84717h-.96875v1.70752h.96875Z" fill="#ebebeb"/>
      <path d="m18.0625,268.60645v-.01318c0-1.33447,1.03027-2.45264,2.48633-2.45264,1.45703,0,2.47266,1.10449,2.47266,2.43896v.01367c0,1.33447-1.0293,2.45264-2.48633,2.45264-1.45605,0-2.47266-1.10449-2.47266-2.43945Zm4.08496,0v-.01318c0-.92139-.66992-1.68701-1.6123-1.68701-.94141,0-1.59863.75195-1.59863,1.67334v.01367c0,.92139.6709,1.68018,1.6123,1.68018s1.59863-.74512,1.59863-1.66699Z" fill="#ebebeb"/>
      <path d="m24.23926,266.60156c0-.23047.18262-.41357.41992-.41357.23047,0,.41309.18311.41309.41357v3.604h2.14746c.20996,0,.37988.16943.37988.37939s-.16992.37939-.37988.37939h-2.56055c-.2373,0-.41992-.18311-.41992-.41992v-3.94287Z" fill="#ebebeb"/>
      <path d="m29.31055,269.12158l-1.63281-2.24268c-.05371-.08105-.09473-.17578-.09473-.29102,0-.22363.18359-.3999.41992-.3999.18359,0,.30566.10156.40723.25049l1.32031,1.9043,1.3418-1.91113c.10156-.14844.22363-.25049.39941-.25049.24414,0,.40723.18311.40723.40674,0,.11523-.05469.2168-.11523.29785l-1.61914,2.21582v1.4834c0,.23047-.18359.41309-.4209.41309-.22949,0-.41309-.18262-.41309-.41309v-1.46338Z" fill="#ebebeb"/>
    </g>
    <g>
      <path d="m9.06934,27.30957c-.21289-.15039-.36328-.42578-.36328-.72559,0-.50098.40039-.88867.90137-.88867.25,0,.4248.08789.55078.17529.66309.48779,1.38867.78809,2.23926.78809.78809,0,1.26367-.31299,1.26367-.82568v-.0249c0-.48779-.2998-.73828-1.76367-1.11377-1.76465-.4502-2.90332-.93848-2.90332-2.67773v-.0249c0-1.58887,1.27637-2.64014,3.06543-2.64014,1.06348,0,1.98926.27539,2.77734.77588.21289.125.42578.38818.42578.76318,0,.50049-.40039.88867-.90039.88867-.18848,0-.33789-.05029-.48828-.1377-.63867-.37549-1.23926-.58838-1.83984-.58838-.73828,0-1.12598.33789-1.12598.76318v.02539c0,.5752.37598.76318,1.88965,1.15088,1.77637.46289,2.77734,1.10107,2.77734,2.62744v.02539c0,1.73926-1.32617,2.71484-3.21484,2.71484-1.15137,0-2.31543-.3501-3.29102-1.05078Z" fill="#ebebeb"/>
      <path d="m17.20508,24.48145v-4.11621c0-.53809.42578-.96338.96387-.96338s.96289.42529.96289.96338v4.06641c0,1.42627.71387,2.16455,1.88965,2.16455,1.17676,0,1.88965-.71338,1.88965-2.10205v-4.12891c0-.53809.4248-.96338.96289-.96338s.96387.42529.96387.96338v4.05371c0,2.65283-1.48926,3.9541-3.84082,3.9541-2.35254,0-3.79199-1.31396-3.79199-3.8916Z" fill="#ebebeb"/>
      <path d="m26.99121,20.39014c0-.53809.42578-.96338.96387-.96338h.21289c.41211,0,.7002.21289.87598.50049l2.32715,3.7915,2.33984-3.80371c.2002-.32568.47461-.48828.86328-.48828h.21191c.53809,0,.96387.42529.96387.96338v6.95654c0,.53809-.42578.96387-.96387.96387-.52539,0-.9502-.43799-.9502-.96387v-4.36621l-1.68945,2.60254c-.2002.2998-.4502.48779-.80078.48779s-.60059-.18799-.80078-.48779l-1.66406-2.56543v4.35449c0,.52539-.42578.93848-.95117.93848s-.93848-.41309-.93848-.93848v-6.98193Z" fill="#ebebeb"/>
    </g>
  </g>
</svg>