<?xml version="1.0" encoding="UTF-8" standalone="no"?>
<svg
   xmlns:dc="http://purl.org/dc/elements/1.1/"
   xmlns:cc="http://creativecommons.org/ns#"
   xmlns:rdf="http://www.w3.org/1999/02/22-rdf-syntax-ns#"
   xmlns:svg="http://www.w3.org/2000/svg"
   xmlns="http://www.w3.org/2000/svg"
   xmlns:sodipodi="http://sodipodi.sourceforge.net/DTD/sodipodi-0.dtd"
   xmlns:inkscape="http://www.inkscape.org/namespaces/inkscape"
   width="45"
   height="380"
   viewBox="0 0 45 380"
   version="1.1"
   id="svg96"
   sodipodi:docname="SUM.svg"
   inkscape:version="0.92.3 (2405546, 2018-03-11)">
  <metadata
     id="metadata100">
    <rdf:RDF>
      <cc:Work
         rdf:about="">
        <dc:format>image/svg+xml</dc:format>
        <dc:type
           rdf:resource="http://purl.org/dc/dcmitype/StillImage" />
      </cc:Work>
    </rdf:RDF>
  </metadata>
  <sodipodi:namedview
     pagecolor="#ffffff"
     bordercolor="#666666"
     borderopacity="1"
     objecttolerance="10"
     gridtolerance="10"
     guidetolerance="10"
     inkscape:pageopacity="0"
     inkscape:pageshadow="2"
     inkscape:window-width="1920"
     inkscape:window-height="1017"
     id="namedview98"
     showgrid="false"
     inkscape:zoom="0.62105263"
     inkscape:cx="22.5"
     inkscape:cy="190"
     inkscape:window-x="-8"
     inkscape:window-y="-8"
     inkscape:window-maximized="1"
     inkscape:current-layer="svg96" />
  <defs
     id="defs7">
    <linearGradient
       id="e54ef980-998c-4ad0-9676-a26d002d49f9"
       x1="22.5"
       x2="22.5"
       y2="380"
       gradientUnits="userSpaceOnUse">
      <stop
         offset="0"
         stop-color="#ebebeb"
         id="stop2" />
      <stop
         offset="1"
         stop-color="#e1e1e1"
         id="stop4" />
    </linearGradient>
  </defs>
  <g
     id="ec51bad8-ff72-4de2-83f7-8c803837db07"
     data-name="FND BG">
    <rect
       width="45"
       height="380"
       fill="url(#e54ef980-998c-4ad0-9676-a26d002d49f9)"
       id="rect9" />
  </g>
  <g
     id="bebc0bf4-a7d7-4ee3-bba3-1050ddfd9430"
     data-name="FND GRAPH">
    <line
       x1="22.49996"
       y1="282.5303"
       x2="22.49996"
       y2="311.96512"
       fill="none"
       stroke="#1f1f1f"
       stroke-linecap="round"
       stroke-linejoin="round"
       stroke-width="0.8"
       id="line12" />
    <g
       id="g18">
      <path
         d="M13.92008,204.16572A16.71246,16.71246,0,1,1,31.13559,204.12L22.5,189.81477"
         fill="none"
         stroke="#1f1f1f"
         stroke-linecap="round"
         stroke-linejoin="round"
         stroke-width="0.8"
         id="path14" />
      <circle
         cx="22.49996"
         cy="189.81477"
         r="20.69419"
         fill="none"
         opacity="0.69"
         style="isolation: isolate"
         id="circle16" />
    </g>
    <rect
       x="8.22418"
       y="309.05634"
       width="28.55155"
       height="39.15691"
       rx="2.83465"
       fill="#1f1f1f"
       id="rect20" />
    <g
       id="g30">
      <circle
         cx="23.00165"
         cy="355.83101"
         r="1.18571"
         fill="#1f1f1f"
         id="circle22" />
      <path
         d="M14.35927,359.753a.91214.91214,0,0,1-.8158-.50418l-2.96428-5.92857a.91209.91209,0,0,1,1.6316-.8158l2.14848,4.297,2.14848-4.297a.91209.91209,0,0,1,1.6316.8158l-2.96428,5.92857A.91211.91211,0,0,1,14.35927,359.753Z"
         fill="#1f1f1f"
         id="path24" />
      <path
         d="M30.64073,359.753a.91211.91211,0,0,1-.8158-.50418l-2.96428-5.92857a.91209.91209,0,0,1,1.6316-.8158l2.14848,4.297,2.14848-4.297a.91209.91209,0,0,1,1.6316.8158l-2.96428,5.92857A.91214.91214,0,0,1,30.64073,359.753Z"
         fill="#1f1f1f"
         id="path26" />
      <path
         d="M22.94242,359.753a3.87637,3.87637,0,1,1,2.32653-6.97719.91209.91209,0,1,1-1.09557,1.45854,2.034,2.034,0,0,0-1.231-.40991,2.0522,2.0522,0,1,0,0,4.10439,2.034,2.034,0,0,0,1.231-.40991.91209.91209,0,1,1,1.09557,1.45854A3.8448,3.8448,0,0,1,22.94242,359.753Z"
         fill="#1f1f1f"
         id="path28" />
    </g>
  </g>
  <g
     id="f10b78a7-ee01-4633-b2a4-ed03e2375577"
     data-name="FND TXT">
    <g
       id="g43">
      <path
         d="M9.125,162.5376a.5132.5132,0,0,1,1.02637,0v4.43994h2.64648a.46753.46753,0,0,1,0,.93506H9.64258A.50992.50992,0,0,1,9.125,167.395Z"
         fill="#1f1f1f"
         id="path33" />
      <path
         d="M14.418,167.395V162.5874a.50991.50991,0,0,1,.51758-.51758H18.333a.46363.46363,0,0,1,.459.45948.45812.45812,0,0,1-.459.459H15.44434v1.519H17.957a.465.465,0,0,1,.459.46729.4561.4561,0,0,1-.459.45068H15.44434v1.56934H18.374a.4634.4634,0,0,1,.46.459.458.458,0,0,1-.46.459H14.93555A.50991.50991,0,0,1,14.418,167.395Z"
         fill="#1f1f1f"
         id="path35" />
      <path
         d="M21.93457,167.57861,19.88965,162.771a.57639.57639,0,0,1-.0586-.2417.50612.50612,0,0,1,.51758-.501.53806.53806,0,0,1,.52637.36719l1.68555,4.21484,1.71093-4.24805a.53054.53054,0,0,1,.49317-.334.497.497,0,0,1,.50879.49219.60645.60645,0,0,1-.04981.21728l-2.05371,4.84082a.61173.61173,0,0,1-.59277.41748h-.05762A.60906.60906,0,0,1,21.93457,167.57861Z"
         fill="#1f1f1f"
         id="path37" />
      <path
         d="M26.457,167.395V162.5874a.50992.50992,0,0,1,.51758-.51758h3.39746a.46363.46363,0,0,1,.459.45948.45812.45812,0,0,1-.459.459H27.4834v1.519h2.51269a.465.465,0,0,1,.459.46729.4561.4561,0,0,1-.459.45068H27.4834v1.56934h2.92969a.4634.4634,0,0,1,.46.459.458.458,0,0,1-.46.459H26.97461A.50992.50992,0,0,1,26.457,167.395Z"
         fill="#1f1f1f"
         id="path39" />
      <path
         d="M32.21,162.5376a.5132.5132,0,0,1,1.02637,0v4.43994h2.64648a.46753.46753,0,0,1,0,.93506H32.72754A.50992.50992,0,0,1,32.21,167.395Z"
         fill="#1f1f1f"
         id="path41" />
    </g>
    <g
       id="g53">
      <path
         d="M11.35938,314.66113a.51737.51737,0,0,1,.52148-.52148h.11523a.53563.53563,0,0,1,.47461.27051l1.25977,2.05273,1.26758-2.05957a.51.51,0,0,1,.46679-.26367h.11524a.51738.51738,0,0,1,.52148.52148v3.7666a.51808.51808,0,1,1-1.03613,0v-2.36425l-.915,1.40918a.48793.48793,0,0,1-.86719,0l-.90039-1.38868v2.35743a.50925.50925,0,0,1-.51562.5083.50323.50323,0,0,1-.50781-.5083Z"
         fill="#f0f0f0"
         id="path45" />
      <path
         d="M17.24805,316.55127v-.01367a2.52165,2.52165,0,0,1,5.041-.01319v.01319a2.52166,2.52166,0,0,1-5.041.01367Zm3.95019,0v-.01367a1.44036,1.44036,0,0,0-1.43652-1.49024,1.41759,1.41759,0,0,0-1.42188,1.477v.01319a1.44058,1.44058,0,0,0,1.43555,1.49072A1.41866,1.41866,0,0,0,21.19824,316.55127Z"
         fill="#f0f0f0"
         id="path47" />
      <path
         d="M23.43652,314.66113a.51677.51677,0,0,1,.52149-.52148h.1084a.64689.64689,0,0,1,.542.30469l2.01269,2.64209v-2.44581a.51465.51465,0,0,1,1.0293,0v3.77344a.51779.51779,0,0,1-.52148.522h-.03418a.64611.64611,0,0,1-.542-.30518L24.46582,315.894v2.54053a.51465.51465,0,1,1-1.0293,0Z"
         fill="#f0f0f0"
         id="path49" />
      <path
         d="M28.79688,316.55127v-.01367a2.52114,2.52114,0,0,1,5.04-.01319v.01319a2.52115,2.52115,0,0,1-5.04.01367Zm3.94921,0v-.01367a1.44016,1.44016,0,0,0-1.43554-1.49024,1.41858,1.41858,0,0,0-1.42383,1.477v.01319a1.44157,1.44157,0,0,0,1.4375,1.49072A1.41786,1.41786,0,0,0,32.74609,316.55127Z"
         fill="#f0f0f0"
         id="path51" />
    </g>
    <g
       id="g63">
      <path
         d="M12.291,220.74121v-.01367a2.39977,2.39977,0,0,1,2.44531-2.45264,2.48546,2.48546,0,0,1,1.626.53516.41493.41493,0,0,1,.16309.332.40483.40483,0,0,1-.41309.40674.40992.40992,0,0,1-.251-.08154,1.72033,1.72033,0,0,0-1.13086-.42676,1.59619,1.59619,0,0,0-1.56543,1.67334v.01367a1.59823,1.59823,0,0,0,1.56543,1.68017,1.69971,1.69971,0,0,0,1.18555-.4541.37652.37652,0,0,1,.25-.09472.38889.38889,0,0,1,.25781.68408,2.42226,2.42226,0,0,1-1.72071.63672A2.38533,2.38533,0,0,1,12.291,220.74121Z"
         fill="#1f1f1f"
         id="path55" />
      <path
         d="M17.708,218.73535a.41652.41652,0,0,1,.833,0v1.59229h2.26367v-1.59229a.41652.41652,0,0,1,.833,0v3.98389a.41652.41652,0,0,1-.833,0V221.1001H18.541v1.61914a.41652.41652,0,0,1-.833,0Z"
         fill="#1f1f1f"
         id="path57" />
      <path
         d="M22.71875,222.55664l1.76172-3.92969a.52761.52761,0,0,1,.501-.33838h.041a.51866.51866,0,0,1,.49414.33838l1.76172,3.92969a.36092.36092,0,0,1,.04785.17627.3914.3914,0,0,1-.39355.3999.42892.42892,0,0,1-.40625-.2915l-.38575-.8877H23.83691l-.40039.91455a.4005.4005,0,0,1-.38574.26465.38185.38185,0,0,1-.38574-.38672A.42271.42271,0,0,1,22.71875,222.55664Zm3.10254-1.34131-.833-1.91748-.833,1.91748Z"
         fill="#1f1f1f"
         id="path59" />
      <path
         d="M28.35938,218.749a.41741.41741,0,0,1,.41992-.41992h.08789a.52316.52316,0,0,1,.43359.24414l2.37207,3.06885v-2.91357a.40968.40968,0,0,1,.81934,0v3.98388a.40484.40484,0,0,1-.40625.41358h-.03418a.52425.52425,0,0,1-.4336-.251l-2.43847-3.15723v3.0083a.41017.41017,0,0,1-.82031,0Z"
         fill="#1f1f1f"
         id="path61" />
    </g>
    <g
       id="g73">
      <path
         d="M13.52148,266.64209a.41363.41363,0,0,1,.41993-.42041H15.3916a1.59165,1.59165,0,0,1,1.80176,1.58545v.01367c0,1.064-.85352,1.61914-1.89648,1.61914h-.94239v1.145a.41652.41652,0,0,1-.833,0Zm1.80176,2.0459c.63086,0,1.02344-.35205,1.02344-.84717v-.01318c0-.55567-.39941-.84717-1.02344-.84717h-.96875V268.688Z"
         fill="#1f1f1f"
         id="path65" />
      <path
         d="M18.0625,268.60645v-.01319a2.47973,2.47973,0,0,1,4.959-.01367v.01367a2.47973,2.47973,0,0,1-4.959.01319Zm4.085,0v-.01319a1.62443,1.62443,0,0,0-1.6123-1.687,1.6023,1.6023,0,0,0-1.59864,1.67334v.01367a1.61919,1.61919,0,0,0,1.61231,1.68018A1.59663,1.59663,0,0,0,22.14746,268.60645Z"
         fill="#1f1f1f"
         id="path67" />
      <path
         d="M24.23926,266.60156a.41652.41652,0,0,1,.833,0v3.604h2.14746a.3794.3794,0,1,1,0,.75879H24.65918a.41351.41351,0,0,1-.41992-.41993Z"
         fill="#1f1f1f"
         id="path69" />
      <path
         d="M29.31055,269.12158l-1.63282-2.24267a.51727.51727,0,0,1-.09472-.291.40576.40576,0,0,1,.41992-.3999.48044.48044,0,0,1,.40723.25049l1.32031,1.90429,1.3418-1.91113a.47924.47924,0,0,1,.39941-.25049.39579.39579,0,0,1,.40723.40674.50677.50677,0,0,1-.11524.29785l-1.61914,2.21582v1.4834a.417.417,0,0,1-.834,0Z"
         fill="#1f1f1f"
         id="path71" />
    </g>
    <g
       id="g81">
      <path
         d="M9.06934,27.30957a.90046.90046,0,0,1-.36329-.72559.88667.88667,0,0,1,.90137-.88867.93132.93132,0,0,1,.55078.1753,3.6939,3.6939,0,0,0,2.23926.78808c.78809,0,1.26367-.313,1.26367-.82568v-.0249c0-.4878-.2998-.73829-1.76367-1.11377-1.76465-.4502-2.90332-.93848-2.90332-2.67774v-.0249c0-1.58887,1.27637-2.64014,3.06543-2.64014a5.083,5.083,0,0,1,2.77734.77588.89164.89164,0,0,1-.47461,1.65186.92569.92569,0,0,1-.48828-.1377,3.64714,3.64714,0,0,0-1.83984-.58838c-.73828,0-1.126.33789-1.126.76319v.02539c0,.57519.376.76318,1.88965,1.15088,1.77637.46289,2.77735,1.10107,2.77735,2.62744v.02539c0,1.73926-1.32618,2.71484-3.21485,2.71484A5.65279,5.65279,0,0,1,9.06934,27.30957Z"
         fill="#1f1f1f"
         id="path75" />
      <path
         d="M17.20508,24.48145V20.36523a.96338.96338,0,0,1,1.92676,0v4.06641c0,1.42627.71386,2.16455,1.88964,2.16455,1.17676,0,1.88965-.71338,1.88965-2.102V20.36523a.96338.96338,0,0,1,1.92676,0V24.419c0,2.65283-1.48926,3.9541-3.84082,3.9541C18.64453,28.37305,17.20508,27.05908,17.20508,24.48145Z"
         fill="#1f1f1f"
         id="path77" />
      <path
         d="M26.99121,20.39014a.95618.95618,0,0,1,.96387-.96338H28.168a.99167.99167,0,0,1,.876.50049l2.32714,3.7915L33.71094,19.915a.942.942,0,0,1,.86328-.48828h.21191a.95618.95618,0,0,1,.96387.96338v6.95654a.95705.95705,0,1,1-1.91406,0V22.98047L32.14648,25.583a.90119.90119,0,0,1-1.60156,0l-1.66406-2.56543v4.35449a.94033.94033,0,0,1-.95117.93848.92956.92956,0,0,1-.93848-.93848Z"
         fill="#1f1f1f"
         id="path79" />
    </g>
  </g>
  <g
     id="b2b0bacb-d797-4a3e-bbde-0f62b55dc04c"
     data-name="components"
     inkscape:groupmode="layer"
     style="display:none">
    <circle
       id="a57cab38-dc0f-49d0-a87e-7576dd252177"
       data-name="Sum#RoundBlackKnob"
       cx="22.49996"
       cy="189.81477"
       r="5"
       style="fill:#ff0000" />
    <circle
       id="bba5359c-bf46-4a7e-8793-a5f2ba9a7428"
       data-name="Mono#PJ301MPort"
       cx="22.49996"
       cy="333.85507"
       r="5"
       style="fill:#0000ff" />
    <circle
       id="a5c0d832-a420-420f-99ee-5e202ab983e0"
       data-name="Poly#PJ301MPort"
       cx="22.49996"
       cy="285.8197"
       r="5"
       style="fill:#00ff00" />
    <rect
       id="e46370ec-613d-4e9e-9b2b-5a1e20a8bfa2"
       data-name="Chan"
       x="10.39802"
       y="227.92471"
       width="24.20389"
       height="24.20389"
       style="fill:#ffff00" />
    <rect
       id="f4b15c7a-97b4-42b2-84b1-640e3beb9fe8"
       data-name="Screen"
       x="-0.00327"
       y="37.89547"
       width="45.003269"
       height="109.19598"
       style="fill:#ffff00" />
    <circle
       id="b40f0d39-aecc-4448-a725-1481521321de"
       data-name="Red#RedLight"
       cx="31.91474"
       cy="53.387989"
       r="3"
       style="fill:#ff00ff" />
    <circle
       id="f11f670a-9581-4474-a437-a87fbfe729a8"
       data-name="Yellow#RedLight"
       cx="31.91474"
       cy="69.030182"
       r="3"
       style="fill:#ff00ff" />
    <circle
       id="e2021c3a-9ef0-4513-8bbd-da2a88f4ad91"
       data-name="Green4#RedLight"
       cx="31.91474"
       cy="84.672371"
       r="3"
       style="fill:#ff00ff" />
    <circle
       id="e4d66ba5-1ff1-4394-bff1-2f4e295b0cbb"
       data-name="Green3#RedLight"
       cx="31.91474"
       cy="100.31456"
       r="3"
       style="fill:#ff00ff" />
    <circle
       id="e768e54f-c849-4b91-8a38-97a2f787922e"
       data-name="Green2#RedLight"
       cx="31.91474"
       cy="115.95675"
       r="3"
       style="fill:#ff00ff" />
    <circle
       id="a33eb0a6-ef53-4f82-ad2d-a715ceed9f28"
       data-name="Green1#RedLight"
       cx="31.91474"
       cy="131.59892"
       r="3"
       style="fill:#ff00ff" />
  </g>
</svg>
