<?xml version="1.0" encoding="UTF-8" standalone="no"?>
<svg
   width="45"
   height="380"
   viewBox="0 0 45 380"
   version="1.1"
   id="svg60"
   sodipodi:docname="VCA-1.svg"
   inkscape:version="1.1.1 (3bf5ae0d25, 2021-09-20)"
   xmlns:inkscape="http://www.inkscape.org/namespaces/inkscape"
   xmlns:sodipodi="http://sodipodi.sourceforge.net/DTD/sodipodi-0.dtd"
   xmlns="http://www.w3.org/2000/svg"
   xmlns:svg="http://www.w3.org/2000/svg"
   xmlns:rdf="http://www.w3.org/1999/02/22-rdf-syntax-ns#"
   xmlns:cc="http://creativecommons.org/ns#"
   xmlns:dc="http://purl.org/dc/elements/1.1/">
  <metadata
     id="metadata64">
    <rdf:RDF>
      <cc:Work
         rdf:about="">
        <dc:format>image/svg+xml</dc:format>
        <dc:type
           rdf:resource="http://purl.org/dc/dcmitype/StillImage" />
      </cc:Work>
    </rdf:RDF>
  </metadata>
  <sodipodi:namedview
     pagecolor="#ffffff"
     bordercolor="#666666"
     borderopacity="1"
     objecttolerance="10"
     gridtolerance="10"
     guidetolerance="10"
     inkscape:pageopacity="0"
     inkscape:pageshadow="2"
     inkscape:window-width="1600"
     inkscape:window-height="882"
     id="namedview62"
     showgrid="false"
     inkscape:zoom="1.831032"
     inkscape:cx="8.7382416"
     inkscape:cy="155.10379"
     inkscape:window-x="0"
     inkscape:window-y="18"
     inkscape:window-maximized="1"
     inkscape:current-layer="eecf84db-9978-4a59-8668-617340dd9f58"
     inkscape:pagecheckerboard="0" />
  <defs
     id="defs7">
    <linearGradient
       id="ed30176d-4121-458c-ba58-78f2b0eede37"
       x1="22.49999"
       x2="22.49999"
       y2="380"
       gradientUnits="userSpaceOnUse">
      <stop
         offset="0"
         stop-color="#ebebeb"
         id="stop2" />
      <stop
         offset="1"
         stop-color="#e1e1e1"
         id="stop4" />
    </linearGradient>
  </defs>
  <g
     id="bc0e1b07-a574-4121-907f-2b3b4e707b5b"
     data-name="FND BG">
    <rect
       width="44.99997"
       height="380"
       fill="url(#ed30176d-4121-458c-ba58-78f2b0eede37)"
       id="rect9" />
  </g>
  <g
     id="ed04c5cb-63e7-4b5d-bcd8-65fae1a66654"
     data-name="FND GRAPH">
    <line
       x1="22.49994"
       y1="288.95597"
       x2="22.49994"
       y2="321.15516"
       fill="none"
       stroke="#1f1f1f"
       stroke-linecap="round"
       stroke-linejoin="round"
       stroke-width="0.8"
       id="line12" />
    <g
       id="g22">
      <circle
         cx="23.00165"
         cy="355.83101"
         r="1.18571"
         fill="#1f1f1f"
         id="circle14" />
      <path
         d="M14.35927,359.753a.91214.91214,0,0,1-.8158-.50418l-2.96428-5.92857a.91209.91209,0,0,1,1.6316-.8158l2.14848,4.297,2.14848-4.297a.91209.91209,0,0,1,1.6316.8158l-2.96428,5.92857A.91211.91211,0,0,1,14.35927,359.753Z"
         fill="#1f1f1f"
         id="path16" />
      <path
         d="M30.64073,359.753a.91211.91211,0,0,1-.8158-.50418l-2.96428-5.92857a.91209.91209,0,0,1,1.6316-.8158l2.14848,4.297,2.14848-4.297a.91209.91209,0,0,1,1.6316.8158l-2.96428,5.92857A.91214.91214,0,0,1,30.64073,359.753Z"
         fill="#1f1f1f"
         id="path18" />
      <path
         d="M22.94242,359.753a3.87637,3.87637,0,1,1,2.32653-6.97719.91209.91209,0,1,1-1.09557,1.45854,2.034,2.034,0,0,0-1.231-.40991,2.0522,2.0522,0,1,0,0,4.10439,2.034,2.034,0,0,0,1.231-.40991.91209.91209,0,1,1,1.09557,1.45854A3.8448,3.8448,0,0,1,22.94242,359.753Z"
         fill="#1f1f1f"
         id="path20" />
    </g>
    <line
       x1="22.49994"
       y1="199.11971"
       x2="22.49994"
       y2="237.18019"
       fill="none"
       stroke="#1f1f1f"
       stroke-linecap="round"
       stroke-linejoin="round"
       stroke-width="0.8"
       id="line24" />
    <rect
       x="8.1842"
       y="309.05634"
       width="28.6316"
       height="39.15691"
       rx="2.83465"
       fill="#1f1f1f"
       id="rect26" />
  </g>
  <g
     id="b0d9b3cc-cbeb-4853-b6bd-1a10d19e86f2"
     data-name="FND TXT">
    <g
       id="g35">
      <path
         d="M12.06836,27.66113,9.22852,20.86719a1.20432,1.20432,0,0,1-.11329-.46338.94586.94586,0,0,1,.96387-.95069,1.001,1.001,0,0,1,.97559.67579l2.18945,5.668L15.459,20.06641a.99831.99831,0,0,1,.92579-.61329.92975.92975,0,0,1,.95117.92579,1.12318,1.12318,0,0,1-.09961.42529l-2.86524,6.85693a1.13191,1.13191,0,0,1-1.08886.76319h-.125A1.131,1.131,0,0,1,12.06836,27.66113Z"
         fill="#1f1f1f"
         id="path29" />
      <path
         d="M18.09961,23.93262v-.02539a4.45146,4.45146,0,0,1,4.56641-4.5293,4.6351,4.6351,0,0,1,2.92773.88867.962.962,0,0,1,.375.7627.93918.93918,0,0,1-.9502.93847,1.00557,1.00557,0,0,1-.57519-.1875,2.88441,2.88441,0,0,0-1.78906-.62548,2.59566,2.59566,0,0,0-2.541,2.72753v.02491a2.60214,2.60214,0,0,0,2.541,2.75293,2.8117,2.8117,0,0,0,1.90136-.68848A.89264.89264,0,1,1,25.707,27.33594a4.40507,4.40507,0,0,1-3.11621,1.10058A4.42045,4.42045,0,0,1,18.09961,23.93262Z"
         fill="#1f1f1f"
         id="path31" />
      <path
         d="M27.29688,27.04785l3.05273-6.894a1.19059,1.19059,0,0,1,1.126-.76319h.1123a1.17307,1.17307,0,0,1,1.11328.76319l3.05371,6.894a.94139.94139,0,0,1,.10059.3877.91359.91359,0,0,1-.91406.92627.98119.98119,0,0,1-.92579-.66358l-.58789-1.376H29.57422l-.61328,1.439a.94692.94692,0,0,1-.88867.60059.88717.88717,0,0,1-.88868-.90088A1.02515,1.02515,0,0,1,27.29688,27.04785Zm5.418-2.42724L31.5,21.73047l-1.21289,2.89014Z"
         fill="#1f1f1f"
         id="path33" />
    </g>
    <g
       id="g41">
      <path
         d="M19.30078,266.603a.417.417,0,0,1,.834,0v3.98388a.417.417,0,0,1-.834,0Z"
         fill="#1f1f1f"
         id="path37" />
      <path
         d="M21.61133,266.6167a.41783.41783,0,0,1,.41992-.42041h.08789a.52448.52448,0,0,1,.43359.24414l2.3711,3.06934v-2.91358a.40968.40968,0,0,1,.81933,0v3.98389a.40441.40441,0,0,1-.40625.41308h-.03418a.52423.52423,0,0,1-.43359-.251l-2.43848-3.15674v3.0083a.40968.40968,0,0,1-.81933,0Z"
         fill="#1f1f1f"
         id="path39" />
    </g>
    <g
       id="g49">
      <path
         d="M15.01367,316.55127v-.01367a2.52165,2.52165,0,0,1,5.041-.01319v.01319a2.52166,2.52166,0,0,1-5.041.01367Zm3.94922,0v-.01367a1.44016,1.44016,0,0,0-1.43555-1.49024,1.41838,1.41838,0,0,0-1.42285,1.477v.01319a1.44137,1.44137,0,0,0,1.43653,1.49072A1.41786,1.41786,0,0,0,18.96289,316.55127Z"
         fill="#f0f0f0"
         id="path43" />
      <path
         d="M21.13281,316.87646v-2.229a.52149.52149,0,0,1,1.043,0v2.20215c0,.772.38672,1.17187,1.02344,1.17187s1.02344-.38623,1.02344-1.13818v-2.23584a.52148.52148,0,1,1,1.043,0v2.19531a1.90916,1.90916,0,0,1-2.08007,2.14063A1.88222,1.88222,0,0,1,21.13281,316.87646Z"
         fill="#f0f0f0"
         id="path45" />
      <path
         d="M27.61719,315.12842h-1.002a.481.481,0,0,1,0-.96192h3.04883a.481.481,0,0,1,0,.96192H28.66113v3.29931a.522.522,0,1,1-1.04394,0Z"
         fill="#f0f0f0"
         id="path47" />
    </g>
  </g>
  <g
     id="eecf84db-9978-4a59-8668-617340dd9f58"
     data-name="components"
     inkscape:groupmode="layer"
     style="display:none">
    <circle
       id="aed2a318-f783-4744-a1ac-df522f0cabc1"
       data-name="In#PJ301MPort"
       cx="22.5"
       cy="286"
       r="5"
       style="fill:#00ff00" />
    <circle
       id="b914b80d-c7c0-4d37-ae8b-3883a59fa140"
       data-name="Vca#PJ301MPort"
       cx="22.5"
       cy="238"
       r="5"
       style="fill:#00ff00" />
    <circle
       id="a203c5a8-5ce9-47ea-80d4-502687b1df35"
       data-name="Out#PJ301MPort"
       cx="22.5"
       cy="334"
       r="5"
       style="fill:#0000ff" />
    <rect
       y="38.5"
       width="45"
       height="165"
       rx="0.059179999"
       id="rect55"
       x="0"
       style="fill:#ffff00;fill-opacity:1" />
    <rect
       id="a7d34c10-d0f5-4d64-a4ae-acb03eea9939"
       data-name="B"
       x="6.6519499"
       y="47.04084"
       width="31.69611"
       height="148.38467"
       style="fill:#ffff00;fill-opacity:1" />
  </g>
</svg>
