<?xml version="1.0" encoding="UTF-8"?>
<svg xmlns="http://www.w3.org/2000/svg" width="45" height="380" xmlns:xlink="http://www.w3.org/1999/xlink" viewBox="0 0 45 380">
  <defs>
    <linearGradient id="uuid-d9fbdfb2-2473-46b7-8660-c4f266f49e89" x1="22.49999" y1="0" x2="22.49999" y2="380" gradientUnits="userSpaceOnUse">
      <stop offset="0" stop-color="#2a2a2b"/>
      <stop offset="1" stop-color="#171717"/>
    </linearGradient>
  </defs>
  <g id="uuid-f2fecb94-72c3-4cae-84e7-7d5581e6dd8f" data-name="FND BG">
    <rect width="44.99997" height="380" fill="url(#uuid-d9fbdfb2-2473-46b7-8660-c4f266f49e89)"/>
  </g>
  <g id="uuid-b3d645f5-86e0-465b-adb5-ff9b73fdefea" data-name="FND GRAPH">
    <line x1="22.49994" y1="288.95597" x2="22.49994" y2="321.15516" fill="none" stroke="#ededed" stroke-linecap="round" stroke-linejoin="round" stroke-width=".8"/>
    <g>
      <circle cx="23.00165" cy="355.83101" r="1.18571" fill="#ededed"/>
      <path d="m14.35927,359.75298c-.34551,0-.66126-.1952-.8158-.50419l-2.96428-5.92856c-.22526-.45057-.04266-.99844.40794-1.2237.45008-.22535.99831-.04271,1.22366.4079l2.14848,4.29696,2.14848-4.29696c.22526-.45057.77314-.63325,1.22366-.4079.45061.22526.63321.77314.40794,1.2237l-2.96428,5.92856c-.15454.30899-.47029.50419-.8158.50419Z" fill="#ededed"/>
      <path d="m30.64073,359.75298c-.34551,0-.66126-.1952-.8158-.50419l-2.96428-5.92856c-.22526-.45057-.04266-.99844.40794-1.2237.45016-.22535.9984-.04271,1.22366.4079l2.14848,4.29696,2.14848-4.29696c.22526-.45057.77305-.63325,1.22366-.4079.45061.22526.63321.77314.40794,1.2237l-2.96428,5.92856c-.15454.30899-.47029.50419-.8158.50419Z" fill="#ededed"/>
      <path d="m22.94242,359.75298c-2.13744,0-3.87637-1.73893-3.87637-3.87637s1.73893-3.87637,3.87637-3.87637c.84653,0,1.65102.26819,2.32653.77554.40278.30253.48401.87428.18153,1.27705-.30248.40273-.87432.48401-1.2771.18148-.357-.26815-.78267-.4099-1.23096-.4099-1.13156,0-2.05219.92059-2.05219,2.05219s.92064,2.05219,2.05219,2.05219c.44829,0,.87396-.14176,1.23096-.4099.40269-.30271.97444-.22125,1.2771.18148.30248.40278.22125.97453-.18153,1.27705-.67551.50735-1.48.77554-2.32653.77554Z" fill="#ededed"/>
    </g>
    <line x1="22.49994" y1="199.11971" x2="22.49994" y2="237.18019" fill="none" stroke="#ededed" stroke-linecap="round" stroke-linejoin="round" stroke-width=".8"/>
    <rect x="8.1842" y="309.05634" width="28.6316" height="39.15691" rx="2.83465" ry="2.83465" fill="#ededed"/>
  </g>
  <g id="uuid-ea3d8e01-180a-4f9f-91f0-387ec34a03e9" data-name="FND TXT">
    <g>
      <path d="m12.06836,27.66113l-2.83984-6.79395c-.0625-.15039-.11328-.30078-.11328-.46338,0-.5376.42578-.95068.96387-.95068.50098,0,.8252.2876.97559.67578l2.18945,5.66797,2.21484-5.73047c.125-.31299.46289-.61328.92578-.61328.52539,0,.95117.40039.95117.92578,0,.15039-.0498.3125-.09961.42529l-2.86523,6.85693c-.20117.47559-.56348.76318-1.08887.76318h-.125c-.52539,0-.88867-.2876-1.08887-.76318Z" fill="#ebebeb"/>
      <path d="m18.09961,23.93262v-.02539c0-2.48975,1.87695-4.5293,4.56641-4.5293,1.31445,0,2.20215.35059,2.92773.88867.2002.1499.375.4248.375.7627,0,.52588-.4248.93848-.9502.93848-.2627,0-.43848-.09961-.5752-.1875-.53906-.40039-1.10156-.62549-1.78906-.62549-1.47656,0-2.54102,1.22607-2.54102,2.72754v.0249c0,1.50146,1.03906,2.75293,2.54102,2.75293.8125,0,1.35059-.25049,1.90137-.68848.14941-.125.35059-.2124.5752-.2124.48828,0,.90039.40039.90039.88818,0,.30029-.14941.53809-.32422.68848-.78906.68799-1.71484,1.10059-3.11621,1.10059-2.57715,0-4.49121-1.98926-4.49121-4.50391Z" fill="#ebebeb"/>
      <path d="m27.29688,27.04785l3.05273-6.89404c.21289-.47559.60059-.76318,1.12598-.76318h.1123c.52539,0,.90137.2876,1.11328.76318l3.05371,6.89404c.0625.1377.10059.2627.10059.3877,0,.51318-.40039.92627-.91406.92627-.4502,0-.75098-.26318-.92578-.66357l-.58789-1.37598h-3.85352l-.61328,1.43896c-.16309.37549-.48828.60059-.88867.60059-.5,0-.88867-.40039-.88867-.90088,0-.1377.05078-.27539.11328-.41309Zm5.41797-2.42725l-1.21484-2.89014-1.21289,2.89014h2.42773Z" fill="#ebebeb"/>
    </g>
    <g>
      <path d="m19.30078,266.60303c0-.23047.18359-.41357.41992-.41357.23047,0,.41406.18311.41406.41357v3.98389c0,.22998-.18359.41309-.41406.41309-.23633,0-.41992-.18311-.41992-.41309v-3.98389Z" fill="#ebebeb"/>
      <path d="m21.61133,266.6167c0-.23047.18262-.42041.41992-.42041h.08789c.20312,0,.31836.10156.43359.24414l2.37109,3.06934v-2.91357c0-.22363.18262-.40674.40625-.40674.23047,0,.41309.18311.41309.40674v3.98389c0,.23047-.17578.41309-.40625.41309h-.03418c-.19629,0-.31836-.10156-.43359-.25098l-2.43848-3.15674v3.0083c0,.22314-.18262.40625-.40723.40625-.22949,0-.41211-.18311-.41211-.40625v-3.97705Z" fill="#ebebeb"/>
    </g>
    <g>
      <path d="m15.01367,316.55127v-.01367c0-1.34814,1.06445-2.45264,2.52734-2.45264s2.51367,1.09082,2.51367,2.43945v.01318c0,1.34814-1.06445,2.45264-2.52734,2.45264s-2.51367-1.09082-2.51367-2.43896Zm3.94922,0v-.01367c0-.81299-.5957-1.49023-1.43555-1.49023s-1.42285.66357-1.42285,1.47705v.01318c0,.81299.59668,1.49072,1.43652,1.49072s1.42188-.66406,1.42188-1.47705Z" fill="#1f1f1f"/>
      <path d="m21.13281,316.87646v-2.229c0-.29102.23047-.52148.52148-.52148s.52148.23047.52148.52148v2.20215c0,.77197.38672,1.17188,1.02344,1.17188s1.02344-.38623,1.02344-1.13818v-2.23584c0-.29102.23047-.52148.52148-.52148s.52148.23047.52148.52148v2.19531c0,1.43604-.80664,2.14062-2.08008,2.14062s-2.05273-.71143-2.05273-2.10693Z" fill="#1f1f1f"/>
      <path d="m27.61719,315.12842h-1.00195c-.26367,0-.48047-.2168-.48047-.48096s.2168-.48096.48047-.48096h3.04883c.26367,0,.48047.2168.48047.48096s-.2168.48096-.48047.48096h-1.00293v3.29932c0,.2915-.23047.52197-.52246.52197-.29102,0-.52148-.23047-.52148-.52197v-3.29932Z" fill="#1f1f1f"/>
    </g>
  </g>
</svg>