<?xml version="1.0" encoding="UTF-8"?>
<svg xmlns="http://www.w3.org/2000/svg" width="105" height="380" xmlns:xlink="http://www.w3.org/1999/xlink" viewBox="0 0 105 380">
  <defs>
    <linearGradient id="uuid-23e2bfd1-2caa-4730-9ca0-503954962aff" x1="52.5" y1="0" x2="52.5" y2="380" gradientUnits="userSpaceOnUse">
      <stop offset="0" stop-color="#2a2a2b"/>
      <stop offset="1" stop-color="#171717"/>
    </linearGradient>
  </defs>
  <g id="uuid-022f3316-3258-45b8-b2c6-29caffc28e5e" data-name="FND BG">
    <rect width="105" height="380" fill="url(#uuid-23e2bfd1-2caa-4730-9ca0-503954962aff)"/>
  </g>
  <g id="uuid-43465ce4-364c-4d2f-a71b-b0ccc21f306c" data-name="FND GRAPH">
    <g>
      <path d="m44.35927,359.75298c-.34551,0-.66126-.1952-.8158-.50419l-2.96428-5.92856c-.22526-.45057-.04266-.99844.40794-1.2237.45008-.22535.99831-.04271,1.22366.4079l2.14848,4.29696,2.14848-4.29696c.22526-.45057.77314-.63325,1.22366-.4079.45061.22526.63321.77314.40794,1.2237l-2.96428,5.92856c-.15454.30899-.47029.50419-.8158.50419Z" fill="#ededed"/>
      <path d="m60.64073,359.75298c-.34551,0-.66126-.1952-.8158-.50419l-2.96428-5.92856c-.22526-.45057-.04266-.99844.40794-1.2237.45016-.22535.9984-.04271,1.22366.4079l2.14848,4.29696,2.14848-4.29696c.22526-.45057.77305-.63325,1.22366-.4079.45061.22526.63321.77314.40794,1.2237l-2.96428,5.92856c-.15454.30899-.47029.50419-.8158.50419Z" fill="#ededed"/>
      <path d="m52.94242,359.75298c-2.13744,0-3.87637-1.73893-3.87637-3.87637s1.73893-3.87637,3.87637-3.87637c.84653,0,1.65102.26819,2.32653.77554.40278.30253.48401.87428.18153,1.27705-.30248.40273-.87432.48401-1.2771.18148-.357-.26815-.78267-.4099-1.23096-.4099-1.13156,0-2.05219.92059-2.05219,2.05219s.92064,2.05219,2.05219,2.05219c.44829,0,.87396-.14176,1.23096-.4099.40269-.30271.97444-.22125,1.2771.18148.30248.40278.22125.97453-.18153,1.27705-.67551.50735-1.48.77554-2.32653.77554Z" fill="#ededed"/>
      <circle cx="53.00165" cy="355.83101" r="1.18571" fill="#ededed"/>
    </g>
    <rect x="38.34024" y="309.06564" width="60.6316" height="39.15691" rx="2.83465" ry="2.83465" fill="#ededed"/>
    <line x1="15.15604" y1="202" x2="90.15604" y2="202" fill="none" stroke="#ededed" stroke-linecap="round" stroke-linejoin="round" stroke-width=".8"/>
    <g>
      <circle cx="78.73592" cy="166.5" r="26.48818" fill="none" isolation="isolate" opacity=".69"/>
      <path d="m89.53415,184.60266c6.2955-3.78272,10.15833-10.61025,10.15833-17.95479,0-11.491-9.45566-20.94666-20.94666-20.94666s-20.94666,9.45566-20.94666,20.94666c0,7.39639,3.91756,14.2646,10.28394,18.02967" fill="none" stroke="#ededed" stroke-linecap="round" stroke-miterlimit="10" stroke-width=".8"/>
      <line x1="89.53415" y1="184.60266" x2="78.73592" y2="166.5" fill="none"/>
      <line x1="78.74582" y1="145.70121" x2="78.74582" y2="159.12279" fill="none" stroke="#ededed" stroke-linecap="round" stroke-miterlimit="10" stroke-width=".8"/>
    </g>
    <g>
      <circle cx="51.93829" cy="88.017" r="38.44564" fill="none" isolation="isolate" opacity=".69"/>
      <path d="m67.61111,114.29167c9.13745-5.49034,14.74407-15.4,14.74407-26.06006,0-16.67834-13.7242-30.40253-30.40253-30.40253s-30.40253,13.7242-30.40253,30.40253c0,10.73531,5.68605,20.70402,14.92638,26.16874" fill="none" stroke="#ededed" stroke-linecap="round" stroke-miterlimit="10" stroke-width=".8"/>
      <line x1="67.61111" y1="114.29167" x2="51.93829" y2="88.017" fill="none"/>
    </g>
    <g>
      <circle cx="26.26408" cy="166.5" r="26.48818" fill="none" isolation="isolate" opacity=".69"/>
      <path d="m37.0623,184.60266c6.2955-3.78272,10.15833-10.61025,10.15833-17.95479,0-11.491-9.45566-20.94666-20.94666-20.94666s-20.94666,9.45566-20.94666,20.94666c0,7.39639,3.91756,14.2646,10.28394,18.02967" fill="none" stroke="#ededed" stroke-linecap="round" stroke-miterlimit="10" stroke-width=".8"/>
      <line x1="37.0623" y1="184.60266" x2="26.26408" y2="166.5" fill="none"/>
    </g>
    <g>
      <line x1="20.65605" y1="250.87459" x2="20.65605" y2="260.07654" fill="none" stroke="#ededed" stroke-linecap="round" stroke-linejoin="round" stroke-width=".8"/>
      <line x1="20.65605" y1="226.54018" x2="20.65605" y2="238.01957" fill="none" stroke="#ededed" stroke-linecap="round" stroke-linejoin="round"/>
      <path d="m12.50258,246.15346c-2.1616-2.1616-3.37728-5.09649-3.37728-8.15346,0-6.32558,5.20516-11.53074,11.53074-11.53074s11.53074,5.20516,11.53074,11.53074c0,3.05697-1.21567,5.99186-3.37728,8.15346" fill="none" stroke="#ededed" stroke-linecap="round" stroke-linejoin="round"/>
    </g>
    <g>
      <line x1="52.65451" y1="250.87459" x2="52.65451" y2="260.07654" fill="none" stroke="#ededed" stroke-linecap="round" stroke-linejoin="round" stroke-width=".8"/>
      <line x1="52.65451" y1="226.54018" x2="52.65451" y2="238.01957" fill="none" stroke="#ededed" stroke-linecap="round" stroke-linejoin="round"/>
      <path d="m44.50105,246.15346c-2.1616-2.1616-3.37728-5.09649-3.37728-8.15346,0-6.32558,5.20516-11.53074,11.53074-11.53074s11.53074,5.20516,11.53074,11.53074c0,3.05697-1.21567,5.99186-3.37728,8.15346" fill="none" stroke="#ededed" stroke-linecap="round" stroke-linejoin="round"/>
    </g>
    <g>
      <line x1="84.65604" y1="250.87459" x2="84.65604" y2="260.07654" fill="none" stroke="#ededed" stroke-linecap="round" stroke-linejoin="round" stroke-width=".8"/>
      <line x1="84.65604" y1="226.54018" x2="84.65604" y2="238.01957" fill="none" stroke="#ededed" stroke-linecap="round" stroke-linejoin="round"/>
      <path d="m76.50258,246.15346c-2.1616-2.1616-3.37728-5.09649-3.37728-8.15346,0-6.32558,5.20516-11.53074,11.53074-11.53074s11.53074,5.20516,11.53074,11.53074c0,3.05697-1.21567,5.99186-3.37728,8.15346" fill="none" stroke="#ededed" stroke-linecap="round" stroke-linejoin="round"/>
    </g>
  </g>
  <g id="uuid-fcfacdc4-31ad-4174-b965-304de5b9a86b" data-name="FND TXT">
    <g>
      <path d="m34.96436,48.20605v-.0166c0-1.66113,1.24365-3.02148,3.01318-3.02148.90137,0,1.49414.26709,2.00293.65918.1084.0835.2002.22559.2002.40918,0,.28369-.2251.50098-.50879.50098-.1416,0-.24219-.05029-.30859-.10059-.40088-.3252-.83496-.52539-1.39404-.52539-1.10986,0-1.92822.91797-1.92822,2.06152v.0166c0,1.14355.80957,2.06982,1.92822,2.06982.61768,0,1.03467-.20068,1.46045-.55908.0752-.06689.18359-.11719.30859-.11719.25879,0,.48438.21729.48438.47559,0,.15918-.0752.28418-.16699.36768-.55078.48389-1.17676.78467-2.12012.78467-1.70215,0-2.97119-1.32715-2.97119-3.00488Z" fill="#ebebeb"/>
      <path d="m41.43994,48.63184v-2.89648c0-.28369.2251-.50879.51709-.50879.28418,0,.50977.2251.50977.50879v2.85449c0,1.08496.55859,1.66113,1.47754,1.66113.90918,0,1.46875-.54248,1.46875-1.61914v-2.89648c0-.28369.22559-.50879.51758-.50879.2832,0,.50879.2251.50879.50879v2.84619c0,1.74463-.98535,2.62061-2.5127,2.62061-1.51855,0-2.48682-.87598-2.48682-2.57031Z" fill="#ebebeb"/>
      <path d="m49.44434,46.21973h-1.41895c-.2666,0-.47559-.21729-.47559-.47607,0-.2583.20898-.47559.47559-.47559h3.88086c.25879,0,.46777.21729.46777.47559,0,.25879-.20898.47607-.46777.47607h-1.42676v4.42334c0,.28369-.2334.50928-.51758.50928s-.51758-.22559-.51758-.50928v-4.42334Z" fill="#ebebeb"/>
      <path d="m53.00391,48.20605v-.0166c0-1.64453,1.26855-3.02148,3.06348-3.02148,1.79395,0,3.0459,1.36035,3.0459,3.00488v.0166c0,1.64404-1.26855,3.02148-3.0625,3.02148-1.79492,0-3.04688-1.36035-3.04688-3.00488Zm5.0332,0v-.0166c0-1.13525-.82617-2.07812-1.98633-2.07812s-1.96973.92627-1.96973,2.06152v.0166c0,1.13477.82617,2.06982,1.98633,2.06982s1.96973-.91846,1.96973-2.05322Z" fill="#ebebeb"/>
      <path d="m60.54004,45.78516c0-.29199.22559-.51709.51758-.51709h3.40527c.25879,0,.46777.2085.46777.46729s-.20898.46777-.46777.46777h-2.89648v1.59375h2.52051c.25879,0,.46777.20898.46777.46777s-.20898.46729-.46777.46729h-2.52051v1.91113c0,.28369-.22559.50928-.50879.50928-.29199,0-.51758-.22559-.51758-.50928v-4.85791Z" fill="#ebebeb"/>
      <path d="m66.11133,45.78516c0-.29199.22559-.51709.51758-.51709h3.40527c.25879,0,.46777.2085.46777.46729s-.20898.46777-.46777.46777h-2.89551v1.59375h2.52051c.25879,0,.46777.20898.46777.46777s-.20898.46729-.46777.46729h-2.52051v1.91113c0,.28369-.22559.50928-.50977.50928-.29199,0-.51758-.22559-.51758-.50928v-4.85791Z" fill="#ebebeb"/>
    </g>
    <g>
      <path d="m18.33789,133.29395c0-.29199.22559-.51758.51758-.51758h2.08691c.73438,0,1.31006.21729,1.68604.58447.30859.31689.48389.75098.48389,1.26025v.0166c0,.93506-.54248,1.50244-1.32715,1.74463l1.11865,1.41064c.1001.125.16699.2334.16699.39209,0,.28369-.24219.47559-.49268.47559-.23389,0-.38379-.1084-.50098-.26709l-1.41895-1.81104h-1.29346v1.56934c0,.28369-.22559.50879-.50928.50879-.29199,0-.51758-.2251-.51758-.50879v-4.85791Zm2.5293,2.37891c.73438,0,1.20166-.38379,1.20166-.97656v-.0166c0-.62598-.45068-.96826-1.20996-.96826h-1.49414v1.96143h1.50244Z" fill="#ebebeb"/>
      <path d="m24.59277,138.10156v-4.80762c0-.29199.22559-.51758.51758-.51758h3.39697c.25049,0,.45947.20898.45947.45947,0,.2583-.20898.45898-.45947.45898h-2.8877v1.51904h2.51221c.25049,0,.45898.2085.45898.46729,0,.25049-.2085.45068-.45898.45068h-2.51221v1.56934h2.92969c.25049,0,.45898.2085.45898.45898,0,.25879-.2085.45898-.45898.45898h-3.43896c-.29199,0-.51758-.22559-.51758-.51758Z" fill="#ebebeb"/>
      <path d="m30.20996,137.96826c-.11719-.0835-.2002-.22559-.2002-.39258,0-.26709.2168-.47559.48389-.47559.14209,0,.23389.0415.30029.0918.48438.38379,1.00195.60107,1.63623.60107s1.03467-.30078,1.03467-.73486v-.0166c0-.41699-.2334-.64258-1.31836-.89307-1.24365-.30029-1.94482-.66748-1.94482-1.74414v-.01709c0-1.00146.83447-1.69434,1.99463-1.69434.73438,0,1.32715.19238,1.85303.54297.1167.06641.2251.2085.2251.40869,0,.26709-.2168.47559-.48389.47559-.1001,0-.18359-.0249-.26709-.07471-.45068-.29248-.88477-.44238-1.34375-.44238-.60107,0-.95166.30859-.95166.69238v.01709c0,.45068.26709.65088,1.39404.91797,1.23535.30029,1.86963.74268,1.86963,1.71094v.0166c0,1.09375-.85986,1.74463-2.08691,1.74463-.79248,0-1.54395-.25049-2.19482-.73438Z" fill="#ebebeb"/>
    </g>
    <g>
      <path d="m65.65381,133.29395c0-.29199.22559-.51758.51758-.51758h1.66113c1.83643,0,3.10498,1.26074,3.10498,2.90479v.0166c0,1.64453-1.26855,2.92139-3.10498,2.92139h-1.66113c-.29199,0-.51758-.22559-.51758-.51758v-4.80762Zm2.17871,4.39062c1.22705,0,2.02832-.82666,2.02832-1.97021v-.0166c0-1.14355-.80127-1.98633-2.02832-1.98633h-1.15186v3.97314h1.15186Z" fill="#ebebeb"/>
      <path d="m72.35059,133.29395c0-.29199.22559-.51758.51758-.51758h2.08691c.73438,0,1.31006.21729,1.68604.58447.30859.31689.48389.75098.48389,1.26025v.0166c0,.93506-.54248,1.50244-1.32715,1.74463l1.11865,1.41064c.1001.125.16699.2334.16699.39209,0,.28369-.24219.47559-.49268.47559-.23389,0-.38379-.1084-.50098-.26709l-1.41895-1.81104h-1.29346v1.56934c0,.28369-.22559.50879-.50928.50879-.29199,0-.51758-.2251-.51758-.50879v-4.85791Zm2.5293,2.37891c.73438,0,1.20166-.38379,1.20166-.97656v-.0166c0-.62598-.45068-.96826-1.20996-.96826h-1.49414v1.96143h1.50244Z" fill="#ebebeb"/>
      <path d="m78.63672,133.24414c0-.28418.22559-.50928.51758-.50928.28369,0,.50928.2251.50928.50928v4.90771c0,.28369-.22559.50879-.50928.50879-.29199,0-.51758-.2251-.51758-.50879v-4.90771Z" fill="#ebebeb"/>
      <path d="m82.97363,138.28516l-2.04492-4.80762c-.0332-.0752-.05811-.1499-.05811-.2417,0-.27588.2251-.50098.51758-.50098.26709,0,.44238.15039.52588.36719l1.68555,4.21484,1.71143-4.24805c.06641-.17529.25049-.33398.49219-.33398.28369,0,.50928.2168.50928.49219,0,.0752-.0249.15869-.05029.21729l-2.05322,4.84082c-.1084.25879-.30029.41748-.59229.41748h-.05859c-.28369,0-.47559-.15869-.58447-.41748Z" fill="#ebebeb"/>
      <path d="m87.49658,138.10156v-4.80762c0-.29199.22559-.51758.51758-.51758h3.39697c.25049,0,.45947.20898.45947.45947,0,.2583-.20898.45898-.45947.45898h-2.8877v1.51904h2.51221c.25049,0,.45898.2085.45898.46729,0,.25049-.2085.45068-.45898.45068h-2.51221v1.56934h2.92969c.25049,0,.45898.2085.45898.45898,0,.25879-.2085.45898-.45898.45898h-3.43896c-.29199,0-.51758-.22559-.51758-.51758Z" fill="#ebebeb"/>
    </g>
    <g>
      <path d="m13.61133,268.60791v-.01367c0-1.34814,1.00928-2.45264,2.44531-2.45264.73193,0,1.21289.2168,1.62598.53516.08838.06836.16309.18311.16309.33203,0,.23047-.18311.40674-.41357.40674-.11475,0-.19678-.04053-.25049-.08154-.3252-.26367-.67773-.42676-1.13184-.42676-.90039,0-1.56445.74512-1.56445,1.67383v.01318c0,.92822.65723,1.68018,1.56445,1.68018.50195,0,.84033-.1626,1.18555-.4541.06152-.05371.14941-.09473.25098-.09473.20996,0,.39307.17627.39307.38623,0,.12891-.06104.23047-.13525.29834-.44727.39258-.95557.63672-1.72119.63672-1.38232,0-2.41162-1.07715-2.41162-2.43896Z" fill="#ebebeb"/>
      <path d="m18.92676,268.95312v-2.35059c0-.23047.18262-.41309.41992-.41309.23047,0,.41309.18262.41309.41309v2.31689c0,.88086.4541,1.34814,1.19922,1.34814.73828,0,1.19238-.44043,1.19238-1.31445v-2.35059c0-.23047.18262-.41309.41992-.41309.23047,0,.41309.18262.41309.41309v2.31055c0,1.41553-.79883,2.12695-2.03906,2.12695-1.23291,0-2.01855-.71143-2.01855-2.08691Z" fill="#ebebeb"/>
      <path d="m25.4834,266.99561h-1.15186c-.2168,0-.38623-.17627-.38623-.38623s.16943-.38623.38623-.38623h3.15039c.20996,0,.37939.17627.37939.38623s-.16943.38623-.37939.38623h-1.15869v3.59033c0,.23047-.18945.41357-.41992.41357s-.41992-.18311-.41992-.41357v-3.59033Z" fill="#ebebeb"/>
    </g>
    <g>
      <path d="m46.16211,266.64307c0-.23682.18311-.41992.41992-.41992h1.69434c.5957,0,1.06348.17627,1.36816.47412.25098.25781.39258.60986.39258,1.02344v.01318c0,.75879-.43994,1.21924-1.07715,1.41602l.9082,1.14502c.08105.10156.13574.18945.13574.31836,0,.23047-.19678.38623-.40039.38623-.18945,0-.31152-.08838-.40625-.2168l-1.15137-1.47021h-1.05029v1.27344c0,.23047-.18311.41357-.41357.41357-.23682,0-.41992-.18311-.41992-.41357v-3.94287Zm2.05273,1.93115c.59668,0,.97559-.31152.97559-.79297v-.01367c0-.50781-.36572-.78564-.98242-.78564h-1.2124v1.59229h1.21924Z" fill="#ebebeb"/>
      <path d="m51.29492,270.54541v-3.90234c0-.23682.18262-.41992.41992-.41992h2.75732c.20361,0,.37256.16943.37256.37256,0,.20996-.16895.37256-.37256.37256h-2.34424v1.23291h2.03906c.20361,0,.37305.16992.37305.37988,0,.20312-.16943.36572-.37305.36572h-2.03906v1.27344h2.37793c.20312,0,.37305.16943.37305.37256,0,.20996-.16992.37305-.37305.37305h-2.79102c-.2373,0-.41992-.18311-.41992-.42041Z" fill="#ebebeb"/>
      <path d="m55.90918,270.43701c-.09473-.06787-.1626-.18311-.1626-.31836,0-.2168.17627-.38623.39307-.38623.11523,0,.18945.03418.24414.07471.39258.31152.8125.48779,1.32715.48779.51562,0,.84082-.24414.84082-.59619v-.01367c0-.33838-.19043-.52148-1.0708-.7251-1.00928-.24365-1.57861-.54199-1.57861-1.41602v-.01318c0-.81299.67773-1.37549,1.61914-1.37549.59668,0,1.07715.15625,1.50391.44043.09473.0542.18311.16943.18311.33203,0,.2168-.17627.38623-.39307.38623-.08105,0-.14893-.02051-.2168-.06104-.36572-.2373-.71777-.35938-1.09082-.35938-.4873,0-.77246.25098-.77246.5625v.01367c0,.36572.2168.52832,1.13184.74512,1.00293.24414,1.51758.60303,1.51758,1.38867v.01367c0,.8877-.69824,1.41602-1.69385,1.41602-.64355,0-1.25342-.20312-1.78174-.59619Z" fill="#ebebeb"/>
    </g>
    <g>
      <path d="m74.01562,266.64307c0-.23682.18359-.41992.42041-.41992h1.34814c1.49023,0,2.52051,1.02295,2.52051,2.35791v.01318c0,1.33447-1.03027,2.37158-2.52051,2.37158h-1.34814c-.23682,0-.42041-.18311-.42041-.42041v-3.90234Zm1.76855,3.56396c.99609,0,1.64648-.6709,1.64648-1.59912v-.01367c0-.92822-.65039-1.6123-1.64648-1.6123h-.93457v3.2251h.93457Z" fill="#ebebeb"/>
      <path d="m79.50781,266.64307c0-.23682.18311-.41992.41992-.41992h1.69434c.5957,0,1.06348.17627,1.36816.47412.25098.25781.39258.60986.39258,1.02344v.01318c0,.75879-.43994,1.21924-1.07715,1.41602l.9082,1.14502c.08105.10156.13574.18945.13574.31836,0,.23047-.19678.38623-.40039.38623-.18945,0-.31152-.08838-.40625-.2168l-1.15137-1.47021h-1.05029v1.27344c0,.23047-.18311.41357-.41357.41357-.23682,0-.41992-.18311-.41992-.41357v-3.94287Zm2.05273,1.93115c.59668,0,.97559-.31152.97559-.79297v-.01367c0-.50781-.36572-.78564-.98242-.78564h-1.2124v1.59229h1.21924Z" fill="#ebebeb"/>
      <path d="m84.66602,266.60254c0-.23047.18311-.41309.41992-.41309.23047,0,.41357.18262.41357.41309v3.9834c0,.23047-.18311.41357-.41357.41357-.23682,0-.41992-.18311-.41992-.41357v-3.9834Z" fill="#ebebeb"/>
      <path d="m88.24414,270.69434l-1.66016-3.90234c-.02734-.06055-.04736-.12158-.04736-.19629,0-.22363.18311-.40625.41992-.40625.2168,0,.35889.12207.42725.29785l1.36816,3.42139,1.38867-3.44873c.05469-.14209.20312-.27051.3999-.27051.22998,0,.41357.17578.41357.39941,0,.06104-.02051.12891-.04102.17627l-1.6665,3.9292c-.08838.20996-.24365.33887-.48096.33887h-.04785c-.22998,0-.38574-.12891-.47363-.33887Z" fill="#ebebeb"/>
      <path d="m91.97363,270.54541v-3.90234c0-.23682.18262-.41992.41992-.41992h2.75684c.20361,0,.37305.16943.37305.37256,0,.20996-.16943.37256-.37305.37256h-2.34375v1.23291h2.03906c.20312,0,.37305.16992.37305.37988,0,.20312-.16992.36572-.37305.36572h-2.03906v1.27344h2.37793c.20312,0,.37256.16943.37256.37256,0,.20996-.16943.37305-.37256.37305h-2.79102c-.2373,0-.41992-.18311-.41992-.42041Z" fill="#ebebeb"/>
    </g>
    <g>
      <path d="m46.45752,314.64795c0-.2915.23047-.52148.52197-.52148s.52148.22998.52148.52148v3.31299h1.93115c.26416,0,.47412.20996.47412.47412s-.20996.47412-.47412.47412h-2.45264c-.2915,0-.52197-.22998-.52197-.52148v-3.73975Z" fill="#1f1f1f"/>
      <path d="m50.80713,314.68848c0-.29102.22998-.52148.52148-.52148h1.41602c1.13135,0,1.81543.6709,1.81543,1.63965v.01367c0,1.09717-.85352,1.6665-1.91699,1.6665h-.79297v.94189c0,.29102-.23047.52148-.52148.52148-.2915,0-.52148-.23047-.52148-.52148v-3.74023Zm1.86963,1.87012c.52148,0,.82666-.31152.82666-.71826v-.01318c0-.46777-.3252-.71875-.84717-.71875h-.80615v1.4502h.82666Z" fill="#1f1f1f"/>
      <path d="m55.54443,314.68848c0-.29102.23047-.52148.52197-.52148h2.65576c.26416,0,.47412.20996.47412.47412s-.20996.47412-.47412.47412h-2.13428v1.00977h1.82959c.26416,0,.47412.20996.47412.47412s-.20996.47412-.47412.47412h-1.82959v1.35547c0,.29102-.22998.52148-.52148.52148s-.52197-.23047-.52197-.52148v-3.74023Z" fill="#1f1f1f"/>
    </g>
    <g>
      <path d="m77.93018,314.64795c0-.2915.23047-.52148.52197-.52148s.52148.22998.52148.52148v1.396h1.92432v-1.396c0-.2915.23047-.52148.52148-.52148.2915,0,.52148.22998.52148.52148v3.78076c0,.29102-.22998.52148-.52148.52148-.29102,0-.52148-.23047-.52148-.52148v-1.42285h-1.92432v1.42285c0,.29102-.22998.52148-.52148.52148s-.52197-.23047-.52197-.52148v-3.78076Z" fill="#1f1f1f"/>
      <path d="m83.3335,314.68848c0-.29102.22998-.52148.52148-.52148h1.41602c1.13135,0,1.81543.6709,1.81543,1.63965v.01367c0,1.09717-.85352,1.6665-1.91699,1.6665h-.79297v.94189c0,.29102-.23047.52148-.52148.52148-.2915,0-.52148-.23047-.52148-.52148v-3.74023Zm1.86963,1.87012c.52148,0,.82666-.31152.82666-.71826v-.01318c0-.46777-.3252-.71875-.84717-.71875h-.80615v1.4502h.82666Z" fill="#1f1f1f"/>
      <path d="m88.0708,314.68848c0-.29102.23047-.52148.52197-.52148h2.65576c.26416,0,.47412.20996.47412.47412s-.20996.47412-.47412.47412h-2.13428v1.00977h1.82959c.26416,0,.47412.20996.47412.47412s-.20996.47412-.47412.47412h-1.82959v1.35547c0,.29102-.22998.52148-.52148.52148s-.52197-.23047-.52197-.52148v-3.74023Z" fill="#1f1f1f"/>
    </g>
    <g>
      <path d="m17.45605,314.54639c0-.23047.18311-.41357.41992-.41357.23047,0,.41357.18311.41357.41357v3.98389c0,.22998-.18311.41309-.41357.41309-.23682,0-.41992-.18311-.41992-.41309v-3.98389Z" fill="#ebebeb"/>
      <path d="m19.76562,314.56006c0-.23047.18262-.42041.41992-.42041h.08789c.20361,0,.31885.10156.43359.24414l2.37158,3.06934v-2.91357c0-.22363.18262-.40674.40625-.40674.23047,0,.41309.18311.41309.40674v3.98389c0,.23047-.17578.41309-.40625.41309h-.03369c-.19678,0-.31885-.10156-.43359-.25098l-2.43896-3.15674v3.0083c0,.22314-.18311.40625-.40674.40625-.23047,0-.41309-.18311-.41309-.40625v-3.97705Z" fill="#ebebeb"/>
    </g>
    <g>
      <path d="m42.75195,27.66113l-2.84082-6.79395c-.0625-.15039-.1123-.30078-.1123-.46338,0-.5376.42529-.95068.96338-.95068.50049,0,.82568.2876.97607.67578l2.18945,5.66797,2.21484-5.73047c.125-.31299.46289-.61328.92578-.61328.52539,0,.95117.40039.95117.92578,0,.15039-.0498.3125-.10059.42529l-2.86523,6.85693c-.2002.47559-.5625.76318-1.08789.76318h-.12598c-.52539,0-.8877-.2876-1.08789-.76318Z" fill="#ebebeb"/>
      <path d="m48.78223,23.93262v-.02539c0-2.48975,1.87695-4.5293,4.56641-4.5293,1.31445,0,2.20215.35059,2.92871.88867.2002.1499.375.4248.375.7627,0,.52588-.42578.93848-.95117.93848-.2627,0-.4375-.09961-.5752-.1875-.53809-.40039-1.10156-.62549-1.78906-.62549-1.47656,0-2.54004,1.22607-2.54004,2.72754v.0249c0,1.50146,1.03809,2.75293,2.54004,2.75293.8125,0,1.35059-.25049,1.90137-.68848.15039-.125.35059-.2124.5752-.2124.48828,0,.90137.40039.90137.88818,0,.30029-.15039.53809-.3252.68848-.78809.68799-1.71387,1.10059-3.11523,1.10059-2.57812,0-4.49219-1.98926-4.49219-4.50391Z" fill="#ebebeb"/>
      <path d="m58.47754,20.49121c0-.5376.42578-.96289.96387-.96289h4.9043c.48828,0,.87598.3877.87598.87549s-.3877.87598-.87598.87598h-3.94141v1.86426h3.37891c.4873,0,.875.38818.875.87598s-.3877.87549-.875.87549h-3.37891v2.50293c0,.53809-.4248.96338-.96289.96338s-.96387-.42529-.96387-.96338v-6.90723Z" fill="#ebebeb"/>
    </g>
  </g>
</svg>