<?xml version="1.0" encoding="UTF-8" standalone="no"?>
<svg
   xmlns:dc="http://purl.org/dc/elements/1.1/"
   xmlns:cc="http://creativecommons.org/ns#"
   xmlns:rdf="http://www.w3.org/1999/02/22-rdf-syntax-ns#"
   xmlns:svg="http://www.w3.org/2000/svg"
   xmlns="http://www.w3.org/2000/svg"
   xmlns:sodipodi="http://sodipodi.sourceforge.net/DTD/sodipodi-0.dtd"
   xmlns:inkscape="http://www.inkscape.org/namespaces/inkscape"
   width="105"
   height="380"
   viewBox="0 0 105 380"
   version="1.1"
   id="svg183"
   sodipodi:docname="VCF.svg"
   inkscape:version="0.92.3 (2405546, 2018-03-11)">
  <metadata
     id="metadata187">
    <rdf:RDF>
      <cc:Work
         rdf:about="">
        <dc:format>image/svg+xml</dc:format>
        <dc:type
           rdf:resource="http://purl.org/dc/dcmitype/StillImage" />
      </cc:Work>
    </rdf:RDF>
  </metadata>
  <sodipodi:namedview
     pagecolor="#ffffff"
     bordercolor="#666666"
     borderopacity="1"
     objecttolerance="10"
     gridtolerance="10"
     guidetolerance="10"
     inkscape:pageopacity="0"
     inkscape:pageshadow="2"
     inkscape:window-width="1920"
     inkscape:window-height="1017"
     id="namedview185"
     showgrid="false"
     inkscape:zoom="0.62105263"
     inkscape:cx="52.5"
     inkscape:cy="190"
     inkscape:window-x="1912"
     inkscape:window-y="-8"
     inkscape:window-maximized="1"
     inkscape:current-layer="svg183" />
  <defs
     id="defs7">
    <linearGradient
       id="b6c640c9-9674-407c-8cc9-0a30e35b90c9"
       x1="52.5"
       x2="52.5"
       y2="380"
       gradientUnits="userSpaceOnUse">
      <stop
         offset="0"
         stop-color="#ebebeb"
         id="stop2" />
      <stop
         offset="1"
         stop-color="#e1e1e1"
         id="stop4" />
    </linearGradient>
  </defs>
  <g
     id="ac952afe-35d3-430d-b608-56aba77e11ba"
     data-name="FND BG"
     style="display:inline">
    <rect
       width="105"
       height="380"
       id="rect9"
       x="0"
       y="0"
       style="fill:url(#b6c640c9-9674-407c-8cc9-0a30e35b90c9)" />
  </g>
  <g
     id="a5551448-73fa-46e5-8577-1a893db1b39e"
     data-name="FND GRAPH"
     style="display:inline">
    <g
       id="g20">
      <path
         d="m 44.35927,359.753 a 0.91214,0.91214 0 0 1 -0.8158,-0.50418 l -2.96428,-5.92857 a 0.91209213,0.91209213 0 0 1 1.6316,-0.8158 l 2.14848,4.297 2.14848,-4.297 a 0.91209213,0.91209213 0 0 1 1.6316,0.8158 l -2.96428,5.92857 a 0.91211,0.91211 0 0 1 -0.8158,0.50418 z"
         id="path12"
         inkscape:connector-curvature="0"
         style="fill:#1f1f1f" />
      <path
         d="m 60.64073,359.753 a 0.91211,0.91211 0 0 1 -0.8158,-0.50418 l -2.96428,-5.92857 a 0.91209213,0.91209213 0 0 1 1.6316,-0.8158 l 2.14848,4.297 2.14848,-4.297 a 0.91209213,0.91209213 0 0 1 1.6316,0.8158 l -2.96428,5.92857 a 0.91214,0.91214 0 0 1 -0.8158,0.50418 z"
         id="path14"
         inkscape:connector-curvature="0"
         style="fill:#1f1f1f" />
      <path
         d="m 52.94242,359.753 a 3.87637,3.87637 0 1 1 2.32653,-6.97719 0.91209,0.91209 0 1 1 -1.09557,1.45854 2.034,2.034 0 0 0 -1.231,-0.40991 2.0522,2.0522 0 1 0 0,4.10439 2.034,2.034 0 0 0 1.231,-0.40991 0.91209,0.91209 0 1 1 1.09557,1.45854 3.8448,3.8448 0 0 1 -2.32653,0.77554 z"
         id="path16"
         inkscape:connector-curvature="0"
         style="fill:#1f1f1f" />
      <circle
         cx="53.001652"
         cy="355.83102"
         r="1.18571"
         id="circle18"
         style="fill:#1f1f1f" />
    </g>
    <rect
       x="38.34024"
       y="309.06564"
       width="60.631599"
       height="39.15691"
       rx="2.83465"
       id="rect22"
       style="fill:#1f1f1f" />
    <line
       x1="15.15604"
       y1="202"
       x2="90.156036"
       y2="202"
       id="line24"
       style="fill:none;stroke:#1f1f1f;stroke-width:0.80000001;stroke-linecap:round;stroke-linejoin:round" />
    <g
       id="g34">
      <circle
         cx="78.735924"
         cy="166.5"
         r="26.48818"
         style="opacity:0.68999999;isolation:isolate;fill:none"
         id="circle26" />
      <path
         d="m 89.53415,184.60266 a 20.94666,20.94666 0 1 0 -21.451,0.0749"
         stroke-miterlimit="10"
         id="path28"
         inkscape:connector-curvature="0"
         style="fill:none;stroke:#1f1f1f;stroke-width:0.80000001;stroke-linecap:round;stroke-miterlimit:10" />
      <line
         x1="89.534149"
         y1="184.60266"
         x2="78.735924"
         y2="166.5"
         id="line30"
         style="fill:none" />
      <line
         x1="78.745819"
         y1="145.7012"
         x2="78.745819"
         y2="159.12279"
         stroke-miterlimit="10"
         id="line32"
         style="fill:none;stroke:#1f1f1f;stroke-width:0.80000001;stroke-linecap:round;stroke-miterlimit:10" />
    </g>
    <g
       id="g42">
      <circle
         cx="51.93829"
         cy="88.016998"
         r="38.445641"
         style="opacity:0.68999999;isolation:isolate;fill:none"
         id="circle36" />
      <path
         d="M 67.61111,114.29167 A 30.40252,30.40252 0 1 0 36.4765,114.40036"
         stroke-miterlimit="10"
         id="path38"
         inkscape:connector-curvature="0"
         style="fill:none;stroke:#1f1f1f;stroke-width:0.80000001;stroke-linecap:round;stroke-miterlimit:10" />
      <line
         x1="67.611107"
         y1="114.29167"
         x2="51.93829"
         y2="88.016998"
         id="line40"
         style="fill:none" />
    </g>
    <g
       id="g50">
      <circle
         cx="26.26408"
         cy="166.5"
         r="26.48818"
         style="opacity:0.68999999;isolation:isolate;fill:none"
         id="circle44" />
      <path
         d="m 37.0623,184.60266 a 20.94666,20.94666 0 1 0 -21.451,0.0749"
         stroke-miterlimit="10"
         id="path46"
         inkscape:connector-curvature="0"
         style="fill:none;stroke:#1f1f1f;stroke-width:0.80000001;stroke-linecap:round;stroke-miterlimit:10" />
      <line
         x1="37.062302"
         y1="184.60266"
         x2="26.26408"
         y2="166.5"
         id="line48"
         style="fill:none" />
    </g>
    <g
       id="g58">
      <line
         x1="20.65605"
         y1="250.87459"
         x2="20.65605"
         y2="260.07654"
         id="line52"
         style="fill:none;stroke:#1f1f1f;stroke-width:0.80000001;stroke-linecap:round;stroke-linejoin:round" />
      <line
         x1="20.65605"
         y1="226.54018"
         x2="20.65605"
         y2="238.01958"
         id="line54"
         style="fill:none;stroke:#1f1f1f;stroke-linecap:round;stroke-linejoin:round" />
      <path
         d="m 26.59639,247.88639 a 11.5338,11.5338 0 1 0 -11.81152,0.0412"
         id="path56"
         inkscape:connector-curvature="0"
         style="fill:none;stroke:#1f1f1f;stroke-linecap:round;stroke-linejoin:round" />
    </g>
    <g
       id="g66">
      <line
         x1="52.65604"
         y1="250.87459"
         x2="52.65604"
         y2="260.07654"
         id="line60"
         style="fill:none;stroke:#1f1f1f;stroke-width:0.80000001;stroke-linecap:round;stroke-linejoin:round" />
      <line
         x1="52.65604"
         y1="226.54018"
         x2="52.65604"
         y2="238.01958"
         id="line62"
         style="fill:none;stroke:#1f1f1f;stroke-linecap:round;stroke-linejoin:round" />
      <path
         d="m 58.59638,247.88639 a 11.5338,11.5338 0 1 0 -11.81152,0.0412"
         id="path64"
         inkscape:connector-curvature="0"
         style="fill:none;stroke:#1f1f1f;stroke-linecap:round;stroke-linejoin:round" />
    </g>
    <g
       id="g74">
      <line
         x1="84.656036"
         y1="250.87459"
         x2="84.656036"
         y2="260.07654"
         id="line68"
         style="fill:none;stroke:#1f1f1f;stroke-width:0.80000001;stroke-linecap:round;stroke-linejoin:round" />
      <line
         x1="84.656036"
         y1="226.54018"
         x2="84.656036"
         y2="238.01958"
         id="line70"
         style="fill:none;stroke:#1f1f1f;stroke-linecap:round;stroke-linejoin:round" />
      <path
         d="m 90.59638,247.88639 a 11.5338,11.5338 0 1 0 -11.81152,0.0412"
         id="path72"
         inkscape:connector-curvature="0"
         style="fill:none;stroke:#1f1f1f;stroke-linecap:round;stroke-linejoin:round" />
    </g>
  </g>
  <g
     id="baec97a9-4811-4dbc-ac5b-52231b9f4c1d"
     data-name="FND TXT"
     style="display:inline">
    <g
       id="g89">
      <path
         d="m 34.96436,48.20605 v -0.0166 a 2.9565,2.9565 0 0 1 3.01318,-3.02145 3.06366,3.06366 0 0 1 2.00293,0.65918 0.51366,0.51366 0 0 1 0.20019,0.40918 0.51255,0.51255 0 0 1 -0.81738,0.40039 2.1214,2.1214 0 0 0 -1.394,-0.52539 1.96658,1.96658 0 0 0 -1.92828,2.06149 v 0.0166 a 1.96839,1.96839 0 0 0 1.92822,2.06983 2.09569,2.09569 0 0 0 1.46045,-0.55908 0.46663,0.46663 0 0 1 0.30859,-0.11719 0.47956,0.47956 0 0 1 0.31738,0.84326 2.98583,2.98583 0 0 1 -2.12011,0.78467 2.93868,2.93868 0 0 1 -2.97117,-3.00489 z"
         id="path77"
         inkscape:connector-curvature="0"
         style="fill:#1f1f1f" />
      <path
         d="m 41.43994,48.63184 v -2.89649 a 0.51345,0.51345 0 0 1 1.02686,0 v 2.85449 c 0,1.085 0.55859,1.66114 1.47754,1.66114 0.90918,0 1.46875,-0.54248 1.46875,-1.61914 v -2.89649 a 0.5132,0.5132 0 0 1 1.02636,0 v 2.84619 a 2.33316,2.33316 0 0 1 -2.51269,2.62061 2.30282,2.30282 0 0 1 -2.48682,-2.57031 z"
         id="path79"
         inkscape:connector-curvature="0"
         style="fill:#1f1f1f" />
      <path
         d="m 49.44434,46.21973 h -1.41895 a 0.47583,0.47583 0 0 1 0,-0.95166 h 3.88086 a 0.4759,0.4759 0 0 1 0,0.95166 h -1.42676 v 4.42334 a 0.51764,0.51764 0 0 1 -1.03515,0 z"
         id="path81"
         inkscape:connector-curvature="0"
         style="fill:#1f1f1f" />
      <path
         d="m 53.00391,48.20605 v -0.0166 a 3.055,3.055 0 0 1 6.10937,-0.0166 v 0.0166 a 3.055,3.055 0 0 1 -6.10937,0.0166 z m 5.0332,0 v -0.0166 a 2.0015,2.0015 0 0 0 -1.98633,-2.07812 1.9739,1.9739 0 0 0 -1.96973,2.06152 v 0.0166 a 1.99471,1.99471 0 0 0 1.98633,2.06983 1.96715,1.96715 0 0 0 1.96973,-2.05323 z"
         id="path83"
         inkscape:connector-curvature="0"
         style="fill:#1f1f1f" />
      <path
         d="m 60.54,45.78516 a 0.5095,0.5095 0 0 1 0.51758,-0.51709 h 3.40527 a 0.46753,0.46753 0 1 1 0,0.935 h -2.89644 v 1.59376 h 2.5205 a 0.46753,0.46753 0 1 1 0,0.935 h -2.5205 v 1.91114 a 0.5132,0.5132 0 0 1 -1.02637,0 z"
         id="path85"
         inkscape:connector-curvature="0"
         style="fill:#1f1f1f" />
      <path
         d="m 66.11133,45.78516 a 0.5095,0.5095 0 0 1 0.51758,-0.51709 h 3.40527 a 0.46753,0.46753 0 1 1 0,0.935 h -2.89551 v 1.59376 h 2.52051 a 0.46753,0.46753 0 1 1 0,0.935 h -2.52051 v 1.91114 a 0.51369,0.51369 0 0 1 -1.02734,0 z"
         id="path87"
         inkscape:connector-curvature="0"
         style="fill:#1f1f1f" />
    </g>
    <g
       id="g97">
      <path
         d="m 18.33789,133.294 a 0.50991,0.50991 0 0 1 0.51758,-0.51758 h 2.08691 a 2.35524,2.35524 0 0 1 1.686,0.58447 1.766,1.766 0 0 1 0.48388,1.26025 v 0.0166 a 1.72911,1.72911 0 0 1 -1.32714,1.74462 l 1.11865,1.41065 a 0.59458,0.59458 0 0 1 0.167,0.39209 0.48421,0.48421 0 0 1 -0.49268,0.47558 0.587,0.587 0 0 1 -0.501,-0.26709 l -1.41895,-1.811 h -1.29339 v 1.56934 a 0.51345,0.51345 0 0 1 -1.02686,0 z m 2.5293,2.3789 c 0.73437,0 1.20166,-0.38379 1.20166,-0.97656 v -0.0166 c 0,-0.626 -0.45069,-0.96826 -1.21,-0.96826 h -1.4941 v 1.96142 z"
         id="path91"
         inkscape:connector-curvature="0"
         style="fill:#1f1f1f" />
      <path
         d="M 24.59277,138.10156 V 133.294 a 0.50991,0.50991 0 0 1 0.51758,-0.51758 h 3.397 a 0.46373,0.46373 0 0 1 0.45948,0.45947 0.45824,0.45824 0 0 1 -0.45948,0.459 h -2.88772 v 1.519 h 2.51221 a 0.46467,0.46467 0 0 1 0.459,0.46728 0.45579,0.45579 0 0 1 -0.459,0.45069 h -2.51221 v 1.56933 h 2.92969 a 0.46289,0.46289 0 0 1 0.459,0.459 0.45751,0.45751 0 0 1 -0.459,0.459 h -3.439 a 0.50992,0.50992 0 0 1 -0.51755,-0.51763 z"
         id="path93"
         inkscape:connector-curvature="0"
         style="fill:#1f1f1f" />
      <path
         d="m 30.21,137.96826 a 0.47879,0.47879 0 0 1 0.28369,-0.86816 0.47289,0.47289 0 0 1 0.3003,0.0918 2.53592,2.53592 0 0 0 1.63623,0.60108 c 0.63427,0 1.03466,-0.30078 1.03466,-0.73486 v -0.0166 c 0,-0.417 -0.23339,-0.64257 -1.31836,-0.89306 -1.24365,-0.3003 -1.94482,-0.66748 -1.94482,-1.74414 v -0.0171 a 1.78689,1.78689 0 0 1 1.99463,-1.69434 3.2153,3.2153 0 0 1 1.853,0.543 0.4628,0.4628 0 0 1 0.22509,0.40869 0.47706,0.47706 0 0 1 -0.48388,0.47559 0.4988,0.4988 0 0 1 -0.26709,-0.0747 2.42724,2.42724 0 0 0 -1.34375,-0.44238 c -0.60108,0 -0.95166,0.30859 -0.95166,0.69238 v 0.0171 c 0,0.45068 0.26709,0.65088 1.394,0.918 1.23535,0.30029 1.86963,0.74267 1.86963,1.71094 v 0.0166 c 0,1.09375 -0.85986,1.74463 -2.08691,1.74463 A 3.63834,3.63834 0 0 1 30.21,137.96826 Z"
         id="path95"
         inkscape:connector-curvature="0"
         style="fill:#1f1f1f" />
    </g>
    <g
       id="g109">
      <path
         d="m 65.65381,133.294 a 0.50991,0.50991 0 0 1 0.51758,-0.51758 h 1.66113 a 2.91237,2.91237 0 0 1 3.105,2.90478 v 0.0166 a 2.92487,2.92487 0 0 1 -3.105,2.92139 h -1.66113 a 0.50991,0.50991 0 0 1 -0.51758,-0.51758 z m 2.17871,4.39062 a 1.90457,1.90457 0 0 0 2.02832,-1.97021 v -0.0166 a 1.91708,1.91708 0 0 0 -2.02832,-1.98632 h -1.15186 v 3.97314 z"
         id="path99"
         inkscape:connector-curvature="0"
         style="fill:#1f1f1f" />
      <path
         d="m 72.35059,133.294 a 0.50991,0.50991 0 0 1 0.51757,-0.51758 h 2.08692 a 2.35521,2.35521 0 0 1 1.686,0.58447 1.766,1.766 0 0 1 0.48389,1.26025 v 0.0166 a 1.72911,1.72911 0 0 1 -1.32715,1.74462 l 1.11868,1.41063 a 0.59459,0.59459 0 0 1 0.167,0.39209 0.48421,0.48421 0 0 1 -0.49268,0.47558 0.587,0.587 0 0 1 -0.501,-0.26709 l -1.41894,-1.811 h -1.29344 v 1.56934 a 0.51345,0.51345 0 0 1 -1.02685,0 z m 2.52929,2.3789 c 0.73438,0 1.20166,-0.38379 1.20166,-0.97656 v -0.0166 c 0,-0.626 -0.45068,-0.96826 -1.21,-0.96826 h -1.4941 v 1.96142 z"
         id="path101"
         inkscape:connector-curvature="0"
         style="fill:#1f1f1f" />
      <path
         d="m 78.63672,133.24414 a 0.51344,0.51344 0 0 1 1.02685,0 v 4.90772 a 0.51345,0.51345 0 0 1 -1.02685,0 z"
         id="path103"
         inkscape:connector-curvature="0"
         style="fill:#1f1f1f" />
      <path
         d="m 82.97363,138.28516 -2.04492,-4.80762 a 0.57606,0.57606 0 0 1 -0.0581,-0.2417 0.50581,0.50581 0 0 1 0.51757,-0.501 0.53744,0.53744 0 0 1 0.52588,0.36719 l 1.68555,4.21484 1.71143,-4.248 a 0.52861,0.52861 0 0 1 0.49218,-0.334 0.49716,0.49716 0 0 1 0.50928,0.49219 0.58686,0.58686 0 0 1 -0.05029,0.21729 l -2.05321,4.84081 a 0.61111,0.61111 0 0 1 -0.59228,0.41748 h -0.05859 a 0.60935,0.60935 0 0 1 -0.5845,-0.41748 z"
         id="path105"
         inkscape:connector-curvature="0"
         style="fill:#1f1f1f" />
      <path
         d="M 87.49658,138.10156 V 133.294 a 0.50991,0.50991 0 0 1 0.51758,-0.51758 h 3.397 a 0.46373,0.46373 0 0 1 0.45948,0.45947 0.45824,0.45824 0 0 1 -0.45948,0.459 h -2.88772 v 1.519 h 2.5122 a 0.46467,0.46467 0 0 1 0.459,0.46728 0.4558,0.4558 0 0 1 -0.459,0.45069 h -2.5122 v 1.56933 h 2.92968 a 0.46289,0.46289 0 0 1 0.459,0.459 0.45751,0.45751 0 0 1 -0.459,0.459 h -3.439 a 0.50992,0.50992 0 0 1 -0.51754,-0.51763 z"
         id="path107"
         inkscape:connector-curvature="0"
         style="fill:#1f1f1f" />
    </g>
    <g
       id="g117">
      <path
         d="m 13.61133,268.60791 v -0.0137 a 2.39976,2.39976 0 0 1 2.44531,-2.45264 2.48648,2.48648 0 0 1 1.626,0.53516 0.41707,0.41707 0 0 1 0.16308,0.332 0.41658,0.41658 0 0 1 -0.66406,0.32519 1.72349,1.72349 0 0 0 -1.13184,-0.42675 1.59615,1.59615 0 0 0 -1.56445,1.67382 v 0.0132 a 1.59777,1.59777 0 0 0 1.56445,1.68017 1.6971,1.6971 0 0 0 1.18555,-0.4541 0.38371,0.38371 0 0 1 0.251,-0.0947 0.39658,0.39658 0 0 1 0.39306,0.38623 0.40168,0.40168 0 0 1 -0.13525,0.29834 2.42565,2.42565 0 0 1 -1.72119,0.63672 2.38475,2.38475 0 0 1 -2.41166,-2.43894 z"
         id="path111"
         inkscape:connector-curvature="0"
         style="fill:#1f1f1f" />
      <path
         d="m 18.92676,268.95312 v -2.35058 a 0.41652,0.41652 0 0 1 0.833,0 v 2.31689 c 0,0.88086 0.4541,1.34815 1.19921,1.34815 0.73829,0 1.19239,-0.44043 1.19239,-1.31446 v -2.35058 a 0.41652,0.41652 0 0 1 0.833,0 v 2.31055 a 1.89338,1.89338 0 0 1 -2.03905,2.12691 1.86943,1.86943 0 0 1 -2.01855,-2.08688 z"
         id="path113"
         inkscape:connector-curvature="0"
         style="fill:#1f1f1f" />
      <path
         d="m 25.4834,266.99561 h -1.15186 a 0.38624,0.38624 0 0 1 0,-0.77247 h 3.15039 a 0.3863,0.3863 0 0 1 0,0.77247 h -1.15869 v 3.59033 a 0.42,0.42 0 0 1 -0.83984,0 z"
         id="path115"
         inkscape:connector-curvature="0"
         style="fill:#1f1f1f" />
    </g>
    <g
       id="g125">
      <path
         d="m 46.16211,266.64307 a 0.41381,0.41381 0 0 1 0.41992,-0.41993 h 1.69434 a 1.91128,1.91128 0 0 1 1.36816,0.47413 1.43307,1.43307 0 0 1 0.39258,1.02343 v 0.0132 a 1.40334,1.40334 0 0 1 -1.07715,1.416 l 0.9082,1.145 a 0.484,0.484 0 0 1 0.13575,0.31836 0.39331,0.39331 0 0 1 -0.40039,0.38623 0.47667,0.47667 0 0 1 -0.40625,-0.2168 L 48.0459,269.3125 h -1.05029 v 1.27344 a 0.41676,0.41676 0 0 1 -0.8335,0 z m 2.05273,1.93115 c 0.59668,0 0.97559,-0.31152 0.97559,-0.793 v -0.0137 c 0,-0.50781 -0.36572,-0.78565 -0.98242,-0.78565 h -1.2124 v 1.59229 z"
         id="path119"
         inkscape:connector-curvature="0"
         style="fill:#1f1f1f" />
      <path
         d="m 51.29492,270.54541 v -3.90234 a 0.41351,0.41351 0 0 1 0.41992,-0.41993 h 2.75733 a 0.37567,0.37567 0 0 1 0.37256,0.37256 0.37125,0.37125 0 0 1 -0.37256,0.37256 h -2.34424 v 1.23291 H 54.167 a 0.378,0.378 0 0 1 0.373,0.37988 0.37025,0.37025 0 0 1 -0.373,0.36573 h -2.03907 v 1.27343 h 2.37793 a 0.37642,0.37642 0 0 1 0.373,0.37256 0.37239,0.37239 0 0 1 -0.373,0.37305 h -2.791 a 0.41362,0.41362 0 0 1 -0.41994,-0.42041 z"
         id="path121"
         inkscape:connector-curvature="0"
         style="fill:#1f1f1f" />
      <path
         d="m 55.90918,270.437 a 0.39441,0.39441 0 0 1 0.47461,-0.62988 2.05494,2.05494 0 0 0 1.32715,0.48779 c 0.51562,0 0.84082,-0.24414 0.84082,-0.59619 v -0.0137 c 0,-0.33838 -0.19043,-0.52149 -1.0708,-0.7251 -1.00928,-0.24365 -1.57862,-0.542 -1.57862,-1.416 v -0.0132 a 1.45075,1.45075 0 0 1 1.61914,-1.37549 2.61043,2.61043 0 0 1 1.50391,0.44043 0.37669,0.37669 0 0 1 0.18311,0.332 0.38765,0.38765 0 0 1 -0.39307,0.38623 0.405,0.405 0 0 1 -0.2168,-0.061 1.9702,1.9702 0 0 0 -1.09082,-0.35938 c -0.4873,0 -0.77246,0.251 -0.77246,0.5625 v 0.0137 c 0,0.36572 0.2168,0.52832 1.13184,0.74511 1.00293,0.24414 1.51758,0.603 1.51758,1.38868 v 0.0137 c 0,0.88769 -0.69825,1.416 -1.69385,1.416 a 2.95134,2.95134 0 0 1 -1.78174,-0.5962 z"
         id="path123"
         inkscape:connector-curvature="0"
         style="fill:#1f1f1f" />
    </g>
    <g
       id="g137">
      <path
         d="m 74.01562,266.64307 a 0.41422,0.41422 0 0 1 0.42042,-0.41993 h 1.34814 a 2.36416,2.36416 0 0 1 2.52051,2.35791 v 0.0132 a 2.375,2.375 0 0 1 -2.52051,2.37158 H 74.436 a 0.41433,0.41433 0 0 1 -0.42042,-0.42041 z m 1.76856,3.564 a 1.54589,1.54589 0 0 0 1.64648,-1.59912 v -0.0137 a 1.55613,1.55613 0 0 0 -1.64648,-1.61231 h -0.93457 v 3.2251 z"
         id="path127"
         inkscape:connector-curvature="0"
         style="fill:#1f1f1f" />
      <path
         d="m 79.50781,266.64307 a 0.41381,0.41381 0 0 1 0.41992,-0.41993 h 1.69434 a 1.91126,1.91126 0 0 1 1.36816,0.47413 1.43307,1.43307 0 0 1 0.39258,1.02343 v 0.0132 a 1.40334,1.40334 0 0 1 -1.07715,1.416 l 0.90821,1.145 a 0.48408,0.48408 0 0 1 0.13574,0.31836 0.39331,0.39331 0 0 1 -0.40039,0.38623 0.4767,0.4767 0 0 1 -0.40625,-0.2168 L 81.3916,269.3125 h -1.05029 v 1.27344 a 0.41676,0.41676 0 0 1 -0.8335,0 z m 2.05274,1.93115 c 0.59668,0 0.97558,-0.31152 0.97558,-0.793 v -0.0137 c 0,-0.50781 -0.36572,-0.78565 -0.98242,-0.78565 h -1.2124 v 1.59229 z"
         id="path129"
         inkscape:connector-curvature="0"
         style="fill:#1f1f1f" />
      <path
         d="m 84.666,266.60254 a 0.41676,0.41676 0 0 1 0.83349,0 v 3.9834 a 0.41676,0.41676 0 0 1 -0.83349,0 z"
         id="path131"
         inkscape:connector-curvature="0"
         style="fill:#1f1f1f" />
      <path
         d="M 88.24414,270.69434 86.584,266.792 a 0.45981,0.45981 0 0 1 -0.04736,-0.19629 0.41064,0.41064 0 0 1 0.41992,-0.40625 0.43735,0.43735 0 0 1 0.42725,0.29785 l 1.36816,3.42139 1.38865,-3.4487 a 0.42967,0.42967 0 0 1 0.39991,-0.27051 0.40375,0.40375 0 0 1 0.41357,0.39942 0.47713,0.47713 0 0 1 -0.041,0.17627 l -1.66651,3.9292 a 0.4965,0.4965 0 0 1 -0.481,0.33886 h -0.04785 a 0.49357,0.49357 0 0 1 -0.4736,-0.3389 z"
         id="path133"
         inkscape:connector-curvature="0"
         style="fill:#1f1f1f" />
      <path
         d="m 91.97363,270.54541 v -3.90234 a 0.41351,0.41351 0 0 1 0.41992,-0.41993 h 2.75684 a 0.37609,0.37609 0 0 1 0.373,0.37256 0.37166,0.37166 0 0 1 -0.373,0.37256 h -2.34375 v 1.23291 h 2.03906 a 0.37829,0.37829 0 0 1 0.37305,0.37988 0.37056,0.37056 0 0 1 -0.37305,0.36573 h -2.03906 v 1.27343 h 2.37793 a 0.376,0.376 0 0 1 0.37256,0.37256 0.372,0.372 0 0 1 -0.37256,0.37305 h -2.791 a 0.41362,0.41362 0 0 1 -0.41994,-0.42041 z"
         id="path135"
         inkscape:connector-curvature="0"
         style="fill:#1f1f1f" />
    </g>
    <g
       id="g145">
      <path
         d="m 46.45752,314.648 a 0.52173,0.52173 0 0 1 1.04346,0 v 3.313 h 1.93115 a 0.47412,0.47412 0 0 1 0,0.94824 h -2.45264 a 0.51748,0.51748 0 0 1 -0.522,-0.52148 z"
         id="path139"
         inkscape:connector-curvature="0"
         style="fill:#f0f0f0" />
      <path
         d="m 50.80713,314.68848 a 0.51738,0.51738 0 0 1 0.52148,-0.52149 h 1.416 a 1.62428,1.62428 0 0 1 1.81543,1.63965 v 0.0137 a 1.69513,1.69513 0 0 1 -1.917,1.66651 h -0.793 v 0.94189 a 0.5215,0.5215 0 1 1 -1.043,0 z m 1.86963,1.87011 a 0.73449,0.73449 0 0 0 0.82666,-0.71826 v -0.0132 c 0,-0.46777 -0.3252,-0.71875 -0.84717,-0.71875 H 51.8501 v 1.45019 z"
         id="path141"
         inkscape:connector-curvature="0"
         style="fill:#f0f0f0" />
      <path
         d="m 55.54443,314.68848 a 0.51779,0.51779 0 0 1 0.522,-0.52149 h 2.65576 a 0.47412,0.47412 0 0 1 0,0.94824 h -2.1343 v 1.00977 h 1.82959 a 0.47412,0.47412 0 1 1 0,0.94824 h -1.82959 v 1.35547 a 0.52173,0.52173 0 0 1 -1.04346,0 z"
         id="path143"
         inkscape:connector-curvature="0"
         style="fill:#f0f0f0" />
    </g>
    <g
       id="g153">
      <path
         d="m 77.93018,314.648 a 0.52173,0.52173 0 0 1 1.04345,0 v 1.396 H 80.898 v -1.396 a 0.5215,0.5215 0 1 1 1.043,0 v 3.78076 a 0.5215,0.5215 0 1 1 -1.043,0 v -1.42285 h -1.92437 v 1.42285 a 0.52173,0.52173 0 0 1 -1.04345,0 z"
         id="path147"
         inkscape:connector-curvature="0"
         style="fill:#f0f0f0" />
      <path
         d="m 83.3335,314.68848 a 0.51738,0.51738 0 0 1 0.52148,-0.52149 h 1.416 a 1.62428,1.62428 0 0 1 1.81543,1.63965 v 0.0137 a 1.69513,1.69513 0 0 1 -1.917,1.66651 h -0.793 v 0.94189 a 0.5215,0.5215 0 1 1 -1.043,0 z m 1.86962,1.87011 a 0.73449,0.73449 0 0 0 0.82667,-0.71826 v -0.0132 c 0,-0.46777 -0.3252,-0.71875 -0.84717,-0.71875 h -0.80616 v 1.45019 z"
         id="path149"
         inkscape:connector-curvature="0"
         style="fill:#f0f0f0" />
      <path
         d="m 88.0708,314.68848 a 0.51779,0.51779 0 0 1 0.522,-0.52149 h 2.65577 a 0.47412,0.47412 0 0 1 0,0.94824 h -2.13431 v 1.00977 h 1.82959 a 0.47412,0.47412 0 1 1 0,0.94824 h -1.82959 v 1.35547 a 0.52173,0.52173 0 0 1 -1.04346,0 z"
         id="path151"
         inkscape:connector-curvature="0"
         style="fill:#f0f0f0" />
    </g>
    <g
       id="g159">
      <path
         d="m 17.45605,314.54639 a 0.41676,0.41676 0 0 1 0.8335,0 v 3.98388 a 0.41677,0.41677 0 0 1 -0.8335,0 z"
         id="path155"
         inkscape:connector-curvature="0"
         style="fill:#1f1f1f" />
      <path
         d="m 19.76562,314.56006 a 0.41783,0.41783 0 0 1 0.41993,-0.42041 h 0.08789 a 0.52316,0.52316 0 0 1 0.43359,0.24414 l 2.37158,3.06933 v -2.91357 a 0.40968,0.40968 0 0 1 0.81934,0 v 3.98389 a 0.40441,0.40441 0 0 1 -0.40625,0.41308 H 23.458 a 0.52292,0.52292 0 0 1 -0.4336,-0.251 l -2.439,-3.15674 v 3.0083 a 0.40993,0.40993 0 0 1 -0.81983,0 z"
         id="path157"
         inkscape:connector-curvature="0"
         style="fill:#1f1f1f" />
    </g>
    <g
       id="g167">
      <path
         d="m 42.752,27.66113 -2.84082,-6.79394 a 1.203,1.203 0 0 1 -0.1123,-0.46338 0.94544,0.94544 0 0 1 0.96338,-0.95069 1.00207,1.00207 0 0 1 0.97607,0.67579 l 2.18945,5.668 2.21485,-5.73047 a 0.99829,0.99829 0 0 1 0.92578,-0.61329 0.92975,0.92975 0 0 1 0.95117,0.92579 1.10523,1.10523 0 0 1 -0.10058,0.42529 l -2.86524,6.85693 a 1.1298,1.1298 0 0 1 -1.08789,0.76319 h -0.126 A 1.1298,1.1298 0 0 1 42.752,27.66113 Z"
         id="path161"
         inkscape:connector-curvature="0"
         style="fill:#1f1f1f" />
      <path
         d="m 48.78223,23.93262 v -0.02539 a 4.45145,4.45145 0 0 1 4.5664,-4.5293 4.64009,4.64009 0 0 1 2.92871,0.88867 0.962,0.962 0 0 1 0.375,0.7627 0.94,0.94 0 0 1 -0.95117,0.93847 1.00817,1.00817 0 0 1 -0.57519,-0.1875 2.88239,2.88239 0 0 0 -1.78907,-0.62548 2.59488,2.59488 0 0 0 -2.54,2.72753 v 0.02491 a 2.60136,2.60136 0 0 0 2.54,2.75293 2.81172,2.81172 0 0 0 1.90137,-0.68848 0.89265,0.89265 0 1 1 1.15137,1.36426 4.61549,4.61549 0 0 1 -7.60742,-3.40332 z"
         id="path163"
         inkscape:connector-curvature="0"
         style="fill:#1f1f1f" />
      <path
         d="m 58.47754,20.49121 a 0.95607,0.95607 0 0 1 0.96387,-0.96289 h 4.90429 a 0.87574,0.87574 0 1 1 0,1.75147 H 60.4043 V 23.144 h 3.3789 a 0.87574,0.87574 0 0 1 0,1.75147 h -3.3789 v 2.50293 a 0.96338,0.96338 0 1 1 -1.92676,0 z"
         id="path165"
         inkscape:connector-curvature="0"
         style="fill:#1f1f1f" />
    </g>
  </g>
  <g
     id="a128092d-2510-4973-9878-2442c71d2231"
     data-name="components"
     style="display:none"
     inkscape:groupmode="layer">
    <circle
       id="fc5bd8bf-97b0-4e2c-9006-1a740a858cab"
       data-name="Lpf#PJ301MPort"
       cx="52.65604"
       cy="334"
       r="5"
       style="fill:#0000ff" />
    <circle
       id="a3b91970-114f-451d-ac91-296a59d8a068"
       data-name="Hpf#PJ301MPort"
       cx="84.656036"
       cy="334"
       r="5"
       style="fill:#0000ff" />
    <circle
       id="a7d83005-29bc-46d3-8517-ba85bdc3a06d"
       data-name="In#PJ301MPort"
       cx="20.65605"
       cy="334"
       r="5"
       style="fill:#00ff00" />
    <circle
       id="a22fa6b2-a6b3-4a0a-8d98-34d51a5658ad"
       data-name="Cut#PJ301MPort"
       cx="20.65605"
       cy="285.86591"
       r="5"
       style="fill:#00ff00" />
    <circle
       id="b0c2675d-91f5-4528-ba72-105f4ff2498a"
       data-name="CutCv#Trimpot"
       cx="20.65605"
       cy="238"
       r="5"
       style="fill:#ff0000" />
    <circle
       id="a9c8915f-b93c-493d-a224-092bef683e08"
       data-name="ResCv#Trimpot"
       cx="52.65604"
       cy="238"
       r="5"
       style="fill:#ff0000" />
    <circle
       id="ee5a48d7-48dc-4768-a1a5-28f2f2a3e1eb"
       data-name="DriveCv#Trimpot"
       cx="84.656036"
       cy="238"
       r="5"
       style="fill:#ff0000" />
    <circle
       id="b21d6cde-ff83-4b0e-a889-76055c3c0233"
       data-name="Res#PJ301MPort"
       cx="52.65604"
       cy="285.86591"
       r="5"
       style="fill:#00ff00" />
    <circle
       id="b2d28c7c-a11c-4ab0-a5c3-6beb5573a87b"
       data-name="Drive#PJ301MPort"
       cx="84.656036"
       cy="285.86591"
       r="5"
       style="fill:#00ff00" />
    <circle
       id="a876a08f-9142-4d57-8c47-7002d06d9b75"
       data-name="Res#RoundLargeBlackKnob"
       cx="26.26408"
       cy="166.5"
       r="5"
       style="fill:#ff0000" />
    <circle
       id="be61490f-3b82-449b-88b2-ea6e8d4cd909"
       data-name="Drive#RoundLargeBlackKnob"
       cx="78.735924"
       cy="166.5"
       r="5"
       style="fill:#ff0000" />
    <circle
       id="a9d18687-563d-45d1-8017-2a963885c0cd"
       data-name="Cut#RoundHugeBlackKnob"
       cx="51.931"
       cy="88.016998"
       r="5"
       style="fill:#ff0000" />
  </g>
</svg>
