<?xml version="1.0" encoding="UTF-8" standalone="no"?>
<svg
   xmlns:dc="http://purl.org/dc/elements/1.1/"
   xmlns:cc="http://creativecommons.org/ns#"
   xmlns:rdf="http://www.w3.org/1999/02/22-rdf-syntax-ns#"
   xmlns:svg="http://www.w3.org/2000/svg"
   xmlns="http://www.w3.org/2000/svg"
   xmlns:sodipodi="http://sodipodi.sourceforge.net/DTD/sodipodi-0.dtd"
   xmlns:inkscape="http://www.inkscape.org/namespaces/inkscape"
   width="105"
   height="380"
   viewBox="0 0 105 380"
   version="1.1"
   id="svg183"
   sodipodi:docname="VCF.svg"
   inkscape:version="0.92.3 (2405546, 2018-03-11)">
  <metadata
     id="metadata187">
    <rdf:RDF>
      <cc:Work
         rdf:about="">
        <dc:format>image/svg+xml</dc:format>
        <dc:type
           rdf:resource="http://purl.org/dc/dcmitype/StillImage" />
      </cc:Work>
    </rdf:RDF>
  </metadata>
  <sodipodi:namedview
     pagecolor="#ffffff"
     bordercolor="#666666"
     borderopacity="1"
     objecttolerance="10"
     gridtolerance="10"
     guidetolerance="10"
     inkscape:pageopacity="0"
     inkscape:pageshadow="2"
     inkscape:window-width="1920"
     inkscape:window-height="1017"
     id="namedview185"
     showgrid="false"
     inkscape:zoom="0.62105263"
     inkscape:cx="52.5"
     inkscape:cy="190"
     inkscape:window-x="-8"
     inkscape:window-y="-8"
     inkscape:window-maximized="1"
     inkscape:current-layer="svg183" />
  <defs
     id="defs7">
    <linearGradient
       id="b0234e08-fdca-44f0-b5b7-019b02f0775b"
       x1="52.5"
       x2="52.5"
       y2="380"
       gradientUnits="userSpaceOnUse">
      <stop
         offset="0"
         stop-color="#ebebeb"
         id="stop2" />
      <stop
         offset="1"
         stop-color="#e1e1e1"
         id="stop4" />
    </linearGradient>
  </defs>
  <g
     id="b3947816-d40f-41db-852f-d14f402c3ab2"
     data-name="FND BG">
    <rect
       width="105"
       height="380"
       fill="url(#b0234e08-fdca-44f0-b5b7-019b02f0775b)"
       id="rect9" />
  </g>
  <g
     id="ebfda241-6c6e-425a-b767-347eb0d27b39"
     data-name="FND GRAPH">
    <g
       id="g20">
      <path
         d="M44.35927,359.753a.91214.91214,0,0,1-.8158-.50418l-2.96428-5.92857a.91209.91209,0,0,1,1.6316-.8158l2.14848,4.297,2.14848-4.297a.91209.91209,0,0,1,1.6316.8158l-2.96428,5.92857A.91211.91211,0,0,1,44.35927,359.753Z"
         fill="#1f1f1f"
         id="path12" />
      <path
         d="M60.64073,359.753a.91211.91211,0,0,1-.8158-.50418l-2.96428-5.92857a.91209.91209,0,0,1,1.6316-.8158l2.14848,4.297,2.14848-4.297a.91209.91209,0,0,1,1.6316.8158l-2.96428,5.92857A.91214.91214,0,0,1,60.64073,359.753Z"
         fill="#1f1f1f"
         id="path14" />
      <path
         d="M52.94242,359.753a3.87637,3.87637,0,1,1,2.32653-6.97719.91209.91209,0,1,1-1.09557,1.45854,2.034,2.034,0,0,0-1.231-.40991,2.0522,2.0522,0,1,0,0,4.10439,2.034,2.034,0,0,0,1.231-.40991.91209.91209,0,1,1,1.09557,1.45854A3.8448,3.8448,0,0,1,52.94242,359.753Z"
         fill="#1f1f1f"
         id="path16" />
      <circle
         cx="53.00165"
         cy="355.83101"
         r="1.18571"
         fill="#1f1f1f"
         id="circle18" />
    </g>
    <rect
       x="38.34024"
       y="309.06564"
       width="60.6316"
       height="39.15691"
       rx="2.83465"
       fill="#1f1f1f"
       id="rect22" />
    <line
       x1="15.15604"
       y1="202"
       x2="90.15604"
       y2="202"
       fill="none"
       stroke="#1f1f1f"
       stroke-linecap="round"
       stroke-linejoin="round"
       stroke-width="0.8"
       id="line24" />
    <g
       id="g34">
      <circle
         cx="78.73592"
         cy="166.5"
         r="26.48818"
         fill="none"
         opacity="0.69"
         style="isolation: isolate"
         id="circle26" />
      <path
         d="M89.53415,184.60266a20.94666,20.94666,0,1,0-21.451.07488"
         fill="none"
         stroke="#1f1f1f"
         stroke-linecap="round"
         stroke-miterlimit="10"
         stroke-width="0.8"
         id="path28" />
      <line
         x1="89.53415"
         y1="184.60266"
         x2="78.73592"
         y2="166.5"
         fill="none"
         id="line30" />
      <line
         x1="78.74582"
         y1="145.70121"
         x2="78.74582"
         y2="159.12279"
         fill="none"
         stroke="#1f1f1f"
         stroke-linecap="round"
         stroke-miterlimit="10"
         stroke-width="0.8"
         id="line32" />
    </g>
    <g
       id="g42">
      <circle
         cx="51.93829"
         cy="88.017"
         r="38.44564"
         fill="none"
         opacity="0.69"
         style="isolation: isolate"
         id="circle36" />
      <path
         d="M67.61111,114.29167a30.40252,30.40252,0,1,0-31.13461.10869"
         fill="none"
         stroke="#1f1f1f"
         stroke-linecap="round"
         stroke-miterlimit="10"
         stroke-width="0.8"
         id="path38" />
      <line
         x1="67.61111"
         y1="114.29167"
         x2="51.93829"
         y2="88.017"
         fill="none"
         id="line40" />
    </g>
    <g
       id="g50">
      <circle
         cx="26.26408"
         cy="166.5"
         r="26.48818"
         fill="none"
         opacity="0.69"
         style="isolation: isolate"
         id="circle44" />
      <path
         d="M37.0623,184.60266a20.94666,20.94666,0,1,0-21.451.07488"
         fill="none"
         stroke="#1f1f1f"
         stroke-linecap="round"
         stroke-miterlimit="10"
         stroke-width="0.8"
         id="path46" />
      <line
         x1="37.0623"
         y1="184.60266"
         x2="26.26408"
         y2="166.5"
         fill="none"
         id="line48" />
    </g>
    <g
       id="g58">
      <line
         x1="20.65605"
         y1="250.87459"
         x2="20.65605"
         y2="260.07654"
         fill="none"
         stroke="#1f1f1f"
         stroke-linecap="round"
         stroke-linejoin="round"
         stroke-width="0.8"
         id="line52" />
      <line
         x1="20.65605"
         y1="226.54018"
         x2="20.65605"
         y2="238.01957"
         fill="none"
         stroke="#1f1f1f"
         stroke-linecap="round"
         stroke-linejoin="round"
         id="line54" />
      <path
         d="M12.50258,246.15346a11.53075,11.53075,0,1,1,16.30693,0"
         fill="none"
         stroke="#1f1f1f"
         stroke-linecap="round"
         stroke-linejoin="round"
         id="path56" />
    </g>
    <g
       id="g66">
      <line
         x1="52.65451"
         y1="250.87459"
         x2="52.65451"
         y2="260.07654"
         fill="none"
         stroke="#1f1f1f"
         stroke-linecap="round"
         stroke-linejoin="round"
         stroke-width="0.8"
         id="line60" />
      <line
         x1="52.65451"
         y1="226.54018"
         x2="52.65451"
         y2="238.01957"
         fill="none"
         stroke="#1f1f1f"
         stroke-linecap="round"
         stroke-linejoin="round"
         id="line62" />
      <path
         d="M44.50105,246.15346a11.53074,11.53074,0,1,1,16.30693,0"
         fill="none"
         stroke="#1f1f1f"
         stroke-linecap="round"
         stroke-linejoin="round"
         id="path64" />
    </g>
    <g
       id="g74">
      <line
         x1="84.65604"
         y1="250.87459"
         x2="84.65604"
         y2="260.07654"
         fill="none"
         stroke="#1f1f1f"
         stroke-linecap="round"
         stroke-linejoin="round"
         stroke-width="0.8"
         id="line68" />
      <line
         x1="84.65604"
         y1="226.54018"
         x2="84.65604"
         y2="238.01957"
         fill="none"
         stroke="#1f1f1f"
         stroke-linecap="round"
         stroke-linejoin="round"
         id="line70" />
      <path
         d="M76.50258,246.15346a11.53074,11.53074,0,1,1,16.30692,0"
         fill="none"
         stroke="#1f1f1f"
         stroke-linecap="round"
         stroke-linejoin="round"
         id="path72" />
    </g>
  </g>
  <g
     id="e6007b11-d098-455b-b353-233ce41f92df"
     data-name="FND TXT">
    <g
       id="g89">
      <path
         d="M34.96436,48.20605v-.0166A2.9565,2.9565,0,0,1,37.97754,45.168a3.06366,3.06366,0,0,1,2.00293.65918.51366.51366,0,0,1,.20019.40918.51255.51255,0,0,1-.81738.40039,2.1214,2.1214,0,0,0-1.394-.52539A1.96658,1.96658,0,0,0,36.041,48.17285v.0166a1.96839,1.96839,0,0,0,1.92822,2.06983,2.09569,2.09569,0,0,0,1.46045-.55908.46663.46663,0,0,1,.30859-.11719.47956.47956,0,0,1,.31738.84326,2.98583,2.98583,0,0,1-2.12011.78467A2.93868,2.93868,0,0,1,34.96436,48.20605Z"
         fill="#1f1f1f"
         id="path77" />
      <path
         d="M41.43994,48.63184V45.73535a.51345.51345,0,0,1,1.02686,0v2.85449c0,1.085.55859,1.66114,1.47754,1.66114.90918,0,1.46875-.54248,1.46875-1.61914V45.73535a.5132.5132,0,0,1,1.02636,0v2.84619a2.33316,2.33316,0,0,1-2.51269,2.62061A2.30282,2.30282,0,0,1,41.43994,48.63184Z"
         fill="#1f1f1f"
         id="path79" />
      <path
         d="M49.44434,46.21973H48.02539a.47583.47583,0,0,1,0-.95166h3.88086a.4759.4759,0,0,1,0,.95166H50.47949v4.42334a.51764.51764,0,0,1-1.03515,0Z"
         fill="#1f1f1f"
         id="path81" />
      <path
         d="M53.00391,48.20605v-.0166a3.055,3.055,0,0,1,6.10937-.0166v.0166a3.055,3.055,0,0,1-6.10937.0166Zm5.0332,0v-.0166a2.0015,2.0015,0,0,0-1.98633-2.07812,1.9739,1.9739,0,0,0-1.96973,2.06152v.0166a1.99471,1.99471,0,0,0,1.98633,2.06983A1.96715,1.96715,0,0,0,58.03711,48.20605Z"
         fill="#1f1f1f"
         id="path83" />
      <path
         d="M60.54,45.78516a.5095.5095,0,0,1,.51758-.51709h3.40527a.46753.46753,0,1,1,0,.935H61.56641v1.59376h2.5205a.46753.46753,0,1,1,0,.935h-2.5205v1.91114a.5132.5132,0,0,1-1.02637,0Z"
         fill="#1f1f1f"
         id="path85" />
      <path
         d="M66.11133,45.78516a.5095.5095,0,0,1,.51758-.51709h3.40527a.46753.46753,0,1,1,0,.935H67.13867v1.59376h2.52051a.46753.46753,0,1,1,0,.935H67.13867v1.91114a.51369.51369,0,0,1-1.02734,0Z"
         fill="#1f1f1f"
         id="path87" />
    </g>
    <g
       id="g97">
      <path
         d="M18.33789,133.294a.50991.50991,0,0,1,.51758-.51758h2.08691a2.35524,2.35524,0,0,1,1.686.58447,1.766,1.766,0,0,1,.48388,1.26025v.01661a1.72911,1.72911,0,0,1-1.32714,1.74462l1.11865,1.41065a.59458.59458,0,0,1,.167.39209.48421.48421,0,0,1-.49268.47558.587.587,0,0,1-.501-.26709l-1.41895-1.811H19.36475v1.56934a.51345.51345,0,0,1-1.02686,0Zm2.5293,2.3789c.73437,0,1.20166-.38379,1.20166-.97656v-.0166c0-.626-.45069-.96826-1.21-.96826H19.36475v1.96142Z"
         fill="#1f1f1f"
         id="path91" />
      <path
         d="M24.59277,138.10156V133.294a.50991.50991,0,0,1,.51758-.51758h3.397a.46373.46373,0,0,1,.45948.45947.45824.45824,0,0,1-.45948.459H25.61963v1.519h2.51221a.46467.46467,0,0,1,.459.46728.45579.45579,0,0,1-.459.45069H25.61963v1.56933h2.92969a.46289.46289,0,0,1,.459.459.45751.45751,0,0,1-.459.459h-3.439A.50992.50992,0,0,1,24.59277,138.10156Z"
         fill="#1f1f1f"
         id="path93" />
      <path
         d="M30.21,137.96826a.47879.47879,0,0,1,.28369-.86816.47289.47289,0,0,1,.3003.09179,2.53592,2.53592,0,0,0,1.63623.60108c.63427,0,1.03466-.30078,1.03466-.73486v-.01661c0-.417-.23339-.64257-1.31836-.89306-1.24365-.3003-1.94482-.66748-1.94482-1.74414v-.01709a1.78689,1.78689,0,0,1,1.99463-1.69434,3.2153,3.2153,0,0,1,1.853.543.4628.4628,0,0,1,.22509.40869.47706.47706,0,0,1-.48388.47559.4988.4988,0,0,1-.26709-.07471,2.42724,2.42724,0,0,0-1.34375-.44238c-.60108,0-.95166.30859-.95166.69238v.01709c0,.45068.26709.65088,1.394.918,1.23535.30029,1.86963.74267,1.86963,1.71094v.0166c0,1.09375-.85986,1.74463-2.08691,1.74463A3.63834,3.63834,0,0,1,30.21,137.96826Z"
         fill="#1f1f1f"
         id="path95" />
    </g>
    <g
       id="g109">
      <path
         d="M65.65381,133.294a.50991.50991,0,0,1,.51758-.51758h1.66113a2.91237,2.91237,0,0,1,3.105,2.90478v.0166a2.92487,2.92487,0,0,1-3.105,2.92139H66.17139a.50991.50991,0,0,1-.51758-.51758Zm2.17871,4.39062a1.90457,1.90457,0,0,0,2.02832-1.97021v-.01661a1.91708,1.91708,0,0,0-2.02832-1.98632H66.68066v3.97314Z"
         fill="#1f1f1f"
         id="path99" />
      <path
         d="M72.35059,133.294a.50991.50991,0,0,1,.51757-.51758h2.08692a2.35521,2.35521,0,0,1,1.686.58447,1.766,1.766,0,0,1,.48389,1.26025v.01661a1.72911,1.72911,0,0,1-1.32715,1.74462L76.9165,137.793a.59459.59459,0,0,1,.167.39209.48421.48421,0,0,1-.49268.47558.587.587,0,0,1-.501-.26709l-1.41894-1.811H73.37744v1.56934a.51345.51345,0,0,1-1.02685,0Zm2.52929,2.3789c.73438,0,1.20166-.38379,1.20166-.97656v-.0166c0-.626-.45068-.96826-1.21-.96826H73.37744v1.96142Z"
         fill="#1f1f1f"
         id="path101" />
      <path
         d="M78.63672,133.24414a.51344.51344,0,0,1,1.02685,0v4.90772a.51345.51345,0,0,1-1.02685,0Z"
         fill="#1f1f1f"
         id="path103" />
      <path
         d="M82.97363,138.28516l-2.04492-4.80762a.57606.57606,0,0,1-.0581-.2417.50581.50581,0,0,1,.51757-.501.53744.53744,0,0,1,.52588.36719l1.68555,4.21484,1.71143-4.248a.52861.52861,0,0,1,.49218-.334.49716.49716,0,0,1,.50928.49219.58686.58686,0,0,1-.05029.21729L84.209,138.28516a.61111.61111,0,0,1-.59228.41748h-.05859A.60935.60935,0,0,1,82.97363,138.28516Z"
         fill="#1f1f1f"
         id="path105" />
      <path
         d="M87.49658,138.10156V133.294a.50991.50991,0,0,1,.51758-.51758h3.397a.46373.46373,0,0,1,.45948.45947.45824.45824,0,0,1-.45948.459H88.52344v1.519h2.5122a.46467.46467,0,0,1,.459.46728.4558.4558,0,0,1-.459.45069h-2.5122v1.56933h2.92968a.46289.46289,0,0,1,.459.459.45751.45751,0,0,1-.459.459h-3.439A.50992.50992,0,0,1,87.49658,138.10156Z"
         fill="#1f1f1f"
         id="path107" />
    </g>
    <g
       id="g117">
      <path
         d="M13.61133,268.60791v-.01367a2.39976,2.39976,0,0,1,2.44531-2.45264,2.48648,2.48648,0,0,1,1.626.53516.41707.41707,0,0,1,.16308.332.41658.41658,0,0,1-.66406.32519,1.72349,1.72349,0,0,0-1.13184-.42675,1.59615,1.59615,0,0,0-1.56445,1.67382v.01319a1.59777,1.59777,0,0,0,1.56445,1.68017,1.6971,1.6971,0,0,0,1.18555-.4541.38371.38371,0,0,1,.251-.09472.39658.39658,0,0,1,.39306.38623.40168.40168,0,0,1-.13525.29834,2.42565,2.42565,0,0,1-1.72119.63672A2.38475,2.38475,0,0,1,13.61133,268.60791Z"
         fill="#1f1f1f"
         id="path111" />
      <path
         d="M18.92676,268.95312v-2.35058a.41652.41652,0,0,1,.833,0v2.31689c0,.88086.4541,1.34815,1.19921,1.34815.73829,0,1.19239-.44043,1.19239-1.31446v-2.35058a.41652.41652,0,0,1,.833,0v2.31055A1.89338,1.89338,0,0,1,20.94531,271.04,1.86943,1.86943,0,0,1,18.92676,268.95312Z"
         fill="#1f1f1f"
         id="path113" />
      <path
         d="M25.4834,266.99561H24.33154a.38624.38624,0,0,1,0-.77247h3.15039a.3863.3863,0,0,1,0,.77247H26.32324v3.59033a.42.42,0,0,1-.83984,0Z"
         fill="#1f1f1f"
         id="path115" />
    </g>
    <g
       id="g125">
      <path
         d="M46.16211,266.64307a.41381.41381,0,0,1,.41992-.41993h1.69434a1.91128,1.91128,0,0,1,1.36816.47413,1.43307,1.43307,0,0,1,.39258,1.02343v.01319a1.40334,1.40334,0,0,1-1.07715,1.416l.9082,1.145a.484.484,0,0,1,.13575.31836.39331.39331,0,0,1-.40039.38623.47667.47667,0,0,1-.40625-.2168L48.0459,269.3125H46.99561v1.27344a.41676.41676,0,0,1-.8335,0Zm2.05273,1.93115c.59668,0,.97559-.31152.97559-.793v-.01367c0-.50781-.36572-.78565-.98242-.78565h-1.2124v1.59229Z"
         fill="#1f1f1f"
         id="path119" />
      <path
         d="M51.29492,270.54541v-3.90234a.41351.41351,0,0,1,.41992-.41993h2.75733a.37567.37567,0,0,1,.37256.37256.37125.37125,0,0,1-.37256.37256H52.12793v1.23291H54.167a.378.378,0,0,1,.373.37988.37025.37025,0,0,1-.373.36573H52.12793v1.27343h2.37793a.37642.37642,0,0,1,.373.37256.37239.37239,0,0,1-.373.37305h-2.791A.41362.41362,0,0,1,51.29492,270.54541Z"
         fill="#1f1f1f"
         id="path121" />
      <path
         d="M55.90918,270.437a.39441.39441,0,0,1,.47461-.62988,2.05494,2.05494,0,0,0,1.32715.48779c.51562,0,.84082-.24414.84082-.59619v-.01367c0-.33838-.19043-.52149-1.0708-.7251-1.00928-.24365-1.57862-.542-1.57862-1.416v-.01319a1.45075,1.45075,0,0,1,1.61914-1.37549,2.61043,2.61043,0,0,1,1.50391.44043.37669.37669,0,0,1,.18311.332.38765.38765,0,0,1-.39307.38623.405.405,0,0,1-.2168-.061,1.9702,1.9702,0,0,0-1.09082-.35938c-.4873,0-.77246.251-.77246.5625v.01368c0,.36572.2168.52832,1.13184.74511,1.00293.24414,1.51758.603,1.51758,1.38868v.01367c0,.88769-.69825,1.416-1.69385,1.416A2.95134,2.95134,0,0,1,55.90918,270.437Z"
         fill="#1f1f1f"
         id="path123" />
    </g>
    <g
       id="g137">
      <path
         d="M74.01562,266.64307a.41422.41422,0,0,1,.42042-.41993h1.34814a2.36416,2.36416,0,0,1,2.52051,2.35791v.01319a2.375,2.375,0,0,1-2.52051,2.37158H74.436a.41433.41433,0,0,1-.42042-.42041Zm1.76856,3.564a1.54589,1.54589,0,0,0,1.64648-1.59912v-.01367a1.55613,1.55613,0,0,0-1.64648-1.61231h-.93457v3.2251Z"
         fill="#1f1f1f"
         id="path127" />
      <path
         d="M79.50781,266.64307a.41381.41381,0,0,1,.41992-.41993h1.69434a1.91126,1.91126,0,0,1,1.36816.47413,1.43307,1.43307,0,0,1,.39258,1.02343v.01319a1.40334,1.40334,0,0,1-1.07715,1.416l.90821,1.145a.48408.48408,0,0,1,.13574.31836.39331.39331,0,0,1-.40039.38623.4767.4767,0,0,1-.40625-.2168L81.3916,269.3125H80.34131v1.27344a.41676.41676,0,0,1-.8335,0Zm2.05274,1.93115c.59668,0,.97558-.31152.97558-.793v-.01367c0-.50781-.36572-.78565-.98242-.78565h-1.2124v1.59229Z"
         fill="#1f1f1f"
         id="path129" />
      <path
         d="M84.666,266.60254a.41676.41676,0,0,1,.83349,0v3.9834a.41676.41676,0,0,1-.83349,0Z"
         fill="#1f1f1f"
         id="path131" />
      <path
         d="M88.24414,270.69434,86.584,266.792a.45981.45981,0,0,1-.04736-.19629.41064.41064,0,0,1,.41992-.40625.43735.43735,0,0,1,.42725.29785l1.36816,3.42139L90.14062,266.46a.42967.42967,0,0,1,.39991-.27051.40375.40375,0,0,1,.41357.39942.47713.47713,0,0,1-.041.17627l-1.66651,3.9292a.4965.4965,0,0,1-.481.33886h-.04785A.49357.49357,0,0,1,88.24414,270.69434Z"
         fill="#1f1f1f"
         id="path133" />
      <path
         d="M91.97363,270.54541v-3.90234a.41351.41351,0,0,1,.41992-.41993h2.75684a.37609.37609,0,0,1,.373.37256.37166.37166,0,0,1-.373.37256H92.80664v1.23291H94.8457a.37829.37829,0,0,1,.37305.37988.37056.37056,0,0,1-.37305.36573H92.80664v1.27343h2.37793a.376.376,0,0,1,.37256.37256.372.372,0,0,1-.37256.37305h-2.791A.41362.41362,0,0,1,91.97363,270.54541Z"
         fill="#1f1f1f"
         id="path135" />
    </g>
    <g
       id="g145">
      <path
         d="M46.45752,314.648a.52173.52173,0,0,1,1.04346,0v3.313h1.93115a.47412.47412,0,0,1,0,.94824H46.97949a.51748.51748,0,0,1-.522-.52148Z"
         fill="#f0f0f0"
         id="path139" />
      <path
         d="M50.80713,314.68848a.51738.51738,0,0,1,.52148-.52149h1.416a1.62428,1.62428,0,0,1,1.81543,1.63965v.01367a1.69513,1.69513,0,0,1-1.917,1.66651h-.793v.94189a.52149.52149,0,1,1-1.043,0Zm1.86963,1.87011a.73449.73449,0,0,0,.82666-.71826v-.01318c0-.46777-.3252-.71875-.84717-.71875H51.8501v1.45019Z"
         fill="#f0f0f0"
         id="path141" />
      <path
         d="M55.54443,314.68848a.51779.51779,0,0,1,.522-.52149h2.65576a.47412.47412,0,0,1,0,.94824H56.58789V316.125h1.82959a.47412.47412,0,1,1,0,.94824H56.58789v1.35547a.52173.52173,0,0,1-1.04346,0Z"
         fill="#f0f0f0"
         id="path143" />
    </g>
    <g
       id="g153">
      <path
         d="M77.93018,314.648a.52173.52173,0,0,1,1.04345,0v1.396H80.898v-1.396a.52149.52149,0,1,1,1.043,0v3.78076a.52149.52149,0,1,1-1.043,0v-1.42285H78.97363v1.42285a.52173.52173,0,0,1-1.04345,0Z"
         fill="#f0f0f0"
         id="path147" />
      <path
         d="M83.3335,314.68848a.51738.51738,0,0,1,.52148-.52149h1.416a1.62428,1.62428,0,0,1,1.81543,1.63965v.01367a1.69513,1.69513,0,0,1-1.917,1.66651h-.793v.94189a.52148.52148,0,1,1-1.043,0Zm1.86962,1.87011a.73449.73449,0,0,0,.82667-.71826v-.01318c0-.46777-.3252-.71875-.84717-.71875h-.80616v1.45019Z"
         fill="#f0f0f0"
         id="path149" />
      <path
         d="M88.0708,314.68848a.51779.51779,0,0,1,.522-.52149h2.65577a.47412.47412,0,0,1,0,.94824H89.11426V316.125h1.82959a.47412.47412,0,1,1,0,.94824H89.11426v1.35547a.52173.52173,0,0,1-1.04346,0Z"
         fill="#f0f0f0"
         id="path151" />
    </g>
    <g
       id="g159">
      <path
         d="M17.45605,314.54639a.41676.41676,0,0,1,.8335,0v3.98388a.41677.41677,0,0,1-.8335,0Z"
         fill="#1f1f1f"
         id="path155" />
      <path
         d="M19.76562,314.56006a.41783.41783,0,0,1,.41993-.42041h.08789a.52316.52316,0,0,1,.43359.24414l2.37158,3.06933v-2.91357a.40968.40968,0,0,1,.81934,0v3.98389a.40441.40441,0,0,1-.40625.41308H23.458a.52292.52292,0,0,1-.4336-.251l-2.439-3.15674v3.0083a.40993.40993,0,0,1-.81983,0Z"
         fill="#1f1f1f"
         id="path157" />
    </g>
    <g
       id="g167">
      <path
         d="M42.752,27.66113l-2.84082-6.79394a1.203,1.203,0,0,1-.1123-.46338.94544.94544,0,0,1,.96338-.95069,1.00207,1.00207,0,0,1,.97607.67579l2.18945,5.668,2.21485-5.73047a.99829.99829,0,0,1,.92578-.61329.92975.92975,0,0,1,.95117.92579,1.10523,1.10523,0,0,1-.10058.42529l-2.86524,6.85693a1.1298,1.1298,0,0,1-1.08789.76319h-.126A1.1298,1.1298,0,0,1,42.752,27.66113Z"
         fill="#1f1f1f"
         id="path161" />
      <path
         d="M48.78223,23.93262v-.02539a4.45145,4.45145,0,0,1,4.5664-4.5293,4.64009,4.64009,0,0,1,2.92871.88867.962.962,0,0,1,.375.7627.94.94,0,0,1-.95117.93847,1.00817,1.00817,0,0,1-.57519-.1875,2.88239,2.88239,0,0,0-1.78907-.62548,2.59488,2.59488,0,0,0-2.54,2.72753v.02491a2.60136,2.60136,0,0,0,2.54,2.75293,2.81172,2.81172,0,0,0,1.90137-.68848.89265.89265,0,1,1,1.15137,1.36426,4.61549,4.61549,0,0,1-7.60742-3.40332Z"
         fill="#1f1f1f"
         id="path163" />
      <path
         d="M58.47754,20.49121a.95607.95607,0,0,1,.96387-.96289H64.3457a.87574.87574,0,1,1,0,1.75147H60.4043V23.144h3.3789a.87574.87574,0,0,1,0,1.75147H60.4043v2.50293a.96338.96338,0,1,1-1.92676,0Z"
         fill="#1f1f1f"
         id="path165" />
    </g>
  </g>
  <g
     id="a1d76141-2653-4d33-812d-4f01b0cdfe50"
     data-name="components"
     inkscape:groupmode="layer"
     style="display:none">
    <circle
       id="a739e248-4eda-471d-a96e-96fde3395fdd"
       data-name="Lpf#PJ301MPort"
       cx="52.65604"
       cy="334"
       r="5"
       style="fill:#0000ff" />
    <circle
       id="b4b3e3e3-1267-460e-9666-bad57ab92172"
       data-name="Hpf#PJ301MPort"
       cx="84.656036"
       cy="334"
       r="5"
       style="fill:#0000ff" />
    <circle
       id="a3fa09cd-bbc5-4046-95a1-98bf0f6322e0"
       data-name="In#PJ301MPort"
       cx="20.65605"
       cy="334"
       r="5"
       style="fill:#00ff00" />
    <circle
       id="a0ab2a6a-29d0-437a-95b4-d4263a3f2f81"
       data-name="Cut#PJ301MPort"
       cx="20.65605"
       cy="285.86591"
       r="5"
       style="fill:#00ff00" />
    <circle
       id="b892d16a-be02-48ea-8caf-2f70e59fdd90"
       data-name="CutCv#Trimpot"
       cx="20.65605"
       cy="238"
       r="5"
       style="fill:#ff0000" />
    <circle
       id="b824246d-f2e2-4827-bb77-d7362178fc6c"
       data-name="ResCv#Trimpot"
       cx="52.65604"
       cy="238"
       r="5"
       style="fill:#ff0000" />
    <circle
       id="e62705b6-ee33-40ae-af90-d8fed0f523b3"
       data-name="DriveCv#Trimpot"
       cx="84.656036"
       cy="238"
       r="5"
       style="fill:#ff0000" />
    <circle
       id="a2424bff-91d3-459a-aea1-79a478cbadcc"
       data-name="Res#PJ301MPort"
       cx="52.65604"
       cy="285.86591"
       r="5"
       style="fill:#00ff00" />
    <circle
       id="b4819c65-8f35-484e-8fe2-f8c2ea034e41"
       data-name="Drive#PJ301MPort"
       cx="84.656036"
       cy="285.86591"
       r="5"
       style="fill:#00ff00" />
    <circle
       id="f389bba0-1797-421a-a038-d231f28676dd"
       data-name="Res#RoundLargeBlackKnob"
       cx="26.26408"
       cy="166.5"
       r="5"
       style="fill:#ff0000" />
    <circle
       id="b94dd6c9-18d1-40a0-865f-e4001209560c"
       data-name="Drive#RoundLargeBlackKnob"
       cx="78.735924"
       cy="166.5"
       r="5"
       style="fill:#ff0000" />
    <circle
       id="e1a21213-33c1-4576-97a4-a39e235df6e5"
       data-name="Cut#RoundHugeBlackKnob"
       cx="51.931"
       cy="88.016998"
       r="5"
       style="fill:#ff0000" />
  </g>
</svg>
