<?xml version="1.0" encoding="UTF-8" standalone="no"?>
<svg
   width="135.00001"
   height="380"
   viewBox="0 0 135.00001 380"
   version="1.1"
   id="svg282"
   sodipodi:docname="VCA_MIX.svg"
   inkscape:version="1.2.1 (9c6d41e410, 2022-07-14)"
   xmlns:inkscape="http://www.inkscape.org/namespaces/inkscape"
   xmlns:sodipodi="http://sodipodi.sourceforge.net/DTD/sodipodi-0.dtd"
   xmlns="http://www.w3.org/2000/svg"
   xmlns:svg="http://www.w3.org/2000/svg">
  <sodipodi:namedview
     id="namedview284"
     pagecolor="#ffffff"
     bordercolor="#000000"
     borderopacity="0.25"
     inkscape:showpageshadow="2"
     inkscape:pageopacity="0.0"
     inkscape:pagecheckerboard="0"
     inkscape:deskcolor="#d1d1d1"
     showgrid="false"
     inkscape:zoom="2.1815789"
     inkscape:cx="67.61158"
     inkscape:cy="190.22919"
     inkscape:window-width="1920"
     inkscape:window-height="1009"
     inkscape:window-x="-8"
     inkscape:window-y="-8"
     inkscape:window-maximized="1"
     inkscape:current-layer="svg282" />
  <defs
     id="defs7">
    <linearGradient
       id="uuid-9a4b1e4e-8d86-439d-8ccd-cac8cda04834"
       x1="67.50001"
       y1="0"
       x2="67.50001"
       y2="380"
       gradientUnits="userSpaceOnUse">
      <stop
         offset="0"
         stop-color="#ebebeb"
         id="stop2" />
      <stop
         offset="1"
         stop-color="#e1e1e1"
         id="stop4" />
    </linearGradient>
  </defs>
  <g
     id="uuid-3cb456bc-8911-438d-b152-7e43de36ea0b"
     data-name="FND BG">
    <rect
       x=".00001"
       width="134.99999"
       height="380"
       fill="url(#uuid-9a4b1e4e-8d86-439d-8ccd-cac8cda04834)"
       id="rect9" />
  </g>
  <g
     id="uuid-1cbf147c-adaf-4d41-9761-cea143f64f8d"
     data-name="FND GRAPH">
    <g
       id="g20">
      <path
         d="m59.35927,359.75298c-.34551,0-.66126-.1952-.8158-.50419l-2.96428-5.92856c-.22526-.45057-.04266-.99844.40794-1.2237.45008-.22535.99831-.04271,1.22366.4079l2.14848,4.29696,2.14848-4.29696c.22526-.45057.77314-.63325,1.22366-.4079.45061.22526.63321.77314.40794,1.2237l-2.96428,5.92856c-.15454.30899-.47029.50419-.8158.50419Z"
         fill="#1f1f1f"
         id="path12" />
      <path
         d="m75.64073,359.75298c-.34551,0-.66126-.1952-.8158-.50419l-2.96428-5.92856c-.22526-.45057-.04266-.99844.40794-1.2237.45016-.22535.9984-.04271,1.22366.4079l2.14848,4.29696,2.14848-4.29696c.22526-.45057.77305-.63325,1.22366-.4079.45061.22526.63321.77314.40794,1.2237l-2.96428,5.92856c-.15454.30899-.47029.50419-.8158.50419Z"
         fill="#1f1f1f"
         id="path14" />
      <path
         d="m67.94242,359.75298c-2.13744,0-3.87637-1.73893-3.87637-3.87637s1.73893-3.87637,3.87637-3.87637c.84653,0,1.65102.26819,2.32653.77554.40278.30253.48401.87428.18153,1.27705-.30248.40273-.87432.48401-1.2771.18148-.357-.26815-.78267-.4099-1.23096-.4099-1.13156,0-2.05219.92059-2.05219,2.05219s.92064,2.05219,2.05219,2.05219c.44829,0,.87396-.14176,1.23096-.4099.40269-.30271.97444-.22125,1.2771.18148.30248.40278.22125.97453-.18153,1.27705-.67551.50735-1.48.77554-2.32653.77554Z"
         fill="#1f1f1f"
         id="path16" />
      <circle
         cx="68.00165"
         cy="355.83101"
         r="1.18571"
         fill="#1f1f1f"
         id="circle18" />
    </g>
    <line
       x1="107.00019"
       y1="95.282"
       x2="92.00021"
       y2="95.282"
       fill="none"
       stroke="#1f1f1f"
       stroke-linecap="round"
       stroke-linejoin="round"
       stroke-width=".5"
       id="line22" />
    <line
       x1="107.00019"
       y1="76.61647"
       x2="92.00021"
       y2="76.61647"
       fill="none"
       stroke="#1f1f1f"
       stroke-linecap="round"
       stroke-linejoin="round"
       stroke-width=".5"
       id="line24" />
    <line
       x1="107.00019"
       y1="67.10844"
       x2="92.00021"
       y2="67.10844"
       fill="none"
       stroke="#1f1f1f"
       stroke-linecap="round"
       stroke-linejoin="round"
       stroke-width=".5"
       id="line26" />
    <line
       x1="107.00019"
       y1="104.4395"
       x2="92.00021"
       y2="104.4395"
       fill="none"
       stroke="#1f1f1f"
       stroke-linecap="round"
       stroke-linejoin="round"
       stroke-width=".5"
       id="line28" />
    <line
       x1="107.00019"
       y1="113.597"
       x2="92.00021"
       y2="113.597"
       fill="none"
       stroke="#1f1f1f"
       stroke-linecap="round"
       stroke-linejoin="round"
       stroke-width=".5"
       id="line30" />
    <line
       x1="107.00019"
       y1="122.7545"
       x2="92.00021"
       y2="122.7545"
       fill="none"
       stroke="#1f1f1f"
       stroke-linecap="round"
       stroke-linejoin="round"
       stroke-width=".5"
       id="line32" />
    <line
       x1="75.00019"
       y1="95.282"
       x2="60.00021"
       y2="95.282"
       fill="none"
       stroke="#1f1f1f"
       stroke-linecap="round"
       stroke-linejoin="round"
       stroke-width=".5"
       id="line34" />
    <line
       x1="75.00019"
       y1="76.61647"
       x2="60.00021"
       y2="76.61647"
       fill="none"
       stroke="#1f1f1f"
       stroke-linecap="round"
       stroke-linejoin="round"
       stroke-width=".5"
       id="line36" />
    <line
       x1="75.00019"
       y1="104.4395"
       x2="60.00021"
       y2="104.4395"
       fill="none"
       stroke="#1f1f1f"
       stroke-linecap="round"
       stroke-linejoin="round"
       stroke-width=".5"
       id="line38" />
    <line
       x1="75.00019"
       y1="113.597"
       x2="60.00021"
       y2="113.597"
       fill="none"
       stroke="#1f1f1f"
       stroke-linecap="round"
       stroke-linejoin="round"
       stroke-width=".5"
       id="line40" />
    <line
       x1="75.00019"
       y1="122.7545"
       x2="60.00021"
       y2="122.7545"
       fill="none"
       stroke="#1f1f1f"
       stroke-linecap="round"
       stroke-linejoin="round"
       stroke-width=".5"
       id="line42" />
    <rect
       x="101.16567"
       y="165.8676"
       width="28.65033"
       height="39.15691"
       rx="2.83465"
       ry="2.83465"
       fill="#1f1f1f"
       id="rect44" />
    <line
       x1="19.50016"
       y1="293.73199"
       x2="19.50016"
       y2="311.38819"
       fill="none"
       stroke="#1f1f1f"
       stroke-linecap="round"
       stroke-linejoin="round"
       stroke-width=".8"
       id="line46" />
    <line
       x1="51.50014"
       y1="293.73199"
       x2="51.50014"
       y2="311.38819"
       fill="none"
       stroke="#1f1f1f"
       stroke-linecap="round"
       stroke-linejoin="round"
       stroke-width=".8"
       id="line48" />
    <line
       x1="83.50014"
       y1="293.73199"
       x2="83.50014"
       y2="311.38819"
       fill="none"
       stroke="#1f1f1f"
       stroke-linecap="round"
       stroke-linejoin="round"
       stroke-width=".8"
       id="line50" />
    <line
       x1="115.50014"
       y1="293.73199"
       x2="115.50014"
       y2="311.38819"
       fill="none"
       stroke="#1f1f1f"
       stroke-linecap="round"
       stroke-linejoin="round"
       stroke-width=".8"
       id="line52" />
    <line
       x1="50.34376"
       y1="190"
       x2="19.50021"
       y2="190"
       fill="none"
       stroke="#1f1f1f"
       stroke-linecap="round"
       stroke-linejoin="round"
       stroke-width=".8"
       id="line54" />
    <rect
       x="5.18426"
       y="309.0301"
       width="124.65033"
       height="39.15691"
       rx="2.83465"
       ry="2.83465"
       fill="#1f1f1f"
       id="rect56" />
    <line
       x1="107.00019"
       y1="131.912"
       x2="92.00021"
       y2="131.912"
       fill="none"
       stroke="#1f1f1f"
       stroke-linecap="round"
       stroke-linejoin="round"
       stroke-width=".5"
       id="line58" />
    <line
       x1="107.00019"
       y1="86.1245"
       x2="92.00021"
       y2="86.1245"
       fill="none"
       stroke="#1f1f1f"
       stroke-linecap="round"
       stroke-linejoin="round"
       id="line60" />
    <line
       x1="74.83667"
       y1="86.1245"
       x2="71.96469"
       y2="86.1245"
       fill="none"
       stroke="#1f1f1f"
       stroke-linecap="round"
       stroke-linejoin="round"
       id="line62" />
    <line
       x1="63.03571"
       y1="86.1245"
       x2="60.16373"
       y2="86.1245"
       fill="none"
       stroke="#1f1f1f"
       stroke-linecap="round"
       stroke-linejoin="round"
       id="line64" />
    <line
       x1="43.00019"
       y1="95.282"
       x2="28.00023"
       y2="95.282"
       fill="none"
       stroke="#1f1f1f"
       stroke-linecap="round"
       stroke-linejoin="round"
       stroke-width=".5"
       id="line66" />
    <line
       x1="43.00019"
       y1="76.61647"
       x2="28.00023"
       y2="76.61647"
       fill="none"
       stroke="#1f1f1f"
       stroke-linecap="round"
       stroke-linejoin="round"
       stroke-width=".5"
       id="line68" />
    <line
       x1="43.00019"
       y1="67.10844"
       x2="28.00023"
       y2="67.10844"
       fill="none"
       stroke="#1f1f1f"
       stroke-linecap="round"
       stroke-linejoin="round"
       stroke-width=".5"
       id="line70" />
    <line
       x1="43.00019"
       y1="104.4395"
       x2="28.00023"
       y2="104.4395"
       fill="none"
       stroke="#1f1f1f"
       stroke-linecap="round"
       stroke-linejoin="round"
       stroke-width=".5"
       id="line72" />
    <line
       x1="43.00019"
       y1="113.597"
       x2="28.00023"
       y2="113.597"
       fill="none"
       stroke="#1f1f1f"
       stroke-linecap="round"
       stroke-linejoin="round"
       stroke-width=".5"
       id="line74" />
    <line
       x1="43.00019"
       y1="122.7545"
       x2="28.00023"
       y2="122.7545"
       fill="none"
       stroke="#1f1f1f"
       stroke-linecap="round"
       stroke-linejoin="round"
       stroke-width=".5"
       id="line76" />
    <line
       x1="43.00019"
       y1="131.912"
       x2="28.00023"
       y2="131.912"
       fill="none"
       stroke="#1f1f1f"
       stroke-linecap="round"
       stroke-linejoin="round"
       stroke-width=".5"
       id="line78" />
    <line
       x1="43.00019"
       y1="86.1245"
       x2="28.00023"
       y2="86.1245"
       fill="none"
       stroke="#1f1f1f"
       stroke-linecap="round"
       stroke-linejoin="round"
       id="line80" />
    <g
       id="g88">
      <line
         x1="67.25145"
         y1="177.5322"
         x2="67.25145"
         y2="173.80893"
         fill="none"
         stroke="#1f1f1f"
         stroke-linecap="round"
         stroke-linejoin="round"
         stroke-width=".8"
         id="line82" />
      <path
         d="m75.88707,204.36082c4.83522-2.92859,8.06662-8.2395,8.06662-14.30514,0-9.23-7.48239-16.71239-16.71239-16.71239s-16.71239,7.48239-16.71239,16.71239c0,6.09737,3.2653,11.4321,8.14264,14.35091"
         fill="none"
         stroke="#1f1f1f"
         stroke-linecap="round"
         stroke-linejoin="round"
         stroke-width=".8"
         id="path84" />
      <circle
         cx="67.25143"
         cy="190.05564"
         r="20.69419"
         fill="none"
         isolation="isolate"
         opacity=".69"
         id="circle86" />
    </g>
    <line
       x1="101.64376"
       y1="190"
       x2="83.96087"
       y2="190"
       fill="none"
       stroke="#1f1f1f"
       stroke-linecap="round"
       stroke-linejoin="round"
       stroke-width=".8"
       id="line90" />
  </g>
  <g
     id="uuid-b41c229f-c560-4358-96b5-12af7421e682"
     data-name="FND TXT">
    <path
       d="m65.66992,85.99414v-.01172c0-1.19922.73145-2.1709,1.83496-2.1709,1.09766,0,1.82324.95947,1.82324,2.15918v.01172c0,1.19922-.73242,2.1709-1.83496,2.1709-1.10352,0-1.82324-.95947-1.82324-2.15918Zm2.89648,0v-.01172c0-.82764-.42578-1.50488-1.07324-1.50488-.64844,0-1.06152.65918-1.06152,1.49316v.01172c0,.82764.41895,1.50488,1.07324,1.50488.65332,0,1.06152-.67139,1.06152-1.49316Z"
       fill="#1f1f1f"
       id="path93" />
    <path
       d="m43.61816,203.96191c0-.19824.16211-.36035.35449-.36035h1.12695c.19238,0,.35352.16211.35352.36035,0,.19141-.16113.35352-.35352.35352h-1.12695c-.19238,0-.35449-.16211-.35449-.35352Z"
       fill="#1f1f1f"
       id="path95" />
    <path
       d="m19.33203,46.21826l-.60156.18359c-.05859.0166-.13281.0249-.18359.0249-.24219,0-.4502-.2002-.4502-.43408,0-.2168.13379-.38379.34277-.44238l.88477-.28369c.19922-.05859.34961-.0918.5-.0918h.0166c.29199,0,.50879.22559.50879.50928v4.94092c0,.28418-.22461.50928-.50879.50928-.27539,0-.50879-.2251-.50879-.50928v-4.40674Z"
       fill="#1f1f1f"
       id="path97" />
    <path
       d="m49.56641,50.09961l1.79492-1.52783c.80078-.67627,1.09277-1.05127,1.09277-1.57764,0-.57568-.40918-.90967-.94238-.90967-.46777,0-.79297.21729-1.15234.65088-.0752.08398-.19141.15918-.35938.15918-.25781,0-.4668-.20898-.4668-.46777,0-.1084.04102-.22559.11719-.31738.47461-.59229,1.01758-.94287,1.93555-.94287,1.14453,0,1.92773.70117,1.92773,1.74463v.0166c0,.91797-.4834,1.41895-1.51855,2.26172l-1.20215,1.00195h2.37109c.25,0,.45117.2002.45117.4502,0,.25049-.20117.45117-.45117.45117h-3.31445c-.31641,0-.55078-.18359-.55078-.48438,0-.2002.0918-.36719.26758-.50879Z"
       fill="#1f1f1f"
       id="path99" />
    <path
       d="m81.53711,50.43311c-.0918-.0752-.16699-.21729-.16699-.36719,0-.26709.22559-.49268.49316-.49268.14941,0,.25781.05859.3418.13379.36719.36719.78418.55908,1.32617.55908.57617,0,1.01074-.3501,1.01074-.88428v-.01709c0-.57568-.52637-.90137-1.34375-.90137h-.20898c-.24121,0-.44238-.20068-.44238-.44238,0-.1333.05859-.25879.2168-.41748l1.36914-1.46045h-2.12012c-.25098,0-.4502-.20068-.4502-.44238,0-.25049.19922-.45068.4502-.45068h2.98828c.29199,0,.50879.17529.50879.45068,0,.2417-.11719.38379-.29199.55908l-1.37695,1.42725c.88477.10889,1.71973.55908,1.71973,1.63623v.0166c0,1.07666-.82617,1.85254-2.04492,1.85254-.85938,0-1.50293-.30029-1.97852-.75928Z"
       fill="#1f1f1f"
       id="path101" />
    <path
       d="m116.0918,49.78223h-2.61328c-.27539,0-.5-.2002-.5-.48438,0-.2002.07422-.36719.22461-.54248l2.74609-3.25537c.18359-.2168.32617-.3335.62695-.3335.27539,0,.5.21729.5.49268v3.28027h.45117c.24219,0,.42578.19141.42578.42529s-.18359.41748-.42578.41748h-.45117v.86816c0,.27539-.2168.48389-.49219.48389s-.49219-.2085-.49219-.48389v-.86816Zm0-.84277v-2.3125l-1.91992,2.3125h1.91992Z"
       fill="#1f1f1f"
       id="path103" />
    <g
       id="g117">
      <path
         d="m50.71289,162.4707c0-.28369.22559-.51758.51758-.51758h.1084c.22559,0,.37598.1167.47559.27539l1.76953,2.771,1.77832-2.7793c.1084-.17529.25879-.26709.4668-.26709h.10938c.29199,0,.5166.23389.5166.51758v4.89111c0,.28369-.22461.50879-.5166.50879-.27539,0-.50977-.2334-.50977-.50879v-3.50586l-1.42676,2.14502c-.1084.16699-.24219.26709-.43457.26709-.18359,0-.31738-.1001-.42578-.26709l-1.41895-2.12793v3.49707c0,.28369-.22461.50049-.50879.50049s-.50098-.2168-.50098-.50049v-4.89941Z"
         fill="#1f1f1f"
         id="path105" />
      <path
         d="m58.22656,162.4541c0-.28418.22559-.50928.51758-.50928.28418,0,.50879.2251.50879.50928v4.90771c0,.28369-.22461.50879-.50879.50879-.29199,0-.51758-.2251-.51758-.50879v-4.90771Z"
         fill="#1f1f1f"
         id="path107" />
      <path
         d="m60.71094,167.01123l1.73633-2.15332-1.63574-2.02832c-.08398-.1084-.1582-.24219-.1582-.38379,0-.28418.2168-.50098.50879-.50098.2168,0,.3418.0835.46777.25049l1.47656,1.94482,1.46094-1.91162c.13379-.18359.27539-.28369.50098-.28369s.4668.18359.4668.46729c0,.15039-.05762.26709-.1582.39258l-1.63574,2.03613,1.71973,2.14551c.08301.1084.1582.2334.1582.38379,0,.28369-.2168.50049-.50879.50049-.21777,0-.34277-.08301-.46777-.25l-1.56934-2.04492-1.54395,2.01123c-.1416.18359-.27539.28369-.50098.28369-.2334,0-.4668-.18359-.4668-.47559,0-.1416.05762-.25879.14941-.38379Z"
         fill="#1f1f1f"
         id="path109" />
      <path
         d="m69.33203,162.4541c0-.28418.22559-.50928.51758-.50928.28418,0,.50879.2251.50879.50928v4.44043h2.64648c.25879,0,.4668.2085.4668.46729s-.20801.46729-.4668.46729h-3.15527c-.29199,0-.51758-.22559-.51758-.51758v-4.85742Z"
         fill="#1f1f1f"
         id="path111" />
      <path
         d="m75.59863,167.49512l-2.04492-4.80762c-.0332-.0752-.05859-.1499-.05859-.2417,0-.27588.22559-.50098.51758-.50098.26758,0,.44238.15039.52637.36719l1.68555,4.21484,1.71094-4.24805c.06738-.17529.25098-.33398.49316-.33398.2832,0,.50879.2168.50879.49219,0,.0752-.02539.15869-.0498.21729l-2.05371,4.84082c-.1084.25879-.30078.41748-.59277.41748h-.05762c-.28418,0-.47656-.15869-.58496-.41748Z"
         fill="#1f1f1f"
         id="path113" />
      <path
         d="m80.12207,162.4541c0-.28418.22559-.50928.51758-.50928.28418,0,.50879.2251.50879.50928v4.44043h2.64648c.25879,0,.4668.2085.4668.46729s-.20801.46729-.4668.46729h-3.15527c-.29199,0-.51758-.22559-.51758-.51758v-4.85742Z"
         fill="#1f1f1f"
         id="path115" />
    </g>
    <g
       id="g125">
      <path
         d="m109.3916,171.52539c0-.2915.23047-.52197.52246-.52197h.11523c.22363,0,.37891.11523.47363.271l1.26074,2.05273,1.2666-2.05957c.1084-.17578.25781-.26416.46777-.26416h.11523c.29102,0,.52148.23047.52148.52197v3.7666c0,.29102-.23047.52148-.52148.52148-.28516,0-.51562-.2373-.51562-.52148v-2.36426l-.91406,1.40918c-.1084.16211-.24414.26367-.43359.26367-.19043,0-.3252-.10156-.43359-.26367l-.90137-1.38916v2.35791c0,.28418-.23047.50781-.51465.50781-.28516,0-.50879-.22363-.50879-.50781v-3.78027Z"
         fill="#f0f0f0"
         id="path119" />
      <path
         d="m115.55664,171.51172c0-.2915.23047-.52197.52148-.52197.29199,0,.52148.23047.52148.52197v3.78027c0,.29102-.22949.52148-.52148.52148-.29102,0-.52148-.23047-.52148-.52148v-3.78027Z"
         fill="#f0f0f0"
         id="path121" />
      <path
         d="m117.83008,174.93262l1.28027-1.57129-1.20605-1.4707c-.08105-.10156-.15527-.23682-.15527-.38574,0-.2915.2168-.51514.51465-.51514.22363,0,.35254.08838.48047.25732l1.03711,1.38232,1.0293-1.35498c.14258-.18262.27832-.28467.50879-.28467s.47363.18311.47363.48096c0,.14941-.05371.27148-.15527.3999l-1.20605,1.47705,1.27344,1.56494c.08105.10156.15625.23682.15625.38623,0,.29102-.2168.51465-.51562.51465-.22266,0-.35156-.08789-.48047-.25732l-1.11133-1.45654-1.09766,1.42969c-.1416.18262-.27734.28418-.50781.28418s-.47461-.18262-.47461-.48096c0-.14893.05469-.271.15625-.3999Z"
         fill="#f0f0f0"
         id="path123" />
    </g>
    <g
       id="g139">
      <path
         d="m43.17188,27.66113l-2.83984-6.79395c-.0625-.15039-.1123-.30078-.1123-.46338,0-.5376.4248-.95068.96387-.95068.5,0,.8252.2876.97559.67578l2.18945,5.66797,2.21484-5.73047c.125-.31299.46289-.61328.92578-.61328.52539,0,.9502.40039.9502.92578,0,.15039-.04883.3125-.09961.42529l-2.86523,6.85693c-.2002.47559-.5625.76318-1.08789.76318h-.125c-.52539,0-.88867-.2876-1.08984-.76318Z"
         fill="#1f1f1f"
         id="path127" />
      <path
         d="m49.20312,23.93262v-.02539c0-2.48975,1.87695-4.5293,4.56641-4.5293,1.31445,0,2.20312.35059,2.92773.88867.20117.1499.37598.4248.37598.7627,0,.52588-.4248.93848-.9502.93848-.26367,0-.43848-.09961-.57617-.1875-.53809-.40039-1.10156-.62549-1.78906-.62549-1.47656,0-2.54004,1.22607-2.54004,2.72754v.0249c0,1.50146,1.03809,2.75293,2.54004,2.75293.8125,0,1.35156-.25049,1.90234-.68848.14941-.125.34961-.2124.57422-.2124.48828,0,.90137.40039.90137.88818,0,.30029-.14941.53809-.3252.68848-.78809.68799-1.71484,1.10059-3.11523,1.10059-2.57812,0-4.49219-1.98926-4.49219-4.50391Z"
         fill="#1f1f1f"
         id="path129" />
      <path
         d="m58.40039,27.04785l3.05273-6.89404c.21289-.47559.60156-.76318,1.12695-.76318h.11133c.52637,0,.90234.2876,1.11426.76318l3.05371,6.89404c.0625.1377.09961.2627.09961.3877,0,.51318-.40039.92627-.91406.92627-.44922,0-.75-.26318-.92578-.66357l-.58789-1.37598h-3.85352l-.61328,1.43896c-.16211.37549-.48828.60059-.88867.60059-.5,0-.88867-.40039-.88867-.90088,0-.1377.05078-.27539.11328-.41309Zm5.41797-2.42725l-1.21387-2.89014-1.21387,2.89014h2.42773Z"
         fill="#1f1f1f"
         id="path131" />
      <path
         d="m72.23242,20.44141c0-.53809.42578-.96338.96484-.96338h.21191c.41309,0,.7002.2124.87598.50049l2.32715,3.79102,2.33984-3.80371c.2002-.3252.47559-.48779.86328-.48779h.21289c.53809,0,.96387.42529.96387.96338v6.95703c0,.53809-.42578.96338-.96387.96338-.52539,0-.95117-.43799-.95117-.96338v-4.36719l-1.68848,2.60254c-.20117.30078-.45117.48828-.80078.48828-.35156,0-.60156-.1875-.80078-.48828l-1.66406-2.56445v4.354c0,.52539-.42578.93848-.95117.93848s-.93945-.41309-.93945-.93848v-6.98193Z"
         fill="#1f1f1f"
         id="path133" />
      <path
         d="m83.3125,20.4165c0-.53809.42578-.96338.96289-.96338.53906,0,.96387.42529.96387.96338v6.98193c0,.53809-.4248.96338-.96387.96338-.53711,0-.96289-.42529-.96289-.96338v-6.98193Z"
         fill="#1f1f1f"
         id="path135" />
      <path
         d="m87.19336,26.73535l2.36523-2.90332-2.22754-2.71484c-.14941-.1875-.28809-.43799-.28809-.71338,0-.5376.40039-.95068.95117-.95068.41309,0,.65039.1626.88867.47559l1.91406,2.55225,1.90234-2.50244c.26172-.33789.5127-.52539.9375-.52539.42578,0,.87695.33789.87695.88818,0,.27539-.10059.50049-.28906.73828l-2.22656,2.72754,2.35254,2.89014c.14941.18799.28809.43848.28809.71338,0,.53809-.40039.95117-.95117.95117-.41309,0-.65039-.1626-.88867-.47559l-2.05176-2.68994-2.02734,2.63965c-.2627.33789-.5127.52588-.93848.52588s-.875-.33789-.875-.88818c0-.27539.09961-.50098.28711-.73828Z"
         fill="#1f1f1f"
         id="path137" />
    </g>
    <g
       id="g147">
      <path
         d="m13.94141,266.60254c0-.23047.18359-.41309.41992-.41309.23047,0,.41406.18262.41406.41309v3.9834c0,.23047-.18359.41357-.41406.41357-.23633,0-.41992-.18311-.41992-.41357v-3.9834Z"
         fill="#1f1f1f"
         id="path141" />
      <path
         d="m16.25195,266.61621c0-.23047.18262-.41992.41992-.41992h.08789c.20312,0,.31836.10156.43359.24365l2.37109,3.06885v-2.91309c0-.22363.18262-.40625.40625-.40625.23047,0,.41309.18262.41309.40625v3.9834c0,.23047-.17578.41357-.40625.41357h-.03418c-.19629,0-.31836-.10156-.43359-.25049l-2.43848-3.15723v3.00781c0,.22363-.18262.40674-.40723.40674-.22949,0-.41211-.18311-.41211-.40674v-3.97656Z"
         fill="#1f1f1f"
         id="path143" />
      <path
         d="m24.23828,267.00879l-.4873.14941c-.04785.01367-.1084.02051-.14941.02051-.19629,0-.36523-.16309-.36523-.35254,0-.17627.10742-.31152.27734-.35938l.71875-.22998c.16211-.04736.28418-.07471.40625-.07471h.01367c.23633,0,.41309.18311.41309.41309v4.01074c0,.23047-.18262.41357-.41309.41357-.22461,0-.41406-.18311-.41406-.41357v-3.57715Z"
         fill="#1f1f1f"
         id="path145" />
    </g>
    <g
       id="g155">
      <path
         d="m45.20508,266.60254c0-.23047.18359-.41309.41992-.41309.23047,0,.41406.18262.41406.41309v3.9834c0,.23047-.18359.41357-.41406.41357-.23633,0-.41992-.18311-.41992-.41357v-3.9834Z"
         fill="#1f1f1f"
         id="path149" />
      <path
         d="m47.51465,266.61621c0-.23047.18262-.41992.41992-.41992h.08887c.20312,0,.31836.10156.43359.24365l2.37109,3.06885v-2.91309c0-.22363.18262-.40625.40625-.40625.23047,0,.41309.18262.41309.40625v3.9834c0,.23047-.17676.41357-.40625.41357h-.03418c-.19629,0-.31836-.10156-.43359-.25049l-2.43945-3.15723v3.00781c0,.22363-.18262.40674-.40625.40674-.23047,0-.41309-.18311-.41309-.40674v-3.97656Z"
         fill="#1f1f1f"
         id="path151" />
      <path
         d="m54.80469,270.15918l1.45605-1.23975c.65039-.54834.8877-.85352.8877-1.28027,0-.46729-.33203-.73877-.76562-.73877-.37891,0-.64355.17627-.93555.52881-.06055.06787-.15527.12842-.29102.12842-.20996,0-.37891-.16895-.37891-.37891,0-.08838.0332-.18311.09473-.25781.38574-.48096.82617-.76562,1.57129-.76562.92871,0,1.56543.56934,1.56543,1.41602v.01367c0,.74512-.39355,1.15137-1.2334,1.83594l-.97461.81299h1.92383c.20312,0,.36523.1626.36523.36572s-.16211.36621-.36523.36621h-2.68945c-.25781,0-.44727-.14941-.44727-.39307,0-.1626.07422-.29834.2168-.41357Z"
         fill="#1f1f1f"
         id="path153" />
    </g>
    <g
       id="g163">
      <path
         d="m77.18848,266.60303c0-.23047.18262-.41357.41992-.41357.23047,0,.41309.18311.41309.41357v3.98389c0,.22998-.18262.41309-.41309.41309-.2373,0-.41992-.18311-.41992-.41309v-3.98389Z"
         fill="#1f1f1f"
         id="path157" />
      <path
         d="m79.49805,266.6167c0-.23047.18262-.42041.41992-.42041h.08789c.20312,0,.31836.10156.43359.24414l2.37109,3.06934v-2.91357c0-.22363.18359-.40674.40625-.40674.23047,0,.41406.18311.41406.40674v3.98389c0,.23047-.17676.41309-.40723.41309h-.03418c-.19531,0-.31836-.10156-.43359-.25098l-2.43848-3.15674v3.0083c0,.22314-.18262.40625-.40625.40625-.23047,0-.41309-.18311-.41309-.40625v-3.97705Z"
         fill="#1f1f1f"
         id="path159" />
      <path
         d="m86.78027,270.43066c-.07422-.06055-.13574-.17578-.13574-.29785,0-.2168.18359-.3999.40039-.3999.12109,0,.20996.04736.27734.1084.29883.29834.63672.4541,1.07715.4541.46777,0,.81934-.28467.81934-.71826v-.01367c0-.46729-.42578-.73145-1.08984-.73145h-.16992c-.19629,0-.35938-.1626-.35938-.35938,0-.1084.04785-.20996.17676-.33838l1.11133-1.18604h-1.72168c-.20312,0-.36523-.16211-.36523-.35889,0-.20312.16211-.36572.36523-.36572h2.42578c.2373,0,.41406.14258.41406.36572,0,.19678-.0957.31201-.23828.4541l-1.11719,1.15869c.71777.08789,1.39551.45361,1.39551,1.32764v.01367c0,.87354-.6709,1.50391-1.66016,1.50391-.69727,0-1.21973-.24365-1.60547-.6167Z"
         fill="#1f1f1f"
         id="path161" />
    </g>
    <g
       id="g169">
      <path
         d="m14.80176,173.41553v-.01367c0-1.34814,1.00977-2.45264,2.44629-2.45264.73145,0,1.21191.2168,1.625.53516.08887.06836.16309.18311.16309.33203,0,.23047-.18262.40674-.41309.40674-.11523,0-.19727-.04053-.25098-.08154-.3252-.26367-.67676-.42676-1.13184-.42676-.90039,0-1.56445.74512-1.56445,1.67383v.01318c0,.92822.65723,1.68018,1.56445,1.68018.50195,0,.84082-.1626,1.18555-.4541.06152-.05371.14941-.09473.25098-.09473.20996,0,.39355.17627.39355.38623,0,.12891-.06152.23047-.13574.29834-.44727.39258-.95508.63672-1.7207.63672-1.38184,0-2.41211-1.07715-2.41211-2.43896Z"
         fill="#1f1f1f"
         id="path165" />
      <path
         d="m21.6123,175.50195l-1.65918-3.90234c-.02734-.06055-.04785-.12158-.04785-.19629,0-.22363.18262-.40625.41992-.40625.2168,0,.35938.12207.42676.29785l1.36914,3.42139,1.38867-3.44873c.05371-.14209.20312-.27051.39941-.27051.23047,0,.41309.17578.41309.39941,0,.06104-.01953.12891-.04102.17627l-1.66602,3.9292c-.08789.20996-.24414.33887-.48047.33887h-.04785c-.23047,0-.38574-.12891-.47461-.33887Z"
         fill="#1f1f1f"
         id="path167" />
    </g>
    <g
       id="g177">
      <path
         d="m108.97168,266.60303c0-.23047.18262-.41357.41992-.41357.23047,0,.41309.18311.41309.41357v3.98389c0,.22998-.18262.41309-.41309.41309-.2373,0-.41992-.18311-.41992-.41309v-3.98389Z"
         fill="#1f1f1f"
         id="path171" />
      <path
         d="m111.28125,266.6167c0-.23047.18262-.42041.41992-.42041h.08789c.20312,0,.31836.10156.43359.24414l2.37109,3.06934v-2.91357c0-.22363.18359-.40674.40625-.40674.23047,0,.41406.18311.41406.40674v3.98389c0,.23047-.17676.41309-.40723.41309h-.03418c-.19531,0-.31836-.10156-.43359-.25098l-2.43848-3.15674v3.0083c0,.22314-.18262.40625-.40625.40625-.23047,0-.41309-.18311-.41309-.40625v-3.97705Z"
         fill="#1f1f1f"
         id="path173" />
      <path
         d="m120.85352,269.90234h-2.12109c-.22266,0-.40625-.1626-.40625-.39258,0-.16309.06152-.29834.18359-.44043l2.22852-2.64258c.14941-.17578.26367-.271.50781-.271.22363,0,.40625.17627.40625.3999v2.6626h.36621c.19629,0,.3457.15576.3457.34521,0,.18994-.14941.33887-.3457.33887h-.36621v.70459c0,.22363-.17578.39307-.39941.39307s-.39941-.16943-.39941-.39307v-.70459Zm0-.68408v-1.87646l-1.55859,1.87646h1.55859Z"
         fill="#1f1f1f"
         id="path175" />
    </g>
    <g
       id="g185">
      <path
         d="m12.44336,220.74219v-.01367c0-1.34814,1.00977-2.45215,2.44629-2.45215.73145,0,1.21191.2168,1.62598.53516.08789.06738.16211.18262.16211.33203,0,.22998-.18262.40625-.41309.40625-.11523,0-.19629-.04053-.25098-.08105-.32422-.26465-.67773-.42676-1.13086-.42676-.90137,0-1.56543.74512-1.56543,1.67285v.01367c0,.92822.65723,1.68018,1.56543,1.68018.50098,0,.83984-.1626,1.18555-.45361.06055-.05469.14844-.09473.25-.09473.21094,0,.39355.17578.39355.38574,0,.12891-.06152.23047-.13574.29834-.44727.39307-.95508.63672-1.7207.63672-1.38184,0-2.41211-1.07715-2.41211-2.43896Z"
         fill="#1f1f1f"
         id="path179" />
      <path
         d="m19.25391,222.8291l-1.65918-3.90234c-.02734-.06152-.04785-.12207-.04785-.19678,0-.22363.18359-.40674.41992-.40674.2168,0,.35938.12207.42773.29834l1.36816,3.42139,1.38867-3.44824c.05371-.14258.20312-.27148.39941-.27148.23047,0,.41406.17676.41406.3999,0,.06104-.02148.12891-.04102.17627l-1.66699,3.92969c-.08789.20996-.24316.33838-.48145.33838h-.04688c-.23047,0-.38672-.12842-.47461-.33838Z"
         fill="#1f1f1f"
         id="path181" />
      <path
         d="m25.48047,219.14355l-.48828.14893c-.04785.01318-.1084.02002-.14941.02002-.19629,0-.36621-.16211-.36621-.35205,0-.17627.10938-.31201.27832-.35889l.71777-.23047c.16309-.04785.28516-.07471.40723-.07471h.0127c.23828,0,.41406.18311.41406.41357v4.01074c0,.22998-.18359.41309-.41406.41309-.22266,0-.41211-.18311-.41211-.41309v-3.57715Z"
         fill="#1f1f1f"
         id="path183" />
    </g>
    <g
       id="g193">
      <path
         d="m43.70703,220.74268v-.01367c0-1.34814,1.00977-2.45264,2.44531-2.45264.73242,0,1.21289.2168,1.62598.53516.08887.06836.16309.18311.16309.33203,0,.23047-.18359.40674-.41406.40674-.11523,0-.19531-.04053-.25-.08154-.3252-.26367-.67773-.42676-1.13184-.42676-.90137,0-1.56445.74512-1.56445,1.67383v.01318c0,.92822.65723,1.68018,1.56445,1.68018.50195,0,.84082-.1626,1.18652-.4541.06055-.05371.14844-.09473.25-.09473.20996,0,.39258.17627.39258.38623,0,.12891-.06055.23047-.13477.29834-.44727.39258-.95508.63672-1.7207.63672-1.38281,0-2.41211-1.07715-2.41211-2.43896Z"
         fill="#1f1f1f"
         id="path187" />
      <path
         d="m50.51758,222.8291l-1.66016-3.90234c-.02734-.06055-.04688-.12158-.04688-.19629,0-.22363.18262-.40625.41992-.40625.2168,0,.35938.12207.42676.29785l1.36816,3.42139,1.38867-3.44873c.05469-.14209.20312-.27051.40039-.27051.23047,0,.41309.17578.41309.39941,0,.06104-.02051.12891-.04102.17627l-1.66602,3.9292c-.08887.20996-.24414.33887-.48145.33887h-.04688c-.23047,0-.38672-.12891-.47461-.33887Z"
         fill="#1f1f1f"
         id="path189" />
      <path
         d="m56.04492,222.29395l1.45703-1.23975c.65039-.54834.8877-.85352.8877-1.28027,0-.46729-.33203-.73877-.76562-.73877-.37988,0-.64355.17627-.93457.52881-.06152.06787-.15625.12842-.29199.12842-.20996,0-.37988-.16895-.37988-.37891,0-.08838.03418-.18311.0957-.25781.38574-.48096.82617-.76562,1.57129-.76562.92871,0,1.56543.56934,1.56543,1.41602v.01367c0,.74512-.39258,1.15137-1.2334,1.83594l-.97559.81299h1.92383c.20312,0,.36621.1626.36621.36572s-.16309.36621-.36621.36621h-2.68945c-.25781,0-.44727-.14941-.44727-.39307,0-.1626.07422-.29834.2168-.41357Z"
         fill="#1f1f1f"
         id="path191" />
    </g>
    <g
       id="g201">
      <path
         d="m75.68945,220.74219v-.01367c0-1.34814,1.00977-2.45215,2.44629-2.45215.73145,0,1.21289.2168,1.62598.53516.08789.06738.16211.18262.16211.33203,0,.22998-.18262.40625-.41309.40625-.11426,0-.19629-.04053-.25098-.08105-.32422-.26465-.67676-.42676-1.13086-.42676-.90039,0-1.56445.74512-1.56445,1.67285v.01367c0,.92822.65625,1.68018,1.56445,1.68018.50195,0,.83984-.1626,1.18555-.45361.06055-.05469.14941-.09473.25098-.09473.20996,0,.39258.17578.39258.38574,0,.12891-.06055.23047-.13574.29834-.44727.39307-.95508.63672-1.7207.63672-1.38184,0-2.41211-1.07715-2.41211-2.43896Z"
         fill="#1f1f1f"
         id="path195" />
      <path
         d="m82.50098,222.8291l-1.66016-3.90234c-.02734-.06152-.04785-.12207-.04785-.19678,0-.22363.18359-.40674.41992-.40674.2168,0,.35938.12207.42773.29834l1.36816,3.42139,1.38867-3.44824c.05469-.14258.20312-.27148.39941-.27148.23047,0,.41406.17676.41406.3999,0,.06104-.02051.12891-.04102.17627l-1.66602,3.92969c-.08887.20996-.24414.33838-.48145.33838h-.04785c-.23047,0-.38574-.12842-.47363-.33838Z"
         fill="#1f1f1f"
         id="path197" />
      <path
         d="m88.02148,222.56445c-.07422-.06055-.13477-.17578-.13477-.29785,0-.2168.18262-.3999.39941-.3999.12207,0,.20996.04736.27734.1084.29785.29834.63672.4541,1.07715.4541.46777,0,.82031-.28467.82031-.71826v-.01367c0-.46729-.42773-.73145-1.09082-.73145h-.16992c-.19629,0-.3584-.1626-.3584-.35938,0-.1084.04688-.20996.17578-.33838l1.11133-1.18604h-1.7207c-.20312,0-.36621-.16211-.36621-.35889,0-.20312.16309-.36572.36621-.36572h2.4248c.2373,0,.41309.14258.41309.36572,0,.19678-.09473.31201-.23633.4541l-1.11816,1.15869c.71777.08789,1.39551.45361,1.39551,1.32764v.01367c0,.87354-.6709,1.50391-1.66016,1.50391-.69727,0-1.21875-.24365-1.60547-.6167Z"
         fill="#1f1f1f"
         id="path199" />
    </g>
    <g
       id="g209">
      <path
         d="m107.47266,220.74219v-.01367c0-1.34814,1.00977-2.45215,2.44629-2.45215.73145,0,1.21191.2168,1.62598.53516.08789.06738.16211.18262.16211.33203,0,.22998-.18262.40625-.41309.40625-.11523,0-.19629-.04053-.25098-.08105-.32422-.26465-.67773-.42676-1.13086-.42676-.90137,0-1.56543.74512-1.56543,1.67285v.01367c0,.92822.65723,1.68018,1.56543,1.68018.50098,0,.83984-.1626,1.18555-.45361.06055-.05469.14844-.09473.25-.09473.21094,0,.39355.17578.39355.38574,0,.12891-.06152.23047-.13574.29834-.44727.39307-.95508.63672-1.7207.63672-1.38184,0-2.41211-1.07715-2.41211-2.43896Z"
         fill="#1f1f1f"
         id="path203" />
      <path
         d="m114.2832,222.8291l-1.65918-3.90234c-.02734-.06152-.04785-.12207-.04785-.19678,0-.22363.18359-.40674.41992-.40674.2168,0,.35938.12207.42773.29834l1.36816,3.42139,1.38867-3.44824c.05371-.14258.20312-.27148.39941-.27148.23047,0,.41406.17676.41406.3999,0,.06104-.02148.12891-.04102.17627l-1.66699,3.92969c-.08789.20996-.24316.33838-.48145.33838h-.04688c-.23047,0-.38672-.12842-.47461-.33838Z"
         fill="#1f1f1f"
         id="path205" />
      <path
         d="m122.09473,222.03613h-2.12109c-.22363,0-.40625-.1626-.40625-.39258,0-.16309.06152-.29834.18262-.44043l2.22949-2.64258c.14941-.17578.26465-.271.50781-.271.22363,0,.40723.17627.40723.3999v2.6626h.36523c.19629,0,.3457.15576.3457.34521,0,.18994-.14941.33887-.3457.33887h-.36523v.70459c0,.22363-.17676.39307-.40039.39307s-.39941-.16943-.39941-.39307v-.70459Zm0-.68408v-1.87646l-1.55859,1.87646h1.55859Z"
         fill="#1f1f1f"
         id="path207" />
    </g>
    <g
       id="g217">
      <path
         d="m43.5498,316.55176v-.01318c0-1.34814,1.0166-2.45264,2.47266-2.45264.71191,0,1.19238.18945,1.58496.48096.1084.08154.2041.23047.2041.41357,0,.28418-.23047.50781-.51562.50781-.1416,0-.23633-.0542-.31152-.10156-.29102-.2168-.5957-.33887-.96875-.33887-.79883,0-1.375.66406-1.375,1.47705v.01367c0,.81299.5625,1.49023,1.375,1.49023.44043,0,.73145-.13525,1.03027-.37256.08105-.06738.18945-.11523.31152-.11523.26367,0,.4873.2168.4873.48145,0,.16211-.08105.29102-.17578.37207-.42676.37305-.92871.59668-1.6875.59668-1.39551,0-2.43164-1.07715-2.43164-2.43945Z"
         fill="#f0f0f0"
         id="path211" />
      <path
         d="m48.96777,314.64844c0-.2915.23047-.52197.52148-.52197s.52148.23047.52148.52197v1.39551h1.9248v-1.39551c0-.2915.22949-.52197.52148-.52197.29102,0,.52148.23047.52148.52197v3.78027c0,.29102-.23047.52148-.52148.52148-.29199,0-.52148-.23047-.52148-.52148v-1.42285h-1.9248v1.42285c0,.29102-.23047.52148-.52148.52148s-.52148-.23047-.52148-.52148v-3.78027Z"
         fill="#f0f0f0"
         id="path213" />
      <path
         d="m56.14844,317.89355l1.34863-1.10449c.58887-.48096.81934-.74512.81934-1.13818,0-.3999-.26465-.6167-.63672-.6167-.29785,0-.50781.12891-.77246.41357-.06738.07471-.18945.14893-.35254.14893-.26367,0-.47363-.20996-.47363-.47412,0-.11523.04688-.2373.12207-.3252.37891-.44043.82617-.69775,1.54395-.69775.98242,0,1.63281.57568,1.63281,1.46338v.01318c0,.79297-.40625,1.18555-1.24609,1.83594l-.77246.59668h1.65332c.25,0,.45312.20312.45312.45361s-.20312.44727-.45312.44727h-2.5752c-.3252,0-.56152-.18311-.56152-.49463,0-.20312.09473-.37939.27051-.52148Z"
         fill="#f0f0f0"
         id="path215" />
    </g>
    <g
       id="g225">
      <path
         d="m12.23047,316.55176v-.01318c0-1.34814,1.0166-2.45264,2.47363-2.45264.71094,0,1.19238.18945,1.58496.48096.1084.08154.20312.23047.20312.41357,0,.28418-.23047.50781-.51465.50781-.14258,0-.2373-.0542-.31152-.10156-.29199-.2168-.59668-.33887-.96875-.33887-.7998,0-1.37598.66406-1.37598,1.47705v.01367c0,.81299.5625,1.49023,1.37598,1.49023.44043,0,.73145-.13525,1.0293-.37256.08105-.06738.18945-.11523.31152-.11523.26465,0,.48828.2168.48828.48145,0,.16211-.08105.29102-.17676.37207-.42676.37305-.92773.59668-1.68652.59668-1.39551,0-2.43262-1.07715-2.43262-2.43945Z"
         fill="#f0f0f0"
         id="path219" />
      <path
         d="m17.64844,314.64844c0-.2915.23047-.52197.52246-.52197.29102,0,.52148.23047.52148.52197v1.39551h1.92383v-1.39551c0-.2915.23047-.52197.52148-.52197.29199,0,.52148.23047.52148.52197v3.78027c0,.29102-.22949.52148-.52148.52148-.29102,0-.52148-.23047-.52148-.52148v-1.42285h-1.92383v1.42285c0,.29102-.23047.52148-.52148.52148-.29199,0-.52246-.23047-.52246-.52148v-3.78027Z"
         fill="#f0f0f0"
         id="path221" />
      <path
         d="m25.47363,315.15625l-.36621.09473c-.05469.01367-.12891.02734-.18262.02734-.24414,0-.4541-.20312-.4541-.44727,0-.20996.13574-.38574.3457-.44727l.66992-.19629c.19727-.0542.3457-.08789.48828-.08789h.01367c.28418,0,.51465.23047.51465.51465v3.82129c0,.28418-.23047.51465-.51465.51465-.28516,0-.51465-.23047-.51465-.51465v-3.2793Z"
         fill="#f0f0f0"
         id="path223" />
    </g>
    <g
       id="g233">
      <path
         d="m75.55664,316.55176v-.01318c0-1.34814,1.0166-2.45264,2.47266-2.45264.71191,0,1.19238.18945,1.58496.48096.1084.08154.2041.23047.2041.41357,0,.28418-.23047.50781-.51562.50781-.1416,0-.23633-.0542-.31152-.10156-.29102-.2168-.5957-.33887-.96875-.33887-.79883,0-1.375.66406-1.375,1.47705v.01367c0,.81299.5625,1.49023,1.375,1.49023.44043,0,.73145-.13525,1.03027-.37256.08105-.06738.18945-.11523.31152-.11523.26367,0,.4873.2168.4873.48145,0,.16211-.08105.29102-.17578.37207-.42676.37305-.92871.59668-1.6875.59668-1.39551,0-2.43164-1.07715-2.43164-2.43945Z"
         fill="#f0f0f0"
         id="path227" />
      <path
         d="m80.97461,314.64844c0-.2915.23047-.52197.52148-.52197s.52148.23047.52148.52197v1.39551h1.9248v-1.39551c0-.2915.22949-.52197.52148-.52197.29102,0,.52148.23047.52148.52197v3.78027c0,.29102-.23047.52148-.52148.52148-.29199,0-.52148-.23047-.52148-.52148v-1.42285h-1.9248v1.42285c0,.29102-.23047.52148-.52148.52148s-.52148-.23047-.52148-.52148v-3.78027Z"
         fill="#f0f0f0"
         id="path229" />
      <path
         d="m88.12793,318.44922c-.09473-.08154-.17578-.22363-.17578-.37305,0-.27051.23047-.50098.50098-.50098.14941,0,.25098.06055.33203.12842.27148.23047.55566.35254.92871.35254.39258,0,.66992-.22363.66992-.57568v-.01367c0-.38623-.34473-.60303-.92773-.60303h-.16211c-.24414,0-.44727-.20361-.44727-.44727,0-.14209.06055-.26416.22363-.42676l.9209-.92822h-1.45605c-.24414,0-.44727-.20312-.44727-.44727,0-.24365.20312-.44727.44727-.44727h2.30957c.30469,0,.52832.17627.52832.46094,0,.25732-.12207.39941-.31152.58252l-.92773.8877c.64355.1084,1.27344.44678,1.27344,1.32764v.01367c0,.89453-.65039,1.55176-1.70703,1.55176-.67773,0-1.18555-.20996-1.57227-.54199Z"
         fill="#f0f0f0"
         id="path231" />
    </g>
    <g
       id="g241">
      <path
         d="m107.3252,316.55176v-.01318c0-1.34814,1.0166-2.45264,2.47363-2.45264.71094,0,1.19238.18945,1.58496.48096.1084.08154.20312.23047.20312.41357,0,.28418-.23047.50781-.51465.50781-.14258,0-.2373-.0542-.31152-.10156-.29199-.2168-.59668-.33887-.96875-.33887-.7998,0-1.37598.66406-1.37598,1.47705v.01367c0,.81299.5625,1.49023,1.37598,1.49023.44043,0,.73145-.13525,1.0293-.37256.08105-.06738.18945-.11523.31152-.11523.26465,0,.48828.2168.48828.48145,0,.16211-.08105.29102-.17676.37207-.42676.37305-.92773.59668-1.68652.59668-1.39551,0-2.43262-1.07715-2.43262-2.43945Z"
         fill="#f0f0f0"
         id="path235" />
      <path
         d="m112.74316,314.64844c0-.2915.23047-.52197.52246-.52197.29102,0,.52148.23047.52148.52197v1.39551h1.92383v-1.39551c0-.2915.23047-.52197.52148-.52197.29199,0,.52148.23047.52148.52197v3.78027c0,.29102-.22949.52148-.52148.52148-.29102,0-.52148-.23047-.52148-.52148v-1.42285h-1.92383v1.42285c0,.29102-.23047.52148-.52148.52148-.29199,0-.52246-.23047-.52246-.52148v-3.78027Z"
         fill="#f0f0f0"
         id="path237" />
      <path
         d="m122.05859,317.88672h-1.95117c-.27832,0-.50781-.20312-.50781-.48096,0-.2168.08789-.38623.24316-.56934l2.05957-2.39111c.19629-.23047.3457-.35254.65039-.35254.27832,0,.50195.2168.50195.49463v2.45264h.25c.2373,0,.42676.18945.42676.42676,0,.23682-.18945.41992-.42676.41992h-.25v.56934c0,.27734-.22363.49414-.50195.49414-.27734,0-.49414-.2168-.49414-.49414v-.56934Zm0-.84668v-1.47705l-1.26074,1.47705h1.26074Z"
         fill="#f0f0f0"
         id="path239" />
    </g>
    <g
       id="g247">
      <path
         d="m64.85547,66.62256h-.85156c-.17969,0-.3291-.14404-.3291-.32959,0-.18018.14941-.33008.3291-.33008h.85156v-.8335c0-.19189.15039-.3418.3418-.3418.18652,0,.3418.1499.3418.3418v.8335h.85156c.18066,0,.33008.1499.33008.33008,0,.18555-.14941.32959-.33008.32959h-.85156v.8335c0,.19189-.15527.3418-.3418.3418-.19141,0-.3418-.1499-.3418-.3418v-.8335Z"
         fill="#1f1f1f"
         id="path243" />
      <path
         d="m68.12207,68.03174c-.31836-.31787-.50977-.75537-.50977-1.60107v-.01172c0-1.28369.61133-2.28516,1.79883-2.28516.43164,0,.77344.11426,1.0498.2998.11328.07227.18555.16797.18555.31787,0,.19189-.16211.3418-.35352.3418-.06641,0-.13184-.02393-.18652-.0542-.22754-.14941-.4375-.2334-.71973-.2334-.62305,0-.9707.56348-1.00684,1.33105.22168-.21582.50977-.41992,1.00684-.41992.80957,0,1.46387.47998,1.46387,1.31934v.01221c0,.8335-.67773,1.42725-1.55957,1.42725-.51562,0-.8877-.16211-1.16895-.44385Zm1.99023-.95361v-.01172c0-.41992-.33496-.73145-.85742-.73145-.52148,0-.85156.33545-.85156.7373v.01172c0,.42578.34766.75.87012.75.52148,0,.83887-.32422.83887-.75586Z"
         fill="#1f1f1f"
         id="path245" />
    </g>
    <g
       id="g253">
      <path
         d="m84.2666,204.01416h-.85156c-.17969,0-.3291-.14404-.3291-.32959,0-.18018.14941-.33008.3291-.33008h.85156v-.8335c0-.19189.15039-.3418.3418-.3418.18652,0,.3418.1499.3418.3418v.8335h.85156c.18066,0,.33008.1499.33008.33008,0,.18555-.14941.32959-.33008.32959h-.85156v.8335c0,.19189-.15527.3418-.3418.3418-.19141,0-.3418-.1499-.3418-.3418v-.8335Z"
         fill="#1f1f1f"
         id="path249" />
      <path
         d="m87.5332,205.42334c-.31836-.31787-.50977-.75537-.50977-1.60107v-.01172c0-1.28369.61133-2.28516,1.79883-2.28516.43164,0,.77344.11426,1.0498.2998.11328.07227.18555.16797.18555.31787,0,.19189-.16211.3418-.35352.3418-.06641,0-.13184-.02393-.18652-.0542-.22754-.14941-.4375-.2334-.71973-.2334-.62305,0-.9707.56348-1.00684,1.33105.22168-.21582.50977-.41992,1.00684-.41992.80957,0,1.46387.47998,1.46387,1.31934v.01221c0,.8335-.67773,1.42725-1.55957,1.42725-.51562,0-.8877-.16211-1.16895-.44385Zm1.99023-.95361v-.01172c0-.41992-.33496-.73145-.85742-.73145-.52148,0-.85156.33545-.85156.7373v.01172c0,.42578.34766.75.87012.75.52148,0,.83887-.32422.83887-.75586Z"
         fill="#1f1f1f"
         id="path251" />
    </g>
    <path
       d="m49.75313,204.22443c-.48955.53211-.99786,1.11515-1.77676,1.11515-.80705,0-1.38262-.64584-1.38262-1.54203,0-.82321.61467-1.54288,1.45926-1.54288.71164,0,1.23873.61528,1.70012,1.11515.48955-.53127.99943-1.11515,1.77676-1.11515.81643,0,1.38262.64668,1.38262,1.54288,0,.82321-.61467,1.54203-1.45926,1.54203-.71008,0-1.23873-.61443-1.70012-1.11515Zm-.38319-.42688c-.37537-.37511-.76951-.91741-1.32631-.91741-.48016,0-.84459.42773-.84459.91741,0,.53127.34565.91741.81643.91741.54742,0,.98848-.5109,1.35446-.91741Zm2.93884,0c0-.53211-.34565-.91741-.81643-.91741-.54742,0-.99004.5109-1.35446.91741.37381.37511.76795.91741,1.32475.91741.48016,0,.84615-.42773.84615-.91741Z"
       fill="#1f1f1f"
       id="path255" />
    <path
       d="m62.50684,132.02344c0-.19824.16211-.36035.35449-.36035h1.12695c.19238,0,.35352.16211.35352.36035,0,.19141-.16113.35352-.35352.35352h-1.12695c-.19238,0-.35449-.16211-.35449-.35352Z"
       fill="#1f1f1f"
       id="path257" />
    <path
       d="m68.6418,132.28589c-.48955.53211-.99786,1.11515-1.77676,1.11515-.80705,0-1.38262-.64584-1.38262-1.54203,0-.82321.61467-1.54288,1.45926-1.54288.71164,0,1.23873.61528,1.70012,1.11515.48955-.53127.99943-1.11515,1.77676-1.11515.81643,0,1.38262.64668,1.38262,1.54288,0,.82321-.61467,1.54203-1.45926,1.54203-.71008,0-1.23873-.61443-1.70012-1.11515Zm-.38319-.42688c-.37537-.37511-.76951-.91741-1.32631-.91741-.48016,0-.84459.42773-.84459.91741,0,.53127.34565.91741.81643.91741.54742,0,.98848-.5109,1.35446-.91741Zm2.93884,0c0-.53211-.34565-.91741-.81643-.91741-.54742,0-.99004.5109-1.35446.91741.37381.37511.76795.91741,1.32475.91741.48016,0,.84615-.42773.84615-.91741Z"
       fill="#1f1f1f"
       id="path259" />
  </g>
  <g
     id="uuid-9b3bac45-1967-4956-91da-104a4405c539"
     data-name="components"
     inkscape:groupmode="layer"
     style="display:none">
    <circle
       id="uuid-58eb6e2d-4098-47ff-9149-a65f5028a347"
       data-name="Mix#PJ301MPort"
       cx="115.5002"
       cy="190"
       r="5"
       fill="#0000ff" />
    <circle
       id="uuid-38b46fce-c2bd-491d-9058-43c801f7dfa0"
       data-name="In1#PJ301MPort"
       cx="19.500219"
       cy="286"
       r="5"
       fill="#00ff00" />
    <circle
       id="uuid-e4ee7a5e-3c38-4e6c-941e-4ece64a498ae"
       data-name="In2#PJ301MPort"
       cx="51.500198"
       cy="286"
       r="5"
       fill="#00ff00" />
    <circle
       id="uuid-a66db402-f917-43c2-a568-93013888ae70"
       data-name="In3#PJ301MPort"
       cx="83.500198"
       cy="286"
       r="5"
       fill="#00ff00" />
    <circle
       id="uuid-e8928003-6110-4224-a0f7-d47177a618ff"
       data-name="MixCv#PJ301MPort"
       cx="19.500219"
       cy="190"
       r="5"
       fill="#00ff00" />
    <circle
       id="uuid-638b0860-a083-4822-b28d-e354b240f9b4"
       data-name="In4#PJ301MPort"
       cx="115.5002"
       cy="285.88962"
       r="5"
       fill="#00ff00" />
    <circle
       id="uuid-ec7ccfd2-524e-4bef-9cb5-f0fb87fcd839"
       data-name="Cv1#PJ301MPort"
       cx="19.500219"
       cy="237.8421"
       r="5"
       fill="#00ff00" />
    <circle
       id="uuid-d0f49ac1-b0b5-4002-bee9-2e70d34f48b0"
       data-name="Cv2#PJ301MPort"
       cx="51.500198"
       cy="237.8421"
       r="5"
       fill="#00ff00" />
    <circle
       id="uuid-e00b63a5-80db-47a8-80e0-fcf6117ec707"
       data-name="Cv3#PJ301MPort"
       cx="83.500198"
       cy="237.8421"
       r="5"
       fill="#00ff00" />
    <circle
       id="uuid-2f17bc97-49a5-40b8-922f-a350006f4812"
       data-name="Cv4#PJ301MPort"
       cx="115.5002"
       cy="237.8421"
       r="5"
       fill="#00ff00" />
    <circle
       id="uuid-ad3e729e-b8b4-4fb4-b1a9-5d4dddf64b36"
       data-name="Out2#PJ301MPort"
       cx="51.500198"
       cy="334"
       r="5"
       fill="#0000ff" />
    <circle
       id="uuid-a35dad8d-a5a9-48c5-8478-c229f777257f"
       data-name="Out1#PJ301MPort"
       cx="19.500219"
       cy="334"
       r="5"
       fill="#0000ff" />
    <circle
       id="uuid-87010d58-6899-45b5-a91f-7a6e039f6268"
       data-name="Out3#PJ301MPort"
       cx="83.500198"
       cy="334"
       r="5"
       fill="#0000ff" />
    <circle
       id="uuid-bf507610-9076-41d8-a1f2-9d2a2e186ed7"
       data-name="Out4#PJ301MPort"
       cx="115.5002"
       cy="334"
       r="5"
       fill="#0000ff" />
    <circle
       id="uuid-d24582a5-ca92-4c36-b5e2-617f3e50b6cd"
       data-name="Level1#LEDSlider"
       cx="19.500219"
       cy="99.228233"
       r="5"
       fill="#ff0000" />
    <circle
       id="uuid-786fb62e-2090-457c-87f0-3f2a73ee857d"
       data-name="Level2#LEDSlider"
       cx="51.500198"
       cy="99.228233"
       r="5"
       fill="#ff0000" />
    <circle
       id="uuid-3c9b6941-4342-42dd-b47d-0231868804f2"
       data-name="Level3#LEDSlider"
       cx="83.500198"
       cy="99.228233"
       r="5"
       fill="#ff0000" />
    <circle
       id="uuid-a0e2789f-66d0-472a-a0ba-d34fac4676e9"
       data-name="Level4#LEDSlider"
       cx="115.5002"
       cy="99.228233"
       r="5"
       fill="#ff0000" />
    <circle
       id="uuid-4d77c7fa-b59c-4c81-b54c-31152f8de7dd"
       data-name="Mix#RoundBlackKnob"
       cx="67.251427"
       cy="190.05563"
       r="5"
       fill="#ff0000" />
  </g>
</svg>
