<?xml version="1.0" encoding="UTF-8" standalone="no"?>
<!-- Created with Inkscape (http://www.inkscape.org/) -->

<svg
   xmlns:dc="http://purl.org/dc/elements/1.1/"
   xmlns:cc="http://creativecommons.org/ns#"
   xmlns:rdf="http://www.w3.org/1999/02/22-rdf-syntax-ns#"
   xmlns:svg="http://www.w3.org/2000/svg"
   xmlns="http://www.w3.org/2000/svg"
   xmlns:sodipodi="http://sodipodi.sourceforge.net/DTD/sodipodi-0.dtd"
   xmlns:inkscape="http://www.inkscape.org/namespaces/inkscape"
   width="150.22649"
   height="379.99997"
   viewBox="0 0 39.747425 100.54168"
   version="1.1"
   id="svg4541"
   sodipodi:docname="VCMixer.svg"
   inkscape:version="0.92.2 5c3e80d, 2017-08-06">
  <defs
     id="defs4535" />
  <sodipodi:namedview
     id="base"
     pagecolor="#ffffff"
     bordercolor="#666666"
     borderopacity="1.0"
     inkscape:pageopacity="0.0"
     inkscape:pageshadow="2"
     inkscape:zoom="0.98994949"
     inkscape:cx="-493.38584"
     inkscape:cy="57.510351"
     inkscape:document-units="mm"
     inkscape:current-layer="g13383"
     showgrid="false"
     fit-margin-top="0"
     fit-margin-left="0"
     fit-margin-right="0"
     fit-margin-bottom="0"
     inkscape:window-width="2560"
     inkscape:window-height="1440"
     inkscape:window-x="0"
     inkscape:window-y="0"
     inkscape:window-maximized="0"
     units="px" />
  <metadata
     id="metadata4538">
    <rdf:RDF>
      <cc:Work
         rdf:about="">
        <dc:format>image/svg+xml</dc:format>
        <dc:type
           rdf:resource="http://purl.org/dc/dcmitype/StillImage" />
        <dc:title></dc:title>
      </cc:Work>
    </rdf:RDF>
  </metadata>
  <g
     inkscape:label="Layer 1"
     inkscape:groupmode="layer"
     id="layer1"
     transform="translate(5.559749,-98.968292)">
    <g
       transform="matrix(0.27602379,0,0,0.27602379,354.09618,57.736346)"
       id="g13122"
       style="stroke-width:0.9585526">
      <g
         transform="translate(-167.07644,-20.557569)"
         id="g13178"
         style="stroke-width:0.91882312">
        <g
           transform="translate(-99.2314,6.0949065)"
           id="g13224"
           style="stroke-width:0.88074034">
          <g
             transform="translate(-315.65411,137.78158)"
             id="g13271"
             style="stroke-width:0.84423596">
            <g
               transform="translate(-332.2261,26.059316)"
               id="g13383"
               style="stroke-width:0.80924457">
              <path
                 style="fill:#e6e6e6;fill-opacity:1;fill-rule:nonzero;stroke:none;stroke-width:0.80924457"
                 d="m -388.5352,0.265625 h 143.46875 V 363.98828 H -388.5352 Z m 0,0"
                 id="path25069"
                 inkscape:connector-curvature="0" />
              <path
                 style="fill:#000000;fill-opacity:1;fill-rule:nonzero;stroke:none;stroke-width:0.80924457"
                 d="m -324.60551,352.50781 c -0.32813,0 -0.63282,-0.1875 -0.78125,-0.48437 l -2.83985,-5.6836 c -0.21484,-0.42968 -0.0391,-0.95703 0.39063,-1.17187 0.42969,-0.21484 0.95703,-0.0391 1.17187,0.39062 l 2.0586,4.1211 2.0625,-4.1211 c 0.21484,-0.42968 0.74218,-0.60546 1.17187,-0.39062 0.42969,0.21484 0.60547,0.74219 0.39063,1.17187 l -2.83985,5.6836 c -0.14843,0.29687 -0.45312,0.48437 -0.78515,0.48437"
                 id="path25403"
                 inkscape:connector-curvature="0" />
              <path
                 style="fill:#000000;fill-opacity:1;fill-rule:nonzero;stroke:none;stroke-width:0.80924457"
                 d="m -308.99614,352.50781 c -0.33203,0 -0.63281,-0.1875 -0.78125,-0.48437 l -2.84375,-5.6836 c -0.21484,-0.42968 -0.0391,-0.95703 0.39063,-1.17187 0.43359,-0.21484 0.95703,-0.0391 1.17578,0.39062 l 2.05859,4.1211 2.0586,-4.1211 c 0.21484,-0.42968 0.74218,-0.60546 1.17187,-0.39062 0.43359,0.21484 0.60938,0.74219 0.39453,1.17187 l -2.84375,5.6836 c -0.14844,0.29687 -0.44922,0.48437 -0.78125,0.48437"
                 id="path25405"
                 inkscape:connector-curvature="0" />
              <path
                 style="fill:#000000;fill-opacity:1;fill-rule:nonzero;stroke:none;stroke-width:0.80924457"
                 d="m -316.37504,352.50781 c -2.05079,0 -3.71875,-1.66797 -3.71875,-3.71484 0,-2.05078 1.66796,-3.71875 3.71875,-3.71875 0.8125,0 1.58203,0.25781 2.23046,0.74609 0.38282,0.28907 0.46094,0.83594 0.17188,1.22266 -0.28906,0.38672 -0.83594,0.46484 -1.22266,0.17578 -0.34375,-0.25781 -0.75,-0.39453 -1.17968,-0.39453 -1.08594,0 -1.96875,0.88281 -1.96875,1.96875 0,1.08203 0.88281,1.96484 1.96875,1.96484 0.42968,0 0.83593,-0.13672 1.17968,-0.39062 0.38672,-0.29297 0.9336,-0.21485 1.22266,0.17187 0.28906,0.38672 0.21094,0.9336 -0.17188,1.22657 -0.64843,0.48437 -1.41796,0.74218 -2.23046,0.74218"
                 id="path25407"
                 inkscape:connector-curvature="0" />
              <path
                 style="fill:#000000;fill-opacity:1;fill-rule:nonzero;stroke:none;stroke-width:0.80924457"
                 d="m -315.18364,348.74609 c 0,0.62891 -0.50781,1.13672 -1.13672,1.13672 -0.625,0 -1.13672,-0.50781 -1.13672,-1.13672 0,-0.625 0.51172,-1.13671 1.13672,-1.13671 0.62891,0 1.13672,0.51171 1.13672,1.13671"
                 id="path25409"
                 inkscape:connector-curvature="0" />
              <path
                 inkscape:connector-curvature="0"
                 id="path12254"
                 d="m -363.98985,62.121292 c 0.73437,0 1.21875,-0.234375 1.64062,-0.609375 0.0781,-0.0625 0.14063,-0.171875 0.14063,-0.28125 0,-0.203125 -0.1875,-0.375 -0.39063,-0.375 -0.0937,0 -0.17187,0.03125 -0.23437,0.09375 -0.32813,0.28125 -0.65625,0.4375 -1.14063,0.4375 -0.85937,0 -1.5,-0.734375 -1.5,-1.625 0,-0.890625 0.64063,-1.609375 1.5,-1.609375 0.4375,0 0.78125,0.15625 1.09375,0.40625 0.0469,0.04687 0.125,0.07813 0.23438,0.07813 0.21875,0 0.40625,-0.171875 0.40625,-0.390625 0,-0.140625 -0.0781,-0.25 -0.15625,-0.3125 -0.40625,-0.3125 -0.85938,-0.515625 -1.5625,-0.515625 -1.375,0 -2.34375,1.0625 -2.34375,2.34375 v 0.01563 c 0,1.3125 0.98437,2.34375 2.3125,2.34375 z m 0,0"
                 style="fill:#000000;fill-opacity:1;stroke:none;stroke-width:0.80924457" />
              <path
                 inkscape:connector-curvature="0"
                 id="path12250"
                 d="m -359.31559,62.105667 h 0.0469 c 0.21875,0 0.375,-0.125 0.45313,-0.328125 l 1.60937,-3.765625 c 0.0156,-0.04687 0.0312,-0.109375 0.0312,-0.171875 0,-0.203125 -0.17187,-0.375 -0.39062,-0.375 -0.1875,0 -0.32813,0.125 -0.39063,0.25 l -1.32812,3.3125 -1.3125,-3.28125 c -0.0625,-0.171875 -0.20313,-0.28125 -0.40625,-0.28125 -0.23438,0 -0.40625,0.171875 -0.40625,0.390625 0,0.0625 0.0156,0.125 0.0469,0.1875 l 1.59375,3.734375 c 0.0781,0.203125 0.23438,0.328125 0.45313,0.328125 z m 0,0"
                 style="fill:#000000;fill-opacity:1;stroke:none;stroke-width:0.80924457" />
              <path
                 inkscape:connector-curvature="0"
                 id="path12246"
                 d="m -380.53697,137.12278 c 0,0.21875 0.1875,0.39063 0.40625,0.39063 0.21875,0 0.40625,-0.17188 0.40625,-0.39063 v -3.82812 c 0,-0.21875 -0.1875,-0.39063 -0.40625,-0.39063 -0.21875,0 -0.40625,0.17188 -0.40625,0.39063 z m 0,0"
                 style="fill:#000000;fill-opacity:1;stroke:none;stroke-width:0.80924457" />
              <path
                 inkscape:connector-curvature="0"
                 id="path12242"
                 d="m -378.31535,137.12278 c 0,0.21875 0.1875,0.39063 0.40625,0.39063 0.21875,0 0.39062,-0.17188 0.39062,-0.39063 v -2.89062 l 2.34375,3.03125 c 0.10938,0.14062 0.21875,0.25 0.40625,0.25 h 0.0312 c 0.21875,0 0.39063,-0.1875 0.39063,-0.40625 v -3.8125 c 0,-0.21875 -0.17188,-0.39063 -0.39063,-0.39063 -0.21875,0 -0.39062,0.17188 -0.39062,0.39063 v 2.79687 l -2.28125,-2.95312 c -0.10938,-0.14063 -0.21875,-0.23438 -0.40625,-0.23438 h -0.0937 c -0.21875,0 -0.40625,0.1875 -0.40625,0.40625 z m 0,0"
                 style="fill:#000000;fill-opacity:1;stroke:none;stroke-width:0.80924457" />
              <path
                 style="fill:#212121;fill-opacity:1;fill-rule:nonzero;stroke:none;stroke-width:0.80924457"
                 d="m -258.07817,127.82422 c 0,-1.55859 -1.27734,-2.83203 -2.83594,-2.83203 h -21.77343 c -1.5586,0 -2.83594,1.27344 -2.83594,2.83203 v 34.50781 c 0,1.5586 1.27734,2.83203 2.83594,2.83203 h 21.77343 c 1.5586,0 2.83594,-1.27343 2.83594,-2.83203 z m 0,0"
                 id="path25479"
                 inkscape:connector-curvature="0" />
              <path
                 inkscape:connector-curvature="0"
                 id="path12238"
                 d="m -276.57518,133.82319 c 1.40625,0 2.4375,-1.0625 2.4375,-2.35937 0,-1.29688 -1.01562,-2.34375 -2.42187,-2.34375 -1.40625,0 -2.42188,1.0625 -2.42188,2.34375 v 0.0156 c 0,1.29688 1.01563,2.34375 2.40625,2.34375 z m 0.0156,-0.92187 c -0.79688,0 -1.375,-0.65625 -1.375,-1.4375 0,-0.78125 0.5625,-1.42188 1.35937,-1.42188 0.8125,0 1.39063,0.64063 1.39063,1.42188 v 0.0156 c 0,0.78125 -0.5625,1.42188 -1.375,1.42188 z m 0,0"
                 style="fill:#e6e6e6;fill-opacity:1;stroke:none;stroke-width:0.80924457" />
              <path
                 inkscape:connector-curvature="0"
                 id="path12234"
                 d="m -271.14238,133.82319 c 1.23438,0 2,-0.6875 2,-2.0625 v -2.10937 c 0,-0.28125 -0.21875,-0.5 -0.5,-0.5 -0.28125,0 -0.5,0.21875 -0.5,0.5 v 2.15625 c 0,0.71875 -0.375,1.09375 -0.98437,1.09375 -0.60938,0 -0.98438,-0.39063 -0.98438,-1.125 v -2.125 c 0,-0.28125 -0.21875,-0.5 -0.5,-0.5 -0.26562,0 -0.5,0.21875 -0.5,0.5 v 2.14062 c 0,1.34375 0.75,2.03125 1.96875,2.03125 z m 0,0"
                 style="fill:#e6e6e6;fill-opacity:1;stroke:none;stroke-width:0.80924457" />
              <path
                 inkscape:connector-curvature="0"
                 id="path12230"
                 d="m -266.8745,133.27632 c 0,0.28125 0.21875,0.5 0.5,0.5 0.28125,0 0.5,-0.21875 0.5,-0.5 v -3.15625 h 0.95313 c 0.26562,0 0.46875,-0.20313 0.46875,-0.46875 0,-0.25 -0.20313,-0.45313 -0.46875,-0.45313 h -2.92188 c -0.25,0 -0.45312,0.20313 -0.45312,0.45313 0,0.26562 0.20312,0.46875 0.45312,0.46875 h 0.96875 z m 0,0"
                 style="fill:#e6e6e6;fill-opacity:1;stroke:none;stroke-width:0.80924457" />
              <path
                 style="fill:#212121;fill-opacity:1;fill-rule:nonzero;stroke:none;stroke-width:0.80924457"
                 d="m -258.07817,205.0625 c 0,-1.55859 -1.27734,-2.83203 -2.83594,-2.83203 h -21.77343 c -1.5586,0 -2.83594,1.27344 -2.83594,2.83203 v 34.50781 c 0,1.5586 1.27734,2.83203 2.83594,2.83203 h 21.77343 c 1.5586,0 2.83594,-1.27343 2.83594,-2.83203 z m 0,0"
                 id="path25491"
                 inkscape:connector-curvature="0" />
              <path
                 inkscape:connector-curvature="0"
                 id="path12226"
                 d="m -276.57518,211.05859 c 1.40625,0 2.4375,-1.0625 2.4375,-2.35937 0,-1.29688 -1.01562,-2.34375 -2.42187,-2.34375 -1.40625,0 -2.42188,1.0625 -2.42188,2.34375 v 0.0156 c 0,1.29688 1.01563,2.34375 2.40625,2.34375 z m 0.0156,-0.92187 c -0.79688,0 -1.375,-0.65625 -1.375,-1.4375 0,-0.78125 0.5625,-1.42188 1.35937,-1.42188 0.8125,0 1.39063,0.64063 1.39063,1.42188 v 0.0156 c 0,0.78125 -0.5625,1.42188 -1.375,1.42188 z m 0,0"
                 style="fill:#e6e6e6;fill-opacity:1;stroke:none;stroke-width:0.80924457" />
              <path
                 inkscape:connector-curvature="0"
                 id="path12222"
                 d="m -271.14238,211.05859 c 1.23438,0 2,-0.6875 2,-2.0625 v -2.10937 c 0,-0.28125 -0.21875,-0.5 -0.5,-0.5 -0.28125,0 -0.5,0.21875 -0.5,0.5 v 2.15625 c 0,0.71875 -0.375,1.09375 -0.98437,1.09375 -0.60938,0 -0.98438,-0.39063 -0.98438,-1.125 v -2.125 c 0,-0.28125 -0.21875,-0.5 -0.5,-0.5 -0.26562,0 -0.5,0.21875 -0.5,0.5 v 2.14062 c 0,1.34375 0.75,2.03125 1.96875,2.03125 z m 0,0"
                 style="fill:#e6e6e6;fill-opacity:1;stroke:none;stroke-width:0.80924457" />
              <path
                 inkscape:connector-curvature="0"
                 id="path12218"
                 d="m -266.8745,210.51172 c 0,0.28125 0.21875,0.5 0.5,0.5 0.28125,0 0.5,-0.21875 0.5,-0.5 v -3.15625 h 0.95313 c 0.26562,0 0.46875,-0.20313 0.46875,-0.46875 0,-0.25 -0.20313,-0.45313 -0.46875,-0.45313 h -2.92188 c -0.25,0 -0.45312,0.20313 -0.45312,0.45313 0,0.26562 0.20312,0.46875 0.45312,0.46875 h 0.96875 z m 0,0"
                 style="fill:#e6e6e6;fill-opacity:1;stroke:none;stroke-width:0.80924457" />
              <path
                 style="fill:#212121;fill-opacity:1;fill-rule:nonzero;stroke:none;stroke-width:0.80924457"
                 d="m -258.07817,282.44141 c 0,-1.5586 -1.27734,-2.83594 -2.83594,-2.83594 h -21.77343 c -1.5586,0 -2.83594,1.27734 -2.83594,2.83594 v 34.50781 c 0,1.55859 1.27734,2.83203 2.83594,2.83203 h 21.77343 c 1.5586,0 2.83594,-1.27344 2.83594,-2.83203 z m 0,0"
                 id="path25503"
                 inkscape:connector-curvature="0" />
              <path
                 inkscape:connector-curvature="0"
                 id="path12214"
                 d="m -276.57518,288.43838 c 1.40625,0 2.4375,-1.0625 2.4375,-2.35937 0,-1.29688 -1.01562,-2.34375 -2.42187,-2.34375 -1.40625,0 -2.42188,1.0625 -2.42188,2.34375 v 0.0156 c 0,1.29688 1.01563,2.34375 2.40625,2.34375 z m 0.0156,-0.92187 c -0.79688,0 -1.375,-0.65625 -1.375,-1.4375 0,-0.78125 0.5625,-1.42188 1.35937,-1.42188 0.8125,0 1.39063,0.64063 1.39063,1.42188 v 0.0156 c 0,0.78125 -0.5625,1.42188 -1.375,1.42188 z m 0,0"
                 style="fill:#e6e6e6;fill-opacity:1;stroke:none;stroke-width:0.80924457" />
              <path
                 inkscape:connector-curvature="0"
                 id="path12210"
                 d="m -271.14238,288.43838 c 1.23438,0 2,-0.6875 2,-2.0625 v -2.10937 c 0,-0.28125 -0.21875,-0.5 -0.5,-0.5 -0.28125,0 -0.5,0.21875 -0.5,0.5 v 2.15625 c 0,0.71875 -0.375,1.09375 -0.98437,1.09375 -0.60938,0 -0.98438,-0.39063 -0.98438,-1.125 v -2.125 c 0,-0.28125 -0.21875,-0.5 -0.5,-0.5 -0.26562,0 -0.5,0.21875 -0.5,0.5 v 2.14062 c 0,1.34375 0.75,2.03125 1.96875,2.03125 z m 0,0"
                 style="fill:#e6e6e6;fill-opacity:1;stroke:none;stroke-width:0.80924457" />
              <path
                 inkscape:connector-curvature="0"
                 id="path12206"
                 d="m -266.8745,287.89151 c 0,0.28125 0.21875,0.5 0.5,0.5 0.28125,0 0.5,-0.21875 0.5,-0.5 v -3.15625 h 0.95313 c 0.26562,0 0.46875,-0.20313 0.46875,-0.46875 0,-0.25 -0.20313,-0.45313 -0.46875,-0.45313 h -2.92188 c -0.25,0 -0.45312,0.20313 -0.45312,0.45313 0,0.26562 0.20312,0.46875 0.45312,0.46875 h 0.96875 z m 0,0"
                 style="fill:#e6e6e6;fill-opacity:1;stroke:none;stroke-width:0.80924457" />
              <path
                 style="fill:#212121;fill-opacity:1;fill-rule:nonzero;stroke:none;stroke-width:0.80924457"
                 d="m -258.07817,55.624999 c 0,-1.55859 -1.27734,-2.83203 -2.83594,-2.83203 h -21.77343 c -1.5586,0 -2.83594,1.27344 -2.83594,2.83203 v 34.50781 c 0,1.5586 1.27734,2.83203 2.83594,2.83203 h 21.77343 c 1.5586,0 2.83594,-1.27343 2.83594,-2.83203 z m 0,0"
                 id="path25515"
                 inkscape:connector-curvature="0" />
              <path
                 inkscape:connector-curvature="0"
                 id="path12202"
                 d="m -276.57518,61.623993 c 1.40625,0 2.4375,-1.0625 2.4375,-2.359375 0,-1.296875 -1.01562,-2.34375 -2.42187,-2.34375 -1.40625,0 -2.42188,1.0625 -2.42188,2.34375 v 0.01563 c 0,1.296875 1.01563,2.34375 2.40625,2.34375 z m 0.0156,-0.921875 c -0.79688,0 -1.375,-0.65625 -1.375,-1.4375 0,-0.78125 0.5625,-1.421875 1.35937,-1.421875 0.8125,0 1.39063,0.640625 1.39063,1.421875 v 0.01563 c 0,0.78125 -0.5625,1.421875 -1.375,1.421875 z m 0,0"
                 style="fill:#e6e6e6;fill-opacity:1;stroke:none;stroke-width:0.80924457" />
              <path
                 inkscape:connector-curvature="0"
                 id="path12198"
                 d="m -271.14238,61.623993 c 1.23438,0 2,-0.6875 2,-2.0625 v -2.109375 c 0,-0.28125 -0.21875,-0.5 -0.5,-0.5 -0.28125,0 -0.5,0.21875 -0.5,0.5 v 2.15625 c 0,0.71875 -0.375,1.09375 -0.98437,1.09375 -0.60938,0 -0.98438,-0.390625 -0.98438,-1.125 v -2.125 c 0,-0.28125 -0.21875,-0.5 -0.5,-0.5 -0.26562,0 -0.5,0.21875 -0.5,0.5 v 2.140625 c 0,1.34375 0.75,2.03125 1.96875,2.03125 z m 0,0"
                 style="fill:#e6e6e6;fill-opacity:1;stroke:none;stroke-width:0.80924457" />
              <path
                 inkscape:connector-curvature="0"
                 id="path12194"
                 d="m -266.8745,61.077118 c 0,0.28125 0.21875,0.5 0.5,0.5 0.28125,0 0.5,-0.21875 0.5,-0.5 v -3.15625 h 0.95313 c 0.26562,0 0.46875,-0.203125 0.46875,-0.46875 0,-0.25 -0.20313,-0.453125 -0.46875,-0.453125 h -2.92188 c -0.25,0 -0.45312,0.203125 -0.45312,0.453125 0,0.265625 0.20312,0.46875 0.45312,0.46875 h 0.96875 z m 0,0"
                 style="fill:#e6e6e6;fill-opacity:1;stroke:none;stroke-width:0.80924457" />
              <path
                 style="fill:none;stroke:#000000;stroke-width:0.47927633;stroke-linecap:round;stroke-linejoin:round;stroke-miterlimit:10;stroke-opacity:1"
                 d="m -316.80083,150.32813 h 45"
                 id="path25527"
                 inkscape:connector-curvature="0" />
              <path
                 inkscape:connector-curvature="0"
                 id="path12190"
                 d="m -324.63682,46.798271 c 0,0.3125 0.23438,0.546875 0.53125,0.546875 0.3125,0 0.5625,-0.234375 0.5625,-0.546875 v -3.765625 l 1.51563,2.296875 c 0.125,0.171875 0.26562,0.28125 0.46875,0.28125 0.20312,0 0.34375,-0.109375 0.46875,-0.28125 l 1.53125,-2.3125 v 3.78125 c 0,0.296875 0.25,0.546875 0.54687,0.546875 0.32813,0 0.5625,-0.25 0.5625,-0.546875 v -5.28125 c 0,-0.296875 -0.23437,-0.5625 -0.5625,-0.5625 h -0.10937 c -0.21875,0 -0.39063,0.109375 -0.5,0.296875 l -1.92188,3 -1.90625,-2.984375 c -0.10937,-0.171875 -0.26562,-0.3125 -0.51562,-0.3125 h -0.10938 c -0.32812,0 -0.5625,0.265625 -0.5625,0.5625 z m 0,0"
                 style="fill:#000000;fill-opacity:1;stroke:none;stroke-width:0.80924457" />
              <path
                 inkscape:connector-curvature="0"
                 id="path12186"
                 d="m -316.57152,46.798271 c 0,0.296875 0.23437,0.546875 0.5625,0.546875 0.29687,0 0.54687,-0.25 0.54687,-0.546875 v -5.296875 c 0,-0.3125 -0.25,-0.546875 -0.54687,-0.546875 -0.32813,0 -0.5625,0.234375 -0.5625,0.546875 z m 0,0"
                 style="fill:#000000;fill-opacity:1;stroke:none;stroke-width:0.80924457" />
              <path
                 inkscape:connector-curvature="0"
                 id="path12182"
                 d="m -314.09111,46.829521 c 0,0.3125 0.25,0.515625 0.5,0.515625 0.25,0 0.39063,-0.109375 0.54688,-0.3125 l 1.65625,-2.171875 1.70312,2.21875 c 0.125,0.171875 0.26563,0.265625 0.5,0.265625 0.3125,0 0.54688,-0.234375 0.54688,-0.546875 0,-0.15625 -0.0781,-0.296875 -0.17188,-0.40625 l -1.84375,-2.3125 1.75,-2.203125 c 0.10938,-0.125 0.17188,-0.25 0.17188,-0.421875 0,-0.296875 -0.25,-0.5 -0.5,-0.5 -0.23438,0 -0.39063,0.109375 -0.53125,0.3125 l -1.57813,2.046875 -1.59375,-2.09375 c -0.14062,-0.171875 -0.26562,-0.265625 -0.5,-0.265625 -0.32812,0 -0.5625,0.234375 -0.5625,0.53125 0,0.15625 0.0937,0.296875 0.17188,0.421875 l 1.76562,2.1875 -1.875,2.328125 c -0.0937,0.125 -0.15625,0.25 -0.15625,0.40625 z m 0,0"
                 style="fill:#000000;fill-opacity:1;stroke:none;stroke-width:0.80924457" />
              <path
                 style="fill:none;stroke:#000000;stroke-width:0.47927633;stroke-linecap:round;stroke-linejoin:round;stroke-miterlimit:10;stroke-opacity:1"
                 d="m -361.80083,77.984379 h 90"
                 id="path25539"
                 inkscape:connector-curvature="0" />
              <path
                 style="fill:none;stroke:#000000;stroke-width:0.47927633;stroke-linecap:round;stroke-linejoin:round;stroke-miterlimit:10;stroke-opacity:1"
                 d="m -356.12895,168.32813 39.92578,-17.77735 -39.92578,-18.22656"
                 id="path25541"
                 inkscape:connector-curvature="0" />
              <path
                 style="fill:none;stroke:#000000;stroke-width:0.47927633;stroke-linecap:round;stroke-linejoin:round;stroke-miterlimit:10;stroke-opacity:1"
                 d="m -356.12895,245.56641 39.92578,-17.77735 -39.92578,-18.22656"
                 id="path25543"
                 inkscape:connector-curvature="0" />
              <path
                 style="fill:none;stroke:#000000;stroke-width:0.47927633;stroke-linecap:round;stroke-linejoin:round;stroke-miterlimit:10;stroke-opacity:1"
                 d="m -356.12895,322.80469 39.92578,-17.77735 -39.92578,-18.22656"
                 id="path25545"
                 inkscape:connector-curvature="0" />
              <path
                 style="fill:none;stroke:#000000;stroke-width:0.47927633;stroke-linecap:round;stroke-linejoin:round;stroke-miterlimit:10;stroke-opacity:1"
                 d="m -316.80083,227.56641 h 45"
                 id="path25547"
                 inkscape:connector-curvature="0" />
              <path
                 style="fill:none;stroke:#000000;stroke-width:0.47927633;stroke-linecap:round;stroke-linejoin:round;stroke-miterlimit:10;stroke-opacity:1"
                 d="m -316.80083,304.80469 h 45"
                 id="path25549"
                 inkscape:connector-curvature="0" />
              <path
                 inkscape:connector-curvature="0"
                 id="path12178"
                 d="m -380.53618,214.35839 c 0,0.21875 0.1875,0.39063 0.40625,0.39063 0.21875,0 0.40625,-0.17188 0.40625,-0.39063 v -3.82812 c 0,-0.21875 -0.1875,-0.39063 -0.40625,-0.39063 -0.21875,0 -0.40625,0.17188 -0.40625,0.39063 z m 0,0"
                 style="fill:#000000;fill-opacity:1;stroke:none;stroke-width:0.80924457" />
              <path
                 inkscape:connector-curvature="0"
                 id="path12174"
                 d="m -378.31455,214.35839 c 0,0.21875 0.1875,0.39063 0.40625,0.39063 0.21875,0 0.39062,-0.17188 0.39062,-0.39063 v -2.89062 l 2.34375,3.03125 c 0.10938,0.14062 0.21875,0.25 0.40625,0.25 h 0.0312 c 0.21875,0 0.39063,-0.1875 0.39063,-0.40625 v -3.8125 c 0,-0.21875 -0.17188,-0.39063 -0.39063,-0.39063 -0.21875,0 -0.39062,0.17188 -0.39062,0.39063 v 2.79687 l -2.28125,-2.95312 c -0.10938,-0.14063 -0.21875,-0.23438 -0.40625,-0.23438 h -0.0937 c -0.21875,0 -0.40625,0.1875 -0.40625,0.40625 z m 0,0"
                 style="fill:#000000;fill-opacity:1;stroke:none;stroke-width:0.80924457" />
              <path
                 inkscape:connector-curvature="0"
                 id="path12170"
                 d="m -380.53618,291.59791 c 0,0.21875 0.1875,0.39062 0.40625,0.39062 0.21875,0 0.40625,-0.17187 0.40625,-0.39062 v -3.82813 c 0,-0.21875 -0.1875,-0.39062 -0.40625,-0.39062 -0.21875,0 -0.40625,0.17187 -0.40625,0.39062 z m 0,0"
                 style="fill:#000000;fill-opacity:1;stroke:none;stroke-width:0.80924457" />
              <path
                 inkscape:connector-curvature="0"
                 id="path12166"
                 d="m -378.31455,291.59791 c 0,0.21875 0.1875,0.39062 0.40625,0.39062 0.21875,0 0.39062,-0.17187 0.39062,-0.39062 v -2.89063 l 2.34375,3.03125 c 0.10938,0.14063 0.21875,0.25 0.40625,0.25 h 0.0312 c 0.21875,0 0.39063,-0.1875 0.39063,-0.40625 v -3.8125 c 0,-0.21875 -0.17188,-0.39062 -0.39063,-0.39062 -0.21875,0 -0.39062,0.17187 -0.39062,0.39062 v 2.79688 l -2.28125,-2.95313 c -0.10938,-0.14062 -0.21875,-0.23437 -0.40625,-0.23437 h -0.0937 c -0.21875,0 -0.40625,0.1875 -0.40625,0.40625 z m 0,0"
                 style="fill:#000000;fill-opacity:1;stroke:none;stroke-width:0.80924457" />
              <path
                 inkscape:connector-curvature="0"
                 id="path12162"
                 d="m -379.64756,322.36439 c 0.73437,0 1.21875,-0.23438 1.64062,-0.60938 0.0781,-0.0625 0.14063,-0.17187 0.14063,-0.28125 0,-0.20312 -0.1875,-0.375 -0.39063,-0.375 -0.0937,0 -0.17187,0.0312 -0.23437,0.0937 -0.32813,0.28125 -0.65625,0.4375 -1.14063,0.4375 -0.85937,0 -1.5,-0.73437 -1.5,-1.625 0,-0.89062 0.64063,-1.60937 1.5,-1.60937 0.4375,0 0.78125,0.15625 1.09375,0.40625 0.0469,0.0469 0.125,0.0781 0.23438,0.0781 0.21875,0 0.40625,-0.17187 0.40625,-0.39062 0,-0.14063 -0.0781,-0.25 -0.15625,-0.3125 -0.40625,-0.3125 -0.85938,-0.51563 -1.5625,-0.51563 -1.375,0 -2.34375,1.0625 -2.34375,2.34375 v 0.0156 c 0,1.3125 0.98437,2.34375 2.3125,2.34375 z m 0,0"
                 style="fill:#000000;fill-opacity:1;stroke:none;stroke-width:0.80924457" />
              <path
                 inkscape:connector-curvature="0"
                 id="path12158"
                 d="m -374.97332,322.34876 h 0.0469 c 0.21875,0 0.375,-0.125 0.45312,-0.32812 l 1.60938,-3.76563 c 0.0156,-0.0469 0.0312,-0.10937 0.0312,-0.17187 0,-0.20313 -0.17188,-0.375 -0.39063,-0.375 -0.1875,0 -0.32812,0.125 -0.39062,0.25 l -1.32813,3.3125 -1.3125,-3.28125 c -0.0625,-0.17188 -0.20312,-0.28125 -0.40625,-0.28125 -0.23437,0 -0.40625,0.17187 -0.40625,0.39062 0,0.0625 0.0156,0.125 0.0469,0.1875 l 1.59375,3.73438 c 0.0781,0.20312 0.23437,0.32812 0.45312,0.32812 z m 0,0"
                 style="fill:#000000;fill-opacity:1;stroke:none;stroke-width:0.80924457" />
              <path
                 inkscape:connector-curvature="0"
                 id="path12154"
                 d="m -379.64756,245.1249 c 0.73437,0 1.21875,-0.23437 1.64062,-0.60937 0.0781,-0.0625 0.14063,-0.17188 0.14063,-0.28125 0,-0.20313 -0.1875,-0.375 -0.39063,-0.375 -0.0937,0 -0.17187,0.0312 -0.23437,0.0937 -0.32813,0.28125 -0.65625,0.4375 -1.14063,0.4375 -0.85937,0 -1.5,-0.73438 -1.5,-1.625 0,-0.89063 0.64063,-1.60938 1.5,-1.60938 0.4375,0 0.78125,0.15625 1.09375,0.40625 0.0469,0.0469 0.125,0.0781 0.23438,0.0781 0.21875,0 0.40625,-0.17188 0.40625,-0.39063 0,-0.14062 -0.0781,-0.25 -0.15625,-0.3125 -0.40625,-0.3125 -0.85938,-0.51562 -1.5625,-0.51562 -1.375,0 -2.34375,1.0625 -2.34375,2.34375 v 0.0156 c 0,1.3125 0.98437,2.34375 2.3125,2.34375 z m 0,0"
                 style="fill:#000000;fill-opacity:1;stroke:none;stroke-width:0.80924457" />
              <path
                 inkscape:connector-curvature="0"
                 id="path12150"
                 d="m -374.97332,245.10928 h 0.0469 c 0.21875,0 0.375,-0.125 0.45312,-0.32813 l 1.60938,-3.76562 c 0.0156,-0.0469 0.0312,-0.10938 0.0312,-0.17188 0,-0.20312 -0.17188,-0.375 -0.39063,-0.375 -0.1875,0 -0.32812,0.125 -0.39062,0.25 l -1.32813,3.3125 -1.3125,-3.28125 c -0.0625,-0.17187 -0.20312,-0.28125 -0.40625,-0.28125 -0.23437,0 -0.40625,0.17188 -0.40625,0.39063 0,0.0625 0.0156,0.125 0.0469,0.1875 l 1.59375,3.73437 c 0.0781,0.20313 0.23437,0.32813 0.45312,0.32813 z m 0,0"
                 style="fill:#000000;fill-opacity:1;stroke:none;stroke-width:0.80924457" />
              <path
                 inkscape:connector-curvature="0"
                 id="path12146"
                 d="m -379.64756,167.88539 c 0.73437,0 1.21875,-0.23437 1.64062,-0.60937 0.0781,-0.0625 0.14063,-0.17188 0.14063,-0.28125 0,-0.20313 -0.1875,-0.375 -0.39063,-0.375 -0.0937,0 -0.17187,0.0312 -0.23437,0.0937 -0.32813,0.28125 -0.65625,0.4375 -1.14063,0.4375 -0.85937,0 -1.5,-0.73438 -1.5,-1.625 0,-0.89063 0.64063,-1.60938 1.5,-1.60938 0.4375,0 0.78125,0.15625 1.09375,0.40625 0.0469,0.0469 0.125,0.0781 0.23438,0.0781 0.21875,0 0.40625,-0.17188 0.40625,-0.39063 0,-0.14062 -0.0781,-0.25 -0.15625,-0.3125 -0.40625,-0.3125 -0.85938,-0.51562 -1.5625,-0.51562 -1.375,0 -2.34375,1.0625 -2.34375,2.34375 v 0.0156 c 0,1.3125 0.98437,2.34375 2.3125,2.34375 z m 0,0"
                 style="fill:#000000;fill-opacity:1;stroke:none;stroke-width:0.80924457" />
              <path
                 inkscape:connector-curvature="0"
                 id="path12142"
                 d="m -374.97332,167.86977 h 0.0469 c 0.21875,0 0.375,-0.125 0.45312,-0.32813 l 1.60938,-3.76562 c 0.0156,-0.0469 0.0312,-0.10938 0.0312,-0.17188 0,-0.20312 -0.17188,-0.375 -0.39063,-0.375 -0.1875,0 -0.32812,0.125 -0.39062,0.25 l -1.32813,3.3125 -1.3125,-3.28125 c -0.0625,-0.17187 -0.20312,-0.28125 -0.40625,-0.28125 -0.23437,0 -0.40625,0.17188 -0.40625,0.39063 0,0.0625 0.0156,0.125 0.0469,0.1875 l 1.59375,3.73437 c 0.0781,0.20313 0.23437,0.32813 0.45312,0.32813 z m 0,0"
                 style="fill:#000000;fill-opacity:1;stroke:none;stroke-width:0.80924457" />
              <path
                 inkscape:connector-curvature="0"
                 id="path12138"
                 d="m -342.89249,27.23877 h 0.125 c 0.5,0 0.84375,-0.265625 1.03125,-0.71875 l 2.75,-6.578125 c 0.0469,-0.109375 0.0937,-0.265625 0.0937,-0.40625 0,-0.515625 -0.40625,-0.890625 -0.90625,-0.890625 -0.4375,0 -0.76563,0.28125 -0.89063,0.578125 l -2.125,5.5 -2.09375,-5.4375 c -0.14062,-0.375 -0.45312,-0.640625 -0.9375,-0.640625 -0.51562,0 -0.92187,0.390625 -0.92187,0.90625 0,0.15625 0.0469,0.296875 0.10937,0.453125 l 2.71875,6.515625 c 0.1875,0.453125 0.54688,0.71875 1.04688,0.71875 z m 0,0"
                 style="fill:#000000;fill-opacity:1;stroke:none;stroke-width:0.80924457" />
              <path
                 inkscape:connector-curvature="0"
                 id="path12134"
                 d="m -333.85307,27.254395 c 1.34375,0 2.23438,-0.390625 3,-1.046875 0.15625,-0.15625 0.3125,-0.375 0.3125,-0.671875 0,-0.46875 -0.40625,-0.84375 -0.875,-0.84375 -0.21875,0 -0.40625,0.07813 -0.54687,0.203125 -0.53125,0.421875 -1.04688,0.65625 -1.82813,0.65625 -1.4375,0 -2.4375,-1.203125 -2.4375,-2.640625 v -0.01563 c 0,-1.4375 1.03125,-2.625 2.4375,-2.625 0.65625,0 1.20313,0.21875 1.71875,0.609375 0.14063,0.07813 0.29688,0.171875 0.54688,0.171875 0.51562,0 0.92187,-0.390625 0.92187,-0.890625 0,-0.328125 -0.17187,-0.59375 -0.35937,-0.734375 -0.70313,-0.515625 -1.54688,-0.859375 -2.8125,-0.859375 -2.57813,0 -4.375,1.953125 -4.375,4.34375 v 0.03125 c 0,2.40625 1.82812,4.3125 4.29687,4.3125 z m 0,0"
                 style="fill:#000000;fill-opacity:1;stroke:none;stroke-width:0.80924457" />
              <path
                 inkscape:connector-curvature="0"
                 id="path12130"
                 d="m -325.32017,26.285645 c 0,0.5 0.39062,0.90625 0.89062,0.90625 0.5,0 0.90625,-0.40625 0.90625,-0.90625 V 22.11377 l 1.60938,2.453125 c 0.1875,0.296875 0.42187,0.46875 0.76562,0.46875 0.32813,0 0.57813,-0.171875 0.76563,-0.46875 l 1.625,-2.5 v 4.1875 c 0,0.515625 0.40625,0.9375 0.90625,0.9375 0.51562,0 0.92187,-0.421875 0.92187,-0.9375 V 19.58252 c 0,-0.515625 -0.40625,-0.921875 -0.92187,-0.921875 h -0.20313 c -0.375,0 -0.64062,0.15625 -0.82812,0.46875 l -2.25,3.65625 -2.23438,-3.640625 c -0.15625,-0.28125 -0.4375,-0.484375 -0.82812,-0.484375 h -0.20313 c -0.51562,0 -0.92187,0.40625 -0.92187,0.921875 z m 0,0"
                 style="fill:#000000;fill-opacity:1;stroke:none;stroke-width:0.80924457" />
              <path
                 inkscape:connector-curvature="0"
                 id="path12126"
                 d="m -314.70604,26.254395 c 0,0.515625 0.40625,0.9375 0.92188,0.9375 0.51562,0 0.92187,-0.421875 0.92187,-0.9375 v -6.6875 c 0,-0.515625 -0.40625,-0.921875 -0.92187,-0.921875 -0.51563,0 -0.92188,0.40625 -0.92188,0.921875 z m 0,0"
                 style="fill:#000000;fill-opacity:1;stroke:none;stroke-width:0.80924457" />
              <path
                 inkscape:connector-curvature="0"
                 id="path12122"
                 d="m -311.26652,26.33252 c 0,0.53125 0.4375,0.859375 0.84375,0.859375 0.40625,0 0.65625,-0.1875 0.90625,-0.515625 l 1.9375,-2.53125 1.96875,2.578125 c 0.23437,0.3125 0.45312,0.46875 0.85937,0.46875 0.51563,0 0.90625,-0.40625 0.90625,-0.921875 0,-0.265625 -0.125,-0.5 -0.28125,-0.6875 l -2.25,-2.765625 2.14063,-2.609375 c 0.17187,-0.234375 0.26562,-0.453125 0.26562,-0.71875 0,-0.515625 -0.42187,-0.84375 -0.82812,-0.84375 -0.42188,0 -0.65625,0.171875 -0.90625,0.5 l -1.82813,2.40625 -1.82812,-2.453125 c -0.23438,-0.296875 -0.46875,-0.453125 -0.85938,-0.453125 -0.53125,0 -0.90625,0.390625 -0.90625,0.90625 0,0.265625 0.125,0.5 0.26563,0.6875 l 2.14062,2.609375 -2.26562,2.78125 c -0.1875,0.21875 -0.28125,0.4375 -0.28125,0.703125 z m 0,0"
                 style="fill:#000000;fill-opacity:1;stroke:none;stroke-width:0.80924457" />
              <path
                 inkscape:connector-curvature="0"
                 id="path12118"
                 d="m -301.34031,27.11377 h 4.70313 c 0.46875,0 0.82812,-0.359375 0.82812,-0.8125 0,-0.453125 -0.35937,-0.828125 -0.82812,-0.828125 h -3.79688 V 23.70752 h 3.20313 c 0.45312,0 0.82812,-0.359375 0.82812,-0.8125 0,-0.46875 -0.375,-0.828125 -0.82812,-0.828125 h -3.20313 V 20.36377 h 3.75 c 0.45313,0 0.82813,-0.359375 0.82813,-0.828125 0,-0.453125 -0.375,-0.828125 -0.82813,-0.828125 h -4.65625 c -0.51562,0 -0.92187,0.421875 -0.92187,0.9375 v 6.546875 c 0,0.515625 0.40625,0.921875 0.92187,0.921875 z m 0,0"
                 style="fill:#000000;fill-opacity:1;stroke:none;stroke-width:0.80924457" />
              <path
                 inkscape:connector-curvature="0"
                 id="path12114"
                 d="m -294.10215,26.254395 c 0,0.515625 0.40625,0.9375 0.92187,0.9375 0.51563,0 0.92188,-0.421875 0.92188,-0.9375 V 24.42627 h 1.46875 l 1.79687,2.28125 c 0.21875,0.28125 0.5,0.484375 0.92188,0.484375 0.4375,0 0.875,-0.34375 0.875,-0.859375 0,-0.28125 -0.125,-0.484375 -0.29688,-0.703125 l -1.28125,-1.5625 c 1.01563,-0.421875 1.67188,-1.234375 1.67188,-2.5625 v -0.01563 c 0,-0.796875 -0.25,-1.453125 -0.71875,-1.921875 -0.54688,-0.546875 -1.375,-0.859375 -2.45313,-0.859375 h -2.90625 c -0.51562,0 -0.92187,0.421875 -0.92187,0.9375 z m 1.84375,-3.453125 v -2.421875 h 1.82812 c 0.90625,0 1.45313,0.40625 1.45313,1.203125 v 0.01563 c 0,0.71875 -0.51563,1.203125 -1.40625,1.203125 z m 0,0"
                 style="fill:#000000;fill-opacity:1;stroke:none;stroke-width:0.80924457" />
              <path
                 inkscape:connector-curvature="0"
                 id="path12110"
                 d="m -322.35801,123.64691 c 0.90625,0 1.51563,-0.28125 2.04688,-0.75 0.0781,-0.0781 0.15625,-0.20312 0.15625,-0.35937 0,-0.23438 -0.21875,-0.45313 -0.46875,-0.45313 -0.125,0 -0.21875,0.0469 -0.29688,0.10938 -0.40625,0.34375 -0.8125,0.54687 -1.39062,0.54687 -1.07813,0 -1.85938,-0.89062 -1.85938,-1.98437 v -0.0156 c 0,-1.09375 0.78125,-1.98437 1.85938,-1.98437 0.53125,0 0.9375,0.20312 1.32812,0.51562 0.0625,0.0469 0.15625,0.0937 0.29688,0.0937 0.26562,0 0.48437,-0.21875 0.48437,-0.48437 0,-0.17188 -0.0781,-0.3125 -0.1875,-0.39063 -0.48437,-0.375 -1.0625,-0.64062 -1.92187,-0.64062 -1.70313,0 -2.89063,1.3125 -2.89063,2.90625 v 0.0156 c 0,1.60938 1.21875,2.875 2.84375,2.875 z m 0,0"
                 style="fill:#000000;fill-opacity:1;stroke:none;stroke-width:0.80924457" />
              <path
                 inkscape:connector-curvature="0"
                 id="path12106"
                 d="m -318.85734,123.10004 c 0,0.28125 0.21875,0.5 0.5,0.5 0.26562,0 0.48437,-0.21875 0.48437,-0.5 v -1.90625 h 2.67188 v 1.90625 c 0,0.28125 0.21875,0.5 0.48437,0.5 0.28125,0 0.5,-0.21875 0.5,-0.5 v -4.70313 c 0,-0.26562 -0.21875,-0.48437 -0.5,-0.48437 -0.26562,0 -0.48437,0.21875 -0.48437,0.48437 v 1.89063 h -2.67188 v -1.89063 c 0,-0.26562 -0.21875,-0.48437 -0.48437,-0.48437 -0.28125,0 -0.5,0.21875 -0.5,0.48437 z m 0,0"
                 style="fill:#000000;fill-opacity:1;stroke:none;stroke-width:0.80924457" />
              <path
                 inkscape:connector-curvature="0"
                 id="path12102"
                 d="m -309.67423,123.10004 c 0,0.28125 0.21875,0.5 0.48437,0.5 0.28125,0 0.5,-0.21875 0.5,-0.5 v -4.73438 c 0,-0.26562 -0.21875,-0.48437 -0.5,-0.48437 h -0.0156 c -0.14063,0 -0.28125,0.0312 -0.46875,0.0937 l -0.85938,0.26562 c -0.1875,0.0625 -0.32812,0.21875 -0.32812,0.42188 0,0.23437 0.20312,0.42187 0.4375,0.42187 0.0469,0 0.125,-0.0156 0.17187,-0.0312 l 0.57813,-0.17187 z m 0,0"
                 style="fill:#000000;fill-opacity:1;stroke:none;stroke-width:0.80924457" />
              <path
                 inkscape:connector-curvature="0"
                 id="path12098"
                 d="m -323.23002,201.26291 c 0.90625,0 1.51562,-0.28125 2.04687,-0.75 0.0781,-0.0781 0.15625,-0.20313 0.15625,-0.35938 0,-0.23437 -0.21875,-0.45312 -0.46875,-0.45312 -0.125,0 -0.21875,0.0469 -0.29687,0.10937 -0.40625,0.34375 -0.8125,0.54688 -1.39063,0.54688 -1.07812,0 -1.85937,-0.89063 -1.85937,-1.98438 v -0.0156 c 0,-1.09375 0.78125,-1.98438 1.85937,-1.98438 0.53125,0 0.9375,0.20313 1.32813,0.51563 0.0625,0.0469 0.15625,0.0937 0.29687,0.0937 0.26563,0 0.48438,-0.21875 0.48438,-0.48438 0,-0.17187 -0.0781,-0.3125 -0.1875,-0.39062 -0.48438,-0.375 -1.0625,-0.64063 -1.92188,-0.64063 -1.70312,0 -2.89062,1.3125 -2.89062,2.90625 v 0.0156 c 0,1.60937 1.21875,2.875 2.84375,2.875 z m 0,0"
                 style="fill:#000000;fill-opacity:1;stroke:none;stroke-width:0.80924457" />
              <path
                 inkscape:connector-curvature="0"
                 id="path12094"
                 d="m -319.72935,200.71603 c 0,0.28125 0.21875,0.5 0.5,0.5 0.26563,0 0.48438,-0.21875 0.48438,-0.5 v -1.90625 h 2.67187 v 1.90625 c 0,0.28125 0.21875,0.5 0.48438,0.5 0.28125,0 0.5,-0.21875 0.5,-0.5 v -4.70312 c 0,-0.26563 -0.21875,-0.48438 -0.5,-0.48438 -0.26563,0 -0.48438,0.21875 -0.48438,0.48438 v 1.89062 h -2.67187 v -1.89062 c 0,-0.26563 -0.21875,-0.48438 -0.48438,-0.48438 -0.28125,0 -0.5,0.21875 -0.5,0.48438 z m 0,0"
                 style="fill:#000000;fill-opacity:1;stroke:none;stroke-width:0.80924457" />
              <path
                 inkscape:connector-curvature="0"
                 id="path12090"
                 d="m -311.62437,200.70041 c 0,0.29687 0.21875,0.46875 0.53125,0.46875 h 3.17188 c 0.23437,0 0.4375,-0.1875 0.4375,-0.4375 0,-0.23438 -0.20313,-0.42188 -0.4375,-0.42188 h -2.26563 l 1.14063,-0.96875 c 1,-0.79687 1.46875,-1.28125 1.46875,-2.15625 v -0.0312 c 0,-1 -0.76563,-1.67187 -1.85938,-1.67187 -0.875,0 -1.39062,0.34375 -1.84375,0.90625 -0.0781,0.0937 -0.125,0.20312 -0.125,0.3125 0,0.25 0.20313,0.4375 0.45313,0.4375 0.15625,0 0.26562,-0.0625 0.34375,-0.14063 0.34375,-0.42187 0.65625,-0.625 1.10937,-0.625 0.5,0 0.90625,0.3125 0.90625,0.875 0,0.5 -0.28125,0.85938 -1.0625,1.5 l -1.71875,1.46875 c -0.15625,0.14063 -0.25,0.29688 -0.25,0.48438 z m 0,0"
                 style="fill:#000000;fill-opacity:1;stroke:none;stroke-width:0.80924457" />
              <path
                 inkscape:connector-curvature="0"
                 id="path12086"
                 d="m -323.24602,278.63892 c 0.90625,0 1.51563,-0.28125 2.04688,-0.75 0.0781,-0.0781 0.15625,-0.20313 0.15625,-0.35938 0,-0.23437 -0.21875,-0.45312 -0.46875,-0.45312 -0.125,0 -0.21875,0.0469 -0.29688,0.10937 -0.40625,0.34375 -0.8125,0.54688 -1.39062,0.54688 -1.07813,0 -1.85938,-0.89063 -1.85938,-1.98438 v -0.0156 c 0,-1.09375 0.78125,-1.98438 1.85938,-1.98438 0.53125,0 0.9375,0.20313 1.32812,0.51563 0.0625,0.0469 0.15625,0.0937 0.29688,0.0937 0.26562,0 0.48437,-0.21875 0.48437,-0.48438 0,-0.17187 -0.0781,-0.3125 -0.1875,-0.39062 -0.48437,-0.375 -1.0625,-0.64063 -1.92187,-0.64063 -1.70313,0 -2.89063,1.3125 -2.89063,2.90625 v 0.0156 c 0,1.60937 1.21875,2.875 2.84375,2.875 z m 0,0"
                 style="fill:#000000;fill-opacity:1;stroke:none;stroke-width:0.80924457" />
              <path
                 inkscape:connector-curvature="0"
                 id="path12082"
                 d="m -319.74534,278.09204 c 0,0.28125 0.21875,0.5 0.5,0.5 0.26563,0 0.48438,-0.21875 0.48438,-0.5 v -1.90625 h 2.67187 v 1.90625 c 0,0.28125 0.21875,0.5 0.48438,0.5 0.28125,0 0.5,-0.21875 0.5,-0.5 v -4.70312 c 0,-0.26563 -0.21875,-0.48438 -0.5,-0.48438 -0.26563,0 -0.48438,0.21875 -0.48438,0.48438 v 1.89062 h -2.67187 v -1.89062 c 0,-0.26563 -0.21875,-0.48438 -0.48438,-0.48438 -0.28125,0 -0.5,0.21875 -0.5,0.48438 z m 0,0"
                 style="fill:#000000;fill-opacity:1;stroke:none;stroke-width:0.80924457" />
              <path
                 inkscape:connector-curvature="0"
                 id="path12078"
                 d="m -309.49973,278.63892 c 1.17187,0 1.96875,-0.73438 1.96875,-1.78125 v -0.0156 c 0,-1.03125 -0.8125,-1.45312 -1.65625,-1.5625 l 1.32812,-1.35937 c 0.15625,-0.17188 0.28125,-0.3125 0.28125,-0.54688 0,-0.26562 -0.21875,-0.42187 -0.5,-0.42187 h -2.85937 c -0.23438,0 -0.4375,0.1875 -0.4375,0.42187 0,0.23438 0.20312,0.42188 0.4375,0.42188 h 2.03125 l -1.3125,1.40625 c -0.15625,0.15625 -0.20313,0.26562 -0.20313,0.40625 0,0.21875 0.1875,0.42187 0.42188,0.42187 h 0.20312 c 0.78125,0 1.28125,0.3125 1.28125,0.85938 v 0.0156 c 0,0.51563 -0.40625,0.84375 -0.96875,0.84375 -0.51562,0 -0.92187,-0.17187 -1.26562,-0.53125 -0.0781,-0.0781 -0.1875,-0.125 -0.32813,-0.125 -0.26562,0 -0.46875,0.21875 -0.46875,0.46875 0,0.14063 0.0625,0.28125 0.15625,0.35938 0.45313,0.4375 1.0625,0.71875 1.89063,0.71875 z m 0,0"
                 style="fill:#000000;fill-opacity:1;stroke:none;stroke-width:0.80924457" />
            </g>
          </g>
        </g>
      </g>
    </g>
  </g>
</svg>
