<?xml version="1.0" encoding="UTF-8" standalone="no"?>
<svg
   xmlns:dc="http://purl.org/dc/elements/1.1/"
   xmlns:cc="http://creativecommons.org/ns#"
   xmlns:rdf="http://www.w3.org/1999/02/22-rdf-syntax-ns#"
   xmlns:svg="http://www.w3.org/2000/svg"
   xmlns="http://www.w3.org/2000/svg"
   xmlns:sodipodi="http://sodipodi.sourceforge.net/DTD/sodipodi-0.dtd"
   xmlns:inkscape="http://www.inkscape.org/namespaces/inkscape"
   width="135.00001"
   height="380"
   viewBox="0 0 135.00001 380"
   version="1.1"
   id="svg274"
   sodipodi:docname="VCA_MIX.svg"
   inkscape:version="0.92.3 (2405546, 2018-03-11)">
  <metadata
     id="metadata278">
    <rdf:RDF>
      <cc:Work
         rdf:about="">
        <dc:format>image/svg+xml</dc:format>
        <dc:type
           rdf:resource="http://purl.org/dc/dcmitype/StillImage" />
      </cc:Work>
    </rdf:RDF>
  </metadata>
  <sodipodi:namedview
     pagecolor="#ffffff"
     bordercolor="#666666"
     borderopacity="1"
     objecttolerance="10"
     gridtolerance="10"
     guidetolerance="10"
     inkscape:pageopacity="0"
     inkscape:pageshadow="2"
     inkscape:window-width="1920"
     inkscape:window-height="1017"
     id="namedview276"
     showgrid="false"
     inkscape:zoom="0.62105263"
     inkscape:cx="67.500008"
     inkscape:cy="190"
     inkscape:window-x="-8"
     inkscape:window-y="-8"
     inkscape:window-maximized="1"
     inkscape:current-layer="svg274" />
  <defs
     id="defs7">
    <linearGradient
       id="b8b09e1c-faa9-4d01-91c8-df52100a3bde"
       x1="67.50001"
       x2="67.50001"
       y2="380"
       gradientUnits="userSpaceOnUse">
      <stop
         offset="0"
         stop-color="#ebebeb"
         id="stop2" />
      <stop
         offset="1"
         stop-color="#e1e1e1"
         id="stop4" />
    </linearGradient>
  </defs>
  <g
     id="f424a1c1-4542-422d-bcf7-14918b97d7c8"
     data-name="FND BG">
    <rect
       x="0.00001"
       width="134.99999"
       height="380"
       fill="url(#b8b09e1c-faa9-4d01-91c8-df52100a3bde)"
       id="rect9" />
  </g>
  <g
     id="b058b743-b731-463b-a684-458e8f44d328"
     data-name="FND GRAPH">
    <g
       id="g20">
      <path
         d="M59.35927,359.753a.91214.91214,0,0,1-.8158-.50418l-2.96428-5.92857a.91209.91209,0,0,1,1.6316-.8158l2.14848,4.297,2.14848-4.297a.91209.91209,0,0,1,1.6316.8158l-2.96428,5.92857A.91211.91211,0,0,1,59.35927,359.753Z"
         fill="#1f1f1f"
         id="path12" />
      <path
         d="M75.64073,359.753a.91211.91211,0,0,1-.8158-.50418l-2.96428-5.92857a.91209.91209,0,0,1,1.6316-.8158l2.14848,4.297,2.14848-4.297a.91209.91209,0,0,1,1.6316.8158l-2.96428,5.92857A.91214.91214,0,0,1,75.64073,359.753Z"
         fill="#1f1f1f"
         id="path14" />
      <path
         d="M67.94242,359.753a3.87637,3.87637,0,1,1,2.32653-6.97719.91209.91209,0,1,1-1.09557,1.45854,2.034,2.034,0,0,0-1.231-.40991,2.0522,2.0522,0,1,0,0,4.10439,2.034,2.034,0,0,0,1.231-.40991.91209.91209,0,1,1,1.09557,1.45854A3.8448,3.8448,0,0,1,67.94242,359.753Z"
         fill="#1f1f1f"
         id="path16" />
      <circle
         cx="68.00165"
         cy="355.83101"
         r="1.18571"
         fill="#1f1f1f"
         id="circle18" />
    </g>
    <line
       x1="107.00019"
       y1="95.282"
       x2="92.00021"
       y2="95.282"
       fill="none"
       stroke="#1f1f1f"
       stroke-linecap="round"
       stroke-linejoin="round"
       stroke-width="0.5"
       id="line22" />
    <line
       x1="107.00019"
       y1="76.61647"
       x2="92.00021"
       y2="76.61647"
       fill="none"
       stroke="#1f1f1f"
       stroke-linecap="round"
       stroke-linejoin="round"
       stroke-width="0.5"
       id="line24" />
    <line
       x1="107.00019"
       y1="67.10844"
       x2="92.00021"
       y2="67.10844"
       fill="none"
       stroke="#1f1f1f"
       stroke-linecap="round"
       stroke-linejoin="round"
       stroke-width="0.5"
       id="line26" />
    <line
       x1="107.00019"
       y1="104.4395"
       x2="92.00021"
       y2="104.4395"
       fill="none"
       stroke="#1f1f1f"
       stroke-linecap="round"
       stroke-linejoin="round"
       stroke-width="0.5"
       id="line28" />
    <line
       x1="107.00019"
       y1="113.597"
       x2="92.00021"
       y2="113.597"
       fill="none"
       stroke="#1f1f1f"
       stroke-linecap="round"
       stroke-linejoin="round"
       stroke-width="0.5"
       id="line30" />
    <line
       x1="107.00019"
       y1="122.7545"
       x2="92.00021"
       y2="122.7545"
       fill="none"
       stroke="#1f1f1f"
       stroke-linecap="round"
       stroke-linejoin="round"
       stroke-width="0.5"
       id="line32" />
    <line
       x1="75.00019"
       y1="95.282"
       x2="60.00021"
       y2="95.282"
       fill="none"
       stroke="#1f1f1f"
       stroke-linecap="round"
       stroke-linejoin="round"
       stroke-width="0.5"
       id="line34" />
    <line
       x1="75.00019"
       y1="76.61647"
       x2="60.00021"
       y2="76.61647"
       fill="none"
       stroke="#1f1f1f"
       stroke-linecap="round"
       stroke-linejoin="round"
       stroke-width="0.5"
       id="line36" />
    <line
       x1="75.00019"
       y1="104.4395"
       x2="60.00021"
       y2="104.4395"
       fill="none"
       stroke="#1f1f1f"
       stroke-linecap="round"
       stroke-linejoin="round"
       stroke-width="0.5"
       id="line38" />
    <line
       x1="75.00019"
       y1="113.597"
       x2="60.00021"
       y2="113.597"
       fill="none"
       stroke="#1f1f1f"
       stroke-linecap="round"
       stroke-linejoin="round"
       stroke-width="0.5"
       id="line40" />
    <line
       x1="75.00019"
       y1="122.7545"
       x2="60.00021"
       y2="122.7545"
       fill="none"
       stroke="#1f1f1f"
       stroke-linecap="round"
       stroke-linejoin="round"
       stroke-width="0.5"
       id="line42" />
    <rect
       x="101.16567"
       y="165.8676"
       width="28.65033"
       height="39.15691"
       rx="2.83465"
       fill="#1f1f1f"
       id="rect44" />
    <line
       x1="19.50016"
       y1="293.73199"
       x2="19.50016"
       y2="311.38819"
       fill="none"
       stroke="#1f1f1f"
       stroke-linecap="round"
       stroke-linejoin="round"
       stroke-width="0.8"
       id="line46" />
    <line
       x1="51.50014"
       y1="293.73199"
       x2="51.50014"
       y2="311.38819"
       fill="none"
       stroke="#1f1f1f"
       stroke-linecap="round"
       stroke-linejoin="round"
       stroke-width="0.8"
       id="line48" />
    <line
       x1="83.50014"
       y1="293.73199"
       x2="83.50014"
       y2="311.38819"
       fill="none"
       stroke="#1f1f1f"
       stroke-linecap="round"
       stroke-linejoin="round"
       stroke-width="0.8"
       id="line50" />
    <line
       x1="115.50014"
       y1="293.73199"
       x2="115.50014"
       y2="311.38819"
       fill="none"
       stroke="#1f1f1f"
       stroke-linecap="round"
       stroke-linejoin="round"
       stroke-width="0.8"
       id="line52" />
    <line
       x1="50.34376"
       y1="190"
       x2="19.50021"
       y2="190"
       fill="none"
       stroke="#1f1f1f"
       stroke-linecap="round"
       stroke-linejoin="round"
       stroke-width="0.8"
       id="line54" />
    <rect
       x="5.18426"
       y="309.0301"
       width="124.65033"
       height="39.15691"
       rx="2.83465"
       fill="#1f1f1f"
       id="rect56" />
    <line
       x1="107.00019"
       y1="131.912"
       x2="92.00021"
       y2="131.912"
       fill="none"
       stroke="#1f1f1f"
       stroke-linecap="round"
       stroke-linejoin="round"
       stroke-width="0.5"
       id="line58" />
    <line
       x1="107.00019"
       y1="86.1245"
       x2="92.00021"
       y2="86.1245"
       fill="none"
       stroke="#1f1f1f"
       stroke-linecap="round"
       stroke-linejoin="round"
       id="line60" />
    <line
       x1="43.00019"
       y1="95.282"
       x2="28.00023"
       y2="95.282"
       fill="none"
       stroke="#1f1f1f"
       stroke-linecap="round"
       stroke-linejoin="round"
       stroke-width="0.5"
       id="line62" />
    <line
       x1="43.00019"
       y1="76.61647"
       x2="28.00023"
       y2="76.61647"
       fill="none"
       stroke="#1f1f1f"
       stroke-linecap="round"
       stroke-linejoin="round"
       stroke-width="0.5"
       id="line64" />
    <line
       x1="43.00019"
       y1="67.10844"
       x2="28.00023"
       y2="67.10844"
       fill="none"
       stroke="#1f1f1f"
       stroke-linecap="round"
       stroke-linejoin="round"
       stroke-width="0.5"
       id="line66" />
    <line
       x1="43.00019"
       y1="104.4395"
       x2="28.00023"
       y2="104.4395"
       fill="none"
       stroke="#1f1f1f"
       stroke-linecap="round"
       stroke-linejoin="round"
       stroke-width="0.5"
       id="line68" />
    <line
       x1="43.00019"
       y1="113.597"
       x2="28.00023"
       y2="113.597"
       fill="none"
       stroke="#1f1f1f"
       stroke-linecap="round"
       stroke-linejoin="round"
       stroke-width="0.5"
       id="line70" />
    <line
       x1="43.00019"
       y1="122.7545"
       x2="28.00023"
       y2="122.7545"
       fill="none"
       stroke="#1f1f1f"
       stroke-linecap="round"
       stroke-linejoin="round"
       stroke-width="0.5"
       id="line72" />
    <line
       x1="43.00019"
       y1="131.912"
       x2="28.00023"
       y2="131.912"
       fill="none"
       stroke="#1f1f1f"
       stroke-linecap="round"
       stroke-linejoin="round"
       stroke-width="0.5"
       id="line74" />
    <line
       x1="43.00019"
       y1="86.1245"
       x2="28.00023"
       y2="86.1245"
       fill="none"
       stroke="#1f1f1f"
       stroke-linecap="round"
       stroke-linejoin="round"
       id="line76" />
    <g
       id="g84">
      <line
         x1="67.25145"
         y1="177.5322"
         x2="67.25145"
         y2="173.80893"
         fill="none"
         stroke="#1f1f1f"
         stroke-linecap="round"
         stroke-linejoin="round"
         stroke-width="0.8"
         id="line78" />
      <path
         d="M75.88707,204.36082a16.71232,16.71232,0,1,0-17.21552.04577"
         fill="none"
         stroke="#1f1f1f"
         stroke-linecap="round"
         stroke-linejoin="round"
         stroke-width="0.8"
         id="path80" />
      <circle
         cx="67.25143"
         cy="190.05564"
         r="20.69419"
         fill="none"
         opacity="0.69"
         style="isolation: isolate"
         id="circle82" />
    </g>
    <line
       x1="101.64376"
       y1="190"
       x2="83.96087"
       y2="190"
       fill="none"
       stroke="#1f1f1f"
       stroke-linecap="round"
       stroke-linejoin="round"
       stroke-width="0.8"
       id="line86" />
  </g>
  <g
     id="e47f51b1-4b60-443b-9c8e-0d96d569de62"
     data-name="FND TXT">
    <path
       d="M65.41992,85.85156v-.0122a1.85514,1.85514,0,1,1,3.6582-.01221v.01221a1.96586,1.96586,0,0,1-1.835,2.17089A1.94586,1.94586,0,0,1,65.41992,85.85156Zm2.89649,0v-.0122c0-.82764-.42579-1.50538-1.07325-1.50538-.64843,0-1.06152.66016-1.06152,1.49317v.01221c0,.82763.41895,1.50537,1.07324,1.50537C67.9082,87.34473,68.31641,86.67285,68.31641,85.85156Z"
       fill="#1f1f1f"
       id="path89" />
    <path
       d="M61.26953,132.02344a.36.36,0,0,1,.35352-.36035H62.75a.35695.35695,0,0,1,0,.71386h-1.127A.35855.35855,0,0,1,61.26953,132.02344Z"
       fill="#1f1f1f"
       id="path91" />
    <g
       id="g97">
      <path
         d="M43.61816,203.96191a.36017.36017,0,0,1,.3545-.36035h1.127a.357.357,0,0,1,0,.71387h-1.127A.35874.35874,0,0,1,43.61816,203.96191Z"
         fill="#1f1f1f"
         id="path93" />
      <path
         d="M49.8125,205.39941h-.0127a1.05962,1.05962,0,0,1-1.01953-.75586,1.008,1.008,0,0,1-.93554.61182H47.833c-.6416,0-1.13379-.61767-1.13379-1.45752,0-.83935.48633-1.457,1.13379-1.457h.01172a1.008,1.008,0,0,1,.93554.61182,1.07642,1.07642,0,0,1,1.00782-.75586h.01171c.75,0,1.21778.68359,1.21778,1.60107S50.53711,205.39941,49.8125,205.39941ZM47.917,203.04834h-.01172c-.32422,0-.58789.2998-.58789.74951,0,.4502.26367.75.58106.75h.01269a.76309.76309,0,0,0,.00586-1.49951Zm1.85254-.13184h-.01172c-.38379,0-.63574.38379-.63574.88135,0,.498.252.87549.63574.87549h.01172c.3418,0,.62988-.32373.62988-.87549C50.39941,203.24658,50.11719,202.9165,49.76953,202.9165Z"
         fill="#1f1f1f"
         id="path95" />
    </g>
    <path
       d="M19.332,46.21826l-.60156.1836a.74467.74467,0,0,1-.18359.0249.4441.4441,0,0,1-.10743-.87647l.88477-.28369a1.761,1.761,0,0,1,.5-.0918h.0166a.50068.50068,0,0,1,.50879.50928V50.625a.50518.50518,0,0,1-.50879.50928A.51076.51076,0,0,1,19.332,50.625Z"
       fill="#1f1f1f"
       id="path99" />
    <path
       d="M49.56641,50.09961l1.79492-1.52783c.80078-.67627,1.09277-1.05127,1.09277-1.57764a.876.876,0,0,0-.94238-.90967,1.43046,1.43046,0,0,0-1.15234.65088.4725.4725,0,0,1-.82618-.30859.50839.50839,0,0,1,.11719-.31738,2.25826,2.25826,0,0,1,1.93555-.94288,1.74887,1.74887,0,0,1,1.92773,1.74463v.0166c0,.918-.4834,1.419-1.51855,2.26172l-1.20215,1.002h2.37109a.45068.45068,0,1,1,0,.90136H49.84961a.4935.4935,0,0,1-.55078-.48437A.63586.63586,0,0,1,49.56641,50.09961Z"
       fill="#1f1f1f"
       id="path101" />
    <path
       d="M81.53711,50.43311a.49386.49386,0,0,1-.167-.36719.49933.49933,0,0,1,.49316-.49268.494.494,0,0,1,.3418.13379,1.77553,1.77553,0,0,0,1.32617.55908.91476.91476,0,0,0,1.01074-.88427v-.01709c0-.57569-.52637-.90137-1.34375-.90137h-.209a.4461.4461,0,0,1-.44238-.44238.5851.5851,0,0,1,.21679-.41748l1.36914-1.46045H82.0127a.44655.44655,0,1,1,0-.89307H85.001a.45976.45976,0,0,1,.50879.45068.74855.74855,0,0,1-.292.55909l-1.377,1.42724c.88477.10889,1.71973.55908,1.71973,1.63623v.0166a1.87078,1.87078,0,0,1-2.04493,1.85254A2.73946,2.73946,0,0,1,81.53711,50.43311Z"
       fill="#1f1f1f"
       id="path103" />
    <path
       d="M116.0918,49.78223h-2.61328a.48241.48241,0,0,1-.5-.48438.80036.80036,0,0,1,.2246-.54248L115.94922,45.5a.7283.7283,0,0,1,.627-.3335.49475.49475,0,0,1,.5.49268v3.28027h.45117a.42172.42172,0,0,1,.42578.4253.41524.41524,0,0,1-.42578.41748h-.45117v.86816a.49226.49226,0,0,1-.98437,0Zm0-.84278V46.627l-1.91992,2.3125Z"
       fill="#1f1f1f"
       id="path105" />
    <g
       id="g113">
      <path
         d="M59.94629,162.4707a.515.515,0,0,1,.51758-.51758h.1084a.5391.5391,0,0,1,.47558.2754l1.76953,2.771,1.77832-2.7793a.516.516,0,0,1,.4668-.26709h.10938a.51421.51421,0,0,1,.5166.51758v4.89112a.50686.50686,0,0,1-.5166.50879.517.517,0,0,1-.50977-.50879V163.856l-1.42676,2.145a.47995.47995,0,0,1-.86035,0l-1.419-2.12793v3.49707a.49812.49812,0,0,1-.50878.50049.49157.49157,0,0,1-.501-.50049Z"
         fill="#1f1f1f"
         id="path107" />
      <path
         d="M67.46,162.4541a.5132.5132,0,0,1,1.02637,0v4.90772a.5132.5132,0,0,1-1.02637,0Z"
         fill="#1f1f1f"
         id="path109" />
      <path
         d="M69.94434,167.01123l1.73632-2.15332-1.63574-2.02832a.65307.65307,0,0,1-.1582-.38379.49355.49355,0,0,1,.50879-.501.52938.52938,0,0,1,.46777.25049l1.47656,1.94483,1.46094-1.91162a.57732.57732,0,0,1,.501-.2837.47072.47072,0,0,1,.46679.46729.60087.60087,0,0,1-.1582.39258l-1.63574,2.03613,1.71973,2.14551a.63667.63667,0,0,1,.1582.38379.49345.49345,0,0,1-.50879.50049.52674.52674,0,0,1-.46777-.25l-1.56934-2.04493-1.54394,2.01123a.58678.58678,0,0,1-.501.2837.46776.46776,0,0,1-.4668-.47559A.634.634,0,0,1,69.94434,167.01123Z"
         fill="#1f1f1f"
         id="path111" />
    </g>
    <g
       id="g121">
      <path
         d="M109.3916,171.52539a.518.518,0,0,1,.52246-.522h.11524a.53463.53463,0,0,1,.47363.271l1.26074,2.05274,1.2666-2.05957a.512.512,0,0,1,.46778-.26416h.11523a.51779.51779,0,0,1,.52149.522v3.7666a.51856.51856,0,1,1-1.03711,0v-2.36426l-.91407,1.40918a.48833.48833,0,0,1-.86718,0l-.90137-1.38916v2.35791a.50893.50893,0,0,1-.51465.50782.50334.50334,0,0,1-.50879-.50782Z"
         fill="#f0f0f0"
         id="path115" />
      <path
         d="M115.55664,171.51172a.52149.52149,0,1,1,1.043,0V175.292a.52149.52149,0,1,1-1.043,0Z"
         fill="#f0f0f0"
         id="path117" />
      <path
         d="M117.83008,174.93262l1.28027-1.57129-1.206-1.47071a.63756.63756,0,0,1-.15528-.38574.50224.50224,0,0,1,.51465-.51513.54649.54649,0,0,1,.48047.25732l1.03711,1.38232,1.0293-1.355a.59791.59791,0,0,1,.50879-.28466.476.476,0,0,1,.47363.481.61848.61848,0,0,1-.15527.39991l-1.20606,1.477,1.27344,1.56494a.6387.6387,0,0,1,.15625.38623.50237.50237,0,0,1-.51563.51465.54772.54772,0,0,1-.48047-.25733l-1.11132-1.45654-1.09766,1.42969a.59462.59462,0,0,1-.50781.28418.47652.47652,0,0,1-.47461-.481A.6216.6216,0,0,1,117.83008,174.93262Z"
         fill="#f0f0f0"
         id="path119" />
    </g>
    <g
       id="g135">
      <path
         d="M43.17188,27.66113,40.332,20.86719a1.203,1.203,0,0,1-.1123-.46338.94525.94525,0,0,1,.96386-.95069,1.0019,1.0019,0,0,1,.97559.67579l2.18945,5.668,2.21485-5.73047a.99829.99829,0,0,1,.92578-.61329.92891.92891,0,0,1,.95019.92579,1.1051,1.1051,0,0,1-.09961.42529l-2.86523,6.85693a1.1298,1.1298,0,0,1-1.08789.76319h-.125A1.13314,1.13314,0,0,1,43.17188,27.66113Z"
         fill="#1f1f1f"
         id="path123" />
      <path
         d="M49.20312,23.93262v-.02539a4.45146,4.45146,0,0,1,4.56641-4.5293,4.63312,4.63312,0,0,1,2.92774.88867.95986.95986,0,0,1,.376.7627.93917.93917,0,0,1-.95019.93847,1.009,1.009,0,0,1-.57617-.1875,2.88239,2.88239,0,0,0-1.78907-.62548,2.59489,2.59489,0,0,0-2.54,2.72753v.02491a2.60137,2.60137,0,0,0,2.54,2.75293,2.81428,2.81428,0,0,0,1.90235-.68848.89233.89233,0,1,1,1.15039,1.36426,4.6155,4.6155,0,0,1-7.60743-3.40332Z"
         fill="#1f1f1f"
         id="path125" />
      <path
         d="M58.40039,27.04785l3.05273-6.894a1.19189,1.19189,0,0,1,1.127-.76319h.11133a1.17341,1.17341,0,0,1,1.11425.76319l3.05372,6.894a.93919.93919,0,0,1,.0996.3877.91359.91359,0,0,1-.91406.92627.983.983,0,0,1-.92578-.66358l-.58789-1.376H60.67773l-.61328,1.439a.946.946,0,0,1-.88867.60059.88716.88716,0,0,1-.88867-.90088A1.02513,1.02513,0,0,1,58.40039,27.04785Zm5.418-2.42724-1.21387-2.89014-1.21387,2.89014Z"
         fill="#1f1f1f"
         id="path127" />
      <path
         d="M72.23242,20.44141a.9564.9564,0,0,1,.96485-.96338h.21191a.98951.98951,0,0,1,.876.50049l2.32714,3.791,2.33985-3.80371a.94346.94346,0,0,1,.86328-.48779h.21289a.95618.95618,0,0,1,.96387.96338v6.957a.95754.95754,0,1,1-1.915,0V23.03125l-1.68848,2.60254a.90078.90078,0,0,1-1.60156,0l-1.66406-2.56445v4.354a.94033.94033,0,0,1-.95117.93848.93038.93038,0,0,1-.93946-.93848Z"
         fill="#1f1f1f"
         id="path129" />
      <path
         d="M83.3125,20.4165a.96338.96338,0,1,1,1.92676,0v6.98194a.96338.96338,0,1,1-1.92676,0Z"
         fill="#1f1f1f"
         id="path131" />
      <path
         d="M87.19336,26.73535,89.55859,23.832l-2.22754-2.71484a1.18224,1.18224,0,0,1-.28808-.71338.92761.92761,0,0,1,.95117-.95069,1.01195,1.01195,0,0,1,.88867.47559L90.79688,22.481l1.90234-2.50244a1.098,1.098,0,0,1,.9375-.5254.88071.88071,0,0,1,.877.88819,1.14182,1.14182,0,0,1-.28906.73828l-2.22656,2.72754,2.35254,2.89014a1.18464,1.18464,0,0,1,.28808.71337.92772.92772,0,0,1-.95117.95118,1.01195,1.01195,0,0,1-.88867-.47559l-2.05176-2.68994-2.02734,2.63965a1.1001,1.1001,0,0,1-.93848.52588.87911.87911,0,0,1-.875-.88819A1.14368,1.14368,0,0,1,87.19336,26.73535Z"
         fill="#1f1f1f"
         id="path133" />
    </g>
    <g
       id="g143">
      <path
         d="M13.94141,266.60254a.417.417,0,0,1,.834,0v3.9834a.417.417,0,0,1-.834,0Z"
         fill="#1f1f1f"
         id="path137" />
      <path
         d="M16.252,266.61621a.41742.41742,0,0,1,.41993-.41992h.08789a.52522.52522,0,0,1,.43359.24365l2.37109,3.06885V266.5957a.40968.40968,0,0,1,.81934,0v3.9834a.40484.40484,0,0,1-.40625.41358h-.03418a.52488.52488,0,0,1-.43359-.25049L17.07129,267.585v3.00781a.40968.40968,0,0,1-.81934,0Z"
         fill="#1f1f1f"
         id="path139" />
      <path
         d="M24.23828,267.00879l-.4873.14941a.602.602,0,0,1-.14942.02051.36612.36612,0,0,1-.36523-.35254.36244.36244,0,0,1,.27734-.35937l.71875-.23a1.442,1.442,0,0,1,.40625-.07471h.01367a.40683.40683,0,0,1,.41309.41309v4.01074a.41055.41055,0,0,1-.41309.41357.4151.4151,0,0,1-.41406-.41357Z"
         fill="#1f1f1f"
         id="path141" />
    </g>
    <g
       id="g151">
      <path
         d="M45.20508,266.60254a.417.417,0,0,1,.834,0v3.9834a.417.417,0,0,1-.834,0Z"
         fill="#1f1f1f"
         id="path145" />
      <path
         d="M47.51465,266.61621a.41741.41741,0,0,1,.41992-.41992h.08887a.52521.52521,0,0,1,.43359.24365l2.37109,3.06885V266.5957a.40968.40968,0,0,1,.81934,0v3.9834a.40544.40544,0,0,1-.40625.41358H51.207a.52488.52488,0,0,1-.43359-.25049L48.334,267.585v3.00781a.40968.40968,0,0,1-.81933,0Z"
         fill="#1f1f1f"
         id="path147" />
      <path
         d="M54.80469,270.15918l1.456-1.23975c.65039-.54834.8877-.85351.8877-1.28027a.7115.7115,0,0,0-.76563-.73877,1.16193,1.16193,0,0,0-.93554.52881.38355.38355,0,0,1-.66993-.25049.41412.41412,0,0,1,.09473-.25781,1.83376,1.83376,0,0,1,1.57129-.76563,1.4204,1.4204,0,0,1,1.56543,1.416v.01367c0,.74512-.39356,1.15137-1.2334,1.83594l-.97461.813h1.92383a.366.366,0,0,1,0,.73193H55.03516a.40044.40044,0,0,1-.44727-.39307A.51733.51733,0,0,1,54.80469,270.15918Z"
         fill="#1f1f1f"
         id="path149" />
    </g>
    <g
       id="g159">
      <path
         d="M77.18848,266.603a.41651.41651,0,0,1,.833,0v3.98388a.41651.41651,0,0,1-.833,0Z"
         fill="#1f1f1f"
         id="path153" />
      <path
         d="M79.49805,266.6167a.41782.41782,0,0,1,.41992-.42041h.08789a.52449.52449,0,0,1,.43359.24414l2.3711,3.06934v-2.91358a.41017.41017,0,0,1,.82031,0v3.98389a.40523.40523,0,0,1-.40723.41308h-.03418a.52553.52553,0,0,1-.43359-.251l-2.43848-3.15674v3.0083a.40968.40968,0,0,1-.81933,0Z"
         fill="#1f1f1f"
         id="path155" />
      <path
         d="M86.78027,270.43066a.40007.40007,0,0,1-.13574-.29785.40565.40565,0,0,1,.40039-.3999.39943.39943,0,0,1,.27735.1084,1.44232,1.44232,0,0,0,1.07714.4541.74187.74187,0,0,0,.81934-.71826v-.01367c0-.46729-.42578-.73145-1.08984-.73145H87.959a.3619.3619,0,0,1-.35937-.35937.4726.4726,0,0,1,.17676-.33838l1.11133-1.186H87.166a.36232.36232,0,1,1,0-.72461H89.5918a.37412.37412,0,0,1,.41406.36573.60609.60609,0,0,1-.23828.4541l-1.11719,1.15869c.71777.08789,1.39551.45361,1.39551,1.32764v.01367a1.51913,1.51913,0,0,1-1.66016,1.5039A2.22061,2.22061,0,0,1,86.78027,270.43066Z"
         fill="#1f1f1f"
         id="path157" />
    </g>
    <g
       id="g165">
      <path
         d="M14.80176,173.41553v-.01367a2.40028,2.40028,0,0,1,2.44629-2.45264,2.48461,2.48461,0,0,1,1.625.53516.41568.41568,0,0,1,.16308.332.41659.41659,0,0,1-.66406.32519,1.72158,1.72158,0,0,0-1.13184-.42676,1.59616,1.59616,0,0,0-1.56445,1.67383v.01319a1.59777,1.59777,0,0,0,1.56445,1.68017,1.6963,1.6963,0,0,0,1.18555-.4541.38369.38369,0,0,1,.251-.09473.397.397,0,0,1,.39355.38623.402.402,0,0,1-.13574.29834,2.42438,2.42438,0,0,1-1.7207.63672A2.38545,2.38545,0,0,1,14.80176,173.41553Z"
         fill="#1f1f1f"
         id="path161" />
      <path
         d="M21.6123,175.502l-1.65918-3.90234a.46011.46011,0,0,1-.04785-.19629.41033.41033,0,0,1,.41993-.40625.43584.43584,0,0,1,.42675.29785l1.36914,3.42139,1.38868-3.44873a.42844.42844,0,0,1,.39941-.27051.403.403,0,0,1,.41309.39941.45846.45846,0,0,1-.041.17627l-1.666,3.9292a.49633.49633,0,0,1-.48046.33887h-.04786A.49525.49525,0,0,1,21.6123,175.502Z"
         fill="#1f1f1f"
         id="path163" />
    </g>
    <g
       id="g173">
      <path
         d="M108.97168,266.603a.41652.41652,0,0,1,.833,0v3.98388a.41652.41652,0,0,1-.833,0Z"
         fill="#1f1f1f"
         id="path167" />
      <path
         d="M111.28125,266.6167a.41783.41783,0,0,1,.41992-.42041h.08789a.52451.52451,0,0,1,.4336.24414l2.37109,3.06934v-2.91358a.41017.41017,0,0,1,.82031,0v3.98389a.40523.40523,0,0,1-.40722.41308h-.03418a.52555.52555,0,0,1-.4336-.251l-2.43847-3.15674v3.0083a.40968.40968,0,0,1-.81934,0Z"
         fill="#1f1f1f"
         id="path169" />
      <path
         d="M120.85352,269.90234h-2.1211a.39236.39236,0,0,1-.40625-.39257.65007.65007,0,0,1,.1836-.44043l2.22851-2.64258a.59053.59053,0,0,1,.50781-.271.4018.4018,0,0,1,.40625.3999v2.6626h.36621a.34283.34283,0,0,1,.34571.34522.33725.33725,0,0,1-.34571.33886h-.36621v.70459a.39946.39946,0,0,1-.79882,0Zm0-.68408V267.3418l-1.5586,1.87646Z"
         fill="#1f1f1f"
         id="path171" />
    </g>
    <g
       id="g181">
      <path
         d="M12.44336,220.74219v-.01367a2.39987,2.39987,0,0,1,2.44629-2.45215,2.48934,2.48934,0,0,1,1.626.53515.41556.41556,0,0,1,.16211.332.40471.40471,0,0,1-.41308.40625.40991.40991,0,0,1-.251-.08105,1.71592,1.71592,0,0,0-1.13086-.42676,1.59607,1.59607,0,0,0-1.56543,1.67285v.01368a1.59794,1.59794,0,0,0,1.56543,1.68017,1.70154,1.70154,0,0,0,1.18555-.45361.37413.37413,0,0,1,.25-.09473.39593.39593,0,0,1,.39355.38574.402.402,0,0,1-.13574.29834,2.42223,2.42223,0,0,1-1.7207.63672A2.38545,2.38545,0,0,1,12.44336,220.74219Z"
         fill="#1f1f1f"
         id="path175" />
      <path
         d="M19.25391,222.8291l-1.65918-3.90234a.46577.46577,0,0,1-.04785-.19678.41134.41134,0,0,1,.41992-.40674.43776.43776,0,0,1,.42773.29834L19.7627,222.043l1.38867-3.44824a.42853.42853,0,0,1,.39941-.27149.40458.40458,0,0,1,.41406.3999.497.497,0,0,1-.041.17627l-1.667,3.92969a.49539.49539,0,0,1-.48145.33838h-.04687A.4939.4939,0,0,1,19.25391,222.8291Z"
         fill="#1f1f1f"
         id="path177" />
      <path
         d="M25.48047,219.14355l-.48828.14893a.62436.62436,0,0,1-.14942.02.3602.3602,0,0,1-.08789-.71094l.71778-.23047a1.43667,1.43667,0,0,1,.40722-.0747h.0127a.40656.40656,0,0,1,.41406.41357v4.01074a.41309.41309,0,1,1-.82617,0Z"
         fill="#1f1f1f"
         id="path179" />
    </g>
    <g
       id="g189">
      <path
         d="M43.707,220.74268V220.729a2.4,2.4,0,0,1,2.44531-2.45263,2.48548,2.48548,0,0,1,1.626.53515.41568.41568,0,0,1,.16309.332.41661.41661,0,0,1-.66407.3252,1.72349,1.72349,0,0,0-1.13183-.42676,1.59556,1.59556,0,0,0-1.56446,1.67383v.01318a1.59778,1.59778,0,0,0,1.56446,1.68018,1.70041,1.70041,0,0,0,1.18652-.4541.379.379,0,0,1,.25-.09473.39616.39616,0,0,1,.39258.38623.40132.40132,0,0,1-.13477.29834,2.42435,2.42435,0,0,1-1.7207.63672A2.38486,2.38486,0,0,1,43.707,220.74268Z"
         fill="#1f1f1f"
         id="path183" />
      <path
         d="M50.51758,222.8291l-1.66016-3.90234a.45958.45958,0,0,1-.04687-.19629.41032.41032,0,0,1,.41992-.40625.43585.43585,0,0,1,.42676.29785l1.36816,3.42139,1.38867-3.44873a.42984.42984,0,0,1,.40039-.27051.403.403,0,0,1,.41309.39941.47684.47684,0,0,1-.041.17627l-1.666,3.9292a.49756.49756,0,0,1-.48145.33887h-.04687A.49434.49434,0,0,1,50.51758,222.8291Z"
         fill="#1f1f1f"
         id="path185" />
      <path
         d="M56.04492,222.294l1.457-1.23975c.65039-.54834.8877-.85352.8877-1.28027a.71149.71149,0,0,0-.76563-.73877,1.15767,1.15767,0,0,0-.93457.5288.38279.38279,0,0,1-.292.12842.37884.37884,0,0,1-.37988-.3789.41529.41529,0,0,1,.0957-.25782,1.83377,1.83377,0,0,1,1.57129-.76562,1.42039,1.42039,0,0,1,1.56543,1.416v.01368c0,.74511-.39258,1.15136-1.2334,1.83593l-.97558.813h1.92382a.366.366,0,1,1,0,.73194H56.27539a.40045.40045,0,0,1-.44727-.39307A.51732.51732,0,0,1,56.04492,222.294Z"
         fill="#1f1f1f"
         id="path187" />
    </g>
    <g
       id="g197">
      <path
         d="M75.68945,220.74219v-.01367a2.39988,2.39988,0,0,1,2.44629-2.45215,2.48743,2.48743,0,0,1,1.626.53515.41559.41559,0,0,1,.16211.332.40472.40472,0,0,1-.41309.40625.41217.41217,0,0,1-.251-.08105,1.714,1.714,0,0,0-1.13086-.42676,1.5959,1.5959,0,0,0-1.56446,1.67285v.01368a1.59717,1.59717,0,0,0,1.56446,1.68017,1.69981,1.69981,0,0,0,1.18554-.45361.37675.37675,0,0,1,.251-.09473.38888.38888,0,0,1,.25684.68408,2.42226,2.42226,0,0,1-1.72071.63672A2.38545,2.38545,0,0,1,75.68945,220.74219Z"
         fill="#1f1f1f"
         id="path191" />
      <path
         d="M82.501,222.8291l-1.66016-3.90234A.46592.46592,0,0,1,80.793,218.73a.41134.41134,0,0,1,.41992-.40674.43774.43774,0,0,1,.42773.29834l1.36817,3.42139,1.38867-3.44824a.42958.42958,0,0,1,.39942-.27149.40459.40459,0,0,1,.41406.3999.47684.47684,0,0,1-.041.17627l-1.666,3.92969a.49713.49713,0,0,1-.48145.33838h-.04785A.49269.49269,0,0,1,82.501,222.8291Z"
         fill="#1f1f1f"
         id="path193" />
      <path
         d="M88.02148,222.56445a.3994.3994,0,0,1-.13476-.29785.40479.40479,0,0,1,.39941-.3999.39761.39761,0,0,1,.27735.1084,1.44082,1.44082,0,0,0,1.07714.4541.74274.74274,0,0,0,.82032-.71826v-.01367c0-.46729-.42774-.73145-1.09082-.73145H89.2002a.36105.36105,0,0,1-.3584-.35937.47082.47082,0,0,1,.17578-.33838l1.11133-1.186H88.4082a.36233.36233,0,1,1,0-.72461H90.833a.37327.37327,0,0,1,.41308.36572.607.607,0,0,1-.23632.45411l-1.11817,1.15869c.71778.08789,1.39551.45361,1.39551,1.32763v.01368a1.51913,1.51913,0,0,1-1.66016,1.5039A2.22226,2.22226,0,0,1,88.02148,222.56445Z"
         fill="#1f1f1f"
         id="path195" />
    </g>
    <g
       id="g205">
      <path
         d="M107.47266,220.74219v-.01367a2.39987,2.39987,0,0,1,2.44629-2.45215,2.48934,2.48934,0,0,1,1.626.53515.41559.41559,0,0,1,.16211.332.40472.40472,0,0,1-.41308.40625.40991.40991,0,0,1-.251-.08105,1.71594,1.71594,0,0,0-1.13086-.42676,1.59606,1.59606,0,0,0-1.56543,1.67285v.01368a1.59794,1.59794,0,0,0,1.56543,1.68017,1.70156,1.70156,0,0,0,1.18555-.45361.37409.37409,0,0,1,.25-.09473.39594.39594,0,0,1,.39355.38574.402.402,0,0,1-.13574.29834,2.42225,2.42225,0,0,1-1.7207.63672A2.38545,2.38545,0,0,1,107.47266,220.74219Z"
         fill="#1f1f1f"
         id="path199" />
      <path
         d="M114.2832,222.8291l-1.65918-3.90234a.46592.46592,0,0,1-.04785-.19678.41135.41135,0,0,1,.41992-.40674.43777.43777,0,0,1,.42774.29834L114.792,222.043l1.38867-3.44824a.42856.42856,0,0,1,.39942-.27149.40458.40458,0,0,1,.41406.3999.4968.4968,0,0,1-.041.17627l-1.667,3.92969a.49538.49538,0,0,1-.48144.33838h-.04688A.4939.4939,0,0,1,114.2832,222.8291Z"
         fill="#1f1f1f"
         id="path201" />
      <path
         d="M122.09473,222.03613h-2.1211a.39179.39179,0,0,1-.40625-.39258.65344.65344,0,0,1,.18262-.44043l2.22949-2.64257a.59172.59172,0,0,1,.50781-.271.40264.40264,0,0,1,.40723.3999v2.6626h.36524a.34283.34283,0,0,1,.3457.34522.33725.33725,0,0,1-.3457.33886h-.36524v.70459a.4.4,0,0,1-.7998,0Zm0-.68408v-1.87646l-1.5586,1.87646Z"
         fill="#1f1f1f"
         id="path203" />
    </g>
    <g
       id="g213">
      <path
         d="M43.5498,316.55176v-.01319a2.41064,2.41064,0,0,1,2.47266-2.45263,2.50688,2.50688,0,0,1,1.585.481.52323.52323,0,0,1,.2041.41358.50915.50915,0,0,1-.51562.50781.55132.55132,0,0,1-.31152-.10156,1.55861,1.55861,0,0,0-.96876-.33887,1.40536,1.40536,0,0,0-1.375,1.47705v.01367a1.40842,1.40842,0,0,0,1.375,1.49024,1.52376,1.52376,0,0,0,1.03028-.37256.48306.48306,0,1,1,.623.73828,2.49845,2.49845,0,0,1-4.11915-1.84277Z"
         fill="#f0f0f0"
         id="path207" />
      <path
         d="M48.96777,314.64844a.52149.52149,0,1,1,1.043,0V316.044h1.92481v-1.39551a.52149.52149,0,1,1,1.043,0v3.78027a.52149.52149,0,1,1-1.043,0v-1.42285H50.01074v1.42285a.52149.52149,0,1,1-1.043,0Z"
         fill="#f0f0f0"
         id="path209" />
      <path
         d="M56.14844,317.89355l1.34863-1.10449c.58887-.481.81934-.74511.81934-1.13818a.582.582,0,0,0-.63672-.6167,1.00281,1.00281,0,0,0-.77246.41357.479.479,0,0,1-.82618-.32519.5177.5177,0,0,1,.12207-.3252,1.86546,1.86546,0,0,1,1.544-.69775,1.4621,1.4621,0,0,1,1.63281,1.46338v.01318c0,.793-.40625,1.18555-1.24609,1.83594l-.77246.59668h1.65332a.45355.45355,0,0,1,.45312.45361.44817.44817,0,0,1-.45312.44727h-2.5752a.49971.49971,0,0,1-.56152-.49463A.65862.65862,0,0,1,56.14844,317.89355Z"
         fill="#f0f0f0"
         id="path211" />
    </g>
    <g
       id="g221">
      <path
         d="M12.23047,316.55176v-.01319a2.41087,2.41087,0,0,1,2.47363-2.45263,2.50889,2.50889,0,0,1,1.585.481.52254.52254,0,0,1,.20313.41358.50892.50892,0,0,1-.51465.50781.546.546,0,0,1-.31152-.10156,1.56272,1.56272,0,0,0-.96875-.33887,1.40552,1.40552,0,0,0-1.376,1.47705v.01367a1.40858,1.40858,0,0,0,1.376,1.49024,1.51937,1.51937,0,0,0,1.02929-.37256.48307.48307,0,1,1,.623.73828,2.49847,2.49847,0,0,1-4.11914-1.84277Z"
         fill="#f0f0f0"
         id="path215" />
      <path
         d="M17.64844,314.64844a.522.522,0,1,1,1.04394,0V316.044h1.92383v-1.39551a.52149.52149,0,1,1,1.043,0v3.78027a.52149.52149,0,1,1-1.043,0v-1.42285H18.69238v1.42285a.522.522,0,0,1-1.04394,0Z"
         fill="#f0f0f0"
         id="path217" />
      <path
         d="M25.47363,315.15625l-.36621.09473a.85212.85212,0,0,1-.18262.02734.457.457,0,0,1-.4541-.44727.46273.46273,0,0,1,.34571-.44726l.66992-.19629a1.87047,1.87047,0,0,1,.48828-.08789h.01367a.51472.51472,0,0,1,.51465.51465v3.82129a.51465.51465,0,0,1-1.0293,0Z"
         fill="#f0f0f0"
         id="path219" />
    </g>
    <g
       id="g229">
      <path
         d="M75.55664,316.55176v-.01319a2.41064,2.41064,0,0,1,2.47266-2.45263,2.5069,2.5069,0,0,1,1.585.481.52323.52323,0,0,1,.2041.41358.50915.50915,0,0,1-.51563.50781.55134.55134,0,0,1-.31152-.10156,1.55857,1.55857,0,0,0-.96875-.33887,1.40535,1.40535,0,0,0-1.375,1.47705v.01367a1.40842,1.40842,0,0,0,1.375,1.49024,1.52372,1.52372,0,0,0,1.03027-.37256.48306.48306,0,1,1,.62305.73828,2.49844,2.49844,0,0,1-4.11914-1.84277Z"
         fill="#f0f0f0"
         id="path223" />
      <path
         d="M80.97461,314.64844a.52149.52149,0,1,1,1.043,0V316.044h1.9248v-1.39551a.52149.52149,0,1,1,1.043,0v3.78027a.52149.52149,0,1,1-1.043,0v-1.42285h-1.9248v1.42285a.52149.52149,0,1,1-1.043,0Z"
         fill="#f0f0f0"
         id="path225" />
      <path
         d="M88.12793,318.44922a.51538.51538,0,0,1-.17578-.37305.50909.50909,0,0,1,.501-.501.49372.49372,0,0,1,.332.12841,1.35483,1.35483,0,0,0,.92871.35254.5943.5943,0,0,0,.66992-.57568v-.01367c0-.38623-.34473-.603-.92774-.603H89.294a.45132.45132,0,0,1-.44727-.44727.58755.58755,0,0,1,.22363-.42675l.9209-.92823h-1.456a.44727.44727,0,1,1,0-.89453h2.30957a.47226.47226,0,0,1,.52832.46094.75728.75728,0,0,1-.31153.58252l-.92773.88769a1.31471,1.31471,0,0,1,1.27344,1.32764v.01367a1.54677,1.54677,0,0,1-1.707,1.55176A2.32021,2.32021,0,0,1,88.12793,318.44922Z"
         fill="#f0f0f0"
         id="path227" />
    </g>
    <g
       id="g237">
      <path
         d="M107.3252,316.55176v-.01319a2.41087,2.41087,0,0,1,2.47363-2.45263,2.50889,2.50889,0,0,1,1.585.481.52254.52254,0,0,1,.20312.41358.50891.50891,0,0,1-.51464.50781.54606.54606,0,0,1-.31153-.10156,1.5627,1.5627,0,0,0-.96875-.33887,1.40552,1.40552,0,0,0-1.376,1.47705v.01367a1.40858,1.40858,0,0,0,1.376,1.49024,1.5194,1.5194,0,0,0,1.0293-.37256.48307.48307,0,1,1,.623.73828,2.49847,2.49847,0,0,1-4.11914-1.84277Z"
         fill="#f0f0f0"
         id="path231" />
      <path
         d="M112.74316,314.64844a.522.522,0,1,1,1.04395,0V316.044h1.92383v-1.39551a.52149.52149,0,1,1,1.043,0v3.78027a.52149.52149,0,1,1-1.043,0v-1.42285h-1.92383v1.42285a.522.522,0,0,1-1.04395,0Z"
         fill="#f0f0f0"
         id="path233" />
      <path
         d="M122.05859,317.88672h-1.95117a.48848.48848,0,0,1-.50781-.481.847.847,0,0,1,.24316-.56933l2.05957-2.39112a.765.765,0,0,1,.65039-.35254.49469.49469,0,0,1,.502.49463V317.04h.25a.42471.42471,0,0,1,.42676.42676.41928.41928,0,0,1-.42676.41992h-.25v.56933a.49459.49459,0,0,1-.502.49415.48857.48857,0,0,1-.49414-.49415Zm0-.84668v-1.477l-1.26074,1.477Z"
         fill="#f0f0f0"
         id="path235" />
    </g>
    <g
       id="g243">
      <path
         d="M64.85547,66.62256h-.85156a.32842.32842,0,0,1-.32911-.32959.33232.33232,0,0,1,.32911-.33008h.85156v-.8335a.3418.3418,0,0,1,.68359,0v.8335h.85156a.33251.33251,0,0,1,.33008.33008.32862.32862,0,0,1-.33008.32959h-.85156v.83349a.3418.3418,0,1,1-.68359,0Z"
         fill="#1f1f1f"
         id="path239" />
      <path
         d="M68.12207,68.03174a2.05622,2.05622,0,0,1-.50977-1.60108V66.419c0-1.2837.61133-2.28516,1.79883-2.28516a1.83111,1.83111,0,0,1,1.04981.2998.35525.35525,0,0,1,.18554.31787.34821.34821,0,0,1-.35351.3418.39476.39476,0,0,1-.18652-.0542,1.23,1.23,0,0,0-.71973-.2334c-.623,0-.9707.56348-1.00684,1.33106a1.45454,1.45454,0,0,1,2.47071.89941v.01221A1.45708,1.45708,0,0,1,69.291,68.47559,1.56159,1.56159,0,0,1,68.12207,68.03174Zm1.99023-.95362v-.01171a.76339.76339,0,0,0-.85742-.73145.77308.77308,0,0,0-.85156.73731V67.084a.78459.78459,0,0,0,.87012.75A.75833.75833,0,0,0,70.1123,67.07812Z"
         fill="#1f1f1f"
         id="path241" />
    </g>
    <g
       id="g249">
      <path
         d="M84.2666,204.01416H83.415a.32841.32841,0,0,1-.3291-.32959.33231.33231,0,0,1,.3291-.33008h.85156V202.521a.3418.3418,0,1,1,.6836,0v.83349h.85156a.33251.33251,0,0,1,.33008.33008.32863.32863,0,0,1-.33008.32959H84.9502v.8335a.3418.3418,0,0,1-.6836,0Z"
         fill="#1f1f1f"
         id="path245" />
      <path
         d="M87.5332,205.42334a2.05621,2.05621,0,0,1-.50976-1.60107v-.01172c0-1.28369.61133-2.28516,1.79883-2.28516a1.831,1.831,0,0,1,1.0498.29981.35523.35523,0,0,1,.18555.31787.34822.34822,0,0,1-.35352.34179.39482.39482,0,0,1-.18652-.0542,1.23,1.23,0,0,0-.71973-.23339c-.623,0-.9707.56347-1.00683,1.33105a1.45453,1.45453,0,0,1,2.4707.89941v.01221a1.45708,1.45708,0,0,1-1.55957,1.42725A1.56159,1.56159,0,0,1,87.5332,205.42334Zm1.99024-.95361V204.458a.7634.7634,0,0,0-.85742-.73145.77308.77308,0,0,0-.85157.73731v.01172a.78459.78459,0,0,0,.87012.75A.75835.75835,0,0,0,89.52344,204.46973Z"
         fill="#1f1f1f"
         id="path247" />
    </g>
    <path
       d="M69.09144,132.41189a3.267,3.267,0,0,1-2.25571,1.30458,1.7157,1.7157,0,0,1-1.75533-1.804,1.81953,1.81953,0,0,1,1.85262-1.805,3.31364,3.31364,0,0,1,2.15842,1.30458,3.27471,3.27471,0,0,1,2.25571-1.30458,1.70982,1.70982,0,0,1,1.75532,1.805,1.81871,1.81871,0,0,1-1.85262,1.804A3.31443,3.31443,0,0,1,69.09144,132.41189Zm-.48649-.49939c-.47656-.43883-.97694-1.07325-1.68384-1.07325a1.07422,1.07422,0,0,0-1.07226,1.07325,1.02261,1.02261,0,0,0,1.03652,1.07325C67.58035,132.98575,68.14031,132.38806,68.605,131.9125Zm3.73106,0a1.022,1.022,0,0,0-1.03652-1.07325c-.695,0-1.25692.59768-1.71958,1.07325.47457.43883.975,1.07325,1.68186,1.07325A1.07594,1.07594,0,0,0,72.336,131.9125Z"
       fill="#1f1f1f"
       id="path251" />
  </g>
  <g
     id="ba5d43d3-4b1f-4edf-a122-4eca169245ef"
     data-name="components"
     inkscape:groupmode="layer"
     style="display:none">
    <circle
       id="ab945958-f475-46bc-8602-7f73e6a84dcf"
       data-name="Mix#PJ301MPort"
       cx="115.5002"
       cy="190"
       r="5"
       style="fill:#0000ff" />
    <circle
       id="f9712053-c7a4-436f-9e2f-e461fad87923"
       data-name="In1#PJ301MPort"
       cx="19.500219"
       cy="286"
       r="5"
       style="fill:#00ff00" />
    <circle
       id="a8eaa8f1-4924-48ef-a6d4-95eba4376882"
       data-name="In2#PJ301MPort"
       cx="51.500198"
       cy="286"
       r="5"
       style="fill:#00ff00" />
    <circle
       id="b0710068-fe4b-400e-9548-72e58d143f03"
       data-name="In3#PJ301MPort"
       cx="83.500198"
       cy="286"
       r="5"
       style="fill:#00ff00" />
    <circle
       id="a4d2fb07-0890-476d-aa8f-2b57501b5e07"
       data-name="MixCv#PJ301MPort"
       cx="19.500219"
       cy="190"
       r="5"
       style="fill:#00ff00" />
    <circle
       id="a6d6ef05-7bec-4462-9eec-547d55a80f10"
       data-name="In4#PJ301MPort"
       cx="115.5002"
       cy="285.88962"
       r="5"
       style="fill:#00ff00" />
    <circle
       id="a80bd4b6-4896-48a1-b814-6a410b3f2efb"
       data-name="Cv1#PJ301MPort"
       cx="19.500219"
       cy="237.8421"
       r="5"
       style="fill:#00ff00" />
    <circle
       id="a8045a7b-17fb-4941-bca2-fbb2d9c83ea2"
       data-name="Cv2#PJ301MPort"
       cx="51.500198"
       cy="237.8421"
       r="5"
       style="fill:#00ff00" />
    <circle
       id="a7cb376c-2bb2-406d-b319-aee85419496e"
       data-name="Cv3#PJ301MPort"
       cx="83.500198"
       cy="237.8421"
       r="5"
       style="fill:#00ff00" />
    <circle
       id="bf8c91e1-6569-4921-8420-4dd4e20ecd51"
       data-name="Cv4#PJ301MPort"
       cx="115.5002"
       cy="237.8421"
       r="5"
       style="fill:#00ff00" />
    <circle
       id="b659fb95-a9e9-467b-a937-7499cfdd1607"
       data-name="Out2#PJ301MPort"
       cx="51.500198"
       cy="334"
       r="5"
       style="fill:#0000ff" />
    <circle
       id="b579a35b-5a1b-49ec-b7b9-366d51d83247"
       data-name="Out1#PJ301MPort"
       cx="19.500219"
       cy="334"
       r="5"
       style="fill:#0000ff" />
    <circle
       id="bb91e366-dfd9-4846-854e-ea995096c543"
       data-name="Out3#PJ301MPort"
       cx="83.500198"
       cy="334"
       r="5"
       style="fill:#0000ff" />
    <circle
       id="b47a736e-942c-4d0d-9c32-7cf8fdbe2129"
       data-name="Out4#PJ301MPort"
       cx="115.5002"
       cy="334"
       r="5"
       style="fill:#0000ff" />
    <circle
       id="a470ae3d-660e-45c8-b0bc-d017d4062386"
       data-name="Level1#LEDSlider"
       cx="19.500219"
       cy="99.228233"
       r="5"
       style="fill:#ff0000" />
    <circle
       id="e15660e3-0498-406d-98f1-efbc61853ce5"
       data-name="Level2#LEDSlider"
       cx="51.500198"
       cy="99.228233"
       r="5"
       style="fill:#ff0000" />
    <circle
       id="b92134b0-1334-4fef-bc78-cdc1284e06cc"
       data-name="Level3#LEDSlider"
       cx="83.500198"
       cy="99.228233"
       r="5"
       style="fill:#ff0000" />
    <circle
       id="a44b9ff8-4fa4-4110-a179-4e90dbae6b72"
       data-name="Level4#LEDSlider"
       cx="115.5002"
       cy="99.228233"
       r="5"
       style="fill:#ff0000" />
    <circle
       id="f7bd1b35-9c02-4541-921d-c7acfe7515a2"
       data-name="Mix#RoundBlackKnob"
       cx="67.251427"
       cy="190.05563"
       r="5"
       style="fill:#ff0000" />
  </g>
</svg>
