<?xml version="1.0" encoding="UTF-8" standalone="no"?>
<!-- Created with Inkscape (http://www.inkscape.org/) -->

<svg
   xmlns:dc="http://purl.org/dc/elements/1.1/"
   xmlns:cc="http://creativecommons.org/ns#"
   xmlns:rdf="http://www.w3.org/1999/02/22-rdf-syntax-ns#"
   xmlns:svg="http://www.w3.org/2000/svg"
   xmlns="http://www.w3.org/2000/svg"
   xmlns:sodipodi="http://sodipodi.sourceforge.net/DTD/sodipodi-0.dtd"
   xmlns:inkscape="http://www.inkscape.org/namespaces/inkscape"
   width="39.747417mm"
   height="100.54166mm"
   viewBox="0 0 39.747417 100.54166"
   version="1.1"
   id="svg4541"
   sodipodi:docname="VCO.svg"
   inkscape:version="0.92.2 5c3e80d, 2017-08-06">
  <defs
     id="defs4535" />
  <sodipodi:namedview
     id="base"
     pagecolor="#ffffff"
     bordercolor="#666666"
     borderopacity="1.0"
     inkscape:pageopacity="0.0"
     inkscape:pageshadow="2"
     inkscape:zoom="1.4"
     inkscape:cx="9.2459846"
     inkscape:cy="190.568"
     inkscape:document-units="mm"
     inkscape:current-layer="g13122"
     showgrid="false"
     fit-margin-top="0"
     fit-margin-left="0"
     fit-margin-right="0"
     fit-margin-bottom="0"
     inkscape:window-width="1600"
     inkscape:window-height="882"
     inkscape:window-x="0"
     inkscape:window-y="18"
     inkscape:window-maximized="0" />
  <metadata
     id="metadata4538">
    <rdf:RDF>
      <cc:Work
         rdf:about="">
        <dc:format>image/svg+xml</dc:format>
        <dc:type
           rdf:resource="http://purl.org/dc/dcmitype/StillImage" />
        <dc:title></dc:title>
      </cc:Work>
    </rdf:RDF>
  </metadata>
  <g
     inkscape:label="Layer 1"
     inkscape:groupmode="layer"
     id="layer1"
     transform="translate(-48.040781,-57.736346)">
    <g
       transform="matrix(0.27602379,0,0,0.27602379,354.09618,57.736346)"
       id="g13122"
       style="stroke-width:0.9585526">
      <path
         style="fill:#e6e6e6;fill-opacity:1;fill-rule:nonzero;stroke:none;stroke-width:0.9585526"
         d="m -1108.5352,0.265625 h 143.46875 V 363.98828 h -143.46875 z m 0,0"
         id="path25053"
         inkscape:connector-curvature="0" />
      <path
         style="fill:#212121;fill-opacity:1;fill-rule:nonzero;stroke:none;stroke-width:0.9585526"
         d="m -1072.1407,297.40625 c 0,-1.55859 -1.2773,-2.83203 -2.8359,-2.83203 h -21.7774 c -1.5585,0 -2.832,1.27344 -2.832,2.83203 v 33.08984 c 0,1.5586 1.2735,2.83594 2.832,2.83594 h 21.7774 c 1.5586,0 2.8359,-1.27734 2.8359,-2.83594 z m 0,0"
         id="path25117"
         inkscape:connector-curvature="0" />
      <path
         style="fill:#212121;fill-opacity:1;fill-rule:nonzero;stroke:none;stroke-width:0.9585526"
         d="m -1039.5196,297.40625 c 0,-1.55859 -1.2734,-2.83203 -2.8359,-2.83203 h -21.7735 c -1.5585,0 -2.8359,1.27344 -2.8359,2.83203 v 33.08984 c 0,1.5586 1.2774,2.83594 2.8359,2.83594 h 21.7735 c 1.5625,0 2.8359,-1.27734 2.8359,-2.83594 z m 0,0"
         id="path25119"
         inkscape:connector-curvature="0" />
      <path
         style="fill:#212121;fill-opacity:1;fill-rule:nonzero;stroke:none;stroke-width:0.9585526"
         d="m -1006.6368,297.40625 c 0,-1.55859 -1.2773,-2.83203 -2.8359,-2.83203 h -21.7734 c -1.5586,0 -2.836,1.27344 -2.836,2.83203 v 33.08984 c 0,1.5586 1.2774,2.83594 2.836,2.83594 h 21.7734 c 1.5586,0 2.8359,-1.27734 2.8359,-2.83594 z m 0,0"
         id="path25121"
         inkscape:connector-curvature="0" />
      <path
         style="fill:#212121;fill-opacity:1;fill-rule:nonzero;stroke:none;stroke-width:0.9585526"
         d="m -973.75395,297.40625 c 0,-1.55859 -1.27734,-2.83203 -2.83594,-2.83203 h -21.77344 c -1.5625,0 -2.83597,1.27344 -2.83597,2.83203 v 33.08984 c 0,1.5586 1.27347,2.83594 2.83597,2.83594 h 21.77344 c 1.5586,0 2.83594,-1.27734 2.83594,-2.83594 z m 0,0"
         id="path25123"
         inkscape:connector-curvature="0" />
      <path
         inkscape:connector-curvature="0"
         id="path11478"
         d="m -1050.4688,46.741669 c 0,0.34375 0.2657,0.609375 0.6094,0.609375 0.3438,0 0.6094,-0.265625 0.6094,-0.609375 v -2.28125 h 3.0312 c 0.2969,0 0.5469,-0.25 0.5469,-0.5625 0,-0.3125 -0.25,-0.5625 -0.5469,-0.5625 h -3.0312 v -1.90625 h 3.4687 c 0.3125,0 0.5625,-0.25 0.5625,-0.5625 0,-0.3125 -0.25,-0.5625 -0.5625,-0.5625 h -4.0781 c -0.3437,0 -0.6094,0.265625 -0.6094,0.625 z m 0,0"
         style="fill:#000000;fill-opacity:1;stroke:none;stroke-width:0.9585526" />
      <path
         inkscape:connector-curvature="0"
         id="path11474"
         d="m -1043.8758,46.741669 c 0,0.34375 0.2657,0.609375 0.6094,0.609375 0.3438,0 0.6094,-0.265625 0.6094,-0.609375 v -1.875 h 1.5625 l 1.6875,2.171875 c 0.1406,0.1875 0.3281,0.3125 0.6094,0.3125 0.2968,0 0.5781,-0.234375 0.5781,-0.5625 0,-0.1875 -0.078,-0.328125 -0.1875,-0.46875 l -1.3438,-1.703125 c 0.9375,-0.28125 1.5938,-0.96875 1.5938,-2.078125 v -0.03125 c 0,-0.609375 -0.2188,-1.125 -0.5781,-1.5 -0.4532,-0.4375 -1.1407,-0.703125 -2.0313,-0.703125 h -2.5 c -0.3437,0 -0.6094,0.265625 -0.6094,0.625 z m 1.2188,-2.96875 v -2.34375 h 1.7969 c 0.9062,0 1.4531,0.40625 1.4531,1.15625 v 0.01563 c 0,0.71875 -0.5625,1.171875 -1.4375,1.171875 z m 0,0"
         style="fill:#000000;fill-opacity:1;stroke:none;stroke-width:0.9585526" />
      <path
         inkscape:connector-curvature="0"
         id="path11470"
         d="m -1035.8554,47.304169 h 4.125 c 0.2969,0 0.5469,-0.234375 0.5469,-0.546875 0,-0.296875 -0.25,-0.546875 -0.5469,-0.546875 h -3.5156 v -1.890625 h 3.0156 c 0.2969,0 0.5469,-0.234375 0.5469,-0.53125 0,-0.3125 -0.25,-0.5625 -0.5469,-0.5625 h -3.0156 v -1.828125 h 3.4687 c 0.2969,0 0.5469,-0.234375 0.5469,-0.546875 0,-0.296875 -0.25,-0.546875 -0.5469,-0.546875 h -4.0781 c -0.3437,0 -0.6094,0.265625 -0.6094,0.625 v 5.75 c 0,0.359375 0.2657,0.625 0.6094,0.625 z m 0,0"
         style="fill:#000000;fill-opacity:1;stroke:none;stroke-width:0.9585526" />
      <path
         inkscape:connector-curvature="0"
         id="path11466"
         d="m -1026.4966,47.429169 c 0.8125,0 1.5468,-0.25 2.1406,-0.671875 l 0.5,0.453125 c 0.1094,0.109375 0.25,0.1875 0.4219,0.1875 0.3281,0 0.5781,-0.28125 0.5781,-0.59375 0,-0.203125 -0.078,-0.359375 -0.2187,-0.484375 l -0.4532,-0.359375 c 0.4532,-0.609375 0.7032,-1.359375 0.7032,-2.15625 v -0.01563 c 0,-1.96875 -1.5001,-3.609375 -3.6407,-3.609375 -2.1562,0 -3.6719,1.65625 -3.6719,3.625 v 0.01563 c 0,1.96875 1.5,3.609375 3.6407,3.609375 z m 0.3593,-2.203125 0.875,0.734375 c -0.3437,0.203125 -0.75,0.328125 -1.2031,0.328125 -1.3906,0 -2.3906,-1.125 -2.3906,-2.484375 v -0.01563 c 0,-1.359375 0.9687,-2.46875 2.3594,-2.46875 1.3906,0 2.3906,1.125 2.3906,2.484375 v 0.01563 c 0,0.5 -0.125,0.953125 -0.3438,1.328125 l -0.9062,-0.8125 c -0.1406,-0.125 -0.25,-0.1875 -0.4219,-0.1875 -0.3281,0 -0.5781,0.28125 -0.5781,0.59375 0,0.21875 0.078,0.359375 0.2187,0.484375 z m 0,0"
         style="fill:#000000;fill-opacity:1;stroke:none;stroke-width:0.9585526" />
      <path
         inkscape:connector-curvature="0"
         id="path11462"
         d="m -1092.1309,303.38767 c 0.9687,0 1.625,-0.5 1.625,-1.35937 v -0.0156 c 0,-0.75 -0.4844,-1.09375 -1.4532,-1.32812 -0.875,-0.20313 -1.0781,-0.35938 -1.0781,-0.71875 0,-0.3125 0.2656,-0.54688 0.7344,-0.54688 0.3594,0 0.7031,0.10938 1.0469,0.34375 0.062,0.0469 0.125,0.0625 0.2031,0.0625 0.2187,0 0.3906,-0.17187 0.3906,-0.375 0,-0.15625 -0.094,-0.26562 -0.1875,-0.3125 -0.4062,-0.28125 -0.8594,-0.42187 -1.4375,-0.42187 -0.9062,0 -1.5469,0.53125 -1.5469,1.3125 v 0.0156 c 0,0.84375 0.5313,1.125 1.5,1.35938 0.8594,0.1875 1.0313,0.375 1.0313,0.6875 v 0.0156 c 0,0.34375 -0.3125,0.57813 -0.7969,0.57813 -0.5,0 -0.9062,-0.17188 -1.2812,-0.46875 -0.047,-0.0469 -0.125,-0.0781 -0.2344,-0.0781 -0.2031,0 -0.375,0.17188 -0.375,0.375 0,0.125 0.062,0.23438 0.1562,0.3125 0.5,0.375 1.0938,0.5625 1.7032,0.5625 z m 0,0"
         style="fill:#e6e6e6;fill-opacity:1;stroke:none;stroke-width:0.9585526" />
      <path
         inkscape:connector-curvature="0"
         id="path11458"
         d="m -1089.3163,302.9658 c 0,0.21875 0.1875,0.39062 0.4062,0.39062 0.2188,0 0.4063,-0.17187 0.4063,-0.39062 v -3.82813 c 0,-0.21875 -0.1875,-0.39062 -0.4063,-0.39062 -0.2187,0 -0.4062,0.17187 -0.4062,0.39062 z m 0,0"
         style="fill:#e6e6e6;fill-opacity:1;stroke:none;stroke-width:0.9585526" />
      <path
         inkscape:connector-curvature="0"
         id="path11454"
         d="m -1087.094,302.9658 c 0,0.21875 0.1875,0.39062 0.4063,0.39062 0.2187,0 0.3906,-0.17187 0.3906,-0.39062 v -2.89063 l 2.3437,3.03125 c 0.1094,0.14063 0.2188,0.25 0.4063,0.25 h 0.031 c 0.2188,0 0.3907,-0.1875 0.3907,-0.40625 v -3.8125 c 0,-0.21875 -0.1719,-0.39062 -0.3907,-0.39062 -0.2187,0 -0.3906,0.17187 -0.3906,0.39062 v 2.79688 l -2.2812,-2.95313 c -0.1094,-0.14062 -0.2188,-0.23437 -0.4063,-0.23437 h -0.094 c -0.2188,0 -0.4063,0.1875 -0.4063,0.40625 z m 0,0"
         style="fill:#e6e6e6;fill-opacity:1;stroke:none;stroke-width:0.9585526" />
      <path
         inkscape:connector-curvature="0"
         id="path11450"
         d="m -1081.3149,303.32517 h 2.6875 c 0.1875,0 0.3593,-0.15625 0.3593,-0.35937 0,-0.1875 -0.1718,-0.35938 -0.3593,-0.35938 h -2.2813 v -1.21875 h 1.9531 c 0.1875,0 0.3594,-0.15625 0.3594,-0.34375 0,-0.20312 -0.1719,-0.375 -0.3594,-0.375 h -1.9531 v -1.17187 h 2.25 c 0.1875,0 0.3438,-0.15625 0.3438,-0.35938 0,-0.20312 -0.1563,-0.35937 -0.3438,-0.35937 h -2.6562 c -0.2188,0 -0.4063,0.17187 -0.4063,0.40625 v 3.73437 c 0,0.23438 0.1875,0.40625 0.4063,0.40625 z m 0,0"
         style="fill:#e6e6e6;fill-opacity:1;stroke:none;stroke-width:0.9585526" />
      <path
         inkscape:connector-curvature="0"
         id="path11446"
         d="m -1057.2072,302.9658 c 0,0.21875 0.1875,0.39062 0.4063,0.39062 0.2187,0 0.4062,-0.17187 0.4062,-0.39062 v -3.45313 h 1.1094 c 0.2031,0 0.3594,-0.17187 0.3594,-0.35937 0,-0.20313 -0.1563,-0.375 -0.3594,-0.375 h -3.0313 c -0.2031,0 -0.3593,0.17187 -0.3593,0.375 0,0.1875 0.1562,0.35937 0.3593,0.35937 h 1.1094 z m 0,0"
         style="fill:#e6e6e6;fill-opacity:1;stroke:none;stroke-width:0.9585526" />
      <path
         inkscape:connector-curvature="0"
         id="path11442"
         d="m -1053.9642,302.9658 c 0,0.21875 0.1875,0.39062 0.4063,0.39062 0.2187,0 0.4062,-0.17187 0.4062,-0.39062 v -1.23438 h 1 l 1.1094,1.42188 c 0.094,0.125 0.2031,0.20312 0.3906,0.20312 0.1875,0 0.375,-0.14062 0.375,-0.375 0,-0.125 -0.047,-0.20312 -0.125,-0.29687 l -0.875,-1.09375 c 0.6094,-0.20313 1.0313,-0.64063 1.0313,-1.35938 v -0.0156 c 0,-0.40625 -0.125,-0.73438 -0.375,-0.98438 -0.2813,-0.28125 -0.7344,-0.45312 -1.3125,-0.45312 h -1.625 c -0.2188,0 -0.4063,0.17187 -0.4063,0.40625 z m 0.8125,-1.9375 v -1.53125 h 1.1563 c 0.5937,0 0.9375,0.26562 0.9375,0.76562 0,0.46875 -0.3594,0.76563 -0.9375,0.76563 z m 0,0"
         style="fill:#e6e6e6;fill-opacity:1;stroke:none;stroke-width:0.9585526" />
      <path
         inkscape:connector-curvature="0"
         id="path11438"
         d="m -1049.0092,302.9658 c 0,0.21875 0.1875,0.39062 0.4062,0.39062 0.2188,0 0.4063,-0.17187 0.4063,-0.39062 v -3.82813 c 0,-0.21875 -0.1875,-0.39062 -0.4063,-0.39062 -0.2187,0 -0.4062,0.17187 -0.4062,0.39062 z m 0,0"
         style="fill:#e6e6e6;fill-opacity:1;stroke:none;stroke-width:0.9585526" />
      <path
         inkscape:connector-curvature="0"
         id="path11434"
         d="m -1026.3444,303.38767 c 0.9687,0 1.625,-0.5 1.625,-1.35937 v -0.0156 c 0,-0.75 -0.4844,-1.09375 -1.4532,-1.32812 -0.875,-0.20313 -1.0781,-0.35938 -1.0781,-0.71875 0,-0.3125 0.2656,-0.54688 0.7344,-0.54688 0.3594,0 0.7031,0.10938 1.0469,0.34375 0.062,0.0469 0.125,0.0625 0.2031,0.0625 0.2187,0 0.3906,-0.17187 0.3906,-0.375 0,-0.15625 -0.094,-0.26562 -0.1875,-0.3125 -0.4062,-0.28125 -0.8594,-0.42187 -1.4375,-0.42187 -0.9062,0 -1.5469,0.53125 -1.5469,1.3125 v 0.0156 c 0,0.84375 0.5313,1.125 1.5,1.35938 0.8594,0.1875 1.0313,0.375 1.0313,0.6875 v 0.0156 c 0,0.34375 -0.3125,0.57813 -0.7969,0.57813 -0.5,0 -0.9062,-0.17188 -1.2812,-0.46875 -0.047,-0.0469 -0.125,-0.0781 -0.2344,-0.0781 -0.2031,0 -0.375,0.17188 -0.375,0.375 0,0.125 0.062,0.23438 0.1562,0.3125 0.5,0.375 1.0938,0.5625 1.7032,0.5625 z m 0,0"
         style="fill:#e6e6e6;fill-opacity:1;stroke:none;stroke-width:0.9585526" />
      <path
         inkscape:connector-curvature="0"
         id="path11430"
         d="m -1023.949,302.98142 c 0,0.21875 0.1719,0.375 0.375,0.375 0.1719,0 0.3125,-0.0937 0.375,-0.25 l 0.375,-0.875 h 2.2188 l 0.375,0.84375 c 0.062,0.17188 0.1875,0.28125 0.3906,0.28125 0.2031,0 0.375,-0.17187 0.375,-0.375 0,-0.0625 -0.016,-0.125 -0.047,-0.17187 l -1.6875,-3.78125 c -0.094,-0.1875 -0.25,-0.3125 -0.4844,-0.3125 h -0.031 c -0.2344,0 -0.3906,0.125 -0.4844,0.3125 l -1.6875,3.78125 c -0.031,0.0625 -0.062,0.125 -0.062,0.17187 z m 1.4375,-1.46875 0.7969,-1.82812 0.7969,1.82812 z m 0,0"
         style="fill:#e6e6e6;fill-opacity:1;stroke:none;stroke-width:0.9585526" />
      <path
         inkscape:connector-curvature="0"
         id="path11426"
         d="m -1017.6898,303.05955 c 0.078,0.20312 0.2187,0.32812 0.4062,0.32812 h 0.078 c 0.2032,0 0.3438,-0.125 0.4219,-0.32812 l 1.0156,-2.96875 1.0157,2.96875 c 0.062,0.20312 0.2031,0.32812 0.4062,0.32812 h 0.078 c 0.1875,0 0.3438,-0.125 0.4219,-0.32812 l 1.3438,-3.76563 c 0.016,-0.0469 0.031,-0.10937 0.031,-0.17187 0,-0.20313 -0.1875,-0.375 -0.3906,-0.375 -0.2031,0 -0.3281,0.125 -0.3906,0.28125 l -1.0469,3.14062 -1.0313,-3.125 c -0.062,-0.1875 -0.2031,-0.3125 -0.4062,-0.3125 h -0.047 c -0.2031,0 -0.3437,0.125 -0.4062,0.3125 l -1.0313,3.125 -1.0469,-3.14062 c -0.047,-0.15625 -0.2031,-0.28125 -0.3906,-0.28125 -0.2187,0 -0.4219,0.17187 -0.4219,0.39062 0,0.0469 0.016,0.10938 0.047,0.15625 z m 0,0"
         style="fill:#e6e6e6;fill-opacity:1;stroke:none;stroke-width:0.9585526" />
      <path
         inkscape:connector-curvature="0"
         id="path11422"
         d="m -992.70042,303.38767 c 0.96875,0 1.625,-0.5 1.625,-1.35937 v -0.0156 c 0,-0.75 -0.48438,-1.09375 -1.45313,-1.32812 -0.875,-0.20313 -1.07812,-0.35938 -1.07812,-0.71875 0,-0.3125 0.26562,-0.54688 0.73437,-0.54688 0.35938,0 0.70313,0.10938 1.04688,0.34375 0.0625,0.0469 0.125,0.0625 0.20312,0.0625 0.21875,0 0.39063,-0.17187 0.39063,-0.375 0,-0.15625 -0.0937,-0.26562 -0.1875,-0.3125 -0.40625,-0.28125 -0.85938,-0.42187 -1.4375,-0.42187 -0.90625,0 -1.54688,0.53125 -1.54688,1.3125 v 0.0156 c 0,0.84375 0.53125,1.125 1.5,1.35938 0.85938,0.1875 1.03125,0.375 1.03125,0.6875 v 0.0156 c 0,0.34375 -0.3125,0.57813 -0.79687,0.57813 -0.5,0 -0.90625,-0.17188 -1.28125,-0.46875 -0.0469,-0.0469 -0.125,-0.0781 -0.23438,-0.0781 -0.20312,0 -0.375,0.17188 -0.375,0.375 0,0.125 0.0625,0.23438 0.15625,0.3125 0.5,0.375 1.09375,0.5625 1.70313,0.5625 z m 0,0"
         style="fill:#e6e6e6;fill-opacity:1;stroke:none;stroke-width:0.9585526" />
      <path
         inkscape:connector-curvature="0"
         id="path11418"
         d="m -987.8128,303.4033 c 0.53125,0 1,-0.15625 1.39062,-0.42188 l 0.32813,0.28125 c 0.0625,0.0781 0.15625,0.125 0.28125,0.125 0.20312,0 0.375,-0.17187 0.375,-0.39062 0,-0.14063 -0.0625,-0.23438 -0.15625,-0.3125 l -0.28125,-0.23438 c 0.28125,-0.40625 0.45312,-0.89062 0.45312,-1.40625 0,-1.28125 -0.96875,-2.34375 -2.375,-2.34375 -1.39062,0 -2.375,1.0625 -2.375,2.34375 v 0.0156 c 0,1.28125 0.96875,2.34375 2.35938,2.34375 z m 0.23437,-1.4375 0.57813,0.48437 c -0.23438,0.14063 -0.5,0.21875 -0.79688,0.21875 -0.90625,0 -1.54687,-0.73437 -1.54687,-1.625 0,-0.89062 0.64062,-1.60937 1.53125,-1.60937 0.90625,0 1.54687,0.73437 1.54687,1.60937 v 0.0156 c 0,0.32812 -0.0781,0.625 -0.21875,0.875 l -0.57812,-0.54688 c -0.0937,-0.0781 -0.17188,-0.10937 -0.28125,-0.10937 -0.20313,0 -0.375,0.17187 -0.375,0.39062 0,0.125 0.0625,0.21875 0.14062,0.29688 z m 0,0"
         style="fill:#e6e6e6;fill-opacity:1;stroke:none;stroke-width:0.9585526" />
      <path
         inkscape:connector-curvature="0"
         id="path11414"
         d="m -984.20033,302.9658 c 0,0.21875 0.1875,0.39062 0.40625,0.39062 0.21875,0 0.40625,-0.17187 0.40625,-0.39062 v -1.23438 h 1 l 1.10937,1.42188 c 0.0937,0.125 0.20313,0.20312 0.39063,0.20312 0.1875,0 0.375,-0.14062 0.375,-0.375 0,-0.125 -0.0469,-0.20312 -0.125,-0.29687 l -0.875,-1.09375 c 0.60937,-0.20313 1.03125,-0.64063 1.03125,-1.35938 v -0.0156 c 0,-0.40625 -0.125,-0.73438 -0.375,-0.98438 -0.28125,-0.28125 -0.73438,-0.45312 -1.3125,-0.45312 h -1.625 c -0.21875,0 -0.40625,0.17187 -0.40625,0.40625 z m 0.8125,-1.9375 v -1.53125 h 1.15625 c 0.59375,0 0.9375,0.26562 0.9375,0.76562 0,0.46875 -0.35938,0.76563 -0.9375,0.76563 z m 0,0"
         style="fill:#e6e6e6;fill-opacity:1;stroke:none;stroke-width:0.9585526" />
      <path
         style="fill:#000000;fill-opacity:1;fill-rule:nonzero;stroke:none;stroke-width:0.9585526"
         d="m -1044.6016,352.50781 c -0.332,0 -0.6367,-0.1875 -0.7852,-0.48437 l -2.8398,-5.6836 c -0.2149,-0.42968 -0.039,-0.95703 0.3906,-1.17187 0.4297,-0.21484 0.957,-0.0391 1.1719,0.39062 l 2.0625,4.1211 2.0586,-4.1211 c 0.2148,-0.42968 0.7422,-0.60546 1.1719,-0.39062 0.4296,0.21484 0.6054,0.74219 0.3906,1.17187 l -2.8399,5.6836 c -0.1484,0.29687 -0.4531,0.48437 -0.7812,0.48437"
         id="path25183"
         inkscape:connector-curvature="0" />
      <path
         style="fill:#000000;fill-opacity:1;fill-rule:nonzero;stroke:none;stroke-width:0.9585526"
         d="m -1028.9961,352.50781 c -0.3321,0 -0.6329,-0.1875 -0.7813,-0.48437 l -2.8437,-5.6836 c -0.2149,-0.42968 -0.039,-0.95703 0.3906,-1.17187 0.4336,-0.21484 0.957,-0.0391 1.1758,0.39062 l 2.0586,4.1211 2.0586,-4.1211 c 0.2148,-0.42968 0.7421,-0.60546 1.1718,-0.39062 0.4336,0.21484 0.6094,0.74219 0.3907,1.17187 l -2.8399,5.6836 c -0.1484,0.29687 -0.4492,0.48437 -0.7812,0.48437"
         id="path25185"
         inkscape:connector-curvature="0" />
      <path
         style="fill:#000000;fill-opacity:1;fill-rule:nonzero;stroke:none;stroke-width:0.9585526"
         d="m -1036.375,352.50781 c -2.0508,0 -3.7188,-1.66797 -3.7188,-3.71484 0,-2.05078 1.668,-3.71875 3.7188,-3.71875 0.8085,0 1.582,0.25781 2.2304,0.74609 0.3828,0.28907 0.461,0.83594 0.1719,1.22266 -0.2891,0.38672 -0.8359,0.46484 -1.2227,0.17578 -0.3437,-0.25781 -0.75,-0.39453 -1.1796,-0.39453 -1.086,0 -1.9688,0.88281 -1.9688,1.96875 0,1.08203 0.8828,1.96484 1.9688,1.96484 0.4296,0 0.8359,-0.13672 1.1796,-0.39062 0.3868,-0.29297 0.9336,-0.21485 1.2227,0.17187 0.2891,0.38672 0.2109,0.9336 -0.1719,1.22657 -0.6484,0.48437 -1.4219,0.74218 -2.2304,0.74218"
         id="path25187"
         inkscape:connector-curvature="0" />
      <path
         style="fill:#000000;fill-opacity:1;fill-rule:nonzero;stroke:none;stroke-width:0.9585526"
         d="m -1035.1836,348.74609 c 0,0.62891 -0.5079,1.13672 -1.1368,1.13672 -0.625,0 -1.1367,-0.50781 -1.1367,-1.13672 0,-0.625 0.5117,-1.13671 1.1367,-1.13671 0.6289,0 1.1368,0.51171 1.1368,1.13671"
         id="path25189"
         inkscape:connector-curvature="0" />
      <path
         inkscape:connector-curvature="0"
         id="path11410"
         d="m -1095.1035,259.42578 h 0.047 c 0.2188,0 0.375,-0.125 0.4532,-0.32813 l 1.6093,-3.76562 c 0.016,-0.0469 0.031,-0.10938 0.031,-0.17188 0,-0.20312 -0.1719,-0.375 -0.3906,-0.375 -0.1875,0 -0.3282,0.125 -0.3907,0.25 l -1.3281,3.3125 -1.3125,-3.28125 c -0.062,-0.17187 -0.2031,-0.28125 -0.4062,-0.28125 -0.2344,0 -0.4063,0.17188 -0.4063,0.39063 0,0.0625 0.016,0.125 0.047,0.1875 l 1.5937,3.73437 c 0.078,0.20313 0.2344,0.32813 0.4532,0.32813 z m 0,0"
         style="fill:#000000;fill-opacity:1;stroke:none;stroke-width:0.9585526" />
      <path
         inkscape:connector-curvature="0"
         id="path11406"
         d="m -1093.0039,259.92578 c 0,0.17187 0.1406,0.29687 0.3125,0.29687 0.125,0 0.2187,-0.0625 0.2812,-0.17187 l 2.6563,-5.45313 c 0.016,-0.0312 0.031,-0.0937 0.031,-0.15625 0,-0.15625 -0.125,-0.29687 -0.2968,-0.29687 -0.125,0 -0.2344,0.0625 -0.2813,0.1875 l -2.6719,5.4375 c -0.016,0.0469 -0.031,0.0937 -0.031,0.15625 z m 0,0"
         style="fill:#000000;fill-opacity:1;stroke:none;stroke-width:0.9585526" />
      <path
         inkscape:connector-curvature="0"
         id="path11402"
         d="m -1086.9825,259.4414 c 1.4062,0 2.3906,-1.07812 2.3906,-2.35937 0,-1.28125 -0.9687,-2.34375 -2.375,-2.34375 -1.3906,0 -2.375,1.0625 -2.375,2.34375 v 0.0156 c 0,1.28125 0.9688,2.34375 2.3594,2.34375 z m 0.016,-0.73437 c -0.9062,0 -1.5469,-0.73438 -1.5469,-1.625 0,-0.89063 0.6407,-1.60938 1.5313,-1.60938 0.9062,0 1.5469,0.73438 1.5469,1.60938 v 0.0156 c 0,0.89063 -0.625,1.60938 -1.5313,1.60938 z m 0,0"
         style="fill:#000000;fill-opacity:1;stroke:none;stroke-width:0.9585526" />
      <path
         inkscape:connector-curvature="0"
         id="path11398"
         d="m -1081.3269,259.4414 c 0.7344,0 1.2188,-0.23437 1.6406,-0.60937 0.078,-0.0625 0.1407,-0.17188 0.1407,-0.28125 0,-0.20313 -0.1875,-0.375 -0.3907,-0.375 -0.094,0 -0.1718,0.0312 -0.2343,0.0937 -0.3282,0.28125 -0.6563,0.4375 -1.1407,0.4375 -0.8593,0 -1.5,-0.73438 -1.5,-1.625 0,-0.89063 0.6407,-1.60938 1.5,-1.60938 0.4375,0 0.7813,0.15625 1.0938,0.40625 0.047,0.0469 0.125,0.0781 0.2344,0.0781 0.2187,0 0.4062,-0.17188 0.4062,-0.39063 0,-0.14062 -0.078,-0.25 -0.1562,-0.3125 -0.4063,-0.3125 -0.8594,-0.51562 -1.5625,-0.51562 -1.375,0 -2.3438,1.0625 -2.3438,2.34375 v 0.0156 c 0,1.3125 0.9844,2.34375 2.3125,2.34375 z m 0,0"
         style="fill:#000000;fill-opacity:1;stroke:none;stroke-width:0.9585526" />
      <path
         inkscape:connector-curvature="0"
         id="path11394"
         d="m -1077.2907,259.0039 c 0,0.21875 0.1875,0.39063 0.4063,0.39063 0.2187,0 0.4062,-0.17188 0.4062,-0.39063 v -3.45312 h 1.1094 c 0.2031,0 0.3594,-0.17188 0.3594,-0.35938 0,-0.20312 -0.1563,-0.375 -0.3594,-0.375 h -3.0313 c -0.2031,0 -0.3593,0.17188 -0.3593,0.375 0,0.1875 0.1562,0.35938 0.3593,0.35938 h 1.1094 z m 0,0"
         style="fill:#000000;fill-opacity:1;stroke:none;stroke-width:0.9585526" />
      <path
         inkscape:connector-curvature="0"
         id="path11390"
         d="m -1057.6898,259.0039 c 0,0.21875 0.1875,0.39063 0.4063,0.39063 0.2187,0 0.4062,-0.17188 0.4062,-0.39063 v -1.5 h 1.9531 c 0.2032,0 0.375,-0.15625 0.375,-0.35937 0,-0.20313 -0.1718,-0.35938 -0.375,-0.35938 h -1.9531 v -1.25 h 2.25 c 0.2031,0 0.3594,-0.15625 0.3594,-0.35937 0,-0.20313 -0.1563,-0.35938 -0.3594,-0.35938 h -2.6562 c -0.2188,0 -0.4063,0.17188 -0.4063,0.40625 z m 0,0"
         style="fill:#000000;fill-opacity:1;stroke:none;stroke-width:0.9585526" />
      <path
         inkscape:connector-curvature="0"
         id="path11386"
         d="m -1053.2893,259.0039 c 0,0.21875 0.1719,0.39063 0.3906,0.39063 0.2344,0 0.4063,-0.17188 0.4063,-0.39063 v -2.71875 l 1.0937,1.65625 c 0.094,0.125 0.2032,0.20313 0.3438,0.20313 0.1406,0 0.25,-0.0781 0.3281,-0.20313 l 1.1094,-1.67187 v 2.73437 c 0,0.20313 0.1875,0.39063 0.4062,0.39063 0.2188,0 0.4063,-0.17188 0.4063,-0.39063 v -3.8125 c 0,-0.21875 -0.1875,-0.40625 -0.4063,-0.40625 h -0.094 c -0.1563,0 -0.2656,0.0781 -0.3594,0.20313 l -1.375,2.17187 -1.3906,-2.15625 c -0.078,-0.125 -0.1875,-0.21875 -0.3594,-0.21875 h -0.094 c -0.2188,0 -0.4063,0.1875 -0.4063,0.40625 z m 0,0"
         style="fill:#000000;fill-opacity:1;stroke:none;stroke-width:0.9585526" />
      <path
         inkscape:connector-curvature="0"
         id="path11382"
         d="m -1027.769,259.42578 c 0.9687,0 1.625,-0.5 1.625,-1.35938 v -0.0156 c 0,-0.75 -0.4844,-1.09375 -1.4532,-1.32813 -0.875,-0.20312 -1.0781,-0.35937 -1.0781,-0.71875 0,-0.3125 0.2656,-0.54687 0.7344,-0.54687 0.3594,0 0.7031,0.10937 1.0469,0.34375 0.062,0.0469 0.125,0.0625 0.2031,0.0625 0.2187,0 0.3906,-0.17188 0.3906,-0.375 0,-0.15625 -0.094,-0.26563 -0.1875,-0.3125 -0.4062,-0.28125 -0.8594,-0.42188 -1.4375,-0.42188 -0.9062,0 -1.5469,0.53125 -1.5469,1.3125 v 0.0156 c 0,0.84375 0.5313,1.125 1.5,1.35937 0.8594,0.1875 1.0313,0.375 1.0313,0.6875 v 0.0156 c 0,0.34375 -0.3125,0.57812 -0.7969,0.57812 -0.5,0 -0.9062,-0.17187 -1.2812,-0.46875 -0.047,-0.0469 -0.125,-0.0781 -0.2344,-0.0781 -0.2031,0 -0.375,0.17187 -0.375,0.375 0,0.125 0.062,0.23437 0.1562,0.3125 0.5,0.375 1.0938,0.5625 1.7032,0.5625 z m 0,0"
         style="fill:#000000;fill-opacity:1;stroke:none;stroke-width:0.9585526" />
      <path
         inkscape:connector-curvature="0"
         id="path11378"
         d="m -1023.7434,259.0039 c 0,0.21875 0.1875,0.39063 0.4062,0.39063 0.2188,0 0.4063,-0.17188 0.4063,-0.39063 v -1.42187 l 1.5469,-2.125 c 0.062,-0.0781 0.1093,-0.1875 0.1093,-0.29688 0,-0.20312 -0.1562,-0.39062 -0.3906,-0.39062 -0.1719,0 -0.2812,0.10937 -0.375,0.25 l -1.2969,1.82812 -1.2656,-1.82812 c -0.094,-0.14063 -0.2187,-0.23438 -0.3906,-0.23438 -0.2188,0 -0.4063,0.17188 -0.4063,0.375 0,0.10938 0.047,0.20313 0.094,0.28125 l 1.5625,2.15625 z m 0,0"
         style="fill:#000000;fill-opacity:1;stroke:none;stroke-width:0.9585526" />
      <path
         inkscape:connector-curvature="0"
         id="path11374"
         d="m -1020.3317,259.0039 c 0,0.21875 0.1875,0.39063 0.4063,0.39063 0.2187,0 0.3906,-0.17188 0.3906,-0.39063 v -2.89062 l 2.3437,3.03125 c 0.1094,0.14062 0.2188,0.25 0.4063,0.25 h 0.031 c 0.2188,0 0.3907,-0.1875 0.3907,-0.40625 v -3.8125 c 0,-0.21875 -0.1719,-0.39063 -0.3907,-0.39063 -0.2187,0 -0.3906,0.17188 -0.3906,0.39063 v 2.79687 l -2.2812,-2.95312 c -0.1094,-0.14063 -0.2188,-0.23438 -0.4063,-0.23438 h -0.094 c -0.2188,0 -0.4063,0.1875 -0.4063,0.40625 z m 0,0"
         style="fill:#000000;fill-opacity:1;stroke:none;stroke-width:0.9585526" />
      <path
         inkscape:connector-curvature="0"
         id="path11370"
         d="m -1012.8709,259.4414 c 0.7344,0 1.2188,-0.23437 1.6407,-0.60937 0.078,-0.0625 0.1406,-0.17188 0.1406,-0.28125 0,-0.20313 -0.1875,-0.375 -0.3906,-0.375 -0.094,0 -0.1719,0.0312 -0.2344,0.0937 -0.3281,0.28125 -0.6563,0.4375 -1.1406,0.4375 -0.8594,0 -1.5,-0.73438 -1.5,-1.625 0,-0.89063 0.6406,-1.60938 1.5,-1.60938 0.4375,0 0.7812,0.15625 1.0937,0.40625 0.047,0.0469 0.125,0.0781 0.2344,0.0781 0.2187,0 0.4062,-0.17188 0.4062,-0.39063 0,-0.14062 -0.078,-0.25 -0.1562,-0.3125 -0.4063,-0.3125 -0.8594,-0.51562 -1.5625,-0.51562 -1.375,0 -2.3438,1.0625 -2.3438,2.34375 v 0.0156 c 0,1.3125 0.9844,2.34375 2.3125,2.34375 z m 0,0"
         style="fill:#000000;fill-opacity:1;stroke:none;stroke-width:0.9585526" />
      <path
         inkscape:connector-curvature="0"
         id="path11366"
         d="m -995.62778,259.0039 c 0,0.21875 0.1875,0.39063 0.40625,0.39063 0.21875,0 0.40625,-0.17188 0.40625,-0.39063 v -1.10937 h 0.89063 c 1,0 1.82812,-0.53125 1.82812,-1.54688 v -0.0156 c 0,-0.92188 -0.67187,-1.51563 -1.73437,-1.51563 h -1.39063 c -0.21875,0 -0.40625,0.17188 -0.40625,0.40625 z m 0.8125,-1.82812 v -1.64063 h 0.92188 c 0.59375,0 0.98437,0.28125 0.98437,0.8125 v 0.0156 c 0,0.48437 -0.375,0.8125 -0.98437,0.8125 z m 0,0"
         style="fill:#000000;fill-opacity:1;stroke:none;stroke-width:0.9585526" />
      <path
         inkscape:connector-curvature="0"
         id="path11362"
         d="m -990.02501,259.09765 c 0.0781,0.20313 0.21875,0.32813 0.40625,0.32813 h 0.0781 c 0.20312,0 0.34375,-0.125 0.42187,-0.32813 l 1.01563,-2.96875 1.01562,2.96875 c 0.0625,0.20313 0.20313,0.32813 0.40625,0.32813 h 0.0781 c 0.1875,0 0.34375,-0.125 0.42187,-0.32813 l 1.34375,-3.76562 c 0.0156,-0.0469 0.0312,-0.10938 0.0312,-0.17188 0,-0.20312 -0.1875,-0.375 -0.39062,-0.375 -0.20313,0 -0.32813,0.125 -0.39063,0.28125 l -1.04687,3.14063 -1.03125,-3.125 c -0.0625,-0.1875 -0.20313,-0.3125 -0.40625,-0.3125 h -0.0469 c -0.20312,0 -0.34375,0.125 -0.40625,0.3125 l -1.03125,3.125 -1.04687,-3.14063 c -0.0469,-0.15625 -0.20313,-0.28125 -0.39063,-0.28125 -0.21875,0 -0.42187,0.17188 -0.42187,0.39063 0,0.0469 0.0156,0.10937 0.0469,0.15625 z m 0,0"
         style="fill:#000000;fill-opacity:1;stroke:none;stroke-width:0.9585526" />
      <path
         inkscape:connector-curvature="0"
         id="path11358"
         d="m -983.81661,259.0039 c 0,0.21875 0.17187,0.39063 0.39062,0.39063 0.23438,0 0.40625,-0.17188 0.40625,-0.39063 v -2.71875 l 1.09375,1.65625 c 0.0937,0.125 0.20313,0.20313 0.34375,0.20313 0.14063,0 0.25,-0.0781 0.32813,-0.20313 l 1.10937,-1.67187 v 2.73437 c 0,0.20313 0.1875,0.39063 0.40625,0.39063 0.21875,0 0.40625,-0.17188 0.40625,-0.39063 v -3.8125 c 0,-0.21875 -0.1875,-0.40625 -0.40625,-0.40625 h -0.0937 c -0.15625,0 -0.26562,0.0781 -0.35937,0.20313 l -1.375,2.17187 -1.39063,-2.15625 c -0.0781,-0.125 -0.1875,-0.21875 -0.35937,-0.21875 h -0.0937 c -0.21875,0 -0.40625,0.1875 -0.40625,0.40625 z m 0,0"
         style="fill:#000000;fill-opacity:1;stroke:none;stroke-width:0.9585526" />
      <path
         style="fill:none;stroke:#000000;stroke-width:0.4792763;stroke-linecap:round;stroke-linejoin:round;stroke-miterlimit:10;stroke-opacity:1"
         d="m -1101.6016,245.32813 h 129.60156"
         id="path25313"
         inkscape:connector-curvature="0" />
      <path
         inkscape:connector-curvature="0"
         id="path11354"
         d="m -1046.1045,27.23877 h 0.125 c 0.5,0 0.8437,-0.265625 1.0312,-0.71875 l 2.75,-6.578125 c 0.047,-0.109375 0.094,-0.265625 0.094,-0.40625 0,-0.515625 -0.4063,-0.890625 -0.9063,-0.890625 -0.4375,0 -0.7656,0.28125 -0.8906,0.578125 l -2.125,5.5 -2.0938,-5.4375 c -0.1406,-0.375 -0.4531,-0.640625 -0.9375,-0.640625 -0.5156,0 -0.9218,0.390625 -0.9218,0.90625 0,0.15625 0.047,0.296875 0.1093,0.453125 l 2.7188,6.515625 c 0.1875,0.453125 0.5469,0.71875 1.0469,0.71875 z m 0,0"
         style="fill:#000000;fill-opacity:1;stroke:none;stroke-width:0.9585526" />
      <path
         inkscape:connector-curvature="0"
         id="path11350"
         d="m -1037.0639,27.254395 c 1.3437,0 2.2344,-0.390625 3,-1.046875 0.1562,-0.15625 0.3125,-0.375 0.3125,-0.671875 0,-0.46875 -0.4063,-0.84375 -0.875,-0.84375 -0.2188,0 -0.4063,0.07813 -0.5469,0.203125 -0.5312,0.421875 -1.0469,0.65625 -1.8281,0.65625 -1.4375,0 -2.4375,-1.203125 -2.4375,-2.640625 v -0.01563 c 0,-1.4375 1.0312,-2.625 2.4375,-2.625 0.6562,0 1.2031,0.21875 1.7187,0.609375 0.1407,0.07813 0.2969,0.171875 0.5469,0.171875 0.5156,0 0.9219,-0.390625 0.9219,-0.890625 0,-0.328125 -0.1719,-0.59375 -0.3594,-0.734375 -0.7031,-0.515625 -1.5469,-0.859375 -2.8125,-0.859375 -2.5781,0 -4.375,1.953125 -4.375,4.34375 v 0.03125 c 0,2.40625 1.8281,4.3125 4.2969,4.3125 z m 0,0"
         style="fill:#000000;fill-opacity:1;stroke:none;stroke-width:0.9585526" />
      <path
         inkscape:connector-curvature="0"
         id="path11346"
         d="m -1028.2005,27.254395 c 2.5938,0 4.4688,-1.953125 4.4688,-4.34375 v -0.01563 c 0,-2.390625 -1.8594,-4.328125 -4.4531,-4.328125 -2.5938,0 -4.4688,1.953125 -4.4688,4.34375 v 0.03125 c 0,2.390625 1.8594,4.3125 4.4531,4.3125 z m 0.016,-1.703125 c -1.4844,0 -2.5469,-1.203125 -2.5469,-2.640625 v -0.01563 c 0,-1.4375 1.0312,-2.625 2.5312,-2.625 1.4844,0 2.5313,1.203125 2.5313,2.640625 v 0.03125 c 0,1.4375 -1.0313,2.609375 -2.5156,2.609375 z m 0,0"
         style="fill:#000000;fill-opacity:1;stroke:none;stroke-width:0.9585526" />
      <path
         inkscape:connector-curvature="0"
         id="path11342"
         d="m -1078.9513,127.52774 c 0,0.28125 0.2188,0.5 0.5,0.5 0.2657,0 0.4844,-0.21875 0.4844,-0.5 v -1.82812 h 2.4219 c 0.25,0 0.4375,-0.20313 0.4375,-0.45313 0,-0.23437 -0.1875,-0.4375 -0.4375,-0.4375 h -2.4219 v -1.53125 h 2.7813 c 0.25,0 0.4375,-0.20312 0.4375,-0.45312 0,-0.25 -0.1875,-0.4375 -0.4375,-0.4375 h -3.2657 c -0.2812,0 -0.5,0.20312 -0.5,0.48437 z m 0,0"
         style="fill:#000000;fill-opacity:1;stroke:none;stroke-width:0.9585526" />
      <path
         inkscape:connector-curvature="0"
         id="path11338"
         d="m -1073.5608,127.52774 c 0,0.28125 0.2032,0.5 0.4844,0.5 0.2813,0 0.5,-0.21875 0.5,-0.5 v -4.70312 c 0,-0.26563 -0.2187,-0.48438 -0.5,-0.48438 -0.2812,0 -0.4844,0.21875 -0.4844,0.48438 z m 0,0"
         style="fill:#000000;fill-opacity:1;stroke:none;stroke-width:0.9585526" />
      <path
         inkscape:connector-curvature="0"
         id="path11334"
         d="m -1070.8913,127.54337 c 0,0.26562 0.2188,0.48437 0.4844,0.48437 0.2656,0 0.4844,-0.21875 0.4844,-0.48437 v -3.54688 l 2.875,3.71875 c 0.1406,0.17188 0.2812,0.29688 0.5156,0.29688 h 0.047 c 0.2656,0 0.4687,-0.21875 0.4687,-0.48438 v -4.70312 c 0,-0.26563 -0.2031,-0.48438 -0.4843,-0.48438 -0.2657,0 -0.4844,0.21875 -0.4844,0.48438 v 3.4375 l -2.7969,-3.625 c -0.125,-0.17188 -0.2656,-0.28125 -0.5156,-0.28125 h -0.094 c -0.2812,0 -0.5,0.21875 -0.5,0.48437 z m 0,0"
         style="fill:#000000;fill-opacity:1;stroke:none;stroke-width:0.9585526" />
      <path
         inkscape:connector-curvature="0"
         id="path11330"
         d="m -1063.8377,127.98087 h 3.2969 c 0.2344,0 0.4375,-0.1875 0.4375,-0.4375 0,-0.25 -0.2031,-0.4375 -0.4375,-0.4375 h -2.8125 v -1.51563 h 2.4063 c 0.25,0 0.4375,-0.1875 0.4375,-0.42187 0,-0.25 -0.1875,-0.45313 -0.4375,-0.45313 h -2.4063 v -1.45312 h 2.7656 c 0.25,0 0.4375,-0.1875 0.4375,-0.4375 0,-0.25 -0.1875,-0.4375 -0.4375,-0.4375 h -3.25 c -0.2812,0 -0.5,0.20312 -0.5,0.48437 v 4.60938 c 0,0.28125 0.2188,0.5 0.5,0.5 z m 0,0"
         style="fill:#000000;fill-opacity:1;stroke:none;stroke-width:0.9585526" />
      <path
         inkscape:connector-curvature="0"
         id="path11326"
         d="m -1075.1113,189.91973 c 0,0.28125 0.2188,0.5 0.5,0.5 0.2657,0 0.4844,-0.21875 0.4844,-0.5 v -1.82812 h 2.4219 c 0.25,0 0.4375,-0.20313 0.4375,-0.45313 0,-0.23437 -0.1875,-0.4375 -0.4375,-0.4375 h -2.4219 v -1.53125 h 2.7813 c 0.25,0 0.4375,-0.20312 0.4375,-0.45312 0,-0.25 -0.1875,-0.4375 -0.4375,-0.4375 h -3.2657 c -0.2812,0 -0.5,0.20312 -0.5,0.48437 z m 0,0"
         style="fill:#000000;fill-opacity:1;stroke:none;stroke-width:0.9585526" />
      <path
         inkscape:connector-curvature="0"
         id="path11322"
         d="m -1069.7593,189.93536 c 0,0.26562 0.2032,0.48437 0.4844,0.48437 0.2656,0 0.4844,-0.21875 0.4844,-0.48437 v -3.35938 l 1.3594,2.04688 c 0.1093,0.15625 0.2343,0.25 0.4062,0.25 0.1875,0 0.3125,-0.0937 0.4219,-0.25 l 1.3594,-2.0625 v 3.35937 c 0,0.26563 0.2343,0.5 0.5,0.5 0.2812,0 0.4843,-0.21875 0.4843,-0.5 v -4.6875 c 0,-0.26562 -0.2031,-0.48437 -0.4843,-0.48437 h -0.1094 c -0.2031,0 -0.3438,0.0781 -0.4531,0.25 l -1.7032,2.65625 -1.6875,-2.65625 c -0.094,-0.14063 -0.25,-0.25 -0.4687,-0.25 h -0.094 c -0.2812,0 -0.5,0.21875 -0.5,0.48437 z m 0,0"
         style="fill:#000000;fill-opacity:1;stroke:none;stroke-width:0.9585526" />
      <path
         inkscape:connector-curvature="0"
         id="path11318"
         d="m -1017.5353,189.91973 c 0,0.28125 0.2188,0.5 0.5,0.5 0.2657,0 0.4844,-0.21875 0.4844,-0.5 v -1.34375 h 1.1094 c 1.2344,0 2.25,-0.65625 2.25,-1.92187 v -0.0156 c 0,-1.125 -0.8281,-1.85937 -2.1406,-1.85937 h -1.7032 c -0.2812,0 -0.5,0.20312 -0.5,0.48437 z m 0.9844,-2.23437 v -2.01563 h 1.1406 c 0.7344,0 1.2188,0.34375 1.2188,1 v 0.0156 c 0,0.57812 -0.4688,1 -1.2188,1 z m 0,0"
         style="fill:#000000;fill-opacity:1;stroke:none;stroke-width:0.9585526" />
      <path
         inkscape:connector-curvature="0"
         id="path11314"
         d="m -1010.7171,190.04473 c 0.094,0.25 0.2656,0.40625 0.5156,0.40625 h 0.094 c 0.2344,0 0.4219,-0.15625 0.5157,-0.40625 l 1.25,-3.65625 1.2343,3.65625 c 0.094,0.25 0.2657,0.40625 0.5157,0.40625 h 0.094 c 0.2344,0 0.4219,-0.15625 0.5156,-0.40625 l 1.6563,-4.64062 c 0.016,-0.0625 0.047,-0.14063 0.047,-0.20313 0,-0.26562 -0.2344,-0.46875 -0.5,-0.46875 -0.2344,0 -0.4063,0.15625 -0.4688,0.35938 l -1.2969,3.84375 -1.2656,-3.82813 c -0.062,-0.23437 -0.2344,-0.39062 -0.4844,-0.39062 h -0.078 c -0.25,0 -0.4219,0.15625 -0.5,0.39062 l -1.2656,3.82813 -1.2813,-3.84375 c -0.062,-0.20313 -0.25,-0.35938 -0.4843,-0.35938 -0.2813,0 -0.5,0.20313 -0.5,0.48438 0,0.0625 0.016,0.125 0.031,0.1875 z m 0,0"
         style="fill:#000000;fill-opacity:1;stroke:none;stroke-width:0.9585526" />
      <path
         inkscape:connector-curvature="0"
         id="path11310"
         d="m -998.2439,190.46661 c 0.90625,0 1.51562,-0.28125 2.04687,-0.75 0.0781,-0.0781 0.15625,-0.20313 0.15625,-0.35938 0,-0.23437 -0.21875,-0.45312 -0.46875,-0.45312 -0.125,0 -0.21875,0.0469 -0.29687,0.10937 -0.40625,0.34375 -0.8125,0.54688 -1.39063,0.54688 -1.07812,0 -1.85937,-0.89063 -1.85937,-1.98438 v -0.0156 c 0,-1.09375 0.78125,-1.98438 1.85937,-1.98438 0.53125,0 0.9375,0.20313 1.32813,0.51563 0.0625,0.0469 0.15625,0.0937 0.29687,0.0937 0.26563,0 0.48438,-0.21875 0.48438,-0.48438 0,-0.17187 -0.0781,-0.3125 -0.1875,-0.39062 -0.48438,-0.375 -1.0625,-0.64063 -1.92188,-0.64063 -1.70312,0 -2.89067,1.3125 -2.89067,2.90625 v 0.0156 c 0,1.60937 1.2188,2.875 2.8438,2.875 z m 0,0"
         style="fill:#000000;fill-opacity:1;stroke:none;stroke-width:0.9585526" />
      <path
         inkscape:connector-curvature="0"
         id="path11306"
         d="m -992.53415,190.45098 h 0.0469 c 0.28125,0 0.46875,-0.15625 0.57812,-0.39062 l 1.96875,-4.64063 c 0.0156,-0.0625 0.0469,-0.14062 0.0469,-0.21875 0,-0.26562 -0.21875,-0.46875 -0.48438,-0.46875 -0.23437,0 -0.42187,0.15625 -0.48437,0.32813 l -1.64063,4.0625 -1.60937,-4.03125 c -0.0781,-0.21875 -0.25,-0.35938 -0.5,-0.35938 -0.28125,0 -0.5,0.21875 -0.5,0.48438 0,0.0781 0.0312,0.15625 0.0625,0.23437 l 1.95312,4.60938 c 0.10938,0.23437 0.28125,0.39062 0.5625,0.39062 z m 0,0"
         style="fill:#000000;fill-opacity:1;stroke:none;stroke-width:0.9585526" />
      <path
         inkscape:connector-curvature="0"
         id="path11302"
         d="m -1022.4633,127.52774 c 0,0.28125 0.2188,0.5 0.5,0.5 0.2657,0 0.4844,-0.21875 0.4844,-0.5 v -1.34375 h 1.1094 c 1.2344,0 2.25,-0.65625 2.25,-1.92187 v -0.0156 c 0,-1.125 -0.8281,-1.85937 -2.1406,-1.85937 h -1.7032 c -0.2812,0 -0.5,0.20312 -0.5,0.48437 z m 0.9844,-2.23437 v -2.01563 h 1.1406 c 0.7344,0 1.2188,0.34375 1.2188,1 v 0.0156 c 0,0.57812 -0.4688,1 -1.2188,1 z m 0,0"
         style="fill:#000000;fill-opacity:1;stroke:none;stroke-width:0.9585526" />
      <path
         inkscape:connector-curvature="0"
         id="path11298"
         d="m -1017.8024,127.38712 v 0.0781 c 0,0.3125 0.2344,0.5625 0.5625,0.5625 0.3282,0 0.5625,-0.25 0.5625,-0.5625 v -0.0781 c 0,-0.3125 -0.2343,-0.54688 -0.5625,-0.54688 -0.3281,0 -0.5625,0.23438 -0.5625,0.54688 z m 0,0"
         style="fill:#000000;fill-opacity:1;stroke:none;stroke-width:0.9585526" />
      <path
         inkscape:connector-curvature="0"
         id="path11294"
         d="m -1011.7347,127.65274 c 0.094,0.25 0.2656,0.40625 0.5156,0.40625 h 0.094 c 0.2344,0 0.4219,-0.15625 0.5157,-0.40625 l 1.25,-3.65625 1.2343,3.65625 c 0.094,0.25 0.2657,0.40625 0.5157,0.40625 h 0.094 c 0.2344,0 0.4219,-0.15625 0.5156,-0.40625 l 1.6563,-4.64062 c 0.016,-0.0625 0.047,-0.14063 0.047,-0.20313 0,-0.26562 -0.2344,-0.46875 -0.5,-0.46875 -0.2344,0 -0.4063,0.15625 -0.4688,0.35938 l -1.2969,3.84375 -1.2656,-3.82813 c -0.062,-0.23437 -0.2344,-0.39062 -0.4844,-0.39062 h -0.078 c -0.25,0 -0.4219,0.15625 -0.5,0.39062 l -1.2656,3.82813 -1.2813,-3.84375 c -0.062,-0.20313 -0.25,-0.35938 -0.4843,-0.35938 -0.2813,0 -0.5,0.20313 -0.5,0.48438 0,0.0625 0.016,0.125 0.031,0.1875 z m 0,0"
         style="fill:#000000;fill-opacity:1;stroke:none;stroke-width:0.9585526" />
      <path
         inkscape:connector-curvature="0"
         id="path11290"
         d="m -1004.1047,127.52774 c 0,0.28125 0.2031,0.5 0.4843,0.5 0.2813,0 0.5,-0.21875 0.5,-0.5 v -4.70312 c 0,-0.26563 -0.2187,-0.48438 -0.5,-0.48438 -0.2812,0 -0.4843,0.21875 -0.4843,0.48438 z m 0,0"
         style="fill:#000000;fill-opacity:1;stroke:none;stroke-width:0.9585526" />
      <path
         inkscape:connector-curvature="0"
         id="path11286"
         d="m -1001.4352,127.48087 c 0,0.28125 0.2187,0.5 0.5,0.5 h 1.5937 c 1.75,0 2.96875,-1.21875 2.96875,-2.79688 v -0.0156 c 0,-1.57813 -1.21875,-2.78125 -2.96875,-2.78125 h -1.5937 c -0.2813,0 -0.5,0.20312 -0.5,0.48437 z m 0.9843,-0.39063 v -3.8125 h 1.1094 c 1.17188,0 1.9375,0.8125 1.9375,1.90625 v 0.0156 c 0,1.09375 -0.76562,1.89062 -1.9375,1.89062 z m 0,0"
         style="fill:#000000;fill-opacity:1;stroke:none;stroke-width:0.9585526" />
      <path
         inkscape:connector-curvature="0"
         id="path11282"
         d="m -993.95144,127.52774 c 0,0.28125 0.21875,0.5 0.5,0.5 0.26562,0 0.5,-0.21875 0.5,-0.5 v -4.23437 h 1.35937 c 0.25,0 0.45313,-0.20313 0.45313,-0.45313 0,-0.25 -0.20313,-0.45312 -0.45313,-0.45312 h -3.71875 c -0.25,0 -0.45312,0.20312 -0.45312,0.45312 0,0.25 0.20312,0.45313 0.45312,0.45313 h 1.35938 z m 0,0"
         style="fill:#000000;fill-opacity:1;stroke:none;stroke-width:0.9585526" />
      <path
         inkscape:connector-curvature="0"
         id="path11278"
         d="m -990.01765,127.52774 c 0,0.28125 0.21875,0.5 0.5,0.5 0.26563,0 0.48438,-0.21875 0.48438,-0.5 v -1.90625 h 2.67187 v 1.90625 c 0,0.28125 0.21875,0.5 0.48438,0.5 0.28125,0 0.5,-0.21875 0.5,-0.5 v -4.70312 c 0,-0.26563 -0.21875,-0.48438 -0.5,-0.48438 -0.26563,0 -0.48438,0.21875 -0.48438,0.48438 v 1.89062 h -2.67187 v -1.89062 c 0,-0.26563 -0.21875,-0.48438 -0.48438,-0.48438 -0.28125,0 -0.5,0.21875 -0.5,0.48438 z m 0,0"
         style="fill:#000000;fill-opacity:1;stroke:none;stroke-width:0.9585526" />
      <path
         inkscape:connector-curvature="0"
         id="path11274"
         d="m -996.84378,67.568299 c 0,0.21875 0.1875,0.390625 0.40625,0.390625 0.21875,0 0.40625,-0.171875 0.40625,-0.390625 v -1.5625 h 2.17188 v 1.5625 c 0,0.21875 0.17187,0.390625 0.39062,0.390625 0.21875,0 0.40625,-0.171875 0.40625,-0.390625 v -3.828125 c 0,-0.21875 -0.1875,-0.390625 -0.40625,-0.390625 -0.21875,0 -0.39062,0.171875 -0.39062,0.390625 v 1.53125 h -2.17188 v -1.53125 c 0,-0.21875 -0.1875,-0.390625 -0.40625,-0.390625 -0.21875,0 -0.40625,0.171875 -0.40625,0.390625 z m 0,0"
         style="fill:#000000;fill-opacity:1;stroke:none;stroke-width:0.9585526" />
      <path
         inkscape:connector-curvature="0"
         id="path11270"
         d="m -992.08627,67.583924 c 0,0.21875 0.17187,0.375 0.375,0.375 0.17187,0 0.3125,-0.09375 0.375,-0.25 l 0.375,-0.875 h 2.21875 l 0.375,0.84375 c 0.0625,0.171875 0.1875,0.28125 0.39062,0.28125 0.20313,0 0.375,-0.171875 0.375,-0.375 0,-0.0625 -0.0156,-0.125 -0.0469,-0.171875 l -1.6875,-3.78125 c -0.0937,-0.1875 -0.25,-0.3125 -0.48438,-0.3125 h -0.0312 c -0.23437,0 -0.39062,0.125 -0.48437,0.3125 l -1.6875,3.78125 c -0.0312,0.0625 -0.0625,0.125 -0.0625,0.171875 z m 1.4375,-1.46875 0.79687,-1.828125 0.79688,1.828125 z m 0,0"
         style="fill:#000000;fill-opacity:1;stroke:none;stroke-width:0.9585526" />
      <path
         inkscape:connector-curvature="0"
         id="path11266"
         d="m -986.61928,67.568299 c 0,0.21875 0.1875,0.390625 0.40625,0.390625 0.21875,0 0.40625,-0.171875 0.40625,-0.390625 v -1.234375 h 1 l 1.10938,1.421875 c 0.0937,0.125 0.20312,0.203125 0.39062,0.203125 0.1875,0 0.375,-0.140625 0.375,-0.375 0,-0.125 -0.0469,-0.203125 -0.125,-0.296875 l -0.875,-1.09375 c 0.60938,-0.203125 1.03125,-0.640625 1.03125,-1.359375 v -0.01563 c 0,-0.40625 -0.125,-0.734375 -0.375,-0.984375 -0.28125,-0.28125 -0.73437,-0.453125 -1.3125,-0.453125 h -1.625 c -0.21875,0 -0.40625,0.171875 -0.40625,0.40625 z m 0.8125,-1.9375 v -1.53125 h 1.15625 c 0.59375,0 0.9375,0.265625 0.9375,0.765625 0,0.46875 -0.35937,0.765625 -0.9375,0.765625 z m 0,0"
         style="fill:#000000;fill-opacity:1;stroke:none;stroke-width:0.9585526" />
      <path
         inkscape:connector-curvature="0"
         id="path11262"
         d="m -981.69033,67.521424 c 0,0.234375 0.1875,0.40625 0.40625,0.40625 h 1.29688 c 1.4375,0 2.42187,-1 2.42187,-2.28125 0,-1.28125 -0.98437,-2.265625 -2.42187,-2.265625 h -1.29688 c -0.21875,0 -0.40625,0.171875 -0.40625,0.40625 z m 0.8125,-0.328125 v -3.09375 h 0.89063 c 0.95312,0 1.57812,0.65625 1.57812,1.546875 v 0.01563 c 0,0.890625 -0.625,1.53125 -1.57812,1.53125 z m 0,0"
         style="fill:#000000;fill-opacity:1;stroke:none;stroke-width:0.9585526" />
      <path
         inkscape:connector-curvature="0"
         id="path11258"
         d="m -994.53503,103.83116 c 0.96875,0 1.625,-0.5 1.625,-1.35938 v -0.0156 c 0,-0.75 -0.48438,-1.09375 -1.45313,-1.32813 -0.875,-0.20312 -1.07812,-0.35937 -1.07812,-0.71875 0,-0.3125 0.26562,-0.54687 0.73437,-0.54687 0.35938,0 0.70313,0.109375 1.04688,0.34375 0.0625,0.0469 0.125,0.0625 0.20312,0.0625 0.21875,0 0.39063,-0.17188 0.39063,-0.375 0,-0.15625 -0.0937,-0.265625 -0.1875,-0.3125 -0.40625,-0.28125 -0.85938,-0.421875 -1.4375,-0.421875 -0.90625,0 -1.54688,0.53125 -1.54688,1.312495 v 0.0156 c 0,0.84375 0.53125,1.125 1.5,1.35937 0.85938,0.1875 1.03125,0.375 1.03125,0.6875 v 0.0156 c 0,0.34375 -0.3125,0.57812 -0.79687,0.57812 -0.5,0 -0.90625,-0.17187 -1.28125,-0.46875 -0.0469,-0.0469 -0.125,-0.0781 -0.23438,-0.0781 -0.20312,0 -0.375,0.17187 -0.375,0.375 0,0.125 0.0625,0.23437 0.15625,0.3125 0.5,0.375 1.09375,0.5625 1.70313,0.5625 z m 0,0"
         style="fill:#000000;fill-opacity:1;stroke:none;stroke-width:0.9585526" />
      <path
         inkscape:connector-curvature="0"
         id="path11254"
         d="m -989.6474,103.84678 c 1.40625,0 2.39063,-1.07812 2.39063,-2.35937 0,-1.28125 -0.96875,-2.34375 -2.375,-2.34375 -1.39063,0 -2.375,1.0625 -2.375,2.34375 v 0.0156 c 0,1.28125 0.96875,2.34375 2.35937,2.34375 z m 0.0156,-0.73437 c -0.90625,0 -1.54688,-0.73438 -1.54688,-1.625 0,-0.89063 0.64063,-1.609375 1.53125,-1.609375 0.90625,0 1.54688,0.734375 1.54688,1.609375 v 0.0156 c 0,0.89063 -0.625,1.60938 -1.53125,1.60938 z m 0,0"
         style="fill:#000000;fill-opacity:1;stroke:none;stroke-width:0.9585526" />
      <path
         inkscape:connector-curvature="0"
         id="path11250"
         d="m -986.08952,103.40928 c 0,0.21875 0.1875,0.39063 0.40625,0.39063 0.21875,0 0.40625,-0.17188 0.40625,-0.39063 v -1.5 h 1.95312 c 0.20313,0 0.375,-0.15625 0.375,-0.35937 0,-0.20313 -0.17187,-0.35938 -0.375,-0.35938 h -1.95312 v -1.249995 h 2.25 c 0.20312,0 0.35937,-0.15625 0.35937,-0.359375 0,-0.203125 -0.15625,-0.359375 -0.35937,-0.359375 h -2.65625 c -0.21875,0 -0.40625,0.171875 -0.40625,0.40625 z m 0,0"
         style="fill:#000000;fill-opacity:1;stroke:none;stroke-width:0.9585526" />
      <path
         inkscape:connector-curvature="0"
         id="path11246"
         d="m -980.40022,103.40928 c 0,0.21875 0.1875,0.39063 0.40625,0.39063 0.21875,0 0.40625,-0.17188 0.40625,-0.39063 v -3.45312 h 1.10937 c 0.20313,0 0.35938,-0.171875 0.35938,-0.359375 0,-0.203125 -0.15625,-0.375 -0.35938,-0.375 h -3.03125 c -0.20312,0 -0.35937,0.171875 -0.35937,0.375 0,0.1875 0.15625,0.359375 0.35937,0.359375 h 1.10938 z m 0,0"
         style="fill:#000000;fill-opacity:1;stroke:none;stroke-width:0.9585526" />
      <path
         inkscape:connector-curvature="0"
         id="path11242"
         d="m -1097.2276,103.34743 c 0,0.21875 0.1719,0.375 0.375,0.375 0.1719,0 0.3125,-0.0937 0.375,-0.25 l 0.375,-0.875 h 2.2188 l 0.375,0.84375 c 0.062,0.17188 0.1875,0.28125 0.3906,0.28125 0.2031,0 0.375,-0.17187 0.375,-0.375 0,-0.0625 -0.016,-0.125 -0.047,-0.17187 l -1.6875,-3.781255 c -0.094,-0.1875 -0.25,-0.3125 -0.4843,-0.3125 h -0.031 c -0.2344,0 -0.3906,0.125 -0.4844,0.3125 l -1.6875,3.781255 c -0.031,0.0625 -0.062,0.125 -0.062,0.17187 z m 1.4375,-1.46875 0.7969,-1.82812 0.7969,1.82812 z m 0,0"
         style="fill:#000000;fill-opacity:1;stroke:none;stroke-width:0.9585526" />
      <path
         inkscape:connector-curvature="0"
         id="path11238"
         d="m -1091.758,103.33181 c 0,0.21875 0.1875,0.39062 0.4063,0.39062 0.2187,0 0.3906,-0.17187 0.3906,-0.39062 v -2.89063 l 2.3437,3.03125 c 0.1094,0.14063 0.2188,0.25 0.4063,0.25 h 0.031 c 0.2188,0 0.3907,-0.1875 0.3907,-0.40625 v -3.8125 c 0,-0.21875 -0.1719,-0.390625 -0.3907,-0.390625 -0.2187,0 -0.3906,0.171875 -0.3906,0.390625 v 2.79688 l -2.2812,-2.95313 c -0.1094,-0.140625 -0.2188,-0.234375 -0.4063,-0.234375 h -0.094 c -0.2188,0 -0.4063,0.1875 -0.4063,0.40625 z m 0,0"
         style="fill:#000000;fill-opacity:1;stroke:none;stroke-width:0.9585526" />
      <path
         inkscape:connector-curvature="0"
         id="path11234"
         d="m -1086.3857,103.28493 c 0,0.23438 0.1875,0.40625 0.4063,0.40625 h 2.4531 c 0.2031,0 0.375,-0.15625 0.375,-0.35937 0,-0.20313 -0.1719,-0.375 -0.375,-0.375 h -2.0469 v -3.45313 c 0,-0.21875 -0.1875,-0.390625 -0.4062,-0.390625 -0.2188,0 -0.4063,0.171875 -0.4063,0.390625 z m 0,0"
         style="fill:#000000;fill-opacity:1;stroke:none;stroke-width:0.9585526" />
      <path
         inkscape:connector-curvature="0"
         id="path11230"
         d="m -1080.2196,103.76931 c 0.6719,0 1.2187,-0.23438 1.6094,-0.5 0.1875,-0.10938 0.2812,-0.28125 0.2812,-0.5 v -1.21875 c 0,-0.21875 -0.1719,-0.40625 -0.4062,-0.40625 h -1.2657 c -0.1875,0 -0.3593,0.15625 -0.3593,0.35937 0,0.1875 0.1718,0.34375 0.3593,0.34375 h 0.9063 v 0.84375 c -0.2813,0.21875 -0.6719,0.34375 -1.1094,0.34375 -0.9219,0 -1.5469,-0.6875 -1.5469,-1.625 0,-0.875 0.6407,-1.609375 1.4844,-1.609375 0.4844,0 0.8125,0.140625 1.0938,0.359375 0.078,0.0469 0.1562,0.0937 0.25,0.0937 0.2187,0 0.4062,-0.1875 0.4062,-0.40625 0,-0.15625 -0.094,-0.265625 -0.1719,-0.328125 -0.4062,-0.296875 -0.875,-0.453125 -1.5468,-0.453125 -1.375,0 -2.3438,1.07813 -2.3438,2.34375 v 0.0156 c 0,1.32812 0.9219,2.34375 2.3594,2.34375 z m 0,0"
         style="fill:#000000;fill-opacity:1;stroke:none;stroke-width:0.9585526" />
      <path
         inkscape:connector-curvature="0"
         id="path11226"
         d="m -1096.5316,67.4763 c 0,0.234375 0.1875,0.40625 0.4063,0.40625 h 1.2968 c 1.4375,0 2.4219,-1 2.4219,-2.28125 0,-1.28125 -0.9844,-2.265625 -2.4219,-2.265625 h -1.2968 c -0.2188,0 -0.4063,0.171875 -0.4063,0.40625 z m 0.8125,-0.328125 v -3.09375 h 0.8906 c 0.9532,0 1.5782,0.65625 1.5782,1.546875 v 0.01563 c 0,0.890625 -0.625,1.53125 -1.5782,1.53125 z m 0,0"
         style="fill:#000000;fill-opacity:1;stroke:none;stroke-width:0.9585526" />
      <path
         inkscape:connector-curvature="0"
         id="path11222"
         d="m -1089.0999,67.960675 c 0.6719,0 1.2187,-0.234375 1.6094,-0.5 0.1875,-0.109375 0.2812,-0.28125 0.2812,-0.5 v -1.21875 c 0,-0.21875 -0.1719,-0.40625 -0.4062,-0.40625 h -1.2657 c -0.1875,0 -0.3593,0.15625 -0.3593,0.359375 0,0.1875 0.1718,0.34375 0.3593,0.34375 h 0.9063 v 0.84375 c -0.2813,0.21875 -0.6719,0.34375 -1.1094,0.34375 -0.9219,0 -1.5469,-0.6875 -1.5469,-1.625 0,-0.875 0.6407,-1.609375 1.4844,-1.609375 0.4844,0 0.8125,0.140625 1.0938,0.359375 0.078,0.04687 0.1562,0.09375 0.25,0.09375 0.2187,0 0.4062,-0.1875 0.4062,-0.40625 0,-0.15625 -0.094,-0.265625 -0.1719,-0.328125 -0.4062,-0.296875 -0.875,-0.453125 -1.5468,-0.453125 -1.375,0 -2.3438,1.078125 -2.3438,2.34375 v 0.01563 c 0,1.328125 0.9219,2.34375 2.3594,2.34375 z m 0,0"
         style="fill:#000000;fill-opacity:1;stroke:none;stroke-width:0.9585526" />
      <path
         inkscape:connector-curvature="0"
         id="path11218"
         d="m -1084.9403,67.523175 c 0,0.21875 0.1875,0.390625 0.4063,0.390625 0.2187,0 0.4062,-0.171875 0.4062,-0.390625 V 64.07005 h 1.1094 c 0.2031,0 0.3594,-0.171875 0.3594,-0.359375 0,-0.203125 -0.1563,-0.375 -0.3594,-0.375 h -3.0313 c -0.2031,0 -0.3593,0.171875 -0.3593,0.375 0,0.1875 0.1562,0.359375 0.3593,0.359375 h 1.1094 z m 0,0"
         style="fill:#000000;fill-opacity:1;stroke:none;stroke-width:0.9585526" />
      <path
         inkscape:connector-curvature="0"
         id="path11214"
         d="m -1081.6999,67.4763 c 0,0.234375 0.1875,0.40625 0.4063,0.40625 h 2.4531 c 0.2031,0 0.375,-0.15625 0.375,-0.359375 0,-0.203125 -0.1719,-0.375 -0.375,-0.375 h -2.0469 V 63.69505 c 0,-0.21875 -0.1875,-0.390625 -0.4062,-0.390625 -0.2188,0 -0.4063,0.171875 -0.4063,0.390625 z m 0,0"
         style="fill:#000000;fill-opacity:1;stroke:none;stroke-width:0.9585526" />
    </g>
  </g>
</svg>
