<?xml version="1.0" encoding="UTF-8" standalone="no"?>
<svg
   xmlns:dc="http://purl.org/dc/elements/1.1/"
   xmlns:cc="http://creativecommons.org/ns#"
   xmlns:rdf="http://www.w3.org/1999/02/22-rdf-syntax-ns#"
   xmlns:svg="http://www.w3.org/2000/svg"
   xmlns="http://www.w3.org/2000/svg"
   xmlns:sodipodi="http://sodipodi.sourceforge.net/DTD/sodipodi-0.dtd"
   xmlns:inkscape="http://www.inkscape.org/namespaces/inkscape"
   width="135"
   height="380"
   viewBox="0 0 135 380"
   version="1.1"
   id="svg214"
   sodipodi:docname="VCO.svg"
   inkscape:version="0.92.3 (2405546, 2018-03-11)">
  <metadata
     id="metadata218">
    <rdf:RDF>
      <cc:Work
         rdf:about="">
        <dc:format>image/svg+xml</dc:format>
        <dc:type
           rdf:resource="http://purl.org/dc/dcmitype/StillImage" />
      </cc:Work>
    </rdf:RDF>
  </metadata>
  <sodipodi:namedview
     pagecolor="#ffffff"
     bordercolor="#666666"
     borderopacity="1"
     objecttolerance="10"
     gridtolerance="10"
     guidetolerance="10"
     inkscape:pageopacity="0"
     inkscape:pageshadow="2"
     inkscape:window-width="1920"
     inkscape:window-height="1017"
     id="namedview216"
     showgrid="false"
     inkscape:zoom="0.62105263"
     inkscape:cx="67.5"
     inkscape:cy="190"
     inkscape:window-x="-8"
     inkscape:window-y="-8"
     inkscape:window-maximized="1"
     inkscape:current-layer="svg214" />
  <defs
     id="defs7">
    <linearGradient
       id="e177933e-b46b-4a47-9930-05c1f1d4149c"
       x1="67.5"
       x2="67.5"
       y2="380"
       gradientUnits="userSpaceOnUse">
      <stop
         offset="0"
         stop-color="#ebebeb"
         id="stop2" />
      <stop
         offset="1"
         stop-color="#e1e1e1"
         id="stop4" />
    </linearGradient>
  </defs>
  <g
     id="ae8a9d53-7d51-4e2d-86b4-182b0f1636c5"
     data-name="FND BG">
    <rect
       width="135"
       height="380"
       fill="url(#e177933e-b46b-4a47-9930-05c1f1d4149c)"
       id="rect9" />
  </g>
  <g
     id="aa880d18-cfe8-4bd2-bda2-afb179f11477"
     data-name="FND GRAPH">
    <rect
       x="5.17486"
       y="309.03011"
       width="124.65028"
       height="39.19244"
       rx="2.83465"
       fill="#1f1f1f"
       id="rect12" />
    <g
       id="g22">
      <path
         d="M59.36311,359.753a.91214.91214,0,0,1-.8158-.50418L55.583,353.32023a.91209.91209,0,0,1,1.6316-.8158l2.14848,4.297,2.14848-4.297a.9121.9121,0,0,1,1.63161.8158l-2.96429,5.92857A.91211.91211,0,0,1,59.36311,359.753Z"
         fill="#1f1f1f"
         id="path14" />
      <path
         d="M75.64457,359.753a.91213.91213,0,0,1-.8158-.50418l-2.96428-5.92857a.91209.91209,0,0,1,1.6316-.8158l2.14848,4.297,2.14848-4.297a.91209.91209,0,0,1,1.6316.8158l-2.96428,5.92857A.91214.91214,0,0,1,75.64457,359.753Z"
         fill="#1f1f1f"
         id="path16" />
      <path
         d="M67.94626,359.753a3.87637,3.87637,0,1,1,2.32653-6.97719.91209.91209,0,1,1-1.09557,1.45854,2.034,2.034,0,0,0-1.231-.40991,2.0522,2.0522,0,1,0,0,4.10439,2.034,2.034,0,0,0,1.231-.40991.91209.91209,0,1,1,1.09557,1.45854A3.84478,3.84478,0,0,1,67.94626,359.753Z"
         fill="#1f1f1f"
         id="path18" />
      <circle
         cx="68.00549"
         cy="355.83101"
         r="1.18571"
         fill="#1f1f1f"
         id="circle20" />
    </g>
    <line
       x1="83.50382"
       y1="250.85185"
       x2="83.50382"
       y2="260.07654"
       fill="none"
       stroke="#1f1f1f"
       stroke-linecap="round"
       stroke-linejoin="round"
       stroke-width="0.8"
       id="line24" />
    <line
       x1="115.50934"
       y1="289.73853"
       x2="115.50934"
       y2="309.87506"
       fill="none"
       stroke="#1f1f1f"
       stroke-linecap="round"
       stroke-linejoin="round"
       stroke-width="0.8"
       id="line26" />
    <line
       x1="39.70021"
       y1="238"
       x2="33.91255"
       y2="238"
       fill="none"
       stroke="#1f1f1f"
       stroke-linecap="round"
       stroke-linejoin="round"
       stroke-width="0.8"
       id="line28" />
    <line
       x1="15.00384"
       y1="202"
       x2="120.00384"
       y2="202"
       fill="none"
       stroke="#1f1f1f"
       stroke-linecap="round"
       stroke-linejoin="round"
       stroke-width="0.8"
       id="line30" />
    <g
       id="g40">
      <circle
         cx="67.50634"
         cy="166.5"
         r="26.48818"
         fill="none"
         opacity="0.69"
         style="isolation: isolate"
         id="circle32" />
      <path
         d="M78.30457,184.60266a20.94666,20.94666,0,1,0-21.451.07488"
         fill="none"
         stroke="#1f1f1f"
         stroke-linecap="round"
         stroke-miterlimit="10"
         stroke-width="0.8"
         id="path34" />
      <line
         x1="78.30457"
         y1="184.60266"
         x2="67.50634"
         y2="166.5"
         fill="none"
         id="line36" />
      <line
         x1="67.51624"
         y1="145.70121"
         x2="67.51624"
         y2="159.12279"
         fill="none"
         stroke="#1f1f1f"
         stroke-linecap="round"
         stroke-miterlimit="10"
         stroke-width="0.8"
         id="line38" />
    </g>
    <g
       id="g48">
      <circle
         cx="67.63314"
         cy="88.017"
         r="38.44564"
         fill="none"
         opacity="0.69"
         style="isolation: isolate"
         id="circle42" />
      <path
         d="M83.306,114.29167a30.40253,30.40253,0,1,0-31.13461.10869"
         fill="none"
         stroke="#1f1f1f"
         stroke-linecap="round"
         stroke-miterlimit="10"
         stroke-width="0.8"
         id="path44" />
      <line
         x1="83.30597"
         y1="114.29167"
         x2="67.63314"
         y2="88.017"
         fill="none"
         id="line46" />
    </g>
    <g
       id="g56">
      <line
         x1="19.50939"
         y1="250.87459"
         x2="19.50939"
         y2="260.07654"
         fill="none"
         stroke="#1f1f1f"
         stroke-linecap="round"
         stroke-linejoin="round"
         stroke-width="0.8"
         id="line50" />
      <line
         x1="19.50939"
         y1="226.54018"
         x2="19.50939"
         y2="238.01957"
         fill="none"
         stroke="#1f1f1f"
         stroke-linecap="round"
         stroke-linejoin="round"
         id="line52" />
      <path
         d="M11.35593,246.15346a11.53074,11.53074,0,1,1,16.30692,0"
         fill="none"
         stroke="#1f1f1f"
         stroke-linecap="round"
         stroke-linejoin="round"
         id="path54" />
    </g>
    <path
       d="M27.66285,246.15346,19.50939,238"
       fill="none"
       id="path58" />
    <path
       d="M19.50939,238l-8.15346,8.15346"
       fill="none"
       id="path60" />
    <g
       id="g68">
      <line
         x1="115.50638"
         y1="250.87459"
         x2="115.50638"
         y2="260.07654"
         fill="none"
         stroke="#1f1f1f"
         stroke-linecap="round"
         stroke-linejoin="round"
         stroke-width="0.8"
         id="line62" />
      <line
         x1="115.50638"
         y1="226.54018"
         x2="115.50638"
         y2="238.01957"
         fill="none"
         stroke="#1f1f1f"
         stroke-linecap="round"
         stroke-linejoin="round"
         id="line64" />
      <path
         d="M107.35292,246.15346a11.53074,11.53074,0,1,1,16.30693,0"
         fill="none"
         stroke="#1f1f1f"
         stroke-linecap="round"
         stroke-linejoin="round"
         id="path66" />
    </g>
  </g>
  <g
     id="ea3a177d-3d4f-428c-a0c9-a5628575e869"
     data-name="FND TXT">
    <g
       id="g79">
      <path
         d="M74.19824,221.52686a.39116.39116,0,0,1-.16211-.31836.40312.40312,0,0,1,.63672-.31153,2.05554,2.05554,0,0,0,1.32813.4878c.51464,0,.83984-.24415.83984-.5962v-.01367c0-.33838-.18945-.52148-1.07031-.7251-1.00977-.24365-1.5791-.542-1.5791-1.416v-.01318a1.45075,1.45075,0,0,1,1.61914-1.37549,2.612,2.612,0,0,1,1.50439.44043.37568.37568,0,0,1,.18311.332.38765.38765,0,0,1-.39307.38623.40383.40383,0,0,1-.2168-.061,1.97149,1.97149,0,0,0-1.09082-.35937c-.48779,0-.772.251-.772.5625v.01367c0,.36572.2168.52832,1.13086.74512,1.00293.24414,1.51758.603,1.51758,1.38867v.01367c0,.8877-.69727,1.416-1.69336,1.416A2.95282,2.95282,0,0,1,74.19824,221.52686Z"
         fill="#1f1f1f"
         id="path71" />
      <path
         d="M78.59375,219.69775v-.01367a2.48,2.48,0,0,1,4.95947-.01318v.01318a2.48,2.48,0,0,1-4.95947.01367Zm4.08594,0v-.01367a1.62513,1.62513,0,0,0-1.6128-1.687,1.60252,1.60252,0,0,0-1.59912,1.67383v.01318a1.61919,1.61919,0,0,0,1.61231,1.68018A1.59671,1.59671,0,0,0,82.67969,219.69775Z"
         fill="#1f1f1f"
         id="path73" />
      <path
         d="M84.77051,217.73291a.4135.4135,0,0,1,.41992-.41992h2.76416a.3794.3794,0,0,1,0,.75879H85.60352v1.29394h2.04589a.3794.3794,0,1,1,0,.75879H85.60352v1.55127a.41652.41652,0,0,1-.833,0Z"
         fill="#1f1f1f"
         id="path75" />
      <path
         d="M90.68848,218.08545H89.53662a.38623.38623,0,0,1,0-.77246H92.687a.38629.38629,0,0,1,0,.77246H91.52832v3.59033a.42.42,0,0,1-.83984,0Z"
         fill="#1f1f1f"
         id="path77" />
    </g>
    <g
       id="g87">
      <path
         d="M44.7085,218.73584a.41651.41651,0,0,1,.833,0v3.604h2.148a.3794.3794,0,1,1,0,.75879h-2.561a.4135.4135,0,0,1-.41992-.41992Z"
         fill="#1f1f1f"
         id="path81" />
      <path
         d="M49.06152,218.77637a.41362.41362,0,0,1,.41993-.42041h2.76416a.3794.3794,0,0,1,0,.75879H49.89453v1.29443h2.04639a.3794.3794,0,0,1,0,.75879H49.89453v1.55127a.41652.41652,0,0,1-.833,0Z"
         fill="#1f1f1f"
         id="path83" />
      <path
         d="M53.644,218.749a.41772.41772,0,0,1,.41992-.41992h.0879a.43807.43807,0,0,1,.38623.22363l1.43652,2.249,1.44287-2.25586a.41976.41976,0,0,1,.3794-.2168h.08789a.41814.41814,0,0,1,.42041.41992v3.97022a.41212.41212,0,0,1-.42041.41308.41932.41932,0,0,1-.41309-.41308v-2.8457l-1.1582,1.74121a.3895.3895,0,0,1-.69825,0l-1.15136-1.72754v2.83886a.40484.40484,0,0,1-.41358.40625.399.399,0,0,1-.40625-.40625Z"
         fill="#1f1f1f"
         id="path85" />
    </g>
    <g
       id="g97">
      <path
         d="M55.99561,45.78955a.50991.50991,0,0,1,.51757-.51758H59.919a.46753.46753,0,0,1,0,.93506H57.02246v1.59424H59.543a.46729.46729,0,1,1,0,.93457H57.02246v1.91162a.51345.51345,0,0,1-1.02685,0Z"
         fill="#1f1f1f"
         id="path89" />
      <path
         d="M61.56982,45.78955a.50992.50992,0,0,1,.51758-.51758h2.08692a2.35521,2.35521,0,0,1,1.686.58448,1.76678,1.76678,0,0,1,.48389,1.26025v.0166a1.72912,1.72912,0,0,1-1.32715,1.74463l1.11865,1.41064a.59458.59458,0,0,1,.167.39209.4842.4842,0,0,1-.49267.47559.587.587,0,0,1-.501-.26709l-1.41846-1.811H62.59668v1.56934a.51345.51345,0,0,1-1.02686,0Zm2.5293,2.37891c.73438,0,1.20166-.38379,1.20166-.97657v-.0166c0-.626-.45068-.96826-1.21-.96826H62.59668v1.96143Z"
         fill="#1f1f1f"
         id="path91" />
      <path
         d="M67.8252,50.59717V45.78955a.50991.50991,0,0,1,.51757-.51758h3.397a.46374.46374,0,0,1,.45947.45948.45823.45823,0,0,1-.45947.459h-2.8877v1.519h2.51221a.46467.46467,0,0,1,.459.46729.45578.45578,0,0,1-.459.45068H68.85205v1.56934h2.92969a.46287.46287,0,0,1,.459.459.45751.45751,0,0,1-.459.459h-3.439A.50991.50991,0,0,1,67.8252,50.59717Z"
         fill="#1f1f1f"
         id="path93" />
      <path
         d="M73.18506,48.21v-.0166a3.055,3.055,0,0,1,6.10937-.0166v.0166a3.02264,3.02264,0,0,1-.59228,1.79443l.37549.30909a.50252.50252,0,0,1,.19189.40039.49.49,0,0,1-.84326.34228l-.417-.37549a3.03841,3.03841,0,0,1-1.77783.55078A2.96566,2.96566,0,0,1,73.18506,48.21Zm3.15478.76807a.49167.49167,0,0,1,.48389-.49268.49879.49879,0,0,1,.35889.15039l.75146.68457A2.19577,2.19577,0,0,0,78.21777,48.21v-.0166a2.0015,2.0015,0,0,0-1.98632-2.07813,1.9739,1.9739,0,0,0-1.96973,2.06153v.0166a1.999,1.999,0,0,0,2.99609,1.80273l-.72607-.61718A.50424.50424,0,0,1,76.33984,48.978Z"
         fill="#1f1f1f"
         id="path95" />
    </g>
    <g
       id="g119">
      <path
         d="M37.40771,133.29443a.50991.50991,0,0,1,.51758-.51757h1.78614A1.96114,1.96114,0,0,1,41.93164,134.73v.01709c0,1.31006-1.05176,1.99463-2.33691,1.99463H38.43457v1.41064a.51345.51345,0,0,1-1.02686,0Zm2.22022,2.521c.77637,0,1.26074-.43408,1.26074-1.04346v-.0166c0-.68457-.49267-1.04346-1.26074-1.04346H38.43457v2.10352Z"
         fill="#1f1f1f"
         id="path99" />
      <path
         d="M43.0498,136.14062v-2.896a.51345.51345,0,0,1,1.02686,0v2.85449c0,1.085.55908,1.66065,1.47754,1.66065.90967,0,1.46875-.54248,1.46875-1.61915v-2.896a.51344.51344,0,0,1,1.02685,0v2.84619a2.33338,2.33338,0,0,1-2.51269,2.62061A2.30333,2.30333,0,0,1,43.0498,136.14062Z"
         fill="#1f1f1f"
         id="path101" />
      <path
         d="M49.71094,133.24463a.51344.51344,0,0,1,1.02685,0v4.43994h2.646a.46753.46753,0,0,1,0,.93506H50.22852a.50991.50991,0,0,1-.51758-.51758Z"
         fill="#1f1f1f"
         id="path103" />
      <path
         d="M54.97852,137.96875a.47879.47879,0,0,1,.28369-.86816.47285.47285,0,0,1,.30029.09179,2.53594,2.53594,0,0,0,1.63623.60108c.63428,0,1.03467-.30078,1.03467-.73487v-.0166c0-.417-.2334-.64258-1.31836-.89306-1.24365-.3003-1.94483-.66748-1.94483-1.74414v-.01709a1.78689,1.78689,0,0,1,1.99463-1.69434,3.21527,3.21527,0,0,1,1.853.543.46278.46278,0,0,1,.2251.40869.47707.47707,0,0,1-.48389.47559.49883.49883,0,0,1-.26709-.07471,2.42719,2.42719,0,0,0-1.34375-.44238c-.60107,0-.95166.30859-.95166.69238v.01709c0,.45068.26709.65088,1.394.918,1.23536.30029,1.86963.74267,1.86963,1.71093v.01661c0,1.09375-.85986,1.74462-2.08691,1.74462A3.6383,3.6383,0,0,1,54.97852,137.96875Z"
         fill="#1f1f1f"
         id="path105" />
      <path
         d="M60.68359,138.10205v-4.80762a.50991.50991,0,0,1,.51758-.51757h3.397a.46373.46373,0,0,1,.45948.45947.45824.45824,0,0,1-.45948.459H61.71045v1.519h2.51221a.46467.46467,0,0,1,.459.46728.45578.45578,0,0,1-.459.45068H61.71045v1.56934h2.92969a.46289.46289,0,0,1,.459.459.45751.45751,0,0,1-.459.459h-3.439A.50992.50992,0,0,1,60.68359,138.10205Z"
         fill="#1f1f1f"
         id="path107" />
      <path
         d="M68.42432,133.43652a.54119.54119,0,0,1-.04151-.20019.51328.51328,0,0,1,.52588-.501.52378.52378,0,0,1,.50928.37549l1.34375,4.01465,1.31836-3.99805a.54181.54181,0,0,1,.51758-.40869h.07519a.53461.53461,0,0,1,.51758.40869l1.31885,3.99805,1.34375-4.023a.52378.52378,0,0,1,.50049-.36719.50207.50207,0,0,1,.50927.49219.59327.59327,0,0,1-.0498.209l-1.728,4.84082a.57208.57208,0,0,1-.53418.42578h-.1001a.55309.55309,0,0,1-.52588-.42578l-1.30175-3.81445-1.30225,3.81445a.56223.56223,0,0,1-.53418.42578h-.1001a.56959.56959,0,0,1-.53418-.42578Z"
         fill="#1f1f1f"
         id="path109" />
      <path
         d="M78.09619,133.24463a.51345.51345,0,0,1,1.02686,0v4.90771a.51345.51345,0,0,1-1.02686,0Z"
         fill="#1f1f1f"
         id="path111" />
      <path
         d="M80.874,133.29443a.50991.50991,0,0,1,.51758-.51757h1.66113a2.91237,2.91237,0,0,1,3.105,2.90478v.0166a2.92487,2.92487,0,0,1-3.105,2.92139H81.3916a.50992.50992,0,0,1-.51758-.51758Zm2.17871,4.39014a1.90419,1.90419,0,0,0,2.02832-1.96973v-.0166a1.91708,1.91708,0,0,0-2.02832-1.98633H81.90088v3.97266Z"
         fill="#1f1f1f"
         id="path113" />
      <path
         d="M88.67041,133.72852h-1.419a.47583.47583,0,1,1,0-.95166h3.88086a.47591.47591,0,0,1,0,.95166H89.70508v4.42382a.51741.51741,0,0,1-1.03467,0Z"
         fill="#1f1f1f"
         id="path115" />
      <path
         d="M92.76172,133.24463a.51344.51344,0,0,1,1.02685,0v1.96142h2.7876v-1.96142a.51345.51345,0,0,1,1.02686,0v4.90771a.51345.51345,0,0,1-1.02686,0v-1.99511h-2.7876v1.99511a.51345.51345,0,0,1-1.02685,0Z"
         fill="#1f1f1f"
         id="path117" />
    </g>
    <g
       id="g127">
      <path
         d="M56.65527,27.66113l-2.84033-6.79394a1.20368,1.20368,0,0,1-.11279-.46338.94585.94585,0,0,1,.96387-.95069,1.00144,1.00144,0,0,1,.97558.67579l2.18994,5.668,2.21436-5.73047a.99829.99829,0,0,1,.92578-.61329.92945.92945,0,0,1,.95117.92579,1.11393,1.11393,0,0,1-.1001.42529l-2.86523,6.85693a1.13042,1.13042,0,0,1-1.08838.76319h-.12549A1.13042,1.13042,0,0,1,56.65527,27.66113Z"
         fill="#1f1f1f"
         id="path121" />
      <path
         d="M62.68555,23.93262v-.02539a4.45157,4.45157,0,0,1,4.56689-4.5293,4.63858,4.63858,0,0,1,2.92822.88867.962.962,0,0,1,.375.7627.93959.93959,0,0,1-.95068.93847,1.00988,1.00988,0,0,1-.57568-.1875,2.88136,2.88136,0,0,0-1.78907-.62548,2.59488,2.59488,0,0,0-2.54,2.72753v.02491a2.60166,2.60166,0,0,0,2.54,2.75293,2.8121,2.8121,0,0,0,1.90186-.68848A.89249.89249,0,1,1,70.293,27.33594a4.61549,4.61549,0,0,1-7.60742-3.40332Z"
         fill="#1f1f1f"
         id="path123" />
      <path
         d="M71.76562,23.93262v-.02539a4.65666,4.65666,0,0,1,9.30909-.02491v.02491a4.65667,4.65667,0,0,1-9.30909.02539Zm7.29493,0v-.02539a2.66111,2.66111,0,0,0-2.65284-2.75244,2.61934,2.61934,0,0,0-2.62744,2.72753v.02491a2.66113,2.66113,0,0,0,2.65235,2.75293A2.61973,2.61973,0,0,0,79.06055,23.93262Z"
         fill="#1f1f1f"
         id="path125" />
    </g>
    <g
       id="g133">
      <path
         d="M14.88525,266.64209a.41381.41381,0,0,1,.41993-.41992h2.76416a.3794.3794,0,0,1,0,.75879H15.71875v1.29394h2.0459a.3794.3794,0,0,1,0,.75879h-2.0459V270.585a.41676.41676,0,0,1-.8335,0Z"
         fill="#1f1f1f"
         id="path129" />
      <path
         d="M19.46777,266.61523a.41742.41742,0,0,1,.41993-.41992h.08789a.43806.43806,0,0,1,.38623.22364l1.43652,2.249,1.44287-2.25586a.4183.4183,0,0,1,.3794-.2168H23.709a.41773.41773,0,0,1,.41993.41992V270.585a.41242.41242,0,0,1-.41993.41358.41985.41985,0,0,1-.41357-.41358v-2.84521L22.13672,269.481a.38872.38872,0,0,1-.69727,0l-1.15234-1.72754v2.83838a.40483.40483,0,0,1-.41309.40674.39909.39909,0,0,1-.40625-.40674Z"
         fill="#1f1f1f"
         id="path131" />
    </g>
    <g
       id="g145">
      <path
         d="M41.6875,270.69336,40.02734,266.791a.45988.45988,0,0,1-.04736-.19629.41063.41063,0,0,1,.41992-.40625.43735.43735,0,0,1,.42725.29785l1.36816,3.42138L43.584,266.459a.42966.42966,0,0,1,.39991-.2705.40375.40375,0,0,1,.41357.39941.477.477,0,0,1-.041.17627l-1.66651,3.9292a.49651.49651,0,0,1-.481.33887h-.04785A.49358.49358,0,0,1,41.6875,270.69336Z"
         fill="#1f1f1f"
         id="path135" />
      <path
         d="M44.37988,271.3916l2.77149-5.67773a.32256.32256,0,0,1,.61621.12207.53851.53851,0,0,1-.03369.1626l-2.77784,5.67724a.30819.30819,0,0,1-.291.18994.32223.32223,0,0,1-.3252-.312A.38641.38641,0,0,1,44.37988,271.3916Z"
         fill="#1f1f1f"
         id="path137" />
      <path
         d="M48.14014,268.60693v-.01367a2.48,2.48,0,0,1,4.95947-.01318v.01318a2.48,2.48,0,0,1-4.95947.01367Zm4.08545,0v-.01367a1.625,1.625,0,0,0-1.61231-1.687,1.60252,1.60252,0,0,0-1.59912,1.67383v.01318a1.619,1.619,0,0,0,1.61279,1.68018A1.59651,1.59651,0,0,0,52.22559,268.60693Z"
         fill="#1f1f1f"
         id="path139" />
      <path
         d="M54.0791,268.60693v-.01367a2.39977,2.39977,0,0,1,2.44531-2.45264,2.48646,2.48646,0,0,1,1.626.53516.41709.41709,0,0,1,.16309.332.4166.4166,0,0,1-.66407.3252,1.72349,1.72349,0,0,0-1.13183-.42676,1.59617,1.59617,0,0,0-1.56446,1.67383v.01318a1.59778,1.59778,0,0,0,1.56446,1.68018,1.69714,1.69714,0,0,0,1.18554-.4541.38366.38366,0,0,1,.251-.09473.39659.39659,0,0,1,.39307.38623.40167.40167,0,0,1-.13526.29834,2.42559,2.42559,0,0,1-1.72119.63672A2.38475,2.38475,0,0,1,54.0791,268.60693Z"
         fill="#1f1f1f"
         id="path141" />
      <path
         d="M60.69824,266.99463H59.54639a.38623.38623,0,0,1,0-.77246h3.15039a.38629.38629,0,0,1,0,.77246H61.53809V270.585a.42.42,0,0,1-.83985,0Z"
         fill="#1f1f1f"
         id="path143" />
    </g>
    <g
       id="g155">
      <path
         d="M74.0166,270.436a.39116.39116,0,0,1-.16211-.31836.40312.40312,0,0,1,.63672-.31153,2.05554,2.05554,0,0,0,1.32813.4878c.51464,0,.83984-.24415.83984-.5962v-.01367c0-.33838-.18945-.52148-1.07031-.7251-1.00977-.24365-1.5791-.542-1.5791-1.416v-.01318a1.45075,1.45075,0,0,1,1.61914-1.37549,2.612,2.612,0,0,1,1.50439.44043.37568.37568,0,0,1,.18311.332.38766.38766,0,0,1-.39307.38623.40383.40383,0,0,1-.2168-.061,1.97149,1.97149,0,0,0-1.09082-.35937c-.48779,0-.772.251-.772.5625v.01367c0,.36572.2168.52832,1.13086.74512,1.00293.24414,1.51758.603,1.51758,1.38867v.01367c0,.8877-.69727,1.416-1.69336,1.416A2.95282,2.95282,0,0,1,74.0166,270.436Z"
         fill="#1f1f1f"
         id="path147" />
      <path
         d="M79.98828,269.12207l-1.63281-2.24268a.52009.52009,0,0,1-.09473-.2915.40478.40478,0,0,1,.41992-.39941.4795.4795,0,0,1,.40625.25048l1.32129,1.90381,1.3418-1.91064a.47819.47819,0,0,1,.39941-.25049.39458.39458,0,0,1,.40625.40625.5059.5059,0,0,1-.11474.29834l-1.61963,2.21533v1.4834a.41652.41652,0,0,1-.833,0Z"
         fill="#1f1f1f"
         id="path149" />
      <path
         d="M83.53809,266.61523a.41814.41814,0,0,1,.42041-.41992h.08838a.52524.52524,0,0,1,.43359.24365l2.37109,3.06885v-2.91308a.40968.40968,0,0,1,.81934,0v3.98339a.40484.40484,0,0,1-.40625.41358h-.03418a.52486.52486,0,0,1-.43359-.25049L84.3584,267.584v3.00782a.41017.41017,0,0,1-.82031,0Z"
         fill="#1f1f1f"
         id="path151" />
      <path
         d="M88.88574,268.60693v-.01367a2.39977,2.39977,0,0,1,2.44531-2.45264,2.48644,2.48644,0,0,1,1.626.53516.41709.41709,0,0,1,.16309.332.4166.4166,0,0,1-.66407.3252,1.72349,1.72349,0,0,0-1.13183-.42676,1.59616,1.59616,0,0,0-1.56445,1.67383v.01318a1.59777,1.59777,0,0,0,1.56445,1.68018,1.69718,1.69718,0,0,0,1.18555-.4541.38361.38361,0,0,1,.251-.09473.39659.39659,0,0,1,.39307.38623.40167.40167,0,0,1-.13526.29834,2.42559,2.42559,0,0,1-1.72119.63672A2.38475,2.38475,0,0,1,88.88574,268.60693Z"
         fill="#1f1f1f"
         id="path153" />
    </g>
    <g
       id="g163">
      <path
         d="M107.02441,266.64209a.41351.41351,0,0,1,.41993-.41992h1.4497a1.59207,1.59207,0,0,1,1.80225,1.58545v.01367c0,1.06348-.85352,1.61914-1.897,1.61914h-.9419V270.585a.41652.41652,0,0,1-.833,0Zm1.80176,2.04639c.63037,0,1.02344-.35254,1.02344-.84717v-.01319c0-.55566-.3999-.84716-1.02344-.84716h-.96875v1.70752Z"
         fill="#1f1f1f"
         id="path157" />
      <path
         d="M111.44385,266.75732a.44168.44168,0,0,1-.03369-.16259.41622.41622,0,0,1,.42675-.40625.42444.42444,0,0,1,.41309.30468l1.09082,3.25879,1.07031-3.24511a.43991.43991,0,0,1,.41992-.332h.06153a.434.434,0,0,1,.41992.332l1.07031,3.24511,1.09082-3.26562a.42456.42456,0,0,1,.40625-.29785.40775.40775,0,0,1,.41358.39941.48423.48423,0,0,1-.04053.16943l-1.40234,3.9292a.46435.46435,0,0,1-.4336.34571h-.08154a.44885.44885,0,0,1-.42676-.34571l-1.05713-3.0957-1.05664,3.0957a.45681.45681,0,0,1-.43359.34571h-.08154a.46288.46288,0,0,1-.4336-.34571Z"
         fill="#1f1f1f"
         id="path159" />
      <path
         d="M119.32861,266.61523a.41773.41773,0,0,1,.41993-.41992h.08837a.43786.43786,0,0,1,.38575.22364l1.43652,2.249,1.44287-2.25586a.41883.41883,0,0,1,.3794-.2168h.08789a.41784.41784,0,0,1,.42041.41992V270.585a.41254.41254,0,0,1-.42041.41358.41943.41943,0,0,1-.41309-.41358v-2.84521l-1.1582,1.74121a.3895.3895,0,0,1-.69825,0l-1.15136-1.72754v2.83838a.40524.40524,0,0,1-.41358.40674.39939.39939,0,0,1-.40625-.40674Z"
         fill="#1f1f1f"
         id="path161" />
    </g>
    <g
       id="g171">
      <path
         d="M47.208,315.12891H46.20557a.481.481,0,1,1,0-.96192h3.04834a.481.481,0,0,1,0,.96192H48.25146v3.2998a.52173.52173,0,0,1-1.04345,0Z"
         fill="#f0f0f0"
         id="path165" />
      <path
         d="M50.644,314.68848a.51738.51738,0,0,1,.52149-.52149H52.812a1.89027,1.89027,0,0,1,1.38184.481,1.48923,1.48923,0,0,1,.40625,1.084v.01368a1.44769,1.44769,0,0,1-.94824,1.44287l.72509.88086a.60914.60914,0,0,1,.16944.39941.48575.48575,0,0,1-.49463.48145.6249.6249,0,0,1-.51514-.271l-1.01611-1.2876H51.687v1.03711a.52149.52149,0,1,1-1.043,0Zm2.1001,1.78222c.50781,0,.79932-.27148.79932-.6709v-.01367c0-.44726-.31153-.67773-.81983-.67773H51.687v1.3623Z"
         fill="#f0f0f0"
         id="path167" />
      <path
         d="M55.82324,314.648a.52149.52149,0,1,1,1.043,0v3.78076a.52149.52149,0,1,1-1.043,0Z"
         fill="#f0f0f0"
         id="path169" />
    </g>
    <g
       id="g179">
      <path
         d="M13.78174,318.4082a.48745.48745,0,0,1-.19629-.39306.48.48,0,0,1,.48779-.481.501.501,0,0,1,.29785.09473,2.0021,2.0021,0,0,0,1.21289.42675c.42676,0,.68409-.16894.68409-.44726v-.01319c0-.26416-.1626-.3999-.95508-.603-.95508-.24414-1.57178-.5083-1.57178-1.4502v-.01318a1.48345,1.48345,0,0,1,1.65967-1.42969,2.75073,2.75073,0,0,1,1.50439.42041.48277.48277,0,0,1-.25781.894.49736.49736,0,0,1-.26416-.0747,1.97239,1.97239,0,0,0-.9956-.31836c-.39991,0-.60987.1831-.60987.41308v.01368c0,.31152.20313.41357,1.02295.62353.96192.25049,1.50391.59619,1.50391,1.42236v.01368c0,.94189-.71826,1.47021-1.74121,1.47021A3.061,3.061,0,0,1,13.78174,318.4082Z"
         fill="#f0f0f0"
         id="path173" />
      <path
         d="M18.47461,314.648a.52149.52149,0,1,1,1.043,0v3.78076a.52149.52149,0,1,1-1.043,0Z"
         fill="#f0f0f0"
         id="path175" />
      <path
         d="M20.92334,314.66162a.5179.5179,0,0,1,.522-.522h.1084a.64608.64608,0,0,1,.542.30517l2.01221,2.64209v-2.4458a.5149.5149,0,0,1,1.02979,0V318.415a.51779.51779,0,0,1-.522.52148H24.582a.64676.64676,0,0,1-.542-.30468l-2.08643-2.73731v2.54053a.51514.51514,0,1,1-1.03027,0Z"
         fill="#f0f0f0"
         id="path177" />
    </g>
    <g
       id="g187">
      <path
         d="M75.47217,318.4082a.48745.48745,0,0,1-.19629-.39306.48.48,0,0,1,.48779-.481.501.501,0,0,1,.29785.09473,2.00208,2.00208,0,0,0,1.21289.42675c.42676,0,.68409-.16894.68409-.44726v-.01319c0-.26416-.1626-.3999-.95508-.603-.95508-.24414-1.57178-.5083-1.57178-1.4502v-.01318a1.48345,1.48345,0,0,1,1.65967-1.42969,2.75073,2.75073,0,0,1,1.50439.42041.48277.48277,0,0,1-.25781.894.49736.49736,0,0,1-.26416-.0747,1.9724,1.9724,0,0,0-.99561-.31836c-.3999,0-.60986.1831-.60986.41308v.01368c0,.31152.20313.41357,1.02295.62353.96191.25049,1.50391.59619,1.50391,1.42236v.01368c0,.94189-.71826,1.47021-1.74121,1.47021A3.061,3.061,0,0,1,75.47217,318.4082Z"
         fill="#f0f0f0"
         id="path181" />
      <path
         d="M79.7876,318.23877l1.65332-3.73291a.64412.64412,0,0,1,.60986-.41309h.061a.635.635,0,0,1,.60254.41309l1.65332,3.73291a.51151.51151,0,0,1,.0542.21.49458.49458,0,0,1-.49463.50147.53177.53177,0,0,1-.50147-.35938l-.31836-.74512H81.021l-.332.7793a.51277.51277,0,0,1-.48095.3252.48.48,0,0,1-.481-.4878A.55591.55591,0,0,1,79.7876,318.23877Zm2.93359-1.31445-.65723-1.56494-.65722,1.56494Z"
         fill="#f0f0f0"
         id="path183" />
      <path
         d="M84.84668,314.83105a.67345.67345,0,0,1-.04053-.19628.51786.51786,0,0,1,.53516-.50831.526.526,0,0,1,.50781.37256l.9419,2.90625.94873-2.8789a.549.549,0,0,1,.52832-.41358h.08105a.542.542,0,0,1,.52881.41358l.94824,2.8789.9419-2.90625a.52145.52145,0,0,1,.501-.37256.50344.50344,0,0,1,.51514.50147.73536.73536,0,0,1-.04053.20312l-1.32812,3.72608a.57767.57767,0,0,1-.542.42676h-.1084a.5623.5623,0,0,1-.53516-.42676l-.93506-2.7168-.93457,2.7168a.56283.56283,0,0,1-.53564.42676h-.1084a.57855.57855,0,0,1-.542-.42676Z"
         fill="#f0f0f0"
         id="path185" />
    </g>
    <g
       id="g195">
      <path
         d="M108.26807,318.4082a.48745.48745,0,0,1-.19629-.39306.48.48,0,0,1,.48779-.481.501.501,0,0,1,.29785.09473,2.00208,2.00208,0,0,0,1.21289.42675c.42676,0,.68408-.16894.68408-.44726v-.01319c0-.26416-.16259-.3999-.95507-.603-.95508-.24414-1.57178-.5083-1.57178-1.4502v-.01318a1.48345,1.48345,0,0,1,1.65967-1.42969,2.75073,2.75073,0,0,1,1.50439.42041.48277.48277,0,0,1-.25781.894.49736.49736,0,0,1-.26416-.0747,1.97243,1.97243,0,0,0-.99561-.31836c-.3999,0-.60986.1831-.60986.41308v.01368c0,.31152.20313.41357,1.02295.62353.96191.25049,1.50391.59619,1.50391,1.42236v.01368c0,.94189-.71827,1.47021-1.74122,1.47021A3.061,3.061,0,0,1,108.26807,318.4082Z"
         fill="#f0f0f0"
         id="path189" />
      <path
         d="M112.64746,316.55176v-.01367a2.52142,2.52142,0,0,1,5.04053-.01368v.01368a2.43341,2.43341,0,0,1-.41992,1.36181l.20312.16944a.51211.51211,0,0,1,.18994.39306.48857.48857,0,0,1-.83349.35205l-.25733-.23047a2.58238,2.58238,0,0,1-1.40918.40674A2.43,2.43,0,0,1,112.64746,316.55176Zm2.46631.53515a.49161.49161,0,0,1,.48779-.49462.48139.48139,0,0,1,.34522.14209l.522.46777a1.6647,1.6647,0,0,0,.12842-.65039v-.01367a1.44027,1.44027,0,0,0-1.436-1.49024,1.41823,1.41823,0,0,0-1.42285,1.47656v.01368a1.44107,1.44107,0,0,0,1.43652,1.49072,1.42,1.42,0,0,0,.623-.12891l-.49463-.41992A.51249.51249,0,0,1,115.11377,317.08691Z"
         fill="#f0f0f0"
         id="path191" />
      <path
         d="M118.89209,314.68848a.51738.51738,0,0,1,.52148-.52149h1.64649a1.89023,1.89023,0,0,1,1.38183.481,1.48923,1.48923,0,0,1,.40625,1.084v.01368a1.44768,1.44768,0,0,1-.94824,1.44287l.7251.88086a.60918.60918,0,0,1,.16943.39941.48575.48575,0,0,1-.49463.48145.62489.62489,0,0,1-.51513-.271l-1.01612-1.2876h-.83349v1.03711a.52149.52149,0,1,1-1.043,0Zm2.1001,1.78222c.50781,0,.79931-.27148.79931-.6709v-.01367c0-.44726-.31152-.67773-.81982-.67773h-1.03662v1.3623Z"
         fill="#f0f0f0"
         id="path193" />
    </g>
  </g>
  <g
     id="fa53a534-7e67-46f9-bb82-6d4962d493ba"
     data-name="components"
     inkscape:groupmode="layer"
     style="display:none">
    <circle
       id="eeb44770-dee8-418f-8dcd-f36b7f0f00a1"
       data-name="Freq#SmallLight"
       cx="91.796944"
       cy="48.5079"
       r="3"
       style="fill:#ff00ff" />
    <circle
       id="a5cfce7f-fe51-496b-b857-e58d5c4c6bd4"
       data-name="pw#RoundLargeBlackKnob"
       cx="67.506348"
       cy="166.5"
       r="5"
       style="fill:#ff0000" />
    <circle
       id="a2b7d26d-cf28-4002-b799-20b6cfdb0d84"
       data-name="Soft#LEDButton"
       cx="83.509338"
       cy="238"
       r="5"
       style="fill:#ff0000" />
    <circle
       id="e0311624-14c1-4e8e-8557-36d615817f1d"
       data-name="Lfm#LEDButton"
       cx="51.509338"
       cy="238"
       r="5"
       style="fill:#ff0000" />
    <circle
       id="afe7ff05-809e-4034-9f5e-9a74f4549133"
       data-name="Sync#PJ301MPort"
       cx="83.509338"
       cy="286"
       r="5"
       style="fill:#00ff00" />
    <circle
       id="e48568ea-fa1f-4f55-a910-6cafbcf2dd7f"
       data-name="Tri#PJ301MPort"
       cx="51.509338"
       cy="334"
       r="5"
       style="fill:#0000ff" />
    <circle
       id="f2084f0d-f9d6-40d8-9777-c3b3c474d4b5"
       data-name="Sin#PJ301MPort"
       cx="19.50939"
       cy="334"
       r="5"
       style="fill:#0000ff" />
    <circle
       id="b2d2926b-63e5-4cee-bc32-10723632ffec"
       data-name="Saw#PJ301MPort"
       cx="83.509338"
       cy="334"
       r="5"
       style="fill:#0000ff" />
    <circle
       id="a315d13b-dc53-4eaf-bde6-30eac39fcbdf"
       data-name="Pitch#PJ301MPort"
       cx="51.509338"
       cy="286"
       r="5"
       style="fill:#00ff00" />
    <circle
       id="f627e372-8b9b-4434-b899-3cf6d25b052d"
       data-name="Pwm#PJ301MPort"
       cx="115.59991"
       cy="286"
       r="5"
       style="fill:#00ff00" />
    <circle
       id="b3a627e6-2c38-4022-9965-f762a4bf17a9"
       data-name="Sqr#PJ301MPort"
       cx="115.50934"
       cy="334"
       r="5"
       style="fill:#0000ff" />
    <circle
       id="e52b4bfc-b25e-4156-9f1f-2d30338e8107"
       data-name="PwmCv#Trimpot"
       cx="115.50638"
       cy="238"
       r="5"
       style="fill:#ff0000" />
    <circle
       id="ac17fe1a-f789-4784-aa3a-781fc99ae73a"
       data-name="Freq#RoundHugeBlackKnob"
       cx="67.633141"
       cy="88.016998"
       r="5"
       style="fill:#ff0000" />
    <circle
       id="fe499126-b4fb-4162-8957-38fadff3f33e"
       data-name="Fm#PJ301MPort"
       cx="19.50939"
       cy="286"
       r="5"
       style="fill:#00ff00" />
    <circle
       id="acc0b878-9356-4555-9f39-64d69ce4b4b8"
       data-name="FmCv#Trimpot"
       cx="19.50939"
       cy="238"
       r="5"
       style="fill:#ff0000" />
  </g>
</svg>
