<?xml version="1.0" encoding="utf-8"?>
<!-- Generator: Adobe Illustrator 25.2.3, SVG Export Plug-In . SVG Version: 6.00 Build 0)  -->
<svg version="1.0"
	 id="svg64581" xmlns:cc="http://creativecommons.org/ns#" xmlns:dc="http://purl.org/dc/elements/1.1/" xmlns:inkscape="http://www.inkscape.org/namespaces/inkscape" xmlns:rdf="http://www.w3.org/1999/02/22-rdf-syntax-ns#" xmlns:sodipodi="http://sodipodi.sourceforge.net/DTD/sodipodi-0.dtd" xmlns:svg="http://www.w3.org/2000/svg"
	 xmlns="http://www.w3.org/2000/svg" xmlns:xlink="http://www.w3.org/1999/xlink" x="0px" y="0px" width="36.02325px"
	 height="36.0188px" viewBox="0 0 36.02325 36.0188" enable-background="new 0 0 36.02325 36.0188" xml:space="preserve">
<sodipodi:namedview  bordercolor="#666666" borderopacity="1.0" fit-margin-bottom="0" fit-margin-left="0" fit-margin-right="0" fit-margin-top="0" id="base" inkscape:current-layer="layer1" inkscape:cx="-100.74496" inkscape:cy="9.8683694" inkscape:document-units="mm" inkscape:pageopacity="0.0" inkscape:pageshadow="2" inkscape:window-height="1422" inkscape:window-maximized="0" inkscape:window-width="2560" inkscape:window-x="0" inkscape:window-y="18" inkscape:zoom="1.979899" pagecolor="#ffffff" showgrid="false">
	</sodipodi:namedview>
<g>
	<g id="g5959-5_106_" transform="translate(301.93513,1189.951)">
		<path id="path5961-3_112_" inkscape:connector-curvature="0" d="M-265.91-1171.93701
			c0,9.94739-8.06683,18.01147-18.01407,18.01147c-9.94595,0-18.01144-8.06409-18.01144-18.01147
			c0-9.95129,8.06549-18.01404,18.01141-18.01404C-273.97684-1189.95105-265.91-1181.88831-265.91-1171.93701"/>
	</g>
	<g id="g5959-5_105_" transform="translate(301.93513,1189.951)">
		
			<linearGradient id="path5961-3_1_" gradientUnits="userSpaceOnUse" x1="-590.1001" y1="-2191.85449" x2="-557.04907" y2="-2191.85449" gradientTransform="matrix(-3.267949e-07 1 -1 -3.267949e-07 -2475.77734 -598.36444)">
			<stop  offset="0" style="stop-color:#787878"/>
			<stop  offset="1" style="stop-color:#474747"/>
		</linearGradient>
		<path id="path5961-3_111_" inkscape:connector-curvature="0" fill="url(#path5961-3_1_)" d="M-300.44827-1171.93945
			c0-9.1261,7.40079-16.52441,16.52676-16.52441c9.12473,0,16.52429,7.39832,16.52429,16.52441
			c0,9.12964-7.39957,16.52673-16.52432,16.52673C-293.04749-1155.41272-300.44827-1162.80981-300.44827-1171.93945"/>
	</g>
	<g opacity="0.21">
		<g id="g5959-5_104_" transform="translate(301.93513,1189.951)">
			
				<linearGradient id="path5961-3_2_" gradientUnits="userSpaceOnUse" x1="-299.58844" y1="-1111.948" x2="-268.70374" y2="-1111.948" gradientTransform="matrix(-6.535898e-07 -1 1 -6.535898e-07 828.02509 -1456.08508)">
				<stop  offset="0.00559" style="stop-color:#6B6B6B"/>
				<stop  offset="1" style="stop-color:#DEDEDE"/>
			</linearGradient>
			<path id="path5961-3_110_" inkscape:connector-curvature="0" fill="url(#path5961-3_2_)" d="M-283.92389-1156.49597
				c-8.52792,0-15.44122-6.91565-15.44122-15.44348c0-8.52661,6.9133-15.44116,15.44122-15.44116
				c8.53131,0,15.44348,6.91455,15.44348,15.44116C-268.48041-1163.41162-275.39255-1156.49597-283.92389-1156.49597"/>
		</g>
	</g>
	<g>
		<g id="g5959-5_103_" transform="translate(301.93513,1189.951)">
			
				<linearGradient id="path5961-3_3_" gradientUnits="userSpaceOnUse" x1="-298.98605" y1="-1111.948" x2="-269.30612" y2="-1111.948" gradientTransform="matrix(-6.535898e-07 -1 1 -6.535898e-07 828.02509 -1456.08508)">
				<stop  offset="0.00559" style="stop-color:#5B5B5B"/>
				<stop  offset="1" style="stop-color:#6C6C6C"/>
			</linearGradient>
			<path id="path5961-3_109_" inkscape:connector-curvature="0" fill="url(#path5961-3_3_)" d="M-283.92386-1157.09839
				c-8.19525,0-14.83887-6.64587-14.83887-14.84094c0-8.19409,6.64362-14.83899,14.83887-14.83899
				c8.19852,0,14.84106,6.6449,14.84106,14.83887C-269.08279-1163.74426-275.72531-1157.09839-283.92386-1157.09839"/>
		</g>
	</g>
</g>
</svg>
