<?xml version="1.0" encoding="UTF-8"?>
<svg xmlns="http://www.w3.org/2000/svg" width="45" height="380" xmlns:xlink="http://www.w3.org/1999/xlink" viewBox="0 0 45 380">
  <defs>
    <linearGradient id="uuid-8ee4b625-7b10-49b1-9a6a-14787627d647" x1="22.5" y1="0" x2="22.5" y2="380" gradientUnits="userSpaceOnUse">
      <stop offset="0" stop-color="#2a2a2b"/>
      <stop offset="1" stop-color="#171717"/>
    </linearGradient>
  </defs>
  <g id="uuid-4ef8c6fc-4924-4d10-a401-4dd44f1cf01c" data-name="FND BG">
    <rect width="45" height="380" fill="url(#uuid-8ee4b625-7b10-49b1-9a6a-14787627d647)"/>
  </g>
  <g id="uuid-148ca46f-b7c2-4932-9ac1-36ca648a6abf" data-name="FND GRAPH">
    <g>
      <circle cx="23.00165" cy="355.83101" r="1.18571" fill="#ededed"/>
      <path d="m14.35927,359.75298c-.34551,0-.66126-.1952-.8158-.50419l-2.96428-5.92856c-.22526-.45057-.04266-.99844.40794-1.2237.45008-.22535.99831-.04271,1.22366.4079l2.14848,4.29696,2.14848-4.29696c.22526-.45057.77314-.63325,1.22366-.4079.45061.22526.63321.77314.40794,1.2237l-2.96428,5.92856c-.15454.30899-.47029.50419-.8158.50419Z" fill="#ededed"/>
      <path d="m30.64073,359.75298c-.34551,0-.66126-.1952-.8158-.50419l-2.96428-5.92856c-.22526-.45057-.04266-.99844.40794-1.2237.45016-.22535.9984-.04271,1.22366.4079l2.14848,4.29696,2.14848-4.29696c.22526-.45057.77305-.63325,1.22366-.4079.45061.22526.63321.77314.40794,1.2237l-2.96428,5.92856c-.15454.30899-.47029.50419-.8158.50419Z" fill="#ededed"/>
      <path d="m22.94242,359.75298c-2.13744,0-3.87637-1.73893-3.87637-3.87637s1.73893-3.87637,3.87637-3.87637c.84653,0,1.65102.26819,2.32653.77554.40278.30253.48401.87428.18153,1.27705-.30248.40273-.87432.48401-1.2771.18148-.357-.26815-.78267-.4099-1.23096-.4099-1.13156,0-2.05219.92059-2.05219,2.05219s.92064,2.05219,2.05219,2.05219c.44829,0,.87396-.14176,1.23096-.4099.40269-.30271.97444-.22125,1.2771.18148.30248.40278.22125.97453-.18153,1.27705-.67551.50735-1.48.77554-2.32653.77554Z" fill="#ededed"/>
    </g>
  </g>
  <g id="uuid-3ad14eb5-82cc-4025-ad50-86d232f501a4" data-name="FND TXT">
    <g>
      <path d="m13.52246,314.58691c0-.2373.18262-.41992.41992-.41992h1.4502c1.11133,0,1.80176.62988,1.80176,1.58545v.01318c0,1.06396-.85352,1.61914-1.89648,1.61914h-.94238v1.14551c0,.22998-.18262.41309-.41309.41309-.2373,0-.41992-.18311-.41992-.41309v-3.94336Zm1.80176,2.0459c.63086,0,1.02344-.35205,1.02344-.84668v-.01367c0-.55566-.39941-.84668-1.02344-.84668h-.96875v1.70703h.96875Z" fill="#ebebeb"/>
      <path d="m18.06348,316.55176v-.01367c0-1.33447,1.03027-2.45215,2.48633-2.45215,1.45703,0,2.47266,1.104,2.47266,2.43848v.01367c0,1.33496-1.0293,2.45264-2.48633,2.45264-1.45605,0-2.47266-1.104-2.47266-2.43896Zm4.08496,0v-.01367c0-.92139-.66992-1.68652-1.6123-1.68652-.94141,0-1.59863.75195-1.59863,1.67285v.01367c0,.92139.6709,1.68018,1.6123,1.68018s1.59863-.74512,1.59863-1.6665Z" fill="#ebebeb"/>
      <path d="m24.24023,314.54639c0-.23047.18262-.41357.41992-.41357.23047,0,.41309.18311.41309.41357v3.604h2.14746c.20996,0,.37988.16992.37988.37988s-.16992.37891-.37988.37891h-2.56055c-.2373,0-.41992-.18262-.41992-.41992v-3.94287Z" fill="#ebebeb"/>
      <path d="m29.31152,317.06641l-1.63281-2.24219c-.05371-.08105-.09473-.17627-.09473-.2915,0-.22314.18359-.3999.41992-.3999.18359,0,.30566.10205.40723.25098l1.32031,1.90381,1.3418-1.91064c.10156-.14893.22363-.25049.39941-.25049.24414,0,.40723.18311.40723.40625,0,.11523-.05469.2168-.11523.29834l-1.61914,2.21533v1.48389c0,.22998-.18359.41309-.4209.41309-.22949,0-.41309-.18311-.41309-.41309v-1.46387Z" fill="#ebebeb"/>
    </g>
    <g>
      <path d="m14.93555,27.66064l-2.83984-6.79443c-.0625-.1499-.11328-.2998-.11328-.46289,0-.53809.42578-.95068.96387-.95068.50098,0,.82617.2876.97559.67529l2.19043,5.66797,2.21387-5.73047c.125-.3125.46289-.61279.92578-.61279.52637,0,.95117.40039.95117.92578,0,.1499-.0498.31299-.09961.42529l-2.86523,6.85693c-.2002.4751-.56348.76318-1.08887.76318h-.125c-.52539,0-.88867-.28809-1.08887-.76318Z" fill="#ebebeb"/>
      <path d="m21.64355,20.41602c0-.53809.42578-.96338.96387-.96338.53711,0,.96289.42529.96289.96338v6.98145c0,.53809-.42578.96387-.96289.96387-.53809,0-.96387-.42578-.96387-.96387v-6.98145Z" fill="#ebebeb"/>
      <path d="m25.30469,27.43555v-.03809c0-.3374.125-.6377.35059-.90039l4.54199-5.28027h-3.8916c-.46289,0-.85059-.37549-.85059-.83838s.3877-.85107.85059-.85107h5.59277c.46387,0,.85156.38818.85156.85107v.0376c0,.33789-.125.62549-.35059.90088l-4.54199,5.27979h4.04102c.46387,0,.85156.38818.85156.85107s-.3877.83838-.85156.83838h-5.74219c-.46289,0-.85156-.3877-.85156-.85059Z" fill="#ebebeb"/>
    </g>
  </g>
</svg>