<?xml version="1.0" encoding="UTF-8" standalone="no"?>
<svg
   xmlns:dc="http://purl.org/dc/elements/1.1/"
   xmlns:cc="http://creativecommons.org/ns#"
   xmlns:rdf="http://www.w3.org/1999/02/22-rdf-syntax-ns#"
   xmlns:svg="http://www.w3.org/2000/svg"
   xmlns="http://www.w3.org/2000/svg"
   xmlns:sodipodi="http://sodipodi.sourceforge.net/DTD/sodipodi-0.dtd"
   xmlns:inkscape="http://www.inkscape.org/namespaces/inkscape"
   width="45"
   height="380"
   viewBox="0 0 45 380"
   version="1.1"
   id="svg61"
   sodipodi:docname="VIZ.svg"
   inkscape:version="0.92.3 (2405546, 2018-03-11)">
  <metadata
     id="metadata65">
    <rdf:RDF>
      <cc:Work
         rdf:about="">
        <dc:format>image/svg+xml</dc:format>
        <dc:type
           rdf:resource="http://purl.org/dc/dcmitype/StillImage" />
      </cc:Work>
    </rdf:RDF>
  </metadata>
  <sodipodi:namedview
     pagecolor="#ffffff"
     bordercolor="#666666"
     borderopacity="1"
     objecttolerance="10"
     gridtolerance="10"
     guidetolerance="10"
     inkscape:pageopacity="0"
     inkscape:pageshadow="2"
     inkscape:window-width="1920"
     inkscape:window-height="1017"
     id="namedview63"
     showgrid="false"
     inkscape:zoom="0.62105263"
     inkscape:cx="22.5"
     inkscape:cy="190"
     inkscape:window-x="-8"
     inkscape:window-y="-8"
     inkscape:window-maximized="1"
     inkscape:current-layer="svg61" />
  <defs
     id="defs7">
    <linearGradient
       id="e51cf18d-cbcc-4a37-8e86-eac6c9ff20cc"
       x1="22.5"
       x2="22.5"
       y2="380"
       gradientUnits="userSpaceOnUse">
      <stop
         offset="0"
         stop-color="#ebebeb"
         id="stop2" />
      <stop
         offset="1"
         stop-color="#e1e1e1"
         id="stop4" />
    </linearGradient>
  </defs>
  <g
     id="ab1c627f-f4bd-4991-a619-92cd42dfe24d"
     data-name="FND BG">
    <rect
       width="45"
       height="380"
       fill="url(#e51cf18d-cbcc-4a37-8e86-eac6c9ff20cc)"
       id="rect9" />
  </g>
  <g
     id="ae4da3dd-d5fd-4864-af3a-a88f6d045cc8"
     data-name="FND GRAPH">
    <g
       id="g20">
      <circle
         cx="23.00165"
         cy="355.83101"
         r="1.18571"
         fill="#1f1f1f"
         id="circle12" />
      <path
         d="M14.35927,359.753a.91214.91214,0,0,1-.8158-.50418l-2.96428-5.92857a.91209.91209,0,0,1,1.6316-.8158l2.14848,4.297,2.14848-4.297a.91209.91209,0,0,1,1.6316.8158l-2.96428,5.92857A.91211.91211,0,0,1,14.35927,359.753Z"
         fill="#1f1f1f"
         id="path14" />
      <path
         d="M30.64073,359.753a.91211.91211,0,0,1-.8158-.50418l-2.96428-5.92857a.91209.91209,0,0,1,1.6316-.8158l2.14848,4.297,2.14848-4.297a.91209.91209,0,0,1,1.6316.8158l-2.96428,5.92857A.91214.91214,0,0,1,30.64073,359.753Z"
         fill="#1f1f1f"
         id="path16" />
      <path
         d="M22.94242,359.753a3.87637,3.87637,0,1,1,2.32653-6.97719.91209.91209,0,1,1-1.09557,1.45854,2.034,2.034,0,0,0-1.231-.40991,2.0522,2.0522,0,1,0,0,4.10439,2.034,2.034,0,0,0,1.231-.40991.91209.91209,0,1,1,1.09557,1.45854A3.8448,3.8448,0,0,1,22.94242,359.753Z"
         fill="#1f1f1f"
         id="path18" />
    </g>
  </g>
  <g
     id="fc7f0e2d-bc53-4e06-a543-8c081ebd28b0"
     data-name="FND TXT">
    <g
       id="g31">
      <path
         d="M13.52246,314.58691a.41321.41321,0,0,1,.41992-.41992h1.4502a1.5914,1.5914,0,0,1,1.80176,1.58545v.01318c0,1.064-.85352,1.61915-1.89649,1.61915h-.94238v1.1455a.41652.41652,0,0,1-.833,0Zm1.80176,2.0459c.63086,0,1.02344-.35205,1.02344-.84668v-.01367c0-.55566-.39942-.84668-1.02344-.84668h-.96875v1.707Z"
         fill="#1f1f1f"
         id="path23" />
      <path
         d="M18.06348,316.55176v-.01367a2.47974,2.47974,0,0,1,4.959-.01368v.01368a2.47973,2.47973,0,0,1-4.959.01367Zm4.085,0v-.01367a1.624,1.624,0,0,0-1.61231-1.68653,1.60217,1.60217,0,0,0-1.59863,1.67285v.01368a1.61919,1.61919,0,0,0,1.6123,1.68017A1.5965,1.5965,0,0,0,22.14844,316.55176Z"
         fill="#1f1f1f"
         id="path25" />
      <path
         d="M24.24023,314.54639a.41652.41652,0,0,1,.833,0v3.604H27.2207a.3794.3794,0,1,1,0,.75879H24.66016a.41322.41322,0,0,1-.41993-.41992Z"
         fill="#1f1f1f"
         id="path27" />
      <path
         d="M29.31152,317.06641l-1.63281-2.24219a.51886.51886,0,0,1-.09473-.29151.40608.40608,0,0,1,.41993-.3999.48091.48091,0,0,1,.40722.251l1.32032,1.90381,1.34179-1.91065a.47823.47823,0,0,1,.39942-.25049.39566.39566,0,0,1,.40722.40625.50945.50945,0,0,1-.11523.29834l-1.61914,2.21534v1.48388a.417.417,0,0,1-.834,0Z"
         fill="#1f1f1f"
         id="path29" />
    </g>
    <g
       id="g39">
      <path
         d="M14.93555,27.66064,12.0957,20.86621a1.19766,1.19766,0,0,1-.11328-.46289.94554.94554,0,0,1,.96387-.95068,1.00032,1.00032,0,0,1,.97559.67529l2.19042,5.668,2.21387-5.73047a.99864.99864,0,0,1,.92578-.61279.92914.92914,0,0,1,.95117.92578,1.12318,1.12318,0,0,1-.0996.42529l-2.86524,6.85693a1.13167,1.13167,0,0,1-1.08887.76319h-.125A1.13165,1.13165,0,0,1,14.93555,27.66064Z"
         id="path33" />
      <path
         d="M21.64355,20.416a.96338.96338,0,1,1,1.92676,0v6.98144a.96338.96338,0,1,1-1.92676,0Z"
         id="path35" />
      <path
         d="M25.30469,27.43555v-.03809a1.35575,1.35575,0,0,1,.35058-.90039l4.542-5.28027H26.30566a.84906.84906,0,0,1-.85058-.83838.86.86,0,0,1,.85058-.85108h5.59278a.86018.86018,0,0,1,.85156.85108v.0376a1.38072,1.38072,0,0,1-.35059.90087l-4.542,5.27979h4.041a.86017.86017,0,0,1,.85156.85107.84928.84928,0,0,1-.85156.83838H26.15625A.86039.86039,0,0,1,25.30469,27.43555Z"
         id="path37" />
    </g>
  </g>
  <g
     id="bbfdc750-ac0d-4211-9004-81dfe88faaf5"
     data-name="components"
     inkscape:groupmode="layer"
     style="display:none">
    <circle
       id="b4de3f96-b2af-4ba9-bebc-598837f5f896"
       data-name="Poly#PJ301MPort"
       cx="22.500031"
       cy="334"
       r="5"
       style="fill:#00ff00" />
    <rect
       id="f5a34085-32b5-4891-858b-a90bfd36737a"
       data-name="Screen"
       x="0.0094299996"
       y="38.5"
       width="44.99057"
       height="263.81198"
       style="fill:#ffff00" />
    <circle
       id="e0c163ef-7e34-4bf1-8a93-f3daa2aae854"
       data-name="Viz01#RedLight"
       cx="32.024879"
       cy="53.350788"
       r="3"
       style="fill:#ff00ff" />
    <circle
       id="bbca0620-65d4-4ef6-978c-b02fa119ff06"
       data-name="Viz02#RedLight"
       cx="32.024879"
       cy="68.992981"
       r="3"
       style="fill:#ff00ff" />
    <circle
       id="bfa83c8b-2027-40f7-b9da-767acb75ae82"
       data-name="Viz03#RedLight"
       cx="32.024879"
       cy="84.63517"
       r="3"
       style="fill:#ff00ff" />
    <circle
       id="a05bc1b4-f343-429d-a231-e2960c953cd1"
       data-name="Viz04#RedLight"
       cx="32.024879"
       cy="100.27736"
       r="3"
       style="fill:#ff00ff" />
    <circle
       id="eb8ec47a-f865-4330-bd76-42ed31263893"
       data-name="Viz05#RedLight"
       cx="32.024879"
       cy="115.91954"
       r="3"
       style="fill:#ff00ff" />
    <circle
       id="e5d109f2-8a6c-4bd5-a409-539afa7e6e56"
       data-name="Viz06#RedLight"
       cx="32.024879"
       cy="131.56174"
       r="3"
       style="fill:#ff00ff" />
    <circle
       id="e870f9cb-2a54-4c5b-86cb-88ddf4637079"
       data-name="Viz07#RedLight"
       cx="32.024879"
       cy="147.39961"
       r="3"
       style="fill:#ff00ff" />
    <circle
       id="e0fca2a7-4795-43dc-85f1-610057341fe6"
       data-name="Viz08#RedLight"
       cx="32.024879"
       cy="163.04179"
       r="3"
       style="fill:#ff00ff" />
    <circle
       id="a45246e7-e170-42d0-b0d4-31d4f33afed5"
       data-name="Viz09#RedLight"
       cx="32.024879"
       cy="178.68399"
       r="3"
       style="fill:#ff00ff" />
    <circle
       id="e192849b-3ccb-4674-a3fc-221cc6151347"
       data-name="Viz10#RedLight"
       cx="32.024879"
       cy="194.32617"
       r="3"
       style="fill:#ff00ff" />
    <circle
       id="a1be30e3-5ba4-4b64-a90f-85649fd4931d"
       data-name="Viz11#RedLight"
       cx="32.024879"
       cy="209.96835"
       r="3"
       style="fill:#ff00ff" />
    <circle
       id="b63b74f8-fc43-4c8b-abc4-93a7495bebb1"
       data-name="Viz12#RedLight"
       cx="32.024879"
       cy="225.80624"
       r="3"
       style="fill:#ff00ff" />
    <circle
       id="b1eb3a5d-94d0-4255-a5b8-da4caa2985f2"
       data-name="Viz13#RedLight"
       cx="32.024879"
       cy="241.44843"
       r="3"
       style="fill:#ff00ff" />
    <circle
       id="a08a28fa-79bd-40ab-a361-b2840882dd90"
       data-name="Viz14#RedLight"
       cx="32.024879"
       cy="257.09061"
       r="3"
       style="fill:#ff00ff" />
    <circle
       id="a9ad23b6-5301-440e-b20a-b56db0a9f7b7"
       data-name="Viz15#RedLight"
       cx="32.024879"
       cy="272.73279"
       r="3"
       style="fill:#ff00ff" />
    <circle
       id="e4ed2f79-c9a5-4fa3-928d-fbc9e7c00736"
       data-name="Viz16#RedLight"
       cx="32.024879"
       cy="288.375"
       r="3"
       style="fill:#ff00ff" />
  </g>
</svg>
