<?xml version="1.0" encoding="UTF-8" standalone="no"?>
<!-- Created with Inkscape (http://www.inkscape.org/) -->

<svg
   xmlns:dc="http://purl.org/dc/elements/1.1/"
   xmlns:cc="http://creativecommons.org/ns#"
   xmlns:rdf="http://www.w3.org/1999/02/22-rdf-syntax-ns#"
   xmlns:svg="http://www.w3.org/2000/svg"
   xmlns="http://www.w3.org/2000/svg"
   xmlns:sodipodi="http://sodipodi.sourceforge.net/DTD/sodipodi-0.dtd"
   xmlns:inkscape="http://www.inkscape.org/namespaces/inkscape"
   width="15.239719mm"
   height="128.49931mm"
   viewBox="0 0 15.23972 128.49931"
   version="1.1"
   id="svg55291"
   inkscape:version="0.92.4 5da689c313, 2019-01-14"
   sodipodi:docname="Viz.svg">
  <defs
     id="defs55285" />
  <sodipodi:namedview
     id="base"
     pagecolor="#ffffff"
     bordercolor="#666666"
     borderopacity="1.0"
     inkscape:pageopacity="0.0"
     inkscape:pageshadow="2"
     inkscape:zoom="0.98994949"
     inkscape:cx="-61.964416"
     inkscape:cy="199.87911"
     inkscape:document-units="mm"
     inkscape:current-layer="layer3"
     showgrid="false"
     fit-margin-top="0"
     fit-margin-left="0"
     fit-margin-right="0"
     fit-margin-bottom="0"
     inkscape:snap-bbox="true"
     inkscape:snap-bbox-midpoints="true"
     inkscape:snap-nodes="false"
     inkscape:window-width="1600"
     inkscape:window-height="882"
     inkscape:window-x="0"
     inkscape:window-y="18"
     inkscape:window-maximized="0"
     inkscape:snap-page="true"
     inkscape:bbox-nodes="true" />
  <metadata
     id="metadata55288">
    <rdf:RDF>
      <cc:Work
         rdf:about="">
        <dc:format>image/svg+xml</dc:format>
        <dc:type
           rdf:resource="http://purl.org/dc/dcmitype/StillImage" />
        <dc:title></dc:title>
      </cc:Work>
    </rdf:RDF>
  </metadata>
  <g
     inkscape:label="Layer 1"
     inkscape:groupmode="layer"
     id="layer1"
     transform="translate(-56.676971,-41.503207)">
    <path
       inkscape:connector-curvature="0"
       style="fill:#e6e6e6;fill-opacity:1;fill-rule:nonzero;stroke:none;stroke-width:0.35277778"
       d="M 56.769292,41.596914 H 71.82299 V 169.91019 H 56.769292 Z m 0,0"
       id="path29725" />
    <path
       inkscape:connector-curvature="0"
       style="fill:#ababab;fill-opacity:1;fill-rule:nonzero;stroke:none;stroke-width:0.35277778"
       d="M 71.91669,41.503207 H 56.676971 V 170.00252 H 71.91669 Z M 71.72929,169.81649 H 56.863026 V 41.69062 H 71.72929 Z m 0,0"
       id="path29727" />
    <path
       inkscape:connector-curvature="0"
       style="fill:#000000;fill-opacity:1;fill-rule:nonzero;stroke:none;stroke-width:0.35277778"
       d="M 71.91669,158.86384 H 56.676971 V 70.738287 H 71.91669 Z m 0,0"
       id="path41613" />
    <path
       inkscape:connector-curvature="0"
       style="fill:#000000;fill-opacity:1;stroke:none;stroke-width:0.35277778"
       d="m 61.03021,56.442517 c 0,0.08268 0.0662,0.148827 0.15434,0.148827 0.0827,0 0.14884,-0.06615 0.14884,-0.148827 v -0.418923 h 0.34724 c 0.38037,0 0.68904,-0.203952 0.68904,-0.589803 v -0.0055 c 0,-0.347267 -0.25357,-0.578778 -0.65595,-0.578778 h -0.52917 c -0.0882,0 -0.15434,0.06615 -0.15434,0.154341 z m 0.30318,-0.694531 v -0.617361 h 0.35278 c 0.23149,0 0.37483,0.104729 0.37483,0.30868 0,0.1819 -0.14334,0.308681 -0.37483,0.308681 z m 0,0"
       id="path52181" />
    <path
       inkscape:connector-curvature="0"
       style="fill:#000000;fill-opacity:1;stroke:none;stroke-width:0.35277778"
       d="m 63.58436,56.607882 c 0.52917,0 0.90399,-0.4079 0.90399,-0.892969 v -0.0055 c 0,-0.48507 -0.36928,-0.887455 -0.89845,-0.887455 -0.52917,0 -0.90953,0.407899 -0.90953,0.892969 v 0.0055 c 0,0.485069 0.37482,0.887458 0.90399,0.887458 z m 0.006,-0.281122 c -0.341771,0 -0.58981,-0.275607 -0.58981,-0.611847 v -0.0055 c 0,-0.33624 0.24253,-0.606337 0.58427,-0.606337 0.34177,0 0.58981,0.275608 0.58981,0.611851 v 0.0055 c 0,0.336243 -0.24254,0.606337 -0.58427,0.606337 z m 0,0"
       id="path52177" />
    <path
       inkscape:connector-curvature="0"
       style="fill:#000000;fill-opacity:1;stroke:none;stroke-width:0.35277778"
       d="m 64.92781,56.425979 c 0,0.0882 0.0661,0.15434 0.15434,0.15434 h 0.93154 c 0.0772,0 0.14334,-0.06063 0.14334,-0.137802 0,-0.07717 -0.0662,-0.137805 -0.14334,-0.137805 h -0.7827 v -1.317403 c 0,-0.08268 -0.0662,-0.14883 -0.14884,-0.14883 -0.0882,0 -0.15434,0.06615 -0.15434,0.14883 z m 0,0"
       id="path52173" />
    <path
       inkscape:connector-curvature="0"
       style="fill:#000000;fill-opacity:1;stroke:none;stroke-width:0.35277778"
       d="m 66.77524,56.442517 c 0,0.08268 0.0661,0.148827 0.14883,0.148827 0.0882,0 0.15434,-0.06615 0.15434,-0.148827 v -0.540191 l 0.58981,-0.810288 c 0.0219,-0.02755 0.0386,-0.06615 0.0386,-0.104729 0,-0.08268 -0.0551,-0.14883 -0.1488,-0.14883 -0.0606,0 -0.10474,0.03306 -0.14333,0.08819 l -0.49058,0.700046 -0.47956,-0.694532 c -0.0386,-0.05512 -0.0827,-0.09371 -0.14884,-0.09371 -0.0882,0 -0.15434,0.06615 -0.15434,0.14883 0,0.03858 0.0166,0.07166 0.0386,0.104729 l 0.59532,0.815799 z m 0,0"
       id="path52169" />
    <path
       inkscape:connector-curvature="0"
       style="fill:#000000;fill-opacity:1;stroke:none;stroke-width:0.35277778"
       d="m 62.10576,51.11244 h 0.0441 c 0.17639,0 0.29764,-0.09371 0.36378,-0.253559 l 0.97014,-2.320616 c 0.0166,-0.03858 0.0332,-0.09371 0.0332,-0.143316 0,-0.181901 -0.14333,-0.314193 -0.31972,-0.314193 -0.15434,0 -0.27008,0.09922 -0.31418,0.20395 l -0.74965,1.940278 -0.73865,-1.91823 c -0.0496,-0.132291 -0.15984,-0.225998 -0.33073,-0.225998 -0.18189,0 -0.32519,0.137804 -0.32519,0.319705 0,0.05512 0.0166,0.104731 0.0386,0.159852 l 0.95913,2.298568 c 0.0662,0.159853 0.19293,0.253559 0.36932,0.253559 z m 0,0"
       id="path52149" />
    <path
       inkscape:connector-curvature="0"
       style="fill:#000000;fill-opacity:1;stroke:none;stroke-width:0.35277778"
       d="m 64.00674,50.765175 c 0,0.181901 0.14333,0.330729 0.32523,0.330729 0.18189,0 0.32522,-0.148828 0.32522,-0.330729 v -2.359202 c 0,-0.181901 -0.14333,-0.325217 -0.32522,-0.325217 -0.1819,0 -0.32523,0.143316 -0.32523,0.325217 z m 0,0"
       id="path52153" />
    <path
       inkscape:connector-curvature="0"
       style="fill:#000000;fill-opacity:1;stroke:none;stroke-width:0.35277778"
       d="m 65.53363,51.068343 h 1.94579 c 0.15434,0 0.28663,-0.12678 0.28663,-0.28112 0,-0.159852 -0.13229,-0.292144 -0.28663,-0.292144 H 66.1069 l 1.5379,-1.785938 c 0.0771,-0.09371 0.12125,-0.187413 0.12125,-0.303168 v -0.01103 c 0,-0.159853 -0.13229,-0.292144 -0.28663,-0.292144 h -1.89619 c -0.15433,0 -0.28663,0.132291 -0.28663,0.292144 0,0.15434 0.1323,0.28112 0.28663,0.28112 h 1.31742 L 65.36275,50.462 c -0.0772,0.08819 -0.11575,0.192926 -0.11575,0.303169 v 0.01653 c 0,0.15434 0.13229,0.286632 0.28663,0.286632 z m 0,0"
       id="path52145" />
    <path
       inkscape:connector-curvature="0"
       style="fill:#000000;fill-opacity:1;fill-rule:nonzero;stroke:none;stroke-width:0.35277778"
       d="m 64.86667,161.97821 c 0,0.22048 -0.17917,0.401 -0.40104,0.401 -0.22048,0 -0.401,-0.18052 -0.401,-0.401 0,-0.22187 0.18052,-0.40101 0.401,-0.40101 0.22187,0 0.40104,0.17914 0.40104,0.40101"
       id="path41767" />
    <path
       inkscape:connector-curvature="0"
       style="fill:#000000;fill-opacity:1;fill-rule:nonzero;stroke:none;stroke-width:0.35277778"
       d="m 61.54421,163.30388 c -0.11712,0 -0.22461,-0.0661 -0.277,-0.17088 l -1.00182,-2.00367 c -0.0758,-0.15296 -0.0152,-0.33762 0.1378,-0.41478 0.15296,-0.0758 0.3376,-0.0138 0.41342,0.1378 l 0.7276,1.45383 0.72623,-1.45383 c 0.0758,-0.15159 0.26046,-0.2136 0.41342,-0.1378 0.15293,0.0772 0.21357,0.26182 0.13779,0.41478 L 61.8198,163.133 c -0.0524,0.10473 -0.15984,0.17088 -0.27559,0.17088"
       id="path41769" />
    <path
       inkscape:connector-curvature="0"
       style="fill:#000000;fill-opacity:1;fill-rule:nonzero;stroke:none;stroke-width:0.35277778"
       d="m 67.04948,163.30388 c -0.11715,0 -0.22327,-0.0661 -0.27562,-0.17088 l -1.00319,-2.00367 c -0.0758,-0.15296 -0.0138,-0.33762 0.13779,-0.41478 0.15296,-0.0758 0.33761,-0.0138 0.4148,0.1378 l 0.72622,1.45383 0.7262,-1.45383 c 0.0758,-0.15159 0.26183,-0.2136 0.41342,-0.1378 0.15296,0.0772 0.21498,0.26182 0.13921,0.41478 l -1.00324,2.00367 c -0.0524,0.10473 -0.15846,0.17088 -0.27559,0.17088"
       id="path41771" />
    <path
       inkscape:connector-curvature="0"
       style="fill:#000000;fill-opacity:1;fill-rule:nonzero;stroke:none;stroke-width:0.35277778"
       d="m 64.44634,163.30388 c -0.72344,0 -1.3105,-0.58843 -1.3105,-1.31052 0,-0.72347 0.58706,-1.31051 1.3105,-1.31051 0.28663,0 0.55813,0.0909 0.78687,0.26183 0.13504,0.10197 0.16263,0.29627 0.0606,0.43132 -0.10199,0.13643 -0.29489,0.16399 -0.43134,0.062 -0.12125,-0.0909 -0.26458,-0.13918 -0.41617,-0.13918 -0.38308,0 -0.69452,0.31144 -0.69452,0.69453 0,0.3831 0.31144,0.69316 0.69452,0.69316 0.15159,0 0.29492,-0.0469 0.41617,-0.13781 0.13645,-0.10197 0.32935,-0.0758 0.43134,0.0606 0.10199,0.13642 0.0744,0.33073 -0.0606,0.4327 -0.22874,0.17088 -0.50024,0.26183 -0.78687,0.26183"
       id="path41773" />
  </g>
  <g
     inkscape:groupmode="layer"
     id="layer3"
     inkscape:label="widgets"
     style="display:none">
    <rect
       style="opacity:1;vector-effect:none;fill:#ffff00;fill-opacity:1;fill-rule:evenodd;stroke:none;stroke-width:0.64763796;stroke-linecap:butt;stroke-linejoin:miter;stroke-miterlimit:4;stroke-dasharray:none;stroke-dashoffset:0;stroke-opacity:1;paint-order:normal"
       id="rect61217"
       width="15.239719"
       height="88.125549"
       x="0"
       y="29.235081" />
    <circle
       style="opacity:1;vector-effect:none;fill:#00ff00;fill-opacity:1;fill-rule:evenodd;stroke:none;stroke-width:0.69999999;stroke-linecap:butt;stroke-linejoin:miter;stroke-miterlimit:4;stroke-dasharray:none;stroke-dashoffset:0;stroke-opacity:1;paint-order:normal"
       id="path61183"
       cx="7.619174"
       cy="21.3465"
       r="1" />
    <circle
       r="1"
       cy="33.626202"
       cx="10.854124"
       id="circle61185"
       style="opacity:1;vector-effect:none;fill:#ff00ff;fill-opacity:1;fill-rule:evenodd;stroke:none;stroke-width:0.69999999;stroke-linecap:butt;stroke-linejoin:miter;stroke-miterlimit:4;stroke-dasharray:none;stroke-dashoffset:0;stroke-opacity:1;paint-order:normal" />
    <circle
       style="opacity:1;vector-effect:none;fill:#ff00ff;fill-opacity:1;fill-rule:evenodd;stroke:none;stroke-width:0.69999999;stroke-linecap:butt;stroke-linejoin:miter;stroke-miterlimit:4;stroke-dasharray:none;stroke-dashoffset:0;stroke-opacity:1;paint-order:normal"
       id="circle61187"
       cx="10.854124"
       cy="38.916489"
       r="1" />
    <circle
       style="opacity:1;vector-effect:none;fill:#ff00ff;fill-opacity:1;fill-rule:evenodd;stroke:none;stroke-width:0.69999999;stroke-linecap:butt;stroke-linejoin:miter;stroke-miterlimit:4;stroke-dasharray:none;stroke-dashoffset:0;stroke-opacity:1;paint-order:normal"
       id="circle61189"
       cx="10.854124"
       cy="44.205402"
       r="1" />
    <circle
       r="1"
       cy="49.495689"
       cx="10.854124"
       id="circle61191"
       style="opacity:1;vector-effect:none;fill:#ff00ff;fill-opacity:1;fill-rule:evenodd;stroke:none;stroke-width:0.69999999;stroke-linecap:butt;stroke-linejoin:miter;stroke-miterlimit:4;stroke-dasharray:none;stroke-dashoffset:0;stroke-opacity:1;paint-order:normal" />
    <circle
       style="opacity:1;vector-effect:none;fill:#ff00ff;fill-opacity:1;fill-rule:evenodd;stroke:none;stroke-width:0.69999999;stroke-linecap:butt;stroke-linejoin:miter;stroke-miterlimit:4;stroke-dasharray:none;stroke-dashoffset:0;stroke-opacity:1;paint-order:normal"
       id="circle61193"
       cx="10.854124"
       cy="54.784603"
       r="1" />
    <circle
       r="1"
       cy="60.07489"
       cx="10.854124"
       id="circle61195"
       style="opacity:1;vector-effect:none;fill:#ff00ff;fill-opacity:1;fill-rule:evenodd;stroke:none;stroke-width:0.69999999;stroke-linecap:butt;stroke-linejoin:miter;stroke-miterlimit:4;stroke-dasharray:none;stroke-dashoffset:0;stroke-opacity:1;paint-order:normal" />
    <circle
       r="1"
       cy="65.3638"
       cx="10.854124"
       id="circle61197"
       style="opacity:1;vector-effect:none;fill:#ff00ff;fill-opacity:1;fill-rule:evenodd;stroke:none;stroke-width:0.69999999;stroke-linecap:butt;stroke-linejoin:miter;stroke-miterlimit:4;stroke-dasharray:none;stroke-dashoffset:0;stroke-opacity:1;paint-order:normal" />
    <circle
       style="opacity:1;vector-effect:none;fill:#ff00ff;fill-opacity:1;fill-rule:evenodd;stroke:none;stroke-width:0.69999999;stroke-linecap:butt;stroke-linejoin:miter;stroke-miterlimit:4;stroke-dasharray:none;stroke-dashoffset:0;stroke-opacity:1;paint-order:normal"
       id="circle61199"
       cx="10.854124"
       cy="70.654091"
       r="1" />
    <circle
       style="opacity:1;vector-effect:none;fill:#ff00ff;fill-opacity:1;fill-rule:evenodd;stroke:none;stroke-width:0.69999999;stroke-linecap:butt;stroke-linejoin:miter;stroke-miterlimit:4;stroke-dasharray:none;stroke-dashoffset:0;stroke-opacity:1;paint-order:normal"
       id="circle61201"
       cx="10.854124"
       cy="75.943008"
       r="1" />
    <circle
       r="1"
       cy="81.233292"
       cx="10.854124"
       id="circle61203"
       style="opacity:1;vector-effect:none;fill:#ff00ff;fill-opacity:1;fill-rule:evenodd;stroke:none;stroke-width:0.69999999;stroke-linecap:butt;stroke-linejoin:miter;stroke-miterlimit:4;stroke-dasharray:none;stroke-dashoffset:0;stroke-opacity:1;paint-order:normal" />
    <circle
       r="1"
       cy="86.522209"
       cx="10.854124"
       id="circle61205"
       style="opacity:1;vector-effect:none;fill:#ff00ff;fill-opacity:1;fill-rule:evenodd;stroke:none;stroke-width:0.69999999;stroke-linecap:butt;stroke-linejoin:miter;stroke-miterlimit:4;stroke-dasharray:none;stroke-dashoffset:0;stroke-opacity:1;paint-order:normal" />
    <circle
       style="opacity:1;vector-effect:none;fill:#ff00ff;fill-opacity:1;fill-rule:evenodd;stroke:none;stroke-width:0.69999999;stroke-linecap:butt;stroke-linejoin:miter;stroke-miterlimit:4;stroke-dasharray:none;stroke-dashoffset:0;stroke-opacity:1;paint-order:normal"
       id="circle61207"
       cx="10.854124"
       cy="91.812492"
       r="1" />
    <circle
       r="1"
       cy="97.10141"
       cx="10.854124"
       id="circle61209"
       style="opacity:1;vector-effect:none;fill:#ff00ff;fill-opacity:1;fill-rule:evenodd;stroke:none;stroke-width:0.69999999;stroke-linecap:butt;stroke-linejoin:miter;stroke-miterlimit:4;stroke-dasharray:none;stroke-dashoffset:0;stroke-opacity:1;paint-order:normal" />
    <circle
       style="opacity:1;vector-effect:none;fill:#ff00ff;fill-opacity:1;fill-rule:evenodd;stroke:none;stroke-width:0.69999999;stroke-linecap:butt;stroke-linejoin:miter;stroke-miterlimit:4;stroke-dasharray:none;stroke-dashoffset:0;stroke-opacity:1;paint-order:normal"
       id="circle61211"
       cx="10.854124"
       cy="102.39169"
       r="1" />
    <circle
       style="opacity:1;vector-effect:none;fill:#ff00ff;fill-opacity:1;fill-rule:evenodd;stroke:none;stroke-width:0.69999999;stroke-linecap:butt;stroke-linejoin:miter;stroke-miterlimit:4;stroke-dasharray:none;stroke-dashoffset:0;stroke-opacity:1;paint-order:normal"
       id="circle61213"
       cx="10.854124"
       cy="107.6806"
       r="1" />
    <circle
       r="1"
       cy="112.97089"
       cx="10.854124"
       id="circle61215"
       style="opacity:1;vector-effect:none;fill:#ff00ff;fill-opacity:1;fill-rule:evenodd;stroke:none;stroke-width:0.69999999;stroke-linecap:butt;stroke-linejoin:miter;stroke-miterlimit:4;stroke-dasharray:none;stroke-dashoffset:0;stroke-opacity:1;paint-order:normal" />
  </g>
</svg>
