<?xml version="1.0" encoding="UTF-8" standalone="no"?>
<svg
   xmlns:dc="http://purl.org/dc/elements/1.1/"
   xmlns:cc="http://creativecommons.org/ns#"
   xmlns:rdf="http://www.w3.org/1999/02/22-rdf-syntax-ns#"
   xmlns:svg="http://www.w3.org/2000/svg"
   xmlns="http://www.w3.org/2000/svg"
   xmlns:sodipodi="http://sodipodi.sourceforge.net/DTD/sodipodi-0.dtd"
   xmlns:inkscape="http://www.inkscape.org/namespaces/inkscape"
   width="45"
   height="380"
   viewBox="0 0 45 380"
   version="1.1"
   id="svg154"
   sodipodi:docname="VIZ.svg"
   inkscape:version="0.92.3 (2405546, 2018-03-11)">
  <metadata
     id="metadata158">
    <rdf:RDF>
      <cc:Work
         rdf:about="">
        <dc:format>image/svg+xml</dc:format>
        <dc:type
           rdf:resource="http://purl.org/dc/dcmitype/StillImage" />
      </cc:Work>
    </rdf:RDF>
  </metadata>
  <sodipodi:namedview
     pagecolor="#ffffff"
     bordercolor="#666666"
     borderopacity="1"
     objecttolerance="10"
     gridtolerance="10"
     guidetolerance="10"
     inkscape:pageopacity="0"
     inkscape:pageshadow="2"
     inkscape:window-width="716"
     inkscape:window-height="480"
     id="namedview156"
     showgrid="false"
     inkscape:zoom="0.62105263"
     inkscape:cx="22.5"
     inkscape:cy="190"
     inkscape:window-x="0"
     inkscape:window-y="0"
     inkscape:window-maximized="0"
     inkscape:current-layer="svg154" />
  <defs
     id="defs7">
    <linearGradient
       id="a7c85910-efa2-49be-b51d-63d3f80a4577"
       x1="22.5"
       x2="22.5"
       y2="380"
       gradientUnits="userSpaceOnUse">
      <stop
         offset="0"
         stop-color="#ebebeb"
         id="stop2" />
      <stop
         offset="1"
         stop-color="#e1e1e1"
         id="stop4" />
    </linearGradient>
  </defs>
  <g
     id="b13fbb94-2523-43f1-8b7b-76c02900e16c"
     data-name="FND BG">
    <rect
       width="45"
       height="380"
       fill="url(#a7c85910-efa2-49be-b51d-63d3f80a4577)"
       id="rect9" />
  </g>
  <g
     id="b87e7f95-1233-4dde-a5c0-e29fb2f84614"
     data-name="FND GRAPH">
    <g
       id="g20">
      <circle
         cx="23.00165"
         cy="355.83101"
         r="1.18571"
         fill="#1f1f1f"
         id="circle12" />
      <path
         d="M14.35927,359.753a.91214.91214,0,0,1-.8158-.50418l-2.96428-5.92857a.91209.91209,0,0,1,1.6316-.8158l2.14848,4.297,2.14848-4.297a.91209.91209,0,0,1,1.6316.8158l-2.96428,5.92857A.91211.91211,0,0,1,14.35927,359.753Z"
         fill="#1f1f1f"
         id="path14" />
      <path
         d="M30.64073,359.753a.91211.91211,0,0,1-.8158-.50418l-2.96428-5.92857a.91209.91209,0,0,1,1.6316-.8158l2.14848,4.297,2.14848-4.297a.91209.91209,0,0,1,1.6316.8158l-2.96428,5.92857A.91214.91214,0,0,1,30.64073,359.753Z"
         fill="#1f1f1f"
         id="path16" />
      <path
         d="M22.94242,359.753a3.87637,3.87637,0,1,1,2.32653-6.97719.91209.91209,0,1,1-1.09557,1.45854,2.034,2.034,0,0,0-1.231-.40991,2.0522,2.0522,0,1,0,0,4.10439,2.034,2.034,0,0,0,1.231-.40991.91209.91209,0,1,1,1.09557,1.45854A3.8448,3.8448,0,0,1,22.94242,359.753Z"
         fill="#1f1f1f"
         id="path18" />
    </g>
  </g>
  <g
     id="b148c7a9-98ae-44fd-9639-16f535c2406c"
     data-name="FND TXT">
    <g
       id="g31">
      <path
         d="M13.52246,314.58691a.41321.41321,0,0,1,.41992-.41992h1.4502a1.5914,1.5914,0,0,1,1.80176,1.58545v.01318c0,1.064-.85352,1.61915-1.89649,1.61915h-.94238v1.1455a.41652.41652,0,0,1-.833,0Zm1.80176,2.0459c.63086,0,1.02344-.35205,1.02344-.84668v-.01367c0-.55566-.39942-.84668-1.02344-.84668h-.96875v1.707Z"
         fill="#1f1f1f"
         id="path23" />
      <path
         d="M18.06348,316.55176v-.01367a2.47974,2.47974,0,0,1,4.959-.01368v.01368a2.47973,2.47973,0,0,1-4.959.01367Zm4.085,0v-.01367a1.624,1.624,0,0,0-1.61231-1.68653,1.60217,1.60217,0,0,0-1.59863,1.67285v.01368a1.61919,1.61919,0,0,0,1.6123,1.68017A1.5965,1.5965,0,0,0,22.14844,316.55176Z"
         fill="#1f1f1f"
         id="path25" />
      <path
         d="M24.24023,314.54639a.41652.41652,0,0,1,.833,0v3.604H27.2207a.3794.3794,0,1,1,0,.75879H24.66016a.41322.41322,0,0,1-.41993-.41992Z"
         fill="#1f1f1f"
         id="path27" />
      <path
         d="M29.31152,317.06641l-1.63281-2.24219a.51886.51886,0,0,1-.09473-.29151.40608.40608,0,0,1,.41993-.3999.48091.48091,0,0,1,.40722.251l1.32032,1.90381,1.34179-1.91065a.47823.47823,0,0,1,.39942-.25049.39566.39566,0,0,1,.40722.40625.50945.50945,0,0,1-.11523.29834l-1.61914,2.21534v1.48388a.417.417,0,0,1-.834,0Z"
         fill="#1f1f1f"
         id="path29" />
    </g>
    <g
       id="g39">
      <path
         d="M14.93555,27.66064,12.0957,20.86621a1.19766,1.19766,0,0,1-.11328-.46289.94554.94554,0,0,1,.96387-.95068,1.00032,1.00032,0,0,1,.97559.67529l2.19042,5.668,2.21387-5.73047a.99864.99864,0,0,1,.92578-.61279.92914.92914,0,0,1,.95117.92578,1.12318,1.12318,0,0,1-.0996.42529l-2.86524,6.85693a1.13167,1.13167,0,0,1-1.08887.76319h-.125A1.13165,1.13165,0,0,1,14.93555,27.66064Z"
         id="path33" />
      <path
         d="M21.64355,20.416a.96338.96338,0,1,1,1.92676,0v6.98144a.96338.96338,0,1,1-1.92676,0Z"
         id="path35" />
      <path
         d="M25.30469,27.43555v-.03809a1.35575,1.35575,0,0,1,.35058-.90039l4.542-5.28027H26.30566a.84906.84906,0,0,1-.85058-.83838.86.86,0,0,1,.85058-.85108h5.59278a.86018.86018,0,0,1,.85156.85108v.0376a1.38072,1.38072,0,0,1-.35059.90087l-4.542,5.27979h4.041a.86017.86017,0,0,1,.85156.85107.84928.84928,0,0,1-.85156.83838H26.15625A.86039.86039,0,0,1,25.30469,27.43555Z"
         id="path37" />
    </g>
  </g>
  <g
     id="b7f3c585-bc80-4700-89be-f9c3dbe33dbd"
     data-name="components"
     inkscape:groupmode="layer"
     style="display:none">
    <circle
       id="b316d787-fbe9-48b7-af86-7b559295a9a0"
       data-name="Poly#PJ301MPort"
       cx="22.500031"
       cy="334"
       r="5"
       style="fill:#00ff00" />
    <rect
       id="ec9dac3c-8600-4714-ac89-1ca8235b202d"
       data-name="Screen"
       x="0.0094299996"
       y="38.5"
       width="44.99057"
       height="263.81198"
       style="fill:#ffff00" />
    <path
       id="a738cb83-2bec-4c75-ad4b-f3faa67405e3"
       data-name="Viz01#RedLight"
       d="m 32.06413,50.35079 a 2.9572,2.9572 0 1 0 2.95678,2.95761 2.95726,2.95726 0 0 0 -2.95678,-2.95761"
       inkscape:connector-curvature="0"
       style="fill:#ff00ff" />
    <path
       id="be0c28f2-d866-4418-8214-6c352f6b1a6d"
       data-name="Viz02#RedLight"
       d="M 32.06413,65.993 A 2.9572,2.9572 0 1 0 35.02091,68.95061 2.95726,2.95726 0 0 0 32.06413,65.993"
       inkscape:connector-curvature="0"
       style="fill:#ff00ff" />
    <path
       id="e85e0c58-aa6b-4289-af1c-3011309e1e2d"
       data-name="Viz03#RedLight"
       d="m 32.06413,81.63517 a 2.9572,2.9572 0 1 0 2.95678,2.95761 2.95725,2.95725 0 0 0 -2.95678,-2.95761"
       inkscape:connector-curvature="0"
       style="fill:#ff00ff" />
    <path
       id="bd060286-7cf5-4364-a6f0-f97535566d3b"
       data-name="Viz04#RedLight"
       d="m 32.06413,97.27736 a 2.9572,2.9572 0 1 0 2.95678,2.95761 2.95725,2.95725 0 0 0 -2.95678,-2.95761"
       inkscape:connector-curvature="0"
       style="fill:#ff00ff" />
    <path
       id="a2a5d779-761f-40c8-8b34-165ba96232ef"
       data-name="Viz05#RedLight"
       d="m 32.06413,112.91955 a 2.9572,2.9572 0 1 0 2.95678,2.95761 2.95725,2.95725 0 0 0 -2.95678,-2.95761"
       inkscape:connector-curvature="0"
       style="fill:#ff00ff" />
    <path
       id="f1d5e052-5737-49c1-b5d8-86c945792406"
       data-name="Viz06#RedLight"
       d="m 32.06413,128.56173 a 2.9572,2.9572 0 1 0 2.95678,2.95762 2.95727,2.95727 0 0 0 -2.95678,-2.95762"
       inkscape:connector-curvature="0"
       style="fill:#ff00ff" />
    <path
       id="b1d22013-9978-4d5e-b9ab-b78b3ef18f74"
       data-name="Viz07#RedLight"
       d="m 32.06413,144.20392 a 2.9572,2.9572 0 1 0 2.95678,2.95762 2.95727,2.95727 0 0 0 -2.95678,-2.95762"
       inkscape:connector-curvature="0"
       style="fill:#ff00ff" />
    <path
       id="b4aa208f-29f3-4f29-8b76-cf6911e754e7"
       data-name="Viz08#RedLight"
       d="m 32.06413,159.84611 a 2.9572,2.9572 0 1 0 2.95678,2.95762 2.95727,2.95727 0 0 0 -2.95678,-2.95762"
       inkscape:connector-curvature="0"
       style="fill:#ff00ff" />
    <path
       id="fb234c65-d014-4d90-b008-a118c103c162"
       data-name="Viz09#RedLight"
       d="m 32.06413,175.4883 a 2.9572,2.9572 0 1 0 2.95678,2.95762 2.95727,2.95727 0 0 0 -2.95678,-2.95762"
       inkscape:connector-curvature="0"
       style="fill:#ff00ff" />
    <path
       id="bcc91c36-0d79-434c-8b71-a61a285ec8b2"
       data-name="Viz10#RedLight"
       d="m 32.06413,191.13049 a 2.9572,2.9572 0 1 0 2.95678,2.95761 2.95726,2.95726 0 0 0 -2.95678,-2.95761"
       inkscape:connector-curvature="0"
       style="fill:#ff00ff" />
    <path
       id="ff26f033-6c49-4097-9c80-513ecb0d37ae"
       data-name="Viz11#RedLight"
       d="m 32.06413,206.77268 a 2.9572,2.9572 0 1 0 2.95678,2.95761 2.95726,2.95726 0 0 0 -2.95678,-2.95761"
       inkscape:connector-curvature="0"
       style="fill:#ff00ff" />
    <path
       id="b167d49e-5d45-4a75-9619-ee0b949dffba"
       data-name="Viz12#RedLight"
       d="m 32.06413,222.41487 a 2.9572,2.9572 0 1 0 2.95678,2.95761 2.95726,2.95726 0 0 0 -2.95678,-2.95761"
       inkscape:connector-curvature="0"
       style="fill:#ff00ff" />
    <path
       id="e7e19aaa-128a-408c-b3e8-326320883bbd"
       data-name="Viz13#RedLight"
       d="m 32.06413,238.05706 a 2.9572,2.9572 0 1 0 2.95678,2.95761 2.95725,2.95725 0 0 0 -2.95678,-2.95761"
       inkscape:connector-curvature="0"
       style="fill:#ff00ff" />
    <path
       id="b0b208d4-3cbd-4123-a6cd-a37202080f38"
       data-name="Viz14#RedLight"
       d="m 32.06413,253.69925 a 2.9572,2.9572 0 1 0 2.95678,2.95761 2.95725,2.95725 0 0 0 -2.95678,-2.95761"
       inkscape:connector-curvature="0"
       style="fill:#ff00ff" />
    <path
       id="f363b55a-6ce5-48f0-b481-c589380adc0c"
       data-name="Viz15#RedLight"
       d="m 32.06413,269.34143 a 2.9572,2.9572 0 1 0 2.95678,2.95762 2.95727,2.95727 0 0 0 -2.95678,-2.95762"
       inkscape:connector-curvature="0"
       style="fill:#ff00ff" />
    <path
       id="fd7b9cfd-8efe-4008-a366-7629c9ec33ee"
       data-name="Viz16#RedLight"
       d="m 32.06413,284.98362 a 2.9572,2.9572 0 1 0 2.95678,2.95762 2.95727,2.95727 0 0 0 -2.95678,-2.95762"
       inkscape:connector-curvature="0"
       style="fill:#ff00ff" />
  </g>
</svg>
