<?xml version="1.0" encoding="UTF-8"?>
<svg xmlns="http://www.w3.org/2000/svg" width="105" height="380" xmlns:xlink="http://www.w3.org/1999/xlink" viewBox="0 0 105 380">
  <defs>
    <linearGradient id="uuid-7f47731c-324e-4180-bd8b-b59e3a8e4008" x1="52.5" y1="0" x2="52.5" y2="380" gradientUnits="userSpaceOnUse">
      <stop offset="0" stop-color="#2a2a2b"/>
      <stop offset="1" stop-color="#171717"/>
    </linearGradient>
  </defs>
  <g id="uuid-ab0c3408-e7fa-4fab-90d3-6dbc8149aa7c" data-name="FND BG">
    <rect width="105" height="380" fill="url(#uuid-7f47731c-324e-4180-bd8b-b59e3a8e4008)"/>
  </g>
  <g id="uuid-643fe3ec-ad22-490f-b2b7-177787b25427" data-name="FND GRAPH">
    <g>
      <path d="m44.35927,359.75298c-.34551,0-.66126-.1952-.8158-.50419l-2.96428-5.92856c-.22526-.45057-.04266-.99844.40794-1.2237.45008-.22535.99831-.04271,1.22366.4079l2.14848,4.29696,2.14848-4.29696c.22526-.45057.77314-.63325,1.22366-.4079.45061.22526.63321.77314.40794,1.2237l-2.96428,5.92856c-.15454.30899-.47029.50419-.8158.50419Z" fill="#ededed"/>
      <path d="m60.64073,359.75298c-.34551,0-.66126-.1952-.8158-.50419l-2.96428-5.92856c-.22526-.45057-.04266-.99844.40794-1.2237.45016-.22535.9984-.04271,1.22366.4079l2.14848,4.29696,2.14848-4.29696c.22526-.45057.77305-.63325,1.22366-.4079.45061.22526.63321.77314.40794,1.2237l-2.96428,5.92856c-.15454.30899-.47029.50419-.8158.50419Z" fill="#ededed"/>
      <path d="m52.94241,359.75298c-2.13744,0-3.87637-1.73893-3.87637-3.87637s1.73893-3.87637,3.87637-3.87637c.84653,0,1.65102.26819,2.32653.77554.40278.30253.48401.87428.18153,1.27705-.30248.40273-.87432.48401-1.2771.18148-.357-.26815-.78267-.4099-1.23096-.4099-1.13156,0-2.05219.92059-2.05219,2.05219s.92064,2.05219,2.05219,2.05219c.44829,0,.87396-.14176,1.23096-.4099.40269-.30271.97444-.22125,1.2771.18148.30248.40278.22125.97453-.18153,1.27705-.67551.50735-1.48.77554-2.32653.77554Z" fill="#ededed"/>
      <circle cx="53.00165" cy="355.83101" r="1.18571" fill="#ededed"/>
    </g>
    <rect x="70.31554" y="309.05634" width="28.6316" height="39.15691" rx="2.83465" ry="2.83465" fill="#ededed"/>
    <line x1="15.12904" y1="202" x2="90.12904" y2="202" fill="none" stroke="#ededed" stroke-linecap="round" stroke-linejoin="round" stroke-width=".8"/>
    <g>
      <circle cx="26.31855" cy="166.5" r="26.48818" fill="none" isolation="isolate" opacity=".69"/>
      <path d="m37.11677,184.60266c6.2955-3.78272,10.15833-10.61025,10.15833-17.95479,0-11.491-9.45566-20.94666-20.94666-20.94666s-20.94666,9.45566-20.94666,20.94666c0,7.39639,3.91756,14.2646,10.28394,18.02967" fill="none" stroke="#ededed" stroke-linecap="round" stroke-miterlimit="10" stroke-width=".8"/>
      <line x1="37.11677" y1="184.60266" x2="26.31855" y2="166.5" fill="none"/>
    </g>
    <g>
      <circle cx="78.68145" cy="166.5" r="26.48818" fill="none" isolation="isolate" opacity=".69"/>
      <path d="m89.47968,184.60266c6.2955-3.78272,10.15833-10.61025,10.15833-17.95479,0-11.491-9.45566-20.94666-20.94666-20.94666s-20.94666,9.45566-20.94666,20.94666c0,7.39639,3.91756,14.2646,10.28394,18.02967" fill="none" stroke="#ededed" stroke-linecap="round" stroke-miterlimit="10" stroke-width=".8"/>
      <line x1="89.47968" y1="184.60266" x2="78.68145" y2="166.5" fill="none"/>
    </g>
    <g>
      <line x1="20.63139" y1="250.87459" x2="20.63139" y2="260.07654" fill="none" stroke="#ededed" stroke-linecap="round" stroke-linejoin="round" stroke-width=".8"/>
      <line x1="20.63139" y1="226.54018" x2="20.63139" y2="238.01957" fill="none" stroke="#ededed" stroke-linecap="round" stroke-linejoin="round"/>
      <path d="m12.47793,246.15346c-2.1616-2.1616-3.37728-5.09649-3.37728-8.15346,0-6.32558,5.20516-11.53074,11.53074-11.53074s11.53074,5.20516,11.53074,11.53074c0,3.05697-1.21567,5.99186-3.37728,8.15346" fill="none" stroke="#ededed" stroke-linecap="round" stroke-linejoin="round"/>
    </g>
    <g>
      <line x1="84.63134" y1="250.87459" x2="84.63134" y2="260.07654" fill="none" stroke="#ededed" stroke-linecap="round" stroke-linejoin="round" stroke-width=".8"/>
      <line x1="84.63134" y1="226.54018" x2="84.63134" y2="238.01957" fill="none" stroke="#ededed" stroke-linecap="round" stroke-linejoin="round"/>
      <path d="m76.47788,246.15346c-2.1616-2.1616-3.37728-5.09649-3.37728-8.15346,0-6.32558,5.20516-11.53074,11.53074-11.53074s11.53074,5.20516,11.53074,11.53074c0,3.05697-1.21567,5.99186-3.37728,8.15346" fill="none" stroke="#ededed" stroke-linecap="round" stroke-linejoin="round"/>
    </g>
  </g>
  <g id="uuid-4b0c167c-ea37-4bee-8b6d-624400d36728" data-name="FND TXT">
    <g>
      <path d="m14.79688,133.27246c0-.29199.22559-.51758.51758-.51758h3.40527c.25879,0,.46777.20898.46777.46777s-.20898.46729-.46777.46729h-2.89648v1.59424h2.52148c.25879,0,.4668.2085.4668.46729s-.20801.46729-.4668.46729h-2.52148v1.91162c0,.28369-.22461.50879-.50879.50879-.29199,0-.51758-.2251-.51758-.50879v-4.85791Z" fill="#ebebeb"/>
      <path d="m20.37109,133.27246c0-.29199.22559-.51758.51758-.51758h2.08691c.73438,0,1.31055.21729,1.68555.58447.30957.31689.48438.75098.48438,1.26025v.0166c0,.93506-.54297,1.50244-1.32715,1.74463l1.11816,1.41064c.10059.125.16699.2334.16699.39209,0,.28369-.24219.47559-.49219.47559-.2334,0-.38379-.1084-.50098-.26709l-1.41895-1.81104h-1.29395v1.56934c0,.28369-.22461.50879-.50879.50879-.29199,0-.51758-.2251-.51758-.50879v-4.85791Zm2.5293,2.37891c.73438,0,1.20215-.38379,1.20215-.97656v-.0166c0-.62598-.45117-.96826-1.21094-.96826h-1.49414v1.96143h1.50293Z" fill="#ebebeb"/>
      <path d="m26.62598,138.08008v-4.80762c0-.29199.22559-.51758.51758-.51758h3.39746c.25,0,.45898.20898.45898.45947,0,.2583-.20898.45898-.45898.45898h-2.88867v1.51904h2.5127c.25,0,.45898.2085.45898.46729,0,.25049-.20898.45068-.45898.45068h-2.5127v1.56934h2.92969c.25098,0,.45996.2085.45996.45898,0,.25879-.20898.45898-.45996.45898h-3.43848c-.29199,0-.51758-.22559-.51758-.51758Z" fill="#ebebeb"/>
      <path d="m31.98633,135.69287v-.0166c0-1.64404,1.26855-3.02148,3.06348-3.02148s3.04688,1.36084,3.04688,3.00488v.0166c0,.65967-.21777,1.28564-.59277,1.79443l.375.30908c.11719.1001.19238.2251.19238.40039,0,.26709-.2168.49268-.48438.49268-.15039,0-.2666-.05859-.3584-.15039l-.41797-.37549c-.49219.35059-1.10156.55078-1.77734.55078-1.79492,0-3.04688-1.36035-3.04688-3.00488Zm3.15527.76807c0-.26709.2168-.49268.48438-.49268.15039,0,.24219.05029.3584.15039l.75098.68457c.18359-.31738.28418-.69287.28418-1.11035v-.0166c0-1.13525-.82617-2.07812-1.98633-2.07812s-1.96973.92627-1.96973,2.06152v.0166c0,1.13525.82617,2.06982,1.98633,2.06982.38379,0,.72656-.1001,1.00977-.26709l-.72559-.61768c-.11719-.1001-.19238-.2251-.19238-.40039Z" fill="#ebebeb"/>
    </g>
    <g>
      <path d="m26.85156,20.75439c-.03711-.11279-.0752-.25049-.0752-.36279,0-.53809.4502-.93848.98828-.93848.4502,0,.81348.2876.93848.68799l1.73926,5.36768,1.75195-5.31738c.15039-.45068.4873-.76367.97559-.76367h.15039c.48828,0,.82617.30078.97656.76367l1.75098,5.31738,1.73926-5.36768c.125-.37549.45117-.68799.92578-.68799.52539,0,.95117.40039.95117.92578,0,.1123-.03711.2627-.0752.37549l-2.45215,6.88135c-.17578.48828-.53809.78857-1.00098.78857h-.2002c-.46289,0-.81348-.2876-.98828-.78857l-1.72656-5.01709-1.72656,5.01709c-.17578.50098-.52637.78857-.98926.78857h-.2002c-.46289,0-.82617-.30029-1.00098-.78857l-2.45215-6.88135Z" fill="#ebebeb"/>
      <path d="m43.4707,21.30469h-1.85156c-.4873,0-.8877-.40039-.8877-.88818s.40039-.88818.8877-.88818h5.63086c.48828,0,.88867.40039.88867.88818s-.40039.88818-.88867.88818h-1.85156v6.09375c0,.53809-.42578.96338-.96387.96338s-.96387-.42529-.96387-.96338v-6.09375Z" fill="#ebebeb"/>
      <path d="m53.2998,20.4165c0-.53809.4248-.96338.96387-.96338.53711,0,.96289.42529.96289.96338v6.11865h3.56641c.4873,0,.875.3877.875.87549s-.3877.87598-.875.87598h-4.5293c-.53906,0-.96387-.42529-.96387-.96338v-6.90674Z" fill="#ebebeb"/>
      <path d="m61.01367,20.49121c0-.5376.42578-.96289.96289-.96289h4.90527c.4873,0,.87598.3877.87598.87549s-.38867.87598-.87598.87598h-3.94141v1.86426h3.37793c.48828,0,.87598.38818.87598.87598s-.3877.87549-.87598.87549h-3.37793v2.50293c0,.53809-.42578.96338-.96387.96338-.53711,0-.96289-.42529-.96289-.96338v-6.90723Z" fill="#ebebeb"/>
      <path d="m68.6709,23.93262v-.02539c0-2.48975,1.96387-4.5293,4.66699-4.5293s4.64258,2.01465,4.64258,4.50439v.0249c0,2.49023-1.96484,4.5293-4.66797,4.5293-2.70215,0-4.6416-2.01416-4.6416-4.50391Zm7.29492,0v-.02539c0-1.50146-1.10156-2.75244-2.65332-2.75244-1.55078,0-2.62695,1.22607-2.62695,2.72754v.0249c0,1.50146,1.10156,2.75293,2.65234,2.75293,1.55176,0,2.62793-1.22656,2.62793-2.72754Z" fill="#ebebeb"/>
    </g>
    <g>
      <path d="m43.31934,268.60645v-.01367c0-1.33447,1.0293-2.45215,2.48633-2.45215,1.45605,0,2.47266,1.104,2.47266,2.43848v.01367c0,1.33496-1.03027,2.45264-2.48633,2.45264s-2.47266-1.104-2.47266-2.43896Zm4.08496,0v-.01367c0-.92139-.6709-1.68652-1.6123-1.68652s-1.59863.75195-1.59863,1.67285v.01367c0,.92139.66992,1.68018,1.6123,1.68018.94141,0,1.59863-.74512,1.59863-1.6665Z" fill="#ebebeb"/>
      <path d="m49.49609,266.6416c0-.2373.18262-.41992.41992-.41992h2.76367c.20996,0,.37891.16943.37891.37939s-.16895.37939-.37891.37939h-2.35059v1.29395h2.0459c.20996,0,.37891.16943.37891.37939s-.16895.37939-.37891.37939h-2.0459v1.55176c0,.22998-.18262.41309-.41309.41309-.2373,0-.41992-.18311-.41992-.41309v-3.94336Z" fill="#ebebeb"/>
      <path d="m53.92578,270.43555c-.0957-.06738-.16309-.18262-.16309-.31836,0-.2168.17676-.38623.39355-.38623.11523,0,.18945.03369.24414.07471.39258.31152.8125.48779,1.32715.48779s.84082-.24365.84082-.59619v-.01367c0-.33887-.19043-.52148-1.07129-.72461-1.00879-.24414-1.57812-.54199-1.57812-1.41602v-.01367c0-.81299.67676-1.37549,1.61914-1.37549.59668,0,1.07715.15576,1.50391.44043.09473.0542.18262.16943.18262.33203,0,.2168-.17578.38623-.39258.38623-.08105,0-.14941-.02051-.2168-.06104-.36621-.23682-.71875-.35889-1.09082-.35889-.4873,0-.77246.25049-.77246.56201v.01367c0,.36572.2168.52832,1.13184.74512,1.00293.24414,1.51758.60303,1.51758,1.38916v.01367c0,.88721-.69824,1.41553-1.69434,1.41553-.64355,0-1.25293-.20312-1.78125-.59619Z" fill="#ebebeb"/>
      <path d="m59.71875,266.99414h-1.15234c-.2168,0-.38672-.17627-.38672-.38623s.16992-.38623.38672-.38623h3.15039c.20996,0,.37891.17627.37891.38623s-.16895.38623-.37891.38623h-1.1582v3.59082c0,.22998-.18945.41309-.41992.41309s-.41992-.18311-.41992-.41309v-3.59082Z" fill="#ebebeb"/>
    </g>
    <g>
      <path d="m46.875,218.73486c0-.23047.18359-.41357.41992-.41357.23047,0,.41406.18311.41406.41357v3.98389c0,.22998-.18359.41309-.41406.41309-.23633,0-.41992-.18311-.41992-.41309v-3.98389Z" fill="#ebebeb"/>
      <path d="m49.18457,218.74854c0-.23047.18262-.42041.41992-.42041h.08887c.20312,0,.31836.10156.43359.24414l2.37109,3.06934v-2.91357c0-.22363.18262-.40674.40625-.40674.23047,0,.41309.18311.41309.40674v3.98389c0,.23047-.17676.41309-.40625.41309h-.03418c-.19629,0-.31836-.10156-.43359-.25098l-2.43945-3.15674v3.0083c0,.22314-.18262.40625-.40625.40625-.23047,0-.41309-.18311-.41309-.40625v-3.97705Z" fill="#ebebeb"/>
      <path d="m56.04883,222.82715l-1.66016-3.90234c-.02734-.06152-.04688-.12207-.04688-.19678,0-.22363.18262-.40674.41992-.40674.2168,0,.3584.12207.42578.29834l1.36914,3.42139,1.38867-3.44824c.05469-.14258.20312-.27148.40039-.27148.23047,0,.41309.17676.41309.3999,0,.06104-.02051.12891-.04102.17627l-1.66699,3.92969c-.08789.20996-.24316.33838-.48047.33838h-.04785c-.22949,0-.38574-.12842-.47363-.33838Z" fill="#ebebeb"/>
    </g>
    <g>
      <path d="m13.83398,316.55176v-.01367c0-1.34814,1.00879-2.45215,2.44531-2.45215.73145,0,1.21289.2168,1.62598.53516.08789.06738.16309.18262.16309.33203,0,.22998-.18359.40625-.41406.40625-.11523,0-.19629-.04053-.25-.08105-.32617-.26465-.67773-.42676-1.13184-.42676-.90137,0-1.56543.74512-1.56543,1.67285v.01367c0,.92822.6582,1.68018,1.56543,1.68018.50098,0,.83984-.1626,1.18555-.45361.06152-.05469.14941-.09473.25098-.09473.20996,0,.39258.17578.39258.38574,0,.12891-.06055.23047-.13477.29834-.44727.39307-.95605.63672-1.72168.63672-1.38184,0-2.41113-1.07715-2.41113-2.43896Z" fill="#ebebeb"/>
      <path d="m19.25,314.54639c0-.23047.18359-.41357.4209-.41357.22949,0,.41309.18311.41309.41357v3.604h2.14746c.20996,0,.37988.16992.37988.37988s-.16992.37891-.37988.37891h-2.56055c-.2373,0-.4209-.18262-.4209-.41992v-3.94287Z" fill="#ebebeb"/>
      <path d="m23.60352,314.54639c0-.23047.18359-.41357.41992-.41357.23047,0,.41406.18311.41406.41357v2.00537l2.24902-2.2627c.09473-.10156.19629-.15625.3457-.15625.22949,0,.38574.18311.38574.38672,0,.12842-.05371.22363-.14844.31152l-1.47754,1.42285,1.59863,1.98486c.06836.08789.11523.16943.11523.29834,0,.22998-.18262.40625-.41992.40625-.16211,0-.26367-.08105-.35156-.19629l-1.52539-1.94434-.77148.74512v.98242c0,.22998-.18359.41309-.41406.41309-.23633,0-.41992-.18311-.41992-.41309v-3.98389Z" fill="#ebebeb"/>
    </g>
    <g>
      <path d="m16.00781,266.64307c0-.23682.18359-.41992.41992-.41992h2.76465c.20996,0,.37891.16943.37891.37939s-.16895.37939-.37891.37939h-2.35059v1.29395h2.04492c.21094,0,.37988.16943.37988.37939s-.16895.37939-.37988.37939h-2.04492v1.55127c0,.23047-.18359.41357-.41406.41357-.23633,0-.41992-.18311-.41992-.41357v-3.94287Z" fill="#ebebeb"/>
      <path d="m20.58984,266.61621c0-.23047.18359-.41992.4209-.41992h.08789c.18262,0,.30469.09473.38574.22363l1.43652,2.24902,1.44336-2.25586c.08789-.14258.20996-.2168.37891-.2168h.08887c.23633,0,.41992.18945.41992.41992v3.96973c0,.23047-.18359.41357-.41992.41357-.22461,0-.41406-.18994-.41406-.41357v-2.84521l-1.1582,1.74121c-.08789.13525-.19629.2168-.35254.2168-.14941,0-.25684-.08154-.34473-.2168l-1.15234-1.72754v2.83838c0,.23047-.18262.40674-.41309.40674s-.40723-.17627-.40723-.40674v-3.97656Z" fill="#ebebeb"/>
    </g>
    <g>
      <path d="m77.73828,266.64307c0-.23682.18359-.41992.41992-.41992h1.4502c1.11035,0,1.80176.63037,1.80176,1.58545v.01367c0,1.06348-.85352,1.61914-1.89648,1.61914h-.94141v1.14453c0,.23047-.18359.41357-.41406.41357-.23633,0-.41992-.18311-.41992-.41357v-3.94287Zm1.80273,2.04639c.62988,0,1.02246-.35254,1.02246-.84717v-.01318c0-.55566-.39941-.84717-1.02246-.84717h-.96875v1.70752h.96875Z" fill="#ebebeb"/>
      <path d="m82.2793,268.60791v-.01367c0-1.33447,1.0293-2.45264,2.48633-2.45264s2.47266,1.10449,2.47266,2.43945v.01318c0,1.33447-1.0293,2.45264-2.48633,2.45264s-2.47266-1.10449-2.47266-2.43896Zm4.08496,0v-.01367c0-.92139-.6709-1.68701-1.6123-1.68701s-1.59863.75195-1.59863,1.67383v.01318c0,.92139.6709,1.68018,1.6123,1.68018s1.59863-.74512,1.59863-1.6665Z" fill="#ebebeb"/>
      <path d="m88.2832,270.43701c-.09473-.06787-.16211-.18311-.16211-.31836,0-.2168.17578-.38623.39258-.38623.11523,0,.18945.03418.24414.07471.39258.31152.8125.48779,1.32812.48779.51367,0,.83984-.24414.83984-.59619v-.01367c0-.33838-.18945-.52148-1.07031-.7251-1.00977-.24365-1.5791-.54199-1.5791-1.41602v-.01318c0-.81299.67773-1.37549,1.61914-1.37549.59668,0,1.07715.15625,1.50391.44043.09473.0542.18262.16943.18262.33203,0,.2168-.17578.38623-.39258.38623-.08105,0-.14844-.02051-.2168-.06104-.36523-.2373-.71777-.35938-1.09082-.35938-.4873,0-.77246.25098-.77246.5625v.01367c0,.36572.2168.52832,1.13184.74512,1.00293.24414,1.51758.60303,1.51758,1.38867v.01367c0,.8877-.69824,1.41602-1.69434,1.41602-.64258,0-1.25293-.20312-1.78125-.59619Z" fill="#ebebeb"/>
    </g>
    <g>
      <path d="m78.82715,314.83105c-.02051-.06104-.04004-.13574-.04004-.19629,0-.2915.24316-.5083.53516-.5083.24316,0,.44043.15576.50781.37256l.94141,2.90625.94922-2.87891c.08105-.24414.26367-.41357.52832-.41357h.08105c.26465,0,.44727.1626.52832.41357l.94824,2.87891.94238-2.90625c.06738-.20312.24316-.37256.50098-.37256.28418,0,.51465.2168.51465.50146,0,.06055-.02051.14209-.04004.20312l-1.32812,3.72607c-.09473.26416-.29102.42676-.54199.42676h-.1084c-.25098,0-.44043-.15576-.53516-.42676l-.93555-2.7168-.93457,2.7168c-.09473.271-.28418.42676-.53516.42676h-.1084c-.25098,0-.44727-.1626-.54199-.42676l-1.32812-3.72607Z" fill="#1f1f1f"/>
      <path d="m87.98535,315.12891h-1.00293c-.26367,0-.48047-.2168-.48047-.48096s.2168-.48096.48047-.48096h3.04883c.26465,0,.48145.2168.48145.48096s-.2168.48096-.48145.48096h-1.00293v3.2998c0,.29102-.23047.52148-.52148.52148s-.52148-.23047-.52148-.52148v-3.2998Z" fill="#1f1f1f"/>
    </g>
    <g>
      <path d="m41.42773,314.58691c0-.2373.18359-.41992.4209-.41992h1.69336c.59668,0,1.06348.17627,1.36816.47412.25098.25732.39355.60986.39355,1.02295v.01367c0,.75879-.44043,1.21973-1.07715,1.41602l.9082,1.14502c.08105.10156.13477.18994.13477.31836,0,.23047-.19629.38623-.39941.38623-.19043,0-.31152-.08789-.40723-.2168l-1.15137-1.47021h-1.0498v1.27393c0,.22998-.18359.41309-.41309.41309-.2373,0-.4209-.18311-.4209-.41309v-3.94336Zm2.05371,1.93066c.5957,0,.97559-.31152.97559-.79248v-.01318c0-.5083-.36621-.78613-.98242-.78613h-1.21289v1.5918h1.21973Z" fill="#ebebeb"/>
      <path d="m46.56055,318.48926v-3.90234c0-.2373.18359-.41992.41992-.41992h2.75781c.20312,0,.37305.16943.37305.37256,0,.20996-.16992.37256-.37305.37256h-2.34375v1.2334h2.03906c.20312,0,.37305.16895.37305.37891,0,.20361-.16992.36621-.37305.36621h-2.03906v1.27344h2.37793c.20312,0,.37207.16943.37207.37305,0,.20996-.16895.37207-.37207.37207h-2.79199c-.23633,0-.41992-.18262-.41992-.41992Z" fill="#ebebeb"/>
      <path d="m51.17578,318.38086c-.0957-.06738-.16309-.18262-.16309-.31836,0-.2168.17676-.38623.39355-.38623.11426,0,.18945.03369.24316.07471.39355.31152.81348.48779,1.32812.48779s.83984-.24365.83984-.59619v-.01367c0-.33887-.18945-.52148-1.07031-.72461-1.00977-.24414-1.5791-.54199-1.5791-1.41602v-.01367c0-.81299.67773-1.37549,1.61914-1.37549.59668,0,1.07812.15576,1.50488.44043.09473.0542.18262.16943.18262.33203,0,.2168-.17578.38623-.39258.38623-.08203,0-.14941-.02051-.2168-.06104-.36621-.23682-.71875-.35889-1.09082-.35889-.48828,0-.77246.25049-.77246.56201v.01367c0,.36572.2168.52832,1.13086.74512,1.00293.24414,1.51758.60303,1.51758,1.38916v.01367c0,.88721-.69727,1.41553-1.69336,1.41553-.64355,0-1.25391-.20312-1.78125-.59619Z" fill="#ebebeb"/>
      <path d="m55.86133,318.48926v-3.90234c0-.2373.18359-.41992.41992-.41992h2.75781c.20312,0,.37305.16943.37305.37256,0,.20996-.16992.37256-.37305.37256h-2.34375v1.2334h2.03906c.20312,0,.37305.16895.37305.37891,0,.20361-.16992.36621-.37305.36621h-2.03906v1.27344h2.37793c.20312,0,.37207.16943.37207.37305,0,.20996-.16895.37207-.37207.37207h-2.79199c-.23633,0-.41992-.18262-.41992-.41992Z" fill="#ebebeb"/>
      <path d="m61.8252,314.93945h-1.15137c-.2168,0-.38672-.17627-.38672-.38623s.16992-.38623.38672-.38623h3.15039c.20898,0,.37891.17627.37891.38623s-.16992.38623-.37891.38623h-1.15918v3.59082c0,.22998-.18945.41309-.41992.41309s-.41992-.18311-.41992-.41309v-3.59082Z" fill="#ebebeb"/>
    </g>
    <g>
      <path d="m61.19434,133.43604c-.02539-.05859-.04199-.13379-.04199-.2002,0-.28418.24219-.50098.52539-.50098.25098,0,.44238.15869.50977.37549l1.34375,4.01465,1.31836-3.99805c.08398-.2417.25879-.40869.51758-.40869h.0752c.25879,0,.44238.16699.51758.40869l1.31836,3.99805,1.34375-4.02295c.0752-.2085.25098-.36719.50098-.36719.27539,0,.50977.2168.50977.49219,0,.06689-.02539.15039-.05078.20898l-1.72754,4.84082c-.0918.25879-.2832.42578-.53418.42578h-.09961c-.25098,0-.43457-.15869-.52637-.42578l-1.30176-3.81445-1.30273,3.81445c-.0918.26709-.2832.42578-.53418.42578h-.09961c-.25098,0-.43457-.15869-.53418-.42578l-1.72754-4.84082Z" fill="#ebebeb"/>
      <path d="m72.48535,133.72803h-1.41895c-.2666,0-.47559-.2168-.47559-.47559s.20898-.47607.47559-.47607h3.88184c.25879,0,.4668.21729.4668.47607s-.20801.47559-.4668.47559h-1.42773v4.42383c0,.28369-.2334.50879-.51758.50879-.2832,0-.51758-.2251-.51758-.50879v-4.42383Z" fill="#ebebeb"/>
      <path d="m78.96582,133.29395c0-.29199.22559-.51758.51758-.51758h1.78613c1.36914,0,2.2207.77637,2.2207,1.95312v.0166c0,1.31055-1.05176,1.99512-2.33789,1.99512h-1.16016v1.41064c0,.28369-.22461.50879-.50879.50879-.29199,0-.51758-.2251-.51758-.50879v-4.85791Zm2.2207,2.52051c.77637,0,1.25977-.43359,1.25977-1.04297v-.0166c0-.68457-.49219-1.04346-1.25977-1.04346h-1.19434v2.10303h1.19434Z" fill="#ebebeb"/>
      <path d="m84.49219,135.71436v-.0166c0-1.64404,1.26855-3.02148,3.06348-3.02148s3.04688,1.36084,3.04688,3.00488v.0166c0,1.64453-1.26953,3.02148-3.06348,3.02148-1.79492,0-3.04688-1.36035-3.04688-3.00488Zm5.0332,0v-.0166c0-1.13525-.82617-2.07812-1.98633-2.07812s-1.96973.92627-1.96973,2.06152v.0166c0,1.13525.82617,2.06982,1.98633,2.06982s1.96973-.91797,1.96973-2.05322Z" fill="#ebebeb"/>
      <path d="m91.81836,137.96826c-.11621-.0835-.2002-.22559-.2002-.39258,0-.26709.2168-.47559.48438-.47559.1416,0,.2334.0415.30078.0918.4834.38379,1.00098.60107,1.63574.60107.63379,0,1.03516-.30078,1.03516-.73486v-.0166c0-.41699-.23438-.64258-1.31934-.89307-1.24316-.30029-1.94434-.66748-1.94434-1.74414v-.01709c0-1.00146.83496-1.69434,1.99512-1.69434.73438,0,1.32617.19238,1.85254.54297.11719.06641.22559.2085.22559.40869,0,.26709-.21777.47559-.48438.47559-.10059,0-.18359-.0249-.26758-.07471-.4502-.29248-.88379-.44238-1.34375-.44238-.60059,0-.95117.30859-.95117.69238v.01709c0,.45068.26758.65088,1.39355.91797,1.23535.30029,1.87012.74268,1.87012,1.71094v.0166c0,1.09375-.85938,1.74463-2.08691,1.74463-.79297,0-1.54395-.25049-2.19531-.73438Z" fill="#ebebeb"/>
    </g>
  </g>
</svg>