<?xml version="1.0" encoding="UTF-8" standalone="no"?>
<svg
   xmlns:dc="http://purl.org/dc/elements/1.1/"
   xmlns:cc="http://creativecommons.org/ns#"
   xmlns:rdf="http://www.w3.org/1999/02/22-rdf-syntax-ns#"
   xmlns:svg="http://www.w3.org/2000/svg"
   xmlns="http://www.w3.org/2000/svg"
   xmlns:sodipodi="http://sodipodi.sourceforge.net/DTD/sodipodi-0.dtd"
   xmlns:inkscape="http://www.inkscape.org/namespaces/inkscape"
   width="105"
   height="380"
   viewBox="0 0 105 380"
   version="1.1"
   id="svg166"
   sodipodi:docname="WTLFO.svg"
   inkscape:version="0.92.3 (2405546, 2018-03-11)">
  <metadata
     id="metadata170">
    <rdf:RDF>
      <cc:Work
         rdf:about="">
        <dc:format>image/svg+xml</dc:format>
        <dc:type
           rdf:resource="http://purl.org/dc/dcmitype/StillImage" />
      </cc:Work>
    </rdf:RDF>
  </metadata>
  <sodipodi:namedview
     pagecolor="#ffffff"
     bordercolor="#666666"
     borderopacity="1"
     objecttolerance="10"
     gridtolerance="10"
     guidetolerance="10"
     inkscape:pageopacity="0"
     inkscape:pageshadow="2"
     inkscape:window-width="1920"
     inkscape:window-height="1017"
     id="namedview168"
     showgrid="false"
     inkscape:zoom="0.62105263"
     inkscape:cx="52.5"
     inkscape:cy="190"
     inkscape:window-x="-8"
     inkscape:window-y="-8"
     inkscape:window-maximized="1"
     inkscape:current-layer="svg166" />
  <defs
     id="defs7">
    <linearGradient
       id="a9ab1653-35f1-420f-b471-ae2549273d21"
       x1="52.5"
       x2="52.5"
       y2="380"
       gradientUnits="userSpaceOnUse">
      <stop
         offset="0"
         stop-color="#ebebeb"
         id="stop2" />
      <stop
         offset="1"
         stop-color="#e1e1e1"
         id="stop4" />
    </linearGradient>
  </defs>
  <g
     id="aac510e2-d5f8-43a7-b273-546a77f3e7ac"
     data-name="FND BG">
    <rect
       width="105"
       height="380"
       fill="url(#a9ab1653-35f1-420f-b471-ae2549273d21)"
       id="rect9" />
  </g>
  <g
     id="b5c38ce6-12fc-4898-abd4-3f38ba3d6d34"
     data-name="FND GRAPH">
    <g
       id="g20">
      <path
         d="M44.35927,359.753a.91214.91214,0,0,1-.8158-.50418l-2.96428-5.92857a.91209.91209,0,0,1,1.6316-.8158l2.14848,4.297,2.14848-4.297a.91209.91209,0,0,1,1.6316.8158l-2.96428,5.92857A.91213.91213,0,0,1,44.35927,359.753Z"
         fill="#1f1f1f"
         id="path12" />
      <path
         d="M60.64073,359.753a.91211.91211,0,0,1-.8158-.50418l-2.96429-5.92857a.9121.9121,0,0,1,1.63161-.8158l2.14848,4.297,2.14848-4.297a.91209.91209,0,0,1,1.6316.8158l-2.96428,5.92857A.91214.91214,0,0,1,60.64073,359.753Z"
         fill="#1f1f1f"
         id="path14" />
      <path
         d="M52.94241,359.753a3.87637,3.87637,0,1,1,2.32654-6.97719.91209.91209,0,1,1-1.09558,1.45854,2.03394,2.03394,0,0,0-1.231-.40991,2.0522,2.0522,0,0,0,0,4.10439,2.03394,2.03394,0,0,0,1.231-.40991.91209.91209,0,1,1,1.09558,1.45854A3.84483,3.84483,0,0,1,52.94241,359.753Z"
         fill="#1f1f1f"
         id="path16" />
      <circle
         cx="53.00165"
         cy="355.83101"
         r="1.18571"
         fill="#1f1f1f"
         id="circle18" />
    </g>
    <rect
       x="70.31554"
       y="309.05634"
       width="28.6316"
       height="39.15691"
       rx="2.83465"
       fill="#1f1f1f"
       id="rect22" />
    <line
       x1="15.12904"
       y1="202"
       x2="90.12904"
       y2="202"
       fill="none"
       stroke="#1f1f1f"
       stroke-linecap="round"
       stroke-linejoin="round"
       stroke-width="0.8"
       id="line24" />
    <g
       id="g32">
      <circle
         cx="26.31855"
         cy="166.5"
         r="26.48818"
         fill="none"
         opacity="0.69"
         style="isolation: isolate"
         id="circle26" />
      <path
         d="M37.11677,184.60266a20.94666,20.94666,0,1,0-21.45105.07488"
         fill="none"
         stroke="#1f1f1f"
         stroke-linecap="round"
         stroke-miterlimit="10"
         stroke-width="0.8"
         id="path28" />
      <line
         x1="37.11677"
         y1="184.60266"
         x2="26.31855"
         y2="166.5"
         fill="none"
         id="line30" />
    </g>
    <g
       id="g40">
      <circle
         cx="78.68145"
         cy="166.5"
         r="26.48818"
         fill="none"
         opacity="0.69"
         style="isolation: isolate"
         id="circle34" />
      <path
         d="M89.47968,184.60266a20.94666,20.94666,0,1,0-21.451.07488"
         fill="none"
         stroke="#1f1f1f"
         stroke-linecap="round"
         stroke-miterlimit="10"
         stroke-width="0.8"
         id="path36" />
      <line
         x1="89.47968"
         y1="184.60266"
         x2="78.68145"
         y2="166.5"
         fill="none"
         id="line38" />
    </g>
    <g
       id="g48">
      <line
         x1="20.63139"
         y1="250.87459"
         x2="20.63139"
         y2="260.07654"
         fill="none"
         stroke="#1f1f1f"
         stroke-linecap="round"
         stroke-linejoin="round"
         stroke-width="0.8"
         id="line42" />
      <line
         x1="20.63139"
         y1="226.54018"
         x2="20.63139"
         y2="238.01957"
         fill="none"
         stroke="#1f1f1f"
         stroke-linecap="round"
         stroke-linejoin="round"
         id="line44" />
      <path
         d="M12.47793,246.15346a11.53074,11.53074,0,1,1,16.30692,0"
         fill="none"
         stroke="#1f1f1f"
         stroke-linecap="round"
         stroke-linejoin="round"
         id="path46" />
    </g>
    <g
       id="g56">
      <line
         x1="84.63134"
         y1="250.87459"
         x2="84.63134"
         y2="260.07654"
         fill="none"
         stroke="#1f1f1f"
         stroke-linecap="round"
         stroke-linejoin="round"
         stroke-width="0.8"
         id="line50" />
      <line
         x1="84.63134"
         y1="226.54018"
         x2="84.63134"
         y2="238.01957"
         fill="none"
         stroke="#1f1f1f"
         stroke-linecap="round"
         stroke-linejoin="round"
         id="line52" />
      <path
         d="M76.47788,246.15346a11.53074,11.53074,0,1,1,16.30692,0"
         fill="none"
         stroke="#1f1f1f"
         stroke-linecap="round"
         stroke-linejoin="round"
         id="path54" />
    </g>
  </g>
  <g
     id="bb36efdf-32fc-4bde-995c-22b59db43d11"
     data-name="FND TXT">
    <g
       id="g67">
      <path
         d="M14.79688,133.27246a.50991.50991,0,0,1,.51757-.51758h3.40528a.46753.46753,0,1,1,0,.93506H15.82324v1.59424h2.52149a.46729.46729,0,0,1,0,.93457H15.82324v1.91162a.5132.5132,0,0,1-1.02636,0Z"
         fill="#1f1f1f"
         id="path59" />
      <path
         d="M20.37109,133.27246a.50992.50992,0,0,1,.51758-.51758h2.08692a2.3523,2.3523,0,0,1,1.68554.58448,1.76218,1.76218,0,0,1,.48438,1.26025v.0166a1.72961,1.72961,0,0,1-1.32715,1.74463l1.11816,1.41064a.59222.59222,0,0,1,.167.39209.48409.48409,0,0,1-.49219.47559.58766.58766,0,0,1-.501-.26709l-1.41894-1.811h-1.294v1.56933a.5132.5132,0,0,1-1.02637,0Zm2.5293,2.37891c.73438,0,1.20215-.38379,1.20215-.97657v-.0166c0-.626-.45117-.96826-1.21094-.96826H21.39746v1.96143Z"
         fill="#1f1f1f"
         id="path61" />
      <path
         d="M26.626,138.08008v-4.80762a.50991.50991,0,0,1,.51757-.51758H30.541a.46363.46363,0,0,1,.459.45948.45812.45812,0,0,1-.459.459H27.65234v1.519H30.165a.465.465,0,0,1,.459.46729.45609.45609,0,0,1-.459.45068h-2.5127v1.56934H30.582a.4634.4634,0,0,1,.46.459.458.458,0,0,1-.46.459H27.14355A.50991.50991,0,0,1,26.626,138.08008Z"
         fill="#1f1f1f"
         id="path63" />
      <path
         d="M31.98633,135.69287v-.0166a3.05548,3.05548,0,0,1,6.11035-.0166v.0166a3.02639,3.02639,0,0,1-.59277,1.79443l.375.30909a.50152.50152,0,0,1,.19238.40039.48967.48967,0,0,1-.84277.34228l-.418-.37549a3.0358,3.0358,0,0,1-1.77735.55078A2.96578,2.96578,0,0,1,31.98633,135.69287Zm3.15527.76807a.49177.49177,0,0,1,.48438-.49268.4969.4969,0,0,1,.3584.15039l.751.68457a2.196,2.196,0,0,0,.28418-1.11035v-.0166a2.00151,2.00151,0,0,0-1.98633-2.07813,1.9739,1.9739,0,0,0-1.96972,2.06153v.0166a1.999,1.999,0,0,0,2.99609,1.80273l-.72559-.61767A.50155.50155,0,0,1,35.1416,136.46094Z"
         fill="#1f1f1f"
         id="path65" />
    </g>
    <g
       id="g79">
      <path
         d="M26.85156,20.75439a1.26906,1.26906,0,0,1-.07519-.36279.95647.95647,0,0,1,.98828-.93848.97251.97251,0,0,1,.93847.688l1.73926,5.36768,1.752-5.31738a1.01409,1.01409,0,0,1,.97558-.76368h.15039a1.00172,1.00172,0,0,1,.97657.76368l1.751,5.31738,1.73926-5.36768a.96435.96435,0,0,1,.92578-.688.92975.92975,0,0,1,.95117.92579,1.31914,1.31914,0,0,1-.07519.37548l-2.45215,6.88135a1.0681,1.0681,0,0,1-1.001.78858h-.20019a1.03787,1.03787,0,0,1-.98828-.78858L33.2207,22.61865l-1.72656,5.01709a1.0398,1.0398,0,0,1-.98926.78858h-.20019a1.06722,1.06722,0,0,1-1.001-.78858Z"
         fill="#1f1f1f"
         id="path69" />
      <path
         d="M43.4707,21.30469H41.61914a.88819.88819,0,0,1,0-1.77637H47.25a.88819.88819,0,1,1,0,1.77637H45.39844v6.09375a.96387.96387,0,0,1-1.92774,0Z"
         fill="#1f1f1f"
         id="path71" />
      <path
         d="M53.2998,20.4165a.96338.96338,0,1,1,1.92676,0v6.11866H58.793a.87573.87573,0,0,1,0,1.75146h-4.5293a.95557.95557,0,0,1-.96387-.96338Z"
         fill="#1f1f1f"
         id="path73" />
      <path
         d="M61.01367,20.49121a.95585.95585,0,0,1,.96289-.96289h4.90528a.87574.87574,0,1,1,0,1.75147H62.94043V23.144h3.37793a.87574.87574,0,1,1,0,1.75147H62.94043v2.50293a.96338.96338,0,1,1-1.92676,0Z"
         fill="#1f1f1f"
         id="path75" />
      <path
         d="M68.6709,23.93262v-.02539a4.65691,4.65691,0,0,1,9.30957-.02491v.02491a4.65692,4.65692,0,0,1-9.30957.02539Zm7.29492,0v-.02539a2.6612,2.6612,0,0,0-2.65332-2.75244,2.61923,2.61923,0,0,0-2.62695,2.72753v.02491a2.66143,2.66143,0,0,0,2.65234,2.75293A2.61973,2.61973,0,0,0,75.96582,23.93262Z"
         fill="#1f1f1f"
         id="path77" />
    </g>
    <g
       id="g89">
      <path
         d="M43.31934,268.60645v-.01368a2.47974,2.47974,0,0,1,4.959-.01367v.01367a2.47973,2.47973,0,0,1-4.959.01368Zm4.085,0v-.01368a1.62461,1.62461,0,0,0-1.61231-1.68652,1.60216,1.60216,0,0,0-1.59863,1.67285v.01367a1.61859,1.61859,0,0,0,1.6123,1.68018A1.5965,1.5965,0,0,0,47.4043,268.60645Z"
         fill="#1f1f1f"
         id="path81" />
      <path
         d="M49.49609,266.6416a.41322.41322,0,0,1,.41993-.41992h2.76367a.3794.3794,0,0,1,0,.75879H50.3291v1.29394H52.375a.3794.3794,0,0,1,0,.75879H50.3291V270.585a.41652.41652,0,0,1-.833,0Z"
         fill="#1f1f1f"
         id="path83" />
      <path
         d="M53.92578,270.43555a.39441.39441,0,0,1,.47461-.62989,2.0549,2.0549,0,0,0,1.32715.4878c.51465,0,.84082-.24366.84082-.59619v-.01368c0-.33886-.19043-.52148-1.07129-.72461-1.00879-.24414-1.57812-.542-1.57812-1.416v-.01367a1.45021,1.45021,0,0,1,1.61914-1.37549,2.60676,2.60676,0,0,1,1.5039.44043.37635.37635,0,0,1,.18262.332.38723.38723,0,0,1-.39258.38623.40385.40385,0,0,1-.2168-.061,1.97709,1.97709,0,0,0-1.09082-.35888c-.4873,0-.77246.25049-.77246.562v.01367c0,.36572.2168.52832,1.13184.74512,1.00293.24414,1.51758.603,1.51758,1.38916v.01367c0,.88721-.69825,1.41553-1.69434,1.41553A2.95,2.95,0,0,1,53.92578,270.43555Z"
         fill="#1f1f1f"
         id="path85" />
      <path
         d="M59.71875,266.99414H58.56641a.38623.38623,0,1,1,0-.77246H61.7168a.3863.3863,0,0,1,0,.77246H60.55859V270.585a.42.42,0,0,1-.83984,0Z"
         fill="#1f1f1f"
         id="path87" />
    </g>
    <g
       id="g97">
      <path
         d="M46.875,218.73486a.417.417,0,0,1,.834,0v3.98389a.417.417,0,0,1-.834,0Z"
         fill="#1f1f1f"
         id="path91" />
      <path
         d="M49.18457,218.74854a.41784.41784,0,0,1,.41992-.42042h.08887a.5245.5245,0,0,1,.43359.24415l2.3711,3.06933V218.728a.40968.40968,0,0,1,.81933,0v3.98388a.405.405,0,0,1-.40625.41309H52.877a.52419.52419,0,0,1-.43359-.251l-2.43945-3.15673v3.0083a.40968.40968,0,0,1-.81934,0Z"
         fill="#1f1f1f"
         id="path93" />
      <path
         d="M56.04883,222.82715l-1.66016-3.90235a.46528.46528,0,0,1-.04687-.19677.41072.41072,0,0,1,.41992-.40674.43441.43441,0,0,1,.42578.29834l1.36914,3.42139,1.38867-3.44825a.42993.42993,0,0,1,.40039-.27148.40374.40374,0,0,1,.41309.3999.47684.47684,0,0,1-.041.17627l-1.667,3.92969a.495.495,0,0,1-.48047.33838h-.04785A.49358.49358,0,0,1,56.04883,222.82715Z"
         fill="#1f1f1f"
         id="path95" />
    </g>
    <g
       id="g105">
      <path
         d="M13.834,316.55176v-.01367a2.39906,2.39906,0,0,1,2.44532-2.45215,2.4874,2.4874,0,0,1,1.626.53515.41627.41627,0,0,1,.16309.332.4171.4171,0,0,1-.66406.3252,1.72043,1.72043,0,0,0-1.13184-.42676,1.59606,1.59606,0,0,0-1.56543,1.67285v.01368a1.59854,1.59854,0,0,0,1.56543,1.68017,1.70156,1.70156,0,0,0,1.18555-.45361.37866.37866,0,0,1,.251-.09473.39573.39573,0,0,1,.39258.38574.40131.40131,0,0,1-.13476.29834,2.42473,2.42473,0,0,1-1.72168.63672A2.38464,2.38464,0,0,1,13.834,316.55176Z"
         fill="#1f1f1f"
         id="path99" />
      <path
         d="M19.25,314.54639a.417.417,0,0,1,.834,0v3.604h2.14747a.3794.3794,0,1,1,0,.75879H19.6709a.414.414,0,0,1-.4209-.41992Z"
         fill="#1f1f1f"
         id="path101" />
      <path
         d="M23.60352,314.54639a.417.417,0,0,1,.834,0v2.00537l2.249-2.2627a.43841.43841,0,0,1,.34571-.15625.382.382,0,0,1,.38574.38672.40482.40482,0,0,1-.14844.31152L25.792,316.25391l1.59863,1.98486a.44838.44838,0,0,1,.11524.29834.40641.40641,0,0,1-.41992.40625.42062.42062,0,0,1-.35156-.19629l-1.5254-1.94434-.77148.74512v.98242a.417.417,0,0,1-.834,0Z"
         fill="#1f1f1f"
         id="path103" />
    </g>
    <g
       id="g111">
      <path
         d="M16.00781,266.64307a.41411.41411,0,0,1,.41992-.41993h2.76465a.3794.3794,0,0,1,0,.75879H16.8418v1.29395h2.04492a.3794.3794,0,1,1,0,.75879H16.8418v1.55127a.417.417,0,0,1-.834,0Z"
         fill="#1f1f1f"
         id="path107" />
      <path
         d="M20.58984,266.61621a.41825.41825,0,0,1,.4209-.41992h.08789a.43787.43787,0,0,1,.38575.22363l1.43652,2.249,1.44336-2.25586a.41807.41807,0,0,1,.3789-.2168H24.832a.418.418,0,0,1,.41992.41992v3.96973a.41271.41271,0,0,1-.41992.41357.41961.41961,0,0,1-.41406-.41357v-2.84522l-1.1582,1.74121a.3887.3887,0,0,1-.69727,0l-1.15234-1.72754v2.83838a.40483.40483,0,0,1-.41309.40674.39991.39991,0,0,1-.40723-.40674Z"
         fill="#1f1f1f"
         id="path109" />
    </g>
    <g
       id="g119">
      <path
         d="M77.73828,266.64307a.41411.41411,0,0,1,.41992-.41993h1.4502a1.59215,1.59215,0,0,1,1.80176,1.58545v.01368c0,1.06347-.85352,1.61914-1.89649,1.61914h-.9414v1.14453a.417.417,0,0,1-.834,0Zm1.80274,2.04638c.62988,0,1.02246-.35254,1.02246-.84716v-.01319c0-.55566-.39942-.84717-1.02246-.84717h-.96875v1.70752Z"
         fill="#1f1f1f"
         id="path113" />
      <path
         d="M82.2793,268.60791v-.01367a2.47973,2.47973,0,0,1,4.959-.01319v.01319a2.47973,2.47973,0,0,1-4.959.01367Zm4.085,0v-.01367a1.625,1.625,0,0,0-1.61231-1.687,1.60242,1.60242,0,0,0-1.59863,1.67382v.01319a1.61919,1.61919,0,0,0,1.6123,1.68017A1.5965,1.5965,0,0,0,86.36426,268.60791Z"
         fill="#1f1f1f"
         id="path115" />
      <path
         d="M88.2832,270.437a.39441.39441,0,0,1,.47461-.62988,2.05559,2.05559,0,0,0,1.32813.48779c.51367,0,.83984-.24414.83984-.59619v-.01367c0-.33838-.18945-.52149-1.07031-.7251-1.00977-.24365-1.5791-.542-1.5791-1.416v-.01319a1.45075,1.45075,0,0,1,1.61914-1.37549,2.61037,2.61037,0,0,1,1.5039.44043.37636.37636,0,0,1,.18262.332.38723.38723,0,0,1-.39258.38623.40622.40622,0,0,1-.21679-.061,1.969,1.969,0,0,0-1.09082-.35938c-.48731,0-.77246.251-.77246.5625v.01368c0,.36572.21679.52832,1.13183.74511,1.00293.24414,1.51758.603,1.51758,1.38868v.01367c0,.88769-.69824,1.416-1.69434,1.416A2.95206,2.95206,0,0,1,88.2832,270.437Z"
         fill="#1f1f1f"
         id="path117" />
    </g>
    <g
       id="g125">
      <path
         d="M78.82715,314.83105a.67243.67243,0,0,1-.04-.19628.51756.51756,0,0,1,.53516-.50831.52648.52648,0,0,1,.50781.37256l.9414,2.90625.94922-2.8789a.54859.54859,0,0,1,.52832-.41358h.08106a.541.541,0,0,1,.52832.41358l.94824,2.8789L84.749,314.499a.521.521,0,0,1,.501-.37256.50332.50332,0,0,1,.51465.50147.75265.75265,0,0,1-.04.20312l-1.32813,3.72608a.57765.57765,0,0,1-.542.42676h-.1084a.56187.56187,0,0,1-.53515-.42676l-.93555-2.7168-.93457,2.7168a.56188.56188,0,0,1-.53516.42676h-.10839a.57767.57767,0,0,1-.542-.42676Z"
         fill="#f0f0f0"
         id="path121" />
      <path
         d="M87.98535,315.12891H86.98242a.481.481,0,0,1,0-.96192h3.04883a.481.481,0,1,1,0,.96192H89.02832v3.2998a.52149.52149,0,1,1-1.043,0Z"
         fill="#f0f0f0"
         id="path123" />
    </g>
    <g
       id="g137">
      <path
         d="M41.42773,314.58691a.414.414,0,0,1,.4209-.41992H43.542a1.90969,1.90969,0,0,1,1.36817.47412,1.43265,1.43265,0,0,1,.39355,1.02295v.01367a1.40346,1.40346,0,0,1-1.07715,1.416l.90821,1.145a.48394.48394,0,0,1,.13476.31836.39277.39277,0,0,1-.39941.38623.47729.47729,0,0,1-.40723-.2168l-1.15137-1.47021h-1.0498v1.27392a.417.417,0,0,1-.834,0Zm2.05372,1.93067c.5957,0,.97558-.31153.97558-.79248v-.01319c0-.5083-.36621-.78613-.98242-.78613H42.26172v1.5918Z"
         fill="#1f1f1f"
         id="path127" />
      <path
         d="M46.56055,318.48926v-3.90235a.4138.4138,0,0,1,.41992-.41992h2.75781a.37641.37641,0,0,1,.373.37256.372.372,0,0,1-.373.37256H47.39453v1.2334h2.03906a.37743.37743,0,0,1,.373.3789.37065.37065,0,0,1-.373.36621H47.39453v1.27344h2.37793a.37566.37566,0,0,1,.37207.373.37072.37072,0,0,1-.37207.37207h-2.792A.4138.4138,0,0,1,46.56055,318.48926Z"
         fill="#1f1f1f"
         id="path129" />
      <path
         d="M51.17578,318.38086a.38831.38831,0,0,1,.23047-.70459.38261.38261,0,0,1,.24316.07471,2.0595,2.0595,0,0,0,1.32813.48779c.51465,0,.83984-.24365.83984-.59619v-.01367c0-.33887-.18945-.52149-1.07031-.72461-1.00977-.24414-1.5791-.542-1.5791-1.416v-.01367a1.45075,1.45075,0,0,1,1.61914-1.37549,2.60993,2.60993,0,0,1,1.50488.44043.37635.37635,0,0,1,.18262.332.38723.38723,0,0,1-.39258.38623.40151.40151,0,0,1-.2168-.061,1.977,1.977,0,0,0-1.09082-.35889c-.48828,0-.77246.25049-.77246.562v.01367c0,.36573.2168.52832,1.13086.74512,1.00293.24414,1.51758.603,1.51758,1.38916v.01367c0,.88721-.69727,1.41553-1.69336,1.41553A2.94784,2.94784,0,0,1,51.17578,318.38086Z"
         fill="#1f1f1f"
         id="path131" />
      <path
         d="M55.86133,318.48926v-3.90235a.4138.4138,0,0,1,.41992-.41992h2.75781a.37641.37641,0,0,1,.373.37256.372.372,0,0,1-.373.37256H56.69531v1.2334h2.03907a.37743.37743,0,0,1,.373.3789.37065.37065,0,0,1-.373.36621H56.69531v1.27344h2.37793a.37566.37566,0,0,1,.37207.373.37072.37072,0,0,1-.37207.37207h-2.792A.4138.4138,0,0,1,55.86133,318.48926Z"
         fill="#1f1f1f"
         id="path133" />
      <path
         d="M61.8252,314.93945H60.67383a.38623.38623,0,1,1,0-.77246h3.15039a.3863.3863,0,0,1,0,.77246H62.665v3.59082a.42.42,0,0,1-.83984,0Z"
         fill="#1f1f1f"
         id="path135" />
    </g>
    <g
       id="g149">
      <path
         d="M61.19434,133.436a.5322.5322,0,0,1-.042-.2002.51315.51315,0,0,1,.52539-.501.52436.52436,0,0,1,.50977.37549l1.34375,4.01465,1.31836-3.99805a.54224.54224,0,0,1,.51758-.40869h.07519a.5346.5346,0,0,1,.51758.40869l1.31836,3.99805,1.34375-4.023a.52441.52441,0,0,1,.501-.36719.50281.50281,0,0,1,.50976.49219.58391.58391,0,0,1-.05078.209l-1.72754,4.84082a.57163.57163,0,0,1-.53418.42578H67.2207a.55318.55318,0,0,1-.52636-.42578l-1.30176-3.81446-1.30274,3.81446a.5618.5618,0,0,1-.53418.42578h-.09961a.56869.56869,0,0,1-.53417-.42578Z"
         fill="#1f1f1f"
         id="path139" />
      <path
         d="M72.48535,133.728H71.06641a.47583.47583,0,0,1,0-.95166h3.88183a.47592.47592,0,0,1,0,.95166H73.52051v4.42383a.51766.51766,0,0,1-1.03516,0Z"
         fill="#1f1f1f"
         id="path141" />
      <path
         d="M78.96582,133.294a.50991.50991,0,0,1,.51758-.51758h1.78613a1.96156,1.96156,0,0,1,2.2207,1.95312v.0166c0,1.31055-1.05175,1.99512-2.33789,1.99512H79.99219v1.41065a.5132.5132,0,0,1-1.02637,0Zm2.2207,2.5205c.77637,0,1.25977-.43359,1.25977-1.043v-.0166c0-.68457-.49219-1.04345-1.25977-1.04345H79.99219v2.103Z"
         fill="#1f1f1f"
         id="path143" />
      <path
         d="M84.49219,135.71436v-.01661a3.05548,3.05548,0,0,1,6.11035-.0166v.0166a3.05548,3.05548,0,0,1-6.11035.01661Zm5.0332,0v-.01661a2.0015,2.0015,0,0,0-1.98633-2.07812,1.9739,1.9739,0,0,0-1.96972,2.06152v.0166a1.99441,1.99441,0,0,0,1.98632,2.06983A1.96687,1.96687,0,0,0,89.52539,135.71436Z"
         fill="#1f1f1f"
         id="path145" />
      <path
         d="M91.81836,137.96826a.48357.48357,0,0,1-.2002-.39258.49748.49748,0,0,1,.78516-.38379,2.53172,2.53172,0,0,0,1.63574.60108c.63379,0,1.03516-.30078,1.03516-.73486v-.01661c0-.417-.23438-.64257-1.31934-.89306-1.24316-.3003-1.94433-.66748-1.94433-1.74414v-.01709a1.78733,1.78733,0,0,1,1.99511-1.69434,3.21478,3.21478,0,0,1,1.85254.543.46214.46214,0,0,1,.22559.40869.47779.47779,0,0,1-.48438.47559.50047.50047,0,0,1-.26757-.07471,2.42359,2.42359,0,0,0-1.34375-.44238c-.60059,0-.95118.30859-.95118.69238v.01709c0,.45068.26758.65088,1.39356.918,1.23535.30029,1.87012.74267,1.87012,1.71094v.0166c0,1.09375-.85938,1.74463-2.08692,1.74463A3.63974,3.63974,0,0,1,91.81836,137.96826Z"
         fill="#1f1f1f"
         id="path147" />
    </g>
  </g>
  <g
     id="e3949997-701e-4623-b7ca-3406c0a3a60b"
     data-name="components"
     inkscape:groupmode="layer"
     style="display:none">
    <rect
       id="e0d40ebc-150f-4bf2-a0d1-a59a1a3eac9c"
       data-name="Screen"
       x="0.01282"
       y="38.505341"
       width="105"
       height="86.29126"
       style="fill:#ffff00" />
    <circle
       id="a04e3c0c-95ff-4aa8-be50-a6c79ac6391e"
       data-name="Wt#PJ301MPort"
       cx="84.63134"
       cy="334"
       r="5"
       style="fill:#0000ff" />
    <circle
       id="abd34417-a0d4-45d4-9818-5c43c2f7d24d"
       data-name="Clk#PJ301MPort"
       cx="20.63139"
       cy="334"
       r="5"
       style="fill:#00ff00" />
    <circle
       id="a48a9d65-f6c4-4ba5-a678-447cfb0a39b4"
       data-name="Fm#PJ301MPort"
       cx="20.63139"
       cy="286"
       r="5"
       style="fill:#00ff00" />
    <circle
       id="e0bff85a-ccee-4470-bc2e-5a8aa30cddde"
       data-name="FmCv#Trimpot"
       cx="20.63139"
       cy="238.00137"
       r="5"
       style="fill:#ff0000" />
    <circle
       id="bf7f0ea4-8516-4eb6-a37a-ce58eb18902b"
       data-name="PosCv#Trimpot"
       cx="84.63134"
       cy="237.80238"
       r="5"
       style="fill:#ff0000" />
    <circle
       id="e51aecfa-6c53-489f-8b18-44e016e80f3b"
       data-name="Pos#PJ301MPort"
       cx="84.63134"
       cy="286"
       r="5"
       style="fill:#00ff00" />
    <circle
       id="a33d9e0f-3ff1-46ab-9d85-895fb23dcb8c"
       data-name="Sync#PJ301MPort"
       cx="52.63134"
       cy="334"
       r="5"
       style="fill:#00ff00" />
    <circle
       id="bb5631f8-89ff-4c44-be96-98a4b8847394"
       data-name="Ofst#LEDButton"
       cx="52.63134"
       cy="286"
       r="5"
       style="fill:#ff0000" />
    <circle
       id="f0fdc1e4-5047-42f9-908f-986e01c42844"
       data-name="Inv#LEDButton"
       cx="52.63134"
       cy="237.74788"
       r="5"
       style="fill:#ff0000" />
    <circle
       id="a1770d31-e9ea-44d5-83fc-f9d84ad5939c"
       data-name="Freq#SmallLight"
       cx="52.35429"
       cy="145.89278"
       r="3"
       style="fill:#ff00ff" />
    <circle
       id="a1b09db7-3640-4893-9fd6-e9a90c7328fe"
       data-name="Freq#RoundLargeBlackKnob"
       cx="26.31855"
       cy="166.5"
       r="5"
       style="fill:#ff0000" />
    <circle
       id="eb0ac970-dafd-45b2-a294-f4a301995daa"
       data-name="Wt#RoundLargeBlackKnob"
       cx="78.68145"
       cy="166.5"
       r="5"
       style="fill:#ff0000" />
  </g>
</svg>
