<?xml version="1.0" encoding="UTF-8" standalone="no"?>
<svg
   xmlns:dc="http://purl.org/dc/elements/1.1/"
   xmlns:cc="http://creativecommons.org/ns#"
   xmlns:rdf="http://www.w3.org/1999/02/22-rdf-syntax-ns#"
   xmlns:svg="http://www.w3.org/2000/svg"
   xmlns="http://www.w3.org/2000/svg"
   xmlns:sodipodi="http://sodipodi.sourceforge.net/DTD/sodipodi-0.dtd"
   xmlns:inkscape="http://www.inkscape.org/namespaces/inkscape"
   width="105"
   height="380"
   viewBox="0 0 105 380"
   version="1.1"
   id="svg172"
   sodipodi:docname="WTVCO.svg"
   inkscape:version="0.92.3 (2405546, 2018-03-11)">
  <metadata
     id="metadata176">
    <rdf:RDF>
      <cc:Work
         rdf:about="">
        <dc:format>image/svg+xml</dc:format>
        <dc:type
           rdf:resource="http://purl.org/dc/dcmitype/StillImage" />
      </cc:Work>
    </rdf:RDF>
  </metadata>
  <sodipodi:namedview
     pagecolor="#ffffff"
     bordercolor="#666666"
     borderopacity="1"
     objecttolerance="10"
     gridtolerance="10"
     guidetolerance="10"
     inkscape:pageopacity="0"
     inkscape:pageshadow="2"
     inkscape:window-width="1920"
     inkscape:window-height="1017"
     id="namedview174"
     showgrid="false"
     inkscape:zoom="0.62105263"
     inkscape:cx="52.5"
     inkscape:cy="190"
     inkscape:window-x="-8"
     inkscape:window-y="-8"
     inkscape:window-maximized="1"
     inkscape:current-layer="svg172" />
  <defs
     id="defs7">
    <linearGradient
       id="bc6b8b4e-70a4-498d-896e-d887edf96652"
       x1="52.5"
       x2="52.5"
       y2="380"
       gradientUnits="userSpaceOnUse">
      <stop
         offset="0"
         stop-color="#ebebeb"
         id="stop2" />
      <stop
         offset="1"
         stop-color="#e1e1e1"
         id="stop4" />
    </linearGradient>
  </defs>
  <g
     id="b33b2172-5c63-4d47-92e0-3edd1b47bf11"
     data-name="FND BG">
    <rect
       width="105"
       height="380"
       fill="url(#bc6b8b4e-70a4-498d-896e-d887edf96652)"
       id="rect9" />
  </g>
  <g
     id="b506e62f-3d28-4627-905a-bd74acc0a76b"
     data-name="FND GRAPH">
    <g
       id="g20">
      <path
         d="M44.21847,359.753a.91214.91214,0,0,1-.8158-.50418l-2.96428-5.92857a.91209.91209,0,0,1,1.6316-.8158l2.14848,4.297,2.14848-4.297a.91209.91209,0,0,1,1.6316.8158l-2.96428,5.92857A.91211.91211,0,0,1,44.21847,359.753Z"
         fill="#1f1f1f"
         id="path12" />
      <path
         d="M60.49993,359.753a.91211.91211,0,0,1-.8158-.50418l-2.96428-5.92857a.91209.91209,0,0,1,1.6316-.8158l2.14848,4.297,2.14848-4.297a.91209.91209,0,0,1,1.6316.8158l-2.96428,5.92857A.91214.91214,0,0,1,60.49993,359.753Z"
         fill="#1f1f1f"
         id="path14" />
      <path
         d="M52.80162,359.753a3.87637,3.87637,0,1,1,2.32653-6.97719.91209.91209,0,1,1-1.09557,1.45854,2.034,2.034,0,0,0-1.231-.40991,2.0522,2.0522,0,1,0,0,4.10439,2.034,2.034,0,0,0,1.231-.40991.91209.91209,0,1,1,1.09557,1.45854A3.8448,3.8448,0,0,1,52.80162,359.753Z"
         fill="#1f1f1f"
         id="path16" />
      <circle
         cx="52.86085"
         cy="355.83101"
         r="1.18571"
         fill="#1f1f1f"
         id="circle18" />
    </g>
    <rect
       x="70.0482"
       y="309.05634"
       width="28.6316"
       height="39.15691"
       rx="2.83465"
       fill="#1f1f1f"
       id="rect22" />
    <line
       x1="52.364"
       y1="300.48282"
       x2="52.364"
       y2="309.3609"
       fill="none"
       stroke="#1f1f1f"
       stroke-linecap="round"
       stroke-linejoin="round"
       stroke-width="0.8"
       id="line24" />
    <line
       x1="40.77353"
       y1="238"
       x2="34.98587"
       y2="238"
       fill="none"
       stroke="#1f1f1f"
       stroke-linecap="round"
       stroke-linejoin="round"
       stroke-width="0.8"
       id="line26" />
    <line
       x1="14.8592"
       y1="202"
       x2="89.85919"
       y2="202"
       fill="none"
       stroke="#1f1f1f"
       stroke-linecap="round"
       stroke-linejoin="round"
       stroke-width="0.8"
       id="line28" />
    <g
       id="g36">
      <circle
         cx="26.3243"
         cy="166.5"
         r="26.48818"
         fill="none"
         opacity="0.69"
         style="isolation: isolate"
         id="circle30" />
      <path
         d="M37.12252,184.60266a20.94665,20.94665,0,1,0-21.451.07488"
         fill="none"
         stroke="#1f1f1f"
         stroke-linecap="round"
         stroke-miterlimit="10"
         stroke-width="0.8"
         id="path32" />
      <line
         x1="37.12252"
         y1="184.60266"
         x2="26.3243"
         y2="166.5"
         fill="none"
         id="line34" />
    </g>
    <g
       id="g44">
      <circle
         cx="78.6757"
         cy="166.5"
         r="26.48818"
         fill="none"
         opacity="0.69"
         style="isolation: isolate"
         id="circle38" />
      <path
         d="M89.47392,184.60266a20.94665,20.94665,0,1,0-21.451.07488"
         fill="none"
         stroke="#1f1f1f"
         stroke-linecap="round"
         stroke-miterlimit="10"
         stroke-width="0.8"
         id="path40" />
      <line
         x1="89.47392"
         y1="184.60266"
         x2="78.6757"
         y2="166.5"
         fill="none"
         id="line42" />
    </g>
    <g
       id="g52">
      <line
         x1="20.36397"
         y1="250.87459"
         x2="20.36397"
         y2="260.07654"
         fill="none"
         stroke="#1f1f1f"
         stroke-linecap="round"
         stroke-linejoin="round"
         stroke-width="0.8"
         id="line46" />
      <line
         x1="20.36397"
         y1="226.54018"
         x2="20.36397"
         y2="238.01957"
         fill="none"
         stroke="#1f1f1f"
         stroke-linecap="round"
         stroke-linejoin="round"
         id="line48" />
      <path
         d="M12.21051,246.15346a11.53074,11.53074,0,1,1,16.30693,0"
         fill="none"
         stroke="#1f1f1f"
         stroke-linecap="round"
         stroke-linejoin="round"
         id="path50" />
    </g>
    <g
       id="g60">
      <line
         x1="84.364"
         y1="250.87459"
         x2="84.364"
         y2="260.07654"
         fill="none"
         stroke="#1f1f1f"
         stroke-linecap="round"
         stroke-linejoin="round"
         stroke-width="0.8"
         id="line54" />
      <line
         x1="84.364"
         y1="226.54018"
         x2="84.364"
         y2="238.01957"
         fill="none"
         stroke="#1f1f1f"
         stroke-linecap="round"
         stroke-linejoin="round"
         id="line56" />
      <path
         d="M76.21054,246.15346a11.53074,11.53074,0,1,1,16.30692,0"
         fill="none"
         stroke="#1f1f1f"
         stroke-linecap="round"
         stroke-linejoin="round"
         id="path58" />
    </g>
  </g>
  <g
     id="ace79046-acc8-4c9a-92d1-6a36173501a0"
     data-name="FND TXT">
    <g
       id="g71">
      <path
         d="M14.76123,133.27246a.50992.50992,0,0,1,.51758-.51758h3.40576a.46753.46753,0,0,1,0,.93506H15.78809v1.59424h2.5205a.46729.46729,0,1,1,0,.93457h-2.5205v1.91162a.51345.51345,0,0,1-1.02686,0Z"
         fill="#1f1f1f"
         id="path63" />
      <path
         d="M20.33545,133.27246a.50992.50992,0,0,1,.51758-.51758h2.08691a2.35524,2.35524,0,0,1,1.686.58448,1.766,1.766,0,0,1,.48388,1.26025v.0166a1.72912,1.72912,0,0,1-1.32715,1.74463l1.11866,1.41064a.59463.59463,0,0,1,.167.39209.48421.48421,0,0,1-.49268.47559.587.587,0,0,1-.501-.26709l-1.41846-1.811H21.3623v1.56933a.51345.51345,0,0,1-1.02685,0Zm2.5293,2.37891c.73437,0,1.20166-.38379,1.20166-.97657v-.0166c0-.626-.45069-.96826-1.21-.96826H21.3623v1.96143Z"
         fill="#1f1f1f"
         id="path65" />
      <path
         d="M26.59082,138.08008v-4.80762a.50992.50992,0,0,1,.51758-.51758h3.397a.46373.46373,0,0,1,.45947.45948.45823.45823,0,0,1-.45947.459H27.61768v1.519h2.5122a.46468.46468,0,0,1,.459.46729.45579.45579,0,0,1-.459.45068h-2.5122v1.56934h2.92968a.46288.46288,0,0,1,.459.459.45752.45752,0,0,1-.459.459h-3.439A.50992.50992,0,0,1,26.59082,138.08008Z"
         fill="#1f1f1f"
         id="path67" />
      <path
         d="M31.95068,135.69287v-.0166a3.055,3.055,0,0,1,6.10938-.0166v.0166a3.02265,3.02265,0,0,1-.59229,1.79443l.37549.30909a.50252.50252,0,0,1,.1919.40039.49.49,0,0,1-.84327.34228l-.417-.37549a3.03839,3.03839,0,0,1-1.77783.55078A2.96567,2.96567,0,0,1,31.95068,135.69287Zm3.15479.76807a.49167.49167,0,0,1,.48389-.49268.49877.49877,0,0,1,.35888.15039l.75147.68457a2.19587,2.19587,0,0,0,.28369-1.11035v-.0166a2.00151,2.00151,0,0,0-1.98633-2.07813,1.9739,1.9739,0,0,0-1.96973,2.06153v.0166a1.999,1.999,0,0,0,2.9961,1.80273l-.72608-.61767A.50254.50254,0,0,1,35.10547,136.46094Z"
         fill="#1f1f1f"
         id="path69" />
    </g>
    <g
       id="g83">
      <path
         d="M61.19873,133.41455a.54138.54138,0,0,1-.0415-.20019.51327.51327,0,0,1,.52588-.501.52376.52376,0,0,1,.50927.37549l1.34375,4.01465,1.31836-3.99805a.54182.54182,0,0,1,.51758-.40869h.0752a.53459.53459,0,0,1,.51757.40869l1.31885,3.99805,1.34375-4.023a.52379.52379,0,0,1,.50049-.36719.50207.50207,0,0,1,.50928.49219.59328.59328,0,0,1-.04981.209l-1.728,4.84082a.57209.57209,0,0,1-.53418.42578h-.1001a.55308.55308,0,0,1-.52588-.42578l-1.30176-3.81445-1.30225,3.81445a.56222.56222,0,0,1-.53417.42578h-.1001a.56959.56959,0,0,1-.53418-.42578Z"
         fill="#1f1f1f"
         id="path73" />
      <path
         d="M72.49121,133.70654H71.07227a.47583.47583,0,1,1,0-.95166h3.88085a.47591.47591,0,0,1,0,.95166H73.52588v4.42383a.51741.51741,0,0,1-1.03467,0Z"
         fill="#1f1f1f"
         id="path75" />
      <path
         d="M78.9707,133.27246a.50992.50992,0,0,1,.51758-.51758h1.78613a1.96116,1.96116,0,0,1,2.22022,1.95313v.0166c0,1.31055-1.05176,1.99512-2.33692,1.99512H79.99756v1.41064a.51345.51345,0,0,1-1.02686,0Zm2.22022,2.52051c.77637,0,1.26074-.43359,1.26074-1.043v-.0166c0-.68457-.49268-1.04346-1.26074-1.04346H79.99756v2.103Z"
         fill="#1f1f1f"
         id="path77" />
      <path
         d="M84.49707,135.69287v-.0166a3.055,3.055,0,0,1,6.10938-.0166v.0166a3.055,3.055,0,0,1-6.10938.0166Zm5.03272,0v-.0166a2.00151,2.00151,0,0,0-1.98633-2.07813,1.9739,1.9739,0,0,0-1.96973,2.06153v.0166a1.99441,1.99441,0,0,0,1.98633,2.06982A1.96687,1.96687,0,0,0,89.52979,135.69287Z"
         fill="#1f1f1f"
         id="path79" />
      <path
         d="M91.82227,137.94678a.47879.47879,0,0,1,.28369-.86817.47285.47285,0,0,1,.30029.0918,2.53591,2.53591,0,0,0,1.63623.60107c.63428,0,1.03467-.30078,1.03467-.73486V137.02c0-.417-.2334-.64258-1.31836-.89307-1.24365-.30029-1.94483-.66748-1.94483-1.74414v-.01709a1.78689,1.78689,0,0,1,1.99463-1.69433,3.21527,3.21527,0,0,1,1.853.543.46278.46278,0,0,1,.2251.40869.47706.47706,0,0,1-.48389.47558.49882.49882,0,0,1-.26709-.0747,2.42721,2.42721,0,0,0-1.34375-.44239c-.60107,0-.95166.3086-.95166.69239v.01709c0,.45068.26709.65087,1.39405.918,1.23535.3003,1.86962.74268,1.86962,1.71094v.0166c0,1.09375-.85986,1.74463-2.08691,1.74463A3.63836,3.63836,0,0,1,91.82227,137.94678Z"
         fill="#1f1f1f"
         id="path81" />
    </g>
    <g
       id="g95">
      <path
         d="M25.8125,20.75439a1.25267,1.25267,0,0,1-.0752-.36279.95678.95678,0,0,1,.98829-.93848.97207.97207,0,0,1,.93847.688l1.73926,5.36768,1.752-5.31738a1.01453,1.01453,0,0,1,.97559-.76368h.15039a1.00074,1.00074,0,0,1,.97607.76368l1.75147,5.31738,1.73926-5.36768a.9639.9639,0,0,1,.92578-.688.92945.92945,0,0,1,.95117.92579,1.33587,1.33587,0,0,1-.0752.37548l-2.45214,6.88135a1.06766,1.06766,0,0,1-1.001.78858h-.2002a1.03787,1.03787,0,0,1-.98828-.78858l-1.727-5.01709-1.72656,5.01709a1.03883,1.03883,0,0,1-.98877.78858h-.2002a1.06764,1.06764,0,0,1-1.001-.78858Z"
         fill="#1f1f1f"
         id="path85" />
      <path
         d="M42.43213,21.30469H40.58057a.88819.88819,0,1,1,0-1.77637h5.63037a.88819.88819,0,1,1,0,1.77637H44.35938v6.09375a.96363.96363,0,0,1-1.92725,0Z"
         fill="#1f1f1f"
         id="path87" />
      <path
         d="M54.6001,27.66113l-2.84033-6.79394a1.20306,1.20306,0,0,1-.11231-.46338.94544.94544,0,0,1,.96338-.95069,1.00207,1.00207,0,0,1,.97607.67579l2.18946,5.668,2.21484-5.73047a.99829.99829,0,0,1,.92578-.61329.92975.92975,0,0,1,.95117.92579,1.11418,1.11418,0,0,1-.10058.42529l-2.86524,6.85693a1.1304,1.1304,0,0,1-1.08838.76319h-.125A1.13058,1.13058,0,0,1,54.6001,27.66113Z"
         fill="#1f1f1f"
         id="path89" />
      <path
         d="M60.63037,23.93262v-.02539a4.45157,4.45157,0,0,1,4.5669-4.5293,4.63611,4.63611,0,0,1,2.92773.88867.96233.96233,0,0,1,.37549.7627.93959.93959,0,0,1-.95069.93847,1.00991,1.00991,0,0,1-.57568-.1875,2.88131,2.88131,0,0,0-1.78906-.62548,2.59489,2.59489,0,0,0-2.54,2.72753v.02491a2.60167,2.60167,0,0,0,2.54,2.75293,2.81207,2.81207,0,0,0,1.90185-.68848.89249.89249,0,1,1,1.15088,1.36426,4.61548,4.61548,0,0,1-7.60742-3.40332Z"
         fill="#1f1f1f"
         id="path91" />
      <path
         d="M69.71045,23.93262v-.02539a4.65666,4.65666,0,0,1,9.30908-.02491v.02491a4.65666,4.65666,0,0,1-9.30908.02539Zm7.29443,0v-.02539a2.6604,2.6604,0,0,0-2.65234-2.75244,2.619,2.619,0,0,0-2.62744,2.72753v.02491a2.66113,2.66113,0,0,0,2.65234,2.75293A2.61933,2.61933,0,0,0,77.00488,23.93262Z"
         fill="#1f1f1f"
         id="path93" />
    </g>
    <g
       id="g105">
      <path
         d="M43.05078,270.43555a.38875.38875,0,0,1,.23047-.70459.38475.38475,0,0,1,.24414.0747,2.0562,2.0562,0,0,0,1.32764.4878c.51513,0,.84033-.24366.84033-.59619v-.01368c0-.33886-.18994-.52148-1.07031-.72461-1.00977-.24414-1.5791-.542-1.5791-1.416v-.01367a1.45092,1.45092,0,0,1,1.61962-1.37549,2.60788,2.60788,0,0,1,1.50391.44043.37668.37668,0,0,1,.18311.332.38765.38765,0,0,1-.39307.38623.40383.40383,0,0,1-.2168-.061,1.97464,1.97464,0,0,0-1.09082-.35888c-.48779,0-.77246.25049-.77246.562v.01367c0,.36572.2168.52832,1.13135.74512,1.00293.24414,1.51758.603,1.51758,1.38916v.01367c0,.88721-.69776,1.41553-1.69336,1.41553A2.95387,2.95387,0,0,1,43.05078,270.43555Z"
         fill="#1f1f1f"
         id="path97" />
      <path
         d="M47.44629,268.60645v-.01368a2.48,2.48,0,0,1,4.95947-.01367v.01367a2.48,2.48,0,0,1-4.95947.01368Zm4.08545,0v-.01368a1.62431,1.62431,0,0,0-1.61231-1.68652,1.60226,1.60226,0,0,0-1.59912,1.67285v.01367a1.61929,1.61929,0,0,0,1.6128,1.68018A1.59621,1.59621,0,0,0,51.53174,268.60645Z"
         fill="#1f1f1f"
         id="path99" />
      <path
         d="M53.62305,266.6416a.41351.41351,0,0,1,.41992-.41992h2.76465a.3794.3794,0,0,1,0,.75879H54.45654v1.29394h2.0459a.3794.3794,0,1,1,0,.75879h-2.0459V270.585a.41676.41676,0,0,1-.83349,0Z"
         fill="#1f1f1f"
         id="path101" />
      <path
         d="M59.541,266.99414H58.38965a.38623.38623,0,1,1,0-.77246H61.54a.3863.3863,0,0,1,0,.77246H60.38135V270.585a.42023.42023,0,0,1-.84033,0Z"
         fill="#1f1f1f"
         id="path103" />
    </g>
    <g
       id="g113">
      <path
         d="M45.55811,218.73486a.41676.41676,0,0,1,.83349,0v3.604h2.14746a.3794.3794,0,1,1,0,.75879H45.97852a.41362.41362,0,0,1-.42041-.41993Z"
         fill="#1f1f1f"
         id="path107" />
      <path
         d="M49.91162,218.77539a.41351.41351,0,0,1,.41992-.41992H53.0957a.3794.3794,0,1,1,0,.75879H50.74512v1.29394H52.791a.3794.3794,0,0,1,0,.75879h-2.0459v1.55176a.41677.41677,0,0,1-.8335,0Z"
         fill="#1f1f1f"
         id="path109" />
      <path
         d="M54.49414,218.74854a.41784.41784,0,0,1,.41992-.42042H55.002a.439.439,0,0,1,.38623.22364l1.43653,2.24951,1.44287-2.25635a.41922.41922,0,0,1,.37939-.2168h.08838a.41814.41814,0,0,1,.41992.42042v3.97021a.41231.41231,0,0,1-.41992.41309.41943.41943,0,0,1-.41357-.41309v-2.8457l-1.15869,1.74121a.38872.38872,0,0,1-.69727,0l-1.15234-1.72754v2.83887a.40472.40472,0,0,1-.41309.40625.399.399,0,0,1-.40625-.40625Z"
         fill="#1f1f1f"
         id="path111" />
    </g>
    <g
       id="g125">
      <path
         d="M10.5415,318.63867l-1.65966-3.90234a.46578.46578,0,0,1-.04786-.19678.411.411,0,0,1,.41993-.40674.43564.43564,0,0,1,.42675.29834l1.36914,3.42139,1.38868-3.44824a.42905.42905,0,0,1,.39941-.27149.40416.40416,0,0,1,.41357.3999.47672.47672,0,0,1-.04052.17627l-1.667,3.92969a.49549.49549,0,0,1-.48047.33838h-.04786A.49375.49375,0,0,1,10.5415,318.63867Z"
         fill="#1f1f1f"
         id="path115" />
      <path
         d="M13.23438,319.33594l2.771-5.67676a.32273.32273,0,0,1,.6167.12158.52312.52312,0,0,1-.03418.1626l-2.77734,5.67773a.31011.31011,0,0,1-.29151.18946.3228.3228,0,0,1-.32519-.31153A.38365.38365,0,0,1,13.23438,319.33594Z"
         fill="#1f1f1f"
         id="path117" />
      <path
         d="M16.99414,316.55176v-.01367a2.48,2.48,0,0,1,4.95947-.01368v.01368a2.48,2.48,0,0,1-4.95947.01367Zm4.08594,0v-.01367a1.62471,1.62471,0,0,0-1.61279-1.68653,1.60227,1.60227,0,0,0-1.59913,1.67285v.01368a1.61919,1.61919,0,0,0,1.61231,1.68017A1.5967,1.5967,0,0,0,21.08008,316.55176Z"
         fill="#1f1f1f"
         id="path119" />
      <path
         d="M22.93262,316.55176v-.01367a2.39987,2.39987,0,0,1,2.44629-2.45215,2.48837,2.48837,0,0,1,1.626.53515.41559.41559,0,0,1,.16211.332.40472.40472,0,0,1-.41308.40626.40991.40991,0,0,1-.251-.08106,1.71594,1.71594,0,0,0-1.13086-.42676,1.59606,1.59606,0,0,0-1.56543,1.67285v.01368a1.59794,1.59794,0,0,0,1.56543,1.68017,1.70156,1.70156,0,0,0,1.18555-.45361.3754.3754,0,0,1,.25049-.09473.39584.39584,0,0,1,.39306.38574.40028.40028,0,0,1-.13574.29834,2.42225,2.42225,0,0,1-1.7207.63672A2.38545,2.38545,0,0,1,22.93262,316.55176Z"
         fill="#1f1f1f"
         id="path121" />
      <path
         d="M29.55176,314.93945H28.40039a.38623.38623,0,1,1,0-.77246h3.15039a.38629.38629,0,0,1,0,.77246h-1.1582v3.59082a.42047.42047,0,0,1-.84082,0Z"
         fill="#1f1f1f"
         id="path123" />
    </g>
    <g
       id="g131">
      <path
         d="M15.74023,266.64307a.41422.41422,0,0,1,.42041-.41993H18.9248a.3794.3794,0,1,1,0,.75879H16.57422v1.29395h2.0459a.3794.3794,0,0,1,0,.75879h-2.0459v1.55127a.417.417,0,0,1-.834,0Z"
         fill="#1f1f1f"
         id="path127" />
      <path
         d="M20.32324,266.61621a.41741.41741,0,0,1,.41992-.41992h.08789a.44.44,0,0,1,.38672.22363l1.43555,2.249,1.44336-2.25586a.4183.4183,0,0,1,.37939-.2168h.08838a.41773.41773,0,0,1,.41993.41992v3.96973a.41241.41241,0,0,1-.41993.41357.41985.41985,0,0,1-.41357-.41357v-2.84522l-1.15869,1.74121a.38871.38871,0,0,1-.69727,0l-1.15234-1.72754v2.83838a.40483.40483,0,0,1-.41309.40674.39909.39909,0,0,1-.40625-.40674Z"
         fill="#1f1f1f"
         id="path129" />
    </g>
    <g
       id="g139">
      <path
         d="M77.4707,266.64307a.41422.41422,0,0,1,.42041-.41993h1.44971a1.59208,1.59208,0,0,1,1.80225,1.58545v.01368c0,1.06347-.854,1.61914-1.897,1.61914h-.9414v1.14453a.417.417,0,0,1-.834,0Zm1.80274,2.04638c.62988,0,1.02246-.35254,1.02246-.84716v-.01319c0-.55566-.39942-.84717-1.02246-.84717h-.96875v1.70752Z"
         fill="#1f1f1f"
         id="path133" />
      <path
         d="M82.01172,268.60791v-.01367a2.47973,2.47973,0,0,1,4.959-.01319v.01319a2.47973,2.47973,0,0,1-4.959.01367Zm4.085,0v-.01367a1.62472,1.62472,0,0,0-1.6123-1.687,1.60242,1.60242,0,0,0-1.59864,1.67382v.01319a1.61919,1.61919,0,0,0,1.61231,1.68017A1.5962,1.5962,0,0,0,86.09668,268.60791Z"
         fill="#1f1f1f"
         id="path135" />
      <path
         d="M88.01562,270.437a.39441.39441,0,0,1,.47461-.62988,2.05559,2.05559,0,0,0,1.32813.48779c.51465,0,.83984-.24414.83984-.59619v-.01367c0-.33838-.18945-.52149-1.07031-.7251-1.00977-.24365-1.5791-.542-1.5791-1.416v-.01319a1.45075,1.45075,0,0,1,1.61914-1.37549,2.612,2.612,0,0,1,1.50439.44043.37569.37569,0,0,1,.18311.332.38765.38765,0,0,1-.39307.38623.40378.40378,0,0,1-.21679-.061,1.97147,1.97147,0,0,0-1.09082-.35938c-.4878,0-.772.251-.772.5625v.01368c0,.36572.2168.52832,1.13086.74511,1.00293.24414,1.51758.603,1.51758,1.38868v.01367c0,.88769-.69726,1.416-1.69336,1.416A2.9528,2.9528,0,0,1,88.01562,270.437Z"
         fill="#1f1f1f"
         id="path137" />
    </g>
    <g
       id="g145">
      <path
         d="M78.56055,314.83105a.67345.67345,0,0,1-.04053-.19628.51786.51786,0,0,1,.53516-.50831.52708.52708,0,0,1,.5083.37256l.9414,2.90625.94873-2.8789a.549.549,0,0,1,.52832-.41358H82.063a.54241.54241,0,0,1,.52881.41358l.94824,2.8789.94189-2.90625a.52207.52207,0,0,1,.50147-.37256.50332.50332,0,0,1,.51465.50147.73536.73536,0,0,1-.04053.20312l-1.32813,3.72608a.57765.57765,0,0,1-.542.42676H83.479a.56229.56229,0,0,1-.53515-.42676l-.93506-2.7168-.93457,2.7168a.56273.56273,0,0,1-.53516.42676h-.1084a.57767.57767,0,0,1-.542-.42676Z"
         fill="#f0f0f0"
         id="path141" />
      <path
         d="M87.71826,315.12891H86.71582a.481.481,0,1,1,0-.96192h3.04834a.481.481,0,0,1,0,.96192H88.76172v3.2998a.52173.52173,0,0,1-1.04346,0Z"
         fill="#f0f0f0"
         id="path143" />
    </g>
    <g
       id="g155">
      <path
         d="M42.87109,318.38086a.38853.38853,0,0,1,.23047-.70459.38569.38569,0,0,1,.24414.07471,2.05494,2.05494,0,0,0,1.32715.48779c.51563,0,.84082-.24365.84082-.59619v-.01367c0-.33887-.19043-.52149-1.0708-.72461-1.00928-.24414-1.57861-.542-1.57861-1.416v-.01367a1.45075,1.45075,0,0,1,1.61914-1.37549,2.60674,2.60674,0,0,1,1.5039.44043.37668.37668,0,0,1,.18311.332.38765.38765,0,0,1-.39307.38623.40509.40509,0,0,1-.21679-.061,1.9734,1.9734,0,0,0-1.09082-.35889c-.48731,0-.77246.25049-.77246.562v.01367c0,.36573.21679.52832,1.13183.74512,1.00293.24414,1.51758.603,1.51758,1.38916v.01367c0,.88721-.69824,1.41553-1.69385,1.41553A2.95136,2.95136,0,0,1,42.87109,318.38086Z"
         fill="#1f1f1f"
         id="path147" />
      <path
         d="M48.84277,317.06641,47.21,314.82422a.5115.5115,0,0,1-.09473-.29151.40548.40548,0,0,1,.41993-.3999.48064.48064,0,0,1,.40625.251l1.32129,1.90381L50.604,314.377a.479.479,0,0,1,.39991-.25049.39486.39486,0,0,1,.40625.40625.50312.50312,0,0,1-.11524.29834l-1.61914,2.21534v1.48388a.41652.41652,0,0,1-.833,0Z"
         fill="#1f1f1f"
         id="path149" />
      <path
         d="M52.39258,314.56006a.41813.41813,0,0,1,.41992-.42041h.08838a.52449.52449,0,0,1,.43359.24414l2.3711,3.06933v-2.91357a.40992.40992,0,0,1,.81982,0v3.98389a.40441.40441,0,0,1-.40625.41308H56.085a.52421.52421,0,0,1-.43359-.251l-2.439-3.15674v3.0083a.40993.40993,0,0,1-.81982,0Z"
         fill="#1f1f1f"
         id="path151" />
      <path
         d="M57.73975,316.55176v-.01367a2.39947,2.39947,0,0,1,2.4458-2.45215,2.4874,2.4874,0,0,1,1.626.53515.41593.41593,0,0,1,.1626.332.41673.41673,0,0,1-.66357.3252,1.7185,1.7185,0,0,0-1.13184-.42676,1.59567,1.59567,0,0,0-1.56494,1.67285v.01368a1.59786,1.59786,0,0,0,1.56494,1.68017,1.7007,1.7007,0,0,0,1.18555-.45361.37767.37767,0,0,1,.251-.09473.39573.39573,0,0,1,.39258.38574.39993.39993,0,0,1-.13525.29834,2.42349,2.42349,0,0,1-1.72119.63672A2.385,2.385,0,0,1,57.73975,316.55176Z"
         fill="#1f1f1f"
         id="path153" />
    </g>
  </g>
  <g
     id="fb60f178-513e-4729-a89c-72162dea90e4"
     data-name="components"
     inkscape:groupmode="layer"
     style="display:none">
    <circle
       id="a12b2dd1-7a73-4fc0-a593-446b6cc7102a"
       data-name="Freq#SmallLight"
       cx="52.360062"
       cy="145.89278"
       r="3"
       style="fill:#ff00ff" />
    <circle
       id="a8db53fd-2cef-4979-a964-6b0d0afaf2e9"
       data-name="Wt#PJ301MPort"
       cx="84.363998"
       cy="334"
       r="5"
       style="fill:#0000ff" />
    <circle
       id="eb5c0535-c379-49af-9e8d-82f1991f60f1"
       data-name="Pitch#PJ301MPort"
       cx="20.36397"
       cy="334"
       r="5"
       style="fill:#00ff00" />
    <circle
       id="bafcc144-3ba5-4342-b6c5-75b7ad28f7b2"
       data-name="Fm#PJ301MPort"
       cx="20.36397"
       cy="285.86591"
       r="5"
       style="fill:#00ff00" />
    <circle
       id="fbbca4e9-b985-4ffd-8223-3583bf3537b3"
       data-name="FmCv#Trimpot"
       cx="20.36397"
       cy="238"
       r="5"
       style="fill:#ff0000" />
    <circle
       id="f5569cae-59a4-4935-975f-b2fb261ca481"
       data-name="PosCv#Trimpot"
       cx="84.363998"
       cy="238"
       r="5"
       style="fill:#ff0000" />
    <circle
       id="ff400e46-c51d-43ff-9f02-76541d717752"
       data-name="Pos#PJ301MPort"
       cx="84.363998"
       cy="286"
       r="5"
       style="fill:#00ff00" />
    <circle
       id="a01e3ae0-5128-4475-a239-3c3b1f44e528"
       data-name="Sync#PJ301MPort"
       cx="52.363998"
       cy="334"
       r="5"
       style="fill:#00ff00" />
    <circle
       id="f77de51d-b38b-41ee-8a57-dcc6547bf777"
       data-name="Soft#LEDButton"
       cx="52.363998"
       cy="286"
       r="5"
       style="fill:#ff0000" />
    <circle
       id="e30760a6-f406-42d5-b436-1533a0703d6d"
       data-name="Lfm#LEDButton"
       cx="52.363998"
       cy="238"
       r="5"
       style="fill:#ff0000" />
    <rect
       id="a662aadd-fde5-4473-a15a-fd1ff8008d05"
       data-name="Screen"
       y="38.5"
       width="105"
       height="85.69207"
       x="0"
       style="fill:#ffff00" />
    <circle
       id="b23c705e-a6ef-43e1-893f-7574df06d833"
       data-name="Freq#RoundLargeBlackKnob"
       cx="26.32432"
       cy="166.5"
       r="5"
       style="fill:#ff0000" />
    <circle
       id="b3216763-34e3-42f1-b229-530672ae7b79"
       data-name="Wt#RoundLargeBlackKnob"
       cx="78.675697"
       cy="166.5"
       r="5"
       style="fill:#ff0000" />
  </g>
</svg>
