<?xml version="1.0" encoding="UTF-8"?>
<svg xmlns="http://www.w3.org/2000/svg" width="105" height="380" xmlns:xlink="http://www.w3.org/1999/xlink" viewBox="0 0 105 380">
  <defs>
    <linearGradient id="uuid-e8928a67-9b71-4ca9-847c-2fd79c3f1ff1" x1="52.5" y1="0" x2="52.5" y2="380" gradientUnits="userSpaceOnUse">
      <stop offset="0" stop-color="#2a2a2b"/>
      <stop offset="1" stop-color="#171717"/>
    </linearGradient>
  </defs>
  <g id="uuid-bb047c48-03f3-4b2a-b922-d66d643f2f7c" data-name="FND BG">
    <rect width="105" height="380" fill="url(#uuid-e8928a67-9b71-4ca9-847c-2fd79c3f1ff1)"/>
  </g>
  <g id="uuid-6bc8214a-056f-4787-82a0-20f0800d0273" data-name="FND GRAPH">
    <g>
      <path d="m44.21847,359.75298c-.34551,0-.66126-.1952-.8158-.50419l-2.96428-5.92856c-.22526-.45057-.04266-.99844.40794-1.2237.45008-.22535.99831-.04271,1.22366.4079l2.14848,4.29696,2.14848-4.29696c.22526-.45057.77314-.63325,1.22366-.4079.45061.22526.63321.77314.40794,1.2237l-2.96428,5.92856c-.15454.30899-.47029.50419-.8158.50419Z" fill="#ededed"/>
      <path d="m60.49993,359.75298c-.34551,0-.66126-.1952-.8158-.50419l-2.96428-5.92856c-.22526-.45057-.04266-.99844.40794-1.2237.45016-.22535.9984-.04271,1.22366.4079l2.14848,4.29696,2.14848-4.29696c.22526-.45057.77305-.63325,1.22366-.4079.45061.22526.63321.77314.40794,1.2237l-2.96428,5.92856c-.15454.30899-.47029.50419-.8158.50419Z" fill="#ededed"/>
      <path d="m52.80162,359.75298c-2.13744,0-3.87637-1.73893-3.87637-3.87637s1.73893-3.87637,3.87637-3.87637c.84653,0,1.65102.26819,2.32653.77554.40278.30253.48401.87428.18153,1.27705-.30248.40273-.87432.48401-1.2771.18148-.357-.26815-.78267-.4099-1.23096-.4099-1.13156,0-2.05219.92059-2.05219,2.05219s.92064,2.05219,2.05219,2.05219c.44829,0,.87396-.14176,1.23096-.4099.40269-.30271.97444-.22125,1.2771.18148.30248.40278.22125.97453-.18153,1.27705-.67551.50735-1.48.77554-2.32653.77554Z" fill="#ededed"/>
      <circle cx="52.86085" cy="355.83101" r="1.18571" fill="#ededed"/>
    </g>
    <rect x="70.0482" y="309.05634" width="28.6316" height="39.15691" rx="2.83465" ry="2.83465" fill="#ededed"/>
    <line x1="52.364" y1="300.48282" x2="52.364" y2="309.3609" fill="none" stroke="#ededed" stroke-linecap="round" stroke-linejoin="round" stroke-width=".8"/>
    <line x1="40.77353" y1="238" x2="34.98587" y2="238" fill="none" stroke="#ededed" stroke-linecap="round" stroke-linejoin="round" stroke-width=".8"/>
    <line x1="14.8592" y1="202" x2="89.85919" y2="202" fill="none" stroke="#ededed" stroke-linecap="round" stroke-linejoin="round" stroke-width=".8"/>
    <g>
      <circle cx="26.3243" cy="166.5" r="26.48818" fill="none" isolation="isolate" opacity=".69"/>
      <path d="m37.12252,184.60266c6.2955-3.78272,10.15833-10.61025,10.15833-17.95479,0-11.491-9.45566-20.94666-20.94666-20.94666s-20.94666,9.45566-20.94666,20.94666c0,7.39639,3.91756,14.2646,10.28394,18.02967" fill="none" stroke="#ededed" stroke-linecap="round" stroke-miterlimit="10" stroke-width=".8"/>
      <line x1="37.12252" y1="184.60266" x2="26.3243" y2="166.5" fill="none"/>
    </g>
    <g>
      <circle cx="78.6757" cy="166.5" r="26.48818" fill="none" isolation="isolate" opacity=".69"/>
      <path d="m89.47392,184.60266c6.2955-3.78272,10.15833-10.61025,10.15833-17.95479,0-11.491-9.45566-20.94666-20.94666-20.94666s-20.94666,9.45566-20.94666,20.94666c0,7.39639,3.91756,14.2646,10.28394,18.02967" fill="none" stroke="#ededed" stroke-linecap="round" stroke-miterlimit="10" stroke-width=".8"/>
      <line x1="89.47392" y1="184.60266" x2="78.6757" y2="166.5" fill="none"/>
    </g>
    <g>
      <line x1="20.36397" y1="250.87459" x2="20.36397" y2="260.07654" fill="none" stroke="#ededed" stroke-linecap="round" stroke-linejoin="round" stroke-width=".8"/>
      <line x1="20.36397" y1="226.54018" x2="20.36397" y2="238.01957" fill="none" stroke="#ededed" stroke-linecap="round" stroke-linejoin="round"/>
      <path d="m12.21051,246.15346c-2.1616-2.1616-3.37728-5.09649-3.37728-8.15346,0-6.32558,5.20516-11.53074,11.53074-11.53074s11.53074,5.20516,11.53074,11.53074c0,3.05697-1.21567,5.99186-3.37728,8.15346" fill="none" stroke="#ededed" stroke-linecap="round" stroke-linejoin="round"/>
    </g>
    <g>
      <line x1="84.364" y1="250.87459" x2="84.364" y2="260.07654" fill="none" stroke="#ededed" stroke-linecap="round" stroke-linejoin="round" stroke-width=".8"/>
      <line x1="84.364" y1="226.54018" x2="84.364" y2="238.01957" fill="none" stroke="#ededed" stroke-linecap="round" stroke-linejoin="round"/>
      <path d="m76.21054,246.15346c-2.1616-2.1616-3.37728-5.09649-3.37728-8.15346,0-6.32558,5.20516-11.53074,11.53074-11.53074s11.53074,5.20516,11.53074,11.53074c0,3.05697-1.21567,5.99186-3.37728,8.15346" fill="none" stroke="#ededed" stroke-linecap="round" stroke-linejoin="round"/>
    </g>
  </g>
  <g id="uuid-7aa38c10-720f-48e8-80d6-583e7e79912e" data-name="FND TXT">
    <g>
      <path d="m14.76123,133.27246c0-.29199.22559-.51758.51758-.51758h3.40576c.2583,0,.46729.20898.46729.46777s-.20898.46729-.46729.46729h-2.89648v1.59424h2.52051c.25879,0,.46777.2085.46777.46729s-.20898.46729-.46777.46729h-2.52051v1.91162c0,.28369-.22559.50879-.50928.50879-.29199,0-.51758-.2251-.51758-.50879v-4.85791Z" fill="#ebebeb"/>
      <path d="m20.33545,133.27246c0-.29199.22559-.51758.51758-.51758h2.08691c.73438,0,1.31006.21729,1.68604.58447.30859.31689.48389.75098.48389,1.26025v.0166c0,.93506-.54248,1.50244-1.32715,1.74463l1.11865,1.41064c.1001.125.16699.2334.16699.39209,0,.28369-.24219.47559-.49268.47559-.23389,0-.38379-.1084-.50098-.26709l-1.41846-1.81104h-1.29395v1.56934c0,.28369-.22559.50879-.50928.50879-.29199,0-.51758-.2251-.51758-.50879v-4.85791Zm2.5293,2.37891c.73438,0,1.20166-.38379,1.20166-.97656v-.0166c0-.62598-.45068-.96826-1.20996-.96826h-1.49414v1.96143h1.50244Z" fill="#ebebeb"/>
      <path d="m26.59082,138.08008v-4.80762c0-.29199.22559-.51758.51758-.51758h3.39697c.25049,0,.45947.20898.45947.45947,0,.2583-.20898.45898-.45947.45898h-2.8877v1.51904h2.51221c.25049,0,.45898.2085.45898.46729,0,.25049-.2085.45068-.45898.45068h-2.51221v1.56934h2.92969c.25049,0,.45898.2085.45898.45898,0,.25879-.2085.45898-.45898.45898h-3.43896c-.29199,0-.51758-.22559-.51758-.51758Z" fill="#ebebeb"/>
      <path d="m31.95068,135.69287v-.0166c0-1.64404,1.26855-3.02148,3.06299-3.02148s3.04639,1.36084,3.04639,3.00488v.0166c0,.65967-.2168,1.28564-.59229,1.79443l.37549.30908c.1167.1001.19189.2251.19189.40039,0,.26709-.21729.49268-.48438.49268-.1499,0-.26709-.05859-.35889-.15039l-.41699-.37549c-.49268.35059-1.10205.55078-1.77783.55078-1.79443,0-3.04639-1.36035-3.04639-3.00488Zm3.15479.76807c0-.26709.2168-.49268.48389-.49268.15039,0,.24219.05029.35889.15039l.75146.68457c.18359-.31738.28369-.69287.28369-1.11035v-.0166c0-1.13525-.82617-2.07812-1.98633-2.07812s-1.96973.92627-1.96973,2.06152v.0166c0,1.13525.82617,2.06982,1.98633,2.06982.38379,0,.72607-.1001,1.00977-.26709l-.72607-.61768c-.1167-.1001-.19189-.2251-.19189-.40039Z" fill="#ebebeb"/>
    </g>
    <g>
      <path d="m61.19873,133.41455c-.0249-.05859-.0415-.13379-.0415-.2002,0-.28418.24219-.50098.52588-.50098.25049,0,.44238.15869.50928.37549l1.34375,4.01465,1.31836-3.99805c.0835-.2417.25879-.40869.51758-.40869h.0752c.25879,0,.44238.16699.51758.40869l1.31885,3.99805,1.34375-4.02295c.0752-.2085.25049-.36719.50049-.36719.27588,0,.50928.2168.50928.49219,0,.06689-.0249.15039-.0498.20898l-1.72803,4.84082c-.0918.25879-.28369.42578-.53418.42578h-.1001c-.25049,0-.43408-.15869-.52588-.42578l-1.30176-3.81445-1.30225,3.81445c-.0918.26709-.28369.42578-.53418.42578h-.1001c-.25049,0-.43408-.15869-.53418-.42578l-1.72803-4.84082Z" fill="#ebebeb"/>
      <path d="m72.49121,133.70654h-1.41895c-.26709,0-.47607-.2168-.47607-.47559s.20898-.47607.47607-.47607h3.88086c.25879,0,.46729.21729.46729.47607s-.2085.47559-.46729.47559h-1.42725v4.42383c0,.28369-.2334.50879-.51758.50879-.28369,0-.51709-.2251-.51709-.50879v-4.42383Z" fill="#ebebeb"/>
      <path d="m78.9707,133.27246c0-.29199.22559-.51758.51758-.51758h1.78613c1.36914,0,2.22021.77637,2.22021,1.95312v.0166c0,1.31055-1.05176,1.99512-2.33691,1.99512h-1.16016v1.41064c0,.28369-.22559.50879-.50928.50879-.29199,0-.51758-.2251-.51758-.50879v-4.85791Zm2.22021,2.52051c.77637,0,1.26074-.43359,1.26074-1.04297v-.0166c0-.68457-.49268-1.04346-1.26074-1.04346h-1.19336v2.10303h1.19336Z" fill="#ebebeb"/>
      <path d="m84.49707,135.69287v-.0166c0-1.64404,1.26855-3.02148,3.06299-3.02148s3.04639,1.36084,3.04639,3.00488v.0166c0,1.64453-1.26855,3.02148-3.06299,3.02148s-3.04639-1.36035-3.04639-3.00488Zm5.03271,0v-.0166c0-1.13525-.82617-2.07812-1.98633-2.07812s-1.96973.92627-1.96973,2.06152v.0166c0,1.13525.82617,2.06982,1.98633,2.06982s1.96973-.91797,1.96973-2.05322Z" fill="#ebebeb"/>
      <path d="m91.82227,137.94678c-.11719-.0835-.2002-.22559-.2002-.39258,0-.26709.2168-.47559.48389-.47559.14209,0,.23389.0415.30029.0918.48438.38379,1.00195.60107,1.63623.60107s1.03467-.30078,1.03467-.73486v-.0166c0-.41699-.2334-.64258-1.31836-.89307-1.24365-.30029-1.94482-.66748-1.94482-1.74414v-.01709c0-1.00146.83447-1.69434,1.99463-1.69434.73438,0,1.32715.19238,1.85303.54297.1167.06641.2251.2085.2251.40869,0,.26709-.2168.47559-.48389.47559-.1001,0-.18359-.0249-.26709-.07471-.45068-.29248-.88477-.44238-1.34375-.44238-.60107,0-.95166.30859-.95166.69238v.01709c0,.45068.26709.65088,1.39404.91797,1.23535.30029,1.86963.74268,1.86963,1.71094v.0166c0,1.09375-.85986,1.74463-2.08691,1.74463-.79248,0-1.54395-.25049-2.19482-.73438Z" fill="#ebebeb"/>
    </g>
    <g>
      <path d="m25.8125,20.75439c-.0376-.11279-.0752-.25049-.0752-.36279,0-.53809.45068-.93848.98828-.93848.45068,0,.81348.2876.93848.68799l1.73926,5.36768,1.75195-5.31738c.15039-.45068.48779-.76367.97559-.76367h.15039c.48828,0,.82617.30078.97607.76367l1.75146,5.31738,1.73926-5.36768c.125-.37549.45068-.68799.92578-.68799.52588,0,.95117.40039.95117.92578,0,.1123-.0376.2627-.0752.37549l-2.45215,6.88135c-.17529.48828-.53809.78857-1.00098.78857h-.2002c-.46289,0-.81348-.2876-.98828-.78857l-1.72705-5.01709-1.72656,5.01709c-.17529.50098-.52588.78857-.98877.78857h-.2002c-.46289,0-.82568-.30029-1.00098-.78857l-2.45215-6.88135Z" fill="#ebebeb"/>
      <path d="m42.43213,21.30469h-1.85156c-.48779,0-.88818-.40039-.88818-.88818s.40039-.88818.88818-.88818h5.63037c.48828,0,.88867.40039.88867.88818s-.40039.88818-.88867.88818h-1.85156v6.09375c0,.53809-.42578.96338-.96387.96338-.5376,0-.96338-.42529-.96338-.96338v-6.09375Z" fill="#ebebeb"/>
      <path d="m54.6001,27.66113l-2.84033-6.79395c-.0625-.15039-.1123-.30078-.1123-.46338,0-.5376.42529-.95068.96338-.95068.50049,0,.82568.2876.97607.67578l2.18945,5.66797,2.21484-5.73047c.125-.31299.46289-.61328.92578-.61328.52539,0,.95117.40039.95117.92578,0,.15039-.05029.3125-.10059.42529l-2.86523,6.85693c-.2002.47559-.56299.76318-1.08838.76318h-.125c-.52588,0-.88867-.2876-1.08887-.76318Z" fill="#ebebeb"/>
      <path d="m60.63037,23.93262v-.02539c0-2.48975,1.87695-4.5293,4.56689-4.5293,1.31396,0,2.20215.35059,2.92773.88867.2002.1499.37549.4248.37549.7627,0,.52588-.42529.93848-.95068.93848-.2627,0-.43799-.09961-.57568-.1875-.53809-.40039-1.10107-.62549-1.78906-.62549-1.47656,0-2.54004,1.22607-2.54004,2.72754v.0249c0,1.50146,1.03857,2.75293,2.54004,2.75293.81299,0,1.35107-.25049,1.90186-.68848.1499-.125.3501-.2124.5752-.2124.48828,0,.90088.40039.90088.88818,0,.30029-.1499.53809-.3252.68848-.78809.68799-1.71436,1.10059-3.11572,1.10059-2.57715,0-4.4917-1.98926-4.4917-4.50391Z" fill="#ebebeb"/>
      <path d="m69.71045,23.93262v-.02539c0-2.48975,1.96436-4.5293,4.66699-4.5293s4.64209,2.01465,4.64209,4.50439v.0249c0,2.49023-1.96436,4.5293-4.66699,4.5293s-4.64209-2.01416-4.64209-4.50391Zm7.29443,0v-.02539c0-1.50146-1.10059-2.75244-2.65234-2.75244s-2.62744,1.22607-2.62744,2.72754v.0249c0,1.50146,1.10107,2.75293,2.65234,2.75293,1.55176,0,2.62744-1.22656,2.62744-2.72754Z" fill="#ebebeb"/>
    </g>
    <g>
      <path d="m43.05078,270.43555c-.09473-.06738-.16211-.18262-.16211-.31836,0-.2168.17578-.38623.39258-.38623.11523,0,.18994.03369.24414.07471.39258.31152.81299.48779,1.32764.48779.51514,0,.84033-.24365.84033-.59619v-.01367c0-.33887-.18994-.52148-1.07031-.72461-1.00977-.24414-1.5791-.54199-1.5791-1.41602v-.01367c0-.81299.67773-1.37549,1.61963-1.37549.59619,0,1.07715.15576,1.50391.44043.09473.0542.18311.16943.18311.33203,0,.2168-.17627.38623-.39307.38623-.08154,0-.14893-.02051-.2168-.06104-.36572-.23682-.71826-.35889-1.09082-.35889-.48779,0-.77246.25049-.77246.56201v.01367c0,.36572.2168.52832,1.13135.74512,1.00293.24414,1.51758.60303,1.51758,1.38916v.01367c0,.88721-.69775,1.41553-1.69336,1.41553-.64355,0-1.25342-.20312-1.78223-.59619Z" fill="#ebebeb"/>
      <path d="m47.44629,268.60645v-.01367c0-1.33447,1.03027-2.45215,2.48682-2.45215s2.47266,1.104,2.47266,2.43848v.01367c0,1.33496-1.02979,2.45264-2.48633,2.45264s-2.47314-1.104-2.47314-2.43896Zm4.08545,0v-.01367c0-.92139-.67041-1.68652-1.6123-1.68652s-1.59912.75195-1.59912,1.67285v.01367c0,.92139.6709,1.68018,1.61279,1.68018s1.59863-.74512,1.59863-1.6665Z" fill="#ebebeb"/>
      <path d="m53.62305,266.6416c0-.2373.18311-.41992.41992-.41992h2.76465c.20996,0,.37891.16943.37891.37939s-.16895.37939-.37891.37939h-2.35107v1.29395h2.0459c.20996,0,.37939.16943.37939.37939s-.16943.37939-.37939.37939h-2.0459v1.55176c0,.22998-.18311.41309-.41357.41309-.23682,0-.41992-.18311-.41992-.41309v-3.94336Z" fill="#ebebeb"/>
      <path d="m59.54102,266.99414h-1.15137c-.2168,0-.38672-.17627-.38672-.38623s.16992-.38623.38672-.38623h3.15039c.20996,0,.37891.17627.37891.38623s-.16895.38623-.37891.38623h-1.15869v3.59082c0,.22998-.18994.41309-.42041.41309-.22998,0-.41992-.18311-.41992-.41309v-3.59082Z" fill="#ebebeb"/>
    </g>
    <g>
      <path d="m45.55811,218.73486c0-.23047.18311-.41357.42041-.41357.22998,0,.41309.18311.41309.41357v3.604h2.14746c.20996,0,.37939.16992.37939.37988s-.16943.37891-.37939.37891h-2.56055c-.2373,0-.42041-.18262-.42041-.41992v-3.94287Z" fill="#ebebeb"/>
      <path d="m49.91162,218.77539c0-.2373.18311-.41992.41992-.41992h2.76416c.20996,0,.37939.16943.37939.37939s-.16943.37939-.37939.37939h-2.35059v1.29395h2.0459c.20996,0,.37891.16943.37891.37939s-.16895.37939-.37891.37939h-2.0459v1.55176c0,.22998-.18311.41309-.41357.41309-.23682,0-.41992-.18311-.41992-.41309v-3.94336Z" fill="#ebebeb"/>
      <path d="m54.49414,218.74854c0-.23047.18262-.42041.41992-.42041h.08789c.18311,0,.30518.09521.38623.22363l1.43652,2.24951,1.44287-2.25635c.08789-.14209.20996-.2168.37939-.2168h.08838c.23682,0,.41992.18994.41992.42041v3.97021c0,.22998-.18311.41309-.41992.41309-.22363,0-.41357-.18945-.41357-.41309v-2.8457l-1.15869,1.74121c-.08789.13574-.19629.2168-.35205.2168-.14893,0-.25732-.08105-.34521-.2168l-1.15234-1.72754v2.83887c0,.22998-.18262.40625-.41309.40625s-.40625-.17627-.40625-.40625v-3.97705Z" fill="#ebebeb"/>
    </g>
    <g>
      <path d="m10.5415,318.63867l-1.65967-3.90234c-.02734-.06152-.04785-.12207-.04785-.19678,0-.22363.18311-.40674.41992-.40674.2168,0,.35938.12207.42676.29834l1.36914,3.42139,1.38867-3.44824c.0542-.14258.20312-.27148.39941-.27148.23047,0,.41357.17676.41357.3999,0,.06104-.02002.12891-.04053.17627l-1.66699,3.92969c-.08789.20996-.24365.33838-.48047.33838h-.04785c-.23047,0-.38574-.12842-.47412-.33838Z" fill="#ebebeb"/>
      <path d="m13.23438,319.33594l2.771-5.67676c.06104-.12207.1626-.18994.29834-.18994.17578,0,.31836.14209.31836.31152,0,.06104-.02051.12207-.03418.1626l-2.77734,5.67773c-.06152.12158-.15625.18945-.2915.18945-.17627,0-.3252-.14258-.3252-.31152,0-.06104.02002-.12207.04053-.16309Z" fill="#ebebeb"/>
      <path d="m16.99414,316.55176v-.01367c0-1.33447,1.03027-2.45215,2.48633-2.45215,1.45703,0,2.47314,1.104,2.47314,2.43848v.01367c0,1.33496-1.02979,2.45264-2.48633,2.45264s-2.47314-1.104-2.47314-2.43896Zm4.08594,0v-.01367c0-.92139-.6709-1.68652-1.61279-1.68652s-1.59912.75195-1.59912,1.67285v.01367c0,.92139.6709,1.68018,1.6123,1.68018.94238,0,1.59961-.74512,1.59961-1.6665Z" fill="#ebebeb"/>
      <path d="m22.93262,316.55176v-.01367c0-1.34814,1.00977-2.45215,2.44629-2.45215.73145,0,1.2124.2168,1.62598.53516.08789.06738.16211.18262.16211.33203,0,.22998-.18262.40625-.41309.40625-.11523,0-.19629-.04053-.25098-.08105-.3252-.26465-.67676-.42676-1.13086-.42676-.90137,0-1.56543.74512-1.56543,1.67285v.01367c0,.92822.65723,1.68018,1.56543,1.68018.50098,0,.83984-.1626,1.18555-.45361.06055-.05469.14893-.09473.25049-.09473.21045,0,.39307.17578.39307.38574,0,.12891-.06104.23047-.13574.29834-.44727.39307-.95508.63672-1.7207.63672-1.38184,0-2.41211-1.07715-2.41211-2.43896Z" fill="#ebebeb"/>
      <path d="m29.55176,314.93945h-1.15137c-.2168,0-.38623-.17627-.38623-.38623s.16943-.38623.38623-.38623h3.15039c.20996,0,.37939.17627.37939.38623s-.16943.38623-.37939.38623h-1.1582v3.59082c0,.22998-.19043.41309-.42041.41309s-.42041-.18311-.42041-.41309v-3.59082Z" fill="#ebebeb"/>
    </g>
    <g>
      <path d="m15.74023,266.64307c0-.23682.18359-.41992.42041-.41992h2.76416c.20996,0,.37939.16943.37939.37939s-.16943.37939-.37939.37939h-2.35059v1.29395h2.0459c.20996,0,.37891.16943.37891.37939s-.16895.37939-.37891.37939h-2.0459v1.55127c0,.23047-.18359.41357-.41357.41357-.23682,0-.42041-.18311-.42041-.41357v-3.94287Z" fill="#ebebeb"/>
      <path d="m20.32324,266.61621c0-.23047.18262-.41992.41992-.41992h.08789c.18311,0,.30469.09473.38672.22363l1.43555,2.24902,1.44336-2.25586c.08789-.14258.20996-.2168.37939-.2168h.08838c.23682,0,.41992.18945.41992.41992v3.96973c0,.23047-.18311.41357-.41992.41357-.22363,0-.41357-.18994-.41357-.41357v-2.84521l-1.15869,1.74121c-.08789.13525-.19629.2168-.35205.2168-.14893,0-.25732-.08154-.34521-.2168l-1.15234-1.72754v2.83838c0,.23047-.18262.40674-.41309.40674s-.40625-.17627-.40625-.40674v-3.97656Z" fill="#ebebeb"/>
    </g>
    <g>
      <path d="m77.4707,266.64307c0-.23682.18359-.41992.42041-.41992h1.44971c1.11133,0,1.80225.63037,1.80225,1.58545v.01367c0,1.06348-.854,1.61914-1.89697,1.61914h-.94141v1.14453c0,.23047-.18359.41357-.41357.41357-.23682,0-.42041-.18311-.42041-.41357v-3.94287Zm1.80273,2.04639c.62988,0,1.02246-.35254,1.02246-.84717v-.01318c0-.55566-.39941-.84717-1.02246-.84717h-.96875v1.70752h.96875Z" fill="#ebebeb"/>
      <path d="m82.01172,268.60791v-.01367c0-1.33447,1.02979-2.45264,2.48633-2.45264,1.45703,0,2.47266,1.10449,2.47266,2.43945v.01318c0,1.33447-1.0293,2.45264-2.48633,2.45264-1.45605,0-2.47266-1.10449-2.47266-2.43896Zm4.08496,0v-.01367c0-.92139-.67041-1.68701-1.6123-1.68701-.94141,0-1.59863.75195-1.59863,1.67383v.01318c0,.92139.6709,1.68018,1.6123,1.68018.94189,0,1.59863-.74512,1.59863-1.6665Z" fill="#ebebeb"/>
      <path d="m88.01562,270.43701c-.09473-.06787-.16211-.18311-.16211-.31836,0-.2168.17578-.38623.39258-.38623.11523,0,.18945.03418.24414.07471.39258.31152.8125.48779,1.32812.48779.51465,0,.83984-.24414.83984-.59619v-.01367c0-.33838-.18945-.52148-1.07031-.7251-1.00977-.24365-1.5791-.54199-1.5791-1.41602v-.01318c0-.81299.67773-1.37549,1.61914-1.37549.59668,0,1.07764.15625,1.50439.44043.09521.0542.18311.16943.18311.33203,0,.2168-.17627.38623-.39307.38623-.08154,0-.14893-.02051-.2168-.06104-.36572-.2373-.71826-.35938-1.09082-.35938-.48779,0-.77197.25098-.77197.5625v.01367c0,.36572.2168.52832,1.13086.74512,1.00293.24414,1.51758.60303,1.51758,1.38867v.01367c0,.8877-.69727,1.41602-1.69336,1.41602-.64355,0-1.25391-.20312-1.78223-.59619Z" fill="#ebebeb"/>
    </g>
    <g>
      <path d="m78.56055,314.83105c-.02051-.06104-.04053-.13574-.04053-.19629,0-.2915.24365-.5083.53516-.5083.24365,0,.44043.15576.5083.37256l.94141,2.90625.94873-2.87891c.08105-.24414.26416-.41357.52832-.41357h.08105c.26416,0,.44727.1626.52881.41357l.94824,2.87891.94189-2.90625c.06787-.20312.24365-.37256.50146-.37256.28418,0,.51465.2168.51465.50146,0,.06055-.02051.14209-.04053.20312l-1.32812,3.72607c-.09473.26416-.29102.42676-.54199.42676h-.1084c-.25049,0-.44043-.15576-.53516-.42676l-.93506-2.7168-.93457,2.7168c-.09521.271-.28467.42676-.53516.42676h-.1084c-.25098,0-.44727-.1626-.54199-.42676l-1.32812-3.72607Z" fill="#1f1f1f"/>
      <path d="m87.71826,315.12891h-1.00244c-.26465,0-.48145-.2168-.48145-.48096s.2168-.48096.48145-.48096h3.04834c.26416,0,.48096.2168.48096.48096s-.2168.48096-.48096.48096h-1.00244v3.2998c0,.29102-.23047.52148-.52148.52148-.2915,0-.52197-.23047-.52197-.52148v-3.2998Z" fill="#1f1f1f"/>
    </g>
    <g>
      <path d="m42.87109,318.38086c-.09473-.06738-.1626-.18262-.1626-.31836,0-.2168.17627-.38623.39307-.38623.11523,0,.18945.03369.24414.07471.39258.31152.8125.48779,1.32715.48779.51562,0,.84082-.24365.84082-.59619v-.01367c0-.33887-.19043-.52148-1.0708-.72461-1.00928-.24414-1.57861-.54199-1.57861-1.41602v-.01367c0-.81299.67773-1.37549,1.61914-1.37549.59668,0,1.07715.15576,1.50391.44043.09473.0542.18311.16943.18311.33203,0,.2168-.17627.38623-.39307.38623-.08105,0-.14893-.02051-.2168-.06104-.36572-.23682-.71777-.35889-1.09082-.35889-.4873,0-.77246.25049-.77246.56201v.01367c0,.36572.2168.52832,1.13184.74512,1.00293.24414,1.51758.60303,1.51758,1.38916v.01367c0,.88721-.69824,1.41553-1.69385,1.41553-.64355,0-1.25342-.20312-1.78174-.59619Z" fill="#ebebeb"/>
      <path d="m48.84277,317.06641l-1.63281-2.24219c-.05469-.08105-.09473-.17627-.09473-.2915,0-.22314.18262-.3999.41992-.3999.18262,0,.30469.10205.40625.25098l1.32129,1.90381,1.34131-1.91064c.10205-.14893.22363-.25049.3999-.25049.24414,0,.40625.18311.40625.40625,0,.11523-.05371.2168-.11523.29834l-1.61914,2.21533v1.48389c0,.22998-.18262.41309-.41992.41309-.23047,0-.41309-.18311-.41309-.41309v-1.46387Z" fill="#ebebeb"/>
      <path d="m52.39258,314.56006c0-.23047.18311-.42041.41992-.42041h.08838c.20312,0,.31836.10156.43359.24414l2.37109,3.06934v-2.91357c0-.22363.18311-.40674.40674-.40674.23047,0,.41309.18311.41309.40674v3.98389c0,.23047-.17578.41309-.40625.41309h-.03418c-.19629,0-.31836-.10156-.43359-.25098l-2.43896-3.15674v3.0083c0,.22314-.18311.40625-.40674.40625-.22998,0-.41309-.18311-.41309-.40625v-3.97705Z" fill="#ebebeb"/>
      <path d="m57.73975,316.55176v-.01367c0-1.34814,1.00928-2.45215,2.4458-2.45215.73145,0,1.21289.2168,1.62598.53516.08789.06738.1626.18262.1626.33203,0,.22998-.18311.40625-.41357.40625-.11523,0-.19629-.04053-.25-.08105-.3252-.26465-.67773-.42676-1.13184-.42676-.90137,0-1.56494.74512-1.56494,1.67285v.01367c0,.92822.65723,1.68018,1.56494,1.68018.50146,0,.83984-.1626,1.18555-.45361.06104-.05469.14941-.09473.25098-.09473.20996,0,.39258.17578.39258.38574,0,.12891-.06055.23047-.13525.29834-.44727.39307-.95557.63672-1.72119.63672-1.38184,0-2.41162-1.07715-2.41162-2.43896Z" fill="#ebebeb"/>
    </g>
  </g>
</svg>